<svg xmlns="http://www.w3.org/2000/svg" width="1920" height="480" viewBox="0 0 1920 480"><rect x="0" y="0" width="1920" height="480" fill="#000000"/><g opacity="0.14671543245050844"><path d="M -67.2721957705278,-127.81717196400282 L -54.40021838042687,-98.3478981602693 L -24.46043253734353,-110.08395900371207 L -36.19649338078631,-80.14417316062872 L -6.727219577052779,-67.2721957705278 L -36.19649338078631,-54.40021838042688 L -24.46043253734353,-24.460432537343536 L -54.40021838042687,-36.19649338078631 L -67.2721957705278,-6.727219577052779 L -80.14417316062872,-36.19649338078631 L -110.08395900371207,-24.46043253734353 L -98.3478981602693,-54.40021838042686 L -127.81717196400282,-67.27219577052779 L -98.3478981602693,-80.14417316062874 L -110.08395900371208,-110.08395900371207 L -80.14417316062875,-98.3478981602693 Z" fill="none" stroke="#00A86B" stroke-width="1.575372100377163" /><path d="M 67.2721957705278,-127.81717196400282 L 80.14417316062872,-98.3478981602693 L 110.08395900371207,-110.08395900371207 L 98.3478981602693,-80.14417316062872 L 127.81717196400282,-67.2721957705278 L 98.3478981602693,-54.40021838042688 L 110.08395900371207,-24.460432537343536 L 80.14417316062872,-36.19649338078631 L 67.2721957705278,-6.727219577052779 L 54.40021838042688,-36.19649338078631 L 24.460432537343536,-24.46043253734353 L 36.196493380786315,-54.40021838042686 L 6.727219577052779,-67.27219577052779 L 36.19649338078631,-80.14417316062874 L 24.46043253734352,-110.08395900371207 L 54.40021838042686,-98.3478981602693 Z" fill="none" stroke="#00A86B" stroke-width="1.575372100377163" /><path d="M 201.81658731158342,-127.81717196400282 L 214.68856470168436,-98.3478981602693 L 244.6283505447677,-110.08395900371207 L 232.8922897013249,-80.14417316062872 L 262.3615635050584,-67.2721957705278 L 232.8922897013249,-54.40021838042688 L 244.6283505447677,-24.460432537343536 L 214.68856470168436,-36.19649338078631 L 201.81658731158342,-6.727219577052779 L 188.94460992148248,-36.19649338078631 L 159.00482407839917,-24.46043253734353 L 170.74088492184194,-54.40021838042686 L 141.2716111181084,-67.27219577052779 L 170.74088492184194,-80.14417316062874 L 159.00482407839914,-110.08395900371207 L 188.94460992148248,-98.3478981602693 Z" fill="none" stroke="#00A86B" stroke-width="1.575372100377163" /><path d="M 336.36097885263905,-127.81717196400282 L 349.23295624274,-98.3478981602693 L 379.1727420858233,-110.08395900371207 L 367.43668124238053,-80.14417316062872 L 396.90595504611406,-67.2721957705278 L 367.43668124238053,-54.40021838042688 L 379.1727420858233,-24.460432537343536 L 349.23295624274,-36.19649338078631 L 336.36097885263905,-6.727219577052779 L 323.4890014625381,-36.19649338078631 L 293.5492156194548,-24.46043253734353 L 305.28527646289757,-54.40021838042686 L 275.81600265916404,-67.27219577052779 L 305.28527646289757,-80.14417316062874 L 293.5492156194548,-110.08395900371207 L 323.4890014625381,-98.3478981602693 Z" fill="none" stroke="#00A86B" stroke-width="1.575372100377163" /><path d="M 470.9053703936946,-127.81717196400282 L 483.77734778379556,-98.3478981602693 L 513.7171336268789,-110.08395900371207 L 501.9810727834361,-80.14417316062872 L 531.4503465871696,-67.2721957705278 L 501.9810727834361,-54.40021838042688 L 513.7171336268789,-24.460432537343536 L 483.77734778379556,-36.19649338078631 L 470.9053703936946,-6.727219577052779 L 458.0333930035937,-36.19649338078631 L 428.0936071605104,-24.46043253734353 L 439.82966800395315,-54.40021838042686 L 410.3603942002196,-67.27219577052779 L 439.82966800395315,-80.14417316062874 L 428.0936071605104,-110.08395900371207 L 458.0333930035937,-98.3478981602693 Z" fill="none" stroke="#00A86B" stroke-width="1.575372100377163" /><path d="M 605.4497619347502,-127.81717196400282 L 618.3217393248511,-98.3478981602693 L 648.2615251679345,-110.08395900371207 L 636.5254643244917,-80.14417316062872 L 665.9947381282252,-67.2721957705278 L 636.5254643244917,-54.40021838042688 L 648.2615251679345,-24.460432537343536 L 618.3217393248511,-36.19649338078631 L 605.4497619347502,-6.727219577052779 L 592.5777845446493,-36.19649338078631 L 562.637998701566,-24.46043253734353 L 574.3740595450087,-54.40021838042686 L 544.9047857412752,-67.27219577052779 L 574.3740595450087,-80.14417316062874 L 562.637998701566,-110.08395900371207 L 592.5777845446493,-98.3478981602693 Z" fill="none" stroke="#00A86B" stroke-width="1.575372100377163" /><path d="M 739.9941534758059,-127.81717196400282 L 752.8661308659068,-98.3478981602693 L 782.8059167089901,-110.08395900371207 L 771.0698558655474,-80.14417316062872 L 800.5391296692809,-67.2721957705278 L 771.0698558655474,-54.40021838042688 L 782.8059167089901,-24.460432537343536 L 752.8661308659068,-36.19649338078631 L 739.9941534758059,-6.727219577052779 L 727.122176085705,-36.19649338078631 L 697.1823902426216,-24.46043253734353 L 708.9184510860644,-54.40021838042686 L 679.4491772823309,-67.27219577052779 L 708.9184510860644,-80.14417316062874 L 697.1823902426216,-110.08395900371207 L 727.122176085705,-98.3478981602693 Z" fill="none" stroke="#00A86B" stroke-width="1.575372100377163" /><path d="M 874.5385450168615,-127.81717196400282 L 887.4105224069624,-98.3478981602693 L 917.3503082500457,-110.08395900371207 L 905.614247406603,-80.14417316062872 L 935.0835212103365,-67.2721957705278 L 905.614247406603,-54.40021838042688 L 917.3503082500457,-24.460432537343536 L 887.4105224069624,-36.19649338078631 L 874.5385450168615,-6.727219577052779 L 861.6665676267605,-36.19649338078631 L 831.7267817836772,-24.46043253734353 L 843.4628426271199,-54.40021838042686 L 813.9935688233865,-67.27219577052779 L 843.4628426271199,-80.14417316062874 L 831.7267817836772,-110.08395900371207 L 861.6665676267605,-98.3478981602693 Z" fill="none" stroke="#00A86B" stroke-width="1.575372100377163" /><path d="M 1009.082936557917,-127.81717196400282 L 1021.954913948018,-98.3478981602693 L 1051.8946997911014,-110.08395900371207 L 1040.1586389476586,-80.14417316062872 L 1069.6279127513922,-67.2721957705278 L 1040.1586389476586,-54.40021838042688 L 1051.8946997911014,-24.460432537343536 L 1021.954913948018,-36.19649338078631 L 1009.082936557917,-6.727219577052779 L 996.2109591678161,-36.19649338078631 L 966.2711733247328,-24.46043253734353 L 978.0072341681755,-54.40021838042686 L 948.537960364442,-67.27219577052779 L 978.0072341681755,-80.14417316062874 L 966.2711733247328,-110.08395900371207 L 996.2109591678161,-98.3478981602693 Z" fill="none" stroke="#00A86B" stroke-width="1.575372100377163" /><path d="M 1143.6273280989726,-127.81717196400282 L 1156.4993054890735,-98.3478981602693 L 1186.439091332157,-110.08395900371207 L 1174.7030304887141,-80.14417316062872 L 1204.1723042924477,-67.2721957705278 L 1174.7030304887141,-54.40021838042688 L 1186.439091332157,-24.460432537343536 L 1156.4993054890735,-36.19649338078631 L 1143.6273280989726,-6.727219577052779 L 1130.7553507088717,-36.19649338078631 L 1100.8155648657882,-24.46043253734353 L 1112.551625709231,-54.40021838042686 L 1083.0823519054975,-67.27219577052779 L 1112.551625709231,-80.14417316062874 L 1100.8155648657882,-110.08395900371207 L 1130.7553507088717,-98.3478981602693 Z" fill="none" stroke="#00A86B" stroke-width="1.575372100377163" /><path d="M 1278.1717196400282,-127.81717196400282 L 1291.0436970301291,-98.3478981602693 L 1320.9834828732126,-110.08395900371207 L 1309.2474220297697,-80.14417316062872 L 1338.7166958335033,-67.2721957705278 L 1309.2474220297697,-54.40021838042688 L 1320.9834828732126,-24.460432537343536 L 1291.0436970301291,-36.19649338078631 L 1278.1717196400282,-6.727219577052779 L 1265.2997422499272,-36.19649338078631 L 1235.3599564068438,-24.46043253734353 L 1247.0960172502866,-54.40021838042686 L 1217.626743446553,-67.27219577052779 L 1247.0960172502866,-80.14417316062874 L 1235.3599564068438,-110.08395900371207 L 1265.2997422499272,-98.3478981602693 Z" fill="none" stroke="#00A86B" stroke-width="1.575372100377163" /><path d="M 1412.7161111810838,-127.81717196400282 L 1425.5880885711847,-98.3478981602693 L 1455.5278744142681,-110.08395900371207 L 1443.7918135708253,-80.14417316062872 L 1473.2610873745589,-67.2721957705278 L 1443.7918135708253,-54.40021838042688 L 1455.5278744142681,-24.460432537343536 L 1425.5880885711847,-36.19649338078631 L 1412.7161111810838,-6.727219577052779 L 1399.8441337909828,-36.19649338078631 L 1369.9043479478994,-24.46043253734353 L 1381.6404087913422,-54.40021838042686 L 1352.1711349876086,-67.27219577052779 L 1381.6404087913422,-80.14417316062874 L 1369.9043479478994,-110.08395900371207 L 1399.8441337909828,-98.3478981602693 Z" fill="none" stroke="#00A86B" stroke-width="1.575372100377163" /><path d="M 1547.2605027221396,-127.81717196400282 L 1560.1324801122405,-98.3478981602693 L 1590.072265955324,-110.08395900371207 L 1578.336205111881,-80.14417316062872 L 1607.8054789156147,-67.2721957705278 L 1578.336205111881,-54.40021838042688 L 1590.072265955324,-24.460432537343536 L 1560.1324801122405,-36.19649338078631 L 1547.2605027221396,-6.727219577052779 L 1534.3885253320386,-36.19649338078631 L 1504.4487394889552,-24.46043253734353 L 1516.184800332398,-54.40021838042686 L 1486.7155265286644,-67.27219577052779 L 1516.184800332398,-80.14417316062874 L 1504.4487394889552,-110.08395900371207 L 1534.3885253320386,-98.3478981602693 Z" fill="none" stroke="#00A86B" stroke-width="1.575372100377163" /><path d="M 1681.8048942631951,-127.81717196400282 L 1694.676871653296,-98.3478981602693 L 1724.6166574963795,-110.08395900371207 L 1712.8805966529367,-80.14417316062872 L 1742.3498704566703,-67.2721957705278 L 1712.8805966529367,-54.40021838042688 L 1724.6166574963795,-24.460432537343536 L 1694.676871653296,-36.19649338078631 L 1681.8048942631951,-6.727219577052779 L 1668.9329168730942,-36.19649338078631 L 1638.9931310300108,-24.46043253734353 L 1650.7291918734536,-54.40021838042686 L 1621.25991806972,-67.27219577052779 L 1650.7291918734536,-80.14417316062874 L 1638.9931310300108,-110.08395900371207 L 1668.9329168730942,-98.3478981602693 Z" fill="none" stroke="#00A86B" stroke-width="1.575372100377163" /><path d="M 1816.3492858042507,-127.81717196400282 L 1829.2212631943516,-98.3478981602693 L 1859.161049037435,-110.08395900371207 L 1847.4249881939922,-80.14417316062872 L 1876.8942619977258,-67.2721957705278 L 1847.4249881939922,-54.40021838042688 L 1859.161049037435,-24.460432537343536 L 1829.2212631943516,-36.19649338078631 L 1816.3492858042507,-6.727219577052779 L 1803.4773084141498,-36.19649338078631 L 1773.5375225710663,-24.46043253734353 L 1785.2735834145092,-54.40021838042686 L 1755.8043096107756,-67.27219577052779 L 1785.2735834145092,-80.14417316062874 L 1773.5375225710663,-110.08395900371207 L 1803.4773084141498,-98.3478981602693 Z" fill="none" stroke="#00A86B" stroke-width="1.575372100377163" /><path d="M 1950.8936773453063,-127.81717196400282 L 1963.7656547354072,-98.3478981602693 L 1993.7054405784907,-110.08395900371207 L 1981.9693797350478,-80.14417316062872 L 2011.4386535387814,-67.2721957705278 L 1981.9693797350478,-54.40021838042688 L 1993.7054405784907,-24.460432537343536 L 1963.7656547354072,-36.19649338078631 L 1950.8936773453063,-6.727219577052779 L 1938.0216999552053,-36.19649338078631 L 1908.081914112122,-24.46043253734353 L 1919.8179749555648,-54.40021838042686 L 1890.3487011518312,-67.27219577052779 L 1919.8179749555648,-80.14417316062874 L 1908.081914112122,-110.08395900371207 L 1938.0216999552053,-98.3478981602693 Z" fill="none" stroke="#00A86B" stroke-width="1.575372100377163" /><path d="M 3.707310564989595e-15,-11.301728889448668 L 12.871977390100929,18.16754491428486 L 42.81176323318427,6.431484070842089 L 31.075702389741494,36.37126991392543 L 60.54497619347502,49.243247304026355 L 31.075702389741494,62.11522469412728 L 42.81176323318427,92.05501053721062 L 12.871977390100929,80.31894969376785 L 3.707310564989595e-15,109.78822349750138 L -12.871977390100925,80.31894969376785 L -42.811763233184266,92.05501053721062 L -31.075702389741487,62.1152246941273 L -60.54497619347502,49.24324730402636 L -31.07570238974149,36.37126991392542 L -42.81176323318428,6.431484070842089 L -12.871977390100946,18.167544914284868 Z" fill="none" stroke="#00A86B" stroke-width="1.575372100377163" /><path d="M 134.5443915410556,-11.301728889448668 L 147.41636893115654,18.16754491428486 L 177.35615477423988,6.431484070842089 L 165.6200939307971,36.37126991392543 L 195.08936773453064,49.243247304026355 L 165.6200939307971,62.11522469412728 L 177.35615477423988,92.05501053721062 L 147.41636893115654,80.31894969376785 L 134.5443915410556,109.78822349750138 L 121.67241415095468,80.31894969376785 L 91.73262830787134,92.05501053721062 L 103.46868915131412,62.1152246941273 L 73.99941534758058,49.24324730402636 L 103.46868915131411,36.37126991392542 L 91.73262830787132,6.431484070842089 L 121.67241415095465,18.167544914284868 Z" fill="none" stroke="#00A86B" stroke-width="1.575372100377163" /><path d="M 269.0887830821112,-11.301728889448668 L 281.96076047221214,18.16754491428486 L 311.90054631529546,6.431484070842089 L 300.1644854718527,36.37126991392543 L 329.6337592755862,49.243247304026355 L 300.1644854718527,62.11522469412728 L 311.90054631529546,92.05501053721062 L 281.96076047221214,80.31894969376785 L 269.0887830821112,109.78822349750138 L 256.21680569201027,80.31894969376785 L 226.27701984892695,92.05501053721062 L 238.01308069236973,62.1152246941273 L 208.5438068886362,49.24324730402636 L 238.01308069236973,36.37126991392542 L 226.27701984892693,6.431484070842089 L 256.21680569201027,18.167544914284868 Z" fill="none" stroke="#00A86B" stroke-width="1.575372100377163" /><path d="M 403.63317462316684,-11.301728889448668 L 416.5051520132678,18.16754491428486 L 446.4449378563511,6.431484070842089 L 434.7088770129083,36.37126991392543 L 464.17815081664185,49.243247304026355 L 434.7088770129083,62.11522469412728 L 446.4449378563511,92.05501053721062 L 416.5051520132678,80.31894969376785 L 403.63317462316684,109.78822349750138 L 390.7611972330659,80.31894969376785 L 360.8214113899826,92.05501053721062 L 372.55747223342536,62.1152246941273 L 343.08819842969183,49.24324730402636 L 372.55747223342536,36.37126991392542 L 360.8214113899826,6.431484070842089 L 390.7611972330659,18.167544914284868 Z" fill="none" stroke="#00A86B" stroke-width="1.575372100377163" /><path d="M 538.1775661642224,-11.301728889448668 L 551.0495435543233,18.16754491428486 L 580.9893293974067,6.431484070842089 L 569.253268553964,36.37126991392543 L 598.7225423576974,49.243247304026355 L 569.253268553964,62.11522469412728 L 580.9893293974067,92.05501053721062 L 551.0495435543233,80.31894969376785 L 538.1775661642224,109.78822349750138 L 525.3055887741215,80.31894969376785 L 495.36580293103816,92.05501053721062 L 507.10186377448093,62.1152246941273 L 477.6325899707474,49.24324730402636 L 507.10186377448093,36.37126991392542 L 495.36580293103816,6.431484070842089 L 525.3055887741215,18.167544914284868 Z" fill="none" stroke="#00A86B" stroke-width="1.575372100377163" /><path d="M 672.721957705278,-11.301728889448668 L 685.5939350953789,18.16754491428486 L 715.5337209384622,6.431484070842089 L 703.7976600950195,36.37126991392543 L 733.266933898753,49.243247304026355 L 703.7976600950195,62.11522469412728 L 715.5337209384622,92.05501053721062 L 685.5939350953789,80.31894969376785 L 672.721957705278,109.78822349750138 L 659.849980315177,80.31894969376785 L 629.9101944720937,92.05501053721062 L 641.6462553155365,62.1152246941273 L 612.176981511803,49.24324730402636 L 641.6462553155365,36.37126991392542 L 629.9101944720937,6.431484070842089 L 659.849980315177,18.167544914284868 Z" fill="none" stroke="#00A86B" stroke-width="1.575372100377163" /><path d="M 807.2663492463337,-11.301728889448668 L 820.1383266364346,18.16754491428486 L 850.0781124795179,6.431484070842089 L 838.3420516360752,36.37126991392543 L 867.8113254398087,49.243247304026355 L 838.3420516360752,62.11522469412728 L 850.0781124795179,92.05501053721062 L 820.1383266364346,80.31894969376785 L 807.2663492463337,109.78822349750138 L 794.3943718562327,80.31894969376785 L 764.4545860131494,92.05501053721062 L 776.1906468565921,62.1152246941273 L 746.7213730528587,49.24324730402636 L 776.1906468565921,36.37126991392542 L 764.4545860131494,6.431484070842089 L 794.3943718562327,18.167544914284868 Z" fill="none" stroke="#00A86B" stroke-width="1.575372100377163" /><path d="M 941.8107407873892,-11.301728889448668 L 954.6827181774902,18.16754491428486 L 984.6225040205735,6.431484070842089 L 972.8864431771308,36.37126991392543 L 1002.3557169808643,49.243247304026355 L 972.8864431771308,62.11522469412728 L 984.6225040205735,92.05501053721062 L 954.6827181774902,80.31894969376785 L 941.8107407873892,109.78822349750138 L 928.9387633972883,80.31894969376785 L 898.998977554205,92.05501053721062 L 910.7350383976477,62.1152246941273 L 881.2657645939142,49.24324730402636 L 910.7350383976477,36.37126991392542 L 898.998977554205,6.431484070842089 L 928.9387633972883,18.167544914284868 Z" fill="none" stroke="#00A86B" stroke-width="1.575372100377163" /><path d="M 1076.3551323284448,-11.301728889448668 L 1089.2271097185458,18.16754491428486 L 1119.1668955616292,6.431484070842089 L 1107.4308347181864,36.37126991392543 L 1136.90010852192,49.243247304026355 L 1107.4308347181864,62.11522469412728 L 1119.1668955616292,92.05501053721062 L 1089.2271097185458,80.31894969376785 L 1076.3551323284448,109.78822349750138 L 1063.483154938344,80.31894969376785 L 1033.5433690952605,92.05501053721062 L 1045.2794299387033,62.1152246941273 L 1015.8101561349698,49.24324730402636 L 1045.2794299387033,36.37126991392542 L 1033.5433690952605,6.431484070842089 L 1063.483154938344,18.167544914284868 Z" fill="none" stroke="#00A86B" stroke-width="1.575372100377163" /><path d="M 1210.8995238695004,-11.301728889448668 L 1223.7715012596013,18.16754491428486 L 1253.7112871026848,6.431484070842089 L 1241.975226259242,36.37126991392543 L 1271.4445000629755,49.243247304026355 L 1241.975226259242,62.11522469412728 L 1253.7112871026848,92.05501053721062 L 1223.7715012596013,80.31894969376785 L 1210.8995238695004,109.78822349750138 L 1198.0275464793995,80.31894969376785 L 1168.087760636316,92.05501053721062 L 1179.8238214797589,62.1152246941273 L 1150.3545476760253,49.24324730402636 L 1179.8238214797589,36.37126991392542 L 1168.087760636316,6.431484070842089 L 1198.0275464793995,18.167544914284868 Z" fill="none" stroke="#00A86B" stroke-width="1.575372100377163" /><path d="M 1345.443915410556,-11.301728889448668 L 1358.315892800657,18.16754491428486 L 1388.2556786437403,6.431484070842089 L 1376.5196178002975,36.37126991392543 L 1405.988891604031,49.243247304026355 L 1376.5196178002975,62.11522469412728 L 1388.2556786437403,92.05501053721062 L 1358.315892800657,80.31894969376785 L 1345.443915410556,109.78822349750138 L 1332.571938020455,80.31894969376785 L 1302.6321521773716,92.05501053721062 L 1314.3682130208144,62.1152246941273 L 1284.8989392170809,49.24324730402636 L 1314.3682130208144,36.37126991392542 L 1302.6321521773716,6.431484070842089 L 1332.571938020455,18.167544914284868 Z" fill="none" stroke="#00A86B" stroke-width="1.575372100377163" /><path d="M 1479.9883069516115,-11.301728889448668 L 1492.8602843417125,18.16754491428486 L 1522.800070184796,6.431484070842089 L 1511.064009341353,36.37126991392543 L 1540.5332831450867,49.243247304026355 L 1511.064009341353,62.11522469412728 L 1522.800070184796,92.05501053721062 L 1492.8602843417125,80.31894969376785 L 1479.9883069516115,109.78822349750138 L 1467.1163295615106,80.31894969376785 L 1437.1765437184272,92.05501053721062 L 1448.91260456187,62.1152246941273 L 1419.4433307581364,49.24324730402636 L 1448.91260456187,36.37126991392542 L 1437.1765437184272,6.431484070842089 L 1467.1163295615106,18.167544914284868 Z" fill="none" stroke="#00A86B" stroke-width="1.575372100377163" /><path d="M 1614.5326984926674,-11.301728889448668 L 1627.4046758827683,18.16754491428486 L 1657.3444617258517,6.431484070842089 L 1645.608400882409,36.37126991392543 L 1675.0776746861425,49.243247304026355 L 1645.608400882409,62.11522469412728 L 1657.3444617258517,92.05501053721062 L 1627.4046758827683,80.31894969376785 L 1614.5326984926674,109.78822349750138 L 1601.6607211025664,80.31894969376785 L 1571.720935259483,92.05501053721062 L 1583.4569961029258,62.1152246941273 L 1553.9877222991922,49.24324730402636 L 1583.4569961029258,36.37126991392542 L 1571.720935259483,6.431484070842089 L 1601.6607211025664,18.167544914284868 Z" fill="none" stroke="#00A86B" stroke-width="1.575372100377163" /><path d="M 1749.077090033723,-11.301728889448668 L 1761.9490674238239,18.16754491428486 L 1791.8888532669073,6.431484070842089 L 1780.1527924234645,36.37126991392543 L 1809.622066227198,49.243247304026355 L 1780.1527924234645,62.11522469412728 L 1791.8888532669073,92.05501053721062 L 1761.9490674238239,80.31894969376785 L 1749.077090033723,109.78822349750138 L 1736.205112643622,80.31894969376785 L 1706.2653268005386,92.05501053721062 L 1718.0013876439814,62.1152246941273 L 1688.5321138402478,49.24324730402636 L 1718.0013876439814,36.37126991392542 L 1706.2653268005386,6.431484070842089 L 1736.205112643622,18.167544914284868 Z" fill="none" stroke="#00A86B" stroke-width="1.575372100377163" /><path d="M 1883.6214815747785,-11.301728889448668 L 1896.4934589648794,18.16754491428486 L 1926.4332448079629,6.431484070842089 L 1914.69718396452,36.37126991392543 L 1944.1664577682536,49.243247304026355 L 1914.69718396452,62.11522469412728 L 1926.4332448079629,92.05501053721062 L 1896.4934589648794,80.31894969376785 L 1883.6214815747785,109.78822349750138 L 1870.7495041846776,80.31894969376785 L 1840.8097183415941,92.05501053721062 L 1852.545779185037,62.1152246941273 L 1823.0765053813034,49.24324730402636 L 1852.545779185037,36.37126991392542 L 1840.8097183415941,6.431484070842089 L 1870.7495041846776,18.167544914284868 Z" fill="none" stroke="#00A86B" stroke-width="1.575372100377163" /><path d="M 2018.165873115834,-11.301728889448668 L 2031.037850505935,18.16754491428486 L 2060.977636349018,6.431484070842089 L 2049.2415755055754,36.37126991392543 L 2078.710849309309,49.243247304026355 L 2049.2415755055754,62.11522469412728 L 2060.977636349018,92.05501053721062 L 2031.037850505935,80.31894969376785 L 2018.165873115834,109.78822349750138 L 2005.2938957257331,80.31894969376785 L 1975.3541098826497,92.05501053721062 L 1987.0901707260925,62.1152246941273 L 1957.620896922359,49.24324730402636 L 1987.0901707260925,36.37126991392542 L 1975.3541098826497,6.431484070842089 L 2005.2938957257331,18.167544914284868 Z" fill="none" stroke="#00A86B" stroke-width="1.575372100377163" /><path d="M -67.2721957705278,105.2137141851055 L -54.40021838042687,134.68298798883905 L -24.46043253734353,122.94692714539626 L -36.19649338078631,152.8867129884796 L -6.727219577052779,165.75869037858052 L -36.19649338078631,178.63066776868146 L -24.46043253734353,208.57045361176478 L -54.40021838042687,196.834392768322 L -67.2721957705278,226.30366657205553 L -80.14417316062872,196.834392768322 L -110.08395900371207,208.5704536117648 L -98.3478981602693,178.63066776868146 L -127.81717196400282,165.75869037858052 L -98.3478981602693,152.8867129884796 L -110.08395900371208,122.94692714539626 L -80.14417316062875,134.68298798883905 Z" fill="none" stroke="#00A86B" stroke-width="1.575372100377163" /><path d="M 67.2721957705278,105.2137141851055 L 80.14417316062872,134.68298798883905 L 110.08395900371207,122.94692714539626 L 98.3478981602693,152.8867129884796 L 127.81717196400282,165.75869037858052 L 98.3478981602693,178.63066776868146 L 110.08395900371207,208.57045361176478 L 80.14417316062872,196.834392768322 L 67.2721957705278,226.30366657205553 L 54.40021838042688,196.834392768322 L 24.460432537343536,208.5704536117648 L 36.196493380786315,178.63066776868146 L 6.727219577052779,165.75869037858052 L 36.19649338078631,152.8867129884796 L 24.46043253734352,122.94692714539626 L 54.40021838042686,134.68298798883905 Z" fill="none" stroke="#00A86B" stroke-width="1.575372100377163" /><path d="M 201.81658731158342,105.2137141851055 L 214.68856470168436,134.68298798883905 L 244.6283505447677,122.94692714539626 L 232.8922897013249,152.8867129884796 L 262.3615635050584,165.75869037858052 L 232.8922897013249,178.63066776868146 L 244.6283505447677,208.57045361176478 L 214.68856470168436,196.834392768322 L 201.81658731158342,226.30366657205553 L 188.94460992148248,196.834392768322 L 159.00482407839917,208.5704536117648 L 170.74088492184194,178.63066776868146 L 141.2716111181084,165.75869037858052 L 170.74088492184194,152.8867129884796 L 159.00482407839914,122.94692714539626 L 188.94460992148248,134.68298798883905 Z" fill="none" stroke="#00A86B" stroke-width="1.575372100377163" /><path d="M 336.36097885263905,105.2137141851055 L 349.23295624274,134.68298798883905 L 379.1727420858233,122.94692714539626 L 367.43668124238053,152.8867129884796 L 396.90595504611406,165.75869037858052 L 367.43668124238053,178.63066776868146 L 379.1727420858233,208.57045361176478 L 349.23295624274,196.834392768322 L 336.36097885263905,226.30366657205553 L 323.4890014625381,196.834392768322 L 293.5492156194548,208.5704536117648 L 305.28527646289757,178.63066776868146 L 275.81600265916404,165.75869037858052 L 305.28527646289757,152.8867129884796 L 293.5492156194548,122.94692714539626 L 323.4890014625381,134.68298798883905 Z" fill="none" stroke="#00A86B" stroke-width="1.575372100377163" /><path d="M 470.9053703936946,105.2137141851055 L 483.77734778379556,134.68298798883905 L 513.7171336268789,122.94692714539626 L 501.9810727834361,152.8867129884796 L 531.4503465871696,165.75869037858052 L 501.9810727834361,178.63066776868146 L 513.7171336268789,208.57045361176478 L 483.77734778379556,196.834392768322 L 470.9053703936946,226.30366657205553 L 458.0333930035937,196.834392768322 L 428.0936071605104,208.5704536117648 L 439.82966800395315,178.63066776868146 L 410.3603942002196,165.75869037858052 L 439.82966800395315,152.8867129884796 L 428.0936071605104,122.94692714539626 L 458.0333930035937,134.68298798883905 Z" fill="none" stroke="#00A86B" stroke-width="1.575372100377163" /><path d="M 605.4497619347502,105.2137141851055 L 618.3217393248511,134.68298798883905 L 648.2615251679345,122.94692714539626 L 636.5254643244917,152.8867129884796 L 665.9947381282252,165.75869037858052 L 636.5254643244917,178.63066776868146 L 648.2615251679345,208.57045361176478 L 618.3217393248511,196.834392768322 L 605.4497619347502,226.30366657205553 L 592.5777845446493,196.834392768322 L 562.637998701566,208.5704536117648 L 574.3740595450087,178.63066776868146 L 544.9047857412752,165.75869037858052 L 574.3740595450087,152.8867129884796 L 562.637998701566,122.94692714539626 L 592.5777845446493,134.68298798883905 Z" fill="none" stroke="#00A86B" stroke-width="1.575372100377163" /><path d="M 739.9941534758059,105.2137141851055 L 752.8661308659068,134.68298798883905 L 782.8059167089901,122.94692714539626 L 771.0698558655474,152.8867129884796 L 800.5391296692809,165.75869037858052 L 771.0698558655474,178.63066776868146 L 782.8059167089901,208.57045361176478 L 752.8661308659068,196.834392768322 L 739.9941534758059,226.30366657205553 L 727.122176085705,196.834392768322 L 697.1823902426216,208.5704536117648 L 708.9184510860644,178.63066776868146 L 679.4491772823309,165.75869037858052 L 708.9184510860644,152.8867129884796 L 697.1823902426216,122.94692714539626 L 727.122176085705,134.68298798883905 Z" fill="none" stroke="#00A86B" stroke-width="1.575372100377163" /><path d="M 874.5385450168615,105.2137141851055 L 887.4105224069624,134.68298798883905 L 917.3503082500457,122.94692714539626 L 905.614247406603,152.8867129884796 L 935.0835212103365,165.75869037858052 L 905.614247406603,178.63066776868146 L 917.3503082500457,208.57045361176478 L 887.4105224069624,196.834392768322 L 874.5385450168615,226.30366657205553 L 861.6665676267605,196.834392768322 L 831.7267817836772,208.5704536117648 L 843.4628426271199,178.63066776868146 L 813.9935688233865,165.75869037858052 L 843.4628426271199,152.8867129884796 L 831.7267817836772,122.94692714539626 L 861.6665676267605,134.68298798883905 Z" fill="none" stroke="#00A86B" stroke-width="1.575372100377163" /><path d="M 1009.082936557917,105.2137141851055 L 1021.954913948018,134.68298798883905 L 1051.8946997911014,122.94692714539626 L 1040.1586389476586,152.8867129884796 L 1069.6279127513922,165.75869037858052 L 1040.1586389476586,178.63066776868146 L 1051.8946997911014,208.57045361176478 L 1021.954913948018,196.834392768322 L 1009.082936557917,226.30366657205553 L 996.2109591678161,196.834392768322 L 966.2711733247328,208.5704536117648 L 978.0072341681755,178.63066776868146 L 948.537960364442,165.75869037858052 L 978.0072341681755,152.8867129884796 L 966.2711733247328,122.94692714539626 L 996.2109591678161,134.68298798883905 Z" fill="none" stroke="#00A86B" stroke-width="1.575372100377163" /><path d="M 1143.6273280989726,105.2137141851055 L 1156.4993054890735,134.68298798883905 L 1186.439091332157,122.94692714539626 L 1174.7030304887141,152.8867129884796 L 1204.1723042924477,165.75869037858052 L 1174.7030304887141,178.63066776868146 L 1186.439091332157,208.57045361176478 L 1156.4993054890735,196.834392768322 L 1143.6273280989726,226.30366657205553 L 1130.7553507088717,196.834392768322 L 1100.8155648657882,208.5704536117648 L 1112.551625709231,178.63066776868146 L 1083.0823519054975,165.75869037858052 L 1112.551625709231,152.8867129884796 L 1100.8155648657882,122.94692714539626 L 1130.7553507088717,134.68298798883905 Z" fill="none" stroke="#00A86B" stroke-width="1.575372100377163" /><path d="M 1278.1717196400282,105.2137141851055 L 1291.0436970301291,134.68298798883905 L 1320.9834828732126,122.94692714539626 L 1309.2474220297697,152.8867129884796 L 1338.7166958335033,165.75869037858052 L 1309.2474220297697,178.63066776868146 L 1320.9834828732126,208.57045361176478 L 1291.0436970301291,196.834392768322 L 1278.1717196400282,226.30366657205553 L 1265.2997422499272,196.834392768322 L 1235.3599564068438,208.5704536117648 L 1247.0960172502866,178.63066776868146 L 1217.626743446553,165.75869037858052 L 1247.0960172502866,152.8867129884796 L 1235.3599564068438,122.94692714539626 L 1265.2997422499272,134.68298798883905 Z" fill="none" stroke="#00A86B" stroke-width="1.575372100377163" /><path d="M 1412.7161111810838,105.2137141851055 L 1425.5880885711847,134.68298798883905 L 1455.5278744142681,122.94692714539626 L 1443.7918135708253,152.8867129884796 L 1473.2610873745589,165.75869037858052 L 1443.7918135708253,178.63066776868146 L 1455.5278744142681,208.57045361176478 L 1425.5880885711847,196.834392768322 L 1412.7161111810838,226.30366657205553 L 1399.8441337909828,196.834392768322 L 1369.9043479478994,208.5704536117648 L 1381.6404087913422,178.63066776868146 L 1352.1711349876086,165.75869037858052 L 1381.6404087913422,152.8867129884796 L 1369.9043479478994,122.94692714539626 L 1399.8441337909828,134.68298798883905 Z" fill="none" stroke="#00A86B" stroke-width="1.575372100377163" /><path d="M 1547.2605027221396,105.2137141851055 L 1560.1324801122405,134.68298798883905 L 1590.072265955324,122.94692714539626 L 1578.336205111881,152.8867129884796 L 1607.8054789156147,165.75869037858052 L 1578.336205111881,178.63066776868146 L 1590.072265955324,208.57045361176478 L 1560.1324801122405,196.834392768322 L 1547.2605027221396,226.30366657205553 L 1534.3885253320386,196.834392768322 L 1504.4487394889552,208.5704536117648 L 1516.184800332398,178.63066776868146 L 1486.7155265286644,165.75869037858052 L 1516.184800332398,152.8867129884796 L 1504.4487394889552,122.94692714539626 L 1534.3885253320386,134.68298798883905 Z" fill="none" stroke="#00A86B" stroke-width="1.575372100377163" /><path d="M 1681.8048942631951,105.2137141851055 L 1694.676871653296,134.68298798883905 L 1724.6166574963795,122.94692714539626 L 1712.8805966529367,152.8867129884796 L 1742.3498704566703,165.75869037858052 L 1712.8805966529367,178.63066776868146 L 1724.6166574963795,208.57045361176478 L 1694.676871653296,196.834392768322 L 1681.8048942631951,226.30366657205553 L 1668.9329168730942,196.834392768322 L 1638.9931310300108,208.5704536117648 L 1650.7291918734536,178.63066776868146 L 1621.25991806972,165.75869037858052 L 1650.7291918734536,152.8867129884796 L 1638.9931310300108,122.94692714539626 L 1668.9329168730942,134.68298798883905 Z" fill="none" stroke="#00A86B" stroke-width="1.575372100377163" /><path d="M 1816.3492858042507,105.2137141851055 L 1829.2212631943516,134.68298798883905 L 1859.161049037435,122.94692714539626 L 1847.4249881939922,152.8867129884796 L 1876.8942619977258,165.75869037858052 L 1847.4249881939922,178.63066776868146 L 1859.161049037435,208.57045361176478 L 1829.2212631943516,196.834392768322 L 1816.3492858042507,226.30366657205553 L 1803.4773084141498,196.834392768322 L 1773.5375225710663,208.5704536117648 L 1785.2735834145092,178.63066776868146 L 1755.8043096107756,165.75869037858052 L 1785.2735834145092,152.8867129884796 L 1773.5375225710663,122.94692714539626 L 1803.4773084141498,134.68298798883905 Z" fill="none" stroke="#00A86B" stroke-width="1.575372100377163" /><path d="M 1950.8936773453063,105.2137141851055 L 1963.7656547354072,134.68298798883905 L 1993.7054405784907,122.94692714539626 L 1981.9693797350478,152.8867129884796 L 2011.4386535387814,165.75869037858052 L 1981.9693797350478,178.63066776868146 L 1993.7054405784907,208.57045361176478 L 1963.7656547354072,196.834392768322 L 1950.8936773453063,226.30366657205553 L 1938.0216999552053,196.834392768322 L 1908.081914112122,208.5704536117648 L 1919.8179749555648,178.63066776868146 L 1890.3487011518312,165.75869037858052 L 1919.8179749555648,152.8867129884796 L 1908.081914112122,122.94692714539626 L 1938.0216999552053,134.68298798883905 Z" fill="none" stroke="#00A86B" stroke-width="1.575372100377163" /><path d="M 3.707310564989595e-15,221.7291572596597 L 12.871977390100929,251.19843106339323 L 42.81176323318427,239.46237021995046 L 31.075702389741494,269.4021560630338 L 60.54497619347502,282.2741334531347 L 31.075702389741494,295.14611084323565 L 42.81176323318427,325.08589668631896 L 12.871977390100929,313.3498358428762 L 3.707310564989595e-15,342.8191096466097 L -12.871977390100925,313.3498358428762 L -42.811763233184266,325.08589668631896 L -31.075702389741487,295.14611084323565 L -60.54497619347502,282.2741334531347 L -31.07570238974149,269.4021560630338 L -42.81176323318428,239.46237021995046 L -12.871977390100946,251.19843106339323 Z" fill="none" stroke="#00A86B" stroke-width="1.575372100377163" /><path d="M 134.5443915410556,221.7291572596597 L 147.41636893115654,251.19843106339323 L 177.35615477423988,239.46237021995046 L 165.6200939307971,269.4021560630338 L 195.08936773453064,282.2741334531347 L 165.6200939307971,295.14611084323565 L 177.35615477423988,325.08589668631896 L 147.41636893115654,313.3498358428762 L 134.5443915410556,342.8191096466097 L 121.67241415095468,313.3498358428762 L 91.73262830787134,325.08589668631896 L 103.46868915131412,295.14611084323565 L 73.99941534758058,282.2741334531347 L 103.46868915131411,269.4021560630338 L 91.73262830787132,239.46237021995046 L 121.67241415095465,251.19843106339323 Z" fill="none" stroke="#00A86B" stroke-width="1.575372100377163" /><path d="M 269.0887830821112,221.7291572596597 L 281.96076047221214,251.19843106339323 L 311.90054631529546,239.46237021995046 L 300.1644854718527,269.4021560630338 L 329.6337592755862,282.2741334531347 L 300.1644854718527,295.14611084323565 L 311.90054631529546,325.08589668631896 L 281.96076047221214,313.3498358428762 L 269.0887830821112,342.8191096466097 L 256.21680569201027,313.3498358428762 L 226.27701984892695,325.08589668631896 L 238.01308069236973,295.14611084323565 L 208.5438068886362,282.2741334531347 L 238.01308069236973,269.4021560630338 L 226.27701984892693,239.46237021995046 L 256.21680569201027,251.19843106339323 Z" fill="none" stroke="#00A86B" stroke-width="1.575372100377163" /><path d="M 403.63317462316684,221.7291572596597 L 416.5051520132678,251.19843106339323 L 446.4449378563511,239.46237021995046 L 434.7088770129083,269.4021560630338 L 464.17815081664185,282.2741334531347 L 434.7088770129083,295.14611084323565 L 446.4449378563511,325.08589668631896 L 416.5051520132678,313.3498358428762 L 403.63317462316684,342.8191096466097 L 390.7611972330659,313.3498358428762 L 360.8214113899826,325.08589668631896 L 372.55747223342536,295.14611084323565 L 343.08819842969183,282.2741334531347 L 372.55747223342536,269.4021560630338 L 360.8214113899826,239.46237021995046 L 390.7611972330659,251.19843106339323 Z" fill="none" stroke="#00A86B" stroke-width="1.575372100377163" /><path d="M 538.1775661642224,221.7291572596597 L 551.0495435543233,251.19843106339323 L 580.9893293974067,239.46237021995046 L 569.253268553964,269.4021560630338 L 598.7225423576974,282.2741334531347 L 569.253268553964,295.14611084323565 L 580.9893293974067,325.08589668631896 L 551.0495435543233,313.3498358428762 L 538.1775661642224,342.8191096466097 L 525.3055887741215,313.3498358428762 L 495.36580293103816,325.08589668631896 L 507.10186377448093,295.14611084323565 L 477.6325899707474,282.2741334531347 L 507.10186377448093,269.4021560630338 L 495.36580293103816,239.46237021995046 L 525.3055887741215,251.19843106339323 Z" fill="none" stroke="#00A86B" stroke-width="1.575372100377163" /><path d="M 672.721957705278,221.7291572596597 L 685.5939350953789,251.19843106339323 L 715.5337209384622,239.46237021995046 L 703.7976600950195,269.4021560630338 L 733.266933898753,282.2741334531347 L 703.7976600950195,295.14611084323565 L 715.5337209384622,325.08589668631896 L 685.5939350953789,313.3498358428762 L 672.721957705278,342.8191096466097 L 659.849980315177,313.3498358428762 L 629.9101944720937,325.08589668631896 L 641.6462553155365,295.14611084323565 L 612.176981511803,282.2741334531347 L 641.6462553155365,269.4021560630338 L 629.9101944720937,239.46237021995046 L 659.849980315177,251.19843106339323 Z" fill="none" stroke="#00A86B" stroke-width="1.575372100377163" /><path d="M 807.2663492463337,221.7291572596597 L 820.1383266364346,251.19843106339323 L 850.0781124795179,239.46237021995046 L 838.3420516360752,269.4021560630338 L 867.8113254398087,282.2741334531347 L 838.3420516360752,295.14611084323565 L 850.0781124795179,325.08589668631896 L 820.1383266364346,313.3498358428762 L 807.2663492463337,342.8191096466097 L 794.3943718562327,313.3498358428762 L 764.4545860131494,325.08589668631896 L 776.1906468565921,295.14611084323565 L 746.7213730528587,282.2741334531347 L 776.1906468565921,269.4021560630338 L 764.4545860131494,239.46237021995046 L 794.3943718562327,251.19843106339323 Z" fill="none" stroke="#00A86B" stroke-width="1.575372100377163" /><path d="M 941.8107407873892,221.7291572596597 L 954.6827181774902,251.19843106339323 L 984.6225040205735,239.46237021995046 L 972.8864431771308,269.4021560630338 L 1002.3557169808643,282.2741334531347 L 972.8864431771308,295.14611084323565 L 984.6225040205735,325.08589668631896 L 954.6827181774902,313.3498358428762 L 941.8107407873892,342.8191096466097 L 928.9387633972883,313.3498358428762 L 898.998977554205,325.08589668631896 L 910.7350383976477,295.14611084323565 L 881.2657645939142,282.2741334531347 L 910.7350383976477,269.4021560630338 L 898.998977554205,239.46237021995046 L 928.9387633972883,251.19843106339323 Z" fill="none" stroke="#00A86B" stroke-width="1.575372100377163" /><path d="M 1076.3551323284448,221.7291572596597 L 1089.2271097185458,251.19843106339323 L 1119.1668955616292,239.46237021995046 L 1107.4308347181864,269.4021560630338 L 1136.90010852192,282.2741334531347 L 1107.4308347181864,295.14611084323565 L 1119.1668955616292,325.08589668631896 L 1089.2271097185458,313.3498358428762 L 1076.3551323284448,342.8191096466097 L 1063.483154938344,313.3498358428762 L 1033.5433690952605,325.08589668631896 L 1045.2794299387033,295.14611084323565 L 1015.8101561349698,282.2741334531347 L 1045.2794299387033,269.4021560630338 L 1033.5433690952605,239.46237021995046 L 1063.483154938344,251.19843106339323 Z" fill="none" stroke="#00A86B" stroke-width="1.575372100377163" /><path d="M 1210.8995238695004,221.7291572596597 L 1223.7715012596013,251.19843106339323 L 1253.7112871026848,239.46237021995046 L 1241.975226259242,269.4021560630338 L 1271.4445000629755,282.2741334531347 L 1241.975226259242,295.14611084323565 L 1253.7112871026848,325.08589668631896 L 1223.7715012596013,313.3498358428762 L 1210.8995238695004,342.8191096466097 L 1198.0275464793995,313.3498358428762 L 1168.087760636316,325.08589668631896 L 1179.8238214797589,295.14611084323565 L 1150.3545476760253,282.2741334531347 L 1179.8238214797589,269.4021560630338 L 1168.087760636316,239.46237021995046 L 1198.0275464793995,251.19843106339323 Z" fill="none" stroke="#00A86B" stroke-width="1.575372100377163" /><path d="M 1345.443915410556,221.7291572596597 L 1358.315892800657,251.19843106339323 L 1388.2556786437403,239.46237021995046 L 1376.5196178002975,269.4021560630338 L 1405.988891604031,282.2741334531347 L 1376.5196178002975,295.14611084323565 L 1388.2556786437403,325.08589668631896 L 1358.315892800657,313.3498358428762 L 1345.443915410556,342.8191096466097 L 1332.571938020455,313.3498358428762 L 1302.6321521773716,325.08589668631896 L 1314.3682130208144,295.14611084323565 L 1284.8989392170809,282.2741334531347 L 1314.3682130208144,269.4021560630338 L 1302.6321521773716,239.46237021995046 L 1332.571938020455,251.19843106339323 Z" fill="none" stroke="#00A86B" stroke-width="1.575372100377163" /><path d="M 1479.9883069516115,221.7291572596597 L 1492.8602843417125,251.19843106339323 L 1522.800070184796,239.46237021995046 L 1511.064009341353,269.4021560630338 L 1540.5332831450867,282.2741334531347 L 1511.064009341353,295.14611084323565 L 1522.800070184796,325.08589668631896 L 1492.8602843417125,313.3498358428762 L 1479.9883069516115,342.8191096466097 L 1467.1163295615106,313.3498358428762 L 1437.1765437184272,325.08589668631896 L 1448.91260456187,295.14611084323565 L 1419.4433307581364,282.2741334531347 L 1448.91260456187,269.4021560630338 L 1437.1765437184272,239.46237021995046 L 1467.1163295615106,251.19843106339323 Z" fill="none" stroke="#00A86B" stroke-width="1.575372100377163" /><path d="M 1614.5326984926674,221.7291572596597 L 1627.4046758827683,251.19843106339323 L 1657.3444617258517,239.46237021995046 L 1645.608400882409,269.4021560630338 L 1675.0776746861425,282.2741334531347 L 1645.608400882409,295.14611084323565 L 1657.3444617258517,325.08589668631896 L 1627.4046758827683,313.3498358428762 L 1614.5326984926674,342.8191096466097 L 1601.6607211025664,313.3498358428762 L 1571.720935259483,325.08589668631896 L 1583.4569961029258,295.14611084323565 L 1553.9877222991922,282.2741334531347 L 1583.4569961029258,269.4021560630338 L 1571.720935259483,239.46237021995046 L 1601.6607211025664,251.19843106339323 Z" fill="none" stroke="#00A86B" stroke-width="1.575372100377163" /><path d="M 1749.077090033723,221.7291572596597 L 1761.9490674238239,251.19843106339323 L 1791.8888532669073,239.46237021995046 L 1780.1527924234645,269.4021560630338 L 1809.622066227198,282.2741334531347 L 1780.1527924234645,295.14611084323565 L 1791.8888532669073,325.08589668631896 L 1761.9490674238239,313.3498358428762 L 1749.077090033723,342.8191096466097 L 1736.205112643622,313.3498358428762 L 1706.2653268005386,325.08589668631896 L 1718.0013876439814,295.14611084323565 L 1688.5321138402478,282.2741334531347 L 1718.0013876439814,269.4021560630338 L 1706.2653268005386,239.46237021995046 L 1736.205112643622,251.19843106339323 Z" fill="none" stroke="#00A86B" stroke-width="1.575372100377163" /><path d="M 1883.6214815747785,221.7291572596597 L 1896.4934589648794,251.19843106339323 L 1926.4332448079629,239.46237021995046 L 1914.69718396452,269.4021560630338 L 1944.1664577682536,282.2741334531347 L 1914.69718396452,295.14611084323565 L 1926.4332448079629,325.08589668631896 L 1896.4934589648794,313.3498358428762 L 1883.6214815747785,342.8191096466097 L 1870.7495041846776,313.3498358428762 L 1840.8097183415941,325.08589668631896 L 1852.545779185037,295.14611084323565 L 1823.0765053813034,282.2741334531347 L 1852.545779185037,269.4021560630338 L 1840.8097183415941,239.46237021995046 L 1870.7495041846776,251.19843106339323 Z" fill="none" stroke="#00A86B" stroke-width="1.575372100377163" /><path d="M 2018.165873115834,221.7291572596597 L 2031.037850505935,251.19843106339323 L 2060.977636349018,239.46237021995046 L 2049.2415755055754,269.4021560630338 L 2078.710849309309,282.2741334531347 L 2049.2415755055754,295.14611084323565 L 2060.977636349018,325.08589668631896 L 2031.037850505935,313.3498358428762 L 2018.165873115834,342.8191096466097 L 2005.2938957257331,313.3498358428762 L 1975.3541098826497,325.08589668631896 L 1987.0901707260925,295.14611084323565 L 1957.620896922359,282.2741334531347 L 1987.0901707260925,269.4021560630338 L 1975.3541098826497,239.46237021995046 L 2005.2938957257331,251.19843106339323 Z" fill="none" stroke="#00A86B" stroke-width="1.575372100377163" /><path d="M -67.2721957705278,338.2446003342138 L -54.40021838042687,367.71387413794736 L -24.46043253734353,355.9778132945046 L -36.19649338078631,385.9175991375879 L -6.727219577052779,398.78957652768884 L -36.19649338078631,411.6615539177898 L -24.46043253734353,441.6013397608731 L -54.40021838042687,429.8652789174303 L -67.2721957705278,459.33455272116385 L -80.14417316062872,429.8652789174303 L -110.08395900371207,441.6013397608731 L -98.3478981602693,411.6615539177898 L -127.81717196400282,398.78957652768884 L -98.3478981602693,385.9175991375879 L -110.08395900371208,355.9778132945046 L -80.14417316062875,367.71387413794736 Z" fill="none" stroke="#00A86B" stroke-width="1.575372100377163" /><path d="M 67.2721957705278,338.2446003342138 L 80.14417316062872,367.71387413794736 L 110.08395900371207,355.9778132945046 L 98.3478981602693,385.9175991375879 L 127.81717196400282,398.78957652768884 L 98.3478981602693,411.6615539177898 L 110.08395900371207,441.6013397608731 L 80.14417316062872,429.8652789174303 L 67.2721957705278,459.33455272116385 L 54.40021838042688,429.8652789174303 L 24.460432537343536,441.6013397608731 L 36.196493380786315,411.6615539177898 L 6.727219577052779,398.78957652768884 L 36.19649338078631,385.9175991375879 L 24.46043253734352,355.9778132945046 L 54.40021838042686,367.71387413794736 Z" fill="none" stroke="#00A86B" stroke-width="1.575372100377163" /><path d="M 201.81658731158342,338.2446003342138 L 214.68856470168436,367.71387413794736 L 244.6283505447677,355.9778132945046 L 232.8922897013249,385.9175991375879 L 262.3615635050584,398.78957652768884 L 232.8922897013249,411.6615539177898 L 244.6283505447677,441.6013397608731 L 214.68856470168436,429.8652789174303 L 201.81658731158342,459.33455272116385 L 188.94460992148248,429.8652789174303 L 159.00482407839917,441.6013397608731 L 170.74088492184194,411.6615539177898 L 141.2716111181084,398.78957652768884 L 170.74088492184194,385.9175991375879 L 159.00482407839914,355.9778132945046 L 188.94460992148248,367.71387413794736 Z" fill="none" stroke="#00A86B" stroke-width="1.575372100377163" /><path d="M 336.36097885263905,338.2446003342138 L 349.23295624274,367.71387413794736 L 379.1727420858233,355.9778132945046 L 367.43668124238053,385.9175991375879 L 396.90595504611406,398.78957652768884 L 367.43668124238053,411.6615539177898 L 379.1727420858233,441.6013397608731 L 349.23295624274,429.8652789174303 L 336.36097885263905,459.33455272116385 L 323.4890014625381,429.8652789174303 L 293.5492156194548,441.6013397608731 L 305.28527646289757,411.6615539177898 L 275.81600265916404,398.78957652768884 L 305.28527646289757,385.9175991375879 L 293.5492156194548,355.9778132945046 L 323.4890014625381,367.71387413794736 Z" fill="none" stroke="#00A86B" stroke-width="1.575372100377163" /><path d="M 470.9053703936946,338.2446003342138 L 483.77734778379556,367.71387413794736 L 513.7171336268789,355.9778132945046 L 501.9810727834361,385.9175991375879 L 531.4503465871696,398.78957652768884 L 501.9810727834361,411.6615539177898 L 513.7171336268789,441.6013397608731 L 483.77734778379556,429.8652789174303 L 470.9053703936946,459.33455272116385 L 458.0333930035937,429.8652789174303 L 428.0936071605104,441.6013397608731 L 439.82966800395315,411.6615539177898 L 410.3603942002196,398.78957652768884 L 439.82966800395315,385.9175991375879 L 428.0936071605104,355.9778132945046 L 458.0333930035937,367.71387413794736 Z" fill="none" stroke="#00A86B" stroke-width="1.575372100377163" /><path d="M 605.4497619347502,338.2446003342138 L 618.3217393248511,367.71387413794736 L 648.2615251679345,355.9778132945046 L 636.5254643244917,385.9175991375879 L 665.9947381282252,398.78957652768884 L 636.5254643244917,411.6615539177898 L 648.2615251679345,441.6013397608731 L 618.3217393248511,429.8652789174303 L 605.4497619347502,459.33455272116385 L 592.5777845446493,429.8652789174303 L 562.637998701566,441.6013397608731 L 574.3740595450087,411.6615539177898 L 544.9047857412752,398.78957652768884 L 574.3740595450087,385.9175991375879 L 562.637998701566,355.9778132945046 L 592.5777845446493,367.71387413794736 Z" fill="none" stroke="#00A86B" stroke-width="1.575372100377163" /><path d="M 739.9941534758059,338.2446003342138 L 752.8661308659068,367.71387413794736 L 782.8059167089901,355.9778132945046 L 771.0698558655474,385.9175991375879 L 800.5391296692809,398.78957652768884 L 771.0698558655474,411.6615539177898 L 782.8059167089901,441.6013397608731 L 752.8661308659068,429.8652789174303 L 739.9941534758059,459.33455272116385 L 727.122176085705,429.8652789174303 L 697.1823902426216,441.6013397608731 L 708.9184510860644,411.6615539177898 L 679.4491772823309,398.78957652768884 L 708.9184510860644,385.9175991375879 L 697.1823902426216,355.9778132945046 L 727.122176085705,367.71387413794736 Z" fill="none" stroke="#00A86B" stroke-width="1.575372100377163" /><path d="M 874.5385450168615,338.2446003342138 L 887.4105224069624,367.71387413794736 L 917.3503082500457,355.9778132945046 L 905.614247406603,385.9175991375879 L 935.0835212103365,398.78957652768884 L 905.614247406603,411.6615539177898 L 917.3503082500457,441.6013397608731 L 887.4105224069624,429.8652789174303 L 874.5385450168615,459.33455272116385 L 861.6665676267605,429.8652789174303 L 831.7267817836772,441.6013397608731 L 843.4628426271199,411.6615539177898 L 813.9935688233865,398.78957652768884 L 843.4628426271199,385.9175991375879 L 831.7267817836772,355.9778132945046 L 861.6665676267605,367.71387413794736 Z" fill="none" stroke="#00A86B" stroke-width="1.575372100377163" /><path d="M 1009.082936557917,338.2446003342138 L 1021.954913948018,367.71387413794736 L 1051.8946997911014,355.9778132945046 L 1040.1586389476586,385.9175991375879 L 1069.6279127513922,398.78957652768884 L 1040.1586389476586,411.6615539177898 L 1051.8946997911014,441.6013397608731 L 1021.954913948018,429.8652789174303 L 1009.082936557917,459.33455272116385 L 996.2109591678161,429.8652789174303 L 966.2711733247328,441.6013397608731 L 978.0072341681755,411.6615539177898 L 948.537960364442,398.78957652768884 L 978.0072341681755,385.9175991375879 L 966.2711733247328,355.9778132945046 L 996.2109591678161,367.71387413794736 Z" fill="none" stroke="#00A86B" stroke-width="1.575372100377163" /><path d="M 1143.6273280989726,338.2446003342138 L 1156.4993054890735,367.71387413794736 L 1186.439091332157,355.9778132945046 L 1174.7030304887141,385.9175991375879 L 1204.1723042924477,398.78957652768884 L 1174.7030304887141,411.6615539177898 L 1186.439091332157,441.6013397608731 L 1156.4993054890735,429.8652789174303 L 1143.6273280989726,459.33455272116385 L 1130.7553507088717,429.8652789174303 L 1100.8155648657882,441.6013397608731 L 1112.551625709231,411.6615539177898 L 1083.0823519054975,398.78957652768884 L 1112.551625709231,385.9175991375879 L 1100.8155648657882,355.9778132945046 L 1130.7553507088717,367.71387413794736 Z" fill="none" stroke="#00A86B" stroke-width="1.575372100377163" /><path d="M 1278.1717196400282,338.2446003342138 L 1291.0436970301291,367.71387413794736 L 1320.9834828732126,355.9778132945046 L 1309.2474220297697,385.9175991375879 L 1338.7166958335033,398.78957652768884 L 1309.2474220297697,411.6615539177898 L 1320.9834828732126,441.6013397608731 L 1291.0436970301291,429.8652789174303 L 1278.1717196400282,459.33455272116385 L 1265.2997422499272,429.8652789174303 L 1235.3599564068438,441.6013397608731 L 1247.0960172502866,411.6615539177898 L 1217.626743446553,398.78957652768884 L 1247.0960172502866,385.9175991375879 L 1235.3599564068438,355.9778132945046 L 1265.2997422499272,367.71387413794736 Z" fill="none" stroke="#00A86B" stroke-width="1.575372100377163" /><path d="M 1412.7161111810838,338.2446003342138 L 1425.5880885711847,367.71387413794736 L 1455.5278744142681,355.9778132945046 L 1443.7918135708253,385.9175991375879 L 1473.2610873745589,398.78957652768884 L 1443.7918135708253,411.6615539177898 L 1455.5278744142681,441.6013397608731 L 1425.5880885711847,429.8652789174303 L 1412.7161111810838,459.33455272116385 L 1399.8441337909828,429.8652789174303 L 1369.9043479478994,441.6013397608731 L 1381.6404087913422,411.6615539177898 L 1352.1711349876086,398.78957652768884 L 1381.6404087913422,385.9175991375879 L 1369.9043479478994,355.9778132945046 L 1399.8441337909828,367.71387413794736 Z" fill="none" stroke="#00A86B" stroke-width="1.575372100377163" /><path d="M 1547.2605027221396,338.2446003342138 L 1560.1324801122405,367.71387413794736 L 1590.072265955324,355.9778132945046 L 1578.336205111881,385.9175991375879 L 1607.8054789156147,398.78957652768884 L 1578.336205111881,411.6615539177898 L 1590.072265955324,441.6013397608731 L 1560.1324801122405,429.8652789174303 L 1547.2605027221396,459.33455272116385 L 1534.3885253320386,429.8652789174303 L 1504.4487394889552,441.6013397608731 L 1516.184800332398,411.6615539177898 L 1486.7155265286644,398.78957652768884 L 1516.184800332398,385.9175991375879 L 1504.4487394889552,355.9778132945046 L 1534.3885253320386,367.71387413794736 Z" fill="none" stroke="#00A86B" stroke-width="1.575372100377163" /><path d="M 1681.8048942631951,338.2446003342138 L 1694.676871653296,367.71387413794736 L 1724.6166574963795,355.9778132945046 L 1712.8805966529367,385.9175991375879 L 1742.3498704566703,398.78957652768884 L 1712.8805966529367,411.6615539177898 L 1724.6166574963795,441.6013397608731 L 1694.676871653296,429.8652789174303 L 1681.8048942631951,459.33455272116385 L 1668.9329168730942,429.8652789174303 L 1638.9931310300108,441.6013397608731 L 1650.7291918734536,411.6615539177898 L 1621.25991806972,398.78957652768884 L 1650.7291918734536,385.9175991375879 L 1638.9931310300108,355.9778132945046 L 1668.9329168730942,367.71387413794736 Z" fill="none" stroke="#00A86B" stroke-width="1.575372100377163" /><path d="M 1816.3492858042507,338.2446003342138 L 1829.2212631943516,367.71387413794736 L 1859.161049037435,355.9778132945046 L 1847.4249881939922,385.9175991375879 L 1876.8942619977258,398.78957652768884 L 1847.4249881939922,411.6615539177898 L 1859.161049037435,441.6013397608731 L 1829.2212631943516,429.8652789174303 L 1816.3492858042507,459.33455272116385 L 1803.4773084141498,429.8652789174303 L 1773.5375225710663,441.6013397608731 L 1785.2735834145092,411.6615539177898 L 1755.8043096107756,398.78957652768884 L 1785.2735834145092,385.9175991375879 L 1773.5375225710663,355.9778132945046 L 1803.4773084141498,367.71387413794736 Z" fill="none" stroke="#00A86B" stroke-width="1.575372100377163" /><path d="M 1950.8936773453063,338.2446003342138 L 1963.7656547354072,367.71387413794736 L 1993.7054405784907,355.9778132945046 L 1981.9693797350478,385.9175991375879 L 2011.4386535387814,398.78957652768884 L 1981.9693797350478,411.6615539177898 L 1993.7054405784907,441.6013397608731 L 1963.7656547354072,429.8652789174303 L 1950.8936773453063,459.33455272116385 L 1938.0216999552053,429.8652789174303 L 1908.081914112122,441.6013397608731 L 1919.8179749555648,411.6615539177898 L 1890.3487011518312,398.78957652768884 L 1919.8179749555648,385.9175991375879 L 1908.081914112122,355.9778132945046 L 1938.0216999552053,367.71387413794736 Z" fill="none" stroke="#00A86B" stroke-width="1.575372100377163" /><path d="M 3.707310564989595e-15,454.76004340876796 L 12.871977390100929,484.2293172125015 L 42.81176323318427,472.4932563690587 L 31.075702389741494,502.433042212142 L 60.54497619347502,515.305019602243 L 31.075702389741494,528.1769969923439 L 42.81176323318427,558.1167828354272 L 12.871977390100929,546.3807219919845 L 3.707310564989595e-15,575.849995795718 L -12.871977390100925,546.3807219919845 L -42.811763233184266,558.1167828354272 L -31.075702389741487,528.1769969923439 L -60.54497619347502,515.305019602243 L -31.07570238974149,502.433042212142 L -42.81176323318428,472.4932563690587 L -12.871977390100946,484.2293172125015 Z" fill="none" stroke="#00A86B" stroke-width="1.575372100377163" /><path d="M 134.5443915410556,454.76004340876796 L 147.41636893115654,484.2293172125015 L 177.35615477423988,472.4932563690587 L 165.6200939307971,502.433042212142 L 195.08936773453064,515.305019602243 L 165.6200939307971,528.1769969923439 L 177.35615477423988,558.1167828354272 L 147.41636893115654,546.3807219919845 L 134.5443915410556,575.849995795718 L 121.67241415095468,546.3807219919845 L 91.73262830787134,558.1167828354272 L 103.46868915131412,528.1769969923439 L 73.99941534758058,515.305019602243 L 103.46868915131411,502.433042212142 L 91.73262830787132,472.4932563690587 L 121.67241415095465,484.2293172125015 Z" fill="none" stroke="#00A86B" stroke-width="1.575372100377163" /><path d="M 269.0887830821112,454.76004340876796 L 281.96076047221214,484.2293172125015 L 311.90054631529546,472.4932563690587 L 300.1644854718527,502.433042212142 L 329.6337592755862,515.305019602243 L 300.1644854718527,528.1769969923439 L 311.90054631529546,558.1167828354272 L 281.96076047221214,546.3807219919845 L 269.0887830821112,575.849995795718 L 256.21680569201027,546.3807219919845 L 226.27701984892695,558.1167828354272 L 238.01308069236973,528.1769969923439 L 208.5438068886362,515.305019602243 L 238.01308069236973,502.433042212142 L 226.27701984892693,472.4932563690587 L 256.21680569201027,484.2293172125015 Z" fill="none" stroke="#00A86B" stroke-width="1.575372100377163" /><path d="M 403.63317462316684,454.76004340876796 L 416.5051520132678,484.2293172125015 L 446.4449378563511,472.4932563690587 L 434.7088770129083,502.433042212142 L 464.17815081664185,515.305019602243 L 434.7088770129083,528.1769969923439 L 446.4449378563511,558.1167828354272 L 416.5051520132678,546.3807219919845 L 403.63317462316684,575.849995795718 L 390.7611972330659,546.3807219919845 L 360.8214113899826,558.1167828354272 L 372.55747223342536,528.1769969923439 L 343.08819842969183,515.305019602243 L 372.55747223342536,502.433042212142 L 360.8214113899826,472.4932563690587 L 390.7611972330659,484.2293172125015 Z" fill="none" stroke="#00A86B" stroke-width="1.575372100377163" /><path d="M 538.1775661642224,454.76004340876796 L 551.0495435543233,484.2293172125015 L 580.9893293974067,472.4932563690587 L 569.253268553964,502.433042212142 L 598.7225423576974,515.305019602243 L 569.253268553964,528.1769969923439 L 580.9893293974067,558.1167828354272 L 551.0495435543233,546.3807219919845 L 538.1775661642224,575.849995795718 L 525.3055887741215,546.3807219919845 L 495.36580293103816,558.1167828354272 L 507.10186377448093,528.1769969923439 L 477.6325899707474,515.305019602243 L 507.10186377448093,502.433042212142 L 495.36580293103816,472.4932563690587 L 525.3055887741215,484.2293172125015 Z" fill="none" stroke="#00A86B" stroke-width="1.575372100377163" /><path d="M 672.721957705278,454.76004340876796 L 685.5939350953789,484.2293172125015 L 715.5337209384622,472.4932563690587 L 703.7976600950195,502.433042212142 L 733.266933898753,515.305019602243 L 703.7976600950195,528.1769969923439 L 715.5337209384622,558.1167828354272 L 685.5939350953789,546.3807219919845 L 672.721957705278,575.849995795718 L 659.849980315177,546.3807219919845 L 629.9101944720937,558.1167828354272 L 641.6462553155365,528.1769969923439 L 612.176981511803,515.305019602243 L 641.6462553155365,502.433042212142 L 629.9101944720937,472.4932563690587 L 659.849980315177,484.2293172125015 Z" fill="none" stroke="#00A86B" stroke-width="1.575372100377163" /><path d="M 807.2663492463337,454.76004340876796 L 820.1383266364346,484.2293172125015 L 850.0781124795179,472.4932563690587 L 838.3420516360752,502.433042212142 L 867.8113254398087,515.305019602243 L 838.3420516360752,528.1769969923439 L 850.0781124795179,558.1167828354272 L 820.1383266364346,546.3807219919845 L 807.2663492463337,575.849995795718 L 794.3943718562327,546.3807219919845 L 764.4545860131494,558.1167828354272 L 776.1906468565921,528.1769969923439 L 746.7213730528587,515.305019602243 L 776.1906468565921,502.433042212142 L 764.4545860131494,472.4932563690587 L 794.3943718562327,484.2293172125015 Z" fill="none" stroke="#00A86B" stroke-width="1.575372100377163" /><path d="M 941.8107407873892,454.76004340876796 L 954.6827181774902,484.2293172125015 L 984.6225040205735,472.4932563690587 L 972.8864431771308,502.433042212142 L 1002.3557169808643,515.305019602243 L 972.8864431771308,528.1769969923439 L 984.6225040205735,558.1167828354272 L 954.6827181774902,546.3807219919845 L 941.8107407873892,575.849995795718 L 928.9387633972883,546.3807219919845 L 898.998977554205,558.1167828354272 L 910.7350383976477,528.1769969923439 L 881.2657645939142,515.305019602243 L 910.7350383976477,502.433042212142 L 898.998977554205,472.4932563690587 L 928.9387633972883,484.2293172125015 Z" fill="none" stroke="#00A86B" stroke-width="1.575372100377163" /><path d="M 1076.3551323284448,454.76004340876796 L 1089.2271097185458,484.2293172125015 L 1119.1668955616292,472.4932563690587 L 1107.4308347181864,502.433042212142 L 1136.90010852192,515.305019602243 L 1107.4308347181864,528.1769969923439 L 1119.1668955616292,558.1167828354272 L 1089.2271097185458,546.3807219919845 L 1076.3551323284448,575.849995795718 L 1063.483154938344,546.3807219919845 L 1033.5433690952605,558.1167828354272 L 1045.2794299387033,528.1769969923439 L 1015.8101561349698,515.305019602243 L 1045.2794299387033,502.433042212142 L 1033.5433690952605,472.4932563690587 L 1063.483154938344,484.2293172125015 Z" fill="none" stroke="#00A86B" stroke-width="1.575372100377163" /><path d="M 1210.8995238695004,454.76004340876796 L 1223.7715012596013,484.2293172125015 L 1253.7112871026848,472.4932563690587 L 1241.975226259242,502.433042212142 L 1271.4445000629755,515.305019602243 L 1241.975226259242,528.1769969923439 L 1253.7112871026848,558.1167828354272 L 1223.7715012596013,546.3807219919845 L 1210.8995238695004,575.849995795718 L 1198.0275464793995,546.3807219919845 L 1168.087760636316,558.1167828354272 L 1179.8238214797589,528.1769969923439 L 1150.3545476760253,515.305019602243 L 1179.8238214797589,502.433042212142 L 1168.087760636316,472.4932563690587 L 1198.0275464793995,484.2293172125015 Z" fill="none" stroke="#00A86B" stroke-width="1.575372100377163" /><path d="M 1345.443915410556,454.76004340876796 L 1358.315892800657,484.2293172125015 L 1388.2556786437403,472.4932563690587 L 1376.5196178002975,502.433042212142 L 1405.988891604031,515.305019602243 L 1376.5196178002975,528.1769969923439 L 1388.2556786437403,558.1167828354272 L 1358.315892800657,546.3807219919845 L 1345.443915410556,575.849995795718 L 1332.571938020455,546.3807219919845 L 1302.6321521773716,558.1167828354272 L 1314.3682130208144,528.1769969923439 L 1284.8989392170809,515.305019602243 L 1314.3682130208144,502.433042212142 L 1302.6321521773716,472.4932563690587 L 1332.571938020455,484.2293172125015 Z" fill="none" stroke="#00A86B" stroke-width="1.575372100377163" /><path d="M 1479.9883069516115,454.76004340876796 L 1492.8602843417125,484.2293172125015 L 1522.800070184796,472.4932563690587 L 1511.064009341353,502.433042212142 L 1540.5332831450867,515.305019602243 L 1511.064009341353,528.1769969923439 L 1522.800070184796,558.1167828354272 L 1492.8602843417125,546.3807219919845 L 1479.9883069516115,575.849995795718 L 1467.1163295615106,546.3807219919845 L 1437.1765437184272,558.1167828354272 L 1448.91260456187,528.1769969923439 L 1419.4433307581364,515.305019602243 L 1448.91260456187,502.433042212142 L 1437.1765437184272,472.4932563690587 L 1467.1163295615106,484.2293172125015 Z" fill="none" stroke="#00A86B" stroke-width="1.575372100377163" /><path d="M 1614.5326984926674,454.76004340876796 L 1627.4046758827683,484.2293172125015 L 1657.3444617258517,472.4932563690587 L 1645.608400882409,502.433042212142 L 1675.0776746861425,515.305019602243 L 1645.608400882409,528.1769969923439 L 1657.3444617258517,558.1167828354272 L 1627.4046758827683,546.3807219919845 L 1614.5326984926674,575.849995795718 L 1601.6607211025664,546.3807219919845 L 1571.720935259483,558.1167828354272 L 1583.4569961029258,528.1769969923439 L 1553.9877222991922,515.305019602243 L 1583.4569961029258,502.433042212142 L 1571.720935259483,472.4932563690587 L 1601.6607211025664,484.2293172125015 Z" fill="none" stroke="#00A86B" stroke-width="1.575372100377163" /><path d="M 1749.077090033723,454.76004340876796 L 1761.9490674238239,484.2293172125015 L 1791.8888532669073,472.4932563690587 L 1780.1527924234645,502.433042212142 L 1809.622066227198,515.305019602243 L 1780.1527924234645,528.1769969923439 L 1791.8888532669073,558.1167828354272 L 1761.9490674238239,546.3807219919845 L 1749.077090033723,575.849995795718 L 1736.205112643622,546.3807219919845 L 1706.2653268005386,558.1167828354272 L 1718.0013876439814,528.1769969923439 L 1688.5321138402478,515.305019602243 L 1718.0013876439814,502.433042212142 L 1706.2653268005386,472.4932563690587 L 1736.205112643622,484.2293172125015 Z" fill="none" stroke="#00A86B" stroke-width="1.575372100377163" /><path d="M 1883.6214815747785,454.76004340876796 L 1896.4934589648794,484.2293172125015 L 1926.4332448079629,472.4932563690587 L 1914.69718396452,502.433042212142 L 1944.1664577682536,515.305019602243 L 1914.69718396452,528.1769969923439 L 1926.4332448079629,558.1167828354272 L 1896.4934589648794,546.3807219919845 L 1883.6214815747785,575.849995795718 L 1870.7495041846776,546.3807219919845 L 1840.8097183415941,558.1167828354272 L 1852.545779185037,528.1769969923439 L 1823.0765053813034,515.305019602243 L 1852.545779185037,502.433042212142 L 1840.8097183415941,472.4932563690587 L 1870.7495041846776,484.2293172125015 Z" fill="none" stroke="#00A86B" stroke-width="1.575372100377163" /><path d="M 2018.165873115834,454.76004340876796 L 2031.037850505935,484.2293172125015 L 2060.977636349018,472.4932563690587 L 2049.2415755055754,502.433042212142 L 2078.710849309309,515.305019602243 L 2049.2415755055754,528.1769969923439 L 2060.977636349018,558.1167828354272 L 2031.037850505935,546.3807219919845 L 2018.165873115834,575.849995795718 L 2005.2938957257331,546.3807219919845 L 1975.3541098826497,558.1167828354272 L 1987.0901707260925,528.1769969923439 L 1957.620896922359,515.305019602243 L 1987.0901707260925,502.433042212142 L 1975.3541098826497,472.4932563690587 L 2005.2938957257331,484.2293172125015 Z" fill="none" stroke="#00A86B" stroke-width="1.575372100377163" /><line x1="60.54497619347502" y1="49.243247304026355" x2="73.99941534758058" y2="49.243247304026355" stroke="#00A86B" stroke-width="0.5"/><line x1="195.08936773453064" y1="49.243247304026355" x2="208.5438068886362" y2="49.243247304026355" stroke="#00A86B" stroke-width="0.5"/><line x1="329.6337592755862" y1="49.243247304026355" x2="343.08819842969183" y2="49.243247304026355" stroke="#00A86B" stroke-width="0.5"/><line x1="464.17815081664185" y1="49.243247304026355" x2="477.6325899707474" y2="49.243247304026355" stroke="#00A86B" stroke-width="0.5"/><line x1="598.7225423576974" y1="49.243247304026355" x2="612.176981511803" y2="49.243247304026355" stroke="#00A86B" stroke-width="0.5"/><line x1="733.266933898753" y1="49.243247304026355" x2="746.7213730528587" y2="49.243247304026355" stroke="#00A86B" stroke-width="0.5"/><line x1="867.8113254398087" y1="49.243247304026355" x2="881.2657645939142" y2="49.243247304026355" stroke="#00A86B" stroke-width="0.5"/><line x1="1002.3557169808643" y1="49.243247304026355" x2="1015.8101561349698" y2="49.243247304026355" stroke="#00A86B" stroke-width="0.5"/><line x1="1136.90010852192" y1="49.243247304026355" x2="1150.3545476760253" y2="49.243247304026355" stroke="#00A86B" stroke-width="0.5"/><line x1="1271.4445000629755" y1="49.243247304026355" x2="1284.8989392170809" y2="49.243247304026355" stroke="#00A86B" stroke-width="0.5"/><line x1="1405.988891604031" y1="49.243247304026355" x2="1419.4433307581364" y2="49.243247304026355" stroke="#00A86B" stroke-width="0.5"/><line x1="1540.5332831450867" y1="49.243247304026355" x2="1553.9877222991922" y2="49.243247304026355" stroke="#00A86B" stroke-width="0.5"/><line x1="1675.0776746861425" y1="49.243247304026355" x2="1688.5321138402478" y2="49.243247304026355" stroke="#00A86B" stroke-width="0.5"/><line x1="1809.622066227198" y1="49.243247304026355" x2="1823.0765053813034" y2="49.243247304026355" stroke="#00A86B" stroke-width="0.5"/><line x1="127.81717196400282" y1="165.75869037858052" x2="141.2716111181084" y2="165.75869037858052" stroke="#00A86B" stroke-width="0.5"/><line x1="262.3615635050584" y1="165.75869037858052" x2="275.81600265916404" y2="165.75869037858052" stroke="#00A86B" stroke-width="0.5"/><line x1="396.90595504611406" y1="165.75869037858052" x2="410.3603942002196" y2="165.75869037858052" stroke="#00A86B" stroke-width="0.5"/><line x1="531.4503465871696" y1="165.75869037858052" x2="544.9047857412752" y2="165.75869037858052" stroke="#00A86B" stroke-width="0.5"/><line x1="665.9947381282252" y1="165.75869037858052" x2="679.4491772823309" y2="165.75869037858052" stroke="#00A86B" stroke-width="0.5"/><line x1="800.5391296692809" y1="165.75869037858052" x2="813.9935688233865" y2="165.75869037858052" stroke="#00A86B" stroke-width="0.5"/><line x1="935.0835212103365" y1="165.75869037858052" x2="948.537960364442" y2="165.75869037858052" stroke="#00A86B" stroke-width="0.5"/><line x1="1069.6279127513922" y1="165.75869037858052" x2="1083.0823519054975" y2="165.75869037858052" stroke="#00A86B" stroke-width="0.5"/><line x1="1204.1723042924477" y1="165.75869037858052" x2="1217.626743446553" y2="165.75869037858052" stroke="#00A86B" stroke-width="0.5"/><line x1="1338.7166958335033" y1="165.75869037858052" x2="1352.1711349876086" y2="165.75869037858052" stroke="#00A86B" stroke-width="0.5"/><line x1="1473.2610873745589" y1="165.75869037858052" x2="1486.7155265286644" y2="165.75869037858052" stroke="#00A86B" stroke-width="0.5"/><line x1="1607.8054789156147" y1="165.75869037858052" x2="1621.25991806972" y2="165.75869037858052" stroke="#00A86B" stroke-width="0.5"/><line x1="1742.3498704566703" y1="165.75869037858052" x2="1755.8043096107756" y2="165.75869037858052" stroke="#00A86B" stroke-width="0.5"/><line x1="1876.8942619977258" y1="165.75869037858052" x2="1890.3487011518312" y2="165.75869037858052" stroke="#00A86B" stroke-width="0.5"/><line x1="60.54497619347502" y1="282.2741334531347" x2="73.99941534758058" y2="282.2741334531347" stroke="#00A86B" stroke-width="0.5"/><line x1="195.08936773453064" y1="282.2741334531347" x2="208.5438068886362" y2="282.2741334531347" stroke="#00A86B" stroke-width="0.5"/><line x1="329.6337592755862" y1="282.2741334531347" x2="343.08819842969183" y2="282.2741334531347" stroke="#00A86B" stroke-width="0.5"/><line x1="464.17815081664185" y1="282.2741334531347" x2="477.6325899707474" y2="282.2741334531347" stroke="#00A86B" stroke-width="0.5"/><line x1="598.7225423576974" y1="282.2741334531347" x2="612.176981511803" y2="282.2741334531347" stroke="#00A86B" stroke-width="0.5"/><line x1="733.266933898753" y1="282.2741334531347" x2="746.7213730528587" y2="282.2741334531347" stroke="#00A86B" stroke-width="0.5"/><line x1="867.8113254398087" y1="282.2741334531347" x2="881.2657645939142" y2="282.2741334531347" stroke="#00A86B" stroke-width="0.5"/><line x1="1002.3557169808643" y1="282.2741334531347" x2="1015.8101561349698" y2="282.2741334531347" stroke="#00A86B" stroke-width="0.5"/><line x1="1136.90010852192" y1="282.2741334531347" x2="1150.3545476760253" y2="282.2741334531347" stroke="#00A86B" stroke-width="0.5"/><line x1="1271.4445000629755" y1="282.2741334531347" x2="1284.8989392170809" y2="282.2741334531347" stroke="#00A86B" stroke-width="0.5"/><line x1="1405.988891604031" y1="282.2741334531347" x2="1419.4433307581364" y2="282.2741334531347" stroke="#00A86B" stroke-width="0.5"/><line x1="1540.5332831450867" y1="282.2741334531347" x2="1553.9877222991922" y2="282.2741334531347" stroke="#00A86B" stroke-width="0.5"/><line x1="1675.0776746861425" y1="282.2741334531347" x2="1688.5321138402478" y2="282.2741334531347" stroke="#00A86B" stroke-width="0.5"/><line x1="1809.622066227198" y1="282.2741334531347" x2="1823.0765053813034" y2="282.2741334531347" stroke="#00A86B" stroke-width="0.5"/><line x1="127.81717196400282" y1="398.78957652768884" x2="141.2716111181084" y2="398.78957652768884" stroke="#00A86B" stroke-width="0.5"/><line x1="262.3615635050584" y1="398.78957652768884" x2="275.81600265916404" y2="398.78957652768884" stroke="#00A86B" stroke-width="0.5"/><line x1="396.90595504611406" y1="398.78957652768884" x2="410.3603942002196" y2="398.78957652768884" stroke="#00A86B" stroke-width="0.5"/><line x1="531.4503465871696" y1="398.78957652768884" x2="544.9047857412752" y2="398.78957652768884" stroke="#00A86B" stroke-width="0.5"/><line x1="665.9947381282252" y1="398.78957652768884" x2="679.4491772823309" y2="398.78957652768884" stroke="#00A86B" stroke-width="0.5"/><line x1="800.5391296692809" y1="398.78957652768884" x2="813.9935688233865" y2="398.78957652768884" stroke="#00A86B" stroke-width="0.5"/><line x1="935.0835212103365" y1="398.78957652768884" x2="948.537960364442" y2="398.78957652768884" stroke="#00A86B" stroke-width="0.5"/><line x1="1069.6279127513922" y1="398.78957652768884" x2="1083.0823519054975" y2="398.78957652768884" stroke="#00A86B" stroke-width="0.5"/><line x1="1204.1723042924477" y1="398.78957652768884" x2="1217.626743446553" y2="398.78957652768884" stroke="#00A86B" stroke-width="0.5"/><line x1="1338.7166958335033" y1="398.78957652768884" x2="1352.1711349876086" y2="398.78957652768884" stroke="#00A86B" stroke-width="0.5"/><line x1="1473.2610873745589" y1="398.78957652768884" x2="1486.7155265286644" y2="398.78957652768884" stroke="#00A86B" stroke-width="0.5"/><line x1="1607.8054789156147" y1="398.78957652768884" x2="1621.25991806972" y2="398.78957652768884" stroke="#00A86B" stroke-width="0.5"/><line x1="1742.3498704566703" y1="398.78957652768884" x2="1755.8043096107756" y2="398.78957652768884" stroke="#00A86B" stroke-width="0.5"/><line x1="1876.8942619977258" y1="398.78957652768884" x2="1890.3487011518312" y2="398.78957652768884" stroke="#00A86B" stroke-width="0.5"/></g><g opacity="0.0982746839748112"><path d="M 1862.148686322453 114.167232566591 L 1828.0108308601023 114.167232566591 L 1828.0108308601023 39.01650396894195 L 1796.9866674440125 39.01650396894195" fill="none" stroke="#FFFFFF" stroke-width="1.8965163237399032" stroke-linecap="square"/><path d="M 1165.2170568170106 173.2124520154728 L 1165.2170568170106 210.40810267023997 L 1230.2519174867568 210.40810267023997" fill="none" stroke="#FFFFFF" stroke-width="1.8965163237399032" stroke-linecap="square"/><path d="M 670.3441432259716 475.46705268112345 L 725.4134628373068 475.46705268112345 L 725.4134628373068 480 L 800.457578338815 480" fill="none" stroke="#FFFFFF" stroke-width="1.8965163237399032" stroke-linecap="square"/><path d="M 1211.3323980250082 240.1387025044014 L 1286.109348740751 240.1387025044014 L 1286.109348740751 301.3826412204671" fill="none" stroke="#FFFFFF" stroke-width="1.8965163237399032" stroke-linecap="square"/><path d="M 936.6539387296206 169.03255470517675 L 997.3269743232376 169.03255470517675 L 997.3269743232376 233.8508452842595" fill="none" stroke="#FFFFFF" stroke-width="1.8965163237399032" stroke-linecap="square"/><path d="M 1288.3776861468227 9.700927738892346 L 1358.540381221731 9.700927738892346 L 1358.540381221731 80.34677966579179" fill="none" stroke="#FFFFFF" stroke-width="1.8965163237399032" stroke-linecap="square"/><path d="M 1063.4330754463715 81.46419528939957 L 1134.175268380926 81.46419528939957 L 1134.175268380926 127.40207390988952 L 1200.0319771610007 127.40207390988952" fill="none" stroke="#FFFFFF" stroke-width="1.8965163237399032" stroke-linecap="square"/><path d="M 965.1500706398629 281.99255002755325 L 1039.574788389242 281.99255002755325 L 1039.574788389242 236.48621796961373" fill="none" stroke="#FFFFFF" stroke-width="1.8965163237399032" stroke-linecap="square"/><path d="M 1.0672760014735516 114.42782727742001 L 1.0672760014735516 188.5339927881171 L 36.37926656149216 188.5339927881171 L 36.37926656149216 147.14540418336028" fill="none" stroke="#FFFFFF" stroke-width="1.8965163237399032" stroke-linecap="square"/><path d="M 1319.2936712686408 429.7591783617433 L 1319.2936712686408 374.51875271270103 L 1360.5967716797147 374.51875271270103" fill="none" stroke="#FFFFFF" stroke-width="1.8965163237399032" stroke-linecap="square"/><path d="M 443.06442281373984 296.10593332727717 L 443.06442281373984 248.79130313641994 L 386.5779817570678 248.79130313641994 L 386.5779817570678 191.08078999235443" fill="none" stroke="#FFFFFF" stroke-width="1.8965163237399032" stroke-linecap="square"/><path d="M 258.01191341970673 89.423589748062 L 291.14045313107584 89.423589748062 L 291.14045313107584 57.2630748550731" fill="none" stroke="#FFFFFF" stroke-width="1.8965163237399032" stroke-linecap="square"/><line x1="7.5444030796850114" y1="141.67436981837935" x2="7.5444030796850114" y2="333.0729142190297" stroke="#FFFFFF" stroke-width="0.5" stroke-dasharray="5,10"/><circle cx="1796.9866674440125" cy="39.01650396894195" r="6.122789861691552" fill="#FFFFFF"/><circle cx="1862.148686322453" cy="114.167232566591" r="4.898231889353242" fill="#FFFFFF"/><rect x="991.204184461546" y="162.9097648434852" width="12.245579723383104" height="12.245579723383104" fill="#FFFFFF"/><rect x="1352.4175913600395" y="3.5781378772007946" width="12.245579723383104" height="12.245579723383104" fill="#FFFFFF"/><circle cx="1039.574788389242" cy="236.48621796961373" r="6.122789861691552" fill="#FFFFFF"/><circle cx="36.37926656149216" cy="147.14540418336028" r="6.122789861691552" fill="#FFFFFF"/><circle cx="1.0672760014735516" cy="114.42782727742001" r="4.898231889353242" fill="#FFFFFF"/><rect x="-5.055513860218" y="182.41120292642555" width="12.245579723383104" height="12.245579723383104" fill="#FFFFFF"/><circle cx="386.5779817570678" cy="191.08078999235443" r="6.122789861691552" fill="#FFFFFF"/><circle cx="291.14045313107584" cy="57.2630748550731" r="6.122789861691552" fill="#FFFFFF"/><rect x="1738.1885158773898" y="380.72347694571033" width="16.774977928486813" height="16.774977928486813" fill="#FFFFFF"/><rect x="138.83963034324233" y="356.90835889174895" width="15.19198578778476" height="15.19198578778476" fill="#FFFFFF"/><circle cx="721.739101745998" cy="49.6124840013741" r="4.828271221766205" fill="#FFFFFF"/></g><g opacity="0.3"><rect x="30" y="30" width="1860" height="420" fill="none" stroke="#666666" stroke-width="1" rx="0"/></g><g opacity="0.7223896534286391"><line x1="60" y1="240" x2="140" y2="240" stroke="#00D486" stroke-width="1" opacity="0.5"/><line x1="1780" y1="240" x2="1860" y2="240" stroke="#00D486" stroke-width="1" opacity="0.5"/><path d="M 30 70 L 30 30 L 70 30" fill="none" stroke="#00D486" stroke-width="2" stroke-linecap="square"/><path d="M 1850 30 L 1890 30 L 1890 70" fill="none" stroke="#00D486" stroke-width="2" stroke-linecap="square"/><path d="M 30 410 L 30 450 L 70 450" fill="none" stroke="#00D486" stroke-width="2" stroke-linecap="square"/><path d="M 1850 450 L 1890 450 L 1890 410" fill="none" stroke="#00D486" stroke-width="2" stroke-linecap="square"/></g></svg>