<svg xmlns="http://www.w3.org/2000/svg" width="1920" height="480" viewBox="0 0 1920 480"><rect x="0" y="0" width="1920" height="480" fill="#0D0D0D"/><g opacity="0.06876088977733669"><path d="M -73.26739477727968,-139.2080500768314 L -59.24828572037096,-107.1125179948562 L -26.640310259082007,-119.89447929547734 L -39.422271559703155,-87.2865038341884 L -7.326739477727969,-73.26739477727968 L -39.422271559703155,-59.24828572037096 L -26.640310259082007,-26.640310259082014 L -59.24828572037096,-39.422271559703155 L -73.26739477727968,-7.326739477727969 L -87.2865038341884,-39.422271559703155 L -119.89447929547734,-26.640310259082007 L -107.11251799485619,-59.24828572037094 L -139.2080500768314,-73.26739477727966 L -107.11251799485619,-87.28650383418841 L -119.89447929547735,-119.89447929547734 L -87.28650383418841,-107.11251799485619 Z" fill="none" stroke="#FFD700" stroke-width="1.244480491031185" /><path d="M 73.26739477727968,-139.2080500768314 L 87.2865038341884,-107.1125179948562 L 119.89447929547734,-119.89447929547734 L 107.1125179948562,-87.2865038341884 L 139.2080500768314,-73.26739477727968 L 107.1125179948562,-59.24828572037096 L 119.89447929547734,-26.640310259082014 L 87.2865038341884,-39.422271559703155 L 73.26739477727968,-7.326739477727969 L 59.24828572037096,-39.422271559703155 L 26.640310259082014,-26.640310259082007 L 39.42227155970316,-59.24828572037094 L 7.326739477727969,-73.26739477727966 L 39.42227155970316,-87.28650383418841 L 26.640310259082,-119.89447929547734 L 59.24828572037094,-107.11251799485619 Z" fill="none" stroke="#FFD700" stroke-width="1.244480491031185" /><path d="M 219.80218433183904,-139.2080500768314 L 233.82129338874776,-107.1125179948562 L 266.4292688500367,-119.89447929547734 L 253.64730754941556,-87.2865038341884 L 285.7428396313908,-73.26739477727968 L 253.64730754941556,-59.24828572037096 L 266.4292688500367,-26.640310259082014 L 233.82129338874776,-39.422271559703155 L 219.80218433183904,-7.326739477727969 L 205.78307527493033,-39.422271559703155 L 173.1750998136414,-26.640310259082007 L 185.95706111426253,-59.24828572037094 L 153.86152903228734,-73.26739477727966 L 185.95706111426253,-87.28650383418841 L 173.17509981364137,-119.89447929547734 L 205.7830752749303,-107.11251799485619 Z" fill="none" stroke="#FFD700" stroke-width="1.244480491031185" /><path d="M 366.3369738863984,-139.2080500768314 L 380.3560829433072,-107.1125179948562 L 412.9640584045961,-119.89447929547734 L 400.18209710397497,-87.2865038341884 L 432.2776291859501,-73.26739477727968 L 400.18209710397497,-59.24828572037096 L 412.9640584045961,-26.640310259082014 L 380.3560829433072,-39.422271559703155 L 366.3369738863984,-7.326739477727969 L 352.31786482948974,-39.422271559703155 L 319.7098893682008,-26.640310259082007 L 332.49185066882194,-59.24828572037094 L 300.39631858684675,-73.26739477727966 L 332.49185066882194,-87.28650383418841 L 319.7098893682007,-119.89447929547734 L 352.3178648294897,-107.11251799485619 Z" fill="none" stroke="#FFD700" stroke-width="1.244480491031185" /><path d="M 512.8717634409577,-139.2080500768314 L 526.8908724978664,-107.1125179948562 L 559.4988479591553,-119.89447929547734 L 546.7168866585342,-87.2865038341884 L 578.8124187405094,-73.26739477727968 L 546.7168866585342,-59.24828572037096 L 559.4988479591553,-26.640310259082014 L 526.8908724978664,-39.422271559703155 L 512.8717634409577,-7.326739477727969 L 498.85265438404895,-39.422271559703155 L 466.24467892276004,-26.640310259082007 L 479.02664022338115,-59.24828572037094 L 446.93110814140596,-73.26739477727966 L 479.02664022338115,-87.28650383418841 L 466.24467892276004,-119.89447929547734 L 498.85265438404895,-107.11251799485619 Z" fill="none" stroke="#FFD700" stroke-width="1.244480491031185" /><path d="M 659.406552995517,-139.2080500768314 L 673.4256620524258,-107.1125179948562 L 706.0336375137147,-119.89447929547734 L 693.2516762130936,-87.2865038341884 L 725.3472082950688,-73.26739477727968 L 693.2516762130936,-59.24828572037096 L 706.0336375137147,-26.640310259082014 L 673.4256620524258,-39.422271559703155 L 659.406552995517,-7.326739477727969 L 645.3874439386083,-39.422271559703155 L 612.7794684773194,-26.640310259082007 L 625.5614297779405,-59.24828572037094 L 593.4658976959653,-73.26739477727966 L 625.5614297779405,-87.28650383418841 L 612.7794684773194,-119.89447929547734 L 645.3874439386083,-107.11251799485619 Z" fill="none" stroke="#FFD700" stroke-width="1.244480491031185" /><path d="M 805.9413425500765,-139.2080500768314 L 819.9604516069852,-107.1125179948562 L 852.5684270682741,-119.89447929547734 L 839.786465767653,-87.2865038341884 L 871.8819978496282,-73.26739477727968 L 839.786465767653,-59.24828572037096 L 852.5684270682741,-26.640310259082014 L 819.9604516069852,-39.422271559703155 L 805.9413425500765,-7.326739477727969 L 791.9222334931677,-39.422271559703155 L 759.3142580318788,-26.640310259082007 L 772.0962193324999,-59.24828572037094 L 740.0006872505247,-73.26739477727966 L 772.0962193324999,-87.28650383418841 L 759.3142580318788,-119.89447929547734 L 791.9222334931677,-107.11251799485619 Z" fill="none" stroke="#FFD700" stroke-width="1.244480491031185" /><path d="M 952.4761321046357,-139.2080500768314 L 966.4952411615444,-107.1125179948562 L 999.1032166228333,-119.89447929547734 L 986.3212553222122,-87.2865038341884 L 1018.4167874041874,-73.26739477727968 L 986.3212553222122,-59.24828572037096 L 999.1032166228333,-26.640310259082014 L 966.4952411615444,-39.422271559703155 L 952.4761321046357,-7.326739477727969 L 938.4570230477269,-39.422271559703155 L 905.849047586438,-26.640310259082007 L 918.6310088870591,-59.24828572037094 L 886.5354768050839,-73.26739477727966 L 918.6310088870591,-87.28650383418841 L 905.849047586438,-119.89447929547734 L 938.4570230477269,-107.11251799485619 Z" fill="none" stroke="#FFD700" stroke-width="1.244480491031185" /><path d="M 1099.0109216591952,-139.2080500768314 L 1113.030030716104,-107.1125179948562 L 1145.638006177393,-119.89447929547734 L 1132.8560448767716,-87.2865038341884 L 1164.951576958747,-73.26739477727968 L 1132.8560448767716,-59.24828572037096 L 1145.638006177393,-26.640310259082014 L 1113.030030716104,-39.422271559703155 L 1099.0109216591952,-7.326739477727969 L 1084.9918126022865,-39.422271559703155 L 1052.3838371409975,-26.640310259082007 L 1065.1657984416188,-59.24828572037094 L 1033.0702663596435,-73.26739477727966 L 1065.1657984416188,-87.28650383418841 L 1052.3838371409975,-119.89447929547734 L 1084.9918126022865,-107.11251799485619 Z" fill="none" stroke="#FFD700" stroke-width="1.244480491031185" /><path d="M 1245.5457112137547,-139.2080500768314 L 1259.5648202706634,-107.1125179948562 L 1292.1727957319524,-119.89447929547734 L 1279.390834431331,-87.2865038341884 L 1311.4863665133064,-73.26739477727968 L 1279.390834431331,-59.24828572037096 L 1292.1727957319524,-26.640310259082014 L 1259.5648202706634,-39.422271559703155 L 1245.5457112137547,-7.326739477727969 L 1231.526602156846,-39.422271559703155 L 1198.918626695557,-26.640310259082007 L 1211.7005879961782,-59.24828572037094 L 1179.605055914203,-73.26739477727966 L 1211.7005879961782,-87.28650383418841 L 1198.918626695557,-119.89447929547734 L 1231.526602156846,-107.11251799485619 Z" fill="none" stroke="#FFD700" stroke-width="1.244480491031185" /><path d="M 1392.0805007683139,-139.2080500768314 L 1406.0996098252226,-107.1125179948562 L 1438.7075852865116,-119.89447929547734 L 1425.9256239858903,-87.2865038341884 L 1458.0211560678656,-73.26739477727968 L 1425.9256239858903,-59.24828572037096 L 1438.7075852865116,-26.640310259082014 L 1406.0996098252226,-39.422271559703155 L 1392.0805007683139,-7.326739477727969 L 1378.0613917114051,-39.422271559703155 L 1345.453416250116,-26.640310259082007 L 1358.2353775507374,-59.24828572037094 L 1326.1398454687621,-73.26739477727966 L 1358.2353775507374,-87.28650383418841 L 1345.453416250116,-119.89447929547734 L 1378.0613917114051,-107.11251799485619 Z" fill="none" stroke="#FFD700" stroke-width="1.244480491031185" /><path d="M 1538.6152903228733,-139.2080500768314 L 1552.634399379782,-107.1125179948562 L 1585.242374841071,-119.89447929547734 L 1572.4604135404497,-87.2865038341884 L 1604.555945622425,-73.26739477727968 L 1572.4604135404497,-59.24828572037096 L 1585.242374841071,-26.640310259082014 L 1552.634399379782,-39.422271559703155 L 1538.6152903228733,-7.326739477727969 L 1524.5961812659646,-39.422271559703155 L 1491.9882058046755,-26.640310259082007 L 1504.7701671052969,-59.24828572037094 L 1472.6746350233216,-73.26739477727966 L 1504.7701671052969,-87.28650383418841 L 1491.9882058046755,-119.89447929547734 L 1524.5961812659646,-107.11251799485619 Z" fill="none" stroke="#FFD700" stroke-width="1.244480491031185" /><path d="M 1685.1500798774327,-139.2080500768314 L 1699.1691889343415,-107.1125179948562 L 1731.7771643956305,-119.89447929547734 L 1718.9952030950092,-87.2865038341884 L 1751.0907351769845,-73.26739477727968 L 1718.9952030950092,-59.24828572037096 L 1731.7771643956305,-26.640310259082014 L 1699.1691889343415,-39.422271559703155 L 1685.1500798774327,-7.326739477727969 L 1671.130970820524,-39.422271559703155 L 1638.522995359235,-26.640310259082007 L 1651.3049566598563,-59.24828572037094 L 1619.209424577881,-73.26739477727966 L 1651.3049566598563,-87.28650383418841 L 1638.522995359235,-119.89447929547734 L 1671.130970820524,-107.11251799485619 Z" fill="none" stroke="#FFD700" stroke-width="1.244480491031185" /><path d="M 1831.684869431992,-139.2080500768314 L 1845.7039784889007,-107.1125179948562 L 1878.3119539501897,-119.89447929547734 L 1865.5299926495684,-87.2865038341884 L 1897.6255247315437,-73.26739477727968 L 1865.5299926495684,-59.24828572037096 L 1878.3119539501897,-26.640310259082014 L 1845.7039784889007,-39.422271559703155 L 1831.684869431992,-7.326739477727969 L 1817.6657603750832,-39.422271559703155 L 1785.0577849137942,-26.640310259082007 L 1797.8397462144155,-59.24828572037094 L 1765.7442141324402,-73.26739477727966 L 1797.8397462144155,-87.28650383418841 L 1785.0577849137942,-119.89447929547734 L 1817.6657603750832,-107.11251799485619 Z" fill="none" stroke="#FFD700" stroke-width="1.244480491031185" /><path d="M 1978.2196589865512,-139.2080500768314 L 1992.23876804346,-107.1125179948562 L 2024.846743504749,-119.89447929547734 L 2012.0647822041276,-87.2865038341884 L 2044.160314286103,-73.26739477727968 L 2012.0647822041276,-59.24828572037096 L 2024.846743504749,-26.640310259082014 L 1992.23876804346,-39.422271559703155 L 1978.2196589865512,-7.326739477727969 L 1964.2005499296424,-39.422271559703155 L 1931.5925744683534,-26.640310259082007 L 1944.3745357689747,-59.24828572037094 L 1912.2790036869994,-73.26739477727966 L 1944.3745357689747,-87.28650383418841 L 1931.5925744683534,-119.89447929547734 L 1964.2005499296424,-107.11251799485619 Z" fill="none" stroke="#FFD700" stroke-width="1.244480491031185" /><path d="M 4.037700622313748e-15,-12.308922322582987 L 14.019109056908722,19.7866097593922 L 46.62708451819767,7.004648458771058 L 33.84512321757652,39.61262392006 L 65.94065529955171,53.63173297696872 L 33.84512321757652,67.65084203387744 L 46.62708451819767,100.25881749516638 L 14.019109056908722,87.47685619454523 L 4.037700622313748e-15,119.57238827652043 L -14.019109056908718,87.47685619454523 L -46.62708451819766,100.2588174951664 L -33.845123217576514,67.65084203387745 L -65.94065529955171,53.63173297696873 L -33.845123217576514,39.61262392005999 L -46.62708451819768,7.004648458771058 L -14.01910905690874,19.786609759392206 Z" fill="none" stroke="#FFD700" stroke-width="1.244480491031185" /><path d="M 146.53478955455935,-12.308922322582987 L 160.55389861146807,19.7866097593922 L 193.16187407275703,7.004648458771058 L 180.37991277213587,39.61262392006 L 212.47544485411106,53.63173297696872 L 180.37991277213587,67.65084203387744 L 193.16187407275703,100.25881749516638 L 160.55389861146807,87.47685619454523 L 146.53478955455935,119.57238827652043 L 132.51568049765064,87.47685619454523 L 99.90770503636169,100.2588174951664 L 112.68966633698284,67.65084203387745 L 80.59413425500765,53.63173297696873 L 112.68966633698284,39.61262392005999 L 99.90770503636168,7.004648458771058 L 132.5156804976506,19.786609759392206 Z" fill="none" stroke="#FFD700" stroke-width="1.244480491031185" /><path d="M 293.0695791091187,-12.308922322582987 L 307.08868816602745,19.7866097593922 L 339.69666362731635,7.004648458771058 L 326.91470232669525,39.61262392006 L 359.0102344086704,53.63173297696872 L 326.91470232669525,67.65084203387744 L 339.69666362731635,100.25881749516638 L 307.08868816602745,87.47685619454523 L 293.0695791091187,119.57238827652043 L 279.05047005221,87.47685619454523 L 246.44249459092106,100.2588174951664 L 259.2244558915422,67.65084203387745 L 227.128923809567,53.63173297696873 L 259.2244558915422,39.61262392005999 L 246.44249459092103,7.004648458771058 L 279.05047005220996,19.786609759392206 Z" fill="none" stroke="#FFD700" stroke-width="1.244480491031185" /><path d="M 439.6043686636781,-12.308922322582987 L 453.62347772058683,19.7866097593922 L 486.23145318187574,7.004648458771058 L 473.44949188125463,39.61262392006 L 505.5450239632298,53.63173297696872 L 473.44949188125463,67.65084203387744 L 486.23145318187574,100.25881749516638 L 453.62347772058683,87.47685619454523 L 439.6043686636781,119.57238827652043 L 425.58525960676934,87.47685619454523 L 392.97728414548044,100.2588174951664 L 405.75924544610154,67.65084203387745 L 373.66371336412635,53.63173297696873 L 405.75924544610154,39.61262392005999 L 392.97728414548044,7.004648458771058 L 425.58525960676934,19.786609759392206 Z" fill="none" stroke="#FFD700" stroke-width="1.244480491031185" /><path d="M 586.1391582182374,-12.308922322582987 L 600.1582672751462,19.7866097593922 L 632.7662427364351,7.004648458771058 L 619.984281435814,39.61262392006 L 652.0798135177891,53.63173297696872 L 619.984281435814,67.65084203387744 L 632.7662427364351,100.25881749516638 L 600.1582672751462,87.47685619454523 L 586.1391582182374,119.57238827652043 L 572.1200491613287,87.47685619454523 L 539.5120737000398,100.2588174951664 L 552.2940350006609,67.65084203387745 L 520.1985029186857,53.63173297696873 L 552.2940350006609,39.61262392005999 L 539.5120737000398,7.004648458771058 L 572.1200491613287,19.786609759392206 Z" fill="none" stroke="#FFD700" stroke-width="1.244480491031185" /><path d="M 732.6739477727967,-12.308922322582987 L 746.6930568297055,19.7866097593922 L 779.3010322909944,7.004648458771058 L 766.5190709903733,39.61262392006 L 798.6146030723485,53.63173297696872 L 766.5190709903733,67.65084203387744 L 779.3010322909944,100.25881749516638 L 746.6930568297055,87.47685619454523 L 732.6739477727967,119.57238827652043 L 718.654838715888,87.47685619454523 L 686.0468632545991,100.2588174951664 L 698.8288245552202,67.65084203387745 L 666.733292473245,53.63173297696873 L 698.8288245552202,39.61262392005999 L 686.0468632545991,7.004648458771058 L 718.654838715888,19.786609759392206 Z" fill="none" stroke="#FFD700" stroke-width="1.244480491031185" /><path d="M 879.2087373273562,-12.308922322582987 L 893.2278463842649,19.7866097593922 L 925.8358218455538,7.004648458771058 L 913.0538605449327,39.61262392006 L 945.1493926269079,53.63173297696872 L 913.0538605449327,67.65084203387744 L 925.8358218455538,100.25881749516638 L 893.2278463842649,87.47685619454523 L 879.2087373273562,119.57238827652043 L 865.1896282704474,87.47685619454523 L 832.5816528091585,100.2588174951664 L 845.3636141097796,67.65084203387745 L 813.2680820278044,53.63173297696873 L 845.3636141097796,39.61262392005999 L 832.5816528091585,7.004648458771058 L 865.1896282704474,19.786609759392206 Z" fill="none" stroke="#FFD700" stroke-width="1.244480491031185" /><path d="M 1025.7435268819154,-12.308922322582987 L 1039.7626359388241,19.7866097593922 L 1072.3706114001131,7.004648458771058 L 1059.5886500994918,39.61262392006 L 1091.6841821814671,53.63173297696872 L 1059.5886500994918,67.65084203387744 L 1072.3706114001131,100.25881749516638 L 1039.7626359388241,87.47685619454523 L 1025.7435268819154,119.57238827652043 L 1011.7244178250066,87.47685619454523 L 979.1164423637177,100.2588174951664 L 991.8984036643388,67.65084203387745 L 959.8028715823637,53.63173297696873 L 991.8984036643388,39.61262392005999 L 979.1164423637177,7.004648458771058 L 1011.7244178250066,19.786609759392206 Z" fill="none" stroke="#FFD700" stroke-width="1.244480491031185" /><path d="M 1172.2783164364748,-12.308922322582987 L 1186.2974254933836,19.7866097593922 L 1218.9054009546726,7.004648458771058 L 1206.1234396540513,39.61262392006 L 1238.2189717360266,53.63173297696872 L 1206.1234396540513,67.65084203387744 L 1218.9054009546726,100.25881749516638 L 1186.2974254933836,87.47685619454523 L 1172.2783164364748,119.57238827652043 L 1158.259207379566,87.47685619454523 L 1125.651231918277,100.2588174951664 L 1138.4331932188984,67.65084203387745 L 1106.337661136923,53.63173297696873 L 1138.4331932188984,39.61262392005999 L 1125.651231918277,7.004648458771058 L 1158.259207379566,19.786609759392206 Z" fill="none" stroke="#FFD700" stroke-width="1.244480491031185" /><path d="M 1318.8131059910343,-12.308922322582987 L 1332.832215047943,19.7866097593922 L 1365.440190509232,7.004648458771058 L 1352.6582292086107,39.61262392006 L 1384.753761290586,53.63173297696872 L 1352.6582292086107,67.65084203387744 L 1365.440190509232,100.25881749516638 L 1332.832215047943,87.47685619454523 L 1318.8131059910343,119.57238827652043 L 1304.7939969341255,87.47685619454523 L 1272.1860214728365,100.2588174951664 L 1284.9679827734578,67.65084203387745 L 1252.8724506914825,53.63173297696873 L 1284.9679827734578,39.61262392005999 L 1272.1860214728365,7.004648458771058 L 1304.7939969341255,19.786609759392206 Z" fill="none" stroke="#FFD700" stroke-width="1.244480491031185" /><path d="M 1465.3478955455935,-12.308922322582987 L 1479.3670046025022,19.7866097593922 L 1511.9749800637912,7.004648458771058 L 1499.19301876317,39.61262392006 L 1531.2885508451452,53.63173297696872 L 1499.19301876317,67.65084203387744 L 1511.9749800637912,100.25881749516638 L 1479.3670046025022,87.47685619454523 L 1465.3478955455935,119.57238827652043 L 1451.3287864886847,87.47685619454523 L 1418.7208110273957,100.2588174951664 L 1431.502772328017,67.65084203387745 L 1399.4072402460417,53.63173297696873 L 1431.502772328017,39.61262392005999 L 1418.7208110273957,7.004648458771058 L 1451.3287864886847,19.786609759392206 Z" fill="none" stroke="#FFD700" stroke-width="1.244480491031185" /><path d="M 1611.882685100153,-12.308922322582987 L 1625.9017941570617,19.7866097593922 L 1658.5097696183507,7.004648458771058 L 1645.7278083177293,39.61262392006 L 1677.8233403997046,53.63173297696872 L 1645.7278083177293,67.65084203387744 L 1658.5097696183507,100.25881749516638 L 1625.9017941570617,87.47685619454523 L 1611.882685100153,119.57238827652043 L 1597.8635760432442,87.47685619454523 L 1565.2556005819552,100.2588174951664 L 1578.0375618825765,67.65084203387745 L 1545.9420298006012,53.63173297696873 L 1578.0375618825765,39.61262392005999 L 1565.2556005819552,7.004648458771058 L 1597.8635760432442,19.786609759392206 Z" fill="none" stroke="#FFD700" stroke-width="1.244480491031185" /><path d="M 1758.4174746547124,-12.308922322582987 L 1772.436583711621,19.7866097593922 L 1805.04455917291,7.004648458771058 L 1792.2625978722888,39.61262392006 L 1824.358129954264,53.63173297696872 L 1792.2625978722888,67.65084203387744 L 1805.04455917291,100.25881749516638 L 1772.436583711621,87.47685619454523 L 1758.4174746547124,119.57238827652043 L 1744.3983655978036,87.47685619454523 L 1711.7903901365146,100.2588174951664 L 1724.572351437136,67.65084203387745 L 1692.4768193551606,53.63173297696873 L 1724.572351437136,39.61262392005999 L 1711.7903901365146,7.004648458771058 L 1744.3983655978036,19.786609759392206 Z" fill="none" stroke="#FFD700" stroke-width="1.244480491031185" /><path d="M 1904.9522642092716,-12.308922322582987 L 1918.9713732661803,19.7866097593922 L 1951.5793487274693,7.004648458771058 L 1938.797387426848,39.61262392006 L 1970.8929195088233,53.63173297696872 L 1938.797387426848,67.65084203387744 L 1951.5793487274693,100.25881749516638 L 1918.9713732661803,87.47685619454523 L 1904.9522642092716,119.57238827652043 L 1890.9331551523628,87.47685619454523 L 1858.3251796910738,100.2588174951664 L 1871.1071409916951,67.65084203387745 L 1839.0116089097198,53.63173297696873 L 1871.1071409916951,39.61262392005999 L 1858.3251796910738,7.004648458771058 L 1890.9331551523628,19.786609759392206 Z" fill="none" stroke="#FFD700" stroke-width="1.244480491031185" /><path d="M 2051.4870537638308,-12.308922322582987 L 2065.5061628207395,19.7866097593922 L 2098.1141382820283,7.004648458771058 L 2085.3321769814074,39.61262392006 L 2117.4277090633823,53.63173297696872 L 2085.3321769814074,67.65084203387744 L 2098.1141382820283,100.25881749516638 L 2065.5061628207395,87.47685619454523 L 2051.4870537638308,119.57238827652043 L 2037.467944706922,87.47685619454523 L 2004.859969245633,100.2588174951664 L 2017.6419305462543,67.65084203387745 L 1985.546398464279,53.63173297696873 L 2017.6419305462543,39.61262392005999 L 2004.859969245633,7.004648458771058 L 2037.467944706922,19.786609759392206 Z" fill="none" stroke="#FFD700" stroke-width="1.244480491031185" /><path d="M -73.26739477727968,114.5902054316654 L -59.24828572037096,146.6857375136406 L -26.640310259082007,133.90377621301946 L -39.422271559703155,166.51175167430839 L -7.326739477727969,180.5308607312171 L -39.422271559703155,194.54996978812582 L -26.640310259082007,227.15794524941475 L -59.24828572037096,214.37598394879362 L -73.26739477727968,246.4715160307688 L -87.2865038341884,214.37598394879362 L -119.89447929547734,227.15794524941478 L -107.11251799485619,194.54996978812585 L -139.2080500768314,180.5308607312171 L -107.11251799485619,166.51175167430839 L -119.89447929547735,133.90377621301946 L -87.28650383418841,146.6857375136406 Z" fill="none" stroke="#FFD700" stroke-width="1.244480491031185" /><path d="M 73.26739477727968,114.5902054316654 L 87.2865038341884,146.6857375136406 L 119.89447929547734,133.90377621301946 L 107.1125179948562,166.51175167430839 L 139.2080500768314,180.5308607312171 L 107.1125179948562,194.54996978812582 L 119.89447929547734,227.15794524941475 L 87.2865038341884,214.37598394879362 L 73.26739477727968,246.4715160307688 L 59.24828572037096,214.37598394879362 L 26.640310259082014,227.15794524941478 L 39.42227155970316,194.54996978812585 L 7.326739477727969,180.5308607312171 L 39.42227155970316,166.51175167430839 L 26.640310259082,133.90377621301946 L 59.24828572037094,146.6857375136406 Z" fill="none" stroke="#FFD700" stroke-width="1.244480491031185" /><path d="M 219.80218433183904,114.5902054316654 L 233.82129338874776,146.6857375136406 L 266.4292688500367,133.90377621301946 L 253.64730754941556,166.51175167430839 L 285.7428396313908,180.5308607312171 L 253.64730754941556,194.54996978812582 L 266.4292688500367,227.15794524941475 L 233.82129338874776,214.37598394879362 L 219.80218433183904,246.4715160307688 L 205.78307527493033,214.37598394879362 L 173.1750998136414,227.15794524941478 L 185.95706111426253,194.54996978812585 L 153.86152903228734,180.5308607312171 L 185.95706111426253,166.51175167430839 L 173.17509981364137,133.90377621301946 L 205.7830752749303,146.6857375136406 Z" fill="none" stroke="#FFD700" stroke-width="1.244480491031185" /><path d="M 366.3369738863984,114.5902054316654 L 380.3560829433072,146.6857375136406 L 412.9640584045961,133.90377621301946 L 400.18209710397497,166.51175167430839 L 432.2776291859501,180.5308607312171 L 400.18209710397497,194.54996978812582 L 412.9640584045961,227.15794524941475 L 380.3560829433072,214.37598394879362 L 366.3369738863984,246.4715160307688 L 352.31786482948974,214.37598394879362 L 319.7098893682008,227.15794524941478 L 332.49185066882194,194.54996978812585 L 300.39631858684675,180.5308607312171 L 332.49185066882194,166.51175167430839 L 319.7098893682007,133.90377621301946 L 352.3178648294897,146.6857375136406 Z" fill="none" stroke="#FFD700" stroke-width="1.244480491031185" /><path d="M 512.8717634409577,114.5902054316654 L 526.8908724978664,146.6857375136406 L 559.4988479591553,133.90377621301946 L 546.7168866585342,166.51175167430839 L 578.8124187405094,180.5308607312171 L 546.7168866585342,194.54996978812582 L 559.4988479591553,227.15794524941475 L 526.8908724978664,214.37598394879362 L 512.8717634409577,246.4715160307688 L 498.85265438404895,214.37598394879362 L 466.24467892276004,227.15794524941478 L 479.02664022338115,194.54996978812585 L 446.93110814140596,180.5308607312171 L 479.02664022338115,166.51175167430839 L 466.24467892276004,133.90377621301946 L 498.85265438404895,146.6857375136406 Z" fill="none" stroke="#FFD700" stroke-width="1.244480491031185" /><path d="M 659.406552995517,114.5902054316654 L 673.4256620524258,146.6857375136406 L 706.0336375137147,133.90377621301946 L 693.2516762130936,166.51175167430839 L 725.3472082950688,180.5308607312171 L 693.2516762130936,194.54996978812582 L 706.0336375137147,227.15794524941475 L 673.4256620524258,214.37598394879362 L 659.406552995517,246.4715160307688 L 645.3874439386083,214.37598394879362 L 612.7794684773194,227.15794524941478 L 625.5614297779405,194.54996978812585 L 593.4658976959653,180.5308607312171 L 625.5614297779405,166.51175167430839 L 612.7794684773194,133.90377621301946 L 645.3874439386083,146.6857375136406 Z" fill="none" stroke="#FFD700" stroke-width="1.244480491031185" /><path d="M 805.9413425500765,114.5902054316654 L 819.9604516069852,146.6857375136406 L 852.5684270682741,133.90377621301946 L 839.786465767653,166.51175167430839 L 871.8819978496282,180.5308607312171 L 839.786465767653,194.54996978812582 L 852.5684270682741,227.15794524941475 L 819.9604516069852,214.37598394879362 L 805.9413425500765,246.4715160307688 L 791.9222334931677,214.37598394879362 L 759.3142580318788,227.15794524941478 L 772.0962193324999,194.54996978812585 L 740.0006872505247,180.5308607312171 L 772.0962193324999,166.51175167430839 L 759.3142580318788,133.90377621301946 L 791.9222334931677,146.6857375136406 Z" fill="none" stroke="#FFD700" stroke-width="1.244480491031185" /><path d="M 952.4761321046357,114.5902054316654 L 966.4952411615444,146.6857375136406 L 999.1032166228333,133.90377621301946 L 986.3212553222122,166.51175167430839 L 1018.4167874041874,180.5308607312171 L 986.3212553222122,194.54996978812582 L 999.1032166228333,227.15794524941475 L 966.4952411615444,214.37598394879362 L 952.4761321046357,246.4715160307688 L 938.4570230477269,214.37598394879362 L 905.849047586438,227.15794524941478 L 918.6310088870591,194.54996978812585 L 886.5354768050839,180.5308607312171 L 918.6310088870591,166.51175167430839 L 905.849047586438,133.90377621301946 L 938.4570230477269,146.6857375136406 Z" fill="none" stroke="#FFD700" stroke-width="1.244480491031185" /><path d="M 1099.0109216591952,114.5902054316654 L 1113.030030716104,146.6857375136406 L 1145.638006177393,133.90377621301946 L 1132.8560448767716,166.51175167430839 L 1164.951576958747,180.5308607312171 L 1132.8560448767716,194.54996978812582 L 1145.638006177393,227.15794524941475 L 1113.030030716104,214.37598394879362 L 1099.0109216591952,246.4715160307688 L 1084.9918126022865,214.37598394879362 L 1052.3838371409975,227.15794524941478 L 1065.1657984416188,194.54996978812585 L 1033.0702663596435,180.5308607312171 L 1065.1657984416188,166.51175167430839 L 1052.3838371409975,133.90377621301946 L 1084.9918126022865,146.6857375136406 Z" fill="none" stroke="#FFD700" stroke-width="1.244480491031185" /><path d="M 1245.5457112137547,114.5902054316654 L 1259.5648202706634,146.6857375136406 L 1292.1727957319524,133.90377621301946 L 1279.390834431331,166.51175167430839 L 1311.4863665133064,180.5308607312171 L 1279.390834431331,194.54996978812582 L 1292.1727957319524,227.15794524941475 L 1259.5648202706634,214.37598394879362 L 1245.5457112137547,246.4715160307688 L 1231.526602156846,214.37598394879362 L 1198.918626695557,227.15794524941478 L 1211.7005879961782,194.54996978812585 L 1179.605055914203,180.5308607312171 L 1211.7005879961782,166.51175167430839 L 1198.918626695557,133.90377621301946 L 1231.526602156846,146.6857375136406 Z" fill="none" stroke="#FFD700" stroke-width="1.244480491031185" /><path d="M 1392.0805007683139,114.5902054316654 L 1406.0996098252226,146.6857375136406 L 1438.7075852865116,133.90377621301946 L 1425.9256239858903,166.51175167430839 L 1458.0211560678656,180.5308607312171 L 1425.9256239858903,194.54996978812582 L 1438.7075852865116,227.15794524941475 L 1406.0996098252226,214.37598394879362 L 1392.0805007683139,246.4715160307688 L 1378.0613917114051,214.37598394879362 L 1345.453416250116,227.15794524941478 L 1358.2353775507374,194.54996978812585 L 1326.1398454687621,180.5308607312171 L 1358.2353775507374,166.51175167430839 L 1345.453416250116,133.90377621301946 L 1378.0613917114051,146.6857375136406 Z" fill="none" stroke="#FFD700" stroke-width="1.244480491031185" /><path d="M 1538.6152903228733,114.5902054316654 L 1552.634399379782,146.6857375136406 L 1585.242374841071,133.90377621301946 L 1572.4604135404497,166.51175167430839 L 1604.555945622425,180.5308607312171 L 1572.4604135404497,194.54996978812582 L 1585.242374841071,227.15794524941475 L 1552.634399379782,214.37598394879362 L 1538.6152903228733,246.4715160307688 L 1524.5961812659646,214.37598394879362 L 1491.9882058046755,227.15794524941478 L 1504.7701671052969,194.54996978812585 L 1472.6746350233216,180.5308607312171 L 1504.7701671052969,166.51175167430839 L 1491.9882058046755,133.90377621301946 L 1524.5961812659646,146.6857375136406 Z" fill="none" stroke="#FFD700" stroke-width="1.244480491031185" /><path d="M 1685.1500798774327,114.5902054316654 L 1699.1691889343415,146.6857375136406 L 1731.7771643956305,133.90377621301946 L 1718.9952030950092,166.51175167430839 L 1751.0907351769845,180.5308607312171 L 1718.9952030950092,194.54996978812582 L 1731.7771643956305,227.15794524941475 L 1699.1691889343415,214.37598394879362 L 1685.1500798774327,246.4715160307688 L 1671.130970820524,214.37598394879362 L 1638.522995359235,227.15794524941478 L 1651.3049566598563,194.54996978812585 L 1619.209424577881,180.5308607312171 L 1651.3049566598563,166.51175167430839 L 1638.522995359235,133.90377621301946 L 1671.130970820524,146.6857375136406 Z" fill="none" stroke="#FFD700" stroke-width="1.244480491031185" /><path d="M 1831.684869431992,114.5902054316654 L 1845.7039784889007,146.6857375136406 L 1878.3119539501897,133.90377621301946 L 1865.5299926495684,166.51175167430839 L 1897.6255247315437,180.5308607312171 L 1865.5299926495684,194.54996978812582 L 1878.3119539501897,227.15794524941475 L 1845.7039784889007,214.37598394879362 L 1831.684869431992,246.4715160307688 L 1817.6657603750832,214.37598394879362 L 1785.0577849137942,227.15794524941478 L 1797.8397462144155,194.54996978812585 L 1765.7442141324402,180.5308607312171 L 1797.8397462144155,166.51175167430839 L 1785.0577849137942,133.90377621301946 L 1817.6657603750832,146.6857375136406 Z" fill="none" stroke="#FFD700" stroke-width="1.244480491031185" /><path d="M 1978.2196589865512,114.5902054316654 L 1992.23876804346,146.6857375136406 L 2024.846743504749,133.90377621301946 L 2012.0647822041276,166.51175167430839 L 2044.160314286103,180.5308607312171 L 2012.0647822041276,194.54996978812582 L 2024.846743504749,227.15794524941475 L 1992.23876804346,214.37598394879362 L 1978.2196589865512,246.4715160307688 L 1964.2005499296424,214.37598394879362 L 1931.5925744683534,227.15794524941478 L 1944.3745357689747,194.54996978812585 L 1912.2790036869994,180.5308607312171 L 1944.3745357689747,166.51175167430839 L 1931.5925744683534,133.90377621301946 L 1964.2005499296424,146.6857375136406 Z" fill="none" stroke="#FFD700" stroke-width="1.244480491031185" /><path d="M 4.037700622313748e-15,241.48933318591386 L 14.019109056908722,273.58486526788903 L 46.62708451819767,260.8029039672679 L 33.84512321757652,293.4108794285568 L 65.94065529955171,307.42998848546557 L 33.84512321757652,321.4490975423743 L 46.62708451819767,354.0570730036632 L 14.019109056908722,341.2751117030421 L 4.037700622313748e-15,373.37064378501725 L -14.019109056908718,341.2751117030421 L -46.62708451819766,354.0570730036632 L -33.845123217576514,321.4490975423743 L -65.94065529955171,307.42998848546557 L -33.845123217576514,293.4108794285568 L -46.62708451819768,260.8029039672679 L -14.01910905690874,273.5848652678891 Z" fill="none" stroke="#FFD700" stroke-width="1.244480491031185" /><path d="M 146.53478955455935,241.48933318591386 L 160.55389861146807,273.58486526788903 L 193.16187407275703,260.8029039672679 L 180.37991277213587,293.4108794285568 L 212.47544485411106,307.42998848546557 L 180.37991277213587,321.4490975423743 L 193.16187407275703,354.0570730036632 L 160.55389861146807,341.2751117030421 L 146.53478955455935,373.37064378501725 L 132.51568049765064,341.2751117030421 L 99.90770503636169,354.0570730036632 L 112.68966633698284,321.4490975423743 L 80.59413425500765,307.42998848546557 L 112.68966633698284,293.4108794285568 L 99.90770503636168,260.8029039672679 L 132.5156804976506,273.5848652678891 Z" fill="none" stroke="#FFD700" stroke-width="1.244480491031185" /><path d="M 293.0695791091187,241.48933318591386 L 307.08868816602745,273.58486526788903 L 339.69666362731635,260.8029039672679 L 326.91470232669525,293.4108794285568 L 359.0102344086704,307.42998848546557 L 326.91470232669525,321.4490975423743 L 339.69666362731635,354.0570730036632 L 307.08868816602745,341.2751117030421 L 293.0695791091187,373.37064378501725 L 279.05047005221,341.2751117030421 L 246.44249459092106,354.0570730036632 L 259.2244558915422,321.4490975423743 L 227.128923809567,307.42998848546557 L 259.2244558915422,293.4108794285568 L 246.44249459092103,260.8029039672679 L 279.05047005220996,273.5848652678891 Z" fill="none" stroke="#FFD700" stroke-width="1.244480491031185" /><path d="M 439.6043686636781,241.48933318591386 L 453.62347772058683,273.58486526788903 L 486.23145318187574,260.8029039672679 L 473.44949188125463,293.4108794285568 L 505.5450239632298,307.42998848546557 L 473.44949188125463,321.4490975423743 L 486.23145318187574,354.0570730036632 L 453.62347772058683,341.2751117030421 L 439.6043686636781,373.37064378501725 L 425.58525960676934,341.2751117030421 L 392.97728414548044,354.0570730036632 L 405.75924544610154,321.4490975423743 L 373.66371336412635,307.42998848546557 L 405.75924544610154,293.4108794285568 L 392.97728414548044,260.8029039672679 L 425.58525960676934,273.5848652678891 Z" fill="none" stroke="#FFD700" stroke-width="1.244480491031185" /><path d="M 586.1391582182374,241.48933318591386 L 600.1582672751462,273.58486526788903 L 632.7662427364351,260.8029039672679 L 619.984281435814,293.4108794285568 L 652.0798135177891,307.42998848546557 L 619.984281435814,321.4490975423743 L 632.7662427364351,354.0570730036632 L 600.1582672751462,341.2751117030421 L 586.1391582182374,373.37064378501725 L 572.1200491613287,341.2751117030421 L 539.5120737000398,354.0570730036632 L 552.2940350006609,321.4490975423743 L 520.1985029186857,307.42998848546557 L 552.2940350006609,293.4108794285568 L 539.5120737000398,260.8029039672679 L 572.1200491613287,273.5848652678891 Z" fill="none" stroke="#FFD700" stroke-width="1.244480491031185" /><path d="M 732.6739477727967,241.48933318591386 L 746.6930568297055,273.58486526788903 L 779.3010322909944,260.8029039672679 L 766.5190709903733,293.4108794285568 L 798.6146030723485,307.42998848546557 L 766.5190709903733,321.4490975423743 L 779.3010322909944,354.0570730036632 L 746.6930568297055,341.2751117030421 L 732.6739477727967,373.37064378501725 L 718.654838715888,341.2751117030421 L 686.0468632545991,354.0570730036632 L 698.8288245552202,321.4490975423743 L 666.733292473245,307.42998848546557 L 698.8288245552202,293.4108794285568 L 686.0468632545991,260.8029039672679 L 718.654838715888,273.5848652678891 Z" fill="none" stroke="#FFD700" stroke-width="1.244480491031185" /><path d="M 879.2087373273562,241.48933318591386 L 893.2278463842649,273.58486526788903 L 925.8358218455538,260.8029039672679 L 913.0538605449327,293.4108794285568 L 945.1493926269079,307.42998848546557 L 913.0538605449327,321.4490975423743 L 925.8358218455538,354.0570730036632 L 893.2278463842649,341.2751117030421 L 879.2087373273562,373.37064378501725 L 865.1896282704474,341.2751117030421 L 832.5816528091585,354.0570730036632 L 845.3636141097796,321.4490975423743 L 813.2680820278044,307.42998848546557 L 845.3636141097796,293.4108794285568 L 832.5816528091585,260.8029039672679 L 865.1896282704474,273.5848652678891 Z" fill="none" stroke="#FFD700" stroke-width="1.244480491031185" /><path d="M 1025.7435268819154,241.48933318591386 L 1039.7626359388241,273.58486526788903 L 1072.3706114001131,260.8029039672679 L 1059.5886500994918,293.4108794285568 L 1091.6841821814671,307.42998848546557 L 1059.5886500994918,321.4490975423743 L 1072.3706114001131,354.0570730036632 L 1039.7626359388241,341.2751117030421 L 1025.7435268819154,373.37064378501725 L 1011.7244178250066,341.2751117030421 L 979.1164423637177,354.0570730036632 L 991.8984036643388,321.4490975423743 L 959.8028715823637,307.42998848546557 L 991.8984036643388,293.4108794285568 L 979.1164423637177,260.8029039672679 L 1011.7244178250066,273.5848652678891 Z" fill="none" stroke="#FFD700" stroke-width="1.244480491031185" /><path d="M 1172.2783164364748,241.48933318591386 L 1186.2974254933836,273.58486526788903 L 1218.9054009546726,260.8029039672679 L 1206.1234396540513,293.4108794285568 L 1238.2189717360266,307.42998848546557 L 1206.1234396540513,321.4490975423743 L 1218.9054009546726,354.0570730036632 L 1186.2974254933836,341.2751117030421 L 1172.2783164364748,373.37064378501725 L 1158.259207379566,341.2751117030421 L 1125.651231918277,354.0570730036632 L 1138.4331932188984,321.4490975423743 L 1106.337661136923,307.42998848546557 L 1138.4331932188984,293.4108794285568 L 1125.651231918277,260.8029039672679 L 1158.259207379566,273.5848652678891 Z" fill="none" stroke="#FFD700" stroke-width="1.244480491031185" /><path d="M 1318.8131059910343,241.48933318591386 L 1332.832215047943,273.58486526788903 L 1365.440190509232,260.8029039672679 L 1352.6582292086107,293.4108794285568 L 1384.753761290586,307.42998848546557 L 1352.6582292086107,321.4490975423743 L 1365.440190509232,354.0570730036632 L 1332.832215047943,341.2751117030421 L 1318.8131059910343,373.37064378501725 L 1304.7939969341255,341.2751117030421 L 1272.1860214728365,354.0570730036632 L 1284.9679827734578,321.4490975423743 L 1252.8724506914825,307.42998848546557 L 1284.9679827734578,293.4108794285568 L 1272.1860214728365,260.8029039672679 L 1304.7939969341255,273.5848652678891 Z" fill="none" stroke="#FFD700" stroke-width="1.244480491031185" /><path d="M 1465.3478955455935,241.48933318591386 L 1479.3670046025022,273.58486526788903 L 1511.9749800637912,260.8029039672679 L 1499.19301876317,293.4108794285568 L 1531.2885508451452,307.42998848546557 L 1499.19301876317,321.4490975423743 L 1511.9749800637912,354.0570730036632 L 1479.3670046025022,341.2751117030421 L 1465.3478955455935,373.37064378501725 L 1451.3287864886847,341.2751117030421 L 1418.7208110273957,354.0570730036632 L 1431.502772328017,321.4490975423743 L 1399.4072402460417,307.42998848546557 L 1431.502772328017,293.4108794285568 L 1418.7208110273957,260.8029039672679 L 1451.3287864886847,273.5848652678891 Z" fill="none" stroke="#FFD700" stroke-width="1.244480491031185" /><path d="M 1611.882685100153,241.48933318591386 L 1625.9017941570617,273.58486526788903 L 1658.5097696183507,260.8029039672679 L 1645.7278083177293,293.4108794285568 L 1677.8233403997046,307.42998848546557 L 1645.7278083177293,321.4490975423743 L 1658.5097696183507,354.0570730036632 L 1625.9017941570617,341.2751117030421 L 1611.882685100153,373.37064378501725 L 1597.8635760432442,341.2751117030421 L 1565.2556005819552,354.0570730036632 L 1578.0375618825765,321.4490975423743 L 1545.9420298006012,307.42998848546557 L 1578.0375618825765,293.4108794285568 L 1565.2556005819552,260.8029039672679 L 1597.8635760432442,273.5848652678891 Z" fill="none" stroke="#FFD700" stroke-width="1.244480491031185" /><path d="M 1758.4174746547124,241.48933318591386 L 1772.436583711621,273.58486526788903 L 1805.04455917291,260.8029039672679 L 1792.2625978722888,293.4108794285568 L 1824.358129954264,307.42998848546557 L 1792.2625978722888,321.4490975423743 L 1805.04455917291,354.0570730036632 L 1772.436583711621,341.2751117030421 L 1758.4174746547124,373.37064378501725 L 1744.3983655978036,341.2751117030421 L 1711.7903901365146,354.0570730036632 L 1724.572351437136,321.4490975423743 L 1692.4768193551606,307.42998848546557 L 1724.572351437136,293.4108794285568 L 1711.7903901365146,260.8029039672679 L 1744.3983655978036,273.5848652678891 Z" fill="none" stroke="#FFD700" stroke-width="1.244480491031185" /><path d="M 1904.9522642092716,241.48933318591386 L 1918.9713732661803,273.58486526788903 L 1951.5793487274693,260.8029039672679 L 1938.797387426848,293.4108794285568 L 1970.8929195088233,307.42998848546557 L 1938.797387426848,321.4490975423743 L 1951.5793487274693,354.0570730036632 L 1918.9713732661803,341.2751117030421 L 1904.9522642092716,373.37064378501725 L 1890.9331551523628,341.2751117030421 L 1858.3251796910738,354.0570730036632 L 1871.1071409916951,321.4490975423743 L 1839.0116089097198,307.42998848546557 L 1871.1071409916951,293.4108794285568 L 1858.3251796910738,260.8029039672679 L 1890.9331551523628,273.5848652678891 Z" fill="none" stroke="#FFD700" stroke-width="1.244480491031185" /><path d="M 2051.4870537638308,241.48933318591386 L 2065.5061628207395,273.58486526788903 L 2098.1141382820283,260.8029039672679 L 2085.3321769814074,293.4108794285568 L 2117.4277090633823,307.42998848546557 L 2085.3321769814074,321.4490975423743 L 2098.1141382820283,354.0570730036632 L 2065.5061628207395,341.2751117030421 L 2051.4870537638308,373.37064378501725 L 2037.467944706922,341.2751117030421 L 2004.859969245633,354.0570730036632 L 2017.6419305462543,321.4490975423743 L 1985.546398464279,307.42998848546557 L 2017.6419305462543,293.4108794285568 L 2004.859969245633,260.8029039672679 L 2037.467944706922,273.5848652678891 Z" fill="none" stroke="#FFD700" stroke-width="1.244480491031185" /><path d="M -73.26739477727968,368.3884609401622 L -59.24828572037096,400.4839930221374 L -26.640310259082007,387.7020317215163 L -39.422271559703155,420.3100071828052 L -7.326739477727969,434.3291162397139 L -39.422271559703155,448.3482252966227 L -26.640310259082007,480.9562007579116 L -59.24828572037096,468.17423945729047 L -73.26739477727968,500.26977153926566 L -87.2865038341884,468.17423945729047 L -119.89447929547734,480.9562007579116 L -107.11251799485619,448.3482252966227 L -139.2080500768314,434.3291162397139 L -107.11251799485619,420.3100071828052 L -119.89447929547735,387.7020317215163 L -87.28650383418841,400.4839930221374 Z" fill="none" stroke="#FFD700" stroke-width="1.244480491031185" /><path d="M 73.26739477727968,368.3884609401622 L 87.2865038341884,400.4839930221374 L 119.89447929547734,387.7020317215163 L 107.1125179948562,420.3100071828052 L 139.2080500768314,434.3291162397139 L 107.1125179948562,448.3482252966227 L 119.89447929547734,480.9562007579116 L 87.2865038341884,468.17423945729047 L 73.26739477727968,500.26977153926566 L 59.24828572037096,468.17423945729047 L 26.640310259082014,480.9562007579116 L 39.42227155970316,448.3482252966227 L 7.326739477727969,434.3291162397139 L 39.42227155970316,420.3100071828052 L 26.640310259082,387.7020317215163 L 59.24828572037094,400.4839930221374 Z" fill="none" stroke="#FFD700" stroke-width="1.244480491031185" /><path d="M 219.80218433183904,368.3884609401622 L 233.82129338874776,400.4839930221374 L 266.4292688500367,387.7020317215163 L 253.64730754941556,420.3100071828052 L 285.7428396313908,434.3291162397139 L 253.64730754941556,448.3482252966227 L 266.4292688500367,480.9562007579116 L 233.82129338874776,468.17423945729047 L 219.80218433183904,500.26977153926566 L 205.78307527493033,468.17423945729047 L 173.1750998136414,480.9562007579116 L 185.95706111426253,448.3482252966227 L 153.86152903228734,434.3291162397139 L 185.95706111426253,420.3100071828052 L 173.17509981364137,387.7020317215163 L 205.7830752749303,400.4839930221374 Z" fill="none" stroke="#FFD700" stroke-width="1.244480491031185" /><path d="M 366.3369738863984,368.3884609401622 L 380.3560829433072,400.4839930221374 L 412.9640584045961,387.7020317215163 L 400.18209710397497,420.3100071828052 L 432.2776291859501,434.3291162397139 L 400.18209710397497,448.3482252966227 L 412.9640584045961,480.9562007579116 L 380.3560829433072,468.17423945729047 L 366.3369738863984,500.26977153926566 L 352.31786482948974,468.17423945729047 L 319.7098893682008,480.9562007579116 L 332.49185066882194,448.3482252966227 L 300.39631858684675,434.3291162397139 L 332.49185066882194,420.3100071828052 L 319.7098893682007,387.7020317215163 L 352.3178648294897,400.4839930221374 Z" fill="none" stroke="#FFD700" stroke-width="1.244480491031185" /><path d="M 512.8717634409577,368.3884609401622 L 526.8908724978664,400.4839930221374 L 559.4988479591553,387.7020317215163 L 546.7168866585342,420.3100071828052 L 578.8124187405094,434.3291162397139 L 546.7168866585342,448.3482252966227 L 559.4988479591553,480.9562007579116 L 526.8908724978664,468.17423945729047 L 512.8717634409577,500.26977153926566 L 498.85265438404895,468.17423945729047 L 466.24467892276004,480.9562007579116 L 479.02664022338115,448.3482252966227 L 446.93110814140596,434.3291162397139 L 479.02664022338115,420.3100071828052 L 466.24467892276004,387.7020317215163 L 498.85265438404895,400.4839930221374 Z" fill="none" stroke="#FFD700" stroke-width="1.244480491031185" /><path d="M 659.406552995517,368.3884609401622 L 673.4256620524258,400.4839930221374 L 706.0336375137147,387.7020317215163 L 693.2516762130936,420.3100071828052 L 725.3472082950688,434.3291162397139 L 693.2516762130936,448.3482252966227 L 706.0336375137147,480.9562007579116 L 673.4256620524258,468.17423945729047 L 659.406552995517,500.26977153926566 L 645.3874439386083,468.17423945729047 L 612.7794684773194,480.9562007579116 L 625.5614297779405,448.3482252966227 L 593.4658976959653,434.3291162397139 L 625.5614297779405,420.3100071828052 L 612.7794684773194,387.7020317215163 L 645.3874439386083,400.4839930221374 Z" fill="none" stroke="#FFD700" stroke-width="1.244480491031185" /><path d="M 805.9413425500765,368.3884609401622 L 819.9604516069852,400.4839930221374 L 852.5684270682741,387.7020317215163 L 839.786465767653,420.3100071828052 L 871.8819978496282,434.3291162397139 L 839.786465767653,448.3482252966227 L 852.5684270682741,480.9562007579116 L 819.9604516069852,468.17423945729047 L 805.9413425500765,500.26977153926566 L 791.9222334931677,468.17423945729047 L 759.3142580318788,480.9562007579116 L 772.0962193324999,448.3482252966227 L 740.0006872505247,434.3291162397139 L 772.0962193324999,420.3100071828052 L 759.3142580318788,387.7020317215163 L 791.9222334931677,400.4839930221374 Z" fill="none" stroke="#FFD700" stroke-width="1.244480491031185" /><path d="M 952.4761321046357,368.3884609401622 L 966.4952411615444,400.4839930221374 L 999.1032166228333,387.7020317215163 L 986.3212553222122,420.3100071828052 L 1018.4167874041874,434.3291162397139 L 986.3212553222122,448.3482252966227 L 999.1032166228333,480.9562007579116 L 966.4952411615444,468.17423945729047 L 952.4761321046357,500.26977153926566 L 938.4570230477269,468.17423945729047 L 905.849047586438,480.9562007579116 L 918.6310088870591,448.3482252966227 L 886.5354768050839,434.3291162397139 L 918.6310088870591,420.3100071828052 L 905.849047586438,387.7020317215163 L 938.4570230477269,400.4839930221374 Z" fill="none" stroke="#FFD700" stroke-width="1.244480491031185" /><path d="M 1099.0109216591952,368.3884609401622 L 1113.030030716104,400.4839930221374 L 1145.638006177393,387.7020317215163 L 1132.8560448767716,420.3100071828052 L 1164.951576958747,434.3291162397139 L 1132.8560448767716,448.3482252966227 L 1145.638006177393,480.9562007579116 L 1113.030030716104,468.17423945729047 L 1099.0109216591952,500.26977153926566 L 1084.9918126022865,468.17423945729047 L 1052.3838371409975,480.9562007579116 L 1065.1657984416188,448.3482252966227 L 1033.0702663596435,434.3291162397139 L 1065.1657984416188,420.3100071828052 L 1052.3838371409975,387.7020317215163 L 1084.9918126022865,400.4839930221374 Z" fill="none" stroke="#FFD700" stroke-width="1.244480491031185" /><path d="M 1245.5457112137547,368.3884609401622 L 1259.5648202706634,400.4839930221374 L 1292.1727957319524,387.7020317215163 L 1279.390834431331,420.3100071828052 L 1311.4863665133064,434.3291162397139 L 1279.390834431331,448.3482252966227 L 1292.1727957319524,480.9562007579116 L 1259.5648202706634,468.17423945729047 L 1245.5457112137547,500.26977153926566 L 1231.526602156846,468.17423945729047 L 1198.918626695557,480.9562007579116 L 1211.7005879961782,448.3482252966227 L 1179.605055914203,434.3291162397139 L 1211.7005879961782,420.3100071828052 L 1198.918626695557,387.7020317215163 L 1231.526602156846,400.4839930221374 Z" fill="none" stroke="#FFD700" stroke-width="1.244480491031185" /><path d="M 1392.0805007683139,368.3884609401622 L 1406.0996098252226,400.4839930221374 L 1438.7075852865116,387.7020317215163 L 1425.9256239858903,420.3100071828052 L 1458.0211560678656,434.3291162397139 L 1425.9256239858903,448.3482252966227 L 1438.7075852865116,480.9562007579116 L 1406.0996098252226,468.17423945729047 L 1392.0805007683139,500.26977153926566 L 1378.0613917114051,468.17423945729047 L 1345.453416250116,480.9562007579116 L 1358.2353775507374,448.3482252966227 L 1326.1398454687621,434.3291162397139 L 1358.2353775507374,420.3100071828052 L 1345.453416250116,387.7020317215163 L 1378.0613917114051,400.4839930221374 Z" fill="none" stroke="#FFD700" stroke-width="1.244480491031185" /><path d="M 1538.6152903228733,368.3884609401622 L 1552.634399379782,400.4839930221374 L 1585.242374841071,387.7020317215163 L 1572.4604135404497,420.3100071828052 L 1604.555945622425,434.3291162397139 L 1572.4604135404497,448.3482252966227 L 1585.242374841071,480.9562007579116 L 1552.634399379782,468.17423945729047 L 1538.6152903228733,500.26977153926566 L 1524.5961812659646,468.17423945729047 L 1491.9882058046755,480.9562007579116 L 1504.7701671052969,448.3482252966227 L 1472.6746350233216,434.3291162397139 L 1504.7701671052969,420.3100071828052 L 1491.9882058046755,387.7020317215163 L 1524.5961812659646,400.4839930221374 Z" fill="none" stroke="#FFD700" stroke-width="1.244480491031185" /><path d="M 1685.1500798774327,368.3884609401622 L 1699.1691889343415,400.4839930221374 L 1731.7771643956305,387.7020317215163 L 1718.9952030950092,420.3100071828052 L 1751.0907351769845,434.3291162397139 L 1718.9952030950092,448.3482252966227 L 1731.7771643956305,480.9562007579116 L 1699.1691889343415,468.17423945729047 L 1685.1500798774327,500.26977153926566 L 1671.130970820524,468.17423945729047 L 1638.522995359235,480.9562007579116 L 1651.3049566598563,448.3482252966227 L 1619.209424577881,434.3291162397139 L 1651.3049566598563,420.3100071828052 L 1638.522995359235,387.7020317215163 L 1671.130970820524,400.4839930221374 Z" fill="none" stroke="#FFD700" stroke-width="1.244480491031185" /><path d="M 1831.684869431992,368.3884609401622 L 1845.7039784889007,400.4839930221374 L 1878.3119539501897,387.7020317215163 L 1865.5299926495684,420.3100071828052 L 1897.6255247315437,434.3291162397139 L 1865.5299926495684,448.3482252966227 L 1878.3119539501897,480.9562007579116 L 1845.7039784889007,468.17423945729047 L 1831.684869431992,500.26977153926566 L 1817.6657603750832,468.17423945729047 L 1785.0577849137942,480.9562007579116 L 1797.8397462144155,448.3482252966227 L 1765.7442141324402,434.3291162397139 L 1797.8397462144155,420.3100071828052 L 1785.0577849137942,387.7020317215163 L 1817.6657603750832,400.4839930221374 Z" fill="none" stroke="#FFD700" stroke-width="1.244480491031185" /><path d="M 1978.2196589865512,368.3884609401622 L 1992.23876804346,400.4839930221374 L 2024.846743504749,387.7020317215163 L 2012.0647822041276,420.3100071828052 L 2044.160314286103,434.3291162397139 L 2012.0647822041276,448.3482252966227 L 2024.846743504749,480.9562007579116 L 1992.23876804346,468.17423945729047 L 1978.2196589865512,500.26977153926566 L 1964.2005499296424,468.17423945729047 L 1931.5925744683534,480.9562007579116 L 1944.3745357689747,448.3482252966227 L 1912.2790036869994,434.3291162397139 L 1944.3745357689747,420.3100071828052 L 1931.5925744683534,387.7020317215163 L 1964.2005499296424,400.4839930221374 Z" fill="none" stroke="#FFD700" stroke-width="1.244480491031185" /><path d="M 4.037700622313748e-15,495.2875886944105 L 14.019109056908722,527.3831207763857 L 46.62708451819767,514.6011594757646 L 33.84512321757652,547.2091349370535 L 65.94065529955171,561.2282439939622 L 33.84512321757652,575.247353050871 L 46.62708451819767,607.8553285121599 L 14.019109056908722,595.0733672115388 L 4.037700622313748e-15,627.168899293514 L -14.019109056908718,595.0733672115388 L -46.62708451819766,607.8553285121599 L -33.845123217576514,575.247353050871 L -65.94065529955171,561.2282439939622 L -33.845123217576514,547.2091349370535 L -46.62708451819768,514.6011594757646 L -14.01910905690874,527.3831207763857 Z" fill="none" stroke="#FFD700" stroke-width="1.244480491031185" /><path d="M 146.53478955455935,495.2875886944105 L 160.55389861146807,527.3831207763857 L 193.16187407275703,514.6011594757646 L 180.37991277213587,547.2091349370535 L 212.47544485411106,561.2282439939622 L 180.37991277213587,575.247353050871 L 193.16187407275703,607.8553285121599 L 160.55389861146807,595.0733672115388 L 146.53478955455935,627.168899293514 L 132.51568049765064,595.0733672115388 L 99.90770503636169,607.8553285121599 L 112.68966633698284,575.247353050871 L 80.59413425500765,561.2282439939622 L 112.68966633698284,547.2091349370535 L 99.90770503636168,514.6011594757646 L 132.5156804976506,527.3831207763857 Z" fill="none" stroke="#FFD700" stroke-width="1.244480491031185" /><path d="M 293.0695791091187,495.2875886944105 L 307.08868816602745,527.3831207763857 L 339.69666362731635,514.6011594757646 L 326.91470232669525,547.2091349370535 L 359.0102344086704,561.2282439939622 L 326.91470232669525,575.247353050871 L 339.69666362731635,607.8553285121599 L 307.08868816602745,595.0733672115388 L 293.0695791091187,627.168899293514 L 279.05047005221,595.0733672115388 L 246.44249459092106,607.8553285121599 L 259.2244558915422,575.247353050871 L 227.128923809567,561.2282439939622 L 259.2244558915422,547.2091349370535 L 246.44249459092103,514.6011594757646 L 279.05047005220996,527.3831207763857 Z" fill="none" stroke="#FFD700" stroke-width="1.244480491031185" /><path d="M 439.6043686636781,495.2875886944105 L 453.62347772058683,527.3831207763857 L 486.23145318187574,514.6011594757646 L 473.44949188125463,547.2091349370535 L 505.5450239632298,561.2282439939622 L 473.44949188125463,575.247353050871 L 486.23145318187574,607.8553285121599 L 453.62347772058683,595.0733672115388 L 439.6043686636781,627.168899293514 L 425.58525960676934,595.0733672115388 L 392.97728414548044,607.8553285121599 L 405.75924544610154,575.247353050871 L 373.66371336412635,561.2282439939622 L 405.75924544610154,547.2091349370535 L 392.97728414548044,514.6011594757646 L 425.58525960676934,527.3831207763857 Z" fill="none" stroke="#FFD700" stroke-width="1.244480491031185" /><path d="M 586.1391582182374,495.2875886944105 L 600.1582672751462,527.3831207763857 L 632.7662427364351,514.6011594757646 L 619.984281435814,547.2091349370535 L 652.0798135177891,561.2282439939622 L 619.984281435814,575.247353050871 L 632.7662427364351,607.8553285121599 L 600.1582672751462,595.0733672115388 L 586.1391582182374,627.168899293514 L 572.1200491613287,595.0733672115388 L 539.5120737000398,607.8553285121599 L 552.2940350006609,575.247353050871 L 520.1985029186857,561.2282439939622 L 552.2940350006609,547.2091349370535 L 539.5120737000398,514.6011594757646 L 572.1200491613287,527.3831207763857 Z" fill="none" stroke="#FFD700" stroke-width="1.244480491031185" /><path d="M 732.6739477727967,495.2875886944105 L 746.6930568297055,527.3831207763857 L 779.3010322909944,514.6011594757646 L 766.5190709903733,547.2091349370535 L 798.6146030723485,561.2282439939622 L 766.5190709903733,575.247353050871 L 779.3010322909944,607.8553285121599 L 746.6930568297055,595.0733672115388 L 732.6739477727967,627.168899293514 L 718.654838715888,595.0733672115388 L 686.0468632545991,607.8553285121599 L 698.8288245552202,575.247353050871 L 666.733292473245,561.2282439939622 L 698.8288245552202,547.2091349370535 L 686.0468632545991,514.6011594757646 L 718.654838715888,527.3831207763857 Z" fill="none" stroke="#FFD700" stroke-width="1.244480491031185" /><path d="M 879.2087373273562,495.2875886944105 L 893.2278463842649,527.3831207763857 L 925.8358218455538,514.6011594757646 L 913.0538605449327,547.2091349370535 L 945.1493926269079,561.2282439939622 L 913.0538605449327,575.247353050871 L 925.8358218455538,607.8553285121599 L 893.2278463842649,595.0733672115388 L 879.2087373273562,627.168899293514 L 865.1896282704474,595.0733672115388 L 832.5816528091585,607.8553285121599 L 845.3636141097796,575.247353050871 L 813.2680820278044,561.2282439939622 L 845.3636141097796,547.2091349370535 L 832.5816528091585,514.6011594757646 L 865.1896282704474,527.3831207763857 Z" fill="none" stroke="#FFD700" stroke-width="1.244480491031185" /><path d="M 1025.7435268819154,495.2875886944105 L 1039.7626359388241,527.3831207763857 L 1072.3706114001131,514.6011594757646 L 1059.5886500994918,547.2091349370535 L 1091.6841821814671,561.2282439939622 L 1059.5886500994918,575.247353050871 L 1072.3706114001131,607.8553285121599 L 1039.7626359388241,595.0733672115388 L 1025.7435268819154,627.168899293514 L 1011.7244178250066,595.0733672115388 L 979.1164423637177,607.8553285121599 L 991.8984036643388,575.247353050871 L 959.8028715823637,561.2282439939622 L 991.8984036643388,547.2091349370535 L 979.1164423637177,514.6011594757646 L 1011.7244178250066,527.3831207763857 Z" fill="none" stroke="#FFD700" stroke-width="1.244480491031185" /><path d="M 1172.2783164364748,495.2875886944105 L 1186.2974254933836,527.3831207763857 L 1218.9054009546726,514.6011594757646 L 1206.1234396540513,547.2091349370535 L 1238.2189717360266,561.2282439939622 L 1206.1234396540513,575.247353050871 L 1218.9054009546726,607.8553285121599 L 1186.2974254933836,595.0733672115388 L 1172.2783164364748,627.168899293514 L 1158.259207379566,595.0733672115388 L 1125.651231918277,607.8553285121599 L 1138.4331932188984,575.247353050871 L 1106.337661136923,561.2282439939622 L 1138.4331932188984,547.2091349370535 L 1125.651231918277,514.6011594757646 L 1158.259207379566,527.3831207763857 Z" fill="none" stroke="#FFD700" stroke-width="1.244480491031185" /><path d="M 1318.8131059910343,495.2875886944105 L 1332.832215047943,527.3831207763857 L 1365.440190509232,514.6011594757646 L 1352.6582292086107,547.2091349370535 L 1384.753761290586,561.2282439939622 L 1352.6582292086107,575.247353050871 L 1365.440190509232,607.8553285121599 L 1332.832215047943,595.0733672115388 L 1318.8131059910343,627.168899293514 L 1304.7939969341255,595.0733672115388 L 1272.1860214728365,607.8553285121599 L 1284.9679827734578,575.247353050871 L 1252.8724506914825,561.2282439939622 L 1284.9679827734578,547.2091349370535 L 1272.1860214728365,514.6011594757646 L 1304.7939969341255,527.3831207763857 Z" fill="none" stroke="#FFD700" stroke-width="1.244480491031185" /><path d="M 1465.3478955455935,495.2875886944105 L 1479.3670046025022,527.3831207763857 L 1511.9749800637912,514.6011594757646 L 1499.19301876317,547.2091349370535 L 1531.2885508451452,561.2282439939622 L 1499.19301876317,575.247353050871 L 1511.9749800637912,607.8553285121599 L 1479.3670046025022,595.0733672115388 L 1465.3478955455935,627.168899293514 L 1451.3287864886847,595.0733672115388 L 1418.7208110273957,607.8553285121599 L 1431.502772328017,575.247353050871 L 1399.4072402460417,561.2282439939622 L 1431.502772328017,547.2091349370535 L 1418.7208110273957,514.6011594757646 L 1451.3287864886847,527.3831207763857 Z" fill="none" stroke="#FFD700" stroke-width="1.244480491031185" /><path d="M 1611.882685100153,495.2875886944105 L 1625.9017941570617,527.3831207763857 L 1658.5097696183507,514.6011594757646 L 1645.7278083177293,547.2091349370535 L 1677.8233403997046,561.2282439939622 L 1645.7278083177293,575.247353050871 L 1658.5097696183507,607.8553285121599 L 1625.9017941570617,595.0733672115388 L 1611.882685100153,627.168899293514 L 1597.8635760432442,595.0733672115388 L 1565.2556005819552,607.8553285121599 L 1578.0375618825765,575.247353050871 L 1545.9420298006012,561.2282439939622 L 1578.0375618825765,547.2091349370535 L 1565.2556005819552,514.6011594757646 L 1597.8635760432442,527.3831207763857 Z" fill="none" stroke="#FFD700" stroke-width="1.244480491031185" /><path d="M 1758.4174746547124,495.2875886944105 L 1772.436583711621,527.3831207763857 L 1805.04455917291,514.6011594757646 L 1792.2625978722888,547.2091349370535 L 1824.358129954264,561.2282439939622 L 1792.2625978722888,575.247353050871 L 1805.04455917291,607.8553285121599 L 1772.436583711621,595.0733672115388 L 1758.4174746547124,627.168899293514 L 1744.3983655978036,595.0733672115388 L 1711.7903901365146,607.8553285121599 L 1724.572351437136,575.247353050871 L 1692.4768193551606,561.2282439939622 L 1724.572351437136,547.2091349370535 L 1711.7903901365146,514.6011594757646 L 1744.3983655978036,527.3831207763857 Z" fill="none" stroke="#FFD700" stroke-width="1.244480491031185" /><path d="M 1904.9522642092716,495.2875886944105 L 1918.9713732661803,527.3831207763857 L 1951.5793487274693,514.6011594757646 L 1938.797387426848,547.2091349370535 L 1970.8929195088233,561.2282439939622 L 1938.797387426848,575.247353050871 L 1951.5793487274693,607.8553285121599 L 1918.9713732661803,595.0733672115388 L 1904.9522642092716,627.168899293514 L 1890.9331551523628,595.0733672115388 L 1858.3251796910738,607.8553285121599 L 1871.1071409916951,575.247353050871 L 1839.0116089097198,561.2282439939622 L 1871.1071409916951,547.2091349370535 L 1858.3251796910738,514.6011594757646 L 1890.9331551523628,527.3831207763857 Z" fill="none" stroke="#FFD700" stroke-width="1.244480491031185" /><path d="M 2051.4870537638308,495.2875886944105 L 2065.5061628207395,527.3831207763857 L 2098.1141382820283,514.6011594757646 L 2085.3321769814074,547.2091349370535 L 2117.4277090633823,561.2282439939622 L 2085.3321769814074,575.247353050871 L 2098.1141382820283,607.8553285121599 L 2065.5061628207395,595.0733672115388 L 2051.4870537638308,627.168899293514 L 2037.467944706922,595.0733672115388 L 2004.859969245633,607.8553285121599 L 2017.6419305462543,575.247353050871 L 1985.546398464279,561.2282439939622 L 2017.6419305462543,547.2091349370535 L 2004.859969245633,514.6011594757646 L 2037.467944706922,527.3831207763857 Z" fill="none" stroke="#FFD700" stroke-width="1.244480491031185" /><line x1="65.94065529955171" y1="53.63173297696872" x2="80.59413425500765" y2="53.63173297696872" stroke="#FFD700" stroke-width="0.5"/><line x1="212.47544485411106" y1="53.63173297696872" x2="227.128923809567" y2="53.63173297696872" stroke="#FFD700" stroke-width="0.5"/><line x1="359.0102344086704" y1="53.63173297696872" x2="373.66371336412635" y2="53.63173297696872" stroke="#FFD700" stroke-width="0.5"/><line x1="505.5450239632298" y1="53.63173297696872" x2="520.1985029186857" y2="53.63173297696872" stroke="#FFD700" stroke-width="0.5"/><line x1="652.0798135177891" y1="53.63173297696872" x2="666.733292473245" y2="53.63173297696872" stroke="#FFD700" stroke-width="0.5"/><line x1="798.6146030723485" y1="53.63173297696872" x2="813.2680820278044" y2="53.63173297696872" stroke="#FFD700" stroke-width="0.5"/><line x1="945.1493926269079" y1="53.63173297696872" x2="959.8028715823637" y2="53.63173297696872" stroke="#FFD700" stroke-width="0.5"/><line x1="1091.6841821814671" y1="53.63173297696872" x2="1106.337661136923" y2="53.63173297696872" stroke="#FFD700" stroke-width="0.5"/><line x1="1238.2189717360266" y1="53.63173297696872" x2="1252.8724506914825" y2="53.63173297696872" stroke="#FFD700" stroke-width="0.5"/><line x1="1384.753761290586" y1="53.63173297696872" x2="1399.4072402460417" y2="53.63173297696872" stroke="#FFD700" stroke-width="0.5"/><line x1="1531.2885508451452" y1="53.63173297696872" x2="1545.9420298006012" y2="53.63173297696872" stroke="#FFD700" stroke-width="0.5"/><line x1="1677.8233403997046" y1="53.63173297696872" x2="1692.4768193551606" y2="53.63173297696872" stroke="#FFD700" stroke-width="0.5"/><line x1="1824.358129954264" y1="53.63173297696872" x2="1839.0116089097198" y2="53.63173297696872" stroke="#FFD700" stroke-width="0.5"/><line x1="139.2080500768314" y1="180.5308607312171" x2="153.86152903228734" y2="180.5308607312171" stroke="#FFD700" stroke-width="0.5"/><line x1="285.7428396313908" y1="180.5308607312171" x2="300.39631858684675" y2="180.5308607312171" stroke="#FFD700" stroke-width="0.5"/><line x1="432.2776291859501" y1="180.5308607312171" x2="446.93110814140596" y2="180.5308607312171" stroke="#FFD700" stroke-width="0.5"/><line x1="578.8124187405094" y1="180.5308607312171" x2="593.4658976959653" y2="180.5308607312171" stroke="#FFD700" stroke-width="0.5"/><line x1="725.3472082950688" y1="180.5308607312171" x2="740.0006872505247" y2="180.5308607312171" stroke="#FFD700" stroke-width="0.5"/><line x1="871.8819978496282" y1="180.5308607312171" x2="886.5354768050839" y2="180.5308607312171" stroke="#FFD700" stroke-width="0.5"/><line x1="1018.4167874041874" y1="180.5308607312171" x2="1033.0702663596435" y2="180.5308607312171" stroke="#FFD700" stroke-width="0.5"/><line x1="1164.951576958747" y1="180.5308607312171" x2="1179.605055914203" y2="180.5308607312171" stroke="#FFD700" stroke-width="0.5"/><line x1="1311.4863665133064" y1="180.5308607312171" x2="1326.1398454687621" y2="180.5308607312171" stroke="#FFD700" stroke-width="0.5"/><line x1="1458.0211560678656" y1="180.5308607312171" x2="1472.6746350233216" y2="180.5308607312171" stroke="#FFD700" stroke-width="0.5"/><line x1="1604.555945622425" y1="180.5308607312171" x2="1619.209424577881" y2="180.5308607312171" stroke="#FFD700" stroke-width="0.5"/><line x1="1751.0907351769845" y1="180.5308607312171" x2="1765.7442141324402" y2="180.5308607312171" stroke="#FFD700" stroke-width="0.5"/><line x1="1897.6255247315437" y1="180.5308607312171" x2="1912.2790036869994" y2="180.5308607312171" stroke="#FFD700" stroke-width="0.5"/><line x1="65.94065529955171" y1="307.42998848546557" x2="80.59413425500765" y2="307.42998848546557" stroke="#FFD700" stroke-width="0.5"/><line x1="212.47544485411106" y1="307.42998848546557" x2="227.128923809567" y2="307.42998848546557" stroke="#FFD700" stroke-width="0.5"/><line x1="359.0102344086704" y1="307.42998848546557" x2="373.66371336412635" y2="307.42998848546557" stroke="#FFD700" stroke-width="0.5"/><line x1="505.5450239632298" y1="307.42998848546557" x2="520.1985029186857" y2="307.42998848546557" stroke="#FFD700" stroke-width="0.5"/><line x1="652.0798135177891" y1="307.42998848546557" x2="666.733292473245" y2="307.42998848546557" stroke="#FFD700" stroke-width="0.5"/><line x1="798.6146030723485" y1="307.42998848546557" x2="813.2680820278044" y2="307.42998848546557" stroke="#FFD700" stroke-width="0.5"/><line x1="945.1493926269079" y1="307.42998848546557" x2="959.8028715823637" y2="307.42998848546557" stroke="#FFD700" stroke-width="0.5"/><line x1="1091.6841821814671" y1="307.42998848546557" x2="1106.337661136923" y2="307.42998848546557" stroke="#FFD700" stroke-width="0.5"/><line x1="1238.2189717360266" y1="307.42998848546557" x2="1252.8724506914825" y2="307.42998848546557" stroke="#FFD700" stroke-width="0.5"/><line x1="1384.753761290586" y1="307.42998848546557" x2="1399.4072402460417" y2="307.42998848546557" stroke="#FFD700" stroke-width="0.5"/><line x1="1531.2885508451452" y1="307.42998848546557" x2="1545.9420298006012" y2="307.42998848546557" stroke="#FFD700" stroke-width="0.5"/><line x1="1677.8233403997046" y1="307.42998848546557" x2="1692.4768193551606" y2="307.42998848546557" stroke="#FFD700" stroke-width="0.5"/><line x1="1824.358129954264" y1="307.42998848546557" x2="1839.0116089097198" y2="307.42998848546557" stroke="#FFD700" stroke-width="0.5"/><line x1="139.2080500768314" y1="434.3291162397139" x2="153.86152903228734" y2="434.3291162397139" stroke="#FFD700" stroke-width="0.5"/><line x1="285.7428396313908" y1="434.3291162397139" x2="300.39631858684675" y2="434.3291162397139" stroke="#FFD700" stroke-width="0.5"/><line x1="432.2776291859501" y1="434.3291162397139" x2="446.93110814140596" y2="434.3291162397139" stroke="#FFD700" stroke-width="0.5"/><line x1="578.8124187405094" y1="434.3291162397139" x2="593.4658976959653" y2="434.3291162397139" stroke="#FFD700" stroke-width="0.5"/><line x1="725.3472082950688" y1="434.3291162397139" x2="740.0006872505247" y2="434.3291162397139" stroke="#FFD700" stroke-width="0.5"/><line x1="871.8819978496282" y1="434.3291162397139" x2="886.5354768050839" y2="434.3291162397139" stroke="#FFD700" stroke-width="0.5"/><line x1="1018.4167874041874" y1="434.3291162397139" x2="1033.0702663596435" y2="434.3291162397139" stroke="#FFD700" stroke-width="0.5"/><line x1="1164.951576958747" y1="434.3291162397139" x2="1179.605055914203" y2="434.3291162397139" stroke="#FFD700" stroke-width="0.5"/><line x1="1311.4863665133064" y1="434.3291162397139" x2="1326.1398454687621" y2="434.3291162397139" stroke="#FFD700" stroke-width="0.5"/><line x1="1458.0211560678656" y1="434.3291162397139" x2="1472.6746350233216" y2="434.3291162397139" stroke="#FFD700" stroke-width="0.5"/><line x1="1604.555945622425" y1="434.3291162397139" x2="1619.209424577881" y2="434.3291162397139" stroke="#FFD700" stroke-width="0.5"/><line x1="1751.0907351769845" y1="434.3291162397139" x2="1765.7442141324402" y2="434.3291162397139" stroke="#FFD700" stroke-width="0.5"/><line x1="1897.6255247315437" y1="434.3291162397139" x2="1912.2790036869994" y2="434.3291162397139" stroke="#FFD700" stroke-width="0.5"/></g><g opacity="0.07588799597038329"><path d="M 308.00045027770125 447.51209756709267 L 368.05397841283195 447.51209756709267 L 368.05397841283195 416.1864590707158" fill="none" stroke="#FFFFFF" stroke-width="0.6123175621555734" stroke-linecap="square"/><path d="M 343.5811616590159 322.24761501059294 L 343.5811616590159 386.697575262314 L 404.875900880064 386.697575262314 L 404.875900880064 435.40142179238796" fill="none" stroke="#FFFFFF" stroke-width="0.6123175621555734" stroke-linecap="square"/><path d="M 386.17218035560666 84.718108216635 L 386.17218035560666 143.5851098980421 L 349.10007451720935 143.5851098980421 L 349.10007451720935 184.59081531609755" fill="none" stroke="#FFFFFF" stroke-width="0.6123175621555734" stroke-linecap="square"/><path d="M 1618.124085226154 79.31373599884739 L 1618.124085226154 37.40410116586747 L 1663.8243857447676 37.40410116586747 L 1663.8243857447676 0" fill="none" stroke="#FFFFFF" stroke-width="0.6123175621555734" stroke-linecap="square"/><path d="M 878.2141689575343 202.09321985118706 L 878.2141689575343 161.4607886912637 L 913.4241951682122 161.4607886912637 L 913.4241951682122 201.72840220131266" fill="none" stroke="#FFFFFF" stroke-width="0.6123175621555734" stroke-linecap="square"/><path d="M 99.48326115472395 453.86107942734895 L 99.48326115472395 386.0047438133079 L 130.12814866360435 386.0047438133079 L 130.12814866360435 330.7205227728377" fill="none" stroke="#FFFFFF" stroke-width="0.6123175621555734" stroke-linecap="square"/><path d="M 291.68655409090525 242.73870002605892 L 291.68655409090525 298.2116071956735 L 237.75297078230588 298.2116071956735" fill="none" stroke="#FFFFFF" stroke-width="0.6123175621555734" stroke-linecap="square"/><path d="M 474.0644075693863 35.27933122370361 L 444.0054862649186 35.27933122370361 L 444.0054862649186 0 L 412.9332638902402 0" fill="none" stroke="#FFFFFF" stroke-width="0.6123175621555734" stroke-linecap="square"/><path d="M 357.2602845901904 333.68535534184673 L 357.2602845901904 379.23854984842353 L 316.8660156190608 379.23854984842353" fill="none" stroke="#FFFFFF" stroke-width="0.6123175621555734" stroke-linecap="square"/><path d="M 19.96925354933797 8.17858994387956 L 19.96925354933797 60.30952179972504 L 83.35179235071804 60.30952179972504 L 83.35179235071804 109.68414927024023" fill="none" stroke="#FFFFFF" stroke-width="0.6123175621555734" stroke-linecap="square"/><path d="M 239.45800792400632 459.60847399179283 L 239.45800792400632 419.5690813142653 L 305.85474418999576 419.5690813142653" fill="none" stroke="#FFFFFF" stroke-width="0.6123175621555734" stroke-linecap="square"/><line x1="326.2534505456003" y1="53.77132418275407" x2="394.622560684859" y2="53.77132418275407" stroke="#FFFFFF" stroke-width="0.5" stroke-dasharray="5,10"/><circle cx="368.05397841283195" cy="416.1864590707158" r="5.06818246984304" fill="#FFFFFF"/><circle cx="308.00045027770125" cy="447.51209756709267" r="4.054545975874432" fill="#FFFFFF"/><circle cx="404.875900880064" cy="435.40142179238796" r="5.06818246984304" fill="#FFFFFF"/><circle cx="343.5811616590159" cy="322.24761501059294" r="4.054545975874432" fill="#FFFFFF"/><rect x="381.1039978857636" y="138.51692742819907" width="10.13636493968608" height="10.13636493968608" fill="#FFFFFF"/><rect x="344.0318920473663" y="138.51692742819907" width="10.13636493968608" height="10.13636493968608" fill="#FFFFFF"/><rect x="1613.0559027563108" y="32.335918696024436" width="10.13636493968608" height="10.13636493968608" fill="#FFFFFF"/><circle cx="130.12814866360435" cy="330.7205227728377" r="5.06818246984304" fill="#FFFFFF"/><circle cx="99.48326115472395" cy="453.86107942734895" r="4.054545975874432" fill="#FFFFFF"/><circle cx="412.9332638902402" cy="0" r="5.06818246984304" fill="#FFFFFF"/><circle cx="474.0644075693863" cy="35.27933122370361" r="4.054545975874432" fill="#FFFFFF"/><rect x="438.93730379507554" y="30.211148753860567" width="10.13636493968608" height="10.13636493968608" fill="#FFFFFF"/><rect x="438.93730379507554" y="-5.06818246984304" width="10.13636493968608" height="10.13636493968608" fill="#FFFFFF"/><circle cx="316.8660156190608" cy="379.23854984842353" r="5.06818246984304" fill="#FFFFFF"/><rect x="1527.9463809538984" y="465.2978552210269" width="8.936302934902942" height="8.936302934902942" fill="#FFFFFF"/><rect x="375.8302500526383" y="14.439742663130861" width="6.116089641206236" height="6.116089641206236" fill="#FFFFFF"/><circle cx="950.7333759920361" cy="22.248001108992845" r="3.5338031852926206" fill="#FFFFFF"/></g><g opacity="0.3"><rect x="30" y="30" width="1860" height="420" fill="none" stroke="#8B7355" stroke-width="1" rx="0"/></g><g opacity="0.506286889317579"><line x1="60" y1="240" x2="140" y2="240" stroke="#FFC125" stroke-width="1" opacity="0.5"/><line x1="1780" y1="240" x2="1860" y2="240" stroke="#FFC125" stroke-width="1" opacity="0.5"/><path d="M 30 70 L 30 30 L 70 30" fill="none" stroke="#FFC125" stroke-width="2" stroke-linecap="square"/><path d="M 1850 30 L 1890 30 L 1890 70" fill="none" stroke="#FFC125" stroke-width="2" stroke-linecap="square"/><path d="M 30 410 L 30 450 L 70 450" fill="none" stroke="#FFC125" stroke-width="2" stroke-linecap="square"/><path d="M 1850 450 L 1890 450 L 1890 410" fill="none" stroke="#FFC125" stroke-width="2" stroke-linecap="square"/></g></svg>