<svg xmlns="http://www.w3.org/2000/svg" width="1920" height="480" viewBox="0 0 1920 480"><rect x="0" y="0" width="1920" height="480" fill="#000000"/><g opacity="0.11189428365877563"><path d="M -85.43693388963923,-162.33017439031454 L -69.08928433382103,-124.90365116021803 L -31.065202104203635,-139.80866567507482 L -45.97021661906043,-101.78458344545743 L -8.543693388963916,-85.43693388963923 L -45.97021661906043,-69.08928433382104 L -31.065202104203635,-31.065202104203642 L -69.08928433382103,-45.97021661906043 L -85.43693388963923,-8.543693388963916 L -101.78458344545743,-45.97021661906043 L -139.80866567507482,-31.065202104203635 L -124.90365116021803,-69.08928433382101 L -162.33017439031454,-85.43693388963922 L -124.90365116021803,-101.78458344545746 L -139.80866567507485,-139.80866567507482 L -101.78458344545746,-124.90365116021803 Z" fill="none" stroke="#FFFFFF" stroke-width="1.6599528794921716" /><path d="M 85.43693388963923,-162.33017439031454 L 101.78458344545744,-124.90365116021803 L 139.80866567507485,-139.80866567507482 L 124.90365116021803,-101.78458344545743 L 162.33017439031454,-85.43693388963923 L 124.90365116021803,-69.08928433382104 L 139.80866567507485,-31.065202104203642 L 101.78458344545744,-45.97021661906043 L 85.43693388963923,-8.543693388963916 L 69.08928433382104,-45.97021661906043 L 31.065202104203642,-31.065202104203635 L 45.97021661906044,-69.08928433382101 L 8.543693388963916,-85.43693388963922 L 45.97021661906044,-101.78458344545746 L 31.065202104203628,-139.80866567507482 L 69.08928433382101,-124.90365116021803 Z" fill="none" stroke="#FFFFFF" stroke-width="1.6599528794921716" /><path d="M 256.3108016689177,-162.33017439031454 L 272.65845122473587,-124.90365116021803 L 310.6825334543533,-139.80866567507482 L 295.7775189394965,-101.78458344545743 L 333.204042169593,-85.43693388963923 L 295.7775189394965,-69.08928433382104 L 310.6825334543533,-31.065202104203642 L 272.65845122473587,-45.97021661906043 L 256.3108016689177,-8.543693388963916 L 239.96315211309948,-45.97021661906043 L 201.9390698834821,-31.065202104203635 L 216.8440843983389,-69.08928433382101 L 179.41756116824237,-85.43693388963922 L 216.8440843983389,-101.78458344545746 L 201.9390698834821,-139.80866567507482 L 239.96315211309945,-124.90365116021803 Z" fill="none" stroke="#FFFFFF" stroke-width="1.6599528794921716" /><path d="M 427.18466944819613,-162.33017439031454 L 443.5323190040143,-124.90365116021803 L 481.55640123363173,-139.80866567507482 L 466.6513867187749,-101.78458344545743 L 504.0779099488715,-85.43693388963923 L 466.6513867187749,-69.08928433382104 L 481.55640123363173,-31.065202104203642 L 443.5323190040143,-45.97021661906043 L 427.18466944819613,-8.543693388963916 L 410.83701989237795,-45.97021661906043 L 372.81293766276053,-31.065202104203635 L 387.71795217761735,-69.08928433382101 L 350.2914289475208,-85.43693388963922 L 387.71795217761735,-101.78458344545746 L 372.81293766276053,-139.80866567507482 L 410.8370198923779,-124.90365116021803 Z" fill="none" stroke="#FFFFFF" stroke-width="1.6599528794921716" /><path d="M 598.0585372274746,-162.33017439031454 L 614.4061867832928,-124.90365116021803 L 652.4302690129102,-139.80866567507482 L 637.5252544980534,-101.78458344545743 L 674.95177772815,-85.43693388963923 L 637.5252544980534,-69.08928433382104 L 652.4302690129102,-31.065202104203642 L 614.4061867832928,-45.97021661906043 L 598.0585372274746,-8.543693388963916 L 581.7108876716565,-45.97021661906043 L 543.686805442039,-31.065202104203635 L 558.5918199568958,-69.08928433382101 L 521.1652967267993,-85.43693388963922 L 558.5918199568958,-101.78458344545746 L 543.686805442039,-139.80866567507482 L 581.7108876716565,-124.90365116021803 Z" fill="none" stroke="#FFFFFF" stroke-width="1.6599528794921716" /><path d="M 768.9324050067531,-162.33017439031454 L 785.2800545625713,-124.90365116021803 L 823.3041367921887,-139.80866567507482 L 808.3991222773319,-101.78458344545743 L 845.8256455074285,-85.43693388963923 L 808.3991222773319,-69.08928433382104 L 823.3041367921887,-31.065202104203642 L 785.2800545625713,-45.97021661906043 L 768.9324050067531,-8.543693388963916 L 752.584755450935,-45.97021661906043 L 714.5606732213175,-31.065202104203635 L 729.4656877361743,-69.08928433382101 L 692.0391645060778,-85.43693388963922 L 729.4656877361743,-101.78458344545746 L 714.5606732213175,-139.80866567507482 L 752.584755450935,-124.90365116021803 Z" fill="none" stroke="#FFFFFF" stroke-width="1.6599528794921716" /><path d="M 939.8062727860315,-162.33017439031454 L 956.1539223418497,-124.90365116021803 L 994.1780045714671,-139.80866567507482 L 979.2729900566103,-101.78458344545743 L 1016.6995132867069,-85.43693388963923 L 979.2729900566103,-69.08928433382104 L 994.1780045714671,-31.065202104203642 L 956.1539223418497,-45.97021661906043 L 939.8062727860315,-8.543693388963916 L 923.4586232302133,-45.97021661906043 L 885.4345410005959,-31.065202104203635 L 900.3395555154527,-69.08928433382101 L 862.9130322853562,-85.43693388963922 L 900.3395555154527,-101.78458344545746 L 885.4345410005959,-139.80866567507482 L 923.4586232302133,-124.90365116021803 Z" fill="none" stroke="#FFFFFF" stroke-width="1.6599528794921716" /><path d="M 1110.68014056531,-162.33017439031454 L 1127.0277901211282,-124.90365116021803 L 1165.0518723507457,-139.80866567507482 L 1150.1468578358888,-101.78458344545743 L 1187.5733810659854,-85.43693388963923 L 1150.1468578358888,-69.08928433382104 L 1165.0518723507457,-31.065202104203642 L 1127.0277901211282,-45.97021661906043 L 1110.68014056531,-8.543693388963916 L 1094.3324910094918,-45.97021661906043 L 1056.3084087798745,-31.065202104203635 L 1071.2134232947312,-69.08928433382101 L 1033.7869000646347,-85.43693388963922 L 1071.2134232947312,-101.78458344545746 L 1056.3084087798743,-139.80866567507482 L 1094.3324910094918,-124.90365116021803 Z" fill="none" stroke="#FFFFFF" stroke-width="1.6599528794921716" /><path d="M 1281.5540083445885,-162.33017439031454 L 1297.9016579004067,-124.90365116021803 L 1335.9257401300242,-139.80866567507482 L 1321.0207256151673,-101.78458344545743 L 1358.4472488452639,-85.43693388963923 L 1321.0207256151673,-69.08928433382104 L 1335.9257401300242,-31.065202104203642 L 1297.9016579004067,-45.97021661906043 L 1281.5540083445885,-8.543693388963916 L 1265.2063587887703,-45.97021661906043 L 1227.182276559153,-31.065202104203635 L 1242.0872910740097,-69.08928433382101 L 1204.6607678439132,-85.43693388963922 L 1242.0872910740097,-101.78458344545746 L 1227.1822765591528,-139.80866567507482 L 1265.2063587887703,-124.90365116021803 Z" fill="none" stroke="#FFFFFF" stroke-width="1.6599528794921716" /><path d="M 1452.427876123867,-162.33017439031454 L 1468.7755256796852,-124.90365116021803 L 1506.7996079093027,-139.80866567507482 L 1491.8945933944458,-101.78458344545743 L 1529.3211166245424,-85.43693388963923 L 1491.8945933944458,-69.08928433382104 L 1506.7996079093027,-31.065202104203642 L 1468.7755256796852,-45.97021661906043 L 1452.427876123867,-8.543693388963916 L 1436.0802265680488,-45.97021661906043 L 1398.0561443384315,-31.065202104203635 L 1412.9611588532882,-69.08928433382101 L 1375.5346356231917,-85.43693388963922 L 1412.9611588532882,-101.78458344545746 L 1398.0561443384313,-139.80866567507482 L 1436.0802265680488,-124.90365116021803 Z" fill="none" stroke="#FFFFFF" stroke-width="1.6599528794921716" /><path d="M 1623.3017439031455,-162.33017439031454 L 1639.6493934589637,-124.90365116021803 L 1677.6734756885812,-139.80866567507482 L 1662.7684611737243,-101.78458344545743 L 1700.1949844038209,-85.43693388963923 L 1662.7684611737243,-69.08928433382104 L 1677.6734756885812,-31.065202104203642 L 1639.6493934589637,-45.97021661906043 L 1623.3017439031455,-8.543693388963916 L 1606.9540943473273,-45.97021661906043 L 1568.93001211771,-31.065202104203635 L 1583.8350266325667,-69.08928433382101 L 1546.4085034024702,-85.43693388963922 L 1583.8350266325667,-101.78458344545746 L 1568.9300121177098,-139.80866567507482 L 1606.9540943473273,-124.90365116021803 Z" fill="none" stroke="#FFFFFF" stroke-width="1.6599528794921716" /><path d="M 1794.175611682424,-162.33017439031454 L 1810.5232612382422,-124.90365116021803 L 1848.5473434678597,-139.80866567507482 L 1833.6423289530028,-101.78458344545743 L 1871.0688521830994,-85.43693388963923 L 1833.6423289530028,-69.08928433382104 L 1848.5473434678597,-31.065202104203642 L 1810.5232612382422,-45.97021661906043 L 1794.175611682424,-8.543693388963916 L 1777.8279621266058,-45.97021661906043 L 1739.8038798969885,-31.065202104203635 L 1754.7088944118452,-69.08928433382101 L 1717.2823711817487,-85.43693388963922 L 1754.7088944118452,-101.78458344545746 L 1739.8038798969883,-139.80866567507482 L 1777.8279621266058,-124.90365116021803 Z" fill="none" stroke="#FFFFFF" stroke-width="1.6599528794921716" /><path d="M 1965.0494794617023,-162.33017439031454 L 1981.3971290175205,-124.90365116021803 L 2019.4212112471378,-139.80866567507482 L 2004.516196732281,-101.78458344545743 L 2041.9427199623776,-85.43693388963923 L 2004.516196732281,-69.08928433382104 L 2019.4212112471378,-31.065202104203642 L 1981.3971290175205,-45.97021661906043 L 1965.0494794617023,-8.543693388963916 L 1948.701829905884,-45.97021661906043 L 1910.6777476762668,-31.065202104203635 L 1925.5827621911235,-69.08928433382101 L 1888.156238961027,-85.43693388963922 L 1925.5827621911235,-101.78458344545746 L 1910.6777476762666,-139.80866567507482 L 1948.701829905884,-124.90365116021803 Z" fill="none" stroke="#FFFFFF" stroke-width="1.6599528794921716" /><path d="M 4.708353042760983e-15,-14.353404893459398 L 16.347649555818204,23.073118336637116 L 54.3717317854356,8.168103821780328 L 39.466717270578805,46.19218605139772 L 76.89324050067532,62.53983560721592 L 39.466717270578805,78.88748516303411 L 54.3717317854356,116.9115673926515 L 16.347649555818204,102.00655287779472 L 4.708353042760983e-15,139.43307610789122 L -16.3476495558182,102.00655287779472 L -54.37173178543559,116.91156739265152 L -39.4667172705788,78.88748516303414 L -76.89324050067532,62.53983560721593 L -39.4667172705788,46.192186051397705 L -54.37173178543561,8.168103821780328 L -16.347649555818226,23.073118336637123 Z" fill="none" stroke="#FFFFFF" stroke-width="1.6599528794921716" /><path d="M 170.87386777927847,-14.353404893459398 L 187.22151733509668,23.073118336637116 L 225.24559956471407,8.168103821780328 L 210.34058504985728,46.19218605139772 L 247.7671082799538,62.53983560721592 L 210.34058504985728,78.88748516303411 L 225.24559956471407,116.9115673926515 L 187.22151733509668,102.00655287779472 L 170.87386777927847,139.43307610789122 L 154.52621822346026,102.00655287779472 L 116.50213599384287,116.91156739265152 L 131.40715050869966,78.88748516303414 L 93.98062727860315,62.53983560721593 L 131.40715050869966,46.192186051397705 L 116.50213599384287,8.168103821780328 L 154.52621822346023,23.073118336637123 Z" fill="none" stroke="#FFFFFF" stroke-width="1.6599528794921716" /><path d="M 341.74773555855694,-14.353404893459398 L 358.0953851143751,23.073118336637116 L 396.11946734399254,8.168103821780328 L 381.2144528291357,46.19218605139772 L 418.64097605923223,62.53983560721592 L 381.2144528291357,78.88748516303411 L 396.11946734399254,116.9115673926515 L 358.0953851143751,102.00655287779472 L 341.74773555855694,139.43307610789122 L 325.40008600273876,102.00655287779472 L 287.37600377312134,116.91156739265152 L 302.28101828797816,78.88748516303414 L 264.85449505788165,62.53983560721593 L 302.28101828797816,46.192186051397705 L 287.37600377312134,8.168103821780328 L 325.4000860027387,23.073118336637123 Z" fill="none" stroke="#FFFFFF" stroke-width="1.6599528794921716" /><path d="M 512.6216033378354,-14.353404893459398 L 528.9692528936536,23.073118336637116 L 566.993335123271,8.168103821780328 L 552.0883206084142,46.19218605139772 L 589.5148438385107,62.53983560721592 L 552.0883206084142,78.88748516303411 L 566.993335123271,116.9115673926515 L 528.9692528936536,102.00655287779472 L 512.6216033378354,139.43307610789122 L 496.2739537820172,102.00655287779472 L 458.2498715523998,116.91156739265152 L 473.1548860672566,78.88748516303414 L 435.72836283716003,62.53983560721593 L 473.1548860672566,46.192186051397705 L 458.2498715523998,8.168103821780328 L 496.27395378201714,23.073118336637123 Z" fill="none" stroke="#FFFFFF" stroke-width="1.6599528794921716" /><path d="M 683.4954711171139,-14.353404893459398 L 699.8431206729321,23.073118336637116 L 737.8672029025495,8.168103821780328 L 722.9621883876927,46.19218605139772 L 760.3887116177892,62.53983560721592 L 722.9621883876927,78.88748516303411 L 737.8672029025495,116.9115673926515 L 699.8431206729321,102.00655287779472 L 683.4954711171139,139.43307610789122 L 667.1478215612957,102.00655287779472 L 629.1237393316783,116.91156739265152 L 644.0287538465351,78.88748516303414 L 606.6022306164385,62.53983560721593 L 644.0287538465351,46.192186051397705 L 629.1237393316783,8.168103821780328 L 667.1478215612957,23.073118336637123 Z" fill="none" stroke="#FFFFFF" stroke-width="1.6599528794921716" /><path d="M 854.3693388963924,-14.353404893459398 L 870.7169884522106,23.073118336637116 L 908.741070681828,8.168103821780328 L 893.8360561669712,46.19218605139772 L 931.2625793970677,62.53983560721592 L 893.8360561669712,78.88748516303411 L 908.741070681828,116.9115673926515 L 870.7169884522106,102.00655287779472 L 854.3693388963924,139.43307610789122 L 838.0216893405742,102.00655287779472 L 799.9976071109568,116.91156739265152 L 814.9026216258136,78.88748516303414 L 777.476098395717,62.53983560721593 L 814.9026216258136,46.192186051397705 L 799.9976071109568,8.168103821780328 L 838.0216893405742,23.073118336637123 Z" fill="none" stroke="#FFFFFF" stroke-width="1.6599528794921716" /><path d="M 1025.2432066756708,-14.353404893459398 L 1041.590856231489,23.073118336637116 L 1079.6149384611062,8.168103821780328 L 1064.7099239462495,46.19218605139772 L 1102.136447176346,62.53983560721592 L 1064.7099239462495,78.88748516303411 L 1079.6149384611062,116.9115673926515 L 1041.590856231489,102.00655287779472 L 1025.2432066756708,139.43307610789122 L 1008.8955571198526,102.00655287779472 L 970.8714748902352,116.91156739265152 L 985.776489405092,78.88748516303414 L 948.3499661749954,62.53983560721593 L 985.776489405092,46.192186051397705 L 970.8714748902352,8.168103821780328 L 1008.8955571198526,23.073118336637123 Z" fill="none" stroke="#FFFFFF" stroke-width="1.6599528794921716" /><path d="M 1196.1170744549493,-14.353404893459398 L 1212.4647240107674,23.073118336637116 L 1250.4888062403847,8.168103821780328 L 1235.583791725528,46.19218605139772 L 1273.0103149556246,62.53983560721592 L 1235.583791725528,78.88748516303411 L 1250.4888062403847,116.9115673926515 L 1212.4647240107674,102.00655287779472 L 1196.1170744549493,139.43307610789122 L 1179.769424899131,102.00655287779472 L 1141.7453426695138,116.91156739265152 L 1156.6503571843705,78.88748516303414 L 1119.223833954274,62.53983560721593 L 1156.6503571843705,46.192186051397705 L 1141.7453426695135,8.168103821780328 L 1179.769424899131,23.073118336637123 Z" fill="none" stroke="#FFFFFF" stroke-width="1.6599528794921716" /><path d="M 1366.9909422342278,-14.353404893459398 L 1383.338591790046,23.073118336637116 L 1421.3626740196632,8.168103821780328 L 1406.4576595048065,46.19218605139772 L 1443.884182734903,62.53983560721592 L 1406.4576595048065,78.88748516303411 L 1421.3626740196632,116.9115673926515 L 1383.338591790046,102.00655287779472 L 1366.9909422342278,139.43307610789122 L 1350.6432926784096,102.00655287779472 L 1312.6192104487923,116.91156739265152 L 1327.524224963649,78.88748516303414 L 1290.0977017335524,62.53983560721593 L 1327.524224963649,46.192186051397705 L 1312.619210448792,8.168103821780328 L 1350.6432926784096,23.073118336637123 Z" fill="none" stroke="#FFFFFF" stroke-width="1.6599528794921716" /><path d="M 1537.8648100135063,-14.353404893459398 L 1554.2124595693244,23.073118336637116 L 1592.2365417989417,8.168103821780328 L 1577.331527284085,46.19218605139772 L 1614.7580505141816,62.53983560721592 L 1577.331527284085,78.88748516303411 L 1592.2365417989417,116.9115673926515 L 1554.2124595693244,102.00655287779472 L 1537.8648100135063,139.43307610789122 L 1521.517160457688,102.00655287779472 L 1483.4930782280708,116.91156739265152 L 1498.3980927429275,78.88748516303414 L 1460.971569512831,62.53983560721593 L 1498.3980927429275,46.192186051397705 L 1483.4930782280705,8.168103821780328 L 1521.517160457688,23.073118336637123 Z" fill="none" stroke="#FFFFFF" stroke-width="1.6599528794921716" /><path d="M 1708.7386777927848,-14.353404893459398 L 1725.086327348603,23.073118336637116 L 1763.1104095782202,8.168103821780328 L 1748.2053950633635,46.19218605139772 L 1785.63191829346,62.53983560721592 L 1748.2053950633635,78.88748516303411 L 1763.1104095782202,116.9115673926515 L 1725.086327348603,102.00655287779472 L 1708.7386777927848,139.43307610789122 L 1692.3910282369666,102.00655287779472 L 1654.3669460073493,116.91156739265152 L 1669.271960522206,78.88748516303414 L 1631.8454372921094,62.53983560721593 L 1669.271960522206,46.192186051397705 L 1654.366946007349,8.168103821780328 L 1692.3910282369666,23.073118336637123 Z" fill="none" stroke="#FFFFFF" stroke-width="1.6599528794921716" /><path d="M 1879.6125455720633,-14.353404893459398 L 1895.9601951278814,23.073118336637116 L 1933.9842773574987,8.168103821780328 L 1919.079262842642,46.19218605139772 L 1956.5057860727386,62.53983560721592 L 1919.079262842642,78.88748516303411 L 1933.9842773574987,116.9115673926515 L 1895.9601951278814,102.00655287779472 L 1879.6125455720633,139.43307610789122 L 1863.264896016245,102.00655287779472 L 1825.2408137866278,116.91156739265152 L 1840.1458283014845,78.88748516303414 L 1802.719305071388,62.53983560721593 L 1840.1458283014845,46.192186051397705 L 1825.2408137866275,8.168103821780328 L 1863.264896016245,23.073118336637123 Z" fill="none" stroke="#FFFFFF" stroke-width="1.6599528794921716" /><path d="M 2050.4864133513415,-14.353404893459398 L 2066.83406290716,23.073118336637116 L 2104.8581451367772,8.168103821780328 L 2089.9531306219205,46.19218605139772 L 2127.379653852017,62.53983560721592 L 2089.9531306219205,78.88748516303411 L 2104.8581451367772,116.9115673926515 L 2066.83406290716,102.00655287779472 L 2050.4864133513415,139.43307610789122 L 2034.1387637955233,102.00655287779472 L 1996.114681565906,116.91156739265152 L 2011.0196960807627,78.88748516303414 L 1973.5931728506662,62.53983560721593 L 2011.0196960807627,46.192186051397705 L 1996.1146815659058,8.168103821780328 L 2034.1387637955233,23.073118336637123 Z" fill="none" stroke="#FFFFFF" stroke-width="1.6599528794921716" /><path d="M -85.43693388963923,133.62336460339574 L -69.08928433382103,171.04988783349225 L -31.065202104203635,156.14487331863546 L -45.97021661906043,194.16895554825285 L -8.543693388963916,210.51660510407106 L -45.97021661906043,226.86425465988927 L -31.065202104203635,264.88833688950666 L -69.08928433382103,249.98332237464987 L -85.43693388963923,287.40984560474635 L -101.78458344545743,249.98332237464987 L -139.80866567507482,264.88833688950666 L -124.90365116021803,226.8642546598893 L -162.33017439031454,210.51660510407106 L -124.90365116021803,194.16895554825285 L -139.80866567507485,156.14487331863546 L -101.78458344545746,171.04988783349228 Z" fill="none" stroke="#FFFFFF" stroke-width="1.6599528794921716" /><path d="M 85.43693388963923,133.62336460339574 L 101.78458344545744,171.04988783349225 L 139.80866567507485,156.14487331863546 L 124.90365116021803,194.16895554825285 L 162.33017439031454,210.51660510407106 L 124.90365116021803,226.86425465988927 L 139.80866567507485,264.88833688950666 L 101.78458344545744,249.98332237464987 L 85.43693388963923,287.40984560474635 L 69.08928433382104,249.98332237464987 L 31.065202104203642,264.88833688950666 L 45.97021661906044,226.8642546598893 L 8.543693388963916,210.51660510407106 L 45.97021661906044,194.16895554825285 L 31.065202104203628,156.14487331863546 L 69.08928433382101,171.04988783349228 Z" fill="none" stroke="#FFFFFF" stroke-width="1.6599528794921716" /><path d="M 256.3108016689177,133.62336460339574 L 272.65845122473587,171.04988783349225 L 310.6825334543533,156.14487331863546 L 295.7775189394965,194.16895554825285 L 333.204042169593,210.51660510407106 L 295.7775189394965,226.86425465988927 L 310.6825334543533,264.88833688950666 L 272.65845122473587,249.98332237464987 L 256.3108016689177,287.40984560474635 L 239.96315211309948,249.98332237464987 L 201.9390698834821,264.88833688950666 L 216.8440843983389,226.8642546598893 L 179.41756116824237,210.51660510407106 L 216.8440843983389,194.16895554825285 L 201.9390698834821,156.14487331863546 L 239.96315211309945,171.04988783349228 Z" fill="none" stroke="#FFFFFF" stroke-width="1.6599528794921716" /><path d="M 427.18466944819613,133.62336460339574 L 443.5323190040143,171.04988783349225 L 481.55640123363173,156.14487331863546 L 466.6513867187749,194.16895554825285 L 504.0779099488715,210.51660510407106 L 466.6513867187749,226.86425465988927 L 481.55640123363173,264.88833688950666 L 443.5323190040143,249.98332237464987 L 427.18466944819613,287.40984560474635 L 410.83701989237795,249.98332237464987 L 372.81293766276053,264.88833688950666 L 387.71795217761735,226.8642546598893 L 350.2914289475208,210.51660510407106 L 387.71795217761735,194.16895554825285 L 372.81293766276053,156.14487331863546 L 410.8370198923779,171.04988783349228 Z" fill="none" stroke="#FFFFFF" stroke-width="1.6599528794921716" /><path d="M 598.0585372274746,133.62336460339574 L 614.4061867832928,171.04988783349225 L 652.4302690129102,156.14487331863546 L 637.5252544980534,194.16895554825285 L 674.95177772815,210.51660510407106 L 637.5252544980534,226.86425465988927 L 652.4302690129102,264.88833688950666 L 614.4061867832928,249.98332237464987 L 598.0585372274746,287.40984560474635 L 581.7108876716565,249.98332237464987 L 543.686805442039,264.88833688950666 L 558.5918199568958,226.8642546598893 L 521.1652967267993,210.51660510407106 L 558.5918199568958,194.16895554825285 L 543.686805442039,156.14487331863546 L 581.7108876716565,171.04988783349228 Z" fill="none" stroke="#FFFFFF" stroke-width="1.6599528794921716" /><path d="M 768.9324050067531,133.62336460339574 L 785.2800545625713,171.04988783349225 L 823.3041367921887,156.14487331863546 L 808.3991222773319,194.16895554825285 L 845.8256455074285,210.51660510407106 L 808.3991222773319,226.86425465988927 L 823.3041367921887,264.88833688950666 L 785.2800545625713,249.98332237464987 L 768.9324050067531,287.40984560474635 L 752.584755450935,249.98332237464987 L 714.5606732213175,264.88833688950666 L 729.4656877361743,226.8642546598893 L 692.0391645060778,210.51660510407106 L 729.4656877361743,194.16895554825285 L 714.5606732213175,156.14487331863546 L 752.584755450935,171.04988783349228 Z" fill="none" stroke="#FFFFFF" stroke-width="1.6599528794921716" /><path d="M 939.8062727860315,133.62336460339574 L 956.1539223418497,171.04988783349225 L 994.1780045714671,156.14487331863546 L 979.2729900566103,194.16895554825285 L 1016.6995132867069,210.51660510407106 L 979.2729900566103,226.86425465988927 L 994.1780045714671,264.88833688950666 L 956.1539223418497,249.98332237464987 L 939.8062727860315,287.40984560474635 L 923.4586232302133,249.98332237464987 L 885.4345410005959,264.88833688950666 L 900.3395555154527,226.8642546598893 L 862.9130322853562,210.51660510407106 L 900.3395555154527,194.16895554825285 L 885.4345410005959,156.14487331863546 L 923.4586232302133,171.04988783349228 Z" fill="none" stroke="#FFFFFF" stroke-width="1.6599528794921716" /><path d="M 1110.68014056531,133.62336460339574 L 1127.0277901211282,171.04988783349225 L 1165.0518723507457,156.14487331863546 L 1150.1468578358888,194.16895554825285 L 1187.5733810659854,210.51660510407106 L 1150.1468578358888,226.86425465988927 L 1165.0518723507457,264.88833688950666 L 1127.0277901211282,249.98332237464987 L 1110.68014056531,287.40984560474635 L 1094.3324910094918,249.98332237464987 L 1056.3084087798745,264.88833688950666 L 1071.2134232947312,226.8642546598893 L 1033.7869000646347,210.51660510407106 L 1071.2134232947312,194.16895554825285 L 1056.3084087798743,156.14487331863546 L 1094.3324910094918,171.04988783349228 Z" fill="none" stroke="#FFFFFF" stroke-width="1.6599528794921716" /><path d="M 1281.5540083445885,133.62336460339574 L 1297.9016579004067,171.04988783349225 L 1335.9257401300242,156.14487331863546 L 1321.0207256151673,194.16895554825285 L 1358.4472488452639,210.51660510407106 L 1321.0207256151673,226.86425465988927 L 1335.9257401300242,264.88833688950666 L 1297.9016579004067,249.98332237464987 L 1281.5540083445885,287.40984560474635 L 1265.2063587887703,249.98332237464987 L 1227.182276559153,264.88833688950666 L 1242.0872910740097,226.8642546598893 L 1204.6607678439132,210.51660510407106 L 1242.0872910740097,194.16895554825285 L 1227.1822765591528,156.14487331863546 L 1265.2063587887703,171.04988783349228 Z" fill="none" stroke="#FFFFFF" stroke-width="1.6599528794921716" /><path d="M 1452.427876123867,133.62336460339574 L 1468.7755256796852,171.04988783349225 L 1506.7996079093027,156.14487331863546 L 1491.8945933944458,194.16895554825285 L 1529.3211166245424,210.51660510407106 L 1491.8945933944458,226.86425465988927 L 1506.7996079093027,264.88833688950666 L 1468.7755256796852,249.98332237464987 L 1452.427876123867,287.40984560474635 L 1436.0802265680488,249.98332237464987 L 1398.0561443384315,264.88833688950666 L 1412.9611588532882,226.8642546598893 L 1375.5346356231917,210.51660510407106 L 1412.9611588532882,194.16895554825285 L 1398.0561443384313,156.14487331863546 L 1436.0802265680488,171.04988783349228 Z" fill="none" stroke="#FFFFFF" stroke-width="1.6599528794921716" /><path d="M 1623.3017439031455,133.62336460339574 L 1639.6493934589637,171.04988783349225 L 1677.6734756885812,156.14487331863546 L 1662.7684611737243,194.16895554825285 L 1700.1949844038209,210.51660510407106 L 1662.7684611737243,226.86425465988927 L 1677.6734756885812,264.88833688950666 L 1639.6493934589637,249.98332237464987 L 1623.3017439031455,287.40984560474635 L 1606.9540943473273,249.98332237464987 L 1568.93001211771,264.88833688950666 L 1583.8350266325667,226.8642546598893 L 1546.4085034024702,210.51660510407106 L 1583.8350266325667,194.16895554825285 L 1568.9300121177098,156.14487331863546 L 1606.9540943473273,171.04988783349228 Z" fill="none" stroke="#FFFFFF" stroke-width="1.6599528794921716" /><path d="M 1794.175611682424,133.62336460339574 L 1810.5232612382422,171.04988783349225 L 1848.5473434678597,156.14487331863546 L 1833.6423289530028,194.16895554825285 L 1871.0688521830994,210.51660510407106 L 1833.6423289530028,226.86425465988927 L 1848.5473434678597,264.88833688950666 L 1810.5232612382422,249.98332237464987 L 1794.175611682424,287.40984560474635 L 1777.8279621266058,249.98332237464987 L 1739.8038798969885,264.88833688950666 L 1754.7088944118452,226.8642546598893 L 1717.2823711817487,210.51660510407106 L 1754.7088944118452,194.16895554825285 L 1739.8038798969883,156.14487331863546 L 1777.8279621266058,171.04988783349228 Z" fill="none" stroke="#FFFFFF" stroke-width="1.6599528794921716" /><path d="M 1965.0494794617023,133.62336460339574 L 1981.3971290175205,171.04988783349225 L 2019.4212112471378,156.14487331863546 L 2004.516196732281,194.16895554825285 L 2041.9427199623776,210.51660510407106 L 2004.516196732281,226.86425465988927 L 2019.4212112471378,264.88833688950666 L 1981.3971290175205,249.98332237464987 L 1965.0494794617023,287.40984560474635 L 1948.701829905884,249.98332237464987 L 1910.6777476762668,264.88833688950666 L 1925.5827621911235,226.8642546598893 L 1888.156238961027,210.51660510407106 L 1925.5827621911235,194.16895554825285 L 1910.6777476762666,156.14487331863546 L 1948.701829905884,171.04988783349228 Z" fill="none" stroke="#FFFFFF" stroke-width="1.6599528794921716" /><path d="M 4.708353042760983e-15,281.6001341002509 L 16.347649555818204,319.0266573303474 L 54.3717317854356,304.1216428154906 L 39.466717270578805,342.145725045108 L 76.89324050067532,358.4933746009262 L 39.466717270578805,374.84102415674437 L 54.3717317854356,412.8651063863618 L 16.347649555818204,397.96009187150497 L 4.708353042760983e-15,435.3866151016015 L -16.3476495558182,397.96009187150497 L -54.37173178543559,412.8651063863618 L -39.4667172705788,374.8410241567444 L -76.89324050067532,358.4933746009262 L -39.4667172705788,342.14572504510795 L -54.37173178543561,304.1216428154906 L -16.347649555818226,319.0266573303474 Z" fill="none" stroke="#FFFFFF" stroke-width="1.6599528794921716" /><path d="M 170.87386777927847,281.6001341002509 L 187.22151733509668,319.0266573303474 L 225.24559956471407,304.1216428154906 L 210.34058504985728,342.145725045108 L 247.7671082799538,358.4933746009262 L 210.34058504985728,374.84102415674437 L 225.24559956471407,412.8651063863618 L 187.22151733509668,397.96009187150497 L 170.87386777927847,435.3866151016015 L 154.52621822346026,397.96009187150497 L 116.50213599384287,412.8651063863618 L 131.40715050869966,374.8410241567444 L 93.98062727860315,358.4933746009262 L 131.40715050869966,342.14572504510795 L 116.50213599384287,304.1216428154906 L 154.52621822346023,319.0266573303474 Z" fill="none" stroke="#FFFFFF" stroke-width="1.6599528794921716" /><path d="M 341.74773555855694,281.6001341002509 L 358.0953851143751,319.0266573303474 L 396.11946734399254,304.1216428154906 L 381.2144528291357,342.145725045108 L 418.64097605923223,358.4933746009262 L 381.2144528291357,374.84102415674437 L 396.11946734399254,412.8651063863618 L 358.0953851143751,397.96009187150497 L 341.74773555855694,435.3866151016015 L 325.40008600273876,397.96009187150497 L 287.37600377312134,412.8651063863618 L 302.28101828797816,374.8410241567444 L 264.85449505788165,358.4933746009262 L 302.28101828797816,342.14572504510795 L 287.37600377312134,304.1216428154906 L 325.4000860027387,319.0266573303474 Z" fill="none" stroke="#FFFFFF" stroke-width="1.6599528794921716" /><path d="M 512.6216033378354,281.6001341002509 L 528.9692528936536,319.0266573303474 L 566.993335123271,304.1216428154906 L 552.0883206084142,342.145725045108 L 589.5148438385107,358.4933746009262 L 552.0883206084142,374.84102415674437 L 566.993335123271,412.8651063863618 L 528.9692528936536,397.96009187150497 L 512.6216033378354,435.3866151016015 L 496.2739537820172,397.96009187150497 L 458.2498715523998,412.8651063863618 L 473.1548860672566,374.8410241567444 L 435.72836283716003,358.4933746009262 L 473.1548860672566,342.14572504510795 L 458.2498715523998,304.1216428154906 L 496.27395378201714,319.0266573303474 Z" fill="none" stroke="#FFFFFF" stroke-width="1.6599528794921716" /><path d="M 683.4954711171139,281.6001341002509 L 699.8431206729321,319.0266573303474 L 737.8672029025495,304.1216428154906 L 722.9621883876927,342.145725045108 L 760.3887116177892,358.4933746009262 L 722.9621883876927,374.84102415674437 L 737.8672029025495,412.8651063863618 L 699.8431206729321,397.96009187150497 L 683.4954711171139,435.3866151016015 L 667.1478215612957,397.96009187150497 L 629.1237393316783,412.8651063863618 L 644.0287538465351,374.8410241567444 L 606.6022306164385,358.4933746009262 L 644.0287538465351,342.14572504510795 L 629.1237393316783,304.1216428154906 L 667.1478215612957,319.0266573303474 Z" fill="none" stroke="#FFFFFF" stroke-width="1.6599528794921716" /><path d="M 854.3693388963924,281.6001341002509 L 870.7169884522106,319.0266573303474 L 908.741070681828,304.1216428154906 L 893.8360561669712,342.145725045108 L 931.2625793970677,358.4933746009262 L 893.8360561669712,374.84102415674437 L 908.741070681828,412.8651063863618 L 870.7169884522106,397.96009187150497 L 854.3693388963924,435.3866151016015 L 838.0216893405742,397.96009187150497 L 799.9976071109568,412.8651063863618 L 814.9026216258136,374.8410241567444 L 777.476098395717,358.4933746009262 L 814.9026216258136,342.14572504510795 L 799.9976071109568,304.1216428154906 L 838.0216893405742,319.0266573303474 Z" fill="none" stroke="#FFFFFF" stroke-width="1.6599528794921716" /><path d="M 1025.2432066756708,281.6001341002509 L 1041.590856231489,319.0266573303474 L 1079.6149384611062,304.1216428154906 L 1064.7099239462495,342.145725045108 L 1102.136447176346,358.4933746009262 L 1064.7099239462495,374.84102415674437 L 1079.6149384611062,412.8651063863618 L 1041.590856231489,397.96009187150497 L 1025.2432066756708,435.3866151016015 L 1008.8955571198526,397.96009187150497 L 970.8714748902352,412.8651063863618 L 985.776489405092,374.8410241567444 L 948.3499661749954,358.4933746009262 L 985.776489405092,342.14572504510795 L 970.8714748902352,304.1216428154906 L 1008.8955571198526,319.0266573303474 Z" fill="none" stroke="#FFFFFF" stroke-width="1.6599528794921716" /><path d="M 1196.1170744549493,281.6001341002509 L 1212.4647240107674,319.0266573303474 L 1250.4888062403847,304.1216428154906 L 1235.583791725528,342.145725045108 L 1273.0103149556246,358.4933746009262 L 1235.583791725528,374.84102415674437 L 1250.4888062403847,412.8651063863618 L 1212.4647240107674,397.96009187150497 L 1196.1170744549493,435.3866151016015 L 1179.769424899131,397.96009187150497 L 1141.7453426695138,412.8651063863618 L 1156.6503571843705,374.8410241567444 L 1119.223833954274,358.4933746009262 L 1156.6503571843705,342.14572504510795 L 1141.7453426695135,304.1216428154906 L 1179.769424899131,319.0266573303474 Z" fill="none" stroke="#FFFFFF" stroke-width="1.6599528794921716" /><path d="M 1366.9909422342278,281.6001341002509 L 1383.338591790046,319.0266573303474 L 1421.3626740196632,304.1216428154906 L 1406.4576595048065,342.145725045108 L 1443.884182734903,358.4933746009262 L 1406.4576595048065,374.84102415674437 L 1421.3626740196632,412.8651063863618 L 1383.338591790046,397.96009187150497 L 1366.9909422342278,435.3866151016015 L 1350.6432926784096,397.96009187150497 L 1312.6192104487923,412.8651063863618 L 1327.524224963649,374.8410241567444 L 1290.0977017335524,358.4933746009262 L 1327.524224963649,342.14572504510795 L 1312.619210448792,304.1216428154906 L 1350.6432926784096,319.0266573303474 Z" fill="none" stroke="#FFFFFF" stroke-width="1.6599528794921716" /><path d="M 1537.8648100135063,281.6001341002509 L 1554.2124595693244,319.0266573303474 L 1592.2365417989417,304.1216428154906 L 1577.331527284085,342.145725045108 L 1614.7580505141816,358.4933746009262 L 1577.331527284085,374.84102415674437 L 1592.2365417989417,412.8651063863618 L 1554.2124595693244,397.96009187150497 L 1537.8648100135063,435.3866151016015 L 1521.517160457688,397.96009187150497 L 1483.4930782280708,412.8651063863618 L 1498.3980927429275,374.8410241567444 L 1460.971569512831,358.4933746009262 L 1498.3980927429275,342.14572504510795 L 1483.4930782280705,304.1216428154906 L 1521.517160457688,319.0266573303474 Z" fill="none" stroke="#FFFFFF" stroke-width="1.6599528794921716" /><path d="M 1708.7386777927848,281.6001341002509 L 1725.086327348603,319.0266573303474 L 1763.1104095782202,304.1216428154906 L 1748.2053950633635,342.145725045108 L 1785.63191829346,358.4933746009262 L 1748.2053950633635,374.84102415674437 L 1763.1104095782202,412.8651063863618 L 1725.086327348603,397.96009187150497 L 1708.7386777927848,435.3866151016015 L 1692.3910282369666,397.96009187150497 L 1654.3669460073493,412.8651063863618 L 1669.271960522206,374.8410241567444 L 1631.8454372921094,358.4933746009262 L 1669.271960522206,342.14572504510795 L 1654.366946007349,304.1216428154906 L 1692.3910282369666,319.0266573303474 Z" fill="none" stroke="#FFFFFF" stroke-width="1.6599528794921716" /><path d="M 1879.6125455720633,281.6001341002509 L 1895.9601951278814,319.0266573303474 L 1933.9842773574987,304.1216428154906 L 1919.079262842642,342.145725045108 L 1956.5057860727386,358.4933746009262 L 1919.079262842642,374.84102415674437 L 1933.9842773574987,412.8651063863618 L 1895.9601951278814,397.96009187150497 L 1879.6125455720633,435.3866151016015 L 1863.264896016245,397.96009187150497 L 1825.2408137866278,412.8651063863618 L 1840.1458283014845,374.8410241567444 L 1802.719305071388,358.4933746009262 L 1840.1458283014845,342.14572504510795 L 1825.2408137866275,304.1216428154906 L 1863.264896016245,319.0266573303474 Z" fill="none" stroke="#FFFFFF" stroke-width="1.6599528794921716" /><path d="M 2050.4864133513415,281.6001341002509 L 2066.83406290716,319.0266573303474 L 2104.8581451367772,304.1216428154906 L 2089.9531306219205,342.145725045108 L 2127.379653852017,358.4933746009262 L 2089.9531306219205,374.84102415674437 L 2104.8581451367772,412.8651063863618 L 2066.83406290716,397.96009187150497 L 2050.4864133513415,435.3866151016015 L 2034.1387637955233,397.96009187150497 L 1996.114681565906,412.8651063863618 L 2011.0196960807627,374.8410241567444 L 1973.5931728506662,358.4933746009262 L 2011.0196960807627,342.14572504510795 L 1996.1146815659058,304.1216428154906 L 2034.1387637955233,319.0266573303474 Z" fill="none" stroke="#FFFFFF" stroke-width="1.6599528794921716" /><path d="M -85.43693388963923,429.576903597106 L -69.08928433382103,467.0034268272026 L -31.065202104203635,452.0984123123458 L -45.97021661906043,490.1224945419632 L -8.543693388963916,506.4701440977814 L -45.97021661906043,522.8177936535996 L -31.065202104203635,560.841875883217 L -69.08928433382103,545.9368613683602 L -85.43693388963923,583.3633845984567 L -101.78458344545743,545.9368613683602 L -139.80866567507482,560.841875883217 L -124.90365116021803,522.8177936535996 L -162.33017439031454,506.4701440977814 L -124.90365116021803,490.12249454196314 L -139.80866567507485,452.0984123123458 L -101.78458344545746,467.0034268272026 Z" fill="none" stroke="#FFFFFF" stroke-width="1.6599528794921716" /><path d="M 85.43693388963923,429.576903597106 L 101.78458344545744,467.0034268272026 L 139.80866567507485,452.0984123123458 L 124.90365116021803,490.1224945419632 L 162.33017439031454,506.4701440977814 L 124.90365116021803,522.8177936535996 L 139.80866567507485,560.841875883217 L 101.78458344545744,545.9368613683602 L 85.43693388963923,583.3633845984567 L 69.08928433382104,545.9368613683602 L 31.065202104203642,560.841875883217 L 45.97021661906044,522.8177936535996 L 8.543693388963916,506.4701440977814 L 45.97021661906044,490.12249454196314 L 31.065202104203628,452.0984123123458 L 69.08928433382101,467.0034268272026 Z" fill="none" stroke="#FFFFFF" stroke-width="1.6599528794921716" /><path d="M 256.3108016689177,429.576903597106 L 272.65845122473587,467.0034268272026 L 310.6825334543533,452.0984123123458 L 295.7775189394965,490.1224945419632 L 333.204042169593,506.4701440977814 L 295.7775189394965,522.8177936535996 L 310.6825334543533,560.841875883217 L 272.65845122473587,545.9368613683602 L 256.3108016689177,583.3633845984567 L 239.96315211309948,545.9368613683602 L 201.9390698834821,560.841875883217 L 216.8440843983389,522.8177936535996 L 179.41756116824237,506.4701440977814 L 216.8440843983389,490.12249454196314 L 201.9390698834821,452.0984123123458 L 239.96315211309945,467.0034268272026 Z" fill="none" stroke="#FFFFFF" stroke-width="1.6599528794921716" /><path d="M 427.18466944819613,429.576903597106 L 443.5323190040143,467.0034268272026 L 481.55640123363173,452.0984123123458 L 466.6513867187749,490.1224945419632 L 504.0779099488715,506.4701440977814 L 466.6513867187749,522.8177936535996 L 481.55640123363173,560.841875883217 L 443.5323190040143,545.9368613683602 L 427.18466944819613,583.3633845984567 L 410.83701989237795,545.9368613683602 L 372.81293766276053,560.841875883217 L 387.71795217761735,522.8177936535996 L 350.2914289475208,506.4701440977814 L 387.71795217761735,490.12249454196314 L 372.81293766276053,452.0984123123458 L 410.8370198923779,467.0034268272026 Z" fill="none" stroke="#FFFFFF" stroke-width="1.6599528794921716" /><path d="M 598.0585372274746,429.576903597106 L 614.4061867832928,467.0034268272026 L 652.4302690129102,452.0984123123458 L 637.5252544980534,490.1224945419632 L 674.95177772815,506.4701440977814 L 637.5252544980534,522.8177936535996 L 652.4302690129102,560.841875883217 L 614.4061867832928,545.9368613683602 L 598.0585372274746,583.3633845984567 L 581.7108876716565,545.9368613683602 L 543.686805442039,560.841875883217 L 558.5918199568958,522.8177936535996 L 521.1652967267993,506.4701440977814 L 558.5918199568958,490.12249454196314 L 543.686805442039,452.0984123123458 L 581.7108876716565,467.0034268272026 Z" fill="none" stroke="#FFFFFF" stroke-width="1.6599528794921716" /><path d="M 768.9324050067531,429.576903597106 L 785.2800545625713,467.0034268272026 L 823.3041367921887,452.0984123123458 L 808.3991222773319,490.1224945419632 L 845.8256455074285,506.4701440977814 L 808.3991222773319,522.8177936535996 L 823.3041367921887,560.841875883217 L 785.2800545625713,545.9368613683602 L 768.9324050067531,583.3633845984567 L 752.584755450935,545.9368613683602 L 714.5606732213175,560.841875883217 L 729.4656877361743,522.8177936535996 L 692.0391645060778,506.4701440977814 L 729.4656877361743,490.12249454196314 L 714.5606732213175,452.0984123123458 L 752.584755450935,467.0034268272026 Z" fill="none" stroke="#FFFFFF" stroke-width="1.6599528794921716" /><path d="M 939.8062727860315,429.576903597106 L 956.1539223418497,467.0034268272026 L 994.1780045714671,452.0984123123458 L 979.2729900566103,490.1224945419632 L 1016.6995132867069,506.4701440977814 L 979.2729900566103,522.8177936535996 L 994.1780045714671,560.841875883217 L 956.1539223418497,545.9368613683602 L 939.8062727860315,583.3633845984567 L 923.4586232302133,545.9368613683602 L 885.4345410005959,560.841875883217 L 900.3395555154527,522.8177936535996 L 862.9130322853562,506.4701440977814 L 900.3395555154527,490.12249454196314 L 885.4345410005959,452.0984123123458 L 923.4586232302133,467.0034268272026 Z" fill="none" stroke="#FFFFFF" stroke-width="1.6599528794921716" /><path d="M 1110.68014056531,429.576903597106 L 1127.0277901211282,467.0034268272026 L 1165.0518723507457,452.0984123123458 L 1150.1468578358888,490.1224945419632 L 1187.5733810659854,506.4701440977814 L 1150.1468578358888,522.8177936535996 L 1165.0518723507457,560.841875883217 L 1127.0277901211282,545.9368613683602 L 1110.68014056531,583.3633845984567 L 1094.3324910094918,545.9368613683602 L 1056.3084087798745,560.841875883217 L 1071.2134232947312,522.8177936535996 L 1033.7869000646347,506.4701440977814 L 1071.2134232947312,490.12249454196314 L 1056.3084087798743,452.0984123123458 L 1094.3324910094918,467.0034268272026 Z" fill="none" stroke="#FFFFFF" stroke-width="1.6599528794921716" /><path d="M 1281.5540083445885,429.576903597106 L 1297.9016579004067,467.0034268272026 L 1335.9257401300242,452.0984123123458 L 1321.0207256151673,490.1224945419632 L 1358.4472488452639,506.4701440977814 L 1321.0207256151673,522.8177936535996 L 1335.9257401300242,560.841875883217 L 1297.9016579004067,545.9368613683602 L 1281.5540083445885,583.3633845984567 L 1265.2063587887703,545.9368613683602 L 1227.182276559153,560.841875883217 L 1242.0872910740097,522.8177936535996 L 1204.6607678439132,506.4701440977814 L 1242.0872910740097,490.12249454196314 L 1227.1822765591528,452.0984123123458 L 1265.2063587887703,467.0034268272026 Z" fill="none" stroke="#FFFFFF" stroke-width="1.6599528794921716" /><path d="M 1452.427876123867,429.576903597106 L 1468.7755256796852,467.0034268272026 L 1506.7996079093027,452.0984123123458 L 1491.8945933944458,490.1224945419632 L 1529.3211166245424,506.4701440977814 L 1491.8945933944458,522.8177936535996 L 1506.7996079093027,560.841875883217 L 1468.7755256796852,545.9368613683602 L 1452.427876123867,583.3633845984567 L 1436.0802265680488,545.9368613683602 L 1398.0561443384315,560.841875883217 L 1412.9611588532882,522.8177936535996 L 1375.5346356231917,506.4701440977814 L 1412.9611588532882,490.12249454196314 L 1398.0561443384313,452.0984123123458 L 1436.0802265680488,467.0034268272026 Z" fill="none" stroke="#FFFFFF" stroke-width="1.6599528794921716" /><path d="M 1623.3017439031455,429.576903597106 L 1639.6493934589637,467.0034268272026 L 1677.6734756885812,452.0984123123458 L 1662.7684611737243,490.1224945419632 L 1700.1949844038209,506.4701440977814 L 1662.7684611737243,522.8177936535996 L 1677.6734756885812,560.841875883217 L 1639.6493934589637,545.9368613683602 L 1623.3017439031455,583.3633845984567 L 1606.9540943473273,545.9368613683602 L 1568.93001211771,560.841875883217 L 1583.8350266325667,522.8177936535996 L 1546.4085034024702,506.4701440977814 L 1583.8350266325667,490.12249454196314 L 1568.9300121177098,452.0984123123458 L 1606.9540943473273,467.0034268272026 Z" fill="none" stroke="#FFFFFF" stroke-width="1.6599528794921716" /><path d="M 1794.175611682424,429.576903597106 L 1810.5232612382422,467.0034268272026 L 1848.5473434678597,452.0984123123458 L 1833.6423289530028,490.1224945419632 L 1871.0688521830994,506.4701440977814 L 1833.6423289530028,522.8177936535996 L 1848.5473434678597,560.841875883217 L 1810.5232612382422,545.9368613683602 L 1794.175611682424,583.3633845984567 L 1777.8279621266058,545.9368613683602 L 1739.8038798969885,560.841875883217 L 1754.7088944118452,522.8177936535996 L 1717.2823711817487,506.4701440977814 L 1754.7088944118452,490.12249454196314 L 1739.8038798969883,452.0984123123458 L 1777.8279621266058,467.0034268272026 Z" fill="none" stroke="#FFFFFF" stroke-width="1.6599528794921716" /><path d="M 1965.0494794617023,429.576903597106 L 1981.3971290175205,467.0034268272026 L 2019.4212112471378,452.0984123123458 L 2004.516196732281,490.1224945419632 L 2041.9427199623776,506.4701440977814 L 2004.516196732281,522.8177936535996 L 2019.4212112471378,560.841875883217 L 1981.3971290175205,545.9368613683602 L 1965.0494794617023,583.3633845984567 L 1948.701829905884,545.9368613683602 L 1910.6777476762668,560.841875883217 L 1925.5827621911235,522.8177936535996 L 1888.156238961027,506.4701440977814 L 1925.5827621911235,490.12249454196314 L 1910.6777476762666,452.0984123123458 L 1948.701829905884,467.0034268272026 Z" fill="none" stroke="#FFFFFF" stroke-width="1.6599528794921716" /><line x1="76.89324050067532" y1="62.53983560721592" x2="93.98062727860315" y2="62.53983560721592" stroke="#FFFFFF" stroke-width="0.5"/><line x1="247.7671082799538" y1="62.53983560721592" x2="264.85449505788165" y2="62.53983560721592" stroke="#FFFFFF" stroke-width="0.5"/><line x1="418.64097605923223" y1="62.53983560721592" x2="435.72836283716003" y2="62.53983560721592" stroke="#FFFFFF" stroke-width="0.5"/><line x1="589.5148438385107" y1="62.53983560721592" x2="606.6022306164385" y2="62.53983560721592" stroke="#FFFFFF" stroke-width="0.5"/><line x1="760.3887116177892" y1="62.53983560721592" x2="777.476098395717" y2="62.53983560721592" stroke="#FFFFFF" stroke-width="0.5"/><line x1="931.2625793970677" y1="62.53983560721592" x2="948.3499661749954" y2="62.53983560721592" stroke="#FFFFFF" stroke-width="0.5"/><line x1="1102.136447176346" y1="62.53983560721592" x2="1119.223833954274" y2="62.53983560721592" stroke="#FFFFFF" stroke-width="0.5"/><line x1="1273.0103149556246" y1="62.53983560721592" x2="1290.0977017335524" y2="62.53983560721592" stroke="#FFFFFF" stroke-width="0.5"/><line x1="1443.884182734903" y1="62.53983560721592" x2="1460.971569512831" y2="62.53983560721592" stroke="#FFFFFF" stroke-width="0.5"/><line x1="1614.7580505141816" y1="62.53983560721592" x2="1631.8454372921094" y2="62.53983560721592" stroke="#FFFFFF" stroke-width="0.5"/><line x1="1785.63191829346" y1="62.53983560721592" x2="1802.719305071388" y2="62.53983560721592" stroke="#FFFFFF" stroke-width="0.5"/><line x1="162.33017439031454" y1="210.51660510407106" x2="179.41756116824237" y2="210.51660510407106" stroke="#FFFFFF" stroke-width="0.5"/><line x1="333.204042169593" y1="210.51660510407106" x2="350.2914289475208" y2="210.51660510407106" stroke="#FFFFFF" stroke-width="0.5"/><line x1="504.0779099488715" y1="210.51660510407106" x2="521.1652967267993" y2="210.51660510407106" stroke="#FFFFFF" stroke-width="0.5"/><line x1="674.95177772815" y1="210.51660510407106" x2="692.0391645060778" y2="210.51660510407106" stroke="#FFFFFF" stroke-width="0.5"/><line x1="845.8256455074285" y1="210.51660510407106" x2="862.9130322853562" y2="210.51660510407106" stroke="#FFFFFF" stroke-width="0.5"/><line x1="1016.6995132867069" y1="210.51660510407106" x2="1033.7869000646347" y2="210.51660510407106" stroke="#FFFFFF" stroke-width="0.5"/><line x1="1187.5733810659854" y1="210.51660510407106" x2="1204.6607678439132" y2="210.51660510407106" stroke="#FFFFFF" stroke-width="0.5"/><line x1="1358.4472488452639" y1="210.51660510407106" x2="1375.5346356231917" y2="210.51660510407106" stroke="#FFFFFF" stroke-width="0.5"/><line x1="1529.3211166245424" y1="210.51660510407106" x2="1546.4085034024702" y2="210.51660510407106" stroke="#FFFFFF" stroke-width="0.5"/><line x1="1700.1949844038209" y1="210.51660510407106" x2="1717.2823711817487" y2="210.51660510407106" stroke="#FFFFFF" stroke-width="0.5"/><line x1="1871.0688521830994" y1="210.51660510407106" x2="1888.156238961027" y2="210.51660510407106" stroke="#FFFFFF" stroke-width="0.5"/><line x1="76.89324050067532" y1="358.4933746009262" x2="93.98062727860315" y2="358.4933746009262" stroke="#FFFFFF" stroke-width="0.5"/><line x1="247.7671082799538" y1="358.4933746009262" x2="264.85449505788165" y2="358.4933746009262" stroke="#FFFFFF" stroke-width="0.5"/><line x1="418.64097605923223" y1="358.4933746009262" x2="435.72836283716003" y2="358.4933746009262" stroke="#FFFFFF" stroke-width="0.5"/><line x1="589.5148438385107" y1="358.4933746009262" x2="606.6022306164385" y2="358.4933746009262" stroke="#FFFFFF" stroke-width="0.5"/><line x1="760.3887116177892" y1="358.4933746009262" x2="777.476098395717" y2="358.4933746009262" stroke="#FFFFFF" stroke-width="0.5"/><line x1="931.2625793970677" y1="358.4933746009262" x2="948.3499661749954" y2="358.4933746009262" stroke="#FFFFFF" stroke-width="0.5"/><line x1="1102.136447176346" y1="358.4933746009262" x2="1119.223833954274" y2="358.4933746009262" stroke="#FFFFFF" stroke-width="0.5"/><line x1="1273.0103149556246" y1="358.4933746009262" x2="1290.0977017335524" y2="358.4933746009262" stroke="#FFFFFF" stroke-width="0.5"/><line x1="1443.884182734903" y1="358.4933746009262" x2="1460.971569512831" y2="358.4933746009262" stroke="#FFFFFF" stroke-width="0.5"/><line x1="1614.7580505141816" y1="358.4933746009262" x2="1631.8454372921094" y2="358.4933746009262" stroke="#FFFFFF" stroke-width="0.5"/><line x1="1785.63191829346" y1="358.4933746009262" x2="1802.719305071388" y2="358.4933746009262" stroke="#FFFFFF" stroke-width="0.5"/></g><g opacity="0.20201184756681878"><path d="M 1568.051530852938 269.01248944411634 L 1568.051530852938 301.9686557746473 L 1523.4846961237258 301.9686557746473 L 1523.4846961237258 352.59768806269955" fill="none" stroke="#FFFFFF" stroke-width="1.0751856493648075" stroke-linecap="square"/><path d="M 557.616348526262 93.3587837653974 L 608.7834451443463 93.3587837653974 L 608.7834451443463 44.716910388604504" fill="none" stroke="#FFFFFF" stroke-width="1.0751856493648075" stroke-linecap="square"/><path d="M 749.9910739576402 75.19895557090591 L 792.4578954519494 75.19895557090591 L 792.4578954519494 111.73573877145157 L 831.8374327461934 111.73573877145157" fill="none" stroke="#FFFFFF" stroke-width="1.0751856493648075" stroke-linecap="square"/><path d="M 1638.1892402647945 156.34311683305685 L 1671.5620494216482 156.34311683305685 L 1671.5620494216482 123.68132763950413" fill="none" stroke="#FFFFFF" stroke-width="1.0751856493648075" stroke-linecap="square"/><path d="M 1684.733963797211 428.44659825248954 L 1652.8808236496047 428.44659825248954 L 1652.8808236496047 378.73336169761615" fill="none" stroke="#FFFFFF" stroke-width="1.0751856493648075" stroke-linecap="square"/><path d="M 1716.8431099303268 49.77825167112903 L 1716.8431099303268 9.758845839623248 L 1755.3220703707798 9.758845839623248 L 1755.3220703707798 46.650617051726236" fill="none" stroke="#FFFFFF" stroke-width="1.0751856493648075" stroke-linecap="square"/><rect x="1521.404727492421" y="299.8886871433425" width="4.159937262609572" height="4.159937262609572" fill="#FFFFFF"/><circle cx="608.7834451443463" cy="44.716910388604504" r="2.079968631304786" fill="#FFFFFF"/><circle cx="1671.5620494216482" cy="123.68132763950413" r="2.079968631304786" fill="#FFFFFF"/><circle cx="1652.8808236496047" cy="378.73336169761615" r="2.079968631304786" fill="#FFFFFF"/><circle cx="1684.733963797211" cy="428.44659825248954" r="1.6639749050438288" fill="#FFFFFF"/><rect x="1650.8008550183" y="426.36662962118476" width="4.159937262609572" height="4.159937262609572" fill="#FFFFFF"/><rect x="980.0715874455877" y="373.92610986840737" width="4.977675633280271" height="4.977675633280271" fill="#FFFFFF"/></g><g opacity="0.3"><rect x="30" y="30" width="1860" height="420" fill="none" stroke="#444444" stroke-width="1" rx="0"/></g><g opacity="0.8312208057992257"><line x1="60" y1="240" x2="140" y2="240" stroke="#888888" stroke-width="1" opacity="0.5"/><line x1="1780" y1="240" x2="1860" y2="240" stroke="#888888" stroke-width="1" opacity="0.5"/><path d="M 30 70 L 30 30 L 70 30" fill="none" stroke="#888888" stroke-width="2" stroke-linecap="square"/><path d="M 1850 30 L 1890 30 L 1890 70" fill="none" stroke="#888888" stroke-width="2" stroke-linecap="square"/><path d="M 30 410 L 30 450 L 70 450" fill="none" stroke="#888888" stroke-width="2" stroke-linecap="square"/><path d="M 1850 450 L 1890 450 L 1890 410" fill="none" stroke="#888888" stroke-width="2" stroke-linecap="square"/></g></svg>