<svg xmlns="http://www.w3.org/2000/svg" width="1920" height="480" viewBox="0 0 1920 480"><rect x="0" y="0" width="1920" height="480" fill="#000000"/><g opacity="0.16176986699540627"><path d="M -66.4423076366738,-126.24038450968023 L -53.72912246634402,-97.13465169584444 L -24.158681977856503,-108.7259332954911 L -35.74996357750316,-79.15549280700358 L -6.64423076366738,-66.4423076366738 L -35.74996357750316,-53.72912246634403 L -24.158681977856503,-24.158681977856503 L -53.72912246634402,-35.74996357750316 L -66.4423076366738,-6.64423076366738 L -79.15549280700358,-35.74996357750316 L -108.7259332954911,-24.158681977856503 L -97.13465169584444,-53.72912246634401 L -126.24038450968023,-66.44230763667379 L -97.13465169584444,-79.15549280700358 L -108.7259332954911,-108.7259332954911 L -79.1554928070036,-97.13465169584444 Z" fill="none" stroke="#FFFFFF" stroke-width="0.6720833779182673" /><path d="M 66.4423076366738,-126.24038450968023 L 79.15549280700358,-97.13465169584444 L 108.7259332954911,-108.7259332954911 L 97.13465169584444,-79.15549280700358 L 126.24038450968023,-66.4423076366738 L 97.13465169584444,-53.72912246634403 L 108.7259332954911,-24.158681977856503 L 79.15549280700358,-35.74996357750316 L 66.4423076366738,-6.64423076366738 L 53.72912246634403,-35.74996357750316 L 24.158681977856503,-24.158681977856503 L 35.749963577503166,-53.72912246634401 L 6.64423076366738,-66.44230763667379 L 35.749963577503166,-79.15549280700358 L 24.158681977856496,-108.7259332954911 L 53.72912246634401,-97.13465169584444 Z" fill="none" stroke="#FFFFFF" stroke-width="0.6720833779182673" /><path d="M 199.3269229100214,-126.24038450968023 L 212.0401080803512,-97.13465169584444 L 241.6105485688387,-108.7259332954911 L 230.01926696919205,-79.15549280700358 L 259.1249997830278,-66.4423076366738 L 230.01926696919205,-53.72912246634403 L 241.6105485688387,-24.158681977856503 L 212.0401080803512,-35.74996357750316 L 199.3269229100214,-6.64423076366738 L 186.61373773969163,-35.74996357750316 L 157.0432972512041,-24.158681977856503 L 168.63457885085077,-53.72912246634401 L 139.528846037015,-66.44230763667379 L 168.63457885085077,-79.15549280700358 L 157.0432972512041,-108.7259332954911 L 186.61373773969163,-97.13465169584444 Z" fill="none" stroke="#FFFFFF" stroke-width="0.6720833779182673" /><path d="M 332.21153818336904,-126.24038450968023 L 344.9247233536988,-97.13465169584444 L 374.49516384218634,-108.7259332954911 L 362.9038822425397,-79.15549280700358 L 392.0096150563755,-66.4423076366738 L 362.9038822425397,-53.72912246634403 L 374.49516384218634,-24.158681977856503 L 344.9247233536988,-35.74996357750316 L 332.21153818336904,-6.64423076366738 L 319.49835301303926,-35.74996357750316 L 289.92791252455174,-24.158681977856503 L 301.5191941241984,-53.72912246634401 L 272.4134613103626,-66.44230763667379 L 301.5191941241984,-79.15549280700358 L 289.92791252455174,-108.7259332954911 L 319.49835301303926,-97.13465169584444 Z" fill="none" stroke="#FFFFFF" stroke-width="0.6720833779182673" /><path d="M 465.0961534567166,-126.24038450968023 L 477.8093386270464,-97.13465169584444 L 507.3797791155339,-108.7259332954911 L 495.78849751588723,-79.15549280700358 L 524.894230329723,-66.4423076366738 L 495.78849751588723,-53.72912246634403 L 507.3797791155339,-24.158681977856503 L 477.8093386270464,-35.74996357750316 L 465.0961534567166,-6.64423076366738 L 452.3829682863868,-35.74996357750316 L 422.8125277978993,-24.158681977856503 L 434.40380939754596,-53.72912246634401 L 405.29807658371016,-66.44230763667379 L 434.40380939754596,-79.15549280700358 L 422.8125277978993,-108.7259332954911 L 452.3829682863868,-97.13465169584444 Z" fill="none" stroke="#FFFFFF" stroke-width="0.6720833779182673" /><path d="M 597.9807687300643,-126.24038450968023 L 610.693953900394,-97.13465169584444 L 640.2643943888816,-108.7259332954911 L 628.6731127892349,-79.15549280700358 L 657.7788456030706,-66.4423076366738 L 628.6731127892349,-53.72912246634403 L 640.2643943888816,-24.158681977856503 L 610.693953900394,-35.74996357750316 L 597.9807687300643,-6.64423076366738 L 585.2675835597345,-35.74996357750316 L 555.697143071247,-24.158681977856503 L 567.2884246708936,-53.72912246634401 L 538.1826918570579,-66.44230763667379 L 567.2884246708936,-79.15549280700358 L 555.697143071247,-108.7259332954911 L 585.2675835597345,-97.13465169584444 Z" fill="none" stroke="#FFFFFF" stroke-width="0.6720833779182673" /><path d="M 730.8653840034118,-126.24038450968023 L 743.5785691737416,-97.13465169584444 L 773.1490096622291,-108.7259332954911 L 761.5577280625824,-79.15549280700358 L 790.6634608764182,-66.4423076366738 L 761.5577280625824,-53.72912246634403 L 773.1490096622291,-24.158681977856503 L 743.5785691737416,-35.74996357750316 L 730.8653840034118,-6.64423076366738 L 718.152198833082,-35.74996357750316 L 688.5817583445945,-24.158681977856503 L 700.1730399442412,-53.72912246634401 L 671.0673071304054,-66.44230763667379 L 700.1730399442412,-79.15549280700358 L 688.5817583445945,-108.7259332954911 L 718.152198833082,-97.13465169584444 Z" fill="none" stroke="#FFFFFF" stroke-width="0.6720833779182673" /><path d="M 863.7499992767594,-126.24038450968023 L 876.4631844470891,-97.13465169584444 L 906.0336249355767,-108.7259332954911 L 894.44234333593,-79.15549280700358 L 923.5480761497657,-66.4423076366738 L 894.44234333593,-53.72912246634403 L 906.0336249355767,-24.158681977856503 L 876.4631844470891,-35.74996357750316 L 863.7499992767594,-6.64423076366738 L 851.0368141064296,-35.74996357750316 L 821.466373617942,-24.158681977856503 L 833.0576552175887,-53.72912246634401 L 803.951922403753,-66.44230763667379 L 833.0576552175887,-79.15549280700358 L 821.466373617942,-108.7259332954911 L 851.0368141064296,-97.13465169584444 Z" fill="none" stroke="#FFFFFF" stroke-width="0.6720833779182673" /><path d="M 996.634614550107,-126.24038450968023 L 1009.3477997204368,-97.13465169584444 L 1038.9182402089243,-108.7259332954911 L 1027.3269586092777,-79.15549280700358 L 1056.4326914231135,-66.4423076366738 L 1027.3269586092777,-53.72912246634403 L 1038.9182402089243,-24.158681977856503 L 1009.3477997204368,-35.74996357750316 L 996.634614550107,-6.64423076366738 L 983.9214293797772,-35.74996357750316 L 954.3509888912897,-24.158681977856503 L 965.9422704909364,-53.72912246634401 L 936.8365376771006,-66.44230763667379 L 965.9422704909364,-79.15549280700358 L 954.3509888912897,-108.7259332954911 L 983.9214293797772,-97.13465169584444 Z" fill="none" stroke="#FFFFFF" stroke-width="0.6720833779182673" /><path d="M 1129.5192298234547,-126.24038450968023 L 1142.2324149937845,-97.13465169584444 L 1171.802855482272,-108.7259332954911 L 1160.2115738826253,-79.15549280700358 L 1189.3173066964612,-66.4423076366738 L 1160.2115738826253,-53.72912246634403 L 1171.802855482272,-24.158681977856503 L 1142.2324149937845,-35.74996357750316 L 1129.5192298234547,-6.64423076366738 L 1116.806044653125,-35.74996357750316 L 1087.2356041646374,-24.158681977856503 L 1098.826885764284,-53.72912246634401 L 1069.7211529504482,-66.44230763667379 L 1098.826885764284,-79.15549280700358 L 1087.2356041646374,-108.7259332954911 L 1116.806044653125,-97.13465169584444 Z" fill="none" stroke="#FFFFFF" stroke-width="0.6720833779182673" /><path d="M 1262.4038450968023,-126.24038450968023 L 1275.1170302671321,-97.13465169584444 L 1304.6874707556196,-108.7259332954911 L 1293.096189155973,-79.15549280700358 L 1322.2019219698088,-66.4423076366738 L 1293.096189155973,-53.72912246634403 L 1304.6874707556196,-24.158681977856503 L 1275.1170302671321,-35.74996357750316 L 1262.4038450968023,-6.64423076366738 L 1249.6906599264726,-35.74996357750316 L 1220.120219437985,-24.158681977856503 L 1231.7115010376317,-53.72912246634401 L 1202.6057682237958,-66.44230763667379 L 1231.7115010376317,-79.15549280700358 L 1220.120219437985,-108.7259332954911 L 1249.6906599264726,-97.13465169584444 Z" fill="none" stroke="#FFFFFF" stroke-width="0.6720833779182673" /><path d="M 1395.2884603701498,-126.24038450968023 L 1408.0016455404796,-97.13465169584444 L 1437.572086028967,-108.7259332954911 L 1425.9808044293204,-79.15549280700358 L 1455.0865372431563,-66.4423076366738 L 1425.9808044293204,-53.72912246634403 L 1437.572086028967,-24.158681977856503 L 1408.0016455404796,-35.74996357750316 L 1395.2884603701498,-6.64423076366738 L 1382.57527519982,-35.74996357750316 L 1353.0048347113325,-24.158681977856503 L 1364.5961163109791,-53.72912246634401 L 1335.4903834971433,-66.44230763667379 L 1364.5961163109791,-79.15549280700358 L 1353.0048347113325,-108.7259332954911 L 1382.57527519982,-97.13465169584444 Z" fill="none" stroke="#FFFFFF" stroke-width="0.6720833779182673" /><path d="M 1528.1730756434974,-126.24038450968023 L 1540.8862608138272,-97.13465169584444 L 1570.4567013023147,-108.7259332954911 L 1558.865419702668,-79.15549280700358 L 1587.971152516504,-66.4423076366738 L 1558.865419702668,-53.72912246634403 L 1570.4567013023147,-24.158681977856503 L 1540.8862608138272,-35.74996357750316 L 1528.1730756434974,-6.64423076366738 L 1515.4598904731677,-35.74996357750316 L 1485.8894499846801,-24.158681977856503 L 1497.4807315843268,-53.72912246634401 L 1468.374998770491,-66.44230763667379 L 1497.4807315843268,-79.15549280700358 L 1485.8894499846801,-108.7259332954911 L 1515.4598904731677,-97.13465169584444 Z" fill="none" stroke="#FFFFFF" stroke-width="0.6720833779182673" /><path d="M 1661.057690916845,-126.24038450968023 L 1673.7708760871749,-97.13465169584444 L 1703.3413165756624,-108.7259332954911 L 1691.7500349760157,-79.15549280700358 L 1720.8557677898516,-66.4423076366738 L 1691.7500349760157,-53.72912246634403 L 1703.3413165756624,-24.158681977856503 L 1673.7708760871749,-35.74996357750316 L 1661.057690916845,-6.64423076366738 L 1648.3445057465153,-35.74996357750316 L 1618.7740652580278,-24.158681977856503 L 1630.3653468576745,-53.72912246634401 L 1601.2596140438386,-66.44230763667379 L 1630.3653468576745,-79.15549280700358 L 1618.7740652580278,-108.7259332954911 L 1648.3445057465153,-97.13465169584444 Z" fill="none" stroke="#FFFFFF" stroke-width="0.6720833779182673" /><path d="M 1793.9423061901925,-126.24038450968023 L 1806.6554913605223,-97.13465169584444 L 1836.2259318490098,-108.7259332954911 L 1824.6346502493632,-79.15549280700358 L 1853.740383063199,-66.4423076366738 L 1824.6346502493632,-53.72912246634403 L 1836.2259318490098,-24.158681977856503 L 1806.6554913605223,-35.74996357750316 L 1793.9423061901925,-6.64423076366738 L 1781.2291210198628,-35.74996357750316 L 1751.6586805313752,-24.158681977856503 L 1763.249962131022,-53.72912246634401 L 1734.144229317186,-66.44230763667379 L 1763.249962131022,-79.15549280700358 L 1751.6586805313752,-108.7259332954911 L 1781.2291210198628,-97.13465169584444 Z" fill="none" stroke="#FFFFFF" stroke-width="0.6720833779182673" /><path d="M 1926.8269214635402,-126.24038450968023 L 1939.54010663387,-97.13465169584444 L 1969.1105471223575,-108.7259332954911 L 1957.5192655227108,-79.15549280700358 L 1986.6249983365467,-66.4423076366738 L 1957.5192655227108,-53.72912246634403 L 1969.1105471223575,-24.158681977856503 L 1939.54010663387,-35.74996357750316 L 1926.8269214635402,-6.64423076366738 L 1914.1137362932104,-35.74996357750316 L 1884.543295804723,-24.158681977856503 L 1896.1345774043696,-53.72912246634401 L 1867.0288445905337,-66.44230763667379 L 1896.1345774043696,-79.15549280700358 L 1884.543295804723,-108.7259332954911 L 1914.1137362932104,-97.13465169584444 Z" fill="none" stroke="#FFFFFF" stroke-width="0.6720833779182673" /><path d="M 3.661576171884734e-15,-11.162307682961199 L 12.713185170329776,17.94342513087458 L 42.2836256588173,6.352143531227924 L 30.692344059170644,35.92258401971545 L 59.79807687300642,48.635769190045224 L 30.692344059170644,61.348954360375 L 42.2836256588173,90.91939484886252 L 12.713185170329776,79.32811324921587 L 3.661576171884734e-15,108.43384606305165 L -12.713185170329773,79.32811324921587 L -42.2836256588173,90.91939484886252 L -30.692344059170637,61.34895436037502 L -59.79807687300642,48.63576919004523 L -30.69234405917064,35.922584019715444 L -42.28362565881731,6.352143531227924 L -12.713185170329792,17.943425130874587 Z" fill="none" stroke="#FFFFFF" stroke-width="0.6720833779182673" /><path d="M 132.8846152733476,-11.162307682961199 L 145.5978004436774,17.94342513087458 L 175.1682409321649,6.352143531227924 L 163.57695933251824,35.92258401971545 L 192.68269214635404,48.635769190045224 L 163.57695933251824,61.348954360375 L 175.1682409321649,90.91939484886252 L 145.5978004436774,79.32811324921587 L 132.8846152733476,108.43384606305165 L 120.17143010301783,79.32811324921587 L 90.6009896145303,90.91939484886252 L 102.19227121417697,61.34895436037502 L 73.08653840034118,48.63576919004523 L 102.19227121417697,35.922584019715444 L 90.6009896145303,6.352143531227924 L 120.17143010301781,17.943425130874587 Z" fill="none" stroke="#FFFFFF" stroke-width="0.6720833779182673" /><path d="M 265.7692305466952,-11.162307682961199 L 278.482415717025,17.94342513087458 L 308.0528562055125,6.352143531227924 L 296.46157460586585,35.92258401971545 L 325.56730741970165,48.635769190045224 L 296.46157460586585,61.348954360375 L 308.0528562055125,90.91939484886252 L 278.482415717025,79.32811324921587 L 265.7692305466952,108.43384606305165 L 253.05604537636543,79.32811324921587 L 223.4856048878779,90.91939484886252 L 235.07688648752458,61.34895436037502 L 205.97115367368878,48.63576919004523 L 235.07688648752458,35.922584019715444 L 223.4856048878779,6.352143531227924 L 253.05604537636543,17.943425130874587 Z" fill="none" stroke="#FFFFFF" stroke-width="0.6720833779182673" /><path d="M 398.6538458200429,-11.162307682961199 L 411.36703099037265,17.94342513087458 L 440.9374714788602,6.352143531227924 L 429.3461898792135,35.92258401971545 L 458.4519226930493,48.635769190045224 L 429.3461898792135,61.348954360375 L 440.9374714788602,90.91939484886252 L 411.36703099037265,79.32811324921587 L 398.6538458200429,108.43384606305165 L 385.9406606497131,79.32811324921587 L 356.3702201612256,90.91939484886252 L 367.96150176087224,61.34895436037502 L 338.85576894703644,48.63576919004523 L 367.96150176087224,35.922584019715444 L 356.3702201612256,6.352143531227924 L 385.9406606497131,17.943425130874587 Z" fill="none" stroke="#FFFFFF" stroke-width="0.6720833779182673" /><path d="M 531.5384610933904,-11.162307682961199 L 544.2516462637202,17.94342513087458 L 573.8220867522077,6.352143531227924 L 562.2308051525611,35.92258401971545 L 591.3365379663968,48.635769190045224 L 562.2308051525611,61.348954360375 L 573.8220867522077,90.91939484886252 L 544.2516462637202,79.32811324921587 L 531.5384610933904,108.43384606305165 L 518.8252759230606,79.32811324921587 L 489.2548354345731,90.91939484886252 L 500.8461170342198,61.34895436037502 L 471.740384220384,48.63576919004523 L 500.8461170342198,35.922584019715444 L 489.2548354345731,6.352143531227924 L 518.8252759230606,17.943425130874587 Z" fill="none" stroke="#FFFFFF" stroke-width="0.6720833779182673" /><path d="M 664.4230763667381,-11.162307682961199 L 677.1362615370679,17.94342513087458 L 706.7067020255554,6.352143531227924 L 695.1154204259087,35.92258401971545 L 724.2211532397445,48.635769190045224 L 695.1154204259087,61.348954360375 L 706.7067020255554,90.91939484886252 L 677.1362615370679,79.32811324921587 L 664.4230763667381,108.43384606305165 L 651.7098911964083,79.32811324921587 L 622.1394507079208,90.91939484886252 L 633.7307323075675,61.34895436037502 L 604.6249994937317,48.63576919004523 L 633.7307323075675,35.922584019715444 L 622.1394507079208,6.352143531227924 L 651.7098911964083,17.943425130874587 Z" fill="none" stroke="#FFFFFF" stroke-width="0.6720833779182673" /><path d="M 797.3076916400856,-11.162307682961199 L 810.0208768104154,17.94342513087458 L 839.5913172989029,6.352143531227924 L 828.0000356992563,35.92258401971545 L 857.105768513092,48.635769190045224 L 828.0000356992563,61.348954360375 L 839.5913172989029,90.91939484886252 L 810.0208768104154,79.32811324921587 L 797.3076916400856,108.43384606305165 L 784.5945064697559,79.32811324921587 L 755.0240659812683,90.91939484886252 L 766.615347580915,61.34895436037502 L 737.5096147670793,48.63576919004523 L 766.615347580915,35.922584019715444 L 755.0240659812683,6.352143531227924 L 784.5945064697559,17.943425130874587 Z" fill="none" stroke="#FFFFFF" stroke-width="0.6720833779182673" /><path d="M 930.1923069134332,-11.162307682961199 L 942.905492083763,17.94342513087458 L 972.4759325722505,6.352143531227924 L 960.8846509726038,35.92258401971545 L 989.9903837864396,48.635769190045224 L 960.8846509726038,61.348954360375 L 972.4759325722505,90.91939484886252 L 942.905492083763,79.32811324921587 L 930.1923069134332,108.43384606305165 L 917.4791217431034,79.32811324921587 L 887.9086812546159,90.91939484886252 L 899.4999628542625,61.34895436037502 L 870.3942300404268,48.63576919004523 L 899.4999628542625,35.922584019715444 L 887.9086812546159,6.352143531227924 L 917.4791217431034,17.943425130874587 Z" fill="none" stroke="#FFFFFF" stroke-width="0.6720833779182673" /><path d="M 1063.0769221867808,-11.162307682961199 L 1075.7901073571106,17.94342513087458 L 1105.3605478455981,6.352143531227924 L 1093.7692662459515,35.92258401971545 L 1122.8749990597873,48.635769190045224 L 1093.7692662459515,61.348954360375 L 1105.3605478455981,90.91939484886252 L 1075.7901073571106,79.32811324921587 L 1063.0769221867808,108.43384606305165 L 1050.363737016451,79.32811324921587 L 1020.7932965279635,90.91939484886252 L 1032.3845781276102,61.34895436037502 L 1003.2788453137745,48.63576919004523 L 1032.3845781276102,35.922584019715444 L 1020.7932965279635,6.352143531227924 L 1050.363737016451,17.943425130874587 Z" fill="none" stroke="#FFFFFF" stroke-width="0.6720833779182673" /><path d="M 1195.9615374601285,-11.162307682961199 L 1208.6747226304583,17.94342513087458 L 1238.2451631189458,6.352143531227924 L 1226.6538815192991,35.92258401971545 L 1255.759614333135,48.635769190045224 L 1226.6538815192991,61.348954360375 L 1238.2451631189458,90.91939484886252 L 1208.6747226304583,79.32811324921587 L 1195.9615374601285,108.43384606305165 L 1183.2483522897987,79.32811324921587 L 1153.6779118013112,90.91939484886252 L 1165.2691934009579,61.34895436037502 L 1136.163460587122,48.63576919004523 L 1165.2691934009579,35.922584019715444 L 1153.6779118013112,6.352143531227924 L 1183.2483522897987,17.943425130874587 Z" fill="none" stroke="#FFFFFF" stroke-width="0.6720833779182673" /><path d="M 1328.8461527334762,-11.162307682961199 L 1341.559337903806,17.94342513087458 L 1371.1297783922935,6.352143531227924 L 1359.5384967926468,35.92258401971545 L 1388.6442296064827,48.635769190045224 L 1359.5384967926468,61.348954360375 L 1371.1297783922935,90.91939484886252 L 1341.559337903806,79.32811324921587 L 1328.8461527334762,108.43384606305165 L 1316.1329675631464,79.32811324921587 L 1286.5625270746589,90.91939484886252 L 1298.1538086743055,61.34895436037502 L 1269.0480758604697,48.63576919004523 L 1298.1538086743055,35.922584019715444 L 1286.5625270746589,6.352143531227924 L 1316.1329675631464,17.943425130874587 Z" fill="none" stroke="#FFFFFF" stroke-width="0.6720833779182673" /><path d="M 1461.7307680068236,-11.162307682961199 L 1474.4439531771534,17.94342513087458 L 1504.014393665641,6.352143531227924 L 1492.4231120659942,35.92258401971545 L 1521.52884487983,48.635769190045224 L 1492.4231120659942,61.348954360375 L 1504.014393665641,90.91939484886252 L 1474.4439531771534,79.32811324921587 L 1461.7307680068236,108.43384606305165 L 1449.0175828364938,79.32811324921587 L 1419.4471423480063,90.91939484886252 L 1431.038423947653,61.34895436037502 L 1401.9326911338171,48.63576919004523 L 1431.038423947653,35.922584019715444 L 1419.4471423480063,6.352143531227924 L 1449.0175828364938,17.943425130874587 Z" fill="none" stroke="#FFFFFF" stroke-width="0.6720833779182673" /><path d="M 1594.6153832801713,-11.162307682961199 L 1607.328568450501,17.94342513087458 L 1636.8990089389886,6.352143531227924 L 1625.307727339342,35.92258401971545 L 1654.4134601531778,48.635769190045224 L 1625.307727339342,61.348954360375 L 1636.8990089389886,90.91939484886252 L 1607.328568450501,79.32811324921587 L 1594.6153832801713,108.43384606305165 L 1581.9021981098415,79.32811324921587 L 1552.331757621354,90.91939484886252 L 1563.9230392210006,61.34895436037502 L 1534.8173064071648,48.63576919004523 L 1563.9230392210006,35.922584019715444 L 1552.331757621354,6.352143531227924 L 1581.9021981098415,17.943425130874587 Z" fill="none" stroke="#FFFFFF" stroke-width="0.6720833779182673" /><path d="M 1727.499998553519,-11.162307682961199 L 1740.2131837238487,17.94342513087458 L 1769.7836242123362,6.352143531227924 L 1758.1923426126896,35.92258401971545 L 1787.2980754265254,48.635769190045224 L 1758.1923426126896,61.348954360375 L 1769.7836242123362,90.91939484886252 L 1740.2131837238487,79.32811324921587 L 1727.499998553519,108.43384606305165 L 1714.7868133831892,79.32811324921587 L 1685.2163728947016,90.91939484886252 L 1696.8076544943483,61.34895436037502 L 1667.7019216805124,48.63576919004523 L 1696.8076544943483,35.922584019715444 L 1685.2163728947016,6.352143531227924 L 1714.7868133831892,17.943425130874587 Z" fill="none" stroke="#FFFFFF" stroke-width="0.6720833779182673" /><path d="M 1860.3846138268664,-11.162307682961199 L 1873.0977989971962,17.94342513087458 L 1902.6682394856837,6.352143531227924 L 1891.076957886037,35.92258401971545 L 1920.1826906998729,48.635769190045224 L 1891.076957886037,61.348954360375 L 1902.6682394856837,90.91939484886252 L 1873.0977989971962,79.32811324921587 L 1860.3846138268664,108.43384606305165 L 1847.6714286565366,79.32811324921587 L 1818.100988168049,90.91939484886252 L 1829.6922697676957,61.34895436037502 L 1800.5865369538599,48.63576919004523 L 1829.6922697676957,35.922584019715444 L 1818.100988168049,6.352143531227924 L 1847.6714286565366,17.943425130874587 Z" fill="none" stroke="#FFFFFF" stroke-width="0.6720833779182673" /><path d="M 1993.269229100214,-11.162307682961199 L 2005.9824142705438,17.94342513087458 L 2035.5528547590313,6.352143531227924 L 2023.9615731593847,35.92258401971545 L 2053.0673059732203,48.635769190045224 L 2023.9615731593847,61.348954360375 L 2035.5528547590313,90.91939484886252 L 2005.9824142705438,79.32811324921587 L 1993.269229100214,108.43384606305165 L 1980.5560439298843,79.32811324921587 L 1950.9856034413967,90.91939484886252 L 1962.5768850410434,61.34895436037502 L 1933.4711522272075,48.63576919004523 L 1962.5768850410434,35.922584019715444 L 1950.9856034413967,6.352143531227924 L 1980.5560439298843,17.943425130874587 Z" fill="none" stroke="#FFFFFF" stroke-width="0.6720833779182673" /><path d="M -66.4423076366738,103.91576914375783 L -53.72912246634402,133.0215019575936 L -24.158681977856503,121.43022035794695 L -35.74996357750316,151.00066084643447 L -6.64423076366738,163.71384601676425 L -35.74996357750316,176.42703118709403 L -24.158681977856503,205.99747167558155 L -53.72912246634402,194.4061900759349 L -66.4423076366738,223.5119228897707 L -79.15549280700358,194.4061900759349 L -108.7259332954911,205.99747167558155 L -97.13465169584444,176.42703118709403 L -126.24038450968023,163.71384601676425 L -97.13465169584444,151.00066084643447 L -108.7259332954911,121.43022035794695 L -79.1554928070036,133.0215019575936 Z" fill="none" stroke="#FFFFFF" stroke-width="0.6720833779182673" /><path d="M 66.4423076366738,103.91576914375783 L 79.15549280700358,133.0215019575936 L 108.7259332954911,121.43022035794695 L 97.13465169584444,151.00066084643447 L 126.24038450968023,163.71384601676425 L 97.13465169584444,176.42703118709403 L 108.7259332954911,205.99747167558155 L 79.15549280700358,194.4061900759349 L 66.4423076366738,223.5119228897707 L 53.72912246634403,194.4061900759349 L 24.158681977856503,205.99747167558155 L 35.749963577503166,176.42703118709403 L 6.64423076366738,163.71384601676425 L 35.749963577503166,151.00066084643447 L 24.158681977856496,121.43022035794695 L 53.72912246634401,133.0215019575936 Z" fill="none" stroke="#FFFFFF" stroke-width="0.6720833779182673" /><path d="M 199.3269229100214,103.91576914375783 L 212.0401080803512,133.0215019575936 L 241.6105485688387,121.43022035794695 L 230.01926696919205,151.00066084643447 L 259.1249997830278,163.71384601676425 L 230.01926696919205,176.42703118709403 L 241.6105485688387,205.99747167558155 L 212.0401080803512,194.4061900759349 L 199.3269229100214,223.5119228897707 L 186.61373773969163,194.4061900759349 L 157.0432972512041,205.99747167558155 L 168.63457885085077,176.42703118709403 L 139.528846037015,163.71384601676425 L 168.63457885085077,151.00066084643447 L 157.0432972512041,121.43022035794695 L 186.61373773969163,133.0215019575936 Z" fill="none" stroke="#FFFFFF" stroke-width="0.6720833779182673" /><path d="M 332.21153818336904,103.91576914375783 L 344.9247233536988,133.0215019575936 L 374.49516384218634,121.43022035794695 L 362.9038822425397,151.00066084643447 L 392.0096150563755,163.71384601676425 L 362.9038822425397,176.42703118709403 L 374.49516384218634,205.99747167558155 L 344.9247233536988,194.4061900759349 L 332.21153818336904,223.5119228897707 L 319.49835301303926,194.4061900759349 L 289.92791252455174,205.99747167558155 L 301.5191941241984,176.42703118709403 L 272.4134613103626,163.71384601676425 L 301.5191941241984,151.00066084643447 L 289.92791252455174,121.43022035794695 L 319.49835301303926,133.0215019575936 Z" fill="none" stroke="#FFFFFF" stroke-width="0.6720833779182673" /><path d="M 465.0961534567166,103.91576914375783 L 477.8093386270464,133.0215019575936 L 507.3797791155339,121.43022035794695 L 495.78849751588723,151.00066084643447 L 524.894230329723,163.71384601676425 L 495.78849751588723,176.42703118709403 L 507.3797791155339,205.99747167558155 L 477.8093386270464,194.4061900759349 L 465.0961534567166,223.5119228897707 L 452.3829682863868,194.4061900759349 L 422.8125277978993,205.99747167558155 L 434.40380939754596,176.42703118709403 L 405.29807658371016,163.71384601676425 L 434.40380939754596,151.00066084643447 L 422.8125277978993,121.43022035794695 L 452.3829682863868,133.0215019575936 Z" fill="none" stroke="#FFFFFF" stroke-width="0.6720833779182673" /><path d="M 597.9807687300643,103.91576914375783 L 610.693953900394,133.0215019575936 L 640.2643943888816,121.43022035794695 L 628.6731127892349,151.00066084643447 L 657.7788456030706,163.71384601676425 L 628.6731127892349,176.42703118709403 L 640.2643943888816,205.99747167558155 L 610.693953900394,194.4061900759349 L 597.9807687300643,223.5119228897707 L 585.2675835597345,194.4061900759349 L 555.697143071247,205.99747167558155 L 567.2884246708936,176.42703118709403 L 538.1826918570579,163.71384601676425 L 567.2884246708936,151.00066084643447 L 555.697143071247,121.43022035794695 L 585.2675835597345,133.0215019575936 Z" fill="none" stroke="#FFFFFF" stroke-width="0.6720833779182673" /><path d="M 730.8653840034118,103.91576914375783 L 743.5785691737416,133.0215019575936 L 773.1490096622291,121.43022035794695 L 761.5577280625824,151.00066084643447 L 790.6634608764182,163.71384601676425 L 761.5577280625824,176.42703118709403 L 773.1490096622291,205.99747167558155 L 743.5785691737416,194.4061900759349 L 730.8653840034118,223.5119228897707 L 718.152198833082,194.4061900759349 L 688.5817583445945,205.99747167558155 L 700.1730399442412,176.42703118709403 L 671.0673071304054,163.71384601676425 L 700.1730399442412,151.00066084643447 L 688.5817583445945,121.43022035794695 L 718.152198833082,133.0215019575936 Z" fill="none" stroke="#FFFFFF" stroke-width="0.6720833779182673" /><path d="M 863.7499992767594,103.91576914375783 L 876.4631844470891,133.0215019575936 L 906.0336249355767,121.43022035794695 L 894.44234333593,151.00066084643447 L 923.5480761497657,163.71384601676425 L 894.44234333593,176.42703118709403 L 906.0336249355767,205.99747167558155 L 876.4631844470891,194.4061900759349 L 863.7499992767594,223.5119228897707 L 851.0368141064296,194.4061900759349 L 821.466373617942,205.99747167558155 L 833.0576552175887,176.42703118709403 L 803.951922403753,163.71384601676425 L 833.0576552175887,151.00066084643447 L 821.466373617942,121.43022035794695 L 851.0368141064296,133.0215019575936 Z" fill="none" stroke="#FFFFFF" stroke-width="0.6720833779182673" /><path d="M 996.634614550107,103.91576914375783 L 1009.3477997204368,133.0215019575936 L 1038.9182402089243,121.43022035794695 L 1027.3269586092777,151.00066084643447 L 1056.4326914231135,163.71384601676425 L 1027.3269586092777,176.42703118709403 L 1038.9182402089243,205.99747167558155 L 1009.3477997204368,194.4061900759349 L 996.634614550107,223.5119228897707 L 983.9214293797772,194.4061900759349 L 954.3509888912897,205.99747167558155 L 965.9422704909364,176.42703118709403 L 936.8365376771006,163.71384601676425 L 965.9422704909364,151.00066084643447 L 954.3509888912897,121.43022035794695 L 983.9214293797772,133.0215019575936 Z" fill="none" stroke="#FFFFFF" stroke-width="0.6720833779182673" /><path d="M 1129.5192298234547,103.91576914375783 L 1142.2324149937845,133.0215019575936 L 1171.802855482272,121.43022035794695 L 1160.2115738826253,151.00066084643447 L 1189.3173066964612,163.71384601676425 L 1160.2115738826253,176.42703118709403 L 1171.802855482272,205.99747167558155 L 1142.2324149937845,194.4061900759349 L 1129.5192298234547,223.5119228897707 L 1116.806044653125,194.4061900759349 L 1087.2356041646374,205.99747167558155 L 1098.826885764284,176.42703118709403 L 1069.7211529504482,163.71384601676425 L 1098.826885764284,151.00066084643447 L 1087.2356041646374,121.43022035794695 L 1116.806044653125,133.0215019575936 Z" fill="none" stroke="#FFFFFF" stroke-width="0.6720833779182673" /><path d="M 1262.4038450968023,103.91576914375783 L 1275.1170302671321,133.0215019575936 L 1304.6874707556196,121.43022035794695 L 1293.096189155973,151.00066084643447 L 1322.2019219698088,163.71384601676425 L 1293.096189155973,176.42703118709403 L 1304.6874707556196,205.99747167558155 L 1275.1170302671321,194.4061900759349 L 1262.4038450968023,223.5119228897707 L 1249.6906599264726,194.4061900759349 L 1220.120219437985,205.99747167558155 L 1231.7115010376317,176.42703118709403 L 1202.6057682237958,163.71384601676425 L 1231.7115010376317,151.00066084643447 L 1220.120219437985,121.43022035794695 L 1249.6906599264726,133.0215019575936 Z" fill="none" stroke="#FFFFFF" stroke-width="0.6720833779182673" /><path d="M 1395.2884603701498,103.91576914375783 L 1408.0016455404796,133.0215019575936 L 1437.572086028967,121.43022035794695 L 1425.9808044293204,151.00066084643447 L 1455.0865372431563,163.71384601676425 L 1425.9808044293204,176.42703118709403 L 1437.572086028967,205.99747167558155 L 1408.0016455404796,194.4061900759349 L 1395.2884603701498,223.5119228897707 L 1382.57527519982,194.4061900759349 L 1353.0048347113325,205.99747167558155 L 1364.5961163109791,176.42703118709403 L 1335.4903834971433,163.71384601676425 L 1364.5961163109791,151.00066084643447 L 1353.0048347113325,121.43022035794695 L 1382.57527519982,133.0215019575936 Z" fill="none" stroke="#FFFFFF" stroke-width="0.6720833779182673" /><path d="M 1528.1730756434974,103.91576914375783 L 1540.8862608138272,133.0215019575936 L 1570.4567013023147,121.43022035794695 L 1558.865419702668,151.00066084643447 L 1587.971152516504,163.71384601676425 L 1558.865419702668,176.42703118709403 L 1570.4567013023147,205.99747167558155 L 1540.8862608138272,194.4061900759349 L 1528.1730756434974,223.5119228897707 L 1515.4598904731677,194.4061900759349 L 1485.8894499846801,205.99747167558155 L 1497.4807315843268,176.42703118709403 L 1468.374998770491,163.71384601676425 L 1497.4807315843268,151.00066084643447 L 1485.8894499846801,121.43022035794695 L 1515.4598904731677,133.0215019575936 Z" fill="none" stroke="#FFFFFF" stroke-width="0.6720833779182673" /><path d="M 1661.057690916845,103.91576914375783 L 1673.7708760871749,133.0215019575936 L 1703.3413165756624,121.43022035794695 L 1691.7500349760157,151.00066084643447 L 1720.8557677898516,163.71384601676425 L 1691.7500349760157,176.42703118709403 L 1703.3413165756624,205.99747167558155 L 1673.7708760871749,194.4061900759349 L 1661.057690916845,223.5119228897707 L 1648.3445057465153,194.4061900759349 L 1618.7740652580278,205.99747167558155 L 1630.3653468576745,176.42703118709403 L 1601.2596140438386,163.71384601676425 L 1630.3653468576745,151.00066084643447 L 1618.7740652580278,121.43022035794695 L 1648.3445057465153,133.0215019575936 Z" fill="none" stroke="#FFFFFF" stroke-width="0.6720833779182673" /><path d="M 1793.9423061901925,103.91576914375783 L 1806.6554913605223,133.0215019575936 L 1836.2259318490098,121.43022035794695 L 1824.6346502493632,151.00066084643447 L 1853.740383063199,163.71384601676425 L 1824.6346502493632,176.42703118709403 L 1836.2259318490098,205.99747167558155 L 1806.6554913605223,194.4061900759349 L 1793.9423061901925,223.5119228897707 L 1781.2291210198628,194.4061900759349 L 1751.6586805313752,205.99747167558155 L 1763.249962131022,176.42703118709403 L 1734.144229317186,163.71384601676425 L 1763.249962131022,151.00066084643447 L 1751.6586805313752,121.43022035794695 L 1781.2291210198628,133.0215019575936 Z" fill="none" stroke="#FFFFFF" stroke-width="0.6720833779182673" /><path d="M 1926.8269214635402,103.91576914375783 L 1939.54010663387,133.0215019575936 L 1969.1105471223575,121.43022035794695 L 1957.5192655227108,151.00066084643447 L 1986.6249983365467,163.71384601676425 L 1957.5192655227108,176.42703118709403 L 1969.1105471223575,205.99747167558155 L 1939.54010663387,194.4061900759349 L 1926.8269214635402,223.5119228897707 L 1914.1137362932104,194.4061900759349 L 1884.543295804723,205.99747167558155 L 1896.1345774043696,176.42703118709403 L 1867.0288445905337,163.71384601676425 L 1896.1345774043696,151.00066084643447 L 1884.543295804723,121.43022035794695 L 1914.1137362932104,133.0215019575936 Z" fill="none" stroke="#FFFFFF" stroke-width="0.6720833779182673" /><path d="M 3.661576171884734e-15,218.9938459704768 L 12.713185170329776,248.0995787843126 L 42.2836256588173,236.50829718466593 L 30.692344059170644,266.07873767315346 L 59.79807687300642,278.79192284348323 L 30.692344059170644,291.505108013813 L 42.2836256588173,321.07554850230053 L 12.713185170329776,309.48426690265387 L 3.661576171884734e-15,338.5899997164897 L -12.713185170329773,309.48426690265387 L -42.2836256588173,321.07554850230053 L -30.692344059170637,291.505108013813 L -59.79807687300642,278.79192284348323 L -30.69234405917064,266.07873767315346 L -42.28362565881731,236.50829718466593 L -12.713185170329792,248.0995787843126 Z" fill="none" stroke="#FFFFFF" stroke-width="0.6720833779182673" /><path d="M 132.8846152733476,218.9938459704768 L 145.5978004436774,248.0995787843126 L 175.1682409321649,236.50829718466593 L 163.57695933251824,266.07873767315346 L 192.68269214635404,278.79192284348323 L 163.57695933251824,291.505108013813 L 175.1682409321649,321.07554850230053 L 145.5978004436774,309.48426690265387 L 132.8846152733476,338.5899997164897 L 120.17143010301783,309.48426690265387 L 90.6009896145303,321.07554850230053 L 102.19227121417697,291.505108013813 L 73.08653840034118,278.79192284348323 L 102.19227121417697,266.07873767315346 L 90.6009896145303,236.50829718466593 L 120.17143010301781,248.0995787843126 Z" fill="none" stroke="#FFFFFF" stroke-width="0.6720833779182673" /><path d="M 265.7692305466952,218.9938459704768 L 278.482415717025,248.0995787843126 L 308.0528562055125,236.50829718466593 L 296.46157460586585,266.07873767315346 L 325.56730741970165,278.79192284348323 L 296.46157460586585,291.505108013813 L 308.0528562055125,321.07554850230053 L 278.482415717025,309.48426690265387 L 265.7692305466952,338.5899997164897 L 253.05604537636543,309.48426690265387 L 223.4856048878779,321.07554850230053 L 235.07688648752458,291.505108013813 L 205.97115367368878,278.79192284348323 L 235.07688648752458,266.07873767315346 L 223.4856048878779,236.50829718466593 L 253.05604537636543,248.0995787843126 Z" fill="none" stroke="#FFFFFF" stroke-width="0.6720833779182673" /><path d="M 398.6538458200429,218.9938459704768 L 411.36703099037265,248.0995787843126 L 440.9374714788602,236.50829718466593 L 429.3461898792135,266.07873767315346 L 458.4519226930493,278.79192284348323 L 429.3461898792135,291.505108013813 L 440.9374714788602,321.07554850230053 L 411.36703099037265,309.48426690265387 L 398.6538458200429,338.5899997164897 L 385.9406606497131,309.48426690265387 L 356.3702201612256,321.07554850230053 L 367.96150176087224,291.505108013813 L 338.85576894703644,278.79192284348323 L 367.96150176087224,266.07873767315346 L 356.3702201612256,236.50829718466593 L 385.9406606497131,248.0995787843126 Z" fill="none" stroke="#FFFFFF" stroke-width="0.6720833779182673" /><path d="M 531.5384610933904,218.9938459704768 L 544.2516462637202,248.0995787843126 L 573.8220867522077,236.50829718466593 L 562.2308051525611,266.07873767315346 L 591.3365379663968,278.79192284348323 L 562.2308051525611,291.505108013813 L 573.8220867522077,321.07554850230053 L 544.2516462637202,309.48426690265387 L 531.5384610933904,338.5899997164897 L 518.8252759230606,309.48426690265387 L 489.2548354345731,321.07554850230053 L 500.8461170342198,291.505108013813 L 471.740384220384,278.79192284348323 L 500.8461170342198,266.07873767315346 L 489.2548354345731,236.50829718466593 L 518.8252759230606,248.0995787843126 Z" fill="none" stroke="#FFFFFF" stroke-width="0.6720833779182673" /><path d="M 664.4230763667381,218.9938459704768 L 677.1362615370679,248.0995787843126 L 706.7067020255554,236.50829718466593 L 695.1154204259087,266.07873767315346 L 724.2211532397445,278.79192284348323 L 695.1154204259087,291.505108013813 L 706.7067020255554,321.07554850230053 L 677.1362615370679,309.48426690265387 L 664.4230763667381,338.5899997164897 L 651.7098911964083,309.48426690265387 L 622.1394507079208,321.07554850230053 L 633.7307323075675,291.505108013813 L 604.6249994937317,278.79192284348323 L 633.7307323075675,266.07873767315346 L 622.1394507079208,236.50829718466593 L 651.7098911964083,248.0995787843126 Z" fill="none" stroke="#FFFFFF" stroke-width="0.6720833779182673" /><path d="M 797.3076916400856,218.9938459704768 L 810.0208768104154,248.0995787843126 L 839.5913172989029,236.50829718466593 L 828.0000356992563,266.07873767315346 L 857.105768513092,278.79192284348323 L 828.0000356992563,291.505108013813 L 839.5913172989029,321.07554850230053 L 810.0208768104154,309.48426690265387 L 797.3076916400856,338.5899997164897 L 784.5945064697559,309.48426690265387 L 755.0240659812683,321.07554850230053 L 766.615347580915,291.505108013813 L 737.5096147670793,278.79192284348323 L 766.615347580915,266.07873767315346 L 755.0240659812683,236.50829718466593 L 784.5945064697559,248.0995787843126 Z" fill="none" stroke="#FFFFFF" stroke-width="0.6720833779182673" /><path d="M 930.1923069134332,218.9938459704768 L 942.905492083763,248.0995787843126 L 972.4759325722505,236.50829718466593 L 960.8846509726038,266.07873767315346 L 989.9903837864396,278.79192284348323 L 960.8846509726038,291.505108013813 L 972.4759325722505,321.07554850230053 L 942.905492083763,309.48426690265387 L 930.1923069134332,338.5899997164897 L 917.4791217431034,309.48426690265387 L 887.9086812546159,321.07554850230053 L 899.4999628542625,291.505108013813 L 870.3942300404268,278.79192284348323 L 899.4999628542625,266.07873767315346 L 887.9086812546159,236.50829718466593 L 917.4791217431034,248.0995787843126 Z" fill="none" stroke="#FFFFFF" stroke-width="0.6720833779182673" /><path d="M 1063.0769221867808,218.9938459704768 L 1075.7901073571106,248.0995787843126 L 1105.3605478455981,236.50829718466593 L 1093.7692662459515,266.07873767315346 L 1122.8749990597873,278.79192284348323 L 1093.7692662459515,291.505108013813 L 1105.3605478455981,321.07554850230053 L 1075.7901073571106,309.48426690265387 L 1063.0769221867808,338.5899997164897 L 1050.363737016451,309.48426690265387 L 1020.7932965279635,321.07554850230053 L 1032.3845781276102,291.505108013813 L 1003.2788453137745,278.79192284348323 L 1032.3845781276102,266.07873767315346 L 1020.7932965279635,236.50829718466593 L 1050.363737016451,248.0995787843126 Z" fill="none" stroke="#FFFFFF" stroke-width="0.6720833779182673" /><path d="M 1195.9615374601285,218.9938459704768 L 1208.6747226304583,248.0995787843126 L 1238.2451631189458,236.50829718466593 L 1226.6538815192991,266.07873767315346 L 1255.759614333135,278.79192284348323 L 1226.6538815192991,291.505108013813 L 1238.2451631189458,321.07554850230053 L 1208.6747226304583,309.48426690265387 L 1195.9615374601285,338.5899997164897 L 1183.2483522897987,309.48426690265387 L 1153.6779118013112,321.07554850230053 L 1165.2691934009579,291.505108013813 L 1136.163460587122,278.79192284348323 L 1165.2691934009579,266.07873767315346 L 1153.6779118013112,236.50829718466593 L 1183.2483522897987,248.0995787843126 Z" fill="none" stroke="#FFFFFF" stroke-width="0.6720833779182673" /><path d="M 1328.8461527334762,218.9938459704768 L 1341.559337903806,248.0995787843126 L 1371.1297783922935,236.50829718466593 L 1359.5384967926468,266.07873767315346 L 1388.6442296064827,278.79192284348323 L 1359.5384967926468,291.505108013813 L 1371.1297783922935,321.07554850230053 L 1341.559337903806,309.48426690265387 L 1328.8461527334762,338.5899997164897 L 1316.1329675631464,309.48426690265387 L 1286.5625270746589,321.07554850230053 L 1298.1538086743055,291.505108013813 L 1269.0480758604697,278.79192284348323 L 1298.1538086743055,266.07873767315346 L 1286.5625270746589,236.50829718466593 L 1316.1329675631464,248.0995787843126 Z" fill="none" stroke="#FFFFFF" stroke-width="0.6720833779182673" /><path d="M 1461.7307680068236,218.9938459704768 L 1474.4439531771534,248.0995787843126 L 1504.014393665641,236.50829718466593 L 1492.4231120659942,266.07873767315346 L 1521.52884487983,278.79192284348323 L 1492.4231120659942,291.505108013813 L 1504.014393665641,321.07554850230053 L 1474.4439531771534,309.48426690265387 L 1461.7307680068236,338.5899997164897 L 1449.0175828364938,309.48426690265387 L 1419.4471423480063,321.07554850230053 L 1431.038423947653,291.505108013813 L 1401.9326911338171,278.79192284348323 L 1431.038423947653,266.07873767315346 L 1419.4471423480063,236.50829718466593 L 1449.0175828364938,248.0995787843126 Z" fill="none" stroke="#FFFFFF" stroke-width="0.6720833779182673" /><path d="M 1594.6153832801713,218.9938459704768 L 1607.328568450501,248.0995787843126 L 1636.8990089389886,236.50829718466593 L 1625.307727339342,266.07873767315346 L 1654.4134601531778,278.79192284348323 L 1625.307727339342,291.505108013813 L 1636.8990089389886,321.07554850230053 L 1607.328568450501,309.48426690265387 L 1594.6153832801713,338.5899997164897 L 1581.9021981098415,309.48426690265387 L 1552.331757621354,321.07554850230053 L 1563.9230392210006,291.505108013813 L 1534.8173064071648,278.79192284348323 L 1563.9230392210006,266.07873767315346 L 1552.331757621354,236.50829718466593 L 1581.9021981098415,248.0995787843126 Z" fill="none" stroke="#FFFFFF" stroke-width="0.6720833779182673" /><path d="M 1727.499998553519,218.9938459704768 L 1740.2131837238487,248.0995787843126 L 1769.7836242123362,236.50829718466593 L 1758.1923426126896,266.07873767315346 L 1787.2980754265254,278.79192284348323 L 1758.1923426126896,291.505108013813 L 1769.7836242123362,321.07554850230053 L 1740.2131837238487,309.48426690265387 L 1727.499998553519,338.5899997164897 L 1714.7868133831892,309.48426690265387 L 1685.2163728947016,321.07554850230053 L 1696.8076544943483,291.505108013813 L 1667.7019216805124,278.79192284348323 L 1696.8076544943483,266.07873767315346 L 1685.2163728947016,236.50829718466593 L 1714.7868133831892,248.0995787843126 Z" fill="none" stroke="#FFFFFF" stroke-width="0.6720833779182673" /><path d="M 1860.3846138268664,218.9938459704768 L 1873.0977989971962,248.0995787843126 L 1902.6682394856837,236.50829718466593 L 1891.076957886037,266.07873767315346 L 1920.1826906998729,278.79192284348323 L 1891.076957886037,291.505108013813 L 1902.6682394856837,321.07554850230053 L 1873.0977989971962,309.48426690265387 L 1860.3846138268664,338.5899997164897 L 1847.6714286565366,309.48426690265387 L 1818.100988168049,321.07554850230053 L 1829.6922697676957,291.505108013813 L 1800.5865369538599,278.79192284348323 L 1829.6922697676957,266.07873767315346 L 1818.100988168049,236.50829718466593 L 1847.6714286565366,248.0995787843126 Z" fill="none" stroke="#FFFFFF" stroke-width="0.6720833779182673" /><path d="M 1993.269229100214,218.9938459704768 L 2005.9824142705438,248.0995787843126 L 2035.5528547590313,236.50829718466593 L 2023.9615731593847,266.07873767315346 L 2053.0673059732203,278.79192284348323 L 2023.9615731593847,291.505108013813 L 2035.5528547590313,321.07554850230053 L 2005.9824142705438,309.48426690265387 L 1993.269229100214,338.5899997164897 L 1980.5560439298843,309.48426690265387 L 1950.9856034413967,321.07554850230053 L 1962.5768850410434,291.505108013813 L 1933.4711522272075,278.79192284348323 L 1962.5768850410434,266.07873767315346 L 1950.9856034413967,236.50829718466593 L 1980.5560439298843,248.0995787843126 Z" fill="none" stroke="#FFFFFF" stroke-width="0.6720833779182673" /><path d="M -66.4423076366738,334.0719227971959 L -53.72912246634402,363.1776556110317 L -24.158681977856503,351.58637401138503 L -35.74996357750316,381.15681449987255 L -6.64423076366738,393.86999967020233 L -35.74996357750316,406.5831848405321 L -24.158681977856503,436.15362532901963 L -53.72912246634402,424.56234372937297 L -66.4423076366738,453.66807654320877 L -79.15549280700358,424.56234372937297 L -108.7259332954911,436.15362532901963 L -97.13465169584444,406.5831848405321 L -126.24038450968023,393.86999967020233 L -97.13465169584444,381.15681449987255 L -108.7259332954911,351.58637401138503 L -79.1554928070036,363.1776556110317 Z" fill="none" stroke="#FFFFFF" stroke-width="0.6720833779182673" /><path d="M 66.4423076366738,334.0719227971959 L 79.15549280700358,363.1776556110317 L 108.7259332954911,351.58637401138503 L 97.13465169584444,381.15681449987255 L 126.24038450968023,393.86999967020233 L 97.13465169584444,406.5831848405321 L 108.7259332954911,436.15362532901963 L 79.15549280700358,424.56234372937297 L 66.4423076366738,453.66807654320877 L 53.72912246634403,424.56234372937297 L 24.158681977856503,436.15362532901963 L 35.749963577503166,406.5831848405321 L 6.64423076366738,393.86999967020233 L 35.749963577503166,381.15681449987255 L 24.158681977856496,351.58637401138503 L 53.72912246634401,363.1776556110317 Z" fill="none" stroke="#FFFFFF" stroke-width="0.6720833779182673" /><path d="M 199.3269229100214,334.0719227971959 L 212.0401080803512,363.1776556110317 L 241.6105485688387,351.58637401138503 L 230.01926696919205,381.15681449987255 L 259.1249997830278,393.86999967020233 L 230.01926696919205,406.5831848405321 L 241.6105485688387,436.15362532901963 L 212.0401080803512,424.56234372937297 L 199.3269229100214,453.66807654320877 L 186.61373773969163,424.56234372937297 L 157.0432972512041,436.15362532901963 L 168.63457885085077,406.5831848405321 L 139.528846037015,393.86999967020233 L 168.63457885085077,381.15681449987255 L 157.0432972512041,351.58637401138503 L 186.61373773969163,363.1776556110317 Z" fill="none" stroke="#FFFFFF" stroke-width="0.6720833779182673" /><path d="M 332.21153818336904,334.0719227971959 L 344.9247233536988,363.1776556110317 L 374.49516384218634,351.58637401138503 L 362.9038822425397,381.15681449987255 L 392.0096150563755,393.86999967020233 L 362.9038822425397,406.5831848405321 L 374.49516384218634,436.15362532901963 L 344.9247233536988,424.56234372937297 L 332.21153818336904,453.66807654320877 L 319.49835301303926,424.56234372937297 L 289.92791252455174,436.15362532901963 L 301.5191941241984,406.5831848405321 L 272.4134613103626,393.86999967020233 L 301.5191941241984,381.15681449987255 L 289.92791252455174,351.58637401138503 L 319.49835301303926,363.1776556110317 Z" fill="none" stroke="#FFFFFF" stroke-width="0.6720833779182673" /><path d="M 465.0961534567166,334.0719227971959 L 477.8093386270464,363.1776556110317 L 507.3797791155339,351.58637401138503 L 495.78849751588723,381.15681449987255 L 524.894230329723,393.86999967020233 L 495.78849751588723,406.5831848405321 L 507.3797791155339,436.15362532901963 L 477.8093386270464,424.56234372937297 L 465.0961534567166,453.66807654320877 L 452.3829682863868,424.56234372937297 L 422.8125277978993,436.15362532901963 L 434.40380939754596,406.5831848405321 L 405.29807658371016,393.86999967020233 L 434.40380939754596,381.15681449987255 L 422.8125277978993,351.58637401138503 L 452.3829682863868,363.1776556110317 Z" fill="none" stroke="#FFFFFF" stroke-width="0.6720833779182673" /><path d="M 597.9807687300643,334.0719227971959 L 610.693953900394,363.1776556110317 L 640.2643943888816,351.58637401138503 L 628.6731127892349,381.15681449987255 L 657.7788456030706,393.86999967020233 L 628.6731127892349,406.5831848405321 L 640.2643943888816,436.15362532901963 L 610.693953900394,424.56234372937297 L 597.9807687300643,453.66807654320877 L 585.2675835597345,424.56234372937297 L 555.697143071247,436.15362532901963 L 567.2884246708936,406.5831848405321 L 538.1826918570579,393.86999967020233 L 567.2884246708936,381.15681449987255 L 555.697143071247,351.58637401138503 L 585.2675835597345,363.1776556110317 Z" fill="none" stroke="#FFFFFF" stroke-width="0.6720833779182673" /><path d="M 730.8653840034118,334.0719227971959 L 743.5785691737416,363.1776556110317 L 773.1490096622291,351.58637401138503 L 761.5577280625824,381.15681449987255 L 790.6634608764182,393.86999967020233 L 761.5577280625824,406.5831848405321 L 773.1490096622291,436.15362532901963 L 743.5785691737416,424.56234372937297 L 730.8653840034118,453.66807654320877 L 718.152198833082,424.56234372937297 L 688.5817583445945,436.15362532901963 L 700.1730399442412,406.5831848405321 L 671.0673071304054,393.86999967020233 L 700.1730399442412,381.15681449987255 L 688.5817583445945,351.58637401138503 L 718.152198833082,363.1776556110317 Z" fill="none" stroke="#FFFFFF" stroke-width="0.6720833779182673" /><path d="M 863.7499992767594,334.0719227971959 L 876.4631844470891,363.1776556110317 L 906.0336249355767,351.58637401138503 L 894.44234333593,381.15681449987255 L 923.5480761497657,393.86999967020233 L 894.44234333593,406.5831848405321 L 906.0336249355767,436.15362532901963 L 876.4631844470891,424.56234372937297 L 863.7499992767594,453.66807654320877 L 851.0368141064296,424.56234372937297 L 821.466373617942,436.15362532901963 L 833.0576552175887,406.5831848405321 L 803.951922403753,393.86999967020233 L 833.0576552175887,381.15681449987255 L 821.466373617942,351.58637401138503 L 851.0368141064296,363.1776556110317 Z" fill="none" stroke="#FFFFFF" stroke-width="0.6720833779182673" /><path d="M 996.634614550107,334.0719227971959 L 1009.3477997204368,363.1776556110317 L 1038.9182402089243,351.58637401138503 L 1027.3269586092777,381.15681449987255 L 1056.4326914231135,393.86999967020233 L 1027.3269586092777,406.5831848405321 L 1038.9182402089243,436.15362532901963 L 1009.3477997204368,424.56234372937297 L 996.634614550107,453.66807654320877 L 983.9214293797772,424.56234372937297 L 954.3509888912897,436.15362532901963 L 965.9422704909364,406.5831848405321 L 936.8365376771006,393.86999967020233 L 965.9422704909364,381.15681449987255 L 954.3509888912897,351.58637401138503 L 983.9214293797772,363.1776556110317 Z" fill="none" stroke="#FFFFFF" stroke-width="0.6720833779182673" /><path d="M 1129.5192298234547,334.0719227971959 L 1142.2324149937845,363.1776556110317 L 1171.802855482272,351.58637401138503 L 1160.2115738826253,381.15681449987255 L 1189.3173066964612,393.86999967020233 L 1160.2115738826253,406.5831848405321 L 1171.802855482272,436.15362532901963 L 1142.2324149937845,424.56234372937297 L 1129.5192298234547,453.66807654320877 L 1116.806044653125,424.56234372937297 L 1087.2356041646374,436.15362532901963 L 1098.826885764284,406.5831848405321 L 1069.7211529504482,393.86999967020233 L 1098.826885764284,381.15681449987255 L 1087.2356041646374,351.58637401138503 L 1116.806044653125,363.1776556110317 Z" fill="none" stroke="#FFFFFF" stroke-width="0.6720833779182673" /><path d="M 1262.4038450968023,334.0719227971959 L 1275.1170302671321,363.1776556110317 L 1304.6874707556196,351.58637401138503 L 1293.096189155973,381.15681449987255 L 1322.2019219698088,393.86999967020233 L 1293.096189155973,406.5831848405321 L 1304.6874707556196,436.15362532901963 L 1275.1170302671321,424.56234372937297 L 1262.4038450968023,453.66807654320877 L 1249.6906599264726,424.56234372937297 L 1220.120219437985,436.15362532901963 L 1231.7115010376317,406.5831848405321 L 1202.6057682237958,393.86999967020233 L 1231.7115010376317,381.15681449987255 L 1220.120219437985,351.58637401138503 L 1249.6906599264726,363.1776556110317 Z" fill="none" stroke="#FFFFFF" stroke-width="0.6720833779182673" /><path d="M 1395.2884603701498,334.0719227971959 L 1408.0016455404796,363.1776556110317 L 1437.572086028967,351.58637401138503 L 1425.9808044293204,381.15681449987255 L 1455.0865372431563,393.86999967020233 L 1425.9808044293204,406.5831848405321 L 1437.572086028967,436.15362532901963 L 1408.0016455404796,424.56234372937297 L 1395.2884603701498,453.66807654320877 L 1382.57527519982,424.56234372937297 L 1353.0048347113325,436.15362532901963 L 1364.5961163109791,406.5831848405321 L 1335.4903834971433,393.86999967020233 L 1364.5961163109791,381.15681449987255 L 1353.0048347113325,351.58637401138503 L 1382.57527519982,363.1776556110317 Z" fill="none" stroke="#FFFFFF" stroke-width="0.6720833779182673" /><path d="M 1528.1730756434974,334.0719227971959 L 1540.8862608138272,363.1776556110317 L 1570.4567013023147,351.58637401138503 L 1558.865419702668,381.15681449987255 L 1587.971152516504,393.86999967020233 L 1558.865419702668,406.5831848405321 L 1570.4567013023147,436.15362532901963 L 1540.8862608138272,424.56234372937297 L 1528.1730756434974,453.66807654320877 L 1515.4598904731677,424.56234372937297 L 1485.8894499846801,436.15362532901963 L 1497.4807315843268,406.5831848405321 L 1468.374998770491,393.86999967020233 L 1497.4807315843268,381.15681449987255 L 1485.8894499846801,351.58637401138503 L 1515.4598904731677,363.1776556110317 Z" fill="none" stroke="#FFFFFF" stroke-width="0.6720833779182673" /><path d="M 1661.057690916845,334.0719227971959 L 1673.7708760871749,363.1776556110317 L 1703.3413165756624,351.58637401138503 L 1691.7500349760157,381.15681449987255 L 1720.8557677898516,393.86999967020233 L 1691.7500349760157,406.5831848405321 L 1703.3413165756624,436.15362532901963 L 1673.7708760871749,424.56234372937297 L 1661.057690916845,453.66807654320877 L 1648.3445057465153,424.56234372937297 L 1618.7740652580278,436.15362532901963 L 1630.3653468576745,406.5831848405321 L 1601.2596140438386,393.86999967020233 L 1630.3653468576745,381.15681449987255 L 1618.7740652580278,351.58637401138503 L 1648.3445057465153,363.1776556110317 Z" fill="none" stroke="#FFFFFF" stroke-width="0.6720833779182673" /><path d="M 1793.9423061901925,334.0719227971959 L 1806.6554913605223,363.1776556110317 L 1836.2259318490098,351.58637401138503 L 1824.6346502493632,381.15681449987255 L 1853.740383063199,393.86999967020233 L 1824.6346502493632,406.5831848405321 L 1836.2259318490098,436.15362532901963 L 1806.6554913605223,424.56234372937297 L 1793.9423061901925,453.66807654320877 L 1781.2291210198628,424.56234372937297 L 1751.6586805313752,436.15362532901963 L 1763.249962131022,406.5831848405321 L 1734.144229317186,393.86999967020233 L 1763.249962131022,381.15681449987255 L 1751.6586805313752,351.58637401138503 L 1781.2291210198628,363.1776556110317 Z" fill="none" stroke="#FFFFFF" stroke-width="0.6720833779182673" /><path d="M 1926.8269214635402,334.0719227971959 L 1939.54010663387,363.1776556110317 L 1969.1105471223575,351.58637401138503 L 1957.5192655227108,381.15681449987255 L 1986.6249983365467,393.86999967020233 L 1957.5192655227108,406.5831848405321 L 1969.1105471223575,436.15362532901963 L 1939.54010663387,424.56234372937297 L 1926.8269214635402,453.66807654320877 L 1914.1137362932104,424.56234372937297 L 1884.543295804723,436.15362532901963 L 1896.1345774043696,406.5831848405321 L 1867.0288445905337,393.86999967020233 L 1896.1345774043696,381.15681449987255 L 1884.543295804723,351.58637401138503 L 1914.1137362932104,363.1776556110317 Z" fill="none" stroke="#FFFFFF" stroke-width="0.6720833779182673" /><path d="M 3.661576171884734e-15,449.1499996239149 L 12.713185170329776,478.2557324377507 L 42.2836256588173,466.664450838104 L 30.692344059170644,496.23489132659154 L 59.79807687300642,508.9480764969213 L 30.692344059170644,521.6612616672511 L 42.2836256588173,551.2317021557386 L 12.713185170329776,539.640420556092 L 3.661576171884734e-15,568.7461533699277 L -12.713185170329773,539.640420556092 L -42.2836256588173,551.2317021557386 L -30.692344059170637,521.6612616672511 L -59.79807687300642,508.9480764969213 L -30.69234405917064,496.23489132659154 L -42.28362565881731,466.664450838104 L -12.713185170329792,478.2557324377507 Z" fill="none" stroke="#FFFFFF" stroke-width="0.6720833779182673" /><path d="M 132.8846152733476,449.1499996239149 L 145.5978004436774,478.2557324377507 L 175.1682409321649,466.664450838104 L 163.57695933251824,496.23489132659154 L 192.68269214635404,508.9480764969213 L 163.57695933251824,521.6612616672511 L 175.1682409321649,551.2317021557386 L 145.5978004436774,539.640420556092 L 132.8846152733476,568.7461533699277 L 120.17143010301783,539.640420556092 L 90.6009896145303,551.2317021557386 L 102.19227121417697,521.6612616672511 L 73.08653840034118,508.9480764969213 L 102.19227121417697,496.23489132659154 L 90.6009896145303,466.664450838104 L 120.17143010301781,478.2557324377507 Z" fill="none" stroke="#FFFFFF" stroke-width="0.6720833779182673" /><path d="M 265.7692305466952,449.1499996239149 L 278.482415717025,478.2557324377507 L 308.0528562055125,466.664450838104 L 296.46157460586585,496.23489132659154 L 325.56730741970165,508.9480764969213 L 296.46157460586585,521.6612616672511 L 308.0528562055125,551.2317021557386 L 278.482415717025,539.640420556092 L 265.7692305466952,568.7461533699277 L 253.05604537636543,539.640420556092 L 223.4856048878779,551.2317021557386 L 235.07688648752458,521.6612616672511 L 205.97115367368878,508.9480764969213 L 235.07688648752458,496.23489132659154 L 223.4856048878779,466.664450838104 L 253.05604537636543,478.2557324377507 Z" fill="none" stroke="#FFFFFF" stroke-width="0.6720833779182673" /><path d="M 398.6538458200429,449.1499996239149 L 411.36703099037265,478.2557324377507 L 440.9374714788602,466.664450838104 L 429.3461898792135,496.23489132659154 L 458.4519226930493,508.9480764969213 L 429.3461898792135,521.6612616672511 L 440.9374714788602,551.2317021557386 L 411.36703099037265,539.640420556092 L 398.6538458200429,568.7461533699277 L 385.9406606497131,539.640420556092 L 356.3702201612256,551.2317021557386 L 367.96150176087224,521.6612616672511 L 338.85576894703644,508.9480764969213 L 367.96150176087224,496.23489132659154 L 356.3702201612256,466.664450838104 L 385.9406606497131,478.2557324377507 Z" fill="none" stroke="#FFFFFF" stroke-width="0.6720833779182673" /><path d="M 531.5384610933904,449.1499996239149 L 544.2516462637202,478.2557324377507 L 573.8220867522077,466.664450838104 L 562.2308051525611,496.23489132659154 L 591.3365379663968,508.9480764969213 L 562.2308051525611,521.6612616672511 L 573.8220867522077,551.2317021557386 L 544.2516462637202,539.640420556092 L 531.5384610933904,568.7461533699277 L 518.8252759230606,539.640420556092 L 489.2548354345731,551.2317021557386 L 500.8461170342198,521.6612616672511 L 471.740384220384,508.9480764969213 L 500.8461170342198,496.23489132659154 L 489.2548354345731,466.664450838104 L 518.8252759230606,478.2557324377507 Z" fill="none" stroke="#FFFFFF" stroke-width="0.6720833779182673" /><path d="M 664.4230763667381,449.1499996239149 L 677.1362615370679,478.2557324377507 L 706.7067020255554,466.664450838104 L 695.1154204259087,496.23489132659154 L 724.2211532397445,508.9480764969213 L 695.1154204259087,521.6612616672511 L 706.7067020255554,551.2317021557386 L 677.1362615370679,539.640420556092 L 664.4230763667381,568.7461533699277 L 651.7098911964083,539.640420556092 L 622.1394507079208,551.2317021557386 L 633.7307323075675,521.6612616672511 L 604.6249994937317,508.9480764969213 L 633.7307323075675,496.23489132659154 L 622.1394507079208,466.664450838104 L 651.7098911964083,478.2557324377507 Z" fill="none" stroke="#FFFFFF" stroke-width="0.6720833779182673" /><path d="M 797.3076916400856,449.1499996239149 L 810.0208768104154,478.2557324377507 L 839.5913172989029,466.664450838104 L 828.0000356992563,496.23489132659154 L 857.105768513092,508.9480764969213 L 828.0000356992563,521.6612616672511 L 839.5913172989029,551.2317021557386 L 810.0208768104154,539.640420556092 L 797.3076916400856,568.7461533699277 L 784.5945064697559,539.640420556092 L 755.0240659812683,551.2317021557386 L 766.615347580915,521.6612616672511 L 737.5096147670793,508.9480764969213 L 766.615347580915,496.23489132659154 L 755.0240659812683,466.664450838104 L 784.5945064697559,478.2557324377507 Z" fill="none" stroke="#FFFFFF" stroke-width="0.6720833779182673" /><path d="M 930.1923069134332,449.1499996239149 L 942.905492083763,478.2557324377507 L 972.4759325722505,466.664450838104 L 960.8846509726038,496.23489132659154 L 989.9903837864396,508.9480764969213 L 960.8846509726038,521.6612616672511 L 972.4759325722505,551.2317021557386 L 942.905492083763,539.640420556092 L 930.1923069134332,568.7461533699277 L 917.4791217431034,539.640420556092 L 887.9086812546159,551.2317021557386 L 899.4999628542625,521.6612616672511 L 870.3942300404268,508.9480764969213 L 899.4999628542625,496.23489132659154 L 887.9086812546159,466.664450838104 L 917.4791217431034,478.2557324377507 Z" fill="none" stroke="#FFFFFF" stroke-width="0.6720833779182673" /><path d="M 1063.0769221867808,449.1499996239149 L 1075.7901073571106,478.2557324377507 L 1105.3605478455981,466.664450838104 L 1093.7692662459515,496.23489132659154 L 1122.8749990597873,508.9480764969213 L 1093.7692662459515,521.6612616672511 L 1105.3605478455981,551.2317021557386 L 1075.7901073571106,539.640420556092 L 1063.0769221867808,568.7461533699277 L 1050.363737016451,539.640420556092 L 1020.7932965279635,551.2317021557386 L 1032.3845781276102,521.6612616672511 L 1003.2788453137745,508.9480764969213 L 1032.3845781276102,496.23489132659154 L 1020.7932965279635,466.664450838104 L 1050.363737016451,478.2557324377507 Z" fill="none" stroke="#FFFFFF" stroke-width="0.6720833779182673" /><path d="M 1195.9615374601285,449.1499996239149 L 1208.6747226304583,478.2557324377507 L 1238.2451631189458,466.664450838104 L 1226.6538815192991,496.23489132659154 L 1255.759614333135,508.9480764969213 L 1226.6538815192991,521.6612616672511 L 1238.2451631189458,551.2317021557386 L 1208.6747226304583,539.640420556092 L 1195.9615374601285,568.7461533699277 L 1183.2483522897987,539.640420556092 L 1153.6779118013112,551.2317021557386 L 1165.2691934009579,521.6612616672511 L 1136.163460587122,508.9480764969213 L 1165.2691934009579,496.23489132659154 L 1153.6779118013112,466.664450838104 L 1183.2483522897987,478.2557324377507 Z" fill="none" stroke="#FFFFFF" stroke-width="0.6720833779182673" /><path d="M 1328.8461527334762,449.1499996239149 L 1341.559337903806,478.2557324377507 L 1371.1297783922935,466.664450838104 L 1359.5384967926468,496.23489132659154 L 1388.6442296064827,508.9480764969213 L 1359.5384967926468,521.6612616672511 L 1371.1297783922935,551.2317021557386 L 1341.559337903806,539.640420556092 L 1328.8461527334762,568.7461533699277 L 1316.1329675631464,539.640420556092 L 1286.5625270746589,551.2317021557386 L 1298.1538086743055,521.6612616672511 L 1269.0480758604697,508.9480764969213 L 1298.1538086743055,496.23489132659154 L 1286.5625270746589,466.664450838104 L 1316.1329675631464,478.2557324377507 Z" fill="none" stroke="#FFFFFF" stroke-width="0.6720833779182673" /><path d="M 1461.7307680068236,449.1499996239149 L 1474.4439531771534,478.2557324377507 L 1504.014393665641,466.664450838104 L 1492.4231120659942,496.23489132659154 L 1521.52884487983,508.9480764969213 L 1492.4231120659942,521.6612616672511 L 1504.014393665641,551.2317021557386 L 1474.4439531771534,539.640420556092 L 1461.7307680068236,568.7461533699277 L 1449.0175828364938,539.640420556092 L 1419.4471423480063,551.2317021557386 L 1431.038423947653,521.6612616672511 L 1401.9326911338171,508.9480764969213 L 1431.038423947653,496.23489132659154 L 1419.4471423480063,466.664450838104 L 1449.0175828364938,478.2557324377507 Z" fill="none" stroke="#FFFFFF" stroke-width="0.6720833779182673" /><path d="M 1594.6153832801713,449.1499996239149 L 1607.328568450501,478.2557324377507 L 1636.8990089389886,466.664450838104 L 1625.307727339342,496.23489132659154 L 1654.4134601531778,508.9480764969213 L 1625.307727339342,521.6612616672511 L 1636.8990089389886,551.2317021557386 L 1607.328568450501,539.640420556092 L 1594.6153832801713,568.7461533699277 L 1581.9021981098415,539.640420556092 L 1552.331757621354,551.2317021557386 L 1563.9230392210006,521.6612616672511 L 1534.8173064071648,508.9480764969213 L 1563.9230392210006,496.23489132659154 L 1552.331757621354,466.664450838104 L 1581.9021981098415,478.2557324377507 Z" fill="none" stroke="#FFFFFF" stroke-width="0.6720833779182673" /><path d="M 1727.499998553519,449.1499996239149 L 1740.2131837238487,478.2557324377507 L 1769.7836242123362,466.664450838104 L 1758.1923426126896,496.23489132659154 L 1787.2980754265254,508.9480764969213 L 1758.1923426126896,521.6612616672511 L 1769.7836242123362,551.2317021557386 L 1740.2131837238487,539.640420556092 L 1727.499998553519,568.7461533699277 L 1714.7868133831892,539.640420556092 L 1685.2163728947016,551.2317021557386 L 1696.8076544943483,521.6612616672511 L 1667.7019216805124,508.9480764969213 L 1696.8076544943483,496.23489132659154 L 1685.2163728947016,466.664450838104 L 1714.7868133831892,478.2557324377507 Z" fill="none" stroke="#FFFFFF" stroke-width="0.6720833779182673" /><path d="M 1860.3846138268664,449.1499996239149 L 1873.0977989971962,478.2557324377507 L 1902.6682394856837,466.664450838104 L 1891.076957886037,496.23489132659154 L 1920.1826906998729,508.9480764969213 L 1891.076957886037,521.6612616672511 L 1902.6682394856837,551.2317021557386 L 1873.0977989971962,539.640420556092 L 1860.3846138268664,568.7461533699277 L 1847.6714286565366,539.640420556092 L 1818.100988168049,551.2317021557386 L 1829.6922697676957,521.6612616672511 L 1800.5865369538599,508.9480764969213 L 1829.6922697676957,496.23489132659154 L 1818.100988168049,466.664450838104 L 1847.6714286565366,478.2557324377507 Z" fill="none" stroke="#FFFFFF" stroke-width="0.6720833779182673" /><path d="M 1993.269229100214,449.1499996239149 L 2005.9824142705438,478.2557324377507 L 2035.5528547590313,466.664450838104 L 2023.9615731593847,496.23489132659154 L 2053.0673059732203,508.9480764969213 L 2023.9615731593847,521.6612616672511 L 2035.5528547590313,551.2317021557386 L 2005.9824142705438,539.640420556092 L 1993.269229100214,568.7461533699277 L 1980.5560439298843,539.640420556092 L 1950.9856034413967,551.2317021557386 L 1962.5768850410434,521.6612616672511 L 1933.4711522272075,508.9480764969213 L 1962.5768850410434,496.23489132659154 L 1950.9856034413967,466.664450838104 L 1980.5560439298843,478.2557324377507 Z" fill="none" stroke="#FFFFFF" stroke-width="0.6720833779182673" /><line x1="59.79807687300642" y1="48.635769190045224" x2="73.08653840034118" y2="48.635769190045224" stroke="#FFFFFF" stroke-width="0.5"/><line x1="192.68269214635404" y1="48.635769190045224" x2="205.97115367368878" y2="48.635769190045224" stroke="#FFFFFF" stroke-width="0.5"/><line x1="325.56730741970165" y1="48.635769190045224" x2="338.85576894703644" y2="48.635769190045224" stroke="#FFFFFF" stroke-width="0.5"/><line x1="458.4519226930493" y1="48.635769190045224" x2="471.740384220384" y2="48.635769190045224" stroke="#FFFFFF" stroke-width="0.5"/><line x1="591.3365379663968" y1="48.635769190045224" x2="604.6249994937317" y2="48.635769190045224" stroke="#FFFFFF" stroke-width="0.5"/><line x1="724.2211532397445" y1="48.635769190045224" x2="737.5096147670793" y2="48.635769190045224" stroke="#FFFFFF" stroke-width="0.5"/><line x1="857.105768513092" y1="48.635769190045224" x2="870.3942300404268" y2="48.635769190045224" stroke="#FFFFFF" stroke-width="0.5"/><line x1="989.9903837864396" y1="48.635769190045224" x2="1003.2788453137745" y2="48.635769190045224" stroke="#FFFFFF" stroke-width="0.5"/><line x1="1122.8749990597873" y1="48.635769190045224" x2="1136.163460587122" y2="48.635769190045224" stroke="#FFFFFF" stroke-width="0.5"/><line x1="1255.759614333135" y1="48.635769190045224" x2="1269.0480758604697" y2="48.635769190045224" stroke="#FFFFFF" stroke-width="0.5"/><line x1="1388.6442296064827" y1="48.635769190045224" x2="1401.9326911338171" y2="48.635769190045224" stroke="#FFFFFF" stroke-width="0.5"/><line x1="1521.52884487983" y1="48.635769190045224" x2="1534.8173064071648" y2="48.635769190045224" stroke="#FFFFFF" stroke-width="0.5"/><line x1="1654.4134601531778" y1="48.635769190045224" x2="1667.7019216805124" y2="48.635769190045224" stroke="#FFFFFF" stroke-width="0.5"/><line x1="1787.2980754265254" y1="48.635769190045224" x2="1800.5865369538599" y2="48.635769190045224" stroke="#FFFFFF" stroke-width="0.5"/><line x1="126.24038450968023" y1="163.71384601676425" x2="139.528846037015" y2="163.71384601676425" stroke="#FFFFFF" stroke-width="0.5"/><line x1="259.1249997830278" y1="163.71384601676425" x2="272.4134613103626" y2="163.71384601676425" stroke="#FFFFFF" stroke-width="0.5"/><line x1="392.0096150563755" y1="163.71384601676425" x2="405.29807658371016" y2="163.71384601676425" stroke="#FFFFFF" stroke-width="0.5"/><line x1="524.894230329723" y1="163.71384601676425" x2="538.1826918570579" y2="163.71384601676425" stroke="#FFFFFF" stroke-width="0.5"/><line x1="657.7788456030706" y1="163.71384601676425" x2="671.0673071304054" y2="163.71384601676425" stroke="#FFFFFF" stroke-width="0.5"/><line x1="790.6634608764182" y1="163.71384601676425" x2="803.951922403753" y2="163.71384601676425" stroke="#FFFFFF" stroke-width="0.5"/><line x1="923.5480761497657" y1="163.71384601676425" x2="936.8365376771006" y2="163.71384601676425" stroke="#FFFFFF" stroke-width="0.5"/><line x1="1056.4326914231135" y1="163.71384601676425" x2="1069.7211529504482" y2="163.71384601676425" stroke="#FFFFFF" stroke-width="0.5"/><line x1="1189.3173066964612" y1="163.71384601676425" x2="1202.6057682237958" y2="163.71384601676425" stroke="#FFFFFF" stroke-width="0.5"/><line x1="1322.2019219698088" y1="163.71384601676425" x2="1335.4903834971433" y2="163.71384601676425" stroke="#FFFFFF" stroke-width="0.5"/><line x1="1455.0865372431563" y1="163.71384601676425" x2="1468.374998770491" y2="163.71384601676425" stroke="#FFFFFF" stroke-width="0.5"/><line x1="1587.971152516504" y1="163.71384601676425" x2="1601.2596140438386" y2="163.71384601676425" stroke="#FFFFFF" stroke-width="0.5"/><line x1="1720.8557677898516" y1="163.71384601676425" x2="1734.144229317186" y2="163.71384601676425" stroke="#FFFFFF" stroke-width="0.5"/><line x1="1853.740383063199" y1="163.71384601676425" x2="1867.0288445905337" y2="163.71384601676425" stroke="#FFFFFF" stroke-width="0.5"/><line x1="59.79807687300642" y1="278.79192284348323" x2="73.08653840034118" y2="278.79192284348323" stroke="#FFFFFF" stroke-width="0.5"/><line x1="192.68269214635404" y1="278.79192284348323" x2="205.97115367368878" y2="278.79192284348323" stroke="#FFFFFF" stroke-width="0.5"/><line x1="325.56730741970165" y1="278.79192284348323" x2="338.85576894703644" y2="278.79192284348323" stroke="#FFFFFF" stroke-width="0.5"/><line x1="458.4519226930493" y1="278.79192284348323" x2="471.740384220384" y2="278.79192284348323" stroke="#FFFFFF" stroke-width="0.5"/><line x1="591.3365379663968" y1="278.79192284348323" x2="604.6249994937317" y2="278.79192284348323" stroke="#FFFFFF" stroke-width="0.5"/><line x1="724.2211532397445" y1="278.79192284348323" x2="737.5096147670793" y2="278.79192284348323" stroke="#FFFFFF" stroke-width="0.5"/><line x1="857.105768513092" y1="278.79192284348323" x2="870.3942300404268" y2="278.79192284348323" stroke="#FFFFFF" stroke-width="0.5"/><line x1="989.9903837864396" y1="278.79192284348323" x2="1003.2788453137745" y2="278.79192284348323" stroke="#FFFFFF" stroke-width="0.5"/><line x1="1122.8749990597873" y1="278.79192284348323" x2="1136.163460587122" y2="278.79192284348323" stroke="#FFFFFF" stroke-width="0.5"/><line x1="1255.759614333135" y1="278.79192284348323" x2="1269.0480758604697" y2="278.79192284348323" stroke="#FFFFFF" stroke-width="0.5"/><line x1="1388.6442296064827" y1="278.79192284348323" x2="1401.9326911338171" y2="278.79192284348323" stroke="#FFFFFF" stroke-width="0.5"/><line x1="1521.52884487983" y1="278.79192284348323" x2="1534.8173064071648" y2="278.79192284348323" stroke="#FFFFFF" stroke-width="0.5"/><line x1="1654.4134601531778" y1="278.79192284348323" x2="1667.7019216805124" y2="278.79192284348323" stroke="#FFFFFF" stroke-width="0.5"/><line x1="1787.2980754265254" y1="278.79192284348323" x2="1800.5865369538599" y2="278.79192284348323" stroke="#FFFFFF" stroke-width="0.5"/><line x1="126.24038450968023" y1="393.86999967020233" x2="139.528846037015" y2="393.86999967020233" stroke="#FFFFFF" stroke-width="0.5"/><line x1="259.1249997830278" y1="393.86999967020233" x2="272.4134613103626" y2="393.86999967020233" stroke="#FFFFFF" stroke-width="0.5"/><line x1="392.0096150563755" y1="393.86999967020233" x2="405.29807658371016" y2="393.86999967020233" stroke="#FFFFFF" stroke-width="0.5"/><line x1="524.894230329723" y1="393.86999967020233" x2="538.1826918570579" y2="393.86999967020233" stroke="#FFFFFF" stroke-width="0.5"/><line x1="657.7788456030706" y1="393.86999967020233" x2="671.0673071304054" y2="393.86999967020233" stroke="#FFFFFF" stroke-width="0.5"/><line x1="790.6634608764182" y1="393.86999967020233" x2="803.951922403753" y2="393.86999967020233" stroke="#FFFFFF" stroke-width="0.5"/><line x1="923.5480761497657" y1="393.86999967020233" x2="936.8365376771006" y2="393.86999967020233" stroke="#FFFFFF" stroke-width="0.5"/><line x1="1056.4326914231135" y1="393.86999967020233" x2="1069.7211529504482" y2="393.86999967020233" stroke="#FFFFFF" stroke-width="0.5"/><line x1="1189.3173066964612" y1="393.86999967020233" x2="1202.6057682237958" y2="393.86999967020233" stroke="#FFFFFF" stroke-width="0.5"/><line x1="1322.2019219698088" y1="393.86999967020233" x2="1335.4903834971433" y2="393.86999967020233" stroke="#FFFFFF" stroke-width="0.5"/><line x1="1455.0865372431563" y1="393.86999967020233" x2="1468.374998770491" y2="393.86999967020233" stroke="#FFFFFF" stroke-width="0.5"/><line x1="1587.971152516504" y1="393.86999967020233" x2="1601.2596140438386" y2="393.86999967020233" stroke="#FFFFFF" stroke-width="0.5"/><line x1="1720.8557677898516" y1="393.86999967020233" x2="1734.144229317186" y2="393.86999967020233" stroke="#FFFFFF" stroke-width="0.5"/><line x1="1853.740383063199" y1="393.86999967020233" x2="1867.0288445905337" y2="393.86999967020233" stroke="#FFFFFF" stroke-width="0.5"/></g><g opacity="0.05482597351298946"><path d="M 571.5602877417394 346.47565857808837 L 571.5602877417394 394.1632990221321 L 529.6167140012225 394.1632990221321 L 529.6167140012225 431.89558473153613" fill="none" stroke="#FFFFFF" stroke-width="2.20840239604395" stroke-linecap="square"/><path d="M 1656.7684944238367 305.2645112505483 L 1656.7684944238367 360.35179780290235 L 1603.364792641196 360.35179780290235" fill="none" stroke="#FFFFFF" stroke-width="2.20840239604395" stroke-linecap="square"/><path d="M 973.7059025530265 378.3518602225705 L 973.7059025530265 410.2712881922201 L 933.0654505401716 410.2712881922201" fill="none" stroke="#FFFFFF" stroke-width="2.20840239604395" stroke-linecap="square"/><path d="M 377.56971376834895 389.9127103713866 L 377.56971376834895 424.1384219249963 L 426.13614143539354 424.1384219249963" fill="none" stroke="#FFFFFF" stroke-width="2.20840239604395" stroke-linecap="square"/><path d="M 381.7102434028453 462.8910686741076 L 422.57506720287745 462.8910686741076 L 422.57506720287745 417.1907243824647" fill="none" stroke="#FFFFFF" stroke-width="2.20840239604395" stroke-linecap="square"/><path d="M 135.7311559355497 331.6537500972179 L 195.4741487236505 331.6537500972179 L 195.4741487236505 390.4255124581517 L 255.6864044093476 390.4255124581517" fill="none" stroke="#FFFFFF" stroke-width="2.20840239604395" stroke-linecap="square"/><path d="M 1763.7144478427779 228.74095927399628 L 1763.7144478427779 189.25342244269365 L 1822.3798846067814 189.25342244269365 L 1822.3798846067814 155.5616968712494" fill="none" stroke="#FFFFFF" stroke-width="2.20840239604395" stroke-linecap="square"/><path d="M 1448.0122954435703 156.3382530940409 L 1500.4451685236388 156.3382530940409 L 1500.4451685236388 194.77965860526996" fill="none" stroke="#FFFFFF" stroke-width="2.20840239604395" stroke-linecap="square"/><path d="M 1911.2466940243014 267.3891450219737 L 1911.2466940243014 210.44426826025068 L 1920 210.44426826025068" fill="none" stroke="#FFFFFF" stroke-width="2.20840239604395" stroke-linecap="square"/><line x1="202.43119821438157" y1="185.67981728617093" x2="934.6551365436312" y2="185.67981728617093" stroke="#FFFFFF" stroke-width="0.5" stroke-dasharray="5,10"/><circle cx="422.57506720287745" cy="417.1907243824647" r="3.7444479473607837" fill="#FFFFFF"/><circle cx="255.6864044093476" cy="390.4255124581517" r="3.7444479473607837" fill="#FFFFFF"/><circle cx="135.7311559355497" cy="331.6537500972179" r="2.995558357888627" fill="#FFFFFF"/><rect x="191.72970077628972" y="327.90930214985707" width="7.488895894721567" height="7.488895894721567" fill="#FFFFFF"/><rect x="191.72970077628972" y="386.68106451079086" width="7.488895894721567" height="7.488895894721567" fill="#FFFFFF"/><circle cx="1822.3798846067814" cy="155.5616968712494" r="3.7444479473607837" fill="#FFFFFF"/><rect x="1759.969999895417" y="185.50897449533286" width="7.488895894721567" height="7.488895894721567" fill="#FFFFFF"/><rect x="1907.5022460769405" y="206.6998203128899" width="7.488895894721567" height="7.488895894721567" fill="#FFFFFF"/><rect x="634.1120726594801" y="33.390579612413276" width="7.5041572770503935" height="7.5041572770503935" fill="#FFFFFF"/><rect x="602.3306495884933" y="326.4291602022042" width="4.701913971616233" height="4.701913971616233" fill="#FFFFFF"/></g><g opacity="0.3"><rect x="30" y="30" width="1860" height="420" fill="none" stroke="#444444" stroke-width="1" rx="0"/></g><g opacity="0.85267831215294"><line x1="60" y1="240" x2="140" y2="240" stroke="#888888" stroke-width="1" opacity="0.5"/><line x1="1780" y1="240" x2="1860" y2="240" stroke="#888888" stroke-width="1" opacity="0.5"/><path d="M 30 70 L 30 30 L 70 30" fill="none" stroke="#888888" stroke-width="2" stroke-linecap="square"/><path d="M 1850 30 L 1890 30 L 1890 70" fill="none" stroke="#888888" stroke-width="2" stroke-linecap="square"/><path d="M 30 410 L 30 450 L 70 450" fill="none" stroke="#888888" stroke-width="2" stroke-linecap="square"/><path d="M 1850 450 L 1890 450 L 1890 410" fill="none" stroke="#888888" stroke-width="2" stroke-linecap="square"/></g></svg>