<svg xmlns="http://www.w3.org/2000/svg" width="1920" height="480" viewBox="0 0 1920 480"><rect x="0" y="0" width="1920" height="480" fill="#000000"/><g opacity="0.15257836585053167"><path d="M -70.53653785014137,-134.0194219152686 L -57.03995564432029,-103.12016965711803 L -25.647360038410476,-115.42571566187226 L -37.952906043164724,-84.03312005596246 L -7.053653785014134,-70.53653785014137 L -37.952906043164724,-57.03995564432029 L -25.647360038410476,-25.647360038410483 L -57.03995564432029,-37.952906043164724 L -70.53653785014137,-7.053653785014134 L -84.03312005596246,-37.952906043164724 L -115.42571566187226,-25.647360038410476 L -103.12016965711801,-57.03995564432027 L -134.0194219152686,-70.53653785014136 L -103.12016965711801,-84.03312005596247 L -115.42571566187227,-115.42571566187226 L -84.03312005596247,-103.12016965711801 Z" fill="none" stroke="#FFFFFF" stroke-width="2.355577231317562" /><path d="M 70.53653785014137,-134.0194219152686 L 84.03312005596246,-103.12016965711803 L 115.42571566187226,-115.42571566187226 L 103.12016965711803,-84.03312005596246 L 134.0194219152686,-70.53653785014137 L 103.12016965711803,-57.03995564432029 L 115.42571566187226,-25.647360038410483 L 84.03312005596246,-37.952906043164724 L 70.53653785014137,-7.053653785014134 L 57.03995564432029,-37.952906043164724 L 25.647360038410483,-25.647360038410476 L 37.95290604316473,-57.03995564432027 L 7.053653785014134,-70.53653785014136 L 37.95290604316473,-84.03312005596247 L 25.64736003841047,-115.42571566187226 L 57.039955644320266,-103.12016965711801 Z" fill="none" stroke="#FFFFFF" stroke-width="2.355577231317562" /><path d="M 211.60961355042411,-134.0194219152686 L 225.1061957562452,-103.12016965711803 L 256.49879136215503,-115.42571566187226 L 244.19324535740077,-84.03312005596246 L 275.09249761555134,-70.53653785014137 L 244.19324535740077,-57.03995564432029 L 256.49879136215503,-25.647360038410483 L 225.1061957562452,-37.952906043164724 L 211.60961355042411,-7.053653785014134 L 198.11303134460303,-37.952906043164724 L 166.72043573869323,-25.647360038410476 L 179.02598174344746,-57.03995564432027 L 148.1267294852969,-70.53653785014136 L 179.02598174344746,-84.03312005596247 L 166.7204357386932,-115.42571566187226 L 198.113031344603,-103.12016965711801 Z" fill="none" stroke="#FFFFFF" stroke-width="2.355577231317562" /><path d="M 352.68268925070686,-134.0194219152686 L 366.17927145652794,-103.12016965711803 L 397.5718670624378,-115.42571566187226 L 385.2663210576835,-84.03312005596246 L 416.1655733158341,-70.53653785014137 L 385.2663210576835,-57.03995564432029 L 397.5718670624378,-25.647360038410483 L 366.17927145652794,-37.952906043164724 L 352.68268925070686,-7.053653785014134 L 339.1861070448858,-37.952906043164724 L 307.793511438976,-25.647360038410476 L 320.0990574437302,-57.03995564432027 L 289.19980518557963,-70.53653785014136 L 320.0990574437302,-84.03312005596247 L 307.79351143897594,-115.42571566187226 L 339.1861070448858,-103.12016965711801 Z" fill="none" stroke="#FFFFFF" stroke-width="2.355577231317562" /><path d="M 493.7557649509896,-134.0194219152686 L 507.2523471568107,-103.12016965711803 L 538.6449427627205,-115.42571566187226 L 526.3393967579663,-84.03312005596246 L 557.2386490161168,-70.53653785014137 L 526.3393967579663,-57.03995564432029 L 538.6449427627205,-25.647360038410483 L 507.2523471568107,-37.952906043164724 L 493.7557649509896,-7.053653785014134 L 480.2591827451685,-37.952906043164724 L 448.86658713925874,-25.647360038410476 L 461.17213314401295,-57.03995564432027 L 430.2728808858624,-70.53653785014136 L 461.17213314401295,-84.03312005596247 L 448.8665871392587,-115.42571566187226 L 480.2591827451685,-103.12016965711801 Z" fill="none" stroke="#FFFFFF" stroke-width="2.355577231317562" /><path d="M 634.8288406512723,-134.0194219152686 L 648.3254228570935,-103.12016965711803 L 679.7180184630032,-115.42571566187226 L 667.412472458249,-84.03312005596246 L 698.3117247163996,-70.53653785014137 L 667.412472458249,-57.03995564432029 L 679.7180184630032,-25.647360038410483 L 648.3254228570935,-37.952906043164724 L 634.8288406512723,-7.053653785014134 L 621.3322584454513,-37.952906043164724 L 589.9396628395415,-25.647360038410476 L 602.2452088442957,-57.03995564432027 L 571.3459565861451,-70.53653785014136 L 602.2452088442957,-84.03312005596247 L 589.9396628395415,-115.42571566187226 L 621.3322584454512,-103.12016965711801 Z" fill="none" stroke="#FFFFFF" stroke-width="2.355577231317562" /><path d="M 775.9019163515551,-134.0194219152686 L 789.3984985573762,-103.12016965711803 L 820.791094163286,-115.42571566187226 L 808.4855481585317,-84.03312005596246 L 839.3848004166823,-70.53653785014137 L 808.4855481585317,-57.03995564432029 L 820.791094163286,-25.647360038410483 L 789.3984985573762,-37.952906043164724 L 775.9019163515551,-7.053653785014134 L 762.4053341457341,-37.952906043164724 L 731.0127385398242,-25.647360038410476 L 743.3182845445784,-57.03995564432027 L 712.4190322864279,-70.53653785014136 L 743.3182845445784,-84.03312005596247 L 731.0127385398242,-115.42571566187226 L 762.405334145734,-103.12016965711801 Z" fill="none" stroke="#FFFFFF" stroke-width="2.355577231317562" /><path d="M 916.9749920518378,-134.0194219152686 L 930.471574257659,-103.12016965711803 L 961.8641698635687,-115.42571566187226 L 949.5586238588145,-84.03312005596246 L 980.457876116965,-70.53653785014137 L 949.5586238588145,-57.03995564432029 L 961.8641698635687,-25.647360038410483 L 930.471574257659,-37.952906043164724 L 916.9749920518378,-7.053653785014134 L 903.4784098460168,-37.952906043164724 L 872.085814240107,-25.647360038410476 L 884.3913602448612,-57.03995564432027 L 853.4921079867106,-70.53653785014136 L 884.3913602448612,-84.03312005596247 L 872.085814240107,-115.42571566187226 L 903.4784098460167,-103.12016965711801 Z" fill="none" stroke="#FFFFFF" stroke-width="2.355577231317562" /><path d="M 1058.0480677521205,-134.0194219152686 L 1071.5446499579416,-103.12016965711803 L 1102.9372455638513,-115.42571566187226 L 1090.6316995590971,-84.03312005596246 L 1121.5309518172478,-70.53653785014137 L 1090.6316995590971,-57.03995564432029 L 1102.9372455638513,-25.647360038410483 L 1071.5446499579416,-37.952906043164724 L 1058.0480677521205,-7.053653785014134 L 1044.5514855462993,-37.952906043164724 L 1013.1588899403896,-25.647360038410476 L 1025.4644359451438,-57.03995564432027 L 994.5651836869932,-70.53653785014136 L 1025.4644359451438,-84.03312005596247 L 1013.1588899403896,-115.42571566187226 L 1044.5514855462993,-103.12016965711801 Z" fill="none" stroke="#FFFFFF" stroke-width="2.355577231317562" /><path d="M 1199.1211434524034,-134.0194219152686 L 1212.6177256582246,-103.12016965711803 L 1244.0103212641343,-115.42571566187226 L 1231.70477525938,-84.03312005596246 L 1262.6040275175308,-70.53653785014137 L 1231.70477525938,-57.03995564432029 L 1244.0103212641343,-25.647360038410483 L 1212.6177256582246,-37.952906043164724 L 1199.1211434524034,-7.053653785014134 L 1185.6245612465823,-37.952906043164724 L 1154.2319656406726,-25.647360038410476 L 1166.5375116454268,-57.03995564432027 L 1135.638259387276,-70.53653785014136 L 1166.5375116454268,-84.03312005596247 L 1154.2319656406726,-115.42571566187226 L 1185.6245612465823,-103.12016965711801 Z" fill="none" stroke="#FFFFFF" stroke-width="2.355577231317562" /><path d="M 1340.194219152686,-134.0194219152686 L 1353.690801358507,-103.12016965711803 L 1385.0833969644168,-115.42571566187226 L 1372.7778509596626,-84.03312005596246 L 1403.6771032178133,-70.53653785014137 L 1372.7778509596626,-57.03995564432029 L 1385.0833969644168,-25.647360038410483 L 1353.690801358507,-37.952906043164724 L 1340.194219152686,-7.053653785014134 L 1326.6976369468648,-37.952906043164724 L 1295.305041340955,-25.647360038410476 L 1307.6105873457093,-57.03995564432027 L 1276.7113350875586,-70.53653785014136 L 1307.6105873457093,-84.03312005596247 L 1295.305041340955,-115.42571566187226 L 1326.6976369468648,-103.12016965711801 Z" fill="none" stroke="#FFFFFF" stroke-width="2.355577231317562" /><path d="M 1481.267294852969,-134.0194219152686 L 1494.76387705879,-103.12016965711803 L 1526.1564726646998,-115.42571566187226 L 1513.8509266599456,-84.03312005596246 L 1544.7501789180963,-70.53653785014137 L 1513.8509266599456,-57.03995564432029 L 1526.1564726646998,-25.647360038410483 L 1494.76387705879,-37.952906043164724 L 1481.267294852969,-7.053653785014134 L 1467.7707126471478,-37.952906043164724 L 1436.378117041238,-25.647360038410476 L 1448.6836630459923,-57.03995564432027 L 1417.7844107878416,-70.53653785014136 L 1448.6836630459923,-84.03312005596247 L 1436.378117041238,-115.42571566187226 L 1467.7707126471478,-103.12016965711801 Z" fill="none" stroke="#FFFFFF" stroke-width="2.355577231317562" /><path d="M 1622.3403705532514,-134.0194219152686 L 1635.8369527590726,-103.12016965711803 L 1667.2295483649823,-115.42571566187226 L 1654.924002360228,-84.03312005596246 L 1685.8232546183788,-70.53653785014137 L 1654.924002360228,-57.03995564432029 L 1667.2295483649823,-25.647360038410483 L 1635.8369527590726,-37.952906043164724 L 1622.3403705532514,-7.053653785014134 L 1608.8437883474303,-37.952906043164724 L 1577.4511927415206,-25.647360038410476 L 1589.7567387462748,-57.03995564432027 L 1558.857486488124,-70.53653785014136 L 1589.7567387462748,-84.03312005596247 L 1577.4511927415206,-115.42571566187226 L 1608.8437883474303,-103.12016965711801 Z" fill="none" stroke="#FFFFFF" stroke-width="2.355577231317562" /><path d="M 1763.4134462535344,-134.0194219152686 L 1776.9100284593555,-103.12016965711803 L 1808.3026240652653,-115.42571566187226 L 1795.997078060511,-84.03312005596246 L 1826.8963303186617,-70.53653785014137 L 1795.997078060511,-57.03995564432029 L 1808.3026240652653,-25.647360038410483 L 1776.9100284593555,-37.952906043164724 L 1763.4134462535344,-7.053653785014134 L 1749.9168640477133,-37.952906043164724 L 1718.5242684418035,-25.647360038410476 L 1730.8298144465577,-57.03995564432027 L 1699.930562188407,-70.53653785014136 L 1730.8298144465577,-84.03312005596247 L 1718.5242684418035,-115.42571566187226 L 1749.9168640477133,-103.12016965711801 Z" fill="none" stroke="#FFFFFF" stroke-width="2.355577231317562" /><path d="M 1904.486521953817,-134.0194219152686 L 1917.983104159638,-103.12016965711803 L 1949.3756997655478,-115.42571566187226 L 1937.0701537607936,-84.03312005596246 L 1967.9694060189443,-70.53653785014137 L 1937.0701537607936,-57.03995564432029 L 1949.3756997655478,-25.647360038410483 L 1917.983104159638,-37.952906043164724 L 1904.486521953817,-7.053653785014134 L 1890.9899397479958,-37.952906043164724 L 1859.597344142086,-25.647360038410476 L 1871.9028901468403,-57.03995564432027 L 1841.0036378886896,-70.53653785014136 L 1871.9028901468403,-84.03312005596247 L 1859.597344142086,-115.42571566187226 L 1890.9899397479958,-103.12016965711801 Z" fill="none" stroke="#FFFFFF" stroke-width="2.355577231317562" /><path d="M 2045.5595976540994,-134.0194219152686 L 2059.0561798599206,-103.12016965711803 L 2090.4487754658303,-115.42571566187226 L 2078.143229461076,-84.03312005596246 L 2109.0424817192265,-70.53653785014137 L 2078.143229461076,-57.03995564432029 L 2090.4487754658303,-25.647360038410483 L 2059.0561798599206,-37.952906043164724 L 2045.5595976540994,-7.053653785014134 L 2032.0630154482783,-37.952906043164724 L 2000.6704198423686,-25.647360038410476 L 2012.9759658471228,-57.03995564432027 L 1982.076713588972,-70.53653785014136 L 2012.9759658471228,-84.03312005596247 L 2000.6704198423686,-115.42571566187226 L 2032.0630154482783,-103.12016965711801 Z" fill="none" stroke="#FFFFFF" stroke-width="2.355577231317562" /><path d="M 3.887205538550029e-15,-11.850138358823756 L 13.496582205821088,19.049113899326834 L 44.889177811730896,6.7435678945725925 L 32.58363180697665,38.1361635004824 L 63.48288406512724,51.63274570630348 L 32.58363180697665,65.12932791212457 L 44.889177811730896,96.52192351803437 L 13.496582205821088,84.21637751328012 L 3.887205538550029e-15,115.11562977143072 L -13.496582205821083,84.21637751328012 L -44.88917781173089,96.52192351803438 L -32.58363180697664,65.12932791212458 L -63.48288406512724,51.63274570630349 L -32.58363180697664,38.13616350048238 L -44.8891778117309,6.7435678945725925 L -13.496582205821104,19.04911389932684 Z" fill="none" stroke="#FFFFFF" stroke-width="2.355577231317562" /><path d="M 141.07307570028274,-11.850138358823756 L 154.56965790610383,19.049113899326834 L 185.96225351201363,6.7435678945725925 L 173.6567075072594,38.1361635004824 L 204.55595976540997,51.63274570630348 L 173.6567075072594,65.12932791212457 L 185.96225351201363,96.52192351803437 L 154.56965790610383,84.21637751328012 L 141.07307570028274,115.11562977143072 L 127.57649349446166,84.21637751328012 L 96.18389788855185,96.52192351803438 L 108.4894438933061,65.12932791212458 L 77.5901916351555,51.63274570630349 L 108.4894438933061,38.13616350048238 L 96.18389788855184,6.7435678945725925 L 127.57649349446164,19.04911389932684 Z" fill="none" stroke="#FFFFFF" stroke-width="2.355577231317562" /><path d="M 282.1461514005655,-11.850138358823756 L 295.64273360638657,19.049113899326834 L 327.0353292122964,6.7435678945725925 L 314.72978320754214,38.1361635004824 L 345.6290354656927,51.63274570630348 L 314.72978320754214,65.12932791212457 L 327.0353292122964,96.52192351803437 L 295.64273360638657,84.21637751328012 L 282.1461514005655,115.11562977143072 L 268.6495691947444,84.21637751328012 L 237.2569735888346,96.52192351803438 L 249.56251959358883,65.12932791212458 L 218.66326733543826,51.63274570630349 L 249.56251959358883,38.13616350048238 L 237.25697358883457,6.7435678945725925 L 268.6495691947444,19.04911389932684 Z" fill="none" stroke="#FFFFFF" stroke-width="2.355577231317562" /><path d="M 423.21922710084823,-11.850138358823756 L 436.7158093066693,19.049113899326834 L 468.10840491257915,6.7435678945725925 L 455.8028589078249,38.1361635004824 L 486.70211116597545,51.63274570630348 L 455.8028589078249,65.12932791212457 L 468.10840491257915,96.52192351803437 L 436.7158093066693,84.21637751328012 L 423.21922710084823,115.11562977143072 L 409.72264489502714,84.21637751328012 L 378.33004928911737,96.52192351803438 L 390.6355952938716,65.12932791212458 L 359.736343035721,51.63274570630349 L 390.6355952938716,38.13616350048238 L 378.3300492891173,6.7435678945725925 L 409.72264489502714,19.04911389932684 Z" fill="none" stroke="#FFFFFF" stroke-width="2.355577231317562" /><path d="M 564.292302801131,-11.850138358823756 L 577.7888850069521,19.049113899326834 L 609.1814806128618,6.7435678945725925 L 596.8759346081076,38.1361635004824 L 627.7751868662582,51.63274570630348 L 596.8759346081076,65.12932791212457 L 609.1814806128618,96.52192351803437 L 577.7888850069521,84.21637751328012 L 564.292302801131,115.11562977143072 L 550.79572059531,84.21637751328012 L 519.4031249894001,96.52192351803438 L 531.7086709941543,65.12932791212458 L 500.80941873600375,51.63274570630349 L 531.7086709941543,38.13616350048238 L 519.4031249894001,6.7435678945725925 L 550.7957205953098,19.04911389932684 Z" fill="none" stroke="#FFFFFF" stroke-width="2.355577231317562" /><path d="M 705.3653785014137,-11.850138358823756 L 718.8619607072349,19.049113899326834 L 750.2545563131446,6.7435678945725925 L 737.9490103083904,38.1361635004824 L 768.8482625665409,51.63274570630348 L 737.9490103083904,65.12932791212457 L 750.2545563131446,96.52192351803437 L 718.8619607072349,84.21637751328012 L 705.3653785014137,115.11562977143072 L 691.8687962955927,84.21637751328012 L 660.4762006896829,96.52192351803438 L 672.7817466944371,65.12932791212458 L 641.8824944362865,51.63274570630349 L 672.7817466944371,38.13616350048238 L 660.4762006896829,6.7435678945725925 L 691.8687962955926,19.04911389932684 Z" fill="none" stroke="#FFFFFF" stroke-width="2.355577231317562" /><path d="M 846.4384542016965,-11.850138358823756 L 859.9350364075176,19.049113899326834 L 891.3276320134273,6.7435678945725925 L 879.0220860086731,38.1361635004824 L 909.9213382668237,51.63274570630348 L 879.0220860086731,65.12932791212457 L 891.3276320134273,96.52192351803437 L 859.9350364075176,84.21637751328012 L 846.4384542016965,115.11562977143072 L 832.9418719958754,84.21637751328012 L 801.5492763899656,96.52192351803438 L 813.8548223947198,65.12932791212458 L 782.9555701365692,51.63274570630349 L 813.8548223947198,38.13616350048238 L 801.5492763899656,6.7435678945725925 L 832.9418719958753,19.04911389932684 Z" fill="none" stroke="#FFFFFF" stroke-width="2.355577231317562" /><path d="M 987.5115299019792,-11.850138358823756 L 1001.0081121078003,19.049113899326834 L 1032.40070771371,6.7435678945725925 L 1020.0951617089559,38.1361635004824 L 1050.9944139671065,51.63274570630348 L 1020.0951617089559,65.12932791212457 L 1032.40070771371,96.52192351803437 L 1001.0081121078003,84.21637751328012 L 987.5115299019792,115.11562977143072 L 974.0149476961582,84.21637751328012 L 942.6223520902483,96.52192351803438 L 954.9278980950025,65.12932791212458 L 924.028645836852,51.63274570630349 L 954.9278980950025,38.13616350048238 L 942.6223520902483,6.7435678945725925 L 974.0149476961581,19.04911389932684 Z" fill="none" stroke="#FFFFFF" stroke-width="2.355577231317562" /><path d="M 1128.584605602262,-11.850138358823756 L 1142.081187808083,19.049113899326834 L 1173.4737834139928,6.7435678945725925 L 1161.1682374092386,38.1361635004824 L 1192.0674896673893,51.63274570630348 L 1161.1682374092386,65.12932791212457 L 1173.4737834139928,96.52192351803437 L 1142.081187808083,84.21637751328012 L 1128.584605602262,115.11562977143072 L 1115.0880233964408,84.21637751328012 L 1083.695427790531,96.52192351803438 L 1096.0009737952853,65.12932791212458 L 1065.1017215371346,51.63274570630349 L 1096.0009737952853,38.13616350048238 L 1083.695427790531,6.7435678945725925 L 1115.0880233964408,19.04911389932684 Z" fill="none" stroke="#FFFFFF" stroke-width="2.355577231317562" /><path d="M 1269.657681302545,-11.850138358823756 L 1283.154263508366,19.049113899326834 L 1314.5468591142758,6.7435678945725925 L 1302.2413131095216,38.1361635004824 L 1333.1405653676723,51.63274570630348 L 1302.2413131095216,65.12932791212457 L 1314.5468591142758,96.52192351803437 L 1283.154263508366,84.21637751328012 L 1269.657681302545,115.11562977143072 L 1256.1610990967238,84.21637751328012 L 1224.768503490814,96.52192351803438 L 1237.0740494955683,65.12932791212458 L 1206.1747972374176,51.63274570630349 L 1237.0740494955683,38.13616350048238 L 1224.768503490814,6.7435678945725925 L 1256.1610990967238,19.04911389932684 Z" fill="none" stroke="#FFFFFF" stroke-width="2.355577231317562" /><path d="M 1410.7307570028274,-11.850138358823756 L 1424.2273392086486,19.049113899326834 L 1455.6199348145583,6.7435678945725925 L 1443.314388809804,38.1361635004824 L 1474.2136410679548,51.63274570630348 L 1443.314388809804,65.12932791212457 L 1455.6199348145583,96.52192351803437 L 1424.2273392086486,84.21637751328012 L 1410.7307570028274,115.11562977143072 L 1397.2341747970063,84.21637751328012 L 1365.8415791910966,96.52192351803438 L 1378.1471251958508,65.12932791212458 L 1347.2478729377,51.63274570630349 L 1378.1471251958508,38.13616350048238 L 1365.8415791910966,6.7435678945725925 L 1397.2341747970063,19.04911389932684 Z" fill="none" stroke="#FFFFFF" stroke-width="2.355577231317562" /><path d="M 1551.8038327031104,-11.850138358823756 L 1565.3004149089315,19.049113899326834 L 1596.6930105148413,6.7435678945725925 L 1584.387464510087,38.1361635004824 L 1615.2867167682377,51.63274570630348 L 1584.387464510087,65.12932791212457 L 1596.6930105148413,96.52192351803437 L 1565.3004149089315,84.21637751328012 L 1551.8038327031104,115.11562977143072 L 1538.3072504972893,84.21637751328012 L 1506.9146548913795,96.52192351803438 L 1519.2202008961337,65.12932791212458 L 1488.320948637983,51.63274570630349 L 1519.2202008961337,38.13616350048238 L 1506.9146548913795,6.7435678945725925 L 1538.3072504972893,19.04911389932684 Z" fill="none" stroke="#FFFFFF" stroke-width="2.355577231317562" /><path d="M 1692.876908403393,-11.850138358823756 L 1706.373490609214,19.049113899326834 L 1737.7660862151238,6.7435678945725925 L 1725.4605402103696,38.1361635004824 L 1756.3597924685203,51.63274570630348 L 1725.4605402103696,65.12932791212457 L 1737.7660862151238,96.52192351803437 L 1706.373490609214,84.21637751328012 L 1692.876908403393,115.11562977143072 L 1679.3803261975718,84.21637751328012 L 1647.987730591662,96.52192351803438 L 1660.2932765964163,65.12932791212458 L 1629.3940243382656,51.63274570630349 L 1660.2932765964163,38.13616350048238 L 1647.987730591662,6.7435678945725925 L 1679.3803261975718,19.04911389932684 Z" fill="none" stroke="#FFFFFF" stroke-width="2.355577231317562" /><path d="M 1833.949984103676,-11.850138358823756 L 1847.446566309497,19.049113899326834 L 1878.8391619154067,6.7435678945725925 L 1866.5336159106525,38.1361635004824 L 1897.4328681688032,51.63274570630348 L 1866.5336159106525,65.12932791212457 L 1878.8391619154067,96.52192351803437 L 1847.446566309497,84.21637751328012 L 1833.949984103676,115.11562977143072 L 1820.4534018978547,84.21637751328012 L 1789.060806291945,96.52192351803438 L 1801.3663522966992,65.12932791212458 L 1770.4671000385486,51.63274570630349 L 1801.3663522966992,38.13616350048238 L 1789.060806291945,6.7435678945725925 L 1820.4534018978547,19.04911389932684 Z" fill="none" stroke="#FFFFFF" stroke-width="2.355577231317562" /><path d="M 1975.0230598039584,-11.850138358823756 L 1988.5196420097795,19.049113899326834 L 2019.9122376156893,6.7435678945725925 L 2007.606691610935,38.1361635004824 L 2038.5059438690857,51.63274570630348 L 2007.606691610935,65.12932791212457 L 2019.9122376156893,96.52192351803437 L 1988.5196420097795,84.21637751328012 L 1975.0230598039584,115.11562977143072 L 1961.5264775981373,84.21637751328012 L 1930.1338819922275,96.52192351803438 L 1942.4394279969817,65.12932791212458 L 1911.540175738831,51.63274570630349 L 1942.4394279969817,38.13616350048238 L 1930.1338819922275,6.7435678945725925 L 1961.5264775981373,19.04911389932684 Z" fill="none" stroke="#FFFFFF" stroke-width="2.355577231317562" /><path d="M -70.53653785014137,110.3191451976211 L -57.03995564432029,141.21839745577168 L -25.647360038410476,128.91285145101745 L -37.952906043164724,160.30544705692725 L -7.053653785014134,173.80202926274833 L -37.952906043164724,187.29861146856942 L -25.647360038410476,218.69120707447922 L -57.03995564432029,206.385661069725 L -70.53653785014137,237.28491332787559 L -84.03312005596246,206.385661069725 L -115.42571566187226,218.69120707447922 L -103.12016965711801,187.29861146856945 L -134.0194219152686,173.80202926274833 L -103.12016965711801,160.30544705692725 L -115.42571566187227,128.91285145101745 L -84.03312005596247,141.2183974557717 Z" fill="none" stroke="#FFFFFF" stroke-width="2.355577231317562" /><path d="M 70.53653785014137,110.3191451976211 L 84.03312005596246,141.21839745577168 L 115.42571566187226,128.91285145101745 L 103.12016965711803,160.30544705692725 L 134.0194219152686,173.80202926274833 L 103.12016965711803,187.29861146856942 L 115.42571566187226,218.69120707447922 L 84.03312005596246,206.385661069725 L 70.53653785014137,237.28491332787559 L 57.03995564432029,206.385661069725 L 25.647360038410483,218.69120707447922 L 37.95290604316473,187.29861146856945 L 7.053653785014134,173.80202926274833 L 37.95290604316473,160.30544705692725 L 25.64736003841047,128.91285145101745 L 57.039955644320266,141.2183974557717 Z" fill="none" stroke="#FFFFFF" stroke-width="2.355577231317562" /><path d="M 211.60961355042411,110.3191451976211 L 225.1061957562452,141.21839745577168 L 256.49879136215503,128.91285145101745 L 244.19324535740077,160.30544705692725 L 275.09249761555134,173.80202926274833 L 244.19324535740077,187.29861146856942 L 256.49879136215503,218.69120707447922 L 225.1061957562452,206.385661069725 L 211.60961355042411,237.28491332787559 L 198.11303134460303,206.385661069725 L 166.72043573869323,218.69120707447922 L 179.02598174344746,187.29861146856945 L 148.1267294852969,173.80202926274833 L 179.02598174344746,160.30544705692725 L 166.7204357386932,128.91285145101745 L 198.113031344603,141.2183974557717 Z" fill="none" stroke="#FFFFFF" stroke-width="2.355577231317562" /><path d="M 352.68268925070686,110.3191451976211 L 366.17927145652794,141.21839745577168 L 397.5718670624378,128.91285145101745 L 385.2663210576835,160.30544705692725 L 416.1655733158341,173.80202926274833 L 385.2663210576835,187.29861146856942 L 397.5718670624378,218.69120707447922 L 366.17927145652794,206.385661069725 L 352.68268925070686,237.28491332787559 L 339.1861070448858,206.385661069725 L 307.793511438976,218.69120707447922 L 320.0990574437302,187.29861146856945 L 289.19980518557963,173.80202926274833 L 320.0990574437302,160.30544705692725 L 307.79351143897594,128.91285145101745 L 339.1861070448858,141.2183974557717 Z" fill="none" stroke="#FFFFFF" stroke-width="2.355577231317562" /><path d="M 493.7557649509896,110.3191451976211 L 507.2523471568107,141.21839745577168 L 538.6449427627205,128.91285145101745 L 526.3393967579663,160.30544705692725 L 557.2386490161168,173.80202926274833 L 526.3393967579663,187.29861146856942 L 538.6449427627205,218.69120707447922 L 507.2523471568107,206.385661069725 L 493.7557649509896,237.28491332787559 L 480.2591827451685,206.385661069725 L 448.86658713925874,218.69120707447922 L 461.17213314401295,187.29861146856945 L 430.2728808858624,173.80202926274833 L 461.17213314401295,160.30544705692725 L 448.8665871392587,128.91285145101745 L 480.2591827451685,141.2183974557717 Z" fill="none" stroke="#FFFFFF" stroke-width="2.355577231317562" /><path d="M 634.8288406512723,110.3191451976211 L 648.3254228570935,141.21839745577168 L 679.7180184630032,128.91285145101745 L 667.412472458249,160.30544705692725 L 698.3117247163996,173.80202926274833 L 667.412472458249,187.29861146856942 L 679.7180184630032,218.69120707447922 L 648.3254228570935,206.385661069725 L 634.8288406512723,237.28491332787559 L 621.3322584454513,206.385661069725 L 589.9396628395415,218.69120707447922 L 602.2452088442957,187.29861146856945 L 571.3459565861451,173.80202926274833 L 602.2452088442957,160.30544705692725 L 589.9396628395415,128.91285145101745 L 621.3322584454512,141.2183974557717 Z" fill="none" stroke="#FFFFFF" stroke-width="2.355577231317562" /><path d="M 775.9019163515551,110.3191451976211 L 789.3984985573762,141.21839745577168 L 820.791094163286,128.91285145101745 L 808.4855481585317,160.30544705692725 L 839.3848004166823,173.80202926274833 L 808.4855481585317,187.29861146856942 L 820.791094163286,218.69120707447922 L 789.3984985573762,206.385661069725 L 775.9019163515551,237.28491332787559 L 762.4053341457341,206.385661069725 L 731.0127385398242,218.69120707447922 L 743.3182845445784,187.29861146856945 L 712.4190322864279,173.80202926274833 L 743.3182845445784,160.30544705692725 L 731.0127385398242,128.91285145101745 L 762.405334145734,141.2183974557717 Z" fill="none" stroke="#FFFFFF" stroke-width="2.355577231317562" /><path d="M 916.9749920518378,110.3191451976211 L 930.471574257659,141.21839745577168 L 961.8641698635687,128.91285145101745 L 949.5586238588145,160.30544705692725 L 980.457876116965,173.80202926274833 L 949.5586238588145,187.29861146856942 L 961.8641698635687,218.69120707447922 L 930.471574257659,206.385661069725 L 916.9749920518378,237.28491332787559 L 903.4784098460168,206.385661069725 L 872.085814240107,218.69120707447922 L 884.3913602448612,187.29861146856945 L 853.4921079867106,173.80202926274833 L 884.3913602448612,160.30544705692725 L 872.085814240107,128.91285145101745 L 903.4784098460167,141.2183974557717 Z" fill="none" stroke="#FFFFFF" stroke-width="2.355577231317562" /><path d="M 1058.0480677521205,110.3191451976211 L 1071.5446499579416,141.21839745577168 L 1102.9372455638513,128.91285145101745 L 1090.6316995590971,160.30544705692725 L 1121.5309518172478,173.80202926274833 L 1090.6316995590971,187.29861146856942 L 1102.9372455638513,218.69120707447922 L 1071.5446499579416,206.385661069725 L 1058.0480677521205,237.28491332787559 L 1044.5514855462993,206.385661069725 L 1013.1588899403896,218.69120707447922 L 1025.4644359451438,187.29861146856945 L 994.5651836869932,173.80202926274833 L 1025.4644359451438,160.30544705692725 L 1013.1588899403896,128.91285145101745 L 1044.5514855462993,141.2183974557717 Z" fill="none" stroke="#FFFFFF" stroke-width="2.355577231317562" /><path d="M 1199.1211434524034,110.3191451976211 L 1212.6177256582246,141.21839745577168 L 1244.0103212641343,128.91285145101745 L 1231.70477525938,160.30544705692725 L 1262.6040275175308,173.80202926274833 L 1231.70477525938,187.29861146856942 L 1244.0103212641343,218.69120707447922 L 1212.6177256582246,206.385661069725 L 1199.1211434524034,237.28491332787559 L 1185.6245612465823,206.385661069725 L 1154.2319656406726,218.69120707447922 L 1166.5375116454268,187.29861146856945 L 1135.638259387276,173.80202926274833 L 1166.5375116454268,160.30544705692725 L 1154.2319656406726,128.91285145101745 L 1185.6245612465823,141.2183974557717 Z" fill="none" stroke="#FFFFFF" stroke-width="2.355577231317562" /><path d="M 1340.194219152686,110.3191451976211 L 1353.690801358507,141.21839745577168 L 1385.0833969644168,128.91285145101745 L 1372.7778509596626,160.30544705692725 L 1403.6771032178133,173.80202926274833 L 1372.7778509596626,187.29861146856942 L 1385.0833969644168,218.69120707447922 L 1353.690801358507,206.385661069725 L 1340.194219152686,237.28491332787559 L 1326.6976369468648,206.385661069725 L 1295.305041340955,218.69120707447922 L 1307.6105873457093,187.29861146856945 L 1276.7113350875586,173.80202926274833 L 1307.6105873457093,160.30544705692725 L 1295.305041340955,128.91285145101745 L 1326.6976369468648,141.2183974557717 Z" fill="none" stroke="#FFFFFF" stroke-width="2.355577231317562" /><path d="M 1481.267294852969,110.3191451976211 L 1494.76387705879,141.21839745577168 L 1526.1564726646998,128.91285145101745 L 1513.8509266599456,160.30544705692725 L 1544.7501789180963,173.80202926274833 L 1513.8509266599456,187.29861146856942 L 1526.1564726646998,218.69120707447922 L 1494.76387705879,206.385661069725 L 1481.267294852969,237.28491332787559 L 1467.7707126471478,206.385661069725 L 1436.378117041238,218.69120707447922 L 1448.6836630459923,187.29861146856945 L 1417.7844107878416,173.80202926274833 L 1448.6836630459923,160.30544705692725 L 1436.378117041238,128.91285145101745 L 1467.7707126471478,141.2183974557717 Z" fill="none" stroke="#FFFFFF" stroke-width="2.355577231317562" /><path d="M 1622.3403705532514,110.3191451976211 L 1635.8369527590726,141.21839745577168 L 1667.2295483649823,128.91285145101745 L 1654.924002360228,160.30544705692725 L 1685.8232546183788,173.80202926274833 L 1654.924002360228,187.29861146856942 L 1667.2295483649823,218.69120707447922 L 1635.8369527590726,206.385661069725 L 1622.3403705532514,237.28491332787559 L 1608.8437883474303,206.385661069725 L 1577.4511927415206,218.69120707447922 L 1589.7567387462748,187.29861146856945 L 1558.857486488124,173.80202926274833 L 1589.7567387462748,160.30544705692725 L 1577.4511927415206,128.91285145101745 L 1608.8437883474303,141.2183974557717 Z" fill="none" stroke="#FFFFFF" stroke-width="2.355577231317562" /><path d="M 1763.4134462535344,110.3191451976211 L 1776.9100284593555,141.21839745577168 L 1808.3026240652653,128.91285145101745 L 1795.997078060511,160.30544705692725 L 1826.8963303186617,173.80202926274833 L 1795.997078060511,187.29861146856942 L 1808.3026240652653,218.69120707447922 L 1776.9100284593555,206.385661069725 L 1763.4134462535344,237.28491332787559 L 1749.9168640477133,206.385661069725 L 1718.5242684418035,218.69120707447922 L 1730.8298144465577,187.29861146856945 L 1699.930562188407,173.80202926274833 L 1730.8298144465577,160.30544705692725 L 1718.5242684418035,128.91285145101745 L 1749.9168640477133,141.2183974557717 Z" fill="none" stroke="#FFFFFF" stroke-width="2.355577231317562" /><path d="M 1904.486521953817,110.3191451976211 L 1917.983104159638,141.21839745577168 L 1949.3756997655478,128.91285145101745 L 1937.0701537607936,160.30544705692725 L 1967.9694060189443,173.80202926274833 L 1937.0701537607936,187.29861146856942 L 1949.3756997655478,218.69120707447922 L 1917.983104159638,206.385661069725 L 1904.486521953817,237.28491332787559 L 1890.9899397479958,206.385661069725 L 1859.597344142086,218.69120707447922 L 1871.9028901468403,187.29861146856945 L 1841.0036378886896,173.80202926274833 L 1871.9028901468403,160.30544705692725 L 1859.597344142086,128.91285145101745 L 1890.9899397479958,141.2183974557717 Z" fill="none" stroke="#FFFFFF" stroke-width="2.355577231317562" /><path d="M 2045.5595976540994,110.3191451976211 L 2059.0561798599206,141.21839745577168 L 2090.4487754658303,128.91285145101745 L 2078.143229461076,160.30544705692725 L 2109.0424817192265,173.80202926274833 L 2078.143229461076,187.29861146856942 L 2090.4487754658303,218.69120707447922 L 2059.0561798599206,206.385661069725 L 2045.5595976540994,237.28491332787559 L 2032.0630154482783,206.385661069725 L 2000.6704198423686,218.69120707447922 L 2012.9759658471228,187.29861146856945 L 1982.076713588972,173.80202926274833 L 2012.9759658471228,160.30544705692725 L 2000.6704198423686,128.91285145101745 L 2032.0630154482783,141.2183974557717 Z" fill="none" stroke="#FFFFFF" stroke-width="2.355577231317562" /><path d="M 3.887205538550029e-15,232.48842875406598 L 13.496582205821088,263.38768101221655 L 44.889177811730896,251.0821350074623 L 32.58363180697665,282.4747306133721 L 63.48288406512724,295.9713128191932 L 32.58363180697665,309.4678950250143 L 44.889177811730896,340.8604906309241 L 13.496582205821088,328.55494462616986 L 3.887205538550029e-15,359.4541968843204 L -13.496582205821083,328.55494462616986 L -44.88917781173089,340.8604906309241 L -32.58363180697664,309.4678950250143 L -63.48288406512724,295.9713128191932 L -32.58363180697664,282.4747306133721 L -44.8891778117309,251.0821350074623 L -13.496582205821104,263.38768101221655 Z" fill="none" stroke="#FFFFFF" stroke-width="2.355577231317562" /><path d="M 141.07307570028274,232.48842875406598 L 154.56965790610383,263.38768101221655 L 185.96225351201363,251.0821350074623 L 173.6567075072594,282.4747306133721 L 204.55595976540997,295.9713128191932 L 173.6567075072594,309.4678950250143 L 185.96225351201363,340.8604906309241 L 154.56965790610383,328.55494462616986 L 141.07307570028274,359.4541968843204 L 127.57649349446166,328.55494462616986 L 96.18389788855185,340.8604906309241 L 108.4894438933061,309.4678950250143 L 77.5901916351555,295.9713128191932 L 108.4894438933061,282.4747306133721 L 96.18389788855184,251.0821350074623 L 127.57649349446164,263.38768101221655 Z" fill="none" stroke="#FFFFFF" stroke-width="2.355577231317562" /><path d="M 282.1461514005655,232.48842875406598 L 295.64273360638657,263.38768101221655 L 327.0353292122964,251.0821350074623 L 314.72978320754214,282.4747306133721 L 345.6290354656927,295.9713128191932 L 314.72978320754214,309.4678950250143 L 327.0353292122964,340.8604906309241 L 295.64273360638657,328.55494462616986 L 282.1461514005655,359.4541968843204 L 268.6495691947444,328.55494462616986 L 237.2569735888346,340.8604906309241 L 249.56251959358883,309.4678950250143 L 218.66326733543826,295.9713128191932 L 249.56251959358883,282.4747306133721 L 237.25697358883457,251.0821350074623 L 268.6495691947444,263.38768101221655 Z" fill="none" stroke="#FFFFFF" stroke-width="2.355577231317562" /><path d="M 423.21922710084823,232.48842875406598 L 436.7158093066693,263.38768101221655 L 468.10840491257915,251.0821350074623 L 455.8028589078249,282.4747306133721 L 486.70211116597545,295.9713128191932 L 455.8028589078249,309.4678950250143 L 468.10840491257915,340.8604906309241 L 436.7158093066693,328.55494462616986 L 423.21922710084823,359.4541968843204 L 409.72264489502714,328.55494462616986 L 378.33004928911737,340.8604906309241 L 390.6355952938716,309.4678950250143 L 359.736343035721,295.9713128191932 L 390.6355952938716,282.4747306133721 L 378.3300492891173,251.0821350074623 L 409.72264489502714,263.38768101221655 Z" fill="none" stroke="#FFFFFF" stroke-width="2.355577231317562" /><path d="M 564.292302801131,232.48842875406598 L 577.7888850069521,263.38768101221655 L 609.1814806128618,251.0821350074623 L 596.8759346081076,282.4747306133721 L 627.7751868662582,295.9713128191932 L 596.8759346081076,309.4678950250143 L 609.1814806128618,340.8604906309241 L 577.7888850069521,328.55494462616986 L 564.292302801131,359.4541968843204 L 550.79572059531,328.55494462616986 L 519.4031249894001,340.8604906309241 L 531.7086709941543,309.4678950250143 L 500.80941873600375,295.9713128191932 L 531.7086709941543,282.4747306133721 L 519.4031249894001,251.0821350074623 L 550.7957205953098,263.38768101221655 Z" fill="none" stroke="#FFFFFF" stroke-width="2.355577231317562" /><path d="M 705.3653785014137,232.48842875406598 L 718.8619607072349,263.38768101221655 L 750.2545563131446,251.0821350074623 L 737.9490103083904,282.4747306133721 L 768.8482625665409,295.9713128191932 L 737.9490103083904,309.4678950250143 L 750.2545563131446,340.8604906309241 L 718.8619607072349,328.55494462616986 L 705.3653785014137,359.4541968843204 L 691.8687962955927,328.55494462616986 L 660.4762006896829,340.8604906309241 L 672.7817466944371,309.4678950250143 L 641.8824944362865,295.9713128191932 L 672.7817466944371,282.4747306133721 L 660.4762006896829,251.0821350074623 L 691.8687962955926,263.38768101221655 Z" fill="none" stroke="#FFFFFF" stroke-width="2.355577231317562" /><path d="M 846.4384542016965,232.48842875406598 L 859.9350364075176,263.38768101221655 L 891.3276320134273,251.0821350074623 L 879.0220860086731,282.4747306133721 L 909.9213382668237,295.9713128191932 L 879.0220860086731,309.4678950250143 L 891.3276320134273,340.8604906309241 L 859.9350364075176,328.55494462616986 L 846.4384542016965,359.4541968843204 L 832.9418719958754,328.55494462616986 L 801.5492763899656,340.8604906309241 L 813.8548223947198,309.4678950250143 L 782.9555701365692,295.9713128191932 L 813.8548223947198,282.4747306133721 L 801.5492763899656,251.0821350074623 L 832.9418719958753,263.38768101221655 Z" fill="none" stroke="#FFFFFF" stroke-width="2.355577231317562" /><path d="M 987.5115299019792,232.48842875406598 L 1001.0081121078003,263.38768101221655 L 1032.40070771371,251.0821350074623 L 1020.0951617089559,282.4747306133721 L 1050.9944139671065,295.9713128191932 L 1020.0951617089559,309.4678950250143 L 1032.40070771371,340.8604906309241 L 1001.0081121078003,328.55494462616986 L 987.5115299019792,359.4541968843204 L 974.0149476961582,328.55494462616986 L 942.6223520902483,340.8604906309241 L 954.9278980950025,309.4678950250143 L 924.028645836852,295.9713128191932 L 954.9278980950025,282.4747306133721 L 942.6223520902483,251.0821350074623 L 974.0149476961581,263.38768101221655 Z" fill="none" stroke="#FFFFFF" stroke-width="2.355577231317562" /><path d="M 1128.584605602262,232.48842875406598 L 1142.081187808083,263.38768101221655 L 1173.4737834139928,251.0821350074623 L 1161.1682374092386,282.4747306133721 L 1192.0674896673893,295.9713128191932 L 1161.1682374092386,309.4678950250143 L 1173.4737834139928,340.8604906309241 L 1142.081187808083,328.55494462616986 L 1128.584605602262,359.4541968843204 L 1115.0880233964408,328.55494462616986 L 1083.695427790531,340.8604906309241 L 1096.0009737952853,309.4678950250143 L 1065.1017215371346,295.9713128191932 L 1096.0009737952853,282.4747306133721 L 1083.695427790531,251.0821350074623 L 1115.0880233964408,263.38768101221655 Z" fill="none" stroke="#FFFFFF" stroke-width="2.355577231317562" /><path d="M 1269.657681302545,232.48842875406598 L 1283.154263508366,263.38768101221655 L 1314.5468591142758,251.0821350074623 L 1302.2413131095216,282.4747306133721 L 1333.1405653676723,295.9713128191932 L 1302.2413131095216,309.4678950250143 L 1314.5468591142758,340.8604906309241 L 1283.154263508366,328.55494462616986 L 1269.657681302545,359.4541968843204 L 1256.1610990967238,328.55494462616986 L 1224.768503490814,340.8604906309241 L 1237.0740494955683,309.4678950250143 L 1206.1747972374176,295.9713128191932 L 1237.0740494955683,282.4747306133721 L 1224.768503490814,251.0821350074623 L 1256.1610990967238,263.38768101221655 Z" fill="none" stroke="#FFFFFF" stroke-width="2.355577231317562" /><path d="M 1410.7307570028274,232.48842875406598 L 1424.2273392086486,263.38768101221655 L 1455.6199348145583,251.0821350074623 L 1443.314388809804,282.4747306133721 L 1474.2136410679548,295.9713128191932 L 1443.314388809804,309.4678950250143 L 1455.6199348145583,340.8604906309241 L 1424.2273392086486,328.55494462616986 L 1410.7307570028274,359.4541968843204 L 1397.2341747970063,328.55494462616986 L 1365.8415791910966,340.8604906309241 L 1378.1471251958508,309.4678950250143 L 1347.2478729377,295.9713128191932 L 1378.1471251958508,282.4747306133721 L 1365.8415791910966,251.0821350074623 L 1397.2341747970063,263.38768101221655 Z" fill="none" stroke="#FFFFFF" stroke-width="2.355577231317562" /><path d="M 1551.8038327031104,232.48842875406598 L 1565.3004149089315,263.38768101221655 L 1596.6930105148413,251.0821350074623 L 1584.387464510087,282.4747306133721 L 1615.2867167682377,295.9713128191932 L 1584.387464510087,309.4678950250143 L 1596.6930105148413,340.8604906309241 L 1565.3004149089315,328.55494462616986 L 1551.8038327031104,359.4541968843204 L 1538.3072504972893,328.55494462616986 L 1506.9146548913795,340.8604906309241 L 1519.2202008961337,309.4678950250143 L 1488.320948637983,295.9713128191932 L 1519.2202008961337,282.4747306133721 L 1506.9146548913795,251.0821350074623 L 1538.3072504972893,263.38768101221655 Z" fill="none" stroke="#FFFFFF" stroke-width="2.355577231317562" /><path d="M 1692.876908403393,232.48842875406598 L 1706.373490609214,263.38768101221655 L 1737.7660862151238,251.0821350074623 L 1725.4605402103696,282.4747306133721 L 1756.3597924685203,295.9713128191932 L 1725.4605402103696,309.4678950250143 L 1737.7660862151238,340.8604906309241 L 1706.373490609214,328.55494462616986 L 1692.876908403393,359.4541968843204 L 1679.3803261975718,328.55494462616986 L 1647.987730591662,340.8604906309241 L 1660.2932765964163,309.4678950250143 L 1629.3940243382656,295.9713128191932 L 1660.2932765964163,282.4747306133721 L 1647.987730591662,251.0821350074623 L 1679.3803261975718,263.38768101221655 Z" fill="none" stroke="#FFFFFF" stroke-width="2.355577231317562" /><path d="M 1833.949984103676,232.48842875406598 L 1847.446566309497,263.38768101221655 L 1878.8391619154067,251.0821350074623 L 1866.5336159106525,282.4747306133721 L 1897.4328681688032,295.9713128191932 L 1866.5336159106525,309.4678950250143 L 1878.8391619154067,340.8604906309241 L 1847.446566309497,328.55494462616986 L 1833.949984103676,359.4541968843204 L 1820.4534018978547,328.55494462616986 L 1789.060806291945,340.8604906309241 L 1801.3663522966992,309.4678950250143 L 1770.4671000385486,295.9713128191932 L 1801.3663522966992,282.4747306133721 L 1789.060806291945,251.0821350074623 L 1820.4534018978547,263.38768101221655 Z" fill="none" stroke="#FFFFFF" stroke-width="2.355577231317562" /><path d="M 1975.0230598039584,232.48842875406598 L 1988.5196420097795,263.38768101221655 L 2019.9122376156893,251.0821350074623 L 2007.606691610935,282.4747306133721 L 2038.5059438690857,295.9713128191932 L 2007.606691610935,309.4678950250143 L 2019.9122376156893,340.8604906309241 L 1988.5196420097795,328.55494462616986 L 1975.0230598039584,359.4541968843204 L 1961.5264775981373,328.55494462616986 L 1930.1338819922275,340.8604906309241 L 1942.4394279969817,309.4678950250143 L 1911.540175738831,295.9713128191932 L 1942.4394279969817,282.4747306133721 L 1930.1338819922275,251.0821350074623 L 1961.5264775981373,263.38768101221655 Z" fill="none" stroke="#FFFFFF" stroke-width="2.355577231317562" /><path d="M -70.53653785014137,354.6577123105108 L -57.03995564432029,385.5569645686614 L -25.647360038410476,373.2514185639071 L -37.952906043164724,404.64401416981696 L -7.053653785014134,418.14059637563804 L -37.952906043164724,431.6371785814591 L -25.647360038410476,463.02977418736896 L -57.03995564432029,450.7242281826147 L -70.53653785014137,481.62348044076526 L -84.03312005596246,450.7242281826147 L -115.42571566187226,463.02977418736896 L -103.12016965711801,431.6371785814591 L -134.0194219152686,418.14059637563804 L -103.12016965711801,404.64401416981696 L -115.42571566187227,373.2514185639071 L -84.03312005596247,385.5569645686614 Z" fill="none" stroke="#FFFFFF" stroke-width="2.355577231317562" /><path d="M 70.53653785014137,354.6577123105108 L 84.03312005596246,385.5569645686614 L 115.42571566187226,373.2514185639071 L 103.12016965711803,404.64401416981696 L 134.0194219152686,418.14059637563804 L 103.12016965711803,431.6371785814591 L 115.42571566187226,463.02977418736896 L 84.03312005596246,450.7242281826147 L 70.53653785014137,481.62348044076526 L 57.03995564432029,450.7242281826147 L 25.647360038410483,463.02977418736896 L 37.95290604316473,431.6371785814591 L 7.053653785014134,418.14059637563804 L 37.95290604316473,404.64401416981696 L 25.64736003841047,373.2514185639071 L 57.039955644320266,385.5569645686614 Z" fill="none" stroke="#FFFFFF" stroke-width="2.355577231317562" /><path d="M 211.60961355042411,354.6577123105108 L 225.1061957562452,385.5569645686614 L 256.49879136215503,373.2514185639071 L 244.19324535740077,404.64401416981696 L 275.09249761555134,418.14059637563804 L 244.19324535740077,431.6371785814591 L 256.49879136215503,463.02977418736896 L 225.1061957562452,450.7242281826147 L 211.60961355042411,481.62348044076526 L 198.11303134460303,450.7242281826147 L 166.72043573869323,463.02977418736896 L 179.02598174344746,431.6371785814591 L 148.1267294852969,418.14059637563804 L 179.02598174344746,404.64401416981696 L 166.7204357386932,373.2514185639071 L 198.113031344603,385.5569645686614 Z" fill="none" stroke="#FFFFFF" stroke-width="2.355577231317562" /><path d="M 352.68268925070686,354.6577123105108 L 366.17927145652794,385.5569645686614 L 397.5718670624378,373.2514185639071 L 385.2663210576835,404.64401416981696 L 416.1655733158341,418.14059637563804 L 385.2663210576835,431.6371785814591 L 397.5718670624378,463.02977418736896 L 366.17927145652794,450.7242281826147 L 352.68268925070686,481.62348044076526 L 339.1861070448858,450.7242281826147 L 307.793511438976,463.02977418736896 L 320.0990574437302,431.6371785814591 L 289.19980518557963,418.14059637563804 L 320.0990574437302,404.64401416981696 L 307.79351143897594,373.2514185639071 L 339.1861070448858,385.5569645686614 Z" fill="none" stroke="#FFFFFF" stroke-width="2.355577231317562" /><path d="M 493.7557649509896,354.6577123105108 L 507.2523471568107,385.5569645686614 L 538.6449427627205,373.2514185639071 L 526.3393967579663,404.64401416981696 L 557.2386490161168,418.14059637563804 L 526.3393967579663,431.6371785814591 L 538.6449427627205,463.02977418736896 L 507.2523471568107,450.7242281826147 L 493.7557649509896,481.62348044076526 L 480.2591827451685,450.7242281826147 L 448.86658713925874,463.02977418736896 L 461.17213314401295,431.6371785814591 L 430.2728808858624,418.14059637563804 L 461.17213314401295,404.64401416981696 L 448.8665871392587,373.2514185639071 L 480.2591827451685,385.5569645686614 Z" fill="none" stroke="#FFFFFF" stroke-width="2.355577231317562" /><path d="M 634.8288406512723,354.6577123105108 L 648.3254228570935,385.5569645686614 L 679.7180184630032,373.2514185639071 L 667.412472458249,404.64401416981696 L 698.3117247163996,418.14059637563804 L 667.412472458249,431.6371785814591 L 679.7180184630032,463.02977418736896 L 648.3254228570935,450.7242281826147 L 634.8288406512723,481.62348044076526 L 621.3322584454513,450.7242281826147 L 589.9396628395415,463.02977418736896 L 602.2452088442957,431.6371785814591 L 571.3459565861451,418.14059637563804 L 602.2452088442957,404.64401416981696 L 589.9396628395415,373.2514185639071 L 621.3322584454512,385.5569645686614 Z" fill="none" stroke="#FFFFFF" stroke-width="2.355577231317562" /><path d="M 775.9019163515551,354.6577123105108 L 789.3984985573762,385.5569645686614 L 820.791094163286,373.2514185639071 L 808.4855481585317,404.64401416981696 L 839.3848004166823,418.14059637563804 L 808.4855481585317,431.6371785814591 L 820.791094163286,463.02977418736896 L 789.3984985573762,450.7242281826147 L 775.9019163515551,481.62348044076526 L 762.4053341457341,450.7242281826147 L 731.0127385398242,463.02977418736896 L 743.3182845445784,431.6371785814591 L 712.4190322864279,418.14059637563804 L 743.3182845445784,404.64401416981696 L 731.0127385398242,373.2514185639071 L 762.405334145734,385.5569645686614 Z" fill="none" stroke="#FFFFFF" stroke-width="2.355577231317562" /><path d="M 916.9749920518378,354.6577123105108 L 930.471574257659,385.5569645686614 L 961.8641698635687,373.2514185639071 L 949.5586238588145,404.64401416981696 L 980.457876116965,418.14059637563804 L 949.5586238588145,431.6371785814591 L 961.8641698635687,463.02977418736896 L 930.471574257659,450.7242281826147 L 916.9749920518378,481.62348044076526 L 903.4784098460168,450.7242281826147 L 872.085814240107,463.02977418736896 L 884.3913602448612,431.6371785814591 L 853.4921079867106,418.14059637563804 L 884.3913602448612,404.64401416981696 L 872.085814240107,373.2514185639071 L 903.4784098460167,385.5569645686614 Z" fill="none" stroke="#FFFFFF" stroke-width="2.355577231317562" /><path d="M 1058.0480677521205,354.6577123105108 L 1071.5446499579416,385.5569645686614 L 1102.9372455638513,373.2514185639071 L 1090.6316995590971,404.64401416981696 L 1121.5309518172478,418.14059637563804 L 1090.6316995590971,431.6371785814591 L 1102.9372455638513,463.02977418736896 L 1071.5446499579416,450.7242281826147 L 1058.0480677521205,481.62348044076526 L 1044.5514855462993,450.7242281826147 L 1013.1588899403896,463.02977418736896 L 1025.4644359451438,431.6371785814591 L 994.5651836869932,418.14059637563804 L 1025.4644359451438,404.64401416981696 L 1013.1588899403896,373.2514185639071 L 1044.5514855462993,385.5569645686614 Z" fill="none" stroke="#FFFFFF" stroke-width="2.355577231317562" /><path d="M 1199.1211434524034,354.6577123105108 L 1212.6177256582246,385.5569645686614 L 1244.0103212641343,373.2514185639071 L 1231.70477525938,404.64401416981696 L 1262.6040275175308,418.14059637563804 L 1231.70477525938,431.6371785814591 L 1244.0103212641343,463.02977418736896 L 1212.6177256582246,450.7242281826147 L 1199.1211434524034,481.62348044076526 L 1185.6245612465823,450.7242281826147 L 1154.2319656406726,463.02977418736896 L 1166.5375116454268,431.6371785814591 L 1135.638259387276,418.14059637563804 L 1166.5375116454268,404.64401416981696 L 1154.2319656406726,373.2514185639071 L 1185.6245612465823,385.5569645686614 Z" fill="none" stroke="#FFFFFF" stroke-width="2.355577231317562" /><path d="M 1340.194219152686,354.6577123105108 L 1353.690801358507,385.5569645686614 L 1385.0833969644168,373.2514185639071 L 1372.7778509596626,404.64401416981696 L 1403.6771032178133,418.14059637563804 L 1372.7778509596626,431.6371785814591 L 1385.0833969644168,463.02977418736896 L 1353.690801358507,450.7242281826147 L 1340.194219152686,481.62348044076526 L 1326.6976369468648,450.7242281826147 L 1295.305041340955,463.02977418736896 L 1307.6105873457093,431.6371785814591 L 1276.7113350875586,418.14059637563804 L 1307.6105873457093,404.64401416981696 L 1295.305041340955,373.2514185639071 L 1326.6976369468648,385.5569645686614 Z" fill="none" stroke="#FFFFFF" stroke-width="2.355577231317562" /><path d="M 1481.267294852969,354.6577123105108 L 1494.76387705879,385.5569645686614 L 1526.1564726646998,373.2514185639071 L 1513.8509266599456,404.64401416981696 L 1544.7501789180963,418.14059637563804 L 1513.8509266599456,431.6371785814591 L 1526.1564726646998,463.02977418736896 L 1494.76387705879,450.7242281826147 L 1481.267294852969,481.62348044076526 L 1467.7707126471478,450.7242281826147 L 1436.378117041238,463.02977418736896 L 1448.6836630459923,431.6371785814591 L 1417.7844107878416,418.14059637563804 L 1448.6836630459923,404.64401416981696 L 1436.378117041238,373.2514185639071 L 1467.7707126471478,385.5569645686614 Z" fill="none" stroke="#FFFFFF" stroke-width="2.355577231317562" /><path d="M 1622.3403705532514,354.6577123105108 L 1635.8369527590726,385.5569645686614 L 1667.2295483649823,373.2514185639071 L 1654.924002360228,404.64401416981696 L 1685.8232546183788,418.14059637563804 L 1654.924002360228,431.6371785814591 L 1667.2295483649823,463.02977418736896 L 1635.8369527590726,450.7242281826147 L 1622.3403705532514,481.62348044076526 L 1608.8437883474303,450.7242281826147 L 1577.4511927415206,463.02977418736896 L 1589.7567387462748,431.6371785814591 L 1558.857486488124,418.14059637563804 L 1589.7567387462748,404.64401416981696 L 1577.4511927415206,373.2514185639071 L 1608.8437883474303,385.5569645686614 Z" fill="none" stroke="#FFFFFF" stroke-width="2.355577231317562" /><path d="M 1763.4134462535344,354.6577123105108 L 1776.9100284593555,385.5569645686614 L 1808.3026240652653,373.2514185639071 L 1795.997078060511,404.64401416981696 L 1826.8963303186617,418.14059637563804 L 1795.997078060511,431.6371785814591 L 1808.3026240652653,463.02977418736896 L 1776.9100284593555,450.7242281826147 L 1763.4134462535344,481.62348044076526 L 1749.9168640477133,450.7242281826147 L 1718.5242684418035,463.02977418736896 L 1730.8298144465577,431.6371785814591 L 1699.930562188407,418.14059637563804 L 1730.8298144465577,404.64401416981696 L 1718.5242684418035,373.2514185639071 L 1749.9168640477133,385.5569645686614 Z" fill="none" stroke="#FFFFFF" stroke-width="2.355577231317562" /><path d="M 1904.486521953817,354.6577123105108 L 1917.983104159638,385.5569645686614 L 1949.3756997655478,373.2514185639071 L 1937.0701537607936,404.64401416981696 L 1967.9694060189443,418.14059637563804 L 1937.0701537607936,431.6371785814591 L 1949.3756997655478,463.02977418736896 L 1917.983104159638,450.7242281826147 L 1904.486521953817,481.62348044076526 L 1890.9899397479958,450.7242281826147 L 1859.597344142086,463.02977418736896 L 1871.9028901468403,431.6371785814591 L 1841.0036378886896,418.14059637563804 L 1871.9028901468403,404.64401416981696 L 1859.597344142086,373.2514185639071 L 1890.9899397479958,385.5569645686614 Z" fill="none" stroke="#FFFFFF" stroke-width="2.355577231317562" /><path d="M 2045.5595976540994,354.6577123105108 L 2059.0561798599206,385.5569645686614 L 2090.4487754658303,373.2514185639071 L 2078.143229461076,404.64401416981696 L 2109.0424817192265,418.14059637563804 L 2078.143229461076,431.6371785814591 L 2090.4487754658303,463.02977418736896 L 2059.0561798599206,450.7242281826147 L 2045.5595976540994,481.62348044076526 L 2032.0630154482783,450.7242281826147 L 2000.6704198423686,463.02977418736896 L 2012.9759658471228,431.6371785814591 L 1982.076713588972,418.14059637563804 L 2012.9759658471228,404.64401416981696 L 2000.6704198423686,373.2514185639071 L 2032.0630154482783,385.5569645686614 Z" fill="none" stroke="#FFFFFF" stroke-width="2.355577231317562" /><path d="M 3.887205538550029e-15,476.8269958669557 L 13.496582205821088,507.7262481251063 L 44.889177811730896,495.4207021203521 L 32.58363180697665,526.8132977262619 L 63.48288406512724,540.3098799320829 L 32.58363180697665,553.806462137904 L 44.889177811730896,585.1990577438138 L 13.496582205821088,572.8935117390596 L 3.887205538550029e-15,603.7927639972102 L -13.496582205821083,572.8935117390596 L -44.88917781173089,585.1990577438138 L -32.58363180697664,553.8064621379041 L -63.48288406512724,540.3098799320829 L -32.58363180697664,526.8132977262618 L -44.8891778117309,495.4207021203521 L -13.496582205821104,507.7262481251063 Z" fill="none" stroke="#FFFFFF" stroke-width="2.355577231317562" /><path d="M 141.07307570028274,476.8269958669557 L 154.56965790610383,507.7262481251063 L 185.96225351201363,495.4207021203521 L 173.6567075072594,526.8132977262619 L 204.55595976540997,540.3098799320829 L 173.6567075072594,553.806462137904 L 185.96225351201363,585.1990577438138 L 154.56965790610383,572.8935117390596 L 141.07307570028274,603.7927639972102 L 127.57649349446166,572.8935117390596 L 96.18389788855185,585.1990577438138 L 108.4894438933061,553.8064621379041 L 77.5901916351555,540.3098799320829 L 108.4894438933061,526.8132977262618 L 96.18389788855184,495.4207021203521 L 127.57649349446164,507.7262481251063 Z" fill="none" stroke="#FFFFFF" stroke-width="2.355577231317562" /><path d="M 282.1461514005655,476.8269958669557 L 295.64273360638657,507.7262481251063 L 327.0353292122964,495.4207021203521 L 314.72978320754214,526.8132977262619 L 345.6290354656927,540.3098799320829 L 314.72978320754214,553.806462137904 L 327.0353292122964,585.1990577438138 L 295.64273360638657,572.8935117390596 L 282.1461514005655,603.7927639972102 L 268.6495691947444,572.8935117390596 L 237.2569735888346,585.1990577438138 L 249.56251959358883,553.8064621379041 L 218.66326733543826,540.3098799320829 L 249.56251959358883,526.8132977262618 L 237.25697358883457,495.4207021203521 L 268.6495691947444,507.7262481251063 Z" fill="none" stroke="#FFFFFF" stroke-width="2.355577231317562" /><path d="M 423.21922710084823,476.8269958669557 L 436.7158093066693,507.7262481251063 L 468.10840491257915,495.4207021203521 L 455.8028589078249,526.8132977262619 L 486.70211116597545,540.3098799320829 L 455.8028589078249,553.806462137904 L 468.10840491257915,585.1990577438138 L 436.7158093066693,572.8935117390596 L 423.21922710084823,603.7927639972102 L 409.72264489502714,572.8935117390596 L 378.33004928911737,585.1990577438138 L 390.6355952938716,553.8064621379041 L 359.736343035721,540.3098799320829 L 390.6355952938716,526.8132977262618 L 378.3300492891173,495.4207021203521 L 409.72264489502714,507.7262481251063 Z" fill="none" stroke="#FFFFFF" stroke-width="2.355577231317562" /><path d="M 564.292302801131,476.8269958669557 L 577.7888850069521,507.7262481251063 L 609.1814806128618,495.4207021203521 L 596.8759346081076,526.8132977262619 L 627.7751868662582,540.3098799320829 L 596.8759346081076,553.806462137904 L 609.1814806128618,585.1990577438138 L 577.7888850069521,572.8935117390596 L 564.292302801131,603.7927639972102 L 550.79572059531,572.8935117390596 L 519.4031249894001,585.1990577438138 L 531.7086709941543,553.8064621379041 L 500.80941873600375,540.3098799320829 L 531.7086709941543,526.8132977262618 L 519.4031249894001,495.4207021203521 L 550.7957205953098,507.7262481251063 Z" fill="none" stroke="#FFFFFF" stroke-width="2.355577231317562" /><path d="M 705.3653785014137,476.8269958669557 L 718.8619607072349,507.7262481251063 L 750.2545563131446,495.4207021203521 L 737.9490103083904,526.8132977262619 L 768.8482625665409,540.3098799320829 L 737.9490103083904,553.806462137904 L 750.2545563131446,585.1990577438138 L 718.8619607072349,572.8935117390596 L 705.3653785014137,603.7927639972102 L 691.8687962955927,572.8935117390596 L 660.4762006896829,585.1990577438138 L 672.7817466944371,553.8064621379041 L 641.8824944362865,540.3098799320829 L 672.7817466944371,526.8132977262618 L 660.4762006896829,495.4207021203521 L 691.8687962955926,507.7262481251063 Z" fill="none" stroke="#FFFFFF" stroke-width="2.355577231317562" /><path d="M 846.4384542016965,476.8269958669557 L 859.9350364075176,507.7262481251063 L 891.3276320134273,495.4207021203521 L 879.0220860086731,526.8132977262619 L 909.9213382668237,540.3098799320829 L 879.0220860086731,553.806462137904 L 891.3276320134273,585.1990577438138 L 859.9350364075176,572.8935117390596 L 846.4384542016965,603.7927639972102 L 832.9418719958754,572.8935117390596 L 801.5492763899656,585.1990577438138 L 813.8548223947198,553.8064621379041 L 782.9555701365692,540.3098799320829 L 813.8548223947198,526.8132977262618 L 801.5492763899656,495.4207021203521 L 832.9418719958753,507.7262481251063 Z" fill="none" stroke="#FFFFFF" stroke-width="2.355577231317562" /><path d="M 987.5115299019792,476.8269958669557 L 1001.0081121078003,507.7262481251063 L 1032.40070771371,495.4207021203521 L 1020.0951617089559,526.8132977262619 L 1050.9944139671065,540.3098799320829 L 1020.0951617089559,553.806462137904 L 1032.40070771371,585.1990577438138 L 1001.0081121078003,572.8935117390596 L 987.5115299019792,603.7927639972102 L 974.0149476961582,572.8935117390596 L 942.6223520902483,585.1990577438138 L 954.9278980950025,553.8064621379041 L 924.028645836852,540.3098799320829 L 954.9278980950025,526.8132977262618 L 942.6223520902483,495.4207021203521 L 974.0149476961581,507.7262481251063 Z" fill="none" stroke="#FFFFFF" stroke-width="2.355577231317562" /><path d="M 1128.584605602262,476.8269958669557 L 1142.081187808083,507.7262481251063 L 1173.4737834139928,495.4207021203521 L 1161.1682374092386,526.8132977262619 L 1192.0674896673893,540.3098799320829 L 1161.1682374092386,553.806462137904 L 1173.4737834139928,585.1990577438138 L 1142.081187808083,572.8935117390596 L 1128.584605602262,603.7927639972102 L 1115.0880233964408,572.8935117390596 L 1083.695427790531,585.1990577438138 L 1096.0009737952853,553.8064621379041 L 1065.1017215371346,540.3098799320829 L 1096.0009737952853,526.8132977262618 L 1083.695427790531,495.4207021203521 L 1115.0880233964408,507.7262481251063 Z" fill="none" stroke="#FFFFFF" stroke-width="2.355577231317562" /><path d="M 1269.657681302545,476.8269958669557 L 1283.154263508366,507.7262481251063 L 1314.5468591142758,495.4207021203521 L 1302.2413131095216,526.8132977262619 L 1333.1405653676723,540.3098799320829 L 1302.2413131095216,553.806462137904 L 1314.5468591142758,585.1990577438138 L 1283.154263508366,572.8935117390596 L 1269.657681302545,603.7927639972102 L 1256.1610990967238,572.8935117390596 L 1224.768503490814,585.1990577438138 L 1237.0740494955683,553.8064621379041 L 1206.1747972374176,540.3098799320829 L 1237.0740494955683,526.8132977262618 L 1224.768503490814,495.4207021203521 L 1256.1610990967238,507.7262481251063 Z" fill="none" stroke="#FFFFFF" stroke-width="2.355577231317562" /><path d="M 1410.7307570028274,476.8269958669557 L 1424.2273392086486,507.7262481251063 L 1455.6199348145583,495.4207021203521 L 1443.314388809804,526.8132977262619 L 1474.2136410679548,540.3098799320829 L 1443.314388809804,553.806462137904 L 1455.6199348145583,585.1990577438138 L 1424.2273392086486,572.8935117390596 L 1410.7307570028274,603.7927639972102 L 1397.2341747970063,572.8935117390596 L 1365.8415791910966,585.1990577438138 L 1378.1471251958508,553.8064621379041 L 1347.2478729377,540.3098799320829 L 1378.1471251958508,526.8132977262618 L 1365.8415791910966,495.4207021203521 L 1397.2341747970063,507.7262481251063 Z" fill="none" stroke="#FFFFFF" stroke-width="2.355577231317562" /><path d="M 1551.8038327031104,476.8269958669557 L 1565.3004149089315,507.7262481251063 L 1596.6930105148413,495.4207021203521 L 1584.387464510087,526.8132977262619 L 1615.2867167682377,540.3098799320829 L 1584.387464510087,553.806462137904 L 1596.6930105148413,585.1990577438138 L 1565.3004149089315,572.8935117390596 L 1551.8038327031104,603.7927639972102 L 1538.3072504972893,572.8935117390596 L 1506.9146548913795,585.1990577438138 L 1519.2202008961337,553.8064621379041 L 1488.320948637983,540.3098799320829 L 1519.2202008961337,526.8132977262618 L 1506.9146548913795,495.4207021203521 L 1538.3072504972893,507.7262481251063 Z" fill="none" stroke="#FFFFFF" stroke-width="2.355577231317562" /><path d="M 1692.876908403393,476.8269958669557 L 1706.373490609214,507.7262481251063 L 1737.7660862151238,495.4207021203521 L 1725.4605402103696,526.8132977262619 L 1756.3597924685203,540.3098799320829 L 1725.4605402103696,553.806462137904 L 1737.7660862151238,585.1990577438138 L 1706.373490609214,572.8935117390596 L 1692.876908403393,603.7927639972102 L 1679.3803261975718,572.8935117390596 L 1647.987730591662,585.1990577438138 L 1660.2932765964163,553.8064621379041 L 1629.3940243382656,540.3098799320829 L 1660.2932765964163,526.8132977262618 L 1647.987730591662,495.4207021203521 L 1679.3803261975718,507.7262481251063 Z" fill="none" stroke="#FFFFFF" stroke-width="2.355577231317562" /><path d="M 1833.949984103676,476.8269958669557 L 1847.446566309497,507.7262481251063 L 1878.8391619154067,495.4207021203521 L 1866.5336159106525,526.8132977262619 L 1897.4328681688032,540.3098799320829 L 1866.5336159106525,553.806462137904 L 1878.8391619154067,585.1990577438138 L 1847.446566309497,572.8935117390596 L 1833.949984103676,603.7927639972102 L 1820.4534018978547,572.8935117390596 L 1789.060806291945,585.1990577438138 L 1801.3663522966992,553.8064621379041 L 1770.4671000385486,540.3098799320829 L 1801.3663522966992,526.8132977262618 L 1789.060806291945,495.4207021203521 L 1820.4534018978547,507.7262481251063 Z" fill="none" stroke="#FFFFFF" stroke-width="2.355577231317562" /><path d="M 1975.0230598039584,476.8269958669557 L 1988.5196420097795,507.7262481251063 L 2019.9122376156893,495.4207021203521 L 2007.606691610935,526.8132977262619 L 2038.5059438690857,540.3098799320829 L 2007.606691610935,553.806462137904 L 2019.9122376156893,585.1990577438138 L 1988.5196420097795,572.8935117390596 L 1975.0230598039584,603.7927639972102 L 1961.5264775981373,572.8935117390596 L 1930.1338819922275,585.1990577438138 L 1942.4394279969817,553.8064621379041 L 1911.540175738831,540.3098799320829 L 1942.4394279969817,526.8132977262618 L 1930.1338819922275,495.4207021203521 L 1961.5264775981373,507.7262481251063 Z" fill="none" stroke="#FFFFFF" stroke-width="2.355577231317562" /><line x1="63.48288406512724" y1="51.63274570630348" x2="77.5901916351555" y2="51.63274570630348" stroke="#FFFFFF" stroke-width="0.5"/><line x1="204.55595976540997" y1="51.63274570630348" x2="218.66326733543826" y2="51.63274570630348" stroke="#FFFFFF" stroke-width="0.5"/><line x1="345.6290354656927" y1="51.63274570630348" x2="359.736343035721" y2="51.63274570630348" stroke="#FFFFFF" stroke-width="0.5"/><line x1="486.70211116597545" y1="51.63274570630348" x2="500.80941873600375" y2="51.63274570630348" stroke="#FFFFFF" stroke-width="0.5"/><line x1="627.7751868662582" y1="51.63274570630348" x2="641.8824944362865" y2="51.63274570630348" stroke="#FFFFFF" stroke-width="0.5"/><line x1="768.8482625665409" y1="51.63274570630348" x2="782.9555701365692" y2="51.63274570630348" stroke="#FFFFFF" stroke-width="0.5"/><line x1="909.9213382668237" y1="51.63274570630348" x2="924.028645836852" y2="51.63274570630348" stroke="#FFFFFF" stroke-width="0.5"/><line x1="1050.9944139671065" y1="51.63274570630348" x2="1065.1017215371346" y2="51.63274570630348" stroke="#FFFFFF" stroke-width="0.5"/><line x1="1192.0674896673893" y1="51.63274570630348" x2="1206.1747972374176" y2="51.63274570630348" stroke="#FFFFFF" stroke-width="0.5"/><line x1="1333.1405653676723" y1="51.63274570630348" x2="1347.2478729377" y2="51.63274570630348" stroke="#FFFFFF" stroke-width="0.5"/><line x1="1474.2136410679548" y1="51.63274570630348" x2="1488.320948637983" y2="51.63274570630348" stroke="#FFFFFF" stroke-width="0.5"/><line x1="1615.2867167682377" y1="51.63274570630348" x2="1629.3940243382656" y2="51.63274570630348" stroke="#FFFFFF" stroke-width="0.5"/><line x1="1756.3597924685203" y1="51.63274570630348" x2="1770.4671000385486" y2="51.63274570630348" stroke="#FFFFFF" stroke-width="0.5"/><line x1="1897.4328681688032" y1="51.63274570630348" x2="1911.540175738831" y2="51.63274570630348" stroke="#FFFFFF" stroke-width="0.5"/><line x1="134.0194219152686" y1="173.80202926274833" x2="148.1267294852969" y2="173.80202926274833" stroke="#FFFFFF" stroke-width="0.5"/><line x1="275.09249761555134" y1="173.80202926274833" x2="289.19980518557963" y2="173.80202926274833" stroke="#FFFFFF" stroke-width="0.5"/><line x1="416.1655733158341" y1="173.80202926274833" x2="430.2728808858624" y2="173.80202926274833" stroke="#FFFFFF" stroke-width="0.5"/><line x1="557.2386490161168" y1="173.80202926274833" x2="571.3459565861451" y2="173.80202926274833" stroke="#FFFFFF" stroke-width="0.5"/><line x1="698.3117247163996" y1="173.80202926274833" x2="712.4190322864279" y2="173.80202926274833" stroke="#FFFFFF" stroke-width="0.5"/><line x1="839.3848004166823" y1="173.80202926274833" x2="853.4921079867106" y2="173.80202926274833" stroke="#FFFFFF" stroke-width="0.5"/><line x1="980.457876116965" y1="173.80202926274833" x2="994.5651836869932" y2="173.80202926274833" stroke="#FFFFFF" stroke-width="0.5"/><line x1="1121.5309518172478" y1="173.80202926274833" x2="1135.638259387276" y2="173.80202926274833" stroke="#FFFFFF" stroke-width="0.5"/><line x1="1262.6040275175308" y1="173.80202926274833" x2="1276.7113350875586" y2="173.80202926274833" stroke="#FFFFFF" stroke-width="0.5"/><line x1="1403.6771032178133" y1="173.80202926274833" x2="1417.7844107878416" y2="173.80202926274833" stroke="#FFFFFF" stroke-width="0.5"/><line x1="1544.7501789180963" y1="173.80202926274833" x2="1558.857486488124" y2="173.80202926274833" stroke="#FFFFFF" stroke-width="0.5"/><line x1="1685.8232546183788" y1="173.80202926274833" x2="1699.930562188407" y2="173.80202926274833" stroke="#FFFFFF" stroke-width="0.5"/><line x1="1826.8963303186617" y1="173.80202926274833" x2="1841.0036378886896" y2="173.80202926274833" stroke="#FFFFFF" stroke-width="0.5"/><line x1="63.48288406512724" y1="295.9713128191932" x2="77.5901916351555" y2="295.9713128191932" stroke="#FFFFFF" stroke-width="0.5"/><line x1="204.55595976540997" y1="295.9713128191932" x2="218.66326733543826" y2="295.9713128191932" stroke="#FFFFFF" stroke-width="0.5"/><line x1="345.6290354656927" y1="295.9713128191932" x2="359.736343035721" y2="295.9713128191932" stroke="#FFFFFF" stroke-width="0.5"/><line x1="486.70211116597545" y1="295.9713128191932" x2="500.80941873600375" y2="295.9713128191932" stroke="#FFFFFF" stroke-width="0.5"/><line x1="627.7751868662582" y1="295.9713128191932" x2="641.8824944362865" y2="295.9713128191932" stroke="#FFFFFF" stroke-width="0.5"/><line x1="768.8482625665409" y1="295.9713128191932" x2="782.9555701365692" y2="295.9713128191932" stroke="#FFFFFF" stroke-width="0.5"/><line x1="909.9213382668237" y1="295.9713128191932" x2="924.028645836852" y2="295.9713128191932" stroke="#FFFFFF" stroke-width="0.5"/><line x1="1050.9944139671065" y1="295.9713128191932" x2="1065.1017215371346" y2="295.9713128191932" stroke="#FFFFFF" stroke-width="0.5"/><line x1="1192.0674896673893" y1="295.9713128191932" x2="1206.1747972374176" y2="295.9713128191932" stroke="#FFFFFF" stroke-width="0.5"/><line x1="1333.1405653676723" y1="295.9713128191932" x2="1347.2478729377" y2="295.9713128191932" stroke="#FFFFFF" stroke-width="0.5"/><line x1="1474.2136410679548" y1="295.9713128191932" x2="1488.320948637983" y2="295.9713128191932" stroke="#FFFFFF" stroke-width="0.5"/><line x1="1615.2867167682377" y1="295.9713128191932" x2="1629.3940243382656" y2="295.9713128191932" stroke="#FFFFFF" stroke-width="0.5"/><line x1="1756.3597924685203" y1="295.9713128191932" x2="1770.4671000385486" y2="295.9713128191932" stroke="#FFFFFF" stroke-width="0.5"/><line x1="1897.4328681688032" y1="295.9713128191932" x2="1911.540175738831" y2="295.9713128191932" stroke="#FFFFFF" stroke-width="0.5"/><line x1="134.0194219152686" y1="418.14059637563804" x2="148.1267294852969" y2="418.14059637563804" stroke="#FFFFFF" stroke-width="0.5"/><line x1="275.09249761555134" y1="418.14059637563804" x2="289.19980518557963" y2="418.14059637563804" stroke="#FFFFFF" stroke-width="0.5"/><line x1="416.1655733158341" y1="418.14059637563804" x2="430.2728808858624" y2="418.14059637563804" stroke="#FFFFFF" stroke-width="0.5"/><line x1="557.2386490161168" y1="418.14059637563804" x2="571.3459565861451" y2="418.14059637563804" stroke="#FFFFFF" stroke-width="0.5"/><line x1="698.3117247163996" y1="418.14059637563804" x2="712.4190322864279" y2="418.14059637563804" stroke="#FFFFFF" stroke-width="0.5"/><line x1="839.3848004166823" y1="418.14059637563804" x2="853.4921079867106" y2="418.14059637563804" stroke="#FFFFFF" stroke-width="0.5"/><line x1="980.457876116965" y1="418.14059637563804" x2="994.5651836869932" y2="418.14059637563804" stroke="#FFFFFF" stroke-width="0.5"/><line x1="1121.5309518172478" y1="418.14059637563804" x2="1135.638259387276" y2="418.14059637563804" stroke="#FFFFFF" stroke-width="0.5"/><line x1="1262.6040275175308" y1="418.14059637563804" x2="1276.7113350875586" y2="418.14059637563804" stroke="#FFFFFF" stroke-width="0.5"/><line x1="1403.6771032178133" y1="418.14059637563804" x2="1417.7844107878416" y2="418.14059637563804" stroke="#FFFFFF" stroke-width="0.5"/><line x1="1544.7501789180963" y1="418.14059637563804" x2="1558.857486488124" y2="418.14059637563804" stroke="#FFFFFF" stroke-width="0.5"/><line x1="1685.8232546183788" y1="418.14059637563804" x2="1699.930562188407" y2="418.14059637563804" stroke="#FFFFFF" stroke-width="0.5"/><line x1="1826.8963303186617" y1="418.14059637563804" x2="1841.0036378886896" y2="418.14059637563804" stroke="#FFFFFF" stroke-width="0.5"/></g><g opacity="0.21071810729835094"><path d="M 66.73484805353678 301.38869776455164 L 66.73484805353678 347.6999574729562 L 0 347.6999574729562" fill="none" stroke="#FFFFFF" stroke-width="0.9839887621272303" stroke-linecap="square"/><path d="M 1434.2372710230934 76.04696277344924 L 1364.1812857568725 76.04696277344924 L 1364.1812857568725 14.230443596325394" fill="none" stroke="#FFFFFF" stroke-width="0.9839887621272303" stroke-linecap="square"/><path d="M 1604.224549086869 94.0670013865768 L 1604.224549086869 189.4489472531456 L 1548.9734492867162 189.4489472531456" fill="none" stroke="#FFFFFF" stroke-width="0.9839887621272303" stroke-linecap="square"/><path d="M 1320.4850012252505 401.84206027623367 L 1320.4850012252505 480 L 1268.8428367145468 480" fill="none" stroke="#FFFFFF" stroke-width="0.9839887621272303" stroke-linecap="square"/><path d="M 1377.4781805730788 242.35736858209472 L 1377.4781805730788 307.6660991755444 L 1410.2631759403196 307.6660991755444" fill="none" stroke="#FFFFFF" stroke-width="0.9839887621272303" stroke-linecap="square"/><path d="M 833.2551960056906 34.893350617444774 L 833.2551960056906 0 L 897.8162262596994 0 L 897.8162262596994 0" fill="none" stroke="#FFFFFF" stroke-width="0.9839887621272303" stroke-linecap="square"/><path d="M 72.46627810991662 411.3689949043882 L 119.6320484240126 411.3689949043882 L 119.6320484240126 480 L 188.62666171388727 480" fill="none" stroke="#FFFFFF" stroke-width="0.9839887621272303" stroke-linecap="square"/><path d="M 1082.870407608743 329.7936059580155 L 1015.6507896280195 329.7936059580155 L 1015.6507896280195 232.59029212675802" fill="none" stroke="#FFFFFF" stroke-width="0.9839887621272303" stroke-linecap="square"/><path d="M 696.5103152657441 269.4010163608012 L 741.0713494443361 269.4010163608012 L 741.0713494443361 317.8352239281538 L 652.970412889645 317.8352239281538" fill="none" stroke="#FFFFFF" stroke-width="0.9839887621272303" stroke-linecap="square"/><path d="M 964.9420170508986 145.21957404223252 L 1052.6855695016136 145.21957404223252 L 1052.6855695016136 213.3044135547435" fill="none" stroke="#FFFFFF" stroke-width="0.9839887621272303" stroke-linecap="square"/><path d="M 320.1651765406901 106.56436448291149 L 320.1651765406901 71.81720718681822 L 279.494982880382 71.81720718681822" fill="none" stroke="#FFFFFF" stroke-width="0.9839887621272303" stroke-linecap="square"/><path d="M 1860.814133556939 163.83825309753337 L 1920 163.83825309753337 L 1920 246.49045652695963 L 1920 246.49045652695963" fill="none" stroke="#FFFFFF" stroke-width="0.9839887621272303" stroke-linecap="square"/><path d="M 1119.3530278649894 152.68524177031836 L 1119.3530278649894 194.1978398015812 L 1209.8200092146585 194.1978398015812 L 1209.8200092146585 248.13952990349514" fill="none" stroke="#FFFFFF" stroke-width="0.9839887621272303" stroke-linecap="square"/><path d="M 1213.8027196814319 361.8006707922559 L 1131.7539730012554 361.8006707922559 L 1131.7539730012554 402.36441013239516" fill="none" stroke="#FFFFFF" stroke-width="0.9839887621272303" stroke-linecap="square"/><path d="M 498.2986452515696 75.47676089940441 L 579.7817366563838 75.47676089940441 L 579.7817366563838 37.34057383717914" fill="none" stroke="#FFFFFF" stroke-width="0.9839887621272303" stroke-linecap="square"/><path d="M 1344.0783697665101 465.35705588076127 L 1344.0783697665101 425.3485192050447 L 1283.066988422565 425.3485192050447 L 1283.066988422565 337.98492190784737" fill="none" stroke="#FFFFFF" stroke-width="0.9839887621272303" stroke-linecap="square"/><path d="M 175.1751709800098 307.9792930129819 L 175.1751709800098 268.0090032522497 L 104.2874859127499 268.0090032522497" fill="none" stroke="#FFFFFF" stroke-width="0.9839887621272303" stroke-linecap="square"/><path d="M 143.51371771819598 383.7300826905901 L 143.51371771819598 445.54669949863927 L 236.75161117413205 445.54669949863927 L 236.75161117413205 480" fill="none" stroke="#FFFFFF" stroke-width="0.9839887621272303" stroke-linecap="square"/><path d="M 140.13044363825136 192.85666474739867 L 224.35695387397385 192.85666474739867 L 224.35695387397385 231.7661538252458" fill="none" stroke="#FFFFFF" stroke-width="0.9839887621272303" stroke-linecap="square"/><line x1="242.52842914430815" y1="70.01106265467175" x2="623.8923514410352" y2="70.01106265467175" stroke="#FFFFFF" stroke-width="0.5" stroke-dasharray="5,10"/><line x1="86.7771149085728" y1="124.0609689336554" x2="86.7771149085728" y2="230.74155675188712" stroke="#FFFFFF" stroke-width="0.5" stroke-dasharray="5,10"/><circle cx="1364.1812857568725" cy="14.230443596325394" r="6.183945657771055" fill="#FFFFFF"/><circle cx="1434.2372710230934" cy="76.04696277344924" r="4.947156526216844" fill="#FFFFFF"/><rect x="1598.040603429098" y="183.26500159537454" width="12.36789131554211" height="12.36789131554211" fill="#FFFFFF"/><circle cx="1268.8428367145468" cy="480" r="6.183945657771055" fill="#FFFFFF"/><circle cx="1320.4850012252505" cy="401.84206027623367" r="4.947156526216844" fill="#FFFFFF"/><rect x="891.6322806019284" y="-6.183945657771055" width="12.36789131554211" height="12.36789131554211" fill="#FFFFFF"/><circle cx="188.62666171388727" cy="480" r="6.183945657771055" fill="#FFFFFF"/><rect x="113.44810276624153" y="473.81605434222894" width="12.36789131554211" height="12.36789131554211" fill="#FFFFFF"/><rect x="734.8874037865651" y="311.65127827038276" width="12.36789131554211" height="12.36789131554211" fill="#FFFFFF"/><circle cx="579.7817366563838" cy="37.34057383717914" r="6.183945657771055" fill="#FFFFFF"/><rect x="168.99122532223873" y="261.82505759447866" width="12.36789131554211" height="12.36789131554211" fill="#FFFFFF"/><circle cx="236.75161117413205" cy="480" r="6.183945657771055" fill="#FFFFFF"/><circle cx="224.35695387397385" cy="231.7661538252458" r="6.183945657771055" fill="#FFFFFF"/><rect x="218.1730082162028" y="186.6727190896276" width="12.36789131554211" height="12.36789131554211" fill="#FFFFFF"/><circle cx="1075.9652714971292" cy="388.68919390658345" r="11.651813122336254" fill="#FFFFFF"/><rect x="736.615533687052" y="313.89756168845076" width="6.57056905716996" height="6.57056905716996" fill="#FFFFFF"/><rect x="945.8116775800755" y="435.5503801165145" width="8.372430484124877" height="8.372430484124877" fill="#FFFFFF"/><circle cx="1649.2119606068416" cy="259.6321679370628" r="10.774288362110932" fill="#FFFFFF"/><circle cx="691.44218477022" cy="53.68703844663084" r="7.675303716220424" fill="#FFFFFF"/></g><g opacity="0.3"><rect x="30" y="30" width="1860" height="420" fill="none" stroke="#444444" stroke-width="1" rx="0"/></g><g opacity="0.671724677165842"><line x1="60" y1="240" x2="140" y2="240" stroke="#888888" stroke-width="1" opacity="0.5"/><line x1="1780" y1="240" x2="1860" y2="240" stroke="#888888" stroke-width="1" opacity="0.5"/><path d="M 30 70 L 30 30 L 70 30" fill="none" stroke="#888888" stroke-width="2" stroke-linecap="square"/><path d="M 1850 30 L 1890 30 L 1890 70" fill="none" stroke="#888888" stroke-width="2" stroke-linecap="square"/><path d="M 30 410 L 30 450 L 70 450" fill="none" stroke="#888888" stroke-width="2" stroke-linecap="square"/><path d="M 1850 450 L 1890 450 L 1890 410" fill="none" stroke="#888888" stroke-width="2" stroke-linecap="square"/></g></svg>