<svg xmlns="http://www.w3.org/2000/svg" width="1920" height="480" viewBox="0 0 1920 480"><rect x="0" y="0" width="1920" height="480" fill="#000000"/><g opacity="0.09073402883519141"><path d="M -61.366071232288405,-116.59553534134797 L -49.62418184732204,-89.71349983335887 L -22.31294263947334,-100.41919982510346 L -33.01864263121794,-73.10796061725476 L -6.136607123228842,-61.366071232288405 L -33.01864263121794,-49.62418184732204 L -22.31294263947334,-22.31294263947335 L -49.62418184732204,-33.01864263121794 L -61.366071232288405,-6.136607123228842 L -73.10796061725476,-33.01864263121794 L -100.41919982510346,-22.31294263947334 L -89.71349983335887,-49.62418184732203 L -116.59553534134797,-61.3660712322884 L -89.71349983335887,-73.10796061725478 L -100.41919982510348,-100.41919982510346 L -73.10796061725478,-89.71349983335887 Z" fill="none" stroke="#FFFFFF" stroke-width="2.21379655679399" /><path d="M 61.366071232288405,-116.59553534134797 L 73.10796061725478,-89.71349983335887 L 100.41919982510348,-100.41919982510346 L 89.71349983335887,-73.10796061725476 L 116.59553534134797,-61.366071232288405 L 89.71349983335887,-49.62418184732204 L 100.41919982510348,-22.31294263947335 L 73.10796061725478,-33.01864263121794 L 61.366071232288405,-6.136607123228842 L 49.62418184732205,-33.01864263121794 L 22.31294263947335,-22.31294263947334 L 33.01864263121794,-49.62418184732203 L 6.136607123228842,-61.3660712322884 L 33.01864263121794,-73.10796061725478 L 22.312942639473334,-100.41919982510346 L 49.62418184732203,-89.71349983335887 Z" fill="none" stroke="#FFFFFF" stroke-width="2.21379655679399" /><path d="M 184.09821369686523,-116.59553534134797 L 195.8401030818316,-89.71349983335887 L 223.1513422896803,-100.41919982510346 L 212.4456422979357,-73.10796061725476 L 239.3276778059248,-61.366071232288405 L 212.4456422979357,-49.62418184732204 L 223.1513422896803,-22.31294263947335 L 195.8401030818316,-33.01864263121794 L 184.09821369686523,-6.136607123228842 L 172.35632431189887,-33.01864263121794 L 145.04508510405017,-22.31294263947334 L 155.75078509579475,-49.62418184732203 L 128.86874958780567,-61.3660712322884 L 155.75078509579475,-73.10796061725478 L 145.04508510405014,-100.41919982510346 L 172.35632431189885,-89.71349983335887 Z" fill="none" stroke="#FFFFFF" stroke-width="2.21379655679399" /><path d="M 306.83035616144207,-116.59553534134797 L 318.57224554640845,-89.71349983335887 L 345.88348475425715,-100.41919982510346 L 335.17778476251254,-73.10796061725476 L 362.05982027050163,-61.366071232288405 L 335.17778476251254,-49.62418184732204 L 345.88348475425715,-22.31294263947335 L 318.57224554640845,-33.01864263121794 L 306.83035616144207,-6.136607123228842 L 295.0884667764757,-33.01864263121794 L 267.77722756862704,-22.31294263947334 L 278.4829275603716,-49.62418184732203 L 251.6008920523825,-61.3660712322884 L 278.4829275603716,-73.10796061725478 L 267.777227568627,-100.41919982510346 L 295.0884667764757,-89.71349983335887 Z" fill="none" stroke="#FFFFFF" stroke-width="2.21379655679399" /><path d="M 429.56249862601885,-116.59553534134797 L 441.30438801098524,-89.71349983335887 L 468.61562721883394,-100.41919982510346 L 457.9099272270893,-73.10796061725476 L 484.7919627350784,-61.366071232288405 L 457.9099272270893,-49.62418184732204 L 468.61562721883394,-22.31294263947335 L 441.30438801098524,-33.01864263121794 L 429.56249862601885,-6.136607123228842 L 417.82060924105247,-33.01864263121794 L 390.5093700332038,-22.31294263947334 L 401.2150700249484,-49.62418184732203 L 374.3330345169593,-61.3660712322884 L 401.2150700249484,-73.10796061725478 L 390.50937003320377,-100.41919982510346 L 417.82060924105247,-89.71349983335887 Z" fill="none" stroke="#FFFFFF" stroke-width="2.21379655679399" /><path d="M 552.2946410905956,-116.59553534134797 L 564.036530475562,-89.71349983335887 L 591.3477696834107,-100.41919982510346 L 580.642069691666,-73.10796061725476 L 607.5241051996552,-61.366071232288405 L 580.642069691666,-49.62418184732204 L 591.3477696834107,-22.31294263947335 L 564.036530475562,-33.01864263121794 L 552.2946410905956,-6.136607123228842 L 540.5527517056292,-33.01864263121794 L 513.2415124977806,-22.31294263947334 L 523.9472124895252,-49.62418184732203 L 497.06517698153607,-61.3660712322884 L 523.9472124895252,-73.10796061725478 L 513.2415124977806,-100.41919982510346 L 540.5527517056292,-89.71349983335887 Z" fill="none" stroke="#FFFFFF" stroke-width="2.21379655679399" /><path d="M 675.0267835551725,-116.59553534134797 L 686.7686729401389,-89.71349983335887 L 714.0799121479876,-100.41919982510346 L 703.374212156243,-73.10796061725476 L 730.2562476642321,-61.366071232288405 L 703.374212156243,-49.62418184732204 L 714.0799121479876,-22.31294263947335 L 686.7686729401389,-33.01864263121794 L 675.0267835551725,-6.136607123228842 L 663.2848941702061,-33.01864263121794 L 635.9736549623575,-22.31294263947334 L 646.6793549541021,-49.62418184732203 L 619.797319446113,-61.3660712322884 L 646.6793549541021,-73.10796061725478 L 635.9736549623575,-100.41919982510346 L 663.2848941702061,-89.71349983335887 Z" fill="none" stroke="#FFFFFF" stroke-width="2.21379655679399" /><path d="M 797.7589260197493,-116.59553534134797 L 809.5008154047157,-89.71349983335887 L 836.8120546125643,-100.41919982510346 L 826.1063546208197,-73.10796061725476 L 852.9883901288089,-61.366071232288405 L 826.1063546208197,-49.62418184732204 L 836.8120546125643,-22.31294263947335 L 809.5008154047157,-33.01864263121794 L 797.7589260197493,-6.136607123228842 L 786.0170366347829,-33.01864263121794 L 758.7057974269343,-22.31294263947334 L 769.4114974186789,-49.62418184732203 L 742.5294619106897,-61.3660712322884 L 769.4114974186789,-73.10796061725478 L 758.7057974269343,-100.41919982510346 L 786.0170366347829,-89.71349983335887 Z" fill="none" stroke="#FFFFFF" stroke-width="2.21379655679399" /><path d="M 920.4910684843261,-116.59553534134797 L 932.2329578692925,-89.71349983335887 L 959.5441970771411,-100.41919982510346 L 948.8384970853965,-73.10796061725476 L 975.7205325933857,-61.366071232288405 L 948.8384970853965,-49.62418184732204 L 959.5441970771411,-22.31294263947335 L 932.2329578692925,-33.01864263121794 L 920.4910684843261,-6.136607123228842 L 908.7491790993597,-33.01864263121794 L 881.4379398915111,-22.31294263947334 L 892.1436398832557,-49.62418184732203 L 865.2616043752665,-61.3660712322884 L 892.1436398832557,-73.10796061725478 L 881.4379398915111,-100.41919982510346 L 908.7491790993597,-89.71349983335887 Z" fill="none" stroke="#FFFFFF" stroke-width="2.21379655679399" /><path d="M 1043.2232109489028,-116.59553534134797 L 1054.965100333869,-89.71349983335887 L 1082.2763395417178,-100.41919982510346 L 1071.5706395499733,-73.10796061725476 L 1098.4526750579623,-61.366071232288405 L 1071.5706395499733,-49.62418184732204 L 1082.2763395417178,-22.31294263947335 L 1054.965100333869,-33.01864263121794 L 1043.2232109489028,-6.136607123228842 L 1031.4813215639365,-33.01864263121794 L 1004.1700823560877,-22.31294263947334 L 1014.8757823478323,-49.62418184732203 L 987.9937468398432,-61.3660712322884 L 1014.8757823478323,-73.10796061725478 L 1004.1700823560877,-100.41919982510346 L 1031.4813215639365,-89.71349983335887 Z" fill="none" stroke="#FFFFFF" stroke-width="2.21379655679399" /><path d="M 1165.9553534134795,-116.59553534134797 L 1177.6972427984458,-89.71349983335887 L 1205.0084820062946,-100.41919982510346 L 1194.30278201455,-73.10796061725476 L 1221.184817522539,-61.366071232288405 L 1194.30278201455,-49.62418184732204 L 1205.0084820062946,-22.31294263947335 L 1177.6972427984458,-33.01864263121794 L 1165.9553534134795,-6.136607123228842 L 1154.2134640285133,-33.01864263121794 L 1126.9022248206645,-22.31294263947334 L 1137.607924812409,-49.62418184732203 L 1110.72588930442,-61.3660712322884 L 1137.607924812409,-73.10796061725478 L 1126.9022248206645,-100.41919982510346 L 1154.2134640285133,-89.71349983335887 Z" fill="none" stroke="#FFFFFF" stroke-width="2.21379655679399" /><path d="M 1288.6874958780563,-116.59553534134797 L 1300.4293852630226,-89.71349983335887 L 1327.7406244708714,-100.41919982510346 L 1317.0349244791269,-73.10796061725476 L 1343.916959987116,-61.366071232288405 L 1317.0349244791269,-49.62418184732204 L 1327.7406244708714,-22.31294263947335 L 1300.4293852630226,-33.01864263121794 L 1288.6874958780563,-6.136607123228842 L 1276.94560649309,-33.01864263121794 L 1249.6343672852413,-22.31294263947334 L 1260.3400672769858,-49.62418184732203 L 1233.4580317689968,-61.3660712322884 L 1260.3400672769858,-73.10796061725478 L 1249.6343672852413,-100.41919982510346 L 1276.94560649309,-89.71349983335887 Z" fill="none" stroke="#FFFFFF" stroke-width="2.21379655679399" /><path d="M 1411.4196383426333,-116.59553534134797 L 1423.1615277275996,-89.71349983335887 L 1450.4727669354484,-100.41919982510346 L 1439.7670669437039,-73.10796061725476 L 1466.649102451693,-61.366071232288405 L 1439.7670669437039,-49.62418184732204 L 1450.4727669354484,-22.31294263947335 L 1423.1615277275996,-33.01864263121794 L 1411.4196383426333,-6.136607123228842 L 1399.677748957667,-33.01864263121794 L 1372.3665097498183,-22.31294263947334 L 1383.0722097415628,-49.62418184732203 L 1356.1901742335738,-61.3660712322884 L 1383.0722097415628,-73.10796061725478 L 1372.3665097498183,-100.41919982510346 L 1399.677748957667,-89.71349983335887 Z" fill="none" stroke="#FFFFFF" stroke-width="2.21379655679399" /><path d="M 1534.1517808072101,-116.59553534134797 L 1545.8936701921764,-89.71349983335887 L 1573.2049094000251,-100.41919982510346 L 1562.4992094082806,-73.10796061725476 L 1589.3812449162697,-61.366071232288405 L 1562.4992094082806,-49.62418184732204 L 1573.2049094000251,-22.31294263947335 L 1545.8936701921764,-33.01864263121794 L 1534.1517808072101,-6.136607123228842 L 1522.4098914222438,-33.01864263121794 L 1495.098652214395,-22.31294263947334 L 1505.8043522061396,-49.62418184732203 L 1478.9223166981506,-61.3660712322884 L 1505.8043522061396,-73.10796061725478 L 1495.098652214395,-100.41919982510346 L 1522.4098914222438,-89.71349983335887 Z" fill="none" stroke="#FFFFFF" stroke-width="2.21379655679399" /><path d="M 1656.883923271787,-116.59553534134797 L 1668.6258126567532,-89.71349983335887 L 1695.937051864602,-100.41919982510346 L 1685.2313518728574,-73.10796061725476 L 1712.1133873808465,-61.366071232288405 L 1685.2313518728574,-49.62418184732204 L 1695.937051864602,-22.31294263947335 L 1668.6258126567532,-33.01864263121794 L 1656.883923271787,-6.136607123228842 L 1645.1420338868206,-33.01864263121794 L 1617.8307946789719,-22.31294263947334 L 1628.5364946707164,-49.62418184732203 L 1601.6544591627273,-61.3660712322884 L 1628.5364946707164,-73.10796061725478 L 1617.8307946789719,-100.41919982510346 L 1645.1420338868206,-89.71349983335887 Z" fill="none" stroke="#FFFFFF" stroke-width="2.21379655679399" /><path d="M 1779.6160657363637,-116.59553534134797 L 1791.35795512133,-89.71349983335887 L 1818.6691943291787,-100.41919982510346 L 1807.9634943374342,-73.10796061725476 L 1834.8455298454232,-61.366071232288405 L 1807.9634943374342,-49.62418184732204 L 1818.6691943291787,-22.31294263947335 L 1791.35795512133,-33.01864263121794 L 1779.6160657363637,-6.136607123228842 L 1767.8741763513974,-33.01864263121794 L 1740.5629371435487,-22.31294263947334 L 1751.2686371352931,-49.62418184732203 L 1724.3866016273041,-61.3660712322884 L 1751.2686371352931,-73.10796061725478 L 1740.5629371435487,-100.41919982510346 L 1767.8741763513974,-89.71349983335887 Z" fill="none" stroke="#FFFFFF" stroke-width="2.21379655679399" /><path d="M 1902.3482082009405,-116.59553534134797 L 1914.0900975859067,-89.71349983335887 L 1941.4013367937555,-100.41919982510346 L 1930.695636802011,-73.10796061725476 L 1957.57767231,-61.366071232288405 L 1930.695636802011,-49.62418184732204 L 1941.4013367937555,-22.31294263947335 L 1914.0900975859067,-33.01864263121794 L 1902.3482082009405,-6.136607123228842 L 1890.6063188159742,-33.01864263121794 L 1863.2950796081254,-22.31294263947334 L 1874.00077959987,-49.62418184732203 L 1847.118744091881,-61.3660712322884 L 1874.00077959987,-73.10796061725478 L 1863.2950796081254,-100.41919982510346 L 1890.6063188159742,-89.71349983335887 Z" fill="none" stroke="#FFFFFF" stroke-width="2.21379655679399" /><path d="M 2025.0803506655175,-116.59553534134797 L 2036.8222400504837,-89.71349983335887 L 2064.1334792583325,-100.41919982510346 L 2053.427779266588,-73.10796061725476 L 2080.309814774577,-61.366071232288405 L 2053.427779266588,-49.62418184732204 L 2064.1334792583325,-22.31294263947335 L 2036.8222400504837,-33.01864263121794 L 2025.0803506655175,-6.136607123228842 L 2013.3384612805512,-33.01864263121794 L 1986.0272220727024,-22.31294263947334 L 1996.732922064447,-49.62418184732203 L 1969.850886556458,-61.3660712322884 L 1996.732922064447,-73.10796061725478 L 1986.0272220727024,-100.41919982510346 L 2013.3384612805512,-89.71349983335887 Z" fill="none" stroke="#FFFFFF" stroke-width="2.21379655679399" /><path d="M 3.381829321989171e-15,-10.30949996702445 L 11.741889384966363,16.572535540964648 L 39.053128592815064,5.866835549220056 L 28.347428601070465,33.17807475706875 L 55.22946410905956,44.91996414203511 L 28.347428601070465,56.661853527001476 L 39.053128592815064,83.97309273485017 L 11.741889384966363,73.26739274310557 L 3.381829321989171e-15,100.14942825109468 L -11.74188938496636,73.26739274310557 L -39.05312859281506,83.97309273485018 L -28.34742860107046,56.66185352700149 L -55.22946410905956,44.91996414203512 L -28.34742860107046,33.17807475706874 L -39.05312859281507,5.866835549220056 L -11.741889384966377,16.57253554096465 Z" fill="none" stroke="#FFFFFF" stroke-width="2.21379655679399" /><path d="M 122.73214246457681,-10.30949996702445 L 134.47403184954317,16.572535540964648 L 161.78527105739187,5.866835549220056 L 151.0795710656473,33.17807475706875 L 177.96160657363637,44.91996414203511 L 151.0795710656473,56.661853527001476 L 161.78527105739187,83.97309273485017 L 134.47403184954317,73.26739274310557 L 122.73214246457681,100.14942825109468 L 110.99025307961045,73.26739274310557 L 83.67901387176175,83.97309273485018 L 94.38471386350635,56.66185352700149 L 67.50267835551725,44.91996414203512 L 94.38471386350635,33.17807475706874 L 83.67901387176174,5.866835549220056 L 110.99025307961043,16.57253554096465 Z" fill="none" stroke="#FFFFFF" stroke-width="2.21379655679399" /><path d="M 245.46428492915362,-10.30949996702445 L 257.20617431412,16.572535540964648 L 284.5174135219687,5.866835549220056 L 273.8117135302241,33.17807475706875 L 300.6937490382132,44.91996414203511 L 273.8117135302241,56.661853527001476 L 284.5174135219687,83.97309273485017 L 257.20617431412,73.26739274310557 L 245.46428492915362,100.14942825109468 L 233.72239554418726,73.26739274310557 L 206.41115633633856,83.97309273485018 L 217.11685632808314,56.66185352700149 L 190.23482082009406,44.91996414203512 L 217.11685632808314,33.17807475706874 L 206.41115633633854,5.866835549220056 L 233.72239554418724,16.57253554096465 Z" fill="none" stroke="#FFFFFF" stroke-width="2.21379655679399" /><path d="M 368.19642739373046,-10.30949996702445 L 379.93831677869684,16.572535540964648 L 407.24955598654554,5.866835549220056 L 396.54385599480094,33.17807475706875 L 423.42589150279,44.91996414203511 L 396.54385599480094,56.661853527001476 L 407.24955598654554,83.97309273485017 L 379.93831677869684,73.26739274310557 L 368.19642739373046,100.14942825109468 L 356.4545380087641,73.26739274310557 L 329.14329880091543,83.97309273485018 L 339.84899879266,56.66185352700149 L 312.9669632846709,44.91996414203512 L 339.84899879266,33.17807475706874 L 329.1432988009154,5.866835549220056 L 356.4545380087641,16.57253554096465 Z" fill="none" stroke="#FFFFFF" stroke-width="2.21379655679399" /><path d="M 490.92856985830724,-10.30949996702445 L 502.6704592432736,16.572535540964648 L 529.9816984511223,5.866835549220056 L 519.2759984593777,33.17807475706875 L 546.1580339673668,44.91996414203511 L 519.2759984593777,56.661853527001476 L 529.9816984511223,83.97309273485017 L 502.6704592432736,73.26739274310557 L 490.92856985830724,100.14942825109468 L 479.18668047334086,73.26739274310557 L 451.8754412654922,83.97309273485018 L 462.58114125723677,56.66185352700149 L 435.6991057492477,44.91996414203512 L 462.58114125723677,33.17807475706874 L 451.87544126549216,5.866835549220056 L 479.18668047334086,16.57253554096465 Z" fill="none" stroke="#FFFFFF" stroke-width="2.21379655679399" /><path d="M 613.660712322884,-10.30949996702445 L 625.4026017078504,16.572535540964648 L 652.713840915699,5.866835549220056 L 642.0081409239544,33.17807475706875 L 668.8901764319436,44.91996414203511 L 642.0081409239544,56.661853527001476 L 652.713840915699,83.97309273485017 L 625.4026017078504,73.26739274310557 L 613.660712322884,100.14942825109468 L 601.9188229379176,73.26739274310557 L 574.607583730069,83.97309273485018 L 585.3132837218136,56.66185352700149 L 558.4312482138245,44.91996414203512 L 585.3132837218136,33.17807475706874 L 574.607583730069,5.866835549220056 L 601.9188229379176,16.57253554096465 Z" fill="none" stroke="#FFFFFF" stroke-width="2.21379655679399" /><path d="M 736.3928547874609,-10.30949996702445 L 748.1347441724273,16.572535540964648 L 775.445983380276,5.866835549220056 L 764.7402833885313,33.17807475706875 L 791.6223188965205,44.91996414203511 L 764.7402833885313,56.661853527001476 L 775.445983380276,83.97309273485017 L 748.1347441724273,73.26739274310557 L 736.3928547874609,100.14942825109468 L 724.6509654024945,73.26739274310557 L 697.3397261946459,83.97309273485018 L 708.0454261863905,56.66185352700149 L 681.1633906784014,44.91996414203512 L 708.0454261863905,33.17807475706874 L 697.3397261946459,5.866835549220056 L 724.6509654024945,16.57253554096465 Z" fill="none" stroke="#FFFFFF" stroke-width="2.21379655679399" /><path d="M 859.1249972520377,-10.30949996702445 L 870.8668866370041,16.572535540964648 L 898.1781258448527,5.866835549220056 L 887.4724258531081,33.17807475706875 L 914.3544613610973,44.91996414203511 L 887.4724258531081,56.661853527001476 L 898.1781258448527,83.97309273485017 L 870.8668866370041,73.26739274310557 L 859.1249972520377,100.14942825109468 L 847.3831078670713,73.26739274310557 L 820.0718686592227,83.97309273485018 L 830.7775686509673,56.66185352700149 L 803.8955331429781,44.91996414203512 L 830.7775686509673,33.17807475706874 L 820.0718686592227,5.866835549220056 L 847.3831078670713,16.57253554096465 Z" fill="none" stroke="#FFFFFF" stroke-width="2.21379655679399" /><path d="M 981.8571397166145,-10.30949996702445 L 993.5990291015809,16.572535540964648 L 1020.9102683094295,5.866835549220056 L 1010.2045683176849,33.17807475706875 L 1037.086603825674,44.91996414203511 L 1010.2045683176849,56.661853527001476 L 1020.9102683094295,83.97309273485017 L 993.5990291015809,73.26739274310557 L 981.8571397166145,100.14942825109468 L 970.1152503316481,73.26739274310557 L 942.8040111237995,83.97309273485018 L 953.5097111155441,56.66185352700149 L 926.6276756075549,44.91996414203512 L 953.5097111155441,33.17807475706874 L 942.8040111237995,5.866835549220056 L 970.1152503316481,16.57253554096465 Z" fill="none" stroke="#FFFFFF" stroke-width="2.21379655679399" /><path d="M 1104.5892821811913,-10.30949996702445 L 1116.3311715661575,16.572535540964648 L 1143.6424107740063,5.866835549220056 L 1132.9367107822618,33.17807475706875 L 1159.8187462902508,44.91996414203511 L 1132.9367107822618,56.661853527001476 L 1143.6424107740063,83.97309273485017 L 1116.3311715661575,73.26739274310557 L 1104.5892821811913,100.14942825109468 L 1092.847392796225,73.26739274310557 L 1065.5361535883762,83.97309273485018 L 1076.2418535801207,56.66185352700149 L 1049.3598180721317,44.91996414203512 L 1076.2418535801207,33.17807475706874 L 1065.5361535883762,5.866835549220056 L 1092.847392796225,16.57253554096465 Z" fill="none" stroke="#FFFFFF" stroke-width="2.21379655679399" /><path d="M 1227.321424645768,-10.30949996702445 L 1239.0633140307343,16.572535540964648 L 1266.374553238583,5.866835549220056 L 1255.6688532468386,33.17807475706875 L 1282.5508887548276,44.91996414203511 L 1255.6688532468386,56.661853527001476 L 1266.374553238583,83.97309273485017 L 1239.0633140307343,73.26739274310557 L 1227.321424645768,100.14942825109468 L 1215.5795352608018,73.26739274310557 L 1188.268296052953,83.97309273485018 L 1198.9739960446975,56.66185352700149 L 1172.0919605367085,44.91996414203512 L 1198.9739960446975,33.17807475706874 L 1188.268296052953,5.866835549220056 L 1215.5795352608018,16.57253554096465 Z" fill="none" stroke="#FFFFFF" stroke-width="2.21379655679399" /><path d="M 1350.0535671103448,-10.30949996702445 L 1361.795456495311,16.572535540964648 L 1389.1066957031599,5.866835549220056 L 1378.4009957114154,33.17807475706875 L 1405.2830312194044,44.91996414203511 L 1378.4009957114154,56.661853527001476 L 1389.1066957031599,83.97309273485017 L 1361.795456495311,73.26739274310557 L 1350.0535671103448,100.14942825109468 L 1338.3116777253786,73.26739274310557 L 1311.0004385175298,83.97309273485018 L 1321.7061385092743,56.66185352700149 L 1294.8241030012853,44.91996414203512 L 1321.7061385092743,33.17807475706874 L 1311.0004385175298,5.866835549220056 L 1338.3116777253786,16.57253554096465 Z" fill="none" stroke="#FFFFFF" stroke-width="2.21379655679399" /><path d="M 1472.7857095749218,-10.30949996702445 L 1484.527598959888,16.572535540964648 L 1511.8388381677369,5.866835549220056 L 1501.1331381759924,33.17807475706875 L 1528.0151736839814,44.91996414203511 L 1501.1331381759924,56.661853527001476 L 1511.8388381677369,83.97309273485017 L 1484.527598959888,73.26739274310557 L 1472.7857095749218,100.14942825109468 L 1461.0438201899556,73.26739274310557 L 1433.7325809821068,83.97309273485018 L 1444.4382809738513,56.66185352700149 L 1417.5562454658623,44.91996414203512 L 1444.4382809738513,33.17807475706874 L 1433.7325809821068,5.866835549220056 L 1461.0438201899556,16.57253554096465 Z" fill="none" stroke="#FFFFFF" stroke-width="2.21379655679399" /><path d="M 1595.5178520394986,-10.30949996702445 L 1607.259741424465,16.572535540964648 L 1634.5709806323136,5.866835549220056 L 1623.8652806405692,33.17807475706875 L 1650.7473161485582,44.91996414203511 L 1623.8652806405692,56.661853527001476 L 1634.5709806323136,83.97309273485017 L 1607.259741424465,73.26739274310557 L 1595.5178520394986,100.14942825109468 L 1583.7759626545323,73.26739274310557 L 1556.4647234466836,83.97309273485018 L 1567.170423438428,56.66185352700149 L 1540.288387930439,44.91996414203512 L 1567.170423438428,33.17807475706874 L 1556.4647234466836,5.866835549220056 L 1583.7759626545323,16.57253554096465 Z" fill="none" stroke="#FFFFFF" stroke-width="2.21379655679399" /><path d="M 1718.2499945040754,-10.30949996702445 L 1729.9918838890417,16.572535540964648 L 1757.3031230968904,5.866835549220056 L 1746.597423105146,33.17807475706875 L 1773.479458613135,44.91996414203511 L 1746.597423105146,56.661853527001476 L 1757.3031230968904,83.97309273485017 L 1729.9918838890417,73.26739274310557 L 1718.2499945040754,100.14942825109468 L 1706.5081051191091,73.26739274310557 L 1679.1968659112604,83.97309273485018 L 1689.9025659030049,56.66185352700149 L 1663.0205303950158,44.91996414203512 L 1689.9025659030049,33.17807475706874 L 1679.1968659112604,5.866835549220056 L 1706.5081051191091,16.57253554096465 Z" fill="none" stroke="#FFFFFF" stroke-width="2.21379655679399" /><path d="M 1840.9821369686522,-10.30949996702445 L 1852.7240263536185,16.572535540964648 L 1880.0352655614672,5.866835549220056 L 1869.3295655697227,33.17807475706875 L 1896.2116010777117,44.91996414203511 L 1869.3295655697227,56.661853527001476 L 1880.0352655614672,83.97309273485017 L 1852.7240263536185,73.26739274310557 L 1840.9821369686522,100.14942825109468 L 1829.240247583686,73.26739274310557 L 1801.9290083758372,83.97309273485018 L 1812.6347083675817,56.66185352700149 L 1785.7526728595926,44.91996414203512 L 1812.6347083675817,33.17807475706874 L 1801.9290083758372,5.866835549220056 L 1829.240247583686,16.57253554096465 Z" fill="none" stroke="#FFFFFF" stroke-width="2.21379655679399" /><path d="M 1963.714279433229,-10.30949996702445 L 1975.4561688181952,16.572535540964648 L 2002.767408026044,5.866835549220056 L 1992.0617080342995,33.17807475706875 L 2018.9437435422885,44.91996414203511 L 1992.0617080342995,56.661853527001476 L 2002.767408026044,83.97309273485017 L 1975.4561688181952,73.26739274310557 L 1963.714279433229,100.14942825109468 L 1951.9723900482627,73.26739274310557 L 1924.661150840414,83.97309273485018 L 1935.3668508321584,56.66185352700149 L 1908.4848153241694,44.91996414203512 L 1935.3668508321584,33.17807475706874 L 1924.661150840414,5.866835549220056 L 1951.9723900482627,16.57253554096465 Z" fill="none" stroke="#FFFFFF" stroke-width="2.21379655679399" /><path d="M -61.366071232288405,95.97653540729908 L -49.62418184732204,122.85857091528818 L -22.31294263947334,112.15287092354359 L -33.01864263121794,139.4641101313923 L -6.136607123228842,151.20599951635864 L -33.01864263121794,162.947888901325 L -22.31294263947334,190.2591281091737 L -49.62418184732204,179.55342811742912 L -61.366071232288405,206.4354636254182 L -73.10796061725476,179.55342811742912 L -100.41919982510346,190.2591281091737 L -89.71349983335887,162.94788890132503 L -116.59553534134797,151.20599951635864 L -89.71349983335887,139.4641101313923 L -100.41919982510348,112.15287092354359 L -73.10796061725478,122.85857091528818 Z" fill="none" stroke="#FFFFFF" stroke-width="2.21379655679399" /><path d="M 61.366071232288405,95.97653540729908 L 73.10796061725478,122.85857091528818 L 100.41919982510348,112.15287092354359 L 89.71349983335887,139.4641101313923 L 116.59553534134797,151.20599951635864 L 89.71349983335887,162.947888901325 L 100.41919982510348,190.2591281091737 L 73.10796061725478,179.55342811742912 L 61.366071232288405,206.4354636254182 L 49.62418184732205,179.55342811742912 L 22.31294263947335,190.2591281091737 L 33.01864263121794,162.94788890132503 L 6.136607123228842,151.20599951635864 L 33.01864263121794,139.4641101313923 L 22.312942639473334,112.15287092354359 L 49.62418184732203,122.85857091528818 Z" fill="none" stroke="#FFFFFF" stroke-width="2.21379655679399" /><path d="M 184.09821369686523,95.97653540729908 L 195.8401030818316,122.85857091528818 L 223.1513422896803,112.15287092354359 L 212.4456422979357,139.4641101313923 L 239.3276778059248,151.20599951635864 L 212.4456422979357,162.947888901325 L 223.1513422896803,190.2591281091737 L 195.8401030818316,179.55342811742912 L 184.09821369686523,206.4354636254182 L 172.35632431189887,179.55342811742912 L 145.04508510405017,190.2591281091737 L 155.75078509579475,162.94788890132503 L 128.86874958780567,151.20599951635864 L 155.75078509579475,139.4641101313923 L 145.04508510405014,112.15287092354359 L 172.35632431189885,122.85857091528818 Z" fill="none" stroke="#FFFFFF" stroke-width="2.21379655679399" /><path d="M 306.83035616144207,95.97653540729908 L 318.57224554640845,122.85857091528818 L 345.88348475425715,112.15287092354359 L 335.17778476251254,139.4641101313923 L 362.05982027050163,151.20599951635864 L 335.17778476251254,162.947888901325 L 345.88348475425715,190.2591281091737 L 318.57224554640845,179.55342811742912 L 306.83035616144207,206.4354636254182 L 295.0884667764757,179.55342811742912 L 267.77722756862704,190.2591281091737 L 278.4829275603716,162.94788890132503 L 251.6008920523825,151.20599951635864 L 278.4829275603716,139.4641101313923 L 267.777227568627,112.15287092354359 L 295.0884667764757,122.85857091528818 Z" fill="none" stroke="#FFFFFF" stroke-width="2.21379655679399" /><path d="M 429.56249862601885,95.97653540729908 L 441.30438801098524,122.85857091528818 L 468.61562721883394,112.15287092354359 L 457.9099272270893,139.4641101313923 L 484.7919627350784,151.20599951635864 L 457.9099272270893,162.947888901325 L 468.61562721883394,190.2591281091737 L 441.30438801098524,179.55342811742912 L 429.56249862601885,206.4354636254182 L 417.82060924105247,179.55342811742912 L 390.5093700332038,190.2591281091737 L 401.2150700249484,162.94788890132503 L 374.3330345169593,151.20599951635864 L 401.2150700249484,139.4641101313923 L 390.50937003320377,112.15287092354359 L 417.82060924105247,122.85857091528818 Z" fill="none" stroke="#FFFFFF" stroke-width="2.21379655679399" /><path d="M 552.2946410905956,95.97653540729908 L 564.036530475562,122.85857091528818 L 591.3477696834107,112.15287092354359 L 580.642069691666,139.4641101313923 L 607.5241051996552,151.20599951635864 L 580.642069691666,162.947888901325 L 591.3477696834107,190.2591281091737 L 564.036530475562,179.55342811742912 L 552.2946410905956,206.4354636254182 L 540.5527517056292,179.55342811742912 L 513.2415124977806,190.2591281091737 L 523.9472124895252,162.94788890132503 L 497.06517698153607,151.20599951635864 L 523.9472124895252,139.4641101313923 L 513.2415124977806,112.15287092354359 L 540.5527517056292,122.85857091528818 Z" fill="none" stroke="#FFFFFF" stroke-width="2.21379655679399" /><path d="M 675.0267835551725,95.97653540729908 L 686.7686729401389,122.85857091528818 L 714.0799121479876,112.15287092354359 L 703.374212156243,139.4641101313923 L 730.2562476642321,151.20599951635864 L 703.374212156243,162.947888901325 L 714.0799121479876,190.2591281091737 L 686.7686729401389,179.55342811742912 L 675.0267835551725,206.4354636254182 L 663.2848941702061,179.55342811742912 L 635.9736549623575,190.2591281091737 L 646.6793549541021,162.94788890132503 L 619.797319446113,151.20599951635864 L 646.6793549541021,139.4641101313923 L 635.9736549623575,112.15287092354359 L 663.2848941702061,122.85857091528818 Z" fill="none" stroke="#FFFFFF" stroke-width="2.21379655679399" /><path d="M 797.7589260197493,95.97653540729908 L 809.5008154047157,122.85857091528818 L 836.8120546125643,112.15287092354359 L 826.1063546208197,139.4641101313923 L 852.9883901288089,151.20599951635864 L 826.1063546208197,162.947888901325 L 836.8120546125643,190.2591281091737 L 809.5008154047157,179.55342811742912 L 797.7589260197493,206.4354636254182 L 786.0170366347829,179.55342811742912 L 758.7057974269343,190.2591281091737 L 769.4114974186789,162.94788890132503 L 742.5294619106897,151.20599951635864 L 769.4114974186789,139.4641101313923 L 758.7057974269343,112.15287092354359 L 786.0170366347829,122.85857091528818 Z" fill="none" stroke="#FFFFFF" stroke-width="2.21379655679399" /><path d="M 920.4910684843261,95.97653540729908 L 932.2329578692925,122.85857091528818 L 959.5441970771411,112.15287092354359 L 948.8384970853965,139.4641101313923 L 975.7205325933857,151.20599951635864 L 948.8384970853965,162.947888901325 L 959.5441970771411,190.2591281091737 L 932.2329578692925,179.55342811742912 L 920.4910684843261,206.4354636254182 L 908.7491790993597,179.55342811742912 L 881.4379398915111,190.2591281091737 L 892.1436398832557,162.94788890132503 L 865.2616043752665,151.20599951635864 L 892.1436398832557,139.4641101313923 L 881.4379398915111,112.15287092354359 L 908.7491790993597,122.85857091528818 Z" fill="none" stroke="#FFFFFF" stroke-width="2.21379655679399" /><path d="M 1043.2232109489028,95.97653540729908 L 1054.965100333869,122.85857091528818 L 1082.2763395417178,112.15287092354359 L 1071.5706395499733,139.4641101313923 L 1098.4526750579623,151.20599951635864 L 1071.5706395499733,162.947888901325 L 1082.2763395417178,190.2591281091737 L 1054.965100333869,179.55342811742912 L 1043.2232109489028,206.4354636254182 L 1031.4813215639365,179.55342811742912 L 1004.1700823560877,190.2591281091737 L 1014.8757823478323,162.94788890132503 L 987.9937468398432,151.20599951635864 L 1014.8757823478323,139.4641101313923 L 1004.1700823560877,112.15287092354359 L 1031.4813215639365,122.85857091528818 Z" fill="none" stroke="#FFFFFF" stroke-width="2.21379655679399" /><path d="M 1165.9553534134795,95.97653540729908 L 1177.6972427984458,122.85857091528818 L 1205.0084820062946,112.15287092354359 L 1194.30278201455,139.4641101313923 L 1221.184817522539,151.20599951635864 L 1194.30278201455,162.947888901325 L 1205.0084820062946,190.2591281091737 L 1177.6972427984458,179.55342811742912 L 1165.9553534134795,206.4354636254182 L 1154.2134640285133,179.55342811742912 L 1126.9022248206645,190.2591281091737 L 1137.607924812409,162.94788890132503 L 1110.72588930442,151.20599951635864 L 1137.607924812409,139.4641101313923 L 1126.9022248206645,112.15287092354359 L 1154.2134640285133,122.85857091528818 Z" fill="none" stroke="#FFFFFF" stroke-width="2.21379655679399" /><path d="M 1288.6874958780563,95.97653540729908 L 1300.4293852630226,122.85857091528818 L 1327.7406244708714,112.15287092354359 L 1317.0349244791269,139.4641101313923 L 1343.916959987116,151.20599951635864 L 1317.0349244791269,162.947888901325 L 1327.7406244708714,190.2591281091737 L 1300.4293852630226,179.55342811742912 L 1288.6874958780563,206.4354636254182 L 1276.94560649309,179.55342811742912 L 1249.6343672852413,190.2591281091737 L 1260.3400672769858,162.94788890132503 L 1233.4580317689968,151.20599951635864 L 1260.3400672769858,139.4641101313923 L 1249.6343672852413,112.15287092354359 L 1276.94560649309,122.85857091528818 Z" fill="none" stroke="#FFFFFF" stroke-width="2.21379655679399" /><path d="M 1411.4196383426333,95.97653540729908 L 1423.1615277275996,122.85857091528818 L 1450.4727669354484,112.15287092354359 L 1439.7670669437039,139.4641101313923 L 1466.649102451693,151.20599951635864 L 1439.7670669437039,162.947888901325 L 1450.4727669354484,190.2591281091737 L 1423.1615277275996,179.55342811742912 L 1411.4196383426333,206.4354636254182 L 1399.677748957667,179.55342811742912 L 1372.3665097498183,190.2591281091737 L 1383.0722097415628,162.94788890132503 L 1356.1901742335738,151.20599951635864 L 1383.0722097415628,139.4641101313923 L 1372.3665097498183,112.15287092354359 L 1399.677748957667,122.85857091528818 Z" fill="none" stroke="#FFFFFF" stroke-width="2.21379655679399" /><path d="M 1534.1517808072101,95.97653540729908 L 1545.8936701921764,122.85857091528818 L 1573.2049094000251,112.15287092354359 L 1562.4992094082806,139.4641101313923 L 1589.3812449162697,151.20599951635864 L 1562.4992094082806,162.947888901325 L 1573.2049094000251,190.2591281091737 L 1545.8936701921764,179.55342811742912 L 1534.1517808072101,206.4354636254182 L 1522.4098914222438,179.55342811742912 L 1495.098652214395,190.2591281091737 L 1505.8043522061396,162.94788890132503 L 1478.9223166981506,151.20599951635864 L 1505.8043522061396,139.4641101313923 L 1495.098652214395,112.15287092354359 L 1522.4098914222438,122.85857091528818 Z" fill="none" stroke="#FFFFFF" stroke-width="2.21379655679399" /><path d="M 1656.883923271787,95.97653540729908 L 1668.6258126567532,122.85857091528818 L 1695.937051864602,112.15287092354359 L 1685.2313518728574,139.4641101313923 L 1712.1133873808465,151.20599951635864 L 1685.2313518728574,162.947888901325 L 1695.937051864602,190.2591281091737 L 1668.6258126567532,179.55342811742912 L 1656.883923271787,206.4354636254182 L 1645.1420338868206,179.55342811742912 L 1617.8307946789719,190.2591281091737 L 1628.5364946707164,162.94788890132503 L 1601.6544591627273,151.20599951635864 L 1628.5364946707164,139.4641101313923 L 1617.8307946789719,112.15287092354359 L 1645.1420338868206,122.85857091528818 Z" fill="none" stroke="#FFFFFF" stroke-width="2.21379655679399" /><path d="M 1779.6160657363637,95.97653540729908 L 1791.35795512133,122.85857091528818 L 1818.6691943291787,112.15287092354359 L 1807.9634943374342,139.4641101313923 L 1834.8455298454232,151.20599951635864 L 1807.9634943374342,162.947888901325 L 1818.6691943291787,190.2591281091737 L 1791.35795512133,179.55342811742912 L 1779.6160657363637,206.4354636254182 L 1767.8741763513974,179.55342811742912 L 1740.5629371435487,190.2591281091737 L 1751.2686371352931,162.94788890132503 L 1724.3866016273041,151.20599951635864 L 1751.2686371352931,139.4641101313923 L 1740.5629371435487,112.15287092354359 L 1767.8741763513974,122.85857091528818 Z" fill="none" stroke="#FFFFFF" stroke-width="2.21379655679399" /><path d="M 1902.3482082009405,95.97653540729908 L 1914.0900975859067,122.85857091528818 L 1941.4013367937555,112.15287092354359 L 1930.695636802011,139.4641101313923 L 1957.57767231,151.20599951635864 L 1930.695636802011,162.947888901325 L 1941.4013367937555,190.2591281091737 L 1914.0900975859067,179.55342811742912 L 1902.3482082009405,206.4354636254182 L 1890.6063188159742,179.55342811742912 L 1863.2950796081254,190.2591281091737 L 1874.00077959987,162.94788890132503 L 1847.118744091881,151.20599951635864 L 1874.00077959987,139.4641101313923 L 1863.2950796081254,112.15287092354359 L 1890.6063188159742,122.85857091528818 Z" fill="none" stroke="#FFFFFF" stroke-width="2.21379655679399" /><path d="M 2025.0803506655175,95.97653540729908 L 2036.8222400504837,122.85857091528818 L 2064.1334792583325,112.15287092354359 L 2053.427779266588,139.4641101313923 L 2080.309814774577,151.20599951635864 L 2053.427779266588,162.947888901325 L 2064.1334792583325,190.2591281091737 L 2036.8222400504837,179.55342811742912 L 2025.0803506655175,206.4354636254182 L 2013.3384612805512,179.55342811742912 L 1986.0272220727024,190.2591281091737 L 1996.732922064447,162.94788890132503 L 1969.850886556458,151.20599951635864 L 1996.732922064447,139.4641101313923 L 1986.0272220727024,112.15287092354359 L 2013.3384612805512,122.85857091528818 Z" fill="none" stroke="#FFFFFF" stroke-width="2.21379655679399" /><path d="M 3.381829321989171e-15,202.26257078162263 L 11.741889384966363,229.14460628961172 L 39.053128592815064,218.43890629786713 L 28.347428601070465,245.75014550571584 L 55.22946410905956,257.4920348906822 L 28.347428601070465,269.2339242756486 L 39.053128592815064,296.5451634834973 L 11.741889384966363,285.83946349175267 L 3.381829321989171e-15,312.72149899974175 L -11.74188938496636,285.83946349175267 L -39.05312859281506,296.5451634834973 L -28.34742860107046,269.2339242756486 L -55.22946410905956,257.4920348906822 L -28.34742860107046,245.75014550571584 L -39.05312859281507,218.43890629786713 L -11.741889384966377,229.14460628961172 Z" fill="none" stroke="#FFFFFF" stroke-width="2.21379655679399" /><path d="M 122.73214246457681,202.26257078162263 L 134.47403184954317,229.14460628961172 L 161.78527105739187,218.43890629786713 L 151.0795710656473,245.75014550571584 L 177.96160657363637,257.4920348906822 L 151.0795710656473,269.2339242756486 L 161.78527105739187,296.5451634834973 L 134.47403184954317,285.83946349175267 L 122.73214246457681,312.72149899974175 L 110.99025307961045,285.83946349175267 L 83.67901387176175,296.5451634834973 L 94.38471386350635,269.2339242756486 L 67.50267835551725,257.4920348906822 L 94.38471386350635,245.75014550571584 L 83.67901387176174,218.43890629786713 L 110.99025307961043,229.14460628961172 Z" fill="none" stroke="#FFFFFF" stroke-width="2.21379655679399" /><path d="M 245.46428492915362,202.26257078162263 L 257.20617431412,229.14460628961172 L 284.5174135219687,218.43890629786713 L 273.8117135302241,245.75014550571584 L 300.6937490382132,257.4920348906822 L 273.8117135302241,269.2339242756486 L 284.5174135219687,296.5451634834973 L 257.20617431412,285.83946349175267 L 245.46428492915362,312.72149899974175 L 233.72239554418726,285.83946349175267 L 206.41115633633856,296.5451634834973 L 217.11685632808314,269.2339242756486 L 190.23482082009406,257.4920348906822 L 217.11685632808314,245.75014550571584 L 206.41115633633854,218.43890629786713 L 233.72239554418724,229.14460628961172 Z" fill="none" stroke="#FFFFFF" stroke-width="2.21379655679399" /><path d="M 368.19642739373046,202.26257078162263 L 379.93831677869684,229.14460628961172 L 407.24955598654554,218.43890629786713 L 396.54385599480094,245.75014550571584 L 423.42589150279,257.4920348906822 L 396.54385599480094,269.2339242756486 L 407.24955598654554,296.5451634834973 L 379.93831677869684,285.83946349175267 L 368.19642739373046,312.72149899974175 L 356.4545380087641,285.83946349175267 L 329.14329880091543,296.5451634834973 L 339.84899879266,269.2339242756486 L 312.9669632846709,257.4920348906822 L 339.84899879266,245.75014550571584 L 329.1432988009154,218.43890629786713 L 356.4545380087641,229.14460628961172 Z" fill="none" stroke="#FFFFFF" stroke-width="2.21379655679399" /><path d="M 490.92856985830724,202.26257078162263 L 502.6704592432736,229.14460628961172 L 529.9816984511223,218.43890629786713 L 519.2759984593777,245.75014550571584 L 546.1580339673668,257.4920348906822 L 519.2759984593777,269.2339242756486 L 529.9816984511223,296.5451634834973 L 502.6704592432736,285.83946349175267 L 490.92856985830724,312.72149899974175 L 479.18668047334086,285.83946349175267 L 451.8754412654922,296.5451634834973 L 462.58114125723677,269.2339242756486 L 435.6991057492477,257.4920348906822 L 462.58114125723677,245.75014550571584 L 451.87544126549216,218.43890629786713 L 479.18668047334086,229.14460628961172 Z" fill="none" stroke="#FFFFFF" stroke-width="2.21379655679399" /><path d="M 613.660712322884,202.26257078162263 L 625.4026017078504,229.14460628961172 L 652.713840915699,218.43890629786713 L 642.0081409239544,245.75014550571584 L 668.8901764319436,257.4920348906822 L 642.0081409239544,269.2339242756486 L 652.713840915699,296.5451634834973 L 625.4026017078504,285.83946349175267 L 613.660712322884,312.72149899974175 L 601.9188229379176,285.83946349175267 L 574.607583730069,296.5451634834973 L 585.3132837218136,269.2339242756486 L 558.4312482138245,257.4920348906822 L 585.3132837218136,245.75014550571584 L 574.607583730069,218.43890629786713 L 601.9188229379176,229.14460628961172 Z" fill="none" stroke="#FFFFFF" stroke-width="2.21379655679399" /><path d="M 736.3928547874609,202.26257078162263 L 748.1347441724273,229.14460628961172 L 775.445983380276,218.43890629786713 L 764.7402833885313,245.75014550571584 L 791.6223188965205,257.4920348906822 L 764.7402833885313,269.2339242756486 L 775.445983380276,296.5451634834973 L 748.1347441724273,285.83946349175267 L 736.3928547874609,312.72149899974175 L 724.6509654024945,285.83946349175267 L 697.3397261946459,296.5451634834973 L 708.0454261863905,269.2339242756486 L 681.1633906784014,257.4920348906822 L 708.0454261863905,245.75014550571584 L 697.3397261946459,218.43890629786713 L 724.6509654024945,229.14460628961172 Z" fill="none" stroke="#FFFFFF" stroke-width="2.21379655679399" /><path d="M 859.1249972520377,202.26257078162263 L 870.8668866370041,229.14460628961172 L 898.1781258448527,218.43890629786713 L 887.4724258531081,245.75014550571584 L 914.3544613610973,257.4920348906822 L 887.4724258531081,269.2339242756486 L 898.1781258448527,296.5451634834973 L 870.8668866370041,285.83946349175267 L 859.1249972520377,312.72149899974175 L 847.3831078670713,285.83946349175267 L 820.0718686592227,296.5451634834973 L 830.7775686509673,269.2339242756486 L 803.8955331429781,257.4920348906822 L 830.7775686509673,245.75014550571584 L 820.0718686592227,218.43890629786713 L 847.3831078670713,229.14460628961172 Z" fill="none" stroke="#FFFFFF" stroke-width="2.21379655679399" /><path d="M 981.8571397166145,202.26257078162263 L 993.5990291015809,229.14460628961172 L 1020.9102683094295,218.43890629786713 L 1010.2045683176849,245.75014550571584 L 1037.086603825674,257.4920348906822 L 1010.2045683176849,269.2339242756486 L 1020.9102683094295,296.5451634834973 L 993.5990291015809,285.83946349175267 L 981.8571397166145,312.72149899974175 L 970.1152503316481,285.83946349175267 L 942.8040111237995,296.5451634834973 L 953.5097111155441,269.2339242756486 L 926.6276756075549,257.4920348906822 L 953.5097111155441,245.75014550571584 L 942.8040111237995,218.43890629786713 L 970.1152503316481,229.14460628961172 Z" fill="none" stroke="#FFFFFF" stroke-width="2.21379655679399" /><path d="M 1104.5892821811913,202.26257078162263 L 1116.3311715661575,229.14460628961172 L 1143.6424107740063,218.43890629786713 L 1132.9367107822618,245.75014550571584 L 1159.8187462902508,257.4920348906822 L 1132.9367107822618,269.2339242756486 L 1143.6424107740063,296.5451634834973 L 1116.3311715661575,285.83946349175267 L 1104.5892821811913,312.72149899974175 L 1092.847392796225,285.83946349175267 L 1065.5361535883762,296.5451634834973 L 1076.2418535801207,269.2339242756486 L 1049.3598180721317,257.4920348906822 L 1076.2418535801207,245.75014550571584 L 1065.5361535883762,218.43890629786713 L 1092.847392796225,229.14460628961172 Z" fill="none" stroke="#FFFFFF" stroke-width="2.21379655679399" /><path d="M 1227.321424645768,202.26257078162263 L 1239.0633140307343,229.14460628961172 L 1266.374553238583,218.43890629786713 L 1255.6688532468386,245.75014550571584 L 1282.5508887548276,257.4920348906822 L 1255.6688532468386,269.2339242756486 L 1266.374553238583,296.5451634834973 L 1239.0633140307343,285.83946349175267 L 1227.321424645768,312.72149899974175 L 1215.5795352608018,285.83946349175267 L 1188.268296052953,296.5451634834973 L 1198.9739960446975,269.2339242756486 L 1172.0919605367085,257.4920348906822 L 1198.9739960446975,245.75014550571584 L 1188.268296052953,218.43890629786713 L 1215.5795352608018,229.14460628961172 Z" fill="none" stroke="#FFFFFF" stroke-width="2.21379655679399" /><path d="M 1350.0535671103448,202.26257078162263 L 1361.795456495311,229.14460628961172 L 1389.1066957031599,218.43890629786713 L 1378.4009957114154,245.75014550571584 L 1405.2830312194044,257.4920348906822 L 1378.4009957114154,269.2339242756486 L 1389.1066957031599,296.5451634834973 L 1361.795456495311,285.83946349175267 L 1350.0535671103448,312.72149899974175 L 1338.3116777253786,285.83946349175267 L 1311.0004385175298,296.5451634834973 L 1321.7061385092743,269.2339242756486 L 1294.8241030012853,257.4920348906822 L 1321.7061385092743,245.75014550571584 L 1311.0004385175298,218.43890629786713 L 1338.3116777253786,229.14460628961172 Z" fill="none" stroke="#FFFFFF" stroke-width="2.21379655679399" /><path d="M 1472.7857095749218,202.26257078162263 L 1484.527598959888,229.14460628961172 L 1511.8388381677369,218.43890629786713 L 1501.1331381759924,245.75014550571584 L 1528.0151736839814,257.4920348906822 L 1501.1331381759924,269.2339242756486 L 1511.8388381677369,296.5451634834973 L 1484.527598959888,285.83946349175267 L 1472.7857095749218,312.72149899974175 L 1461.0438201899556,285.83946349175267 L 1433.7325809821068,296.5451634834973 L 1444.4382809738513,269.2339242756486 L 1417.5562454658623,257.4920348906822 L 1444.4382809738513,245.75014550571584 L 1433.7325809821068,218.43890629786713 L 1461.0438201899556,229.14460628961172 Z" fill="none" stroke="#FFFFFF" stroke-width="2.21379655679399" /><path d="M 1595.5178520394986,202.26257078162263 L 1607.259741424465,229.14460628961172 L 1634.5709806323136,218.43890629786713 L 1623.8652806405692,245.75014550571584 L 1650.7473161485582,257.4920348906822 L 1623.8652806405692,269.2339242756486 L 1634.5709806323136,296.5451634834973 L 1607.259741424465,285.83946349175267 L 1595.5178520394986,312.72149899974175 L 1583.7759626545323,285.83946349175267 L 1556.4647234466836,296.5451634834973 L 1567.170423438428,269.2339242756486 L 1540.288387930439,257.4920348906822 L 1567.170423438428,245.75014550571584 L 1556.4647234466836,218.43890629786713 L 1583.7759626545323,229.14460628961172 Z" fill="none" stroke="#FFFFFF" stroke-width="2.21379655679399" /><path d="M 1718.2499945040754,202.26257078162263 L 1729.9918838890417,229.14460628961172 L 1757.3031230968904,218.43890629786713 L 1746.597423105146,245.75014550571584 L 1773.479458613135,257.4920348906822 L 1746.597423105146,269.2339242756486 L 1757.3031230968904,296.5451634834973 L 1729.9918838890417,285.83946349175267 L 1718.2499945040754,312.72149899974175 L 1706.5081051191091,285.83946349175267 L 1679.1968659112604,296.5451634834973 L 1689.9025659030049,269.2339242756486 L 1663.0205303950158,257.4920348906822 L 1689.9025659030049,245.75014550571584 L 1679.1968659112604,218.43890629786713 L 1706.5081051191091,229.14460628961172 Z" fill="none" stroke="#FFFFFF" stroke-width="2.21379655679399" /><path d="M 1840.9821369686522,202.26257078162263 L 1852.7240263536185,229.14460628961172 L 1880.0352655614672,218.43890629786713 L 1869.3295655697227,245.75014550571584 L 1896.2116010777117,257.4920348906822 L 1869.3295655697227,269.2339242756486 L 1880.0352655614672,296.5451634834973 L 1852.7240263536185,285.83946349175267 L 1840.9821369686522,312.72149899974175 L 1829.240247583686,285.83946349175267 L 1801.9290083758372,296.5451634834973 L 1812.6347083675817,269.2339242756486 L 1785.7526728595926,257.4920348906822 L 1812.6347083675817,245.75014550571584 L 1801.9290083758372,218.43890629786713 L 1829.240247583686,229.14460628961172 Z" fill="none" stroke="#FFFFFF" stroke-width="2.21379655679399" /><path d="M 1963.714279433229,202.26257078162263 L 1975.4561688181952,229.14460628961172 L 2002.767408026044,218.43890629786713 L 1992.0617080342995,245.75014550571584 L 2018.9437435422885,257.4920348906822 L 1992.0617080342995,269.2339242756486 L 2002.767408026044,296.5451634834973 L 1975.4561688181952,285.83946349175267 L 1963.714279433229,312.72149899974175 L 1951.9723900482627,285.83946349175267 L 1924.661150840414,296.5451634834973 L 1935.3668508321584,269.2339242756486 L 1908.4848153241694,257.4920348906822 L 1935.3668508321584,245.75014550571584 L 1924.661150840414,218.43890629786713 L 1951.9723900482627,229.14460628961172 Z" fill="none" stroke="#FFFFFF" stroke-width="2.21379655679399" /><path d="M -61.366071232288405,308.5486061559461 L -49.62418184732204,335.4306416639352 L -22.31294263947334,324.72494167219065 L -33.01864263121794,352.0361808800393 L -6.136607123228842,363.7780702650057 L -33.01864263121794,375.51995964997207 L -22.31294263947334,402.8311988578207 L -49.62418184732204,392.12549886607616 L -61.366071232288405,419.00753437406524 L -73.10796061725476,392.12549886607616 L -100.41919982510346,402.83119885782077 L -89.71349983335887,375.51995964997207 L -116.59553534134797,363.7780702650057 L -89.71349983335887,352.0361808800393 L -100.41919982510348,324.72494167219065 L -73.10796061725478,335.4306416639352 Z" fill="none" stroke="#FFFFFF" stroke-width="2.21379655679399" /><path d="M 61.366071232288405,308.5486061559461 L 73.10796061725478,335.4306416639352 L 100.41919982510348,324.72494167219065 L 89.71349983335887,352.0361808800393 L 116.59553534134797,363.7780702650057 L 89.71349983335887,375.51995964997207 L 100.41919982510348,402.8311988578207 L 73.10796061725478,392.12549886607616 L 61.366071232288405,419.00753437406524 L 49.62418184732205,392.12549886607616 L 22.31294263947335,402.83119885782077 L 33.01864263121794,375.51995964997207 L 6.136607123228842,363.7780702650057 L 33.01864263121794,352.0361808800393 L 22.312942639473334,324.72494167219065 L 49.62418184732203,335.4306416639352 Z" fill="none" stroke="#FFFFFF" stroke-width="2.21379655679399" /><path d="M 184.09821369686523,308.5486061559461 L 195.8401030818316,335.4306416639352 L 223.1513422896803,324.72494167219065 L 212.4456422979357,352.0361808800393 L 239.3276778059248,363.7780702650057 L 212.4456422979357,375.51995964997207 L 223.1513422896803,402.8311988578207 L 195.8401030818316,392.12549886607616 L 184.09821369686523,419.00753437406524 L 172.35632431189887,392.12549886607616 L 145.04508510405017,402.83119885782077 L 155.75078509579475,375.51995964997207 L 128.86874958780567,363.7780702650057 L 155.75078509579475,352.0361808800393 L 145.04508510405014,324.72494167219065 L 172.35632431189885,335.4306416639352 Z" fill="none" stroke="#FFFFFF" stroke-width="2.21379655679399" /><path d="M 306.83035616144207,308.5486061559461 L 318.57224554640845,335.4306416639352 L 345.88348475425715,324.72494167219065 L 335.17778476251254,352.0361808800393 L 362.05982027050163,363.7780702650057 L 335.17778476251254,375.51995964997207 L 345.88348475425715,402.8311988578207 L 318.57224554640845,392.12549886607616 L 306.83035616144207,419.00753437406524 L 295.0884667764757,392.12549886607616 L 267.77722756862704,402.83119885782077 L 278.4829275603716,375.51995964997207 L 251.6008920523825,363.7780702650057 L 278.4829275603716,352.0361808800393 L 267.777227568627,324.72494167219065 L 295.0884667764757,335.4306416639352 Z" fill="none" stroke="#FFFFFF" stroke-width="2.21379655679399" /><path d="M 429.56249862601885,308.5486061559461 L 441.30438801098524,335.4306416639352 L 468.61562721883394,324.72494167219065 L 457.9099272270893,352.0361808800393 L 484.7919627350784,363.7780702650057 L 457.9099272270893,375.51995964997207 L 468.61562721883394,402.8311988578207 L 441.30438801098524,392.12549886607616 L 429.56249862601885,419.00753437406524 L 417.82060924105247,392.12549886607616 L 390.5093700332038,402.83119885782077 L 401.2150700249484,375.51995964997207 L 374.3330345169593,363.7780702650057 L 401.2150700249484,352.0361808800393 L 390.50937003320377,324.72494167219065 L 417.82060924105247,335.4306416639352 Z" fill="none" stroke="#FFFFFF" stroke-width="2.21379655679399" /><path d="M 552.2946410905956,308.5486061559461 L 564.036530475562,335.4306416639352 L 591.3477696834107,324.72494167219065 L 580.642069691666,352.0361808800393 L 607.5241051996552,363.7780702650057 L 580.642069691666,375.51995964997207 L 591.3477696834107,402.8311988578207 L 564.036530475562,392.12549886607616 L 552.2946410905956,419.00753437406524 L 540.5527517056292,392.12549886607616 L 513.2415124977806,402.83119885782077 L 523.9472124895252,375.51995964997207 L 497.06517698153607,363.7780702650057 L 523.9472124895252,352.0361808800393 L 513.2415124977806,324.72494167219065 L 540.5527517056292,335.4306416639352 Z" fill="none" stroke="#FFFFFF" stroke-width="2.21379655679399" /><path d="M 675.0267835551725,308.5486061559461 L 686.7686729401389,335.4306416639352 L 714.0799121479876,324.72494167219065 L 703.374212156243,352.0361808800393 L 730.2562476642321,363.7780702650057 L 703.374212156243,375.51995964997207 L 714.0799121479876,402.8311988578207 L 686.7686729401389,392.12549886607616 L 675.0267835551725,419.00753437406524 L 663.2848941702061,392.12549886607616 L 635.9736549623575,402.83119885782077 L 646.6793549541021,375.51995964997207 L 619.797319446113,363.7780702650057 L 646.6793549541021,352.0361808800393 L 635.9736549623575,324.72494167219065 L 663.2848941702061,335.4306416639352 Z" fill="none" stroke="#FFFFFF" stroke-width="2.21379655679399" /><path d="M 797.7589260197493,308.5486061559461 L 809.5008154047157,335.4306416639352 L 836.8120546125643,324.72494167219065 L 826.1063546208197,352.0361808800393 L 852.9883901288089,363.7780702650057 L 826.1063546208197,375.51995964997207 L 836.8120546125643,402.8311988578207 L 809.5008154047157,392.12549886607616 L 797.7589260197493,419.00753437406524 L 786.0170366347829,392.12549886607616 L 758.7057974269343,402.83119885782077 L 769.4114974186789,375.51995964997207 L 742.5294619106897,363.7780702650057 L 769.4114974186789,352.0361808800393 L 758.7057974269343,324.72494167219065 L 786.0170366347829,335.4306416639352 Z" fill="none" stroke="#FFFFFF" stroke-width="2.21379655679399" /><path d="M 920.4910684843261,308.5486061559461 L 932.2329578692925,335.4306416639352 L 959.5441970771411,324.72494167219065 L 948.8384970853965,352.0361808800393 L 975.7205325933857,363.7780702650057 L 948.8384970853965,375.51995964997207 L 959.5441970771411,402.8311988578207 L 932.2329578692925,392.12549886607616 L 920.4910684843261,419.00753437406524 L 908.7491790993597,392.12549886607616 L 881.4379398915111,402.83119885782077 L 892.1436398832557,375.51995964997207 L 865.2616043752665,363.7780702650057 L 892.1436398832557,352.0361808800393 L 881.4379398915111,324.72494167219065 L 908.7491790993597,335.4306416639352 Z" fill="none" stroke="#FFFFFF" stroke-width="2.21379655679399" /><path d="M 1043.2232109489028,308.5486061559461 L 1054.965100333869,335.4306416639352 L 1082.2763395417178,324.72494167219065 L 1071.5706395499733,352.0361808800393 L 1098.4526750579623,363.7780702650057 L 1071.5706395499733,375.51995964997207 L 1082.2763395417178,402.8311988578207 L 1054.965100333869,392.12549886607616 L 1043.2232109489028,419.00753437406524 L 1031.4813215639365,392.12549886607616 L 1004.1700823560877,402.83119885782077 L 1014.8757823478323,375.51995964997207 L 987.9937468398432,363.7780702650057 L 1014.8757823478323,352.0361808800393 L 1004.1700823560877,324.72494167219065 L 1031.4813215639365,335.4306416639352 Z" fill="none" stroke="#FFFFFF" stroke-width="2.21379655679399" /><path d="M 1165.9553534134795,308.5486061559461 L 1177.6972427984458,335.4306416639352 L 1205.0084820062946,324.72494167219065 L 1194.30278201455,352.0361808800393 L 1221.184817522539,363.7780702650057 L 1194.30278201455,375.51995964997207 L 1205.0084820062946,402.8311988578207 L 1177.6972427984458,392.12549886607616 L 1165.9553534134795,419.00753437406524 L 1154.2134640285133,392.12549886607616 L 1126.9022248206645,402.83119885782077 L 1137.607924812409,375.51995964997207 L 1110.72588930442,363.7780702650057 L 1137.607924812409,352.0361808800393 L 1126.9022248206645,324.72494167219065 L 1154.2134640285133,335.4306416639352 Z" fill="none" stroke="#FFFFFF" stroke-width="2.21379655679399" /><path d="M 1288.6874958780563,308.5486061559461 L 1300.4293852630226,335.4306416639352 L 1327.7406244708714,324.72494167219065 L 1317.0349244791269,352.0361808800393 L 1343.916959987116,363.7780702650057 L 1317.0349244791269,375.51995964997207 L 1327.7406244708714,402.8311988578207 L 1300.4293852630226,392.12549886607616 L 1288.6874958780563,419.00753437406524 L 1276.94560649309,392.12549886607616 L 1249.6343672852413,402.83119885782077 L 1260.3400672769858,375.51995964997207 L 1233.4580317689968,363.7780702650057 L 1260.3400672769858,352.0361808800393 L 1249.6343672852413,324.72494167219065 L 1276.94560649309,335.4306416639352 Z" fill="none" stroke="#FFFFFF" stroke-width="2.21379655679399" /><path d="M 1411.4196383426333,308.5486061559461 L 1423.1615277275996,335.4306416639352 L 1450.4727669354484,324.72494167219065 L 1439.7670669437039,352.0361808800393 L 1466.649102451693,363.7780702650057 L 1439.7670669437039,375.51995964997207 L 1450.4727669354484,402.8311988578207 L 1423.1615277275996,392.12549886607616 L 1411.4196383426333,419.00753437406524 L 1399.677748957667,392.12549886607616 L 1372.3665097498183,402.83119885782077 L 1383.0722097415628,375.51995964997207 L 1356.1901742335738,363.7780702650057 L 1383.0722097415628,352.0361808800393 L 1372.3665097498183,324.72494167219065 L 1399.677748957667,335.4306416639352 Z" fill="none" stroke="#FFFFFF" stroke-width="2.21379655679399" /><path d="M 1534.1517808072101,308.5486061559461 L 1545.8936701921764,335.4306416639352 L 1573.2049094000251,324.72494167219065 L 1562.4992094082806,352.0361808800393 L 1589.3812449162697,363.7780702650057 L 1562.4992094082806,375.51995964997207 L 1573.2049094000251,402.8311988578207 L 1545.8936701921764,392.12549886607616 L 1534.1517808072101,419.00753437406524 L 1522.4098914222438,392.12549886607616 L 1495.098652214395,402.83119885782077 L 1505.8043522061396,375.51995964997207 L 1478.9223166981506,363.7780702650057 L 1505.8043522061396,352.0361808800393 L 1495.098652214395,324.72494167219065 L 1522.4098914222438,335.4306416639352 Z" fill="none" stroke="#FFFFFF" stroke-width="2.21379655679399" /><path d="M 1656.883923271787,308.5486061559461 L 1668.6258126567532,335.4306416639352 L 1695.937051864602,324.72494167219065 L 1685.2313518728574,352.0361808800393 L 1712.1133873808465,363.7780702650057 L 1685.2313518728574,375.51995964997207 L 1695.937051864602,402.8311988578207 L 1668.6258126567532,392.12549886607616 L 1656.883923271787,419.00753437406524 L 1645.1420338868206,392.12549886607616 L 1617.8307946789719,402.83119885782077 L 1628.5364946707164,375.51995964997207 L 1601.6544591627273,363.7780702650057 L 1628.5364946707164,352.0361808800393 L 1617.8307946789719,324.72494167219065 L 1645.1420338868206,335.4306416639352 Z" fill="none" stroke="#FFFFFF" stroke-width="2.21379655679399" /><path d="M 1779.6160657363637,308.5486061559461 L 1791.35795512133,335.4306416639352 L 1818.6691943291787,324.72494167219065 L 1807.9634943374342,352.0361808800393 L 1834.8455298454232,363.7780702650057 L 1807.9634943374342,375.51995964997207 L 1818.6691943291787,402.8311988578207 L 1791.35795512133,392.12549886607616 L 1779.6160657363637,419.00753437406524 L 1767.8741763513974,392.12549886607616 L 1740.5629371435487,402.83119885782077 L 1751.2686371352931,375.51995964997207 L 1724.3866016273041,363.7780702650057 L 1751.2686371352931,352.0361808800393 L 1740.5629371435487,324.72494167219065 L 1767.8741763513974,335.4306416639352 Z" fill="none" stroke="#FFFFFF" stroke-width="2.21379655679399" /><path d="M 1902.3482082009405,308.5486061559461 L 1914.0900975859067,335.4306416639352 L 1941.4013367937555,324.72494167219065 L 1930.695636802011,352.0361808800393 L 1957.57767231,363.7780702650057 L 1930.695636802011,375.51995964997207 L 1941.4013367937555,402.8311988578207 L 1914.0900975859067,392.12549886607616 L 1902.3482082009405,419.00753437406524 L 1890.6063188159742,392.12549886607616 L 1863.2950796081254,402.83119885782077 L 1874.00077959987,375.51995964997207 L 1847.118744091881,363.7780702650057 L 1874.00077959987,352.0361808800393 L 1863.2950796081254,324.72494167219065 L 1890.6063188159742,335.4306416639352 Z" fill="none" stroke="#FFFFFF" stroke-width="2.21379655679399" /><path d="M 2025.0803506655175,308.5486061559461 L 2036.8222400504837,335.4306416639352 L 2064.1334792583325,324.72494167219065 L 2053.427779266588,352.0361808800393 L 2080.309814774577,363.7780702650057 L 2053.427779266588,375.51995964997207 L 2064.1334792583325,402.8311988578207 L 2036.8222400504837,392.12549886607616 L 2025.0803506655175,419.00753437406524 L 2013.3384612805512,392.12549886607616 L 1986.0272220727024,402.83119885782077 L 1996.732922064447,375.51995964997207 L 1969.850886556458,363.7780702650057 L 1996.732922064447,352.0361808800393 L 1986.0272220727024,324.72494167219065 L 2013.3384612805512,335.4306416639352 Z" fill="none" stroke="#FFFFFF" stroke-width="2.21379655679399" /><path d="M 3.381829321989171e-15,414.83464153026955 L 11.741889384966363,441.71667703825864 L 39.053128592815064,431.0109770465141 L 28.347428601070465,458.32221625436273 L 55.22946410905956,470.0641056393291 L 28.347428601070465,481.8059950242955 L 39.053128592815064,509.11723423214414 L 11.741889384966363,498.4115342403996 L 3.381829321989171e-15,525.2935697483887 L -11.74188938496636,498.4115342403996 L -39.05312859281506,509.1172342321442 L -28.34742860107046,481.8059950242955 L -55.22946410905956,470.0641056393291 L -28.34742860107046,458.32221625436273 L -39.05312859281507,431.0109770465141 L -11.741889384966377,441.71667703825864 Z" fill="none" stroke="#FFFFFF" stroke-width="2.21379655679399" /><path d="M 122.73214246457681,414.83464153026955 L 134.47403184954317,441.71667703825864 L 161.78527105739187,431.0109770465141 L 151.0795710656473,458.32221625436273 L 177.96160657363637,470.0641056393291 L 151.0795710656473,481.8059950242955 L 161.78527105739187,509.11723423214414 L 134.47403184954317,498.4115342403996 L 122.73214246457681,525.2935697483887 L 110.99025307961045,498.4115342403996 L 83.67901387176175,509.1172342321442 L 94.38471386350635,481.8059950242955 L 67.50267835551725,470.0641056393291 L 94.38471386350635,458.32221625436273 L 83.67901387176174,431.0109770465141 L 110.99025307961043,441.71667703825864 Z" fill="none" stroke="#FFFFFF" stroke-width="2.21379655679399" /><path d="M 245.46428492915362,414.83464153026955 L 257.20617431412,441.71667703825864 L 284.5174135219687,431.0109770465141 L 273.8117135302241,458.32221625436273 L 300.6937490382132,470.0641056393291 L 273.8117135302241,481.8059950242955 L 284.5174135219687,509.11723423214414 L 257.20617431412,498.4115342403996 L 245.46428492915362,525.2935697483887 L 233.72239554418726,498.4115342403996 L 206.41115633633856,509.1172342321442 L 217.11685632808314,481.8059950242955 L 190.23482082009406,470.0641056393291 L 217.11685632808314,458.32221625436273 L 206.41115633633854,431.0109770465141 L 233.72239554418724,441.71667703825864 Z" fill="none" stroke="#FFFFFF" stroke-width="2.21379655679399" /><path d="M 368.19642739373046,414.83464153026955 L 379.93831677869684,441.71667703825864 L 407.24955598654554,431.0109770465141 L 396.54385599480094,458.32221625436273 L 423.42589150279,470.0641056393291 L 396.54385599480094,481.8059950242955 L 407.24955598654554,509.11723423214414 L 379.93831677869684,498.4115342403996 L 368.19642739373046,525.2935697483887 L 356.4545380087641,498.4115342403996 L 329.14329880091543,509.1172342321442 L 339.84899879266,481.8059950242955 L 312.9669632846709,470.0641056393291 L 339.84899879266,458.32221625436273 L 329.1432988009154,431.0109770465141 L 356.4545380087641,441.71667703825864 Z" fill="none" stroke="#FFFFFF" stroke-width="2.21379655679399" /><path d="M 490.92856985830724,414.83464153026955 L 502.6704592432736,441.71667703825864 L 529.9816984511223,431.0109770465141 L 519.2759984593777,458.32221625436273 L 546.1580339673668,470.0641056393291 L 519.2759984593777,481.8059950242955 L 529.9816984511223,509.11723423214414 L 502.6704592432736,498.4115342403996 L 490.92856985830724,525.2935697483887 L 479.18668047334086,498.4115342403996 L 451.8754412654922,509.1172342321442 L 462.58114125723677,481.8059950242955 L 435.6991057492477,470.0641056393291 L 462.58114125723677,458.32221625436273 L 451.87544126549216,431.0109770465141 L 479.18668047334086,441.71667703825864 Z" fill="none" stroke="#FFFFFF" stroke-width="2.21379655679399" /><path d="M 613.660712322884,414.83464153026955 L 625.4026017078504,441.71667703825864 L 652.713840915699,431.0109770465141 L 642.0081409239544,458.32221625436273 L 668.8901764319436,470.0641056393291 L 642.0081409239544,481.8059950242955 L 652.713840915699,509.11723423214414 L 625.4026017078504,498.4115342403996 L 613.660712322884,525.2935697483887 L 601.9188229379176,498.4115342403996 L 574.607583730069,509.1172342321442 L 585.3132837218136,481.8059950242955 L 558.4312482138245,470.0641056393291 L 585.3132837218136,458.32221625436273 L 574.607583730069,431.0109770465141 L 601.9188229379176,441.71667703825864 Z" fill="none" stroke="#FFFFFF" stroke-width="2.21379655679399" /><path d="M 736.3928547874609,414.83464153026955 L 748.1347441724273,441.71667703825864 L 775.445983380276,431.0109770465141 L 764.7402833885313,458.32221625436273 L 791.6223188965205,470.0641056393291 L 764.7402833885313,481.8059950242955 L 775.445983380276,509.11723423214414 L 748.1347441724273,498.4115342403996 L 736.3928547874609,525.2935697483887 L 724.6509654024945,498.4115342403996 L 697.3397261946459,509.1172342321442 L 708.0454261863905,481.8059950242955 L 681.1633906784014,470.0641056393291 L 708.0454261863905,458.32221625436273 L 697.3397261946459,431.0109770465141 L 724.6509654024945,441.71667703825864 Z" fill="none" stroke="#FFFFFF" stroke-width="2.21379655679399" /><path d="M 859.1249972520377,414.83464153026955 L 870.8668866370041,441.71667703825864 L 898.1781258448527,431.0109770465141 L 887.4724258531081,458.32221625436273 L 914.3544613610973,470.0641056393291 L 887.4724258531081,481.8059950242955 L 898.1781258448527,509.11723423214414 L 870.8668866370041,498.4115342403996 L 859.1249972520377,525.2935697483887 L 847.3831078670713,498.4115342403996 L 820.0718686592227,509.1172342321442 L 830.7775686509673,481.8059950242955 L 803.8955331429781,470.0641056393291 L 830.7775686509673,458.32221625436273 L 820.0718686592227,431.0109770465141 L 847.3831078670713,441.71667703825864 Z" fill="none" stroke="#FFFFFF" stroke-width="2.21379655679399" /><path d="M 981.8571397166145,414.83464153026955 L 993.5990291015809,441.71667703825864 L 1020.9102683094295,431.0109770465141 L 1010.2045683176849,458.32221625436273 L 1037.086603825674,470.0641056393291 L 1010.2045683176849,481.8059950242955 L 1020.9102683094295,509.11723423214414 L 993.5990291015809,498.4115342403996 L 981.8571397166145,525.2935697483887 L 970.1152503316481,498.4115342403996 L 942.8040111237995,509.1172342321442 L 953.5097111155441,481.8059950242955 L 926.6276756075549,470.0641056393291 L 953.5097111155441,458.32221625436273 L 942.8040111237995,431.0109770465141 L 970.1152503316481,441.71667703825864 Z" fill="none" stroke="#FFFFFF" stroke-width="2.21379655679399" /><path d="M 1104.5892821811913,414.83464153026955 L 1116.3311715661575,441.71667703825864 L 1143.6424107740063,431.0109770465141 L 1132.9367107822618,458.32221625436273 L 1159.8187462902508,470.0641056393291 L 1132.9367107822618,481.8059950242955 L 1143.6424107740063,509.11723423214414 L 1116.3311715661575,498.4115342403996 L 1104.5892821811913,525.2935697483887 L 1092.847392796225,498.4115342403996 L 1065.5361535883762,509.1172342321442 L 1076.2418535801207,481.8059950242955 L 1049.3598180721317,470.0641056393291 L 1076.2418535801207,458.32221625436273 L 1065.5361535883762,431.0109770465141 L 1092.847392796225,441.71667703825864 Z" fill="none" stroke="#FFFFFF" stroke-width="2.21379655679399" /><path d="M 1227.321424645768,414.83464153026955 L 1239.0633140307343,441.71667703825864 L 1266.374553238583,431.0109770465141 L 1255.6688532468386,458.32221625436273 L 1282.5508887548276,470.0641056393291 L 1255.6688532468386,481.8059950242955 L 1266.374553238583,509.11723423214414 L 1239.0633140307343,498.4115342403996 L 1227.321424645768,525.2935697483887 L 1215.5795352608018,498.4115342403996 L 1188.268296052953,509.1172342321442 L 1198.9739960446975,481.8059950242955 L 1172.0919605367085,470.0641056393291 L 1198.9739960446975,458.32221625436273 L 1188.268296052953,431.0109770465141 L 1215.5795352608018,441.71667703825864 Z" fill="none" stroke="#FFFFFF" stroke-width="2.21379655679399" /><path d="M 1350.0535671103448,414.83464153026955 L 1361.795456495311,441.71667703825864 L 1389.1066957031599,431.0109770465141 L 1378.4009957114154,458.32221625436273 L 1405.2830312194044,470.0641056393291 L 1378.4009957114154,481.8059950242955 L 1389.1066957031599,509.11723423214414 L 1361.795456495311,498.4115342403996 L 1350.0535671103448,525.2935697483887 L 1338.3116777253786,498.4115342403996 L 1311.0004385175298,509.1172342321442 L 1321.7061385092743,481.8059950242955 L 1294.8241030012853,470.0641056393291 L 1321.7061385092743,458.32221625436273 L 1311.0004385175298,431.0109770465141 L 1338.3116777253786,441.71667703825864 Z" fill="none" stroke="#FFFFFF" stroke-width="2.21379655679399" /><path d="M 1472.7857095749218,414.83464153026955 L 1484.527598959888,441.71667703825864 L 1511.8388381677369,431.0109770465141 L 1501.1331381759924,458.32221625436273 L 1528.0151736839814,470.0641056393291 L 1501.1331381759924,481.8059950242955 L 1511.8388381677369,509.11723423214414 L 1484.527598959888,498.4115342403996 L 1472.7857095749218,525.2935697483887 L 1461.0438201899556,498.4115342403996 L 1433.7325809821068,509.1172342321442 L 1444.4382809738513,481.8059950242955 L 1417.5562454658623,470.0641056393291 L 1444.4382809738513,458.32221625436273 L 1433.7325809821068,431.0109770465141 L 1461.0438201899556,441.71667703825864 Z" fill="none" stroke="#FFFFFF" stroke-width="2.21379655679399" /><path d="M 1595.5178520394986,414.83464153026955 L 1607.259741424465,441.71667703825864 L 1634.5709806323136,431.0109770465141 L 1623.8652806405692,458.32221625436273 L 1650.7473161485582,470.0641056393291 L 1623.8652806405692,481.8059950242955 L 1634.5709806323136,509.11723423214414 L 1607.259741424465,498.4115342403996 L 1595.5178520394986,525.2935697483887 L 1583.7759626545323,498.4115342403996 L 1556.4647234466836,509.1172342321442 L 1567.170423438428,481.8059950242955 L 1540.288387930439,470.0641056393291 L 1567.170423438428,458.32221625436273 L 1556.4647234466836,431.0109770465141 L 1583.7759626545323,441.71667703825864 Z" fill="none" stroke="#FFFFFF" stroke-width="2.21379655679399" /><path d="M 1718.2499945040754,414.83464153026955 L 1729.9918838890417,441.71667703825864 L 1757.3031230968904,431.0109770465141 L 1746.597423105146,458.32221625436273 L 1773.479458613135,470.0641056393291 L 1746.597423105146,481.8059950242955 L 1757.3031230968904,509.11723423214414 L 1729.9918838890417,498.4115342403996 L 1718.2499945040754,525.2935697483887 L 1706.5081051191091,498.4115342403996 L 1679.1968659112604,509.1172342321442 L 1689.9025659030049,481.8059950242955 L 1663.0205303950158,470.0641056393291 L 1689.9025659030049,458.32221625436273 L 1679.1968659112604,431.0109770465141 L 1706.5081051191091,441.71667703825864 Z" fill="none" stroke="#FFFFFF" stroke-width="2.21379655679399" /><path d="M 1840.9821369686522,414.83464153026955 L 1852.7240263536185,441.71667703825864 L 1880.0352655614672,431.0109770465141 L 1869.3295655697227,458.32221625436273 L 1896.2116010777117,470.0641056393291 L 1869.3295655697227,481.8059950242955 L 1880.0352655614672,509.11723423214414 L 1852.7240263536185,498.4115342403996 L 1840.9821369686522,525.2935697483887 L 1829.240247583686,498.4115342403996 L 1801.9290083758372,509.1172342321442 L 1812.6347083675817,481.8059950242955 L 1785.7526728595926,470.0641056393291 L 1812.6347083675817,458.32221625436273 L 1801.9290083758372,431.0109770465141 L 1829.240247583686,441.71667703825864 Z" fill="none" stroke="#FFFFFF" stroke-width="2.21379655679399" /><path d="M 1963.714279433229,414.83464153026955 L 1975.4561688181952,441.71667703825864 L 2002.767408026044,431.0109770465141 L 1992.0617080342995,458.32221625436273 L 2018.9437435422885,470.0641056393291 L 1992.0617080342995,481.8059950242955 L 2002.767408026044,509.11723423214414 L 1975.4561688181952,498.4115342403996 L 1963.714279433229,525.2935697483887 L 1951.9723900482627,498.4115342403996 L 1924.661150840414,509.1172342321442 L 1935.3668508321584,481.8059950242955 L 1908.4848153241694,470.0641056393291 L 1935.3668508321584,458.32221625436273 L 1924.661150840414,431.0109770465141 L 1951.9723900482627,441.71667703825864 Z" fill="none" stroke="#FFFFFF" stroke-width="2.21379655679399" /><line x1="55.22946410905956" y1="44.91996414203511" x2="67.50267835551725" y2="44.91996414203511" stroke="#FFFFFF" stroke-width="0.5"/><line x1="177.96160657363637" y1="44.91996414203511" x2="190.23482082009406" y2="44.91996414203511" stroke="#FFFFFF" stroke-width="0.5"/><line x1="300.6937490382132" y1="44.91996414203511" x2="312.9669632846709" y2="44.91996414203511" stroke="#FFFFFF" stroke-width="0.5"/><line x1="423.42589150279" y1="44.91996414203511" x2="435.6991057492477" y2="44.91996414203511" stroke="#FFFFFF" stroke-width="0.5"/><line x1="546.1580339673668" y1="44.91996414203511" x2="558.4312482138245" y2="44.91996414203511" stroke="#FFFFFF" stroke-width="0.5"/><line x1="668.8901764319436" y1="44.91996414203511" x2="681.1633906784014" y2="44.91996414203511" stroke="#FFFFFF" stroke-width="0.5"/><line x1="791.6223188965205" y1="44.91996414203511" x2="803.8955331429781" y2="44.91996414203511" stroke="#FFFFFF" stroke-width="0.5"/><line x1="914.3544613610973" y1="44.91996414203511" x2="926.6276756075549" y2="44.91996414203511" stroke="#FFFFFF" stroke-width="0.5"/><line x1="1037.086603825674" y1="44.91996414203511" x2="1049.3598180721317" y2="44.91996414203511" stroke="#FFFFFF" stroke-width="0.5"/><line x1="1159.8187462902508" y1="44.91996414203511" x2="1172.0919605367085" y2="44.91996414203511" stroke="#FFFFFF" stroke-width="0.5"/><line x1="1282.5508887548276" y1="44.91996414203511" x2="1294.8241030012853" y2="44.91996414203511" stroke="#FFFFFF" stroke-width="0.5"/><line x1="1405.2830312194044" y1="44.91996414203511" x2="1417.5562454658623" y2="44.91996414203511" stroke="#FFFFFF" stroke-width="0.5"/><line x1="1528.0151736839814" y1="44.91996414203511" x2="1540.288387930439" y2="44.91996414203511" stroke="#FFFFFF" stroke-width="0.5"/><line x1="1650.7473161485582" y1="44.91996414203511" x2="1663.0205303950158" y2="44.91996414203511" stroke="#FFFFFF" stroke-width="0.5"/><line x1="1773.479458613135" y1="44.91996414203511" x2="1785.7526728595926" y2="44.91996414203511" stroke="#FFFFFF" stroke-width="0.5"/><line x1="1896.2116010777117" y1="44.91996414203511" x2="1908.4848153241694" y2="44.91996414203511" stroke="#FFFFFF" stroke-width="0.5"/><line x1="116.59553534134797" y1="151.20599951635864" x2="128.86874958780567" y2="151.20599951635864" stroke="#FFFFFF" stroke-width="0.5"/><line x1="239.3276778059248" y1="151.20599951635864" x2="251.6008920523825" y2="151.20599951635864" stroke="#FFFFFF" stroke-width="0.5"/><line x1="362.05982027050163" y1="151.20599951635864" x2="374.3330345169593" y2="151.20599951635864" stroke="#FFFFFF" stroke-width="0.5"/><line x1="484.7919627350784" y1="151.20599951635864" x2="497.06517698153607" y2="151.20599951635864" stroke="#FFFFFF" stroke-width="0.5"/><line x1="607.5241051996552" y1="151.20599951635864" x2="619.797319446113" y2="151.20599951635864" stroke="#FFFFFF" stroke-width="0.5"/><line x1="730.2562476642321" y1="151.20599951635864" x2="742.5294619106897" y2="151.20599951635864" stroke="#FFFFFF" stroke-width="0.5"/><line x1="852.9883901288089" y1="151.20599951635864" x2="865.2616043752665" y2="151.20599951635864" stroke="#FFFFFF" stroke-width="0.5"/><line x1="975.7205325933857" y1="151.20599951635864" x2="987.9937468398432" y2="151.20599951635864" stroke="#FFFFFF" stroke-width="0.5"/><line x1="1098.4526750579623" y1="151.20599951635864" x2="1110.72588930442" y2="151.20599951635864" stroke="#FFFFFF" stroke-width="0.5"/><line x1="1221.184817522539" y1="151.20599951635864" x2="1233.4580317689968" y2="151.20599951635864" stroke="#FFFFFF" stroke-width="0.5"/><line x1="1343.916959987116" y1="151.20599951635864" x2="1356.1901742335738" y2="151.20599951635864" stroke="#FFFFFF" stroke-width="0.5"/><line x1="1466.649102451693" y1="151.20599951635864" x2="1478.9223166981506" y2="151.20599951635864" stroke="#FFFFFF" stroke-width="0.5"/><line x1="1589.3812449162697" y1="151.20599951635864" x2="1601.6544591627273" y2="151.20599951635864" stroke="#FFFFFF" stroke-width="0.5"/><line x1="1712.1133873808465" y1="151.20599951635864" x2="1724.3866016273041" y2="151.20599951635864" stroke="#FFFFFF" stroke-width="0.5"/><line x1="1834.8455298454232" y1="151.20599951635864" x2="1847.118744091881" y2="151.20599951635864" stroke="#FFFFFF" stroke-width="0.5"/><line x1="55.22946410905956" y1="257.4920348906822" x2="67.50267835551725" y2="257.4920348906822" stroke="#FFFFFF" stroke-width="0.5"/><line x1="177.96160657363637" y1="257.4920348906822" x2="190.23482082009406" y2="257.4920348906822" stroke="#FFFFFF" stroke-width="0.5"/><line x1="300.6937490382132" y1="257.4920348906822" x2="312.9669632846709" y2="257.4920348906822" stroke="#FFFFFF" stroke-width="0.5"/><line x1="423.42589150279" y1="257.4920348906822" x2="435.6991057492477" y2="257.4920348906822" stroke="#FFFFFF" stroke-width="0.5"/><line x1="546.1580339673668" y1="257.4920348906822" x2="558.4312482138245" y2="257.4920348906822" stroke="#FFFFFF" stroke-width="0.5"/><line x1="668.8901764319436" y1="257.4920348906822" x2="681.1633906784014" y2="257.4920348906822" stroke="#FFFFFF" stroke-width="0.5"/><line x1="791.6223188965205" y1="257.4920348906822" x2="803.8955331429781" y2="257.4920348906822" stroke="#FFFFFF" stroke-width="0.5"/><line x1="914.3544613610973" y1="257.4920348906822" x2="926.6276756075549" y2="257.4920348906822" stroke="#FFFFFF" stroke-width="0.5"/><line x1="1037.086603825674" y1="257.4920348906822" x2="1049.3598180721317" y2="257.4920348906822" stroke="#FFFFFF" stroke-width="0.5"/><line x1="1159.8187462902508" y1="257.4920348906822" x2="1172.0919605367085" y2="257.4920348906822" stroke="#FFFFFF" stroke-width="0.5"/><line x1="1282.5508887548276" y1="257.4920348906822" x2="1294.8241030012853" y2="257.4920348906822" stroke="#FFFFFF" stroke-width="0.5"/><line x1="1405.2830312194044" y1="257.4920348906822" x2="1417.5562454658623" y2="257.4920348906822" stroke="#FFFFFF" stroke-width="0.5"/><line x1="1528.0151736839814" y1="257.4920348906822" x2="1540.288387930439" y2="257.4920348906822" stroke="#FFFFFF" stroke-width="0.5"/><line x1="1650.7473161485582" y1="257.4920348906822" x2="1663.0205303950158" y2="257.4920348906822" stroke="#FFFFFF" stroke-width="0.5"/><line x1="1773.479458613135" y1="257.4920348906822" x2="1785.7526728595926" y2="257.4920348906822" stroke="#FFFFFF" stroke-width="0.5"/><line x1="1896.2116010777117" y1="257.4920348906822" x2="1908.4848153241694" y2="257.4920348906822" stroke="#FFFFFF" stroke-width="0.5"/><line x1="116.59553534134797" y1="363.7780702650057" x2="128.86874958780567" y2="363.7780702650057" stroke="#FFFFFF" stroke-width="0.5"/><line x1="239.3276778059248" y1="363.7780702650057" x2="251.6008920523825" y2="363.7780702650057" stroke="#FFFFFF" stroke-width="0.5"/><line x1="362.05982027050163" y1="363.7780702650057" x2="374.3330345169593" y2="363.7780702650057" stroke="#FFFFFF" stroke-width="0.5"/><line x1="484.7919627350784" y1="363.7780702650057" x2="497.06517698153607" y2="363.7780702650057" stroke="#FFFFFF" stroke-width="0.5"/><line x1="607.5241051996552" y1="363.7780702650057" x2="619.797319446113" y2="363.7780702650057" stroke="#FFFFFF" stroke-width="0.5"/><line x1="730.2562476642321" y1="363.7780702650057" x2="742.5294619106897" y2="363.7780702650057" stroke="#FFFFFF" stroke-width="0.5"/><line x1="852.9883901288089" y1="363.7780702650057" x2="865.2616043752665" y2="363.7780702650057" stroke="#FFFFFF" stroke-width="0.5"/><line x1="975.7205325933857" y1="363.7780702650057" x2="987.9937468398432" y2="363.7780702650057" stroke="#FFFFFF" stroke-width="0.5"/><line x1="1098.4526750579623" y1="363.7780702650057" x2="1110.72588930442" y2="363.7780702650057" stroke="#FFFFFF" stroke-width="0.5"/><line x1="1221.184817522539" y1="363.7780702650057" x2="1233.4580317689968" y2="363.7780702650057" stroke="#FFFFFF" stroke-width="0.5"/><line x1="1343.916959987116" y1="363.7780702650057" x2="1356.1901742335738" y2="363.7780702650057" stroke="#FFFFFF" stroke-width="0.5"/><line x1="1466.649102451693" y1="363.7780702650057" x2="1478.9223166981506" y2="363.7780702650057" stroke="#FFFFFF" stroke-width="0.5"/><line x1="1589.3812449162697" y1="363.7780702650057" x2="1601.6544591627273" y2="363.7780702650057" stroke="#FFFFFF" stroke-width="0.5"/><line x1="1712.1133873808465" y1="363.7780702650057" x2="1724.3866016273041" y2="363.7780702650057" stroke="#FFFFFF" stroke-width="0.5"/><line x1="1834.8455298454232" y1="363.7780702650057" x2="1847.118744091881" y2="363.7780702650057" stroke="#FFFFFF" stroke-width="0.5"/><line x1="55.22946410905956" y1="470.0641056393291" x2="67.50267835551725" y2="470.0641056393291" stroke="#FFFFFF" stroke-width="0.5"/><line x1="177.96160657363637" y1="470.0641056393291" x2="190.23482082009406" y2="470.0641056393291" stroke="#FFFFFF" stroke-width="0.5"/><line x1="300.6937490382132" y1="470.0641056393291" x2="312.9669632846709" y2="470.0641056393291" stroke="#FFFFFF" stroke-width="0.5"/><line x1="423.42589150279" y1="470.0641056393291" x2="435.6991057492477" y2="470.0641056393291" stroke="#FFFFFF" stroke-width="0.5"/><line x1="546.1580339673668" y1="470.0641056393291" x2="558.4312482138245" y2="470.0641056393291" stroke="#FFFFFF" stroke-width="0.5"/><line x1="668.8901764319436" y1="470.0641056393291" x2="681.1633906784014" y2="470.0641056393291" stroke="#FFFFFF" stroke-width="0.5"/><line x1="791.6223188965205" y1="470.0641056393291" x2="803.8955331429781" y2="470.0641056393291" stroke="#FFFFFF" stroke-width="0.5"/><line x1="914.3544613610973" y1="470.0641056393291" x2="926.6276756075549" y2="470.0641056393291" stroke="#FFFFFF" stroke-width="0.5"/><line x1="1037.086603825674" y1="470.0641056393291" x2="1049.3598180721317" y2="470.0641056393291" stroke="#FFFFFF" stroke-width="0.5"/><line x1="1159.8187462902508" y1="470.0641056393291" x2="1172.0919605367085" y2="470.0641056393291" stroke="#FFFFFF" stroke-width="0.5"/><line x1="1282.5508887548276" y1="470.0641056393291" x2="1294.8241030012853" y2="470.0641056393291" stroke="#FFFFFF" stroke-width="0.5"/><line x1="1405.2830312194044" y1="470.0641056393291" x2="1417.5562454658623" y2="470.0641056393291" stroke="#FFFFFF" stroke-width="0.5"/><line x1="1528.0151736839814" y1="470.0641056393291" x2="1540.288387930439" y2="470.0641056393291" stroke="#FFFFFF" stroke-width="0.5"/><line x1="1650.7473161485582" y1="470.0641056393291" x2="1663.0205303950158" y2="470.0641056393291" stroke="#FFFFFF" stroke-width="0.5"/><line x1="1773.479458613135" y1="470.0641056393291" x2="1785.7526728595926" y2="470.0641056393291" stroke="#FFFFFF" stroke-width="0.5"/><line x1="1896.2116010777117" y1="470.0641056393291" x2="1908.4848153241694" y2="470.0641056393291" stroke="#FFFFFF" stroke-width="0.5"/></g><g opacity="0.23529653557822877"><path d="M 1091.0911565139384 364.2875291613338 L 1091.0911565139384 313.3861998220377 L 1024.5668644582531 313.3861998220377" fill="none" stroke="#FFFFFF" stroke-width="1.7297818666462703" stroke-linecap="square"/><path d="M 932.7454380564137 130.0405312190021 L 878.264227252625 130.0405312190021 L 878.264227252625 190.42088091852003 L 947.66330863722 190.42088091852003" fill="none" stroke="#FFFFFF" stroke-width="1.7297818666462703" stroke-linecap="square"/><path d="M 820.9431270607482 451.9163133818266 L 820.9431270607482 480 L 790.2316890282056 480" fill="none" stroke="#FFFFFF" stroke-width="1.7297818666462703" stroke-linecap="square"/><path d="M 1079.8315434715857 24.474792491865713 L 1079.8315434715857 60.82152682755348 L 1132.4649870435096 60.82152682755348" fill="none" stroke="#FFFFFF" stroke-width="1.7297818666462703" stroke-linecap="square"/><path d="M 1914.538880286058 219.27314768511482 L 1914.538880286058 169.01050988661763 L 1858.4057660612477 169.01050988661763" fill="none" stroke="#FFFFFF" stroke-width="1.7297818666462703" stroke-linecap="square"/><path d="M 777.6260880276682 22.165145884344888 L 713.241921256652 22.165145884344888 L 713.241921256652 69.8497540350161" fill="none" stroke="#FFFFFF" stroke-width="1.7297818666462703" stroke-linecap="square"/><path d="M 1831.5483864729986 331.73727050970183 L 1831.5483864729986 299.8976320216147 L 1795.2265500182966 299.8976320216147" fill="none" stroke="#FFFFFF" stroke-width="1.7297818666462703" stroke-linecap="square"/><path d="M 433.51581593673484 223.01088820351796 L 364.78059349078376 223.01088820351796 L 364.78059349078376 192.63305150958487 L 297.41630386067186 192.63305150958487" fill="none" stroke="#FFFFFF" stroke-width="1.7297818666462703" stroke-linecap="square"/><path d="M 292.27844251891526 438.5746910230139 L 219.64013168477766 438.5746910230139 L 219.64013168477766 480" fill="none" stroke="#FFFFFF" stroke-width="1.7297818666462703" stroke-linecap="square"/><path d="M 1368.5904699976513 415.21608371996143 L 1302.9500505550595 415.21608371996143 L 1302.9500505550595 473.2277535143278 L 1256.9714653872632 473.2277535143278" fill="none" stroke="#FFFFFF" stroke-width="1.7297818666462703" stroke-linecap="square"/><path d="M 1401.4649969904985 398.18561572497043 L 1451.123354930189 398.18561572497043 L 1451.123354930189 475.01828340252854" fill="none" stroke="#FFFFFF" stroke-width="1.7297818666462703" stroke-linecap="square"/><path d="M 177.26760872512477 25.44744015924979 L 121.2681964815245 25.44744015924979 L 121.2681964815245 83.71229293822512 L 165.77658591832983 83.71229293822512" fill="none" stroke="#FFFFFF" stroke-width="1.7297818666462703" stroke-linecap="square"/><path d="M 528.5147097187651 177.4582672945495 L 528.5147097187651 123.26309026560462 L 599.4682432813802 123.26309026560462" fill="none" stroke="#FFFFFF" stroke-width="1.7297818666462703" stroke-linecap="square"/><line x1="87.80822757995139" y1="184.1546631716912" x2="383.52504748083885" y2="184.1546631716912" stroke="#FFFFFF" stroke-width="0.5" stroke-dasharray="5,10"/><circle cx="1024.5668644582531" cy="313.3861998220377" r="3.664322138607652" fill="#FFFFFF"/><circle cx="947.66330863722" cy="190.42088091852003" r="3.664322138607652" fill="#FFFFFF"/><circle cx="932.7454380564137" cy="130.0405312190021" r="2.9314577108861215" fill="#FFFFFF"/><rect x="1076.167221332978" y="57.157204688945825" width="7.328644277215304" height="7.328644277215304" fill="#FFFFFF"/><circle cx="1858.4057660612477" cy="169.01050988661763" r="3.664322138607652" fill="#FFFFFF"/><circle cx="1914.538880286058" cy="219.27314768511482" r="2.9314577108861215" fill="#FFFFFF"/><circle cx="713.241921256652" cy="69.8497540350161" r="3.664322138607652" fill="#FFFFFF"/><circle cx="297.41630386067186" cy="192.63305150958487" r="3.664322138607652" fill="#FFFFFF"/><rect x="361.1162713521761" y="219.34656606491032" width="7.328644277215304" height="7.328644277215304" fill="#FFFFFF"/><circle cx="219.64013168477766" cy="480" r="3.664322138607652" fill="#FFFFFF"/><circle cx="1256.9714653872632" cy="473.2277535143278" r="3.664322138607652" fill="#FFFFFF"/><circle cx="1368.5904699976513" cy="415.21608371996143" r="2.9314577108861215" fill="#FFFFFF"/><rect x="1299.2857284164518" y="411.5517615813538" width="7.328644277215304" height="7.328644277215304" fill="#FFFFFF"/><rect x="1299.2857284164518" y="469.56343137572014" width="7.328644277215304" height="7.328644277215304" fill="#FFFFFF"/><circle cx="1451.123354930189" cy="475.01828340252854" r="3.664322138607652" fill="#FFFFFF"/><circle cx="1401.4649969904985" cy="398.18561572497043" r="2.9314577108861215" fill="#FFFFFF"/><rect x="1447.4590327915812" y="394.5212935863628" width="7.328644277215304" height="7.328644277215304" fill="#FFFFFF"/><rect x="117.60387434291684" y="80.04797079961747" width="7.328644277215304" height="7.328644277215304" fill="#FFFFFF"/><circle cx="599.4682432813802" cy="123.26309026560462" r="3.664322138607652" fill="#FFFFFF"/><rect x="524.8503875801574" y="119.59876812699696" width="7.328644277215304" height="7.328644277215304" fill="#FFFFFF"/><circle cx="470.68885825140813" cy="222.55342493883958" r="1.9765944831154294" fill="#FFFFFF"/><circle cx="1624.1562660150958" cy="63.83714678875969" r="1.899701877859064" fill="#FFFFFF"/><circle cx="1055.2077489044555" cy="53.99396898876595" r="6.062364976404154" fill="#FFFFFF"/></g><g opacity="0.3"><rect x="30" y="30" width="1860" height="420" fill="none" stroke="#444444" stroke-width="1" rx="0"/></g><g opacity="0.9026105405774948"><line x1="60" y1="240" x2="140" y2="240" stroke="#888888" stroke-width="1" opacity="0.5"/><line x1="1780" y1="240" x2="1860" y2="240" stroke="#888888" stroke-width="1" opacity="0.5"/><path d="M 30 70 L 30 30 L 70 30" fill="none" stroke="#888888" stroke-width="2" stroke-linecap="square"/><path d="M 1850 30 L 1890 30 L 1890 70" fill="none" stroke="#888888" stroke-width="2" stroke-linecap="square"/><path d="M 30 410 L 30 450 L 70 450" fill="none" stroke="#888888" stroke-width="2" stroke-linecap="square"/><path d="M 1850 450 L 1890 450 L 1890 410" fill="none" stroke="#888888" stroke-width="2" stroke-linecap="square"/></g></svg>