<svg xmlns="http://www.w3.org/2000/svg" width="1024" height="1024" viewBox="0 0 1024 1024"><rect x="0" y="0" width="1024" height="1024" fill="#0D0D0D"/><defs><filter id="symbolic-glow-153504311" x="-50%" y="-50%" width="200%" height="200%"><feGaussianBlur in="SourceGraphic" stdDeviation="1.5870351798772044" result="blur"/><feFlood flood-color="#FFFFFF" flood-opacity="0.5" result="color"/><feComposite in="color" in2="blur" operator="in" result="glow"/><feMerge><feMergeNode in="glow"/><feMergeNode in="SourceGraphic"/></feMerge></filter></defs><g filter="url(#symbolic-glow-153504311)"><rect x="341.25" y="341.25" width="119.75" height="119.75" fill="#FFFFFF"/><rect x="563.00" y="341.25" width="119.75" height="119.75" fill="#FFFFFF"/><rect x="563.00" y="563.00" width="119.75" height="119.75" fill="#FFFFFF"/><rect x="341.25" y="563.00" width="119.75" height="119.75" fill="#FFFFFF"/><rect x="563.00" y="341.25" width="119.75" height="119.75" fill="#FFFFFF"/><rect x="563.00" y="563.00" width="119.75" height="119.75" fill="#FFFFFF"/><rect x="341.25" y="563.00" width="119.75" height="119.75" fill="#FFFFFF"/><rect x="341.25" y="341.25" width="119.75" height="119.75" fill="#FFFFFF"/><rect x="472.08" y="467.65" width="79.83" height="88.70" fill="#FFFFFF"/><rect x="467.65" y="472.08" width="88.70" height="79.83" fill="#FFFFFF"/><rect x="472.08" y="467.65" width="79.83" height="88.70" fill="#FFFFFF"/><rect x="467.65" y="472.08" width="88.70" height="79.83" fill="#FFFFFF"/></g><g opacity="0.7550022007222298"><path d="M 40 100 L 40 40 L 100 40" fill="none" stroke="#FFC125" stroke-width="3" stroke-linecap="square"/><path d="M 924 40 L 984 40 L 984 100" fill="none" stroke="#FFC125" stroke-width="3" stroke-linecap="square"/><path d="M 40 924 L 40 984 L 100 984" fill="none" stroke="#FFC125" stroke-width="3" stroke-linecap="square"/><path d="M 924 984 L 984 984 L 984 924" fill="none" stroke="#FFC125" stroke-width="3" stroke-linecap="square"/></g></svg>