<svg xmlns="http://www.w3.org/2000/svg" width="1024" height="1024" viewBox="0 0 1024 1024"><rect x="0" y="0" width="1024" height="1024" fill="#000000"/><defs><filter id="symbolic-glow-315541535" x="-50%" y="-50%" width="200%" height="200%"><feGaussianBlur in="SourceGraphic" stdDeviation="1.4136486060049611" result="blur"/><feFlood flood-color="#FFFFFF" flood-opacity="0.5" result="color"/><feComposite in="color" in2="blur" operator="in" result="glow"/><feMerge><feMergeNode in="glow"/><feMergeNode in="SourceGraphic"/></feMerge></filter></defs><g filter="url(#symbolic-glow-315541535)"><rect x="344.16" y="361.03" width="335.67" height="105.02" fill="#FFFFFF"/><rect x="557.95" y="344.16" width="105.02" height="335.67" fill="#FFFFFF"/><rect x="344.16" y="557.95" width="335.67" height="105.02" fill="#FFFFFF"/><rect x="361.03" y="344.16" width="105.02" height="335.67" fill="#FFFFFF"/><rect x="350.72" y="557.95" width="322.56" height="105.02" fill="#FFFFFF"/><rect x="361.03" y="350.72" width="105.02" height="322.56" fill="#FFFFFF"/><rect x="350.72" y="361.03" width="322.56" height="105.02" fill="#FFFFFF"/><rect x="557.95" y="350.72" width="105.02" height="322.56" fill="#FFFFFF"/><rect x="480.49" y="308.52" width="63.01" height="406.96" fill="#FFFFFF"/><rect x="308.52" y="480.49" width="406.96" height="63.01" fill="#FFFFFF"/><rect x="480.49" y="308.52" width="63.01" height="406.96" fill="#FFFFFF"/><rect x="308.52" y="480.49" width="406.96" height="63.01" fill="#FFFFFF"/></g><g opacity="0.615015506797943"><path d="M 40 100 L 40 40 L 100 40" fill="none" stroke="#00D486" stroke-width="3" stroke-linecap="square"/><path d="M 924 40 L 984 40 L 984 100" fill="none" stroke="#00D486" stroke-width="3" stroke-linecap="square"/><path d="M 40 924 L 40 984 L 100 984" fill="none" stroke="#00D486" stroke-width="3" stroke-linecap="square"/><path d="M 924 984 L 984 984 L 984 924" fill="none" stroke="#00D486" stroke-width="3" stroke-linecap="square"/></g></svg>