<svg xmlns="http://www.w3.org/2000/svg" width="1024" height="1024" viewBox="0 0 1024 1024"><rect x="0" y="0" width="1024" height="1024" fill="#050510"/><defs><filter id="symbolic-glow-88076829" x="-50%" y="-50%" width="200%" height="200%"><feGaussianBlur in="SourceGraphic" stdDeviation="7.262562039896176" result="blur"/><feFlood flood-color="#FFFFFF" flood-opacity="0.5" result="color"/><feComposite in="color" in2="blur" operator="in" result="glow"/><feMerge><feMergeNode in="glow"/><feMergeNode in="SourceGraphic"/></feMerge></filter></defs><g filter="url(#symbolic-glow-88076829)"><line x1="411.13" y1="411.13" x2="612.87" y2="612.87" stroke="#FFFFFF" stroke-width="39.13" stroke-linecap="square"/><line x1="612.87" y1="411.13" x2="411.13" y2="612.87" stroke="#FFFFFF" stroke-width="39.13" stroke-linecap="square"/><line x1="612.87" y1="612.87" x2="411.13" y2="411.13" stroke="#FFFFFF" stroke-width="39.13" stroke-linecap="square"/><line x1="411.13" y1="612.87" x2="612.87" y2="411.13" stroke="#FFFFFF" stroke-width="39.13" stroke-linecap="square"/><line x1="411.13" y1="612.87" x2="612.87" y2="411.13" stroke="#FFFFFF" stroke-width="39.13" stroke-linecap="square"/><line x1="411.13" y1="411.13" x2="612.87" y2="612.87" stroke="#FFFFFF" stroke-width="39.13" stroke-linecap="square"/><line x1="612.87" y1="411.13" x2="411.13" y2="612.87" stroke="#FFFFFF" stroke-width="39.13" stroke-linecap="square"/><line x1="612.87" y1="612.87" x2="411.13" y2="411.13" stroke="#FFFFFF" stroke-width="39.13" stroke-linecap="square"/><rect x="397.88" y="498.31" width="228.24" height="27.39" fill="#FFFFFF"/><rect x="498.31" y="397.88" width="27.39" height="228.24" fill="#FFFFFF"/><rect x="397.88" y="498.31" width="228.24" height="27.39" fill="#FFFFFF"/><rect x="498.31" y="397.88" width="27.39" height="228.24" fill="#FFFFFF"/></g><g opacity="0.532771170154573"><path d="M 40 100 L 40 40 L 100 40" fill="none" stroke="#3B82F6" stroke-width="3" stroke-linecap="square"/><path d="M 924 40 L 984 40 L 984 100" fill="none" stroke="#3B82F6" stroke-width="3" stroke-linecap="square"/><path d="M 40 924 L 40 984 L 100 984" fill="none" stroke="#3B82F6" stroke-width="3" stroke-linecap="square"/><path d="M 924 984 L 984 984 L 984 924" fill="none" stroke="#3B82F6" stroke-width="3" stroke-linecap="square"/></g></svg>