<svg xmlns="http://www.w3.org/2000/svg" width="1024" height="1024" viewBox="0 0 1024 1024"><rect x="0" y="0" width="1024" height="1024" fill="#050510"/><defs><filter id="symbolic-glow-657868027" x="-50%" y="-50%" width="200%" height="200%"><feGaussianBlur in="SourceGraphic" stdDeviation="2.234554530230609" result="blur"/><feFlood flood-color="#FFFFFF" flood-opacity="0.5" result="color"/><feComposite in="color" in2="blur" operator="in" result="glow"/><feMerge><feMergeNode in="glow"/><feMergeNode in="SourceGraphic"/></feMerge></filter></defs><g filter="url(#symbolic-glow-657868027)"><line x1="411.80" y1="411.80" x2="612.20" y2="612.20" stroke="#FFFFFF" stroke-width="64.78" stroke-linecap="square"/><line x1="612.20" y1="411.80" x2="411.80" y2="612.20" stroke="#FFFFFF" stroke-width="64.78" stroke-linecap="square"/><line x1="612.20" y1="612.20" x2="411.80" y2="411.80" stroke="#FFFFFF" stroke-width="64.78" stroke-linecap="square"/><line x1="411.80" y1="612.20" x2="612.20" y2="411.80" stroke="#FFFFFF" stroke-width="64.78" stroke-linecap="square"/><line x1="411.80" y1="612.20" x2="612.20" y2="411.80" stroke="#FFFFFF" stroke-width="64.78" stroke-linecap="square"/><line x1="411.80" y1="411.80" x2="612.20" y2="612.20" stroke="#FFFFFF" stroke-width="64.78" stroke-linecap="square"/><line x1="612.20" y1="411.80" x2="411.80" y2="612.20" stroke="#FFFFFF" stroke-width="64.78" stroke-linecap="square"/><line x1="612.20" y1="612.20" x2="411.80" y2="411.80" stroke="#FFFFFF" stroke-width="64.78" stroke-linecap="square"/><rect x="398.64" y="489.33" width="226.72" height="45.34" fill="#FFFFFF"/><rect x="489.33" y="398.64" width="45.34" height="226.72" fill="#FFFFFF"/><rect x="398.64" y="489.33" width="226.72" height="45.34" fill="#FFFFFF"/><rect x="489.33" y="398.64" width="45.34" height="226.72" fill="#FFFFFF"/></g><g opacity="0.585218012372599"><path d="M 40 100 L 40 40 L 100 40" fill="none" stroke="#3B82F6" stroke-width="3" stroke-linecap="square"/><path d="M 924 40 L 984 40 L 984 100" fill="none" stroke="#3B82F6" stroke-width="3" stroke-linecap="square"/><path d="M 40 924 L 40 984 L 100 984" fill="none" stroke="#3B82F6" stroke-width="3" stroke-linecap="square"/><path d="M 924 984 L 984 984 L 984 924" fill="none" stroke="#3B82F6" stroke-width="3" stroke-linecap="square"/></g></svg>