<svg xmlns="http://www.w3.org/2000/svg" width="1024" height="1024" viewBox="0 0 1024 1024"><rect x="0" y="0" width="1024" height="1024" fill="#050510"/><defs><filter id="symbolic-glow-56264638" x="-50%" y="-50%" width="200%" height="200%"><feGaussianBlur in="SourceGraphic" stdDeviation="3.281594516374913" result="blur"/><feFlood flood-color="#FFFFFF" flood-opacity="0.5" result="color"/><feComposite in="color" in2="blur" operator="in" result="glow"/><feMerge><feMergeNode in="glow"/><feMergeNode in="SourceGraphic"/></feMerge></filter></defs><g filter="url(#symbolic-glow-56264638)"><rect x="303.14" y="201.70" width="417.72" height="63.65" fill="#FFFFFF"/><rect x="758.65" y="303.14" width="63.65" height="417.72" fill="#FFFFFF"/><rect x="303.14" y="758.65" width="417.72" height="63.65" fill="#FFFFFF"/><rect x="201.70" y="303.14" width="63.65" height="417.72" fill="#FFFFFF"/><rect x="303.14" y="758.65" width="417.72" height="63.65" fill="#FFFFFF"/><rect x="201.70" y="303.14" width="63.65" height="417.72" fill="#FFFFFF"/><rect x="303.14" y="201.70" width="417.72" height="63.65" fill="#FFFFFF"/><rect x="758.65" y="303.14" width="63.65" height="417.72" fill="#FFFFFF"/><rect x="271.32" y="436.09" width="63.65" height="151.82" fill="#FFFFFF"/><rect x="436.09" y="271.32" width="151.82" height="63.65" fill="#FFFFFF"/><rect x="689.03" y="436.09" width="63.65" height="151.82" fill="#FFFFFF"/><rect x="436.09" y="689.03" width="151.82" height="63.65" fill="#FFFFFF"/></g><g opacity="0.8908284308346122"><path d="M 40 100 L 40 40 L 100 40" fill="none" stroke="#3B82F6" stroke-width="3" stroke-linecap="square"/><path d="M 924 40 L 984 40 L 984 100" fill="none" stroke="#3B82F6" stroke-width="3" stroke-linecap="square"/><path d="M 40 924 L 40 984 L 100 984" fill="none" stroke="#3B82F6" stroke-width="3" stroke-linecap="square"/><path d="M 924 984 L 984 984 L 984 924" fill="none" stroke="#3B82F6" stroke-width="3" stroke-linecap="square"/></g></svg>