<svg xmlns="http://www.w3.org/2000/svg" width="1024" height="1024" viewBox="0 0 1024 1024"><rect x="0" y="0" width="1024" height="1024" fill="#050510"/><defs><filter id="symbolic-glow-477892040" x="-50%" y="-50%" width="200%" height="200%"><feGaussianBlur in="SourceGraphic" stdDeviation="1.8788843163656466" result="blur"/><feFlood flood-color="#FFFFFF" flood-opacity="0.5" result="color"/><feComposite in="color" in2="blur" operator="in" result="glow"/><feMerge><feMergeNode in="glow"/><feMergeNode in="SourceGraphic"/></feMerge></filter></defs><g filter="url(#symbolic-glow-477892040)"><rect x="296.78" y="175.85" width="430.43" height="98.38" fill="#FFFFFF"/><rect x="749.76" y="296.78" width="98.38" height="430.43" fill="#FFFFFF"/><rect x="296.78" y="749.76" width="430.43" height="98.38" fill="#FFFFFF"/><rect x="175.85" y="296.78" width="98.38" height="430.43" fill="#FFFFFF"/><rect x="296.78" y="749.76" width="430.43" height="98.38" fill="#FFFFFF"/><rect x="175.85" y="296.78" width="98.38" height="430.43" fill="#FFFFFF"/><rect x="296.78" y="175.85" width="430.43" height="98.38" fill="#FFFFFF"/><rect x="749.76" y="296.78" width="98.38" height="430.43" fill="#FFFFFF"/><rect x="247.59" y="420.24" width="98.38" height="183.51" fill="#FFFFFF"/><rect x="420.24" y="247.59" width="183.51" height="98.38" fill="#FFFFFF"/><rect x="678.02" y="420.24" width="98.38" height="183.51" fill="#FFFFFF"/><rect x="420.24" y="678.02" width="183.51" height="98.38" fill="#FFFFFF"/></g><g opacity="0.7146275640533434"><path d="M 40 100 L 40 40 L 100 40" fill="none" stroke="#3B82F6" stroke-width="3" stroke-linecap="square"/><path d="M 924 40 L 984 40 L 984 100" fill="none" stroke="#3B82F6" stroke-width="3" stroke-linecap="square"/><path d="M 40 924 L 40 984 L 100 984" fill="none" stroke="#3B82F6" stroke-width="3" stroke-linecap="square"/><path d="M 924 984 L 984 984 L 984 924" fill="none" stroke="#3B82F6" stroke-width="3" stroke-linecap="square"/></g></svg>