<svg xmlns="http://www.w3.org/2000/svg" width="1024" height="1024" viewBox="0 0 1024 1024"><rect x="0" y="0" width="1024" height="1024" fill="#0D0D0D"/><defs><filter id="symbolic-glow-584026336" x="-50%" y="-50%" width="200%" height="200%"><feGaussianBlur in="SourceGraphic" stdDeviation="2.132629633942912" result="blur"/><feFlood flood-color="#FFFFFF" flood-opacity="0.5" result="color"/><feComposite in="color" in2="blur" operator="in" result="glow"/><feMerge><feMergeNode in="glow"/><feMergeNode in="SourceGraphic"/></feMerge></filter></defs><g filter="url(#symbolic-glow-584026336)"><rect x="365.85" y="365.85" width="77.37" height="77.37" fill="#FFFFFF"/><rect x="580.78" y="365.85" width="77.37" height="77.37" fill="#FFFFFF"/><rect x="593.67" y="361.55" width="51.58" height="85.97" fill="#FFFFFF"/><rect x="378.75" y="361.55" width="51.58" height="85.97" fill="#FFFFFF"/><rect x="365.85" y="473.31" width="77.37" height="77.37" fill="#FFFFFF"/><rect x="580.78" y="473.31" width="77.37" height="77.37" fill="#FFFFFF"/><rect x="473.31" y="473.31" width="77.37" height="77.37" fill="#FFFFFF"/><rect x="365.85" y="580.78" width="77.37" height="77.37" fill="#FFFFFF"/><rect x="580.78" y="580.78" width="77.37" height="77.37" fill="#FFFFFF"/></g><g opacity="0.9096860887527867"><path d="M 40 100 L 40 40 L 100 40" fill="none" stroke="#FFC125" stroke-width="3" stroke-linecap="square"/><path d="M 924 40 L 984 40 L 984 100" fill="none" stroke="#FFC125" stroke-width="3" stroke-linecap="square"/><path d="M 40 924 L 40 984 L 100 984" fill="none" stroke="#FFC125" stroke-width="3" stroke-linecap="square"/><path d="M 924 984 L 984 984 L 984 924" fill="none" stroke="#FFC125" stroke-width="3" stroke-linecap="square"/></g></svg>