<svg xmlns="http://www.w3.org/2000/svg" width="1024" height="1024" viewBox="0 0 1024 1024"><rect x="0" y="0" width="1024" height="1024" fill="#0D0D0D"/><defs><filter id="symbolic-glow-731876968" x="-50%" y="-50%" width="200%" height="200%"><feGaussianBlur in="SourceGraphic" stdDeviation="2.972278596354778" result="blur"/><feFlood flood-color="#FFFFFF" flood-opacity="0.5" result="color"/><feComposite in="color" in2="blur" operator="in" result="glow"/><feMerge><feMergeNode in="glow"/><feMergeNode in="SourceGraphic"/></feMerge></filter></defs><g filter="url(#symbolic-glow-731876968)"><rect x="380.59" y="363.64" width="50.87" height="84.78" fill="#FFFFFF"/><rect x="592.54" y="363.64" width="50.87" height="84.78" fill="#FFFFFF"/><rect x="579.82" y="367.88" width="76.30" height="76.30" fill="#FFFFFF"/><rect x="367.88" y="367.88" width="76.30" height="76.30" fill="#FFFFFF"/><rect x="367.88" y="473.85" width="76.30" height="76.30" fill="#FFFFFF"/><rect x="579.82" y="473.85" width="76.30" height="76.30" fill="#FFFFFF"/><rect x="473.85" y="473.85" width="76.30" height="76.30" fill="#FFFFFF"/><rect x="579.82" y="473.85" width="76.30" height="76.30" fill="#FFFFFF"/><rect x="367.88" y="473.85" width="76.30" height="76.30" fill="#FFFFFF"/></g><g opacity="0.8028576375464246"><path d="M 40 100 L 40 40 L 100 40" fill="none" stroke="#FFC125" stroke-width="3" stroke-linecap="square"/><path d="M 924 40 L 984 40 L 984 100" fill="none" stroke="#FFC125" stroke-width="3" stroke-linecap="square"/><path d="M 40 924 L 40 984 L 100 984" fill="none" stroke="#FFC125" stroke-width="3" stroke-linecap="square"/><path d="M 924 984 L 984 984 L 984 924" fill="none" stroke="#FFC125" stroke-width="3" stroke-linecap="square"/></g></svg>