<svg xmlns="http://www.w3.org/2000/svg" width="1024" height="1024" viewBox="0 0 1024 1024"><rect x="0" y="0" width="1024" height="1024" fill="#050510"/><defs><filter id="symbolic-glow-488192796" x="-50%" y="-50%" width="200%" height="200%"><feGaussianBlur in="SourceGraphic" stdDeviation="3.130589486626252" result="blur"/><feFlood flood-color="#FFFFFF" flood-opacity="0.5" result="color"/><feComposite in="color" in2="blur" operator="in" result="glow"/><feMerge><feMergeNode in="glow"/><feMergeNode in="SourceGraphic"/></feMerge></filter></defs><g filter="url(#symbolic-glow-488192796)"><rect x="385.84" y="357.61" width="31.76" height="88.23" fill="#FFFFFF"/><rect x="606.40" y="357.61" width="31.76" height="88.23" fill="#FFFFFF"/><rect x="467.89" y="385.84" width="88.23" height="31.76" fill="#FFFFFF"/><rect x="606.40" y="357.61" width="31.76" height="88.23" fill="#FFFFFF"/><rect x="385.84" y="357.61" width="31.76" height="88.23" fill="#FFFFFF"/><rect x="488.18" y="488.18" width="47.64" height="47.64" fill="#FFFFFF"/><rect x="578.17" y="496.12" width="88.23" height="31.76" fill="#FFFFFF"/><rect x="357.61" y="496.12" width="88.23" height="31.76" fill="#FFFFFF"/></g><g opacity="0.9187575729651178"><path d="M 40 100 L 40 40 L 100 40" fill="none" stroke="#3B82F6" stroke-width="3" stroke-linecap="square"/><path d="M 924 40 L 984 40 L 984 100" fill="none" stroke="#3B82F6" stroke-width="3" stroke-linecap="square"/><path d="M 40 924 L 40 984 L 100 984" fill="none" stroke="#3B82F6" stroke-width="3" stroke-linecap="square"/><path d="M 924 984 L 984 984 L 984 924" fill="none" stroke="#3B82F6" stroke-width="3" stroke-linecap="square"/></g></svg>