<svg xmlns="http://www.w3.org/2000/svg" width="1024" height="1024" viewBox="0 0 1024 1024"><rect x="0" y="0" width="1024" height="1024" fill="#000000"/><defs><filter id="symbolic-glow-565487771" x="-50%" y="-50%" width="200%" height="200%"><feGaussianBlur in="SourceGraphic" stdDeviation="0.9786951546458039" result="blur"/><feFlood flood-color="#FFFFFF" flood-opacity="0.5" result="color"/><feComposite in="color" in2="blur" operator="in" result="glow"/><feMerge><feMergeNode in="glow"/><feMergeNode in="SourceGraphic"/></feMerge></filter></defs><g filter="url(#symbolic-glow-565487771)"><rect x="337.22" y="459.57" width="349.56" height="104.87" fill="#FFFFFF"/><rect x="459.57" y="337.22" width="104.87" height="349.56" fill="#FFFFFF"/><rect x="337.22" y="459.57" width="349.56" height="104.87" fill="#FFFFFF"/><rect x="459.57" y="337.22" width="104.87" height="349.56" fill="#FFFFFF"/><rect x="459.57" y="337.22" width="104.87" height="349.56" fill="#FFFFFF"/><rect x="337.22" y="459.57" width="349.56" height="104.87" fill="#FFFFFF"/><rect x="459.57" y="337.22" width="104.87" height="349.56" fill="#FFFFFF"/><rect x="337.22" y="459.57" width="349.56" height="104.87" fill="#FFFFFF"/><rect x="293.53" y="293.53" width="157.30" height="157.30" fill="#FFFFFF"/><rect x="573.17" y="293.53" width="157.30" height="157.30" fill="#FFFFFF"/><rect x="573.17" y="573.17" width="157.30" height="157.30" fill="#FFFFFF"/><rect x="293.53" y="573.17" width="157.30" height="157.30" fill="#FFFFFF"/></g><g opacity="0.501178145409179"><path d="M 40 100 L 40 40 L 100 40" fill="none" stroke="#00D486" stroke-width="3" stroke-linecap="square"/><path d="M 924 40 L 984 40 L 984 100" fill="none" stroke="#00D486" stroke-width="3" stroke-linecap="square"/><path d="M 40 924 L 40 984 L 100 984" fill="none" stroke="#00D486" stroke-width="3" stroke-linecap="square"/><path d="M 924 984 L 984 984 L 984 924" fill="none" stroke="#00D486" stroke-width="3" stroke-linecap="square"/></g></svg>