<svg xmlns="http://www.w3.org/2000/svg" width="1024" height="1024" viewBox="0 0 1024 1024"><rect x="0" y="0" width="1024" height="1024" fill="#050510"/><defs><filter id="symbolic-glow-32857537" x="-50%" y="-50%" width="200%" height="200%"><feGaussianBlur in="SourceGraphic" stdDeviation="7.924761775846018" result="blur"/><feFlood flood-color="#FFFFFF" flood-opacity="0.5" result="color"/><feComposite in="color" in2="blur" operator="in" result="glow"/><feMerge><feMergeNode in="glow"/><feMergeNode in="SourceGraphic"/></feMerge></filter></defs><g filter="url(#symbolic-glow-32857537)"><rect x="284.80" y="174.45" width="454.40" height="69.24" fill="#FFFFFF"/><rect x="780.31" y="284.80" width="69.24" height="454.40" fill="#FFFFFF"/><rect x="284.80" y="780.31" width="454.40" height="69.24" fill="#FFFFFF"/><rect x="174.45" y="284.80" width="69.24" height="454.40" fill="#FFFFFF"/><rect x="284.80" y="780.31" width="454.40" height="69.24" fill="#FFFFFF"/><rect x="174.45" y="284.80" width="69.24" height="454.40" fill="#FFFFFF"/><rect x="284.80" y="174.45" width="454.40" height="69.24" fill="#FFFFFF"/><rect x="780.31" y="284.80" width="69.24" height="454.40" fill="#FFFFFF"/><rect x="250.18" y="388.14" width="69.24" height="247.73" fill="#FFFFFF"/><rect x="388.14" y="250.18" width="247.73" height="69.24" fill="#FFFFFF"/><rect x="704.58" y="388.14" width="69.24" height="247.73" fill="#FFFFFF"/><rect x="388.14" y="704.58" width="247.73" height="69.24" fill="#FFFFFF"/></g><g opacity="0.5157108455969537"><path d="M 40 100 L 40 40 L 100 40" fill="none" stroke="#3B82F6" stroke-width="3" stroke-linecap="square"/><path d="M 924 40 L 984 40 L 984 100" fill="none" stroke="#3B82F6" stroke-width="3" stroke-linecap="square"/><path d="M 40 924 L 40 984 L 100 984" fill="none" stroke="#3B82F6" stroke-width="3" stroke-linecap="square"/><path d="M 924 984 L 984 984 L 984 924" fill="none" stroke="#3B82F6" stroke-width="3" stroke-linecap="square"/></g></svg>