<svg xmlns="http://www.w3.org/2000/svg" width="1024" height="1024" viewBox="0 0 1024 1024"><rect x="0" y="0" width="1024" height="1024" fill="#000000"/><defs><filter id="symbolic-glow-189722120" x="-50%" y="-50%" width="200%" height="200%"><feGaussianBlur in="SourceGraphic" stdDeviation="2.627197266848384" result="blur"/><feFlood flood-color="#FFFFFF" flood-opacity="0.5" result="color"/><feComposite in="color" in2="blur" operator="in" result="glow"/><feMerge><feMergeNode in="glow"/><feMergeNode in="SourceGraphic"/></feMerge></filter></defs><g filter="url(#symbolic-glow-189722120)"><rect x="279.34" y="148.60" width="465.33" height="106.36" fill="#FFFFFF"/><rect x="769.04" y="279.34" width="106.36" height="465.33" fill="#FFFFFF"/><rect x="279.34" y="769.04" width="465.33" height="106.36" fill="#FFFFFF"/><rect x="148.60" y="279.34" width="106.36" height="465.33" fill="#FFFFFF"/><rect x="279.34" y="769.04" width="465.33" height="106.36" fill="#FFFFFF"/><rect x="148.60" y="279.34" width="106.36" height="465.33" fill="#FFFFFF"/><rect x="279.34" y="148.60" width="465.33" height="106.36" fill="#FFFFFF"/><rect x="769.04" y="279.34" width="106.36" height="465.33" fill="#FFFFFF"/><rect x="226.16" y="374.21" width="106.36" height="275.57" fill="#FFFFFF"/><rect x="374.21" y="226.16" width="275.57" height="106.36" fill="#FFFFFF"/><rect x="691.48" y="374.21" width="106.36" height="275.57" fill="#FFFFFF"/><rect x="374.21" y="691.48" width="275.57" height="106.36" fill="#FFFFFF"/></g><g opacity="0.7225942612730871"><path d="M 40 100 L 40 40 L 100 40" fill="none" stroke="#00D486" stroke-width="3" stroke-linecap="square"/><path d="M 924 40 L 984 40 L 984 100" fill="none" stroke="#00D486" stroke-width="3" stroke-linecap="square"/><path d="M 40 924 L 40 984 L 100 984" fill="none" stroke="#00D486" stroke-width="3" stroke-linecap="square"/><path d="M 924 984 L 984 984 L 984 924" fill="none" stroke="#00D486" stroke-width="3" stroke-linecap="square"/></g></svg>