<svg xmlns="http://www.w3.org/2000/svg" width="1024" height="1024" viewBox="0 0 1024 1024"><rect x="0" y="0" width="1024" height="1024" fill="#000000"/><defs><filter id="symbolic-glow-812267303" x="-50%" y="-50%" width="200%" height="200%"><feGaussianBlur in="SourceGraphic" stdDeviation="2.949671746673841" result="blur"/><feFlood flood-color="#FFFFFF" flood-opacity="0.5" result="color"/><feComposite in="color" in2="blur" operator="in" result="glow"/><feMerge><feMergeNode in="glow"/><feMergeNode in="SourceGraphic"/></feMerge></filter></defs><g filter="url(#symbolic-glow-812267303)"><rect x="288.39" y="162.75" width="447.21" height="102.22" fill="#FFFFFF"/><rect x="759.03" y="288.39" width="102.22" height="447.21" fill="#FFFFFF"/><rect x="288.39" y="759.03" width="447.21" height="102.22" fill="#FFFFFF"/><rect x="162.75" y="288.39" width="102.22" height="447.21" fill="#FFFFFF"/><rect x="288.39" y="759.03" width="447.21" height="102.22" fill="#FFFFFF"/><rect x="162.75" y="288.39" width="102.22" height="447.21" fill="#FFFFFF"/><rect x="288.39" y="162.75" width="447.21" height="102.22" fill="#FFFFFF"/><rect x="759.03" y="288.39" width="102.22" height="447.21" fill="#FFFFFF"/><rect x="237.28" y="419.84" width="102.22" height="184.32" fill="#FFFFFF"/><rect x="419.84" y="237.28" width="184.32" height="102.22" fill="#FFFFFF"/><rect x="684.50" y="419.84" width="102.22" height="184.32" fill="#FFFFFF"/><rect x="419.84" y="684.50" width="184.32" height="102.22" fill="#FFFFFF"/></g><g opacity="0.956118583891596"><path d="M 40 100 L 40 40 L 100 40" fill="none" stroke="#888888" stroke-width="3" stroke-linecap="square"/><path d="M 924 40 L 984 40 L 984 100" fill="none" stroke="#888888" stroke-width="3" stroke-linecap="square"/><path d="M 40 924 L 40 984 L 100 984" fill="none" stroke="#888888" stroke-width="3" stroke-linecap="square"/><path d="M 924 984 L 984 984 L 984 924" fill="none" stroke="#888888" stroke-width="3" stroke-linecap="square"/></g></svg>