<svg xmlns="http://www.w3.org/2000/svg" width="1024" height="1024" viewBox="0 0 1024 1024"><rect x="0" y="0" width="1024" height="1024" fill="#000000"/><defs><filter id="symbolic-glow-723688006" x="-50%" y="-50%" width="200%" height="200%"><feGaussianBlur in="SourceGraphic" stdDeviation="3.253325702274836" result="blur"/><feFlood flood-color="#FFFFFF" flood-opacity="0.5" result="color"/><feComposite in="color" in2="blur" operator="in" result="glow"/><feMerge><feMergeNode in="glow"/><feMergeNode in="SourceGraphic"/></feMerge></filter></defs><g filter="url(#symbolic-glow-723688006)"><line x1="407.34" y1="407.34" x2="616.66" y2="616.66" stroke="#FFFFFF" stroke-width="67.67" stroke-linecap="square"/><line x1="616.66" y1="407.34" x2="407.34" y2="616.66" stroke="#FFFFFF" stroke-width="67.67" stroke-linecap="square"/><line x1="616.66" y1="616.66" x2="407.34" y2="407.34" stroke="#FFFFFF" stroke-width="67.67" stroke-linecap="square"/><line x1="407.34" y1="616.66" x2="616.66" y2="407.34" stroke="#FFFFFF" stroke-width="67.67" stroke-linecap="square"/><line x1="407.34" y1="616.66" x2="616.66" y2="407.34" stroke="#FFFFFF" stroke-width="67.67" stroke-linecap="square"/><line x1="407.34" y1="407.34" x2="616.66" y2="616.66" stroke="#FFFFFF" stroke-width="67.67" stroke-linecap="square"/><line x1="616.66" y1="407.34" x2="407.34" y2="616.66" stroke="#FFFFFF" stroke-width="67.67" stroke-linecap="square"/><line x1="616.66" y1="616.66" x2="407.34" y2="407.34" stroke="#FFFFFF" stroke-width="67.67" stroke-linecap="square"/><rect x="393.59" y="488.32" width="236.83" height="47.37" fill="#FFFFFF"/><rect x="488.32" y="393.59" width="47.37" height="236.83" fill="#FFFFFF"/><rect x="393.59" y="488.32" width="236.83" height="47.37" fill="#FFFFFF"/><rect x="488.32" y="393.59" width="47.37" height="236.83" fill="#FFFFFF"/></g><g opacity="0.5667063724560227"><path d="M 40 100 L 40 40 L 100 40" fill="none" stroke="#00D486" stroke-width="3" stroke-linecap="square"/><path d="M 924 40 L 984 40 L 984 100" fill="none" stroke="#00D486" stroke-width="3" stroke-linecap="square"/><path d="M 40 924 L 40 984 L 100 984" fill="none" stroke="#00D486" stroke-width="3" stroke-linecap="square"/><path d="M 924 984 L 984 984 L 984 924" fill="none" stroke="#00D486" stroke-width="3" stroke-linecap="square"/></g></svg>