<svg xmlns="http://www.w3.org/2000/svg" width="1024" height="1024" viewBox="0 0 1024 1024"><rect x="0" y="0" width="1024" height="1024" fill="#050510"/><defs><filter id="symbolic-glow-331760883" x="-50%" y="-50%" width="200%" height="200%"><feGaussianBlur in="SourceGraphic" stdDeviation="6.3944005995962785" result="blur"/><feFlood flood-color="#FFFFFF" flood-opacity="0.5" result="color"/><feComposite in="color" in2="blur" operator="in" result="glow"/><feMerge><feMergeNode in="glow"/><feMergeNode in="SourceGraphic"/></feMerge></filter></defs><g filter="url(#symbolic-glow-331760883)"><rect x="348.38" y="492.37" width="327.25" height="39.27" fill="#FFFFFF"/><rect x="492.37" y="348.38" width="39.27" height="327.25" fill="#FFFFFF"/><rect x="348.38" y="492.37" width="327.25" height="39.27" fill="#FFFFFF"/><rect x="492.37" y="348.38" width="39.27" height="327.25" fill="#FFFFFF"/><rect x="492.37" y="348.38" width="39.27" height="327.25" fill="#FFFFFF"/><rect x="348.38" y="492.37" width="327.25" height="39.27" fill="#FFFFFF"/><rect x="492.37" y="348.38" width="39.27" height="327.25" fill="#FFFFFF"/><rect x="348.38" y="492.37" width="327.25" height="39.27" fill="#FFFFFF"/></g><g opacity="0.7669184358170807"><path d="M 40 100 L 40 40 L 100 40" fill="none" stroke="#3B82F6" stroke-width="3" stroke-linecap="square"/><path d="M 924 40 L 984 40 L 984 100" fill="none" stroke="#3B82F6" stroke-width="3" stroke-linecap="square"/><path d="M 40 924 L 40 984 L 100 984" fill="none" stroke="#3B82F6" stroke-width="3" stroke-linecap="square"/><path d="M 924 984 L 984 984 L 984 924" fill="none" stroke="#3B82F6" stroke-width="3" stroke-linecap="square"/></g></svg>