<svg xmlns="http://www.w3.org/2000/svg" width="1024" height="1024" viewBox="0 0 1024 1024"><rect x="0" y="0" width="1024" height="1024" fill="#000000"/><defs><filter id="symbolic-glow-594327240" x="-50%" y="-50%" width="200%" height="200%"><feGaussianBlur in="SourceGraphic" stdDeviation="4.1692833919866406" result="blur"/><feFlood flood-color="#FFFFFF" flood-opacity="0.5" result="color"/><feComposite in="color" in2="blur" operator="in" result="glow"/><feMerge><feMergeNode in="glow"/><feMergeNode in="SourceGraphic"/></feMerge></filter></defs><g filter="url(#symbolic-glow-594327240)"><rect x="387.18" y="359.24" width="31.42" height="87.29" fill="#FFFFFF"/><rect x="605.40" y="359.24" width="31.42" height="87.29" fill="#FFFFFF"/><rect x="597.54" y="379.32" width="47.14" height="47.14" fill="#FFFFFF"/><rect x="379.32" y="379.32" width="47.14" height="47.14" fill="#FFFFFF"/><rect x="496.29" y="468.36" width="31.42" height="87.29" fill="#FFFFFF"/><rect x="577.47" y="496.29" width="87.29" height="31.42" fill="#FFFFFF"/><rect x="359.24" y="496.29" width="87.29" height="31.42" fill="#FFFFFF"/><rect x="379.32" y="597.54" width="47.14" height="47.14" fill="#FFFFFF"/><rect x="597.54" y="597.54" width="47.14" height="47.14" fill="#FFFFFF"/></g><g opacity="0.5126333534776388"><path d="M 40 100 L 40 40 L 100 40" fill="none" stroke="#00D486" stroke-width="3" stroke-linecap="square"/><path d="M 924 40 L 984 40 L 984 100" fill="none" stroke="#00D486" stroke-width="3" stroke-linecap="square"/><path d="M 40 924 L 40 984 L 100 984" fill="none" stroke="#00D486" stroke-width="3" stroke-linecap="square"/><path d="M 924 984 L 984 984 L 984 924" fill="none" stroke="#00D486" stroke-width="3" stroke-linecap="square"/></g></svg>