<svg xmlns="http://www.w3.org/2000/svg" width="1024" height="1024" viewBox="0 0 1024 1024"><rect x="0" y="0" width="1024" height="1024" fill="#0D0D0D"/><defs><filter id="symbolic-glow-206571459" x="-50%" y="-50%" width="200%" height="200%"><feGaussianBlur in="SourceGraphic" stdDeviation="3.3531188980457927" result="blur"/><feFlood flood-color="#FFFFFF" flood-opacity="0.5" result="color"/><feComposite in="color" in2="blur" operator="in" result="glow"/><feMerge><feMergeNode in="glow"/><feMergeNode in="SourceGraphic"/></feMerge></filter></defs><g filter="url(#symbolic-glow-206571459)"><rect x="321.07" y="424.45" width="381.86" height="41.81" fill="#FFFFFF"/><rect x="557.73" y="321.07" width="41.81" height="381.86" fill="#FFFFFF"/><rect x="321.07" y="557.73" width="381.86" height="41.81" fill="#FFFFFF"/><rect x="424.45" y="321.07" width="41.81" height="381.86" fill="#FFFFFF"/><rect x="304.62" y="557.73" width="414.76" height="41.81" fill="#FFFFFF"/><rect x="424.45" y="304.62" width="41.81" height="414.76" fill="#FFFFFF"/><rect x="304.62" y="424.45" width="414.76" height="41.81" fill="#FFFFFF"/><rect x="557.73" y="304.62" width="41.81" height="414.76" fill="#FFFFFF"/><rect x="499.46" y="403.54" width="25.09" height="216.91" fill="#FFFFFF"/><rect x="403.54" y="499.46" width="216.91" height="25.09" fill="#FFFFFF"/><rect x="499.46" y="403.54" width="25.09" height="216.91" fill="#FFFFFF"/><rect x="403.54" y="499.46" width="216.91" height="25.09" fill="#FFFFFF"/></g><g opacity="0.6025314629555361"><path d="M 40 100 L 40 40 L 100 40" fill="none" stroke="#FFC125" stroke-width="3" stroke-linecap="square"/><path d="M 924 40 L 984 40 L 984 100" fill="none" stroke="#FFC125" stroke-width="3" stroke-linecap="square"/><path d="M 40 924 L 40 984 L 100 984" fill="none" stroke="#FFC125" stroke-width="3" stroke-linecap="square"/><path d="M 924 984 L 984 984 L 984 924" fill="none" stroke="#FFC125" stroke-width="3" stroke-linecap="square"/></g></svg>