<svg xmlns="http://www.w3.org/2000/svg" width="1024" height="1024" viewBox="0 0 1024 1024"><rect x="0" y="0" width="1024" height="1024" fill="#0D0D0D"/><defs><filter id="symbolic-glow-118527889" x="-50%" y="-50%" width="200%" height="200%"><feGaussianBlur in="SourceGraphic" stdDeviation="7.935127261995864" result="blur"/><feFlood flood-color="#FFFFFF" flood-opacity="0.5" result="color"/><feComposite in="color" in2="blur" operator="in" result="glow"/><feMerge><feMergeNode in="glow"/><feMergeNode in="SourceGraphic"/></feMerge></filter></defs><g filter="url(#symbolic-glow-118527889)"><rect x="339.03" y="477.41" width="345.95" height="69.19" fill="#FFFFFF"/><rect x="477.41" y="339.03" width="69.19" height="345.95" fill="#FFFFFF"/><rect x="339.03" y="477.41" width="345.95" height="69.19" fill="#FFFFFF"/><rect x="477.41" y="339.03" width="69.19" height="345.95" fill="#FFFFFF"/><rect x="477.41" y="339.03" width="69.19" height="345.95" fill="#FFFFFF"/><rect x="339.03" y="477.41" width="345.95" height="69.19" fill="#FFFFFF"/><rect x="477.41" y="339.03" width="69.19" height="345.95" fill="#FFFFFF"/><rect x="339.03" y="477.41" width="345.95" height="69.19" fill="#FFFFFF"/></g><g opacity="0.6019465476749216"><path d="M 40 100 L 40 40 L 100 40" fill="none" stroke="#FFC125" stroke-width="3" stroke-linecap="square"/><path d="M 924 40 L 984 40 L 984 100" fill="none" stroke="#FFC125" stroke-width="3" stroke-linecap="square"/><path d="M 40 924 L 40 984 L 100 984" fill="none" stroke="#FFC125" stroke-width="3" stroke-linecap="square"/><path d="M 924 984 L 984 984 L 984 924" fill="none" stroke="#FFC125" stroke-width="3" stroke-linecap="square"/></g></svg>