<svg xmlns="http://www.w3.org/2000/svg" width="1024" height="1024" viewBox="0 0 1024 1024"><rect x="0" y="0" width="1024" height="1024" fill="#000000"/><defs><filter id="symbolic-glow-316630989" x="-50%" y="-50%" width="200%" height="200%"><feGaussianBlur in="SourceGraphic" stdDeviation="5.157290699499329" result="blur"/><feFlood flood-color="#FFFFFF" flood-opacity="0.5" result="color"/><feComposite in="color" in2="blur" operator="in" result="glow"/><feMerge><feMergeNode in="glow"/><feMergeNode in="SourceGraphic"/></feMerge></filter></defs><g filter="url(#symbolic-glow-316630989)"><rect x="356.38" y="384.83" width="88.93" height="32.01" fill="#FFFFFF"/><rect x="578.70" y="384.83" width="88.93" height="32.01" fill="#FFFFFF"/><rect x="599.15" y="376.83" width="48.02" height="48.02" fill="#FFFFFF"/><rect x="376.83" y="376.83" width="48.02" height="48.02" fill="#FFFFFF"/><rect x="376.83" y="487.99" width="48.02" height="48.02" fill="#FFFFFF"/><rect x="599.15" y="487.99" width="48.02" height="48.02" fill="#FFFFFF"/><rect x="495.99" y="467.54" width="32.01" height="88.93" fill="#FFFFFF"/><rect x="356.38" y="607.15" width="88.93" height="32.01" fill="#FFFFFF"/><rect x="578.70" y="607.15" width="88.93" height="32.01" fill="#FFFFFF"/></g><g opacity="0.6072027683757258"><path d="M 40 100 L 40 40 L 100 40" fill="none" stroke="#00D486" stroke-width="3" stroke-linecap="square"/><path d="M 924 40 L 984 40 L 984 100" fill="none" stroke="#00D486" stroke-width="3" stroke-linecap="square"/><path d="M 40 924 L 40 984 L 100 984" fill="none" stroke="#00D486" stroke-width="3" stroke-linecap="square"/><path d="M 924 984 L 984 984 L 984 924" fill="none" stroke="#00D486" stroke-width="3" stroke-linecap="square"/></g></svg>