<svg xmlns="http://www.w3.org/2000/svg" width="1024" height="1024" viewBox="0 0 1024 1024"><rect x="0" y="0" width="1024" height="1024" fill="#0D0D0D"/><defs><filter id="symbolic-glow-215152859" x="-50%" y="-50%" width="200%" height="200%"><feGaussianBlur in="SourceGraphic" stdDeviation="3.104557247415445" result="blur"/><feFlood flood-color="#FFFFFF" flood-opacity="0.5" result="color"/><feComposite in="color" in2="blur" operator="in" result="glow"/><feMerge><feMergeNode in="glow"/><feMergeNode in="SourceGraphic"/></feMerge></filter></defs><g filter="url(#symbolic-glow-215152859)"><rect x="360.60" y="364.92" width="86.52" height="77.86" fill="#FFFFFF"/><rect x="576.89" y="364.92" width="86.52" height="77.86" fill="#FFFFFF"/><rect x="581.21" y="360.60" width="77.86" height="86.52" fill="#FFFFFF"/><rect x="364.92" y="360.60" width="77.86" height="86.52" fill="#FFFFFF"/><rect x="364.92" y="468.74" width="77.86" height="86.52" fill="#FFFFFF"/><rect x="581.21" y="468.74" width="77.86" height="86.52" fill="#FFFFFF"/><rect x="468.74" y="473.07" width="86.52" height="77.86" fill="#FFFFFF"/><rect x="364.92" y="576.89" width="77.86" height="86.52" fill="#FFFFFF"/><rect x="581.21" y="576.89" width="77.86" height="86.52" fill="#FFFFFF"/></g><g opacity="0.9087011816020595"><path d="M 40 100 L 40 40 L 100 40" fill="none" stroke="#FFC125" stroke-width="3" stroke-linecap="square"/><path d="M 924 40 L 984 40 L 984 100" fill="none" stroke="#FFC125" stroke-width="3" stroke-linecap="square"/><path d="M 40 924 L 40 984 L 100 984" fill="none" stroke="#FFC125" stroke-width="3" stroke-linecap="square"/><path d="M 924 984 L 984 984 L 984 924" fill="none" stroke="#FFC125" stroke-width="3" stroke-linecap="square"/></g></svg>