<svg xmlns="http://www.w3.org/2000/svg" width="1024" height="1024" viewBox="0 0 1024 1024"><rect x="0" y="0" width="1024" height="1024" fill="#0D0D0D"/><defs><filter id="symbolic-glow-72633504" x="-50%" y="-50%" width="200%" height="200%"><feGaussianBlur in="SourceGraphic" stdDeviation="7.851406101068205" result="blur"/><feFlood flood-color="#FFFFFF" flood-opacity="0.5" result="color"/><feComposite in="color" in2="blur" operator="in" result="glow"/><feMerge><feMergeNode in="glow"/><feMergeNode in="SourceGraphic"/></feMerge></filter></defs><g filter="url(#symbolic-glow-72633504)"><rect x="294.19" y="201.67" width="435.63" height="39.83" fill="#FFFFFF"/><rect x="782.50" y="294.19" width="39.83" height="435.63" fill="#FFFFFF"/><rect x="294.19" y="782.50" width="435.63" height="39.83" fill="#FFFFFF"/><rect x="201.67" y="294.19" width="39.83" height="435.63" fill="#FFFFFF"/><rect x="294.19" y="782.50" width="435.63" height="39.83" fill="#FFFFFF"/><rect x="201.67" y="294.19" width="39.83" height="435.63" fill="#FFFFFF"/><rect x="294.19" y="201.67" width="435.63" height="39.83" fill="#FFFFFF"/><rect x="782.50" y="294.19" width="39.83" height="435.63" fill="#FFFFFF"/><rect x="274.27" y="419.18" width="39.83" height="185.64" fill="#FFFFFF"/><rect x="419.18" y="274.27" width="185.64" height="39.83" fill="#FFFFFF"/><rect x="709.90" y="419.18" width="39.83" height="185.64" fill="#FFFFFF"/><rect x="419.18" y="709.90" width="185.64" height="39.83" fill="#FFFFFF"/></g><g opacity="0.647601440617629"><path d="M 40 100 L 40 40 L 100 40" fill="none" stroke="#FFC125" stroke-width="3" stroke-linecap="square"/><path d="M 924 40 L 984 40 L 984 100" fill="none" stroke="#FFC125" stroke-width="3" stroke-linecap="square"/><path d="M 40 924 L 40 984 L 100 984" fill="none" stroke="#FFC125" stroke-width="3" stroke-linecap="square"/><path d="M 924 984 L 984 984 L 984 924" fill="none" stroke="#FFC125" stroke-width="3" stroke-linecap="square"/></g></svg>