<svg xmlns="http://www.w3.org/2000/svg" width="1024" height="1024" viewBox="0 0 1024 1024"><rect x="0" y="0" width="1024" height="1024" fill="#050510"/><defs><filter id="symbolic-glow-929355859" x="-50%" y="-50%" width="200%" height="200%"><feGaussianBlur in="SourceGraphic" stdDeviation="6.060681345900839" result="blur"/><feFlood flood-color="#FFFFFF" flood-opacity="0.5" result="color"/><feComposite in="color" in2="blur" operator="in" result="glow"/><feMerge><feMergeNode in="glow"/><feMergeNode in="SourceGraphic"/></feMerge></filter></defs><g filter="url(#symbolic-glow-929355859)"><rect x="352.15" y="352.15" width="84.62" height="84.62" fill="#FFFFFF"/><rect x="587.22" y="352.15" width="84.62" height="84.62" fill="#FFFFFF"/><rect x="587.22" y="352.15" width="84.62" height="84.62" fill="#FFFFFF"/><rect x="352.15" y="352.15" width="84.62" height="84.62" fill="#FFFFFF"/><rect x="366.26" y="464.99" width="56.42" height="94.03" fill="#FFFFFF"/><rect x="601.33" y="464.99" width="56.42" height="94.03" fill="#FFFFFF"/><rect x="483.79" y="464.99" width="56.42" height="94.03" fill="#FFFFFF"/><rect x="352.15" y="587.22" width="84.62" height="84.62" fill="#FFFFFF"/><rect x="587.22" y="587.22" width="84.62" height="84.62" fill="#FFFFFF"/></g><g opacity="0.8982139827675251"><path d="M 40 100 L 40 40 L 100 40" fill="none" stroke="#3B82F6" stroke-width="3" stroke-linecap="square"/><path d="M 924 40 L 984 40 L 984 100" fill="none" stroke="#3B82F6" stroke-width="3" stroke-linecap="square"/><path d="M 40 924 L 40 984 L 100 984" fill="none" stroke="#3B82F6" stroke-width="3" stroke-linecap="square"/><path d="M 924 984 L 984 984 L 984 924" fill="none" stroke="#3B82F6" stroke-width="3" stroke-linecap="square"/></g></svg>