<svg xmlns="http://www.w3.org/2000/svg" width="1024" height="1024" viewBox="0 0 1024 1024"><rect x="0" y="0" width="1024" height="1024" fill="#000000"/><defs><filter id="symbolic-glow-837235211" x="-50%" y="-50%" width="200%" height="200%"><feGaussianBlur in="SourceGraphic" stdDeviation="1.0763227944617733" result="blur"/><feFlood flood-color="#FFFFFF" flood-opacity="0.5" result="color"/><feComposite in="color" in2="blur" operator="in" result="glow"/><feMerge><feMergeNode in="glow"/><feMergeNode in="SourceGraphic"/></feMerge></filter></defs><g filter="url(#symbolic-glow-837235211)"><rect x="336.10" y="459.23" width="351.81" height="105.54" fill="#FFFFFF"/><rect x="459.23" y="336.10" width="105.54" height="351.81" fill="#FFFFFF"/><rect x="336.10" y="459.23" width="351.81" height="105.54" fill="#FFFFFF"/><rect x="459.23" y="336.10" width="105.54" height="351.81" fill="#FFFFFF"/><rect x="459.23" y="336.10" width="105.54" height="351.81" fill="#FFFFFF"/><rect x="336.10" y="459.23" width="351.81" height="105.54" fill="#FFFFFF"/><rect x="459.23" y="336.10" width="105.54" height="351.81" fill="#FFFFFF"/><rect x="336.10" y="459.23" width="351.81" height="105.54" fill="#FFFFFF"/><rect x="292.12" y="292.12" width="158.31" height="158.31" fill="#FFFFFF"/><rect x="573.57" y="292.12" width="158.31" height="158.31" fill="#FFFFFF"/><rect x="573.57" y="573.57" width="158.31" height="158.31" fill="#FFFFFF"/><rect x="292.12" y="573.57" width="158.31" height="158.31" fill="#FFFFFF"/></g><g opacity="0.5981606375883151"><path d="M 40 100 L 40 40 L 100 40" fill="none" stroke="#888888" stroke-width="3" stroke-linecap="square"/><path d="M 924 40 L 984 40 L 984 100" fill="none" stroke="#888888" stroke-width="3" stroke-linecap="square"/><path d="M 40 924 L 40 984 L 100 984" fill="none" stroke="#888888" stroke-width="3" stroke-linecap="square"/><path d="M 924 984 L 984 984 L 984 924" fill="none" stroke="#888888" stroke-width="3" stroke-linecap="square"/></g></svg>