<svg xmlns="http://www.w3.org/2000/svg" width="1024" height="1024" viewBox="0 0 1024 1024"><rect x="0" y="0" width="1024" height="1024" fill="#0D0D0D"/><defs><filter id="symbolic-glow-613549470" x="-50%" y="-50%" width="200%" height="200%"><feGaussianBlur in="SourceGraphic" stdDeviation="3.0636618151625905" result="blur"/><feFlood flood-color="#FFFFFF" flood-opacity="0.5" result="color"/><feComposite in="color" in2="blur" operator="in" result="glow"/><feMerge><feMergeNode in="glow"/><feMergeNode in="SourceGraphic"/></feMerge></filter></defs><g filter="url(#symbolic-glow-613549470)"><line x1="406.87" y1="406.87" x2="617.13" y2="617.13" stroke="#FFFFFF" stroke-width="40.78" stroke-linecap="square"/><line x1="617.13" y1="406.87" x2="406.87" y2="617.13" stroke="#FFFFFF" stroke-width="40.78" stroke-linecap="square"/><line x1="617.13" y1="617.13" x2="406.87" y2="406.87" stroke="#FFFFFF" stroke-width="40.78" stroke-linecap="square"/><line x1="406.87" y1="617.13" x2="617.13" y2="406.87" stroke="#FFFFFF" stroke-width="40.78" stroke-linecap="square"/><line x1="406.87" y1="617.13" x2="617.13" y2="406.87" stroke="#FFFFFF" stroke-width="40.78" stroke-linecap="square"/><line x1="406.87" y1="406.87" x2="617.13" y2="617.13" stroke="#FFFFFF" stroke-width="40.78" stroke-linecap="square"/><line x1="617.13" y1="406.87" x2="406.87" y2="617.13" stroke="#FFFFFF" stroke-width="40.78" stroke-linecap="square"/><line x1="617.13" y1="617.13" x2="406.87" y2="406.87" stroke="#FFFFFF" stroke-width="40.78" stroke-linecap="square"/><rect x="497.73" y="393.06" width="28.55" height="237.89" fill="#FFFFFF"/><rect x="393.06" y="497.73" width="237.89" height="28.55" fill="#FFFFFF"/><rect x="497.73" y="393.06" width="28.55" height="237.89" fill="#FFFFFF"/><rect x="393.06" y="497.73" width="237.89" height="28.55" fill="#FFFFFF"/></g><g opacity="0.7840443981271443"><path d="M 40 100 L 40 40 L 100 40" fill="none" stroke="#FFC125" stroke-width="3" stroke-linecap="square"/><path d="M 924 40 L 984 40 L 984 100" fill="none" stroke="#FFC125" stroke-width="3" stroke-linecap="square"/><path d="M 40 924 L 40 984 L 100 984" fill="none" stroke="#FFC125" stroke-width="3" stroke-linecap="square"/><path d="M 924 984 L 984 984 L 984 924" fill="none" stroke="#FFC125" stroke-width="3" stroke-linecap="square"/></g></svg>