<svg xmlns="http://www.w3.org/2000/svg" width="1024" height="1024" viewBox="0 0 1024 1024"><rect x="0" y="0" width="1024" height="1024" fill="#000000"/><defs><filter id="symbolic-glow-37209659" x="-50%" y="-50%" width="200%" height="200%"><feGaussianBlur in="SourceGraphic" stdDeviation="4.770117046670111" result="blur"/><feFlood flood-color="#FFFFFF" flood-opacity="0.5" result="color"/><feComposite in="color" in2="blur" operator="in" result="glow"/><feMerge><feMergeNode in="glow"/><feMergeNode in="SourceGraphic"/></feMerge></filter></defs><g filter="url(#symbolic-glow-37209659)"><rect x="348.80" y="348.80" width="114.45" height="114.45" fill="#FFFFFF"/><rect x="560.75" y="348.80" width="114.45" height="114.45" fill="#FFFFFF"/><rect x="560.75" y="560.75" width="114.45" height="114.45" fill="#FFFFFF"/><rect x="348.80" y="560.75" width="114.45" height="114.45" fill="#FFFFFF"/><rect x="579.82" y="363.63" width="76.30" height="84.78" fill="#FFFFFF"/><rect x="575.59" y="579.82" width="84.78" height="76.30" fill="#FFFFFF"/><rect x="367.87" y="575.59" width="76.30" height="84.78" fill="#FFFFFF"/><rect x="363.63" y="367.87" width="84.78" height="76.30" fill="#FFFFFF"/><rect x="454.77" y="454.77" width="114.45" height="114.45" fill="#FFFFFF"/><rect x="454.77" y="454.77" width="114.45" height="114.45" fill="#FFFFFF"/><rect x="454.77" y="454.77" width="114.45" height="114.45" fill="#FFFFFF"/><rect x="454.77" y="454.77" width="114.45" height="114.45" fill="#FFFFFF"/></g><g opacity="0.9893416168584217"><path d="M 40 100 L 40 40 L 100 40" fill="none" stroke="#00D486" stroke-width="3" stroke-linecap="square"/><path d="M 924 40 L 984 40 L 984 100" fill="none" stroke="#00D486" stroke-width="3" stroke-linecap="square"/><path d="M 40 924 L 40 984 L 100 984" fill="none" stroke="#00D486" stroke-width="3" stroke-linecap="square"/><path d="M 924 984 L 984 984 L 984 924" fill="none" stroke="#00D486" stroke-width="3" stroke-linecap="square"/></g></svg>