<svg xmlns="http://www.w3.org/2000/svg" width="1024" height="1024" viewBox="0 0 1024 1024"><rect x="0" y="0" width="1024" height="1024" fill="#0D0D0D"/><defs><filter id="symbolic-glow-471422493" x="-50%" y="-50%" width="200%" height="200%"><feGaussianBlur in="SourceGraphic" stdDeviation="4.9691200279486925" result="blur"/><feFlood flood-color="#FFFFFF" flood-opacity="0.5" result="color"/><feComposite in="color" in2="blur" operator="in" result="glow"/><feMerge><feMergeNode in="glow"/><feMergeNode in="SourceGraphic"/></feMerge></filter></defs><g filter="url(#symbolic-glow-471422493)"><rect x="370.51" y="370.51" width="50.27" height="50.27" fill="#FFFFFF"/><rect x="603.23" y="370.51" width="50.27" height="50.27" fill="#FFFFFF"/><rect x="581.82" y="378.89" width="93.09" height="33.51" fill="#FFFFFF"/><rect x="349.10" y="378.89" width="93.09" height="33.51" fill="#FFFFFF"/><rect x="378.89" y="465.46" width="33.51" height="93.09" fill="#FFFFFF"/><rect x="611.60" y="465.46" width="33.51" height="93.09" fill="#FFFFFF"/><rect x="465.46" y="495.24" width="93.09" height="33.51" fill="#FFFFFF"/><rect x="370.51" y="603.23" width="50.27" height="50.27" fill="#FFFFFF"/><rect x="603.23" y="603.23" width="50.27" height="50.27" fill="#FFFFFF"/></g><g opacity="0.6783583165045634"><path d="M 40 100 L 40 40 L 100 40" fill="none" stroke="#FFC125" stroke-width="3" stroke-linecap="square"/><path d="M 924 40 L 984 40 L 984 100" fill="none" stroke="#FFC125" stroke-width="3" stroke-linecap="square"/><path d="M 40 924 L 40 984 L 100 984" fill="none" stroke="#FFC125" stroke-width="3" stroke-linecap="square"/><path d="M 924 984 L 984 984 L 984 924" fill="none" stroke="#FFC125" stroke-width="3" stroke-linecap="square"/></g></svg>