<svg xmlns="http://www.w3.org/2000/svg" width="1024" height="1024" viewBox="0 0 1024 1024"><rect x="0" y="0" width="1024" height="1024" fill="#000000"/><defs><filter id="symbolic-glow-702521085" x="-50%" y="-50%" width="200%" height="200%"><feGaussianBlur in="SourceGraphic" stdDeviation="7.173580173018194" result="blur"/><feFlood flood-color="#FFFFFF" flood-opacity="0.5" result="color"/><feComposite in="color" in2="blur" operator="in" result="glow"/><feMerge><feMergeNode in="glow"/><feMergeNode in="SourceGraphic"/></feMerge></filter></defs><g filter="url(#symbolic-glow-702521085)"><rect x="348.46" y="378.36" width="93.45" height="33.64" fill="#FFFFFF"/><rect x="611.99" y="348.46" width="33.64" height="93.45" fill="#FFFFFF"/><rect x="582.09" y="611.99" width="93.45" height="33.64" fill="#FFFFFF"/><rect x="378.36" y="582.09" width="33.64" height="93.45" fill="#FFFFFF"/><rect x="465.27" y="378.36" width="93.45" height="33.64" fill="#FFFFFF"/><rect x="611.99" y="465.27" width="33.64" height="93.45" fill="#FFFFFF"/><rect x="465.27" y="611.99" width="93.45" height="33.64" fill="#FFFFFF"/><rect x="378.36" y="465.27" width="33.64" height="93.45" fill="#FFFFFF"/><rect x="611.99" y="348.46" width="33.64" height="93.45" fill="#FFFFFF"/><rect x="582.09" y="611.99" width="93.45" height="33.64" fill="#FFFFFF"/><rect x="378.36" y="582.09" width="33.64" height="93.45" fill="#FFFFFF"/><rect x="348.46" y="378.36" width="93.45" height="33.64" fill="#FFFFFF"/></g><g opacity="0.5269485116130432"><path d="M 40 100 L 40 40 L 100 40" fill="none" stroke="#888888" stroke-width="3" stroke-linecap="square"/><path d="M 924 40 L 984 40 L 984 100" fill="none" stroke="#888888" stroke-width="3" stroke-linecap="square"/><path d="M 40 924 L 40 984 L 100 984" fill="none" stroke="#888888" stroke-width="3" stroke-linecap="square"/><path d="M 924 984 L 984 984 L 984 924" fill="none" stroke="#888888" stroke-width="3" stroke-linecap="square"/></g></svg>