<svg xmlns="http://www.w3.org/2000/svg" width="1024" height="1024" viewBox="0 0 1024 1024"><rect x="0" y="0" width="1024" height="1024" fill="#000000"/><defs><filter id="symbolic-glow-630231674" x="-50%" y="-50%" width="200%" height="200%"><feGaussianBlur in="SourceGraphic" stdDeviation="6.054114344555007" result="blur"/><feFlood flood-color="#FFFFFF" flood-opacity="0.5" result="color"/><feComposite in="color" in2="blur" operator="in" result="glow"/><feMerge><feMergeNode in="glow"/><feMergeNode in="SourceGraphic"/></feMerge></filter></defs><g filter="url(#symbolic-glow-630231674)"><rect x="299.59" y="180.23" width="424.83" height="97.10" fill="#FFFFFF"/><rect x="746.67" y="299.59" width="97.10" height="424.83" fill="#FFFFFF"/><rect x="299.59" y="746.67" width="424.83" height="97.10" fill="#FFFFFF"/><rect x="180.23" y="299.59" width="97.10" height="424.83" fill="#FFFFFF"/><rect x="299.59" y="746.67" width="424.83" height="97.10" fill="#FFFFFF"/><rect x="180.23" y="299.59" width="97.10" height="424.83" fill="#FFFFFF"/><rect x="299.59" y="180.23" width="424.83" height="97.10" fill="#FFFFFF"/><rect x="746.67" y="299.59" width="97.10" height="424.83" fill="#FFFFFF"/><rect x="251.04" y="437.28" width="97.10" height="149.45" fill="#FFFFFF"/><rect x="437.28" y="251.04" width="149.45" height="97.10" fill="#FFFFFF"/><rect x="675.86" y="437.28" width="97.10" height="149.45" fill="#FFFFFF"/><rect x="437.28" y="675.86" width="149.45" height="97.10" fill="#FFFFFF"/></g><g opacity="0.5196631103845607"><path d="M 40 100 L 40 40 L 100 40" fill="none" stroke="#00D486" stroke-width="3" stroke-linecap="square"/><path d="M 924 40 L 984 40 L 984 100" fill="none" stroke="#00D486" stroke-width="3" stroke-linecap="square"/><path d="M 40 924 L 40 984 L 100 984" fill="none" stroke="#00D486" stroke-width="3" stroke-linecap="square"/><path d="M 924 984 L 984 984 L 984 924" fill="none" stroke="#00D486" stroke-width="3" stroke-linecap="square"/></g></svg>