<svg xmlns="http://www.w3.org/2000/svg" width="512" height="512" viewBox="0 0 512 512"><rect x="0" y="0" width="512" height="512" fill="#0D0D0D"/><g opacity="0.16971294289441452"><path d="M -32.218232029372984,-61.21464085580867 L -26.05354022050532,-47.10111460219162 L -11.714674718142849,-52.72178934060312 L -17.335349456554347,-38.38292383824065 L -3.2218232029372977,-32.218232029372984 L -17.335349456554347,-26.053540220505322 L -11.714674718142849,-11.714674718142852 L -26.05354022050532,-17.335349456554347 L -32.218232029372984,-3.2218232029372977 L -38.38292383824064,-17.335349456554347 L -52.72178934060312,-11.714674718142849 L -47.10111460219162,-26.05354022050531 L -61.21464085580867,-32.218232029372984 L -47.10111460219162,-38.38292383824065 L -52.721789340603124,-52.72178934060312 L -38.38292383824066,-47.10111460219162 Z" fill="none" stroke="#FFD700" stroke-width="1.5044360165504906" /><path d="M 32.218232029372984,-61.21464085580867 L 38.38292383824065,-47.10111460219162 L 52.721789340603124,-52.72178934060312 L 47.10111460219162,-38.38292383824065 L 61.21464085580867,-32.218232029372984 L 47.10111460219162,-26.053540220505322 L 52.721789340603124,-11.714674718142852 L 38.38292383824065,-17.335349456554347 L 32.218232029372984,-3.2218232029372977 L 26.053540220505322,-17.335349456554347 L 11.714674718142852,-11.714674718142849 L 17.335349456554347,-26.05354022050531 L 3.2218232029372977,-32.218232029372984 L 17.335349456554347,-38.38292383824065 L 11.714674718142845,-52.72178934060312 L 26.05354022050531,-47.10111460219162 Z" fill="none" stroke="#FFD700" stroke-width="1.5044360165504906" /><path d="M 96.65469608811895,-61.21464085580867 L 102.81938789698661,-47.10111460219162 L 117.15825339934909,-52.72178934060312 L 111.5375786609376,-38.38292383824065 L 125.65110491455464,-32.218232029372984 L 111.5375786609376,-26.053540220505322 L 117.15825339934909,-11.714674718142852 L 102.81938789698661,-17.335349456554347 L 96.65469608811895,-3.2218232029372977 L 90.4900042792513,-17.335349456554347 L 76.15113877688881,-11.714674718142849 L 81.77181351530032,-26.05354022050531 L 67.65828726168327,-32.218232029372984 L 81.77181351530032,-38.38292383824065 L 76.15113877688881,-52.72178934060312 L 90.49000427925128,-47.10111460219162 Z" fill="none" stroke="#FFD700" stroke-width="1.5044360165504906" /><path d="M 161.09116014686492,-61.21464085580867 L 167.2558519557326,-47.10111460219162 L 181.59471745809506,-52.72178934060312 L 175.97404271968355,-38.38292383824065 L 190.08756897330062,-32.218232029372984 L 175.97404271968355,-26.053540220505322 L 181.59471745809506,-11.714674718142852 L 167.2558519557326,-17.335349456554347 L 161.09116014686492,-3.2218232029372977 L 154.92646833799725,-17.335349456554347 L 140.58760283563478,-11.714674718142849 L 146.2082775740463,-26.05354022050531 L 132.09475132042922,-32.218232029372984 L 146.2082775740463,-38.38292383824065 L 140.58760283563478,-52.72178934060312 L 154.92646833799725,-47.10111460219162 Z" fill="none" stroke="#FFD700" stroke-width="1.5044360165504906" /><path d="M 225.5276242056109,-61.21464085580867 L 231.69231601447856,-47.10111460219162 L 246.03118151684103,-52.72178934060312 L 240.41050677842952,-38.38292383824065 L 254.5240330320466,-32.218232029372984 L 240.41050677842952,-26.053540220505322 L 246.03118151684103,-11.714674718142852 L 231.69231601447856,-17.335349456554347 L 225.5276242056109,-3.2218232029372977 L 219.36293239674322,-17.335349456554347 L 205.02406689438075,-11.714674718142849 L 210.64474163279226,-26.05354022050531 L 196.5312153791752,-32.218232029372984 L 210.64474163279226,-38.38292383824065 L 205.02406689438075,-52.72178934060312 L 219.36293239674322,-47.10111460219162 Z" fill="none" stroke="#FFD700" stroke-width="1.5044360165504906" /><path d="M 289.96408826435686,-61.21464085580867 L 296.1287800732245,-47.10111460219162 L 310.46764557558697,-52.72178934060312 L 304.8469708371755,-38.38292383824065 L 318.96049709079256,-32.218232029372984 L 304.8469708371755,-26.053540220505322 L 310.46764557558697,-11.714674718142852 L 296.1287800732245,-17.335349456554347 L 289.96408826435686,-3.2218232029372977 L 283.7993964554892,-17.335349456554347 L 269.46053095312675,-11.714674718142849 L 275.08120569153823,-26.05354022050531 L 260.96767943792116,-32.218232029372984 L 275.08120569153823,-38.38292383824065 L 269.46053095312675,-52.72178934060312 L 283.7993964554892,-47.10111460219162 Z" fill="none" stroke="#FFD700" stroke-width="1.5044360165504906" /><path d="M 354.40055232310283,-61.21464085580867 L 360.5652441319705,-47.10111460219162 L 374.90410963433294,-52.72178934060312 L 369.28343489592146,-38.38292383824065 L 383.3969611495385,-32.218232029372984 L 369.28343489592146,-26.053540220505322 L 374.90410963433294,-11.714674718142852 L 360.5652441319705,-17.335349456554347 L 354.40055232310283,-3.2218232029372977 L 348.2358605142352,-17.335349456554347 L 333.8969950118727,-11.714674718142849 L 339.5176697502842,-26.05354022050531 L 325.40414349666713,-32.218232029372984 L 339.5176697502842,-38.38292383824065 L 333.8969950118727,-52.72178934060312 L 348.2358605142352,-47.10111460219162 Z" fill="none" stroke="#FFD700" stroke-width="1.5044360165504906" /><path d="M 418.8370163818488,-61.21464085580867 L 425.00170819071644,-47.10111460219162 L 439.3405736930789,-52.72178934060312 L 433.7198989546674,-38.38292383824065 L 447.8334252082845,-32.218232029372984 L 433.7198989546674,-26.053540220505322 L 439.3405736930789,-11.714674718142852 L 425.00170819071644,-17.335349456554347 L 418.8370163818488,-3.2218232029372977 L 412.67232457298115,-17.335349456554347 L 398.3334590706187,-11.714674718142849 L 403.95413380903017,-26.05354022050531 L 389.8406075554131,-32.218232029372984 L 403.95413380903017,-38.38292383824065 L 398.3334590706187,-52.72178934060312 L 412.67232457298115,-47.10111460219162 Z" fill="none" stroke="#FFD700" stroke-width="1.5044360165504906" /><path d="M 483.27348044059477,-61.21464085580867 L 489.4381722494624,-47.10111460219162 L 503.7770377518249,-52.72178934060312 L 498.1563630134134,-38.38292383824065 L 512.2698892670304,-32.218232029372984 L 498.1563630134134,-26.053540220505322 L 503.7770377518249,-11.714674718142852 L 489.4381722494624,-17.335349456554347 L 483.27348044059477,-3.2218232029372977 L 477.1087886317271,-17.335349456554347 L 462.76992312936466,-11.714674718142849 L 468.39059786777614,-26.05354022050531 L 454.27707161415907,-32.218232029372984 L 468.39059786777614,-38.38292383824065 L 462.76992312936466,-52.72178934060312 L 477.1087886317271,-47.10111460219162 Z" fill="none" stroke="#FFD700" stroke-width="1.5044360165504906" /><path d="M 547.7099444993407,-61.21464085580867 L 553.8746363082084,-47.10111460219162 L 568.2135018105708,-52.72178934060312 L 562.5928270721594,-38.38292383824065 L 576.7063533257764,-32.218232029372984 L 562.5928270721594,-26.053540220505322 L 568.2135018105708,-11.714674718142852 L 553.8746363082084,-17.335349456554347 L 547.7099444993407,-3.2218232029372977 L 541.545252690473,-17.335349456554347 L 527.2063871881106,-11.714674718142849 L 532.8270619265221,-26.05354022050531 L 518.7135356729051,-32.218232029372984 L 532.8270619265221,-38.38292383824065 L 527.2063871881106,-52.72178934060312 L 541.545252690473,-47.10111460219162 Z" fill="none" stroke="#FFD700" stroke-width="1.5044360165504906" /><path d="M 1.7755179628031262e-15,-5.412662980934666 L 6.164691808867664,8.700863272682382 L 20.503557311230136,3.0801885342708886 L 14.88288257281864,17.41905403663336 L 28.996408826435687,23.58374584550102 L 14.88288257281864,29.748437654368683 L 20.503557311230136,44.08730315673115 L 6.164691808867664,38.46662841831966 L 1.7755179628031262e-15,52.58015467193671 L -6.164691808867662,38.46662841831966 L -20.503557311230132,44.08730315673115 L -14.882882572818636,29.748437654368693 L -28.996408826435687,23.583745845501024 L -14.882882572818637,17.419054036633355 L -20.50355731123014,3.0801885342708886 L -6.164691808867672,8.700863272682385 Z" fill="none" stroke="#FFD700" stroke-width="1.5044360165504906" /><path d="M 64.43646405874597,-5.412662980934666 L 70.60115586761363,8.700863272682382 L 84.94002136997611,3.0801885342708886 L 79.31934663156461,17.41905403663336 L 93.43287288518165,23.58374584550102 L 79.31934663156461,29.748437654368683 L 84.94002136997611,44.08730315673115 L 70.60115586761363,38.46662841831966 L 64.43646405874597,52.58015467193671 L 58.27177224987831,38.46662841831966 L 43.93290674751584,44.08730315673115 L 49.55358148592733,29.748437654368693 L 35.440055232310286,23.583745845501024 L 49.55358148592733,17.419054036633355 L 43.93290674751583,3.0801885342708886 L 58.271772249878296,8.700863272682385 Z" fill="none" stroke="#FFD700" stroke-width="1.5044360165504906" /><path d="M 128.87292811749194,-5.412662980934666 L 135.0376199263596,8.700863272682382 L 149.37648542872208,3.0801885342708886 L 143.75581069031057,17.41905403663336 L 157.86933694392764,23.58374584550102 L 143.75581069031057,29.748437654368683 L 149.37648542872208,44.08730315673115 L 135.0376199263596,38.46662841831966 L 128.87292811749194,52.58015467193671 L 122.70823630862428,38.46662841831966 L 108.3693708062618,44.08730315673115 L 113.99004554467331,29.748437654368693 L 99.87651929105625,23.583745845501024 L 113.99004554467331,17.419054036633355 L 108.3693708062618,3.0801885342708886 L 122.70823630862427,8.700863272682385 Z" fill="none" stroke="#FFD700" stroke-width="1.5044360165504906" /><path d="M 193.3093921762379,-5.412662980934666 L 199.47408398510558,8.700863272682382 L 213.81294948746805,3.0801885342708886 L 208.19227474905654,17.41905403663336 L 222.3058010026736,23.58374584550102 L 208.19227474905654,29.748437654368683 L 213.81294948746805,44.08730315673115 L 199.47408398510558,38.46662841831966 L 193.3093921762379,52.58015467193671 L 187.14470036737023,38.46662841831966 L 172.80583486500777,44.08730315673115 L 178.42650960341928,29.748437654368693 L 164.3129833498022,23.583745845501024 L 178.42650960341928,17.419054036633355 L 172.80583486500777,3.0801885342708886 L 187.14470036737023,8.700863272682385 Z" fill="none" stroke="#FFD700" stroke-width="1.5044360165504906" /><path d="M 257.7458562349839,-5.412662980934666 L 263.9105480438515,8.700863272682382 L 278.249413546214,3.0801885342708886 L 272.6287388078025,17.41905403663336 L 286.7422650614196,23.58374584550102 L 272.6287388078025,29.748437654368683 L 278.249413546214,44.08730315673115 L 263.9105480438515,38.46662841831966 L 257.7458562349839,52.58015467193671 L 251.5811644261162,38.46662841831966 L 237.24229892375374,44.08730315673115 L 242.86297366216525,29.748437654368693 L 228.74944740854818,23.583745845501024 L 242.86297366216525,17.419054036633355 L 237.24229892375374,3.0801885342708886 L 251.5811644261162,8.700863272682385 Z" fill="none" stroke="#FFD700" stroke-width="1.5044360165504906" /><path d="M 322.18232029372984,-5.412662980934666 L 328.3470121025975,8.700863272682382 L 342.68587760495996,3.0801885342708886 L 337.0652028665485,17.41905403663336 L 351.17872912016554,23.58374584550102 L 337.0652028665485,29.748437654368683 L 342.68587760495996,44.08730315673115 L 328.3470121025975,38.46662841831966 L 322.18232029372984,52.58015467193671 L 316.0176284848622,38.46662841831966 L 301.67876298249973,44.08730315673115 L 307.2994377209112,29.748437654368693 L 293.18591146729415,23.583745845501024 L 307.2994377209112,17.419054036633355 L 301.67876298249973,3.0801885342708886 L 316.0176284848622,8.700863272682385 Z" fill="none" stroke="#FFD700" stroke-width="1.5044360165504906" /><path d="M 386.6187843524758,-5.412662980934666 L 392.78347616134346,8.700863272682382 L 407.1223416637059,3.0801885342708886 L 401.50166692529444,17.41905403663336 L 415.6151931789115,23.58374584550102 L 401.50166692529444,29.748437654368683 L 407.1223416637059,44.08730315673115 L 392.78347616134346,38.46662841831966 L 386.6187843524758,52.58015467193671 L 380.45409254360817,38.46662841831966 L 366.1152270412457,44.08730315673115 L 371.7359017796572,29.748437654368693 L 357.6223755260401,23.583745845501024 L 371.7359017796572,17.419054036633355 L 366.1152270412457,3.0801885342708886 L 380.45409254360817,8.700863272682385 Z" fill="none" stroke="#FFD700" stroke-width="1.5044360165504906" /><path d="M 451.0552484112218,-5.412662980934666 L 457.2199402200894,8.700863272682382 L 471.5588057224519,3.0801885342708886 L 465.9381309840404,17.41905403663336 L 480.0516572376575,23.58374584550102 L 465.9381309840404,29.748437654368683 L 471.5588057224519,44.08730315673115 L 457.2199402200894,38.46662841831966 L 451.0552484112218,52.58015467193671 L 444.89055660235414,38.46662841831966 L 430.5516910999917,44.08730315673115 L 436.17236583840315,29.748437654368693 L 422.0588395847861,23.583745845501024 L 436.17236583840315,17.419054036633355 L 430.5516910999917,3.0801885342708886 L 444.89055660235414,8.700863272682385 Z" fill="none" stroke="#FFD700" stroke-width="1.5044360165504906" /><path d="M 515.4917124699678,-5.412662980934666 L 521.6564042788355,8.700863272682382 L 535.9952697811979,3.0801885342708886 L 530.3745950427864,17.41905403663336 L 544.4881212964034,23.58374584550102 L 530.3745950427864,29.748437654368683 L 535.9952697811979,44.08730315673115 L 521.6564042788355,38.46662841831966 L 515.4917124699678,52.58015467193671 L 509.3270206611001,38.46662841831966 L 494.98815515873764,44.08730315673115 L 500.6088298971491,29.748437654368693 L 486.49530364353205,23.583745845501024 L 500.6088298971491,17.419054036633355 L 494.98815515873764,3.0801885342708886 L 509.3270206611001,8.700863272682385 Z" fill="none" stroke="#FFD700" stroke-width="1.5044360165504906" /><path d="M -32.218232029372984,50.38931489393934 L -26.05354022050532,64.50284114755638 L -11.714674718142849,58.882166409144894 L -17.335349456554347,73.22103191150737 L -3.2218232029372977,79.38572372037503 L -17.335349456554347,85.55041552924268 L -11.714674718142849,99.88928103160515 L -26.05354022050532,94.26860629319367 L -32.218232029372984,108.38213254681071 L -38.38292383824064,94.26860629319367 L -52.72178934060312,99.88928103160517 L -47.10111460219162,85.5504155292427 L -61.21464085580867,79.38572372037503 L -47.10111460219162,73.22103191150735 L -52.721789340603124,58.882166409144894 L -38.38292383824066,64.5028411475564 Z" fill="none" stroke="#FFD700" stroke-width="1.5044360165504906" /><path d="M 32.218232029372984,50.38931489393934 L 38.38292383824065,64.50284114755638 L 52.721789340603124,58.882166409144894 L 47.10111460219162,73.22103191150737 L 61.21464085580867,79.38572372037503 L 47.10111460219162,85.55041552924268 L 52.721789340603124,99.88928103160515 L 38.38292383824065,94.26860629319367 L 32.218232029372984,108.38213254681071 L 26.053540220505322,94.26860629319367 L 11.714674718142852,99.88928103160517 L 17.335349456554347,85.5504155292427 L 3.2218232029372977,79.38572372037503 L 17.335349456554347,73.22103191150735 L 11.714674718142845,58.882166409144894 L 26.05354022050531,64.5028411475564 Z" fill="none" stroke="#FFD700" stroke-width="1.5044360165504906" /><path d="M 96.65469608811895,50.38931489393934 L 102.81938789698661,64.50284114755638 L 117.15825339934909,58.882166409144894 L 111.5375786609376,73.22103191150737 L 125.65110491455464,79.38572372037503 L 111.5375786609376,85.55041552924268 L 117.15825339934909,99.88928103160515 L 102.81938789698661,94.26860629319367 L 96.65469608811895,108.38213254681071 L 90.4900042792513,94.26860629319367 L 76.15113877688881,99.88928103160517 L 81.77181351530032,85.5504155292427 L 67.65828726168327,79.38572372037503 L 81.77181351530032,73.22103191150735 L 76.15113877688881,58.882166409144894 L 90.49000427925128,64.5028411475564 Z" fill="none" stroke="#FFD700" stroke-width="1.5044360165504906" /><path d="M 161.09116014686492,50.38931489393934 L 167.2558519557326,64.50284114755638 L 181.59471745809506,58.882166409144894 L 175.97404271968355,73.22103191150737 L 190.08756897330062,79.38572372037503 L 175.97404271968355,85.55041552924268 L 181.59471745809506,99.88928103160515 L 167.2558519557326,94.26860629319367 L 161.09116014686492,108.38213254681071 L 154.92646833799725,94.26860629319367 L 140.58760283563478,99.88928103160517 L 146.2082775740463,85.5504155292427 L 132.09475132042922,79.38572372037503 L 146.2082775740463,73.22103191150735 L 140.58760283563478,58.882166409144894 L 154.92646833799725,64.5028411475564 Z" fill="none" stroke="#FFD700" stroke-width="1.5044360165504906" /><path d="M 225.5276242056109,50.38931489393934 L 231.69231601447856,64.50284114755638 L 246.03118151684103,58.882166409144894 L 240.41050677842952,73.22103191150737 L 254.5240330320466,79.38572372037503 L 240.41050677842952,85.55041552924268 L 246.03118151684103,99.88928103160515 L 231.69231601447856,94.26860629319367 L 225.5276242056109,108.38213254681071 L 219.36293239674322,94.26860629319367 L 205.02406689438075,99.88928103160517 L 210.64474163279226,85.5504155292427 L 196.5312153791752,79.38572372037503 L 210.64474163279226,73.22103191150735 L 205.02406689438075,58.882166409144894 L 219.36293239674322,64.5028411475564 Z" fill="none" stroke="#FFD700" stroke-width="1.5044360165504906" /><path d="M 289.96408826435686,50.38931489393934 L 296.1287800732245,64.50284114755638 L 310.46764557558697,58.882166409144894 L 304.8469708371755,73.22103191150737 L 318.96049709079256,79.38572372037503 L 304.8469708371755,85.55041552924268 L 310.46764557558697,99.88928103160515 L 296.1287800732245,94.26860629319367 L 289.96408826435686,108.38213254681071 L 283.7993964554892,94.26860629319367 L 269.46053095312675,99.88928103160517 L 275.08120569153823,85.5504155292427 L 260.96767943792116,79.38572372037503 L 275.08120569153823,73.22103191150735 L 269.46053095312675,58.882166409144894 L 283.7993964554892,64.5028411475564 Z" fill="none" stroke="#FFD700" stroke-width="1.5044360165504906" /><path d="M 354.40055232310283,50.38931489393934 L 360.5652441319705,64.50284114755638 L 374.90410963433294,58.882166409144894 L 369.28343489592146,73.22103191150737 L 383.3969611495385,79.38572372037503 L 369.28343489592146,85.55041552924268 L 374.90410963433294,99.88928103160515 L 360.5652441319705,94.26860629319367 L 354.40055232310283,108.38213254681071 L 348.2358605142352,94.26860629319367 L 333.8969950118727,99.88928103160517 L 339.5176697502842,85.5504155292427 L 325.40414349666713,79.38572372037503 L 339.5176697502842,73.22103191150735 L 333.8969950118727,58.882166409144894 L 348.2358605142352,64.5028411475564 Z" fill="none" stroke="#FFD700" stroke-width="1.5044360165504906" /><path d="M 418.8370163818488,50.38931489393934 L 425.00170819071644,64.50284114755638 L 439.3405736930789,58.882166409144894 L 433.7198989546674,73.22103191150737 L 447.8334252082845,79.38572372037503 L 433.7198989546674,85.55041552924268 L 439.3405736930789,99.88928103160515 L 425.00170819071644,94.26860629319367 L 418.8370163818488,108.38213254681071 L 412.67232457298115,94.26860629319367 L 398.3334590706187,99.88928103160517 L 403.95413380903017,85.5504155292427 L 389.8406075554131,79.38572372037503 L 403.95413380903017,73.22103191150735 L 398.3334590706187,58.882166409144894 L 412.67232457298115,64.5028411475564 Z" fill="none" stroke="#FFD700" stroke-width="1.5044360165504906" /><path d="M 483.27348044059477,50.38931489393934 L 489.4381722494624,64.50284114755638 L 503.7770377518249,58.882166409144894 L 498.1563630134134,73.22103191150737 L 512.2698892670304,79.38572372037503 L 498.1563630134134,85.55041552924268 L 503.7770377518249,99.88928103160515 L 489.4381722494624,94.26860629319367 L 483.27348044059477,108.38213254681071 L 477.1087886317271,94.26860629319367 L 462.76992312936466,99.88928103160517 L 468.39059786777614,85.5504155292427 L 454.27707161415907,79.38572372037503 L 468.39059786777614,73.22103191150735 L 462.76992312936466,58.882166409144894 L 477.1087886317271,64.5028411475564 Z" fill="none" stroke="#FFD700" stroke-width="1.5044360165504906" /><path d="M 547.7099444993407,50.38931489393934 L 553.8746363082084,64.50284114755638 L 568.2135018105708,58.882166409144894 L 562.5928270721594,73.22103191150737 L 576.7063533257764,79.38572372037503 L 562.5928270721594,85.55041552924268 L 568.2135018105708,99.88928103160515 L 553.8746363082084,94.26860629319367 L 547.7099444993407,108.38213254681071 L 541.545252690473,94.26860629319367 L 527.2063871881106,99.88928103160517 L 532.8270619265221,85.5504155292427 L 518.7135356729051,79.38572372037503 L 532.8270619265221,73.22103191150735 L 527.2063871881106,58.882166409144894 L 541.545252690473,64.5028411475564 Z" fill="none" stroke="#FFD700" stroke-width="1.5044360165504906" /><path d="M 1.7755179628031262e-15,106.19129276881337 L 6.164691808867664,120.30481902243041 L 20.503557311230136,114.68414428401891 L 14.88288257281864,129.02300978638138 L 28.996408826435687,135.18770159524905 L 14.88288257281864,141.35239340411673 L 20.503557311230136,155.6912589064792 L 6.164691808867664,150.07058416806768 L 1.7755179628031262e-15,164.18411042168475 L -6.164691808867662,150.07058416806768 L -20.503557311230132,155.6912589064792 L -14.882882572818636,141.35239340411673 L -28.996408826435687,135.18770159524905 L -14.882882572818637,129.02300978638138 L -20.50355731123014,114.68414428401891 L -6.164691808867672,120.30481902243042 Z" fill="none" stroke="#FFD700" stroke-width="1.5044360165504906" /><path d="M 64.43646405874597,106.19129276881337 L 70.60115586761363,120.30481902243041 L 84.94002136997611,114.68414428401891 L 79.31934663156461,129.02300978638138 L 93.43287288518165,135.18770159524905 L 79.31934663156461,141.35239340411673 L 84.94002136997611,155.6912589064792 L 70.60115586761363,150.07058416806768 L 64.43646405874597,164.18411042168475 L 58.27177224987831,150.07058416806768 L 43.93290674751584,155.6912589064792 L 49.55358148592733,141.35239340411673 L 35.440055232310286,135.18770159524905 L 49.55358148592733,129.02300978638138 L 43.93290674751583,114.68414428401891 L 58.271772249878296,120.30481902243042 Z" fill="none" stroke="#FFD700" stroke-width="1.5044360165504906" /><path d="M 128.87292811749194,106.19129276881337 L 135.0376199263596,120.30481902243041 L 149.37648542872208,114.68414428401891 L 143.75581069031057,129.02300978638138 L 157.86933694392764,135.18770159524905 L 143.75581069031057,141.35239340411673 L 149.37648542872208,155.6912589064792 L 135.0376199263596,150.07058416806768 L 128.87292811749194,164.18411042168475 L 122.70823630862428,150.07058416806768 L 108.3693708062618,155.6912589064792 L 113.99004554467331,141.35239340411673 L 99.87651929105625,135.18770159524905 L 113.99004554467331,129.02300978638138 L 108.3693708062618,114.68414428401891 L 122.70823630862427,120.30481902243042 Z" fill="none" stroke="#FFD700" stroke-width="1.5044360165504906" /><path d="M 193.3093921762379,106.19129276881337 L 199.47408398510558,120.30481902243041 L 213.81294948746805,114.68414428401891 L 208.19227474905654,129.02300978638138 L 222.3058010026736,135.18770159524905 L 208.19227474905654,141.35239340411673 L 213.81294948746805,155.6912589064792 L 199.47408398510558,150.07058416806768 L 193.3093921762379,164.18411042168475 L 187.14470036737023,150.07058416806768 L 172.80583486500777,155.6912589064792 L 178.42650960341928,141.35239340411673 L 164.3129833498022,135.18770159524905 L 178.42650960341928,129.02300978638138 L 172.80583486500777,114.68414428401891 L 187.14470036737023,120.30481902243042 Z" fill="none" stroke="#FFD700" stroke-width="1.5044360165504906" /><path d="M 257.7458562349839,106.19129276881337 L 263.9105480438515,120.30481902243041 L 278.249413546214,114.68414428401891 L 272.6287388078025,129.02300978638138 L 286.7422650614196,135.18770159524905 L 272.6287388078025,141.35239340411673 L 278.249413546214,155.6912589064792 L 263.9105480438515,150.07058416806768 L 257.7458562349839,164.18411042168475 L 251.5811644261162,150.07058416806768 L 237.24229892375374,155.6912589064792 L 242.86297366216525,141.35239340411673 L 228.74944740854818,135.18770159524905 L 242.86297366216525,129.02300978638138 L 237.24229892375374,114.68414428401891 L 251.5811644261162,120.30481902243042 Z" fill="none" stroke="#FFD700" stroke-width="1.5044360165504906" /><path d="M 322.18232029372984,106.19129276881337 L 328.3470121025975,120.30481902243041 L 342.68587760495996,114.68414428401891 L 337.0652028665485,129.02300978638138 L 351.17872912016554,135.18770159524905 L 337.0652028665485,141.35239340411673 L 342.68587760495996,155.6912589064792 L 328.3470121025975,150.07058416806768 L 322.18232029372984,164.18411042168475 L 316.0176284848622,150.07058416806768 L 301.67876298249973,155.6912589064792 L 307.2994377209112,141.35239340411673 L 293.18591146729415,135.18770159524905 L 307.2994377209112,129.02300978638138 L 301.67876298249973,114.68414428401891 L 316.0176284848622,120.30481902243042 Z" fill="none" stroke="#FFD700" stroke-width="1.5044360165504906" /><path d="M 386.6187843524758,106.19129276881337 L 392.78347616134346,120.30481902243041 L 407.1223416637059,114.68414428401891 L 401.50166692529444,129.02300978638138 L 415.6151931789115,135.18770159524905 L 401.50166692529444,141.35239340411673 L 407.1223416637059,155.6912589064792 L 392.78347616134346,150.07058416806768 L 386.6187843524758,164.18411042168475 L 380.45409254360817,150.07058416806768 L 366.1152270412457,155.6912589064792 L 371.7359017796572,141.35239340411673 L 357.6223755260401,135.18770159524905 L 371.7359017796572,129.02300978638138 L 366.1152270412457,114.68414428401891 L 380.45409254360817,120.30481902243042 Z" fill="none" stroke="#FFD700" stroke-width="1.5044360165504906" /><path d="M 451.0552484112218,106.19129276881337 L 457.2199402200894,120.30481902243041 L 471.5588057224519,114.68414428401891 L 465.9381309840404,129.02300978638138 L 480.0516572376575,135.18770159524905 L 465.9381309840404,141.35239340411673 L 471.5588057224519,155.6912589064792 L 457.2199402200894,150.07058416806768 L 451.0552484112218,164.18411042168475 L 444.89055660235414,150.07058416806768 L 430.5516910999917,155.6912589064792 L 436.17236583840315,141.35239340411673 L 422.0588395847861,135.18770159524905 L 436.17236583840315,129.02300978638138 L 430.5516910999917,114.68414428401891 L 444.89055660235414,120.30481902243042 Z" fill="none" stroke="#FFD700" stroke-width="1.5044360165504906" /><path d="M 515.4917124699678,106.19129276881337 L 521.6564042788355,120.30481902243041 L 535.9952697811979,114.68414428401891 L 530.3745950427864,129.02300978638138 L 544.4881212964034,135.18770159524905 L 530.3745950427864,141.35239340411673 L 535.9952697811979,155.6912589064792 L 521.6564042788355,150.07058416806768 L 515.4917124699678,164.18411042168475 L 509.3270206611001,150.07058416806768 L 494.98815515873764,155.6912589064792 L 500.6088298971491,141.35239340411673 L 486.49530364353205,135.18770159524905 L 500.6088298971491,129.02300978638138 L 494.98815515873764,114.68414428401891 L 509.3270206611001,120.30481902243042 Z" fill="none" stroke="#FFD700" stroke-width="1.5044360165504906" /><path d="M -32.218232029372984,161.99327064368734 L -26.05354022050532,176.1067968973044 L -11.714674718142849,170.4861221588929 L -17.335349456554347,184.82498766125536 L -3.2218232029372977,190.98967947012304 L -17.335349456554347,197.1543712789907 L -11.714674718142849,211.49323678135318 L -26.05354022050532,205.87256204294167 L -32.218232029372984,219.98608829655873 L -38.38292383824064,205.87256204294167 L -52.72178934060312,211.49323678135318 L -47.10111460219162,197.1543712789907 L -61.21464085580867,190.98967947012304 L -47.10111460219162,184.82498766125536 L -52.721789340603124,170.4861221588929 L -38.38292383824066,176.1067968973044 Z" fill="none" stroke="#FFD700" stroke-width="1.5044360165504906" /><path d="M 32.218232029372984,161.99327064368734 L 38.38292383824065,176.1067968973044 L 52.721789340603124,170.4861221588929 L 47.10111460219162,184.82498766125536 L 61.21464085580867,190.98967947012304 L 47.10111460219162,197.1543712789907 L 52.721789340603124,211.49323678135318 L 38.38292383824065,205.87256204294167 L 32.218232029372984,219.98608829655873 L 26.053540220505322,205.87256204294167 L 11.714674718142852,211.49323678135318 L 17.335349456554347,197.1543712789907 L 3.2218232029372977,190.98967947012304 L 17.335349456554347,184.82498766125536 L 11.714674718142845,170.4861221588929 L 26.05354022050531,176.1067968973044 Z" fill="none" stroke="#FFD700" stroke-width="1.5044360165504906" /><path d="M 96.65469608811895,161.99327064368734 L 102.81938789698661,176.1067968973044 L 117.15825339934909,170.4861221588929 L 111.5375786609376,184.82498766125536 L 125.65110491455464,190.98967947012304 L 111.5375786609376,197.1543712789907 L 117.15825339934909,211.49323678135318 L 102.81938789698661,205.87256204294167 L 96.65469608811895,219.98608829655873 L 90.4900042792513,205.87256204294167 L 76.15113877688881,211.49323678135318 L 81.77181351530032,197.1543712789907 L 67.65828726168327,190.98967947012304 L 81.77181351530032,184.82498766125536 L 76.15113877688881,170.4861221588929 L 90.49000427925128,176.1067968973044 Z" fill="none" stroke="#FFD700" stroke-width="1.5044360165504906" /><path d="M 161.09116014686492,161.99327064368734 L 167.2558519557326,176.1067968973044 L 181.59471745809506,170.4861221588929 L 175.97404271968355,184.82498766125536 L 190.08756897330062,190.98967947012304 L 175.97404271968355,197.1543712789907 L 181.59471745809506,211.49323678135318 L 167.2558519557326,205.87256204294167 L 161.09116014686492,219.98608829655873 L 154.92646833799725,205.87256204294167 L 140.58760283563478,211.49323678135318 L 146.2082775740463,197.1543712789907 L 132.09475132042922,190.98967947012304 L 146.2082775740463,184.82498766125536 L 140.58760283563478,170.4861221588929 L 154.92646833799725,176.1067968973044 Z" fill="none" stroke="#FFD700" stroke-width="1.5044360165504906" /><path d="M 225.5276242056109,161.99327064368734 L 231.69231601447856,176.1067968973044 L 246.03118151684103,170.4861221588929 L 240.41050677842952,184.82498766125536 L 254.5240330320466,190.98967947012304 L 240.41050677842952,197.1543712789907 L 246.03118151684103,211.49323678135318 L 231.69231601447856,205.87256204294167 L 225.5276242056109,219.98608829655873 L 219.36293239674322,205.87256204294167 L 205.02406689438075,211.49323678135318 L 210.64474163279226,197.1543712789907 L 196.5312153791752,190.98967947012304 L 210.64474163279226,184.82498766125536 L 205.02406689438075,170.4861221588929 L 219.36293239674322,176.1067968973044 Z" fill="none" stroke="#FFD700" stroke-width="1.5044360165504906" /><path d="M 289.96408826435686,161.99327064368734 L 296.1287800732245,176.1067968973044 L 310.46764557558697,170.4861221588929 L 304.8469708371755,184.82498766125536 L 318.96049709079256,190.98967947012304 L 304.8469708371755,197.1543712789907 L 310.46764557558697,211.49323678135318 L 296.1287800732245,205.87256204294167 L 289.96408826435686,219.98608829655873 L 283.7993964554892,205.87256204294167 L 269.46053095312675,211.49323678135318 L 275.08120569153823,197.1543712789907 L 260.96767943792116,190.98967947012304 L 275.08120569153823,184.82498766125536 L 269.46053095312675,170.4861221588929 L 283.7993964554892,176.1067968973044 Z" fill="none" stroke="#FFD700" stroke-width="1.5044360165504906" /><path d="M 354.40055232310283,161.99327064368734 L 360.5652441319705,176.1067968973044 L 374.90410963433294,170.4861221588929 L 369.28343489592146,184.82498766125536 L 383.3969611495385,190.98967947012304 L 369.28343489592146,197.1543712789907 L 374.90410963433294,211.49323678135318 L 360.5652441319705,205.87256204294167 L 354.40055232310283,219.98608829655873 L 348.2358605142352,205.87256204294167 L 333.8969950118727,211.49323678135318 L 339.5176697502842,197.1543712789907 L 325.40414349666713,190.98967947012304 L 339.5176697502842,184.82498766125536 L 333.8969950118727,170.4861221588929 L 348.2358605142352,176.1067968973044 Z" fill="none" stroke="#FFD700" stroke-width="1.5044360165504906" /><path d="M 418.8370163818488,161.99327064368734 L 425.00170819071644,176.1067968973044 L 439.3405736930789,170.4861221588929 L 433.7198989546674,184.82498766125536 L 447.8334252082845,190.98967947012304 L 433.7198989546674,197.1543712789907 L 439.3405736930789,211.49323678135318 L 425.00170819071644,205.87256204294167 L 418.8370163818488,219.98608829655873 L 412.67232457298115,205.87256204294167 L 398.3334590706187,211.49323678135318 L 403.95413380903017,197.1543712789907 L 389.8406075554131,190.98967947012304 L 403.95413380903017,184.82498766125536 L 398.3334590706187,170.4861221588929 L 412.67232457298115,176.1067968973044 Z" fill="none" stroke="#FFD700" stroke-width="1.5044360165504906" /><path d="M 483.27348044059477,161.99327064368734 L 489.4381722494624,176.1067968973044 L 503.7770377518249,170.4861221588929 L 498.1563630134134,184.82498766125536 L 512.2698892670304,190.98967947012304 L 498.1563630134134,197.1543712789907 L 503.7770377518249,211.49323678135318 L 489.4381722494624,205.87256204294167 L 483.27348044059477,219.98608829655873 L 477.1087886317271,205.87256204294167 L 462.76992312936466,211.49323678135318 L 468.39059786777614,197.1543712789907 L 454.27707161415907,190.98967947012304 L 468.39059786777614,184.82498766125536 L 462.76992312936466,170.4861221588929 L 477.1087886317271,176.1067968973044 Z" fill="none" stroke="#FFD700" stroke-width="1.5044360165504906" /><path d="M 547.7099444993407,161.99327064368734 L 553.8746363082084,176.1067968973044 L 568.2135018105708,170.4861221588929 L 562.5928270721594,184.82498766125536 L 576.7063533257764,190.98967947012304 L 562.5928270721594,197.1543712789907 L 568.2135018105708,211.49323678135318 L 553.8746363082084,205.87256204294167 L 547.7099444993407,219.98608829655873 L 541.545252690473,205.87256204294167 L 527.2063871881106,211.49323678135318 L 532.8270619265221,197.1543712789907 L 518.7135356729051,190.98967947012304 L 532.8270619265221,184.82498766125536 L 527.2063871881106,170.4861221588929 L 541.545252690473,176.1067968973044 Z" fill="none" stroke="#FFD700" stroke-width="1.5044360165504906" /><path d="M 1.7755179628031262e-15,217.79524851856138 L 6.164691808867664,231.90877477217845 L 20.503557311230136,226.28810003376694 L 14.88288257281864,240.6269655361294 L 28.996408826435687,246.79165734499708 L 14.88288257281864,252.95634915386475 L 20.503557311230136,267.2952146562272 L 6.164691808867664,261.6745399178157 L 1.7755179628031262e-15,275.7880661714328 L -6.164691808867662,261.6745399178157 L -20.503557311230132,267.2952146562272 L -14.882882572818636,252.95634915386475 L -28.996408826435687,246.79165734499708 L -14.882882572818637,240.6269655361294 L -20.50355731123014,226.28810003376694 L -6.164691808867672,231.90877477217845 Z" fill="none" stroke="#FFD700" stroke-width="1.5044360165504906" /><path d="M 64.43646405874597,217.79524851856138 L 70.60115586761363,231.90877477217845 L 84.94002136997611,226.28810003376694 L 79.31934663156461,240.6269655361294 L 93.43287288518165,246.79165734499708 L 79.31934663156461,252.95634915386475 L 84.94002136997611,267.2952146562272 L 70.60115586761363,261.6745399178157 L 64.43646405874597,275.7880661714328 L 58.27177224987831,261.6745399178157 L 43.93290674751584,267.2952146562272 L 49.55358148592733,252.95634915386475 L 35.440055232310286,246.79165734499708 L 49.55358148592733,240.6269655361294 L 43.93290674751583,226.28810003376694 L 58.271772249878296,231.90877477217845 Z" fill="none" stroke="#FFD700" stroke-width="1.5044360165504906" /><path d="M 128.87292811749194,217.79524851856138 L 135.0376199263596,231.90877477217845 L 149.37648542872208,226.28810003376694 L 143.75581069031057,240.6269655361294 L 157.86933694392764,246.79165734499708 L 143.75581069031057,252.95634915386475 L 149.37648542872208,267.2952146562272 L 135.0376199263596,261.6745399178157 L 128.87292811749194,275.7880661714328 L 122.70823630862428,261.6745399178157 L 108.3693708062618,267.2952146562272 L 113.99004554467331,252.95634915386475 L 99.87651929105625,246.79165734499708 L 113.99004554467331,240.6269655361294 L 108.3693708062618,226.28810003376694 L 122.70823630862427,231.90877477217845 Z" fill="none" stroke="#FFD700" stroke-width="1.5044360165504906" /><path d="M 193.3093921762379,217.79524851856138 L 199.47408398510558,231.90877477217845 L 213.81294948746805,226.28810003376694 L 208.19227474905654,240.6269655361294 L 222.3058010026736,246.79165734499708 L 208.19227474905654,252.95634915386475 L 213.81294948746805,267.2952146562272 L 199.47408398510558,261.6745399178157 L 193.3093921762379,275.7880661714328 L 187.14470036737023,261.6745399178157 L 172.80583486500777,267.2952146562272 L 178.42650960341928,252.95634915386475 L 164.3129833498022,246.79165734499708 L 178.42650960341928,240.6269655361294 L 172.80583486500777,226.28810003376694 L 187.14470036737023,231.90877477217845 Z" fill="none" stroke="#FFD700" stroke-width="1.5044360165504906" /><path d="M 257.7458562349839,217.79524851856138 L 263.9105480438515,231.90877477217845 L 278.249413546214,226.28810003376694 L 272.6287388078025,240.6269655361294 L 286.7422650614196,246.79165734499708 L 272.6287388078025,252.95634915386475 L 278.249413546214,267.2952146562272 L 263.9105480438515,261.6745399178157 L 257.7458562349839,275.7880661714328 L 251.5811644261162,261.6745399178157 L 237.24229892375374,267.2952146562272 L 242.86297366216525,252.95634915386475 L 228.74944740854818,246.79165734499708 L 242.86297366216525,240.6269655361294 L 237.24229892375374,226.28810003376694 L 251.5811644261162,231.90877477217845 Z" fill="none" stroke="#FFD700" stroke-width="1.5044360165504906" /><path d="M 322.18232029372984,217.79524851856138 L 328.3470121025975,231.90877477217845 L 342.68587760495996,226.28810003376694 L 337.0652028665485,240.6269655361294 L 351.17872912016554,246.79165734499708 L 337.0652028665485,252.95634915386475 L 342.68587760495996,267.2952146562272 L 328.3470121025975,261.6745399178157 L 322.18232029372984,275.7880661714328 L 316.0176284848622,261.6745399178157 L 301.67876298249973,267.2952146562272 L 307.2994377209112,252.95634915386475 L 293.18591146729415,246.79165734499708 L 307.2994377209112,240.6269655361294 L 301.67876298249973,226.28810003376694 L 316.0176284848622,231.90877477217845 Z" fill="none" stroke="#FFD700" stroke-width="1.5044360165504906" /><path d="M 386.6187843524758,217.79524851856138 L 392.78347616134346,231.90877477217845 L 407.1223416637059,226.28810003376694 L 401.50166692529444,240.6269655361294 L 415.6151931789115,246.79165734499708 L 401.50166692529444,252.95634915386475 L 407.1223416637059,267.2952146562272 L 392.78347616134346,261.6745399178157 L 386.6187843524758,275.7880661714328 L 380.45409254360817,261.6745399178157 L 366.1152270412457,267.2952146562272 L 371.7359017796572,252.95634915386475 L 357.6223755260401,246.79165734499708 L 371.7359017796572,240.6269655361294 L 366.1152270412457,226.28810003376694 L 380.45409254360817,231.90877477217845 Z" fill="none" stroke="#FFD700" stroke-width="1.5044360165504906" /><path d="M 451.0552484112218,217.79524851856138 L 457.2199402200894,231.90877477217845 L 471.5588057224519,226.28810003376694 L 465.9381309840404,240.6269655361294 L 480.0516572376575,246.79165734499708 L 465.9381309840404,252.95634915386475 L 471.5588057224519,267.2952146562272 L 457.2199402200894,261.6745399178157 L 451.0552484112218,275.7880661714328 L 444.89055660235414,261.6745399178157 L 430.5516910999917,267.2952146562272 L 436.17236583840315,252.95634915386475 L 422.0588395847861,246.79165734499708 L 436.17236583840315,240.6269655361294 L 430.5516910999917,226.28810003376694 L 444.89055660235414,231.90877477217845 Z" fill="none" stroke="#FFD700" stroke-width="1.5044360165504906" /><path d="M 515.4917124699678,217.79524851856138 L 521.6564042788355,231.90877477217845 L 535.9952697811979,226.28810003376694 L 530.3745950427864,240.6269655361294 L 544.4881212964034,246.79165734499708 L 530.3745950427864,252.95634915386475 L 535.9952697811979,267.2952146562272 L 521.6564042788355,261.6745399178157 L 515.4917124699678,275.7880661714328 L 509.3270206611001,261.6745399178157 L 494.98815515873764,267.2952146562272 L 500.6088298971491,252.95634915386475 L 486.49530364353205,246.79165734499708 L 500.6088298971491,240.6269655361294 L 494.98815515873764,226.28810003376694 L 509.3270206611001,231.90877477217845 Z" fill="none" stroke="#FFD700" stroke-width="1.5044360165504906" /><path d="M -32.218232029372984,273.5972263934354 L -26.05354022050532,287.71075264705246 L -11.714674718142849,282.090077908641 L -17.335349456554347,296.42894341100344 L -3.2218232029372977,302.5936352198711 L -17.335349456554347,308.75832702873873 L -11.714674718142849,323.0971925311012 L -26.05354022050532,317.4765177926897 L -32.218232029372984,331.5900440463068 L -38.38292383824064,317.4765177926897 L -52.72178934060312,323.0971925311012 L -47.10111460219162,308.75832702873873 L -61.21464085580867,302.5936352198711 L -47.10111460219162,296.42894341100344 L -52.721789340603124,282.090077908641 L -38.38292383824066,287.71075264705246 Z" fill="none" stroke="#FFD700" stroke-width="1.5044360165504906" /><path d="M 32.218232029372984,273.5972263934354 L 38.38292383824065,287.71075264705246 L 52.721789340603124,282.090077908641 L 47.10111460219162,296.42894341100344 L 61.21464085580867,302.5936352198711 L 47.10111460219162,308.75832702873873 L 52.721789340603124,323.0971925311012 L 38.38292383824065,317.4765177926897 L 32.218232029372984,331.5900440463068 L 26.053540220505322,317.4765177926897 L 11.714674718142852,323.0971925311012 L 17.335349456554347,308.75832702873873 L 3.2218232029372977,302.5936352198711 L 17.335349456554347,296.42894341100344 L 11.714674718142845,282.090077908641 L 26.05354022050531,287.71075264705246 Z" fill="none" stroke="#FFD700" stroke-width="1.5044360165504906" /><path d="M 96.65469608811895,273.5972263934354 L 102.81938789698661,287.71075264705246 L 117.15825339934909,282.090077908641 L 111.5375786609376,296.42894341100344 L 125.65110491455464,302.5936352198711 L 111.5375786609376,308.75832702873873 L 117.15825339934909,323.0971925311012 L 102.81938789698661,317.4765177926897 L 96.65469608811895,331.5900440463068 L 90.4900042792513,317.4765177926897 L 76.15113877688881,323.0971925311012 L 81.77181351530032,308.75832702873873 L 67.65828726168327,302.5936352198711 L 81.77181351530032,296.42894341100344 L 76.15113877688881,282.090077908641 L 90.49000427925128,287.71075264705246 Z" fill="none" stroke="#FFD700" stroke-width="1.5044360165504906" /><path d="M 161.09116014686492,273.5972263934354 L 167.2558519557326,287.71075264705246 L 181.59471745809506,282.090077908641 L 175.97404271968355,296.42894341100344 L 190.08756897330062,302.5936352198711 L 175.97404271968355,308.75832702873873 L 181.59471745809506,323.0971925311012 L 167.2558519557326,317.4765177926897 L 161.09116014686492,331.5900440463068 L 154.92646833799725,317.4765177926897 L 140.58760283563478,323.0971925311012 L 146.2082775740463,308.75832702873873 L 132.09475132042922,302.5936352198711 L 146.2082775740463,296.42894341100344 L 140.58760283563478,282.090077908641 L 154.92646833799725,287.71075264705246 Z" fill="none" stroke="#FFD700" stroke-width="1.5044360165504906" /><path d="M 225.5276242056109,273.5972263934354 L 231.69231601447856,287.71075264705246 L 246.03118151684103,282.090077908641 L 240.41050677842952,296.42894341100344 L 254.5240330320466,302.5936352198711 L 240.41050677842952,308.75832702873873 L 246.03118151684103,323.0971925311012 L 231.69231601447856,317.4765177926897 L 225.5276242056109,331.5900440463068 L 219.36293239674322,317.4765177926897 L 205.02406689438075,323.0971925311012 L 210.64474163279226,308.75832702873873 L 196.5312153791752,302.5936352198711 L 210.64474163279226,296.42894341100344 L 205.02406689438075,282.090077908641 L 219.36293239674322,287.71075264705246 Z" fill="none" stroke="#FFD700" stroke-width="1.5044360165504906" /><path d="M 289.96408826435686,273.5972263934354 L 296.1287800732245,287.71075264705246 L 310.46764557558697,282.090077908641 L 304.8469708371755,296.42894341100344 L 318.96049709079256,302.5936352198711 L 304.8469708371755,308.75832702873873 L 310.46764557558697,323.0971925311012 L 296.1287800732245,317.4765177926897 L 289.96408826435686,331.5900440463068 L 283.7993964554892,317.4765177926897 L 269.46053095312675,323.0971925311012 L 275.08120569153823,308.75832702873873 L 260.96767943792116,302.5936352198711 L 275.08120569153823,296.42894341100344 L 269.46053095312675,282.090077908641 L 283.7993964554892,287.71075264705246 Z" fill="none" stroke="#FFD700" stroke-width="1.5044360165504906" /><path d="M 354.40055232310283,273.5972263934354 L 360.5652441319705,287.71075264705246 L 374.90410963433294,282.090077908641 L 369.28343489592146,296.42894341100344 L 383.3969611495385,302.5936352198711 L 369.28343489592146,308.75832702873873 L 374.90410963433294,323.0971925311012 L 360.5652441319705,317.4765177926897 L 354.40055232310283,331.5900440463068 L 348.2358605142352,317.4765177926897 L 333.8969950118727,323.0971925311012 L 339.5176697502842,308.75832702873873 L 325.40414349666713,302.5936352198711 L 339.5176697502842,296.42894341100344 L 333.8969950118727,282.090077908641 L 348.2358605142352,287.71075264705246 Z" fill="none" stroke="#FFD700" stroke-width="1.5044360165504906" /><path d="M 418.8370163818488,273.5972263934354 L 425.00170819071644,287.71075264705246 L 439.3405736930789,282.090077908641 L 433.7198989546674,296.42894341100344 L 447.8334252082845,302.5936352198711 L 433.7198989546674,308.75832702873873 L 439.3405736930789,323.0971925311012 L 425.00170819071644,317.4765177926897 L 418.8370163818488,331.5900440463068 L 412.67232457298115,317.4765177926897 L 398.3334590706187,323.0971925311012 L 403.95413380903017,308.75832702873873 L 389.8406075554131,302.5936352198711 L 403.95413380903017,296.42894341100344 L 398.3334590706187,282.090077908641 L 412.67232457298115,287.71075264705246 Z" fill="none" stroke="#FFD700" stroke-width="1.5044360165504906" /><path d="M 483.27348044059477,273.5972263934354 L 489.4381722494624,287.71075264705246 L 503.7770377518249,282.090077908641 L 498.1563630134134,296.42894341100344 L 512.2698892670304,302.5936352198711 L 498.1563630134134,308.75832702873873 L 503.7770377518249,323.0971925311012 L 489.4381722494624,317.4765177926897 L 483.27348044059477,331.5900440463068 L 477.1087886317271,317.4765177926897 L 462.76992312936466,323.0971925311012 L 468.39059786777614,308.75832702873873 L 454.27707161415907,302.5936352198711 L 468.39059786777614,296.42894341100344 L 462.76992312936466,282.090077908641 L 477.1087886317271,287.71075264705246 Z" fill="none" stroke="#FFD700" stroke-width="1.5044360165504906" /><path d="M 547.7099444993407,273.5972263934354 L 553.8746363082084,287.71075264705246 L 568.2135018105708,282.090077908641 L 562.5928270721594,296.42894341100344 L 576.7063533257764,302.5936352198711 L 562.5928270721594,308.75832702873873 L 568.2135018105708,323.0971925311012 L 553.8746363082084,317.4765177926897 L 547.7099444993407,331.5900440463068 L 541.545252690473,317.4765177926897 L 527.2063871881106,323.0971925311012 L 532.8270619265221,308.75832702873873 L 518.7135356729051,302.5936352198711 L 532.8270619265221,296.42894341100344 L 527.2063871881106,282.090077908641 L 541.545252690473,287.71075264705246 Z" fill="none" stroke="#FFD700" stroke-width="1.5044360165504906" /><path d="M 1.7755179628031262e-15,329.3992042683094 L 6.164691808867664,343.51273052192647 L 20.503557311230136,337.892055783515 L 14.88288257281864,352.23092128587746 L 28.996408826435687,358.3956130947451 L 14.88288257281864,364.56030490361275 L 20.503557311230136,378.8991704059752 L 6.164691808867664,373.27849566756373 L 1.7755179628031262e-15,387.3920219211808 L -6.164691808867662,373.27849566756373 L -20.503557311230132,378.8991704059752 L -14.882882572818636,364.56030490361275 L -28.996408826435687,358.3956130947451 L -14.882882572818637,352.23092128587746 L -20.50355731123014,337.892055783515 L -6.164691808867672,343.51273052192647 Z" fill="none" stroke="#FFD700" stroke-width="1.5044360165504906" /><path d="M 64.43646405874597,329.3992042683094 L 70.60115586761363,343.51273052192647 L 84.94002136997611,337.892055783515 L 79.31934663156461,352.23092128587746 L 93.43287288518165,358.3956130947451 L 79.31934663156461,364.56030490361275 L 84.94002136997611,378.8991704059752 L 70.60115586761363,373.27849566756373 L 64.43646405874597,387.3920219211808 L 58.27177224987831,373.27849566756373 L 43.93290674751584,378.8991704059752 L 49.55358148592733,364.56030490361275 L 35.440055232310286,358.3956130947451 L 49.55358148592733,352.23092128587746 L 43.93290674751583,337.892055783515 L 58.271772249878296,343.51273052192647 Z" fill="none" stroke="#FFD700" stroke-width="1.5044360165504906" /><path d="M 128.87292811749194,329.3992042683094 L 135.0376199263596,343.51273052192647 L 149.37648542872208,337.892055783515 L 143.75581069031057,352.23092128587746 L 157.86933694392764,358.3956130947451 L 143.75581069031057,364.56030490361275 L 149.37648542872208,378.8991704059752 L 135.0376199263596,373.27849566756373 L 128.87292811749194,387.3920219211808 L 122.70823630862428,373.27849566756373 L 108.3693708062618,378.8991704059752 L 113.99004554467331,364.56030490361275 L 99.87651929105625,358.3956130947451 L 113.99004554467331,352.23092128587746 L 108.3693708062618,337.892055783515 L 122.70823630862427,343.51273052192647 Z" fill="none" stroke="#FFD700" stroke-width="1.5044360165504906" /><path d="M 193.3093921762379,329.3992042683094 L 199.47408398510558,343.51273052192647 L 213.81294948746805,337.892055783515 L 208.19227474905654,352.23092128587746 L 222.3058010026736,358.3956130947451 L 208.19227474905654,364.56030490361275 L 213.81294948746805,378.8991704059752 L 199.47408398510558,373.27849566756373 L 193.3093921762379,387.3920219211808 L 187.14470036737023,373.27849566756373 L 172.80583486500777,378.8991704059752 L 178.42650960341928,364.56030490361275 L 164.3129833498022,358.3956130947451 L 178.42650960341928,352.23092128587746 L 172.80583486500777,337.892055783515 L 187.14470036737023,343.51273052192647 Z" fill="none" stroke="#FFD700" stroke-width="1.5044360165504906" /><path d="M 257.7458562349839,329.3992042683094 L 263.9105480438515,343.51273052192647 L 278.249413546214,337.892055783515 L 272.6287388078025,352.23092128587746 L 286.7422650614196,358.3956130947451 L 272.6287388078025,364.56030490361275 L 278.249413546214,378.8991704059752 L 263.9105480438515,373.27849566756373 L 257.7458562349839,387.3920219211808 L 251.5811644261162,373.27849566756373 L 237.24229892375374,378.8991704059752 L 242.86297366216525,364.56030490361275 L 228.74944740854818,358.3956130947451 L 242.86297366216525,352.23092128587746 L 237.24229892375374,337.892055783515 L 251.5811644261162,343.51273052192647 Z" fill="none" stroke="#FFD700" stroke-width="1.5044360165504906" /><path d="M 322.18232029372984,329.3992042683094 L 328.3470121025975,343.51273052192647 L 342.68587760495996,337.892055783515 L 337.0652028665485,352.23092128587746 L 351.17872912016554,358.3956130947451 L 337.0652028665485,364.56030490361275 L 342.68587760495996,378.8991704059752 L 328.3470121025975,373.27849566756373 L 322.18232029372984,387.3920219211808 L 316.0176284848622,373.27849566756373 L 301.67876298249973,378.8991704059752 L 307.2994377209112,364.56030490361275 L 293.18591146729415,358.3956130947451 L 307.2994377209112,352.23092128587746 L 301.67876298249973,337.892055783515 L 316.0176284848622,343.51273052192647 Z" fill="none" stroke="#FFD700" stroke-width="1.5044360165504906" /><path d="M 386.6187843524758,329.3992042683094 L 392.78347616134346,343.51273052192647 L 407.1223416637059,337.892055783515 L 401.50166692529444,352.23092128587746 L 415.6151931789115,358.3956130947451 L 401.50166692529444,364.56030490361275 L 407.1223416637059,378.8991704059752 L 392.78347616134346,373.27849566756373 L 386.6187843524758,387.3920219211808 L 380.45409254360817,373.27849566756373 L 366.1152270412457,378.8991704059752 L 371.7359017796572,364.56030490361275 L 357.6223755260401,358.3956130947451 L 371.7359017796572,352.23092128587746 L 366.1152270412457,337.892055783515 L 380.45409254360817,343.51273052192647 Z" fill="none" stroke="#FFD700" stroke-width="1.5044360165504906" /><path d="M 451.0552484112218,329.3992042683094 L 457.2199402200894,343.51273052192647 L 471.5588057224519,337.892055783515 L 465.9381309840404,352.23092128587746 L 480.0516572376575,358.3956130947451 L 465.9381309840404,364.56030490361275 L 471.5588057224519,378.8991704059752 L 457.2199402200894,373.27849566756373 L 451.0552484112218,387.3920219211808 L 444.89055660235414,373.27849566756373 L 430.5516910999917,378.8991704059752 L 436.17236583840315,364.56030490361275 L 422.0588395847861,358.3956130947451 L 436.17236583840315,352.23092128587746 L 430.5516910999917,337.892055783515 L 444.89055660235414,343.51273052192647 Z" fill="none" stroke="#FFD700" stroke-width="1.5044360165504906" /><path d="M 515.4917124699678,329.3992042683094 L 521.6564042788355,343.51273052192647 L 535.9952697811979,337.892055783515 L 530.3745950427864,352.23092128587746 L 544.4881212964034,358.3956130947451 L 530.3745950427864,364.56030490361275 L 535.9952697811979,378.8991704059752 L 521.6564042788355,373.27849566756373 L 515.4917124699678,387.3920219211808 L 509.3270206611001,373.27849566756373 L 494.98815515873764,378.8991704059752 L 500.6088298971491,364.56030490361275 L 486.49530364353205,358.3956130947451 L 500.6088298971491,352.23092128587746 L 494.98815515873764,337.892055783515 L 509.3270206611001,343.51273052192647 Z" fill="none" stroke="#FFD700" stroke-width="1.5044360165504906" /><path d="M -32.218232029372984,385.20118214318336 L -26.05354022050532,399.3147083968004 L -11.714674718142849,393.69403365838895 L -17.335349456554347,408.0328991607514 L -3.2218232029372977,414.19759096961906 L -17.335349456554347,420.3622827784867 L -11.714674718142849,434.70114828084917 L -26.05354022050532,429.0804735424377 L -32.218232029372984,443.19399979605475 L -38.38292383824064,429.0804735424377 L -52.72178934060312,434.70114828084917 L -47.10111460219162,420.3622827784867 L -61.21464085580867,414.19759096961906 L -47.10111460219162,408.0328991607514 L -52.721789340603124,393.69403365838895 L -38.38292383824066,399.3147083968004 Z" fill="none" stroke="#FFD700" stroke-width="1.5044360165504906" /><path d="M 32.218232029372984,385.20118214318336 L 38.38292383824065,399.3147083968004 L 52.721789340603124,393.69403365838895 L 47.10111460219162,408.0328991607514 L 61.21464085580867,414.19759096961906 L 47.10111460219162,420.3622827784867 L 52.721789340603124,434.70114828084917 L 38.38292383824065,429.0804735424377 L 32.218232029372984,443.19399979605475 L 26.053540220505322,429.0804735424377 L 11.714674718142852,434.70114828084917 L 17.335349456554347,420.3622827784867 L 3.2218232029372977,414.19759096961906 L 17.335349456554347,408.0328991607514 L 11.714674718142845,393.69403365838895 L 26.05354022050531,399.3147083968004 Z" fill="none" stroke="#FFD700" stroke-width="1.5044360165504906" /><path d="M 96.65469608811895,385.20118214318336 L 102.81938789698661,399.3147083968004 L 117.15825339934909,393.69403365838895 L 111.5375786609376,408.0328991607514 L 125.65110491455464,414.19759096961906 L 111.5375786609376,420.3622827784867 L 117.15825339934909,434.70114828084917 L 102.81938789698661,429.0804735424377 L 96.65469608811895,443.19399979605475 L 90.4900042792513,429.0804735424377 L 76.15113877688881,434.70114828084917 L 81.77181351530032,420.3622827784867 L 67.65828726168327,414.19759096961906 L 81.77181351530032,408.0328991607514 L 76.15113877688881,393.69403365838895 L 90.49000427925128,399.3147083968004 Z" fill="none" stroke="#FFD700" stroke-width="1.5044360165504906" /><path d="M 161.09116014686492,385.20118214318336 L 167.2558519557326,399.3147083968004 L 181.59471745809506,393.69403365838895 L 175.97404271968355,408.0328991607514 L 190.08756897330062,414.19759096961906 L 175.97404271968355,420.3622827784867 L 181.59471745809506,434.70114828084917 L 167.2558519557326,429.0804735424377 L 161.09116014686492,443.19399979605475 L 154.92646833799725,429.0804735424377 L 140.58760283563478,434.70114828084917 L 146.2082775740463,420.3622827784867 L 132.09475132042922,414.19759096961906 L 146.2082775740463,408.0328991607514 L 140.58760283563478,393.69403365838895 L 154.92646833799725,399.3147083968004 Z" fill="none" stroke="#FFD700" stroke-width="1.5044360165504906" /><path d="M 225.5276242056109,385.20118214318336 L 231.69231601447856,399.3147083968004 L 246.03118151684103,393.69403365838895 L 240.41050677842952,408.0328991607514 L 254.5240330320466,414.19759096961906 L 240.41050677842952,420.3622827784867 L 246.03118151684103,434.70114828084917 L 231.69231601447856,429.0804735424377 L 225.5276242056109,443.19399979605475 L 219.36293239674322,429.0804735424377 L 205.02406689438075,434.70114828084917 L 210.64474163279226,420.3622827784867 L 196.5312153791752,414.19759096961906 L 210.64474163279226,408.0328991607514 L 205.02406689438075,393.69403365838895 L 219.36293239674322,399.3147083968004 Z" fill="none" stroke="#FFD700" stroke-width="1.5044360165504906" /><path d="M 289.96408826435686,385.20118214318336 L 296.1287800732245,399.3147083968004 L 310.46764557558697,393.69403365838895 L 304.8469708371755,408.0328991607514 L 318.96049709079256,414.19759096961906 L 304.8469708371755,420.3622827784867 L 310.46764557558697,434.70114828084917 L 296.1287800732245,429.0804735424377 L 289.96408826435686,443.19399979605475 L 283.7993964554892,429.0804735424377 L 269.46053095312675,434.70114828084917 L 275.08120569153823,420.3622827784867 L 260.96767943792116,414.19759096961906 L 275.08120569153823,408.0328991607514 L 269.46053095312675,393.69403365838895 L 283.7993964554892,399.3147083968004 Z" fill="none" stroke="#FFD700" stroke-width="1.5044360165504906" /><path d="M 354.40055232310283,385.20118214318336 L 360.5652441319705,399.3147083968004 L 374.90410963433294,393.69403365838895 L 369.28343489592146,408.0328991607514 L 383.3969611495385,414.19759096961906 L 369.28343489592146,420.3622827784867 L 374.90410963433294,434.70114828084917 L 360.5652441319705,429.0804735424377 L 354.40055232310283,443.19399979605475 L 348.2358605142352,429.0804735424377 L 333.8969950118727,434.70114828084917 L 339.5176697502842,420.3622827784867 L 325.40414349666713,414.19759096961906 L 339.5176697502842,408.0328991607514 L 333.8969950118727,393.69403365838895 L 348.2358605142352,399.3147083968004 Z" fill="none" stroke="#FFD700" stroke-width="1.5044360165504906" /><path d="M 418.8370163818488,385.20118214318336 L 425.00170819071644,399.3147083968004 L 439.3405736930789,393.69403365838895 L 433.7198989546674,408.0328991607514 L 447.8334252082845,414.19759096961906 L 433.7198989546674,420.3622827784867 L 439.3405736930789,434.70114828084917 L 425.00170819071644,429.0804735424377 L 418.8370163818488,443.19399979605475 L 412.67232457298115,429.0804735424377 L 398.3334590706187,434.70114828084917 L 403.95413380903017,420.3622827784867 L 389.8406075554131,414.19759096961906 L 403.95413380903017,408.0328991607514 L 398.3334590706187,393.69403365838895 L 412.67232457298115,399.3147083968004 Z" fill="none" stroke="#FFD700" stroke-width="1.5044360165504906" /><path d="M 483.27348044059477,385.20118214318336 L 489.4381722494624,399.3147083968004 L 503.7770377518249,393.69403365838895 L 498.1563630134134,408.0328991607514 L 512.2698892670304,414.19759096961906 L 498.1563630134134,420.3622827784867 L 503.7770377518249,434.70114828084917 L 489.4381722494624,429.0804735424377 L 483.27348044059477,443.19399979605475 L 477.1087886317271,429.0804735424377 L 462.76992312936466,434.70114828084917 L 468.39059786777614,420.3622827784867 L 454.27707161415907,414.19759096961906 L 468.39059786777614,408.0328991607514 L 462.76992312936466,393.69403365838895 L 477.1087886317271,399.3147083968004 Z" fill="none" stroke="#FFD700" stroke-width="1.5044360165504906" /><path d="M 547.7099444993407,385.20118214318336 L 553.8746363082084,399.3147083968004 L 568.2135018105708,393.69403365838895 L 562.5928270721594,408.0328991607514 L 576.7063533257764,414.19759096961906 L 562.5928270721594,420.3622827784867 L 568.2135018105708,434.70114828084917 L 553.8746363082084,429.0804735424377 L 547.7099444993407,443.19399979605475 L 541.545252690473,429.0804735424377 L 527.2063871881106,434.70114828084917 L 532.8270619265221,420.3622827784867 L 518.7135356729051,414.19759096961906 L 532.8270619265221,408.0328991607514 L 527.2063871881106,393.69403365838895 L 541.545252690473,399.3147083968004 Z" fill="none" stroke="#FFD700" stroke-width="1.5044360165504906" /><path d="M 1.7755179628031262e-15,441.0031600180574 L 6.164691808867664,455.11668627167444 L 20.503557311230136,449.49601153326296 L 14.88288257281864,463.8348770356254 L 28.996408826435687,469.99956884449307 L 14.88288257281864,476.1642606533607 L 20.503557311230136,490.5031261557232 L 6.164691808867664,484.8824514173117 L 1.7755179628031262e-15,498.99597767092877 L -6.164691808867662,484.8824514173117 L -20.503557311230132,490.5031261557232 L -14.882882572818636,476.1642606533607 L -28.996408826435687,469.99956884449307 L -14.882882572818637,463.8348770356254 L -20.50355731123014,449.49601153326296 L -6.164691808867672,455.11668627167444 Z" fill="none" stroke="#FFD700" stroke-width="1.5044360165504906" /><path d="M 64.43646405874597,441.0031600180574 L 70.60115586761363,455.11668627167444 L 84.94002136997611,449.49601153326296 L 79.31934663156461,463.8348770356254 L 93.43287288518165,469.99956884449307 L 79.31934663156461,476.1642606533607 L 84.94002136997611,490.5031261557232 L 70.60115586761363,484.8824514173117 L 64.43646405874597,498.99597767092877 L 58.27177224987831,484.8824514173117 L 43.93290674751584,490.5031261557232 L 49.55358148592733,476.1642606533607 L 35.440055232310286,469.99956884449307 L 49.55358148592733,463.8348770356254 L 43.93290674751583,449.49601153326296 L 58.271772249878296,455.11668627167444 Z" fill="none" stroke="#FFD700" stroke-width="1.5044360165504906" /><path d="M 128.87292811749194,441.0031600180574 L 135.0376199263596,455.11668627167444 L 149.37648542872208,449.49601153326296 L 143.75581069031057,463.8348770356254 L 157.86933694392764,469.99956884449307 L 143.75581069031057,476.1642606533607 L 149.37648542872208,490.5031261557232 L 135.0376199263596,484.8824514173117 L 128.87292811749194,498.99597767092877 L 122.70823630862428,484.8824514173117 L 108.3693708062618,490.5031261557232 L 113.99004554467331,476.1642606533607 L 99.87651929105625,469.99956884449307 L 113.99004554467331,463.8348770356254 L 108.3693708062618,449.49601153326296 L 122.70823630862427,455.11668627167444 Z" fill="none" stroke="#FFD700" stroke-width="1.5044360165504906" /><path d="M 193.3093921762379,441.0031600180574 L 199.47408398510558,455.11668627167444 L 213.81294948746805,449.49601153326296 L 208.19227474905654,463.8348770356254 L 222.3058010026736,469.99956884449307 L 208.19227474905654,476.1642606533607 L 213.81294948746805,490.5031261557232 L 199.47408398510558,484.8824514173117 L 193.3093921762379,498.99597767092877 L 187.14470036737023,484.8824514173117 L 172.80583486500777,490.5031261557232 L 178.42650960341928,476.1642606533607 L 164.3129833498022,469.99956884449307 L 178.42650960341928,463.8348770356254 L 172.80583486500777,449.49601153326296 L 187.14470036737023,455.11668627167444 Z" fill="none" stroke="#FFD700" stroke-width="1.5044360165504906" /><path d="M 257.7458562349839,441.0031600180574 L 263.9105480438515,455.11668627167444 L 278.249413546214,449.49601153326296 L 272.6287388078025,463.8348770356254 L 286.7422650614196,469.99956884449307 L 272.6287388078025,476.1642606533607 L 278.249413546214,490.5031261557232 L 263.9105480438515,484.8824514173117 L 257.7458562349839,498.99597767092877 L 251.5811644261162,484.8824514173117 L 237.24229892375374,490.5031261557232 L 242.86297366216525,476.1642606533607 L 228.74944740854818,469.99956884449307 L 242.86297366216525,463.8348770356254 L 237.24229892375374,449.49601153326296 L 251.5811644261162,455.11668627167444 Z" fill="none" stroke="#FFD700" stroke-width="1.5044360165504906" /><path d="M 322.18232029372984,441.0031600180574 L 328.3470121025975,455.11668627167444 L 342.68587760495996,449.49601153326296 L 337.0652028665485,463.8348770356254 L 351.17872912016554,469.99956884449307 L 337.0652028665485,476.1642606533607 L 342.68587760495996,490.5031261557232 L 328.3470121025975,484.8824514173117 L 322.18232029372984,498.99597767092877 L 316.0176284848622,484.8824514173117 L 301.67876298249973,490.5031261557232 L 307.2994377209112,476.1642606533607 L 293.18591146729415,469.99956884449307 L 307.2994377209112,463.8348770356254 L 301.67876298249973,449.49601153326296 L 316.0176284848622,455.11668627167444 Z" fill="none" stroke="#FFD700" stroke-width="1.5044360165504906" /><path d="M 386.6187843524758,441.0031600180574 L 392.78347616134346,455.11668627167444 L 407.1223416637059,449.49601153326296 L 401.50166692529444,463.8348770356254 L 415.6151931789115,469.99956884449307 L 401.50166692529444,476.1642606533607 L 407.1223416637059,490.5031261557232 L 392.78347616134346,484.8824514173117 L 386.6187843524758,498.99597767092877 L 380.45409254360817,484.8824514173117 L 366.1152270412457,490.5031261557232 L 371.7359017796572,476.1642606533607 L 357.6223755260401,469.99956884449307 L 371.7359017796572,463.8348770356254 L 366.1152270412457,449.49601153326296 L 380.45409254360817,455.11668627167444 Z" fill="none" stroke="#FFD700" stroke-width="1.5044360165504906" /><path d="M 451.0552484112218,441.0031600180574 L 457.2199402200894,455.11668627167444 L 471.5588057224519,449.49601153326296 L 465.9381309840404,463.8348770356254 L 480.0516572376575,469.99956884449307 L 465.9381309840404,476.1642606533607 L 471.5588057224519,490.5031261557232 L 457.2199402200894,484.8824514173117 L 451.0552484112218,498.99597767092877 L 444.89055660235414,484.8824514173117 L 430.5516910999917,490.5031261557232 L 436.17236583840315,476.1642606533607 L 422.0588395847861,469.99956884449307 L 436.17236583840315,463.8348770356254 L 430.5516910999917,449.49601153326296 L 444.89055660235414,455.11668627167444 Z" fill="none" stroke="#FFD700" stroke-width="1.5044360165504906" /><path d="M 515.4917124699678,441.0031600180574 L 521.6564042788355,455.11668627167444 L 535.9952697811979,449.49601153326296 L 530.3745950427864,463.8348770356254 L 544.4881212964034,469.99956884449307 L 530.3745950427864,476.1642606533607 L 535.9952697811979,490.5031261557232 L 521.6564042788355,484.8824514173117 L 515.4917124699678,498.99597767092877 L 509.3270206611001,484.8824514173117 L 494.98815515873764,490.5031261557232 L 500.6088298971491,476.1642606533607 L 486.49530364353205,469.99956884449307 L 500.6088298971491,463.8348770356254 L 494.98815515873764,449.49601153326296 L 509.3270206611001,455.11668627167444 Z" fill="none" stroke="#FFD700" stroke-width="1.5044360165504906" /><line x1="28.996408826435687" y1="23.58374584550102" x2="35.440055232310286" y2="23.58374584550102" stroke="#FFD700" stroke-width="0.5"/><line x1="93.43287288518165" y1="23.58374584550102" x2="99.87651929105625" y2="23.58374584550102" stroke="#FFD700" stroke-width="0.5"/><line x1="157.86933694392764" y1="23.58374584550102" x2="164.3129833498022" y2="23.58374584550102" stroke="#FFD700" stroke-width="0.5"/><line x1="222.3058010026736" y1="23.58374584550102" x2="228.74944740854818" y2="23.58374584550102" stroke="#FFD700" stroke-width="0.5"/><line x1="286.7422650614196" y1="23.58374584550102" x2="293.18591146729415" y2="23.58374584550102" stroke="#FFD700" stroke-width="0.5"/><line x1="351.17872912016554" y1="23.58374584550102" x2="357.6223755260401" y2="23.58374584550102" stroke="#FFD700" stroke-width="0.5"/><line x1="415.6151931789115" y1="23.58374584550102" x2="422.0588395847861" y2="23.58374584550102" stroke="#FFD700" stroke-width="0.5"/><line x1="480.0516572376575" y1="23.58374584550102" x2="486.49530364353205" y2="23.58374584550102" stroke="#FFD700" stroke-width="0.5"/><line x1="61.21464085580867" y1="79.38572372037503" x2="67.65828726168327" y2="79.38572372037503" stroke="#FFD700" stroke-width="0.5"/><line x1="125.65110491455464" y1="79.38572372037503" x2="132.09475132042922" y2="79.38572372037503" stroke="#FFD700" stroke-width="0.5"/><line x1="190.08756897330062" y1="79.38572372037503" x2="196.5312153791752" y2="79.38572372037503" stroke="#FFD700" stroke-width="0.5"/><line x1="254.5240330320466" y1="79.38572372037503" x2="260.96767943792116" y2="79.38572372037503" stroke="#FFD700" stroke-width="0.5"/><line x1="318.96049709079256" y1="79.38572372037503" x2="325.40414349666713" y2="79.38572372037503" stroke="#FFD700" stroke-width="0.5"/><line x1="383.3969611495385" y1="79.38572372037503" x2="389.8406075554131" y2="79.38572372037503" stroke="#FFD700" stroke-width="0.5"/><line x1="447.8334252082845" y1="79.38572372037503" x2="454.27707161415907" y2="79.38572372037503" stroke="#FFD700" stroke-width="0.5"/><line x1="28.996408826435687" y1="135.18770159524905" x2="35.440055232310286" y2="135.18770159524905" stroke="#FFD700" stroke-width="0.5"/><line x1="93.43287288518165" y1="135.18770159524905" x2="99.87651929105625" y2="135.18770159524905" stroke="#FFD700" stroke-width="0.5"/><line x1="157.86933694392764" y1="135.18770159524905" x2="164.3129833498022" y2="135.18770159524905" stroke="#FFD700" stroke-width="0.5"/><line x1="222.3058010026736" y1="135.18770159524905" x2="228.74944740854818" y2="135.18770159524905" stroke="#FFD700" stroke-width="0.5"/><line x1="286.7422650614196" y1="135.18770159524905" x2="293.18591146729415" y2="135.18770159524905" stroke="#FFD700" stroke-width="0.5"/><line x1="351.17872912016554" y1="135.18770159524905" x2="357.6223755260401" y2="135.18770159524905" stroke="#FFD700" stroke-width="0.5"/><line x1="415.6151931789115" y1="135.18770159524905" x2="422.0588395847861" y2="135.18770159524905" stroke="#FFD700" stroke-width="0.5"/><line x1="480.0516572376575" y1="135.18770159524905" x2="486.49530364353205" y2="135.18770159524905" stroke="#FFD700" stroke-width="0.5"/><line x1="61.21464085580867" y1="190.98967947012304" x2="67.65828726168327" y2="190.98967947012304" stroke="#FFD700" stroke-width="0.5"/><line x1="125.65110491455464" y1="190.98967947012304" x2="132.09475132042922" y2="190.98967947012304" stroke="#FFD700" stroke-width="0.5"/><line x1="190.08756897330062" y1="190.98967947012304" x2="196.5312153791752" y2="190.98967947012304" stroke="#FFD700" stroke-width="0.5"/><line x1="254.5240330320466" y1="190.98967947012304" x2="260.96767943792116" y2="190.98967947012304" stroke="#FFD700" stroke-width="0.5"/><line x1="318.96049709079256" y1="190.98967947012304" x2="325.40414349666713" y2="190.98967947012304" stroke="#FFD700" stroke-width="0.5"/><line x1="383.3969611495385" y1="190.98967947012304" x2="389.8406075554131" y2="190.98967947012304" stroke="#FFD700" stroke-width="0.5"/><line x1="447.8334252082845" y1="190.98967947012304" x2="454.27707161415907" y2="190.98967947012304" stroke="#FFD700" stroke-width="0.5"/><line x1="28.996408826435687" y1="246.79165734499708" x2="35.440055232310286" y2="246.79165734499708" stroke="#FFD700" stroke-width="0.5"/><line x1="93.43287288518165" y1="246.79165734499708" x2="99.87651929105625" y2="246.79165734499708" stroke="#FFD700" stroke-width="0.5"/><line x1="157.86933694392764" y1="246.79165734499708" x2="164.3129833498022" y2="246.79165734499708" stroke="#FFD700" stroke-width="0.5"/><line x1="222.3058010026736" y1="246.79165734499708" x2="228.74944740854818" y2="246.79165734499708" stroke="#FFD700" stroke-width="0.5"/><line x1="286.7422650614196" y1="246.79165734499708" x2="293.18591146729415" y2="246.79165734499708" stroke="#FFD700" stroke-width="0.5"/><line x1="351.17872912016554" y1="246.79165734499708" x2="357.6223755260401" y2="246.79165734499708" stroke="#FFD700" stroke-width="0.5"/><line x1="415.6151931789115" y1="246.79165734499708" x2="422.0588395847861" y2="246.79165734499708" stroke="#FFD700" stroke-width="0.5"/><line x1="480.0516572376575" y1="246.79165734499708" x2="486.49530364353205" y2="246.79165734499708" stroke="#FFD700" stroke-width="0.5"/><line x1="61.21464085580867" y1="302.5936352198711" x2="67.65828726168327" y2="302.5936352198711" stroke="#FFD700" stroke-width="0.5"/><line x1="125.65110491455464" y1="302.5936352198711" x2="132.09475132042922" y2="302.5936352198711" stroke="#FFD700" stroke-width="0.5"/><line x1="190.08756897330062" y1="302.5936352198711" x2="196.5312153791752" y2="302.5936352198711" stroke="#FFD700" stroke-width="0.5"/><line x1="254.5240330320466" y1="302.5936352198711" x2="260.96767943792116" y2="302.5936352198711" stroke="#FFD700" stroke-width="0.5"/><line x1="318.96049709079256" y1="302.5936352198711" x2="325.40414349666713" y2="302.5936352198711" stroke="#FFD700" stroke-width="0.5"/><line x1="383.3969611495385" y1="302.5936352198711" x2="389.8406075554131" y2="302.5936352198711" stroke="#FFD700" stroke-width="0.5"/><line x1="447.8334252082845" y1="302.5936352198711" x2="454.27707161415907" y2="302.5936352198711" stroke="#FFD700" stroke-width="0.5"/><line x1="28.996408826435687" y1="358.3956130947451" x2="35.440055232310286" y2="358.3956130947451" stroke="#FFD700" stroke-width="0.5"/><line x1="93.43287288518165" y1="358.3956130947451" x2="99.87651929105625" y2="358.3956130947451" stroke="#FFD700" stroke-width="0.5"/><line x1="157.86933694392764" y1="358.3956130947451" x2="164.3129833498022" y2="358.3956130947451" stroke="#FFD700" stroke-width="0.5"/><line x1="222.3058010026736" y1="358.3956130947451" x2="228.74944740854818" y2="358.3956130947451" stroke="#FFD700" stroke-width="0.5"/><line x1="286.7422650614196" y1="358.3956130947451" x2="293.18591146729415" y2="358.3956130947451" stroke="#FFD700" stroke-width="0.5"/><line x1="351.17872912016554" y1="358.3956130947451" x2="357.6223755260401" y2="358.3956130947451" stroke="#FFD700" stroke-width="0.5"/><line x1="415.6151931789115" y1="358.3956130947451" x2="422.0588395847861" y2="358.3956130947451" stroke="#FFD700" stroke-width="0.5"/><line x1="480.0516572376575" y1="358.3956130947451" x2="486.49530364353205" y2="358.3956130947451" stroke="#FFD700" stroke-width="0.5"/><line x1="61.21464085580867" y1="414.19759096961906" x2="67.65828726168327" y2="414.19759096961906" stroke="#FFD700" stroke-width="0.5"/><line x1="125.65110491455464" y1="414.19759096961906" x2="132.09475132042922" y2="414.19759096961906" stroke="#FFD700" stroke-width="0.5"/><line x1="190.08756897330062" y1="414.19759096961906" x2="196.5312153791752" y2="414.19759096961906" stroke="#FFD700" stroke-width="0.5"/><line x1="254.5240330320466" y1="414.19759096961906" x2="260.96767943792116" y2="414.19759096961906" stroke="#FFD700" stroke-width="0.5"/><line x1="318.96049709079256" y1="414.19759096961906" x2="325.40414349666713" y2="414.19759096961906" stroke="#FFD700" stroke-width="0.5"/><line x1="383.3969611495385" y1="414.19759096961906" x2="389.8406075554131" y2="414.19759096961906" stroke="#FFD700" stroke-width="0.5"/><line x1="447.8334252082845" y1="414.19759096961906" x2="454.27707161415907" y2="414.19759096961906" stroke="#FFD700" stroke-width="0.5"/><line x1="28.996408826435687" y1="469.99956884449307" x2="35.440055232310286" y2="469.99956884449307" stroke="#FFD700" stroke-width="0.5"/><line x1="93.43287288518165" y1="469.99956884449307" x2="99.87651929105625" y2="469.99956884449307" stroke="#FFD700" stroke-width="0.5"/><line x1="157.86933694392764" y1="469.99956884449307" x2="164.3129833498022" y2="469.99956884449307" stroke="#FFD700" stroke-width="0.5"/><line x1="222.3058010026736" y1="469.99956884449307" x2="228.74944740854818" y2="469.99956884449307" stroke="#FFD700" stroke-width="0.5"/><line x1="286.7422650614196" y1="469.99956884449307" x2="293.18591146729415" y2="469.99956884449307" stroke="#FFD700" stroke-width="0.5"/><line x1="351.17872912016554" y1="469.99956884449307" x2="357.6223755260401" y2="469.99956884449307" stroke="#FFD700" stroke-width="0.5"/><line x1="415.6151931789115" y1="469.99956884449307" x2="422.0588395847861" y2="469.99956884449307" stroke="#FFD700" stroke-width="0.5"/><line x1="480.0516572376575" y1="469.99956884449307" x2="486.49530364353205" y2="469.99956884449307" stroke="#FFD700" stroke-width="0.5"/></g></svg>