<svg xmlns="http://www.w3.org/2000/svg" width="512" height="512" viewBox="0 0 512 512"><rect x="0" y="0" width="512" height="512" fill="#000000"/><g opacity="0.09351127745747159"><path d="M -35.30330045938323,-67.07627087282813 L -28.548306362576817,-51.611298821643466 L -12.836417621596791,-57.770183297169666 L -18.995302097122995,-42.058294556189644 L -3.530330045938321,-35.30330045938323 L -18.995302097122995,-28.548306362576817 L -12.836417621596791,-12.836417621596794 L -28.548306362576817,-18.995302097122995 L -35.30330045938323,-3.530330045938321 L -42.058294556189644,-18.995302097122995 L -57.770183297169666,-12.836417621596791 L -51.61129882164346,-28.54830636257681 L -67.07627087282813,-35.30330045938322 L -51.611298821643466,-42.05829455618965 L -57.77018329716967,-57.770183297169666 L -42.05829455618965,-51.61129882164346 Z" fill="none" stroke="#FFFFFF" stroke-width="1.4255106006402105" /><path d="M 35.30330045938323,-67.07627087282813 L 42.058294556189644,-51.611298821643466 L 57.770183297169666,-57.770183297169666 L 51.611298821643466,-42.058294556189644 L 67.07627087282813,-35.30330045938323 L 51.611298821643466,-28.548306362576817 L 57.770183297169666,-12.836417621596794 L 42.058294556189644,-18.995302097122995 L 35.30330045938323,-3.530330045938321 L 28.548306362576817,-18.995302097122995 L 12.836417621596794,-12.836417621596791 L 18.995302097122998,-28.54830636257681 L 3.530330045938321,-35.30330045938322 L 18.995302097122995,-42.05829455618965 L 12.836417621596787,-57.770183297169666 L 28.54830636257681,-51.61129882164346 Z" fill="none" stroke="#FFFFFF" stroke-width="1.4255106006402105" /><path d="M 105.9099013781497,-67.07627087282813 L 112.66489547495611,-51.611298821643466 L 128.37678421593614,-57.770183297169666 L 122.21789974040993,-42.058294556189644 L 137.6828717915946,-35.30330045938323 L 122.21789974040993,-28.548306362576817 L 128.37678421593614,-12.836417621596794 L 112.66489547495611,-18.995302097122995 L 105.9099013781497,-3.530330045938321 L 99.15490728134328,-18.995302097122995 L 83.44301854036325,-12.836417621596791 L 89.60190301588946,-28.54830636257681 L 74.13693096470479,-35.30330045938322 L 89.60190301588946,-42.05829455618965 L 83.44301854036325,-57.770183297169666 L 99.15490728134327,-51.61129882164346 Z" fill="none" stroke="#FFFFFF" stroke-width="1.4255106006402105" /><path d="M 176.51650229691617,-67.07627087282813 L 183.2714963937226,-51.611298821643466 L 198.98338513470262,-57.770183297169666 L 192.8245006591764,-42.058294556189644 L 208.28947271036108,-35.30330045938323 L 192.8245006591764,-28.548306362576817 L 198.98338513470262,-12.836417621596794 L 183.2714963937226,-18.995302097122995 L 176.51650229691617,-3.530330045938321 L 169.76150820010977,-18.995302097122995 L 154.04961945912973,-12.836417621596791 L 160.20850393465594,-28.54830636257681 L 144.74353188347126,-35.30330045938322 L 160.20850393465594,-42.05829455618965 L 154.04961945912973,-57.770183297169666 L 169.76150820010974,-51.61129882164346 Z" fill="none" stroke="#FFFFFF" stroke-width="1.4255106006402105" /><path d="M 247.12310321568262,-67.07627087282813 L 253.87809731248905,-51.611298821643466 L 269.58998605346903,-57.770183297169666 L 263.43110157794285,-42.058294556189644 L 278.8960736291275,-35.30330045938323 L 263.43110157794285,-28.548306362576817 L 269.58998605346903,-12.836417621596794 L 253.87809731248905,-18.995302097122995 L 247.12310321568262,-3.530330045938321 L 240.36810911887622,-18.995302097122995 L 224.65622037789618,-12.836417621596791 L 230.81510485342238,-28.54830636257681 L 215.3501328022377,-35.30330045938322 L 230.81510485342238,-42.05829455618965 L 224.65622037789618,-57.770183297169666 L 240.3681091188762,-51.61129882164346 Z" fill="none" stroke="#FFFFFF" stroke-width="1.4255106006402105" /><path d="M 317.72970413444904,-67.07627087282813 L 324.48469823125544,-51.611298821643466 L 340.1965869722355,-57.770183297169666 L 334.03770249670924,-42.058294556189644 L 349.50267454789395,-35.30330045938323 L 334.03770249670924,-28.548306362576817 L 340.1965869722355,-12.836417621596794 L 324.48469823125544,-18.995302097122995 L 317.72970413444904,-3.530330045938321 L 310.97471003764264,-18.995302097122995 L 295.2628212966626,-12.836417621596791 L 301.42170577218883,-28.54830636257681 L 285.9567337210041,-35.30330045938322 L 301.42170577218883,-42.05829455618965 L 295.2628212966626,-57.770183297169666 L 310.97471003764264,-51.61129882164346 Z" fill="none" stroke="#FFFFFF" stroke-width="1.4255106006402105" /><path d="M 388.33630505321554,-67.07627087282813 L 395.09129915002194,-51.611298821643466 L 410.803187891002,-57.770183297169666 L 404.64430341547575,-42.058294556189644 L 420.10927546666045,-35.30330045938323 L 404.64430341547575,-28.548306362576817 L 410.803187891002,-12.836417621596794 L 395.09129915002194,-18.995302097122995 L 388.33630505321554,-3.530330045938321 L 381.58131095640914,-18.995302097122995 L 365.8694222154291,-12.836417621596791 L 372.02830669095533,-28.54830636257681 L 356.56333463977063,-35.30330045938322 L 372.02830669095533,-42.05829455618965 L 365.8694222154291,-57.770183297169666 L 381.58131095640914,-51.61129882164346 Z" fill="none" stroke="#FFFFFF" stroke-width="1.4255106006402105" /><path d="M 458.942905971982,-67.07627087282813 L 465.6979000687884,-51.611298821643466 L 481.40978880976843,-57.770183297169666 L 475.25090433424225,-42.058294556189644 L 490.7158763854269,-35.30330045938323 L 475.25090433424225,-28.548306362576817 L 481.40978880976843,-12.836417621596794 L 465.6979000687884,-18.995302097122995 L 458.942905971982,-3.530330045938321 L 452.1879118751756,-18.995302097122995 L 436.47602313419554,-12.836417621596791 L 442.6349076097218,-28.54830636257681 L 427.1699355585371,-35.30330045938322 L 442.6349076097217,-42.05829455618965 L 436.47602313419554,-57.770183297169666 L 452.1879118751756,-51.61129882164346 Z" fill="none" stroke="#FFFFFF" stroke-width="1.4255106006402105" /><path d="M 529.5495068907485,-67.07627087282813 L 536.3045009875549,-51.611298821643466 L 552.0163897285349,-57.770183297169666 L 545.8575052530088,-42.058294556189644 L 561.3224773041934,-35.30330045938323 L 545.8575052530088,-28.548306362576817 L 552.0163897285349,-12.836417621596794 L 536.3045009875549,-18.995302097122995 L 529.5495068907485,-3.530330045938321 L 522.7945127939421,-18.995302097122995 L 507.08262405296205,-12.836417621596791 L 513.2415085284882,-28.54830636257681 L 497.7765364773036,-35.30330045938322 L 513.2415085284882,-42.05829455618965 L 507.08262405296205,-57.770183297169666 L 522.7945127939421,-51.61129882164346 Z" fill="none" stroke="#FFFFFF" stroke-width="1.4255106006402105" /><path d="M 1.9455333258114433e-15,-5.930954477176385 L 6.7549940968064135,9.534017574008288 L 22.46688283778644,3.375133098482088 L 16.307998362260236,19.08702183946211 L 31.77297041344491,25.842015936268524 L 16.307998362260236,32.59701003307494 L 22.46688283778644,48.30889877405496 L 6.7549940968064135,42.15001429852876 L 1.9455333258114433e-15,57.61498634971343 L -6.754994096806412,42.15001429852876 L -22.466882837786436,48.30889877405497 L -16.307998362260232,32.597010033074945 L -31.77297041344491,25.842015936268528 L -16.307998362260236,19.087021839462107 L -22.466882837786443,3.375133098482088 L -6.754994096806422,9.534017574008292 Z" fill="none" stroke="#FFFFFF" stroke-width="1.4255106006402105" /><path d="M 70.60660091876646,-5.930954477176385 L 77.36159501557287,9.534017574008288 L 93.0734837565529,3.375133098482088 L 86.9145992810267,19.08702183946211 L 102.37957133221137,25.842015936268524 L 86.9145992810267,32.59701003307494 L 93.0734837565529,48.30889877405496 L 77.36159501557287,42.15001429852876 L 70.60660091876646,57.61498634971343 L 63.85160682196005,42.15001429852876 L 48.139718080980025,48.30889877405497 L 54.298602556506225,32.597010033074945 L 38.83363050532155,25.842015936268528 L 54.298602556506225,19.087021839462107 L 48.13971808098002,3.375133098482088 L 63.85160682196004,9.534017574008292 Z" fill="none" stroke="#FFFFFF" stroke-width="1.4255106006402105" /><path d="M 141.21320183753292,-5.930954477176385 L 147.96819593433935,9.534017574008288 L 163.68008467531936,3.375133098482088 L 157.52120019979316,19.08702183946211 L 172.98617225097783,25.842015936268524 L 157.52120019979316,32.59701003307494 L 163.68008467531936,48.30889877405496 L 147.96819593433935,42.15001429852876 L 141.21320183753292,57.61498634971343 L 134.45820774072652,42.15001429852876 L 118.74631899974648,48.30889877405497 L 124.90520347527269,32.597010033074945 L 109.44023142408801,25.842015936268528 L 124.90520347527269,19.087021839462107 L 118.74631899974648,3.375133098482088 L 134.4582077407265,9.534017574008292 Z" fill="none" stroke="#FFFFFF" stroke-width="1.4255106006402105" /><path d="M 211.8198027562994,-5.930954477176385 L 218.5747968531058,9.534017574008288 L 234.28668559408584,3.375133098482088 L 228.12780111855963,19.08702183946211 L 243.5927731697443,25.842015936268524 L 228.12780111855963,32.59701003307494 L 234.28668559408584,48.30889877405496 L 218.5747968531058,42.15001429852876 L 211.8198027562994,57.61498634971343 L 205.064808659493,42.15001429852876 L 189.35291991851295,48.30889877405497 L 195.51180439403916,32.597010033074945 L 180.0468323428545,25.842015936268528 L 195.51180439403916,19.087021839462107 L 189.35291991851295,3.375133098482088 L 205.06480865949297,9.534017574008292 Z" fill="none" stroke="#FFFFFF" stroke-width="1.4255106006402105" /><path d="M 282.42640367506584,-5.930954477176385 L 289.18139777187224,9.534017574008288 L 304.8932865128523,3.375133098482088 L 298.73440203732605,19.08702183946211 L 314.19937408851075,25.842015936268524 L 298.73440203732605,32.59701003307494 L 304.8932865128523,48.30889877405496 L 289.18139777187224,42.15001429852876 L 282.42640367506584,57.61498634971343 L 275.67140957825944,42.15001429852876 L 259.9595208372794,48.30889877405497 L 266.11840531280563,32.597010033074945 L 250.65343326162093,25.842015936268528 L 266.11840531280563,19.087021839462107 L 259.9595208372794,3.375133098482088 L 275.67140957825944,9.534017574008292 Z" fill="none" stroke="#FFFFFF" stroke-width="1.4255106006402105" /><path d="M 353.0330045938323,-5.930954477176385 L 359.7879986906387,9.534017574008288 L 375.49988743161873,3.375133098482088 L 369.34100295609255,19.08702183946211 L 384.8059750072772,25.842015936268524 L 369.34100295609255,32.59701003307494 L 375.49988743161873,48.30889877405496 L 359.7879986906387,42.15001429852876 L 353.0330045938323,57.61498634971343 L 346.2780104970259,42.15001429852876 L 330.56612175604585,48.30889877405497 L 336.7250062315721,32.597010033074945 L 321.2600341803874,25.842015936268528 L 336.725006231572,19.087021839462107 L 330.56612175604585,3.375133098482088 L 346.2780104970259,9.534017574008292 Z" fill="none" stroke="#FFFFFF" stroke-width="1.4255106006402105" /><path d="M 423.6396055125988,-5.930954477176385 L 430.3945996094052,9.534017574008288 L 446.10648835038523,3.375133098482088 L 439.94760387485906,19.08702183946211 L 455.4125759260437,25.842015936268524 L 439.94760387485906,32.59701003307494 L 446.10648835038523,48.30889877405496 L 430.3945996094052,42.15001429852876 L 423.6396055125988,57.61498634971343 L 416.8846114157924,42.15001429852876 L 401.17272267481235,48.30889877405497 L 407.3316071503386,32.597010033074945 L 391.8666350991539,25.842015936268528 L 407.3316071503385,19.087021839462107 L 401.17272267481235,3.375133098482088 L 416.8846114157924,9.534017574008292 Z" fill="none" stroke="#FFFFFF" stroke-width="1.4255106006402105" /><path d="M 494.24620643136524,-5.930954477176385 L 501.00120052817164,9.534017574008288 L 516.7130892691516,3.375133098482088 L 510.55420479362544,19.08702183946211 L 526.0191768448101,25.842015936268524 L 510.55420479362544,32.59701003307494 L 516.7130892691516,48.30889877405496 L 501.00120052817164,42.15001429852876 L 494.24620643136524,57.61498634971343 L 487.49121233455884,42.15001429852876 L 471.7793235935788,48.30889877405497 L 477.93820806910503,32.597010033074945 L 462.4732360179203,25.842015936268528 L 477.93820806910503,19.087021839462107 L 471.7793235935788,3.375133098482088 L 487.49121233455884,9.534017574008292 Z" fill="none" stroke="#FFFFFF" stroke-width="1.4255106006402105" /><path d="M 564.8528073501317,-5.930954477176385 L 571.6078014469381,9.534017574008288 L 587.3196901879181,3.375133098482088 L 581.160805712392,19.08702183946211 L 596.6257777635766,25.842015936268524 L 581.160805712392,32.59701003307494 L 587.3196901879181,48.30889877405496 L 571.6078014469381,42.15001429852876 L 564.8528073501317,57.61498634971343 L 558.0978132533253,42.15001429852876 L 542.3859245123452,48.30889877405497 L 548.5448089878714,32.597010033074945 L 533.0798369366868,25.842015936268528 L 548.5448089878714,19.087021839462107 L 542.3859245123452,3.375133098482088 L 558.0978132533253,9.534017574008292 Z" fill="none" stroke="#FFFFFF" stroke-width="1.4255106006402105" /><path d="M -35.30330045938323,55.21436191847536 L -28.548306362576817,70.67933396966004 L -12.836417621596791,64.52044949413383 L -18.995302097122995,80.23233823511386 L -3.530330045938321,86.98733233192027 L -18.995302097122995,93.74232642872668 L -12.836417621596791,109.45421516970671 L -28.548306362576817,103.2953306941805 L -35.30330045938323,118.76030274536518 L -42.058294556189644,103.2953306941805 L -57.770183297169666,109.45421516970671 L -51.61129882164346,93.7423264287267 L -67.07627087282813,86.98733233192027 L -51.611298821643466,80.23233823511386 L -57.77018329716967,64.52044949413383 L -42.05829455618965,70.67933396966004 Z" fill="none" stroke="#FFFFFF" stroke-width="1.4255106006402105" /><path d="M 35.30330045938323,55.21436191847536 L 42.058294556189644,70.67933396966004 L 57.770183297169666,64.52044949413383 L 51.611298821643466,80.23233823511386 L 67.07627087282813,86.98733233192027 L 51.611298821643466,93.74232642872668 L 57.770183297169666,109.45421516970671 L 42.058294556189644,103.2953306941805 L 35.30330045938323,118.76030274536518 L 28.548306362576817,103.2953306941805 L 12.836417621596794,109.45421516970671 L 18.995302097122998,93.7423264287267 L 3.530330045938321,86.98733233192027 L 18.995302097122995,80.23233823511386 L 12.836417621596787,64.52044949413383 L 28.54830636257681,70.67933396966004 Z" fill="none" stroke="#FFFFFF" stroke-width="1.4255106006402105" /><path d="M 105.9099013781497,55.21436191847536 L 112.66489547495611,70.67933396966004 L 128.37678421593614,64.52044949413383 L 122.21789974040993,80.23233823511386 L 137.6828717915946,86.98733233192027 L 122.21789974040993,93.74232642872668 L 128.37678421593614,109.45421516970671 L 112.66489547495611,103.2953306941805 L 105.9099013781497,118.76030274536518 L 99.15490728134328,103.2953306941805 L 83.44301854036325,109.45421516970671 L 89.60190301588946,93.7423264287267 L 74.13693096470479,86.98733233192027 L 89.60190301588946,80.23233823511386 L 83.44301854036325,64.52044949413383 L 99.15490728134327,70.67933396966004 Z" fill="none" stroke="#FFFFFF" stroke-width="1.4255106006402105" /><path d="M 176.51650229691617,55.21436191847536 L 183.2714963937226,70.67933396966004 L 198.98338513470262,64.52044949413383 L 192.8245006591764,80.23233823511386 L 208.28947271036108,86.98733233192027 L 192.8245006591764,93.74232642872668 L 198.98338513470262,109.45421516970671 L 183.2714963937226,103.2953306941805 L 176.51650229691617,118.76030274536518 L 169.76150820010977,103.2953306941805 L 154.04961945912973,109.45421516970671 L 160.20850393465594,93.7423264287267 L 144.74353188347126,86.98733233192027 L 160.20850393465594,80.23233823511386 L 154.04961945912973,64.52044949413383 L 169.76150820010974,70.67933396966004 Z" fill="none" stroke="#FFFFFF" stroke-width="1.4255106006402105" /><path d="M 247.12310321568262,55.21436191847536 L 253.87809731248905,70.67933396966004 L 269.58998605346903,64.52044949413383 L 263.43110157794285,80.23233823511386 L 278.8960736291275,86.98733233192027 L 263.43110157794285,93.74232642872668 L 269.58998605346903,109.45421516970671 L 253.87809731248905,103.2953306941805 L 247.12310321568262,118.76030274536518 L 240.36810911887622,103.2953306941805 L 224.65622037789618,109.45421516970671 L 230.81510485342238,93.7423264287267 L 215.3501328022377,86.98733233192027 L 230.81510485342238,80.23233823511386 L 224.65622037789618,64.52044949413383 L 240.3681091188762,70.67933396966004 Z" fill="none" stroke="#FFFFFF" stroke-width="1.4255106006402105" /><path d="M 317.72970413444904,55.21436191847536 L 324.48469823125544,70.67933396966004 L 340.1965869722355,64.52044949413383 L 334.03770249670924,80.23233823511386 L 349.50267454789395,86.98733233192027 L 334.03770249670924,93.74232642872668 L 340.1965869722355,109.45421516970671 L 324.48469823125544,103.2953306941805 L 317.72970413444904,118.76030274536518 L 310.97471003764264,103.2953306941805 L 295.2628212966626,109.45421516970671 L 301.42170577218883,93.7423264287267 L 285.9567337210041,86.98733233192027 L 301.42170577218883,80.23233823511386 L 295.2628212966626,64.52044949413383 L 310.97471003764264,70.67933396966004 Z" fill="none" stroke="#FFFFFF" stroke-width="1.4255106006402105" /><path d="M 388.33630505321554,55.21436191847536 L 395.09129915002194,70.67933396966004 L 410.803187891002,64.52044949413383 L 404.64430341547575,80.23233823511386 L 420.10927546666045,86.98733233192027 L 404.64430341547575,93.74232642872668 L 410.803187891002,109.45421516970671 L 395.09129915002194,103.2953306941805 L 388.33630505321554,118.76030274536518 L 381.58131095640914,103.2953306941805 L 365.8694222154291,109.45421516970671 L 372.02830669095533,93.7423264287267 L 356.56333463977063,86.98733233192027 L 372.02830669095533,80.23233823511386 L 365.8694222154291,64.52044949413383 L 381.58131095640914,70.67933396966004 Z" fill="none" stroke="#FFFFFF" stroke-width="1.4255106006402105" /><path d="M 458.942905971982,55.21436191847536 L 465.6979000687884,70.67933396966004 L 481.40978880976843,64.52044949413383 L 475.25090433424225,80.23233823511386 L 490.7158763854269,86.98733233192027 L 475.25090433424225,93.74232642872668 L 481.40978880976843,109.45421516970671 L 465.6979000687884,103.2953306941805 L 458.942905971982,118.76030274536518 L 452.1879118751756,103.2953306941805 L 436.47602313419554,109.45421516970671 L 442.6349076097218,93.7423264287267 L 427.1699355585371,86.98733233192027 L 442.6349076097217,80.23233823511386 L 436.47602313419554,64.52044949413383 L 452.1879118751756,70.67933396966004 Z" fill="none" stroke="#FFFFFF" stroke-width="1.4255106006402105" /><path d="M 529.5495068907485,55.21436191847536 L 536.3045009875549,70.67933396966004 L 552.0163897285349,64.52044949413383 L 545.8575052530088,80.23233823511386 L 561.3224773041934,86.98733233192027 L 545.8575052530088,93.74232642872668 L 552.0163897285349,109.45421516970671 L 536.3045009875549,103.2953306941805 L 529.5495068907485,118.76030274536518 L 522.7945127939421,103.2953306941805 L 507.08262405296205,109.45421516970671 L 513.2415085284882,93.7423264287267 L 497.7765364773036,86.98733233192027 L 513.2415085284882,80.23233823511386 L 507.08262405296205,64.52044949413383 L 522.7945127939421,70.67933396966004 Z" fill="none" stroke="#FFFFFF" stroke-width="1.4255106006402105" /><path d="M 1.9455333258114433e-15,116.35967831412714 L 6.7549940968064135,131.8246503653118 L 22.46688283778644,125.6657658897856 L 16.307998362260236,141.37765463076565 L 31.77297041344491,148.13264872757205 L 16.307998362260236,154.88764282437845 L 22.46688283778644,170.5995315653585 L 6.7549940968064135,164.44064708983228 L 1.9455333258114433e-15,179.90561914101696 L -6.754994096806412,164.44064708983228 L -22.466882837786436,170.5995315653585 L -16.307998362260232,154.88764282437847 L -31.77297041344491,148.13264872757205 L -16.307998362260236,141.37765463076562 L -22.466882837786443,125.6657658897856 L -6.754994096806422,131.8246503653118 Z" fill="none" stroke="#FFFFFF" stroke-width="1.4255106006402105" /><path d="M 70.60660091876646,116.35967831412714 L 77.36159501557287,131.8246503653118 L 93.0734837565529,125.6657658897856 L 86.9145992810267,141.37765463076565 L 102.37957133221137,148.13264872757205 L 86.9145992810267,154.88764282437845 L 93.0734837565529,170.5995315653585 L 77.36159501557287,164.44064708983228 L 70.60660091876646,179.90561914101696 L 63.85160682196005,164.44064708983228 L 48.139718080980025,170.5995315653585 L 54.298602556506225,154.88764282437847 L 38.83363050532155,148.13264872757205 L 54.298602556506225,141.37765463076562 L 48.13971808098002,125.6657658897856 L 63.85160682196004,131.8246503653118 Z" fill="none" stroke="#FFFFFF" stroke-width="1.4255106006402105" /><path d="M 141.21320183753292,116.35967831412714 L 147.96819593433935,131.8246503653118 L 163.68008467531936,125.6657658897856 L 157.52120019979316,141.37765463076565 L 172.98617225097783,148.13264872757205 L 157.52120019979316,154.88764282437845 L 163.68008467531936,170.5995315653585 L 147.96819593433935,164.44064708983228 L 141.21320183753292,179.90561914101696 L 134.45820774072652,164.44064708983228 L 118.74631899974648,170.5995315653585 L 124.90520347527269,154.88764282437847 L 109.44023142408801,148.13264872757205 L 124.90520347527269,141.37765463076562 L 118.74631899974648,125.6657658897856 L 134.4582077407265,131.8246503653118 Z" fill="none" stroke="#FFFFFF" stroke-width="1.4255106006402105" /><path d="M 211.8198027562994,116.35967831412714 L 218.5747968531058,131.8246503653118 L 234.28668559408584,125.6657658897856 L 228.12780111855963,141.37765463076565 L 243.5927731697443,148.13264872757205 L 228.12780111855963,154.88764282437845 L 234.28668559408584,170.5995315653585 L 218.5747968531058,164.44064708983228 L 211.8198027562994,179.90561914101696 L 205.064808659493,164.44064708983228 L 189.35291991851295,170.5995315653585 L 195.51180439403916,154.88764282437847 L 180.0468323428545,148.13264872757205 L 195.51180439403916,141.37765463076562 L 189.35291991851295,125.6657658897856 L 205.06480865949297,131.8246503653118 Z" fill="none" stroke="#FFFFFF" stroke-width="1.4255106006402105" /><path d="M 282.42640367506584,116.35967831412714 L 289.18139777187224,131.8246503653118 L 304.8932865128523,125.6657658897856 L 298.73440203732605,141.37765463076565 L 314.19937408851075,148.13264872757205 L 298.73440203732605,154.88764282437845 L 304.8932865128523,170.5995315653585 L 289.18139777187224,164.44064708983228 L 282.42640367506584,179.90561914101696 L 275.67140957825944,164.44064708983228 L 259.9595208372794,170.5995315653585 L 266.11840531280563,154.88764282437847 L 250.65343326162093,148.13264872757205 L 266.11840531280563,141.37765463076562 L 259.9595208372794,125.6657658897856 L 275.67140957825944,131.8246503653118 Z" fill="none" stroke="#FFFFFF" stroke-width="1.4255106006402105" /><path d="M 353.0330045938323,116.35967831412714 L 359.7879986906387,131.8246503653118 L 375.49988743161873,125.6657658897856 L 369.34100295609255,141.37765463076565 L 384.8059750072772,148.13264872757205 L 369.34100295609255,154.88764282437845 L 375.49988743161873,170.5995315653585 L 359.7879986906387,164.44064708983228 L 353.0330045938323,179.90561914101696 L 346.2780104970259,164.44064708983228 L 330.56612175604585,170.5995315653585 L 336.7250062315721,154.88764282437847 L 321.2600341803874,148.13264872757205 L 336.725006231572,141.37765463076562 L 330.56612175604585,125.6657658897856 L 346.2780104970259,131.8246503653118 Z" fill="none" stroke="#FFFFFF" stroke-width="1.4255106006402105" /><path d="M 423.6396055125988,116.35967831412714 L 430.3945996094052,131.8246503653118 L 446.10648835038523,125.6657658897856 L 439.94760387485906,141.37765463076565 L 455.4125759260437,148.13264872757205 L 439.94760387485906,154.88764282437845 L 446.10648835038523,170.5995315653585 L 430.3945996094052,164.44064708983228 L 423.6396055125988,179.90561914101696 L 416.8846114157924,164.44064708983228 L 401.17272267481235,170.5995315653585 L 407.3316071503386,154.88764282437847 L 391.8666350991539,148.13264872757205 L 407.3316071503385,141.37765463076562 L 401.17272267481235,125.6657658897856 L 416.8846114157924,131.8246503653118 Z" fill="none" stroke="#FFFFFF" stroke-width="1.4255106006402105" /><path d="M 494.24620643136524,116.35967831412714 L 501.00120052817164,131.8246503653118 L 516.7130892691516,125.6657658897856 L 510.55420479362544,141.37765463076565 L 526.0191768448101,148.13264872757205 L 510.55420479362544,154.88764282437845 L 516.7130892691516,170.5995315653585 L 501.00120052817164,164.44064708983228 L 494.24620643136524,179.90561914101696 L 487.49121233455884,164.44064708983228 L 471.7793235935788,170.5995315653585 L 477.93820806910503,154.88764282437847 L 462.4732360179203,148.13264872757205 L 477.93820806910503,141.37765463076562 L 471.7793235935788,125.6657658897856 L 487.49121233455884,131.8246503653118 Z" fill="none" stroke="#FFFFFF" stroke-width="1.4255106006402105" /><path d="M 564.8528073501317,116.35967831412714 L 571.6078014469381,131.8246503653118 L 587.3196901879181,125.6657658897856 L 581.160805712392,141.37765463076565 L 596.6257777635766,148.13264872757205 L 581.160805712392,154.88764282437845 L 587.3196901879181,170.5995315653585 L 571.6078014469381,164.44064708983228 L 564.8528073501317,179.90561914101696 L 558.0978132533253,164.44064708983228 L 542.3859245123452,170.5995315653585 L 548.5448089878714,154.88764282437847 L 533.0798369366868,148.13264872757205 L 548.5448089878714,141.37765463076562 L 542.3859245123452,125.6657658897856 L 558.0978132533253,131.8246503653118 Z" fill="none" stroke="#FFFFFF" stroke-width="1.4255106006402105" /><path d="M -35.30330045938323,177.50499470977888 L -28.548306362576817,192.96996676096356 L -12.836417621596791,186.81108228543735 L -18.995302097122995,202.5229710264174 L -3.530330045938321,209.2779651232238 L -18.995302097122995,216.0329592200302 L -12.836417621596791,231.74484796101024 L -28.548306362576817,225.58596348548403 L -35.30330045938323,241.0509355366687 L -42.058294556189644,225.58596348548403 L -57.770183297169666,231.74484796101024 L -51.61129882164346,216.03295922003022 L -67.07627087282813,209.2779651232238 L -51.611298821643466,202.52297102641737 L -57.77018329716967,186.81108228543735 L -42.05829455618965,192.96996676096356 Z" fill="none" stroke="#FFFFFF" stroke-width="1.4255106006402105" /><path d="M 35.30330045938323,177.50499470977888 L 42.058294556189644,192.96996676096356 L 57.770183297169666,186.81108228543735 L 51.611298821643466,202.5229710264174 L 67.07627087282813,209.2779651232238 L 51.611298821643466,216.0329592200302 L 57.770183297169666,231.74484796101024 L 42.058294556189644,225.58596348548403 L 35.30330045938323,241.0509355366687 L 28.548306362576817,225.58596348548403 L 12.836417621596794,231.74484796101024 L 18.995302097122998,216.03295922003022 L 3.530330045938321,209.2779651232238 L 18.995302097122995,202.52297102641737 L 12.836417621596787,186.81108228543735 L 28.54830636257681,192.96996676096356 Z" fill="none" stroke="#FFFFFF" stroke-width="1.4255106006402105" /><path d="M 105.9099013781497,177.50499470977888 L 112.66489547495611,192.96996676096356 L 128.37678421593614,186.81108228543735 L 122.21789974040993,202.5229710264174 L 137.6828717915946,209.2779651232238 L 122.21789974040993,216.0329592200302 L 128.37678421593614,231.74484796101024 L 112.66489547495611,225.58596348548403 L 105.9099013781497,241.0509355366687 L 99.15490728134328,225.58596348548403 L 83.44301854036325,231.74484796101024 L 89.60190301588946,216.03295922003022 L 74.13693096470479,209.2779651232238 L 89.60190301588946,202.52297102641737 L 83.44301854036325,186.81108228543735 L 99.15490728134327,192.96996676096356 Z" fill="none" stroke="#FFFFFF" stroke-width="1.4255106006402105" /><path d="M 176.51650229691617,177.50499470977888 L 183.2714963937226,192.96996676096356 L 198.98338513470262,186.81108228543735 L 192.8245006591764,202.5229710264174 L 208.28947271036108,209.2779651232238 L 192.8245006591764,216.0329592200302 L 198.98338513470262,231.74484796101024 L 183.2714963937226,225.58596348548403 L 176.51650229691617,241.0509355366687 L 169.76150820010977,225.58596348548403 L 154.04961945912973,231.74484796101024 L 160.20850393465594,216.03295922003022 L 144.74353188347126,209.2779651232238 L 160.20850393465594,202.52297102641737 L 154.04961945912973,186.81108228543735 L 169.76150820010974,192.96996676096356 Z" fill="none" stroke="#FFFFFF" stroke-width="1.4255106006402105" /><path d="M 247.12310321568262,177.50499470977888 L 253.87809731248905,192.96996676096356 L 269.58998605346903,186.81108228543735 L 263.43110157794285,202.5229710264174 L 278.8960736291275,209.2779651232238 L 263.43110157794285,216.0329592200302 L 269.58998605346903,231.74484796101024 L 253.87809731248905,225.58596348548403 L 247.12310321568262,241.0509355366687 L 240.36810911887622,225.58596348548403 L 224.65622037789618,231.74484796101024 L 230.81510485342238,216.03295922003022 L 215.3501328022377,209.2779651232238 L 230.81510485342238,202.52297102641737 L 224.65622037789618,186.81108228543735 L 240.3681091188762,192.96996676096356 Z" fill="none" stroke="#FFFFFF" stroke-width="1.4255106006402105" /><path d="M 317.72970413444904,177.50499470977888 L 324.48469823125544,192.96996676096356 L 340.1965869722355,186.81108228543735 L 334.03770249670924,202.5229710264174 L 349.50267454789395,209.2779651232238 L 334.03770249670924,216.0329592200302 L 340.1965869722355,231.74484796101024 L 324.48469823125544,225.58596348548403 L 317.72970413444904,241.0509355366687 L 310.97471003764264,225.58596348548403 L 295.2628212966626,231.74484796101024 L 301.42170577218883,216.03295922003022 L 285.9567337210041,209.2779651232238 L 301.42170577218883,202.52297102641737 L 295.2628212966626,186.81108228543735 L 310.97471003764264,192.96996676096356 Z" fill="none" stroke="#FFFFFF" stroke-width="1.4255106006402105" /><path d="M 388.33630505321554,177.50499470977888 L 395.09129915002194,192.96996676096356 L 410.803187891002,186.81108228543735 L 404.64430341547575,202.5229710264174 L 420.10927546666045,209.2779651232238 L 404.64430341547575,216.0329592200302 L 410.803187891002,231.74484796101024 L 395.09129915002194,225.58596348548403 L 388.33630505321554,241.0509355366687 L 381.58131095640914,225.58596348548403 L 365.8694222154291,231.74484796101024 L 372.02830669095533,216.03295922003022 L 356.56333463977063,209.2779651232238 L 372.02830669095533,202.52297102641737 L 365.8694222154291,186.81108228543735 L 381.58131095640914,192.96996676096356 Z" fill="none" stroke="#FFFFFF" stroke-width="1.4255106006402105" /><path d="M 458.942905971982,177.50499470977888 L 465.6979000687884,192.96996676096356 L 481.40978880976843,186.81108228543735 L 475.25090433424225,202.5229710264174 L 490.7158763854269,209.2779651232238 L 475.25090433424225,216.0329592200302 L 481.40978880976843,231.74484796101024 L 465.6979000687884,225.58596348548403 L 458.942905971982,241.0509355366687 L 452.1879118751756,225.58596348548403 L 436.47602313419554,231.74484796101024 L 442.6349076097218,216.03295922003022 L 427.1699355585371,209.2779651232238 L 442.6349076097217,202.52297102641737 L 436.47602313419554,186.81108228543735 L 452.1879118751756,192.96996676096356 Z" fill="none" stroke="#FFFFFF" stroke-width="1.4255106006402105" /><path d="M 529.5495068907485,177.50499470977888 L 536.3045009875549,192.96996676096356 L 552.0163897285349,186.81108228543735 L 545.8575052530088,202.5229710264174 L 561.3224773041934,209.2779651232238 L 545.8575052530088,216.0329592200302 L 552.0163897285349,231.74484796101024 L 536.3045009875549,225.58596348548403 L 529.5495068907485,241.0509355366687 L 522.7945127939421,225.58596348548403 L 507.08262405296205,231.74484796101024 L 513.2415085284882,216.03295922003022 L 497.7765364773036,209.2779651232238 L 513.2415085284882,202.52297102641737 L 507.08262405296205,186.81108228543735 L 522.7945127939421,192.96996676096356 Z" fill="none" stroke="#FFFFFF" stroke-width="1.4255106006402105" /><path d="M 1.9455333258114433e-15,238.6503111054306 L 6.7549940968064135,254.11528315661528 L 22.46688283778644,247.95639868108907 L 16.307998362260236,263.6682874220691 L 31.77297041344491,270.4232815188755 L 16.307998362260236,277.1782756156819 L 22.46688283778644,292.89016435666196 L 6.7549940968064135,286.7312798811357 L 1.9455333258114433e-15,302.1962519323204 L -6.754994096806412,286.7312798811357 L -22.466882837786436,292.89016435666196 L -16.307998362260232,277.1782756156819 L -31.77297041344491,270.4232815188755 L -16.307998362260236,263.6682874220691 L -22.466882837786443,247.95639868108907 L -6.754994096806422,254.11528315661528 Z" fill="none" stroke="#FFFFFF" stroke-width="1.4255106006402105" /><path d="M 70.60660091876646,238.6503111054306 L 77.36159501557287,254.11528315661528 L 93.0734837565529,247.95639868108907 L 86.9145992810267,263.6682874220691 L 102.37957133221137,270.4232815188755 L 86.9145992810267,277.1782756156819 L 93.0734837565529,292.89016435666196 L 77.36159501557287,286.7312798811357 L 70.60660091876646,302.1962519323204 L 63.85160682196005,286.7312798811357 L 48.139718080980025,292.89016435666196 L 54.298602556506225,277.1782756156819 L 38.83363050532155,270.4232815188755 L 54.298602556506225,263.6682874220691 L 48.13971808098002,247.95639868108907 L 63.85160682196004,254.11528315661528 Z" fill="none" stroke="#FFFFFF" stroke-width="1.4255106006402105" /><path d="M 141.21320183753292,238.6503111054306 L 147.96819593433935,254.11528315661528 L 163.68008467531936,247.95639868108907 L 157.52120019979316,263.6682874220691 L 172.98617225097783,270.4232815188755 L 157.52120019979316,277.1782756156819 L 163.68008467531936,292.89016435666196 L 147.96819593433935,286.7312798811357 L 141.21320183753292,302.1962519323204 L 134.45820774072652,286.7312798811357 L 118.74631899974648,292.89016435666196 L 124.90520347527269,277.1782756156819 L 109.44023142408801,270.4232815188755 L 124.90520347527269,263.6682874220691 L 118.74631899974648,247.95639868108907 L 134.4582077407265,254.11528315661528 Z" fill="none" stroke="#FFFFFF" stroke-width="1.4255106006402105" /><path d="M 211.8198027562994,238.6503111054306 L 218.5747968531058,254.11528315661528 L 234.28668559408584,247.95639868108907 L 228.12780111855963,263.6682874220691 L 243.5927731697443,270.4232815188755 L 228.12780111855963,277.1782756156819 L 234.28668559408584,292.89016435666196 L 218.5747968531058,286.7312798811357 L 211.8198027562994,302.1962519323204 L 205.064808659493,286.7312798811357 L 189.35291991851295,292.89016435666196 L 195.51180439403916,277.1782756156819 L 180.0468323428545,270.4232815188755 L 195.51180439403916,263.6682874220691 L 189.35291991851295,247.95639868108907 L 205.06480865949297,254.11528315661528 Z" fill="none" stroke="#FFFFFF" stroke-width="1.4255106006402105" /><path d="M 282.42640367506584,238.6503111054306 L 289.18139777187224,254.11528315661528 L 304.8932865128523,247.95639868108907 L 298.73440203732605,263.6682874220691 L 314.19937408851075,270.4232815188755 L 298.73440203732605,277.1782756156819 L 304.8932865128523,292.89016435666196 L 289.18139777187224,286.7312798811357 L 282.42640367506584,302.1962519323204 L 275.67140957825944,286.7312798811357 L 259.9595208372794,292.89016435666196 L 266.11840531280563,277.1782756156819 L 250.65343326162093,270.4232815188755 L 266.11840531280563,263.6682874220691 L 259.9595208372794,247.95639868108907 L 275.67140957825944,254.11528315661528 Z" fill="none" stroke="#FFFFFF" stroke-width="1.4255106006402105" /><path d="M 353.0330045938323,238.6503111054306 L 359.7879986906387,254.11528315661528 L 375.49988743161873,247.95639868108907 L 369.34100295609255,263.6682874220691 L 384.8059750072772,270.4232815188755 L 369.34100295609255,277.1782756156819 L 375.49988743161873,292.89016435666196 L 359.7879986906387,286.7312798811357 L 353.0330045938323,302.1962519323204 L 346.2780104970259,286.7312798811357 L 330.56612175604585,292.89016435666196 L 336.7250062315721,277.1782756156819 L 321.2600341803874,270.4232815188755 L 336.725006231572,263.6682874220691 L 330.56612175604585,247.95639868108907 L 346.2780104970259,254.11528315661528 Z" fill="none" stroke="#FFFFFF" stroke-width="1.4255106006402105" /><path d="M 423.6396055125988,238.6503111054306 L 430.3945996094052,254.11528315661528 L 446.10648835038523,247.95639868108907 L 439.94760387485906,263.6682874220691 L 455.4125759260437,270.4232815188755 L 439.94760387485906,277.1782756156819 L 446.10648835038523,292.89016435666196 L 430.3945996094052,286.7312798811357 L 423.6396055125988,302.1962519323204 L 416.8846114157924,286.7312798811357 L 401.17272267481235,292.89016435666196 L 407.3316071503386,277.1782756156819 L 391.8666350991539,270.4232815188755 L 407.3316071503385,263.6682874220691 L 401.17272267481235,247.95639868108907 L 416.8846114157924,254.11528315661528 Z" fill="none" stroke="#FFFFFF" stroke-width="1.4255106006402105" /><path d="M 494.24620643136524,238.6503111054306 L 501.00120052817164,254.11528315661528 L 516.7130892691516,247.95639868108907 L 510.55420479362544,263.6682874220691 L 526.0191768448101,270.4232815188755 L 510.55420479362544,277.1782756156819 L 516.7130892691516,292.89016435666196 L 501.00120052817164,286.7312798811357 L 494.24620643136524,302.1962519323204 L 487.49121233455884,286.7312798811357 L 471.7793235935788,292.89016435666196 L 477.93820806910503,277.1782756156819 L 462.4732360179203,270.4232815188755 L 477.93820806910503,263.6682874220691 L 471.7793235935788,247.95639868108907 L 487.49121233455884,254.11528315661528 Z" fill="none" stroke="#FFFFFF" stroke-width="1.4255106006402105" /><path d="M 564.8528073501317,238.6503111054306 L 571.6078014469381,254.11528315661528 L 587.3196901879181,247.95639868108907 L 581.160805712392,263.6682874220691 L 596.6257777635766,270.4232815188755 L 581.160805712392,277.1782756156819 L 587.3196901879181,292.89016435666196 L 571.6078014469381,286.7312798811357 L 564.8528073501317,302.1962519323204 L 558.0978132533253,286.7312798811357 L 542.3859245123452,292.89016435666196 L 548.5448089878714,277.1782756156819 L 533.0798369366868,270.4232815188755 L 548.5448089878714,263.6682874220691 L 542.3859245123452,247.95639868108907 L 558.0978132533253,254.11528315661528 Z" fill="none" stroke="#FFFFFF" stroke-width="1.4255106006402105" /><path d="M -35.30330045938323,299.7956275010824 L -28.548306362576817,315.2605995522671 L -12.836417621596791,309.10171507674085 L -18.995302097122995,324.8136038177209 L -3.530330045938321,331.5685979145273 L -18.995302097122995,338.3235920113337 L -12.836417621596791,354.03548075231373 L -28.548306362576817,347.8765962767875 L -35.30330045938323,363.3415683279722 L -42.058294556189644,347.8765962767875 L -57.770183297169666,354.03548075231373 L -51.61129882164346,338.3235920113337 L -67.07627087282813,331.5685979145273 L -51.611298821643466,324.8136038177209 L -57.77018329716967,309.10171507674085 L -42.05829455618965,315.2605995522671 Z" fill="none" stroke="#FFFFFF" stroke-width="1.4255106006402105" /><path d="M 35.30330045938323,299.7956275010824 L 42.058294556189644,315.2605995522671 L 57.770183297169666,309.10171507674085 L 51.611298821643466,324.8136038177209 L 67.07627087282813,331.5685979145273 L 51.611298821643466,338.3235920113337 L 57.770183297169666,354.03548075231373 L 42.058294556189644,347.8765962767875 L 35.30330045938323,363.3415683279722 L 28.548306362576817,347.8765962767875 L 12.836417621596794,354.03548075231373 L 18.995302097122998,338.3235920113337 L 3.530330045938321,331.5685979145273 L 18.995302097122995,324.8136038177209 L 12.836417621596787,309.10171507674085 L 28.54830636257681,315.2605995522671 Z" fill="none" stroke="#FFFFFF" stroke-width="1.4255106006402105" /><path d="M 105.9099013781497,299.7956275010824 L 112.66489547495611,315.2605995522671 L 128.37678421593614,309.10171507674085 L 122.21789974040993,324.8136038177209 L 137.6828717915946,331.5685979145273 L 122.21789974040993,338.3235920113337 L 128.37678421593614,354.03548075231373 L 112.66489547495611,347.8765962767875 L 105.9099013781497,363.3415683279722 L 99.15490728134328,347.8765962767875 L 83.44301854036325,354.03548075231373 L 89.60190301588946,338.3235920113337 L 74.13693096470479,331.5685979145273 L 89.60190301588946,324.8136038177209 L 83.44301854036325,309.10171507674085 L 99.15490728134327,315.2605995522671 Z" fill="none" stroke="#FFFFFF" stroke-width="1.4255106006402105" /><path d="M 176.51650229691617,299.7956275010824 L 183.2714963937226,315.2605995522671 L 198.98338513470262,309.10171507674085 L 192.8245006591764,324.8136038177209 L 208.28947271036108,331.5685979145273 L 192.8245006591764,338.3235920113337 L 198.98338513470262,354.03548075231373 L 183.2714963937226,347.8765962767875 L 176.51650229691617,363.3415683279722 L 169.76150820010977,347.8765962767875 L 154.04961945912973,354.03548075231373 L 160.20850393465594,338.3235920113337 L 144.74353188347126,331.5685979145273 L 160.20850393465594,324.8136038177209 L 154.04961945912973,309.10171507674085 L 169.76150820010974,315.2605995522671 Z" fill="none" stroke="#FFFFFF" stroke-width="1.4255106006402105" /><path d="M 247.12310321568262,299.7956275010824 L 253.87809731248905,315.2605995522671 L 269.58998605346903,309.10171507674085 L 263.43110157794285,324.8136038177209 L 278.8960736291275,331.5685979145273 L 263.43110157794285,338.3235920113337 L 269.58998605346903,354.03548075231373 L 253.87809731248905,347.8765962767875 L 247.12310321568262,363.3415683279722 L 240.36810911887622,347.8765962767875 L 224.65622037789618,354.03548075231373 L 230.81510485342238,338.3235920113337 L 215.3501328022377,331.5685979145273 L 230.81510485342238,324.8136038177209 L 224.65622037789618,309.10171507674085 L 240.3681091188762,315.2605995522671 Z" fill="none" stroke="#FFFFFF" stroke-width="1.4255106006402105" /><path d="M 317.72970413444904,299.7956275010824 L 324.48469823125544,315.2605995522671 L 340.1965869722355,309.10171507674085 L 334.03770249670924,324.8136038177209 L 349.50267454789395,331.5685979145273 L 334.03770249670924,338.3235920113337 L 340.1965869722355,354.03548075231373 L 324.48469823125544,347.8765962767875 L 317.72970413444904,363.3415683279722 L 310.97471003764264,347.8765962767875 L 295.2628212966626,354.03548075231373 L 301.42170577218883,338.3235920113337 L 285.9567337210041,331.5685979145273 L 301.42170577218883,324.8136038177209 L 295.2628212966626,309.10171507674085 L 310.97471003764264,315.2605995522671 Z" fill="none" stroke="#FFFFFF" stroke-width="1.4255106006402105" /><path d="M 388.33630505321554,299.7956275010824 L 395.09129915002194,315.2605995522671 L 410.803187891002,309.10171507674085 L 404.64430341547575,324.8136038177209 L 420.10927546666045,331.5685979145273 L 404.64430341547575,338.3235920113337 L 410.803187891002,354.03548075231373 L 395.09129915002194,347.8765962767875 L 388.33630505321554,363.3415683279722 L 381.58131095640914,347.8765962767875 L 365.8694222154291,354.03548075231373 L 372.02830669095533,338.3235920113337 L 356.56333463977063,331.5685979145273 L 372.02830669095533,324.8136038177209 L 365.8694222154291,309.10171507674085 L 381.58131095640914,315.2605995522671 Z" fill="none" stroke="#FFFFFF" stroke-width="1.4255106006402105" /><path d="M 458.942905971982,299.7956275010824 L 465.6979000687884,315.2605995522671 L 481.40978880976843,309.10171507674085 L 475.25090433424225,324.8136038177209 L 490.7158763854269,331.5685979145273 L 475.25090433424225,338.3235920113337 L 481.40978880976843,354.03548075231373 L 465.6979000687884,347.8765962767875 L 458.942905971982,363.3415683279722 L 452.1879118751756,347.8765962767875 L 436.47602313419554,354.03548075231373 L 442.6349076097218,338.3235920113337 L 427.1699355585371,331.5685979145273 L 442.6349076097217,324.8136038177209 L 436.47602313419554,309.10171507674085 L 452.1879118751756,315.2605995522671 Z" fill="none" stroke="#FFFFFF" stroke-width="1.4255106006402105" /><path d="M 529.5495068907485,299.7956275010824 L 536.3045009875549,315.2605995522671 L 552.0163897285349,309.10171507674085 L 545.8575052530088,324.8136038177209 L 561.3224773041934,331.5685979145273 L 545.8575052530088,338.3235920113337 L 552.0163897285349,354.03548075231373 L 536.3045009875549,347.8765962767875 L 529.5495068907485,363.3415683279722 L 522.7945127939421,347.8765962767875 L 507.08262405296205,354.03548075231373 L 513.2415085284882,338.3235920113337 L 497.7765364773036,331.5685979145273 L 513.2415085284882,324.8136038177209 L 507.08262405296205,309.10171507674085 L 522.7945127939421,315.2605995522671 Z" fill="none" stroke="#FFFFFF" stroke-width="1.4255106006402105" /><path d="M 1.9455333258114433e-15,360.94094389673415 L 6.7549940968064135,376.40591594791886 L 22.46688283778644,370.2470314723926 L 16.307998362260236,385.95892021337266 L 31.77297041344491,392.71391431017906 L 16.307998362260236,399.46890840698546 L 22.46688283778644,415.1807971479655 L 6.7549940968064135,409.02191267243927 L 1.9455333258114433e-15,424.486884723624 L -6.754994096806412,409.02191267243927 L -22.466882837786436,415.1807971479655 L -16.307998362260232,399.46890840698546 L -31.77297041344491,392.71391431017906 L -16.307998362260236,385.95892021337266 L -22.466882837786443,370.2470314723926 L -6.754994096806422,376.40591594791886 Z" fill="none" stroke="#FFFFFF" stroke-width="1.4255106006402105" /><path d="M 70.60660091876646,360.94094389673415 L 77.36159501557287,376.40591594791886 L 93.0734837565529,370.2470314723926 L 86.9145992810267,385.95892021337266 L 102.37957133221137,392.71391431017906 L 86.9145992810267,399.46890840698546 L 93.0734837565529,415.1807971479655 L 77.36159501557287,409.02191267243927 L 70.60660091876646,424.486884723624 L 63.85160682196005,409.02191267243927 L 48.139718080980025,415.1807971479655 L 54.298602556506225,399.46890840698546 L 38.83363050532155,392.71391431017906 L 54.298602556506225,385.95892021337266 L 48.13971808098002,370.2470314723926 L 63.85160682196004,376.40591594791886 Z" fill="none" stroke="#FFFFFF" stroke-width="1.4255106006402105" /><path d="M 141.21320183753292,360.94094389673415 L 147.96819593433935,376.40591594791886 L 163.68008467531936,370.2470314723926 L 157.52120019979316,385.95892021337266 L 172.98617225097783,392.71391431017906 L 157.52120019979316,399.46890840698546 L 163.68008467531936,415.1807971479655 L 147.96819593433935,409.02191267243927 L 141.21320183753292,424.486884723624 L 134.45820774072652,409.02191267243927 L 118.74631899974648,415.1807971479655 L 124.90520347527269,399.46890840698546 L 109.44023142408801,392.71391431017906 L 124.90520347527269,385.95892021337266 L 118.74631899974648,370.2470314723926 L 134.4582077407265,376.40591594791886 Z" fill="none" stroke="#FFFFFF" stroke-width="1.4255106006402105" /><path d="M 211.8198027562994,360.94094389673415 L 218.5747968531058,376.40591594791886 L 234.28668559408584,370.2470314723926 L 228.12780111855963,385.95892021337266 L 243.5927731697443,392.71391431017906 L 228.12780111855963,399.46890840698546 L 234.28668559408584,415.1807971479655 L 218.5747968531058,409.02191267243927 L 211.8198027562994,424.486884723624 L 205.064808659493,409.02191267243927 L 189.35291991851295,415.1807971479655 L 195.51180439403916,399.46890840698546 L 180.0468323428545,392.71391431017906 L 195.51180439403916,385.95892021337266 L 189.35291991851295,370.2470314723926 L 205.06480865949297,376.40591594791886 Z" fill="none" stroke="#FFFFFF" stroke-width="1.4255106006402105" /><path d="M 282.42640367506584,360.94094389673415 L 289.18139777187224,376.40591594791886 L 304.8932865128523,370.2470314723926 L 298.73440203732605,385.95892021337266 L 314.19937408851075,392.71391431017906 L 298.73440203732605,399.46890840698546 L 304.8932865128523,415.1807971479655 L 289.18139777187224,409.02191267243927 L 282.42640367506584,424.486884723624 L 275.67140957825944,409.02191267243927 L 259.9595208372794,415.1807971479655 L 266.11840531280563,399.46890840698546 L 250.65343326162093,392.71391431017906 L 266.11840531280563,385.95892021337266 L 259.9595208372794,370.2470314723926 L 275.67140957825944,376.40591594791886 Z" fill="none" stroke="#FFFFFF" stroke-width="1.4255106006402105" /><path d="M 353.0330045938323,360.94094389673415 L 359.7879986906387,376.40591594791886 L 375.49988743161873,370.2470314723926 L 369.34100295609255,385.95892021337266 L 384.8059750072772,392.71391431017906 L 369.34100295609255,399.46890840698546 L 375.49988743161873,415.1807971479655 L 359.7879986906387,409.02191267243927 L 353.0330045938323,424.486884723624 L 346.2780104970259,409.02191267243927 L 330.56612175604585,415.1807971479655 L 336.7250062315721,399.46890840698546 L 321.2600341803874,392.71391431017906 L 336.725006231572,385.95892021337266 L 330.56612175604585,370.2470314723926 L 346.2780104970259,376.40591594791886 Z" fill="none" stroke="#FFFFFF" stroke-width="1.4255106006402105" /><path d="M 423.6396055125988,360.94094389673415 L 430.3945996094052,376.40591594791886 L 446.10648835038523,370.2470314723926 L 439.94760387485906,385.95892021337266 L 455.4125759260437,392.71391431017906 L 439.94760387485906,399.46890840698546 L 446.10648835038523,415.1807971479655 L 430.3945996094052,409.02191267243927 L 423.6396055125988,424.486884723624 L 416.8846114157924,409.02191267243927 L 401.17272267481235,415.1807971479655 L 407.3316071503386,399.46890840698546 L 391.8666350991539,392.71391431017906 L 407.3316071503385,385.95892021337266 L 401.17272267481235,370.2470314723926 L 416.8846114157924,376.40591594791886 Z" fill="none" stroke="#FFFFFF" stroke-width="1.4255106006402105" /><path d="M 494.24620643136524,360.94094389673415 L 501.00120052817164,376.40591594791886 L 516.7130892691516,370.2470314723926 L 510.55420479362544,385.95892021337266 L 526.0191768448101,392.71391431017906 L 510.55420479362544,399.46890840698546 L 516.7130892691516,415.1807971479655 L 501.00120052817164,409.02191267243927 L 494.24620643136524,424.486884723624 L 487.49121233455884,409.02191267243927 L 471.7793235935788,415.1807971479655 L 477.93820806910503,399.46890840698546 L 462.4732360179203,392.71391431017906 L 477.93820806910503,385.95892021337266 L 471.7793235935788,370.2470314723926 L 487.49121233455884,376.40591594791886 Z" fill="none" stroke="#FFFFFF" stroke-width="1.4255106006402105" /><path d="M 564.8528073501317,360.94094389673415 L 571.6078014469381,376.40591594791886 L 587.3196901879181,370.2470314723926 L 581.160805712392,385.95892021337266 L 596.6257777635766,392.71391431017906 L 581.160805712392,399.46890840698546 L 587.3196901879181,415.1807971479655 L 571.6078014469381,409.02191267243927 L 564.8528073501317,424.486884723624 L 558.0978132533253,409.02191267243927 L 542.3859245123452,415.1807971479655 L 548.5448089878714,399.46890840698546 L 533.0798369366868,392.71391431017906 L 548.5448089878714,385.95892021337266 L 542.3859245123452,370.2470314723926 L 558.0978132533253,376.40591594791886 Z" fill="none" stroke="#FFFFFF" stroke-width="1.4255106006402105" /><path d="M -35.30330045938323,422.0862602923859 L -28.548306362576817,437.5512323435705 L -12.836417621596791,431.39234786804434 L -18.995302097122995,447.1042366090244 L -3.530330045938321,453.8592307058308 L -18.995302097122995,460.6142248026372 L -12.836417621596791,476.3261135436172 L -28.548306362576817,470.16722906809105 L -35.30330045938323,485.6322011192757 L -42.058294556189644,470.16722906809105 L -57.770183297169666,476.3261135436172 L -51.61129882164346,460.6142248026372 L -67.07627087282813,453.8592307058308 L -51.611298821643466,447.1042366090244 L -57.77018329716967,431.39234786804434 L -42.05829455618965,437.5512323435706 Z" fill="none" stroke="#FFFFFF" stroke-width="1.4255106006402105" /><path d="M 35.30330045938323,422.0862602923859 L 42.058294556189644,437.5512323435705 L 57.770183297169666,431.39234786804434 L 51.611298821643466,447.1042366090244 L 67.07627087282813,453.8592307058308 L 51.611298821643466,460.6142248026372 L 57.770183297169666,476.3261135436172 L 42.058294556189644,470.16722906809105 L 35.30330045938323,485.6322011192757 L 28.548306362576817,470.16722906809105 L 12.836417621596794,476.3261135436172 L 18.995302097122998,460.6142248026372 L 3.530330045938321,453.8592307058308 L 18.995302097122995,447.1042366090244 L 12.836417621596787,431.39234786804434 L 28.54830636257681,437.5512323435706 Z" fill="none" stroke="#FFFFFF" stroke-width="1.4255106006402105" /><path d="M 105.9099013781497,422.0862602923859 L 112.66489547495611,437.5512323435705 L 128.37678421593614,431.39234786804434 L 122.21789974040993,447.1042366090244 L 137.6828717915946,453.8592307058308 L 122.21789974040993,460.6142248026372 L 128.37678421593614,476.3261135436172 L 112.66489547495611,470.16722906809105 L 105.9099013781497,485.6322011192757 L 99.15490728134328,470.16722906809105 L 83.44301854036325,476.3261135436172 L 89.60190301588946,460.6142248026372 L 74.13693096470479,453.8592307058308 L 89.60190301588946,447.1042366090244 L 83.44301854036325,431.39234786804434 L 99.15490728134327,437.5512323435706 Z" fill="none" stroke="#FFFFFF" stroke-width="1.4255106006402105" /><path d="M 176.51650229691617,422.0862602923859 L 183.2714963937226,437.5512323435705 L 198.98338513470262,431.39234786804434 L 192.8245006591764,447.1042366090244 L 208.28947271036108,453.8592307058308 L 192.8245006591764,460.6142248026372 L 198.98338513470262,476.3261135436172 L 183.2714963937226,470.16722906809105 L 176.51650229691617,485.6322011192757 L 169.76150820010977,470.16722906809105 L 154.04961945912973,476.3261135436172 L 160.20850393465594,460.6142248026372 L 144.74353188347126,453.8592307058308 L 160.20850393465594,447.1042366090244 L 154.04961945912973,431.39234786804434 L 169.76150820010974,437.5512323435706 Z" fill="none" stroke="#FFFFFF" stroke-width="1.4255106006402105" /><path d="M 247.12310321568262,422.0862602923859 L 253.87809731248905,437.5512323435705 L 269.58998605346903,431.39234786804434 L 263.43110157794285,447.1042366090244 L 278.8960736291275,453.8592307058308 L 263.43110157794285,460.6142248026372 L 269.58998605346903,476.3261135436172 L 253.87809731248905,470.16722906809105 L 247.12310321568262,485.6322011192757 L 240.36810911887622,470.16722906809105 L 224.65622037789618,476.3261135436172 L 230.81510485342238,460.6142248026372 L 215.3501328022377,453.8592307058308 L 230.81510485342238,447.1042366090244 L 224.65622037789618,431.39234786804434 L 240.3681091188762,437.5512323435706 Z" fill="none" stroke="#FFFFFF" stroke-width="1.4255106006402105" /><path d="M 317.72970413444904,422.0862602923859 L 324.48469823125544,437.5512323435705 L 340.1965869722355,431.39234786804434 L 334.03770249670924,447.1042366090244 L 349.50267454789395,453.8592307058308 L 334.03770249670924,460.6142248026372 L 340.1965869722355,476.3261135436172 L 324.48469823125544,470.16722906809105 L 317.72970413444904,485.6322011192757 L 310.97471003764264,470.16722906809105 L 295.2628212966626,476.3261135436172 L 301.42170577218883,460.6142248026372 L 285.9567337210041,453.8592307058308 L 301.42170577218883,447.1042366090244 L 295.2628212966626,431.39234786804434 L 310.97471003764264,437.5512323435706 Z" fill="none" stroke="#FFFFFF" stroke-width="1.4255106006402105" /><path d="M 388.33630505321554,422.0862602923859 L 395.09129915002194,437.5512323435705 L 410.803187891002,431.39234786804434 L 404.64430341547575,447.1042366090244 L 420.10927546666045,453.8592307058308 L 404.64430341547575,460.6142248026372 L 410.803187891002,476.3261135436172 L 395.09129915002194,470.16722906809105 L 388.33630505321554,485.6322011192757 L 381.58131095640914,470.16722906809105 L 365.8694222154291,476.3261135436172 L 372.02830669095533,460.6142248026372 L 356.56333463977063,453.8592307058308 L 372.02830669095533,447.1042366090244 L 365.8694222154291,431.39234786804434 L 381.58131095640914,437.5512323435706 Z" fill="none" stroke="#FFFFFF" stroke-width="1.4255106006402105" /><path d="M 458.942905971982,422.0862602923859 L 465.6979000687884,437.5512323435705 L 481.40978880976843,431.39234786804434 L 475.25090433424225,447.1042366090244 L 490.7158763854269,453.8592307058308 L 475.25090433424225,460.6142248026372 L 481.40978880976843,476.3261135436172 L 465.6979000687884,470.16722906809105 L 458.942905971982,485.6322011192757 L 452.1879118751756,470.16722906809105 L 436.47602313419554,476.3261135436172 L 442.6349076097218,460.6142248026372 L 427.1699355585371,453.8592307058308 L 442.6349076097217,447.1042366090244 L 436.47602313419554,431.39234786804434 L 452.1879118751756,437.5512323435706 Z" fill="none" stroke="#FFFFFF" stroke-width="1.4255106006402105" /><path d="M 529.5495068907485,422.0862602923859 L 536.3045009875549,437.5512323435705 L 552.0163897285349,431.39234786804434 L 545.8575052530088,447.1042366090244 L 561.3224773041934,453.8592307058308 L 545.8575052530088,460.6142248026372 L 552.0163897285349,476.3261135436172 L 536.3045009875549,470.16722906809105 L 529.5495068907485,485.6322011192757 L 522.7945127939421,470.16722906809105 L 507.08262405296205,476.3261135436172 L 513.2415085284882,460.6142248026372 L 497.7765364773036,453.8592307058308 L 513.2415085284882,447.1042366090244 L 507.08262405296205,431.39234786804434 L 522.7945127939421,437.5512323435706 Z" fill="none" stroke="#FFFFFF" stroke-width="1.4255106006402105" /><path d="M 1.9455333258114433e-15,483.23157668803776 L 6.7549940968064135,498.6965487392224 L 22.46688283778644,492.53766426369623 L 16.307998362260236,508.2495530046763 L 31.77297041344491,515.0045471014827 L 16.307998362260236,521.7595411982891 L 22.46688283778644,537.4714299392691 L 6.7549940968064135,531.3125454637429 L 1.9455333258114433e-15,546.7775175149276 L -6.754994096806412,531.3125454637429 L -22.466882837786436,537.4714299392691 L -16.307998362260232,521.7595411982891 L -31.77297041344491,515.0045471014827 L -16.307998362260236,508.2495530046763 L -22.466882837786443,492.53766426369623 L -6.754994096806422,498.69654873922246 Z" fill="none" stroke="#FFFFFF" stroke-width="1.4255106006402105" /><path d="M 70.60660091876646,483.23157668803776 L 77.36159501557287,498.6965487392224 L 93.0734837565529,492.53766426369623 L 86.9145992810267,508.2495530046763 L 102.37957133221137,515.0045471014827 L 86.9145992810267,521.7595411982891 L 93.0734837565529,537.4714299392691 L 77.36159501557287,531.3125454637429 L 70.60660091876646,546.7775175149276 L 63.85160682196005,531.3125454637429 L 48.139718080980025,537.4714299392691 L 54.298602556506225,521.7595411982891 L 38.83363050532155,515.0045471014827 L 54.298602556506225,508.2495530046763 L 48.13971808098002,492.53766426369623 L 63.85160682196004,498.69654873922246 Z" fill="none" stroke="#FFFFFF" stroke-width="1.4255106006402105" /><path d="M 141.21320183753292,483.23157668803776 L 147.96819593433935,498.6965487392224 L 163.68008467531936,492.53766426369623 L 157.52120019979316,508.2495530046763 L 172.98617225097783,515.0045471014827 L 157.52120019979316,521.7595411982891 L 163.68008467531936,537.4714299392691 L 147.96819593433935,531.3125454637429 L 141.21320183753292,546.7775175149276 L 134.45820774072652,531.3125454637429 L 118.74631899974648,537.4714299392691 L 124.90520347527269,521.7595411982891 L 109.44023142408801,515.0045471014827 L 124.90520347527269,508.2495530046763 L 118.74631899974648,492.53766426369623 L 134.4582077407265,498.69654873922246 Z" fill="none" stroke="#FFFFFF" stroke-width="1.4255106006402105" /><path d="M 211.8198027562994,483.23157668803776 L 218.5747968531058,498.6965487392224 L 234.28668559408584,492.53766426369623 L 228.12780111855963,508.2495530046763 L 243.5927731697443,515.0045471014827 L 228.12780111855963,521.7595411982891 L 234.28668559408584,537.4714299392691 L 218.5747968531058,531.3125454637429 L 211.8198027562994,546.7775175149276 L 205.064808659493,531.3125454637429 L 189.35291991851295,537.4714299392691 L 195.51180439403916,521.7595411982891 L 180.0468323428545,515.0045471014827 L 195.51180439403916,508.2495530046763 L 189.35291991851295,492.53766426369623 L 205.06480865949297,498.69654873922246 Z" fill="none" stroke="#FFFFFF" stroke-width="1.4255106006402105" /><path d="M 282.42640367506584,483.23157668803776 L 289.18139777187224,498.6965487392224 L 304.8932865128523,492.53766426369623 L 298.73440203732605,508.2495530046763 L 314.19937408851075,515.0045471014827 L 298.73440203732605,521.7595411982891 L 304.8932865128523,537.4714299392691 L 289.18139777187224,531.3125454637429 L 282.42640367506584,546.7775175149276 L 275.67140957825944,531.3125454637429 L 259.9595208372794,537.4714299392691 L 266.11840531280563,521.7595411982891 L 250.65343326162093,515.0045471014827 L 266.11840531280563,508.2495530046763 L 259.9595208372794,492.53766426369623 L 275.67140957825944,498.69654873922246 Z" fill="none" stroke="#FFFFFF" stroke-width="1.4255106006402105" /><path d="M 353.0330045938323,483.23157668803776 L 359.7879986906387,498.6965487392224 L 375.49988743161873,492.53766426369623 L 369.34100295609255,508.2495530046763 L 384.8059750072772,515.0045471014827 L 369.34100295609255,521.7595411982891 L 375.49988743161873,537.4714299392691 L 359.7879986906387,531.3125454637429 L 353.0330045938323,546.7775175149276 L 346.2780104970259,531.3125454637429 L 330.56612175604585,537.4714299392691 L 336.7250062315721,521.7595411982891 L 321.2600341803874,515.0045471014827 L 336.725006231572,508.2495530046763 L 330.56612175604585,492.53766426369623 L 346.2780104970259,498.69654873922246 Z" fill="none" stroke="#FFFFFF" stroke-width="1.4255106006402105" /><path d="M 423.6396055125988,483.23157668803776 L 430.3945996094052,498.6965487392224 L 446.10648835038523,492.53766426369623 L 439.94760387485906,508.2495530046763 L 455.4125759260437,515.0045471014827 L 439.94760387485906,521.7595411982891 L 446.10648835038523,537.4714299392691 L 430.3945996094052,531.3125454637429 L 423.6396055125988,546.7775175149276 L 416.8846114157924,531.3125454637429 L 401.17272267481235,537.4714299392691 L 407.3316071503386,521.7595411982891 L 391.8666350991539,515.0045471014827 L 407.3316071503385,508.2495530046763 L 401.17272267481235,492.53766426369623 L 416.8846114157924,498.69654873922246 Z" fill="none" stroke="#FFFFFF" stroke-width="1.4255106006402105" /><path d="M 494.24620643136524,483.23157668803776 L 501.00120052817164,498.6965487392224 L 516.7130892691516,492.53766426369623 L 510.55420479362544,508.2495530046763 L 526.0191768448101,515.0045471014827 L 510.55420479362544,521.7595411982891 L 516.7130892691516,537.4714299392691 L 501.00120052817164,531.3125454637429 L 494.24620643136524,546.7775175149276 L 487.49121233455884,531.3125454637429 L 471.7793235935788,537.4714299392691 L 477.93820806910503,521.7595411982891 L 462.4732360179203,515.0045471014827 L 477.93820806910503,508.2495530046763 L 471.7793235935788,492.53766426369623 L 487.49121233455884,498.69654873922246 Z" fill="none" stroke="#FFFFFF" stroke-width="1.4255106006402105" /><path d="M 564.8528073501317,483.23157668803776 L 571.6078014469381,498.6965487392224 L 587.3196901879181,492.53766426369623 L 581.160805712392,508.2495530046763 L 596.6257777635766,515.0045471014827 L 581.160805712392,521.7595411982891 L 587.3196901879181,537.4714299392691 L 571.6078014469381,531.3125454637429 L 564.8528073501317,546.7775175149276 L 558.0978132533253,531.3125454637429 L 542.3859245123452,537.4714299392691 L 548.5448089878714,521.7595411982891 L 533.0798369366868,515.0045471014827 L 548.5448089878714,508.2495530046763 L 542.3859245123452,492.53766426369623 L 558.0978132533253,498.69654873922246 Z" fill="none" stroke="#FFFFFF" stroke-width="1.4255106006402105" /><line x1="31.77297041344491" y1="25.842015936268524" x2="38.83363050532155" y2="25.842015936268524" stroke="#FFFFFF" stroke-width="0.5"/><line x1="102.37957133221137" y1="25.842015936268524" x2="109.44023142408801" y2="25.842015936268524" stroke="#FFFFFF" stroke-width="0.5"/><line x1="172.98617225097783" y1="25.842015936268524" x2="180.0468323428545" y2="25.842015936268524" stroke="#FFFFFF" stroke-width="0.5"/><line x1="243.5927731697443" y1="25.842015936268524" x2="250.65343326162093" y2="25.842015936268524" stroke="#FFFFFF" stroke-width="0.5"/><line x1="314.19937408851075" y1="25.842015936268524" x2="321.2600341803874" y2="25.842015936268524" stroke="#FFFFFF" stroke-width="0.5"/><line x1="384.8059750072772" y1="25.842015936268524" x2="391.8666350991539" y2="25.842015936268524" stroke="#FFFFFF" stroke-width="0.5"/><line x1="455.4125759260437" y1="25.842015936268524" x2="462.4732360179203" y2="25.842015936268524" stroke="#FFFFFF" stroke-width="0.5"/><line x1="67.07627087282813" y1="86.98733233192027" x2="74.13693096470479" y2="86.98733233192027" stroke="#FFFFFF" stroke-width="0.5"/><line x1="137.6828717915946" y1="86.98733233192027" x2="144.74353188347126" y2="86.98733233192027" stroke="#FFFFFF" stroke-width="0.5"/><line x1="208.28947271036108" y1="86.98733233192027" x2="215.3501328022377" y2="86.98733233192027" stroke="#FFFFFF" stroke-width="0.5"/><line x1="278.8960736291275" y1="86.98733233192027" x2="285.9567337210041" y2="86.98733233192027" stroke="#FFFFFF" stroke-width="0.5"/><line x1="349.50267454789395" y1="86.98733233192027" x2="356.56333463977063" y2="86.98733233192027" stroke="#FFFFFF" stroke-width="0.5"/><line x1="420.10927546666045" y1="86.98733233192027" x2="427.1699355585371" y2="86.98733233192027" stroke="#FFFFFF" stroke-width="0.5"/><line x1="490.7158763854269" y1="86.98733233192027" x2="497.7765364773036" y2="86.98733233192027" stroke="#FFFFFF" stroke-width="0.5"/><line x1="31.77297041344491" y1="148.13264872757205" x2="38.83363050532155" y2="148.13264872757205" stroke="#FFFFFF" stroke-width="0.5"/><line x1="102.37957133221137" y1="148.13264872757205" x2="109.44023142408801" y2="148.13264872757205" stroke="#FFFFFF" stroke-width="0.5"/><line x1="172.98617225097783" y1="148.13264872757205" x2="180.0468323428545" y2="148.13264872757205" stroke="#FFFFFF" stroke-width="0.5"/><line x1="243.5927731697443" y1="148.13264872757205" x2="250.65343326162093" y2="148.13264872757205" stroke="#FFFFFF" stroke-width="0.5"/><line x1="314.19937408851075" y1="148.13264872757205" x2="321.2600341803874" y2="148.13264872757205" stroke="#FFFFFF" stroke-width="0.5"/><line x1="384.8059750072772" y1="148.13264872757205" x2="391.8666350991539" y2="148.13264872757205" stroke="#FFFFFF" stroke-width="0.5"/><line x1="455.4125759260437" y1="148.13264872757205" x2="462.4732360179203" y2="148.13264872757205" stroke="#FFFFFF" stroke-width="0.5"/><line x1="67.07627087282813" y1="209.2779651232238" x2="74.13693096470479" y2="209.2779651232238" stroke="#FFFFFF" stroke-width="0.5"/><line x1="137.6828717915946" y1="209.2779651232238" x2="144.74353188347126" y2="209.2779651232238" stroke="#FFFFFF" stroke-width="0.5"/><line x1="208.28947271036108" y1="209.2779651232238" x2="215.3501328022377" y2="209.2779651232238" stroke="#FFFFFF" stroke-width="0.5"/><line x1="278.8960736291275" y1="209.2779651232238" x2="285.9567337210041" y2="209.2779651232238" stroke="#FFFFFF" stroke-width="0.5"/><line x1="349.50267454789395" y1="209.2779651232238" x2="356.56333463977063" y2="209.2779651232238" stroke="#FFFFFF" stroke-width="0.5"/><line x1="420.10927546666045" y1="209.2779651232238" x2="427.1699355585371" y2="209.2779651232238" stroke="#FFFFFF" stroke-width="0.5"/><line x1="490.7158763854269" y1="209.2779651232238" x2="497.7765364773036" y2="209.2779651232238" stroke="#FFFFFF" stroke-width="0.5"/><line x1="31.77297041344491" y1="270.4232815188755" x2="38.83363050532155" y2="270.4232815188755" stroke="#FFFFFF" stroke-width="0.5"/><line x1="102.37957133221137" y1="270.4232815188755" x2="109.44023142408801" y2="270.4232815188755" stroke="#FFFFFF" stroke-width="0.5"/><line x1="172.98617225097783" y1="270.4232815188755" x2="180.0468323428545" y2="270.4232815188755" stroke="#FFFFFF" stroke-width="0.5"/><line x1="243.5927731697443" y1="270.4232815188755" x2="250.65343326162093" y2="270.4232815188755" stroke="#FFFFFF" stroke-width="0.5"/><line x1="314.19937408851075" y1="270.4232815188755" x2="321.2600341803874" y2="270.4232815188755" stroke="#FFFFFF" stroke-width="0.5"/><line x1="384.8059750072772" y1="270.4232815188755" x2="391.8666350991539" y2="270.4232815188755" stroke="#FFFFFF" stroke-width="0.5"/><line x1="455.4125759260437" y1="270.4232815188755" x2="462.4732360179203" y2="270.4232815188755" stroke="#FFFFFF" stroke-width="0.5"/><line x1="67.07627087282813" y1="331.5685979145273" x2="74.13693096470479" y2="331.5685979145273" stroke="#FFFFFF" stroke-width="0.5"/><line x1="137.6828717915946" y1="331.5685979145273" x2="144.74353188347126" y2="331.5685979145273" stroke="#FFFFFF" stroke-width="0.5"/><line x1="208.28947271036108" y1="331.5685979145273" x2="215.3501328022377" y2="331.5685979145273" stroke="#FFFFFF" stroke-width="0.5"/><line x1="278.8960736291275" y1="331.5685979145273" x2="285.9567337210041" y2="331.5685979145273" stroke="#FFFFFF" stroke-width="0.5"/><line x1="349.50267454789395" y1="331.5685979145273" x2="356.56333463977063" y2="331.5685979145273" stroke="#FFFFFF" stroke-width="0.5"/><line x1="420.10927546666045" y1="331.5685979145273" x2="427.1699355585371" y2="331.5685979145273" stroke="#FFFFFF" stroke-width="0.5"/><line x1="490.7158763854269" y1="331.5685979145273" x2="497.7765364773036" y2="331.5685979145273" stroke="#FFFFFF" stroke-width="0.5"/><line x1="31.77297041344491" y1="392.71391431017906" x2="38.83363050532155" y2="392.71391431017906" stroke="#FFFFFF" stroke-width="0.5"/><line x1="102.37957133221137" y1="392.71391431017906" x2="109.44023142408801" y2="392.71391431017906" stroke="#FFFFFF" stroke-width="0.5"/><line x1="172.98617225097783" y1="392.71391431017906" x2="180.0468323428545" y2="392.71391431017906" stroke="#FFFFFF" stroke-width="0.5"/><line x1="243.5927731697443" y1="392.71391431017906" x2="250.65343326162093" y2="392.71391431017906" stroke="#FFFFFF" stroke-width="0.5"/><line x1="314.19937408851075" y1="392.71391431017906" x2="321.2600341803874" y2="392.71391431017906" stroke="#FFFFFF" stroke-width="0.5"/><line x1="384.8059750072772" y1="392.71391431017906" x2="391.8666350991539" y2="392.71391431017906" stroke="#FFFFFF" stroke-width="0.5"/><line x1="455.4125759260437" y1="392.71391431017906" x2="462.4732360179203" y2="392.71391431017906" stroke="#FFFFFF" stroke-width="0.5"/><line x1="67.07627087282813" y1="453.8592307058308" x2="74.13693096470479" y2="453.8592307058308" stroke="#FFFFFF" stroke-width="0.5"/><line x1="137.6828717915946" y1="453.8592307058308" x2="144.74353188347126" y2="453.8592307058308" stroke="#FFFFFF" stroke-width="0.5"/><line x1="208.28947271036108" y1="453.8592307058308" x2="215.3501328022377" y2="453.8592307058308" stroke="#FFFFFF" stroke-width="0.5"/><line x1="278.8960736291275" y1="453.8592307058308" x2="285.9567337210041" y2="453.8592307058308" stroke="#FFFFFF" stroke-width="0.5"/><line x1="349.50267454789395" y1="453.8592307058308" x2="356.56333463977063" y2="453.8592307058308" stroke="#FFFFFF" stroke-width="0.5"/><line x1="420.10927546666045" y1="453.8592307058308" x2="427.1699355585371" y2="453.8592307058308" stroke="#FFFFFF" stroke-width="0.5"/><line x1="490.7158763854269" y1="453.8592307058308" x2="497.7765364773036" y2="453.8592307058308" stroke="#FFFFFF" stroke-width="0.5"/></g></svg>