<svg xmlns="http://www.w3.org/2000/svg" width="512" height="512" viewBox="0 0 512 512"><rect x="0" y="0" width="512" height="512" fill="#050510"/><g opacity="0.13500619534636205"><path d="M -71.2894832174438,-135.45001811314324 L -57.64883115285137,-104.2209304313954 L -25.921133908138614,-116.65783252674899 L -38.3580360034922,-84.93013528203623 L -7.1289483217443745,-71.2894832174438 L -38.3580360034922,-57.64883115285137 L -25.921133908138614,-25.92113390813862 L -57.64883115285137,-38.3580360034922 L -71.2894832174438,-7.1289483217443745 L -84.93013528203623,-38.3580360034922 L -116.65783252674899,-25.921133908138614 L -104.2209304313954,-57.64883115285136 L -135.45001811314324,-71.28948321744379 L -104.2209304313954,-84.93013528203625 L -116.65783252674899,-116.65783252674899 L -84.93013528203625,-104.2209304313954 Z" fill="none" stroke="#0F52BA" stroke-width="0.7075487376225873" /><path d="M 71.2894832174438,-135.45001811314324 L 84.93013528203623,-104.2209304313954 L 116.65783252674899,-116.65783252674899 L 104.2209304313954,-84.93013528203623 L 135.45001811314324,-71.2894832174438 L 104.2209304313954,-57.64883115285137 L 116.65783252674899,-25.92113390813862 L 84.93013528203623,-38.3580360034922 L 71.2894832174438,-7.1289483217443745 L 57.64883115285137,-38.3580360034922 L 25.92113390813862,-25.921133908138614 L 38.35803600349221,-57.64883115285136 L 7.1289483217443745,-71.28948321744379 L 38.3580360034922,-84.93013528203625 L 25.921133908138607,-116.65783252674899 L 57.64883115285135,-104.2209304313954 Z" fill="none" stroke="#0F52BA" stroke-width="0.7075487376225873" /><path d="M 213.8684496523314,-135.45001811314324 L 227.50910171692385,-104.2209304313954 L 259.2367989616366,-116.65783252674899 L 246.799896866283,-84.93013528203623 L 278.02898454803085,-71.2894832174438 L 246.799896866283,-57.64883115285137 L 259.2367989616366,-25.92113390813862 L 227.50910171692385,-38.3580360034922 L 213.8684496523314,-7.1289483217443745 L 200.227797587739,-38.3580360034922 L 168.50010034302622,-25.921133908138614 L 180.9370024383798,-57.64883115285136 L 149.70791475663196,-71.28948321744379 L 180.9370024383798,-84.93013528203625 L 168.50010034302622,-116.65783252674899 L 200.22779758773896,-104.2209304313954 Z" fill="none" stroke="#0F52BA" stroke-width="0.7075487376225873" /><path d="M 356.44741608721904,-135.45001811314324 L 370.08806815181146,-104.2209304313954 L 401.8157653965242,-116.65783252674899 L 389.37886330117067,-84.93013528203623 L 420.60795098291845,-71.2894832174438 L 389.37886330117067,-57.64883115285137 L 401.8157653965242,-25.92113390813862 L 370.08806815181146,-38.3580360034922 L 356.44741608721904,-7.1289483217443745 L 342.8067640226266,-38.3580360034922 L 311.07906677791385,-25.921133908138614 L 323.51596887326747,-57.64883115285136 L 292.2868811915196,-71.28948321744379 L 323.5159688732674,-84.93013528203625 L 311.07906677791385,-116.65783252674899 L 342.80676402262657,-104.2209304313954 Z" fill="none" stroke="#0F52BA" stroke-width="0.7075487376225873" /><path d="M 499.0263825221066,-135.45001811314324 L 512.6670345866991,-104.2209304313954 L 544.3947318314117,-116.65783252674899 L 531.9578297360582,-84.93013528203623 L 563.1869174178061,-71.2894832174438 L 531.9578297360582,-57.64883115285137 L 544.3947318314117,-25.92113390813862 L 512.6670345866991,-38.3580360034922 L 499.0263825221066,-7.1289483217443745 L 485.38573045751417,-38.3580360034922 L 453.6580332128014,-25.921133908138614 L 466.094935308155,-57.64883115285136 L 434.8658476264072,-71.28948321744379 L 466.09493530815496,-84.93013528203625 L 453.6580332128014,-116.65783252674899 L 485.3857304575141,-104.2209304313954 Z" fill="none" stroke="#0F52BA" stroke-width="0.7075487376225873" /><path d="M 641.6053489569942,-135.45001811314324 L 655.2460010215867,-104.2209304313954 L 686.9736982662994,-116.65783252674899 L 674.5367961709459,-84.93013528203623 L 705.7658838526937,-71.2894832174438 L 674.5367961709459,-57.64883115285137 L 686.9736982662994,-25.92113390813862 L 655.2460010215867,-38.3580360034922 L 641.6053489569942,-7.1289483217443745 L 627.9646968924018,-38.3580360034922 L 596.2369996476891,-25.921133908138614 L 608.6739017430426,-57.64883115285136 L 577.4448140612948,-71.28948321744379 L 608.6739017430426,-84.93013528203625 L 596.236999647689,-116.65783252674899 L 627.9646968924018,-104.2209304313954 Z" fill="none" stroke="#0F52BA" stroke-width="0.7075487376225873" /><path d="M 3.9286996845800185e-15,-11.97663318053057 L 13.64065206459243,19.252454501217258 L 45.36834930930519,6.815552405863677 L 32.9314472139516,38.54324965057643 L 64.16053489569943,52.18390171516886 L 32.9314472139516,65.82455377976129 L 45.36834930930519,97.55225102447403 L 13.64065206459243,85.11534892912046 L 3.9286996845800185e-15,116.34443661086829 L -13.640652064592427,85.11534892912046 L -45.36834930930518,97.55225102447405 L -32.93144721395159,65.8245537797613 L -64.16053489569943,52.183901715168865 L -32.9314472139516,38.54324965057642 L -45.368349309305195,6.815552405863677 L -13.64065206459245,19.252454501217265 Z" fill="none" stroke="#0F52BA" stroke-width="0.7075487376225873" /><path d="M 142.5789664348876,-11.97663318053057 L 156.21961849948002,19.252454501217258 L 187.9473157441928,6.815552405863677 L 175.5104136488392,38.54324965057643 L 206.73950133058702,52.18390171516886 L 175.5104136488392,65.82455377976129 L 187.9473157441928,97.55225102447403 L 156.21961849948002,85.11534892912046 L 142.5789664348876,116.34443661086829 L 128.9383143702952,85.11534892912046 L 97.21061712558242,97.55225102447405 L 109.647519220936,65.8245537797613 L 78.41843153918818,52.183901715168865 L 109.647519220936,38.54324965057642 L 97.21061712558242,6.815552405863677 L 128.93831437029516,19.252454501217265 Z" fill="none" stroke="#0F52BA" stroke-width="0.7075487376225873" /><path d="M 285.1579328697752,-11.97663318053057 L 298.7985849343676,19.252454501217258 L 330.5262821790804,6.815552405863677 L 318.08938008372684,38.54324965057643 L 349.3184677654746,52.18390171516886 L 318.08938008372684,65.82455377976129 L 330.5262821790804,97.55225102447403 L 298.7985849343676,85.11534892912046 L 285.1579328697752,116.34443661086829 L 271.5172808051828,85.11534892912046 L 239.78958356047002,97.55225102447405 L 252.2264856558236,65.8245537797613 L 220.9973979740758,52.183901715168865 L 252.2264856558236,38.54324965057642 L 239.78958356047002,6.815552405863677 L 271.51728080518274,19.252454501217265 Z" fill="none" stroke="#0F52BA" stroke-width="0.7075487376225873" /><path d="M 427.73689930466287,-11.97663318053057 L 441.3775513692553,19.252454501217258 L 473.10524861396806,6.815552405863677 L 460.6683465186145,38.54324965057643 L 491.8974342003623,52.18390171516886 L 460.6683465186145,65.82455377976129 L 473.10524861396806,97.55225102447403 L 441.3775513692553,85.11534892912046 L 427.73689930466287,116.34443661086829 L 414.09624724007045,85.11534892912046 L 382.3685499953577,97.55225102447405 L 394.8054520907113,65.8245537797613 L 363.57636440896346,52.183901715168865 L 394.80545209071124,38.54324965057642 L 382.3685499953577,6.815552405863677 L 414.0962472400704,19.252454501217265 Z" fill="none" stroke="#0F52BA" stroke-width="0.7075487376225873" /><path d="M 570.3158657395504,-11.97663318053057 L 583.9565178041429,19.252454501217258 L 615.6842150488555,6.815552405863677 L 603.247312953502,38.54324965057643 L 634.4764006352499,52.18390171516886 L 603.247312953502,65.82455377976129 L 615.6842150488555,97.55225102447403 L 583.9565178041429,85.11534892912046 L 570.3158657395504,116.34443661086829 L 556.675213674958,85.11534892912046 L 524.9475164302453,97.55225102447405 L 537.3844185255988,65.8245537797613 L 506.155330843851,52.183901715168865 L 537.3844185255988,38.54324965057642 L 524.9475164302452,6.815552405863677 L 556.675213674958,19.252454501217265 Z" fill="none" stroke="#0F52BA" stroke-width="0.7075487376225873" /><path d="M -71.2894832174438,111.49675175208209 L -57.64883115285137,142.72583943382992 L -25.921133908138614,130.28893733847633 L -38.3580360034922,162.0166345831891 L -7.1289483217443745,175.65728664778152 L -38.3580360034922,189.29793871237393 L -25.921133908138614,221.0256359570867 L -57.64883115285137,208.58873386173312 L -71.2894832174438,239.81782154348093 L -84.93013528203623,208.58873386173312 L -116.65783252674899,221.0256359570867 L -104.2209304313954,189.29793871237396 L -135.45001811314324,175.65728664778152 L -104.2209304313954,162.01663458318907 L -116.65783252674899,130.28893733847633 L -84.93013528203625,142.72583943382992 Z" fill="none" stroke="#0F52BA" stroke-width="0.7075487376225873" /><path d="M 71.2894832174438,111.49675175208209 L 84.93013528203623,142.72583943382992 L 116.65783252674899,130.28893733847633 L 104.2209304313954,162.0166345831891 L 135.45001811314324,175.65728664778152 L 104.2209304313954,189.29793871237393 L 116.65783252674899,221.0256359570867 L 84.93013528203623,208.58873386173312 L 71.2894832174438,239.81782154348093 L 57.64883115285137,208.58873386173312 L 25.92113390813862,221.0256359570867 L 38.35803600349221,189.29793871237396 L 7.1289483217443745,175.65728664778152 L 38.3580360034922,162.01663458318907 L 25.921133908138607,130.28893733847633 L 57.64883115285135,142.72583943382992 Z" fill="none" stroke="#0F52BA" stroke-width="0.7075487376225873" /><path d="M 213.8684496523314,111.49675175208209 L 227.50910171692385,142.72583943382992 L 259.2367989616366,130.28893733847633 L 246.799896866283,162.0166345831891 L 278.02898454803085,175.65728664778152 L 246.799896866283,189.29793871237393 L 259.2367989616366,221.0256359570867 L 227.50910171692385,208.58873386173312 L 213.8684496523314,239.81782154348093 L 200.227797587739,208.58873386173312 L 168.50010034302622,221.0256359570867 L 180.9370024383798,189.29793871237396 L 149.70791475663196,175.65728664778152 L 180.9370024383798,162.01663458318907 L 168.50010034302622,130.28893733847633 L 200.22779758773896,142.72583943382992 Z" fill="none" stroke="#0F52BA" stroke-width="0.7075487376225873" /><path d="M 356.44741608721904,111.49675175208209 L 370.08806815181146,142.72583943382992 L 401.8157653965242,130.28893733847633 L 389.37886330117067,162.0166345831891 L 420.60795098291845,175.65728664778152 L 389.37886330117067,189.29793871237393 L 401.8157653965242,221.0256359570867 L 370.08806815181146,208.58873386173312 L 356.44741608721904,239.81782154348093 L 342.8067640226266,208.58873386173312 L 311.07906677791385,221.0256359570867 L 323.51596887326747,189.29793871237396 L 292.2868811915196,175.65728664778152 L 323.5159688732674,162.01663458318907 L 311.07906677791385,130.28893733847633 L 342.80676402262657,142.72583943382992 Z" fill="none" stroke="#0F52BA" stroke-width="0.7075487376225873" /><path d="M 499.0263825221066,111.49675175208209 L 512.6670345866991,142.72583943382992 L 544.3947318314117,130.28893733847633 L 531.9578297360582,162.0166345831891 L 563.1869174178061,175.65728664778152 L 531.9578297360582,189.29793871237393 L 544.3947318314117,221.0256359570867 L 512.6670345866991,208.58873386173312 L 499.0263825221066,239.81782154348093 L 485.38573045751417,208.58873386173312 L 453.6580332128014,221.0256359570867 L 466.094935308155,189.29793871237396 L 434.8658476264072,175.65728664778152 L 466.09493530815496,162.01663458318907 L 453.6580332128014,130.28893733847633 L 485.3857304575141,142.72583943382992 Z" fill="none" stroke="#0F52BA" stroke-width="0.7075487376225873" /><path d="M 641.6053489569942,111.49675175208209 L 655.2460010215867,142.72583943382992 L 686.9736982662994,130.28893733847633 L 674.5367961709459,162.0166345831891 L 705.7658838526937,175.65728664778152 L 674.5367961709459,189.29793871237393 L 686.9736982662994,221.0256359570867 L 655.2460010215867,208.58873386173312 L 641.6053489569942,239.81782154348093 L 627.9646968924018,208.58873386173312 L 596.2369996476891,221.0256359570867 L 608.6739017430426,189.29793871237396 L 577.4448140612948,175.65728664778152 L 608.6739017430426,162.01663458318907 L 596.236999647689,130.28893733847633 L 627.9646968924018,142.72583943382992 Z" fill="none" stroke="#0F52BA" stroke-width="0.7075487376225873" /><path d="M 3.9286996845800185e-15,234.97013668469475 L 13.64065206459243,266.19922436644254 L 45.36834930930519,253.76232227108898 L 32.9314472139516,285.49001951580175 L 64.16053489569943,299.13067158039416 L 32.9314472139516,312.7713236449866 L 45.36834930930519,344.49902088969935 L 13.64065206459243,332.0621187943458 L 3.9286996845800185e-15,363.2912064760936 L -13.640652064592427,332.0621187943458 L -45.36834930930518,344.49902088969935 L -32.93144721395159,312.77132364498664 L -64.16053489569943,299.13067158039416 L -32.9314472139516,285.49001951580175 L -45.368349309305195,253.76232227108898 L -13.64065206459245,266.1992243664426 Z" fill="none" stroke="#0F52BA" stroke-width="0.7075487376225873" /><path d="M 142.5789664348876,234.97013668469475 L 156.21961849948002,266.19922436644254 L 187.9473157441928,253.76232227108898 L 175.5104136488392,285.49001951580175 L 206.73950133058702,299.13067158039416 L 175.5104136488392,312.7713236449866 L 187.9473157441928,344.49902088969935 L 156.21961849948002,332.0621187943458 L 142.5789664348876,363.2912064760936 L 128.9383143702952,332.0621187943458 L 97.21061712558242,344.49902088969935 L 109.647519220936,312.77132364498664 L 78.41843153918818,299.13067158039416 L 109.647519220936,285.49001951580175 L 97.21061712558242,253.76232227108898 L 128.93831437029516,266.1992243664426 Z" fill="none" stroke="#0F52BA" stroke-width="0.7075487376225873" /><path d="M 285.1579328697752,234.97013668469475 L 298.7985849343676,266.19922436644254 L 330.5262821790804,253.76232227108898 L 318.08938008372684,285.49001951580175 L 349.3184677654746,299.13067158039416 L 318.08938008372684,312.7713236449866 L 330.5262821790804,344.49902088969935 L 298.7985849343676,332.0621187943458 L 285.1579328697752,363.2912064760936 L 271.5172808051828,332.0621187943458 L 239.78958356047002,344.49902088969935 L 252.2264856558236,312.77132364498664 L 220.9973979740758,299.13067158039416 L 252.2264856558236,285.49001951580175 L 239.78958356047002,253.76232227108898 L 271.51728080518274,266.1992243664426 Z" fill="none" stroke="#0F52BA" stroke-width="0.7075487376225873" /><path d="M 427.73689930466287,234.97013668469475 L 441.3775513692553,266.19922436644254 L 473.10524861396806,253.76232227108898 L 460.6683465186145,285.49001951580175 L 491.8974342003623,299.13067158039416 L 460.6683465186145,312.7713236449866 L 473.10524861396806,344.49902088969935 L 441.3775513692553,332.0621187943458 L 427.73689930466287,363.2912064760936 L 414.09624724007045,332.0621187943458 L 382.3685499953577,344.49902088969935 L 394.8054520907113,312.77132364498664 L 363.57636440896346,299.13067158039416 L 394.80545209071124,285.49001951580175 L 382.3685499953577,253.76232227108898 L 414.0962472400704,266.1992243664426 Z" fill="none" stroke="#0F52BA" stroke-width="0.7075487376225873" /><path d="M 570.3158657395504,234.97013668469475 L 583.9565178041429,266.19922436644254 L 615.6842150488555,253.76232227108898 L 603.247312953502,285.49001951580175 L 634.4764006352499,299.13067158039416 L 603.247312953502,312.7713236449866 L 615.6842150488555,344.49902088969935 L 583.9565178041429,332.0621187943458 L 570.3158657395504,363.2912064760936 L 556.675213674958,332.0621187943458 L 524.9475164302453,344.49902088969935 L 537.3844185255988,312.77132364498664 L 506.155330843851,299.13067158039416 L 537.3844185255988,285.49001951580175 L 524.9475164302452,253.76232227108898 L 556.675213674958,266.1992243664426 Z" fill="none" stroke="#0F52BA" stroke-width="0.7075487376225873" /><path d="M -71.2894832174438,358.44352161730745 L -57.64883115285137,389.67260929905524 L -25.921133908138614,377.2357072037017 L -38.3580360034922,408.96340444841445 L -7.1289483217443745,422.60405651300687 L -38.3580360034922,436.2447085775993 L -25.921133908138614,467.97240582231206 L -57.64883115285137,455.5355037269585 L -71.2894832174438,486.7645914087063 L -84.93013528203623,455.5355037269585 L -116.65783252674899,467.97240582231206 L -104.2209304313954,436.24470857759934 L -135.45001811314324,422.60405651300687 L -104.2209304313954,408.96340444841445 L -116.65783252674899,377.2357072037017 L -84.93013528203625,389.6726092990553 Z" fill="none" stroke="#0F52BA" stroke-width="0.7075487376225873" /><path d="M 71.2894832174438,358.44352161730745 L 84.93013528203623,389.67260929905524 L 116.65783252674899,377.2357072037017 L 104.2209304313954,408.96340444841445 L 135.45001811314324,422.60405651300687 L 104.2209304313954,436.2447085775993 L 116.65783252674899,467.97240582231206 L 84.93013528203623,455.5355037269585 L 71.2894832174438,486.7645914087063 L 57.64883115285137,455.5355037269585 L 25.92113390813862,467.97240582231206 L 38.35803600349221,436.24470857759934 L 7.1289483217443745,422.60405651300687 L 38.3580360034922,408.96340444841445 L 25.921133908138607,377.2357072037017 L 57.64883115285135,389.6726092990553 Z" fill="none" stroke="#0F52BA" stroke-width="0.7075487376225873" /><path d="M 213.8684496523314,358.44352161730745 L 227.50910171692385,389.67260929905524 L 259.2367989616366,377.2357072037017 L 246.799896866283,408.96340444841445 L 278.02898454803085,422.60405651300687 L 246.799896866283,436.2447085775993 L 259.2367989616366,467.97240582231206 L 227.50910171692385,455.5355037269585 L 213.8684496523314,486.7645914087063 L 200.227797587739,455.5355037269585 L 168.50010034302622,467.97240582231206 L 180.9370024383798,436.24470857759934 L 149.70791475663196,422.60405651300687 L 180.9370024383798,408.96340444841445 L 168.50010034302622,377.2357072037017 L 200.22779758773896,389.6726092990553 Z" fill="none" stroke="#0F52BA" stroke-width="0.7075487376225873" /><path d="M 356.44741608721904,358.44352161730745 L 370.08806815181146,389.67260929905524 L 401.8157653965242,377.2357072037017 L 389.37886330117067,408.96340444841445 L 420.60795098291845,422.60405651300687 L 389.37886330117067,436.2447085775993 L 401.8157653965242,467.97240582231206 L 370.08806815181146,455.5355037269585 L 356.44741608721904,486.7645914087063 L 342.8067640226266,455.5355037269585 L 311.07906677791385,467.97240582231206 L 323.51596887326747,436.24470857759934 L 292.2868811915196,422.60405651300687 L 323.5159688732674,408.96340444841445 L 311.07906677791385,377.2357072037017 L 342.80676402262657,389.6726092990553 Z" fill="none" stroke="#0F52BA" stroke-width="0.7075487376225873" /><path d="M 499.0263825221066,358.44352161730745 L 512.6670345866991,389.67260929905524 L 544.3947318314117,377.2357072037017 L 531.9578297360582,408.96340444841445 L 563.1869174178061,422.60405651300687 L 531.9578297360582,436.2447085775993 L 544.3947318314117,467.97240582231206 L 512.6670345866991,455.5355037269585 L 499.0263825221066,486.7645914087063 L 485.38573045751417,455.5355037269585 L 453.6580332128014,467.97240582231206 L 466.094935308155,436.24470857759934 L 434.8658476264072,422.60405651300687 L 466.09493530815496,408.96340444841445 L 453.6580332128014,377.2357072037017 L 485.3857304575141,389.6726092990553 Z" fill="none" stroke="#0F52BA" stroke-width="0.7075487376225873" /><path d="M 641.6053489569942,358.44352161730745 L 655.2460010215867,389.67260929905524 L 686.9736982662994,377.2357072037017 L 674.5367961709459,408.96340444841445 L 705.7658838526937,422.60405651300687 L 674.5367961709459,436.2447085775993 L 686.9736982662994,467.97240582231206 L 655.2460010215867,455.5355037269585 L 641.6053489569942,486.7645914087063 L 627.9646968924018,455.5355037269585 L 596.2369996476891,467.97240582231206 L 608.6739017430426,436.24470857759934 L 577.4448140612948,422.60405651300687 L 608.6739017430426,408.96340444841445 L 596.236999647689,377.2357072037017 L 627.9646968924018,389.6726092990553 Z" fill="none" stroke="#0F52BA" stroke-width="0.7075487376225873" /><path d="M 3.9286996845800185e-15,481.91690654992016 L 13.64065206459243,513.1459942316679 L 45.36834930930519,500.7090921363144 L 32.9314472139516,532.4367893810271 L 64.16053489569943,546.0774414456196 L 32.9314472139516,559.718093510212 L 45.36834930930519,591.4457907549247 L 13.64065206459243,579.0088886595712 L 3.9286996845800185e-15,610.237976341319 L -13.640652064592427,579.0088886595712 L -45.36834930930518,591.4457907549247 L -32.93144721395159,559.718093510212 L -64.16053489569943,546.0774414456196 L -32.9314472139516,532.4367893810271 L -45.368349309305195,500.7090921363144 L -13.64065206459245,513.1459942316679 Z" fill="none" stroke="#0F52BA" stroke-width="0.7075487376225873" /><path d="M 142.5789664348876,481.91690654992016 L 156.21961849948002,513.1459942316679 L 187.9473157441928,500.7090921363144 L 175.5104136488392,532.4367893810271 L 206.73950133058702,546.0774414456196 L 175.5104136488392,559.718093510212 L 187.9473157441928,591.4457907549247 L 156.21961849948002,579.0088886595712 L 142.5789664348876,610.237976341319 L 128.9383143702952,579.0088886595712 L 97.21061712558242,591.4457907549247 L 109.647519220936,559.718093510212 L 78.41843153918818,546.0774414456196 L 109.647519220936,532.4367893810271 L 97.21061712558242,500.7090921363144 L 128.93831437029516,513.1459942316679 Z" fill="none" stroke="#0F52BA" stroke-width="0.7075487376225873" /><path d="M 285.1579328697752,481.91690654992016 L 298.7985849343676,513.1459942316679 L 330.5262821790804,500.7090921363144 L 318.08938008372684,532.4367893810271 L 349.3184677654746,546.0774414456196 L 318.08938008372684,559.718093510212 L 330.5262821790804,591.4457907549247 L 298.7985849343676,579.0088886595712 L 285.1579328697752,610.237976341319 L 271.5172808051828,579.0088886595712 L 239.78958356047002,591.4457907549247 L 252.2264856558236,559.718093510212 L 220.9973979740758,546.0774414456196 L 252.2264856558236,532.4367893810271 L 239.78958356047002,500.7090921363144 L 271.51728080518274,513.1459942316679 Z" fill="none" stroke="#0F52BA" stroke-width="0.7075487376225873" /><path d="M 427.73689930466287,481.91690654992016 L 441.3775513692553,513.1459942316679 L 473.10524861396806,500.7090921363144 L 460.6683465186145,532.4367893810271 L 491.8974342003623,546.0774414456196 L 460.6683465186145,559.718093510212 L 473.10524861396806,591.4457907549247 L 441.3775513692553,579.0088886595712 L 427.73689930466287,610.237976341319 L 414.09624724007045,579.0088886595712 L 382.3685499953577,591.4457907549247 L 394.8054520907113,559.718093510212 L 363.57636440896346,546.0774414456196 L 394.80545209071124,532.4367893810271 L 382.3685499953577,500.7090921363144 L 414.0962472400704,513.1459942316679 Z" fill="none" stroke="#0F52BA" stroke-width="0.7075487376225873" /><path d="M 570.3158657395504,481.91690654992016 L 583.9565178041429,513.1459942316679 L 615.6842150488555,500.7090921363144 L 603.247312953502,532.4367893810271 L 634.4764006352499,546.0774414456196 L 603.247312953502,559.718093510212 L 615.6842150488555,591.4457907549247 L 583.9565178041429,579.0088886595712 L 570.3158657395504,610.237976341319 L 556.675213674958,579.0088886595712 L 524.9475164302453,591.4457907549247 L 537.3844185255988,559.718093510212 L 506.155330843851,546.0774414456196 L 537.3844185255988,532.4367893810271 L 524.9475164302452,500.7090921363144 L 556.675213674958,513.1459942316679 Z" fill="none" stroke="#0F52BA" stroke-width="0.7075487376225873" /><line x1="64.16053489569943" y1="52.18390171516886" x2="78.41843153918818" y2="52.18390171516886" stroke="#0F52BA" stroke-width="0.5"/><line x1="206.73950133058702" y1="52.18390171516886" x2="220.9973979740758" y2="52.18390171516886" stroke="#0F52BA" stroke-width="0.5"/><line x1="349.3184677654746" y1="52.18390171516886" x2="363.57636440896346" y2="52.18390171516886" stroke="#0F52BA" stroke-width="0.5"/><line x1="491.8974342003623" y1="52.18390171516886" x2="506.155330843851" y2="52.18390171516886" stroke="#0F52BA" stroke-width="0.5"/><line x1="135.45001811314324" y1="175.65728664778152" x2="149.70791475663196" y2="175.65728664778152" stroke="#0F52BA" stroke-width="0.5"/><line x1="278.02898454803085" y1="175.65728664778152" x2="292.2868811915196" y2="175.65728664778152" stroke="#0F52BA" stroke-width="0.5"/><line x1="420.60795098291845" y1="175.65728664778152" x2="434.8658476264072" y2="175.65728664778152" stroke="#0F52BA" stroke-width="0.5"/><line x1="64.16053489569943" y1="299.13067158039416" x2="78.41843153918818" y2="299.13067158039416" stroke="#0F52BA" stroke-width="0.5"/><line x1="206.73950133058702" y1="299.13067158039416" x2="220.9973979740758" y2="299.13067158039416" stroke="#0F52BA" stroke-width="0.5"/><line x1="349.3184677654746" y1="299.13067158039416" x2="363.57636440896346" y2="299.13067158039416" stroke="#0F52BA" stroke-width="0.5"/><line x1="491.8974342003623" y1="299.13067158039416" x2="506.155330843851" y2="299.13067158039416" stroke="#0F52BA" stroke-width="0.5"/><line x1="135.45001811314324" y1="422.60405651300687" x2="149.70791475663196" y2="422.60405651300687" stroke="#0F52BA" stroke-width="0.5"/><line x1="278.02898454803085" y1="422.60405651300687" x2="292.2868811915196" y2="422.60405651300687" stroke="#0F52BA" stroke-width="0.5"/><line x1="420.60795098291845" y1="422.60405651300687" x2="434.8658476264072" y2="422.60405651300687" stroke="#0F52BA" stroke-width="0.5"/></g></svg>