<svg xmlns="http://www.w3.org/2000/svg" width="512" height="512" viewBox="0 0 512 512"><rect x="0" y="0" width="512" height="512" fill="#050510"/><g opacity="0.1437144697148886"><path d="M -30.87053455962176,-58.65401566328134 L -24.96371349751117,-45.130862078280195 L -11.224646666255762,-50.516422452987754 L -16.610207040963324,-36.77735562173235 L -3.087053455962174,-30.87053455962176 L -16.610207040963324,-24.96371349751117 L -11.224646666255762,-11.224646666255765 L -24.96371349751117,-16.610207040963324 L -30.87053455962176,-3.087053455962174 L -36.77735562173235,-16.610207040963324 L -50.516422452987754,-11.224646666255762 L -45.13086207828019,-24.96371349751116 L -58.65401566328134,-30.870534559621756 L -45.130862078280195,-36.777355621732355 L -50.51642245298776,-50.516422452987754 L -36.777355621732355,-45.13086207828019 Z" fill="none" stroke="#0F52BA" stroke-width="1.6251345282071896" /><path d="M 30.87053455962176,-58.65401566328134 L 36.777355621732355,-45.130862078280195 L 50.516422452987754,-50.516422452987754 L 45.130862078280195,-36.77735562173235 L 58.65401566328134,-30.87053455962176 L 45.130862078280195,-24.96371349751117 L 50.516422452987754,-11.224646666255765 L 36.777355621732355,-16.610207040963324 L 30.87053455962176,-3.087053455962174 L 24.963713497511172,-16.610207040963324 L 11.224646666255765,-11.224646666255762 L 16.610207040963328,-24.96371349751116 L 3.087053455962174,-30.870534559621756 L 16.610207040963324,-36.777355621732355 L 11.224646666255758,-50.516422452987754 L 24.96371349751116,-45.13086207828019 Z" fill="none" stroke="#0F52BA" stroke-width="1.6251345282071896" /><path d="M 92.61160367886528,-58.65401566328134 L 98.51842474097587,-45.130862078280195 L 112.25749157223127,-50.516422452987754 L 106.87193119752371,-36.77735562173235 L 120.39508478252486,-30.87053455962176 L 106.87193119752371,-24.96371349751117 L 112.25749157223127,-11.224646666255765 L 98.51842474097587,-16.610207040963324 L 92.61160367886528,-3.087053455962174 L 86.70478261675468,-16.610207040963324 L 72.96571578549928,-11.224646666255762 L 78.35127616020685,-24.96371349751116 L 64.8281225752057,-30.870534559621756 L 78.35127616020685,-36.777355621732355 L 72.96571578549927,-50.516422452987754 L 86.70478261675468,-45.13086207828019 Z" fill="none" stroke="#0F52BA" stroke-width="1.6251345282071896" /><path d="M 154.3526727981088,-58.65401566328134 L 160.2594938602194,-45.130862078280195 L 173.9985606914748,-50.516422452987754 L 168.61300031676726,-36.77735562173235 L 182.1361539017684,-30.87053455962176 L 168.61300031676726,-24.96371349751117 L 173.9985606914748,-11.224646666255765 L 160.2594938602194,-16.610207040963324 L 154.3526727981088,-3.087053455962174 L 148.44585173599822,-16.610207040963324 L 134.70678490474282,-11.224646666255762 L 140.09234527945037,-24.96371349751116 L 126.56919169444923,-30.870534559621756 L 140.09234527945037,-36.777355621732355 L 134.70678490474282,-50.516422452987754 L 148.44585173599822,-45.13086207828019 Z" fill="none" stroke="#0F52BA" stroke-width="1.6251345282071896" /><path d="M 216.0937419173523,-58.65401566328134 L 222.0005629794629,-45.130862078280195 L 235.7396298107183,-50.516422452987754 L 230.35406943601075,-36.77735562173235 L 243.8772230210119,-30.87053455962176 L 230.35406943601075,-24.96371349751117 L 235.7396298107183,-11.224646666255765 L 222.0005629794629,-16.610207040963324 L 216.0937419173523,-3.087053455962174 L 210.1869208552417,-16.610207040963324 L 196.4478540239863,-11.224646666255762 L 201.83341439869386,-24.96371349751116 L 188.3102608136927,-30.870534559621756 L 201.83341439869386,-36.777355621732355 L 196.4478540239863,-50.516422452987754 L 210.1869208552417,-45.13086207828019 Z" fill="none" stroke="#0F52BA" stroke-width="1.6251345282071896" /><path d="M 277.83481103659585,-58.65401566328134 L 283.7416320987064,-45.130862078280195 L 297.4806989299619,-50.516422452987754 L 292.09513855525427,-36.77735562173235 L 305.61829214025545,-30.87053455962176 L 292.09513855525427,-24.96371349751117 L 297.4806989299619,-11.224646666255765 L 283.7416320987064,-16.610207040963324 L 277.83481103659585,-3.087053455962174 L 271.9279899744853,-16.610207040963324 L 258.1889231432299,-11.224646666255762 L 263.57448351793744,-24.96371349751116 L 250.05132993293626,-30.870534559621756 L 263.57448351793744,-36.777355621732355 L 258.18892314322983,-50.516422452987754 L 271.92798997448523,-45.13086207828019 Z" fill="none" stroke="#0F52BA" stroke-width="1.6251345282071896" /><path d="M 339.57588015583934,-58.65401566328134 L 345.4827012179499,-45.130862078280195 L 359.22176804920537,-50.516422452987754 L 353.83620767449776,-36.77735562173235 L 367.35936125949894,-30.87053455962176 L 353.83620767449776,-24.96371349751117 L 359.22176804920537,-11.224646666255765 L 345.4827012179499,-16.610207040963324 L 339.57588015583934,-3.087053455962174 L 333.6690590937288,-16.610207040963324 L 319.9299922624733,-11.224646666255762 L 325.31555263718093,-24.96371349751116 L 311.79239905217975,-30.870534559621756 L 325.31555263718093,-36.777355621732355 L 319.9299922624733,-50.516422452987754 L 333.6690590937287,-45.13086207828019 Z" fill="none" stroke="#0F52BA" stroke-width="1.6251345282071896" /><path d="M 401.31694927508283,-58.65401566328134 L 407.2237703371934,-45.130862078280195 L 420.96283716844886,-50.516422452987754 L 415.57727679374125,-36.77735562173235 L 429.10043037874243,-30.87053455962176 L 415.57727679374125,-24.96371349751117 L 420.96283716844886,-11.224646666255765 L 407.2237703371934,-16.610207040963324 L 401.31694927508283,-3.087053455962174 L 395.41012821297227,-16.610207040963324 L 381.67106138171687,-11.224646666255762 L 387.0566217564244,-24.96371349751116 L 373.53346817142324,-30.870534559621756 L 387.0566217564244,-36.777355621732355 L 381.6710613817168,-50.516422452987754 L 395.4101282129722,-45.13086207828019 Z" fill="none" stroke="#0F52BA" stroke-width="1.6251345282071896" /><path d="M 463.0580183943264,-58.65401566328134 L 468.96483945643695,-45.130862078280195 L 482.7039062876924,-50.516422452987754 L 477.3183459129848,-36.77735562173235 L 490.841499497986,-30.87053455962176 L 477.3183459129848,-24.96371349751117 L 482.7039062876924,-11.224646666255765 L 468.96483945643695,-16.610207040963324 L 463.0580183943264,-3.087053455962174 L 457.1511973322158,-16.610207040963324 L 443.4121305009604,-11.224646666255762 L 448.79769087566797,-24.96371349751116 L 435.2745372906668,-30.870534559621756 L 448.79769087566797,-36.777355621732355 L 443.41213050096036,-50.516422452987754 L 457.15119733221576,-45.13086207828019 Z" fill="none" stroke="#0F52BA" stroke-width="1.6251345282071896" /><path d="M 524.7990875135699,-58.65401566328134 L 530.7059085756805,-45.130862078280195 L 544.4449754069359,-50.516422452987754 L 539.0594150322283,-36.77735562173235 L 552.5825686172295,-30.87053455962176 L 539.0594150322283,-24.96371349751117 L 544.4449754069359,-11.224646666255765 L 530.7059085756805,-16.610207040963324 L 524.7990875135699,-3.087053455962174 L 518.8922664514594,-16.610207040963324 L 505.15319962020396,-11.224646666255762 L 510.5387599949115,-24.96371349751116 L 497.01560640991033,-30.870534559621756 L 510.5387599949115,-36.777355621732355 L 505.1531996202039,-50.516422452987754 L 518.8922664514594,-45.13086207828019 Z" fill="none" stroke="#0F52BA" stroke-width="1.6251345282071896" /><path d="M 1.7012475601383842e-15,-5.186249806016459 L 5.906821062110591,8.336903778984691 L 19.645887893365998,2.9513434042771323 L 14.260327518658436,16.690410235532536 L 27.783481103659586,22.597231297643127 L 14.260327518658436,28.504052359753718 L 19.645887893365998,42.24311919100912 L 5.906821062110591,36.85755881630156 L 1.7012475601383842e-15,50.380712401302716 L -5.906821062110589,36.85755881630156 L -19.645887893365995,42.24311919100913 L -14.260327518658432,28.504052359753725 L -27.783481103659586,22.59723129764313 L -14.260327518658434,16.690410235532532 L -19.645887893366,2.9513434042771323 L -5.906821062110598,8.336903778984695 Z" fill="none" stroke="#0F52BA" stroke-width="1.6251345282071896" /><path d="M 61.74106911924352,-5.186249806016459 L 67.64789018135411,8.336903778984691 L 81.38695701260951,2.9513434042771323 L 76.00139663790196,16.690410235532536 L 89.5245502229031,22.597231297643127 L 76.00139663790196,28.504052359753718 L 81.38695701260951,42.24311919100912 L 67.64789018135411,36.85755881630156 L 61.74106911924352,50.380712401302716 L 55.83424805713293,36.85755881630156 L 42.095181225877525,42.24311919100913 L 47.48074160058509,28.504052359753725 L 33.95758801558394,22.59723129764313 L 47.480741600585084,16.690410235532532 L 42.09518122587752,2.9513434042771323 L 55.834248057132925,8.336903778984695 Z" fill="none" stroke="#0F52BA" stroke-width="1.6251345282071896" /><path d="M 123.48213823848704,-5.186249806016459 L 129.38895930059763,8.336903778984691 L 143.12802613185303,2.9513434042771323 L 137.74246575714548,16.690410235532536 L 151.26561934214664,22.597231297643127 L 137.74246575714548,28.504052359753718 L 143.12802613185303,42.24311919100912 L 129.38895930059763,36.85755881630156 L 123.48213823848704,50.380712401302716 L 117.57531717637644,36.85755881630156 L 103.83625034512104,42.24311919100913 L 109.22181071982861,28.504052359753725 L 95.69865713482746,22.59723129764313 L 109.22181071982861,16.690410235532532 L 103.83625034512104,2.9513434042771323 L 117.57531717637644,8.336903778984695 Z" fill="none" stroke="#0F52BA" stroke-width="1.6251345282071896" /><path d="M 185.2232073577306,-5.186249806016459 L 191.13002841984118,8.336903778984691 L 204.86909525109658,2.9513434042771323 L 199.48353487638903,16.690410235532536 L 213.00668846139018,22.597231297643127 L 199.48353487638903,28.504052359753718 L 204.86909525109658,42.24311919100912 L 191.13002841984118,36.85755881630156 L 185.2232073577306,50.380712401302716 L 179.31638629562,36.85755881630156 L 165.5773194643646,42.24311919100913 L 170.96287983907214,28.504052359753725 L 157.439726254071,22.59723129764313 L 170.96287983907214,16.690410235532532 L 165.5773194643646,2.9513434042771323 L 179.31638629562,8.336903778984695 Z" fill="none" stroke="#0F52BA" stroke-width="1.6251345282071896" /><path d="M 246.96427647697408,-5.186249806016459 L 252.87109753908467,8.336903778984691 L 266.6101643703401,2.9513434042771323 L 261.2246039956325,16.690410235532536 L 274.7477575806337,22.597231297643127 L 261.2246039956325,28.504052359753718 L 266.6101643703401,42.24311919100912 L 252.87109753908467,36.85755881630156 L 246.96427647697408,50.380712401302716 L 241.05745541486348,36.85755881630156 L 227.31838858360808,42.24311919100913 L 232.70394895831564,28.504052359753725 L 219.18079537331448,22.59723129764313 L 232.70394895831564,16.690410235532532 L 227.31838858360808,2.9513434042771323 L 241.05745541486348,8.336903778984695 Z" fill="none" stroke="#0F52BA" stroke-width="1.6251345282071896" /><path d="M 308.7053455962176,-5.186249806016459 L 314.6121666583282,8.336903778984691 L 328.35123348958365,2.9513434042771323 L 322.96567311487604,16.690410235532536 L 336.4888266998772,22.597231297643127 L 322.96567311487604,28.504052359753718 L 328.35123348958365,42.24311919100912 L 314.6121666583282,36.85755881630156 L 308.7053455962176,50.380712401302716 L 302.79852453410706,36.85755881630156 L 289.05945770285166,42.24311919100913 L 294.4450180775592,28.504052359753725 L 280.92186449255803,22.59723129764313 L 294.4450180775592,16.690410235532532 L 289.0594577028516,2.9513434042771323 L 302.798524534107,8.336903778984695 Z" fill="none" stroke="#0F52BA" stroke-width="1.6251345282071896" /><path d="M 370.4464147154611,-5.186249806016459 L 376.3532357775717,8.336903778984691 L 390.09230260882714,2.9513434042771323 L 384.70674223411953,16.690410235532536 L 398.2298958191207,22.597231297643127 L 384.70674223411953,28.504052359753718 L 390.09230260882714,42.24311919100912 L 376.3532357775717,36.85755881630156 L 370.4464147154611,50.380712401302716 L 364.53959365335055,36.85755881630156 L 350.8005268220951,42.24311919100913 L 356.1860871968027,28.504052359753725 L 342.6629336118015,22.59723129764313 L 356.1860871968027,16.690410235532532 L 350.8005268220951,2.9513434042771323 L 364.5395936533505,8.336903778984695 Z" fill="none" stroke="#0F52BA" stroke-width="1.6251345282071896" /><path d="M 432.1874838347046,-5.186249806016459 L 438.0943048968152,8.336903778984691 L 451.83337172807063,2.9513434042771323 L 446.447811353363,16.690410235532536 L 459.9709649383642,22.597231297643127 L 446.447811353363,28.504052359753718 L 451.83337172807063,42.24311919100912 L 438.0943048968152,36.85755881630156 L 432.1874838347046,50.380712401302716 L 426.28066277259404,36.85755881630156 L 412.54159594133864,42.24311919100913 L 417.9271563160462,28.504052359753725 L 404.404002731045,22.59723129764313 L 417.9271563160462,16.690410235532532 L 412.5415959413386,2.9513434042771323 L 426.280662772594,8.336903778984695 Z" fill="none" stroke="#0F52BA" stroke-width="1.6251345282071896" /><path d="M 493.92855295394816,-5.186249806016459 L 499.8353740160587,8.336903778984691 L 513.5744408473141,2.9513434042771323 L 508.18888047260657,16.690410235532536 L 521.7120340576078,22.597231297643127 L 508.18888047260657,28.504052359753718 L 513.5744408473141,42.24311919100912 L 499.8353740160587,36.85755881630156 L 493.92855295394816,50.380712401302716 L 488.0217318918376,36.85755881630156 L 474.2826650605822,42.24311919100913 L 479.66822543528974,28.504052359753725 L 466.14507185028856,22.59723129764313 L 479.66822543528974,16.690410235532532 L 474.28266506058213,2.9513434042771323 L 488.02173189183753,8.336903778984695 Z" fill="none" stroke="#0F52BA" stroke-width="1.6251345282071896" /><path d="M 555.6696220731917,-5.186249806016459 L 561.5764431353023,8.336903778984691 L 575.3155099665577,2.9513434042771323 L 569.9299495918501,16.690410235532536 L 583.4531031768513,22.597231297643127 L 569.9299495918501,28.504052359753718 L 575.3155099665577,42.24311919100912 L 561.5764431353023,36.85755881630156 L 555.6696220731917,50.380712401302716 L 549.7628010110811,36.85755881630156 L 536.0237341798257,42.24311919100913 L 541.4092945545333,28.504052359753725 L 527.8861409695321,22.59723129764313 L 541.4092945545333,16.690410235532532 L 536.0237341798257,2.9513434042771323 L 549.7628010110811,8.336903778984695 Z" fill="none" stroke="#0F52BA" stroke-width="1.6251345282071896" /><path d="M -30.87053455962176,48.28151605124843 L -24.96371349751117,61.80466963624958 L -11.224646666255762,56.41910926154202 L -16.610207040963324,70.15817609279742 L -3.087053455962174,76.06499715490801 L -16.610207040963324,81.97181821701861 L -11.224646666255762,95.71088504827401 L -24.96371349751117,90.32532467356646 L -30.87053455962176,103.8484782585676 L -36.77735562173235,90.32532467356646 L -50.516422452987754,95.71088504827401 L -45.13086207828019,81.97181821701861 L -58.65401566328134,76.06499715490801 L -45.130862078280195,70.15817609279742 L -50.51642245298776,56.41910926154202 L -36.777355621732355,61.804669636249585 Z" fill="none" stroke="#0F52BA" stroke-width="1.6251345282071896" /><path d="M 30.87053455962176,48.28151605124843 L 36.777355621732355,61.80466963624958 L 50.516422452987754,56.41910926154202 L 45.130862078280195,70.15817609279742 L 58.65401566328134,76.06499715490801 L 45.130862078280195,81.97181821701861 L 50.516422452987754,95.71088504827401 L 36.777355621732355,90.32532467356646 L 30.87053455962176,103.8484782585676 L 24.963713497511172,90.32532467356646 L 11.224646666255765,95.71088504827401 L 16.610207040963328,81.97181821701861 L 3.087053455962174,76.06499715490801 L 16.610207040963324,70.15817609279742 L 11.224646666255758,56.41910926154202 L 24.96371349751116,61.804669636249585 Z" fill="none" stroke="#0F52BA" stroke-width="1.6251345282071896" /><path d="M 92.61160367886528,48.28151605124843 L 98.51842474097587,61.80466963624958 L 112.25749157223127,56.41910926154202 L 106.87193119752371,70.15817609279742 L 120.39508478252486,76.06499715490801 L 106.87193119752371,81.97181821701861 L 112.25749157223127,95.71088504827401 L 98.51842474097587,90.32532467356646 L 92.61160367886528,103.8484782585676 L 86.70478261675468,90.32532467356646 L 72.96571578549928,95.71088504827401 L 78.35127616020685,81.97181821701861 L 64.8281225752057,76.06499715490801 L 78.35127616020685,70.15817609279742 L 72.96571578549927,56.41910926154202 L 86.70478261675468,61.804669636249585 Z" fill="none" stroke="#0F52BA" stroke-width="1.6251345282071896" /><path d="M 154.3526727981088,48.28151605124843 L 160.2594938602194,61.80466963624958 L 173.9985606914748,56.41910926154202 L 168.61300031676726,70.15817609279742 L 182.1361539017684,76.06499715490801 L 168.61300031676726,81.97181821701861 L 173.9985606914748,95.71088504827401 L 160.2594938602194,90.32532467356646 L 154.3526727981088,103.8484782585676 L 148.44585173599822,90.32532467356646 L 134.70678490474282,95.71088504827401 L 140.09234527945037,81.97181821701861 L 126.56919169444923,76.06499715490801 L 140.09234527945037,70.15817609279742 L 134.70678490474282,56.41910926154202 L 148.44585173599822,61.804669636249585 Z" fill="none" stroke="#0F52BA" stroke-width="1.6251345282071896" /><path d="M 216.0937419173523,48.28151605124843 L 222.0005629794629,61.80466963624958 L 235.7396298107183,56.41910926154202 L 230.35406943601075,70.15817609279742 L 243.8772230210119,76.06499715490801 L 230.35406943601075,81.97181821701861 L 235.7396298107183,95.71088504827401 L 222.0005629794629,90.32532467356646 L 216.0937419173523,103.8484782585676 L 210.1869208552417,90.32532467356646 L 196.4478540239863,95.71088504827401 L 201.83341439869386,81.97181821701861 L 188.3102608136927,76.06499715490801 L 201.83341439869386,70.15817609279742 L 196.4478540239863,56.41910926154202 L 210.1869208552417,61.804669636249585 Z" fill="none" stroke="#0F52BA" stroke-width="1.6251345282071896" /><path d="M 277.83481103659585,48.28151605124843 L 283.7416320987064,61.80466963624958 L 297.4806989299619,56.41910926154202 L 292.09513855525427,70.15817609279742 L 305.61829214025545,76.06499715490801 L 292.09513855525427,81.97181821701861 L 297.4806989299619,95.71088504827401 L 283.7416320987064,90.32532467356646 L 277.83481103659585,103.8484782585676 L 271.9279899744853,90.32532467356646 L 258.1889231432299,95.71088504827401 L 263.57448351793744,81.97181821701861 L 250.05132993293626,76.06499715490801 L 263.57448351793744,70.15817609279742 L 258.18892314322983,56.41910926154202 L 271.92798997448523,61.804669636249585 Z" fill="none" stroke="#0F52BA" stroke-width="1.6251345282071896" /><path d="M 339.57588015583934,48.28151605124843 L 345.4827012179499,61.80466963624958 L 359.22176804920537,56.41910926154202 L 353.83620767449776,70.15817609279742 L 367.35936125949894,76.06499715490801 L 353.83620767449776,81.97181821701861 L 359.22176804920537,95.71088504827401 L 345.4827012179499,90.32532467356646 L 339.57588015583934,103.8484782585676 L 333.6690590937288,90.32532467356646 L 319.9299922624733,95.71088504827401 L 325.31555263718093,81.97181821701861 L 311.79239905217975,76.06499715490801 L 325.31555263718093,70.15817609279742 L 319.9299922624733,56.41910926154202 L 333.6690590937287,61.804669636249585 Z" fill="none" stroke="#0F52BA" stroke-width="1.6251345282071896" /><path d="M 401.31694927508283,48.28151605124843 L 407.2237703371934,61.80466963624958 L 420.96283716844886,56.41910926154202 L 415.57727679374125,70.15817609279742 L 429.10043037874243,76.06499715490801 L 415.57727679374125,81.97181821701861 L 420.96283716844886,95.71088504827401 L 407.2237703371934,90.32532467356646 L 401.31694927508283,103.8484782585676 L 395.41012821297227,90.32532467356646 L 381.67106138171687,95.71088504827401 L 387.0566217564244,81.97181821701861 L 373.53346817142324,76.06499715490801 L 387.0566217564244,70.15817609279742 L 381.6710613817168,56.41910926154202 L 395.4101282129722,61.804669636249585 Z" fill="none" stroke="#0F52BA" stroke-width="1.6251345282071896" /><path d="M 463.0580183943264,48.28151605124843 L 468.96483945643695,61.80466963624958 L 482.7039062876924,56.41910926154202 L 477.3183459129848,70.15817609279742 L 490.841499497986,76.06499715490801 L 477.3183459129848,81.97181821701861 L 482.7039062876924,95.71088504827401 L 468.96483945643695,90.32532467356646 L 463.0580183943264,103.8484782585676 L 457.1511973322158,90.32532467356646 L 443.4121305009604,95.71088504827401 L 448.79769087566797,81.97181821701861 L 435.2745372906668,76.06499715490801 L 448.79769087566797,70.15817609279742 L 443.41213050096036,56.41910926154202 L 457.15119733221576,61.804669636249585 Z" fill="none" stroke="#0F52BA" stroke-width="1.6251345282071896" /><path d="M 524.7990875135699,48.28151605124843 L 530.7059085756805,61.80466963624958 L 544.4449754069359,56.41910926154202 L 539.0594150322283,70.15817609279742 L 552.5825686172295,76.06499715490801 L 539.0594150322283,81.97181821701861 L 544.4449754069359,95.71088504827401 L 530.7059085756805,90.32532467356646 L 524.7990875135699,103.8484782585676 L 518.8922664514594,90.32532467356646 L 505.15319962020396,95.71088504827401 L 510.5387599949115,81.97181821701861 L 497.01560640991033,76.06499715490801 L 510.5387599949115,70.15817609279742 L 505.1531996202039,56.41910926154202 L 518.8922664514594,61.804669636249585 Z" fill="none" stroke="#0F52BA" stroke-width="1.6251345282071896" /><path d="M 1.7012475601383842e-15,101.74928190851331 L 5.906821062110591,115.27243549351445 L 19.645887893365998,109.8868751188069 L 14.260327518658436,123.6259419500623 L 27.783481103659586,129.5327630121729 L 14.260327518658436,135.4395840742835 L 19.645887893365998,149.1786509055389 L 5.906821062110591,143.79309053083134 L 1.7012475601383842e-15,157.3162441158325 L -5.906821062110589,143.79309053083134 L -19.645887893365995,149.1786509055389 L -14.260327518658432,135.4395840742835 L -27.783481103659586,129.5327630121729 L -14.260327518658434,123.6259419500623 L -19.645887893366,109.8868751188069 L -5.906821062110598,115.27243549351446 Z" fill="none" stroke="#0F52BA" stroke-width="1.6251345282071896" /><path d="M 61.74106911924352,101.74928190851331 L 67.64789018135411,115.27243549351445 L 81.38695701260951,109.8868751188069 L 76.00139663790196,123.6259419500623 L 89.5245502229031,129.5327630121729 L 76.00139663790196,135.4395840742835 L 81.38695701260951,149.1786509055389 L 67.64789018135411,143.79309053083134 L 61.74106911924352,157.3162441158325 L 55.83424805713293,143.79309053083134 L 42.095181225877525,149.1786509055389 L 47.48074160058509,135.4395840742835 L 33.95758801558394,129.5327630121729 L 47.480741600585084,123.6259419500623 L 42.09518122587752,109.8868751188069 L 55.834248057132925,115.27243549351446 Z" fill="none" stroke="#0F52BA" stroke-width="1.6251345282071896" /><path d="M 123.48213823848704,101.74928190851331 L 129.38895930059763,115.27243549351445 L 143.12802613185303,109.8868751188069 L 137.74246575714548,123.6259419500623 L 151.26561934214664,129.5327630121729 L 137.74246575714548,135.4395840742835 L 143.12802613185303,149.1786509055389 L 129.38895930059763,143.79309053083134 L 123.48213823848704,157.3162441158325 L 117.57531717637644,143.79309053083134 L 103.83625034512104,149.1786509055389 L 109.22181071982861,135.4395840742835 L 95.69865713482746,129.5327630121729 L 109.22181071982861,123.6259419500623 L 103.83625034512104,109.8868751188069 L 117.57531717637644,115.27243549351446 Z" fill="none" stroke="#0F52BA" stroke-width="1.6251345282071896" /><path d="M 185.2232073577306,101.74928190851331 L 191.13002841984118,115.27243549351445 L 204.86909525109658,109.8868751188069 L 199.48353487638903,123.6259419500623 L 213.00668846139018,129.5327630121729 L 199.48353487638903,135.4395840742835 L 204.86909525109658,149.1786509055389 L 191.13002841984118,143.79309053083134 L 185.2232073577306,157.3162441158325 L 179.31638629562,143.79309053083134 L 165.5773194643646,149.1786509055389 L 170.96287983907214,135.4395840742835 L 157.439726254071,129.5327630121729 L 170.96287983907214,123.6259419500623 L 165.5773194643646,109.8868751188069 L 179.31638629562,115.27243549351446 Z" fill="none" stroke="#0F52BA" stroke-width="1.6251345282071896" /><path d="M 246.96427647697408,101.74928190851331 L 252.87109753908467,115.27243549351445 L 266.6101643703401,109.8868751188069 L 261.2246039956325,123.6259419500623 L 274.7477575806337,129.5327630121729 L 261.2246039956325,135.4395840742835 L 266.6101643703401,149.1786509055389 L 252.87109753908467,143.79309053083134 L 246.96427647697408,157.3162441158325 L 241.05745541486348,143.79309053083134 L 227.31838858360808,149.1786509055389 L 232.70394895831564,135.4395840742835 L 219.18079537331448,129.5327630121729 L 232.70394895831564,123.6259419500623 L 227.31838858360808,109.8868751188069 L 241.05745541486348,115.27243549351446 Z" fill="none" stroke="#0F52BA" stroke-width="1.6251345282071896" /><path d="M 308.7053455962176,101.74928190851331 L 314.6121666583282,115.27243549351445 L 328.35123348958365,109.8868751188069 L 322.96567311487604,123.6259419500623 L 336.4888266998772,129.5327630121729 L 322.96567311487604,135.4395840742835 L 328.35123348958365,149.1786509055389 L 314.6121666583282,143.79309053083134 L 308.7053455962176,157.3162441158325 L 302.79852453410706,143.79309053083134 L 289.05945770285166,149.1786509055389 L 294.4450180775592,135.4395840742835 L 280.92186449255803,129.5327630121729 L 294.4450180775592,123.6259419500623 L 289.0594577028516,109.8868751188069 L 302.798524534107,115.27243549351446 Z" fill="none" stroke="#0F52BA" stroke-width="1.6251345282071896" /><path d="M 370.4464147154611,101.74928190851331 L 376.3532357775717,115.27243549351445 L 390.09230260882714,109.8868751188069 L 384.70674223411953,123.6259419500623 L 398.2298958191207,129.5327630121729 L 384.70674223411953,135.4395840742835 L 390.09230260882714,149.1786509055389 L 376.3532357775717,143.79309053083134 L 370.4464147154611,157.3162441158325 L 364.53959365335055,143.79309053083134 L 350.8005268220951,149.1786509055389 L 356.1860871968027,135.4395840742835 L 342.6629336118015,129.5327630121729 L 356.1860871968027,123.6259419500623 L 350.8005268220951,109.8868751188069 L 364.5395936533505,115.27243549351446 Z" fill="none" stroke="#0F52BA" stroke-width="1.6251345282071896" /><path d="M 432.1874838347046,101.74928190851331 L 438.0943048968152,115.27243549351445 L 451.83337172807063,109.8868751188069 L 446.447811353363,123.6259419500623 L 459.9709649383642,129.5327630121729 L 446.447811353363,135.4395840742835 L 451.83337172807063,149.1786509055389 L 438.0943048968152,143.79309053083134 L 432.1874838347046,157.3162441158325 L 426.28066277259404,143.79309053083134 L 412.54159594133864,149.1786509055389 L 417.9271563160462,135.4395840742835 L 404.404002731045,129.5327630121729 L 417.9271563160462,123.6259419500623 L 412.5415959413386,109.8868751188069 L 426.280662772594,115.27243549351446 Z" fill="none" stroke="#0F52BA" stroke-width="1.6251345282071896" /><path d="M 493.92855295394816,101.74928190851331 L 499.8353740160587,115.27243549351445 L 513.5744408473141,109.8868751188069 L 508.18888047260657,123.6259419500623 L 521.7120340576078,129.5327630121729 L 508.18888047260657,135.4395840742835 L 513.5744408473141,149.1786509055389 L 499.8353740160587,143.79309053083134 L 493.92855295394816,157.3162441158325 L 488.0217318918376,143.79309053083134 L 474.2826650605822,149.1786509055389 L 479.66822543528974,135.4395840742835 L 466.14507185028856,129.5327630121729 L 479.66822543528974,123.6259419500623 L 474.28266506058213,109.8868751188069 L 488.02173189183753,115.27243549351446 Z" fill="none" stroke="#0F52BA" stroke-width="1.6251345282071896" /><path d="M 555.6696220731917,101.74928190851331 L 561.5764431353023,115.27243549351445 L 575.3155099665577,109.8868751188069 L 569.9299495918501,123.6259419500623 L 583.4531031768513,129.5327630121729 L 569.9299495918501,135.4395840742835 L 575.3155099665577,149.1786509055389 L 561.5764431353023,143.79309053083134 L 555.6696220731917,157.3162441158325 L 549.7628010110811,143.79309053083134 L 536.0237341798257,149.1786509055389 L 541.4092945545333,135.4395840742835 L 527.8861409695321,129.5327630121729 L 541.4092945545333,123.6259419500623 L 536.0237341798257,109.8868751188069 L 549.7628010110811,115.27243549351446 Z" fill="none" stroke="#0F52BA" stroke-width="1.6251345282071896" /><path d="M -30.87053455962176,155.2170477657782 L -24.96371349751117,168.74020135077936 L -11.224646666255762,163.3546409760718 L -16.610207040963324,177.0937078073272 L -3.087053455962174,183.0005288694378 L -16.610207040963324,188.9073499315484 L -11.224646666255762,202.6464167628038 L -24.96371349751117,197.26085638809624 L -30.87053455962176,210.7840099730974 L -36.77735562173235,197.26085638809624 L -50.516422452987754,202.6464167628038 L -45.13086207828019,188.9073499315484 L -58.65401566328134,183.0005288694378 L -45.130862078280195,177.0937078073272 L -50.51642245298776,163.3546409760718 L -36.777355621732355,168.74020135077936 Z" fill="none" stroke="#0F52BA" stroke-width="1.6251345282071896" /><path d="M 30.87053455962176,155.2170477657782 L 36.777355621732355,168.74020135077936 L 50.516422452987754,163.3546409760718 L 45.130862078280195,177.0937078073272 L 58.65401566328134,183.0005288694378 L 45.130862078280195,188.9073499315484 L 50.516422452987754,202.6464167628038 L 36.777355621732355,197.26085638809624 L 30.87053455962176,210.7840099730974 L 24.963713497511172,197.26085638809624 L 11.224646666255765,202.6464167628038 L 16.610207040963328,188.9073499315484 L 3.087053455962174,183.0005288694378 L 16.610207040963324,177.0937078073272 L 11.224646666255758,163.3546409760718 L 24.96371349751116,168.74020135077936 Z" fill="none" stroke="#0F52BA" stroke-width="1.6251345282071896" /><path d="M 92.61160367886528,155.2170477657782 L 98.51842474097587,168.74020135077936 L 112.25749157223127,163.3546409760718 L 106.87193119752371,177.0937078073272 L 120.39508478252486,183.0005288694378 L 106.87193119752371,188.9073499315484 L 112.25749157223127,202.6464167628038 L 98.51842474097587,197.26085638809624 L 92.61160367886528,210.7840099730974 L 86.70478261675468,197.26085638809624 L 72.96571578549928,202.6464167628038 L 78.35127616020685,188.9073499315484 L 64.8281225752057,183.0005288694378 L 78.35127616020685,177.0937078073272 L 72.96571578549927,163.3546409760718 L 86.70478261675468,168.74020135077936 Z" fill="none" stroke="#0F52BA" stroke-width="1.6251345282071896" /><path d="M 154.3526727981088,155.2170477657782 L 160.2594938602194,168.74020135077936 L 173.9985606914748,163.3546409760718 L 168.61300031676726,177.0937078073272 L 182.1361539017684,183.0005288694378 L 168.61300031676726,188.9073499315484 L 173.9985606914748,202.6464167628038 L 160.2594938602194,197.26085638809624 L 154.3526727981088,210.7840099730974 L 148.44585173599822,197.26085638809624 L 134.70678490474282,202.6464167628038 L 140.09234527945037,188.9073499315484 L 126.56919169444923,183.0005288694378 L 140.09234527945037,177.0937078073272 L 134.70678490474282,163.3546409760718 L 148.44585173599822,168.74020135077936 Z" fill="none" stroke="#0F52BA" stroke-width="1.6251345282071896" /><path d="M 216.0937419173523,155.2170477657782 L 222.0005629794629,168.74020135077936 L 235.7396298107183,163.3546409760718 L 230.35406943601075,177.0937078073272 L 243.8772230210119,183.0005288694378 L 230.35406943601075,188.9073499315484 L 235.7396298107183,202.6464167628038 L 222.0005629794629,197.26085638809624 L 216.0937419173523,210.7840099730974 L 210.1869208552417,197.26085638809624 L 196.4478540239863,202.6464167628038 L 201.83341439869386,188.9073499315484 L 188.3102608136927,183.0005288694378 L 201.83341439869386,177.0937078073272 L 196.4478540239863,163.3546409760718 L 210.1869208552417,168.74020135077936 Z" fill="none" stroke="#0F52BA" stroke-width="1.6251345282071896" /><path d="M 277.83481103659585,155.2170477657782 L 283.7416320987064,168.74020135077936 L 297.4806989299619,163.3546409760718 L 292.09513855525427,177.0937078073272 L 305.61829214025545,183.0005288694378 L 292.09513855525427,188.9073499315484 L 297.4806989299619,202.6464167628038 L 283.7416320987064,197.26085638809624 L 277.83481103659585,210.7840099730974 L 271.9279899744853,197.26085638809624 L 258.1889231432299,202.6464167628038 L 263.57448351793744,188.9073499315484 L 250.05132993293626,183.0005288694378 L 263.57448351793744,177.0937078073272 L 258.18892314322983,163.3546409760718 L 271.92798997448523,168.74020135077936 Z" fill="none" stroke="#0F52BA" stroke-width="1.6251345282071896" /><path d="M 339.57588015583934,155.2170477657782 L 345.4827012179499,168.74020135077936 L 359.22176804920537,163.3546409760718 L 353.83620767449776,177.0937078073272 L 367.35936125949894,183.0005288694378 L 353.83620767449776,188.9073499315484 L 359.22176804920537,202.6464167628038 L 345.4827012179499,197.26085638809624 L 339.57588015583934,210.7840099730974 L 333.6690590937288,197.26085638809624 L 319.9299922624733,202.6464167628038 L 325.31555263718093,188.9073499315484 L 311.79239905217975,183.0005288694378 L 325.31555263718093,177.0937078073272 L 319.9299922624733,163.3546409760718 L 333.6690590937287,168.74020135077936 Z" fill="none" stroke="#0F52BA" stroke-width="1.6251345282071896" /><path d="M 401.31694927508283,155.2170477657782 L 407.2237703371934,168.74020135077936 L 420.96283716844886,163.3546409760718 L 415.57727679374125,177.0937078073272 L 429.10043037874243,183.0005288694378 L 415.57727679374125,188.9073499315484 L 420.96283716844886,202.6464167628038 L 407.2237703371934,197.26085638809624 L 401.31694927508283,210.7840099730974 L 395.41012821297227,197.26085638809624 L 381.67106138171687,202.6464167628038 L 387.0566217564244,188.9073499315484 L 373.53346817142324,183.0005288694378 L 387.0566217564244,177.0937078073272 L 381.6710613817168,163.3546409760718 L 395.4101282129722,168.74020135077936 Z" fill="none" stroke="#0F52BA" stroke-width="1.6251345282071896" /><path d="M 463.0580183943264,155.2170477657782 L 468.96483945643695,168.74020135077936 L 482.7039062876924,163.3546409760718 L 477.3183459129848,177.0937078073272 L 490.841499497986,183.0005288694378 L 477.3183459129848,188.9073499315484 L 482.7039062876924,202.6464167628038 L 468.96483945643695,197.26085638809624 L 463.0580183943264,210.7840099730974 L 457.1511973322158,197.26085638809624 L 443.4121305009604,202.6464167628038 L 448.79769087566797,188.9073499315484 L 435.2745372906668,183.0005288694378 L 448.79769087566797,177.0937078073272 L 443.41213050096036,163.3546409760718 L 457.15119733221576,168.74020135077936 Z" fill="none" stroke="#0F52BA" stroke-width="1.6251345282071896" /><path d="M 524.7990875135699,155.2170477657782 L 530.7059085756805,168.74020135077936 L 544.4449754069359,163.3546409760718 L 539.0594150322283,177.0937078073272 L 552.5825686172295,183.0005288694378 L 539.0594150322283,188.9073499315484 L 544.4449754069359,202.6464167628038 L 530.7059085756805,197.26085638809624 L 524.7990875135699,210.7840099730974 L 518.8922664514594,197.26085638809624 L 505.15319962020396,202.6464167628038 L 510.5387599949115,188.9073499315484 L 497.01560640991033,183.0005288694378 L 510.5387599949115,177.0937078073272 L 505.1531996202039,163.3546409760718 L 518.8922664514594,168.74020135077936 Z" fill="none" stroke="#0F52BA" stroke-width="1.6251345282071896" /><path d="M 1.7012475601383842e-15,208.6848136230431 L 5.906821062110591,222.20796720804427 L 19.645887893365998,216.82240683333671 L 14.260327518658436,230.5614736645921 L 27.783481103659586,236.4682947267027 L 14.260327518658436,242.3751157888133 L 19.645887893365998,256.11418262006873 L 5.906821062110591,250.72862224536115 L 1.7012475601383842e-15,264.2517758303623 L -5.906821062110589,250.72862224536115 L -19.645887893365995,256.11418262006873 L -14.260327518658432,242.3751157888133 L -27.783481103659586,236.4682947267027 L -14.260327518658434,230.5614736645921 L -19.645887893366,216.82240683333671 L -5.906821062110598,222.20796720804427 Z" fill="none" stroke="#0F52BA" stroke-width="1.6251345282071896" /><path d="M 61.74106911924352,208.6848136230431 L 67.64789018135411,222.20796720804427 L 81.38695701260951,216.82240683333671 L 76.00139663790196,230.5614736645921 L 89.5245502229031,236.4682947267027 L 76.00139663790196,242.3751157888133 L 81.38695701260951,256.11418262006873 L 67.64789018135411,250.72862224536115 L 61.74106911924352,264.2517758303623 L 55.83424805713293,250.72862224536115 L 42.095181225877525,256.11418262006873 L 47.48074160058509,242.3751157888133 L 33.95758801558394,236.4682947267027 L 47.480741600585084,230.5614736645921 L 42.09518122587752,216.82240683333671 L 55.834248057132925,222.20796720804427 Z" fill="none" stroke="#0F52BA" stroke-width="1.6251345282071896" /><path d="M 123.48213823848704,208.6848136230431 L 129.38895930059763,222.20796720804427 L 143.12802613185303,216.82240683333671 L 137.74246575714548,230.5614736645921 L 151.26561934214664,236.4682947267027 L 137.74246575714548,242.3751157888133 L 143.12802613185303,256.11418262006873 L 129.38895930059763,250.72862224536115 L 123.48213823848704,264.2517758303623 L 117.57531717637644,250.72862224536115 L 103.83625034512104,256.11418262006873 L 109.22181071982861,242.3751157888133 L 95.69865713482746,236.4682947267027 L 109.22181071982861,230.5614736645921 L 103.83625034512104,216.82240683333671 L 117.57531717637644,222.20796720804427 Z" fill="none" stroke="#0F52BA" stroke-width="1.6251345282071896" /><path d="M 185.2232073577306,208.6848136230431 L 191.13002841984118,222.20796720804427 L 204.86909525109658,216.82240683333671 L 199.48353487638903,230.5614736645921 L 213.00668846139018,236.4682947267027 L 199.48353487638903,242.3751157888133 L 204.86909525109658,256.11418262006873 L 191.13002841984118,250.72862224536115 L 185.2232073577306,264.2517758303623 L 179.31638629562,250.72862224536115 L 165.5773194643646,256.11418262006873 L 170.96287983907214,242.3751157888133 L 157.439726254071,236.4682947267027 L 170.96287983907214,230.5614736645921 L 165.5773194643646,216.82240683333671 L 179.31638629562,222.20796720804427 Z" fill="none" stroke="#0F52BA" stroke-width="1.6251345282071896" /><path d="M 246.96427647697408,208.6848136230431 L 252.87109753908467,222.20796720804427 L 266.6101643703401,216.82240683333671 L 261.2246039956325,230.5614736645921 L 274.7477575806337,236.4682947267027 L 261.2246039956325,242.3751157888133 L 266.6101643703401,256.11418262006873 L 252.87109753908467,250.72862224536115 L 246.96427647697408,264.2517758303623 L 241.05745541486348,250.72862224536115 L 227.31838858360808,256.11418262006873 L 232.70394895831564,242.3751157888133 L 219.18079537331448,236.4682947267027 L 232.70394895831564,230.5614736645921 L 227.31838858360808,216.82240683333671 L 241.05745541486348,222.20796720804427 Z" fill="none" stroke="#0F52BA" stroke-width="1.6251345282071896" /><path d="M 308.7053455962176,208.6848136230431 L 314.6121666583282,222.20796720804427 L 328.35123348958365,216.82240683333671 L 322.96567311487604,230.5614736645921 L 336.4888266998772,236.4682947267027 L 322.96567311487604,242.3751157888133 L 328.35123348958365,256.11418262006873 L 314.6121666583282,250.72862224536115 L 308.7053455962176,264.2517758303623 L 302.79852453410706,250.72862224536115 L 289.05945770285166,256.11418262006873 L 294.4450180775592,242.3751157888133 L 280.92186449255803,236.4682947267027 L 294.4450180775592,230.5614736645921 L 289.0594577028516,216.82240683333671 L 302.798524534107,222.20796720804427 Z" fill="none" stroke="#0F52BA" stroke-width="1.6251345282071896" /><path d="M 370.4464147154611,208.6848136230431 L 376.3532357775717,222.20796720804427 L 390.09230260882714,216.82240683333671 L 384.70674223411953,230.5614736645921 L 398.2298958191207,236.4682947267027 L 384.70674223411953,242.3751157888133 L 390.09230260882714,256.11418262006873 L 376.3532357775717,250.72862224536115 L 370.4464147154611,264.2517758303623 L 364.53959365335055,250.72862224536115 L 350.8005268220951,256.11418262006873 L 356.1860871968027,242.3751157888133 L 342.6629336118015,236.4682947267027 L 356.1860871968027,230.5614736645921 L 350.8005268220951,216.82240683333671 L 364.5395936533505,222.20796720804427 Z" fill="none" stroke="#0F52BA" stroke-width="1.6251345282071896" /><path d="M 432.1874838347046,208.6848136230431 L 438.0943048968152,222.20796720804427 L 451.83337172807063,216.82240683333671 L 446.447811353363,230.5614736645921 L 459.9709649383642,236.4682947267027 L 446.447811353363,242.3751157888133 L 451.83337172807063,256.11418262006873 L 438.0943048968152,250.72862224536115 L 432.1874838347046,264.2517758303623 L 426.28066277259404,250.72862224536115 L 412.54159594133864,256.11418262006873 L 417.9271563160462,242.3751157888133 L 404.404002731045,236.4682947267027 L 417.9271563160462,230.5614736645921 L 412.5415959413386,216.82240683333671 L 426.280662772594,222.20796720804427 Z" fill="none" stroke="#0F52BA" stroke-width="1.6251345282071896" /><path d="M 493.92855295394816,208.6848136230431 L 499.8353740160587,222.20796720804427 L 513.5744408473141,216.82240683333671 L 508.18888047260657,230.5614736645921 L 521.7120340576078,236.4682947267027 L 508.18888047260657,242.3751157888133 L 513.5744408473141,256.11418262006873 L 499.8353740160587,250.72862224536115 L 493.92855295394816,264.2517758303623 L 488.0217318918376,250.72862224536115 L 474.2826650605822,256.11418262006873 L 479.66822543528974,242.3751157888133 L 466.14507185028856,236.4682947267027 L 479.66822543528974,230.5614736645921 L 474.28266506058213,216.82240683333671 L 488.02173189183753,222.20796720804427 Z" fill="none" stroke="#0F52BA" stroke-width="1.6251345282071896" /><path d="M 555.6696220731917,208.6848136230431 L 561.5764431353023,222.20796720804427 L 575.3155099665577,216.82240683333671 L 569.9299495918501,230.5614736645921 L 583.4531031768513,236.4682947267027 L 569.9299495918501,242.3751157888133 L 575.3155099665577,256.11418262006873 L 561.5764431353023,250.72862224536115 L 555.6696220731917,264.2517758303623 L 549.7628010110811,250.72862224536115 L 536.0237341798257,256.11418262006873 L 541.4092945545333,242.3751157888133 L 527.8861409695321,236.4682947267027 L 541.4092945545333,230.5614736645921 L 536.0237341798257,216.82240683333671 L 549.7628010110811,222.20796720804427 Z" fill="none" stroke="#0F52BA" stroke-width="1.6251345282071896" /><path d="M -30.87053455962176,262.15257948030796 L -24.96371349751117,275.67573306530915 L -11.224646666255762,270.2901726906016 L -16.610207040963324,284.029239521857 L -3.087053455962174,289.93606058396756 L -16.610207040963324,295.8428816460781 L -11.224646666255762,309.5819484773335 L -24.96371349751117,304.196388102626 L -30.87053455962176,317.71954168762716 L -36.77735562173235,304.196388102626 L -50.516422452987754,309.5819484773336 L -45.13086207828019,295.8428816460782 L -58.65401566328134,289.93606058396756 L -45.130862078280195,284.029239521857 L -50.51642245298776,270.2901726906016 L -36.777355621732355,275.67573306530915 Z" fill="none" stroke="#0F52BA" stroke-width="1.6251345282071896" /><path d="M 30.87053455962176,262.15257948030796 L 36.777355621732355,275.67573306530915 L 50.516422452987754,270.2901726906016 L 45.130862078280195,284.029239521857 L 58.65401566328134,289.93606058396756 L 45.130862078280195,295.8428816460781 L 50.516422452987754,309.5819484773335 L 36.777355621732355,304.196388102626 L 30.87053455962176,317.71954168762716 L 24.963713497511172,304.196388102626 L 11.224646666255765,309.5819484773336 L 16.610207040963328,295.8428816460782 L 3.087053455962174,289.93606058396756 L 16.610207040963324,284.029239521857 L 11.224646666255758,270.2901726906016 L 24.96371349751116,275.67573306530915 Z" fill="none" stroke="#0F52BA" stroke-width="1.6251345282071896" /><path d="M 92.61160367886528,262.15257948030796 L 98.51842474097587,275.67573306530915 L 112.25749157223127,270.2901726906016 L 106.87193119752371,284.029239521857 L 120.39508478252486,289.93606058396756 L 106.87193119752371,295.8428816460781 L 112.25749157223127,309.5819484773335 L 98.51842474097587,304.196388102626 L 92.61160367886528,317.71954168762716 L 86.70478261675468,304.196388102626 L 72.96571578549928,309.5819484773336 L 78.35127616020685,295.8428816460782 L 64.8281225752057,289.93606058396756 L 78.35127616020685,284.029239521857 L 72.96571578549927,270.2901726906016 L 86.70478261675468,275.67573306530915 Z" fill="none" stroke="#0F52BA" stroke-width="1.6251345282071896" /><path d="M 154.3526727981088,262.15257948030796 L 160.2594938602194,275.67573306530915 L 173.9985606914748,270.2901726906016 L 168.61300031676726,284.029239521857 L 182.1361539017684,289.93606058396756 L 168.61300031676726,295.8428816460781 L 173.9985606914748,309.5819484773335 L 160.2594938602194,304.196388102626 L 154.3526727981088,317.71954168762716 L 148.44585173599822,304.196388102626 L 134.70678490474282,309.5819484773336 L 140.09234527945037,295.8428816460782 L 126.56919169444923,289.93606058396756 L 140.09234527945037,284.029239521857 L 134.70678490474282,270.2901726906016 L 148.44585173599822,275.67573306530915 Z" fill="none" stroke="#0F52BA" stroke-width="1.6251345282071896" /><path d="M 216.0937419173523,262.15257948030796 L 222.0005629794629,275.67573306530915 L 235.7396298107183,270.2901726906016 L 230.35406943601075,284.029239521857 L 243.8772230210119,289.93606058396756 L 230.35406943601075,295.8428816460781 L 235.7396298107183,309.5819484773335 L 222.0005629794629,304.196388102626 L 216.0937419173523,317.71954168762716 L 210.1869208552417,304.196388102626 L 196.4478540239863,309.5819484773336 L 201.83341439869386,295.8428816460782 L 188.3102608136927,289.93606058396756 L 201.83341439869386,284.029239521857 L 196.4478540239863,270.2901726906016 L 210.1869208552417,275.67573306530915 Z" fill="none" stroke="#0F52BA" stroke-width="1.6251345282071896" /><path d="M 277.83481103659585,262.15257948030796 L 283.7416320987064,275.67573306530915 L 297.4806989299619,270.2901726906016 L 292.09513855525427,284.029239521857 L 305.61829214025545,289.93606058396756 L 292.09513855525427,295.8428816460781 L 297.4806989299619,309.5819484773335 L 283.7416320987064,304.196388102626 L 277.83481103659585,317.71954168762716 L 271.9279899744853,304.196388102626 L 258.1889231432299,309.5819484773336 L 263.57448351793744,295.8428816460782 L 250.05132993293626,289.93606058396756 L 263.57448351793744,284.029239521857 L 258.18892314322983,270.2901726906016 L 271.92798997448523,275.67573306530915 Z" fill="none" stroke="#0F52BA" stroke-width="1.6251345282071896" /><path d="M 339.57588015583934,262.15257948030796 L 345.4827012179499,275.67573306530915 L 359.22176804920537,270.2901726906016 L 353.83620767449776,284.029239521857 L 367.35936125949894,289.93606058396756 L 353.83620767449776,295.8428816460781 L 359.22176804920537,309.5819484773335 L 345.4827012179499,304.196388102626 L 339.57588015583934,317.71954168762716 L 333.6690590937288,304.196388102626 L 319.9299922624733,309.5819484773336 L 325.31555263718093,295.8428816460782 L 311.79239905217975,289.93606058396756 L 325.31555263718093,284.029239521857 L 319.9299922624733,270.2901726906016 L 333.6690590937287,275.67573306530915 Z" fill="none" stroke="#0F52BA" stroke-width="1.6251345282071896" /><path d="M 401.31694927508283,262.15257948030796 L 407.2237703371934,275.67573306530915 L 420.96283716844886,270.2901726906016 L 415.57727679374125,284.029239521857 L 429.10043037874243,289.93606058396756 L 415.57727679374125,295.8428816460781 L 420.96283716844886,309.5819484773335 L 407.2237703371934,304.196388102626 L 401.31694927508283,317.71954168762716 L 395.41012821297227,304.196388102626 L 381.67106138171687,309.5819484773336 L 387.0566217564244,295.8428816460782 L 373.53346817142324,289.93606058396756 L 387.0566217564244,284.029239521857 L 381.6710613817168,270.2901726906016 L 395.4101282129722,275.67573306530915 Z" fill="none" stroke="#0F52BA" stroke-width="1.6251345282071896" /><path d="M 463.0580183943264,262.15257948030796 L 468.96483945643695,275.67573306530915 L 482.7039062876924,270.2901726906016 L 477.3183459129848,284.029239521857 L 490.841499497986,289.93606058396756 L 477.3183459129848,295.8428816460781 L 482.7039062876924,309.5819484773335 L 468.96483945643695,304.196388102626 L 463.0580183943264,317.71954168762716 L 457.1511973322158,304.196388102626 L 443.4121305009604,309.5819484773336 L 448.79769087566797,295.8428816460782 L 435.2745372906668,289.93606058396756 L 448.79769087566797,284.029239521857 L 443.41213050096036,270.2901726906016 L 457.15119733221576,275.67573306530915 Z" fill="none" stroke="#0F52BA" stroke-width="1.6251345282071896" /><path d="M 524.7990875135699,262.15257948030796 L 530.7059085756805,275.67573306530915 L 544.4449754069359,270.2901726906016 L 539.0594150322283,284.029239521857 L 552.5825686172295,289.93606058396756 L 539.0594150322283,295.8428816460781 L 544.4449754069359,309.5819484773335 L 530.7059085756805,304.196388102626 L 524.7990875135699,317.71954168762716 L 518.8922664514594,304.196388102626 L 505.15319962020396,309.5819484773336 L 510.5387599949115,295.8428816460782 L 497.01560640991033,289.93606058396756 L 510.5387599949115,284.029239521857 L 505.1531996202039,270.2901726906016 L 518.8922664514594,275.67573306530915 Z" fill="none" stroke="#0F52BA" stroke-width="1.6251345282071896" /><path d="M 1.7012475601383842e-15,315.6203453375728 L 5.906821062110591,329.143498922574 L 19.645887893365998,323.7579385478664 L 14.260327518658436,337.49700537912184 L 27.783481103659586,343.4038264412324 L 14.260327518658436,349.310647503343 L 19.645887893365998,363.04971433459843 L 5.906821062110591,357.6641539598908 L 1.7012475601383842e-15,371.187307544892 L -5.906821062110589,357.6641539598908 L -19.645887893365995,363.04971433459843 L -14.260327518658432,349.31064750334303 L -27.783481103659586,343.4038264412324 L -14.260327518658434,337.4970053791218 L -19.645887893366,323.7579385478664 L -5.906821062110598,329.143498922574 Z" fill="none" stroke="#0F52BA" stroke-width="1.6251345282071896" /><path d="M 61.74106911924352,315.6203453375728 L 67.64789018135411,329.143498922574 L 81.38695701260951,323.7579385478664 L 76.00139663790196,337.49700537912184 L 89.5245502229031,343.4038264412324 L 76.00139663790196,349.310647503343 L 81.38695701260951,363.04971433459843 L 67.64789018135411,357.6641539598908 L 61.74106911924352,371.187307544892 L 55.83424805713293,357.6641539598908 L 42.095181225877525,363.04971433459843 L 47.48074160058509,349.31064750334303 L 33.95758801558394,343.4038264412324 L 47.480741600585084,337.4970053791218 L 42.09518122587752,323.7579385478664 L 55.834248057132925,329.143498922574 Z" fill="none" stroke="#0F52BA" stroke-width="1.6251345282071896" /><path d="M 123.48213823848704,315.6203453375728 L 129.38895930059763,329.143498922574 L 143.12802613185303,323.7579385478664 L 137.74246575714548,337.49700537912184 L 151.26561934214664,343.4038264412324 L 137.74246575714548,349.310647503343 L 143.12802613185303,363.04971433459843 L 129.38895930059763,357.6641539598908 L 123.48213823848704,371.187307544892 L 117.57531717637644,357.6641539598908 L 103.83625034512104,363.04971433459843 L 109.22181071982861,349.31064750334303 L 95.69865713482746,343.4038264412324 L 109.22181071982861,337.4970053791218 L 103.83625034512104,323.7579385478664 L 117.57531717637644,329.143498922574 Z" fill="none" stroke="#0F52BA" stroke-width="1.6251345282071896" /><path d="M 185.2232073577306,315.6203453375728 L 191.13002841984118,329.143498922574 L 204.86909525109658,323.7579385478664 L 199.48353487638903,337.49700537912184 L 213.00668846139018,343.4038264412324 L 199.48353487638903,349.310647503343 L 204.86909525109658,363.04971433459843 L 191.13002841984118,357.6641539598908 L 185.2232073577306,371.187307544892 L 179.31638629562,357.6641539598908 L 165.5773194643646,363.04971433459843 L 170.96287983907214,349.31064750334303 L 157.439726254071,343.4038264412324 L 170.96287983907214,337.4970053791218 L 165.5773194643646,323.7579385478664 L 179.31638629562,329.143498922574 Z" fill="none" stroke="#0F52BA" stroke-width="1.6251345282071896" /><path d="M 246.96427647697408,315.6203453375728 L 252.87109753908467,329.143498922574 L 266.6101643703401,323.7579385478664 L 261.2246039956325,337.49700537912184 L 274.7477575806337,343.4038264412324 L 261.2246039956325,349.310647503343 L 266.6101643703401,363.04971433459843 L 252.87109753908467,357.6641539598908 L 246.96427647697408,371.187307544892 L 241.05745541486348,357.6641539598908 L 227.31838858360808,363.04971433459843 L 232.70394895831564,349.31064750334303 L 219.18079537331448,343.4038264412324 L 232.70394895831564,337.4970053791218 L 227.31838858360808,323.7579385478664 L 241.05745541486348,329.143498922574 Z" fill="none" stroke="#0F52BA" stroke-width="1.6251345282071896" /><path d="M 308.7053455962176,315.6203453375728 L 314.6121666583282,329.143498922574 L 328.35123348958365,323.7579385478664 L 322.96567311487604,337.49700537912184 L 336.4888266998772,343.4038264412324 L 322.96567311487604,349.310647503343 L 328.35123348958365,363.04971433459843 L 314.6121666583282,357.6641539598908 L 308.7053455962176,371.187307544892 L 302.79852453410706,357.6641539598908 L 289.05945770285166,363.04971433459843 L 294.4450180775592,349.31064750334303 L 280.92186449255803,343.4038264412324 L 294.4450180775592,337.4970053791218 L 289.0594577028516,323.7579385478664 L 302.798524534107,329.143498922574 Z" fill="none" stroke="#0F52BA" stroke-width="1.6251345282071896" /><path d="M 370.4464147154611,315.6203453375728 L 376.3532357775717,329.143498922574 L 390.09230260882714,323.7579385478664 L 384.70674223411953,337.49700537912184 L 398.2298958191207,343.4038264412324 L 384.70674223411953,349.310647503343 L 390.09230260882714,363.04971433459843 L 376.3532357775717,357.6641539598908 L 370.4464147154611,371.187307544892 L 364.53959365335055,357.6641539598908 L 350.8005268220951,363.04971433459843 L 356.1860871968027,349.31064750334303 L 342.6629336118015,343.4038264412324 L 356.1860871968027,337.4970053791218 L 350.8005268220951,323.7579385478664 L 364.5395936533505,329.143498922574 Z" fill="none" stroke="#0F52BA" stroke-width="1.6251345282071896" /><path d="M 432.1874838347046,315.6203453375728 L 438.0943048968152,329.143498922574 L 451.83337172807063,323.7579385478664 L 446.447811353363,337.49700537912184 L 459.9709649383642,343.4038264412324 L 446.447811353363,349.310647503343 L 451.83337172807063,363.04971433459843 L 438.0943048968152,357.6641539598908 L 432.1874838347046,371.187307544892 L 426.28066277259404,357.6641539598908 L 412.54159594133864,363.04971433459843 L 417.9271563160462,349.31064750334303 L 404.404002731045,343.4038264412324 L 417.9271563160462,337.4970053791218 L 412.5415959413386,323.7579385478664 L 426.280662772594,329.143498922574 Z" fill="none" stroke="#0F52BA" stroke-width="1.6251345282071896" /><path d="M 493.92855295394816,315.6203453375728 L 499.8353740160587,329.143498922574 L 513.5744408473141,323.7579385478664 L 508.18888047260657,337.49700537912184 L 521.7120340576078,343.4038264412324 L 508.18888047260657,349.310647503343 L 513.5744408473141,363.04971433459843 L 499.8353740160587,357.6641539598908 L 493.92855295394816,371.187307544892 L 488.0217318918376,357.6641539598908 L 474.2826650605822,363.04971433459843 L 479.66822543528974,349.31064750334303 L 466.14507185028856,343.4038264412324 L 479.66822543528974,337.4970053791218 L 474.28266506058213,323.7579385478664 L 488.02173189183753,329.143498922574 Z" fill="none" stroke="#0F52BA" stroke-width="1.6251345282071896" /><path d="M 555.6696220731917,315.6203453375728 L 561.5764431353023,329.143498922574 L 575.3155099665577,323.7579385478664 L 569.9299495918501,337.49700537912184 L 583.4531031768513,343.4038264412324 L 569.9299495918501,349.310647503343 L 575.3155099665577,363.04971433459843 L 561.5764431353023,357.6641539598908 L 555.6696220731917,371.187307544892 L 549.7628010110811,357.6641539598908 L 536.0237341798257,363.04971433459843 L 541.4092945545333,349.31064750334303 L 527.8861409695321,343.4038264412324 L 541.4092945545333,337.4970053791218 L 536.0237341798257,323.7579385478664 L 549.7628010110811,329.143498922574 Z" fill="none" stroke="#0F52BA" stroke-width="1.6251345282071896" /><path d="M -30.87053455962176,369.0881111948377 L -24.96371349751117,382.6112647798389 L -11.224646666255762,377.2257044051313 L -16.610207040963324,390.96477123638675 L -3.087053455962174,396.8715922984973 L -16.610207040963324,402.7784133606079 L -11.224646666255762,416.51748019186334 L -24.96371349751117,411.13191981715573 L -30.87053455962176,424.6550734021569 L -36.77735562173235,411.13191981715573 L -50.516422452987754,416.51748019186334 L -45.13086207828019,402.77841336060794 L -58.65401566328134,396.8715922984973 L -45.130862078280195,390.9647712363867 L -50.51642245298776,377.2257044051313 L -36.777355621732355,382.6112647798389 Z" fill="none" stroke="#0F52BA" stroke-width="1.6251345282071896" /><path d="M 30.87053455962176,369.0881111948377 L 36.777355621732355,382.6112647798389 L 50.516422452987754,377.2257044051313 L 45.130862078280195,390.96477123638675 L 58.65401566328134,396.8715922984973 L 45.130862078280195,402.7784133606079 L 50.516422452987754,416.51748019186334 L 36.777355621732355,411.13191981715573 L 30.87053455962176,424.6550734021569 L 24.963713497511172,411.13191981715573 L 11.224646666255765,416.51748019186334 L 16.610207040963328,402.77841336060794 L 3.087053455962174,396.8715922984973 L 16.610207040963324,390.9647712363867 L 11.224646666255758,377.2257044051313 L 24.96371349751116,382.6112647798389 Z" fill="none" stroke="#0F52BA" stroke-width="1.6251345282071896" /><path d="M 92.61160367886528,369.0881111948377 L 98.51842474097587,382.6112647798389 L 112.25749157223127,377.2257044051313 L 106.87193119752371,390.96477123638675 L 120.39508478252486,396.8715922984973 L 106.87193119752371,402.7784133606079 L 112.25749157223127,416.51748019186334 L 98.51842474097587,411.13191981715573 L 92.61160367886528,424.6550734021569 L 86.70478261675468,411.13191981715573 L 72.96571578549928,416.51748019186334 L 78.35127616020685,402.77841336060794 L 64.8281225752057,396.8715922984973 L 78.35127616020685,390.9647712363867 L 72.96571578549927,377.2257044051313 L 86.70478261675468,382.6112647798389 Z" fill="none" stroke="#0F52BA" stroke-width="1.6251345282071896" /><path d="M 154.3526727981088,369.0881111948377 L 160.2594938602194,382.6112647798389 L 173.9985606914748,377.2257044051313 L 168.61300031676726,390.96477123638675 L 182.1361539017684,396.8715922984973 L 168.61300031676726,402.7784133606079 L 173.9985606914748,416.51748019186334 L 160.2594938602194,411.13191981715573 L 154.3526727981088,424.6550734021569 L 148.44585173599822,411.13191981715573 L 134.70678490474282,416.51748019186334 L 140.09234527945037,402.77841336060794 L 126.56919169444923,396.8715922984973 L 140.09234527945037,390.9647712363867 L 134.70678490474282,377.2257044051313 L 148.44585173599822,382.6112647798389 Z" fill="none" stroke="#0F52BA" stroke-width="1.6251345282071896" /><path d="M 216.0937419173523,369.0881111948377 L 222.0005629794629,382.6112647798389 L 235.7396298107183,377.2257044051313 L 230.35406943601075,390.96477123638675 L 243.8772230210119,396.8715922984973 L 230.35406943601075,402.7784133606079 L 235.7396298107183,416.51748019186334 L 222.0005629794629,411.13191981715573 L 216.0937419173523,424.6550734021569 L 210.1869208552417,411.13191981715573 L 196.4478540239863,416.51748019186334 L 201.83341439869386,402.77841336060794 L 188.3102608136927,396.8715922984973 L 201.83341439869386,390.9647712363867 L 196.4478540239863,377.2257044051313 L 210.1869208552417,382.6112647798389 Z" fill="none" stroke="#0F52BA" stroke-width="1.6251345282071896" /><path d="M 277.83481103659585,369.0881111948377 L 283.7416320987064,382.6112647798389 L 297.4806989299619,377.2257044051313 L 292.09513855525427,390.96477123638675 L 305.61829214025545,396.8715922984973 L 292.09513855525427,402.7784133606079 L 297.4806989299619,416.51748019186334 L 283.7416320987064,411.13191981715573 L 277.83481103659585,424.6550734021569 L 271.9279899744853,411.13191981715573 L 258.1889231432299,416.51748019186334 L 263.57448351793744,402.77841336060794 L 250.05132993293626,396.8715922984973 L 263.57448351793744,390.9647712363867 L 258.18892314322983,377.2257044051313 L 271.92798997448523,382.6112647798389 Z" fill="none" stroke="#0F52BA" stroke-width="1.6251345282071896" /><path d="M 339.57588015583934,369.0881111948377 L 345.4827012179499,382.6112647798389 L 359.22176804920537,377.2257044051313 L 353.83620767449776,390.96477123638675 L 367.35936125949894,396.8715922984973 L 353.83620767449776,402.7784133606079 L 359.22176804920537,416.51748019186334 L 345.4827012179499,411.13191981715573 L 339.57588015583934,424.6550734021569 L 333.6690590937288,411.13191981715573 L 319.9299922624733,416.51748019186334 L 325.31555263718093,402.77841336060794 L 311.79239905217975,396.8715922984973 L 325.31555263718093,390.9647712363867 L 319.9299922624733,377.2257044051313 L 333.6690590937287,382.6112647798389 Z" fill="none" stroke="#0F52BA" stroke-width="1.6251345282071896" /><path d="M 401.31694927508283,369.0881111948377 L 407.2237703371934,382.6112647798389 L 420.96283716844886,377.2257044051313 L 415.57727679374125,390.96477123638675 L 429.10043037874243,396.8715922984973 L 415.57727679374125,402.7784133606079 L 420.96283716844886,416.51748019186334 L 407.2237703371934,411.13191981715573 L 401.31694927508283,424.6550734021569 L 395.41012821297227,411.13191981715573 L 381.67106138171687,416.51748019186334 L 387.0566217564244,402.77841336060794 L 373.53346817142324,396.8715922984973 L 387.0566217564244,390.9647712363867 L 381.6710613817168,377.2257044051313 L 395.4101282129722,382.6112647798389 Z" fill="none" stroke="#0F52BA" stroke-width="1.6251345282071896" /><path d="M 463.0580183943264,369.0881111948377 L 468.96483945643695,382.6112647798389 L 482.7039062876924,377.2257044051313 L 477.3183459129848,390.96477123638675 L 490.841499497986,396.8715922984973 L 477.3183459129848,402.7784133606079 L 482.7039062876924,416.51748019186334 L 468.96483945643695,411.13191981715573 L 463.0580183943264,424.6550734021569 L 457.1511973322158,411.13191981715573 L 443.4121305009604,416.51748019186334 L 448.79769087566797,402.77841336060794 L 435.2745372906668,396.8715922984973 L 448.79769087566797,390.9647712363867 L 443.41213050096036,377.2257044051313 L 457.15119733221576,382.6112647798389 Z" fill="none" stroke="#0F52BA" stroke-width="1.6251345282071896" /><path d="M 524.7990875135699,369.0881111948377 L 530.7059085756805,382.6112647798389 L 544.4449754069359,377.2257044051313 L 539.0594150322283,390.96477123638675 L 552.5825686172295,396.8715922984973 L 539.0594150322283,402.7784133606079 L 544.4449754069359,416.51748019186334 L 530.7059085756805,411.13191981715573 L 524.7990875135699,424.6550734021569 L 518.8922664514594,411.13191981715573 L 505.15319962020396,416.51748019186334 L 510.5387599949115,402.77841336060794 L 497.01560640991033,396.8715922984973 L 510.5387599949115,390.9647712363867 L 505.1531996202039,377.2257044051313 L 518.8922664514594,382.6112647798389 Z" fill="none" stroke="#0F52BA" stroke-width="1.6251345282071896" /><path d="M 1.7012475601383842e-15,422.55587705210263 L 5.906821062110591,436.0790306371038 L 19.645887893365998,430.6934702623962 L 14.260327518658436,444.43253709365166 L 27.783481103659586,450.3393581557622 L 14.260327518658436,456.2461792178728 L 19.645887893365998,469.98524604912825 L 5.906821062110591,464.59968567442064 L 1.7012475601383842e-15,478.1228392594218 L -5.906821062110589,464.59968567442064 L -19.645887893365995,469.98524604912825 L -14.260327518658432,456.24617921787285 L -27.783481103659586,450.3393581557622 L -14.260327518658434,444.4325370936516 L -19.645887893366,430.6934702623962 L -5.906821062110598,436.0790306371038 Z" fill="none" stroke="#0F52BA" stroke-width="1.6251345282071896" /><path d="M 61.74106911924352,422.55587705210263 L 67.64789018135411,436.0790306371038 L 81.38695701260951,430.6934702623962 L 76.00139663790196,444.43253709365166 L 89.5245502229031,450.3393581557622 L 76.00139663790196,456.2461792178728 L 81.38695701260951,469.98524604912825 L 67.64789018135411,464.59968567442064 L 61.74106911924352,478.1228392594218 L 55.83424805713293,464.59968567442064 L 42.095181225877525,469.98524604912825 L 47.48074160058509,456.24617921787285 L 33.95758801558394,450.3393581557622 L 47.480741600585084,444.4325370936516 L 42.09518122587752,430.6934702623962 L 55.834248057132925,436.0790306371038 Z" fill="none" stroke="#0F52BA" stroke-width="1.6251345282071896" /><path d="M 123.48213823848704,422.55587705210263 L 129.38895930059763,436.0790306371038 L 143.12802613185303,430.6934702623962 L 137.74246575714548,444.43253709365166 L 151.26561934214664,450.3393581557622 L 137.74246575714548,456.2461792178728 L 143.12802613185303,469.98524604912825 L 129.38895930059763,464.59968567442064 L 123.48213823848704,478.1228392594218 L 117.57531717637644,464.59968567442064 L 103.83625034512104,469.98524604912825 L 109.22181071982861,456.24617921787285 L 95.69865713482746,450.3393581557622 L 109.22181071982861,444.4325370936516 L 103.83625034512104,430.6934702623962 L 117.57531717637644,436.0790306371038 Z" fill="none" stroke="#0F52BA" stroke-width="1.6251345282071896" /><path d="M 185.2232073577306,422.55587705210263 L 191.13002841984118,436.0790306371038 L 204.86909525109658,430.6934702623962 L 199.48353487638903,444.43253709365166 L 213.00668846139018,450.3393581557622 L 199.48353487638903,456.2461792178728 L 204.86909525109658,469.98524604912825 L 191.13002841984118,464.59968567442064 L 185.2232073577306,478.1228392594218 L 179.31638629562,464.59968567442064 L 165.5773194643646,469.98524604912825 L 170.96287983907214,456.24617921787285 L 157.439726254071,450.3393581557622 L 170.96287983907214,444.4325370936516 L 165.5773194643646,430.6934702623962 L 179.31638629562,436.0790306371038 Z" fill="none" stroke="#0F52BA" stroke-width="1.6251345282071896" /><path d="M 246.96427647697408,422.55587705210263 L 252.87109753908467,436.0790306371038 L 266.6101643703401,430.6934702623962 L 261.2246039956325,444.43253709365166 L 274.7477575806337,450.3393581557622 L 261.2246039956325,456.2461792178728 L 266.6101643703401,469.98524604912825 L 252.87109753908467,464.59968567442064 L 246.96427647697408,478.1228392594218 L 241.05745541486348,464.59968567442064 L 227.31838858360808,469.98524604912825 L 232.70394895831564,456.24617921787285 L 219.18079537331448,450.3393581557622 L 232.70394895831564,444.4325370936516 L 227.31838858360808,430.6934702623962 L 241.05745541486348,436.0790306371038 Z" fill="none" stroke="#0F52BA" stroke-width="1.6251345282071896" /><path d="M 308.7053455962176,422.55587705210263 L 314.6121666583282,436.0790306371038 L 328.35123348958365,430.6934702623962 L 322.96567311487604,444.43253709365166 L 336.4888266998772,450.3393581557622 L 322.96567311487604,456.2461792178728 L 328.35123348958365,469.98524604912825 L 314.6121666583282,464.59968567442064 L 308.7053455962176,478.1228392594218 L 302.79852453410706,464.59968567442064 L 289.05945770285166,469.98524604912825 L 294.4450180775592,456.24617921787285 L 280.92186449255803,450.3393581557622 L 294.4450180775592,444.4325370936516 L 289.0594577028516,430.6934702623962 L 302.798524534107,436.0790306371038 Z" fill="none" stroke="#0F52BA" stroke-width="1.6251345282071896" /><path d="M 370.4464147154611,422.55587705210263 L 376.3532357775717,436.0790306371038 L 390.09230260882714,430.6934702623962 L 384.70674223411953,444.43253709365166 L 398.2298958191207,450.3393581557622 L 384.70674223411953,456.2461792178728 L 390.09230260882714,469.98524604912825 L 376.3532357775717,464.59968567442064 L 370.4464147154611,478.1228392594218 L 364.53959365335055,464.59968567442064 L 350.8005268220951,469.98524604912825 L 356.1860871968027,456.24617921787285 L 342.6629336118015,450.3393581557622 L 356.1860871968027,444.4325370936516 L 350.8005268220951,430.6934702623962 L 364.5395936533505,436.0790306371038 Z" fill="none" stroke="#0F52BA" stroke-width="1.6251345282071896" /><path d="M 432.1874838347046,422.55587705210263 L 438.0943048968152,436.0790306371038 L 451.83337172807063,430.6934702623962 L 446.447811353363,444.43253709365166 L 459.9709649383642,450.3393581557622 L 446.447811353363,456.2461792178728 L 451.83337172807063,469.98524604912825 L 438.0943048968152,464.59968567442064 L 432.1874838347046,478.1228392594218 L 426.28066277259404,464.59968567442064 L 412.54159594133864,469.98524604912825 L 417.9271563160462,456.24617921787285 L 404.404002731045,450.3393581557622 L 417.9271563160462,444.4325370936516 L 412.5415959413386,430.6934702623962 L 426.280662772594,436.0790306371038 Z" fill="none" stroke="#0F52BA" stroke-width="1.6251345282071896" /><path d="M 493.92855295394816,422.55587705210263 L 499.8353740160587,436.0790306371038 L 513.5744408473141,430.6934702623962 L 508.18888047260657,444.43253709365166 L 521.7120340576078,450.3393581557622 L 508.18888047260657,456.2461792178728 L 513.5744408473141,469.98524604912825 L 499.8353740160587,464.59968567442064 L 493.92855295394816,478.1228392594218 L 488.0217318918376,464.59968567442064 L 474.2826650605822,469.98524604912825 L 479.66822543528974,456.24617921787285 L 466.14507185028856,450.3393581557622 L 479.66822543528974,444.4325370936516 L 474.28266506058213,430.6934702623962 L 488.02173189183753,436.0790306371038 Z" fill="none" stroke="#0F52BA" stroke-width="1.6251345282071896" /><path d="M 555.6696220731917,422.55587705210263 L 561.5764431353023,436.0790306371038 L 575.3155099665577,430.6934702623962 L 569.9299495918501,444.43253709365166 L 583.4531031768513,450.3393581557622 L 569.9299495918501,456.2461792178728 L 575.3155099665577,469.98524604912825 L 561.5764431353023,464.59968567442064 L 555.6696220731917,478.1228392594218 L 549.7628010110811,464.59968567442064 L 536.0237341798257,469.98524604912825 L 541.4092945545333,456.24617921787285 L 527.8861409695321,450.3393581557622 L 541.4092945545333,444.4325370936516 L 536.0237341798257,430.6934702623962 L 549.7628010110811,436.0790306371038 Z" fill="none" stroke="#0F52BA" stroke-width="1.6251345282071896" /><path d="M -30.87053455962176,476.0236429093676 L -24.96371349751117,489.5467964943688 L -11.224646666255762,484.1612361196612 L -16.610207040963324,497.9003029509166 L -3.087053455962174,503.8071240130272 L -16.610207040963324,509.71394507513776 L -11.224646666255762,523.4530119063932 L -24.96371349751117,518.0674515316856 L -30.87053455962176,531.5906051166868 L -36.77735562173235,518.0674515316856 L -50.516422452987754,523.4530119063932 L -45.13086207828019,509.7139450751378 L -58.65401566328134,503.8071240130272 L -45.130862078280195,497.9003029509166 L -50.51642245298776,484.1612361196612 L -36.777355621732355,489.5467964943688 Z" fill="none" stroke="#0F52BA" stroke-width="1.6251345282071896" /><path d="M 30.87053455962176,476.0236429093676 L 36.777355621732355,489.5467964943688 L 50.516422452987754,484.1612361196612 L 45.130862078280195,497.9003029509166 L 58.65401566328134,503.8071240130272 L 45.130862078280195,509.71394507513776 L 50.516422452987754,523.4530119063932 L 36.777355621732355,518.0674515316856 L 30.87053455962176,531.5906051166868 L 24.963713497511172,518.0674515316856 L 11.224646666255765,523.4530119063932 L 16.610207040963328,509.7139450751378 L 3.087053455962174,503.8071240130272 L 16.610207040963324,497.9003029509166 L 11.224646666255758,484.1612361196612 L 24.96371349751116,489.5467964943688 Z" fill="none" stroke="#0F52BA" stroke-width="1.6251345282071896" /><path d="M 92.61160367886528,476.0236429093676 L 98.51842474097587,489.5467964943688 L 112.25749157223127,484.1612361196612 L 106.87193119752371,497.9003029509166 L 120.39508478252486,503.8071240130272 L 106.87193119752371,509.71394507513776 L 112.25749157223127,523.4530119063932 L 98.51842474097587,518.0674515316856 L 92.61160367886528,531.5906051166868 L 86.70478261675468,518.0674515316856 L 72.96571578549928,523.4530119063932 L 78.35127616020685,509.7139450751378 L 64.8281225752057,503.8071240130272 L 78.35127616020685,497.9003029509166 L 72.96571578549927,484.1612361196612 L 86.70478261675468,489.5467964943688 Z" fill="none" stroke="#0F52BA" stroke-width="1.6251345282071896" /><path d="M 154.3526727981088,476.0236429093676 L 160.2594938602194,489.5467964943688 L 173.9985606914748,484.1612361196612 L 168.61300031676726,497.9003029509166 L 182.1361539017684,503.8071240130272 L 168.61300031676726,509.71394507513776 L 173.9985606914748,523.4530119063932 L 160.2594938602194,518.0674515316856 L 154.3526727981088,531.5906051166868 L 148.44585173599822,518.0674515316856 L 134.70678490474282,523.4530119063932 L 140.09234527945037,509.7139450751378 L 126.56919169444923,503.8071240130272 L 140.09234527945037,497.9003029509166 L 134.70678490474282,484.1612361196612 L 148.44585173599822,489.5467964943688 Z" fill="none" stroke="#0F52BA" stroke-width="1.6251345282071896" /><path d="M 216.0937419173523,476.0236429093676 L 222.0005629794629,489.5467964943688 L 235.7396298107183,484.1612361196612 L 230.35406943601075,497.9003029509166 L 243.8772230210119,503.8071240130272 L 230.35406943601075,509.71394507513776 L 235.7396298107183,523.4530119063932 L 222.0005629794629,518.0674515316856 L 216.0937419173523,531.5906051166868 L 210.1869208552417,518.0674515316856 L 196.4478540239863,523.4530119063932 L 201.83341439869386,509.7139450751378 L 188.3102608136927,503.8071240130272 L 201.83341439869386,497.9003029509166 L 196.4478540239863,484.1612361196612 L 210.1869208552417,489.5467964943688 Z" fill="none" stroke="#0F52BA" stroke-width="1.6251345282071896" /><path d="M 277.83481103659585,476.0236429093676 L 283.7416320987064,489.5467964943688 L 297.4806989299619,484.1612361196612 L 292.09513855525427,497.9003029509166 L 305.61829214025545,503.8071240130272 L 292.09513855525427,509.71394507513776 L 297.4806989299619,523.4530119063932 L 283.7416320987064,518.0674515316856 L 277.83481103659585,531.5906051166868 L 271.9279899744853,518.0674515316856 L 258.1889231432299,523.4530119063932 L 263.57448351793744,509.7139450751378 L 250.05132993293626,503.8071240130272 L 263.57448351793744,497.9003029509166 L 258.18892314322983,484.1612361196612 L 271.92798997448523,489.5467964943688 Z" fill="none" stroke="#0F52BA" stroke-width="1.6251345282071896" /><path d="M 339.57588015583934,476.0236429093676 L 345.4827012179499,489.5467964943688 L 359.22176804920537,484.1612361196612 L 353.83620767449776,497.9003029509166 L 367.35936125949894,503.8071240130272 L 353.83620767449776,509.71394507513776 L 359.22176804920537,523.4530119063932 L 345.4827012179499,518.0674515316856 L 339.57588015583934,531.5906051166868 L 333.6690590937288,518.0674515316856 L 319.9299922624733,523.4530119063932 L 325.31555263718093,509.7139450751378 L 311.79239905217975,503.8071240130272 L 325.31555263718093,497.9003029509166 L 319.9299922624733,484.1612361196612 L 333.6690590937287,489.5467964943688 Z" fill="none" stroke="#0F52BA" stroke-width="1.6251345282071896" /><path d="M 401.31694927508283,476.0236429093676 L 407.2237703371934,489.5467964943688 L 420.96283716844886,484.1612361196612 L 415.57727679374125,497.9003029509166 L 429.10043037874243,503.8071240130272 L 415.57727679374125,509.71394507513776 L 420.96283716844886,523.4530119063932 L 407.2237703371934,518.0674515316856 L 401.31694927508283,531.5906051166868 L 395.41012821297227,518.0674515316856 L 381.67106138171687,523.4530119063932 L 387.0566217564244,509.7139450751378 L 373.53346817142324,503.8071240130272 L 387.0566217564244,497.9003029509166 L 381.6710613817168,484.1612361196612 L 395.4101282129722,489.5467964943688 Z" fill="none" stroke="#0F52BA" stroke-width="1.6251345282071896" /><path d="M 463.0580183943264,476.0236429093676 L 468.96483945643695,489.5467964943688 L 482.7039062876924,484.1612361196612 L 477.3183459129848,497.9003029509166 L 490.841499497986,503.8071240130272 L 477.3183459129848,509.71394507513776 L 482.7039062876924,523.4530119063932 L 468.96483945643695,518.0674515316856 L 463.0580183943264,531.5906051166868 L 457.1511973322158,518.0674515316856 L 443.4121305009604,523.4530119063932 L 448.79769087566797,509.7139450751378 L 435.2745372906668,503.8071240130272 L 448.79769087566797,497.9003029509166 L 443.41213050096036,484.1612361196612 L 457.15119733221576,489.5467964943688 Z" fill="none" stroke="#0F52BA" stroke-width="1.6251345282071896" /><path d="M 524.7990875135699,476.0236429093676 L 530.7059085756805,489.5467964943688 L 544.4449754069359,484.1612361196612 L 539.0594150322283,497.9003029509166 L 552.5825686172295,503.8071240130272 L 539.0594150322283,509.71394507513776 L 544.4449754069359,523.4530119063932 L 530.7059085756805,518.0674515316856 L 524.7990875135699,531.5906051166868 L 518.8922664514594,518.0674515316856 L 505.15319962020396,523.4530119063932 L 510.5387599949115,509.7139450751378 L 497.01560640991033,503.8071240130272 L 510.5387599949115,497.9003029509166 L 505.1531996202039,484.1612361196612 L 518.8922664514594,489.5467964943688 Z" fill="none" stroke="#0F52BA" stroke-width="1.6251345282071896" /><line x1="27.783481103659586" y1="22.597231297643127" x2="33.95758801558394" y2="22.597231297643127" stroke="#0F52BA" stroke-width="0.5"/><line x1="89.5245502229031" y1="22.597231297643127" x2="95.69865713482746" y2="22.597231297643127" stroke="#0F52BA" stroke-width="0.5"/><line x1="151.26561934214664" y1="22.597231297643127" x2="157.439726254071" y2="22.597231297643127" stroke="#0F52BA" stroke-width="0.5"/><line x1="213.00668846139018" y1="22.597231297643127" x2="219.18079537331448" y2="22.597231297643127" stroke="#0F52BA" stroke-width="0.5"/><line x1="274.7477575806337" y1="22.597231297643127" x2="280.92186449255803" y2="22.597231297643127" stroke="#0F52BA" stroke-width="0.5"/><line x1="336.4888266998772" y1="22.597231297643127" x2="342.6629336118015" y2="22.597231297643127" stroke="#0F52BA" stroke-width="0.5"/><line x1="398.2298958191207" y1="22.597231297643127" x2="404.404002731045" y2="22.597231297643127" stroke="#0F52BA" stroke-width="0.5"/><line x1="459.9709649383642" y1="22.597231297643127" x2="466.14507185028856" y2="22.597231297643127" stroke="#0F52BA" stroke-width="0.5"/><line x1="58.65401566328134" y1="76.06499715490801" x2="64.8281225752057" y2="76.06499715490801" stroke="#0F52BA" stroke-width="0.5"/><line x1="120.39508478252486" y1="76.06499715490801" x2="126.56919169444923" y2="76.06499715490801" stroke="#0F52BA" stroke-width="0.5"/><line x1="182.1361539017684" y1="76.06499715490801" x2="188.3102608136927" y2="76.06499715490801" stroke="#0F52BA" stroke-width="0.5"/><line x1="243.8772230210119" y1="76.06499715490801" x2="250.05132993293626" y2="76.06499715490801" stroke="#0F52BA" stroke-width="0.5"/><line x1="305.61829214025545" y1="76.06499715490801" x2="311.79239905217975" y2="76.06499715490801" stroke="#0F52BA" stroke-width="0.5"/><line x1="367.35936125949894" y1="76.06499715490801" x2="373.53346817142324" y2="76.06499715490801" stroke="#0F52BA" stroke-width="0.5"/><line x1="429.10043037874243" y1="76.06499715490801" x2="435.2745372906668" y2="76.06499715490801" stroke="#0F52BA" stroke-width="0.5"/><line x1="490.841499497986" y1="76.06499715490801" x2="497.01560640991033" y2="76.06499715490801" stroke="#0F52BA" stroke-width="0.5"/><line x1="27.783481103659586" y1="129.5327630121729" x2="33.95758801558394" y2="129.5327630121729" stroke="#0F52BA" stroke-width="0.5"/><line x1="89.5245502229031" y1="129.5327630121729" x2="95.69865713482746" y2="129.5327630121729" stroke="#0F52BA" stroke-width="0.5"/><line x1="151.26561934214664" y1="129.5327630121729" x2="157.439726254071" y2="129.5327630121729" stroke="#0F52BA" stroke-width="0.5"/><line x1="213.00668846139018" y1="129.5327630121729" x2="219.18079537331448" y2="129.5327630121729" stroke="#0F52BA" stroke-width="0.5"/><line x1="274.7477575806337" y1="129.5327630121729" x2="280.92186449255803" y2="129.5327630121729" stroke="#0F52BA" stroke-width="0.5"/><line x1="336.4888266998772" y1="129.5327630121729" x2="342.6629336118015" y2="129.5327630121729" stroke="#0F52BA" stroke-width="0.5"/><line x1="398.2298958191207" y1="129.5327630121729" x2="404.404002731045" y2="129.5327630121729" stroke="#0F52BA" stroke-width="0.5"/><line x1="459.9709649383642" y1="129.5327630121729" x2="466.14507185028856" y2="129.5327630121729" stroke="#0F52BA" stroke-width="0.5"/><line x1="58.65401566328134" y1="183.0005288694378" x2="64.8281225752057" y2="183.0005288694378" stroke="#0F52BA" stroke-width="0.5"/><line x1="120.39508478252486" y1="183.0005288694378" x2="126.56919169444923" y2="183.0005288694378" stroke="#0F52BA" stroke-width="0.5"/><line x1="182.1361539017684" y1="183.0005288694378" x2="188.3102608136927" y2="183.0005288694378" stroke="#0F52BA" stroke-width="0.5"/><line x1="243.8772230210119" y1="183.0005288694378" x2="250.05132993293626" y2="183.0005288694378" stroke="#0F52BA" stroke-width="0.5"/><line x1="305.61829214025545" y1="183.0005288694378" x2="311.79239905217975" y2="183.0005288694378" stroke="#0F52BA" stroke-width="0.5"/><line x1="367.35936125949894" y1="183.0005288694378" x2="373.53346817142324" y2="183.0005288694378" stroke="#0F52BA" stroke-width="0.5"/><line x1="429.10043037874243" y1="183.0005288694378" x2="435.2745372906668" y2="183.0005288694378" stroke="#0F52BA" stroke-width="0.5"/><line x1="490.841499497986" y1="183.0005288694378" x2="497.01560640991033" y2="183.0005288694378" stroke="#0F52BA" stroke-width="0.5"/><line x1="27.783481103659586" y1="236.4682947267027" x2="33.95758801558394" y2="236.4682947267027" stroke="#0F52BA" stroke-width="0.5"/><line x1="89.5245502229031" y1="236.4682947267027" x2="95.69865713482746" y2="236.4682947267027" stroke="#0F52BA" stroke-width="0.5"/><line x1="151.26561934214664" y1="236.4682947267027" x2="157.439726254071" y2="236.4682947267027" stroke="#0F52BA" stroke-width="0.5"/><line x1="213.00668846139018" y1="236.4682947267027" x2="219.18079537331448" y2="236.4682947267027" stroke="#0F52BA" stroke-width="0.5"/><line x1="274.7477575806337" y1="236.4682947267027" x2="280.92186449255803" y2="236.4682947267027" stroke="#0F52BA" stroke-width="0.5"/><line x1="336.4888266998772" y1="236.4682947267027" x2="342.6629336118015" y2="236.4682947267027" stroke="#0F52BA" stroke-width="0.5"/><line x1="398.2298958191207" y1="236.4682947267027" x2="404.404002731045" y2="236.4682947267027" stroke="#0F52BA" stroke-width="0.5"/><line x1="459.9709649383642" y1="236.4682947267027" x2="466.14507185028856" y2="236.4682947267027" stroke="#0F52BA" stroke-width="0.5"/><line x1="58.65401566328134" y1="289.93606058396756" x2="64.8281225752057" y2="289.93606058396756" stroke="#0F52BA" stroke-width="0.5"/><line x1="120.39508478252486" y1="289.93606058396756" x2="126.56919169444923" y2="289.93606058396756" stroke="#0F52BA" stroke-width="0.5"/><line x1="182.1361539017684" y1="289.93606058396756" x2="188.3102608136927" y2="289.93606058396756" stroke="#0F52BA" stroke-width="0.5"/><line x1="243.8772230210119" y1="289.93606058396756" x2="250.05132993293626" y2="289.93606058396756" stroke="#0F52BA" stroke-width="0.5"/><line x1="305.61829214025545" y1="289.93606058396756" x2="311.79239905217975" y2="289.93606058396756" stroke="#0F52BA" stroke-width="0.5"/><line x1="367.35936125949894" y1="289.93606058396756" x2="373.53346817142324" y2="289.93606058396756" stroke="#0F52BA" stroke-width="0.5"/><line x1="429.10043037874243" y1="289.93606058396756" x2="435.2745372906668" y2="289.93606058396756" stroke="#0F52BA" stroke-width="0.5"/><line x1="490.841499497986" y1="289.93606058396756" x2="497.01560640991033" y2="289.93606058396756" stroke="#0F52BA" stroke-width="0.5"/><line x1="27.783481103659586" y1="343.4038264412324" x2="33.95758801558394" y2="343.4038264412324" stroke="#0F52BA" stroke-width="0.5"/><line x1="89.5245502229031" y1="343.4038264412324" x2="95.69865713482746" y2="343.4038264412324" stroke="#0F52BA" stroke-width="0.5"/><line x1="151.26561934214664" y1="343.4038264412324" x2="157.439726254071" y2="343.4038264412324" stroke="#0F52BA" stroke-width="0.5"/><line x1="213.00668846139018" y1="343.4038264412324" x2="219.18079537331448" y2="343.4038264412324" stroke="#0F52BA" stroke-width="0.5"/><line x1="274.7477575806337" y1="343.4038264412324" x2="280.92186449255803" y2="343.4038264412324" stroke="#0F52BA" stroke-width="0.5"/><line x1="336.4888266998772" y1="343.4038264412324" x2="342.6629336118015" y2="343.4038264412324" stroke="#0F52BA" stroke-width="0.5"/><line x1="398.2298958191207" y1="343.4038264412324" x2="404.404002731045" y2="343.4038264412324" stroke="#0F52BA" stroke-width="0.5"/><line x1="459.9709649383642" y1="343.4038264412324" x2="466.14507185028856" y2="343.4038264412324" stroke="#0F52BA" stroke-width="0.5"/><line x1="58.65401566328134" y1="396.8715922984973" x2="64.8281225752057" y2="396.8715922984973" stroke="#0F52BA" stroke-width="0.5"/><line x1="120.39508478252486" y1="396.8715922984973" x2="126.56919169444923" y2="396.8715922984973" stroke="#0F52BA" stroke-width="0.5"/><line x1="182.1361539017684" y1="396.8715922984973" x2="188.3102608136927" y2="396.8715922984973" stroke="#0F52BA" stroke-width="0.5"/><line x1="243.8772230210119" y1="396.8715922984973" x2="250.05132993293626" y2="396.8715922984973" stroke="#0F52BA" stroke-width="0.5"/><line x1="305.61829214025545" y1="396.8715922984973" x2="311.79239905217975" y2="396.8715922984973" stroke="#0F52BA" stroke-width="0.5"/><line x1="367.35936125949894" y1="396.8715922984973" x2="373.53346817142324" y2="396.8715922984973" stroke="#0F52BA" stroke-width="0.5"/><line x1="429.10043037874243" y1="396.8715922984973" x2="435.2745372906668" y2="396.8715922984973" stroke="#0F52BA" stroke-width="0.5"/><line x1="490.841499497986" y1="396.8715922984973" x2="497.01560640991033" y2="396.8715922984973" stroke="#0F52BA" stroke-width="0.5"/><line x1="27.783481103659586" y1="450.3393581557622" x2="33.95758801558394" y2="450.3393581557622" stroke="#0F52BA" stroke-width="0.5"/><line x1="89.5245502229031" y1="450.3393581557622" x2="95.69865713482746" y2="450.3393581557622" stroke="#0F52BA" stroke-width="0.5"/><line x1="151.26561934214664" y1="450.3393581557622" x2="157.439726254071" y2="450.3393581557622" stroke="#0F52BA" stroke-width="0.5"/><line x1="213.00668846139018" y1="450.3393581557622" x2="219.18079537331448" y2="450.3393581557622" stroke="#0F52BA" stroke-width="0.5"/><line x1="274.7477575806337" y1="450.3393581557622" x2="280.92186449255803" y2="450.3393581557622" stroke="#0F52BA" stroke-width="0.5"/><line x1="336.4888266998772" y1="450.3393581557622" x2="342.6629336118015" y2="450.3393581557622" stroke="#0F52BA" stroke-width="0.5"/><line x1="398.2298958191207" y1="450.3393581557622" x2="404.404002731045" y2="450.3393581557622" stroke="#0F52BA" stroke-width="0.5"/><line x1="459.9709649383642" y1="450.3393581557622" x2="466.14507185028856" y2="450.3393581557622" stroke="#0F52BA" stroke-width="0.5"/><line x1="58.65401566328134" y1="503.8071240130272" x2="64.8281225752057" y2="503.8071240130272" stroke="#0F52BA" stroke-width="0.5"/><line x1="120.39508478252486" y1="503.8071240130272" x2="126.56919169444923" y2="503.8071240130272" stroke="#0F52BA" stroke-width="0.5"/><line x1="182.1361539017684" y1="503.8071240130272" x2="188.3102608136927" y2="503.8071240130272" stroke="#0F52BA" stroke-width="0.5"/><line x1="243.8772230210119" y1="503.8071240130272" x2="250.05132993293626" y2="503.8071240130272" stroke="#0F52BA" stroke-width="0.5"/><line x1="305.61829214025545" y1="503.8071240130272" x2="311.79239905217975" y2="503.8071240130272" stroke="#0F52BA" stroke-width="0.5"/><line x1="367.35936125949894" y1="503.8071240130272" x2="373.53346817142324" y2="503.8071240130272" stroke="#0F52BA" stroke-width="0.5"/><line x1="429.10043037874243" y1="503.8071240130272" x2="435.2745372906668" y2="503.8071240130272" stroke="#0F52BA" stroke-width="0.5"/><line x1="490.841499497986" y1="503.8071240130272" x2="497.01560640991033" y2="503.8071240130272" stroke="#0F52BA" stroke-width="0.5"/></g></svg>