<svg xmlns="http://www.w3.org/2000/svg" width="512" height="512" viewBox="0 0 512 512"><rect x="0" y="0" width="512" height="512" fill="#050510"/><g opacity="0.06475031171680909"><path d="M -40.14450910721696,-76.27456730371223 L -32.463189839336266,-58.68885426065231 L -14.59669995181055,-65.69231826262336 L -21.60016395378161,-47.82582837509766 L -4.014450910721692,-40.14450910721696 L -21.60016395378161,-32.463189839336266 L -14.59669995181055,-14.596699951810557 L -32.463189839336266,-21.60016395378161 L -40.14450910721696,-4.014450910721692 L -47.82582837509766,-21.60016395378161 L -65.69231826262336,-14.59669995181055 L -58.688854260652306,-32.46318983933625 L -76.27456730371223,-40.144509107216955 L -58.688854260652306,-47.825828375097664 L -65.69231826262337,-65.69231826262336 L -47.82582837509767,-58.688854260652306 Z" fill="none" stroke="#0F52BA" stroke-width="1.5472890739549365" /><path d="M 40.14450910721696,-76.27456730371223 L 47.82582837509766,-58.68885426065231 L 65.69231826262337,-65.69231826262336 L 58.68885426065231,-47.82582837509766 L 76.27456730371223,-40.14450910721696 L 58.68885426065231,-32.463189839336266 L 65.69231826262337,-14.596699951810557 L 47.82582837509766,-21.60016395378161 L 40.14450910721696,-4.014450910721692 L 32.463189839336266,-21.60016395378161 L 14.596699951810557,-14.59669995181055 L 21.600163953781617,-32.46318983933625 L 4.014450910721692,-40.144509107216955 L 21.600163953781614,-47.825828375097664 L 14.596699951810546,-65.69231826262336 L 32.46318983933625,-58.688854260652306 Z" fill="none" stroke="#0F52BA" stroke-width="1.5472890739549365" /><path d="M 120.43352732165089,-76.27456730371223 L 128.1148465895316,-58.68885426065231 L 145.9813364770573,-65.69231826262336 L 138.97787247508623,-47.82582837509766 L 156.56358551814617,-40.14450910721696 L 138.97787247508623,-32.463189839336266 L 145.9813364770573,-14.596699951810557 L 128.1148465895316,-21.60016395378161 L 120.43352732165089,-4.014450910721692 L 112.75220805377019,-21.60016395378161 L 94.88571816624449,-14.59669995181055 L 101.88918216821554,-32.46318983933625 L 84.30346912515562,-40.144509107216955 L 101.88918216821554,-47.825828375097664 L 94.88571816624447,-65.69231826262336 L 112.75220805377018,-58.688854260652306 Z" fill="none" stroke="#0F52BA" stroke-width="1.5472890739549365" /><path d="M 200.7225455360848,-76.27456730371223 L 208.4038648039655,-58.68885426065231 L 226.2703546914912,-65.69231826262336 L 219.26689068952015,-47.82582837509766 L 236.85260373258006,-40.14450910721696 L 219.26689068952015,-32.463189839336266 L 226.2703546914912,-14.596699951810557 L 208.4038648039655,-21.60016395378161 L 200.7225455360848,-4.014450910721692 L 193.0412262682041,-21.60016395378161 L 175.17473638067838,-14.59669995181055 L 182.17820038264944,-32.46318983933625 L 164.59248733958952,-40.144509107216955 L 182.17820038264944,-47.825828375097664 L 175.17473638067838,-65.69231826262336 L 193.0412262682041,-58.688854260652306 Z" fill="none" stroke="#0F52BA" stroke-width="1.5472890739549365" /><path d="M 281.01156375051875,-76.27456730371223 L 288.69288301839947,-58.68885426065231 L 306.55937290592516,-65.69231826262336 L 299.5559089039541,-47.82582837509766 L 317.141621947014,-40.14450910721696 L 299.5559089039541,-32.463189839336266 L 306.55937290592516,-14.596699951810557 L 288.69288301839947,-21.60016395378161 L 281.01156375051875,-4.014450910721692 L 273.330244482638,-21.60016395378161 L 255.46375459511233,-14.59669995181055 L 262.4672185970834,-32.46318983933625 L 244.88150555402348,-40.144509107216955 L 262.4672185970834,-47.825828375097664 L 255.46375459511233,-65.69231826262336 L 273.330244482638,-58.688854260652306 Z" fill="none" stroke="#0F52BA" stroke-width="1.5472890739549365" /><path d="M 361.30058196495264,-76.27456730371223 L 368.98190123283337,-58.68885426065231 L 386.84839112035905,-65.69231826262336 L 379.844927118388,-47.82582837509766 L 397.4306401614479,-40.14450910721696 L 379.844927118388,-32.463189839336266 L 386.84839112035905,-14.596699951810557 L 368.98190123283337,-21.60016395378161 L 361.30058196495264,-4.014450910721692 L 353.6192626970719,-21.60016395378161 L 335.75277280954623,-14.59669995181055 L 342.7562368115173,-32.46318983933625 L 325.1705237684574,-40.144509107216955 L 342.7562368115173,-47.825828375097664 L 335.75277280954623,-65.69231826262336 L 353.6192626970719,-58.688854260652306 Z" fill="none" stroke="#0F52BA" stroke-width="1.5472890739549365" /><path d="M 441.5896001793866,-76.27456730371223 L 449.2709194472673,-58.68885426065231 L 467.137409334793,-65.69231826262336 L 460.13394533282195,-47.82582837509766 L 477.71965837588186,-40.14450910721696 L 460.13394533282195,-32.463189839336266 L 467.137409334793,-14.596699951810557 L 449.2709194472673,-21.60016395378161 L 441.5896001793866,-4.014450910721692 L 433.9082809115059,-21.60016395378161 L 416.0417910239802,-14.59669995181055 L 423.04525502595123,-32.46318983933625 L 405.4595419828913,-40.144509107216955 L 423.04525502595123,-47.825828375097664 L 416.0417910239802,-65.69231826262336 L 433.90828091150587,-58.688854260652306 Z" fill="none" stroke="#0F52BA" stroke-width="1.5472890739549365" /><path d="M 521.8786183938205,-76.27456730371223 L 529.5599376617012,-58.68885426065231 L 547.4264275492269,-65.69231826262336 L 540.4229635472558,-47.82582837509766 L 558.0086765903158,-40.14450910721696 L 540.4229635472558,-32.463189839336266 L 547.4264275492269,-14.596699951810557 L 529.5599376617012,-21.60016395378161 L 521.8786183938205,-4.014450910721692 L 514.1972991259398,-21.60016395378161 L 496.3308092384141,-14.59669995181055 L 503.33427324038513,-32.46318983933625 L 485.7485601973252,-40.144509107216955 L 503.33427324038513,-47.825828375097664 L 496.3308092384141,-65.69231826262336 L 514.1972991259398,-58.688854260652306 Z" fill="none" stroke="#0F52BA" stroke-width="1.5472890739549365" /><path d="M 2.212328006167276e-15,-6.744277530012454 L 7.681319267880697,10.841435513047465 L 25.547809155406412,3.837971511076411 L 18.54434515343535,21.70446139860212 L 36.13005819649527,29.385780666482816 L 18.54434515343535,37.06709993436351 L 25.547809155406412,54.93358982188922 L 7.681319267880697,47.93012581991817 L 2.212328006167276e-15,65.51583886297809 L -7.681319267880696,47.93012581991817 L -25.547809155406405,54.93358982188923 L -18.544345153435344,37.067099934363526 L -36.13005819649527,29.38578066648282 L -18.544345153435348,21.704461398602113 L -25.547809155406416,3.837971511076411 L -7.681319267880707,10.841435513047472 Z" fill="none" stroke="#0F52BA" stroke-width="1.5472890739549365" /><path d="M 80.28901821443392,-6.744277530012454 L 87.97033748231462,10.841435513047465 L 105.83682736984034,3.837971511076411 L 98.83336336786928,21.70446139860212 L 116.4190764109292,29.385780666482816 L 98.83336336786928,37.06709993436351 L 105.83682736984034,54.93358982188922 L 87.97033748231462,47.93012581991817 L 80.28901821443392,65.51583886297809 L 72.60769894655323,47.93012581991817 L 54.74120905902752,54.93358982188923 L 61.74467306099858,37.067099934363526 L 44.158960017938654,29.38578066648282 L 61.74467306099858,21.704461398602113 L 54.74120905902751,3.837971511076411 L 72.60769894655321,10.841435513047472 Z" fill="none" stroke="#0F52BA" stroke-width="1.5472890739549365" /><path d="M 160.57803642886785,-6.744277530012454 L 168.25935569674854,10.841435513047465 L 186.12584558427426,3.837971511076411 L 179.1223815823032,21.70446139860212 L 196.70809462536312,29.385780666482816 L 179.1223815823032,37.06709993436351 L 186.12584558427426,54.93358982188922 L 168.25935569674854,47.93012581991817 L 160.57803642886785,65.51583886297809 L 152.89671716098715,47.93012581991817 L 135.03022727346143,54.93358982188923 L 142.0336912754325,37.067099934363526 L 124.44797823237258,29.38578066648282 L 142.0336912754325,21.704461398602113 L 135.03022727346143,3.837971511076411 L 152.89671716098715,10.841435513047472 Z" fill="none" stroke="#0F52BA" stroke-width="1.5472890739549365" /><path d="M 240.86705464330174,-6.744277530012454 L 248.54837391118244,10.841435513047465 L 266.41486379870815,3.837971511076411 L 259.4113997967371,21.70446139860212 L 276.997112839797,29.385780666482816 L 259.4113997967371,37.06709993436351 L 266.41486379870815,54.93358982188922 L 248.54837391118244,47.93012581991817 L 240.86705464330174,65.51583886297809 L 233.18573537542105,47.93012581991817 L 215.31924548789533,54.93358982188923 L 222.32270948986638,37.067099934363526 L 204.73699644680647,29.38578066648282 L 222.32270948986638,21.704461398602113 L 215.31924548789533,3.837971511076411 L 233.18573537542105,10.841435513047472 Z" fill="none" stroke="#0F52BA" stroke-width="1.5472890739549365" /><path d="M 321.1560728577357,-6.744277530012454 L 328.8373921256164,10.841435513047465 L 346.7038820131421,3.837971511076411 L 339.70041801117105,21.70446139860212 L 357.28613105423096,29.385780666482816 L 339.70041801117105,37.06709993436351 L 346.7038820131421,54.93358982188922 L 328.8373921256164,47.93012581991817 L 321.1560728577357,65.51583886297809 L 313.474753589855,47.93012581991817 L 295.6082637023293,54.93358982188923 L 302.61172770430034,37.067099934363526 L 285.0260146612404,29.38578066648282 L 302.61172770430034,21.704461398602113 L 295.6082637023293,3.837971511076411 L 313.47475358985497,10.841435513047472 Z" fill="none" stroke="#0F52BA" stroke-width="1.5472890739549365" /><path d="M 401.4450910721696,-6.744277530012454 L 409.1264103400503,10.841435513047465 L 426.992900227576,3.837971511076411 L 419.98943622560495,21.70446139860212 L 437.57514926866486,29.385780666482816 L 419.98943622560495,37.06709993436351 L 426.992900227576,54.93358982188922 L 409.1264103400503,47.93012581991817 L 401.4450910721696,65.51583886297809 L 393.7637718042889,47.93012581991817 L 375.8972819167632,54.93358982188923 L 382.90074591873423,37.067099934363526 L 365.3150328756743,29.38578066648282 L 382.90074591873423,21.704461398602113 L 375.8972819167632,3.837971511076411 L 393.76377180428887,10.841435513047472 Z" fill="none" stroke="#0F52BA" stroke-width="1.5472890739549365" /><path d="M 481.73410928660354,-6.744277530012454 L 489.41542855448427,10.841435513047465 L 507.28191844200995,3.837971511076411 L 500.2784544400389,21.70446139860212 L 517.8641674830988,29.385780666482816 L 500.2784544400389,37.06709993436351 L 507.28191844200995,54.93358982188922 L 489.41542855448427,47.93012581991817 L 481.73410928660354,65.51583886297809 L 474.0527900187228,47.93012581991817 L 456.18630013119713,54.93358982188923 L 463.1897641331682,37.067099934363526 L 445.60405109010827,29.38578066648282 L 463.1897641331682,21.704461398602113 L 456.18630013119713,3.837971511076411 L 474.0527900187228,10.841435513047472 Z" fill="none" stroke="#0F52BA" stroke-width="1.5472890739549365" /><path d="M 562.0231275010375,-6.744277530012454 L 569.7044467689182,10.841435513047465 L 587.5709366564439,3.837971511076411 L 580.5674726544728,21.70446139860212 L 598.1531856975328,29.385780666482816 L 580.5674726544728,37.06709993436351 L 587.5709366564439,54.93358982188922 L 569.7044467689182,47.93012581991817 L 562.0231275010375,65.51583886297809 L 554.3418082331568,47.93012581991817 L 536.4753183456311,54.93358982188923 L 543.4787823476022,37.067099934363526 L 525.8930693045422,29.38578066648282 L 543.4787823476022,21.704461398602113 L 536.4753183456311,3.837971511076411 L 554.3418082331568,10.841435513047472 Z" fill="none" stroke="#0F52BA" stroke-width="1.5472890739549365" /><path d="M -40.14450910721696,62.786012243687324 L -32.463189839336266,80.37172528674725 L -14.59669995181055,73.3682612847762 L -21.60016395378161,91.2347511723019 L -4.014450910721692,98.9160704401826 L -21.60016395378161,106.59738970806329 L -14.59669995181055,124.46387959558899 L -32.463189839336266,117.46041559361794 L -40.14450910721696,135.04612863667785 L -47.82582837509766,117.46041559361794 L -65.69231826262336,124.463879595589 L -58.688854260652306,106.5973897080633 L -76.27456730371223,98.9160704401826 L -58.688854260652306,91.2347511723019 L -65.69231826262337,73.3682612847762 L -47.82582837509767,80.37172528674725 Z" fill="none" stroke="#0F52BA" stroke-width="1.5472890739549365" /><path d="M 40.14450910721696,62.786012243687324 L 47.82582837509766,80.37172528674725 L 65.69231826262337,73.3682612847762 L 58.68885426065231,91.2347511723019 L 76.27456730371223,98.9160704401826 L 58.68885426065231,106.59738970806329 L 65.69231826262337,124.46387959558899 L 47.82582837509766,117.46041559361794 L 40.14450910721696,135.04612863667785 L 32.463189839336266,117.46041559361794 L 14.596699951810557,124.463879595589 L 21.600163953781617,106.5973897080633 L 4.014450910721692,98.9160704401826 L 21.600163953781614,91.2347511723019 L 14.596699951810546,73.3682612847762 L 32.46318983933625,80.37172528674725 Z" fill="none" stroke="#0F52BA" stroke-width="1.5472890739549365" /><path d="M 120.43352732165089,62.786012243687324 L 128.1148465895316,80.37172528674725 L 145.9813364770573,73.3682612847762 L 138.97787247508623,91.2347511723019 L 156.56358551814617,98.9160704401826 L 138.97787247508623,106.59738970806329 L 145.9813364770573,124.46387959558899 L 128.1148465895316,117.46041559361794 L 120.43352732165089,135.04612863667785 L 112.75220805377019,117.46041559361794 L 94.88571816624449,124.463879595589 L 101.88918216821554,106.5973897080633 L 84.30346912515562,98.9160704401826 L 101.88918216821554,91.2347511723019 L 94.88571816624447,73.3682612847762 L 112.75220805377018,80.37172528674725 Z" fill="none" stroke="#0F52BA" stroke-width="1.5472890739549365" /><path d="M 200.7225455360848,62.786012243687324 L 208.4038648039655,80.37172528674725 L 226.2703546914912,73.3682612847762 L 219.26689068952015,91.2347511723019 L 236.85260373258006,98.9160704401826 L 219.26689068952015,106.59738970806329 L 226.2703546914912,124.46387959558899 L 208.4038648039655,117.46041559361794 L 200.7225455360848,135.04612863667785 L 193.0412262682041,117.46041559361794 L 175.17473638067838,124.463879595589 L 182.17820038264944,106.5973897080633 L 164.59248733958952,98.9160704401826 L 182.17820038264944,91.2347511723019 L 175.17473638067838,73.3682612847762 L 193.0412262682041,80.37172528674725 Z" fill="none" stroke="#0F52BA" stroke-width="1.5472890739549365" /><path d="M 281.01156375051875,62.786012243687324 L 288.69288301839947,80.37172528674725 L 306.55937290592516,73.3682612847762 L 299.5559089039541,91.2347511723019 L 317.141621947014,98.9160704401826 L 299.5559089039541,106.59738970806329 L 306.55937290592516,124.46387959558899 L 288.69288301839947,117.46041559361794 L 281.01156375051875,135.04612863667785 L 273.330244482638,117.46041559361794 L 255.46375459511233,124.463879595589 L 262.4672185970834,106.5973897080633 L 244.88150555402348,98.9160704401826 L 262.4672185970834,91.2347511723019 L 255.46375459511233,73.3682612847762 L 273.330244482638,80.37172528674725 Z" fill="none" stroke="#0F52BA" stroke-width="1.5472890739549365" /><path d="M 361.30058196495264,62.786012243687324 L 368.98190123283337,80.37172528674725 L 386.84839112035905,73.3682612847762 L 379.844927118388,91.2347511723019 L 397.4306401614479,98.9160704401826 L 379.844927118388,106.59738970806329 L 386.84839112035905,124.46387959558899 L 368.98190123283337,117.46041559361794 L 361.30058196495264,135.04612863667785 L 353.6192626970719,117.46041559361794 L 335.75277280954623,124.463879595589 L 342.7562368115173,106.5973897080633 L 325.1705237684574,98.9160704401826 L 342.7562368115173,91.2347511723019 L 335.75277280954623,73.3682612847762 L 353.6192626970719,80.37172528674725 Z" fill="none" stroke="#0F52BA" stroke-width="1.5472890739549365" /><path d="M 441.5896001793866,62.786012243687324 L 449.2709194472673,80.37172528674725 L 467.137409334793,73.3682612847762 L 460.13394533282195,91.2347511723019 L 477.71965837588186,98.9160704401826 L 460.13394533282195,106.59738970806329 L 467.137409334793,124.46387959558899 L 449.2709194472673,117.46041559361794 L 441.5896001793866,135.04612863667785 L 433.9082809115059,117.46041559361794 L 416.0417910239802,124.463879595589 L 423.04525502595123,106.5973897080633 L 405.4595419828913,98.9160704401826 L 423.04525502595123,91.2347511723019 L 416.0417910239802,73.3682612847762 L 433.90828091150587,80.37172528674725 Z" fill="none" stroke="#0F52BA" stroke-width="1.5472890739549365" /><path d="M 521.8786183938205,62.786012243687324 L 529.5599376617012,80.37172528674725 L 547.4264275492269,73.3682612847762 L 540.4229635472558,91.2347511723019 L 558.0086765903158,98.9160704401826 L 540.4229635472558,106.59738970806329 L 547.4264275492269,124.46387959558899 L 529.5599376617012,117.46041559361794 L 521.8786183938205,135.04612863667785 L 514.1972991259398,117.46041559361794 L 496.3308092384141,124.463879595589 L 503.33427324038513,106.5973897080633 L 485.7485601973252,98.9160704401826 L 503.33427324038513,91.2347511723019 L 496.3308092384141,73.3682612847762 L 514.1972991259398,80.37172528674725 Z" fill="none" stroke="#0F52BA" stroke-width="1.5472890739549365" /><path d="M 2.212328006167276e-15,132.3163020173871 L 7.681319267880697,149.902015060447 L 25.547809155406412,142.89855105847596 L 18.54434515343535,160.76504094600168 L 36.13005819649527,168.44636021388237 L 18.54434515343535,176.12767948176307 L 25.547809155406412,193.99416936928878 L 7.681319267880697,186.99070536731773 L 2.212328006167276e-15,204.57641841037764 L -7.681319267880696,186.99070536731773 L -25.547809155406405,193.99416936928878 L -18.544345153435344,176.12767948176307 L -36.13005819649527,168.44636021388237 L -18.544345153435348,160.76504094600168 L -25.547809155406416,142.89855105847596 L -7.681319267880707,149.902015060447 Z" fill="none" stroke="#0F52BA" stroke-width="1.5472890739549365" /><path d="M 80.28901821443392,132.3163020173871 L 87.97033748231462,149.902015060447 L 105.83682736984034,142.89855105847596 L 98.83336336786928,160.76504094600168 L 116.4190764109292,168.44636021388237 L 98.83336336786928,176.12767948176307 L 105.83682736984034,193.99416936928878 L 87.97033748231462,186.99070536731773 L 80.28901821443392,204.57641841037764 L 72.60769894655323,186.99070536731773 L 54.74120905902752,193.99416936928878 L 61.74467306099858,176.12767948176307 L 44.158960017938654,168.44636021388237 L 61.74467306099858,160.76504094600168 L 54.74120905902751,142.89855105847596 L 72.60769894655321,149.902015060447 Z" fill="none" stroke="#0F52BA" stroke-width="1.5472890739549365" /><path d="M 160.57803642886785,132.3163020173871 L 168.25935569674854,149.902015060447 L 186.12584558427426,142.89855105847596 L 179.1223815823032,160.76504094600168 L 196.70809462536312,168.44636021388237 L 179.1223815823032,176.12767948176307 L 186.12584558427426,193.99416936928878 L 168.25935569674854,186.99070536731773 L 160.57803642886785,204.57641841037764 L 152.89671716098715,186.99070536731773 L 135.03022727346143,193.99416936928878 L 142.0336912754325,176.12767948176307 L 124.44797823237258,168.44636021388237 L 142.0336912754325,160.76504094600168 L 135.03022727346143,142.89855105847596 L 152.89671716098715,149.902015060447 Z" fill="none" stroke="#0F52BA" stroke-width="1.5472890739549365" /><path d="M 240.86705464330174,132.3163020173871 L 248.54837391118244,149.902015060447 L 266.41486379870815,142.89855105847596 L 259.4113997967371,160.76504094600168 L 276.997112839797,168.44636021388237 L 259.4113997967371,176.12767948176307 L 266.41486379870815,193.99416936928878 L 248.54837391118244,186.99070536731773 L 240.86705464330174,204.57641841037764 L 233.18573537542105,186.99070536731773 L 215.31924548789533,193.99416936928878 L 222.32270948986638,176.12767948176307 L 204.73699644680647,168.44636021388237 L 222.32270948986638,160.76504094600168 L 215.31924548789533,142.89855105847596 L 233.18573537542105,149.902015060447 Z" fill="none" stroke="#0F52BA" stroke-width="1.5472890739549365" /><path d="M 321.1560728577357,132.3163020173871 L 328.8373921256164,149.902015060447 L 346.7038820131421,142.89855105847596 L 339.70041801117105,160.76504094600168 L 357.28613105423096,168.44636021388237 L 339.70041801117105,176.12767948176307 L 346.7038820131421,193.99416936928878 L 328.8373921256164,186.99070536731773 L 321.1560728577357,204.57641841037764 L 313.474753589855,186.99070536731773 L 295.6082637023293,193.99416936928878 L 302.61172770430034,176.12767948176307 L 285.0260146612404,168.44636021388237 L 302.61172770430034,160.76504094600168 L 295.6082637023293,142.89855105847596 L 313.47475358985497,149.902015060447 Z" fill="none" stroke="#0F52BA" stroke-width="1.5472890739549365" /><path d="M 401.4450910721696,132.3163020173871 L 409.1264103400503,149.902015060447 L 426.992900227576,142.89855105847596 L 419.98943622560495,160.76504094600168 L 437.57514926866486,168.44636021388237 L 419.98943622560495,176.12767948176307 L 426.992900227576,193.99416936928878 L 409.1264103400503,186.99070536731773 L 401.4450910721696,204.57641841037764 L 393.7637718042889,186.99070536731773 L 375.8972819167632,193.99416936928878 L 382.90074591873423,176.12767948176307 L 365.3150328756743,168.44636021388237 L 382.90074591873423,160.76504094600168 L 375.8972819167632,142.89855105847596 L 393.76377180428887,149.902015060447 Z" fill="none" stroke="#0F52BA" stroke-width="1.5472890739549365" /><path d="M 481.73410928660354,132.3163020173871 L 489.41542855448427,149.902015060447 L 507.28191844200995,142.89855105847596 L 500.2784544400389,160.76504094600168 L 517.8641674830988,168.44636021388237 L 500.2784544400389,176.12767948176307 L 507.28191844200995,193.99416936928878 L 489.41542855448427,186.99070536731773 L 481.73410928660354,204.57641841037764 L 474.0527900187228,186.99070536731773 L 456.18630013119713,193.99416936928878 L 463.1897641331682,176.12767948176307 L 445.60405109010827,168.44636021388237 L 463.1897641331682,160.76504094600168 L 456.18630013119713,142.89855105847596 L 474.0527900187228,149.902015060447 Z" fill="none" stroke="#0F52BA" stroke-width="1.5472890739549365" /><path d="M 562.0231275010375,132.3163020173871 L 569.7044467689182,149.902015060447 L 587.5709366564439,142.89855105847596 L 580.5674726544728,160.76504094600168 L 598.1531856975328,168.44636021388237 L 580.5674726544728,176.12767948176307 L 587.5709366564439,193.99416936928878 L 569.7044467689182,186.99070536731773 L 562.0231275010375,204.57641841037764 L 554.3418082331568,186.99070536731773 L 536.4753183456311,193.99416936928878 L 543.4787823476022,176.12767948176307 L 525.8930693045422,168.44636021388237 L 543.4787823476022,160.76504094600168 L 536.4753183456311,142.89855105847596 L 554.3418082331568,149.902015060447 Z" fill="none" stroke="#0F52BA" stroke-width="1.5472890739549365" /><path d="M -40.14450910721696,201.8465917910869 L -32.463189839336266,219.4323048341468 L -14.59669995181055,212.42884083217575 L -21.60016395378161,230.29533071970147 L -4.014450910721692,237.97664998758216 L -21.60016395378161,245.65796925546286 L -14.59669995181055,263.5244591429886 L -32.463189839336266,256.5209951410175 L -40.14450910721696,274.10670818407743 L -47.82582837509766,256.5209951410175 L -65.69231826262336,263.5244591429886 L -58.688854260652306,245.65796925546286 L -76.27456730371223,237.97664998758216 L -58.688854260652306,230.29533071970147 L -65.69231826262337,212.42884083217575 L -47.82582837509767,219.4323048341468 Z" fill="none" stroke="#0F52BA" stroke-width="1.5472890739549365" /><path d="M 40.14450910721696,201.8465917910869 L 47.82582837509766,219.4323048341468 L 65.69231826262337,212.42884083217575 L 58.68885426065231,230.29533071970147 L 76.27456730371223,237.97664998758216 L 58.68885426065231,245.65796925546286 L 65.69231826262337,263.5244591429886 L 47.82582837509766,256.5209951410175 L 40.14450910721696,274.10670818407743 L 32.463189839336266,256.5209951410175 L 14.596699951810557,263.5244591429886 L 21.600163953781617,245.65796925546286 L 4.014450910721692,237.97664998758216 L 21.600163953781614,230.29533071970147 L 14.596699951810546,212.42884083217575 L 32.46318983933625,219.4323048341468 Z" fill="none" stroke="#0F52BA" stroke-width="1.5472890739549365" /><path d="M 120.43352732165089,201.8465917910869 L 128.1148465895316,219.4323048341468 L 145.9813364770573,212.42884083217575 L 138.97787247508623,230.29533071970147 L 156.56358551814617,237.97664998758216 L 138.97787247508623,245.65796925546286 L 145.9813364770573,263.5244591429886 L 128.1148465895316,256.5209951410175 L 120.43352732165089,274.10670818407743 L 112.75220805377019,256.5209951410175 L 94.88571816624449,263.5244591429886 L 101.88918216821554,245.65796925546286 L 84.30346912515562,237.97664998758216 L 101.88918216821554,230.29533071970147 L 94.88571816624447,212.42884083217575 L 112.75220805377018,219.4323048341468 Z" fill="none" stroke="#0F52BA" stroke-width="1.5472890739549365" /><path d="M 200.7225455360848,201.8465917910869 L 208.4038648039655,219.4323048341468 L 226.2703546914912,212.42884083217575 L 219.26689068952015,230.29533071970147 L 236.85260373258006,237.97664998758216 L 219.26689068952015,245.65796925546286 L 226.2703546914912,263.5244591429886 L 208.4038648039655,256.5209951410175 L 200.7225455360848,274.10670818407743 L 193.0412262682041,256.5209951410175 L 175.17473638067838,263.5244591429886 L 182.17820038264944,245.65796925546286 L 164.59248733958952,237.97664998758216 L 182.17820038264944,230.29533071970147 L 175.17473638067838,212.42884083217575 L 193.0412262682041,219.4323048341468 Z" fill="none" stroke="#0F52BA" stroke-width="1.5472890739549365" /><path d="M 281.01156375051875,201.8465917910869 L 288.69288301839947,219.4323048341468 L 306.55937290592516,212.42884083217575 L 299.5559089039541,230.29533071970147 L 317.141621947014,237.97664998758216 L 299.5559089039541,245.65796925546286 L 306.55937290592516,263.5244591429886 L 288.69288301839947,256.5209951410175 L 281.01156375051875,274.10670818407743 L 273.330244482638,256.5209951410175 L 255.46375459511233,263.5244591429886 L 262.4672185970834,245.65796925546286 L 244.88150555402348,237.97664998758216 L 262.4672185970834,230.29533071970147 L 255.46375459511233,212.42884083217575 L 273.330244482638,219.4323048341468 Z" fill="none" stroke="#0F52BA" stroke-width="1.5472890739549365" /><path d="M 361.30058196495264,201.8465917910869 L 368.98190123283337,219.4323048341468 L 386.84839112035905,212.42884083217575 L 379.844927118388,230.29533071970147 L 397.4306401614479,237.97664998758216 L 379.844927118388,245.65796925546286 L 386.84839112035905,263.5244591429886 L 368.98190123283337,256.5209951410175 L 361.30058196495264,274.10670818407743 L 353.6192626970719,256.5209951410175 L 335.75277280954623,263.5244591429886 L 342.7562368115173,245.65796925546286 L 325.1705237684574,237.97664998758216 L 342.7562368115173,230.29533071970147 L 335.75277280954623,212.42884083217575 L 353.6192626970719,219.4323048341468 Z" fill="none" stroke="#0F52BA" stroke-width="1.5472890739549365" /><path d="M 441.5896001793866,201.8465917910869 L 449.2709194472673,219.4323048341468 L 467.137409334793,212.42884083217575 L 460.13394533282195,230.29533071970147 L 477.71965837588186,237.97664998758216 L 460.13394533282195,245.65796925546286 L 467.137409334793,263.5244591429886 L 449.2709194472673,256.5209951410175 L 441.5896001793866,274.10670818407743 L 433.9082809115059,256.5209951410175 L 416.0417910239802,263.5244591429886 L 423.04525502595123,245.65796925546286 L 405.4595419828913,237.97664998758216 L 423.04525502595123,230.29533071970147 L 416.0417910239802,212.42884083217575 L 433.90828091150587,219.4323048341468 Z" fill="none" stroke="#0F52BA" stroke-width="1.5472890739549365" /><path d="M 521.8786183938205,201.8465917910869 L 529.5599376617012,219.4323048341468 L 547.4264275492269,212.42884083217575 L 540.4229635472558,230.29533071970147 L 558.0086765903158,237.97664998758216 L 540.4229635472558,245.65796925546286 L 547.4264275492269,263.5244591429886 L 529.5599376617012,256.5209951410175 L 521.8786183938205,274.10670818407743 L 514.1972991259398,256.5209951410175 L 496.3308092384141,263.5244591429886 L 503.33427324038513,245.65796925546286 L 485.7485601973252,237.97664998758216 L 503.33427324038513,230.29533071970147 L 496.3308092384141,212.42884083217575 L 514.1972991259398,219.4323048341468 Z" fill="none" stroke="#0F52BA" stroke-width="1.5472890739549365" /><path d="M 2.212328006167276e-15,271.37688156478663 L 7.681319267880697,288.96259460784654 L 25.547809155406412,281.9591306058755 L 18.54434515343535,299.8256204934012 L 36.13005819649527,307.5069397612819 L 18.54434515343535,315.1882590291626 L 25.547809155406412,333.0547489166883 L 7.681319267880697,326.05128491471726 L 2.212328006167276e-15,343.63699795777717 L -7.681319267880696,326.05128491471726 L -25.547809155406405,333.0547489166883 L -18.544345153435344,315.1882590291626 L -36.13005819649527,307.5069397612819 L -18.544345153435348,299.8256204934012 L -25.547809155406416,281.9591306058755 L -7.681319267880707,288.96259460784654 Z" fill="none" stroke="#0F52BA" stroke-width="1.5472890739549365" /><path d="M 80.28901821443392,271.37688156478663 L 87.97033748231462,288.96259460784654 L 105.83682736984034,281.9591306058755 L 98.83336336786928,299.8256204934012 L 116.4190764109292,307.5069397612819 L 98.83336336786928,315.1882590291626 L 105.83682736984034,333.0547489166883 L 87.97033748231462,326.05128491471726 L 80.28901821443392,343.63699795777717 L 72.60769894655323,326.05128491471726 L 54.74120905902752,333.0547489166883 L 61.74467306099858,315.1882590291626 L 44.158960017938654,307.5069397612819 L 61.74467306099858,299.8256204934012 L 54.74120905902751,281.9591306058755 L 72.60769894655321,288.96259460784654 Z" fill="none" stroke="#0F52BA" stroke-width="1.5472890739549365" /><path d="M 160.57803642886785,271.37688156478663 L 168.25935569674854,288.96259460784654 L 186.12584558427426,281.9591306058755 L 179.1223815823032,299.8256204934012 L 196.70809462536312,307.5069397612819 L 179.1223815823032,315.1882590291626 L 186.12584558427426,333.0547489166883 L 168.25935569674854,326.05128491471726 L 160.57803642886785,343.63699795777717 L 152.89671716098715,326.05128491471726 L 135.03022727346143,333.0547489166883 L 142.0336912754325,315.1882590291626 L 124.44797823237258,307.5069397612819 L 142.0336912754325,299.8256204934012 L 135.03022727346143,281.9591306058755 L 152.89671716098715,288.96259460784654 Z" fill="none" stroke="#0F52BA" stroke-width="1.5472890739549365" /><path d="M 240.86705464330174,271.37688156478663 L 248.54837391118244,288.96259460784654 L 266.41486379870815,281.9591306058755 L 259.4113997967371,299.8256204934012 L 276.997112839797,307.5069397612819 L 259.4113997967371,315.1882590291626 L 266.41486379870815,333.0547489166883 L 248.54837391118244,326.05128491471726 L 240.86705464330174,343.63699795777717 L 233.18573537542105,326.05128491471726 L 215.31924548789533,333.0547489166883 L 222.32270948986638,315.1882590291626 L 204.73699644680647,307.5069397612819 L 222.32270948986638,299.8256204934012 L 215.31924548789533,281.9591306058755 L 233.18573537542105,288.96259460784654 Z" fill="none" stroke="#0F52BA" stroke-width="1.5472890739549365" /><path d="M 321.1560728577357,271.37688156478663 L 328.8373921256164,288.96259460784654 L 346.7038820131421,281.9591306058755 L 339.70041801117105,299.8256204934012 L 357.28613105423096,307.5069397612819 L 339.70041801117105,315.1882590291626 L 346.7038820131421,333.0547489166883 L 328.8373921256164,326.05128491471726 L 321.1560728577357,343.63699795777717 L 313.474753589855,326.05128491471726 L 295.6082637023293,333.0547489166883 L 302.61172770430034,315.1882590291626 L 285.0260146612404,307.5069397612819 L 302.61172770430034,299.8256204934012 L 295.6082637023293,281.9591306058755 L 313.47475358985497,288.96259460784654 Z" fill="none" stroke="#0F52BA" stroke-width="1.5472890739549365" /><path d="M 401.4450910721696,271.37688156478663 L 409.1264103400503,288.96259460784654 L 426.992900227576,281.9591306058755 L 419.98943622560495,299.8256204934012 L 437.57514926866486,307.5069397612819 L 419.98943622560495,315.1882590291626 L 426.992900227576,333.0547489166883 L 409.1264103400503,326.05128491471726 L 401.4450910721696,343.63699795777717 L 393.7637718042889,326.05128491471726 L 375.8972819167632,333.0547489166883 L 382.90074591873423,315.1882590291626 L 365.3150328756743,307.5069397612819 L 382.90074591873423,299.8256204934012 L 375.8972819167632,281.9591306058755 L 393.76377180428887,288.96259460784654 Z" fill="none" stroke="#0F52BA" stroke-width="1.5472890739549365" /><path d="M 481.73410928660354,271.37688156478663 L 489.41542855448427,288.96259460784654 L 507.28191844200995,281.9591306058755 L 500.2784544400389,299.8256204934012 L 517.8641674830988,307.5069397612819 L 500.2784544400389,315.1882590291626 L 507.28191844200995,333.0547489166883 L 489.41542855448427,326.05128491471726 L 481.73410928660354,343.63699795777717 L 474.0527900187228,326.05128491471726 L 456.18630013119713,333.0547489166883 L 463.1897641331682,315.1882590291626 L 445.60405109010827,307.5069397612819 L 463.1897641331682,299.8256204934012 L 456.18630013119713,281.9591306058755 L 474.0527900187228,288.96259460784654 Z" fill="none" stroke="#0F52BA" stroke-width="1.5472890739549365" /><path d="M 562.0231275010375,271.37688156478663 L 569.7044467689182,288.96259460784654 L 587.5709366564439,281.9591306058755 L 580.5674726544728,299.8256204934012 L 598.1531856975328,307.5069397612819 L 580.5674726544728,315.1882590291626 L 587.5709366564439,333.0547489166883 L 569.7044467689182,326.05128491471726 L 562.0231275010375,343.63699795777717 L 554.3418082331568,326.05128491471726 L 536.4753183456311,333.0547489166883 L 543.4787823476022,315.1882590291626 L 525.8930693045422,307.5069397612819 L 543.4787823476022,299.8256204934012 L 536.4753183456311,281.9591306058755 L 554.3418082331568,288.96259460784654 Z" fill="none" stroke="#0F52BA" stroke-width="1.5472890739549365" /><path d="M -40.14450910721696,340.9071713384864 L -32.463189839336266,358.49288438154633 L -14.59669995181055,351.4894203795753 L -21.60016395378161,369.35591026710097 L -4.014450910721692,377.0372295349817 L -21.60016395378161,384.7185488028624 L -14.59669995181055,402.5850386903881 L -32.463189839336266,395.58157468841705 L -40.14450910721696,413.16728773147696 L -47.82582837509766,395.58157468841705 L -65.69231826262336,402.5850386903881 L -58.688854260652306,384.7185488028624 L -76.27456730371223,377.0372295349817 L -58.688854260652306,369.35591026710097 L -65.69231826262337,351.4894203795753 L -47.82582837509767,358.49288438154633 Z" fill="none" stroke="#0F52BA" stroke-width="1.5472890739549365" /><path d="M 40.14450910721696,340.9071713384864 L 47.82582837509766,358.49288438154633 L 65.69231826262337,351.4894203795753 L 58.68885426065231,369.35591026710097 L 76.27456730371223,377.0372295349817 L 58.68885426065231,384.7185488028624 L 65.69231826262337,402.5850386903881 L 47.82582837509766,395.58157468841705 L 40.14450910721696,413.16728773147696 L 32.463189839336266,395.58157468841705 L 14.596699951810557,402.5850386903881 L 21.600163953781617,384.7185488028624 L 4.014450910721692,377.0372295349817 L 21.600163953781614,369.35591026710097 L 14.596699951810546,351.4894203795753 L 32.46318983933625,358.49288438154633 Z" fill="none" stroke="#0F52BA" stroke-width="1.5472890739549365" /><path d="M 120.43352732165089,340.9071713384864 L 128.1148465895316,358.49288438154633 L 145.9813364770573,351.4894203795753 L 138.97787247508623,369.35591026710097 L 156.56358551814617,377.0372295349817 L 138.97787247508623,384.7185488028624 L 145.9813364770573,402.5850386903881 L 128.1148465895316,395.58157468841705 L 120.43352732165089,413.16728773147696 L 112.75220805377019,395.58157468841705 L 94.88571816624449,402.5850386903881 L 101.88918216821554,384.7185488028624 L 84.30346912515562,377.0372295349817 L 101.88918216821554,369.35591026710097 L 94.88571816624447,351.4894203795753 L 112.75220805377018,358.49288438154633 Z" fill="none" stroke="#0F52BA" stroke-width="1.5472890739549365" /><path d="M 200.7225455360848,340.9071713384864 L 208.4038648039655,358.49288438154633 L 226.2703546914912,351.4894203795753 L 219.26689068952015,369.35591026710097 L 236.85260373258006,377.0372295349817 L 219.26689068952015,384.7185488028624 L 226.2703546914912,402.5850386903881 L 208.4038648039655,395.58157468841705 L 200.7225455360848,413.16728773147696 L 193.0412262682041,395.58157468841705 L 175.17473638067838,402.5850386903881 L 182.17820038264944,384.7185488028624 L 164.59248733958952,377.0372295349817 L 182.17820038264944,369.35591026710097 L 175.17473638067838,351.4894203795753 L 193.0412262682041,358.49288438154633 Z" fill="none" stroke="#0F52BA" stroke-width="1.5472890739549365" /><path d="M 281.01156375051875,340.9071713384864 L 288.69288301839947,358.49288438154633 L 306.55937290592516,351.4894203795753 L 299.5559089039541,369.35591026710097 L 317.141621947014,377.0372295349817 L 299.5559089039541,384.7185488028624 L 306.55937290592516,402.5850386903881 L 288.69288301839947,395.58157468841705 L 281.01156375051875,413.16728773147696 L 273.330244482638,395.58157468841705 L 255.46375459511233,402.5850386903881 L 262.4672185970834,384.7185488028624 L 244.88150555402348,377.0372295349817 L 262.4672185970834,369.35591026710097 L 255.46375459511233,351.4894203795753 L 273.330244482638,358.49288438154633 Z" fill="none" stroke="#0F52BA" stroke-width="1.5472890739549365" /><path d="M 361.30058196495264,340.9071713384864 L 368.98190123283337,358.49288438154633 L 386.84839112035905,351.4894203795753 L 379.844927118388,369.35591026710097 L 397.4306401614479,377.0372295349817 L 379.844927118388,384.7185488028624 L 386.84839112035905,402.5850386903881 L 368.98190123283337,395.58157468841705 L 361.30058196495264,413.16728773147696 L 353.6192626970719,395.58157468841705 L 335.75277280954623,402.5850386903881 L 342.7562368115173,384.7185488028624 L 325.1705237684574,377.0372295349817 L 342.7562368115173,369.35591026710097 L 335.75277280954623,351.4894203795753 L 353.6192626970719,358.49288438154633 Z" fill="none" stroke="#0F52BA" stroke-width="1.5472890739549365" /><path d="M 441.5896001793866,340.9071713384864 L 449.2709194472673,358.49288438154633 L 467.137409334793,351.4894203795753 L 460.13394533282195,369.35591026710097 L 477.71965837588186,377.0372295349817 L 460.13394533282195,384.7185488028624 L 467.137409334793,402.5850386903881 L 449.2709194472673,395.58157468841705 L 441.5896001793866,413.16728773147696 L 433.9082809115059,395.58157468841705 L 416.0417910239802,402.5850386903881 L 423.04525502595123,384.7185488028624 L 405.4595419828913,377.0372295349817 L 423.04525502595123,369.35591026710097 L 416.0417910239802,351.4894203795753 L 433.90828091150587,358.49288438154633 Z" fill="none" stroke="#0F52BA" stroke-width="1.5472890739549365" /><path d="M 521.8786183938205,340.9071713384864 L 529.5599376617012,358.49288438154633 L 547.4264275492269,351.4894203795753 L 540.4229635472558,369.35591026710097 L 558.0086765903158,377.0372295349817 L 540.4229635472558,384.7185488028624 L 547.4264275492269,402.5850386903881 L 529.5599376617012,395.58157468841705 L 521.8786183938205,413.16728773147696 L 514.1972991259398,395.58157468841705 L 496.3308092384141,402.5850386903881 L 503.33427324038513,384.7185488028624 L 485.7485601973252,377.0372295349817 L 503.33427324038513,369.35591026710097 L 496.3308092384141,351.4894203795753 L 514.1972991259398,358.49288438154633 Z" fill="none" stroke="#0F52BA" stroke-width="1.5472890739549365" /><path d="M 2.212328006167276e-15,410.43746111218627 L 7.681319267880697,428.0231741552462 L 25.547809155406412,421.0197101532751 L 18.54434515343535,438.8862000408008 L 36.13005819649527,446.56751930868154 L 18.54434515343535,454.24883857656226 L 25.547809155406412,472.11532846408795 L 7.681319267880697,465.1118644621169 L 2.212328006167276e-15,482.6975775051768 L -7.681319267880696,465.1118644621169 L -25.547809155406405,472.11532846408795 L -18.544345153435344,454.24883857656226 L -36.13005819649527,446.56751930868154 L -18.544345153435348,438.8862000408008 L -25.547809155406416,421.0197101532751 L -7.681319267880707,428.0231741552462 Z" fill="none" stroke="#0F52BA" stroke-width="1.5472890739549365" /><path d="M 80.28901821443392,410.43746111218627 L 87.97033748231462,428.0231741552462 L 105.83682736984034,421.0197101532751 L 98.83336336786928,438.8862000408008 L 116.4190764109292,446.56751930868154 L 98.83336336786928,454.24883857656226 L 105.83682736984034,472.11532846408795 L 87.97033748231462,465.1118644621169 L 80.28901821443392,482.6975775051768 L 72.60769894655323,465.1118644621169 L 54.74120905902752,472.11532846408795 L 61.74467306099858,454.24883857656226 L 44.158960017938654,446.56751930868154 L 61.74467306099858,438.8862000408008 L 54.74120905902751,421.0197101532751 L 72.60769894655321,428.0231741552462 Z" fill="none" stroke="#0F52BA" stroke-width="1.5472890739549365" /><path d="M 160.57803642886785,410.43746111218627 L 168.25935569674854,428.0231741552462 L 186.12584558427426,421.0197101532751 L 179.1223815823032,438.8862000408008 L 196.70809462536312,446.56751930868154 L 179.1223815823032,454.24883857656226 L 186.12584558427426,472.11532846408795 L 168.25935569674854,465.1118644621169 L 160.57803642886785,482.6975775051768 L 152.89671716098715,465.1118644621169 L 135.03022727346143,472.11532846408795 L 142.0336912754325,454.24883857656226 L 124.44797823237258,446.56751930868154 L 142.0336912754325,438.8862000408008 L 135.03022727346143,421.0197101532751 L 152.89671716098715,428.0231741552462 Z" fill="none" stroke="#0F52BA" stroke-width="1.5472890739549365" /><path d="M 240.86705464330174,410.43746111218627 L 248.54837391118244,428.0231741552462 L 266.41486379870815,421.0197101532751 L 259.4113997967371,438.8862000408008 L 276.997112839797,446.56751930868154 L 259.4113997967371,454.24883857656226 L 266.41486379870815,472.11532846408795 L 248.54837391118244,465.1118644621169 L 240.86705464330174,482.6975775051768 L 233.18573537542105,465.1118644621169 L 215.31924548789533,472.11532846408795 L 222.32270948986638,454.24883857656226 L 204.73699644680647,446.56751930868154 L 222.32270948986638,438.8862000408008 L 215.31924548789533,421.0197101532751 L 233.18573537542105,428.0231741552462 Z" fill="none" stroke="#0F52BA" stroke-width="1.5472890739549365" /><path d="M 321.1560728577357,410.43746111218627 L 328.8373921256164,428.0231741552462 L 346.7038820131421,421.0197101532751 L 339.70041801117105,438.8862000408008 L 357.28613105423096,446.56751930868154 L 339.70041801117105,454.24883857656226 L 346.7038820131421,472.11532846408795 L 328.8373921256164,465.1118644621169 L 321.1560728577357,482.6975775051768 L 313.474753589855,465.1118644621169 L 295.6082637023293,472.11532846408795 L 302.61172770430034,454.24883857656226 L 285.0260146612404,446.56751930868154 L 302.61172770430034,438.8862000408008 L 295.6082637023293,421.0197101532751 L 313.47475358985497,428.0231741552462 Z" fill="none" stroke="#0F52BA" stroke-width="1.5472890739549365" /><path d="M 401.4450910721696,410.43746111218627 L 409.1264103400503,428.0231741552462 L 426.992900227576,421.0197101532751 L 419.98943622560495,438.8862000408008 L 437.57514926866486,446.56751930868154 L 419.98943622560495,454.24883857656226 L 426.992900227576,472.11532846408795 L 409.1264103400503,465.1118644621169 L 401.4450910721696,482.6975775051768 L 393.7637718042889,465.1118644621169 L 375.8972819167632,472.11532846408795 L 382.90074591873423,454.24883857656226 L 365.3150328756743,446.56751930868154 L 382.90074591873423,438.8862000408008 L 375.8972819167632,421.0197101532751 L 393.76377180428887,428.0231741552462 Z" fill="none" stroke="#0F52BA" stroke-width="1.5472890739549365" /><path d="M 481.73410928660354,410.43746111218627 L 489.41542855448427,428.0231741552462 L 507.28191844200995,421.0197101532751 L 500.2784544400389,438.8862000408008 L 517.8641674830988,446.56751930868154 L 500.2784544400389,454.24883857656226 L 507.28191844200995,472.11532846408795 L 489.41542855448427,465.1118644621169 L 481.73410928660354,482.6975775051768 L 474.0527900187228,465.1118644621169 L 456.18630013119713,472.11532846408795 L 463.1897641331682,454.24883857656226 L 445.60405109010827,446.56751930868154 L 463.1897641331682,438.8862000408008 L 456.18630013119713,421.0197101532751 L 474.0527900187228,428.0231741552462 Z" fill="none" stroke="#0F52BA" stroke-width="1.5472890739549365" /><path d="M 562.0231275010375,410.43746111218627 L 569.7044467689182,428.0231741552462 L 587.5709366564439,421.0197101532751 L 580.5674726544728,438.8862000408008 L 598.1531856975328,446.56751930868154 L 580.5674726544728,454.24883857656226 L 587.5709366564439,472.11532846408795 L 569.7044467689182,465.1118644621169 L 562.0231275010375,482.6975775051768 L 554.3418082331568,465.1118644621169 L 536.4753183456311,472.11532846408795 L 543.4787823476022,454.24883857656226 L 525.8930693045422,446.56751930868154 L 543.4787823476022,438.8862000408008 L 536.4753183456311,421.0197101532751 L 554.3418082331568,428.0231741552462 Z" fill="none" stroke="#0F52BA" stroke-width="1.5472890739549365" /><path d="M -40.14450910721696,479.96775088588595 L -32.463189839336266,497.55346392894586 L -14.59669995181055,490.5499999269748 L -21.60016395378161,508.4164898145005 L -4.014450910721692,516.0978090823812 L -21.60016395378161,523.7791283502619 L -14.59669995181055,541.6456182377876 L -32.463189839336266,534.6421542358165 L -40.14450910721696,552.2278672788765 L -47.82582837509766,534.6421542358165 L -65.69231826262336,541.6456182377876 L -58.688854260652306,523.7791283502619 L -76.27456730371223,516.0978090823812 L -58.688854260652306,508.4164898145005 L -65.69231826262337,490.5499999269748 L -47.82582837509767,497.55346392894586 Z" fill="none" stroke="#0F52BA" stroke-width="1.5472890739549365" /><path d="M 40.14450910721696,479.96775088588595 L 47.82582837509766,497.55346392894586 L 65.69231826262337,490.5499999269748 L 58.68885426065231,508.4164898145005 L 76.27456730371223,516.0978090823812 L 58.68885426065231,523.7791283502619 L 65.69231826262337,541.6456182377876 L 47.82582837509766,534.6421542358165 L 40.14450910721696,552.2278672788765 L 32.463189839336266,534.6421542358165 L 14.596699951810557,541.6456182377876 L 21.600163953781617,523.7791283502619 L 4.014450910721692,516.0978090823812 L 21.600163953781614,508.4164898145005 L 14.596699951810546,490.5499999269748 L 32.46318983933625,497.55346392894586 Z" fill="none" stroke="#0F52BA" stroke-width="1.5472890739549365" /><path d="M 120.43352732165089,479.96775088588595 L 128.1148465895316,497.55346392894586 L 145.9813364770573,490.5499999269748 L 138.97787247508623,508.4164898145005 L 156.56358551814617,516.0978090823812 L 138.97787247508623,523.7791283502619 L 145.9813364770573,541.6456182377876 L 128.1148465895316,534.6421542358165 L 120.43352732165089,552.2278672788765 L 112.75220805377019,534.6421542358165 L 94.88571816624449,541.6456182377876 L 101.88918216821554,523.7791283502619 L 84.30346912515562,516.0978090823812 L 101.88918216821554,508.4164898145005 L 94.88571816624447,490.5499999269748 L 112.75220805377018,497.55346392894586 Z" fill="none" stroke="#0F52BA" stroke-width="1.5472890739549365" /><path d="M 200.7225455360848,479.96775088588595 L 208.4038648039655,497.55346392894586 L 226.2703546914912,490.5499999269748 L 219.26689068952015,508.4164898145005 L 236.85260373258006,516.0978090823812 L 219.26689068952015,523.7791283502619 L 226.2703546914912,541.6456182377876 L 208.4038648039655,534.6421542358165 L 200.7225455360848,552.2278672788765 L 193.0412262682041,534.6421542358165 L 175.17473638067838,541.6456182377876 L 182.17820038264944,523.7791283502619 L 164.59248733958952,516.0978090823812 L 182.17820038264944,508.4164898145005 L 175.17473638067838,490.5499999269748 L 193.0412262682041,497.55346392894586 Z" fill="none" stroke="#0F52BA" stroke-width="1.5472890739549365" /><path d="M 281.01156375051875,479.96775088588595 L 288.69288301839947,497.55346392894586 L 306.55937290592516,490.5499999269748 L 299.5559089039541,508.4164898145005 L 317.141621947014,516.0978090823812 L 299.5559089039541,523.7791283502619 L 306.55937290592516,541.6456182377876 L 288.69288301839947,534.6421542358165 L 281.01156375051875,552.2278672788765 L 273.330244482638,534.6421542358165 L 255.46375459511233,541.6456182377876 L 262.4672185970834,523.7791283502619 L 244.88150555402348,516.0978090823812 L 262.4672185970834,508.4164898145005 L 255.46375459511233,490.5499999269748 L 273.330244482638,497.55346392894586 Z" fill="none" stroke="#0F52BA" stroke-width="1.5472890739549365" /><path d="M 361.30058196495264,479.96775088588595 L 368.98190123283337,497.55346392894586 L 386.84839112035905,490.5499999269748 L 379.844927118388,508.4164898145005 L 397.4306401614479,516.0978090823812 L 379.844927118388,523.7791283502619 L 386.84839112035905,541.6456182377876 L 368.98190123283337,534.6421542358165 L 361.30058196495264,552.2278672788765 L 353.6192626970719,534.6421542358165 L 335.75277280954623,541.6456182377876 L 342.7562368115173,523.7791283502619 L 325.1705237684574,516.0978090823812 L 342.7562368115173,508.4164898145005 L 335.75277280954623,490.5499999269748 L 353.6192626970719,497.55346392894586 Z" fill="none" stroke="#0F52BA" stroke-width="1.5472890739549365" /><path d="M 441.5896001793866,479.96775088588595 L 449.2709194472673,497.55346392894586 L 467.137409334793,490.5499999269748 L 460.13394533282195,508.4164898145005 L 477.71965837588186,516.0978090823812 L 460.13394533282195,523.7791283502619 L 467.137409334793,541.6456182377876 L 449.2709194472673,534.6421542358165 L 441.5896001793866,552.2278672788765 L 433.9082809115059,534.6421542358165 L 416.0417910239802,541.6456182377876 L 423.04525502595123,523.7791283502619 L 405.4595419828913,516.0978090823812 L 423.04525502595123,508.4164898145005 L 416.0417910239802,490.5499999269748 L 433.90828091150587,497.55346392894586 Z" fill="none" stroke="#0F52BA" stroke-width="1.5472890739549365" /><path d="M 521.8786183938205,479.96775088588595 L 529.5599376617012,497.55346392894586 L 547.4264275492269,490.5499999269748 L 540.4229635472558,508.4164898145005 L 558.0086765903158,516.0978090823812 L 540.4229635472558,523.7791283502619 L 547.4264275492269,541.6456182377876 L 529.5599376617012,534.6421542358165 L 521.8786183938205,552.2278672788765 L 514.1972991259398,534.6421542358165 L 496.3308092384141,541.6456182377876 L 503.33427324038513,523.7791283502619 L 485.7485601973252,516.0978090823812 L 503.33427324038513,508.4164898145005 L 496.3308092384141,490.5499999269748 L 514.1972991259398,497.55346392894586 Z" fill="none" stroke="#0F52BA" stroke-width="1.5472890739549365" /><line x1="36.13005819649527" y1="29.385780666482816" x2="44.158960017938654" y2="29.385780666482816" stroke="#0F52BA" stroke-width="0.5"/><line x1="116.4190764109292" y1="29.385780666482816" x2="124.44797823237258" y2="29.385780666482816" stroke="#0F52BA" stroke-width="0.5"/><line x1="196.70809462536312" y1="29.385780666482816" x2="204.73699644680647" y2="29.385780666482816" stroke="#0F52BA" stroke-width="0.5"/><line x1="276.997112839797" y1="29.385780666482816" x2="285.0260146612404" y2="29.385780666482816" stroke="#0F52BA" stroke-width="0.5"/><line x1="357.28613105423096" y1="29.385780666482816" x2="365.3150328756743" y2="29.385780666482816" stroke="#0F52BA" stroke-width="0.5"/><line x1="437.57514926866486" y1="29.385780666482816" x2="445.60405109010827" y2="29.385780666482816" stroke="#0F52BA" stroke-width="0.5"/><line x1="76.27456730371223" y1="98.9160704401826" x2="84.30346912515562" y2="98.9160704401826" stroke="#0F52BA" stroke-width="0.5"/><line x1="156.56358551814617" y1="98.9160704401826" x2="164.59248733958952" y2="98.9160704401826" stroke="#0F52BA" stroke-width="0.5"/><line x1="236.85260373258006" y1="98.9160704401826" x2="244.88150555402348" y2="98.9160704401826" stroke="#0F52BA" stroke-width="0.5"/><line x1="317.141621947014" y1="98.9160704401826" x2="325.1705237684574" y2="98.9160704401826" stroke="#0F52BA" stroke-width="0.5"/><line x1="397.4306401614479" y1="98.9160704401826" x2="405.4595419828913" y2="98.9160704401826" stroke="#0F52BA" stroke-width="0.5"/><line x1="477.71965837588186" y1="98.9160704401826" x2="485.7485601973252" y2="98.9160704401826" stroke="#0F52BA" stroke-width="0.5"/><line x1="36.13005819649527" y1="168.44636021388237" x2="44.158960017938654" y2="168.44636021388237" stroke="#0F52BA" stroke-width="0.5"/><line x1="116.4190764109292" y1="168.44636021388237" x2="124.44797823237258" y2="168.44636021388237" stroke="#0F52BA" stroke-width="0.5"/><line x1="196.70809462536312" y1="168.44636021388237" x2="204.73699644680647" y2="168.44636021388237" stroke="#0F52BA" stroke-width="0.5"/><line x1="276.997112839797" y1="168.44636021388237" x2="285.0260146612404" y2="168.44636021388237" stroke="#0F52BA" stroke-width="0.5"/><line x1="357.28613105423096" y1="168.44636021388237" x2="365.3150328756743" y2="168.44636021388237" stroke="#0F52BA" stroke-width="0.5"/><line x1="437.57514926866486" y1="168.44636021388237" x2="445.60405109010827" y2="168.44636021388237" stroke="#0F52BA" stroke-width="0.5"/><line x1="76.27456730371223" y1="237.97664998758216" x2="84.30346912515562" y2="237.97664998758216" stroke="#0F52BA" stroke-width="0.5"/><line x1="156.56358551814617" y1="237.97664998758216" x2="164.59248733958952" y2="237.97664998758216" stroke="#0F52BA" stroke-width="0.5"/><line x1="236.85260373258006" y1="237.97664998758216" x2="244.88150555402348" y2="237.97664998758216" stroke="#0F52BA" stroke-width="0.5"/><line x1="317.141621947014" y1="237.97664998758216" x2="325.1705237684574" y2="237.97664998758216" stroke="#0F52BA" stroke-width="0.5"/><line x1="397.4306401614479" y1="237.97664998758216" x2="405.4595419828913" y2="237.97664998758216" stroke="#0F52BA" stroke-width="0.5"/><line x1="477.71965837588186" y1="237.97664998758216" x2="485.7485601973252" y2="237.97664998758216" stroke="#0F52BA" stroke-width="0.5"/><line x1="36.13005819649527" y1="307.5069397612819" x2="44.158960017938654" y2="307.5069397612819" stroke="#0F52BA" stroke-width="0.5"/><line x1="116.4190764109292" y1="307.5069397612819" x2="124.44797823237258" y2="307.5069397612819" stroke="#0F52BA" stroke-width="0.5"/><line x1="196.70809462536312" y1="307.5069397612819" x2="204.73699644680647" y2="307.5069397612819" stroke="#0F52BA" stroke-width="0.5"/><line x1="276.997112839797" y1="307.5069397612819" x2="285.0260146612404" y2="307.5069397612819" stroke="#0F52BA" stroke-width="0.5"/><line x1="357.28613105423096" y1="307.5069397612819" x2="365.3150328756743" y2="307.5069397612819" stroke="#0F52BA" stroke-width="0.5"/><line x1="437.57514926866486" y1="307.5069397612819" x2="445.60405109010827" y2="307.5069397612819" stroke="#0F52BA" stroke-width="0.5"/><line x1="76.27456730371223" y1="377.0372295349817" x2="84.30346912515562" y2="377.0372295349817" stroke="#0F52BA" stroke-width="0.5"/><line x1="156.56358551814617" y1="377.0372295349817" x2="164.59248733958952" y2="377.0372295349817" stroke="#0F52BA" stroke-width="0.5"/><line x1="236.85260373258006" y1="377.0372295349817" x2="244.88150555402348" y2="377.0372295349817" stroke="#0F52BA" stroke-width="0.5"/><line x1="317.141621947014" y1="377.0372295349817" x2="325.1705237684574" y2="377.0372295349817" stroke="#0F52BA" stroke-width="0.5"/><line x1="397.4306401614479" y1="377.0372295349817" x2="405.4595419828913" y2="377.0372295349817" stroke="#0F52BA" stroke-width="0.5"/><line x1="477.71965837588186" y1="377.0372295349817" x2="485.7485601973252" y2="377.0372295349817" stroke="#0F52BA" stroke-width="0.5"/><line x1="36.13005819649527" y1="446.56751930868154" x2="44.158960017938654" y2="446.56751930868154" stroke="#0F52BA" stroke-width="0.5"/><line x1="116.4190764109292" y1="446.56751930868154" x2="124.44797823237258" y2="446.56751930868154" stroke="#0F52BA" stroke-width="0.5"/><line x1="196.70809462536312" y1="446.56751930868154" x2="204.73699644680647" y2="446.56751930868154" stroke="#0F52BA" stroke-width="0.5"/><line x1="276.997112839797" y1="446.56751930868154" x2="285.0260146612404" y2="446.56751930868154" stroke="#0F52BA" stroke-width="0.5"/><line x1="357.28613105423096" y1="446.56751930868154" x2="365.3150328756743" y2="446.56751930868154" stroke="#0F52BA" stroke-width="0.5"/><line x1="437.57514926866486" y1="446.56751930868154" x2="445.60405109010827" y2="446.56751930868154" stroke="#0F52BA" stroke-width="0.5"/></g></svg>