<svg xmlns="http://www.w3.org/2000/svg" width="512" height="512" viewBox="0 0 512 512"><rect x="0" y="0" width="512" height="512" fill="#050510"/><g opacity="0.11087219717952991"><path d="M -66.26463198412944,-125.90280076984592 L -53.58544357808135,-96.87490059389442 L -24.094078418201413,-108.43518555005745 L -35.65436337436445,-78.94382039017752 L -6.626463198412942,-66.26463198412944 L -35.65436337436445,-53.58544357808135 L -24.094078418201413,-24.09407841820142 L -53.58544357808135,-35.65436337436445 L -66.26463198412944,-6.626463198412942 L -78.94382039017752,-35.65436337436445 L -108.43518555005745,-24.094078418201413 L -96.87490059389441,-53.58544357808134 L -125.90280076984592,-66.26463198412942 L -96.87490059389441,-78.94382039017754 L -108.43518555005747,-108.43518555005745 L -78.94382039017754,-96.87490059389441 Z" fill="none" stroke="#0F52BA" stroke-width="1.7624150520481239" /><path d="M 66.26463198412944,-125.90280076984592 L 78.94382039017752,-96.87490059389442 L 108.43518555005747,-108.43518555005745 L 96.87490059389442,-78.94382039017752 L 125.90280076984592,-66.26463198412944 L 96.87490059389442,-53.58544357808135 L 108.43518555005747,-24.09407841820142 L 78.94382039017752,-35.65436337436445 L 66.26463198412944,-6.626463198412942 L 53.58544357808136,-35.65436337436445 L 24.09407841820142,-24.094078418201413 L 35.654363374364465,-53.58544357808134 L 6.626463198412942,-66.26463198412942 L 35.65436337436446,-78.94382039017754 L 24.094078418201406,-108.43518555005745 L 53.58544357808134,-96.87490059389441 Z" fill="none" stroke="#0F52BA" stroke-width="1.7624150520481239" /><path d="M 198.7938959523883,-125.90280076984592 L 211.47308435843638,-96.87490059389442 L 240.96444951831634,-108.43518555005745 L 229.40416456215328,-78.94382039017752 L 258.4320647381048,-66.26463198412944 L 229.40416456215328,-53.58544357808135 L 240.96444951831634,-24.09407841820142 L 211.47308435843638,-35.65436337436445 L 198.7938959523883,-6.626463198412942 L 186.11470754634024,-35.65436337436445 L 156.6233423864603,-24.094078418201413 L 168.18362734262334,-53.58544357808134 L 139.15572716667182,-66.26463198412942 L 168.18362734262334,-78.94382039017754 L 156.62334238646028,-108.43518555005745 L 186.1147075463402,-96.87490059389441 Z" fill="none" stroke="#0F52BA" stroke-width="1.7624150520481239" /><path d="M 331.3231599206472,-125.90280076984592 L 344.00234832669526,-96.87490059389442 L 373.4937134865752,-108.43518555005745 L 361.9334285304122,-78.94382039017752 L 390.9613287063637,-66.26463198412944 L 361.9334285304122,-53.58544357808135 L 373.4937134865752,-24.09407841820142 L 344.00234832669526,-35.65436337436445 L 331.3231599206472,-6.626463198412942 L 318.6439715145991,-35.65436337436445 L 289.1526063547192,-24.094078418201413 L 300.7128913108822,-53.58544357808134 L 271.68499113493067,-66.26463198412942 L 300.7128913108822,-78.94382039017754 L 289.1526063547192,-108.43518555005745 L 318.64397151459906,-96.87490059389441 Z" fill="none" stroke="#0F52BA" stroke-width="1.7624150520481239" /><path d="M 463.85242388890606,-125.90280076984592 L 476.53161229495413,-96.87490059389442 L 506.02297745483406,-108.43518555005745 L 494.46269249867106,-78.94382039017752 L 523.4905926746226,-66.26463198412944 L 494.46269249867106,-53.58544357808135 L 506.02297745483406,-24.09407841820142 L 476.53161229495413,-35.65436337436445 L 463.85242388890606,-6.626463198412942 L 451.173235482858,-35.65436337436445 L 421.68187032297806,-24.094078418201413 L 433.24215527914106,-53.58544357808134 L 404.21425510318954,-66.26463198412942 L 433.24215527914106,-78.94382039017754 L 421.68187032297806,-108.43518555005745 L 451.17323548285793,-96.87490059389441 Z" fill="none" stroke="#0F52BA" stroke-width="1.7624150520481239" /><path d="M 596.3816878571649,-125.90280076984592 L 609.060876263213,-96.87490059389442 L 638.5522414230929,-108.43518555005745 L 626.9919564669299,-78.94382039017752 L 656.0198566428815,-66.26463198412944 L 626.9919564669299,-53.58544357808135 L 638.5522414230929,-24.09407841820142 L 609.060876263213,-35.65436337436445 L 596.3816878571649,-6.626463198412942 L 583.7024994511169,-35.65436337436445 L 554.2111342912369,-24.094078418201413 L 565.7714192474,-53.58544357808134 L 536.7435190714484,-66.26463198412942 L 565.7714192474,-78.94382039017754 L 554.2111342912369,-108.43518555005745 L 583.7024994511169,-96.87490059389441 Z" fill="none" stroke="#0F52BA" stroke-width="1.7624150520481239" /><path d="M 3.651784625521865e-15,-11.132458173333752 L 12.679188406048084,17.89544200261776 L 42.170553565928024,6.335157046454725 L 30.610268609764983,35.82652220633466 L 59.638168785716495,48.50571061238274 L 30.610268609764983,61.184899018430826 L 42.170553565928024,90.67626417831076 L 12.679188406048084,79.11597922214773 L 3.651784625521865e-15,108.14387939809924 L -12.679188406048079,79.11597922214773 L -42.17055356592802,90.67626417831076 L -30.610268609764976,61.18489901843084 L -59.638168785716495,48.50571061238275 L -30.61026860976498,35.82652220633465 L -42.17055356592803,6.335157046454725 L -12.6791884060481,17.895442002617767 Z" fill="none" stroke="#0F52BA" stroke-width="1.7624150520481239" /><path d="M 132.52926396825887,-11.132458173333752 L 145.20845237430694,17.89544200261776 L 174.6998175341869,6.335157046454725 L 163.13953257802385,35.82652220633466 L 192.16743275397536,48.50571061238274 L 163.13953257802385,61.184899018430826 L 174.6998175341869,90.67626417831076 L 145.20845237430694,79.11597922214773 L 132.52926396825887,108.14387939809924 L 119.85007556221079,79.11597922214773 L 90.35871040233086,90.67626417831076 L 101.9189953584939,61.18489901843084 L 72.89109518254239,48.50571061238275 L 101.9189953584939,35.82652220633465 L 90.35871040233084,6.335157046454725 L 119.85007556221078,17.895442002617767 Z" fill="none" stroke="#0F52BA" stroke-width="1.7624150520481239" /><path d="M 265.05852793651775,-11.132458173333752 L 277.7377163425658,17.89544200261776 L 307.22908150244575,6.335157046454725 L 295.66879654628275,35.82652220633466 L 324.69669672223426,48.50571061238274 L 295.66879654628275,61.184899018430826 L 307.22908150244575,90.67626417831076 L 277.7377163425658,79.11597922214773 L 265.05852793651775,108.14387939809924 L 252.37933953046968,79.11597922214773 L 222.88797437058975,90.67626417831076 L 234.44825932675278,61.18489901843084 L 205.42035915080126,48.50571061238275 L 234.44825932675278,35.82652220633465 L 222.88797437058972,6.335157046454725 L 252.37933953046965,17.895442002617767 Z" fill="none" stroke="#0F52BA" stroke-width="1.7624150520481239" /><path d="M 397.5877919047766,-11.132458173333752 L 410.2669803108247,17.89544200261776 L 439.7583454707046,6.335157046454725 L 428.1980605145416,35.82652220633466 L 457.22596069049314,48.50571061238274 L 428.1980605145416,61.184899018430826 L 439.7583454707046,90.67626417831076 L 410.2669803108247,79.11597922214773 L 397.5877919047766,108.14387939809924 L 384.90860349872855,79.11597922214773 L 355.4172383388486,90.67626417831076 L 366.9775232950116,61.18489901843084 L 337.9496231190601,48.50571061238275 L 366.9775232950116,35.82652220633465 L 355.4172383388486,6.335157046454725 L 384.9086034987285,17.895442002617767 Z" fill="none" stroke="#0F52BA" stroke-width="1.7624150520481239" /><path d="M 530.1170558730355,-11.132458173333752 L 542.7962442790836,17.89544200261776 L 572.2876094389635,6.335157046454725 L 560.7273244828004,35.82652220633466 L 589.755224658752,48.50571061238274 L 560.7273244828004,61.184899018430826 L 572.2876094389635,90.67626417831076 L 542.7962442790836,79.11597922214773 L 530.1170558730355,108.14387939809924 L 517.4378674669874,79.11597922214773 L 487.9465023071075,90.67626417831076 L 499.5067872632705,61.18489901843084 L 470.478887087319,48.50571061238275 L 499.5067872632705,35.82652220633465 L 487.9465023071075,6.335157046454725 L 517.4378674669874,17.895442002617767 Z" fill="none" stroke="#0F52BA" stroke-width="1.7624150520481239" /><path d="M -66.26463198412944,103.63788442317843 L -53.58544357808135,132.66578459912995 L -24.094078418201413,121.1054996429669 L -35.65436337436445,150.59686480284685 L -6.626463198412942,163.27605320889492 L -35.65436337436445,175.955241614943 L -24.094078418201413,205.44660677482295 L -53.58544357808135,193.8863218186599 L -66.26463198412944,222.9142219946114 L -78.94382039017752,193.8863218186599 L -108.43518555005745,205.44660677482295 L -96.87490059389441,175.95524161494302 L -125.90280076984592,163.27605320889492 L -96.87490059389441,150.59686480284682 L -108.43518555005747,121.1054996429669 L -78.94382039017754,132.66578459912995 Z" fill="none" stroke="#0F52BA" stroke-width="1.7624150520481239" /><path d="M 66.26463198412944,103.63788442317843 L 78.94382039017752,132.66578459912995 L 108.43518555005747,121.1054996429669 L 96.87490059389442,150.59686480284685 L 125.90280076984592,163.27605320889492 L 96.87490059389442,175.955241614943 L 108.43518555005747,205.44660677482295 L 78.94382039017752,193.8863218186599 L 66.26463198412944,222.9142219946114 L 53.58544357808136,193.8863218186599 L 24.09407841820142,205.44660677482295 L 35.654363374364465,175.95524161494302 L 6.626463198412942,163.27605320889492 L 35.65436337436446,150.59686480284682 L 24.094078418201406,121.1054996429669 L 53.58544357808134,132.66578459912995 Z" fill="none" stroke="#0F52BA" stroke-width="1.7624150520481239" /><path d="M 198.7938959523883,103.63788442317843 L 211.47308435843638,132.66578459912995 L 240.96444951831634,121.1054996429669 L 229.40416456215328,150.59686480284685 L 258.4320647381048,163.27605320889492 L 229.40416456215328,175.955241614943 L 240.96444951831634,205.44660677482295 L 211.47308435843638,193.8863218186599 L 198.7938959523883,222.9142219946114 L 186.11470754634024,193.8863218186599 L 156.6233423864603,205.44660677482295 L 168.18362734262334,175.95524161494302 L 139.15572716667182,163.27605320889492 L 168.18362734262334,150.59686480284682 L 156.62334238646028,121.1054996429669 L 186.1147075463402,132.66578459912995 Z" fill="none" stroke="#0F52BA" stroke-width="1.7624150520481239" /><path d="M 331.3231599206472,103.63788442317843 L 344.00234832669526,132.66578459912995 L 373.4937134865752,121.1054996429669 L 361.9334285304122,150.59686480284685 L 390.9613287063637,163.27605320889492 L 361.9334285304122,175.955241614943 L 373.4937134865752,205.44660677482295 L 344.00234832669526,193.8863218186599 L 331.3231599206472,222.9142219946114 L 318.6439715145991,193.8863218186599 L 289.1526063547192,205.44660677482295 L 300.7128913108822,175.95524161494302 L 271.68499113493067,163.27605320889492 L 300.7128913108822,150.59686480284682 L 289.1526063547192,121.1054996429669 L 318.64397151459906,132.66578459912995 Z" fill="none" stroke="#0F52BA" stroke-width="1.7624150520481239" /><path d="M 463.85242388890606,103.63788442317843 L 476.53161229495413,132.66578459912995 L 506.02297745483406,121.1054996429669 L 494.46269249867106,150.59686480284685 L 523.4905926746226,163.27605320889492 L 494.46269249867106,175.955241614943 L 506.02297745483406,205.44660677482295 L 476.53161229495413,193.8863218186599 L 463.85242388890606,222.9142219946114 L 451.173235482858,193.8863218186599 L 421.68187032297806,205.44660677482295 L 433.24215527914106,175.95524161494302 L 404.21425510318954,163.27605320889492 L 433.24215527914106,150.59686480284682 L 421.68187032297806,121.1054996429669 L 451.17323548285793,132.66578459912995 Z" fill="none" stroke="#0F52BA" stroke-width="1.7624150520481239" /><path d="M 596.3816878571649,103.63788442317843 L 609.060876263213,132.66578459912995 L 638.5522414230929,121.1054996429669 L 626.9919564669299,150.59686480284685 L 656.0198566428815,163.27605320889492 L 626.9919564669299,175.955241614943 L 638.5522414230929,205.44660677482295 L 609.060876263213,193.8863218186599 L 596.3816878571649,222.9142219946114 L 583.7024994511169,193.8863218186599 L 554.2111342912369,205.44660677482295 L 565.7714192474,175.95524161494302 L 536.7435190714484,163.27605320889492 L 565.7714192474,150.59686480284682 L 554.2111342912369,121.1054996429669 L 583.7024994511169,132.66578459912995 Z" fill="none" stroke="#0F52BA" stroke-width="1.7624150520481239" /><path d="M 3.651784625521865e-15,218.4082270196906 L 12.679188406048084,247.43612719564211 L 42.170553565928024,235.87584223947908 L 30.610268609764983,265.367207399359 L 59.638168785716495,278.0463958054071 L 30.610268609764983,290.72558421145516 L 42.170553565928024,320.2169493713351 L 12.679188406048084,308.6566644151721 L 3.651784625521865e-15,337.6845645911236 L -12.679188406048079,308.6566644151721 L -42.17055356592802,320.2169493713351 L -30.610268609764976,290.72558421145516 L -59.638168785716495,278.0463958054071 L -30.61026860976498,265.367207399359 L -42.17055356592803,235.87584223947908 L -12.6791884060481,247.43612719564211 Z" fill="none" stroke="#0F52BA" stroke-width="1.7624150520481239" /><path d="M 132.52926396825887,218.4082270196906 L 145.20845237430694,247.43612719564211 L 174.6998175341869,235.87584223947908 L 163.13953257802385,265.367207399359 L 192.16743275397536,278.0463958054071 L 163.13953257802385,290.72558421145516 L 174.6998175341869,320.2169493713351 L 145.20845237430694,308.6566644151721 L 132.52926396825887,337.6845645911236 L 119.85007556221079,308.6566644151721 L 90.35871040233086,320.2169493713351 L 101.9189953584939,290.72558421145516 L 72.89109518254239,278.0463958054071 L 101.9189953584939,265.367207399359 L 90.35871040233084,235.87584223947908 L 119.85007556221078,247.43612719564211 Z" fill="none" stroke="#0F52BA" stroke-width="1.7624150520481239" /><path d="M 265.05852793651775,218.4082270196906 L 277.7377163425658,247.43612719564211 L 307.22908150244575,235.87584223947908 L 295.66879654628275,265.367207399359 L 324.69669672223426,278.0463958054071 L 295.66879654628275,290.72558421145516 L 307.22908150244575,320.2169493713351 L 277.7377163425658,308.6566644151721 L 265.05852793651775,337.6845645911236 L 252.37933953046968,308.6566644151721 L 222.88797437058975,320.2169493713351 L 234.44825932675278,290.72558421145516 L 205.42035915080126,278.0463958054071 L 234.44825932675278,265.367207399359 L 222.88797437058972,235.87584223947908 L 252.37933953046965,247.43612719564211 Z" fill="none" stroke="#0F52BA" stroke-width="1.7624150520481239" /><path d="M 397.5877919047766,218.4082270196906 L 410.2669803108247,247.43612719564211 L 439.7583454707046,235.87584223947908 L 428.1980605145416,265.367207399359 L 457.22596069049314,278.0463958054071 L 428.1980605145416,290.72558421145516 L 439.7583454707046,320.2169493713351 L 410.2669803108247,308.6566644151721 L 397.5877919047766,337.6845645911236 L 384.90860349872855,308.6566644151721 L 355.4172383388486,320.2169493713351 L 366.9775232950116,290.72558421145516 L 337.9496231190601,278.0463958054071 L 366.9775232950116,265.367207399359 L 355.4172383388486,235.87584223947908 L 384.9086034987285,247.43612719564211 Z" fill="none" stroke="#0F52BA" stroke-width="1.7624150520481239" /><path d="M 530.1170558730355,218.4082270196906 L 542.7962442790836,247.43612719564211 L 572.2876094389635,235.87584223947908 L 560.7273244828004,265.367207399359 L 589.755224658752,278.0463958054071 L 560.7273244828004,290.72558421145516 L 572.2876094389635,320.2169493713351 L 542.7962442790836,308.6566644151721 L 530.1170558730355,337.6845645911236 L 517.4378674669874,308.6566644151721 L 487.9465023071075,320.2169493713351 L 499.5067872632705,290.72558421145516 L 470.478887087319,278.0463958054071 L 499.5067872632705,265.367207399359 L 487.9465023071075,235.87584223947908 L 517.4378674669874,247.43612719564211 Z" fill="none" stroke="#0F52BA" stroke-width="1.7624150520481239" /><path d="M -66.26463198412944,333.17856961620276 L -53.58544357808135,362.2064697921543 L -24.094078418201413,350.6461848359913 L -35.65436337436445,380.1375499958712 L -6.626463198412942,392.8167384019193 L -35.65436337436445,405.49592680796735 L -24.094078418201413,434.9872919678473 L -53.58544357808135,423.4270070116843 L -66.26463198412944,452.4549071876358 L -78.94382039017752,423.4270070116843 L -108.43518555005745,434.9872919678473 L -96.87490059389441,405.4959268079674 L -125.90280076984592,392.8167384019193 L -96.87490059389441,380.1375499958712 L -108.43518555005747,350.6461848359913 L -78.94382039017754,362.2064697921543 Z" fill="none" stroke="#0F52BA" stroke-width="1.7624150520481239" /><path d="M 66.26463198412944,333.17856961620276 L 78.94382039017752,362.2064697921543 L 108.43518555005747,350.6461848359913 L 96.87490059389442,380.1375499958712 L 125.90280076984592,392.8167384019193 L 96.87490059389442,405.49592680796735 L 108.43518555005747,434.9872919678473 L 78.94382039017752,423.4270070116843 L 66.26463198412944,452.4549071876358 L 53.58544357808136,423.4270070116843 L 24.09407841820142,434.9872919678473 L 35.654363374364465,405.4959268079674 L 6.626463198412942,392.8167384019193 L 35.65436337436446,380.1375499958712 L 24.094078418201406,350.6461848359913 L 53.58544357808134,362.2064697921543 Z" fill="none" stroke="#0F52BA" stroke-width="1.7624150520481239" /><path d="M 198.7938959523883,333.17856961620276 L 211.47308435843638,362.2064697921543 L 240.96444951831634,350.6461848359913 L 229.40416456215328,380.1375499958712 L 258.4320647381048,392.8167384019193 L 229.40416456215328,405.49592680796735 L 240.96444951831634,434.9872919678473 L 211.47308435843638,423.4270070116843 L 198.7938959523883,452.4549071876358 L 186.11470754634024,423.4270070116843 L 156.6233423864603,434.9872919678473 L 168.18362734262334,405.4959268079674 L 139.15572716667182,392.8167384019193 L 168.18362734262334,380.1375499958712 L 156.62334238646028,350.6461848359913 L 186.1147075463402,362.2064697921543 Z" fill="none" stroke="#0F52BA" stroke-width="1.7624150520481239" /><path d="M 331.3231599206472,333.17856961620276 L 344.00234832669526,362.2064697921543 L 373.4937134865752,350.6461848359913 L 361.9334285304122,380.1375499958712 L 390.9613287063637,392.8167384019193 L 361.9334285304122,405.49592680796735 L 373.4937134865752,434.9872919678473 L 344.00234832669526,423.4270070116843 L 331.3231599206472,452.4549071876358 L 318.6439715145991,423.4270070116843 L 289.1526063547192,434.9872919678473 L 300.7128913108822,405.4959268079674 L 271.68499113493067,392.8167384019193 L 300.7128913108822,380.1375499958712 L 289.1526063547192,350.6461848359913 L 318.64397151459906,362.2064697921543 Z" fill="none" stroke="#0F52BA" stroke-width="1.7624150520481239" /><path d="M 463.85242388890606,333.17856961620276 L 476.53161229495413,362.2064697921543 L 506.02297745483406,350.6461848359913 L 494.46269249867106,380.1375499958712 L 523.4905926746226,392.8167384019193 L 494.46269249867106,405.49592680796735 L 506.02297745483406,434.9872919678473 L 476.53161229495413,423.4270070116843 L 463.85242388890606,452.4549071876358 L 451.173235482858,423.4270070116843 L 421.68187032297806,434.9872919678473 L 433.24215527914106,405.4959268079674 L 404.21425510318954,392.8167384019193 L 433.24215527914106,380.1375499958712 L 421.68187032297806,350.6461848359913 L 451.17323548285793,362.2064697921543 Z" fill="none" stroke="#0F52BA" stroke-width="1.7624150520481239" /><path d="M 596.3816878571649,333.17856961620276 L 609.060876263213,362.2064697921543 L 638.5522414230929,350.6461848359913 L 626.9919564669299,380.1375499958712 L 656.0198566428815,392.8167384019193 L 626.9919564669299,405.49592680796735 L 638.5522414230929,434.9872919678473 L 609.060876263213,423.4270070116843 L 596.3816878571649,452.4549071876358 L 583.7024994511169,423.4270070116843 L 554.2111342912369,434.9872919678473 L 565.7714192474,405.4959268079674 L 536.7435190714484,392.8167384019193 L 565.7714192474,380.1375499958712 L 554.2111342912369,350.6461848359913 L 583.7024994511169,362.2064697921543 Z" fill="none" stroke="#0F52BA" stroke-width="1.7624150520481239" /><path d="M 3.651784625521865e-15,447.94891221271496 L 12.679188406048084,476.9768123886665 L 42.170553565928024,465.41652743250347 L 30.610268609764983,494.9078925923834 L 59.638168785716495,507.5870809984315 L 30.610268609764983,520.2662694044795 L 42.170553565928024,549.7576345643595 L 12.679188406048084,538.1973496081964 L 3.651784625521865e-15,567.225249784148 L -12.679188406048079,538.1973496081964 L -42.17055356592802,549.7576345643595 L -30.610268609764976,520.2662694044795 L -59.638168785716495,507.5870809984315 L -30.61026860976498,494.9078925923834 L -42.17055356592803,465.41652743250347 L -12.6791884060481,476.9768123886665 Z" fill="none" stroke="#0F52BA" stroke-width="1.7624150520481239" /><path d="M 132.52926396825887,447.94891221271496 L 145.20845237430694,476.9768123886665 L 174.6998175341869,465.41652743250347 L 163.13953257802385,494.9078925923834 L 192.16743275397536,507.5870809984315 L 163.13953257802385,520.2662694044795 L 174.6998175341869,549.7576345643595 L 145.20845237430694,538.1973496081964 L 132.52926396825887,567.225249784148 L 119.85007556221079,538.1973496081964 L 90.35871040233086,549.7576345643595 L 101.9189953584939,520.2662694044795 L 72.89109518254239,507.5870809984315 L 101.9189953584939,494.9078925923834 L 90.35871040233084,465.41652743250347 L 119.85007556221078,476.9768123886665 Z" fill="none" stroke="#0F52BA" stroke-width="1.7624150520481239" /><path d="M 265.05852793651775,447.94891221271496 L 277.7377163425658,476.9768123886665 L 307.22908150244575,465.41652743250347 L 295.66879654628275,494.9078925923834 L 324.69669672223426,507.5870809984315 L 295.66879654628275,520.2662694044795 L 307.22908150244575,549.7576345643595 L 277.7377163425658,538.1973496081964 L 265.05852793651775,567.225249784148 L 252.37933953046968,538.1973496081964 L 222.88797437058975,549.7576345643595 L 234.44825932675278,520.2662694044795 L 205.42035915080126,507.5870809984315 L 234.44825932675278,494.9078925923834 L 222.88797437058972,465.41652743250347 L 252.37933953046965,476.9768123886665 Z" fill="none" stroke="#0F52BA" stroke-width="1.7624150520481239" /><path d="M 397.5877919047766,447.94891221271496 L 410.2669803108247,476.9768123886665 L 439.7583454707046,465.41652743250347 L 428.1980605145416,494.9078925923834 L 457.22596069049314,507.5870809984315 L 428.1980605145416,520.2662694044795 L 439.7583454707046,549.7576345643595 L 410.2669803108247,538.1973496081964 L 397.5877919047766,567.225249784148 L 384.90860349872855,538.1973496081964 L 355.4172383388486,549.7576345643595 L 366.9775232950116,520.2662694044795 L 337.9496231190601,507.5870809984315 L 366.9775232950116,494.9078925923834 L 355.4172383388486,465.41652743250347 L 384.9086034987285,476.9768123886665 Z" fill="none" stroke="#0F52BA" stroke-width="1.7624150520481239" /><path d="M 530.1170558730355,447.94891221271496 L 542.7962442790836,476.9768123886665 L 572.2876094389635,465.41652743250347 L 560.7273244828004,494.9078925923834 L 589.755224658752,507.5870809984315 L 560.7273244828004,520.2662694044795 L 572.2876094389635,549.7576345643595 L 542.7962442790836,538.1973496081964 L 530.1170558730355,567.225249784148 L 517.4378674669874,538.1973496081964 L 487.9465023071075,549.7576345643595 L 499.5067872632705,520.2662694044795 L 470.478887087319,507.5870809984315 L 499.5067872632705,494.9078925923834 L 487.9465023071075,465.41652743250347 L 517.4378674669874,476.9768123886665 Z" fill="none" stroke="#0F52BA" stroke-width="1.7624150520481239" /><line x1="59.638168785716495" y1="48.50571061238274" x2="72.89109518254239" y2="48.50571061238274" stroke="#0F52BA" stroke-width="0.5"/><line x1="192.16743275397536" y1="48.50571061238274" x2="205.42035915080126" y2="48.50571061238274" stroke="#0F52BA" stroke-width="0.5"/><line x1="324.69669672223426" y1="48.50571061238274" x2="337.9496231190601" y2="48.50571061238274" stroke="#0F52BA" stroke-width="0.5"/><line x1="457.22596069049314" y1="48.50571061238274" x2="470.478887087319" y2="48.50571061238274" stroke="#0F52BA" stroke-width="0.5"/><line x1="125.90280076984592" y1="163.27605320889492" x2="139.15572716667182" y2="163.27605320889492" stroke="#0F52BA" stroke-width="0.5"/><line x1="258.4320647381048" y1="163.27605320889492" x2="271.68499113493067" y2="163.27605320889492" stroke="#0F52BA" stroke-width="0.5"/><line x1="390.9613287063637" y1="163.27605320889492" x2="404.21425510318954" y2="163.27605320889492" stroke="#0F52BA" stroke-width="0.5"/><line x1="59.638168785716495" y1="278.0463958054071" x2="72.89109518254239" y2="278.0463958054071" stroke="#0F52BA" stroke-width="0.5"/><line x1="192.16743275397536" y1="278.0463958054071" x2="205.42035915080126" y2="278.0463958054071" stroke="#0F52BA" stroke-width="0.5"/><line x1="324.69669672223426" y1="278.0463958054071" x2="337.9496231190601" y2="278.0463958054071" stroke="#0F52BA" stroke-width="0.5"/><line x1="457.22596069049314" y1="278.0463958054071" x2="470.478887087319" y2="278.0463958054071" stroke="#0F52BA" stroke-width="0.5"/><line x1="125.90280076984592" y1="392.8167384019193" x2="139.15572716667182" y2="392.8167384019193" stroke="#0F52BA" stroke-width="0.5"/><line x1="258.4320647381048" y1="392.8167384019193" x2="271.68499113493067" y2="392.8167384019193" stroke="#0F52BA" stroke-width="0.5"/><line x1="390.9613287063637" y1="392.8167384019193" x2="404.21425510318954" y2="392.8167384019193" stroke="#0F52BA" stroke-width="0.5"/><line x1="59.638168785716495" y1="507.5870809984315" x2="72.89109518254239" y2="507.5870809984315" stroke="#0F52BA" stroke-width="0.5"/><line x1="192.16743275397536" y1="507.5870809984315" x2="205.42035915080126" y2="507.5870809984315" stroke="#0F52BA" stroke-width="0.5"/><line x1="324.69669672223426" y1="507.5870809984315" x2="337.9496231190601" y2="507.5870809984315" stroke="#0F52BA" stroke-width="0.5"/><line x1="457.22596069049314" y1="507.5870809984315" x2="470.478887087319" y2="507.5870809984315" stroke="#0F52BA" stroke-width="0.5"/></g></svg>