<svg xmlns="http://www.w3.org/2000/svg" width="512" height="512" viewBox="0 0 512 512"><rect x="0" y="0" width="512" height="512" fill="#050510"/><g opacity="0.1461328924149894"><path d="M -74.91873706504565,-142.34560042358675 L -60.58365734079098,-109.52668095304084 L -27.24074475008249,-122.59672938000878 L -40.310793177050456,-89.25381678930032 L -7.491873706504563,-74.91873706504565 L -40.310793177050456,-60.58365734079098 L -27.24074475008249,-27.240744750082506 L -60.58365734079098,-40.310793177050456 L -74.91873706504565,-7.491873706504563 L -89.25381678930032,-40.310793177050456 L -122.59672938000878,-27.24074475008249 L -109.52668095304082,-60.58365734079096 L -142.34560042358675,-74.91873706504563 L -109.52668095304082,-89.25381678930033 L -122.59672938000881,-122.59672938000878 L -89.25381678930034,-109.52668095304082 Z" fill="none" stroke="#0F52BA" stroke-width="0.6804050804024586" /><path d="M 74.91873706504565,-142.34560042358675 L 89.25381678930032,-109.52668095304084 L 122.59672938000881,-122.59672938000878 L 109.52668095304084,-89.25381678930032 L 142.34560042358675,-74.91873706504565 L 109.52668095304084,-60.58365734079098 L 122.59672938000881,-27.240744750082506 L 89.25381678930032,-40.310793177050456 L 74.91873706504565,-7.491873706504563 L 60.58365734079098,-40.310793177050456 L 27.240744750082506,-27.24074475008249 L 40.31079317705046,-60.58365734079096 L 7.491873706504563,-74.91873706504563 L 40.31079317705046,-89.25381678930033 L 27.240744750082484,-122.59672938000878 L 60.58365734079096,-109.52668095304082 Z" fill="none" stroke="#0F52BA" stroke-width="0.6804050804024586" /><path d="M 224.75621119513693,-142.34560042358675 L 239.0912909193916,-109.52668095304084 L 272.4342035101001,-122.59672938000878 L 259.3641550831321,-89.25381678930032 L 292.183074553678,-74.91873706504565 L 259.3641550831321,-60.58365734079098 L 272.4342035101001,-27.240744750082506 L 239.0912909193916,-40.310793177050456 L 224.75621119513693,-7.491873706504563 L 210.42113147088224,-40.310793177050456 L 177.07821888017378,-27.24074475008249 L 190.14826730714174,-60.58365734079096 L 157.32934783659584,-74.91873706504563 L 190.14826730714174,-89.25381678930033 L 177.07821888017378,-122.59672938000878 L 210.42113147088224,-109.52668095304082 Z" fill="none" stroke="#0F52BA" stroke-width="0.6804050804024586" /><path d="M 374.5936853252282,-142.34560042358675 L 388.9287650494829,-109.52668095304084 L 422.27167764019134,-122.59672938000878 L 409.2016292132234,-89.25381678930032 L 442.0205486837693,-74.91873706504565 L 409.2016292132234,-60.58365734079098 L 422.27167764019134,-27.240744750082506 L 388.9287650494829,-40.310793177050456 L 374.5936853252282,-7.491873706504563 L 360.2586056009735,-40.310793177050456 L 326.91569301026504,-27.24074475008249 L 339.985741437233,-60.58365734079096 L 307.1668219666871,-74.91873706504563 L 339.985741437233,-89.25381678930033 L 326.91569301026504,-122.59672938000878 L 360.2586056009735,-109.52668095304082 Z" fill="none" stroke="#0F52BA" stroke-width="0.6804050804024586" /><path d="M 524.4311594553195,-142.34560042358675 L 538.7662391795742,-109.52668095304084 L 572.1091517702827,-122.59672938000878 L 559.0391033433148,-89.25381678930032 L 591.8580228138605,-74.91873706504565 L 559.0391033433148,-60.58365734079098 L 572.1091517702827,-27.240744750082506 L 538.7662391795742,-40.310793177050456 L 524.4311594553195,-7.491873706504563 L 510.09607973106483,-40.310793177050456 L 476.75316714035637,-27.24074475008249 L 489.8232155673243,-60.58365734079096 L 457.00429609677843,-74.91873706504563 L 489.8232155673243,-89.25381678930033 L 476.75316714035637,-122.59672938000878 L 510.09607973106483,-109.52668095304082 Z" fill="none" stroke="#0F52BA" stroke-width="0.6804050804024586" /><path d="M 4.128704619429165e-15,-12.586347826927678 L 14.335079724254673,20.232571643618215 L 47.677992314963156,7.162523216650264 L 34.60794388799519,40.50543580735874 L 67.42686335854108,54.840515531613406 L 34.60794388799519,69.17559525586807 L 47.677992314963156,102.51850784657654 L 14.335079724254673,89.4484594196086 L 4.128704619429165e-15,122.26737889015449 L -14.335079724254669,89.4484594196086 L -47.67799231496314,102.51850784657657 L -34.607943887995184,69.17559525586809 L -67.42686335854108,54.84051553161341 L -34.607943887995184,40.50543580735872 L -47.67799231496316,7.162523216650264 L -14.335079724254692,20.232571643618222 Z" fill="none" stroke="#0F52BA" stroke-width="0.6804050804024586" /><path d="M 149.8374741300913,-12.586347826927678 L 164.17255385434598,20.232571643618215 L 197.51546644505444,7.162523216650264 L 184.44541801808649,40.50543580735874 L 217.26433748863238,54.840515531613406 L 184.44541801808649,69.17559525586807 L 197.51546644505444,102.51850784657654 L 164.17255385434598,89.4484594196086 L 149.8374741300913,122.26737889015449 L 135.50239440583664,89.4484594196086 L 102.15948181512815,102.51850784657657 L 115.2295302420961,69.17559525586809 L 82.41061077155021,54.84051553161341 L 115.2295302420961,40.50543580735872 L 102.15948181512813,7.162523216650264 L 135.5023944058366,20.232571643618222 Z" fill="none" stroke="#0F52BA" stroke-width="0.6804050804024586" /><path d="M 299.6749482601826,-12.586347826927678 L 314.0100279844373,20.232571643618215 L 347.35294057514574,7.162523216650264 L 334.2828921481778,40.50543580735874 L 367.1018116187237,54.840515531613406 L 334.2828921481778,69.17559525586807 L 347.35294057514574,102.51850784657654 L 314.0100279844373,89.4484594196086 L 299.6749482601826,122.26737889015449 L 285.3398685359279,89.4484594196086 L 251.99695594521944,102.51850784657657 L 265.0670043721874,69.17559525586809 L 232.2480849016415,54.84051553161341 L 265.0670043721874,40.50543580735872 L 251.99695594521944,7.162523216650264 L 285.3398685359279,20.232571643618222 Z" fill="none" stroke="#0F52BA" stroke-width="0.6804050804024586" /><path d="M 449.51242239027385,-12.586347826927678 L 463.84750211452854,20.232571643618215 L 497.190414705237,7.162523216650264 L 484.12036627826905,40.50543580735874 L 516.9392857488149,54.840515531613406 L 484.12036627826905,69.17559525586807 L 497.190414705237,102.51850784657654 L 463.84750211452854,89.4484594196086 L 449.51242239027385,122.26737889015449 L 435.1773426660192,89.4484594196086 L 401.8344300753107,102.51850784657657 L 414.90447850227866,69.17559525586809 L 382.08555903173277,54.84051553161341 L 414.90447850227866,40.50543580735872 L 401.8344300753107,7.162523216650264 L 435.1773426660192,20.232571643618222 Z" fill="none" stroke="#0F52BA" stroke-width="0.6804050804024586" /><path d="M 599.3498965203652,-12.586347826927678 L 613.6849762446199,20.232571643618215 L 647.0278888353283,7.162523216650264 L 633.9578404083604,40.50543580735874 L 666.7767598789062,54.840515531613406 L 633.9578404083604,69.17559525586807 L 647.0278888353283,102.51850784657654 L 613.6849762446199,89.4484594196086 L 599.3498965203652,122.26737889015449 L 585.0148167961105,89.4484594196086 L 551.671904205402,102.51850784657657 L 564.74195263237,69.17559525586809 L 531.9230331618242,54.84051553161341 L 564.74195263237,40.50543580735872 L 551.671904205402,7.162523216650264 L 585.0148167961105,20.232571643618222 Z" fill="none" stroke="#0F52BA" stroke-width="0.6804050804024586" /><path d="M -74.91873706504565,117.17290476973136 L -60.58365734079098,149.99182424027725 L -27.24074475008249,136.9217758133093 L -40.310793177050456,170.26468840401776 L -7.491873706504563,184.59976812827244 L -40.310793177050456,198.93484785252713 L -27.24074475008249,232.2777604432356 L -60.58365734079098,219.20771201626764 L -74.91873706504565,252.02663148681353 L -89.25381678930032,219.20771201626764 L -122.59672938000878,232.2777604432356 L -109.52668095304082,198.93484785252713 L -142.34560042358675,184.59976812827244 L -109.52668095304082,170.26468840401776 L -122.59672938000881,136.9217758133093 L -89.25381678930034,149.99182424027725 Z" fill="none" stroke="#0F52BA" stroke-width="0.6804050804024586" /><path d="M 74.91873706504565,117.17290476973136 L 89.25381678930032,149.99182424027725 L 122.59672938000881,136.9217758133093 L 109.52668095304084,170.26468840401776 L 142.34560042358675,184.59976812827244 L 109.52668095304084,198.93484785252713 L 122.59672938000881,232.2777604432356 L 89.25381678930032,219.20771201626764 L 74.91873706504565,252.02663148681353 L 60.58365734079098,219.20771201626764 L 27.240744750082506,232.2777604432356 L 40.31079317705046,198.93484785252713 L 7.491873706504563,184.59976812827244 L 40.31079317705046,170.26468840401776 L 27.240744750082484,136.9217758133093 L 60.58365734079096,149.99182424027725 Z" fill="none" stroke="#0F52BA" stroke-width="0.6804050804024586" /><path d="M 224.75621119513693,117.17290476973136 L 239.0912909193916,149.99182424027725 L 272.4342035101001,136.9217758133093 L 259.3641550831321,170.26468840401776 L 292.183074553678,184.59976812827244 L 259.3641550831321,198.93484785252713 L 272.4342035101001,232.2777604432356 L 239.0912909193916,219.20771201626764 L 224.75621119513693,252.02663148681353 L 210.42113147088224,219.20771201626764 L 177.07821888017378,232.2777604432356 L 190.14826730714174,198.93484785252713 L 157.32934783659584,184.59976812827244 L 190.14826730714174,170.26468840401776 L 177.07821888017378,136.9217758133093 L 210.42113147088224,149.99182424027725 Z" fill="none" stroke="#0F52BA" stroke-width="0.6804050804024586" /><path d="M 374.5936853252282,117.17290476973136 L 388.9287650494829,149.99182424027725 L 422.27167764019134,136.9217758133093 L 409.2016292132234,170.26468840401776 L 442.0205486837693,184.59976812827244 L 409.2016292132234,198.93484785252713 L 422.27167764019134,232.2777604432356 L 388.9287650494829,219.20771201626764 L 374.5936853252282,252.02663148681353 L 360.2586056009735,219.20771201626764 L 326.91569301026504,232.2777604432356 L 339.985741437233,198.93484785252713 L 307.1668219666871,184.59976812827244 L 339.985741437233,170.26468840401776 L 326.91569301026504,136.9217758133093 L 360.2586056009735,149.99182424027725 Z" fill="none" stroke="#0F52BA" stroke-width="0.6804050804024586" /><path d="M 524.4311594553195,117.17290476973136 L 538.7662391795742,149.99182424027725 L 572.1091517702827,136.9217758133093 L 559.0391033433148,170.26468840401776 L 591.8580228138605,184.59976812827244 L 559.0391033433148,198.93484785252713 L 572.1091517702827,232.2777604432356 L 538.7662391795742,219.20771201626764 L 524.4311594553195,252.02663148681353 L 510.09607973106483,219.20771201626764 L 476.75316714035637,232.2777604432356 L 489.8232155673243,198.93484785252713 L 457.00429609677843,184.59976812827244 L 489.8232155673243,170.26468840401776 L 476.75316714035637,136.9217758133093 L 510.09607973106483,149.99182424027725 Z" fill="none" stroke="#0F52BA" stroke-width="0.6804050804024586" /><path d="M 4.128704619429165e-15,246.9321573663904 L 14.335079724254673,279.7510768369363 L 47.677992314963156,266.68102840996835 L 34.60794388799519,300.0239410006768 L 67.42686335854108,314.3590207249315 L 34.60794388799519,328.6941004491862 L 47.677992314963156,362.03701303989465 L 14.335079724254673,348.9669646129267 L 4.128704619429165e-15,381.7858840834726 L -14.335079724254669,348.9669646129267 L -47.67799231496314,362.03701303989465 L -34.607943887995184,328.6941004491862 L -67.42686335854108,314.3590207249315 L -34.607943887995184,300.0239410006768 L -47.67799231496316,266.68102840996835 L -14.335079724254692,279.7510768369363 Z" fill="none" stroke="#0F52BA" stroke-width="0.6804050804024586" /><path d="M 149.8374741300913,246.9321573663904 L 164.17255385434598,279.7510768369363 L 197.51546644505444,266.68102840996835 L 184.44541801808649,300.0239410006768 L 217.26433748863238,314.3590207249315 L 184.44541801808649,328.6941004491862 L 197.51546644505444,362.03701303989465 L 164.17255385434598,348.9669646129267 L 149.8374741300913,381.7858840834726 L 135.50239440583664,348.9669646129267 L 102.15948181512815,362.03701303989465 L 115.2295302420961,328.6941004491862 L 82.41061077155021,314.3590207249315 L 115.2295302420961,300.0239410006768 L 102.15948181512813,266.68102840996835 L 135.5023944058366,279.7510768369363 Z" fill="none" stroke="#0F52BA" stroke-width="0.6804050804024586" /><path d="M 299.6749482601826,246.9321573663904 L 314.0100279844373,279.7510768369363 L 347.35294057514574,266.68102840996835 L 334.2828921481778,300.0239410006768 L 367.1018116187237,314.3590207249315 L 334.2828921481778,328.6941004491862 L 347.35294057514574,362.03701303989465 L 314.0100279844373,348.9669646129267 L 299.6749482601826,381.7858840834726 L 285.3398685359279,348.9669646129267 L 251.99695594521944,362.03701303989465 L 265.0670043721874,328.6941004491862 L 232.2480849016415,314.3590207249315 L 265.0670043721874,300.0239410006768 L 251.99695594521944,266.68102840996835 L 285.3398685359279,279.7510768369363 Z" fill="none" stroke="#0F52BA" stroke-width="0.6804050804024586" /><path d="M 449.51242239027385,246.9321573663904 L 463.84750211452854,279.7510768369363 L 497.190414705237,266.68102840996835 L 484.12036627826905,300.0239410006768 L 516.9392857488149,314.3590207249315 L 484.12036627826905,328.6941004491862 L 497.190414705237,362.03701303989465 L 463.84750211452854,348.9669646129267 L 449.51242239027385,381.7858840834726 L 435.1773426660192,348.9669646129267 L 401.8344300753107,362.03701303989465 L 414.90447850227866,328.6941004491862 L 382.08555903173277,314.3590207249315 L 414.90447850227866,300.0239410006768 L 401.8344300753107,266.68102840996835 L 435.1773426660192,279.7510768369363 Z" fill="none" stroke="#0F52BA" stroke-width="0.6804050804024586" /><path d="M 599.3498965203652,246.9321573663904 L 613.6849762446199,279.7510768369363 L 647.0278888353283,266.68102840996835 L 633.9578404083604,300.0239410006768 L 666.7767598789062,314.3590207249315 L 633.9578404083604,328.6941004491862 L 647.0278888353283,362.03701303989465 L 613.6849762446199,348.9669646129267 L 599.3498965203652,381.7858840834726 L 585.0148167961105,348.9669646129267 L 551.671904205402,362.03701303989465 L 564.74195263237,328.6941004491862 L 531.9230331618242,314.3590207249315 L 564.74195263237,300.0239410006768 L 551.671904205402,266.68102840996835 L 585.0148167961105,279.7510768369363 Z" fill="none" stroke="#0F52BA" stroke-width="0.6804050804024586" /><path d="M -74.91873706504565,376.69140996304947 L -60.58365734079098,409.51032943359536 L -27.24074475008249,396.4402810066274 L -40.310793177050456,429.78319359733587 L -7.491873706504563,444.11827332159055 L -40.310793177050456,458.45335304584523 L -27.24074475008249,491.7962656365537 L -60.58365734079098,478.72621720958574 L -74.91873706504565,511.54513668013163 L -89.25381678930032,478.72621720958574 L -122.59672938000878,491.7962656365537 L -109.52668095304082,458.45335304584523 L -142.34560042358675,444.11827332159055 L -109.52668095304082,429.78319359733587 L -122.59672938000881,396.4402810066274 L -89.25381678930034,409.51032943359536 Z" fill="none" stroke="#0F52BA" stroke-width="0.6804050804024586" /><path d="M 74.91873706504565,376.69140996304947 L 89.25381678930032,409.51032943359536 L 122.59672938000881,396.4402810066274 L 109.52668095304084,429.78319359733587 L 142.34560042358675,444.11827332159055 L 109.52668095304084,458.45335304584523 L 122.59672938000881,491.7962656365537 L 89.25381678930032,478.72621720958574 L 74.91873706504565,511.54513668013163 L 60.58365734079098,478.72621720958574 L 27.240744750082506,491.7962656365537 L 40.31079317705046,458.45335304584523 L 7.491873706504563,444.11827332159055 L 40.31079317705046,429.78319359733587 L 27.240744750082484,396.4402810066274 L 60.58365734079096,409.51032943359536 Z" fill="none" stroke="#0F52BA" stroke-width="0.6804050804024586" /><path d="M 224.75621119513693,376.69140996304947 L 239.0912909193916,409.51032943359536 L 272.4342035101001,396.4402810066274 L 259.3641550831321,429.78319359733587 L 292.183074553678,444.11827332159055 L 259.3641550831321,458.45335304584523 L 272.4342035101001,491.7962656365537 L 239.0912909193916,478.72621720958574 L 224.75621119513693,511.54513668013163 L 210.42113147088224,478.72621720958574 L 177.07821888017378,491.7962656365537 L 190.14826730714174,458.45335304584523 L 157.32934783659584,444.11827332159055 L 190.14826730714174,429.78319359733587 L 177.07821888017378,396.4402810066274 L 210.42113147088224,409.51032943359536 Z" fill="none" stroke="#0F52BA" stroke-width="0.6804050804024586" /><path d="M 374.5936853252282,376.69140996304947 L 388.9287650494829,409.51032943359536 L 422.27167764019134,396.4402810066274 L 409.2016292132234,429.78319359733587 L 442.0205486837693,444.11827332159055 L 409.2016292132234,458.45335304584523 L 422.27167764019134,491.7962656365537 L 388.9287650494829,478.72621720958574 L 374.5936853252282,511.54513668013163 L 360.2586056009735,478.72621720958574 L 326.91569301026504,491.7962656365537 L 339.985741437233,458.45335304584523 L 307.1668219666871,444.11827332159055 L 339.985741437233,429.78319359733587 L 326.91569301026504,396.4402810066274 L 360.2586056009735,409.51032943359536 Z" fill="none" stroke="#0F52BA" stroke-width="0.6804050804024586" /><path d="M 524.4311594553195,376.69140996304947 L 538.7662391795742,409.51032943359536 L 572.1091517702827,396.4402810066274 L 559.0391033433148,429.78319359733587 L 591.8580228138605,444.11827332159055 L 559.0391033433148,458.45335304584523 L 572.1091517702827,491.7962656365537 L 538.7662391795742,478.72621720958574 L 524.4311594553195,511.54513668013163 L 510.09607973106483,478.72621720958574 L 476.75316714035637,491.7962656365537 L 489.8232155673243,458.45335304584523 L 457.00429609677843,444.11827332159055 L 489.8232155673243,429.78319359733587 L 476.75316714035637,396.4402810066274 L 510.09607973106483,409.51032943359536 Z" fill="none" stroke="#0F52BA" stroke-width="0.6804050804024586" /><path d="M 4.128704619429165e-15,506.45066255970863 L 14.335079724254673,539.2695820302545 L 47.677992314963156,526.1995336032866 L 34.60794388799519,559.542446193995 L 67.42686335854108,573.8775259182497 L 34.60794388799519,588.2126056425044 L 47.677992314963156,621.5555182332129 L 14.335079724254673,608.485469806245 L 4.128704619429165e-15,641.3043892767907 L -14.335079724254669,608.485469806245 L -47.67799231496314,621.5555182332129 L -34.607943887995184,588.2126056425044 L -67.42686335854108,573.8775259182497 L -34.607943887995184,559.542446193995 L -47.67799231496316,526.1995336032866 L -14.335079724254692,539.2695820302546 Z" fill="none" stroke="#0F52BA" stroke-width="0.6804050804024586" /><path d="M 149.8374741300913,506.45066255970863 L 164.17255385434598,539.2695820302545 L 197.51546644505444,526.1995336032866 L 184.44541801808649,559.542446193995 L 217.26433748863238,573.8775259182497 L 184.44541801808649,588.2126056425044 L 197.51546644505444,621.5555182332129 L 164.17255385434598,608.485469806245 L 149.8374741300913,641.3043892767907 L 135.50239440583664,608.485469806245 L 102.15948181512815,621.5555182332129 L 115.2295302420961,588.2126056425044 L 82.41061077155021,573.8775259182497 L 115.2295302420961,559.542446193995 L 102.15948181512813,526.1995336032866 L 135.5023944058366,539.2695820302546 Z" fill="none" stroke="#0F52BA" stroke-width="0.6804050804024586" /><path d="M 299.6749482601826,506.45066255970863 L 314.0100279844373,539.2695820302545 L 347.35294057514574,526.1995336032866 L 334.2828921481778,559.542446193995 L 367.1018116187237,573.8775259182497 L 334.2828921481778,588.2126056425044 L 347.35294057514574,621.5555182332129 L 314.0100279844373,608.485469806245 L 299.6749482601826,641.3043892767907 L 285.3398685359279,608.485469806245 L 251.99695594521944,621.5555182332129 L 265.0670043721874,588.2126056425044 L 232.2480849016415,573.8775259182497 L 265.0670043721874,559.542446193995 L 251.99695594521944,526.1995336032866 L 285.3398685359279,539.2695820302546 Z" fill="none" stroke="#0F52BA" stroke-width="0.6804050804024586" /><path d="M 449.51242239027385,506.45066255970863 L 463.84750211452854,539.2695820302545 L 497.190414705237,526.1995336032866 L 484.12036627826905,559.542446193995 L 516.9392857488149,573.8775259182497 L 484.12036627826905,588.2126056425044 L 497.190414705237,621.5555182332129 L 463.84750211452854,608.485469806245 L 449.51242239027385,641.3043892767907 L 435.1773426660192,608.485469806245 L 401.8344300753107,621.5555182332129 L 414.90447850227866,588.2126056425044 L 382.08555903173277,573.8775259182497 L 414.90447850227866,559.542446193995 L 401.8344300753107,526.1995336032866 L 435.1773426660192,539.2695820302546 Z" fill="none" stroke="#0F52BA" stroke-width="0.6804050804024586" /><path d="M 599.3498965203652,506.45066255970863 L 613.6849762446199,539.2695820302545 L 647.0278888353283,526.1995336032866 L 633.9578404083604,559.542446193995 L 666.7767598789062,573.8775259182497 L 633.9578404083604,588.2126056425044 L 647.0278888353283,621.5555182332129 L 613.6849762446199,608.485469806245 L 599.3498965203652,641.3043892767907 L 585.0148167961105,608.485469806245 L 551.671904205402,621.5555182332129 L 564.74195263237,588.2126056425044 L 531.9230331618242,573.8775259182497 L 564.74195263237,559.542446193995 L 551.671904205402,526.1995336032866 L 585.0148167961105,539.2695820302546 Z" fill="none" stroke="#0F52BA" stroke-width="0.6804050804024586" /><line x1="67.42686335854108" y1="54.840515531613406" x2="82.41061077155021" y2="54.840515531613406" stroke="#0F52BA" stroke-width="0.5"/><line x1="217.26433748863238" y1="54.840515531613406" x2="232.2480849016415" y2="54.840515531613406" stroke="#0F52BA" stroke-width="0.5"/><line x1="367.1018116187237" y1="54.840515531613406" x2="382.08555903173277" y2="54.840515531613406" stroke="#0F52BA" stroke-width="0.5"/><line x1="142.34560042358675" y1="184.59976812827244" x2="157.32934783659584" y2="184.59976812827244" stroke="#0F52BA" stroke-width="0.5"/><line x1="292.183074553678" y1="184.59976812827244" x2="307.1668219666871" y2="184.59976812827244" stroke="#0F52BA" stroke-width="0.5"/><line x1="442.0205486837693" y1="184.59976812827244" x2="457.00429609677843" y2="184.59976812827244" stroke="#0F52BA" stroke-width="0.5"/><line x1="67.42686335854108" y1="314.3590207249315" x2="82.41061077155021" y2="314.3590207249315" stroke="#0F52BA" stroke-width="0.5"/><line x1="217.26433748863238" y1="314.3590207249315" x2="232.2480849016415" y2="314.3590207249315" stroke="#0F52BA" stroke-width="0.5"/><line x1="367.1018116187237" y1="314.3590207249315" x2="382.08555903173277" y2="314.3590207249315" stroke="#0F52BA" stroke-width="0.5"/><line x1="142.34560042358675" y1="444.11827332159055" x2="157.32934783659584" y2="444.11827332159055" stroke="#0F52BA" stroke-width="0.5"/><line x1="292.183074553678" y1="444.11827332159055" x2="307.1668219666871" y2="444.11827332159055" stroke="#0F52BA" stroke-width="0.5"/><line x1="442.0205486837693" y1="444.11827332159055" x2="457.00429609677843" y2="444.11827332159055" stroke="#0F52BA" stroke-width="0.5"/></g></svg>