<svg xmlns="http://www.w3.org/2000/svg" width="512" height="512" viewBox="0 0 512 512"><rect x="0" y="0" width="512" height="512" fill="#0D0D0D"/><g opacity="0.11028702857917502"><path d="M -63.30639741929193,-120.28215509665468 L -51.193242691750385,-92.55013984564651 L -23.018452802387237,-103.59434203619662 L -34.062654992937354,-75.41955214683348 L -6.33063974192919,-63.30639741929193 L -34.062654992937354,-51.193242691750385 L -23.018452802387237,-23.018452802387245 L -51.193242691750385,-34.062654992937354 L -63.30639741929193,-6.33063974192919 L -75.41955214683348,-34.062654992937354 L -103.59434203619662,-23.018452802387237 L -92.5501398456465,-51.19324269175037 L -120.28215509665468,-63.306397419291926 L -92.55013984564651,-75.4195521468335 L -103.59434203619664,-103.59434203619662 L -75.4195521468335,-92.5501398456465 Z" fill="none" stroke="#FFD700" stroke-width="1.404452801171901" /><path d="M 63.30639741929193,-120.28215509665468 L 75.41955214683348,-92.55013984564651 L 103.59434203619662,-103.59434203619662 L 92.55013984564651,-75.41955214683348 L 120.28215509665468,-63.30639741929193 L 92.55013984564651,-51.193242691750385 L 103.59434203619662,-23.018452802387245 L 75.41955214683348,-34.062654992937354 L 63.30639741929193,-6.33063974192919 L 51.193242691750385,-34.062654992937354 L 23.018452802387245,-23.018452802387237 L 34.06265499293736,-51.19324269175037 L 6.33063974192919,-63.306397419291926 L 34.062654992937354,-75.4195521468335 L 23.01845280238723,-103.59434203619662 L 51.19324269175037,-92.5501398456465 Z" fill="none" stroke="#FFD700" stroke-width="1.404452801171901" /><path d="M 189.9191922578758,-120.28215509665468 L 202.03234698541735,-92.55013984564651 L 230.2071368747805,-103.59434203619662 L 219.16293468423038,-75.41955214683348 L 246.89494993523854,-63.30639741929193 L 219.16293468423038,-51.193242691750385 L 230.2071368747805,-23.018452802387245 L 202.03234698541735,-34.062654992937354 L 189.9191922578758,-6.33063974192919 L 177.80603753033427,-34.062654992937354 L 149.6312476409711,-23.018452802387237 L 160.67544983152123,-51.19324269175037 L 132.94343458051307,-63.306397419291926 L 160.67544983152123,-75.4195521468335 L 149.6312476409711,-103.59434203619662 L 177.80603753033424,-92.5501398456465 Z" fill="none" stroke="#FFD700" stroke-width="1.404452801171901" /><path d="M 316.53198709645966,-120.28215509665468 L 328.6451418240012,-92.55013984564651 L 356.8199317133643,-103.59434203619662 L 345.77572952281423,-75.41955214683348 L 373.5077447738224,-63.30639741929193 L 345.77572952281423,-51.193242691750385 L 356.8199317133643,-23.018452802387245 L 328.6451418240012,-34.062654992937354 L 316.53198709645966,-6.33063974192919 L 304.4188323689181,-34.062654992937354 L 276.244042479555,-23.018452802387237 L 287.2882446701051,-51.19324269175037 L 259.5562294190969,-63.306397419291926 L 287.2882446701051,-75.4195521468335 L 276.24404247955493,-103.59434203619662 L 304.4188323689181,-92.5501398456465 Z" fill="none" stroke="#FFD700" stroke-width="1.404452801171901" /><path d="M 443.1447819350435,-120.28215509665468 L 455.25793666258505,-92.55013984564651 L 483.43272655194824,-103.59434203619662 L 472.3885243613981,-75.41955214683348 L 500.1205396124063,-63.30639741929193 L 472.3885243613981,-51.193242691750385 L 483.43272655194824,-23.018452802387245 L 455.25793666258505,-34.062654992937354 L 443.1447819350435,-6.33063974192919 L 431.03162720750197,-34.062654992937354 L 402.85683731813884,-23.018452802387237 L 413.90103950868894,-51.19324269175037 L 386.16902425768075,-63.306397419291926 L 413.90103950868894,-75.4195521468335 L 402.8568373181388,-103.59434203619662 L 431.03162720750197,-92.5501398456465 Z" fill="none" stroke="#FFD700" stroke-width="1.404452801171901" /><path d="M 569.7575767736274,-120.28215509665468 L 581.870731501169,-92.55013984564651 L 610.0455213905321,-103.59434203619662 L 599.001319199982,-75.41955214683348 L 626.7333344509901,-63.30639741929193 L 599.001319199982,-51.193242691750385 L 610.0455213905321,-23.018452802387245 L 581.870731501169,-34.062654992937354 L 569.7575767736274,-6.33063974192919 L 557.6444220460859,-34.062654992937354 L 529.4696321567227,-23.018452802387237 L 540.5138343472729,-51.19324269175037 L 512.7818190962647,-63.306397419291926 L 540.5138343472728,-75.4195521468335 L 529.4696321567227,-103.59434203619662 L 557.6444220460859,-92.5501398456465 Z" fill="none" stroke="#FFD700" stroke-width="1.404452801171901" /><path d="M 3.488758963428876e-15,-10.63547476644105 L 12.11315472754155,17.096540484567115 L 40.287944616904696,6.052338294017005 L 29.24374242635458,34.227128183380145 L 56.97575767736274,46.340282910921694 L 29.24374242635458,58.45343763846324 L 40.287944616904696,86.62822752782638 L 12.11315472754155,75.58402533727627 L 3.488758963428876e-15,103.31604058828444 L -12.113154727541549,75.58402533727627 L -40.28794461690469,86.6282275278264 L -29.243742426354572,58.45343763846326 L -56.97575767736274,46.3402829109217 L -29.243742426354576,34.22712818338014 L -40.2879446169047,6.052338294017005 L -12.113154727541566,17.09654048456712 Z" fill="none" stroke="#FFD700" stroke-width="1.404452801171901" /><path d="M 126.61279483858387,-10.63547476644105 L 138.72594956612542,17.096540484567115 L 166.90073945548858,6.052338294017005 L 155.85653726493845,34.227128183380145 L 183.58855251594662,46.340282910921694 L 155.85653726493845,58.45343763846324 L 166.90073945548858,86.62822752782638 L 138.72594956612542,75.58402533727627 L 126.61279483858387,103.31604058828444 L 114.49964011104231,75.58402533727627 L 86.32485022167918,86.6282275278264 L 97.3690524122293,58.45343763846326 L 69.63703716122112,46.3402829109217 L 97.3690524122293,34.22712818338014 L 86.32485022167916,6.052338294017005 L 114.4996401110423,17.09654048456712 Z" fill="none" stroke="#FFD700" stroke-width="1.404452801171901" /><path d="M 253.22558967716773,-10.63547476644105 L 265.3387444047093,17.096540484567115 L 293.51353429407243,6.052338294017005 L 282.46933210352233,34.227128183380145 L 310.20134735453047,46.340282910921694 L 282.46933210352233,58.45343763846324 L 293.51353429407243,86.62822752782638 L 265.3387444047093,75.58402533727627 L 253.22558967716773,103.31604058828444 L 241.1124349496262,75.58402533727627 L 212.93764506026304,86.6282275278264 L 223.98184725081316,58.45343763846326 L 196.249831999805,46.3402829109217 L 223.98184725081316,34.22712818338014 L 212.93764506026304,6.052338294017005 L 241.11243494962616,17.09654048456712 Z" fill="none" stroke="#FFD700" stroke-width="1.404452801171901" /><path d="M 379.8383845157516,-10.63547476644105 L 391.95153924329315,17.096540484567115 L 420.12632913265634,6.052338294017005 L 409.0821269421062,34.227128183380145 L 436.8141421931144,46.340282910921694 L 409.0821269421062,58.45343763846324 L 420.12632913265634,86.62822752782638 L 391.95153924329315,75.58402533727627 L 379.8383845157516,103.31604058828444 L 367.7252297882101,75.58402533727627 L 339.55043989884695,86.6282275278264 L 350.59464208939704,58.45343763846326 L 322.86262683838885,46.3402829109217 L 350.59464208939704,34.22712818338014 L 339.5504398988469,6.052338294017005 L 367.7252297882101,17.09654048456712 Z" fill="none" stroke="#FFD700" stroke-width="1.404452801171901" /><path d="M 506.45117935433547,-10.63547476644105 L 518.5643340818771,17.096540484567115 L 546.7391239712401,6.052338294017005 L 535.69492178069,34.227128183380145 L 563.4269370316982,46.340282910921694 L 535.69492178069,58.45343763846324 L 546.7391239712401,86.62822752782638 L 518.5643340818771,75.58402533727627 L 506.45117935433547,103.31604058828444 L 494.3380246267939,75.58402533727627 L 466.1632347374308,86.6282275278264 L 477.2074369279809,58.45343763846326 L 449.4754216769727,46.3402829109217 L 477.2074369279809,34.22712818338014 L 466.16323473743074,6.052338294017005 L 494.3380246267939,17.09654048456712 Z" fill="none" stroke="#FFD700" stroke-width="1.404452801171901" /><path d="M 633.0639741929193,-10.63547476644105 L 645.1771289204609,17.096540484567115 L 673.351918809824,6.052338294017005 L 662.307716619274,34.227128183380145 L 690.039731870282,46.340282910921694 L 662.307716619274,58.45343763846324 L 673.351918809824,86.62822752782638 L 645.1771289204609,75.58402533727627 L 633.0639741929193,103.31604058828444 L 620.9508194653778,75.58402533727627 L 592.7760295760146,86.6282275278264 L 603.8202317665648,58.45343763846326 L 576.0882165155566,46.3402829109217 L 603.8202317665647,34.22712818338014 L 592.7760295760146,6.052338294017005 L 620.9508194653778,17.09654048456712 Z" fill="none" stroke="#FFD700" stroke-width="1.404452801171901" /><path d="M -63.30639741929193,99.01120556377259 L -51.193242691750385,126.74322081478076 L -23.018452802387237,115.69901862423063 L -34.062654992937354,143.8738085135938 L -6.33063974192919,155.98696324113533 L -34.062654992937354,168.10011796867687 L -23.018452802387237,196.27490785804002 L -51.193242691750385,185.2307056674899 L -63.30639741929193,212.96272091849806 L -75.41955214683348,185.2307056674899 L -103.59434203619662,196.27490785804002 L -92.5501398456465,168.1001179686769 L -120.28215509665468,155.98696324113533 L -92.55013984564651,143.87380851359376 L -103.59434203619664,115.69901862423063 L -75.4195521468335,126.74322081478076 Z" fill="none" stroke="#FFD700" stroke-width="1.404452801171901" /><path d="M 63.30639741929193,99.01120556377259 L 75.41955214683348,126.74322081478076 L 103.59434203619662,115.69901862423063 L 92.55013984564651,143.8738085135938 L 120.28215509665468,155.98696324113533 L 92.55013984564651,168.10011796867687 L 103.59434203619662,196.27490785804002 L 75.41955214683348,185.2307056674899 L 63.30639741929193,212.96272091849806 L 51.193242691750385,185.2307056674899 L 23.018452802387245,196.27490785804002 L 34.06265499293736,168.1001179686769 L 6.33063974192919,155.98696324113533 L 34.062654992937354,143.87380851359376 L 23.01845280238723,115.69901862423063 L 51.19324269175037,126.74322081478076 Z" fill="none" stroke="#FFD700" stroke-width="1.404452801171901" /><path d="M 189.9191922578758,99.01120556377259 L 202.03234698541735,126.74322081478076 L 230.2071368747805,115.69901862423063 L 219.16293468423038,143.8738085135938 L 246.89494993523854,155.98696324113533 L 219.16293468423038,168.10011796867687 L 230.2071368747805,196.27490785804002 L 202.03234698541735,185.2307056674899 L 189.9191922578758,212.96272091849806 L 177.80603753033427,185.2307056674899 L 149.6312476409711,196.27490785804002 L 160.67544983152123,168.1001179686769 L 132.94343458051307,155.98696324113533 L 160.67544983152123,143.87380851359376 L 149.6312476409711,115.69901862423063 L 177.80603753033424,126.74322081478076 Z" fill="none" stroke="#FFD700" stroke-width="1.404452801171901" /><path d="M 316.53198709645966,99.01120556377259 L 328.6451418240012,126.74322081478076 L 356.8199317133643,115.69901862423063 L 345.77572952281423,143.8738085135938 L 373.5077447738224,155.98696324113533 L 345.77572952281423,168.10011796867687 L 356.8199317133643,196.27490785804002 L 328.6451418240012,185.2307056674899 L 316.53198709645966,212.96272091849806 L 304.4188323689181,185.2307056674899 L 276.244042479555,196.27490785804002 L 287.2882446701051,168.1001179686769 L 259.5562294190969,155.98696324113533 L 287.2882446701051,143.87380851359376 L 276.24404247955493,115.69901862423063 L 304.4188323689181,126.74322081478076 Z" fill="none" stroke="#FFD700" stroke-width="1.404452801171901" /><path d="M 443.1447819350435,99.01120556377259 L 455.25793666258505,126.74322081478076 L 483.43272655194824,115.69901862423063 L 472.3885243613981,143.8738085135938 L 500.1205396124063,155.98696324113533 L 472.3885243613981,168.10011796867687 L 483.43272655194824,196.27490785804002 L 455.25793666258505,185.2307056674899 L 443.1447819350435,212.96272091849806 L 431.03162720750197,185.2307056674899 L 402.85683731813884,196.27490785804002 L 413.90103950868894,168.1001179686769 L 386.16902425768075,155.98696324113533 L 413.90103950868894,143.87380851359376 L 402.8568373181388,115.69901862423063 L 431.03162720750197,126.74322081478076 Z" fill="none" stroke="#FFD700" stroke-width="1.404452801171901" /><path d="M 569.7575767736274,99.01120556377259 L 581.870731501169,126.74322081478076 L 610.0455213905321,115.69901862423063 L 599.001319199982,143.8738085135938 L 626.7333344509901,155.98696324113533 L 599.001319199982,168.10011796867687 L 610.0455213905321,196.27490785804002 L 581.870731501169,185.2307056674899 L 569.7575767736274,212.96272091849806 L 557.6444220460859,185.2307056674899 L 529.4696321567227,196.27490785804002 L 540.5138343472729,168.1001179686769 L 512.7818190962647,155.98696324113533 L 540.5138343472728,143.87380851359376 L 529.4696321567227,115.69901862423063 L 557.6444220460859,126.74322081478076 Z" fill="none" stroke="#FFD700" stroke-width="1.404452801171901" /><path d="M 3.488758963428876e-15,208.65788589398622 L 12.11315472754155,236.38990114499438 L 40.287944616904696,225.34569895444426 L 29.24374242635458,253.5204888438074 L 56.97575767736274,265.63364357134895 L 29.24374242635458,277.7467982988905 L 40.287944616904696,305.9215881882536 L 12.11315472754155,294.8773859977035 L 3.488758963428876e-15,322.6094012487117 L -12.113154727541549,294.8773859977035 L -40.28794461690469,305.9215881882536 L -29.243742426354572,277.7467982988905 L -56.97575767736274,265.63364357134895 L -29.243742426354576,253.52048884380739 L -40.2879446169047,225.34569895444426 L -12.113154727541566,236.38990114499438 Z" fill="none" stroke="#FFD700" stroke-width="1.404452801171901" /><path d="M 126.61279483858387,208.65788589398622 L 138.72594956612542,236.38990114499438 L 166.90073945548858,225.34569895444426 L 155.85653726493845,253.5204888438074 L 183.58855251594662,265.63364357134895 L 155.85653726493845,277.7467982988905 L 166.90073945548858,305.9215881882536 L 138.72594956612542,294.8773859977035 L 126.61279483858387,322.6094012487117 L 114.49964011104231,294.8773859977035 L 86.32485022167918,305.9215881882536 L 97.3690524122293,277.7467982988905 L 69.63703716122112,265.63364357134895 L 97.3690524122293,253.52048884380739 L 86.32485022167916,225.34569895444426 L 114.4996401110423,236.38990114499438 Z" fill="none" stroke="#FFD700" stroke-width="1.404452801171901" /><path d="M 253.22558967716773,208.65788589398622 L 265.3387444047093,236.38990114499438 L 293.51353429407243,225.34569895444426 L 282.46933210352233,253.5204888438074 L 310.20134735453047,265.63364357134895 L 282.46933210352233,277.7467982988905 L 293.51353429407243,305.9215881882536 L 265.3387444047093,294.8773859977035 L 253.22558967716773,322.6094012487117 L 241.1124349496262,294.8773859977035 L 212.93764506026304,305.9215881882536 L 223.98184725081316,277.7467982988905 L 196.249831999805,265.63364357134895 L 223.98184725081316,253.52048884380739 L 212.93764506026304,225.34569895444426 L 241.11243494962616,236.38990114499438 Z" fill="none" stroke="#FFD700" stroke-width="1.404452801171901" /><path d="M 379.8383845157516,208.65788589398622 L 391.95153924329315,236.38990114499438 L 420.12632913265634,225.34569895444426 L 409.0821269421062,253.5204888438074 L 436.8141421931144,265.63364357134895 L 409.0821269421062,277.7467982988905 L 420.12632913265634,305.9215881882536 L 391.95153924329315,294.8773859977035 L 379.8383845157516,322.6094012487117 L 367.7252297882101,294.8773859977035 L 339.55043989884695,305.9215881882536 L 350.59464208939704,277.7467982988905 L 322.86262683838885,265.63364357134895 L 350.59464208939704,253.52048884380739 L 339.5504398988469,225.34569895444426 L 367.7252297882101,236.38990114499438 Z" fill="none" stroke="#FFD700" stroke-width="1.404452801171901" /><path d="M 506.45117935433547,208.65788589398622 L 518.5643340818771,236.38990114499438 L 546.7391239712401,225.34569895444426 L 535.69492178069,253.5204888438074 L 563.4269370316982,265.63364357134895 L 535.69492178069,277.7467982988905 L 546.7391239712401,305.9215881882536 L 518.5643340818771,294.8773859977035 L 506.45117935433547,322.6094012487117 L 494.3380246267939,294.8773859977035 L 466.1632347374308,305.9215881882536 L 477.2074369279809,277.7467982988905 L 449.4754216769727,265.63364357134895 L 477.2074369279809,253.52048884380739 L 466.16323473743074,225.34569895444426 L 494.3380246267939,236.38990114499438 Z" fill="none" stroke="#FFD700" stroke-width="1.404452801171901" /><path d="M 633.0639741929193,208.65788589398622 L 645.1771289204609,236.38990114499438 L 673.351918809824,225.34569895444426 L 662.307716619274,253.5204888438074 L 690.039731870282,265.63364357134895 L 662.307716619274,277.7467982988905 L 673.351918809824,305.9215881882536 L 645.1771289204609,294.8773859977035 L 633.0639741929193,322.6094012487117 L 620.9508194653778,294.8773859977035 L 592.7760295760146,305.9215881882536 L 603.8202317665648,277.7467982988905 L 576.0882165155566,265.63364357134895 L 603.8202317665647,253.52048884380739 L 592.7760295760146,225.34569895444426 L 620.9508194653778,236.38990114499438 Z" fill="none" stroke="#FFD700" stroke-width="1.404452801171901" /><path d="M -63.30639741929193,318.3045662241998 L -51.193242691750385,346.036581475208 L -23.018452802387237,334.9923792846579 L -34.062654992937354,363.167169174021 L -6.33063974192919,375.28032390156255 L -34.062654992937354,387.3934786291041 L -23.018452802387237,415.5682685184672 L -51.193242691750385,404.5240663279171 L -63.30639741929193,432.2560815789253 L -75.41955214683348,404.5240663279171 L -103.59434203619662,415.5682685184672 L -92.5501398456465,387.3934786291041 L -120.28215509665468,375.28032390156255 L -92.55013984564651,363.167169174021 L -103.59434203619664,334.9923792846579 L -75.4195521468335,346.036581475208 Z" fill="none" stroke="#FFD700" stroke-width="1.404452801171901" /><path d="M 63.30639741929193,318.3045662241998 L 75.41955214683348,346.036581475208 L 103.59434203619662,334.9923792846579 L 92.55013984564651,363.167169174021 L 120.28215509665468,375.28032390156255 L 92.55013984564651,387.3934786291041 L 103.59434203619662,415.5682685184672 L 75.41955214683348,404.5240663279171 L 63.30639741929193,432.2560815789253 L 51.193242691750385,404.5240663279171 L 23.018452802387245,415.5682685184672 L 34.06265499293736,387.3934786291041 L 6.33063974192919,375.28032390156255 L 34.062654992937354,363.167169174021 L 23.01845280238723,334.9923792846579 L 51.19324269175037,346.036581475208 Z" fill="none" stroke="#FFD700" stroke-width="1.404452801171901" /><path d="M 189.9191922578758,318.3045662241998 L 202.03234698541735,346.036581475208 L 230.2071368747805,334.9923792846579 L 219.16293468423038,363.167169174021 L 246.89494993523854,375.28032390156255 L 219.16293468423038,387.3934786291041 L 230.2071368747805,415.5682685184672 L 202.03234698541735,404.5240663279171 L 189.9191922578758,432.2560815789253 L 177.80603753033427,404.5240663279171 L 149.6312476409711,415.5682685184672 L 160.67544983152123,387.3934786291041 L 132.94343458051307,375.28032390156255 L 160.67544983152123,363.167169174021 L 149.6312476409711,334.9923792846579 L 177.80603753033424,346.036581475208 Z" fill="none" stroke="#FFD700" stroke-width="1.404452801171901" /><path d="M 316.53198709645966,318.3045662241998 L 328.6451418240012,346.036581475208 L 356.8199317133643,334.9923792846579 L 345.77572952281423,363.167169174021 L 373.5077447738224,375.28032390156255 L 345.77572952281423,387.3934786291041 L 356.8199317133643,415.5682685184672 L 328.6451418240012,404.5240663279171 L 316.53198709645966,432.2560815789253 L 304.4188323689181,404.5240663279171 L 276.244042479555,415.5682685184672 L 287.2882446701051,387.3934786291041 L 259.5562294190969,375.28032390156255 L 287.2882446701051,363.167169174021 L 276.24404247955493,334.9923792846579 L 304.4188323689181,346.036581475208 Z" fill="none" stroke="#FFD700" stroke-width="1.404452801171901" /><path d="M 443.1447819350435,318.3045662241998 L 455.25793666258505,346.036581475208 L 483.43272655194824,334.9923792846579 L 472.3885243613981,363.167169174021 L 500.1205396124063,375.28032390156255 L 472.3885243613981,387.3934786291041 L 483.43272655194824,415.5682685184672 L 455.25793666258505,404.5240663279171 L 443.1447819350435,432.2560815789253 L 431.03162720750197,404.5240663279171 L 402.85683731813884,415.5682685184672 L 413.90103950868894,387.3934786291041 L 386.16902425768075,375.28032390156255 L 413.90103950868894,363.167169174021 L 402.8568373181388,334.9923792846579 L 431.03162720750197,346.036581475208 Z" fill="none" stroke="#FFD700" stroke-width="1.404452801171901" /><path d="M 569.7575767736274,318.3045662241998 L 581.870731501169,346.036581475208 L 610.0455213905321,334.9923792846579 L 599.001319199982,363.167169174021 L 626.7333344509901,375.28032390156255 L 599.001319199982,387.3934786291041 L 610.0455213905321,415.5682685184672 L 581.870731501169,404.5240663279171 L 569.7575767736274,432.2560815789253 L 557.6444220460859,404.5240663279171 L 529.4696321567227,415.5682685184672 L 540.5138343472729,387.3934786291041 L 512.7818190962647,375.28032390156255 L 540.5138343472728,363.167169174021 L 529.4696321567227,334.9923792846579 L 557.6444220460859,346.036581475208 Z" fill="none" stroke="#FFD700" stroke-width="1.404452801171901" /><path d="M 3.488758963428876e-15,427.9512465544134 L 12.11315472754155,455.6832618054216 L 40.287944616904696,444.6390596148715 L 29.24374242635458,472.8138495042346 L 56.97575767736274,484.92700423177615 L 29.24374242635458,497.0401589593177 L 40.287944616904696,525.2149488486808 L 12.11315472754155,514.1707466581307 L 3.488758963428876e-15,541.9027619091389 L -12.113154727541549,514.1707466581307 L -40.28794461690469,525.2149488486808 L -29.243742426354572,497.0401589593177 L -56.97575767736274,484.92700423177615 L -29.243742426354576,472.8138495042346 L -40.2879446169047,444.6390596148715 L -12.113154727541566,455.6832618054216 Z" fill="none" stroke="#FFD700" stroke-width="1.404452801171901" /><path d="M 126.61279483858387,427.9512465544134 L 138.72594956612542,455.6832618054216 L 166.90073945548858,444.6390596148715 L 155.85653726493845,472.8138495042346 L 183.58855251594662,484.92700423177615 L 155.85653726493845,497.0401589593177 L 166.90073945548858,525.2149488486808 L 138.72594956612542,514.1707466581307 L 126.61279483858387,541.9027619091389 L 114.49964011104231,514.1707466581307 L 86.32485022167918,525.2149488486808 L 97.3690524122293,497.0401589593177 L 69.63703716122112,484.92700423177615 L 97.3690524122293,472.8138495042346 L 86.32485022167916,444.6390596148715 L 114.4996401110423,455.6832618054216 Z" fill="none" stroke="#FFD700" stroke-width="1.404452801171901" /><path d="M 253.22558967716773,427.9512465544134 L 265.3387444047093,455.6832618054216 L 293.51353429407243,444.6390596148715 L 282.46933210352233,472.8138495042346 L 310.20134735453047,484.92700423177615 L 282.46933210352233,497.0401589593177 L 293.51353429407243,525.2149488486808 L 265.3387444047093,514.1707466581307 L 253.22558967716773,541.9027619091389 L 241.1124349496262,514.1707466581307 L 212.93764506026304,525.2149488486808 L 223.98184725081316,497.0401589593177 L 196.249831999805,484.92700423177615 L 223.98184725081316,472.8138495042346 L 212.93764506026304,444.6390596148715 L 241.11243494962616,455.6832618054216 Z" fill="none" stroke="#FFD700" stroke-width="1.404452801171901" /><path d="M 379.8383845157516,427.9512465544134 L 391.95153924329315,455.6832618054216 L 420.12632913265634,444.6390596148715 L 409.0821269421062,472.8138495042346 L 436.8141421931144,484.92700423177615 L 409.0821269421062,497.0401589593177 L 420.12632913265634,525.2149488486808 L 391.95153924329315,514.1707466581307 L 379.8383845157516,541.9027619091389 L 367.7252297882101,514.1707466581307 L 339.55043989884695,525.2149488486808 L 350.59464208939704,497.0401589593177 L 322.86262683838885,484.92700423177615 L 350.59464208939704,472.8138495042346 L 339.5504398988469,444.6390596148715 L 367.7252297882101,455.6832618054216 Z" fill="none" stroke="#FFD700" stroke-width="1.404452801171901" /><path d="M 506.45117935433547,427.9512465544134 L 518.5643340818771,455.6832618054216 L 546.7391239712401,444.6390596148715 L 535.69492178069,472.8138495042346 L 563.4269370316982,484.92700423177615 L 535.69492178069,497.0401589593177 L 546.7391239712401,525.2149488486808 L 518.5643340818771,514.1707466581307 L 506.45117935433547,541.9027619091389 L 494.3380246267939,514.1707466581307 L 466.1632347374308,525.2149488486808 L 477.2074369279809,497.0401589593177 L 449.4754216769727,484.92700423177615 L 477.2074369279809,472.8138495042346 L 466.16323473743074,444.6390596148715 L 494.3380246267939,455.6832618054216 Z" fill="none" stroke="#FFD700" stroke-width="1.404452801171901" /><path d="M 633.0639741929193,427.9512465544134 L 645.1771289204609,455.6832618054216 L 673.351918809824,444.6390596148715 L 662.307716619274,472.8138495042346 L 690.039731870282,484.92700423177615 L 662.307716619274,497.0401589593177 L 673.351918809824,525.2149488486808 L 645.1771289204609,514.1707466581307 L 633.0639741929193,541.9027619091389 L 620.9508194653778,514.1707466581307 L 592.7760295760146,525.2149488486808 L 603.8202317665648,497.0401589593177 L 576.0882165155566,484.92700423177615 L 603.8202317665647,472.8138495042346 L 592.7760295760146,444.6390596148715 L 620.9508194653778,455.6832618054216 Z" fill="none" stroke="#FFD700" stroke-width="1.404452801171901" /><path d="M -63.30639741929193,537.5979268846272 L -51.193242691750385,565.3299421356353 L -23.018452802387237,554.2857399450852 L -34.062654992937354,582.4605298344484 L -6.33063974192919,594.5736845619899 L -34.062654992937354,606.6868392895315 L -23.018452802387237,634.8616291788946 L -51.193242691750385,623.8174269883446 L -63.30639741929193,651.5494422393526 L -75.41955214683348,623.8174269883446 L -103.59434203619662,634.8616291788946 L -92.5501398456465,606.6868392895315 L -120.28215509665468,594.5736845619899 L -92.55013984564651,582.4605298344484 L -103.59434203619664,554.2857399450852 L -75.4195521468335,565.3299421356353 Z" fill="none" stroke="#FFD700" stroke-width="1.404452801171901" /><path d="M 63.30639741929193,537.5979268846272 L 75.41955214683348,565.3299421356353 L 103.59434203619662,554.2857399450852 L 92.55013984564651,582.4605298344484 L 120.28215509665468,594.5736845619899 L 92.55013984564651,606.6868392895315 L 103.59434203619662,634.8616291788946 L 75.41955214683348,623.8174269883446 L 63.30639741929193,651.5494422393526 L 51.193242691750385,623.8174269883446 L 23.018452802387245,634.8616291788946 L 34.06265499293736,606.6868392895315 L 6.33063974192919,594.5736845619899 L 34.062654992937354,582.4605298344484 L 23.01845280238723,554.2857399450852 L 51.19324269175037,565.3299421356353 Z" fill="none" stroke="#FFD700" stroke-width="1.404452801171901" /><path d="M 189.9191922578758,537.5979268846272 L 202.03234698541735,565.3299421356353 L 230.2071368747805,554.2857399450852 L 219.16293468423038,582.4605298344484 L 246.89494993523854,594.5736845619899 L 219.16293468423038,606.6868392895315 L 230.2071368747805,634.8616291788946 L 202.03234698541735,623.8174269883446 L 189.9191922578758,651.5494422393526 L 177.80603753033427,623.8174269883446 L 149.6312476409711,634.8616291788946 L 160.67544983152123,606.6868392895315 L 132.94343458051307,594.5736845619899 L 160.67544983152123,582.4605298344484 L 149.6312476409711,554.2857399450852 L 177.80603753033424,565.3299421356353 Z" fill="none" stroke="#FFD700" stroke-width="1.404452801171901" /><path d="M 316.53198709645966,537.5979268846272 L 328.6451418240012,565.3299421356353 L 356.8199317133643,554.2857399450852 L 345.77572952281423,582.4605298344484 L 373.5077447738224,594.5736845619899 L 345.77572952281423,606.6868392895315 L 356.8199317133643,634.8616291788946 L 328.6451418240012,623.8174269883446 L 316.53198709645966,651.5494422393526 L 304.4188323689181,623.8174269883446 L 276.244042479555,634.8616291788946 L 287.2882446701051,606.6868392895315 L 259.5562294190969,594.5736845619899 L 287.2882446701051,582.4605298344484 L 276.24404247955493,554.2857399450852 L 304.4188323689181,565.3299421356353 Z" fill="none" stroke="#FFD700" stroke-width="1.404452801171901" /><path d="M 443.1447819350435,537.5979268846272 L 455.25793666258505,565.3299421356353 L 483.43272655194824,554.2857399450852 L 472.3885243613981,582.4605298344484 L 500.1205396124063,594.5736845619899 L 472.3885243613981,606.6868392895315 L 483.43272655194824,634.8616291788946 L 455.25793666258505,623.8174269883446 L 443.1447819350435,651.5494422393526 L 431.03162720750197,623.8174269883446 L 402.85683731813884,634.8616291788946 L 413.90103950868894,606.6868392895315 L 386.16902425768075,594.5736845619899 L 413.90103950868894,582.4605298344484 L 402.8568373181388,554.2857399450852 L 431.03162720750197,565.3299421356353 Z" fill="none" stroke="#FFD700" stroke-width="1.404452801171901" /><path d="M 569.7575767736274,537.5979268846272 L 581.870731501169,565.3299421356353 L 610.0455213905321,554.2857399450852 L 599.001319199982,582.4605298344484 L 626.7333344509901,594.5736845619899 L 599.001319199982,606.6868392895315 L 610.0455213905321,634.8616291788946 L 581.870731501169,623.8174269883446 L 569.7575767736274,651.5494422393526 L 557.6444220460859,623.8174269883446 L 529.4696321567227,634.8616291788946 L 540.5138343472729,606.6868392895315 L 512.7818190962647,594.5736845619899 L 540.5138343472728,582.4605298344484 L 529.4696321567227,554.2857399450852 L 557.6444220460859,565.3299421356353 Z" fill="none" stroke="#FFD700" stroke-width="1.404452801171901" /><line x1="56.97575767736274" y1="46.340282910921694" x2="69.63703716122112" y2="46.340282910921694" stroke="#FFD700" stroke-width="0.5"/><line x1="183.58855251594662" y1="46.340282910921694" x2="196.249831999805" y2="46.340282910921694" stroke="#FFD700" stroke-width="0.5"/><line x1="310.20134735453047" y1="46.340282910921694" x2="322.86262683838885" y2="46.340282910921694" stroke="#FFD700" stroke-width="0.5"/><line x1="436.8141421931144" y1="46.340282910921694" x2="449.4754216769727" y2="46.340282910921694" stroke="#FFD700" stroke-width="0.5"/><line x1="120.28215509665468" y1="155.98696324113533" x2="132.94343458051307" y2="155.98696324113533" stroke="#FFD700" stroke-width="0.5"/><line x1="246.89494993523854" y1="155.98696324113533" x2="259.5562294190969" y2="155.98696324113533" stroke="#FFD700" stroke-width="0.5"/><line x1="373.5077447738224" y1="155.98696324113533" x2="386.16902425768075" y2="155.98696324113533" stroke="#FFD700" stroke-width="0.5"/><line x1="56.97575767736274" y1="265.63364357134895" x2="69.63703716122112" y2="265.63364357134895" stroke="#FFD700" stroke-width="0.5"/><line x1="183.58855251594662" y1="265.63364357134895" x2="196.249831999805" y2="265.63364357134895" stroke="#FFD700" stroke-width="0.5"/><line x1="310.20134735453047" y1="265.63364357134895" x2="322.86262683838885" y2="265.63364357134895" stroke="#FFD700" stroke-width="0.5"/><line x1="436.8141421931144" y1="265.63364357134895" x2="449.4754216769727" y2="265.63364357134895" stroke="#FFD700" stroke-width="0.5"/><line x1="120.28215509665468" y1="375.28032390156255" x2="132.94343458051307" y2="375.28032390156255" stroke="#FFD700" stroke-width="0.5"/><line x1="246.89494993523854" y1="375.28032390156255" x2="259.5562294190969" y2="375.28032390156255" stroke="#FFD700" stroke-width="0.5"/><line x1="373.5077447738224" y1="375.28032390156255" x2="386.16902425768075" y2="375.28032390156255" stroke="#FFD700" stroke-width="0.5"/><line x1="56.97575767736274" y1="484.92700423177615" x2="69.63703716122112" y2="484.92700423177615" stroke="#FFD700" stroke-width="0.5"/><line x1="183.58855251594662" y1="484.92700423177615" x2="196.249831999805" y2="484.92700423177615" stroke="#FFD700" stroke-width="0.5"/><line x1="310.20134735453047" y1="484.92700423177615" x2="322.86262683838885" y2="484.92700423177615" stroke="#FFD700" stroke-width="0.5"/><line x1="436.8141421931144" y1="484.92700423177615" x2="449.4754216769727" y2="484.92700423177615" stroke="#FFD700" stroke-width="0.5"/></g></svg>