<svg xmlns="http://www.w3.org/2000/svg" width="512" height="512" viewBox="0 0 512 512"><rect x="0" y="0" width="512" height="512" fill="#000000"/><g opacity="0.07615036220576166"><path d="M -62.04860144224863,-117.8923427402724 L -50.17611555556205,-90.71131788897054 L -22.561113283588767,-101.5360896009085 L -33.38588499552672,-73.92108732893522 L -6.20486014422486,-62.04860144224863 L -33.38588499552672,-50.17611555556205 L -22.561113283588767,-22.561113283588774 L -50.17611555556205,-33.38588499552672 L -62.04860144224863,-6.20486014422486 L -73.92108732893522,-33.38588499552672 L -101.5360896009085,-22.561113283588767 L -90.71131788897054,-50.176115555562035 L -117.8923427402724,-62.048601442248625 L -90.71131788897054,-73.92108732893523 L -101.5360896009085,-101.5360896009085 L -73.92108732893523,-90.71131788897054 Z" fill="none" stroke="#FFFFFF" stroke-width="1.9591330296635316" /><path d="M 62.04860144224863,-117.8923427402724 L 73.92108732893522,-90.71131788897054 L 101.5360896009085,-101.5360896009085 L 90.71131788897054,-73.92108732893522 L 117.8923427402724,-62.04860144224863 L 90.71131788897054,-50.17611555556205 L 101.5360896009085,-22.561113283588774 L 73.92108732893522,-33.38588499552672 L 62.04860144224863,-6.20486014422486 L 50.17611555556205,-33.38588499552672 L 22.561113283588774,-22.561113283588767 L 33.38588499552673,-50.176115555562035 L 6.20486014422486,-62.048601442248625 L 33.38588499552672,-73.92108732893523 L 22.56111328358876,-101.5360896009085 L 50.176115555562035,-90.71131788897054 Z" fill="none" stroke="#FFFFFF" stroke-width="1.9591330296635316" /><path d="M 186.1458043267459,-117.8923427402724 L 198.01829021343246,-90.71131788897054 L 225.63329248540575,-101.5360896009085 L 214.8085207734678,-73.92108732893522 L 241.98954562476968,-62.04860144224863 L 214.8085207734678,-50.17611555556205 L 225.63329248540575,-22.561113283588774 L 198.01829021343246,-33.38588499552672 L 186.1458043267459,-6.20486014422486 L 174.2733184400593,-33.38588499552672 L 146.65831616808603,-22.561113283588767 L 157.483087880024,-50.176115555562035 L 130.3020630287221,-62.048601442248625 L 157.483087880024,-73.92108732893523 L 146.658316168086,-101.5360896009085 L 174.27331844005928,-90.71131788897054 Z" fill="none" stroke="#FFFFFF" stroke-width="1.9591330296635316" /><path d="M 310.24300721124314,-117.8923427402724 L 322.11549309792974,-90.71131788897054 L 349.730495369903,-101.5360896009085 L 338.90572365796504,-73.92108732893522 L 366.0867485092669,-62.04860144224863 L 338.90572365796504,-50.17611555556205 L 349.730495369903,-22.561113283588774 L 322.11549309792974,-33.38588499552672 L 310.24300721124314,-6.20486014422486 L 298.37052132455653,-33.38588499552672 L 270.7555190525833,-22.561113283588767 L 281.58029076452124,-50.176115555562035 L 254.39926591321938,-62.048601442248625 L 281.58029076452124,-73.92108732893523 L 270.7555190525833,-101.5360896009085 L 298.37052132455653,-90.71131788897054 Z" fill="none" stroke="#FFFFFF" stroke-width="1.9591330296635316" /><path d="M 434.3402100957404,-117.8923427402724 L 446.212695982427,-90.71131788897054 L 473.8276982544003,-101.5360896009085 L 463.0029265424623,-73.92108732893522 L 490.1839513937642,-62.04860144224863 L 463.0029265424623,-50.17611555556205 L 473.8276982544003,-22.561113283588774 L 446.212695982427,-33.38588499552672 L 434.3402100957404,-6.20486014422486 L 422.4677242090538,-33.38588499552672 L 394.85272193708056,-22.561113283588767 L 405.6774936490185,-50.176115555562035 L 378.49646879771666,-62.048601442248625 L 405.6774936490185,-73.92108732893523 L 394.85272193708056,-101.5360896009085 L 422.4677242090538,-90.71131788897054 Z" fill="none" stroke="#FFFFFF" stroke-width="1.9591330296635316" /><path d="M 558.4374129802377,-117.8923427402724 L 570.3098988669243,-90.71131788897054 L 597.9249011388976,-101.5360896009085 L 587.1001294269596,-73.92108732893522 L 614.2811542782615,-62.04860144224863 L 587.1001294269596,-50.17611555556205 L 597.9249011388976,-22.561113283588774 L 570.3098988669243,-33.38588499552672 L 558.4374129802377,-6.20486014422486 L 546.5649270935511,-33.38588499552672 L 518.9499248215778,-22.561113283588767 L 529.7746965335158,-50.176115555562035 L 502.59367168221394,-62.048601442248625 L 529.7746965335158,-73.92108732893523 L 518.9499248215778,-101.5360896009085 L 546.5649270935511,-90.71131788897054 Z" fill="none" stroke="#FFFFFF" stroke-width="1.9591330296635316" /><path d="M 3.4194429516518835e-15,-10.42416504229778 L 11.872485886686585,16.756859809004084 L 39.487488158659865,5.932088097066135 L 28.66271644672191,33.54709036903941 L 55.84374129802377,45.41957625572599 L 28.66271644672191,57.292062142412576 L 39.487488158659865,84.90706441438584 L 11.872485886686585,74.0822927024479 L 3.4194429516518835e-15,101.26331755374977 L -11.872485886686581,74.0822927024479 L -39.48748815865986,84.90706441438586 L -28.6627164467219,57.29206214241259 L -55.84374129802377,45.419576255726 L -28.662716446721905,33.5470903690394 L -39.48748815865987,5.932088097066135 L -11.8724858866866,16.75685980900409 Z" fill="none" stroke="#FFFFFF" stroke-width="1.9591330296635316" /><path d="M 124.09720288449726,-10.42416504229778 L 135.96968877118385,16.756859809004084 L 163.58469104315714,5.932088097066135 L 152.75991933121918,33.54709036903941 L 179.94094418252104,45.41957625572599 L 152.75991933121918,57.292062142412576 L 163.58469104315714,84.90706441438584 L 135.96968877118385,74.0822927024479 L 124.09720288449726,101.26331755374977 L 112.22471699781069,74.0822927024479 L 84.6097147258374,84.90706441438586 L 95.43448643777536,57.29206214241259 L 68.25346158647349,45.419576255726 L 95.43448643777536,33.5470903690394 L 84.60971472583739,5.932088097066135 L 112.22471699781066,16.75685980900409 Z" fill="none" stroke="#FFFFFF" stroke-width="1.9591330296635316" /><path d="M 248.19440576899453,-10.42416504229778 L 260.0668916556811,16.756859809004084 L 287.6818939276544,5.932088097066135 L 276.85712221571646,33.54709036903941 L 304.0381470670183,45.41957625572599 L 276.85712221571646,57.292062142412576 L 287.6818939276544,84.90706441438584 L 260.0668916556811,74.0822927024479 L 248.19440576899453,101.26331755374977 L 236.32191988230795,74.0822927024479 L 208.70691761033467,84.90706441438586 L 219.53168932227263,57.29206214241259 L 192.35066447097074,45.419576255726 L 219.53168932227263,33.5470903690394 L 208.70691761033464,5.932088097066135 L 236.32191988230792,16.75685980900409 Z" fill="none" stroke="#FFFFFF" stroke-width="1.9591330296635316" /><path d="M 372.2916086534918,-10.42416504229778 L 384.1640945401784,16.756859809004084 L 411.77909681215164,5.932088097066135 L 400.9543251002137,33.54709036903941 L 428.13534995151554,45.41957625572599 L 400.9543251002137,57.292062142412576 L 411.77909681215164,84.90706441438584 L 384.1640945401784,74.0822927024479 L 372.2916086534918,101.26331755374977 L 360.4191227668052,74.0822927024479 L 332.8041204948319,84.90706441438586 L 343.6288922067699,57.29206214241259 L 316.447867355468,45.419576255726 L 343.6288922067699,33.5470903690394 L 332.8041204948319,5.932088097066135 L 360.4191227668052,16.75685980900409 Z" fill="none" stroke="#FFFFFF" stroke-width="1.9591330296635316" /><path d="M 496.38881153798906,-10.42416504229778 L 508.26129742467566,16.756859809004084 L 535.876299696649,5.932088097066135 L 525.051527984711,33.54709036903941 L 552.2325528360128,45.41957625572599 L 525.051527984711,57.292062142412576 L 535.876299696649,84.90706441438584 L 508.26129742467566,74.0822927024479 L 496.38881153798906,101.26331755374977 L 484.51632565130245,74.0822927024479 L 456.9013233793292,84.90706441438586 L 467.72609509126715,57.29206214241259 L 440.5450702399653,45.419576255726 L 467.72609509126715,33.5470903690394 L 456.9013233793292,5.932088097066135 L 484.51632565130245,16.75685980900409 Z" fill="none" stroke="#FFFFFF" stroke-width="1.9591330296635316" /><path d="M 620.4860144224863,-10.42416504229778 L 632.3585003091729,16.756859809004084 L 659.9735025811461,5.932088097066135 L 649.1487308692082,33.54709036903941 L 676.3297557205101,45.41957625572599 L 649.1487308692082,57.292062142412576 L 659.9735025811461,84.90706441438584 L 632.3585003091729,74.0822927024479 L 620.4860144224863,101.26331755374977 L 608.6135285357997,74.0822927024479 L 580.9985262638264,84.90706441438586 L 591.8232979757644,57.29206214241259 L 564.6422731244625,45.419576255726 L 591.8232979757644,33.5470903690394 L 580.9985262638264,5.932088097066135 L 608.6135285357997,16.75685980900409 Z" fill="none" stroke="#FFFFFF" stroke-width="1.9591330296635316" /><path d="M -62.04860144224863,97.04401265567684 L -50.17611555556205,124.22503750697871 L -22.561113283588767,113.40026579504075 L -33.38588499552672,141.01526806701403 L -6.20486014422486,152.8877539537006 L -33.38588499552672,164.7602398403872 L -22.561113283588767,192.37524211236047 L -50.17611555556205,181.5504704004225 L -62.04860144224863,208.73149525172437 L -73.92108732893522,181.5504704004225 L -101.5360896009085,192.37524211236047 L -90.71131788897054,164.76023984038721 L -117.8923427402724,152.8877539537006 L -90.71131788897054,141.015268067014 L -101.5360896009085,113.40026579504075 L -73.92108732893523,124.22503750697871 Z" fill="none" stroke="#FFFFFF" stroke-width="1.9591330296635316" /><path d="M 62.04860144224863,97.04401265567684 L 73.92108732893522,124.22503750697871 L 101.5360896009085,113.40026579504075 L 90.71131788897054,141.01526806701403 L 117.8923427402724,152.8877539537006 L 90.71131788897054,164.7602398403872 L 101.5360896009085,192.37524211236047 L 73.92108732893522,181.5504704004225 L 62.04860144224863,208.73149525172437 L 50.17611555556205,181.5504704004225 L 22.561113283588774,192.37524211236047 L 33.38588499552673,164.76023984038721 L 6.20486014422486,152.8877539537006 L 33.38588499552672,141.015268067014 L 22.56111328358876,113.40026579504075 L 50.176115555562035,124.22503750697871 Z" fill="none" stroke="#FFFFFF" stroke-width="1.9591330296635316" /><path d="M 186.1458043267459,97.04401265567684 L 198.01829021343246,124.22503750697871 L 225.63329248540575,113.40026579504075 L 214.8085207734678,141.01526806701403 L 241.98954562476968,152.8877539537006 L 214.8085207734678,164.7602398403872 L 225.63329248540575,192.37524211236047 L 198.01829021343246,181.5504704004225 L 186.1458043267459,208.73149525172437 L 174.2733184400593,181.5504704004225 L 146.65831616808603,192.37524211236047 L 157.483087880024,164.76023984038721 L 130.3020630287221,152.8877539537006 L 157.483087880024,141.015268067014 L 146.658316168086,113.40026579504075 L 174.27331844005928,124.22503750697871 Z" fill="none" stroke="#FFFFFF" stroke-width="1.9591330296635316" /><path d="M 310.24300721124314,97.04401265567684 L 322.11549309792974,124.22503750697871 L 349.730495369903,113.40026579504075 L 338.90572365796504,141.01526806701403 L 366.0867485092669,152.8877539537006 L 338.90572365796504,164.7602398403872 L 349.730495369903,192.37524211236047 L 322.11549309792974,181.5504704004225 L 310.24300721124314,208.73149525172437 L 298.37052132455653,181.5504704004225 L 270.7555190525833,192.37524211236047 L 281.58029076452124,164.76023984038721 L 254.39926591321938,152.8877539537006 L 281.58029076452124,141.015268067014 L 270.7555190525833,113.40026579504075 L 298.37052132455653,124.22503750697871 Z" fill="none" stroke="#FFFFFF" stroke-width="1.9591330296635316" /><path d="M 434.3402100957404,97.04401265567684 L 446.212695982427,124.22503750697871 L 473.8276982544003,113.40026579504075 L 463.0029265424623,141.01526806701403 L 490.1839513937642,152.8877539537006 L 463.0029265424623,164.7602398403872 L 473.8276982544003,192.37524211236047 L 446.212695982427,181.5504704004225 L 434.3402100957404,208.73149525172437 L 422.4677242090538,181.5504704004225 L 394.85272193708056,192.37524211236047 L 405.6774936490185,164.76023984038721 L 378.49646879771666,152.8877539537006 L 405.6774936490185,141.015268067014 L 394.85272193708056,113.40026579504075 L 422.4677242090538,124.22503750697871 Z" fill="none" stroke="#FFFFFF" stroke-width="1.9591330296635316" /><path d="M 558.4374129802377,97.04401265567684 L 570.3098988669243,124.22503750697871 L 597.9249011388976,113.40026579504075 L 587.1001294269596,141.01526806701403 L 614.2811542782615,152.8877539537006 L 587.1001294269596,164.7602398403872 L 597.9249011388976,192.37524211236047 L 570.3098988669243,181.5504704004225 L 558.4374129802377,208.73149525172437 L 546.5649270935511,181.5504704004225 L 518.9499248215778,192.37524211236047 L 529.7746965335158,164.76023984038721 L 502.59367168221394,152.8877539537006 L 529.7746965335158,141.015268067014 L 518.9499248215778,113.40026579504075 L 546.5649270935511,124.22503750697871 Z" fill="none" stroke="#FFFFFF" stroke-width="1.9591330296635316" /><path d="M 3.4194429516518835e-15,204.51219035365148 L 11.872485886686585,231.69321520495333 L 39.487488158659865,220.86844349301538 L 28.66271644672191,248.48344576498866 L 55.84374129802377,260.35593165167523 L 28.66271644672191,272.22841753836184 L 39.487488158659865,299.8434198103351 L 11.872485886686585,289.01864809839714 L 3.4194429516518835e-15,316.199672949699 L -11.872485886686581,289.01864809839714 L -39.48748815865986,299.8434198103351 L -28.6627164467219,272.22841753836184 L -55.84374129802377,260.35593165167523 L -28.662716446721905,248.48344576498863 L -39.48748815865987,220.86844349301538 L -11.8724858866866,231.69321520495333 Z" fill="none" stroke="#FFFFFF" stroke-width="1.9591330296635316" /><path d="M 124.09720288449726,204.51219035365148 L 135.96968877118385,231.69321520495333 L 163.58469104315714,220.86844349301538 L 152.75991933121918,248.48344576498866 L 179.94094418252104,260.35593165167523 L 152.75991933121918,272.22841753836184 L 163.58469104315714,299.8434198103351 L 135.96968877118385,289.01864809839714 L 124.09720288449726,316.199672949699 L 112.22471699781069,289.01864809839714 L 84.6097147258374,299.8434198103351 L 95.43448643777536,272.22841753836184 L 68.25346158647349,260.35593165167523 L 95.43448643777536,248.48344576498863 L 84.60971472583739,220.86844349301538 L 112.22471699781066,231.69321520495333 Z" fill="none" stroke="#FFFFFF" stroke-width="1.9591330296635316" /><path d="M 248.19440576899453,204.51219035365148 L 260.0668916556811,231.69321520495333 L 287.6818939276544,220.86844349301538 L 276.85712221571646,248.48344576498866 L 304.0381470670183,260.35593165167523 L 276.85712221571646,272.22841753836184 L 287.6818939276544,299.8434198103351 L 260.0668916556811,289.01864809839714 L 248.19440576899453,316.199672949699 L 236.32191988230795,289.01864809839714 L 208.70691761033467,299.8434198103351 L 219.53168932227263,272.22841753836184 L 192.35066447097074,260.35593165167523 L 219.53168932227263,248.48344576498863 L 208.70691761033464,220.86844349301538 L 236.32191988230792,231.69321520495333 Z" fill="none" stroke="#FFFFFF" stroke-width="1.9591330296635316" /><path d="M 372.2916086534918,204.51219035365148 L 384.1640945401784,231.69321520495333 L 411.77909681215164,220.86844349301538 L 400.9543251002137,248.48344576498866 L 428.13534995151554,260.35593165167523 L 400.9543251002137,272.22841753836184 L 411.77909681215164,299.8434198103351 L 384.1640945401784,289.01864809839714 L 372.2916086534918,316.199672949699 L 360.4191227668052,289.01864809839714 L 332.8041204948319,299.8434198103351 L 343.6288922067699,272.22841753836184 L 316.447867355468,260.35593165167523 L 343.6288922067699,248.48344576498863 L 332.8041204948319,220.86844349301538 L 360.4191227668052,231.69321520495333 Z" fill="none" stroke="#FFFFFF" stroke-width="1.9591330296635316" /><path d="M 496.38881153798906,204.51219035365148 L 508.26129742467566,231.69321520495333 L 535.876299696649,220.86844349301538 L 525.051527984711,248.48344576498866 L 552.2325528360128,260.35593165167523 L 525.051527984711,272.22841753836184 L 535.876299696649,299.8434198103351 L 508.26129742467566,289.01864809839714 L 496.38881153798906,316.199672949699 L 484.51632565130245,289.01864809839714 L 456.9013233793292,299.8434198103351 L 467.72609509126715,272.22841753836184 L 440.5450702399653,260.35593165167523 L 467.72609509126715,248.48344576498863 L 456.9013233793292,220.86844349301538 L 484.51632565130245,231.69321520495333 Z" fill="none" stroke="#FFFFFF" stroke-width="1.9591330296635316" /><path d="M 620.4860144224863,204.51219035365148 L 632.3585003091729,231.69321520495333 L 659.9735025811461,220.86844349301538 L 649.1487308692082,248.48344576498866 L 676.3297557205101,260.35593165167523 L 649.1487308692082,272.22841753836184 L 659.9735025811461,299.8434198103351 L 632.3585003091729,289.01864809839714 L 620.4860144224863,316.199672949699 L 608.6135285357997,289.01864809839714 L 580.9985262638264,299.8434198103351 L 591.8232979757644,272.22841753836184 L 564.6422731244625,260.35593165167523 L 591.8232979757644,248.48344576498863 L 580.9985262638264,220.86844349301538 L 608.6135285357997,231.69321520495333 Z" fill="none" stroke="#FFFFFF" stroke-width="1.9591330296635316" /><path d="M -62.04860144224863,311.9803680516261 L -50.17611555556205,339.16139290292796 L -22.561113283588767,328.33662119099 L -33.38588499552672,355.95162346296325 L -6.20486014422486,367.82410934964986 L -33.38588499552672,379.69659523633646 L -22.561113283588767,407.3115975083097 L -50.17611555556205,396.48682579637176 L -62.04860144224863,423.6678506476736 L -73.92108732893522,396.48682579637176 L -101.5360896009085,407.3115975083097 L -90.71131788897054,379.69659523633646 L -117.8923427402724,367.82410934964986 L -90.71131788897054,355.95162346296325 L -101.5360896009085,328.33662119099 L -73.92108732893523,339.16139290292796 Z" fill="none" stroke="#FFFFFF" stroke-width="1.9591330296635316" /><path d="M 62.04860144224863,311.9803680516261 L 73.92108732893522,339.16139290292796 L 101.5360896009085,328.33662119099 L 90.71131788897054,355.95162346296325 L 117.8923427402724,367.82410934964986 L 90.71131788897054,379.69659523633646 L 101.5360896009085,407.3115975083097 L 73.92108732893522,396.48682579637176 L 62.04860144224863,423.6678506476736 L 50.17611555556205,396.48682579637176 L 22.561113283588774,407.3115975083097 L 33.38588499552673,379.69659523633646 L 6.20486014422486,367.82410934964986 L 33.38588499552672,355.95162346296325 L 22.56111328358876,328.33662119099 L 50.176115555562035,339.16139290292796 Z" fill="none" stroke="#FFFFFF" stroke-width="1.9591330296635316" /><path d="M 186.1458043267459,311.9803680516261 L 198.01829021343246,339.16139290292796 L 225.63329248540575,328.33662119099 L 214.8085207734678,355.95162346296325 L 241.98954562476968,367.82410934964986 L 214.8085207734678,379.69659523633646 L 225.63329248540575,407.3115975083097 L 198.01829021343246,396.48682579637176 L 186.1458043267459,423.6678506476736 L 174.2733184400593,396.48682579637176 L 146.65831616808603,407.3115975083097 L 157.483087880024,379.69659523633646 L 130.3020630287221,367.82410934964986 L 157.483087880024,355.95162346296325 L 146.658316168086,328.33662119099 L 174.27331844005928,339.16139290292796 Z" fill="none" stroke="#FFFFFF" stroke-width="1.9591330296635316" /><path d="M 310.24300721124314,311.9803680516261 L 322.11549309792974,339.16139290292796 L 349.730495369903,328.33662119099 L 338.90572365796504,355.95162346296325 L 366.0867485092669,367.82410934964986 L 338.90572365796504,379.69659523633646 L 349.730495369903,407.3115975083097 L 322.11549309792974,396.48682579637176 L 310.24300721124314,423.6678506476736 L 298.37052132455653,396.48682579637176 L 270.7555190525833,407.3115975083097 L 281.58029076452124,379.69659523633646 L 254.39926591321938,367.82410934964986 L 281.58029076452124,355.95162346296325 L 270.7555190525833,328.33662119099 L 298.37052132455653,339.16139290292796 Z" fill="none" stroke="#FFFFFF" stroke-width="1.9591330296635316" /><path d="M 434.3402100957404,311.9803680516261 L 446.212695982427,339.16139290292796 L 473.8276982544003,328.33662119099 L 463.0029265424623,355.95162346296325 L 490.1839513937642,367.82410934964986 L 463.0029265424623,379.69659523633646 L 473.8276982544003,407.3115975083097 L 446.212695982427,396.48682579637176 L 434.3402100957404,423.6678506476736 L 422.4677242090538,396.48682579637176 L 394.85272193708056,407.3115975083097 L 405.6774936490185,379.69659523633646 L 378.49646879771666,367.82410934964986 L 405.6774936490185,355.95162346296325 L 394.85272193708056,328.33662119099 L 422.4677242090538,339.16139290292796 Z" fill="none" stroke="#FFFFFF" stroke-width="1.9591330296635316" /><path d="M 558.4374129802377,311.9803680516261 L 570.3098988669243,339.16139290292796 L 597.9249011388976,328.33662119099 L 587.1001294269596,355.95162346296325 L 614.2811542782615,367.82410934964986 L 587.1001294269596,379.69659523633646 L 597.9249011388976,407.3115975083097 L 570.3098988669243,396.48682579637176 L 558.4374129802377,423.6678506476736 L 546.5649270935511,396.48682579637176 L 518.9499248215778,407.3115975083097 L 529.7746965335158,379.69659523633646 L 502.59367168221394,367.82410934964986 L 529.7746965335158,355.95162346296325 L 518.9499248215778,328.33662119099 L 546.5649270935511,339.16139290292796 Z" fill="none" stroke="#FFFFFF" stroke-width="1.9591330296635316" /><path d="M 3.4194429516518835e-15,419.4485457496007 L 11.872485886686585,446.6295706009026 L 39.487488158659865,435.8047988889646 L 28.66271644672191,463.4198011609379 L 55.84374129802377,475.2922870476245 L 28.66271644672191,487.1647729343111 L 39.487488158659865,514.7797752062843 L 11.872485886686585,503.9550034943464 L 3.4194429516518835e-15,531.1360283456482 L -11.872485886686581,503.9550034943464 L -39.48748815865986,514.7797752062844 L -28.6627164467219,487.1647729343111 L -55.84374129802377,475.2922870476245 L -28.662716446721905,463.4198011609379 L -39.48748815865987,435.8047988889646 L -11.8724858866866,446.6295706009026 Z" fill="none" stroke="#FFFFFF" stroke-width="1.9591330296635316" /><path d="M 124.09720288449726,419.4485457496007 L 135.96968877118385,446.6295706009026 L 163.58469104315714,435.8047988889646 L 152.75991933121918,463.4198011609379 L 179.94094418252104,475.2922870476245 L 152.75991933121918,487.1647729343111 L 163.58469104315714,514.7797752062843 L 135.96968877118385,503.9550034943464 L 124.09720288449726,531.1360283456482 L 112.22471699781069,503.9550034943464 L 84.6097147258374,514.7797752062844 L 95.43448643777536,487.1647729343111 L 68.25346158647349,475.2922870476245 L 95.43448643777536,463.4198011609379 L 84.60971472583739,435.8047988889646 L 112.22471699781066,446.6295706009026 Z" fill="none" stroke="#FFFFFF" stroke-width="1.9591330296635316" /><path d="M 248.19440576899453,419.4485457496007 L 260.0668916556811,446.6295706009026 L 287.6818939276544,435.8047988889646 L 276.85712221571646,463.4198011609379 L 304.0381470670183,475.2922870476245 L 276.85712221571646,487.1647729343111 L 287.6818939276544,514.7797752062843 L 260.0668916556811,503.9550034943464 L 248.19440576899453,531.1360283456482 L 236.32191988230795,503.9550034943464 L 208.70691761033467,514.7797752062844 L 219.53168932227263,487.1647729343111 L 192.35066447097074,475.2922870476245 L 219.53168932227263,463.4198011609379 L 208.70691761033464,435.8047988889646 L 236.32191988230792,446.6295706009026 Z" fill="none" stroke="#FFFFFF" stroke-width="1.9591330296635316" /><path d="M 372.2916086534918,419.4485457496007 L 384.1640945401784,446.6295706009026 L 411.77909681215164,435.8047988889646 L 400.9543251002137,463.4198011609379 L 428.13534995151554,475.2922870476245 L 400.9543251002137,487.1647729343111 L 411.77909681215164,514.7797752062843 L 384.1640945401784,503.9550034943464 L 372.2916086534918,531.1360283456482 L 360.4191227668052,503.9550034943464 L 332.8041204948319,514.7797752062844 L 343.6288922067699,487.1647729343111 L 316.447867355468,475.2922870476245 L 343.6288922067699,463.4198011609379 L 332.8041204948319,435.8047988889646 L 360.4191227668052,446.6295706009026 Z" fill="none" stroke="#FFFFFF" stroke-width="1.9591330296635316" /><path d="M 496.38881153798906,419.4485457496007 L 508.26129742467566,446.6295706009026 L 535.876299696649,435.8047988889646 L 525.051527984711,463.4198011609379 L 552.2325528360128,475.2922870476245 L 525.051527984711,487.1647729343111 L 535.876299696649,514.7797752062843 L 508.26129742467566,503.9550034943464 L 496.38881153798906,531.1360283456482 L 484.51632565130245,503.9550034943464 L 456.9013233793292,514.7797752062844 L 467.72609509126715,487.1647729343111 L 440.5450702399653,475.2922870476245 L 467.72609509126715,463.4198011609379 L 456.9013233793292,435.8047988889646 L 484.51632565130245,446.6295706009026 Z" fill="none" stroke="#FFFFFF" stroke-width="1.9591330296635316" /><path d="M 620.4860144224863,419.4485457496007 L 632.3585003091729,446.6295706009026 L 659.9735025811461,435.8047988889646 L 649.1487308692082,463.4198011609379 L 676.3297557205101,475.2922870476245 L 649.1487308692082,487.1647729343111 L 659.9735025811461,514.7797752062843 L 632.3585003091729,503.9550034943464 L 620.4860144224863,531.1360283456482 L 608.6135285357997,503.9550034943464 L 580.9985262638264,514.7797752062844 L 591.8232979757644,487.1647729343111 L 564.6422731244625,475.2922870476245 L 591.8232979757644,463.4198011609379 L 580.9985262638264,435.8047988889646 L 608.6135285357997,446.6295706009026 Z" fill="none" stroke="#FFFFFF" stroke-width="1.9591330296635316" /><path d="M -62.04860144224863,526.9167234475754 L -50.17611555556205,554.0977482988773 L -22.561113283588767,543.2729765869393 L -33.38588499552672,570.8879788589126 L -6.20486014422486,582.7604647455992 L -33.38588499552672,594.6329506322858 L -22.561113283588767,622.247952904259 L -50.17611555556205,611.4231811923211 L -62.04860144224863,638.604206043623 L -73.92108732893522,611.4231811923211 L -101.5360896009085,622.247952904259 L -90.71131788897054,594.6329506322858 L -117.8923427402724,582.7604647455992 L -90.71131788897054,570.8879788589126 L -101.5360896009085,543.2729765869393 L -73.92108732893523,554.0977482988773 Z" fill="none" stroke="#FFFFFF" stroke-width="1.9591330296635316" /><path d="M 62.04860144224863,526.9167234475754 L 73.92108732893522,554.0977482988773 L 101.5360896009085,543.2729765869393 L 90.71131788897054,570.8879788589126 L 117.8923427402724,582.7604647455992 L 90.71131788897054,594.6329506322858 L 101.5360896009085,622.247952904259 L 73.92108732893522,611.4231811923211 L 62.04860144224863,638.604206043623 L 50.17611555556205,611.4231811923211 L 22.561113283588774,622.247952904259 L 33.38588499552673,594.6329506322858 L 6.20486014422486,582.7604647455992 L 33.38588499552672,570.8879788589126 L 22.56111328358876,543.2729765869393 L 50.176115555562035,554.0977482988773 Z" fill="none" stroke="#FFFFFF" stroke-width="1.9591330296635316" /><path d="M 186.1458043267459,526.9167234475754 L 198.01829021343246,554.0977482988773 L 225.63329248540575,543.2729765869393 L 214.8085207734678,570.8879788589126 L 241.98954562476968,582.7604647455992 L 214.8085207734678,594.6329506322858 L 225.63329248540575,622.247952904259 L 198.01829021343246,611.4231811923211 L 186.1458043267459,638.604206043623 L 174.2733184400593,611.4231811923211 L 146.65831616808603,622.247952904259 L 157.483087880024,594.6329506322858 L 130.3020630287221,582.7604647455992 L 157.483087880024,570.8879788589126 L 146.658316168086,543.2729765869393 L 174.27331844005928,554.0977482988773 Z" fill="none" stroke="#FFFFFF" stroke-width="1.9591330296635316" /><path d="M 310.24300721124314,526.9167234475754 L 322.11549309792974,554.0977482988773 L 349.730495369903,543.2729765869393 L 338.90572365796504,570.8879788589126 L 366.0867485092669,582.7604647455992 L 338.90572365796504,594.6329506322858 L 349.730495369903,622.247952904259 L 322.11549309792974,611.4231811923211 L 310.24300721124314,638.604206043623 L 298.37052132455653,611.4231811923211 L 270.7555190525833,622.247952904259 L 281.58029076452124,594.6329506322858 L 254.39926591321938,582.7604647455992 L 281.58029076452124,570.8879788589126 L 270.7555190525833,543.2729765869393 L 298.37052132455653,554.0977482988773 Z" fill="none" stroke="#FFFFFF" stroke-width="1.9591330296635316" /><path d="M 434.3402100957404,526.9167234475754 L 446.212695982427,554.0977482988773 L 473.8276982544003,543.2729765869393 L 463.0029265424623,570.8879788589126 L 490.1839513937642,582.7604647455992 L 463.0029265424623,594.6329506322858 L 473.8276982544003,622.247952904259 L 446.212695982427,611.4231811923211 L 434.3402100957404,638.604206043623 L 422.4677242090538,611.4231811923211 L 394.85272193708056,622.247952904259 L 405.6774936490185,594.6329506322858 L 378.49646879771666,582.7604647455992 L 405.6774936490185,570.8879788589126 L 394.85272193708056,543.2729765869393 L 422.4677242090538,554.0977482988773 Z" fill="none" stroke="#FFFFFF" stroke-width="1.9591330296635316" /><path d="M 558.4374129802377,526.9167234475754 L 570.3098988669243,554.0977482988773 L 597.9249011388976,543.2729765869393 L 587.1001294269596,570.8879788589126 L 614.2811542782615,582.7604647455992 L 587.1001294269596,594.6329506322858 L 597.9249011388976,622.247952904259 L 570.3098988669243,611.4231811923211 L 558.4374129802377,638.604206043623 L 546.5649270935511,611.4231811923211 L 518.9499248215778,622.247952904259 L 529.7746965335158,594.6329506322858 L 502.59367168221394,582.7604647455992 L 529.7746965335158,570.8879788589126 L 518.9499248215778,543.2729765869393 L 546.5649270935511,554.0977482988773 Z" fill="none" stroke="#FFFFFF" stroke-width="1.9591330296635316" /><line x1="55.84374129802377" y1="45.41957625572599" x2="68.25346158647349" y2="45.41957625572599" stroke="#FFFFFF" stroke-width="0.5"/><line x1="179.94094418252104" y1="45.41957625572599" x2="192.35066447097074" y2="45.41957625572599" stroke="#FFFFFF" stroke-width="0.5"/><line x1="304.0381470670183" y1="45.41957625572599" x2="316.447867355468" y2="45.41957625572599" stroke="#FFFFFF" stroke-width="0.5"/><line x1="428.13534995151554" y1="45.41957625572599" x2="440.5450702399653" y2="45.41957625572599" stroke="#FFFFFF" stroke-width="0.5"/><line x1="117.8923427402724" y1="152.8877539537006" x2="130.3020630287221" y2="152.8877539537006" stroke="#FFFFFF" stroke-width="0.5"/><line x1="241.98954562476968" y1="152.8877539537006" x2="254.39926591321938" y2="152.8877539537006" stroke="#FFFFFF" stroke-width="0.5"/><line x1="366.0867485092669" y1="152.8877539537006" x2="378.49646879771666" y2="152.8877539537006" stroke="#FFFFFF" stroke-width="0.5"/><line x1="490.1839513937642" y1="152.8877539537006" x2="502.59367168221394" y2="152.8877539537006" stroke="#FFFFFF" stroke-width="0.5"/><line x1="55.84374129802377" y1="260.35593165167523" x2="68.25346158647349" y2="260.35593165167523" stroke="#FFFFFF" stroke-width="0.5"/><line x1="179.94094418252104" y1="260.35593165167523" x2="192.35066447097074" y2="260.35593165167523" stroke="#FFFFFF" stroke-width="0.5"/><line x1="304.0381470670183" y1="260.35593165167523" x2="316.447867355468" y2="260.35593165167523" stroke="#FFFFFF" stroke-width="0.5"/><line x1="428.13534995151554" y1="260.35593165167523" x2="440.5450702399653" y2="260.35593165167523" stroke="#FFFFFF" stroke-width="0.5"/><line x1="117.8923427402724" y1="367.82410934964986" x2="130.3020630287221" y2="367.82410934964986" stroke="#FFFFFF" stroke-width="0.5"/><line x1="241.98954562476968" y1="367.82410934964986" x2="254.39926591321938" y2="367.82410934964986" stroke="#FFFFFF" stroke-width="0.5"/><line x1="366.0867485092669" y1="367.82410934964986" x2="378.49646879771666" y2="367.82410934964986" stroke="#FFFFFF" stroke-width="0.5"/><line x1="490.1839513937642" y1="367.82410934964986" x2="502.59367168221394" y2="367.82410934964986" stroke="#FFFFFF" stroke-width="0.5"/><line x1="55.84374129802377" y1="475.2922870476245" x2="68.25346158647349" y2="475.2922870476245" stroke="#FFFFFF" stroke-width="0.5"/><line x1="179.94094418252104" y1="475.2922870476245" x2="192.35066447097074" y2="475.2922870476245" stroke="#FFFFFF" stroke-width="0.5"/><line x1="304.0381470670183" y1="475.2922870476245" x2="316.447867355468" y2="475.2922870476245" stroke="#FFFFFF" stroke-width="0.5"/><line x1="428.13534995151554" y1="475.2922870476245" x2="440.5450702399653" y2="475.2922870476245" stroke="#FFFFFF" stroke-width="0.5"/></g></svg>