<svg xmlns="http://www.w3.org/2000/svg" width="512" height="512" viewBox="0 0 512 512"><rect x="0" y="0" width="512" height="512" fill="#000000"/><g opacity="0.09592970015757238"><path d="M -75.58487242176203,-143.61125760134786 L -61.12233321514337,-110.50053072073341 L -27.48295416166883,-123.68679068185523 L -40.66921412279065,-90.04741162838069 L -7.558487242176199,-75.58487242176203 L -40.66921412279065,-61.12233321514337 L -27.48295416166883,-27.482954161668836 L -61.12233321514337,-40.66921412279065 L -75.58487242176203,-7.558487242176199 L -90.04741162838069,-40.66921412279065 L -123.68679068185523,-27.48295416166883 L -110.5005307207334,-61.12233321514336 L -143.61125760134786,-75.58487242176201 L -110.5005307207334,-90.0474116283807 L -123.68679068185523,-123.68679068185523 L -90.0474116283807,-110.5005307207334 Z" fill="none" stroke="#FFFFFF" stroke-width="2.5724484334105853" /><path d="M 75.58487242176203,-143.61125760134786 L 90.04741162838069,-110.50053072073341 L 123.68679068185523,-123.68679068185523 L 110.50053072073341,-90.04741162838069 L 143.61125760134786,-75.58487242176203 L 110.50053072073341,-61.12233321514337 L 123.68679068185523,-27.482954161668836 L 90.04741162838069,-40.66921412279065 L 75.58487242176203,-7.558487242176199 L 61.12233321514338,-40.66921412279065 L 27.482954161668836,-27.48295416166883 L 40.66921412279066,-61.12233321514336 L 7.558487242176199,-75.58487242176201 L 40.669214122790656,-90.0474116283807 L 27.48295416166882,-123.68679068185523 L 61.12233321514336,-110.5005307207334 Z" fill="none" stroke="#FFFFFF" stroke-width="2.5724484334105853" /><path d="M 226.75461726528607,-143.61125760134786 L 241.21715647190473,-110.50053072073341 L 274.8565355253793,-123.68679068185523 L 261.67027556425745,-90.04741162838069 L 294.7810024448719,-75.58487242176203 L 261.67027556425745,-61.12233321514337 L 274.8565355253793,-27.482954161668836 L 241.21715647190473,-40.66921412279065 L 226.75461726528607,-7.558487242176199 L 212.2920780586674,-40.66921412279065 L 178.6526990051929,-27.48295416166883 L 191.8389589663147,-61.12233321514336 L 158.72823208570026,-75.58487242176201 L 191.8389589663147,-90.0474116283807 L 178.65269900519286,-123.68679068185523 L 212.29207805866739,-110.5005307207334 Z" fill="none" stroke="#FFFFFF" stroke-width="2.5724484334105853" /><path d="M 377.9243621088101,-143.61125760134786 L 392.38690131542876,-110.50053072073341 L 426.0262803689033,-123.68679068185523 L 412.8400204077815,-90.04741162838069 L 445.9507472883959,-75.58487242176203 L 412.8400204077815,-61.12233321514337 L 426.0262803689033,-27.482954161668836 L 392.38690131542876,-40.66921412279065 L 377.9243621088101,-7.558487242176199 L 363.46182290219144,-40.66921412279065 L 329.8224438487169,-27.48295416166883 L 343.0087038098387,-61.12233321514336 L 309.8979769292243,-75.58487242176201 L 343.0087038098387,-90.0474116283807 L 329.8224438487169,-123.68679068185523 L 363.46182290219144,-110.5005307207334 Z" fill="none" stroke="#FFFFFF" stroke-width="2.5724484334105853" /><path d="M 529.0941069523342,-143.61125760134786 L 543.5566461589528,-110.50053072073341 L 577.1960252124273,-123.68679068185523 L 564.0097652513056,-90.04741162838069 L 597.1204921319201,-75.58487242176203 L 564.0097652513056,-61.12233321514337 L 577.1960252124273,-27.482954161668836 L 543.5566461589528,-40.66921412279065 L 529.0941069523342,-7.558487242176199 L 514.6315677457155,-40.66921412279065 L 480.992188692241,-27.48295416166883 L 494.1784486533628,-61.12233321514336 L 461.06772177274837,-75.58487242176201 L 494.1784486533628,-90.0474116283807 L 480.992188692241,-123.68679068185523 L 514.6315677457155,-110.5005307207334 Z" fill="none" stroke="#FFFFFF" stroke-width="2.5724484334105853" /><path d="M 4.165414743387237e-15,-12.698258566856026 L 14.462539206618656,20.412468313758424 L 48.1019182600932,7.226208352636611 L 34.91565829897138,40.865587406111146 L 68.02638517958583,55.328126612729804 L 34.91565829897138,69.79066581934846 L 48.1019182600932,103.430044872823 L 14.462539206618656,90.24378491170118 L 4.165414743387237e-15,123.35451179231563 L -14.462539206618652,90.24378491170118 L -48.10191826009319,103.430044872823 L -34.915658298971366,69.79066581934848 L -68.02638517958583,55.32812661272981 L -34.91565829897137,40.86558740611114 L -48.10191826009321,7.226208352636611 L -14.462539206618676,20.41246831375844 Z" fill="none" stroke="#FFFFFF" stroke-width="2.5724484334105853" /><path d="M 151.16974484352406,-12.698258566856026 L 165.63228405014272,20.412468313758424 L 199.27166310361724,7.226208352636611 L 186.08540314249544,40.865587406111146 L 219.1961300231099,55.328126612729804 L 186.08540314249544,69.79066581934846 L 199.27166310361724,103.430044872823 L 165.63228405014272,90.24378491170118 L 151.16974484352406,123.35451179231563 L 136.7072056369054,90.24378491170118 L 103.06782658343087,103.430044872823 L 116.25408654455269,69.79066581934848 L 83.14335966393823,55.32812661272981 L 116.25408654455268,40.86558740611114 L 103.06782658343084,7.226208352636611 L 136.70720563690537,20.41246831375844 Z" fill="none" stroke="#FFFFFF" stroke-width="2.5724484334105853" /><path d="M 302.3394896870481,-12.698258566856026 L 316.8020288936668,20.412468313758424 L 350.44140794714133,7.226208352636611 L 337.2551479860195,40.865587406111146 L 370.36587486663393,55.328126612729804 L 337.2551479860195,69.79066581934846 L 350.44140794714133,103.430044872823 L 316.8020288936668,90.24378491170118 L 302.3394896870481,123.35451179231563 L 287.87695048042946,90.24378491170118 L 254.23757142695493,103.430044872823 L 267.42383138807674,69.79066581934848 L 234.3131045074623,55.32812661272981 L 267.42383138807674,40.86558740611114 L 254.2375714269549,7.226208352636611 L 287.87695048042946,20.41246831375844 Z" fill="none" stroke="#FFFFFF" stroke-width="2.5724484334105853" /><path d="M 453.50923453057214,-12.698258566856026 L 467.9717737371908,20.412468313758424 L 501.61115279066536,7.226208352636611 L 488.4248928295435,40.865587406111146 L 521.535619710158,55.328126612729804 L 488.4248928295435,69.79066581934846 L 501.61115279066536,103.430044872823 L 467.9717737371908,90.24378491170118 L 453.50923453057214,123.35451179231563 L 439.0466953239535,90.24378491170118 L 405.40731627047893,103.430044872823 L 418.59357623160076,69.79066581934848 L 385.4828493509863,55.32812661272981 L 418.59357623160076,40.86558740611114 L 405.40731627047893,7.226208352636611 L 439.0466953239535,20.41246831375844 Z" fill="none" stroke="#FFFFFF" stroke-width="2.5724484334105853" /><path d="M 604.6789793740962,-12.698258566856026 L 619.1415185807149,20.412468313758424 L 652.7808976341894,7.226208352636611 L 639.5946376730676,40.865587406111146 L 672.7053645536821,55.328126612729804 L 639.5946376730676,69.79066581934846 L 652.7808976341894,103.430044872823 L 619.1415185807149,90.24378491170118 L 604.6789793740962,123.35451179231563 L 590.2164401674776,90.24378491170118 L 556.5770611140031,103.430044872823 L 569.7633210751248,69.79066581934848 L 536.6525941945104,55.32812661272981 L 569.7633210751248,40.86558740611114 L 556.5770611140031,7.226208352636611 L 590.2164401674776,20.41246831375844 Z" fill="none" stroke="#FFFFFF" stroke-width="2.5724484334105853" /><path d="M -75.58487242176203,118.21474046763579 L -61.12233321514337,151.32546734825024 L -27.48295416166883,138.13920738712844 L -40.66921412279065,171.77858644060296 L -7.558487242176199,186.24112564722162 L -40.66921412279065,200.70366485384028 L -27.48295416166883,234.3430439073148 L -61.12233321514337,221.156783946193 L -75.58487242176203,254.26751082680744 L -90.04741162838069,221.156783946193 L -123.68679068185523,234.34304390731484 L -110.5005307207334,200.7036648538403 L -143.61125760134786,186.24112564722162 L -110.5005307207334,171.77858644060296 L -123.68679068185523,138.13920738712844 L -90.0474116283807,151.32546734825024 Z" fill="none" stroke="#FFFFFF" stroke-width="2.5724484334105853" /><path d="M 75.58487242176203,118.21474046763579 L 90.04741162838069,151.32546734825024 L 123.68679068185523,138.13920738712844 L 110.50053072073341,171.77858644060296 L 143.61125760134786,186.24112564722162 L 110.50053072073341,200.70366485384028 L 123.68679068185523,234.3430439073148 L 90.04741162838069,221.156783946193 L 75.58487242176203,254.26751082680744 L 61.12233321514338,221.156783946193 L 27.482954161668836,234.34304390731484 L 40.66921412279066,200.7036648538403 L 7.558487242176199,186.24112564722162 L 40.669214122790656,171.77858644060296 L 27.48295416166882,138.13920738712844 L 61.12233321514336,151.32546734825024 Z" fill="none" stroke="#FFFFFF" stroke-width="2.5724484334105853" /><path d="M 226.75461726528607,118.21474046763579 L 241.21715647190473,151.32546734825024 L 274.8565355253793,138.13920738712844 L 261.67027556425745,171.77858644060296 L 294.7810024448719,186.24112564722162 L 261.67027556425745,200.70366485384028 L 274.8565355253793,234.3430439073148 L 241.21715647190473,221.156783946193 L 226.75461726528607,254.26751082680744 L 212.2920780586674,221.156783946193 L 178.6526990051929,234.34304390731484 L 191.8389589663147,200.7036648538403 L 158.72823208570026,186.24112564722162 L 191.8389589663147,171.77858644060296 L 178.65269900519286,138.13920738712844 L 212.29207805866739,151.32546734825024 Z" fill="none" stroke="#FFFFFF" stroke-width="2.5724484334105853" /><path d="M 377.9243621088101,118.21474046763579 L 392.38690131542876,151.32546734825024 L 426.0262803689033,138.13920738712844 L 412.8400204077815,171.77858644060296 L 445.9507472883959,186.24112564722162 L 412.8400204077815,200.70366485384028 L 426.0262803689033,234.3430439073148 L 392.38690131542876,221.156783946193 L 377.9243621088101,254.26751082680744 L 363.46182290219144,221.156783946193 L 329.8224438487169,234.34304390731484 L 343.0087038098387,200.7036648538403 L 309.8979769292243,186.24112564722162 L 343.0087038098387,171.77858644060296 L 329.8224438487169,138.13920738712844 L 363.46182290219144,151.32546734825024 Z" fill="none" stroke="#FFFFFF" stroke-width="2.5724484334105853" /><path d="M 529.0941069523342,118.21474046763579 L 543.5566461589528,151.32546734825024 L 577.1960252124273,138.13920738712844 L 564.0097652513056,171.77858644060296 L 597.1204921319201,186.24112564722162 L 564.0097652513056,200.70366485384028 L 577.1960252124273,234.3430439073148 L 543.5566461589528,221.156783946193 L 529.0941069523342,254.26751082680744 L 514.6315677457155,221.156783946193 L 480.992188692241,234.34304390731484 L 494.1784486533628,200.7036648538403 L 461.06772177274837,186.24112564722162 L 494.1784486533628,171.77858644060296 L 480.992188692241,138.13920738712844 L 514.6315677457155,151.32546734825024 Z" fill="none" stroke="#FFFFFF" stroke-width="2.5724484334105853" /><path d="M 4.165414743387237e-15,249.1277395021276 L 14.462539206618656,282.23846638274205 L 48.1019182600932,269.0522064216202 L 34.91565829897138,302.69158547509477 L 68.02638517958583,317.1541246817134 L 34.91565829897138,331.6166638883321 L 48.1019182600932,365.25604294180664 L 14.462539206618656,352.0697829806848 L 4.165414743387237e-15,385.18050986129924 L -14.462539206618652,352.0697829806848 L -48.10191826009319,365.25604294180664 L -34.915658298971366,331.6166638883321 L -68.02638517958583,317.1541246817134 L -34.91565829897137,302.69158547509477 L -48.10191826009321,269.0522064216202 L -14.462539206618676,282.23846638274205 Z" fill="none" stroke="#FFFFFF" stroke-width="2.5724484334105853" /><path d="M 151.16974484352406,249.1277395021276 L 165.63228405014272,282.23846638274205 L 199.27166310361724,269.0522064216202 L 186.08540314249544,302.69158547509477 L 219.1961300231099,317.1541246817134 L 186.08540314249544,331.6166638883321 L 199.27166310361724,365.25604294180664 L 165.63228405014272,352.0697829806848 L 151.16974484352406,385.18050986129924 L 136.7072056369054,352.0697829806848 L 103.06782658343087,365.25604294180664 L 116.25408654455269,331.6166638883321 L 83.14335966393823,317.1541246817134 L 116.25408654455268,302.69158547509477 L 103.06782658343084,269.0522064216202 L 136.70720563690537,282.23846638274205 Z" fill="none" stroke="#FFFFFF" stroke-width="2.5724484334105853" /><path d="M 302.3394896870481,249.1277395021276 L 316.8020288936668,282.23846638274205 L 350.44140794714133,269.0522064216202 L 337.2551479860195,302.69158547509477 L 370.36587486663393,317.1541246817134 L 337.2551479860195,331.6166638883321 L 350.44140794714133,365.25604294180664 L 316.8020288936668,352.0697829806848 L 302.3394896870481,385.18050986129924 L 287.87695048042946,352.0697829806848 L 254.23757142695493,365.25604294180664 L 267.42383138807674,331.6166638883321 L 234.3131045074623,317.1541246817134 L 267.42383138807674,302.69158547509477 L 254.2375714269549,269.0522064216202 L 287.87695048042946,282.23846638274205 Z" fill="none" stroke="#FFFFFF" stroke-width="2.5724484334105853" /><path d="M 453.50923453057214,249.1277395021276 L 467.9717737371908,282.23846638274205 L 501.61115279066536,269.0522064216202 L 488.4248928295435,302.69158547509477 L 521.535619710158,317.1541246817134 L 488.4248928295435,331.6166638883321 L 501.61115279066536,365.25604294180664 L 467.9717737371908,352.0697829806848 L 453.50923453057214,385.18050986129924 L 439.0466953239535,352.0697829806848 L 405.40731627047893,365.25604294180664 L 418.59357623160076,331.6166638883321 L 385.4828493509863,317.1541246817134 L 418.59357623160076,302.69158547509477 L 405.40731627047893,269.0522064216202 L 439.0466953239535,282.23846638274205 Z" fill="none" stroke="#FFFFFF" stroke-width="2.5724484334105853" /><path d="M 604.6789793740962,249.1277395021276 L 619.1415185807149,282.23846638274205 L 652.7808976341894,269.0522064216202 L 639.5946376730676,302.69158547509477 L 672.7053645536821,317.1541246817134 L 639.5946376730676,331.6166638883321 L 652.7808976341894,365.25604294180664 L 619.1415185807149,352.0697829806848 L 604.6789793740962,385.18050986129924 L 590.2164401674776,352.0697829806848 L 556.5770611140031,365.25604294180664 L 569.7633210751248,331.6166638883321 L 536.6525941945104,317.1541246817134 L 569.7633210751248,302.69158547509477 L 556.5770611140031,269.0522064216202 L 590.2164401674776,282.23846638274205 Z" fill="none" stroke="#FFFFFF" stroke-width="2.5724484334105853" /><path d="M -75.58487242176203,380.0407385366195 L -61.12233321514337,413.1514654172339 L -27.48295416166883,399.9652054561121 L -40.66921412279065,433.60458450958663 L -7.558487242176199,448.0671237162053 L -40.66921412279065,462.52966292282395 L -27.48295416166883,496.1690419762985 L -61.12233321514337,482.98278201517667 L -75.58487242176203,516.0935088957912 L -90.04741162838069,482.98278201517667 L -123.68679068185523,496.1690419762985 L -110.5005307207334,462.52966292282395 L -143.61125760134786,448.0671237162053 L -110.5005307207334,433.60458450958663 L -123.68679068185523,399.9652054561121 L -90.0474116283807,413.1514654172339 Z" fill="none" stroke="#FFFFFF" stroke-width="2.5724484334105853" /><path d="M 75.58487242176203,380.0407385366195 L 90.04741162838069,413.1514654172339 L 123.68679068185523,399.9652054561121 L 110.50053072073341,433.60458450958663 L 143.61125760134786,448.0671237162053 L 110.50053072073341,462.52966292282395 L 123.68679068185523,496.1690419762985 L 90.04741162838069,482.98278201517667 L 75.58487242176203,516.0935088957912 L 61.12233321514338,482.98278201517667 L 27.482954161668836,496.1690419762985 L 40.66921412279066,462.52966292282395 L 7.558487242176199,448.0671237162053 L 40.669214122790656,433.60458450958663 L 27.48295416166882,399.9652054561121 L 61.12233321514336,413.1514654172339 Z" fill="none" stroke="#FFFFFF" stroke-width="2.5724484334105853" /><path d="M 226.75461726528607,380.0407385366195 L 241.21715647190473,413.1514654172339 L 274.8565355253793,399.9652054561121 L 261.67027556425745,433.60458450958663 L 294.7810024448719,448.0671237162053 L 261.67027556425745,462.52966292282395 L 274.8565355253793,496.1690419762985 L 241.21715647190473,482.98278201517667 L 226.75461726528607,516.0935088957912 L 212.2920780586674,482.98278201517667 L 178.6526990051929,496.1690419762985 L 191.8389589663147,462.52966292282395 L 158.72823208570026,448.0671237162053 L 191.8389589663147,433.60458450958663 L 178.65269900519286,399.9652054561121 L 212.29207805866739,413.1514654172339 Z" fill="none" stroke="#FFFFFF" stroke-width="2.5724484334105853" /><path d="M 377.9243621088101,380.0407385366195 L 392.38690131542876,413.1514654172339 L 426.0262803689033,399.9652054561121 L 412.8400204077815,433.60458450958663 L 445.9507472883959,448.0671237162053 L 412.8400204077815,462.52966292282395 L 426.0262803689033,496.1690419762985 L 392.38690131542876,482.98278201517667 L 377.9243621088101,516.0935088957912 L 363.46182290219144,482.98278201517667 L 329.8224438487169,496.1690419762985 L 343.0087038098387,462.52966292282395 L 309.8979769292243,448.0671237162053 L 343.0087038098387,433.60458450958663 L 329.8224438487169,399.9652054561121 L 363.46182290219144,413.1514654172339 Z" fill="none" stroke="#FFFFFF" stroke-width="2.5724484334105853" /><path d="M 529.0941069523342,380.0407385366195 L 543.5566461589528,413.1514654172339 L 577.1960252124273,399.9652054561121 L 564.0097652513056,433.60458450958663 L 597.1204921319201,448.0671237162053 L 564.0097652513056,462.52966292282395 L 577.1960252124273,496.1690419762985 L 543.5566461589528,482.98278201517667 L 529.0941069523342,516.0935088957912 L 514.6315677457155,482.98278201517667 L 480.992188692241,496.1690419762985 L 494.1784486533628,462.52966292282395 L 461.06772177274837,448.0671237162053 L 494.1784486533628,433.60458450958663 L 480.992188692241,399.9652054561121 L 514.6315677457155,413.1514654172339 Z" fill="none" stroke="#FFFFFF" stroke-width="2.5724484334105853" /><path d="M 4.165414743387237e-15,510.9537375711113 L 14.462539206618656,544.0644644517257 L 48.1019182600932,530.8782044906039 L 34.91565829897138,564.5175835440784 L 68.02638517958583,578.9801227506971 L 34.91565829897138,593.4426619573157 L 48.1019182600932,627.0820410107902 L 14.462539206618656,613.8957810496685 L 4.165414743387237e-15,647.006507930283 L -14.462539206618652,613.8957810496685 L -48.10191826009319,627.0820410107902 L -34.915658298971366,593.4426619573157 L -68.02638517958583,578.9801227506971 L -34.91565829897137,564.5175835440784 L -48.10191826009321,530.8782044906039 L -14.462539206618676,544.0644644517257 Z" fill="none" stroke="#FFFFFF" stroke-width="2.5724484334105853" /><path d="M 151.16974484352406,510.9537375711113 L 165.63228405014272,544.0644644517257 L 199.27166310361724,530.8782044906039 L 186.08540314249544,564.5175835440784 L 219.1961300231099,578.9801227506971 L 186.08540314249544,593.4426619573157 L 199.27166310361724,627.0820410107902 L 165.63228405014272,613.8957810496685 L 151.16974484352406,647.006507930283 L 136.7072056369054,613.8957810496685 L 103.06782658343087,627.0820410107902 L 116.25408654455269,593.4426619573157 L 83.14335966393823,578.9801227506971 L 116.25408654455268,564.5175835440784 L 103.06782658343084,530.8782044906039 L 136.70720563690537,544.0644644517257 Z" fill="none" stroke="#FFFFFF" stroke-width="2.5724484334105853" /><path d="M 302.3394896870481,510.9537375711113 L 316.8020288936668,544.0644644517257 L 350.44140794714133,530.8782044906039 L 337.2551479860195,564.5175835440784 L 370.36587486663393,578.9801227506971 L 337.2551479860195,593.4426619573157 L 350.44140794714133,627.0820410107902 L 316.8020288936668,613.8957810496685 L 302.3394896870481,647.006507930283 L 287.87695048042946,613.8957810496685 L 254.23757142695493,627.0820410107902 L 267.42383138807674,593.4426619573157 L 234.3131045074623,578.9801227506971 L 267.42383138807674,564.5175835440784 L 254.2375714269549,530.8782044906039 L 287.87695048042946,544.0644644517257 Z" fill="none" stroke="#FFFFFF" stroke-width="2.5724484334105853" /><path d="M 453.50923453057214,510.9537375711113 L 467.9717737371908,544.0644644517257 L 501.61115279066536,530.8782044906039 L 488.4248928295435,564.5175835440784 L 521.535619710158,578.9801227506971 L 488.4248928295435,593.4426619573157 L 501.61115279066536,627.0820410107902 L 467.9717737371908,613.8957810496685 L 453.50923453057214,647.006507930283 L 439.0466953239535,613.8957810496685 L 405.40731627047893,627.0820410107902 L 418.59357623160076,593.4426619573157 L 385.4828493509863,578.9801227506971 L 418.59357623160076,564.5175835440784 L 405.40731627047893,530.8782044906039 L 439.0466953239535,544.0644644517257 Z" fill="none" stroke="#FFFFFF" stroke-width="2.5724484334105853" /><path d="M 604.6789793740962,510.9537375711113 L 619.1415185807149,544.0644644517257 L 652.7808976341894,530.8782044906039 L 639.5946376730676,564.5175835440784 L 672.7053645536821,578.9801227506971 L 639.5946376730676,593.4426619573157 L 652.7808976341894,627.0820410107902 L 619.1415185807149,613.8957810496685 L 604.6789793740962,647.006507930283 L 590.2164401674776,613.8957810496685 L 556.5770611140031,627.0820410107902 L 569.7633210751248,593.4426619573157 L 536.6525941945104,578.9801227506971 L 569.7633210751248,564.5175835440784 L 556.5770611140031,530.8782044906039 L 590.2164401674776,544.0644644517257 Z" fill="none" stroke="#FFFFFF" stroke-width="2.5724484334105853" /><line x1="68.02638517958583" y1="55.328126612729804" x2="83.14335966393823" y2="55.328126612729804" stroke="#FFFFFF" stroke-width="0.5"/><line x1="219.1961300231099" y1="55.328126612729804" x2="234.3131045074623" y2="55.328126612729804" stroke="#FFFFFF" stroke-width="0.5"/><line x1="370.36587486663393" y1="55.328126612729804" x2="385.4828493509863" y2="55.328126612729804" stroke="#FFFFFF" stroke-width="0.5"/><line x1="143.61125760134786" y1="186.24112564722162" x2="158.72823208570026" y2="186.24112564722162" stroke="#FFFFFF" stroke-width="0.5"/><line x1="294.7810024448719" y1="186.24112564722162" x2="309.8979769292243" y2="186.24112564722162" stroke="#FFFFFF" stroke-width="0.5"/><line x1="445.9507472883959" y1="186.24112564722162" x2="461.06772177274837" y2="186.24112564722162" stroke="#FFFFFF" stroke-width="0.5"/><line x1="68.02638517958583" y1="317.1541246817134" x2="83.14335966393823" y2="317.1541246817134" stroke="#FFFFFF" stroke-width="0.5"/><line x1="219.1961300231099" y1="317.1541246817134" x2="234.3131045074623" y2="317.1541246817134" stroke="#FFFFFF" stroke-width="0.5"/><line x1="370.36587486663393" y1="317.1541246817134" x2="385.4828493509863" y2="317.1541246817134" stroke="#FFFFFF" stroke-width="0.5"/><line x1="143.61125760134786" y1="448.0671237162053" x2="158.72823208570026" y2="448.0671237162053" stroke="#FFFFFF" stroke-width="0.5"/><line x1="294.7810024448719" y1="448.0671237162053" x2="309.8979769292243" y2="448.0671237162053" stroke="#FFFFFF" stroke-width="0.5"/><line x1="445.9507472883959" y1="448.0671237162053" x2="461.06772177274837" y2="448.0671237162053" stroke="#FFFFFF" stroke-width="0.5"/></g></svg>