<svg xmlns="http://www.w3.org/2000/svg" width="512" height="512" viewBox="0 0 512 512"><rect x="0" y="0" width="512" height="512" fill="#000000"/><g opacity="0.0960290223574401"><path d="M -32.796469254320634,-62.31329158320921 L -26.521136542470856,-47.9464625956719 L -11.92492402648502,-53.668014482156245 L -17.646475912969365,-39.07180196617041 L -3.2796469254320613,-32.796469254320634 L -17.646475912969365,-26.521136542470856 L -11.92492402648502,-11.924924026485023 L -26.521136542470856,-17.646475912969365 L -32.796469254320634,-3.2796469254320613 L -39.07180196617041,-17.646475912969365 L -53.668014482156245,-11.92492402648502 L -47.946462595671896,-26.52113654247085 L -62.31329158320921,-32.79646925432063 L -47.9464625956719,-39.07180196617042 L -53.66801448215625,-53.668014482156245 L -39.07180196617042,-47.946462595671896 Z" fill="none" stroke="#00A86B" stroke-width="1.2208633426208344" /><path d="M 32.796469254320634,-62.31329158320921 L 39.07180196617041,-47.9464625956719 L 53.66801448215625,-53.668014482156245 L 47.9464625956719,-39.07180196617041 L 62.31329158320921,-32.796469254320634 L 47.9464625956719,-26.521136542470856 L 53.66801448215625,-11.924924026485023 L 39.07180196617041,-17.646475912969365 L 32.796469254320634,-3.2796469254320613 L 26.521136542470856,-17.646475912969365 L 11.924924026485023,-11.92492402648502 L 17.646475912969372,-26.52113654247085 L 3.2796469254320613,-32.79646925432063 L 17.64647591296937,-39.07180196617042 L 11.924924026485016,-53.668014482156245 L 26.521136542470845,-47.946462595671896 Z" fill="none" stroke="#00A86B" stroke-width="1.2208633426208344" /><path d="M 98.3894077629619,-62.31329158320921 L 104.66474047481168,-47.9464625956719 L 119.2609529907975,-53.668014482156245 L 113.53940110431316,-39.07180196617041 L 127.90623009185046,-32.796469254320634 L 113.53940110431316,-26.521136542470856 L 119.2609529907975,-11.924924026485023 L 104.66474047481168,-17.646475912969365 L 98.3894077629619,-3.2796469254320613 L 92.11407505111211,-17.646475912969365 L 77.51786253512628,-11.92492402648502 L 83.23941442161063,-26.52113654247085 L 68.87258543407333,-32.79646925432063 L 83.23941442161063,-39.07180196617042 L 77.51786253512628,-53.668014482156245 L 92.11407505111211,-47.946462595671896 Z" fill="none" stroke="#00A86B" stroke-width="1.2208633426208344" /><path d="M 163.98234627160315,-62.31329158320921 L 170.25767898345293,-47.9464625956719 L 184.85389149943876,-53.668014482156245 L 179.1323396129544,-39.07180196617041 L 193.4991686004917,-32.796469254320634 L 179.1323396129544,-26.521136542470856 L 184.85389149943876,-11.924924026485023 L 170.25767898345293,-17.646475912969365 L 163.98234627160315,-3.2796469254320613 L 157.70701355975336,-17.646475912969365 L 143.11080104376754,-11.92492402648502 L 148.8323529302519,-26.52113654247085 L 134.46552394271458,-32.79646925432063 L 148.8323529302519,-39.07180196617042 L 143.11080104376754,-53.668014482156245 L 157.70701355975336,-47.946462595671896 Z" fill="none" stroke="#00A86B" stroke-width="1.2208633426208344" /><path d="M 229.57528478024443,-62.31329158320921 L 235.85061749209422,-47.9464625956719 L 250.44683000808004,-53.668014482156245 L 244.7252781215957,-39.07180196617041 L 259.092107109133,-32.796469254320634 L 244.7252781215957,-26.521136542470856 L 250.44683000808004,-11.924924026485023 L 235.85061749209422,-17.646475912969365 L 229.57528478024443,-3.2796469254320613 L 223.29995206839465,-17.646475912969365 L 208.70373955240882,-11.92492402648502 L 214.42529143889317,-26.52113654247085 L 200.05846245135587,-32.79646925432063 L 214.42529143889317,-39.07180196617042 L 208.70373955240882,-53.668014482156245 L 223.29995206839465,-47.946462595671896 Z" fill="none" stroke="#00A86B" stroke-width="1.2208633426208344" /><path d="M 295.1682232888857,-62.31329158320921 L 301.4435560007355,-47.9464625956719 L 316.0397685167213,-53.668014482156245 L 310.318216630237,-39.07180196617041 L 324.6850456177743,-32.796469254320634 L 310.318216630237,-26.521136542470856 L 316.0397685167213,-11.924924026485023 L 301.4435560007355,-17.646475912969365 L 295.1682232888857,-3.2796469254320613 L 288.8928905770359,-17.646475912969365 L 274.2966780610501,-11.92492402648502 L 280.01822994753445,-26.52113654247085 L 265.65140095999715,-32.79646925432063 L 280.01822994753445,-39.07180196617042 L 274.2966780610501,-53.668014482156245 L 288.8928905770359,-47.946462595671896 Z" fill="none" stroke="#00A86B" stroke-width="1.2208633426208344" /><path d="M 360.76116179752694,-62.31329158320921 L 367.0364945093767,-47.9464625956719 L 381.63270702536255,-53.668014482156245 L 375.9111551388782,-39.07180196617041 L 390.2779841264155,-32.796469254320634 L 375.9111551388782,-26.521136542470856 L 381.63270702536255,-11.924924026485023 L 367.0364945093767,-17.646475912969365 L 360.76116179752694,-3.2796469254320613 L 354.48582908567715,-17.646475912969365 L 339.8896165696913,-11.92492402648502 L 345.6111684561757,-26.52113654247085 L 331.2443394686384,-32.79646925432063 L 345.6111684561757,-39.07180196617042 L 339.8896165696913,-53.668014482156245 L 354.48582908567715,-47.946462595671896 Z" fill="none" stroke="#00A86B" stroke-width="1.2208633426208344" /><path d="M 426.3541003061682,-62.31329158320921 L 432.629433018018,-47.9464625956719 L 447.22564553400383,-53.668014482156245 L 441.5040936475195,-39.07180196617041 L 455.8709226350568,-32.796469254320634 L 441.5040936475195,-26.521136542470856 L 447.22564553400383,-11.924924026485023 L 432.629433018018,-17.646475912969365 L 426.3541003061682,-3.2796469254320613 L 420.07876759431844,-17.646475912969365 L 405.4825550783326,-11.92492402648502 L 411.20410696481696,-26.52113654247085 L 396.83727797727965,-32.79646925432063 L 411.20410696481696,-39.07180196617042 L 405.4825550783326,-53.668014482156245 L 420.07876759431844,-47.946462595671896 Z" fill="none" stroke="#00A86B" stroke-width="1.2208633426208344" /><path d="M 491.9470388148095,-62.31329158320921 L 498.2223715266593,-47.9464625956719 L 512.8185840426452,-53.668014482156245 L 507.09703215616076,-39.07180196617041 L 521.4638611436981,-32.796469254320634 L 507.09703215616076,-26.521136542470856 L 512.8185840426452,-11.924924026485023 L 498.2223715266593,-17.646475912969365 L 491.9470388148095,-3.2796469254320613 L 485.6717061029597,-17.646475912969365 L 471.0754935869739,-11.92492402648502 L 476.79704547345824,-26.52113654247085 L 462.43021648592094,-32.79646925432063 L 476.79704547345824,-39.07180196617042 L 471.0754935869739,-53.668014482156245 L 485.6717061029597,-47.946462595671896 Z" fill="none" stroke="#00A86B" stroke-width="1.2208633426208344" /><path d="M 557.5399773234508,-62.31329158320921 L 563.8153100353005,-47.9464625956719 L 578.4115225512865,-53.668014482156245 L 572.6899706648021,-39.07180196617041 L 587.0567996523394,-32.796469254320634 L 572.6899706648021,-26.521136542470856 L 578.4115225512865,-11.924924026485023 L 563.8153100353005,-17.646475912969365 L 557.5399773234508,-3.2796469254320613 L 551.264644611601,-17.646475912969365 L 536.6684320956151,-11.92492402648502 L 542.3899839820995,-26.52113654247085 L 528.0231549945622,-32.79646925432063 L 542.3899839820995,-39.07180196617042 L 536.6684320956151,-53.668014482156245 L 551.2646446116009,-47.946462595671896 Z" fill="none" stroke="#00A86B" stroke-width="1.2208633426208344" /><path d="M 1.8073840993037256e-15,-5.509806834725872 L 6.27533271184978,8.857022152811433 L 20.871545227835615,3.13547026632709 L 15.149993341351268,17.731682782312923 L 29.516822328888573,24.0070154941627 L 15.149993341351268,30.28234820601248 L 20.871545227835615,44.87856072199831 L 6.27533271184978,39.15700883551397 L 1.8073840993037256e-15,53.523837823051274 L -6.275332711849778,39.15700883551397 L -20.87154522783561,44.87856072199831 L -15.149993341351264,30.282348206012486 L -29.516822328888573,24.007015494162705 L -15.149993341351266,17.731682782312916 L -20.871545227835618,3.13547026632709 L -6.275332711849788,8.857022152811437 Z" fill="none" stroke="#00A86B" stroke-width="1.2208633426208344" /><path d="M 65.59293850864127,-5.509806834725872 L 71.86827122049105,8.857022152811433 L 86.46448373647688,3.13547026632709 L 80.74293184999253,17.731682782312923 L 95.10976083752985,24.0070154941627 L 80.74293184999253,30.28234820601248 L 86.46448373647688,44.87856072199831 L 71.86827122049105,39.15700883551397 L 65.59293850864127,53.523837823051274 L 59.31760579679149,39.15700883551397 L 44.72139328080566,44.87856072199831 L 50.442945167290006,30.282348206012486 L 36.076116179752695,24.007015494162705 L 50.442945167290006,17.731682782312916 L 44.72139328080565,3.13547026632709 L 59.31760579679148,8.857022152811437 Z" fill="none" stroke="#00A86B" stroke-width="1.2208633426208344" /><path d="M 131.18587701728254,-5.509806834725872 L 137.46120972913232,8.857022152811433 L 152.05742224511815,3.13547026632709 L 146.3358703586338,17.731682782312923 L 160.7026993461711,24.0070154941627 L 146.3358703586338,30.28234820601248 L 152.05742224511815,44.87856072199831 L 137.46120972913232,39.15700883551397 L 131.18587701728254,53.523837823051274 L 124.91054430543275,39.15700883551397 L 110.31433178944692,44.87856072199831 L 116.03588367593127,30.282348206012486 L 101.66905468839397,24.007015494162705 L 116.03588367593127,17.731682782312916 L 110.31433178944692,3.13547026632709 L 124.91054430543275,8.857022152811437 Z" fill="none" stroke="#00A86B" stroke-width="1.2208633426208344" /><path d="M 196.7788155259238,-5.509806834725872 L 203.05414823777357,8.857022152811433 L 217.6503607537594,3.13547026632709 L 211.92880886727505,17.731682782312923 L 226.29563785481236,24.0070154941627 L 211.92880886727505,30.28234820601248 L 217.6503607537594,44.87856072199831 L 203.05414823777357,39.15700883551397 L 196.7788155259238,53.523837823051274 L 190.503482814074,39.15700883551397 L 175.90727029808818,44.87856072199831 L 181.62882218457253,30.282348206012486 L 167.26199319703522,24.007015494162705 L 181.62882218457253,17.731682782312916 L 175.90727029808818,3.13547026632709 L 190.503482814074,8.857022152811437 Z" fill="none" stroke="#00A86B" stroke-width="1.2208633426208344" /><path d="M 262.3717540345651,-5.509806834725872 L 268.64708674641486,8.857022152811433 L 283.2432992624007,3.13547026632709 L 277.52174737591633,17.731682782312923 L 291.88857636345364,24.0070154941627 L 277.52174737591633,30.28234820601248 L 283.2432992624007,44.87856072199831 L 268.64708674641486,39.15700883551397 L 262.3717540345651,53.523837823051274 L 256.0964213227153,39.15700883551397 L 241.50020880672946,44.87856072199831 L 247.2217606932138,30.282348206012486 L 232.8549317056765,24.007015494162705 L 247.2217606932138,17.731682782312916 L 241.50020880672946,3.13547026632709 L 256.0964213227153,8.857022152811437 Z" fill="none" stroke="#00A86B" stroke-width="1.2208633426208344" /><path d="M 327.96469254320635,-5.509806834725872 L 334.24002525505614,8.857022152811433 L 348.83623777104197,3.13547026632709 L 343.1146858845576,17.731682782312923 L 357.4815148720949,24.0070154941627 L 343.1146858845576,30.28234820601248 L 348.83623777104197,44.87856072199831 L 334.24002525505614,39.15700883551397 L 327.96469254320635,53.523837823051274 L 321.68935983135657,39.15700883551397 L 307.09314731537074,44.87856072199831 L 312.8146992018551,30.282348206012486 L 298.4478702143178,24.007015494162705 L 312.8146992018551,17.731682782312916 L 307.09314731537074,3.13547026632709 L 321.68935983135657,8.857022152811437 Z" fill="none" stroke="#00A86B" stroke-width="1.2208633426208344" /><path d="M 393.5576310518476,-5.509806834725872 L 399.83296376369736,8.857022152811433 L 414.4291762796832,3.13547026632709 L 408.70762439319884,17.731682782312923 L 423.07445338073614,24.0070154941627 L 408.70762439319884,30.28234820601248 L 414.4291762796832,44.87856072199831 L 399.83296376369736,39.15700883551397 L 393.5576310518476,53.523837823051274 L 387.2822983399978,39.15700883551397 L 372.68608582401197,44.87856072199831 L 378.4076377104963,30.282348206012486 L 364.040808722959,24.007015494162705 L 378.4076377104963,17.731682782312916 L 372.68608582401197,3.13547026632709 L 387.2822983399978,8.857022152811437 Z" fill="none" stroke="#00A86B" stroke-width="1.2208633426208344" /><path d="M 459.15056956048886,-5.509806834725872 L 465.42590227233865,8.857022152811433 L 480.0221147883245,3.13547026632709 L 474.3005629018401,17.731682782312923 L 488.6673918893774,24.0070154941627 L 474.3005629018401,30.28234820601248 L 480.0221147883245,44.87856072199831 L 465.42590227233865,39.15700883551397 L 459.15056956048886,53.523837823051274 L 452.8752368486391,39.15700883551397 L 438.27902433265325,44.87856072199831 L 444.0005762191376,30.282348206012486 L 429.6337472316003,24.007015494162705 L 444.0005762191376,17.731682782312916 L 438.27902433265325,3.13547026632709 L 452.8752368486391,8.857022152811437 Z" fill="none" stroke="#00A86B" stroke-width="1.2208633426208344" /><path d="M 524.7435080691301,-5.509806834725872 L 531.0188407809799,8.857022152811433 L 545.6150532969658,3.13547026632709 L 539.8935014104815,17.731682782312923 L 554.2603303980187,24.0070154941627 L 539.8935014104815,30.28234820601248 L 545.6150532969658,44.87856072199831 L 531.0188407809799,39.15700883551397 L 524.7435080691301,53.523837823051274 L 518.4681753572804,39.15700883551397 L 503.87196284129453,44.87856072199831 L 509.5935147277789,30.282348206012486 L 495.2266857402416,24.007015494162705 L 509.5935147277789,17.731682782312916 L 503.87196284129453,3.13547026632709 L 518.4681753572803,8.857022152811437 Z" fill="none" stroke="#00A86B" stroke-width="1.2208633426208344" /><path d="M -32.796469254320634,51.29367791375747 L -26.521136542470856,65.66050690129478 L -11.92492402648502,59.93895501481043 L -17.646475912969365,74.53516753079626 L -3.2796469254320613,80.81050024264604 L -17.646475912969365,87.08583295449583 L -11.92492402648502,101.68204547048165 L -26.521136542470856,95.9604935839973 L -32.796469254320634,110.32732257153461 L -39.07180196617041,95.9604935839973 L -53.668014482156245,101.68204547048165 L -47.946462595671896,87.08583295449583 L -62.31329158320921,80.81050024264604 L -47.9464625956719,74.53516753079626 L -53.66801448215625,59.93895501481043 L -39.07180196617042,65.66050690129478 Z" fill="none" stroke="#00A86B" stroke-width="1.2208633426208344" /><path d="M 32.796469254320634,51.29367791375747 L 39.07180196617041,65.66050690129478 L 53.66801448215625,59.93895501481043 L 47.9464625956719,74.53516753079626 L 62.31329158320921,80.81050024264604 L 47.9464625956719,87.08583295449583 L 53.66801448215625,101.68204547048165 L 39.07180196617041,95.9604935839973 L 32.796469254320634,110.32732257153461 L 26.521136542470856,95.9604935839973 L 11.924924026485023,101.68204547048165 L 17.646475912969372,87.08583295449583 L 3.2796469254320613,80.81050024264604 L 17.64647591296937,74.53516753079626 L 11.924924026485016,59.93895501481043 L 26.521136542470845,65.66050690129478 Z" fill="none" stroke="#00A86B" stroke-width="1.2208633426208344" /><path d="M 98.3894077629619,51.29367791375747 L 104.66474047481168,65.66050690129478 L 119.2609529907975,59.93895501481043 L 113.53940110431316,74.53516753079626 L 127.90623009185046,80.81050024264604 L 113.53940110431316,87.08583295449583 L 119.2609529907975,101.68204547048165 L 104.66474047481168,95.9604935839973 L 98.3894077629619,110.32732257153461 L 92.11407505111211,95.9604935839973 L 77.51786253512628,101.68204547048165 L 83.23941442161063,87.08583295449583 L 68.87258543407333,80.81050024264604 L 83.23941442161063,74.53516753079626 L 77.51786253512628,59.93895501481043 L 92.11407505111211,65.66050690129478 Z" fill="none" stroke="#00A86B" stroke-width="1.2208633426208344" /><path d="M 163.98234627160315,51.29367791375747 L 170.25767898345293,65.66050690129478 L 184.85389149943876,59.93895501481043 L 179.1323396129544,74.53516753079626 L 193.4991686004917,80.81050024264604 L 179.1323396129544,87.08583295449583 L 184.85389149943876,101.68204547048165 L 170.25767898345293,95.9604935839973 L 163.98234627160315,110.32732257153461 L 157.70701355975336,95.9604935839973 L 143.11080104376754,101.68204547048165 L 148.8323529302519,87.08583295449583 L 134.46552394271458,80.81050024264604 L 148.8323529302519,74.53516753079626 L 143.11080104376754,59.93895501481043 L 157.70701355975336,65.66050690129478 Z" fill="none" stroke="#00A86B" stroke-width="1.2208633426208344" /><path d="M 229.57528478024443,51.29367791375747 L 235.85061749209422,65.66050690129478 L 250.44683000808004,59.93895501481043 L 244.7252781215957,74.53516753079626 L 259.092107109133,80.81050024264604 L 244.7252781215957,87.08583295449583 L 250.44683000808004,101.68204547048165 L 235.85061749209422,95.9604935839973 L 229.57528478024443,110.32732257153461 L 223.29995206839465,95.9604935839973 L 208.70373955240882,101.68204547048165 L 214.42529143889317,87.08583295449583 L 200.05846245135587,80.81050024264604 L 214.42529143889317,74.53516753079626 L 208.70373955240882,59.93895501481043 L 223.29995206839465,65.66050690129478 Z" fill="none" stroke="#00A86B" stroke-width="1.2208633426208344" /><path d="M 295.1682232888857,51.29367791375747 L 301.4435560007355,65.66050690129478 L 316.0397685167213,59.93895501481043 L 310.318216630237,74.53516753079626 L 324.6850456177743,80.81050024264604 L 310.318216630237,87.08583295449583 L 316.0397685167213,101.68204547048165 L 301.4435560007355,95.9604935839973 L 295.1682232888857,110.32732257153461 L 288.8928905770359,95.9604935839973 L 274.2966780610501,101.68204547048165 L 280.01822994753445,87.08583295449583 L 265.65140095999715,80.81050024264604 L 280.01822994753445,74.53516753079626 L 274.2966780610501,59.93895501481043 L 288.8928905770359,65.66050690129478 Z" fill="none" stroke="#00A86B" stroke-width="1.2208633426208344" /><path d="M 360.76116179752694,51.29367791375747 L 367.0364945093767,65.66050690129478 L 381.63270702536255,59.93895501481043 L 375.9111551388782,74.53516753079626 L 390.2779841264155,80.81050024264604 L 375.9111551388782,87.08583295449583 L 381.63270702536255,101.68204547048165 L 367.0364945093767,95.9604935839973 L 360.76116179752694,110.32732257153461 L 354.48582908567715,95.9604935839973 L 339.8896165696913,101.68204547048165 L 345.6111684561757,87.08583295449583 L 331.2443394686384,80.81050024264604 L 345.6111684561757,74.53516753079626 L 339.8896165696913,59.93895501481043 L 354.48582908567715,65.66050690129478 Z" fill="none" stroke="#00A86B" stroke-width="1.2208633426208344" /><path d="M 426.3541003061682,51.29367791375747 L 432.629433018018,65.66050690129478 L 447.22564553400383,59.93895501481043 L 441.5040936475195,74.53516753079626 L 455.8709226350568,80.81050024264604 L 441.5040936475195,87.08583295449583 L 447.22564553400383,101.68204547048165 L 432.629433018018,95.9604935839973 L 426.3541003061682,110.32732257153461 L 420.07876759431844,95.9604935839973 L 405.4825550783326,101.68204547048165 L 411.20410696481696,87.08583295449583 L 396.83727797727965,80.81050024264604 L 411.20410696481696,74.53516753079626 L 405.4825550783326,59.93895501481043 L 420.07876759431844,65.66050690129478 Z" fill="none" stroke="#00A86B" stroke-width="1.2208633426208344" /><path d="M 491.9470388148095,51.29367791375747 L 498.2223715266593,65.66050690129478 L 512.8185840426452,59.93895501481043 L 507.09703215616076,74.53516753079626 L 521.4638611436981,80.81050024264604 L 507.09703215616076,87.08583295449583 L 512.8185840426452,101.68204547048165 L 498.2223715266593,95.9604935839973 L 491.9470388148095,110.32732257153461 L 485.6717061029597,95.9604935839973 L 471.0754935869739,101.68204547048165 L 476.79704547345824,87.08583295449583 L 462.43021648592094,80.81050024264604 L 476.79704547345824,74.53516753079626 L 471.0754935869739,59.93895501481043 L 485.6717061029597,65.66050690129478 Z" fill="none" stroke="#00A86B" stroke-width="1.2208633426208344" /><path d="M 557.5399773234508,51.29367791375747 L 563.8153100353005,65.66050690129478 L 578.4115225512865,59.93895501481043 L 572.6899706648021,74.53516753079626 L 587.0567996523394,80.81050024264604 L 572.6899706648021,87.08583295449583 L 578.4115225512865,101.68204547048165 L 563.8153100353005,95.9604935839973 L 557.5399773234508,110.32732257153461 L 551.264644611601,95.9604935839973 L 536.6684320956151,101.68204547048165 L 542.3899839820995,87.08583295449583 L 528.0231549945622,80.81050024264604 L 542.3899839820995,74.53516753079626 L 536.6684320956151,59.93895501481043 L 551.2646446116009,65.66050690129478 Z" fill="none" stroke="#00A86B" stroke-width="1.2208633426208344" /><path d="M 1.8073840993037256e-15,108.0971626622408 L 6.27533271184978,122.46399164977811 L 20.871545227835615,116.74243976329376 L 15.149993341351268,131.3386522792796 L 29.516822328888573,137.61398499112937 L 15.149993341351268,143.88931770297916 L 20.871545227835615,158.48553021896498 L 6.27533271184978,152.76397833248063 L 1.8073840993037256e-15,167.13080732001794 L -6.275332711849778,152.76397833248063 L -20.87154522783561,158.48553021896498 L -15.149993341351264,143.88931770297916 L -29.516822328888573,137.61398499112937 L -15.149993341351266,131.3386522792796 L -20.871545227835618,116.74243976329376 L -6.275332711849788,122.46399164977811 Z" fill="none" stroke="#00A86B" stroke-width="1.2208633426208344" /><path d="M 65.59293850864127,108.0971626622408 L 71.86827122049105,122.46399164977811 L 86.46448373647688,116.74243976329376 L 80.74293184999253,131.3386522792796 L 95.10976083752985,137.61398499112937 L 80.74293184999253,143.88931770297916 L 86.46448373647688,158.48553021896498 L 71.86827122049105,152.76397833248063 L 65.59293850864127,167.13080732001794 L 59.31760579679149,152.76397833248063 L 44.72139328080566,158.48553021896498 L 50.442945167290006,143.88931770297916 L 36.076116179752695,137.61398499112937 L 50.442945167290006,131.3386522792796 L 44.72139328080565,116.74243976329376 L 59.31760579679148,122.46399164977811 Z" fill="none" stroke="#00A86B" stroke-width="1.2208633426208344" /><path d="M 131.18587701728254,108.0971626622408 L 137.46120972913232,122.46399164977811 L 152.05742224511815,116.74243976329376 L 146.3358703586338,131.3386522792796 L 160.7026993461711,137.61398499112937 L 146.3358703586338,143.88931770297916 L 152.05742224511815,158.48553021896498 L 137.46120972913232,152.76397833248063 L 131.18587701728254,167.13080732001794 L 124.91054430543275,152.76397833248063 L 110.31433178944692,158.48553021896498 L 116.03588367593127,143.88931770297916 L 101.66905468839397,137.61398499112937 L 116.03588367593127,131.3386522792796 L 110.31433178944692,116.74243976329376 L 124.91054430543275,122.46399164977811 Z" fill="none" stroke="#00A86B" stroke-width="1.2208633426208344" /><path d="M 196.7788155259238,108.0971626622408 L 203.05414823777357,122.46399164977811 L 217.6503607537594,116.74243976329376 L 211.92880886727505,131.3386522792796 L 226.29563785481236,137.61398499112937 L 211.92880886727505,143.88931770297916 L 217.6503607537594,158.48553021896498 L 203.05414823777357,152.76397833248063 L 196.7788155259238,167.13080732001794 L 190.503482814074,152.76397833248063 L 175.90727029808818,158.48553021896498 L 181.62882218457253,143.88931770297916 L 167.26199319703522,137.61398499112937 L 181.62882218457253,131.3386522792796 L 175.90727029808818,116.74243976329376 L 190.503482814074,122.46399164977811 Z" fill="none" stroke="#00A86B" stroke-width="1.2208633426208344" /><path d="M 262.3717540345651,108.0971626622408 L 268.64708674641486,122.46399164977811 L 283.2432992624007,116.74243976329376 L 277.52174737591633,131.3386522792796 L 291.88857636345364,137.61398499112937 L 277.52174737591633,143.88931770297916 L 283.2432992624007,158.48553021896498 L 268.64708674641486,152.76397833248063 L 262.3717540345651,167.13080732001794 L 256.0964213227153,152.76397833248063 L 241.50020880672946,158.48553021896498 L 247.2217606932138,143.88931770297916 L 232.8549317056765,137.61398499112937 L 247.2217606932138,131.3386522792796 L 241.50020880672946,116.74243976329376 L 256.0964213227153,122.46399164977811 Z" fill="none" stroke="#00A86B" stroke-width="1.2208633426208344" /><path d="M 327.96469254320635,108.0971626622408 L 334.24002525505614,122.46399164977811 L 348.83623777104197,116.74243976329376 L 343.1146858845576,131.3386522792796 L 357.4815148720949,137.61398499112937 L 343.1146858845576,143.88931770297916 L 348.83623777104197,158.48553021896498 L 334.24002525505614,152.76397833248063 L 327.96469254320635,167.13080732001794 L 321.68935983135657,152.76397833248063 L 307.09314731537074,158.48553021896498 L 312.8146992018551,143.88931770297916 L 298.4478702143178,137.61398499112937 L 312.8146992018551,131.3386522792796 L 307.09314731537074,116.74243976329376 L 321.68935983135657,122.46399164977811 Z" fill="none" stroke="#00A86B" stroke-width="1.2208633426208344" /><path d="M 393.5576310518476,108.0971626622408 L 399.83296376369736,122.46399164977811 L 414.4291762796832,116.74243976329376 L 408.70762439319884,131.3386522792796 L 423.07445338073614,137.61398499112937 L 408.70762439319884,143.88931770297916 L 414.4291762796832,158.48553021896498 L 399.83296376369736,152.76397833248063 L 393.5576310518476,167.13080732001794 L 387.2822983399978,152.76397833248063 L 372.68608582401197,158.48553021896498 L 378.4076377104963,143.88931770297916 L 364.040808722959,137.61398499112937 L 378.4076377104963,131.3386522792796 L 372.68608582401197,116.74243976329376 L 387.2822983399978,122.46399164977811 Z" fill="none" stroke="#00A86B" stroke-width="1.2208633426208344" /><path d="M 459.15056956048886,108.0971626622408 L 465.42590227233865,122.46399164977811 L 480.0221147883245,116.74243976329376 L 474.3005629018401,131.3386522792796 L 488.6673918893774,137.61398499112937 L 474.3005629018401,143.88931770297916 L 480.0221147883245,158.48553021896498 L 465.42590227233865,152.76397833248063 L 459.15056956048886,167.13080732001794 L 452.8752368486391,152.76397833248063 L 438.27902433265325,158.48553021896498 L 444.0005762191376,143.88931770297916 L 429.6337472316003,137.61398499112937 L 444.0005762191376,131.3386522792796 L 438.27902433265325,116.74243976329376 L 452.8752368486391,122.46399164977811 Z" fill="none" stroke="#00A86B" stroke-width="1.2208633426208344" /><path d="M 524.7435080691301,108.0971626622408 L 531.0188407809799,122.46399164977811 L 545.6150532969658,116.74243976329376 L 539.8935014104815,131.3386522792796 L 554.2603303980187,137.61398499112937 L 539.8935014104815,143.88931770297916 L 545.6150532969658,158.48553021896498 L 531.0188407809799,152.76397833248063 L 524.7435080691301,167.13080732001794 L 518.4681753572804,152.76397833248063 L 503.87196284129453,158.48553021896498 L 509.5935147277789,143.88931770297916 L 495.2266857402416,137.61398499112937 L 509.5935147277789,131.3386522792796 L 503.87196284129453,116.74243976329376 L 518.4681753572803,122.46399164977811 Z" fill="none" stroke="#00A86B" stroke-width="1.2208633426208344" /><path d="M -32.796469254320634,164.90064741072413 L -26.521136542470856,179.26747639826144 L -11.92492402648502,173.5459245117771 L -17.646475912969365,188.1421370277629 L -3.2796469254320613,194.4174697396127 L -17.646475912969365,200.69280245146248 L -11.92492402648502,215.2890149674483 L -26.521136542470856,209.56746308096396 L -32.796469254320634,223.93429206850126 L -39.07180196617041,209.56746308096396 L -53.668014482156245,215.2890149674483 L -47.946462595671896,200.69280245146248 L -62.31329158320921,194.4174697396127 L -47.9464625956719,188.1421370277629 L -53.66801448215625,173.5459245117771 L -39.07180196617042,179.26747639826144 Z" fill="none" stroke="#00A86B" stroke-width="1.2208633426208344" /><path d="M 32.796469254320634,164.90064741072413 L 39.07180196617041,179.26747639826144 L 53.66801448215625,173.5459245117771 L 47.9464625956719,188.1421370277629 L 62.31329158320921,194.4174697396127 L 47.9464625956719,200.69280245146248 L 53.66801448215625,215.2890149674483 L 39.07180196617041,209.56746308096396 L 32.796469254320634,223.93429206850126 L 26.521136542470856,209.56746308096396 L 11.924924026485023,215.2890149674483 L 17.646475912969372,200.69280245146248 L 3.2796469254320613,194.4174697396127 L 17.64647591296937,188.1421370277629 L 11.924924026485016,173.5459245117771 L 26.521136542470845,179.26747639826144 Z" fill="none" stroke="#00A86B" stroke-width="1.2208633426208344" /><path d="M 98.3894077629619,164.90064741072413 L 104.66474047481168,179.26747639826144 L 119.2609529907975,173.5459245117771 L 113.53940110431316,188.1421370277629 L 127.90623009185046,194.4174697396127 L 113.53940110431316,200.69280245146248 L 119.2609529907975,215.2890149674483 L 104.66474047481168,209.56746308096396 L 98.3894077629619,223.93429206850126 L 92.11407505111211,209.56746308096396 L 77.51786253512628,215.2890149674483 L 83.23941442161063,200.69280245146248 L 68.87258543407333,194.4174697396127 L 83.23941442161063,188.1421370277629 L 77.51786253512628,173.5459245117771 L 92.11407505111211,179.26747639826144 Z" fill="none" stroke="#00A86B" stroke-width="1.2208633426208344" /><path d="M 163.98234627160315,164.90064741072413 L 170.25767898345293,179.26747639826144 L 184.85389149943876,173.5459245117771 L 179.1323396129544,188.1421370277629 L 193.4991686004917,194.4174697396127 L 179.1323396129544,200.69280245146248 L 184.85389149943876,215.2890149674483 L 170.25767898345293,209.56746308096396 L 163.98234627160315,223.93429206850126 L 157.70701355975336,209.56746308096396 L 143.11080104376754,215.2890149674483 L 148.8323529302519,200.69280245146248 L 134.46552394271458,194.4174697396127 L 148.8323529302519,188.1421370277629 L 143.11080104376754,173.5459245117771 L 157.70701355975336,179.26747639826144 Z" fill="none" stroke="#00A86B" stroke-width="1.2208633426208344" /><path d="M 229.57528478024443,164.90064741072413 L 235.85061749209422,179.26747639826144 L 250.44683000808004,173.5459245117771 L 244.7252781215957,188.1421370277629 L 259.092107109133,194.4174697396127 L 244.7252781215957,200.69280245146248 L 250.44683000808004,215.2890149674483 L 235.85061749209422,209.56746308096396 L 229.57528478024443,223.93429206850126 L 223.29995206839465,209.56746308096396 L 208.70373955240882,215.2890149674483 L 214.42529143889317,200.69280245146248 L 200.05846245135587,194.4174697396127 L 214.42529143889317,188.1421370277629 L 208.70373955240882,173.5459245117771 L 223.29995206839465,179.26747639826144 Z" fill="none" stroke="#00A86B" stroke-width="1.2208633426208344" /><path d="M 295.1682232888857,164.90064741072413 L 301.4435560007355,179.26747639826144 L 316.0397685167213,173.5459245117771 L 310.318216630237,188.1421370277629 L 324.6850456177743,194.4174697396127 L 310.318216630237,200.69280245146248 L 316.0397685167213,215.2890149674483 L 301.4435560007355,209.56746308096396 L 295.1682232888857,223.93429206850126 L 288.8928905770359,209.56746308096396 L 274.2966780610501,215.2890149674483 L 280.01822994753445,200.69280245146248 L 265.65140095999715,194.4174697396127 L 280.01822994753445,188.1421370277629 L 274.2966780610501,173.5459245117771 L 288.8928905770359,179.26747639826144 Z" fill="none" stroke="#00A86B" stroke-width="1.2208633426208344" /><path d="M 360.76116179752694,164.90064741072413 L 367.0364945093767,179.26747639826144 L 381.63270702536255,173.5459245117771 L 375.9111551388782,188.1421370277629 L 390.2779841264155,194.4174697396127 L 375.9111551388782,200.69280245146248 L 381.63270702536255,215.2890149674483 L 367.0364945093767,209.56746308096396 L 360.76116179752694,223.93429206850126 L 354.48582908567715,209.56746308096396 L 339.8896165696913,215.2890149674483 L 345.6111684561757,200.69280245146248 L 331.2443394686384,194.4174697396127 L 345.6111684561757,188.1421370277629 L 339.8896165696913,173.5459245117771 L 354.48582908567715,179.26747639826144 Z" fill="none" stroke="#00A86B" stroke-width="1.2208633426208344" /><path d="M 426.3541003061682,164.90064741072413 L 432.629433018018,179.26747639826144 L 447.22564553400383,173.5459245117771 L 441.5040936475195,188.1421370277629 L 455.8709226350568,194.4174697396127 L 441.5040936475195,200.69280245146248 L 447.22564553400383,215.2890149674483 L 432.629433018018,209.56746308096396 L 426.3541003061682,223.93429206850126 L 420.07876759431844,209.56746308096396 L 405.4825550783326,215.2890149674483 L 411.20410696481696,200.69280245146248 L 396.83727797727965,194.4174697396127 L 411.20410696481696,188.1421370277629 L 405.4825550783326,173.5459245117771 L 420.07876759431844,179.26747639826144 Z" fill="none" stroke="#00A86B" stroke-width="1.2208633426208344" /><path d="M 491.9470388148095,164.90064741072413 L 498.2223715266593,179.26747639826144 L 512.8185840426452,173.5459245117771 L 507.09703215616076,188.1421370277629 L 521.4638611436981,194.4174697396127 L 507.09703215616076,200.69280245146248 L 512.8185840426452,215.2890149674483 L 498.2223715266593,209.56746308096396 L 491.9470388148095,223.93429206850126 L 485.6717061029597,209.56746308096396 L 471.0754935869739,215.2890149674483 L 476.79704547345824,200.69280245146248 L 462.43021648592094,194.4174697396127 L 476.79704547345824,188.1421370277629 L 471.0754935869739,173.5459245117771 L 485.6717061029597,179.26747639826144 Z" fill="none" stroke="#00A86B" stroke-width="1.2208633426208344" /><path d="M 557.5399773234508,164.90064741072413 L 563.8153100353005,179.26747639826144 L 578.4115225512865,173.5459245117771 L 572.6899706648021,188.1421370277629 L 587.0567996523394,194.4174697396127 L 572.6899706648021,200.69280245146248 L 578.4115225512865,215.2890149674483 L 563.8153100353005,209.56746308096396 L 557.5399773234508,223.93429206850126 L 551.264644611601,209.56746308096396 L 536.6684320956151,215.2890149674483 L 542.3899839820995,200.69280245146248 L 528.0231549945622,194.4174697396127 L 542.3899839820995,188.1421370277629 L 536.6684320956151,173.5459245117771 L 551.2646446116009,179.26747639826144 Z" fill="none" stroke="#00A86B" stroke-width="1.2208633426208344" /><path d="M 1.8073840993037256e-15,221.70413215920752 L 6.27533271184978,236.07096114674482 L 20.871545227835615,230.34940926026047 L 15.149993341351268,244.9456217762463 L 29.516822328888573,251.22095448809608 L 15.149993341351268,257.49628719994587 L 20.871545227835615,272.0924997159317 L 6.27533271184978,266.37094782944735 L 1.8073840993037256e-15,280.73777681698465 L -6.275332711849778,266.37094782944735 L -20.87154522783561,272.0924997159317 L -15.149993341351264,257.49628719994587 L -29.516822328888573,251.22095448809608 L -15.149993341351266,244.9456217762463 L -20.871545227835618,230.34940926026047 L -6.275332711849788,236.07096114674482 Z" fill="none" stroke="#00A86B" stroke-width="1.2208633426208344" /><path d="M 65.59293850864127,221.70413215920752 L 71.86827122049105,236.07096114674482 L 86.46448373647688,230.34940926026047 L 80.74293184999253,244.9456217762463 L 95.10976083752985,251.22095448809608 L 80.74293184999253,257.49628719994587 L 86.46448373647688,272.0924997159317 L 71.86827122049105,266.37094782944735 L 65.59293850864127,280.73777681698465 L 59.31760579679149,266.37094782944735 L 44.72139328080566,272.0924997159317 L 50.442945167290006,257.49628719994587 L 36.076116179752695,251.22095448809608 L 50.442945167290006,244.9456217762463 L 44.72139328080565,230.34940926026047 L 59.31760579679148,236.07096114674482 Z" fill="none" stroke="#00A86B" stroke-width="1.2208633426208344" /><path d="M 131.18587701728254,221.70413215920752 L 137.46120972913232,236.07096114674482 L 152.05742224511815,230.34940926026047 L 146.3358703586338,244.9456217762463 L 160.7026993461711,251.22095448809608 L 146.3358703586338,257.49628719994587 L 152.05742224511815,272.0924997159317 L 137.46120972913232,266.37094782944735 L 131.18587701728254,280.73777681698465 L 124.91054430543275,266.37094782944735 L 110.31433178944692,272.0924997159317 L 116.03588367593127,257.49628719994587 L 101.66905468839397,251.22095448809608 L 116.03588367593127,244.9456217762463 L 110.31433178944692,230.34940926026047 L 124.91054430543275,236.07096114674482 Z" fill="none" stroke="#00A86B" stroke-width="1.2208633426208344" /><path d="M 196.7788155259238,221.70413215920752 L 203.05414823777357,236.07096114674482 L 217.6503607537594,230.34940926026047 L 211.92880886727505,244.9456217762463 L 226.29563785481236,251.22095448809608 L 211.92880886727505,257.49628719994587 L 217.6503607537594,272.0924997159317 L 203.05414823777357,266.37094782944735 L 196.7788155259238,280.73777681698465 L 190.503482814074,266.37094782944735 L 175.90727029808818,272.0924997159317 L 181.62882218457253,257.49628719994587 L 167.26199319703522,251.22095448809608 L 181.62882218457253,244.9456217762463 L 175.90727029808818,230.34940926026047 L 190.503482814074,236.07096114674482 Z" fill="none" stroke="#00A86B" stroke-width="1.2208633426208344" /><path d="M 262.3717540345651,221.70413215920752 L 268.64708674641486,236.07096114674482 L 283.2432992624007,230.34940926026047 L 277.52174737591633,244.9456217762463 L 291.88857636345364,251.22095448809608 L 277.52174737591633,257.49628719994587 L 283.2432992624007,272.0924997159317 L 268.64708674641486,266.37094782944735 L 262.3717540345651,280.73777681698465 L 256.0964213227153,266.37094782944735 L 241.50020880672946,272.0924997159317 L 247.2217606932138,257.49628719994587 L 232.8549317056765,251.22095448809608 L 247.2217606932138,244.9456217762463 L 241.50020880672946,230.34940926026047 L 256.0964213227153,236.07096114674482 Z" fill="none" stroke="#00A86B" stroke-width="1.2208633426208344" /><path d="M 327.96469254320635,221.70413215920752 L 334.24002525505614,236.07096114674482 L 348.83623777104197,230.34940926026047 L 343.1146858845576,244.9456217762463 L 357.4815148720949,251.22095448809608 L 343.1146858845576,257.49628719994587 L 348.83623777104197,272.0924997159317 L 334.24002525505614,266.37094782944735 L 327.96469254320635,280.73777681698465 L 321.68935983135657,266.37094782944735 L 307.09314731537074,272.0924997159317 L 312.8146992018551,257.49628719994587 L 298.4478702143178,251.22095448809608 L 312.8146992018551,244.9456217762463 L 307.09314731537074,230.34940926026047 L 321.68935983135657,236.07096114674482 Z" fill="none" stroke="#00A86B" stroke-width="1.2208633426208344" /><path d="M 393.5576310518476,221.70413215920752 L 399.83296376369736,236.07096114674482 L 414.4291762796832,230.34940926026047 L 408.70762439319884,244.9456217762463 L 423.07445338073614,251.22095448809608 L 408.70762439319884,257.49628719994587 L 414.4291762796832,272.0924997159317 L 399.83296376369736,266.37094782944735 L 393.5576310518476,280.73777681698465 L 387.2822983399978,266.37094782944735 L 372.68608582401197,272.0924997159317 L 378.4076377104963,257.49628719994587 L 364.040808722959,251.22095448809608 L 378.4076377104963,244.9456217762463 L 372.68608582401197,230.34940926026047 L 387.2822983399978,236.07096114674482 Z" fill="none" stroke="#00A86B" stroke-width="1.2208633426208344" /><path d="M 459.15056956048886,221.70413215920752 L 465.42590227233865,236.07096114674482 L 480.0221147883245,230.34940926026047 L 474.3005629018401,244.9456217762463 L 488.6673918893774,251.22095448809608 L 474.3005629018401,257.49628719994587 L 480.0221147883245,272.0924997159317 L 465.42590227233865,266.37094782944735 L 459.15056956048886,280.73777681698465 L 452.8752368486391,266.37094782944735 L 438.27902433265325,272.0924997159317 L 444.0005762191376,257.49628719994587 L 429.6337472316003,251.22095448809608 L 444.0005762191376,244.9456217762463 L 438.27902433265325,230.34940926026047 L 452.8752368486391,236.07096114674482 Z" fill="none" stroke="#00A86B" stroke-width="1.2208633426208344" /><path d="M 524.7435080691301,221.70413215920752 L 531.0188407809799,236.07096114674482 L 545.6150532969658,230.34940926026047 L 539.8935014104815,244.9456217762463 L 554.2603303980187,251.22095448809608 L 539.8935014104815,257.49628719994587 L 545.6150532969658,272.0924997159317 L 531.0188407809799,266.37094782944735 L 524.7435080691301,280.73777681698465 L 518.4681753572804,266.37094782944735 L 503.87196284129453,272.0924997159317 L 509.5935147277789,257.49628719994587 L 495.2266857402416,251.22095448809608 L 509.5935147277789,244.9456217762463 L 503.87196284129453,230.34940926026047 L 518.4681753572803,236.07096114674482 Z" fill="none" stroke="#00A86B" stroke-width="1.2208633426208344" /><path d="M -32.796469254320634,278.5076169076908 L -26.521136542470856,292.8744458952281 L -11.92492402648502,287.1528940087438 L -17.646475912969365,301.7491065247296 L -3.2796469254320613,308.0244392365794 L -17.646475912969365,314.29977194842917 L -11.92492402648502,328.895984464415 L -26.521136542470856,323.17443257793065 L -32.796469254320634,337.54126156546795 L -39.07180196617041,323.17443257793065 L -53.668014482156245,328.895984464415 L -47.946462595671896,314.29977194842917 L -62.31329158320921,308.0244392365794 L -47.9464625956719,301.7491065247296 L -53.66801448215625,287.1528940087438 L -39.07180196617042,292.8744458952281 Z" fill="none" stroke="#00A86B" stroke-width="1.2208633426208344" /><path d="M 32.796469254320634,278.5076169076908 L 39.07180196617041,292.8744458952281 L 53.66801448215625,287.1528940087438 L 47.9464625956719,301.7491065247296 L 62.31329158320921,308.0244392365794 L 47.9464625956719,314.29977194842917 L 53.66801448215625,328.895984464415 L 39.07180196617041,323.17443257793065 L 32.796469254320634,337.54126156546795 L 26.521136542470856,323.17443257793065 L 11.924924026485023,328.895984464415 L 17.646475912969372,314.29977194842917 L 3.2796469254320613,308.0244392365794 L 17.64647591296937,301.7491065247296 L 11.924924026485016,287.1528940087438 L 26.521136542470845,292.8744458952281 Z" fill="none" stroke="#00A86B" stroke-width="1.2208633426208344" /><path d="M 98.3894077629619,278.5076169076908 L 104.66474047481168,292.8744458952281 L 119.2609529907975,287.1528940087438 L 113.53940110431316,301.7491065247296 L 127.90623009185046,308.0244392365794 L 113.53940110431316,314.29977194842917 L 119.2609529907975,328.895984464415 L 104.66474047481168,323.17443257793065 L 98.3894077629619,337.54126156546795 L 92.11407505111211,323.17443257793065 L 77.51786253512628,328.895984464415 L 83.23941442161063,314.29977194842917 L 68.87258543407333,308.0244392365794 L 83.23941442161063,301.7491065247296 L 77.51786253512628,287.1528940087438 L 92.11407505111211,292.8744458952281 Z" fill="none" stroke="#00A86B" stroke-width="1.2208633426208344" /><path d="M 163.98234627160315,278.5076169076908 L 170.25767898345293,292.8744458952281 L 184.85389149943876,287.1528940087438 L 179.1323396129544,301.7491065247296 L 193.4991686004917,308.0244392365794 L 179.1323396129544,314.29977194842917 L 184.85389149943876,328.895984464415 L 170.25767898345293,323.17443257793065 L 163.98234627160315,337.54126156546795 L 157.70701355975336,323.17443257793065 L 143.11080104376754,328.895984464415 L 148.8323529302519,314.29977194842917 L 134.46552394271458,308.0244392365794 L 148.8323529302519,301.7491065247296 L 143.11080104376754,287.1528940087438 L 157.70701355975336,292.8744458952281 Z" fill="none" stroke="#00A86B" stroke-width="1.2208633426208344" /><path d="M 229.57528478024443,278.5076169076908 L 235.85061749209422,292.8744458952281 L 250.44683000808004,287.1528940087438 L 244.7252781215957,301.7491065247296 L 259.092107109133,308.0244392365794 L 244.7252781215957,314.29977194842917 L 250.44683000808004,328.895984464415 L 235.85061749209422,323.17443257793065 L 229.57528478024443,337.54126156546795 L 223.29995206839465,323.17443257793065 L 208.70373955240882,328.895984464415 L 214.42529143889317,314.29977194842917 L 200.05846245135587,308.0244392365794 L 214.42529143889317,301.7491065247296 L 208.70373955240882,287.1528940087438 L 223.29995206839465,292.8744458952281 Z" fill="none" stroke="#00A86B" stroke-width="1.2208633426208344" /><path d="M 295.1682232888857,278.5076169076908 L 301.4435560007355,292.8744458952281 L 316.0397685167213,287.1528940087438 L 310.318216630237,301.7491065247296 L 324.6850456177743,308.0244392365794 L 310.318216630237,314.29977194842917 L 316.0397685167213,328.895984464415 L 301.4435560007355,323.17443257793065 L 295.1682232888857,337.54126156546795 L 288.8928905770359,323.17443257793065 L 274.2966780610501,328.895984464415 L 280.01822994753445,314.29977194842917 L 265.65140095999715,308.0244392365794 L 280.01822994753445,301.7491065247296 L 274.2966780610501,287.1528940087438 L 288.8928905770359,292.8744458952281 Z" fill="none" stroke="#00A86B" stroke-width="1.2208633426208344" /><path d="M 360.76116179752694,278.5076169076908 L 367.0364945093767,292.8744458952281 L 381.63270702536255,287.1528940087438 L 375.9111551388782,301.7491065247296 L 390.2779841264155,308.0244392365794 L 375.9111551388782,314.29977194842917 L 381.63270702536255,328.895984464415 L 367.0364945093767,323.17443257793065 L 360.76116179752694,337.54126156546795 L 354.48582908567715,323.17443257793065 L 339.8896165696913,328.895984464415 L 345.6111684561757,314.29977194842917 L 331.2443394686384,308.0244392365794 L 345.6111684561757,301.7491065247296 L 339.8896165696913,287.1528940087438 L 354.48582908567715,292.8744458952281 Z" fill="none" stroke="#00A86B" stroke-width="1.2208633426208344" /><path d="M 426.3541003061682,278.5076169076908 L 432.629433018018,292.8744458952281 L 447.22564553400383,287.1528940087438 L 441.5040936475195,301.7491065247296 L 455.8709226350568,308.0244392365794 L 441.5040936475195,314.29977194842917 L 447.22564553400383,328.895984464415 L 432.629433018018,323.17443257793065 L 426.3541003061682,337.54126156546795 L 420.07876759431844,323.17443257793065 L 405.4825550783326,328.895984464415 L 411.20410696481696,314.29977194842917 L 396.83727797727965,308.0244392365794 L 411.20410696481696,301.7491065247296 L 405.4825550783326,287.1528940087438 L 420.07876759431844,292.8744458952281 Z" fill="none" stroke="#00A86B" stroke-width="1.2208633426208344" /><path d="M 491.9470388148095,278.5076169076908 L 498.2223715266593,292.8744458952281 L 512.8185840426452,287.1528940087438 L 507.09703215616076,301.7491065247296 L 521.4638611436981,308.0244392365794 L 507.09703215616076,314.29977194842917 L 512.8185840426452,328.895984464415 L 498.2223715266593,323.17443257793065 L 491.9470388148095,337.54126156546795 L 485.6717061029597,323.17443257793065 L 471.0754935869739,328.895984464415 L 476.79704547345824,314.29977194842917 L 462.43021648592094,308.0244392365794 L 476.79704547345824,301.7491065247296 L 471.0754935869739,287.1528940087438 L 485.6717061029597,292.8744458952281 Z" fill="none" stroke="#00A86B" stroke-width="1.2208633426208344" /><path d="M 557.5399773234508,278.5076169076908 L 563.8153100353005,292.8744458952281 L 578.4115225512865,287.1528940087438 L 572.6899706648021,301.7491065247296 L 587.0567996523394,308.0244392365794 L 572.6899706648021,314.29977194842917 L 578.4115225512865,328.895984464415 L 563.8153100353005,323.17443257793065 L 557.5399773234508,337.54126156546795 L 551.264644611601,323.17443257793065 L 536.6684320956151,328.895984464415 L 542.3899839820995,314.29977194842917 L 528.0231549945622,308.0244392365794 L 542.3899839820995,301.7491065247296 L 536.6684320956151,287.1528940087438 L 551.2646446116009,292.8744458952281 Z" fill="none" stroke="#00A86B" stroke-width="1.2208633426208344" /><path d="M 1.8073840993037256e-15,335.3111016561741 L 6.27533271184978,349.6779306437114 L 20.871545227835615,343.95637875722707 L 15.149993341351268,358.5525912732129 L 29.516822328888573,364.8279239850627 L 15.149993341351268,371.10325669691247 L 20.871545227835615,385.6994692128983 L 6.27533271184978,379.97791732641394 L 1.8073840993037256e-15,394.34474631395125 L -6.275332711849778,379.97791732641394 L -20.87154522783561,385.6994692128983 L -15.149993341351264,371.10325669691247 L -29.516822328888573,364.8279239850627 L -15.149993341351266,358.5525912732129 L -20.871545227835618,343.95637875722707 L -6.275332711849788,349.6779306437114 Z" fill="none" stroke="#00A86B" stroke-width="1.2208633426208344" /><path d="M 65.59293850864127,335.3111016561741 L 71.86827122049105,349.6779306437114 L 86.46448373647688,343.95637875722707 L 80.74293184999253,358.5525912732129 L 95.10976083752985,364.8279239850627 L 80.74293184999253,371.10325669691247 L 86.46448373647688,385.6994692128983 L 71.86827122049105,379.97791732641394 L 65.59293850864127,394.34474631395125 L 59.31760579679149,379.97791732641394 L 44.72139328080566,385.6994692128983 L 50.442945167290006,371.10325669691247 L 36.076116179752695,364.8279239850627 L 50.442945167290006,358.5525912732129 L 44.72139328080565,343.95637875722707 L 59.31760579679148,349.6779306437114 Z" fill="none" stroke="#00A86B" stroke-width="1.2208633426208344" /><path d="M 131.18587701728254,335.3111016561741 L 137.46120972913232,349.6779306437114 L 152.05742224511815,343.95637875722707 L 146.3358703586338,358.5525912732129 L 160.7026993461711,364.8279239850627 L 146.3358703586338,371.10325669691247 L 152.05742224511815,385.6994692128983 L 137.46120972913232,379.97791732641394 L 131.18587701728254,394.34474631395125 L 124.91054430543275,379.97791732641394 L 110.31433178944692,385.6994692128983 L 116.03588367593127,371.10325669691247 L 101.66905468839397,364.8279239850627 L 116.03588367593127,358.5525912732129 L 110.31433178944692,343.95637875722707 L 124.91054430543275,349.6779306437114 Z" fill="none" stroke="#00A86B" stroke-width="1.2208633426208344" /><path d="M 196.7788155259238,335.3111016561741 L 203.05414823777357,349.6779306437114 L 217.6503607537594,343.95637875722707 L 211.92880886727505,358.5525912732129 L 226.29563785481236,364.8279239850627 L 211.92880886727505,371.10325669691247 L 217.6503607537594,385.6994692128983 L 203.05414823777357,379.97791732641394 L 196.7788155259238,394.34474631395125 L 190.503482814074,379.97791732641394 L 175.90727029808818,385.6994692128983 L 181.62882218457253,371.10325669691247 L 167.26199319703522,364.8279239850627 L 181.62882218457253,358.5525912732129 L 175.90727029808818,343.95637875722707 L 190.503482814074,349.6779306437114 Z" fill="none" stroke="#00A86B" stroke-width="1.2208633426208344" /><path d="M 262.3717540345651,335.3111016561741 L 268.64708674641486,349.6779306437114 L 283.2432992624007,343.95637875722707 L 277.52174737591633,358.5525912732129 L 291.88857636345364,364.8279239850627 L 277.52174737591633,371.10325669691247 L 283.2432992624007,385.6994692128983 L 268.64708674641486,379.97791732641394 L 262.3717540345651,394.34474631395125 L 256.0964213227153,379.97791732641394 L 241.50020880672946,385.6994692128983 L 247.2217606932138,371.10325669691247 L 232.8549317056765,364.8279239850627 L 247.2217606932138,358.5525912732129 L 241.50020880672946,343.95637875722707 L 256.0964213227153,349.6779306437114 Z" fill="none" stroke="#00A86B" stroke-width="1.2208633426208344" /><path d="M 327.96469254320635,335.3111016561741 L 334.24002525505614,349.6779306437114 L 348.83623777104197,343.95637875722707 L 343.1146858845576,358.5525912732129 L 357.4815148720949,364.8279239850627 L 343.1146858845576,371.10325669691247 L 348.83623777104197,385.6994692128983 L 334.24002525505614,379.97791732641394 L 327.96469254320635,394.34474631395125 L 321.68935983135657,379.97791732641394 L 307.09314731537074,385.6994692128983 L 312.8146992018551,371.10325669691247 L 298.4478702143178,364.8279239850627 L 312.8146992018551,358.5525912732129 L 307.09314731537074,343.95637875722707 L 321.68935983135657,349.6779306437114 Z" fill="none" stroke="#00A86B" stroke-width="1.2208633426208344" /><path d="M 393.5576310518476,335.3111016561741 L 399.83296376369736,349.6779306437114 L 414.4291762796832,343.95637875722707 L 408.70762439319884,358.5525912732129 L 423.07445338073614,364.8279239850627 L 408.70762439319884,371.10325669691247 L 414.4291762796832,385.6994692128983 L 399.83296376369736,379.97791732641394 L 393.5576310518476,394.34474631395125 L 387.2822983399978,379.97791732641394 L 372.68608582401197,385.6994692128983 L 378.4076377104963,371.10325669691247 L 364.040808722959,364.8279239850627 L 378.4076377104963,358.5525912732129 L 372.68608582401197,343.95637875722707 L 387.2822983399978,349.6779306437114 Z" fill="none" stroke="#00A86B" stroke-width="1.2208633426208344" /><path d="M 459.15056956048886,335.3111016561741 L 465.42590227233865,349.6779306437114 L 480.0221147883245,343.95637875722707 L 474.3005629018401,358.5525912732129 L 488.6673918893774,364.8279239850627 L 474.3005629018401,371.10325669691247 L 480.0221147883245,385.6994692128983 L 465.42590227233865,379.97791732641394 L 459.15056956048886,394.34474631395125 L 452.8752368486391,379.97791732641394 L 438.27902433265325,385.6994692128983 L 444.0005762191376,371.10325669691247 L 429.6337472316003,364.8279239850627 L 444.0005762191376,358.5525912732129 L 438.27902433265325,343.95637875722707 L 452.8752368486391,349.6779306437114 Z" fill="none" stroke="#00A86B" stroke-width="1.2208633426208344" /><path d="M 524.7435080691301,335.3111016561741 L 531.0188407809799,349.6779306437114 L 545.6150532969658,343.95637875722707 L 539.8935014104815,358.5525912732129 L 554.2603303980187,364.8279239850627 L 539.8935014104815,371.10325669691247 L 545.6150532969658,385.6994692128983 L 531.0188407809799,379.97791732641394 L 524.7435080691301,394.34474631395125 L 518.4681753572804,379.97791732641394 L 503.87196284129453,385.6994692128983 L 509.5935147277789,371.10325669691247 L 495.2266857402416,364.8279239850627 L 509.5935147277789,358.5525912732129 L 503.87196284129453,343.95637875722707 L 518.4681753572803,349.6779306437114 Z" fill="none" stroke="#00A86B" stroke-width="1.2208633426208344" /><path d="M -32.796469254320634,392.1145864046575 L -26.521136542470856,406.4814153921948 L -11.92492402648502,400.7598635057104 L -17.646475912969365,415.35607602169625 L -3.2796469254320613,421.63140873354604 L -17.646475912969365,427.9067414453958 L -11.92492402648502,442.50295396138165 L -26.521136542470856,436.7814020748973 L -32.796469254320634,451.1482310624346 L -39.07180196617041,436.7814020748973 L -53.668014482156245,442.50295396138165 L -47.946462595671896,427.9067414453958 L -62.31329158320921,421.63140873354604 L -47.9464625956719,415.35607602169625 L -53.66801448215625,400.7598635057104 L -39.07180196617042,406.4814153921948 Z" fill="none" stroke="#00A86B" stroke-width="1.2208633426208344" /><path d="M 32.796469254320634,392.1145864046575 L 39.07180196617041,406.4814153921948 L 53.66801448215625,400.7598635057104 L 47.9464625956719,415.35607602169625 L 62.31329158320921,421.63140873354604 L 47.9464625956719,427.9067414453958 L 53.66801448215625,442.50295396138165 L 39.07180196617041,436.7814020748973 L 32.796469254320634,451.1482310624346 L 26.521136542470856,436.7814020748973 L 11.924924026485023,442.50295396138165 L 17.646475912969372,427.9067414453958 L 3.2796469254320613,421.63140873354604 L 17.64647591296937,415.35607602169625 L 11.924924026485016,400.7598635057104 L 26.521136542470845,406.4814153921948 Z" fill="none" stroke="#00A86B" stroke-width="1.2208633426208344" /><path d="M 98.3894077629619,392.1145864046575 L 104.66474047481168,406.4814153921948 L 119.2609529907975,400.7598635057104 L 113.53940110431316,415.35607602169625 L 127.90623009185046,421.63140873354604 L 113.53940110431316,427.9067414453958 L 119.2609529907975,442.50295396138165 L 104.66474047481168,436.7814020748973 L 98.3894077629619,451.1482310624346 L 92.11407505111211,436.7814020748973 L 77.51786253512628,442.50295396138165 L 83.23941442161063,427.9067414453958 L 68.87258543407333,421.63140873354604 L 83.23941442161063,415.35607602169625 L 77.51786253512628,400.7598635057104 L 92.11407505111211,406.4814153921948 Z" fill="none" stroke="#00A86B" stroke-width="1.2208633426208344" /><path d="M 163.98234627160315,392.1145864046575 L 170.25767898345293,406.4814153921948 L 184.85389149943876,400.7598635057104 L 179.1323396129544,415.35607602169625 L 193.4991686004917,421.63140873354604 L 179.1323396129544,427.9067414453958 L 184.85389149943876,442.50295396138165 L 170.25767898345293,436.7814020748973 L 163.98234627160315,451.1482310624346 L 157.70701355975336,436.7814020748973 L 143.11080104376754,442.50295396138165 L 148.8323529302519,427.9067414453958 L 134.46552394271458,421.63140873354604 L 148.8323529302519,415.35607602169625 L 143.11080104376754,400.7598635057104 L 157.70701355975336,406.4814153921948 Z" fill="none" stroke="#00A86B" stroke-width="1.2208633426208344" /><path d="M 229.57528478024443,392.1145864046575 L 235.85061749209422,406.4814153921948 L 250.44683000808004,400.7598635057104 L 244.7252781215957,415.35607602169625 L 259.092107109133,421.63140873354604 L 244.7252781215957,427.9067414453958 L 250.44683000808004,442.50295396138165 L 235.85061749209422,436.7814020748973 L 229.57528478024443,451.1482310624346 L 223.29995206839465,436.7814020748973 L 208.70373955240882,442.50295396138165 L 214.42529143889317,427.9067414453958 L 200.05846245135587,421.63140873354604 L 214.42529143889317,415.35607602169625 L 208.70373955240882,400.7598635057104 L 223.29995206839465,406.4814153921948 Z" fill="none" stroke="#00A86B" stroke-width="1.2208633426208344" /><path d="M 295.1682232888857,392.1145864046575 L 301.4435560007355,406.4814153921948 L 316.0397685167213,400.7598635057104 L 310.318216630237,415.35607602169625 L 324.6850456177743,421.63140873354604 L 310.318216630237,427.9067414453958 L 316.0397685167213,442.50295396138165 L 301.4435560007355,436.7814020748973 L 295.1682232888857,451.1482310624346 L 288.8928905770359,436.7814020748973 L 274.2966780610501,442.50295396138165 L 280.01822994753445,427.9067414453958 L 265.65140095999715,421.63140873354604 L 280.01822994753445,415.35607602169625 L 274.2966780610501,400.7598635057104 L 288.8928905770359,406.4814153921948 Z" fill="none" stroke="#00A86B" stroke-width="1.2208633426208344" /><path d="M 360.76116179752694,392.1145864046575 L 367.0364945093767,406.4814153921948 L 381.63270702536255,400.7598635057104 L 375.9111551388782,415.35607602169625 L 390.2779841264155,421.63140873354604 L 375.9111551388782,427.9067414453958 L 381.63270702536255,442.50295396138165 L 367.0364945093767,436.7814020748973 L 360.76116179752694,451.1482310624346 L 354.48582908567715,436.7814020748973 L 339.8896165696913,442.50295396138165 L 345.6111684561757,427.9067414453958 L 331.2443394686384,421.63140873354604 L 345.6111684561757,415.35607602169625 L 339.8896165696913,400.7598635057104 L 354.48582908567715,406.4814153921948 Z" fill="none" stroke="#00A86B" stroke-width="1.2208633426208344" /><path d="M 426.3541003061682,392.1145864046575 L 432.629433018018,406.4814153921948 L 447.22564553400383,400.7598635057104 L 441.5040936475195,415.35607602169625 L 455.8709226350568,421.63140873354604 L 441.5040936475195,427.9067414453958 L 447.22564553400383,442.50295396138165 L 432.629433018018,436.7814020748973 L 426.3541003061682,451.1482310624346 L 420.07876759431844,436.7814020748973 L 405.4825550783326,442.50295396138165 L 411.20410696481696,427.9067414453958 L 396.83727797727965,421.63140873354604 L 411.20410696481696,415.35607602169625 L 405.4825550783326,400.7598635057104 L 420.07876759431844,406.4814153921948 Z" fill="none" stroke="#00A86B" stroke-width="1.2208633426208344" /><path d="M 491.9470388148095,392.1145864046575 L 498.2223715266593,406.4814153921948 L 512.8185840426452,400.7598635057104 L 507.09703215616076,415.35607602169625 L 521.4638611436981,421.63140873354604 L 507.09703215616076,427.9067414453958 L 512.8185840426452,442.50295396138165 L 498.2223715266593,436.7814020748973 L 491.9470388148095,451.1482310624346 L 485.6717061029597,436.7814020748973 L 471.0754935869739,442.50295396138165 L 476.79704547345824,427.9067414453958 L 462.43021648592094,421.63140873354604 L 476.79704547345824,415.35607602169625 L 471.0754935869739,400.7598635057104 L 485.6717061029597,406.4814153921948 Z" fill="none" stroke="#00A86B" stroke-width="1.2208633426208344" /><path d="M 557.5399773234508,392.1145864046575 L 563.8153100353005,406.4814153921948 L 578.4115225512865,400.7598635057104 L 572.6899706648021,415.35607602169625 L 587.0567996523394,421.63140873354604 L 572.6899706648021,427.9067414453958 L 578.4115225512865,442.50295396138165 L 563.8153100353005,436.7814020748973 L 557.5399773234508,451.1482310624346 L 551.264644611601,436.7814020748973 L 536.6684320956151,442.50295396138165 L 542.3899839820995,427.9067414453958 L 528.0231549945622,421.63140873354604 L 542.3899839820995,415.35607602169625 L 536.6684320956151,400.7598635057104 L 551.2646446116009,406.4814153921948 Z" fill="none" stroke="#00A86B" stroke-width="1.2208633426208344" /><path d="M 1.8073840993037256e-15,448.91807115314083 L 6.27533271184978,463.28490014067813 L 20.871545227835615,457.5633482541938 L 15.149993341351268,472.1595607701796 L 29.516822328888573,478.4348934820294 L 15.149993341351268,484.7102261938792 L 20.871545227835615,499.306438709865 L 6.27533271184978,493.58488682338066 L 1.8073840993037256e-15,507.95171581091796 L -6.275332711849778,493.58488682338066 L -20.87154522783561,499.306438709865 L -15.149993341351264,484.7102261938792 L -29.516822328888573,478.4348934820294 L -15.149993341351266,472.1595607701796 L -20.871545227835618,457.5633482541938 L -6.275332711849788,463.28490014067813 Z" fill="none" stroke="#00A86B" stroke-width="1.2208633426208344" /><path d="M 65.59293850864127,448.91807115314083 L 71.86827122049105,463.28490014067813 L 86.46448373647688,457.5633482541938 L 80.74293184999253,472.1595607701796 L 95.10976083752985,478.4348934820294 L 80.74293184999253,484.7102261938792 L 86.46448373647688,499.306438709865 L 71.86827122049105,493.58488682338066 L 65.59293850864127,507.95171581091796 L 59.31760579679149,493.58488682338066 L 44.72139328080566,499.306438709865 L 50.442945167290006,484.7102261938792 L 36.076116179752695,478.4348934820294 L 50.442945167290006,472.1595607701796 L 44.72139328080565,457.5633482541938 L 59.31760579679148,463.28490014067813 Z" fill="none" stroke="#00A86B" stroke-width="1.2208633426208344" /><path d="M 131.18587701728254,448.91807115314083 L 137.46120972913232,463.28490014067813 L 152.05742224511815,457.5633482541938 L 146.3358703586338,472.1595607701796 L 160.7026993461711,478.4348934820294 L 146.3358703586338,484.7102261938792 L 152.05742224511815,499.306438709865 L 137.46120972913232,493.58488682338066 L 131.18587701728254,507.95171581091796 L 124.91054430543275,493.58488682338066 L 110.31433178944692,499.306438709865 L 116.03588367593127,484.7102261938792 L 101.66905468839397,478.4348934820294 L 116.03588367593127,472.1595607701796 L 110.31433178944692,457.5633482541938 L 124.91054430543275,463.28490014067813 Z" fill="none" stroke="#00A86B" stroke-width="1.2208633426208344" /><path d="M 196.7788155259238,448.91807115314083 L 203.05414823777357,463.28490014067813 L 217.6503607537594,457.5633482541938 L 211.92880886727505,472.1595607701796 L 226.29563785481236,478.4348934820294 L 211.92880886727505,484.7102261938792 L 217.6503607537594,499.306438709865 L 203.05414823777357,493.58488682338066 L 196.7788155259238,507.95171581091796 L 190.503482814074,493.58488682338066 L 175.90727029808818,499.306438709865 L 181.62882218457253,484.7102261938792 L 167.26199319703522,478.4348934820294 L 181.62882218457253,472.1595607701796 L 175.90727029808818,457.5633482541938 L 190.503482814074,463.28490014067813 Z" fill="none" stroke="#00A86B" stroke-width="1.2208633426208344" /><path d="M 262.3717540345651,448.91807115314083 L 268.64708674641486,463.28490014067813 L 283.2432992624007,457.5633482541938 L 277.52174737591633,472.1595607701796 L 291.88857636345364,478.4348934820294 L 277.52174737591633,484.7102261938792 L 283.2432992624007,499.306438709865 L 268.64708674641486,493.58488682338066 L 262.3717540345651,507.95171581091796 L 256.0964213227153,493.58488682338066 L 241.50020880672946,499.306438709865 L 247.2217606932138,484.7102261938792 L 232.8549317056765,478.4348934820294 L 247.2217606932138,472.1595607701796 L 241.50020880672946,457.5633482541938 L 256.0964213227153,463.28490014067813 Z" fill="none" stroke="#00A86B" stroke-width="1.2208633426208344" /><path d="M 327.96469254320635,448.91807115314083 L 334.24002525505614,463.28490014067813 L 348.83623777104197,457.5633482541938 L 343.1146858845576,472.1595607701796 L 357.4815148720949,478.4348934820294 L 343.1146858845576,484.7102261938792 L 348.83623777104197,499.306438709865 L 334.24002525505614,493.58488682338066 L 327.96469254320635,507.95171581091796 L 321.68935983135657,493.58488682338066 L 307.09314731537074,499.306438709865 L 312.8146992018551,484.7102261938792 L 298.4478702143178,478.4348934820294 L 312.8146992018551,472.1595607701796 L 307.09314731537074,457.5633482541938 L 321.68935983135657,463.28490014067813 Z" fill="none" stroke="#00A86B" stroke-width="1.2208633426208344" /><path d="M 393.5576310518476,448.91807115314083 L 399.83296376369736,463.28490014067813 L 414.4291762796832,457.5633482541938 L 408.70762439319884,472.1595607701796 L 423.07445338073614,478.4348934820294 L 408.70762439319884,484.7102261938792 L 414.4291762796832,499.306438709865 L 399.83296376369736,493.58488682338066 L 393.5576310518476,507.95171581091796 L 387.2822983399978,493.58488682338066 L 372.68608582401197,499.306438709865 L 378.4076377104963,484.7102261938792 L 364.040808722959,478.4348934820294 L 378.4076377104963,472.1595607701796 L 372.68608582401197,457.5633482541938 L 387.2822983399978,463.28490014067813 Z" fill="none" stroke="#00A86B" stroke-width="1.2208633426208344" /><path d="M 459.15056956048886,448.91807115314083 L 465.42590227233865,463.28490014067813 L 480.0221147883245,457.5633482541938 L 474.3005629018401,472.1595607701796 L 488.6673918893774,478.4348934820294 L 474.3005629018401,484.7102261938792 L 480.0221147883245,499.306438709865 L 465.42590227233865,493.58488682338066 L 459.15056956048886,507.95171581091796 L 452.8752368486391,493.58488682338066 L 438.27902433265325,499.306438709865 L 444.0005762191376,484.7102261938792 L 429.6337472316003,478.4348934820294 L 444.0005762191376,472.1595607701796 L 438.27902433265325,457.5633482541938 L 452.8752368486391,463.28490014067813 Z" fill="none" stroke="#00A86B" stroke-width="1.2208633426208344" /><path d="M 524.7435080691301,448.91807115314083 L 531.0188407809799,463.28490014067813 L 545.6150532969658,457.5633482541938 L 539.8935014104815,472.1595607701796 L 554.2603303980187,478.4348934820294 L 539.8935014104815,484.7102261938792 L 545.6150532969658,499.306438709865 L 531.0188407809799,493.58488682338066 L 524.7435080691301,507.95171581091796 L 518.4681753572804,493.58488682338066 L 503.87196284129453,499.306438709865 L 509.5935147277789,484.7102261938792 L 495.2266857402416,478.4348934820294 L 509.5935147277789,472.1595607701796 L 503.87196284129453,457.5633482541938 L 518.4681753572803,463.28490014067813 Z" fill="none" stroke="#00A86B" stroke-width="1.2208633426208344" /><line x1="29.516822328888573" y1="24.0070154941627" x2="36.076116179752695" y2="24.0070154941627" stroke="#00A86B" stroke-width="0.5"/><line x1="95.10976083752985" y1="24.0070154941627" x2="101.66905468839397" y2="24.0070154941627" stroke="#00A86B" stroke-width="0.5"/><line x1="160.7026993461711" y1="24.0070154941627" x2="167.26199319703522" y2="24.0070154941627" stroke="#00A86B" stroke-width="0.5"/><line x1="226.29563785481236" y1="24.0070154941627" x2="232.8549317056765" y2="24.0070154941627" stroke="#00A86B" stroke-width="0.5"/><line x1="291.88857636345364" y1="24.0070154941627" x2="298.4478702143178" y2="24.0070154941627" stroke="#00A86B" stroke-width="0.5"/><line x1="357.4815148720949" y1="24.0070154941627" x2="364.040808722959" y2="24.0070154941627" stroke="#00A86B" stroke-width="0.5"/><line x1="423.07445338073614" y1="24.0070154941627" x2="429.6337472316003" y2="24.0070154941627" stroke="#00A86B" stroke-width="0.5"/><line x1="488.6673918893774" y1="24.0070154941627" x2="495.2266857402416" y2="24.0070154941627" stroke="#00A86B" stroke-width="0.5"/><line x1="62.31329158320921" y1="80.81050024264604" x2="68.87258543407333" y2="80.81050024264604" stroke="#00A86B" stroke-width="0.5"/><line x1="127.90623009185046" y1="80.81050024264604" x2="134.46552394271458" y2="80.81050024264604" stroke="#00A86B" stroke-width="0.5"/><line x1="193.4991686004917" y1="80.81050024264604" x2="200.05846245135587" y2="80.81050024264604" stroke="#00A86B" stroke-width="0.5"/><line x1="259.092107109133" y1="80.81050024264604" x2="265.65140095999715" y2="80.81050024264604" stroke="#00A86B" stroke-width="0.5"/><line x1="324.6850456177743" y1="80.81050024264604" x2="331.2443394686384" y2="80.81050024264604" stroke="#00A86B" stroke-width="0.5"/><line x1="390.2779841264155" y1="80.81050024264604" x2="396.83727797727965" y2="80.81050024264604" stroke="#00A86B" stroke-width="0.5"/><line x1="455.8709226350568" y1="80.81050024264604" x2="462.43021648592094" y2="80.81050024264604" stroke="#00A86B" stroke-width="0.5"/><line x1="29.516822328888573" y1="137.61398499112937" x2="36.076116179752695" y2="137.61398499112937" stroke="#00A86B" stroke-width="0.5"/><line x1="95.10976083752985" y1="137.61398499112937" x2="101.66905468839397" y2="137.61398499112937" stroke="#00A86B" stroke-width="0.5"/><line x1="160.7026993461711" y1="137.61398499112937" x2="167.26199319703522" y2="137.61398499112937" stroke="#00A86B" stroke-width="0.5"/><line x1="226.29563785481236" y1="137.61398499112937" x2="232.8549317056765" y2="137.61398499112937" stroke="#00A86B" stroke-width="0.5"/><line x1="291.88857636345364" y1="137.61398499112937" x2="298.4478702143178" y2="137.61398499112937" stroke="#00A86B" stroke-width="0.5"/><line x1="357.4815148720949" y1="137.61398499112937" x2="364.040808722959" y2="137.61398499112937" stroke="#00A86B" stroke-width="0.5"/><line x1="423.07445338073614" y1="137.61398499112937" x2="429.6337472316003" y2="137.61398499112937" stroke="#00A86B" stroke-width="0.5"/><line x1="488.6673918893774" y1="137.61398499112937" x2="495.2266857402416" y2="137.61398499112937" stroke="#00A86B" stroke-width="0.5"/><line x1="62.31329158320921" y1="194.4174697396127" x2="68.87258543407333" y2="194.4174697396127" stroke="#00A86B" stroke-width="0.5"/><line x1="127.90623009185046" y1="194.4174697396127" x2="134.46552394271458" y2="194.4174697396127" stroke="#00A86B" stroke-width="0.5"/><line x1="193.4991686004917" y1="194.4174697396127" x2="200.05846245135587" y2="194.4174697396127" stroke="#00A86B" stroke-width="0.5"/><line x1="259.092107109133" y1="194.4174697396127" x2="265.65140095999715" y2="194.4174697396127" stroke="#00A86B" stroke-width="0.5"/><line x1="324.6850456177743" y1="194.4174697396127" x2="331.2443394686384" y2="194.4174697396127" stroke="#00A86B" stroke-width="0.5"/><line x1="390.2779841264155" y1="194.4174697396127" x2="396.83727797727965" y2="194.4174697396127" stroke="#00A86B" stroke-width="0.5"/><line x1="455.8709226350568" y1="194.4174697396127" x2="462.43021648592094" y2="194.4174697396127" stroke="#00A86B" stroke-width="0.5"/><line x1="29.516822328888573" y1="251.22095448809608" x2="36.076116179752695" y2="251.22095448809608" stroke="#00A86B" stroke-width="0.5"/><line x1="95.10976083752985" y1="251.22095448809608" x2="101.66905468839397" y2="251.22095448809608" stroke="#00A86B" stroke-width="0.5"/><line x1="160.7026993461711" y1="251.22095448809608" x2="167.26199319703522" y2="251.22095448809608" stroke="#00A86B" stroke-width="0.5"/><line x1="226.29563785481236" y1="251.22095448809608" x2="232.8549317056765" y2="251.22095448809608" stroke="#00A86B" stroke-width="0.5"/><line x1="291.88857636345364" y1="251.22095448809608" x2="298.4478702143178" y2="251.22095448809608" stroke="#00A86B" stroke-width="0.5"/><line x1="357.4815148720949" y1="251.22095448809608" x2="364.040808722959" y2="251.22095448809608" stroke="#00A86B" stroke-width="0.5"/><line x1="423.07445338073614" y1="251.22095448809608" x2="429.6337472316003" y2="251.22095448809608" stroke="#00A86B" stroke-width="0.5"/><line x1="488.6673918893774" y1="251.22095448809608" x2="495.2266857402416" y2="251.22095448809608" stroke="#00A86B" stroke-width="0.5"/><line x1="62.31329158320921" y1="308.0244392365794" x2="68.87258543407333" y2="308.0244392365794" stroke="#00A86B" stroke-width="0.5"/><line x1="127.90623009185046" y1="308.0244392365794" x2="134.46552394271458" y2="308.0244392365794" stroke="#00A86B" stroke-width="0.5"/><line x1="193.4991686004917" y1="308.0244392365794" x2="200.05846245135587" y2="308.0244392365794" stroke="#00A86B" stroke-width="0.5"/><line x1="259.092107109133" y1="308.0244392365794" x2="265.65140095999715" y2="308.0244392365794" stroke="#00A86B" stroke-width="0.5"/><line x1="324.6850456177743" y1="308.0244392365794" x2="331.2443394686384" y2="308.0244392365794" stroke="#00A86B" stroke-width="0.5"/><line x1="390.2779841264155" y1="308.0244392365794" x2="396.83727797727965" y2="308.0244392365794" stroke="#00A86B" stroke-width="0.5"/><line x1="455.8709226350568" y1="308.0244392365794" x2="462.43021648592094" y2="308.0244392365794" stroke="#00A86B" stroke-width="0.5"/><line x1="29.516822328888573" y1="364.8279239850627" x2="36.076116179752695" y2="364.8279239850627" stroke="#00A86B" stroke-width="0.5"/><line x1="95.10976083752985" y1="364.8279239850627" x2="101.66905468839397" y2="364.8279239850627" stroke="#00A86B" stroke-width="0.5"/><line x1="160.7026993461711" y1="364.8279239850627" x2="167.26199319703522" y2="364.8279239850627" stroke="#00A86B" stroke-width="0.5"/><line x1="226.29563785481236" y1="364.8279239850627" x2="232.8549317056765" y2="364.8279239850627" stroke="#00A86B" stroke-width="0.5"/><line x1="291.88857636345364" y1="364.8279239850627" x2="298.4478702143178" y2="364.8279239850627" stroke="#00A86B" stroke-width="0.5"/><line x1="357.4815148720949" y1="364.8279239850627" x2="364.040808722959" y2="364.8279239850627" stroke="#00A86B" stroke-width="0.5"/><line x1="423.07445338073614" y1="364.8279239850627" x2="429.6337472316003" y2="364.8279239850627" stroke="#00A86B" stroke-width="0.5"/><line x1="488.6673918893774" y1="364.8279239850627" x2="495.2266857402416" y2="364.8279239850627" stroke="#00A86B" stroke-width="0.5"/><line x1="62.31329158320921" y1="421.63140873354604" x2="68.87258543407333" y2="421.63140873354604" stroke="#00A86B" stroke-width="0.5"/><line x1="127.90623009185046" y1="421.63140873354604" x2="134.46552394271458" y2="421.63140873354604" stroke="#00A86B" stroke-width="0.5"/><line x1="193.4991686004917" y1="421.63140873354604" x2="200.05846245135587" y2="421.63140873354604" stroke="#00A86B" stroke-width="0.5"/><line x1="259.092107109133" y1="421.63140873354604" x2="265.65140095999715" y2="421.63140873354604" stroke="#00A86B" stroke-width="0.5"/><line x1="324.6850456177743" y1="421.63140873354604" x2="331.2443394686384" y2="421.63140873354604" stroke="#00A86B" stroke-width="0.5"/><line x1="390.2779841264155" y1="421.63140873354604" x2="396.83727797727965" y2="421.63140873354604" stroke="#00A86B" stroke-width="0.5"/><line x1="455.8709226350568" y1="421.63140873354604" x2="462.43021648592094" y2="421.63140873354604" stroke="#00A86B" stroke-width="0.5"/><line x1="29.516822328888573" y1="478.4348934820294" x2="36.076116179752695" y2="478.4348934820294" stroke="#00A86B" stroke-width="0.5"/><line x1="95.10976083752985" y1="478.4348934820294" x2="101.66905468839397" y2="478.4348934820294" stroke="#00A86B" stroke-width="0.5"/><line x1="160.7026993461711" y1="478.4348934820294" x2="167.26199319703522" y2="478.4348934820294" stroke="#00A86B" stroke-width="0.5"/><line x1="226.29563785481236" y1="478.4348934820294" x2="232.8549317056765" y2="478.4348934820294" stroke="#00A86B" stroke-width="0.5"/><line x1="291.88857636345364" y1="478.4348934820294" x2="298.4478702143178" y2="478.4348934820294" stroke="#00A86B" stroke-width="0.5"/><line x1="357.4815148720949" y1="478.4348934820294" x2="364.040808722959" y2="478.4348934820294" stroke="#00A86B" stroke-width="0.5"/><line x1="423.07445338073614" y1="478.4348934820294" x2="429.6337472316003" y2="478.4348934820294" stroke="#00A86B" stroke-width="0.5"/><line x1="488.6673918893774" y1="478.4348934820294" x2="495.2266857402416" y2="478.4348934820294" stroke="#00A86B" stroke-width="0.5"/></g></svg>