<svg xmlns="http://www.w3.org/2000/svg" width="512" height="512" viewBox="0 0 512 512"><rect x="0" y="0" width="512" height="512" fill="#050510"/><g opacity="0.17948961263964403"><path d="M -37.77530888552451,-71.77308688249657 L -30.547316454042512,-55.22522624233843 L -13.735249518590763,-61.81536825245825 L -20.32539152871059,-45.0033013170065 L -3.777530888552448,-37.77530888552451 L -20.32539152871059,-30.547316454042512 L -13.735249518590763,-13.73524951859077 L -30.547316454042512,-20.32539152871059 L -37.77530888552451,-3.777530888552448 L -45.0033013170065,-20.32539152871059 L -61.81536825245825,-13.735249518590763 L -55.22522624233842,-30.5473164540425 L -71.77308688249657,-37.7753088855245 L -55.22522624233842,-45.00330131700651 L -61.815368252458256,-61.81536825245825 L -45.00330131700652,-55.22522624233842 Z" fill="none" stroke="#0F52BA" stroke-width="2.5292523512752974" /><path d="M 37.77530888552451,-71.77308688249657 L 45.00330131700651,-55.22522624233843 L 61.815368252458256,-61.81536825245825 L 55.22522624233843,-45.0033013170065 L 71.77308688249657,-37.77530888552451 L 55.22522624233843,-30.547316454042512 L 61.815368252458256,-13.73524951859077 L 45.00330131700651,-20.32539152871059 L 37.77530888552451,-3.777530888552448 L 30.547316454042516,-20.32539152871059 L 13.73524951859077,-13.735249518590763 L 20.325391528710593,-30.5473164540425 L 3.777530888552448,-37.7753088855245 L 20.325391528710593,-45.00330131700651 L 13.73524951859076,-61.81536825245825 L 30.5473164540425,-55.22522624233842 Z" fill="none" stroke="#0F52BA" stroke-width="2.5292523512752974" /><path d="M 113.32592665657353,-71.77308688249657 L 120.55391908805552,-55.22522624233843 L 137.36598602350728,-61.81536825245825 L 130.77584401338746,-45.0033013170065 L 147.32370465354558,-37.77530888552451 L 130.77584401338746,-30.547316454042512 L 137.36598602350728,-13.73524951859077 L 120.55391908805552,-20.32539152871059 L 113.32592665657353,-3.777530888552448 L 106.09793422509154,-20.32539152871059 L 89.28586728963978,-13.735249518590763 L 95.87600929975962,-30.5473164540425 L 79.32814865960147,-37.7753088855245 L 95.87600929975962,-45.00330131700651 L 89.28586728963978,-61.81536825245825 L 106.09793422509152,-55.22522624233842 Z" fill="none" stroke="#0F52BA" stroke-width="2.5292523512752974" /><path d="M 188.87654442762255,-71.77308688249657 L 196.10453685910454,-55.22522624233843 L 212.9166037945563,-61.81536825245825 L 206.32646178443647,-45.0033013170065 L 222.8743224245946,-37.77530888552451 L 206.32646178443647,-30.547316454042512 L 212.9166037945563,-13.73524951859077 L 196.10453685910454,-20.32539152871059 L 188.87654442762255,-3.777530888552448 L 181.64855199614055,-20.32539152871059 L 164.8364850606888,-13.735249518590763 L 171.42662707080862,-30.5473164540425 L 154.8787664306505,-37.7753088855245 L 171.42662707080862,-45.00330131700651 L 164.8364850606888,-61.81536825245825 L 181.64855199614055,-55.22522624233842 Z" fill="none" stroke="#0F52BA" stroke-width="2.5292523512752974" /><path d="M 264.42716219867157,-71.77308688249657 L 271.65515463015356,-55.22522624233843 L 288.4672215656053,-61.81536825245825 L 281.87707955548547,-45.0033013170065 L 298.4249401956436,-37.77530888552451 L 281.87707955548547,-30.547316454042512 L 288.4672215656053,-13.73524951859077 L 271.65515463015356,-20.32539152871059 L 264.42716219867157,-3.777530888552448 L 257.1991697671896,-20.32539152871059 L 240.38710283173782,-13.735249518590763 L 246.97724484185764,-30.5473164540425 L 230.42938420169952,-37.7753088855245 L 246.97724484185764,-45.00330131700651 L 240.38710283173782,-61.81536825245825 L 257.1991697671896,-55.22522624233842 Z" fill="none" stroke="#0F52BA" stroke-width="2.5292523512752974" /><path d="M 339.9777799697206,-71.77308688249657 L 347.2057724012026,-55.22522624233843 L 364.01783933665433,-61.81536825245825 L 357.4276973265345,-45.0033013170065 L 373.97555796669263,-37.77530888552451 L 357.4276973265345,-30.547316454042512 L 364.01783933665433,-13.73524951859077 L 347.2057724012026,-20.32539152871059 L 339.9777799697206,-3.777530888552448 L 332.7497875382386,-20.32539152871059 L 315.93772060278684,-13.735249518590763 L 322.5278626129067,-30.5473164540425 L 305.98000197274854,-37.7753088855245 L 322.5278626129067,-45.00330131700651 L 315.93772060278684,-61.81536825245825 L 332.7497875382386,-55.22522624233842 Z" fill="none" stroke="#0F52BA" stroke-width="2.5292523512752974" /><path d="M 415.5283977407696,-71.77308688249657 L 422.7563901722516,-55.22522624233843 L 439.56845710770335,-61.81536825245825 L 432.9783150975835,-45.0033013170065 L 449.52617573774165,-37.77530888552451 L 432.9783150975835,-30.547316454042512 L 439.56845710770335,-13.73524951859077 L 422.7563901722516,-20.32539152871059 L 415.5283977407696,-3.777530888552448 L 408.3004053092876,-20.32539152871059 L 391.48833837383586,-13.735249518590763 L 398.0784803839557,-30.5473164540425 L 381.53061974379756,-37.7753088855245 L 398.0784803839557,-45.00330131700651 L 391.48833837383586,-61.81536825245825 L 408.3004053092876,-55.22522624233842 Z" fill="none" stroke="#0F52BA" stroke-width="2.5292523512752974" /><path d="M 491.0790155118186,-71.77308688249657 L 498.3070079433006,-55.22522624233843 L 515.1190748787524,-61.81536825245825 L 508.5289328686325,-45.0033013170065 L 525.0767935087907,-37.77530888552451 L 508.5289328686325,-30.547316454042512 L 515.1190748787524,-13.73524951859077 L 498.3070079433006,-20.32539152871059 L 491.0790155118186,-3.777530888552448 L 483.85102308033663,-20.32539152871059 L 467.0389561448849,-13.735249518590763 L 473.6290981550047,-30.5473164540425 L 457.0812375148466,-37.7753088855245 L 473.6290981550047,-45.00330131700651 L 467.0389561448849,-61.81536825245825 L 483.85102308033663,-55.22522624233842 Z" fill="none" stroke="#0F52BA" stroke-width="2.5292523512752974" /><path d="M 566.6296332828676,-71.77308688249657 L 573.8576257143496,-55.22522624233843 L 590.6696926498014,-61.81536825245825 L 584.0795506396815,-45.0033013170065 L 600.6274112798397,-37.77530888552451 L 584.0795506396815,-30.547316454042512 L 590.6696926498014,-13.73524951859077 L 573.8576257143496,-20.32539152871059 L 566.6296332828676,-3.777530888552448 L 559.4016408513857,-20.32539152871059 L 542.5895739159339,-13.735249518590763 L 549.1797159260537,-30.5473164540425 L 532.6318552858955,-37.7753088855245 L 549.1797159260537,-45.00330131700651 L 542.5895739159339,-61.81536825245825 L 559.4016408513857,-55.22522624233842 Z" fill="none" stroke="#0F52BA" stroke-width="2.5292523512752974" /><path d="M 2.0817635001057073e-15,-6.346251892768123 L 7.227992431481998,10.201608747390019 L 24.040059366933747,3.6114667372701987 L 17.44991735681392,20.42353367272194 L 33.99777799697206,27.65152610420394 L 17.44991735681392,34.87951853568593 L 24.040059366933747,51.69158547113768 L 7.227992431481998,45.10144346101786 L 2.0817635001057073e-15,61.649304101176 L -7.227992431481995,45.10144346101786 L -24.04005936693374,51.691585471137685 L -17.449917356813916,34.879518535685946 L -33.99777799697206,27.651526104203942 L -17.449917356813916,20.423533672721938 L -24.04005936693375,3.6114667372701987 L -7.227992431482007,10.201608747390022 Z" fill="none" stroke="#0F52BA" stroke-width="2.5292523512752974" /><path d="M 75.55061777104902,-6.346251892768123 L 82.77861020253101,10.201608747390019 L 99.59067713798277,3.6114667372701987 L 93.00053512786295,20.42353367272194 L 109.54839576802108,27.65152610420394 L 93.00053512786295,34.87951853568593 L 99.59067713798277,51.69158547113768 L 82.77861020253101,45.10144346101786 L 75.55061777104902,61.649304101176 L 68.32262533956703,45.10144346101786 L 51.51055840411528,51.691585471137685 L 58.10070041423511,34.879518535685946 L 41.55283977407696,27.651526104203942 L 58.10070041423511,20.423533672721938 L 51.51055840411527,3.6114667372701987 L 68.32262533956701,10.201608747390022 Z" fill="none" stroke="#0F52BA" stroke-width="2.5292523512752974" /><path d="M 151.10123554209804,-6.346251892768123 L 158.32922797358003,10.201608747390019 L 175.14129490903179,3.6114667372701987 L 168.55115289891197,20.42353367272194 L 185.09901353907009,27.65152610420394 L 168.55115289891197,34.87951853568593 L 175.14129490903179,51.69158547113768 L 158.32922797358003,45.10144346101786 L 151.10123554209804,61.649304101176 L 143.87324311061604,45.10144346101786 L 127.06117617516429,51.691585471137685 L 133.6513181852841,34.879518535685946 L 117.10345754512598,27.651526104203942 L 133.6513181852841,20.423533672721938 L 127.06117617516429,3.6114667372701987 L 143.87324311061604,10.201608747390022 Z" fill="none" stroke="#0F52BA" stroke-width="2.5292523512752974" /><path d="M 226.65185331314706,-6.346251892768123 L 233.87984574462905,10.201608747390019 L 250.6919126800808,3.6114667372701987 L 244.10177066996098,20.42353367272194 L 260.6496313101191,27.65152610420394 L 244.10177066996098,34.87951853568593 L 250.6919126800808,51.69158547113768 L 233.87984574462905,45.10144346101786 L 226.65185331314706,61.649304101176 L 219.42386088166506,45.10144346101786 L 202.6117939462133,51.691585471137685 L 209.20193595633313,34.879518535685946 L 192.654075316175,27.651526104203942 L 209.20193595633313,20.423533672721938 L 202.6117939462133,3.6114667372701987 L 219.42386088166506,10.201608747390022 Z" fill="none" stroke="#0F52BA" stroke-width="2.5292523512752974" /><path d="M 302.2024710841961,-6.346251892768123 L 309.43046351567807,10.201608747390019 L 326.2425304511298,3.6114667372701987 L 319.65238844101,20.42353367272194 L 336.2002490811681,27.65152610420394 L 319.65238844101,34.87951853568593 L 326.2425304511298,51.69158547113768 L 309.43046351567807,45.10144346101786 L 302.2024710841961,61.649304101176 L 294.9744786527141,45.10144346101786 L 278.16241171726233,51.691585471137685 L 284.7525537273822,34.879518535685946 L 268.20469308722403,27.651526104203942 L 284.7525537273822,20.423533672721938 L 278.16241171726233,3.6114667372701987 L 294.9744786527141,10.201608747390022 Z" fill="none" stroke="#0F52BA" stroke-width="2.5292523512752974" /><path d="M 377.7530888552451,-6.346251892768123 L 384.9810812867271,10.201608747390019 L 401.79314822217884,3.6114667372701987 L 395.203006212059,20.42353367272194 L 411.75086685221714,27.65152610420394 L 395.203006212059,34.87951853568593 L 401.79314822217884,51.69158547113768 L 384.9810812867271,45.10144346101786 L 377.7530888552451,61.649304101176 L 370.5250964237631,45.10144346101786 L 353.71302948831135,51.691585471137685 L 360.3031714984312,34.879518535685946 L 343.75531085827305,27.651526104203942 L 360.3031714984312,20.423533672721938 L 353.71302948831135,3.6114667372701987 L 370.5250964237631,10.201608747390022 Z" fill="none" stroke="#0F52BA" stroke-width="2.5292523512752974" /><path d="M 453.3037066262941,-6.346251892768123 L 460.5316990577761,10.201608747390019 L 477.34376599322786,3.6114667372701987 L 470.753623983108,20.42353367272194 L 487.30148462326616,27.65152610420394 L 470.753623983108,34.87951853568593 L 477.34376599322786,51.69158547113768 L 460.5316990577761,45.10144346101786 L 453.3037066262941,61.649304101176 L 446.0757141948121,45.10144346101786 L 429.26364725936037,51.691585471137685 L 435.8537892694802,34.879518535685946 L 419.30592862932207,27.651526104203942 L 435.8537892694802,20.423533672721938 L 429.26364725936037,3.6114667372701987 L 446.0757141948121,10.201608747390022 Z" fill="none" stroke="#0F52BA" stroke-width="2.5292523512752974" /><path d="M 528.8543243973431,-6.346251892768123 L 536.0823168288251,10.201608747390019 L 552.8943837642769,3.6114667372701987 L 546.304241754157,20.42353367272194 L 562.8521023943152,27.65152610420394 L 546.304241754157,34.87951853568593 L 552.8943837642769,51.69158547113768 L 536.0823168288251,45.10144346101786 L 528.8543243973431,61.649304101176 L 521.6263319658611,45.10144346101786 L 504.8142650304094,51.691585471137685 L 511.40440704052924,34.879518535685946 L 494.8565464003711,27.651526104203942 L 511.40440704052924,20.423533672721938 L 504.8142650304094,3.6114667372701987 L 521.6263319658611,10.201608747390022 Z" fill="none" stroke="#0F52BA" stroke-width="2.5292523512752974" /><path d="M -37.77530888552451,59.080583096960325 L -30.547316454042512,75.62844373711846 L -13.735249518590763,69.03830172699864 L -20.32539152871059,85.85036866245039 L -3.777530888552448,93.07836109393239 L -20.32539152871059,100.30635352541438 L -13.735249518590763,117.11842046086613 L -30.547316454042512,110.52827845074631 L -37.77530888552451,127.07613909090445 L -45.0033013170065,110.52827845074631 L -61.81536825245825,117.11842046086613 L -55.22522624233842,100.3063535254144 L -71.77308688249657,93.07836109393239 L -55.22522624233842,85.85036866245038 L -61.815368252458256,69.03830172699864 L -45.00330131700652,75.62844373711847 Z" fill="none" stroke="#0F52BA" stroke-width="2.5292523512752974" /><path d="M 37.77530888552451,59.080583096960325 L 45.00330131700651,75.62844373711846 L 61.815368252458256,69.03830172699864 L 55.22522624233843,85.85036866245039 L 71.77308688249657,93.07836109393239 L 55.22522624233843,100.30635352541438 L 61.815368252458256,117.11842046086613 L 45.00330131700651,110.52827845074631 L 37.77530888552451,127.07613909090445 L 30.547316454042516,110.52827845074631 L 13.73524951859077,117.11842046086613 L 20.325391528710593,100.3063535254144 L 3.777530888552448,93.07836109393239 L 20.325391528710593,85.85036866245038 L 13.73524951859076,69.03830172699864 L 30.5473164540425,75.62844373711847 Z" fill="none" stroke="#0F52BA" stroke-width="2.5292523512752974" /><path d="M 113.32592665657353,59.080583096960325 L 120.55391908805552,75.62844373711846 L 137.36598602350728,69.03830172699864 L 130.77584401338746,85.85036866245039 L 147.32370465354558,93.07836109393239 L 130.77584401338746,100.30635352541438 L 137.36598602350728,117.11842046086613 L 120.55391908805552,110.52827845074631 L 113.32592665657353,127.07613909090445 L 106.09793422509154,110.52827845074631 L 89.28586728963978,117.11842046086613 L 95.87600929975962,100.3063535254144 L 79.32814865960147,93.07836109393239 L 95.87600929975962,85.85036866245038 L 89.28586728963978,69.03830172699864 L 106.09793422509152,75.62844373711847 Z" fill="none" stroke="#0F52BA" stroke-width="2.5292523512752974" /><path d="M 188.87654442762255,59.080583096960325 L 196.10453685910454,75.62844373711846 L 212.9166037945563,69.03830172699864 L 206.32646178443647,85.85036866245039 L 222.8743224245946,93.07836109393239 L 206.32646178443647,100.30635352541438 L 212.9166037945563,117.11842046086613 L 196.10453685910454,110.52827845074631 L 188.87654442762255,127.07613909090445 L 181.64855199614055,110.52827845074631 L 164.8364850606888,117.11842046086613 L 171.42662707080862,100.3063535254144 L 154.8787664306505,93.07836109393239 L 171.42662707080862,85.85036866245038 L 164.8364850606888,69.03830172699864 L 181.64855199614055,75.62844373711847 Z" fill="none" stroke="#0F52BA" stroke-width="2.5292523512752974" /><path d="M 264.42716219867157,59.080583096960325 L 271.65515463015356,75.62844373711846 L 288.4672215656053,69.03830172699864 L 281.87707955548547,85.85036866245039 L 298.4249401956436,93.07836109393239 L 281.87707955548547,100.30635352541438 L 288.4672215656053,117.11842046086613 L 271.65515463015356,110.52827845074631 L 264.42716219867157,127.07613909090445 L 257.1991697671896,110.52827845074631 L 240.38710283173782,117.11842046086613 L 246.97724484185764,100.3063535254144 L 230.42938420169952,93.07836109393239 L 246.97724484185764,85.85036866245038 L 240.38710283173782,69.03830172699864 L 257.1991697671896,75.62844373711847 Z" fill="none" stroke="#0F52BA" stroke-width="2.5292523512752974" /><path d="M 339.9777799697206,59.080583096960325 L 347.2057724012026,75.62844373711846 L 364.01783933665433,69.03830172699864 L 357.4276973265345,85.85036866245039 L 373.97555796669263,93.07836109393239 L 357.4276973265345,100.30635352541438 L 364.01783933665433,117.11842046086613 L 347.2057724012026,110.52827845074631 L 339.9777799697206,127.07613909090445 L 332.7497875382386,110.52827845074631 L 315.93772060278684,117.11842046086613 L 322.5278626129067,100.3063535254144 L 305.98000197274854,93.07836109393239 L 322.5278626129067,85.85036866245038 L 315.93772060278684,69.03830172699864 L 332.7497875382386,75.62844373711847 Z" fill="none" stroke="#0F52BA" stroke-width="2.5292523512752974" /><path d="M 415.5283977407696,59.080583096960325 L 422.7563901722516,75.62844373711846 L 439.56845710770335,69.03830172699864 L 432.9783150975835,85.85036866245039 L 449.52617573774165,93.07836109393239 L 432.9783150975835,100.30635352541438 L 439.56845710770335,117.11842046086613 L 422.7563901722516,110.52827845074631 L 415.5283977407696,127.07613909090445 L 408.3004053092876,110.52827845074631 L 391.48833837383586,117.11842046086613 L 398.0784803839557,100.3063535254144 L 381.53061974379756,93.07836109393239 L 398.0784803839557,85.85036866245038 L 391.48833837383586,69.03830172699864 L 408.3004053092876,75.62844373711847 Z" fill="none" stroke="#0F52BA" stroke-width="2.5292523512752974" /><path d="M 491.0790155118186,59.080583096960325 L 498.3070079433006,75.62844373711846 L 515.1190748787524,69.03830172699864 L 508.5289328686325,85.85036866245039 L 525.0767935087907,93.07836109393239 L 508.5289328686325,100.30635352541438 L 515.1190748787524,117.11842046086613 L 498.3070079433006,110.52827845074631 L 491.0790155118186,127.07613909090445 L 483.85102308033663,110.52827845074631 L 467.0389561448849,117.11842046086613 L 473.6290981550047,100.3063535254144 L 457.0812375148466,93.07836109393239 L 473.6290981550047,85.85036866245038 L 467.0389561448849,69.03830172699864 L 483.85102308033663,75.62844373711847 Z" fill="none" stroke="#0F52BA" stroke-width="2.5292523512752974" /><path d="M 566.6296332828676,59.080583096960325 L 573.8576257143496,75.62844373711846 L 590.6696926498014,69.03830172699864 L 584.0795506396815,85.85036866245039 L 600.6274112798397,93.07836109393239 L 584.0795506396815,100.30635352541438 L 590.6696926498014,117.11842046086613 L 573.8576257143496,110.52827845074631 L 566.6296332828676,127.07613909090445 L 559.4016408513857,110.52827845074631 L 542.5895739159339,117.11842046086613 L 549.1797159260537,100.3063535254144 L 532.6318552858955,93.07836109393239 L 549.1797159260537,85.85036866245038 L 542.5895739159339,69.03830172699864 L 559.4016408513857,75.62844373711847 Z" fill="none" stroke="#0F52BA" stroke-width="2.5292523512752974" /><path d="M 2.0817635001057073e-15,124.50741808668879 L 7.227992431481998,141.05527872684692 L 24.040059366933747,134.4651367167271 L 17.44991735681392,151.27720365217886 L 33.99777799697206,158.50519608366085 L 17.44991735681392,165.73318851514284 L 24.040059366933747,182.5452554505946 L 7.227992431481998,175.95511344047478 L 2.0817635001057073e-15,192.5029740806329 L -7.227992431481995,175.95511344047478 L -24.04005936693374,182.5452554505946 L -17.449917356813916,165.73318851514284 L -33.99777799697206,158.50519608366085 L -17.449917356813916,151.27720365217886 L -24.04005936693375,134.4651367167271 L -7.227992431482007,141.05527872684692 Z" fill="none" stroke="#0F52BA" stroke-width="2.5292523512752974" /><path d="M 75.55061777104902,124.50741808668879 L 82.77861020253101,141.05527872684692 L 99.59067713798277,134.4651367167271 L 93.00053512786295,151.27720365217886 L 109.54839576802108,158.50519608366085 L 93.00053512786295,165.73318851514284 L 99.59067713798277,182.5452554505946 L 82.77861020253101,175.95511344047478 L 75.55061777104902,192.5029740806329 L 68.32262533956703,175.95511344047478 L 51.51055840411528,182.5452554505946 L 58.10070041423511,165.73318851514284 L 41.55283977407696,158.50519608366085 L 58.10070041423511,151.27720365217886 L 51.51055840411527,134.4651367167271 L 68.32262533956701,141.05527872684692 Z" fill="none" stroke="#0F52BA" stroke-width="2.5292523512752974" /><path d="M 151.10123554209804,124.50741808668879 L 158.32922797358003,141.05527872684692 L 175.14129490903179,134.4651367167271 L 168.55115289891197,151.27720365217886 L 185.09901353907009,158.50519608366085 L 168.55115289891197,165.73318851514284 L 175.14129490903179,182.5452554505946 L 158.32922797358003,175.95511344047478 L 151.10123554209804,192.5029740806329 L 143.87324311061604,175.95511344047478 L 127.06117617516429,182.5452554505946 L 133.6513181852841,165.73318851514284 L 117.10345754512598,158.50519608366085 L 133.6513181852841,151.27720365217886 L 127.06117617516429,134.4651367167271 L 143.87324311061604,141.05527872684692 Z" fill="none" stroke="#0F52BA" stroke-width="2.5292523512752974" /><path d="M 226.65185331314706,124.50741808668879 L 233.87984574462905,141.05527872684692 L 250.6919126800808,134.4651367167271 L 244.10177066996098,151.27720365217886 L 260.6496313101191,158.50519608366085 L 244.10177066996098,165.73318851514284 L 250.6919126800808,182.5452554505946 L 233.87984574462905,175.95511344047478 L 226.65185331314706,192.5029740806329 L 219.42386088166506,175.95511344047478 L 202.6117939462133,182.5452554505946 L 209.20193595633313,165.73318851514284 L 192.654075316175,158.50519608366085 L 209.20193595633313,151.27720365217886 L 202.6117939462133,134.4651367167271 L 219.42386088166506,141.05527872684692 Z" fill="none" stroke="#0F52BA" stroke-width="2.5292523512752974" /><path d="M 302.2024710841961,124.50741808668879 L 309.43046351567807,141.05527872684692 L 326.2425304511298,134.4651367167271 L 319.65238844101,151.27720365217886 L 336.2002490811681,158.50519608366085 L 319.65238844101,165.73318851514284 L 326.2425304511298,182.5452554505946 L 309.43046351567807,175.95511344047478 L 302.2024710841961,192.5029740806329 L 294.9744786527141,175.95511344047478 L 278.16241171726233,182.5452554505946 L 284.7525537273822,165.73318851514284 L 268.20469308722403,158.50519608366085 L 284.7525537273822,151.27720365217886 L 278.16241171726233,134.4651367167271 L 294.9744786527141,141.05527872684692 Z" fill="none" stroke="#0F52BA" stroke-width="2.5292523512752974" /><path d="M 377.7530888552451,124.50741808668879 L 384.9810812867271,141.05527872684692 L 401.79314822217884,134.4651367167271 L 395.203006212059,151.27720365217886 L 411.75086685221714,158.50519608366085 L 395.203006212059,165.73318851514284 L 401.79314822217884,182.5452554505946 L 384.9810812867271,175.95511344047478 L 377.7530888552451,192.5029740806329 L 370.5250964237631,175.95511344047478 L 353.71302948831135,182.5452554505946 L 360.3031714984312,165.73318851514284 L 343.75531085827305,158.50519608366085 L 360.3031714984312,151.27720365217886 L 353.71302948831135,134.4651367167271 L 370.5250964237631,141.05527872684692 Z" fill="none" stroke="#0F52BA" stroke-width="2.5292523512752974" /><path d="M 453.3037066262941,124.50741808668879 L 460.5316990577761,141.05527872684692 L 477.34376599322786,134.4651367167271 L 470.753623983108,151.27720365217886 L 487.30148462326616,158.50519608366085 L 470.753623983108,165.73318851514284 L 477.34376599322786,182.5452554505946 L 460.5316990577761,175.95511344047478 L 453.3037066262941,192.5029740806329 L 446.0757141948121,175.95511344047478 L 429.26364725936037,182.5452554505946 L 435.8537892694802,165.73318851514284 L 419.30592862932207,158.50519608366085 L 435.8537892694802,151.27720365217886 L 429.26364725936037,134.4651367167271 L 446.0757141948121,141.05527872684692 Z" fill="none" stroke="#0F52BA" stroke-width="2.5292523512752974" /><path d="M 528.8543243973431,124.50741808668879 L 536.0823168288251,141.05527872684692 L 552.8943837642769,134.4651367167271 L 546.304241754157,151.27720365217886 L 562.8521023943152,158.50519608366085 L 546.304241754157,165.73318851514284 L 552.8943837642769,182.5452554505946 L 536.0823168288251,175.95511344047478 L 528.8543243973431,192.5029740806329 L 521.6263319658611,175.95511344047478 L 504.8142650304094,182.5452554505946 L 511.40440704052924,165.73318851514284 L 494.8565464003711,158.50519608366085 L 511.40440704052924,151.27720365217886 L 504.8142650304094,134.4651367167271 L 521.6263319658611,141.05527872684692 Z" fill="none" stroke="#0F52BA" stroke-width="2.5292523512752974" /><path d="M -37.77530888552451,189.93425307641724 L -30.547316454042512,206.48211371657536 L -13.735249518590763,199.89197170645554 L -20.32539152871059,216.7040386419073 L -3.777530888552448,223.93203107338928 L -20.32539152871059,231.16002350487128 L -13.735249518590763,247.97209044032303 L -30.547316454042512,241.3819484302032 L -37.77530888552451,257.92980907036133 L -45.0033013170065,241.3819484302032 L -61.81536825245825,247.97209044032303 L -55.22522624233842,231.16002350487128 L -71.77308688249657,223.93203107338928 L -55.22522624233842,216.7040386419073 L -61.815368252458256,199.89197170645554 L -45.00330131700652,206.48211371657536 Z" fill="none" stroke="#0F52BA" stroke-width="2.5292523512752974" /><path d="M 37.77530888552451,189.93425307641724 L 45.00330131700651,206.48211371657536 L 61.815368252458256,199.89197170645554 L 55.22522624233843,216.7040386419073 L 71.77308688249657,223.93203107338928 L 55.22522624233843,231.16002350487128 L 61.815368252458256,247.97209044032303 L 45.00330131700651,241.3819484302032 L 37.77530888552451,257.92980907036133 L 30.547316454042516,241.3819484302032 L 13.73524951859077,247.97209044032303 L 20.325391528710593,231.16002350487128 L 3.777530888552448,223.93203107338928 L 20.325391528710593,216.7040386419073 L 13.73524951859076,199.89197170645554 L 30.5473164540425,206.48211371657536 Z" fill="none" stroke="#0F52BA" stroke-width="2.5292523512752974" /><path d="M 113.32592665657353,189.93425307641724 L 120.55391908805552,206.48211371657536 L 137.36598602350728,199.89197170645554 L 130.77584401338746,216.7040386419073 L 147.32370465354558,223.93203107338928 L 130.77584401338746,231.16002350487128 L 137.36598602350728,247.97209044032303 L 120.55391908805552,241.3819484302032 L 113.32592665657353,257.92980907036133 L 106.09793422509154,241.3819484302032 L 89.28586728963978,247.97209044032303 L 95.87600929975962,231.16002350487128 L 79.32814865960147,223.93203107338928 L 95.87600929975962,216.7040386419073 L 89.28586728963978,199.89197170645554 L 106.09793422509152,206.48211371657536 Z" fill="none" stroke="#0F52BA" stroke-width="2.5292523512752974" /><path d="M 188.87654442762255,189.93425307641724 L 196.10453685910454,206.48211371657536 L 212.9166037945563,199.89197170645554 L 206.32646178443647,216.7040386419073 L 222.8743224245946,223.93203107338928 L 206.32646178443647,231.16002350487128 L 212.9166037945563,247.97209044032303 L 196.10453685910454,241.3819484302032 L 188.87654442762255,257.92980907036133 L 181.64855199614055,241.3819484302032 L 164.8364850606888,247.97209044032303 L 171.42662707080862,231.16002350487128 L 154.8787664306505,223.93203107338928 L 171.42662707080862,216.7040386419073 L 164.8364850606888,199.89197170645554 L 181.64855199614055,206.48211371657536 Z" fill="none" stroke="#0F52BA" stroke-width="2.5292523512752974" /><path d="M 264.42716219867157,189.93425307641724 L 271.65515463015356,206.48211371657536 L 288.4672215656053,199.89197170645554 L 281.87707955548547,216.7040386419073 L 298.4249401956436,223.93203107338928 L 281.87707955548547,231.16002350487128 L 288.4672215656053,247.97209044032303 L 271.65515463015356,241.3819484302032 L 264.42716219867157,257.92980907036133 L 257.1991697671896,241.3819484302032 L 240.38710283173782,247.97209044032303 L 246.97724484185764,231.16002350487128 L 230.42938420169952,223.93203107338928 L 246.97724484185764,216.7040386419073 L 240.38710283173782,199.89197170645554 L 257.1991697671896,206.48211371657536 Z" fill="none" stroke="#0F52BA" stroke-width="2.5292523512752974" /><path d="M 339.9777799697206,189.93425307641724 L 347.2057724012026,206.48211371657536 L 364.01783933665433,199.89197170645554 L 357.4276973265345,216.7040386419073 L 373.97555796669263,223.93203107338928 L 357.4276973265345,231.16002350487128 L 364.01783933665433,247.97209044032303 L 347.2057724012026,241.3819484302032 L 339.9777799697206,257.92980907036133 L 332.7497875382386,241.3819484302032 L 315.93772060278684,247.97209044032303 L 322.5278626129067,231.16002350487128 L 305.98000197274854,223.93203107338928 L 322.5278626129067,216.7040386419073 L 315.93772060278684,199.89197170645554 L 332.7497875382386,206.48211371657536 Z" fill="none" stroke="#0F52BA" stroke-width="2.5292523512752974" /><path d="M 415.5283977407696,189.93425307641724 L 422.7563901722516,206.48211371657536 L 439.56845710770335,199.89197170645554 L 432.9783150975835,216.7040386419073 L 449.52617573774165,223.93203107338928 L 432.9783150975835,231.16002350487128 L 439.56845710770335,247.97209044032303 L 422.7563901722516,241.3819484302032 L 415.5283977407696,257.92980907036133 L 408.3004053092876,241.3819484302032 L 391.48833837383586,247.97209044032303 L 398.0784803839557,231.16002350487128 L 381.53061974379756,223.93203107338928 L 398.0784803839557,216.7040386419073 L 391.48833837383586,199.89197170645554 L 408.3004053092876,206.48211371657536 Z" fill="none" stroke="#0F52BA" stroke-width="2.5292523512752974" /><path d="M 491.0790155118186,189.93425307641724 L 498.3070079433006,206.48211371657536 L 515.1190748787524,199.89197170645554 L 508.5289328686325,216.7040386419073 L 525.0767935087907,223.93203107338928 L 508.5289328686325,231.16002350487128 L 515.1190748787524,247.97209044032303 L 498.3070079433006,241.3819484302032 L 491.0790155118186,257.92980907036133 L 483.85102308033663,241.3819484302032 L 467.0389561448849,247.97209044032303 L 473.6290981550047,231.16002350487128 L 457.0812375148466,223.93203107338928 L 473.6290981550047,216.7040386419073 L 467.0389561448849,199.89197170645554 L 483.85102308033663,206.48211371657536 Z" fill="none" stroke="#0F52BA" stroke-width="2.5292523512752974" /><path d="M 566.6296332828676,189.93425307641724 L 573.8576257143496,206.48211371657536 L 590.6696926498014,199.89197170645554 L 584.0795506396815,216.7040386419073 L 600.6274112798397,223.93203107338928 L 584.0795506396815,231.16002350487128 L 590.6696926498014,247.97209044032303 L 573.8576257143496,241.3819484302032 L 566.6296332828676,257.92980907036133 L 559.4016408513857,241.3819484302032 L 542.5895739159339,247.97209044032303 L 549.1797159260537,231.16002350487128 L 532.6318552858955,223.93203107338928 L 549.1797159260537,216.7040386419073 L 542.5895739159339,199.89197170645554 L 559.4016408513857,206.48211371657536 Z" fill="none" stroke="#0F52BA" stroke-width="2.5292523512752974" /><path d="M 2.0817635001057073e-15,255.36108806614567 L 7.227992431481998,271.9089487063038 L 24.040059366933747,265.31880669618397 L 17.44991735681392,282.1308736316357 L 33.99777799697206,289.3588660631177 L 17.44991735681392,296.5868584945997 L 24.040059366933747,313.39892543005146 L 7.227992431481998,306.8087834199316 L 2.0817635001057073e-15,323.35664406008976 L -7.227992431481995,306.8087834199316 L -24.04005936693374,313.39892543005146 L -17.449917356813916,296.5868584945997 L -33.99777799697206,289.3588660631177 L -17.449917356813916,282.1308736316357 L -24.04005936693375,265.31880669618397 L -7.227992431482007,271.9089487063038 Z" fill="none" stroke="#0F52BA" stroke-width="2.5292523512752974" /><path d="M 75.55061777104902,255.36108806614567 L 82.77861020253101,271.9089487063038 L 99.59067713798277,265.31880669618397 L 93.00053512786295,282.1308736316357 L 109.54839576802108,289.3588660631177 L 93.00053512786295,296.5868584945997 L 99.59067713798277,313.39892543005146 L 82.77861020253101,306.8087834199316 L 75.55061777104902,323.35664406008976 L 68.32262533956703,306.8087834199316 L 51.51055840411528,313.39892543005146 L 58.10070041423511,296.5868584945997 L 41.55283977407696,289.3588660631177 L 58.10070041423511,282.1308736316357 L 51.51055840411527,265.31880669618397 L 68.32262533956701,271.9089487063038 Z" fill="none" stroke="#0F52BA" stroke-width="2.5292523512752974" /><path d="M 151.10123554209804,255.36108806614567 L 158.32922797358003,271.9089487063038 L 175.14129490903179,265.31880669618397 L 168.55115289891197,282.1308736316357 L 185.09901353907009,289.3588660631177 L 168.55115289891197,296.5868584945997 L 175.14129490903179,313.39892543005146 L 158.32922797358003,306.8087834199316 L 151.10123554209804,323.35664406008976 L 143.87324311061604,306.8087834199316 L 127.06117617516429,313.39892543005146 L 133.6513181852841,296.5868584945997 L 117.10345754512598,289.3588660631177 L 133.6513181852841,282.1308736316357 L 127.06117617516429,265.31880669618397 L 143.87324311061604,271.9089487063038 Z" fill="none" stroke="#0F52BA" stroke-width="2.5292523512752974" /><path d="M 226.65185331314706,255.36108806614567 L 233.87984574462905,271.9089487063038 L 250.6919126800808,265.31880669618397 L 244.10177066996098,282.1308736316357 L 260.6496313101191,289.3588660631177 L 244.10177066996098,296.5868584945997 L 250.6919126800808,313.39892543005146 L 233.87984574462905,306.8087834199316 L 226.65185331314706,323.35664406008976 L 219.42386088166506,306.8087834199316 L 202.6117939462133,313.39892543005146 L 209.20193595633313,296.5868584945997 L 192.654075316175,289.3588660631177 L 209.20193595633313,282.1308736316357 L 202.6117939462133,265.31880669618397 L 219.42386088166506,271.9089487063038 Z" fill="none" stroke="#0F52BA" stroke-width="2.5292523512752974" /><path d="M 302.2024710841961,255.36108806614567 L 309.43046351567807,271.9089487063038 L 326.2425304511298,265.31880669618397 L 319.65238844101,282.1308736316357 L 336.2002490811681,289.3588660631177 L 319.65238844101,296.5868584945997 L 326.2425304511298,313.39892543005146 L 309.43046351567807,306.8087834199316 L 302.2024710841961,323.35664406008976 L 294.9744786527141,306.8087834199316 L 278.16241171726233,313.39892543005146 L 284.7525537273822,296.5868584945997 L 268.20469308722403,289.3588660631177 L 284.7525537273822,282.1308736316357 L 278.16241171726233,265.31880669618397 L 294.9744786527141,271.9089487063038 Z" fill="none" stroke="#0F52BA" stroke-width="2.5292523512752974" /><path d="M 377.7530888552451,255.36108806614567 L 384.9810812867271,271.9089487063038 L 401.79314822217884,265.31880669618397 L 395.203006212059,282.1308736316357 L 411.75086685221714,289.3588660631177 L 395.203006212059,296.5868584945997 L 401.79314822217884,313.39892543005146 L 384.9810812867271,306.8087834199316 L 377.7530888552451,323.35664406008976 L 370.5250964237631,306.8087834199316 L 353.71302948831135,313.39892543005146 L 360.3031714984312,296.5868584945997 L 343.75531085827305,289.3588660631177 L 360.3031714984312,282.1308736316357 L 353.71302948831135,265.31880669618397 L 370.5250964237631,271.9089487063038 Z" fill="none" stroke="#0F52BA" stroke-width="2.5292523512752974" /><path d="M 453.3037066262941,255.36108806614567 L 460.5316990577761,271.9089487063038 L 477.34376599322786,265.31880669618397 L 470.753623983108,282.1308736316357 L 487.30148462326616,289.3588660631177 L 470.753623983108,296.5868584945997 L 477.34376599322786,313.39892543005146 L 460.5316990577761,306.8087834199316 L 453.3037066262941,323.35664406008976 L 446.0757141948121,306.8087834199316 L 429.26364725936037,313.39892543005146 L 435.8537892694802,296.5868584945997 L 419.30592862932207,289.3588660631177 L 435.8537892694802,282.1308736316357 L 429.26364725936037,265.31880669618397 L 446.0757141948121,271.9089487063038 Z" fill="none" stroke="#0F52BA" stroke-width="2.5292523512752974" /><path d="M 528.8543243973431,255.36108806614567 L 536.0823168288251,271.9089487063038 L 552.8943837642769,265.31880669618397 L 546.304241754157,282.1308736316357 L 562.8521023943152,289.3588660631177 L 546.304241754157,296.5868584945997 L 552.8943837642769,313.39892543005146 L 536.0823168288251,306.8087834199316 L 528.8543243973431,323.35664406008976 L 521.6263319658611,306.8087834199316 L 504.8142650304094,313.39892543005146 L 511.40440704052924,296.5868584945997 L 494.8565464003711,289.3588660631177 L 511.40440704052924,282.1308736316357 L 504.8142650304094,265.31880669618397 L 521.6263319658611,271.9089487063038 Z" fill="none" stroke="#0F52BA" stroke-width="2.5292523512752974" /><path d="M -37.77530888552451,320.78792305587416 L -30.547316454042512,337.3357836960323 L -13.735249518590763,330.74564168591246 L -20.32539152871059,347.5577086213642 L -3.777530888552448,354.7857010528462 L -20.32539152871059,362.0136934843282 L -13.735249518590763,378.82576041977995 L -30.547316454042512,372.2356184096601 L -37.77530888552451,388.78347904981825 L -45.0033013170065,372.2356184096601 L -61.81536825245825,378.82576041977995 L -55.22522624233842,362.0136934843282 L -71.77308688249657,354.7857010528462 L -55.22522624233842,347.5577086213642 L -61.815368252458256,330.74564168591246 L -45.00330131700652,337.3357836960323 Z" fill="none" stroke="#0F52BA" stroke-width="2.5292523512752974" /><path d="M 37.77530888552451,320.78792305587416 L 45.00330131700651,337.3357836960323 L 61.815368252458256,330.74564168591246 L 55.22522624233843,347.5577086213642 L 71.77308688249657,354.7857010528462 L 55.22522624233843,362.0136934843282 L 61.815368252458256,378.82576041977995 L 45.00330131700651,372.2356184096601 L 37.77530888552451,388.78347904981825 L 30.547316454042516,372.2356184096601 L 13.73524951859077,378.82576041977995 L 20.325391528710593,362.0136934843282 L 3.777530888552448,354.7857010528462 L 20.325391528710593,347.5577086213642 L 13.73524951859076,330.74564168591246 L 30.5473164540425,337.3357836960323 Z" fill="none" stroke="#0F52BA" stroke-width="2.5292523512752974" /><path d="M 113.32592665657353,320.78792305587416 L 120.55391908805552,337.3357836960323 L 137.36598602350728,330.74564168591246 L 130.77584401338746,347.5577086213642 L 147.32370465354558,354.7857010528462 L 130.77584401338746,362.0136934843282 L 137.36598602350728,378.82576041977995 L 120.55391908805552,372.2356184096601 L 113.32592665657353,388.78347904981825 L 106.09793422509154,372.2356184096601 L 89.28586728963978,378.82576041977995 L 95.87600929975962,362.0136934843282 L 79.32814865960147,354.7857010528462 L 95.87600929975962,347.5577086213642 L 89.28586728963978,330.74564168591246 L 106.09793422509152,337.3357836960323 Z" fill="none" stroke="#0F52BA" stroke-width="2.5292523512752974" /><path d="M 188.87654442762255,320.78792305587416 L 196.10453685910454,337.3357836960323 L 212.9166037945563,330.74564168591246 L 206.32646178443647,347.5577086213642 L 222.8743224245946,354.7857010528462 L 206.32646178443647,362.0136934843282 L 212.9166037945563,378.82576041977995 L 196.10453685910454,372.2356184096601 L 188.87654442762255,388.78347904981825 L 181.64855199614055,372.2356184096601 L 164.8364850606888,378.82576041977995 L 171.42662707080862,362.0136934843282 L 154.8787664306505,354.7857010528462 L 171.42662707080862,347.5577086213642 L 164.8364850606888,330.74564168591246 L 181.64855199614055,337.3357836960323 Z" fill="none" stroke="#0F52BA" stroke-width="2.5292523512752974" /><path d="M 264.42716219867157,320.78792305587416 L 271.65515463015356,337.3357836960323 L 288.4672215656053,330.74564168591246 L 281.87707955548547,347.5577086213642 L 298.4249401956436,354.7857010528462 L 281.87707955548547,362.0136934843282 L 288.4672215656053,378.82576041977995 L 271.65515463015356,372.2356184096601 L 264.42716219867157,388.78347904981825 L 257.1991697671896,372.2356184096601 L 240.38710283173782,378.82576041977995 L 246.97724484185764,362.0136934843282 L 230.42938420169952,354.7857010528462 L 246.97724484185764,347.5577086213642 L 240.38710283173782,330.74564168591246 L 257.1991697671896,337.3357836960323 Z" fill="none" stroke="#0F52BA" stroke-width="2.5292523512752974" /><path d="M 339.9777799697206,320.78792305587416 L 347.2057724012026,337.3357836960323 L 364.01783933665433,330.74564168591246 L 357.4276973265345,347.5577086213642 L 373.97555796669263,354.7857010528462 L 357.4276973265345,362.0136934843282 L 364.01783933665433,378.82576041977995 L 347.2057724012026,372.2356184096601 L 339.9777799697206,388.78347904981825 L 332.7497875382386,372.2356184096601 L 315.93772060278684,378.82576041977995 L 322.5278626129067,362.0136934843282 L 305.98000197274854,354.7857010528462 L 322.5278626129067,347.5577086213642 L 315.93772060278684,330.74564168591246 L 332.7497875382386,337.3357836960323 Z" fill="none" stroke="#0F52BA" stroke-width="2.5292523512752974" /><path d="M 415.5283977407696,320.78792305587416 L 422.7563901722516,337.3357836960323 L 439.56845710770335,330.74564168591246 L 432.9783150975835,347.5577086213642 L 449.52617573774165,354.7857010528462 L 432.9783150975835,362.0136934843282 L 439.56845710770335,378.82576041977995 L 422.7563901722516,372.2356184096601 L 415.5283977407696,388.78347904981825 L 408.3004053092876,372.2356184096601 L 391.48833837383586,378.82576041977995 L 398.0784803839557,362.0136934843282 L 381.53061974379756,354.7857010528462 L 398.0784803839557,347.5577086213642 L 391.48833837383586,330.74564168591246 L 408.3004053092876,337.3357836960323 Z" fill="none" stroke="#0F52BA" stroke-width="2.5292523512752974" /><path d="M 491.0790155118186,320.78792305587416 L 498.3070079433006,337.3357836960323 L 515.1190748787524,330.74564168591246 L 508.5289328686325,347.5577086213642 L 525.0767935087907,354.7857010528462 L 508.5289328686325,362.0136934843282 L 515.1190748787524,378.82576041977995 L 498.3070079433006,372.2356184096601 L 491.0790155118186,388.78347904981825 L 483.85102308033663,372.2356184096601 L 467.0389561448849,378.82576041977995 L 473.6290981550047,362.0136934843282 L 457.0812375148466,354.7857010528462 L 473.6290981550047,347.5577086213642 L 467.0389561448849,330.74564168591246 L 483.85102308033663,337.3357836960323 Z" fill="none" stroke="#0F52BA" stroke-width="2.5292523512752974" /><path d="M 566.6296332828676,320.78792305587416 L 573.8576257143496,337.3357836960323 L 590.6696926498014,330.74564168591246 L 584.0795506396815,347.5577086213642 L 600.6274112798397,354.7857010528462 L 584.0795506396815,362.0136934843282 L 590.6696926498014,378.82576041977995 L 573.8576257143496,372.2356184096601 L 566.6296332828676,388.78347904981825 L 559.4016408513857,372.2356184096601 L 542.5895739159339,378.82576041977995 L 549.1797159260537,362.0136934843282 L 532.6318552858955,354.7857010528462 L 549.1797159260537,347.5577086213642 L 542.5895739159339,330.74564168591246 L 559.4016408513857,337.3357836960323 Z" fill="none" stroke="#0F52BA" stroke-width="2.5292523512752974" /><path d="M 2.0817635001057073e-15,386.2147580456026 L 7.227992431481998,402.76261868576074 L 24.040059366933747,396.1724766756409 L 17.44991735681392,412.98454361109265 L 33.99777799697206,420.21253604257464 L 17.44991735681392,427.44052847405663 L 24.040059366933747,444.2525954095084 L 7.227992431481998,437.66245339938854 L 2.0817635001057073e-15,454.2103140395467 L -7.227992431481995,437.66245339938854 L -24.04005936693374,444.2525954095084 L -17.449917356813916,427.44052847405663 L -33.99777799697206,420.21253604257464 L -17.449917356813916,412.98454361109265 L -24.04005936693375,396.1724766756409 L -7.227992431482007,402.76261868576074 Z" fill="none" stroke="#0F52BA" stroke-width="2.5292523512752974" /><path d="M 75.55061777104902,386.2147580456026 L 82.77861020253101,402.76261868576074 L 99.59067713798277,396.1724766756409 L 93.00053512786295,412.98454361109265 L 109.54839576802108,420.21253604257464 L 93.00053512786295,427.44052847405663 L 99.59067713798277,444.2525954095084 L 82.77861020253101,437.66245339938854 L 75.55061777104902,454.2103140395467 L 68.32262533956703,437.66245339938854 L 51.51055840411528,444.2525954095084 L 58.10070041423511,427.44052847405663 L 41.55283977407696,420.21253604257464 L 58.10070041423511,412.98454361109265 L 51.51055840411527,396.1724766756409 L 68.32262533956701,402.76261868576074 Z" fill="none" stroke="#0F52BA" stroke-width="2.5292523512752974" /><path d="M 151.10123554209804,386.2147580456026 L 158.32922797358003,402.76261868576074 L 175.14129490903179,396.1724766756409 L 168.55115289891197,412.98454361109265 L 185.09901353907009,420.21253604257464 L 168.55115289891197,427.44052847405663 L 175.14129490903179,444.2525954095084 L 158.32922797358003,437.66245339938854 L 151.10123554209804,454.2103140395467 L 143.87324311061604,437.66245339938854 L 127.06117617516429,444.2525954095084 L 133.6513181852841,427.44052847405663 L 117.10345754512598,420.21253604257464 L 133.6513181852841,412.98454361109265 L 127.06117617516429,396.1724766756409 L 143.87324311061604,402.76261868576074 Z" fill="none" stroke="#0F52BA" stroke-width="2.5292523512752974" /><path d="M 226.65185331314706,386.2147580456026 L 233.87984574462905,402.76261868576074 L 250.6919126800808,396.1724766756409 L 244.10177066996098,412.98454361109265 L 260.6496313101191,420.21253604257464 L 244.10177066996098,427.44052847405663 L 250.6919126800808,444.2525954095084 L 233.87984574462905,437.66245339938854 L 226.65185331314706,454.2103140395467 L 219.42386088166506,437.66245339938854 L 202.6117939462133,444.2525954095084 L 209.20193595633313,427.44052847405663 L 192.654075316175,420.21253604257464 L 209.20193595633313,412.98454361109265 L 202.6117939462133,396.1724766756409 L 219.42386088166506,402.76261868576074 Z" fill="none" stroke="#0F52BA" stroke-width="2.5292523512752974" /><path d="M 302.2024710841961,386.2147580456026 L 309.43046351567807,402.76261868576074 L 326.2425304511298,396.1724766756409 L 319.65238844101,412.98454361109265 L 336.2002490811681,420.21253604257464 L 319.65238844101,427.44052847405663 L 326.2425304511298,444.2525954095084 L 309.43046351567807,437.66245339938854 L 302.2024710841961,454.2103140395467 L 294.9744786527141,437.66245339938854 L 278.16241171726233,444.2525954095084 L 284.7525537273822,427.44052847405663 L 268.20469308722403,420.21253604257464 L 284.7525537273822,412.98454361109265 L 278.16241171726233,396.1724766756409 L 294.9744786527141,402.76261868576074 Z" fill="none" stroke="#0F52BA" stroke-width="2.5292523512752974" /><path d="M 377.7530888552451,386.2147580456026 L 384.9810812867271,402.76261868576074 L 401.79314822217884,396.1724766756409 L 395.203006212059,412.98454361109265 L 411.75086685221714,420.21253604257464 L 395.203006212059,427.44052847405663 L 401.79314822217884,444.2525954095084 L 384.9810812867271,437.66245339938854 L 377.7530888552451,454.2103140395467 L 370.5250964237631,437.66245339938854 L 353.71302948831135,444.2525954095084 L 360.3031714984312,427.44052847405663 L 343.75531085827305,420.21253604257464 L 360.3031714984312,412.98454361109265 L 353.71302948831135,396.1724766756409 L 370.5250964237631,402.76261868576074 Z" fill="none" stroke="#0F52BA" stroke-width="2.5292523512752974" /><path d="M 453.3037066262941,386.2147580456026 L 460.5316990577761,402.76261868576074 L 477.34376599322786,396.1724766756409 L 470.753623983108,412.98454361109265 L 487.30148462326616,420.21253604257464 L 470.753623983108,427.44052847405663 L 477.34376599322786,444.2525954095084 L 460.5316990577761,437.66245339938854 L 453.3037066262941,454.2103140395467 L 446.0757141948121,437.66245339938854 L 429.26364725936037,444.2525954095084 L 435.8537892694802,427.44052847405663 L 419.30592862932207,420.21253604257464 L 435.8537892694802,412.98454361109265 L 429.26364725936037,396.1724766756409 L 446.0757141948121,402.76261868576074 Z" fill="none" stroke="#0F52BA" stroke-width="2.5292523512752974" /><path d="M 528.8543243973431,386.2147580456026 L 536.0823168288251,402.76261868576074 L 552.8943837642769,396.1724766756409 L 546.304241754157,412.98454361109265 L 562.8521023943152,420.21253604257464 L 546.304241754157,427.44052847405663 L 552.8943837642769,444.2525954095084 L 536.0823168288251,437.66245339938854 L 528.8543243973431,454.2103140395467 L 521.6263319658611,437.66245339938854 L 504.8142650304094,444.2525954095084 L 511.40440704052924,427.44052847405663 L 494.8565464003711,420.21253604257464 L 511.40440704052924,412.98454361109265 L 504.8142650304094,396.1724766756409 L 521.6263319658611,402.76261868576074 Z" fill="none" stroke="#0F52BA" stroke-width="2.5292523512752974" /><path d="M -37.77530888552451,451.641593035331 L -30.547316454042512,468.1894536754892 L -13.735249518590763,461.5993116653693 L -20.32539152871059,478.4113786008211 L -3.777530888552448,485.6393710323031 L -20.32539152871059,492.86736346378507 L -13.735249518590763,509.6794303992368 L -30.547316454042512,503.089288389117 L -37.77530888552451,519.6371490292752 L -45.0033013170065,503.089288389117 L -61.81536825245825,509.6794303992368 L -55.22522624233842,492.86736346378507 L -71.77308688249657,485.6393710323031 L -55.22522624233842,478.4113786008211 L -61.815368252458256,461.5993116653693 L -45.00330131700652,468.1894536754892 Z" fill="none" stroke="#0F52BA" stroke-width="2.5292523512752974" /><path d="M 37.77530888552451,451.641593035331 L 45.00330131700651,468.1894536754892 L 61.815368252458256,461.5993116653693 L 55.22522624233843,478.4113786008211 L 71.77308688249657,485.6393710323031 L 55.22522624233843,492.86736346378507 L 61.815368252458256,509.6794303992368 L 45.00330131700651,503.089288389117 L 37.77530888552451,519.6371490292752 L 30.547316454042516,503.089288389117 L 13.73524951859077,509.6794303992368 L 20.325391528710593,492.86736346378507 L 3.777530888552448,485.6393710323031 L 20.325391528710593,478.4113786008211 L 13.73524951859076,461.5993116653693 L 30.5473164540425,468.1894536754892 Z" fill="none" stroke="#0F52BA" stroke-width="2.5292523512752974" /><path d="M 113.32592665657353,451.641593035331 L 120.55391908805552,468.1894536754892 L 137.36598602350728,461.5993116653693 L 130.77584401338746,478.4113786008211 L 147.32370465354558,485.6393710323031 L 130.77584401338746,492.86736346378507 L 137.36598602350728,509.6794303992368 L 120.55391908805552,503.089288389117 L 113.32592665657353,519.6371490292752 L 106.09793422509154,503.089288389117 L 89.28586728963978,509.6794303992368 L 95.87600929975962,492.86736346378507 L 79.32814865960147,485.6393710323031 L 95.87600929975962,478.4113786008211 L 89.28586728963978,461.5993116653693 L 106.09793422509152,468.1894536754892 Z" fill="none" stroke="#0F52BA" stroke-width="2.5292523512752974" /><path d="M 188.87654442762255,451.641593035331 L 196.10453685910454,468.1894536754892 L 212.9166037945563,461.5993116653693 L 206.32646178443647,478.4113786008211 L 222.8743224245946,485.6393710323031 L 206.32646178443647,492.86736346378507 L 212.9166037945563,509.6794303992368 L 196.10453685910454,503.089288389117 L 188.87654442762255,519.6371490292752 L 181.64855199614055,503.089288389117 L 164.8364850606888,509.6794303992368 L 171.42662707080862,492.86736346378507 L 154.8787664306505,485.6393710323031 L 171.42662707080862,478.4113786008211 L 164.8364850606888,461.5993116653693 L 181.64855199614055,468.1894536754892 Z" fill="none" stroke="#0F52BA" stroke-width="2.5292523512752974" /><path d="M 264.42716219867157,451.641593035331 L 271.65515463015356,468.1894536754892 L 288.4672215656053,461.5993116653693 L 281.87707955548547,478.4113786008211 L 298.4249401956436,485.6393710323031 L 281.87707955548547,492.86736346378507 L 288.4672215656053,509.6794303992368 L 271.65515463015356,503.089288389117 L 264.42716219867157,519.6371490292752 L 257.1991697671896,503.089288389117 L 240.38710283173782,509.6794303992368 L 246.97724484185764,492.86736346378507 L 230.42938420169952,485.6393710323031 L 246.97724484185764,478.4113786008211 L 240.38710283173782,461.5993116653693 L 257.1991697671896,468.1894536754892 Z" fill="none" stroke="#0F52BA" stroke-width="2.5292523512752974" /><path d="M 339.9777799697206,451.641593035331 L 347.2057724012026,468.1894536754892 L 364.01783933665433,461.5993116653693 L 357.4276973265345,478.4113786008211 L 373.97555796669263,485.6393710323031 L 357.4276973265345,492.86736346378507 L 364.01783933665433,509.6794303992368 L 347.2057724012026,503.089288389117 L 339.9777799697206,519.6371490292752 L 332.7497875382386,503.089288389117 L 315.93772060278684,509.6794303992368 L 322.5278626129067,492.86736346378507 L 305.98000197274854,485.6393710323031 L 322.5278626129067,478.4113786008211 L 315.93772060278684,461.5993116653693 L 332.7497875382386,468.1894536754892 Z" fill="none" stroke="#0F52BA" stroke-width="2.5292523512752974" /><path d="M 415.5283977407696,451.641593035331 L 422.7563901722516,468.1894536754892 L 439.56845710770335,461.5993116653693 L 432.9783150975835,478.4113786008211 L 449.52617573774165,485.6393710323031 L 432.9783150975835,492.86736346378507 L 439.56845710770335,509.6794303992368 L 422.7563901722516,503.089288389117 L 415.5283977407696,519.6371490292752 L 408.3004053092876,503.089288389117 L 391.48833837383586,509.6794303992368 L 398.0784803839557,492.86736346378507 L 381.53061974379756,485.6393710323031 L 398.0784803839557,478.4113786008211 L 391.48833837383586,461.5993116653693 L 408.3004053092876,468.1894536754892 Z" fill="none" stroke="#0F52BA" stroke-width="2.5292523512752974" /><path d="M 491.0790155118186,451.641593035331 L 498.3070079433006,468.1894536754892 L 515.1190748787524,461.5993116653693 L 508.5289328686325,478.4113786008211 L 525.0767935087907,485.6393710323031 L 508.5289328686325,492.86736346378507 L 515.1190748787524,509.6794303992368 L 498.3070079433006,503.089288389117 L 491.0790155118186,519.6371490292752 L 483.85102308033663,503.089288389117 L 467.0389561448849,509.6794303992368 L 473.6290981550047,492.86736346378507 L 457.0812375148466,485.6393710323031 L 473.6290981550047,478.4113786008211 L 467.0389561448849,461.5993116653693 L 483.85102308033663,468.1894536754892 Z" fill="none" stroke="#0F52BA" stroke-width="2.5292523512752974" /><path d="M 566.6296332828676,451.641593035331 L 573.8576257143496,468.1894536754892 L 590.6696926498014,461.5993116653693 L 584.0795506396815,478.4113786008211 L 600.6274112798397,485.6393710323031 L 584.0795506396815,492.86736346378507 L 590.6696926498014,509.6794303992368 L 573.8576257143496,503.089288389117 L 566.6296332828676,519.6371490292752 L 559.4016408513857,503.089288389117 L 542.5895739159339,509.6794303992368 L 549.1797159260537,492.86736346378507 L 532.6318552858955,485.6393710323031 L 549.1797159260537,478.4113786008211 L 542.5895739159339,461.5993116653693 L 559.4016408513857,468.1894536754892 Z" fill="none" stroke="#0F52BA" stroke-width="2.5292523512752974" /><line x1="33.99777799697206" y1="27.65152610420394" x2="41.55283977407696" y2="27.65152610420394" stroke="#0F52BA" stroke-width="0.5"/><line x1="109.54839576802108" y1="27.65152610420394" x2="117.10345754512598" y2="27.65152610420394" stroke="#0F52BA" stroke-width="0.5"/><line x1="185.09901353907009" y1="27.65152610420394" x2="192.654075316175" y2="27.65152610420394" stroke="#0F52BA" stroke-width="0.5"/><line x1="260.6496313101191" y1="27.65152610420394" x2="268.20469308722403" y2="27.65152610420394" stroke="#0F52BA" stroke-width="0.5"/><line x1="336.2002490811681" y1="27.65152610420394" x2="343.75531085827305" y2="27.65152610420394" stroke="#0F52BA" stroke-width="0.5"/><line x1="411.75086685221714" y1="27.65152610420394" x2="419.30592862932207" y2="27.65152610420394" stroke="#0F52BA" stroke-width="0.5"/><line x1="487.30148462326616" y1="27.65152610420394" x2="494.8565464003711" y2="27.65152610420394" stroke="#0F52BA" stroke-width="0.5"/><line x1="71.77308688249657" y1="93.07836109393239" x2="79.32814865960147" y2="93.07836109393239" stroke="#0F52BA" stroke-width="0.5"/><line x1="147.32370465354558" y1="93.07836109393239" x2="154.8787664306505" y2="93.07836109393239" stroke="#0F52BA" stroke-width="0.5"/><line x1="222.8743224245946" y1="93.07836109393239" x2="230.42938420169952" y2="93.07836109393239" stroke="#0F52BA" stroke-width="0.5"/><line x1="298.4249401956436" y1="93.07836109393239" x2="305.98000197274854" y2="93.07836109393239" stroke="#0F52BA" stroke-width="0.5"/><line x1="373.97555796669263" y1="93.07836109393239" x2="381.53061974379756" y2="93.07836109393239" stroke="#0F52BA" stroke-width="0.5"/><line x1="449.52617573774165" y1="93.07836109393239" x2="457.0812375148466" y2="93.07836109393239" stroke="#0F52BA" stroke-width="0.5"/><line x1="33.99777799697206" y1="158.50519608366085" x2="41.55283977407696" y2="158.50519608366085" stroke="#0F52BA" stroke-width="0.5"/><line x1="109.54839576802108" y1="158.50519608366085" x2="117.10345754512598" y2="158.50519608366085" stroke="#0F52BA" stroke-width="0.5"/><line x1="185.09901353907009" y1="158.50519608366085" x2="192.654075316175" y2="158.50519608366085" stroke="#0F52BA" stroke-width="0.5"/><line x1="260.6496313101191" y1="158.50519608366085" x2="268.20469308722403" y2="158.50519608366085" stroke="#0F52BA" stroke-width="0.5"/><line x1="336.2002490811681" y1="158.50519608366085" x2="343.75531085827305" y2="158.50519608366085" stroke="#0F52BA" stroke-width="0.5"/><line x1="411.75086685221714" y1="158.50519608366085" x2="419.30592862932207" y2="158.50519608366085" stroke="#0F52BA" stroke-width="0.5"/><line x1="487.30148462326616" y1="158.50519608366085" x2="494.8565464003711" y2="158.50519608366085" stroke="#0F52BA" stroke-width="0.5"/><line x1="71.77308688249657" y1="223.93203107338928" x2="79.32814865960147" y2="223.93203107338928" stroke="#0F52BA" stroke-width="0.5"/><line x1="147.32370465354558" y1="223.93203107338928" x2="154.8787664306505" y2="223.93203107338928" stroke="#0F52BA" stroke-width="0.5"/><line x1="222.8743224245946" y1="223.93203107338928" x2="230.42938420169952" y2="223.93203107338928" stroke="#0F52BA" stroke-width="0.5"/><line x1="298.4249401956436" y1="223.93203107338928" x2="305.98000197274854" y2="223.93203107338928" stroke="#0F52BA" stroke-width="0.5"/><line x1="373.97555796669263" y1="223.93203107338928" x2="381.53061974379756" y2="223.93203107338928" stroke="#0F52BA" stroke-width="0.5"/><line x1="449.52617573774165" y1="223.93203107338928" x2="457.0812375148466" y2="223.93203107338928" stroke="#0F52BA" stroke-width="0.5"/><line x1="33.99777799697206" y1="289.3588660631177" x2="41.55283977407696" y2="289.3588660631177" stroke="#0F52BA" stroke-width="0.5"/><line x1="109.54839576802108" y1="289.3588660631177" x2="117.10345754512598" y2="289.3588660631177" stroke="#0F52BA" stroke-width="0.5"/><line x1="185.09901353907009" y1="289.3588660631177" x2="192.654075316175" y2="289.3588660631177" stroke="#0F52BA" stroke-width="0.5"/><line x1="260.6496313101191" y1="289.3588660631177" x2="268.20469308722403" y2="289.3588660631177" stroke="#0F52BA" stroke-width="0.5"/><line x1="336.2002490811681" y1="289.3588660631177" x2="343.75531085827305" y2="289.3588660631177" stroke="#0F52BA" stroke-width="0.5"/><line x1="411.75086685221714" y1="289.3588660631177" x2="419.30592862932207" y2="289.3588660631177" stroke="#0F52BA" stroke-width="0.5"/><line x1="487.30148462326616" y1="289.3588660631177" x2="494.8565464003711" y2="289.3588660631177" stroke="#0F52BA" stroke-width="0.5"/><line x1="71.77308688249657" y1="354.7857010528462" x2="79.32814865960147" y2="354.7857010528462" stroke="#0F52BA" stroke-width="0.5"/><line x1="147.32370465354558" y1="354.7857010528462" x2="154.8787664306505" y2="354.7857010528462" stroke="#0F52BA" stroke-width="0.5"/><line x1="222.8743224245946" y1="354.7857010528462" x2="230.42938420169952" y2="354.7857010528462" stroke="#0F52BA" stroke-width="0.5"/><line x1="298.4249401956436" y1="354.7857010528462" x2="305.98000197274854" y2="354.7857010528462" stroke="#0F52BA" stroke-width="0.5"/><line x1="373.97555796669263" y1="354.7857010528462" x2="381.53061974379756" y2="354.7857010528462" stroke="#0F52BA" stroke-width="0.5"/><line x1="449.52617573774165" y1="354.7857010528462" x2="457.0812375148466" y2="354.7857010528462" stroke="#0F52BA" stroke-width="0.5"/><line x1="33.99777799697206" y1="420.21253604257464" x2="41.55283977407696" y2="420.21253604257464" stroke="#0F52BA" stroke-width="0.5"/><line x1="109.54839576802108" y1="420.21253604257464" x2="117.10345754512598" y2="420.21253604257464" stroke="#0F52BA" stroke-width="0.5"/><line x1="185.09901353907009" y1="420.21253604257464" x2="192.654075316175" y2="420.21253604257464" stroke="#0F52BA" stroke-width="0.5"/><line x1="260.6496313101191" y1="420.21253604257464" x2="268.20469308722403" y2="420.21253604257464" stroke="#0F52BA" stroke-width="0.5"/><line x1="336.2002490811681" y1="420.21253604257464" x2="343.75531085827305" y2="420.21253604257464" stroke="#0F52BA" stroke-width="0.5"/><line x1="411.75086685221714" y1="420.21253604257464" x2="419.30592862932207" y2="420.21253604257464" stroke="#0F52BA" stroke-width="0.5"/><line x1="487.30148462326616" y1="420.21253604257464" x2="494.8565464003711" y2="420.21253604257464" stroke="#0F52BA" stroke-width="0.5"/><line x1="71.77308688249657" y1="485.6393710323031" x2="79.32814865960147" y2="485.6393710323031" stroke="#0F52BA" stroke-width="0.5"/><line x1="147.32370465354558" y1="485.6393710323031" x2="154.8787664306505" y2="485.6393710323031" stroke="#0F52BA" stroke-width="0.5"/><line x1="222.8743224245946" y1="485.6393710323031" x2="230.42938420169952" y2="485.6393710323031" stroke="#0F52BA" stroke-width="0.5"/><line x1="298.4249401956436" y1="485.6393710323031" x2="305.98000197274854" y2="485.6393710323031" stroke="#0F52BA" stroke-width="0.5"/><line x1="373.97555796669263" y1="485.6393710323031" x2="381.53061974379756" y2="485.6393710323031" stroke="#0F52BA" stroke-width="0.5"/><line x1="449.52617573774165" y1="485.6393710323031" x2="457.0812375148466" y2="485.6393710323031" stroke="#0F52BA" stroke-width="0.5"/></g></svg>