<svg xmlns="http://www.w3.org/2000/svg" width="512" height="512" viewBox="0 0 512 512"><rect x="0" y="0" width="512" height="512" fill="#000000"/><g opacity="0.05221114605768172"><path d="M -43.03936779927587,-81.77479881862416 L -34.804141301150665,-62.920963300264035 L -15.64928185331096,-70.42945374524078 L -23.15777229828771,-51.27459429740108 L -4.303936779927589,-43.03936779927587 L -23.15777229828771,-34.804141301150665 L -15.64928185331096,-15.649281853310963 L -34.804141301150665,-23.15777229828771 L -43.03936779927587,-4.303936779927589 L -51.27459429740108,-23.15777229828771 L -70.42945374524078,-15.64928185331096 L -62.92096330026403,-34.80414130115066 L -81.77479881862416,-43.039367799275865 L -62.920963300264035,-51.27459429740108 L -70.42945374524079,-70.42945374524078 L -51.274594297401094,-62.92096330026403 Z" fill="none" stroke="#FFFFFF" stroke-width="2.651088715601288" /><path d="M 43.03936779927587,-81.77479881862416 L 51.27459429740108,-62.920963300264035 L 70.42945374524078,-70.42945374524078 L 62.920963300264035,-51.27459429740108 L 81.77479881862416,-43.03936779927587 L 62.920963300264035,-34.804141301150665 L 70.42945374524078,-15.649281853310963 L 51.27459429740108,-23.15777229828771 L 43.03936779927587,-4.303936779927589 L 34.804141301150665,-23.15777229828771 L 15.649281853310963,-15.64928185331096 L 23.157772298287718,-34.80414130115066 L 4.303936779927589,-43.039367799275865 L 23.157772298287714,-51.27459429740108 L 15.649281853310953,-70.42945374524078 L 34.80414130115065,-62.92096330026403 Z" fill="none" stroke="#FFFFFF" stroke-width="2.651088715601288" /><path d="M 129.1181033978276,-81.77479881862416 L 137.3533298959528,-62.920963300264035 L 156.50818934379254,-70.42945374524078 L 148.99969889881578,-51.27459429740108 L 167.8535344171759,-43.03936779927587 L 148.99969889881578,-34.804141301150665 L 156.50818934379254,-15.649281853310963 L 137.3533298959528,-23.15777229828771 L 129.1181033978276,-4.303936779927589 L 120.88287689970241,-23.15777229828771 L 101.7280174518627,-15.64928185331096 L 109.23650789683946,-34.80414130115066 L 90.38267237847933,-43.039367799275865 L 109.23650789683946,-51.27459429740108 L 101.72801745186268,-70.42945374524078 L 120.8828768997024,-62.92096330026403 Z" fill="none" stroke="#FFFFFF" stroke-width="2.651088715601288" /><path d="M 215.19683899637934,-81.77479881862416 L 223.43206549450454,-62.920963300264035 L 242.58692494234424,-70.42945374524078 L 235.0784344973675,-51.27459429740108 L 253.93227001572762,-43.03936779927587 L 235.0784344973675,-34.804141301150665 L 242.58692494234424,-15.649281853310963 L 223.43206549450454,-23.15777229828771 L 215.19683899637934,-4.303936779927589 L 206.96161249825414,-23.15777229828771 L 187.80675305041444,-15.64928185331096 L 195.3152434953912,-34.80414130115066 L 176.46140797703106,-43.039367799275865 L 195.31524349539117,-51.27459429740108 L 187.80675305041441,-70.42945374524078 L 206.9616124982541,-62.92096330026403 Z" fill="none" stroke="#FFFFFF" stroke-width="2.651088715601288" /><path d="M 301.27557459493113,-81.77479881862416 L 309.51080109305633,-62.920963300264035 L 328.66566054089606,-70.42945374524078 L 321.1571700959193,-51.27459429740108 L 340.0110056142794,-43.03936779927587 L 321.1571700959193,-34.804141301150665 L 328.66566054089606,-15.649281853310963 L 309.51080109305633,-23.15777229828771 L 301.27557459493113,-4.303936779927589 L 293.04034809680593,-23.15777229828771 L 273.8854886489662,-15.64928185331096 L 281.39397909394296,-34.80414130115066 L 262.5401435755829,-43.039367799275865 L 281.39397909394296,-51.27459429740108 L 273.8854886489662,-70.42945374524078 L 293.04034809680593,-62.92096330026403 Z" fill="none" stroke="#FFFFFF" stroke-width="2.651088715601288" /><path d="M 387.3543101934829,-81.77479881862416 L 395.5895366916081,-62.920963300264035 L 414.7443961394478,-70.42945374524078 L 407.23590569447106,-51.27459429740108 L 426.0897412128312,-43.03936779927587 L 407.23590569447106,-34.804141301150665 L 414.7443961394478,-15.649281853310963 L 395.5895366916081,-23.15777229828771 L 387.3543101934829,-4.303936779927589 L 379.1190836953577,-23.15777229828771 L 359.96422424751796,-15.64928185331096 L 367.4727146924947,-34.80414130115066 L 348.6188791741346,-43.039367799275865 L 367.4727146924947,-51.27459429740108 L 359.96422424751796,-70.42945374524078 L 379.1190836953577,-62.92096330026403 Z" fill="none" stroke="#FFFFFF" stroke-width="2.651088715601288" /><path d="M 473.4330457920346,-81.77479881862416 L 481.6682722901598,-62.920963300264035 L 500.8231317379995,-70.42945374524078 L 493.31464129302276,-51.27459429740108 L 512.1684768113829,-43.03936779927587 L 493.31464129302276,-34.804141301150665 L 500.8231317379995,-15.649281853310963 L 481.6682722901598,-23.15777229828771 L 473.4330457920346,-4.303936779927589 L 465.1978192939094,-23.15777229828771 L 446.04295984606966,-15.64928185331096 L 453.5514502910464,-34.80414130115066 L 434.6976147726863,-43.039367799275865 L 453.5514502910464,-51.27459429740108 L 446.04295984606966,-70.42945374524078 L 465.1978192939094,-62.92096330026403 Z" fill="none" stroke="#FFFFFF" stroke-width="2.651088715601288" /><path d="M 559.5117813905864,-81.77479881862416 L 567.7470078887117,-62.920963300264035 L 586.9018673365513,-70.42945374524078 L 579.3933768915746,-51.27459429740108 L 598.2472124099347,-43.03936779927587 L 579.3933768915746,-34.804141301150665 L 586.9018673365513,-15.649281853310963 L 567.7470078887117,-23.15777229828771 L 559.5117813905864,-4.303936779927589 L 551.2765548924611,-23.15777229828771 L 532.1216954446215,-15.64928185331096 L 539.6301858895982,-34.80414130115066 L 520.7763503712381,-43.039367799275865 L 539.6301858895982,-51.27459429740108 L 532.1216954446215,-70.42945374524078 L 551.2765548924611,-62.92096330026403 Z" fill="none" stroke="#FFFFFF" stroke-width="2.651088715601288" /><path d="M 2.3718610805718986e-15,-7.230613790278348 L 8.235226498125208,11.623221728081774 L 27.390085945964913,4.1147312831050264 L 19.881595500988162,23.269590730944728 L 38.73543101934828,31.504817229069936 L 19.881595500988162,39.74004372719514 L 27.390085945964913,58.89490317503484 L 8.235226498125208,51.3864127300581 L 2.3718610805718986e-15,70.24024824841823 L -8.235226498125204,51.3864127300581 L -27.39008594596491,58.89490317503485 L -19.881595500988155,39.74004372719515 L -38.73543101934828,31.50481722906994 L -19.88159550098816,23.269590730944724 L -27.39008594596492,4.1147312831050264 L -8.235226498125218,11.62322172808178 Z" fill="none" stroke="#FFFFFF" stroke-width="2.651088715601288" /><path d="M 86.07873559855175,-7.230613790278348 L 94.31396209667696,11.623221728081774 L 113.46882154451666,4.1147312831050264 L 105.9603310995399,23.269590730944728 L 124.81416661790003,31.504817229069936 L 105.9603310995399,39.74004372719514 L 113.46882154451666,58.89490317503484 L 94.31396209667696,51.3864127300581 L 86.07873559855175,70.24024824841823 L 77.84350910042654,51.3864127300581 L 58.68864965258683,58.89490317503485 L 66.19714009756359,39.74004372719515 L 47.34330457920346,31.50481722906994 L 66.19714009756359,23.269590730944724 L 58.688649652586825,4.1147312831050264 L 77.84350910042653,11.62322172808178 Z" fill="none" stroke="#FFFFFF" stroke-width="2.651088715601288" /><path d="M 172.1574711971035,-7.230613790278348 L 180.3926976952287,11.623221728081774 L 199.5475571430684,4.1147312831050264 L 192.03906669809166,23.269590730944728 L 210.89290221645177,31.504817229069936 L 192.03906669809166,39.74004372719514 L 199.5475571430684,58.89490317503484 L 180.3926976952287,51.3864127300581 L 172.1574711971035,70.24024824841823 L 163.9222446989783,51.3864127300581 L 144.7673852511386,58.89490317503485 L 152.27587569611535,39.74004372719515 L 133.4220401777552,31.50481722906994 L 152.27587569611532,23.269590730944724 L 144.76738525113856,4.1147312831050264 L 163.92224469897826,11.62322172808178 Z" fill="none" stroke="#FFFFFF" stroke-width="2.651088715601288" /><path d="M 258.2362067956552,-7.230613790278348 L 266.4714332937804,11.623221728081774 L 285.62629274162015,4.1147312831050264 L 278.1178022966434,23.269590730944728 L 296.97163781500353,31.504817229069936 L 278.1178022966434,39.74004372719514 L 285.62629274162015,58.89490317503484 L 266.4714332937804,51.3864127300581 L 258.2362067956552,70.24024824841823 L 250.00098029753002,51.3864127300581 L 230.84612084969032,58.89490317503485 L 238.35461129466705,39.74004372719515 L 219.50077577630694,31.50481722906994 L 238.35461129466705,23.269590730944724 L 230.8461208496903,4.1147312831050264 L 250.00098029753,11.62322172808178 Z" fill="none" stroke="#FFFFFF" stroke-width="2.651088715601288" /><path d="M 344.314942394207,-7.230613790278348 L 352.5501688923322,11.623221728081774 L 371.7050283401719,4.1147312831050264 L 364.19653789519515,23.269590730944728 L 383.05037341355523,31.504817229069936 L 364.19653789519515,39.74004372719514 L 371.7050283401719,58.89490317503484 L 352.5501688923322,51.3864127300581 L 344.314942394207,70.24024824841823 L 336.0797158960818,51.3864127300581 L 316.92485644824205,58.89490317503485 L 324.4333468932188,39.74004372719515 L 305.5795113748587,31.50481722906994 L 324.4333468932188,23.269590730944724 L 316.92485644824205,4.1147312831050264 L 336.0797158960818,11.62322172808178 Z" fill="none" stroke="#FFFFFF" stroke-width="2.651088715601288" /><path d="M 430.39367799275874,-7.230613790278348 L 438.62890449088394,11.623221728081774 L 457.78376393872367,4.1147312831050264 L 450.2752734937469,23.269590730944728 L 469.12910901210705,31.504817229069936 L 450.2752734937469,39.74004372719514 L 457.78376393872367,58.89490317503484 L 438.62890449088394,51.3864127300581 L 430.39367799275874,70.24024824841823 L 422.15845149463354,51.3864127300581 L 403.0035920467938,58.89490317503485 L 410.51208249177057,39.74004372719515 L 391.6582469734104,31.50481722906994 L 410.51208249177057,23.269590730944724 L 403.0035920467938,4.1147312831050264 L 422.15845149463354,11.62322172808178 Z" fill="none" stroke="#FFFFFF" stroke-width="2.651088715601288" /><path d="M 516.4724135913104,-7.230613790278348 L 524.7076400894357,11.623221728081774 L 543.8624995372753,4.1147312831050264 L 536.3540090922986,23.269590730944728 L 555.2078446106588,31.504817229069936 L 536.3540090922986,39.74004372719514 L 543.8624995372753,58.89490317503484 L 524.7076400894357,51.3864127300581 L 516.4724135913104,70.24024824841823 L 508.23718709318524,51.3864127300581 L 489.0823276453455,58.89490317503485 L 496.5908180903223,39.74004372719515 L 477.73698257196213,31.50481722906994 L 496.5908180903223,23.269590730944724 L 489.0823276453455,4.1147312831050264 L 508.23718709318524,11.62322172808178 Z" fill="none" stroke="#FFFFFF" stroke-width="2.651088715601288" /><path d="M -43.03936779927587,67.31357123806745 L -34.804141301150665,86.16740675642757 L -15.64928185331096,78.65891631145082 L -23.15777229828771,97.81377575929054 L -4.303936779927589,106.04900225741574 L -23.15777229828771,114.28422875554094 L -15.64928185331096,133.43908820338063 L -34.804141301150665,125.9305977584039 L -43.03936779927587,144.78443327676402 L -51.27459429740108,125.9305977584039 L -70.42945374524078,133.43908820338066 L -62.92096330026403,114.28422875554095 L -81.77479881862416,106.04900225741574 L -62.920963300264035,97.81377575929052 L -70.42945374524079,78.65891631145082 L -51.274594297401094,86.16740675642758 Z" fill="none" stroke="#FFFFFF" stroke-width="2.651088715601288" /><path d="M 43.03936779927587,67.31357123806745 L 51.27459429740108,86.16740675642757 L 70.42945374524078,78.65891631145082 L 62.920963300264035,97.81377575929054 L 81.77479881862416,106.04900225741574 L 62.920963300264035,114.28422875554094 L 70.42945374524078,133.43908820338063 L 51.27459429740108,125.9305977584039 L 43.03936779927587,144.78443327676402 L 34.804141301150665,125.9305977584039 L 15.649281853310963,133.43908820338066 L 23.157772298287718,114.28422875554095 L 4.303936779927589,106.04900225741574 L 23.157772298287714,97.81377575929052 L 15.649281853310953,78.65891631145082 L 34.80414130115065,86.16740675642758 Z" fill="none" stroke="#FFFFFF" stroke-width="2.651088715601288" /><path d="M 129.1181033978276,67.31357123806745 L 137.3533298959528,86.16740675642757 L 156.50818934379254,78.65891631145082 L 148.99969889881578,97.81377575929054 L 167.8535344171759,106.04900225741574 L 148.99969889881578,114.28422875554094 L 156.50818934379254,133.43908820338063 L 137.3533298959528,125.9305977584039 L 129.1181033978276,144.78443327676402 L 120.88287689970241,125.9305977584039 L 101.7280174518627,133.43908820338066 L 109.23650789683946,114.28422875554095 L 90.38267237847933,106.04900225741574 L 109.23650789683946,97.81377575929052 L 101.72801745186268,78.65891631145082 L 120.8828768997024,86.16740675642758 Z" fill="none" stroke="#FFFFFF" stroke-width="2.651088715601288" /><path d="M 215.19683899637934,67.31357123806745 L 223.43206549450454,86.16740675642757 L 242.58692494234424,78.65891631145082 L 235.0784344973675,97.81377575929054 L 253.93227001572762,106.04900225741574 L 235.0784344973675,114.28422875554094 L 242.58692494234424,133.43908820338063 L 223.43206549450454,125.9305977584039 L 215.19683899637934,144.78443327676402 L 206.96161249825414,125.9305977584039 L 187.80675305041444,133.43908820338066 L 195.3152434953912,114.28422875554095 L 176.46140797703106,106.04900225741574 L 195.31524349539117,97.81377575929052 L 187.80675305041441,78.65891631145082 L 206.9616124982541,86.16740675642758 Z" fill="none" stroke="#FFFFFF" stroke-width="2.651088715601288" /><path d="M 301.27557459493113,67.31357123806745 L 309.51080109305633,86.16740675642757 L 328.66566054089606,78.65891631145082 L 321.1571700959193,97.81377575929054 L 340.0110056142794,106.04900225741574 L 321.1571700959193,114.28422875554094 L 328.66566054089606,133.43908820338063 L 309.51080109305633,125.9305977584039 L 301.27557459493113,144.78443327676402 L 293.04034809680593,125.9305977584039 L 273.8854886489662,133.43908820338066 L 281.39397909394296,114.28422875554095 L 262.5401435755829,106.04900225741574 L 281.39397909394296,97.81377575929052 L 273.8854886489662,78.65891631145082 L 293.04034809680593,86.16740675642758 Z" fill="none" stroke="#FFFFFF" stroke-width="2.651088715601288" /><path d="M 387.3543101934829,67.31357123806745 L 395.5895366916081,86.16740675642757 L 414.7443961394478,78.65891631145082 L 407.23590569447106,97.81377575929054 L 426.0897412128312,106.04900225741574 L 407.23590569447106,114.28422875554094 L 414.7443961394478,133.43908820338063 L 395.5895366916081,125.9305977584039 L 387.3543101934829,144.78443327676402 L 379.1190836953577,125.9305977584039 L 359.96422424751796,133.43908820338066 L 367.4727146924947,114.28422875554095 L 348.6188791741346,106.04900225741574 L 367.4727146924947,97.81377575929052 L 359.96422424751796,78.65891631145082 L 379.1190836953577,86.16740675642758 Z" fill="none" stroke="#FFFFFF" stroke-width="2.651088715601288" /><path d="M 473.4330457920346,67.31357123806745 L 481.6682722901598,86.16740675642757 L 500.8231317379995,78.65891631145082 L 493.31464129302276,97.81377575929054 L 512.1684768113829,106.04900225741574 L 493.31464129302276,114.28422875554094 L 500.8231317379995,133.43908820338063 L 481.6682722901598,125.9305977584039 L 473.4330457920346,144.78443327676402 L 465.1978192939094,125.9305977584039 L 446.04295984606966,133.43908820338066 L 453.5514502910464,114.28422875554095 L 434.6976147726863,106.04900225741574 L 453.5514502910464,97.81377575929052 L 446.04295984606966,78.65891631145082 L 465.1978192939094,86.16740675642758 Z" fill="none" stroke="#FFFFFF" stroke-width="2.651088715601288" /><path d="M 559.5117813905864,67.31357123806745 L 567.7470078887117,86.16740675642757 L 586.9018673365513,78.65891631145082 L 579.3933768915746,97.81377575929054 L 598.2472124099347,106.04900225741574 L 579.3933768915746,114.28422875554094 L 586.9018673365513,133.43908820338063 L 567.7470078887117,125.9305977584039 L 559.5117813905864,144.78443327676402 L 551.2765548924611,125.9305977584039 L 532.1216954446215,133.43908820338066 L 539.6301858895982,114.28422875554095 L 520.7763503712381,106.04900225741574 L 539.6301858895982,97.81377575929052 L 532.1216954446215,78.65891631145082 L 551.2765548924611,86.16740675642758 Z" fill="none" stroke="#FFFFFF" stroke-width="2.651088715601288" /><path d="M 2.3718610805718986e-15,141.85775626641325 L 8.235226498125208,160.71159178477336 L 27.390085945964913,153.20310133979663 L 19.881595500988162,172.35796078763633 L 38.73543101934828,180.59318728576153 L 19.881595500988162,188.82841378388673 L 27.390085945964913,207.98327323172643 L 8.235226498125208,200.4747827867497 L 2.3718610805718986e-15,219.3286183051098 L -8.235226498125204,200.4747827867497 L -27.39008594596491,207.98327323172646 L -19.881595500988155,188.82841378388676 L -38.73543101934828,180.59318728576153 L -19.88159550098816,172.35796078763633 L -27.39008594596492,153.20310133979663 L -8.235226498125218,160.71159178477336 Z" fill="none" stroke="#FFFFFF" stroke-width="2.651088715601288" /><path d="M 86.07873559855175,141.85775626641325 L 94.31396209667696,160.71159178477336 L 113.46882154451666,153.20310133979663 L 105.9603310995399,172.35796078763633 L 124.81416661790003,180.59318728576153 L 105.9603310995399,188.82841378388673 L 113.46882154451666,207.98327323172643 L 94.31396209667696,200.4747827867497 L 86.07873559855175,219.3286183051098 L 77.84350910042654,200.4747827867497 L 58.68864965258683,207.98327323172646 L 66.19714009756359,188.82841378388676 L 47.34330457920346,180.59318728576153 L 66.19714009756359,172.35796078763633 L 58.688649652586825,153.20310133979663 L 77.84350910042653,160.71159178477336 Z" fill="none" stroke="#FFFFFF" stroke-width="2.651088715601288" /><path d="M 172.1574711971035,141.85775626641325 L 180.3926976952287,160.71159178477336 L 199.5475571430684,153.20310133979663 L 192.03906669809166,172.35796078763633 L 210.89290221645177,180.59318728576153 L 192.03906669809166,188.82841378388673 L 199.5475571430684,207.98327323172643 L 180.3926976952287,200.4747827867497 L 172.1574711971035,219.3286183051098 L 163.9222446989783,200.4747827867497 L 144.7673852511386,207.98327323172646 L 152.27587569611535,188.82841378388676 L 133.4220401777552,180.59318728576153 L 152.27587569611532,172.35796078763633 L 144.76738525113856,153.20310133979663 L 163.92224469897826,160.71159178477336 Z" fill="none" stroke="#FFFFFF" stroke-width="2.651088715601288" /><path d="M 258.2362067956552,141.85775626641325 L 266.4714332937804,160.71159178477336 L 285.62629274162015,153.20310133979663 L 278.1178022966434,172.35796078763633 L 296.97163781500353,180.59318728576153 L 278.1178022966434,188.82841378388673 L 285.62629274162015,207.98327323172643 L 266.4714332937804,200.4747827867497 L 258.2362067956552,219.3286183051098 L 250.00098029753002,200.4747827867497 L 230.84612084969032,207.98327323172646 L 238.35461129466705,188.82841378388676 L 219.50077577630694,180.59318728576153 L 238.35461129466705,172.35796078763633 L 230.8461208496903,153.20310133979663 L 250.00098029753,160.71159178477336 Z" fill="none" stroke="#FFFFFF" stroke-width="2.651088715601288" /><path d="M 344.314942394207,141.85775626641325 L 352.5501688923322,160.71159178477336 L 371.7050283401719,153.20310133979663 L 364.19653789519515,172.35796078763633 L 383.05037341355523,180.59318728576153 L 364.19653789519515,188.82841378388673 L 371.7050283401719,207.98327323172643 L 352.5501688923322,200.4747827867497 L 344.314942394207,219.3286183051098 L 336.0797158960818,200.4747827867497 L 316.92485644824205,207.98327323172646 L 324.4333468932188,188.82841378388676 L 305.5795113748587,180.59318728576153 L 324.4333468932188,172.35796078763633 L 316.92485644824205,153.20310133979663 L 336.0797158960818,160.71159178477336 Z" fill="none" stroke="#FFFFFF" stroke-width="2.651088715601288" /><path d="M 430.39367799275874,141.85775626641325 L 438.62890449088394,160.71159178477336 L 457.78376393872367,153.20310133979663 L 450.2752734937469,172.35796078763633 L 469.12910901210705,180.59318728576153 L 450.2752734937469,188.82841378388673 L 457.78376393872367,207.98327323172643 L 438.62890449088394,200.4747827867497 L 430.39367799275874,219.3286183051098 L 422.15845149463354,200.4747827867497 L 403.0035920467938,207.98327323172646 L 410.51208249177057,188.82841378388676 L 391.6582469734104,180.59318728576153 L 410.51208249177057,172.35796078763633 L 403.0035920467938,153.20310133979663 L 422.15845149463354,160.71159178477336 Z" fill="none" stroke="#FFFFFF" stroke-width="2.651088715601288" /><path d="M 516.4724135913104,141.85775626641325 L 524.7076400894357,160.71159178477336 L 543.8624995372753,153.20310133979663 L 536.3540090922986,172.35796078763633 L 555.2078446106588,180.59318728576153 L 536.3540090922986,188.82841378388673 L 543.8624995372753,207.98327323172643 L 524.7076400894357,200.4747827867497 L 516.4724135913104,219.3286183051098 L 508.23718709318524,200.4747827867497 L 489.0823276453455,207.98327323172646 L 496.5908180903223,188.82841378388676 L 477.73698257196213,180.59318728576153 L 496.5908180903223,172.35796078763633 L 489.0823276453455,153.20310133979663 L 508.23718709318524,160.71159178477336 Z" fill="none" stroke="#FFFFFF" stroke-width="2.651088715601288" /><path d="M -43.03936779927587,216.40194129475907 L -34.804141301150665,235.25577681311918 L -15.64928185331096,227.74728636814245 L -23.15777229828771,246.90214581598215 L -4.303936779927589,255.13737231410735 L -23.15777229828771,263.3725988122326 L -15.64928185331096,282.52745826007225 L -34.804141301150665,275.0189678150955 L -43.03936779927587,293.87280333345564 L -51.27459429740108,275.0189678150955 L -70.42945374524078,282.52745826007225 L -62.92096330026403,263.3725988122326 L -81.77479881862416,255.13737231410735 L -62.920963300264035,246.90214581598215 L -70.42945374524079,227.74728636814245 L -51.274594297401094,235.2557768131192 Z" fill="none" stroke="#FFFFFF" stroke-width="2.651088715601288" /><path d="M 43.03936779927587,216.40194129475907 L 51.27459429740108,235.25577681311918 L 70.42945374524078,227.74728636814245 L 62.920963300264035,246.90214581598215 L 81.77479881862416,255.13737231410735 L 62.920963300264035,263.3725988122326 L 70.42945374524078,282.52745826007225 L 51.27459429740108,275.0189678150955 L 43.03936779927587,293.87280333345564 L 34.804141301150665,275.0189678150955 L 15.649281853310963,282.52745826007225 L 23.157772298287718,263.3725988122326 L 4.303936779927589,255.13737231410735 L 23.157772298287714,246.90214581598215 L 15.649281853310953,227.74728636814245 L 34.80414130115065,235.2557768131192 Z" fill="none" stroke="#FFFFFF" stroke-width="2.651088715601288" /><path d="M 129.1181033978276,216.40194129475907 L 137.3533298959528,235.25577681311918 L 156.50818934379254,227.74728636814245 L 148.99969889881578,246.90214581598215 L 167.8535344171759,255.13737231410735 L 148.99969889881578,263.3725988122326 L 156.50818934379254,282.52745826007225 L 137.3533298959528,275.0189678150955 L 129.1181033978276,293.87280333345564 L 120.88287689970241,275.0189678150955 L 101.7280174518627,282.52745826007225 L 109.23650789683946,263.3725988122326 L 90.38267237847933,255.13737231410735 L 109.23650789683946,246.90214581598215 L 101.72801745186268,227.74728636814245 L 120.8828768997024,235.2557768131192 Z" fill="none" stroke="#FFFFFF" stroke-width="2.651088715601288" /><path d="M 215.19683899637934,216.40194129475907 L 223.43206549450454,235.25577681311918 L 242.58692494234424,227.74728636814245 L 235.0784344973675,246.90214581598215 L 253.93227001572762,255.13737231410735 L 235.0784344973675,263.3725988122326 L 242.58692494234424,282.52745826007225 L 223.43206549450454,275.0189678150955 L 215.19683899637934,293.87280333345564 L 206.96161249825414,275.0189678150955 L 187.80675305041444,282.52745826007225 L 195.3152434953912,263.3725988122326 L 176.46140797703106,255.13737231410735 L 195.31524349539117,246.90214581598215 L 187.80675305041441,227.74728636814245 L 206.9616124982541,235.2557768131192 Z" fill="none" stroke="#FFFFFF" stroke-width="2.651088715601288" /><path d="M 301.27557459493113,216.40194129475907 L 309.51080109305633,235.25577681311918 L 328.66566054089606,227.74728636814245 L 321.1571700959193,246.90214581598215 L 340.0110056142794,255.13737231410735 L 321.1571700959193,263.3725988122326 L 328.66566054089606,282.52745826007225 L 309.51080109305633,275.0189678150955 L 301.27557459493113,293.87280333345564 L 293.04034809680593,275.0189678150955 L 273.8854886489662,282.52745826007225 L 281.39397909394296,263.3725988122326 L 262.5401435755829,255.13737231410735 L 281.39397909394296,246.90214581598215 L 273.8854886489662,227.74728636814245 L 293.04034809680593,235.2557768131192 Z" fill="none" stroke="#FFFFFF" stroke-width="2.651088715601288" /><path d="M 387.3543101934829,216.40194129475907 L 395.5895366916081,235.25577681311918 L 414.7443961394478,227.74728636814245 L 407.23590569447106,246.90214581598215 L 426.0897412128312,255.13737231410735 L 407.23590569447106,263.3725988122326 L 414.7443961394478,282.52745826007225 L 395.5895366916081,275.0189678150955 L 387.3543101934829,293.87280333345564 L 379.1190836953577,275.0189678150955 L 359.96422424751796,282.52745826007225 L 367.4727146924947,263.3725988122326 L 348.6188791741346,255.13737231410735 L 367.4727146924947,246.90214581598215 L 359.96422424751796,227.74728636814245 L 379.1190836953577,235.2557768131192 Z" fill="none" stroke="#FFFFFF" stroke-width="2.651088715601288" /><path d="M 473.4330457920346,216.40194129475907 L 481.6682722901598,235.25577681311918 L 500.8231317379995,227.74728636814245 L 493.31464129302276,246.90214581598215 L 512.1684768113829,255.13737231410735 L 493.31464129302276,263.3725988122326 L 500.8231317379995,282.52745826007225 L 481.6682722901598,275.0189678150955 L 473.4330457920346,293.87280333345564 L 465.1978192939094,275.0189678150955 L 446.04295984606966,282.52745826007225 L 453.5514502910464,263.3725988122326 L 434.6976147726863,255.13737231410735 L 453.5514502910464,246.90214581598215 L 446.04295984606966,227.74728636814245 L 465.1978192939094,235.2557768131192 Z" fill="none" stroke="#FFFFFF" stroke-width="2.651088715601288" /><path d="M 559.5117813905864,216.40194129475907 L 567.7470078887117,235.25577681311918 L 586.9018673365513,227.74728636814245 L 579.3933768915746,246.90214581598215 L 598.2472124099347,255.13737231410735 L 579.3933768915746,263.3725988122326 L 586.9018673365513,282.52745826007225 L 567.7470078887117,275.0189678150955 L 559.5117813905864,293.87280333345564 L 551.2765548924611,275.0189678150955 L 532.1216954446215,282.52745826007225 L 539.6301858895982,263.3725988122326 L 520.7763503712381,255.13737231410735 L 539.6301858895982,246.90214581598215 L 532.1216954446215,227.74728636814245 L 551.2765548924611,235.2557768131192 Z" fill="none" stroke="#FFFFFF" stroke-width="2.651088715601288" /><path d="M 2.3718610805718986e-15,290.946126323105 L 8.235226498125208,309.79996184146506 L 27.390085945964913,302.2914713964883 L 19.881595500988162,321.44633084432803 L 38.73543101934828,329.68155734245323 L 19.881595500988162,337.91678384057843 L 27.390085945964913,357.07164328841816 L 8.235226498125208,349.5631528434414 L 2.3718610805718986e-15,368.4169883618015 L -8.235226498125204,349.5631528434414 L -27.39008594596491,357.07164328841816 L -19.881595500988155,337.91678384057843 L -38.73543101934828,329.68155734245323 L -19.88159550098816,321.44633084432803 L -27.39008594596492,302.2914713964883 L -8.235226498125218,309.79996184146506 Z" fill="none" stroke="#FFFFFF" stroke-width="2.651088715601288" /><path d="M 86.07873559855175,290.946126323105 L 94.31396209667696,309.79996184146506 L 113.46882154451666,302.2914713964883 L 105.9603310995399,321.44633084432803 L 124.81416661790003,329.68155734245323 L 105.9603310995399,337.91678384057843 L 113.46882154451666,357.07164328841816 L 94.31396209667696,349.5631528434414 L 86.07873559855175,368.4169883618015 L 77.84350910042654,349.5631528434414 L 58.68864965258683,357.07164328841816 L 66.19714009756359,337.91678384057843 L 47.34330457920346,329.68155734245323 L 66.19714009756359,321.44633084432803 L 58.688649652586825,302.2914713964883 L 77.84350910042653,309.79996184146506 Z" fill="none" stroke="#FFFFFF" stroke-width="2.651088715601288" /><path d="M 172.1574711971035,290.946126323105 L 180.3926976952287,309.79996184146506 L 199.5475571430684,302.2914713964883 L 192.03906669809166,321.44633084432803 L 210.89290221645177,329.68155734245323 L 192.03906669809166,337.91678384057843 L 199.5475571430684,357.07164328841816 L 180.3926976952287,349.5631528434414 L 172.1574711971035,368.4169883618015 L 163.9222446989783,349.5631528434414 L 144.7673852511386,357.07164328841816 L 152.27587569611535,337.91678384057843 L 133.4220401777552,329.68155734245323 L 152.27587569611532,321.44633084432803 L 144.76738525113856,302.2914713964883 L 163.92224469897826,309.79996184146506 Z" fill="none" stroke="#FFFFFF" stroke-width="2.651088715601288" /><path d="M 258.2362067956552,290.946126323105 L 266.4714332937804,309.79996184146506 L 285.62629274162015,302.2914713964883 L 278.1178022966434,321.44633084432803 L 296.97163781500353,329.68155734245323 L 278.1178022966434,337.91678384057843 L 285.62629274162015,357.07164328841816 L 266.4714332937804,349.5631528434414 L 258.2362067956552,368.4169883618015 L 250.00098029753002,349.5631528434414 L 230.84612084969032,357.07164328841816 L 238.35461129466705,337.91678384057843 L 219.50077577630694,329.68155734245323 L 238.35461129466705,321.44633084432803 L 230.8461208496903,302.2914713964883 L 250.00098029753,309.79996184146506 Z" fill="none" stroke="#FFFFFF" stroke-width="2.651088715601288" /><path d="M 344.314942394207,290.946126323105 L 352.5501688923322,309.79996184146506 L 371.7050283401719,302.2914713964883 L 364.19653789519515,321.44633084432803 L 383.05037341355523,329.68155734245323 L 364.19653789519515,337.91678384057843 L 371.7050283401719,357.07164328841816 L 352.5501688923322,349.5631528434414 L 344.314942394207,368.4169883618015 L 336.0797158960818,349.5631528434414 L 316.92485644824205,357.07164328841816 L 324.4333468932188,337.91678384057843 L 305.5795113748587,329.68155734245323 L 324.4333468932188,321.44633084432803 L 316.92485644824205,302.2914713964883 L 336.0797158960818,309.79996184146506 Z" fill="none" stroke="#FFFFFF" stroke-width="2.651088715601288" /><path d="M 430.39367799275874,290.946126323105 L 438.62890449088394,309.79996184146506 L 457.78376393872367,302.2914713964883 L 450.2752734937469,321.44633084432803 L 469.12910901210705,329.68155734245323 L 450.2752734937469,337.91678384057843 L 457.78376393872367,357.07164328841816 L 438.62890449088394,349.5631528434414 L 430.39367799275874,368.4169883618015 L 422.15845149463354,349.5631528434414 L 403.0035920467938,357.07164328841816 L 410.51208249177057,337.91678384057843 L 391.6582469734104,329.68155734245323 L 410.51208249177057,321.44633084432803 L 403.0035920467938,302.2914713964883 L 422.15845149463354,309.79996184146506 Z" fill="none" stroke="#FFFFFF" stroke-width="2.651088715601288" /><path d="M 516.4724135913104,290.946126323105 L 524.7076400894357,309.79996184146506 L 543.8624995372753,302.2914713964883 L 536.3540090922986,321.44633084432803 L 555.2078446106588,329.68155734245323 L 536.3540090922986,337.91678384057843 L 543.8624995372753,357.07164328841816 L 524.7076400894357,349.5631528434414 L 516.4724135913104,368.4169883618015 L 508.23718709318524,349.5631528434414 L 489.0823276453455,357.07164328841816 L 496.5908180903223,337.91678384057843 L 477.73698257196213,329.68155734245323 L 496.5908180903223,321.44633084432803 L 489.0823276453455,302.2914713964883 L 508.23718709318524,309.79996184146506 Z" fill="none" stroke="#FFFFFF" stroke-width="2.651088715601288" /><path d="M -43.03936779927587,365.4903113514507 L -34.804141301150665,384.3441468698108 L -15.64928185331096,376.83565642483404 L -23.15777229828771,395.99051587267377 L -4.303936779927589,404.22574237079897 L -23.15777229828771,412.46096886892417 L -15.64928185331096,431.6158283167639 L -34.804141301150665,424.10733787178714 L -43.03936779927587,442.9611733901472 L -51.27459429740108,424.10733787178714 L -70.42945374524078,431.6158283167639 L -62.92096330026403,412.46096886892417 L -81.77479881862416,404.22574237079897 L -62.920963300264035,395.99051587267377 L -70.42945374524079,376.83565642483404 L -51.274594297401094,384.3441468698108 Z" fill="none" stroke="#FFFFFF" stroke-width="2.651088715601288" /><path d="M 43.03936779927587,365.4903113514507 L 51.27459429740108,384.3441468698108 L 70.42945374524078,376.83565642483404 L 62.920963300264035,395.99051587267377 L 81.77479881862416,404.22574237079897 L 62.920963300264035,412.46096886892417 L 70.42945374524078,431.6158283167639 L 51.27459429740108,424.10733787178714 L 43.03936779927587,442.9611733901472 L 34.804141301150665,424.10733787178714 L 15.649281853310963,431.6158283167639 L 23.157772298287718,412.46096886892417 L 4.303936779927589,404.22574237079897 L 23.157772298287714,395.99051587267377 L 15.649281853310953,376.83565642483404 L 34.80414130115065,384.3441468698108 Z" fill="none" stroke="#FFFFFF" stroke-width="2.651088715601288" /><path d="M 129.1181033978276,365.4903113514507 L 137.3533298959528,384.3441468698108 L 156.50818934379254,376.83565642483404 L 148.99969889881578,395.99051587267377 L 167.8535344171759,404.22574237079897 L 148.99969889881578,412.46096886892417 L 156.50818934379254,431.6158283167639 L 137.3533298959528,424.10733787178714 L 129.1181033978276,442.9611733901472 L 120.88287689970241,424.10733787178714 L 101.7280174518627,431.6158283167639 L 109.23650789683946,412.46096886892417 L 90.38267237847933,404.22574237079897 L 109.23650789683946,395.99051587267377 L 101.72801745186268,376.83565642483404 L 120.8828768997024,384.3441468698108 Z" fill="none" stroke="#FFFFFF" stroke-width="2.651088715601288" /><path d="M 215.19683899637934,365.4903113514507 L 223.43206549450454,384.3441468698108 L 242.58692494234424,376.83565642483404 L 235.0784344973675,395.99051587267377 L 253.93227001572762,404.22574237079897 L 235.0784344973675,412.46096886892417 L 242.58692494234424,431.6158283167639 L 223.43206549450454,424.10733787178714 L 215.19683899637934,442.9611733901472 L 206.96161249825414,424.10733787178714 L 187.80675305041444,431.6158283167639 L 195.3152434953912,412.46096886892417 L 176.46140797703106,404.22574237079897 L 195.31524349539117,395.99051587267377 L 187.80675305041441,376.83565642483404 L 206.9616124982541,384.3441468698108 Z" fill="none" stroke="#FFFFFF" stroke-width="2.651088715601288" /><path d="M 301.27557459493113,365.4903113514507 L 309.51080109305633,384.3441468698108 L 328.66566054089606,376.83565642483404 L 321.1571700959193,395.99051587267377 L 340.0110056142794,404.22574237079897 L 321.1571700959193,412.46096886892417 L 328.66566054089606,431.6158283167639 L 309.51080109305633,424.10733787178714 L 301.27557459493113,442.9611733901472 L 293.04034809680593,424.10733787178714 L 273.8854886489662,431.6158283167639 L 281.39397909394296,412.46096886892417 L 262.5401435755829,404.22574237079897 L 281.39397909394296,395.99051587267377 L 273.8854886489662,376.83565642483404 L 293.04034809680593,384.3441468698108 Z" fill="none" stroke="#FFFFFF" stroke-width="2.651088715601288" /><path d="M 387.3543101934829,365.4903113514507 L 395.5895366916081,384.3441468698108 L 414.7443961394478,376.83565642483404 L 407.23590569447106,395.99051587267377 L 426.0897412128312,404.22574237079897 L 407.23590569447106,412.46096886892417 L 414.7443961394478,431.6158283167639 L 395.5895366916081,424.10733787178714 L 387.3543101934829,442.9611733901472 L 379.1190836953577,424.10733787178714 L 359.96422424751796,431.6158283167639 L 367.4727146924947,412.46096886892417 L 348.6188791741346,404.22574237079897 L 367.4727146924947,395.99051587267377 L 359.96422424751796,376.83565642483404 L 379.1190836953577,384.3441468698108 Z" fill="none" stroke="#FFFFFF" stroke-width="2.651088715601288" /><path d="M 473.4330457920346,365.4903113514507 L 481.6682722901598,384.3441468698108 L 500.8231317379995,376.83565642483404 L 493.31464129302276,395.99051587267377 L 512.1684768113829,404.22574237079897 L 493.31464129302276,412.46096886892417 L 500.8231317379995,431.6158283167639 L 481.6682722901598,424.10733787178714 L 473.4330457920346,442.9611733901472 L 465.1978192939094,424.10733787178714 L 446.04295984606966,431.6158283167639 L 453.5514502910464,412.46096886892417 L 434.6976147726863,404.22574237079897 L 453.5514502910464,395.99051587267377 L 446.04295984606966,376.83565642483404 L 465.1978192939094,384.3441468698108 Z" fill="none" stroke="#FFFFFF" stroke-width="2.651088715601288" /><path d="M 559.5117813905864,365.4903113514507 L 567.7470078887117,384.3441468698108 L 586.9018673365513,376.83565642483404 L 579.3933768915746,395.99051587267377 L 598.2472124099347,404.22574237079897 L 579.3933768915746,412.46096886892417 L 586.9018673365513,431.6158283167639 L 567.7470078887117,424.10733787178714 L 559.5117813905864,442.9611733901472 L 551.2765548924611,424.10733787178714 L 532.1216954446215,431.6158283167639 L 539.6301858895982,412.46096886892417 L 520.7763503712381,404.22574237079897 L 539.6301858895982,395.99051587267377 L 532.1216954446215,376.83565642483404 L 551.2765548924611,384.3441468698108 Z" fill="none" stroke="#FFFFFF" stroke-width="2.651088715601288" /><path d="M 2.3718610805718986e-15,440.03449637979656 L 8.235226498125208,458.8883318981567 L 27.390085945964913,451.37984145317995 L 19.881595500988162,470.5347009010197 L 38.73543101934828,478.7699273991449 L 19.881595500988162,487.0051538972701 L 27.390085945964913,506.1600133451098 L 8.235226498125208,498.65152290013305 L 2.3718610805718986e-15,517.5053584184932 L -8.235226498125204,498.65152290013305 L -27.39008594596491,506.1600133451098 L -19.881595500988155,487.0051538972701 L -38.73543101934828,478.7699273991449 L -19.88159550098816,470.5347009010197 L -27.39008594596492,451.37984145317995 L -8.235226498125218,458.8883318981567 Z" fill="none" stroke="#FFFFFF" stroke-width="2.651088715601288" /><path d="M 86.07873559855175,440.03449637979656 L 94.31396209667696,458.8883318981567 L 113.46882154451666,451.37984145317995 L 105.9603310995399,470.5347009010197 L 124.81416661790003,478.7699273991449 L 105.9603310995399,487.0051538972701 L 113.46882154451666,506.1600133451098 L 94.31396209667696,498.65152290013305 L 86.07873559855175,517.5053584184932 L 77.84350910042654,498.65152290013305 L 58.68864965258683,506.1600133451098 L 66.19714009756359,487.0051538972701 L 47.34330457920346,478.7699273991449 L 66.19714009756359,470.5347009010197 L 58.688649652586825,451.37984145317995 L 77.84350910042653,458.8883318981567 Z" fill="none" stroke="#FFFFFF" stroke-width="2.651088715601288" /><path d="M 172.1574711971035,440.03449637979656 L 180.3926976952287,458.8883318981567 L 199.5475571430684,451.37984145317995 L 192.03906669809166,470.5347009010197 L 210.89290221645177,478.7699273991449 L 192.03906669809166,487.0051538972701 L 199.5475571430684,506.1600133451098 L 180.3926976952287,498.65152290013305 L 172.1574711971035,517.5053584184932 L 163.9222446989783,498.65152290013305 L 144.7673852511386,506.1600133451098 L 152.27587569611535,487.0051538972701 L 133.4220401777552,478.7699273991449 L 152.27587569611532,470.5347009010197 L 144.76738525113856,451.37984145317995 L 163.92224469897826,458.8883318981567 Z" fill="none" stroke="#FFFFFF" stroke-width="2.651088715601288" /><path d="M 258.2362067956552,440.03449637979656 L 266.4714332937804,458.8883318981567 L 285.62629274162015,451.37984145317995 L 278.1178022966434,470.5347009010197 L 296.97163781500353,478.7699273991449 L 278.1178022966434,487.0051538972701 L 285.62629274162015,506.1600133451098 L 266.4714332937804,498.65152290013305 L 258.2362067956552,517.5053584184932 L 250.00098029753002,498.65152290013305 L 230.84612084969032,506.1600133451098 L 238.35461129466705,487.0051538972701 L 219.50077577630694,478.7699273991449 L 238.35461129466705,470.5347009010197 L 230.8461208496903,451.37984145317995 L 250.00098029753,458.8883318981567 Z" fill="none" stroke="#FFFFFF" stroke-width="2.651088715601288" /><path d="M 344.314942394207,440.03449637979656 L 352.5501688923322,458.8883318981567 L 371.7050283401719,451.37984145317995 L 364.19653789519515,470.5347009010197 L 383.05037341355523,478.7699273991449 L 364.19653789519515,487.0051538972701 L 371.7050283401719,506.1600133451098 L 352.5501688923322,498.65152290013305 L 344.314942394207,517.5053584184932 L 336.0797158960818,498.65152290013305 L 316.92485644824205,506.1600133451098 L 324.4333468932188,487.0051538972701 L 305.5795113748587,478.7699273991449 L 324.4333468932188,470.5347009010197 L 316.92485644824205,451.37984145317995 L 336.0797158960818,458.8883318981567 Z" fill="none" stroke="#FFFFFF" stroke-width="2.651088715601288" /><path d="M 430.39367799275874,440.03449637979656 L 438.62890449088394,458.8883318981567 L 457.78376393872367,451.37984145317995 L 450.2752734937469,470.5347009010197 L 469.12910901210705,478.7699273991449 L 450.2752734937469,487.0051538972701 L 457.78376393872367,506.1600133451098 L 438.62890449088394,498.65152290013305 L 430.39367799275874,517.5053584184932 L 422.15845149463354,498.65152290013305 L 403.0035920467938,506.1600133451098 L 410.51208249177057,487.0051538972701 L 391.6582469734104,478.7699273991449 L 410.51208249177057,470.5347009010197 L 403.0035920467938,451.37984145317995 L 422.15845149463354,458.8883318981567 Z" fill="none" stroke="#FFFFFF" stroke-width="2.651088715601288" /><path d="M 516.4724135913104,440.03449637979656 L 524.7076400894357,458.8883318981567 L 543.8624995372753,451.37984145317995 L 536.3540090922986,470.5347009010197 L 555.2078446106588,478.7699273991449 L 536.3540090922986,487.0051538972701 L 543.8624995372753,506.1600133451098 L 524.7076400894357,498.65152290013305 L 516.4724135913104,517.5053584184932 L 508.23718709318524,498.65152290013305 L 489.0823276453455,506.1600133451098 L 496.5908180903223,487.0051538972701 L 477.73698257196213,478.7699273991449 L 496.5908180903223,470.5347009010197 L 489.0823276453455,451.37984145317995 L 508.23718709318524,458.8883318981567 Z" fill="none" stroke="#FFFFFF" stroke-width="2.651088715601288" /><line x1="38.73543101934828" y1="31.504817229069936" x2="47.34330457920346" y2="31.504817229069936" stroke="#FFFFFF" stroke-width="0.5"/><line x1="124.81416661790003" y1="31.504817229069936" x2="133.4220401777552" y2="31.504817229069936" stroke="#FFFFFF" stroke-width="0.5"/><line x1="210.89290221645177" y1="31.504817229069936" x2="219.50077577630694" y2="31.504817229069936" stroke="#FFFFFF" stroke-width="0.5"/><line x1="296.97163781500353" y1="31.504817229069936" x2="305.5795113748587" y2="31.504817229069936" stroke="#FFFFFF" stroke-width="0.5"/><line x1="383.05037341355523" y1="31.504817229069936" x2="391.6582469734104" y2="31.504817229069936" stroke="#FFFFFF" stroke-width="0.5"/><line x1="469.12910901210705" y1="31.504817229069936" x2="477.73698257196213" y2="31.504817229069936" stroke="#FFFFFF" stroke-width="0.5"/><line x1="81.77479881862416" y1="106.04900225741574" x2="90.38267237847933" y2="106.04900225741574" stroke="#FFFFFF" stroke-width="0.5"/><line x1="167.8535344171759" y1="106.04900225741574" x2="176.46140797703106" y2="106.04900225741574" stroke="#FFFFFF" stroke-width="0.5"/><line x1="253.93227001572762" y1="106.04900225741574" x2="262.5401435755829" y2="106.04900225741574" stroke="#FFFFFF" stroke-width="0.5"/><line x1="340.0110056142794" y1="106.04900225741574" x2="348.6188791741346" y2="106.04900225741574" stroke="#FFFFFF" stroke-width="0.5"/><line x1="426.0897412128312" y1="106.04900225741574" x2="434.6976147726863" y2="106.04900225741574" stroke="#FFFFFF" stroke-width="0.5"/><line x1="38.73543101934828" y1="180.59318728576153" x2="47.34330457920346" y2="180.59318728576153" stroke="#FFFFFF" stroke-width="0.5"/><line x1="124.81416661790003" y1="180.59318728576153" x2="133.4220401777552" y2="180.59318728576153" stroke="#FFFFFF" stroke-width="0.5"/><line x1="210.89290221645177" y1="180.59318728576153" x2="219.50077577630694" y2="180.59318728576153" stroke="#FFFFFF" stroke-width="0.5"/><line x1="296.97163781500353" y1="180.59318728576153" x2="305.5795113748587" y2="180.59318728576153" stroke="#FFFFFF" stroke-width="0.5"/><line x1="383.05037341355523" y1="180.59318728576153" x2="391.6582469734104" y2="180.59318728576153" stroke="#FFFFFF" stroke-width="0.5"/><line x1="469.12910901210705" y1="180.59318728576153" x2="477.73698257196213" y2="180.59318728576153" stroke="#FFFFFF" stroke-width="0.5"/><line x1="81.77479881862416" y1="255.13737231410735" x2="90.38267237847933" y2="255.13737231410735" stroke="#FFFFFF" stroke-width="0.5"/><line x1="167.8535344171759" y1="255.13737231410735" x2="176.46140797703106" y2="255.13737231410735" stroke="#FFFFFF" stroke-width="0.5"/><line x1="253.93227001572762" y1="255.13737231410735" x2="262.5401435755829" y2="255.13737231410735" stroke="#FFFFFF" stroke-width="0.5"/><line x1="340.0110056142794" y1="255.13737231410735" x2="348.6188791741346" y2="255.13737231410735" stroke="#FFFFFF" stroke-width="0.5"/><line x1="426.0897412128312" y1="255.13737231410735" x2="434.6976147726863" y2="255.13737231410735" stroke="#FFFFFF" stroke-width="0.5"/><line x1="38.73543101934828" y1="329.68155734245323" x2="47.34330457920346" y2="329.68155734245323" stroke="#FFFFFF" stroke-width="0.5"/><line x1="124.81416661790003" y1="329.68155734245323" x2="133.4220401777552" y2="329.68155734245323" stroke="#FFFFFF" stroke-width="0.5"/><line x1="210.89290221645177" y1="329.68155734245323" x2="219.50077577630694" y2="329.68155734245323" stroke="#FFFFFF" stroke-width="0.5"/><line x1="296.97163781500353" y1="329.68155734245323" x2="305.5795113748587" y2="329.68155734245323" stroke="#FFFFFF" stroke-width="0.5"/><line x1="383.05037341355523" y1="329.68155734245323" x2="391.6582469734104" y2="329.68155734245323" stroke="#FFFFFF" stroke-width="0.5"/><line x1="469.12910901210705" y1="329.68155734245323" x2="477.73698257196213" y2="329.68155734245323" stroke="#FFFFFF" stroke-width="0.5"/><line x1="81.77479881862416" y1="404.22574237079897" x2="90.38267237847933" y2="404.22574237079897" stroke="#FFFFFF" stroke-width="0.5"/><line x1="167.8535344171759" y1="404.22574237079897" x2="176.46140797703106" y2="404.22574237079897" stroke="#FFFFFF" stroke-width="0.5"/><line x1="253.93227001572762" y1="404.22574237079897" x2="262.5401435755829" y2="404.22574237079897" stroke="#FFFFFF" stroke-width="0.5"/><line x1="340.0110056142794" y1="404.22574237079897" x2="348.6188791741346" y2="404.22574237079897" stroke="#FFFFFF" stroke-width="0.5"/><line x1="426.0897412128312" y1="404.22574237079897" x2="434.6976147726863" y2="404.22574237079897" stroke="#FFFFFF" stroke-width="0.5"/><line x1="38.73543101934828" y1="478.7699273991449" x2="47.34330457920346" y2="478.7699273991449" stroke="#FFFFFF" stroke-width="0.5"/><line x1="124.81416661790003" y1="478.7699273991449" x2="133.4220401777552" y2="478.7699273991449" stroke="#FFFFFF" stroke-width="0.5"/><line x1="210.89290221645177" y1="478.7699273991449" x2="219.50077577630694" y2="478.7699273991449" stroke="#FFFFFF" stroke-width="0.5"/><line x1="296.97163781500353" y1="478.7699273991449" x2="305.5795113748587" y2="478.7699273991449" stroke="#FFFFFF" stroke-width="0.5"/><line x1="383.05037341355523" y1="478.7699273991449" x2="391.6582469734104" y2="478.7699273991449" stroke="#FFFFFF" stroke-width="0.5"/><line x1="469.12910901210705" y1="478.7699273991449" x2="477.73698257196213" y2="478.7699273991449" stroke="#FFFFFF" stroke-width="0.5"/></g></svg>