<svg xmlns="http://www.w3.org/2000/svg" width="512" height="512" viewBox="0 0 512 512"><rect x="0" y="0" width="512" height="512" fill="#000000"/><g opacity="0.12082855704744745"><path d="M -52.12400069190578,-99.03560131462098 L -42.15050494521637,-76.20214938783373 L -18.952489775268795,-85.29551160854277 L -28.04585199597783,-62.097496438595186 L -5.212400069190579,-52.12400069190578 L -28.04585199597783,-42.15050494521637 L -18.952489775268795,-18.952489775268795 L -42.15050494521637,-28.04585199597783 L -52.12400069190578,-5.212400069190579 L -62.097496438595186,-28.04585199597783 L -85.29551160854277,-18.952489775268795 L -76.20214938783371,-42.150504945216355 L -99.03560131462098,-52.12400069190577 L -76.20214938783373,-62.09749643859519 L -85.29551160854277,-85.29551160854277 L -62.0974964385952,-76.20214938783371 Z" fill="none" stroke="#FFFFFF" stroke-width="1.8584372407563206" /><path d="M 52.12400069190578,-99.03560131462098 L 62.097496438595186,-76.20214938783373 L 85.29551160854277,-85.29551160854277 L 76.20214938783373,-62.097496438595186 L 99.03560131462098,-52.12400069190578 L 76.20214938783373,-42.15050494521637 L 85.29551160854277,-18.952489775268795 L 62.097496438595186,-28.04585199597783 L 52.12400069190578,-5.212400069190579 L 42.15050494521637,-28.04585199597783 L 18.952489775268795,-18.952489775268795 L 28.045851995977834,-42.150504945216355 L 5.212400069190579,-52.12400069190577 L 28.04585199597783,-62.09749643859519 L 18.952489775268788,-85.29551160854277 L 42.150504945216355,-76.20214938783371 Z" fill="none" stroke="#FFFFFF" stroke-width="1.8584372407563206" /><path d="M 156.37200207571732,-99.03560131462098 L 166.34549782240674,-76.20214938783373 L 189.5435129923543,-85.29551160854277 L 180.45015077164527,-62.097496438595186 L 203.2836026984325,-52.12400069190578 L 180.45015077164527,-42.15050494521637 L 189.5435129923543,-18.952489775268795 L 166.34549782240674,-28.04585199597783 L 156.37200207571732,-5.212400069190579 L 146.39850632902792,-28.04585199597783 L 123.20049115908034,-18.952489775268795 L 132.29385337978937,-42.150504945216355 L 109.46040145300212,-52.12400069190577 L 132.29385337978937,-62.09749643859519 L 123.20049115908033,-85.29551160854277 L 146.3985063290279,-76.20214938783371 Z" fill="none" stroke="#FFFFFF" stroke-width="1.8584372407563206" /><path d="M 260.62000345952885,-99.03560131462098 L 270.59349920621827,-76.20214938783373 L 293.7915143761658,-85.29551160854277 L 284.6981521554568,-62.097496438595186 L 307.53160408224403,-52.12400069190578 L 284.6981521554568,-42.15050494521637 L 293.7915143761658,-18.952489775268795 L 270.59349920621827,-28.04585199597783 L 260.62000345952885,-5.212400069190579 L 250.64650771283945,-28.04585199597783 L 227.44849254289187,-18.952489775268795 L 236.5418547636009,-42.150504945216355 L 213.70840283681366,-52.12400069190577 L 236.5418547636009,-62.09749643859519 L 227.44849254289187,-85.29551160854277 L 250.64650771283942,-76.20214938783371 Z" fill="none" stroke="#FFFFFF" stroke-width="1.8584372407563206" /><path d="M 364.86800484334043,-99.03560131462098 L 374.84150059002985,-76.20214938783373 L 398.0395157599774,-85.29551160854277 L 388.9461535392684,-62.097496438595186 L 411.7796054660556,-52.12400069190578 L 388.9461535392684,-42.15050494521637 L 398.0395157599774,-18.952489775268795 L 374.84150059002985,-28.04585199597783 L 364.86800484334043,-5.212400069190579 L 354.894509096651,-28.04585199597783 L 331.69649392670345,-18.952489775268795 L 340.7898561474125,-42.150504945216355 L 317.95640422062525,-52.12400069190577 L 340.7898561474125,-62.09749643859519 L 331.69649392670345,-85.29551160854277 L 354.894509096651,-76.20214938783371 Z" fill="none" stroke="#FFFFFF" stroke-width="1.8584372407563206" /><path d="M 469.116006227152,-99.03560131462098 L 479.08950197384144,-76.20214938783373 L 502.287517143789,-85.29551160854277 L 493.19415492307996,-62.097496438595186 L 516.0276068498672,-52.12400069190578 L 493.19415492307996,-42.15050494521637 L 502.287517143789,-18.952489775268795 L 479.08950197384144,-28.04585199597783 L 469.116006227152,-5.212400069190579 L 459.1425104804626,-28.04585199597783 L 435.94449531051504,-18.952489775268795 L 445.03785753122406,-42.150504945216355 L 422.20440560443683,-52.12400069190577 L 445.03785753122406,-62.09749643859519 L 435.94449531051504,-85.29551160854277 L 459.1425104804626,-76.20214938783371 Z" fill="none" stroke="#FFFFFF" stroke-width="1.8584372407563206" /><path d="M 573.3640076109635,-99.03560131462098 L 583.337503357653,-76.20214938783373 L 606.5355185276005,-85.29551160854277 L 597.4421563068914,-62.097496438595186 L 620.2756082336788,-52.12400069190578 L 597.4421563068914,-42.15050494521637 L 606.5355185276005,-18.952489775268795 L 583.337503357653,-28.04585199597783 L 573.3640076109635,-5.212400069190579 L 563.3905118642741,-28.04585199597783 L 540.1924966943266,-18.952489775268795 L 549.2858589150356,-42.150504945216355 L 526.4524069882483,-52.12400069190577 L 549.2858589150356,-62.09749643859519 L 540.1924966943266,-85.29551160854277 L 563.3905118642741,-76.20214938783371 Z" fill="none" stroke="#FFFFFF" stroke-width="1.8584372407563206" /><path d="M 2.8725070772743573e-15,-8.756832116240176 L 9.97349574668941,14.076619810547076 L 33.17151091663698,4.98325758983804 L 24.078148695927947,28.181272759785614 L 46.9116006227152,38.15476850647502 L 24.078148695927947,48.12826425316443 L 33.17151091663698,71.326279423112 L 9.97349574668941,62.23291720240297 L 2.8725070772743573e-15,85.06636912919022 L -9.973495746689407,62.23291720240297 L -33.17151091663698,71.326279423112 L -24.078148695927943,48.128264253164446 L -46.9116006227152,38.15476850647503 L -24.078148695927947,28.181272759785607 L -33.17151091663699,4.98325758983804 L -9.973495746689423,14.07661981054708 Z" fill="none" stroke="#FFFFFF" stroke-width="1.8584372407563206" /><path d="M 104.24800138381156,-8.756832116240176 L 114.22149713050096,14.076619810547076 L 137.41951230044853,4.98325758983804 L 128.3261500797395,28.181272759785614 L 151.15960200652677,38.15476850647502 L 128.3261500797395,48.12826425316443 L 137.41951230044853,71.326279423112 L 114.22149713050096,62.23291720240297 L 104.24800138381156,85.06636912919022 L 94.27450563712215,62.23291720240297 L 71.07649046717458,71.326279423112 L 80.1698526878836,48.128264253164446 L 57.33640076109636,38.15476850647503 L 80.1698526878836,28.181272759785607 L 71.07649046717457,4.98325758983804 L 94.27450563712213,14.07661981054708 Z" fill="none" stroke="#FFFFFF" stroke-width="1.8584372407563206" /><path d="M 208.4960027676231,-8.756832116240176 L 218.46949851431253,14.076619810547076 L 241.6675136842601,4.98325758983804 L 232.57415146355106,28.181272759785614 L 255.4076033903383,38.15476850647502 L 232.57415146355106,48.12826425316443 L 241.6675136842601,71.326279423112 L 218.46949851431253,62.23291720240297 L 208.4960027676231,85.06636912919022 L 198.52250702093372,62.23291720240297 L 175.32449185098613,71.326279423112 L 184.41785407169516,48.128264253164446 L 161.58440214490793,38.15476850647503 L 184.41785407169516,28.181272759785607 L 175.32449185098613,4.98325758983804 L 198.5225070209337,14.07661981054708 Z" fill="none" stroke="#FFFFFF" stroke-width="1.8584372407563206" /><path d="M 312.74400415143464,-8.756832116240176 L 322.71749989812406,14.076619810547076 L 345.9155150680716,4.98325758983804 L 336.8221528473626,28.181272759785614 L 359.6556047741498,38.15476850647502 L 336.8221528473626,48.12826425316443 L 345.9155150680716,71.326279423112 L 322.71749989812406,62.23291720240297 L 312.74400415143464,85.06636912919022 L 302.7705084047452,62.23291720240297 L 279.57249323479766,71.326279423112 L 288.6658554555067,48.128264253164446 L 265.83240352871945,38.15476850647503 L 288.6658554555067,28.181272759785607 L 279.57249323479766,4.98325758983804 L 302.7705084047452,14.07661981054708 Z" fill="none" stroke="#FFFFFF" stroke-width="1.8584372407563206" /><path d="M 416.9920055352462,-8.756832116240176 L 426.96550128193564,14.076619810547076 L 450.1635164518832,4.98325758983804 L 441.0701542311742,28.181272759785614 L 463.9036061579614,38.15476850647502 L 441.0701542311742,48.12826425316443 L 450.1635164518832,71.326279423112 L 426.96550128193564,62.23291720240297 L 416.9920055352462,85.06636912919022 L 407.0185097885568,62.23291720240297 L 383.82049461860925,71.326279423112 L 392.91385683931827,48.128264253164446 L 370.08040491253104,38.15476850647503 L 392.91385683931827,28.181272759785607 L 383.82049461860925,4.98325758983804 L 407.0185097885568,14.07661981054708 Z" fill="none" stroke="#FFFFFF" stroke-width="1.8584372407563206" /><path d="M 521.2400069190578,-8.756832116240176 L 531.2135026657472,14.076619810547076 L 554.4115178356948,4.98325758983804 L 545.3181556149857,28.181272759785614 L 568.151607541773,38.15476850647502 L 545.3181556149857,48.12826425316443 L 554.4115178356948,71.326279423112 L 531.2135026657472,62.23291720240297 L 521.2400069190578,85.06636912919022 L 511.2665111723684,62.23291720240297 L 488.06849600242083,71.326279423112 L 497.16185822312985,48.128264253164446 L 474.3284062963426,38.15476850647503 L 497.16185822312985,28.181272759785607 L 488.06849600242083,4.98325758983804 L 511.2665111723684,14.07661981054708 Z" fill="none" stroke="#FFFFFF" stroke-width="1.8584372407563206" /><path d="M -52.12400069190578,81.52193708214064 L -42.15050494521637,104.35538900892789 L -18.952489775268795,95.26202678821886 L -28.04585199597783,118.46004195816643 L -5.212400069190579,128.43353770485584 L -28.04585199597783,138.40703345154526 L -18.952489775268795,161.6050486214928 L -42.15050494521637,152.5116864007838 L -52.12400069190578,175.34513832757102 L -62.097496438595186,152.5116864007838 L -85.29551160854277,161.6050486214928 L -76.20214938783371,138.40703345154526 L -99.03560131462098,128.43353770485584 L -76.20214938783373,118.46004195816641 L -85.29551160854277,95.26202678821886 L -62.0974964385952,104.35538900892789 Z" fill="none" stroke="#FFFFFF" stroke-width="1.8584372407563206" /><path d="M 52.12400069190578,81.52193708214064 L 62.097496438595186,104.35538900892789 L 85.29551160854277,95.26202678821886 L 76.20214938783373,118.46004195816643 L 99.03560131462098,128.43353770485584 L 76.20214938783373,138.40703345154526 L 85.29551160854277,161.6050486214928 L 62.097496438595186,152.5116864007838 L 52.12400069190578,175.34513832757102 L 42.15050494521637,152.5116864007838 L 18.952489775268795,161.6050486214928 L 28.045851995977834,138.40703345154526 L 5.212400069190579,128.43353770485584 L 28.04585199597783,118.46004195816641 L 18.952489775268788,95.26202678821886 L 42.150504945216355,104.35538900892789 Z" fill="none" stroke="#FFFFFF" stroke-width="1.8584372407563206" /><path d="M 156.37200207571732,81.52193708214064 L 166.34549782240674,104.35538900892789 L 189.5435129923543,95.26202678821886 L 180.45015077164527,118.46004195816643 L 203.2836026984325,128.43353770485584 L 180.45015077164527,138.40703345154526 L 189.5435129923543,161.6050486214928 L 166.34549782240674,152.5116864007838 L 156.37200207571732,175.34513832757102 L 146.39850632902792,152.5116864007838 L 123.20049115908034,161.6050486214928 L 132.29385337978937,138.40703345154526 L 109.46040145300212,128.43353770485584 L 132.29385337978937,118.46004195816641 L 123.20049115908033,95.26202678821886 L 146.3985063290279,104.35538900892789 Z" fill="none" stroke="#FFFFFF" stroke-width="1.8584372407563206" /><path d="M 260.62000345952885,81.52193708214064 L 270.59349920621827,104.35538900892789 L 293.7915143761658,95.26202678821886 L 284.6981521554568,118.46004195816643 L 307.53160408224403,128.43353770485584 L 284.6981521554568,138.40703345154526 L 293.7915143761658,161.6050486214928 L 270.59349920621827,152.5116864007838 L 260.62000345952885,175.34513832757102 L 250.64650771283945,152.5116864007838 L 227.44849254289187,161.6050486214928 L 236.5418547636009,138.40703345154526 L 213.70840283681366,128.43353770485584 L 236.5418547636009,118.46004195816641 L 227.44849254289187,95.26202678821886 L 250.64650771283942,104.35538900892789 Z" fill="none" stroke="#FFFFFF" stroke-width="1.8584372407563206" /><path d="M 364.86800484334043,81.52193708214064 L 374.84150059002985,104.35538900892789 L 398.0395157599774,95.26202678821886 L 388.9461535392684,118.46004195816643 L 411.7796054660556,128.43353770485584 L 388.9461535392684,138.40703345154526 L 398.0395157599774,161.6050486214928 L 374.84150059002985,152.5116864007838 L 364.86800484334043,175.34513832757102 L 354.894509096651,152.5116864007838 L 331.69649392670345,161.6050486214928 L 340.7898561474125,138.40703345154526 L 317.95640422062525,128.43353770485584 L 340.7898561474125,118.46004195816641 L 331.69649392670345,95.26202678821886 L 354.894509096651,104.35538900892789 Z" fill="none" stroke="#FFFFFF" stroke-width="1.8584372407563206" /><path d="M 469.116006227152,81.52193708214064 L 479.08950197384144,104.35538900892789 L 502.287517143789,95.26202678821886 L 493.19415492307996,118.46004195816643 L 516.0276068498672,128.43353770485584 L 493.19415492307996,138.40703345154526 L 502.287517143789,161.6050486214928 L 479.08950197384144,152.5116864007838 L 469.116006227152,175.34513832757102 L 459.1425104804626,152.5116864007838 L 435.94449531051504,161.6050486214928 L 445.03785753122406,138.40703345154526 L 422.20440560443683,128.43353770485584 L 445.03785753122406,118.46004195816641 L 435.94449531051504,95.26202678821886 L 459.1425104804626,104.35538900892789 Z" fill="none" stroke="#FFFFFF" stroke-width="1.8584372407563206" /><path d="M 573.3640076109635,81.52193708214064 L 583.337503357653,104.35538900892789 L 606.5355185276005,95.26202678821886 L 597.4421563068914,118.46004195816643 L 620.2756082336788,128.43353770485584 L 597.4421563068914,138.40703345154526 L 606.5355185276005,161.6050486214928 L 583.337503357653,152.5116864007838 L 573.3640076109635,175.34513832757102 L 563.3905118642741,152.5116864007838 L 540.1924966943266,161.6050486214928 L 549.2858589150356,138.40703345154526 L 526.4524069882483,128.43353770485584 L 549.2858589150356,118.46004195816641 L 540.1924966943266,95.26202678821886 L 563.3905118642741,104.35538900892789 Z" fill="none" stroke="#FFFFFF" stroke-width="1.8584372407563206" /><path d="M 2.8725070772743573e-15,171.8007062805214 L 9.97349574668941,194.63415820730864 L 33.17151091663698,185.54079598659962 L 24.078148695927947,208.73881115654717 L 46.9116006227152,218.7123069032366 L 24.078148695927947,228.68580264992602 L 33.17151091663698,251.88381781987357 L 9.97349574668941,242.79045559916455 L 2.8725070772743573e-15,265.6239075259518 L -9.973495746689407,242.79045559916455 L -33.17151091663698,251.88381781987357 L -24.078148695927943,228.68580264992602 L -46.9116006227152,218.7123069032366 L -24.078148695927947,208.73881115654717 L -33.17151091663699,185.54079598659962 L -9.973495746689423,194.63415820730864 Z" fill="none" stroke="#FFFFFF" stroke-width="1.8584372407563206" /><path d="M 104.24800138381156,171.8007062805214 L 114.22149713050096,194.63415820730864 L 137.41951230044853,185.54079598659962 L 128.3261500797395,208.73881115654717 L 151.15960200652677,218.7123069032366 L 128.3261500797395,228.68580264992602 L 137.41951230044853,251.88381781987357 L 114.22149713050096,242.79045559916455 L 104.24800138381156,265.6239075259518 L 94.27450563712215,242.79045559916455 L 71.07649046717458,251.88381781987357 L 80.1698526878836,228.68580264992602 L 57.33640076109636,218.7123069032366 L 80.1698526878836,208.73881115654717 L 71.07649046717457,185.54079598659962 L 94.27450563712213,194.63415820730864 Z" fill="none" stroke="#FFFFFF" stroke-width="1.8584372407563206" /><path d="M 208.4960027676231,171.8007062805214 L 218.46949851431253,194.63415820730864 L 241.6675136842601,185.54079598659962 L 232.57415146355106,208.73881115654717 L 255.4076033903383,218.7123069032366 L 232.57415146355106,228.68580264992602 L 241.6675136842601,251.88381781987357 L 218.46949851431253,242.79045559916455 L 208.4960027676231,265.6239075259518 L 198.52250702093372,242.79045559916455 L 175.32449185098613,251.88381781987357 L 184.41785407169516,228.68580264992602 L 161.58440214490793,218.7123069032366 L 184.41785407169516,208.73881115654717 L 175.32449185098613,185.54079598659962 L 198.5225070209337,194.63415820730864 Z" fill="none" stroke="#FFFFFF" stroke-width="1.8584372407563206" /><path d="M 312.74400415143464,171.8007062805214 L 322.71749989812406,194.63415820730864 L 345.9155150680716,185.54079598659962 L 336.8221528473626,208.73881115654717 L 359.6556047741498,218.7123069032366 L 336.8221528473626,228.68580264992602 L 345.9155150680716,251.88381781987357 L 322.71749989812406,242.79045559916455 L 312.74400415143464,265.6239075259518 L 302.7705084047452,242.79045559916455 L 279.57249323479766,251.88381781987357 L 288.6658554555067,228.68580264992602 L 265.83240352871945,218.7123069032366 L 288.6658554555067,208.73881115654717 L 279.57249323479766,185.54079598659962 L 302.7705084047452,194.63415820730864 Z" fill="none" stroke="#FFFFFF" stroke-width="1.8584372407563206" /><path d="M 416.9920055352462,171.8007062805214 L 426.96550128193564,194.63415820730864 L 450.1635164518832,185.54079598659962 L 441.0701542311742,208.73881115654717 L 463.9036061579614,218.7123069032366 L 441.0701542311742,228.68580264992602 L 450.1635164518832,251.88381781987357 L 426.96550128193564,242.79045559916455 L 416.9920055352462,265.6239075259518 L 407.0185097885568,242.79045559916455 L 383.82049461860925,251.88381781987357 L 392.91385683931827,228.68580264992602 L 370.08040491253104,218.7123069032366 L 392.91385683931827,208.73881115654717 L 383.82049461860925,185.54079598659962 L 407.0185097885568,194.63415820730864 Z" fill="none" stroke="#FFFFFF" stroke-width="1.8584372407563206" /><path d="M 521.2400069190578,171.8007062805214 L 531.2135026657472,194.63415820730864 L 554.4115178356948,185.54079598659962 L 545.3181556149857,208.73881115654717 L 568.151607541773,218.7123069032366 L 545.3181556149857,228.68580264992602 L 554.4115178356948,251.88381781987357 L 531.2135026657472,242.79045559916455 L 521.2400069190578,265.6239075259518 L 511.2665111723684,242.79045559916455 L 488.06849600242083,251.88381781987357 L 497.16185822312985,228.68580264992602 L 474.3284062963426,218.7123069032366 L 497.16185822312985,208.73881115654717 L 488.06849600242083,185.54079598659962 L 511.2665111723684,194.63415820730864 Z" fill="none" stroke="#FFFFFF" stroke-width="1.8584372407563206" /><path d="M -52.12400069190578,262.0794754789022 L -42.15050494521637,284.91292740568946 L -18.952489775268795,275.81956518498043 L -28.04585199597783,299.017580354928 L -5.212400069190579,308.9910761016174 L -28.04585199597783,318.96457184830683 L -18.952489775268795,342.1625870182544 L -42.15050494521637,333.06922479754536 L -52.12400069190578,355.9026767243326 L -62.097496438595186,333.06922479754536 L -85.29551160854277,342.1625870182544 L -76.20214938783371,318.96457184830683 L -99.03560131462098,308.9910761016174 L -76.20214938783373,299.017580354928 L -85.29551160854277,275.81956518498043 L -62.0974964385952,284.91292740568946 Z" fill="none" stroke="#FFFFFF" stroke-width="1.8584372407563206" /><path d="M 52.12400069190578,262.0794754789022 L 62.097496438595186,284.91292740568946 L 85.29551160854277,275.81956518498043 L 76.20214938783373,299.017580354928 L 99.03560131462098,308.9910761016174 L 76.20214938783373,318.96457184830683 L 85.29551160854277,342.1625870182544 L 62.097496438595186,333.06922479754536 L 52.12400069190578,355.9026767243326 L 42.15050494521637,333.06922479754536 L 18.952489775268795,342.1625870182544 L 28.045851995977834,318.96457184830683 L 5.212400069190579,308.9910761016174 L 28.04585199597783,299.017580354928 L 18.952489775268788,275.81956518498043 L 42.150504945216355,284.91292740568946 Z" fill="none" stroke="#FFFFFF" stroke-width="1.8584372407563206" /><path d="M 156.37200207571732,262.0794754789022 L 166.34549782240674,284.91292740568946 L 189.5435129923543,275.81956518498043 L 180.45015077164527,299.017580354928 L 203.2836026984325,308.9910761016174 L 180.45015077164527,318.96457184830683 L 189.5435129923543,342.1625870182544 L 166.34549782240674,333.06922479754536 L 156.37200207571732,355.9026767243326 L 146.39850632902792,333.06922479754536 L 123.20049115908034,342.1625870182544 L 132.29385337978937,318.96457184830683 L 109.46040145300212,308.9910761016174 L 132.29385337978937,299.017580354928 L 123.20049115908033,275.81956518498043 L 146.3985063290279,284.91292740568946 Z" fill="none" stroke="#FFFFFF" stroke-width="1.8584372407563206" /><path d="M 260.62000345952885,262.0794754789022 L 270.59349920621827,284.91292740568946 L 293.7915143761658,275.81956518498043 L 284.6981521554568,299.017580354928 L 307.53160408224403,308.9910761016174 L 284.6981521554568,318.96457184830683 L 293.7915143761658,342.1625870182544 L 270.59349920621827,333.06922479754536 L 260.62000345952885,355.9026767243326 L 250.64650771283945,333.06922479754536 L 227.44849254289187,342.1625870182544 L 236.5418547636009,318.96457184830683 L 213.70840283681366,308.9910761016174 L 236.5418547636009,299.017580354928 L 227.44849254289187,275.81956518498043 L 250.64650771283942,284.91292740568946 Z" fill="none" stroke="#FFFFFF" stroke-width="1.8584372407563206" /><path d="M 364.86800484334043,262.0794754789022 L 374.84150059002985,284.91292740568946 L 398.0395157599774,275.81956518498043 L 388.9461535392684,299.017580354928 L 411.7796054660556,308.9910761016174 L 388.9461535392684,318.96457184830683 L 398.0395157599774,342.1625870182544 L 374.84150059002985,333.06922479754536 L 364.86800484334043,355.9026767243326 L 354.894509096651,333.06922479754536 L 331.69649392670345,342.1625870182544 L 340.7898561474125,318.96457184830683 L 317.95640422062525,308.9910761016174 L 340.7898561474125,299.017580354928 L 331.69649392670345,275.81956518498043 L 354.894509096651,284.91292740568946 Z" fill="none" stroke="#FFFFFF" stroke-width="1.8584372407563206" /><path d="M 469.116006227152,262.0794754789022 L 479.08950197384144,284.91292740568946 L 502.287517143789,275.81956518498043 L 493.19415492307996,299.017580354928 L 516.0276068498672,308.9910761016174 L 493.19415492307996,318.96457184830683 L 502.287517143789,342.1625870182544 L 479.08950197384144,333.06922479754536 L 469.116006227152,355.9026767243326 L 459.1425104804626,333.06922479754536 L 435.94449531051504,342.1625870182544 L 445.03785753122406,318.96457184830683 L 422.20440560443683,308.9910761016174 L 445.03785753122406,299.017580354928 L 435.94449531051504,275.81956518498043 L 459.1425104804626,284.91292740568946 Z" fill="none" stroke="#FFFFFF" stroke-width="1.8584372407563206" /><path d="M 573.3640076109635,262.0794754789022 L 583.337503357653,284.91292740568946 L 606.5355185276005,275.81956518498043 L 597.4421563068914,299.017580354928 L 620.2756082336788,308.9910761016174 L 597.4421563068914,318.96457184830683 L 606.5355185276005,342.1625870182544 L 583.337503357653,333.06922479754536 L 573.3640076109635,355.9026767243326 L 563.3905118642741,333.06922479754536 L 540.1924966943266,342.1625870182544 L 549.2858589150356,318.96457184830683 L 526.4524069882483,308.9910761016174 L 549.2858589150356,299.017580354928 L 540.1924966943266,275.81956518498043 L 563.3905118642741,284.91292740568946 Z" fill="none" stroke="#FFFFFF" stroke-width="1.8584372407563206" /><path d="M 2.8725070772743573e-15,352.3582446772831 L 9.97349574668941,375.19169660407033 L 33.17151091663698,366.0983343833613 L 24.078148695927947,389.29634955330886 L 46.9116006227152,399.2698452999983 L 24.078148695927947,409.2433410466877 L 33.17151091663698,432.44135621663526 L 9.97349574668941,423.34799399592623 L 2.8725070772743573e-15,446.18144592271346 L -9.973495746689407,423.34799399592623 L -33.17151091663698,432.44135621663526 L -24.078148695927943,409.2433410466877 L -46.9116006227152,399.2698452999983 L -24.078148695927947,389.29634955330886 L -33.17151091663699,366.0983343833613 L -9.973495746689423,375.19169660407033 Z" fill="none" stroke="#FFFFFF" stroke-width="1.8584372407563206" /><path d="M 104.24800138381156,352.3582446772831 L 114.22149713050096,375.19169660407033 L 137.41951230044853,366.0983343833613 L 128.3261500797395,389.29634955330886 L 151.15960200652677,399.2698452999983 L 128.3261500797395,409.2433410466877 L 137.41951230044853,432.44135621663526 L 114.22149713050096,423.34799399592623 L 104.24800138381156,446.18144592271346 L 94.27450563712215,423.34799399592623 L 71.07649046717458,432.44135621663526 L 80.1698526878836,409.2433410466877 L 57.33640076109636,399.2698452999983 L 80.1698526878836,389.29634955330886 L 71.07649046717457,366.0983343833613 L 94.27450563712213,375.19169660407033 Z" fill="none" stroke="#FFFFFF" stroke-width="1.8584372407563206" /><path d="M 208.4960027676231,352.3582446772831 L 218.46949851431253,375.19169660407033 L 241.6675136842601,366.0983343833613 L 232.57415146355106,389.29634955330886 L 255.4076033903383,399.2698452999983 L 232.57415146355106,409.2433410466877 L 241.6675136842601,432.44135621663526 L 218.46949851431253,423.34799399592623 L 208.4960027676231,446.18144592271346 L 198.52250702093372,423.34799399592623 L 175.32449185098613,432.44135621663526 L 184.41785407169516,409.2433410466877 L 161.58440214490793,399.2698452999983 L 184.41785407169516,389.29634955330886 L 175.32449185098613,366.0983343833613 L 198.5225070209337,375.19169660407033 Z" fill="none" stroke="#FFFFFF" stroke-width="1.8584372407563206" /><path d="M 312.74400415143464,352.3582446772831 L 322.71749989812406,375.19169660407033 L 345.9155150680716,366.0983343833613 L 336.8221528473626,389.29634955330886 L 359.6556047741498,399.2698452999983 L 336.8221528473626,409.2433410466877 L 345.9155150680716,432.44135621663526 L 322.71749989812406,423.34799399592623 L 312.74400415143464,446.18144592271346 L 302.7705084047452,423.34799399592623 L 279.57249323479766,432.44135621663526 L 288.6658554555067,409.2433410466877 L 265.83240352871945,399.2698452999983 L 288.6658554555067,389.29634955330886 L 279.57249323479766,366.0983343833613 L 302.7705084047452,375.19169660407033 Z" fill="none" stroke="#FFFFFF" stroke-width="1.8584372407563206" /><path d="M 416.9920055352462,352.3582446772831 L 426.96550128193564,375.19169660407033 L 450.1635164518832,366.0983343833613 L 441.0701542311742,389.29634955330886 L 463.9036061579614,399.2698452999983 L 441.0701542311742,409.2433410466877 L 450.1635164518832,432.44135621663526 L 426.96550128193564,423.34799399592623 L 416.9920055352462,446.18144592271346 L 407.0185097885568,423.34799399592623 L 383.82049461860925,432.44135621663526 L 392.91385683931827,409.2433410466877 L 370.08040491253104,399.2698452999983 L 392.91385683931827,389.29634955330886 L 383.82049461860925,366.0983343833613 L 407.0185097885568,375.19169660407033 Z" fill="none" stroke="#FFFFFF" stroke-width="1.8584372407563206" /><path d="M 521.2400069190578,352.3582446772831 L 531.2135026657472,375.19169660407033 L 554.4115178356948,366.0983343833613 L 545.3181556149857,389.29634955330886 L 568.151607541773,399.2698452999983 L 545.3181556149857,409.2433410466877 L 554.4115178356948,432.44135621663526 L 531.2135026657472,423.34799399592623 L 521.2400069190578,446.18144592271346 L 511.2665111723684,423.34799399592623 L 488.06849600242083,432.44135621663526 L 497.16185822312985,409.2433410466877 L 474.3284062963426,399.2698452999983 L 497.16185822312985,389.29634955330886 L 488.06849600242083,366.0983343833613 L 511.2665111723684,375.19169660407033 Z" fill="none" stroke="#FFFFFF" stroke-width="1.8584372407563206" /><path d="M -52.12400069190578,442.6370138756638 L -42.15050494521637,465.47046580245103 L -18.952489775268795,456.377103581742 L -28.04585199597783,479.57511875168956 L -5.212400069190579,489.548614498379 L -28.04585199597783,499.5221102450684 L -18.952489775268795,522.720125415016 L -42.15050494521637,513.6267631943069 L -52.12400069190578,536.4602151210942 L -62.097496438595186,513.6267631943069 L -85.29551160854277,522.720125415016 L -76.20214938783371,499.5221102450684 L -99.03560131462098,489.548614498379 L -76.20214938783373,479.57511875168956 L -85.29551160854277,456.377103581742 L -62.0974964385952,465.47046580245103 Z" fill="none" stroke="#FFFFFF" stroke-width="1.8584372407563206" /><path d="M 52.12400069190578,442.6370138756638 L 62.097496438595186,465.47046580245103 L 85.29551160854277,456.377103581742 L 76.20214938783373,479.57511875168956 L 99.03560131462098,489.548614498379 L 76.20214938783373,499.5221102450684 L 85.29551160854277,522.720125415016 L 62.097496438595186,513.6267631943069 L 52.12400069190578,536.4602151210942 L 42.15050494521637,513.6267631943069 L 18.952489775268795,522.720125415016 L 28.045851995977834,499.5221102450684 L 5.212400069190579,489.548614498379 L 28.04585199597783,479.57511875168956 L 18.952489775268788,456.377103581742 L 42.150504945216355,465.47046580245103 Z" fill="none" stroke="#FFFFFF" stroke-width="1.8584372407563206" /><path d="M 156.37200207571732,442.6370138756638 L 166.34549782240674,465.47046580245103 L 189.5435129923543,456.377103581742 L 180.45015077164527,479.57511875168956 L 203.2836026984325,489.548614498379 L 180.45015077164527,499.5221102450684 L 189.5435129923543,522.720125415016 L 166.34549782240674,513.6267631943069 L 156.37200207571732,536.4602151210942 L 146.39850632902792,513.6267631943069 L 123.20049115908034,522.720125415016 L 132.29385337978937,499.5221102450684 L 109.46040145300212,489.548614498379 L 132.29385337978937,479.57511875168956 L 123.20049115908033,456.377103581742 L 146.3985063290279,465.47046580245103 Z" fill="none" stroke="#FFFFFF" stroke-width="1.8584372407563206" /><path d="M 260.62000345952885,442.6370138756638 L 270.59349920621827,465.47046580245103 L 293.7915143761658,456.377103581742 L 284.6981521554568,479.57511875168956 L 307.53160408224403,489.548614498379 L 284.6981521554568,499.5221102450684 L 293.7915143761658,522.720125415016 L 270.59349920621827,513.6267631943069 L 260.62000345952885,536.4602151210942 L 250.64650771283945,513.6267631943069 L 227.44849254289187,522.720125415016 L 236.5418547636009,499.5221102450684 L 213.70840283681366,489.548614498379 L 236.5418547636009,479.57511875168956 L 227.44849254289187,456.377103581742 L 250.64650771283942,465.47046580245103 Z" fill="none" stroke="#FFFFFF" stroke-width="1.8584372407563206" /><path d="M 364.86800484334043,442.6370138756638 L 374.84150059002985,465.47046580245103 L 398.0395157599774,456.377103581742 L 388.9461535392684,479.57511875168956 L 411.7796054660556,489.548614498379 L 388.9461535392684,499.5221102450684 L 398.0395157599774,522.720125415016 L 374.84150059002985,513.6267631943069 L 364.86800484334043,536.4602151210942 L 354.894509096651,513.6267631943069 L 331.69649392670345,522.720125415016 L 340.7898561474125,499.5221102450684 L 317.95640422062525,489.548614498379 L 340.7898561474125,479.57511875168956 L 331.69649392670345,456.377103581742 L 354.894509096651,465.47046580245103 Z" fill="none" stroke="#FFFFFF" stroke-width="1.8584372407563206" /><path d="M 469.116006227152,442.6370138756638 L 479.08950197384144,465.47046580245103 L 502.287517143789,456.377103581742 L 493.19415492307996,479.57511875168956 L 516.0276068498672,489.548614498379 L 493.19415492307996,499.5221102450684 L 502.287517143789,522.720125415016 L 479.08950197384144,513.6267631943069 L 469.116006227152,536.4602151210942 L 459.1425104804626,513.6267631943069 L 435.94449531051504,522.720125415016 L 445.03785753122406,499.5221102450684 L 422.20440560443683,489.548614498379 L 445.03785753122406,479.57511875168956 L 435.94449531051504,456.377103581742 L 459.1425104804626,465.47046580245103 Z" fill="none" stroke="#FFFFFF" stroke-width="1.8584372407563206" /><path d="M 573.3640076109635,442.6370138756638 L 583.337503357653,465.47046580245103 L 606.5355185276005,456.377103581742 L 597.4421563068914,479.57511875168956 L 620.2756082336788,489.548614498379 L 597.4421563068914,499.5221102450684 L 606.5355185276005,522.720125415016 L 583.337503357653,513.6267631943069 L 573.3640076109635,536.4602151210942 L 563.3905118642741,513.6267631943069 L 540.1924966943266,522.720125415016 L 549.2858589150356,499.5221102450684 L 526.4524069882483,489.548614498379 L 549.2858589150356,479.57511875168956 L 540.1924966943266,456.377103581742 L 563.3905118642741,465.47046580245103 Z" fill="none" stroke="#FFFFFF" stroke-width="1.8584372407563206" /><line x1="46.9116006227152" y1="38.15476850647502" x2="57.33640076109636" y2="38.15476850647502" stroke="#FFFFFF" stroke-width="0.5"/><line x1="151.15960200652677" y1="38.15476850647502" x2="161.58440214490793" y2="38.15476850647502" stroke="#FFFFFF" stroke-width="0.5"/><line x1="255.4076033903383" y1="38.15476850647502" x2="265.83240352871945" y2="38.15476850647502" stroke="#FFFFFF" stroke-width="0.5"/><line x1="359.6556047741498" y1="38.15476850647502" x2="370.08040491253104" y2="38.15476850647502" stroke="#FFFFFF" stroke-width="0.5"/><line x1="463.9036061579614" y1="38.15476850647502" x2="474.3284062963426" y2="38.15476850647502" stroke="#FFFFFF" stroke-width="0.5"/><line x1="99.03560131462098" y1="128.43353770485584" x2="109.46040145300212" y2="128.43353770485584" stroke="#FFFFFF" stroke-width="0.5"/><line x1="203.2836026984325" y1="128.43353770485584" x2="213.70840283681366" y2="128.43353770485584" stroke="#FFFFFF" stroke-width="0.5"/><line x1="307.53160408224403" y1="128.43353770485584" x2="317.95640422062525" y2="128.43353770485584" stroke="#FFFFFF" stroke-width="0.5"/><line x1="411.7796054660556" y1="128.43353770485584" x2="422.20440560443683" y2="128.43353770485584" stroke="#FFFFFF" stroke-width="0.5"/><line x1="46.9116006227152" y1="218.7123069032366" x2="57.33640076109636" y2="218.7123069032366" stroke="#FFFFFF" stroke-width="0.5"/><line x1="151.15960200652677" y1="218.7123069032366" x2="161.58440214490793" y2="218.7123069032366" stroke="#FFFFFF" stroke-width="0.5"/><line x1="255.4076033903383" y1="218.7123069032366" x2="265.83240352871945" y2="218.7123069032366" stroke="#FFFFFF" stroke-width="0.5"/><line x1="359.6556047741498" y1="218.7123069032366" x2="370.08040491253104" y2="218.7123069032366" stroke="#FFFFFF" stroke-width="0.5"/><line x1="463.9036061579614" y1="218.7123069032366" x2="474.3284062963426" y2="218.7123069032366" stroke="#FFFFFF" stroke-width="0.5"/><line x1="99.03560131462098" y1="308.9910761016174" x2="109.46040145300212" y2="308.9910761016174" stroke="#FFFFFF" stroke-width="0.5"/><line x1="203.2836026984325" y1="308.9910761016174" x2="213.70840283681366" y2="308.9910761016174" stroke="#FFFFFF" stroke-width="0.5"/><line x1="307.53160408224403" y1="308.9910761016174" x2="317.95640422062525" y2="308.9910761016174" stroke="#FFFFFF" stroke-width="0.5"/><line x1="411.7796054660556" y1="308.9910761016174" x2="422.20440560443683" y2="308.9910761016174" stroke="#FFFFFF" stroke-width="0.5"/><line x1="46.9116006227152" y1="399.2698452999983" x2="57.33640076109636" y2="399.2698452999983" stroke="#FFFFFF" stroke-width="0.5"/><line x1="151.15960200652677" y1="399.2698452999983" x2="161.58440214490793" y2="399.2698452999983" stroke="#FFFFFF" stroke-width="0.5"/><line x1="255.4076033903383" y1="399.2698452999983" x2="265.83240352871945" y2="399.2698452999983" stroke="#FFFFFF" stroke-width="0.5"/><line x1="359.6556047741498" y1="399.2698452999983" x2="370.08040491253104" y2="399.2698452999983" stroke="#FFFFFF" stroke-width="0.5"/><line x1="463.9036061579614" y1="399.2698452999983" x2="474.3284062963426" y2="399.2698452999983" stroke="#FFFFFF" stroke-width="0.5"/><line x1="99.03560131462098" y1="489.548614498379" x2="109.46040145300212" y2="489.548614498379" stroke="#FFFFFF" stroke-width="0.5"/><line x1="203.2836026984325" y1="489.548614498379" x2="213.70840283681366" y2="489.548614498379" stroke="#FFFFFF" stroke-width="0.5"/><line x1="307.53160408224403" y1="489.548614498379" x2="317.95640422062525" y2="489.548614498379" stroke="#FFFFFF" stroke-width="0.5"/><line x1="411.7796054660556" y1="489.548614498379" x2="422.20440560443683" y2="489.548614498379" stroke="#FFFFFF" stroke-width="0.5"/></g></svg>