<svg xmlns="http://www.w3.org/2000/svg" width="512" height="512" viewBox="0 0 512 512"><rect x="0" y="0" width="512" height="512" fill="#0D0D0D"/><g opacity="0.16567114447973258"><path d="M -59.16545108075532,-112.41435705343511 L -47.84463213224919,-86.49632572340913 L -21.512788576708587,-96.81811358480203 L -31.834576438101504,-70.48627002926145 L -5.916545108075532,-59.16545108075532 L -31.834576438101504,-47.84463213224919 L -21.512788576708587,-21.512788576708594 L -47.84463213224919,-31.834576438101504 L -59.16545108075532,-5.916545108075532 L -70.48627002926145,-31.834576438101504 L -96.81811358480203,-21.512788576708587 L -86.49632572340913,-47.844632132249174 L -112.41435705343511,-59.16545108075531 L -86.49632572340913,-70.48627002926145 L -96.81811358480206,-96.81811358480203 L -70.48627002926146,-86.49632572340913 Z" fill="none" stroke="#FFD700" stroke-width="1.6969870334477104" /><path d="M 59.16545108075532,-112.41435705343511 L 70.48627002926145,-86.49632572340913 L 96.81811358480205,-96.81811358480203 L 86.49632572340913,-70.48627002926145 L 112.41435705343511,-59.16545108075532 L 86.49632572340913,-47.84463213224919 L 96.81811358480205,-21.512788576708594 L 70.48627002926145,-31.834576438101504 L 59.16545108075532,-5.916545108075532 L 47.84463213224919,-31.834576438101504 L 21.512788576708594,-21.512788576708587 L 31.83457643810151,-47.844632132249174 L 5.916545108075532,-59.16545108075531 L 31.834576438101507,-70.48627002926145 L 21.51278857670858,-96.81811358480203 L 47.844632132249174,-86.49632572340913 Z" fill="none" stroke="#FFD700" stroke-width="1.6969870334477104" /><path d="M 177.49635324226597,-112.41435705343511 L 188.8171721907721,-86.49632572340913 L 215.1490157463127,-96.81811358480203 L 204.82722788491978,-70.48627002926145 L 230.74525921494575,-59.16545108075532 L 204.82722788491978,-47.84463213224919 L 215.1490157463127,-21.512788576708594 L 188.8171721907721,-31.834576438101504 L 177.49635324226597,-5.916545108075532 L 166.17553429375985,-31.834576438101504 L 139.84369073821924,-21.512788576708587 L 150.16547859961216,-47.844632132249174 L 124.24744726958619,-59.16545108075531 L 150.16547859961216,-70.48627002926145 L 139.84369073821924,-96.81811358480203 L 166.17553429375982,-86.49632572340913 Z" fill="none" stroke="#FFD700" stroke-width="1.6969870334477104" /><path d="M 295.82725540377663,-112.41435705343511 L 307.1480743522828,-86.49632572340913 L 333.4799179078234,-96.81811358480203 L 323.1581300464305,-70.48627002926145 L 349.0761613764564,-59.16545108075532 L 323.1581300464305,-47.84463213224919 L 333.4799179078234,-21.512788576708594 L 307.1480743522828,-31.834576438101504 L 295.82725540377663,-5.916545108075532 L 284.5064364552705,-31.834576438101504 L 258.17459289972993,-21.512788576708587 L 268.49638076112285,-47.844632132249174 L 242.57834943109685,-59.16545108075531 L 268.49638076112285,-70.48627002926145 L 258.1745928997299,-96.81811358480203 L 284.5064364552705,-86.49632572340913 Z" fill="none" stroke="#FFD700" stroke-width="1.6969870334477104" /><path d="M 414.15815756528724,-112.41435705343511 L 425.4789765137934,-86.49632572340913 L 451.810820069334,-96.81811358480203 L 441.4890322079411,-70.48627002926145 L 467.407063537967,-59.16545108075532 L 441.4890322079411,-47.84463213224919 L 451.810820069334,-21.512788576708594 L 425.4789765137934,-31.834576438101504 L 414.15815756528724,-5.916545108075532 L 402.8373386167811,-31.834576438101504 L 376.50549506124054,-21.512788576708587 L 386.82728292263346,-47.844632132249174 L 360.90925159260746,-59.16545108075531 L 386.82728292263346,-70.48627002926145 L 376.5054950612405,-96.81811358480203 L 402.8373386167811,-86.49632572340913 Z" fill="none" stroke="#FFD700" stroke-width="1.6969870334477104" /><path d="M 532.4890597267978,-112.41435705343511 L 543.8098786753039,-86.49632572340913 L 570.1417222308445,-96.81811358480203 L 559.8199343694516,-70.48627002926145 L 585.7379656994776,-59.16545108075532 L 559.8199343694516,-47.84463213224919 L 570.1417222308445,-21.512788576708594 L 543.8098786753039,-31.834576438101504 L 532.4890597267978,-5.916545108075532 L 521.1682407782916,-31.834576438101504 L 494.8363972227511,-21.512788576708587 L 505.158185084144,-47.844632132249174 L 479.240153754118,-59.16545108075531 L 505.15818508414395,-70.48627002926145 L 494.83639722275103,-96.81811358480203 L 521.1682407782916,-86.49632572340913 Z" fill="none" stroke="#FFD700" stroke-width="1.6969870334477104" /><path d="M 3.260555112877034e-15,-9.939795781566893 L 11.32081894850613,15.978235548459079 L 37.65266250404673,5.656447687066169 L 27.330874642653814,31.988291242606763 L 53.248905972679786,43.30911019111289 L 27.330874642653814,54.62992913961902 L 37.65266250404673,80.96177269515962 L 11.32081894850613,70.6399848337667 L 3.260555112877034e-15,96.55801616379267 L -11.320818948506126,70.6399848337667 L -37.652662504046724,80.96177269515962 L -27.330874642653807,54.62992913961904 L -53.248905972679786,43.3091101911129 L -27.33087464265381,31.988291242606756 L -37.65266250404674,5.656447687066169 L -11.320818948506144,15.978235548459086 Z" fill="none" stroke="#FFD700" stroke-width="1.6969870334477104" /><path d="M 118.33090216151064,-9.939795781566893 L 129.65172111001675,15.978235548459079 L 155.98356466555737,5.656447687066169 L 145.66177680416445,31.988291242606763 L 171.57980813419042,43.30911019111289 L 145.66177680416445,54.62992913961902 L 155.98356466555737,80.96177269515962 L 129.65172111001675,70.6399848337667 L 118.33090216151064,96.55801616379267 L 107.0100832130045,70.6399848337667 L 80.6782396574639,80.96177269515962 L 91.00002751885683,54.62992913961904 L 65.08199618883086,43.3091101911129 L 91.00002751885683,31.988291242606756 L 80.6782396574639,5.656447687066169 L 107.01008321300449,15.978235548459086 Z" fill="none" stroke="#FFD700" stroke-width="1.6969870334477104" /><path d="M 236.66180432302127,-9.939795781566893 L 247.98262327152742,15.978235548459079 L 274.31446682706803,5.656447687066169 L 263.9926789656751,31.988291242606763 L 289.91071029570105,43.30911019111289 L 263.9926789656751,54.62992913961902 L 274.31446682706803,80.96177269515962 L 247.98262327152742,70.6399848337667 L 236.66180432302127,96.55801616379267 L 225.34098537451516,70.6399848337667 L 199.00914181897454,80.96177269515962 L 209.33092968036746,54.62992913961904 L 183.4128983503415,43.3091101911129 L 209.33092968036746,31.988291242606756 L 199.00914181897454,5.656447687066169 L 225.34098537451513,15.978235548459086 Z" fill="none" stroke="#FFD700" stroke-width="1.6969870334477104" /><path d="M 354.99270648453194,-9.939795781566893 L 366.3135254330381,15.978235548459079 L 392.64536898857864,5.656447687066169 L 382.3235811271858,31.988291242606763 L 408.2416124572117,43.30911019111289 L 382.3235811271858,54.62992913961902 L 392.64536898857864,80.96177269515962 L 366.3135254330381,70.6399848337667 L 354.99270648453194,96.55801616379267 L 343.6718875360258,70.6399848337667 L 317.34004398048523,80.96177269515962 L 327.66183184187815,54.62992913961904 L 301.74380051185216,43.3091101911129 L 327.6618318418781,31.988291242606756 L 317.3400439804852,5.656447687066169 L 343.6718875360258,15.978235548459086 Z" fill="none" stroke="#FFD700" stroke-width="1.6969870334477104" /><path d="M 473.32360864604254,-9.939795781566893 L 484.6444275945487,15.978235548459079 L 510.97627115008925,5.656447687066169 L 500.6544832886964,31.988291242606763 L 526.5725146187224,43.30911019111289 L 500.6544832886964,54.62992913961902 L 510.97627115008925,80.96177269515962 L 484.6444275945487,70.6399848337667 L 473.32360864604254,96.55801616379267 L 462.0027896975364,70.6399848337667 L 435.67094614199584,80.96177269515962 L 445.99273400338876,54.62992913961904 L 420.07470267336276,43.3091101911129 L 445.9927340033887,31.988291242606756 L 435.6709461419958,5.656447687066169 L 462.0027896975364,15.978235548459086 Z" fill="none" stroke="#FFD700" stroke-width="1.6969870334477104" /><path d="M 591.6545108075532,-9.939795781566893 L 602.9753297560593,15.978235548459079 L 629.3071733115999,5.656447687066169 L 618.985385450207,31.988291242606763 L 644.903416780233,43.30911019111289 L 618.985385450207,54.62992913961902 L 629.3071733115999,80.96177269515962 L 602.9753297560593,70.6399848337667 L 591.6545108075532,96.55801616379267 L 580.333691859047,70.6399848337667 L 554.0018483035064,80.96177269515962 L 564.3236361648993,54.62992913961904 L 538.4056048348733,43.3091101911129 L 564.3236361648993,31.988291242606756 L 554.0018483035064,5.656447687066169 L 580.333691859047,15.978235548459086 Z" fill="none" stroke="#FFD700" stroke-width="1.6969870334477104" /><path d="M -59.16545108075532,92.53476549030131 L -47.84463213224919,118.45279682032728 L -21.512788576708587,108.13100895893436 L -31.834576438101504,134.46285251447497 L -5.916545108075532,145.7836714629811 L -31.834576438101504,157.1044904114872 L -21.512788576708587,183.43633396702782 L -47.84463213224919,173.1145461056349 L -59.16545108075532,199.03257743566087 L -70.48627002926145,173.1145461056349 L -96.81811358480203,183.43633396702782 L -86.49632572340913,157.10449041148723 L -112.41435705343511,145.7836714629811 L -86.49632572340913,134.46285251447495 L -96.81811358480206,108.13100895893436 L -70.48627002926146,118.45279682032728 Z" fill="none" stroke="#FFD700" stroke-width="1.6969870334477104" /><path d="M 59.16545108075532,92.53476549030131 L 70.48627002926145,118.45279682032728 L 96.81811358480205,108.13100895893436 L 86.49632572340913,134.46285251447497 L 112.41435705343511,145.7836714629811 L 86.49632572340913,157.1044904114872 L 96.81811358480205,183.43633396702782 L 70.48627002926145,173.1145461056349 L 59.16545108075532,199.03257743566087 L 47.84463213224919,173.1145461056349 L 21.512788576708594,183.43633396702782 L 31.83457643810151,157.10449041148723 L 5.916545108075532,145.7836714629811 L 31.834576438101507,134.46285251447495 L 21.51278857670858,108.13100895893436 L 47.844632132249174,118.45279682032728 Z" fill="none" stroke="#FFD700" stroke-width="1.6969870334477104" /><path d="M 177.49635324226597,92.53476549030131 L 188.8171721907721,118.45279682032728 L 215.1490157463127,108.13100895893436 L 204.82722788491978,134.46285251447497 L 230.74525921494575,145.7836714629811 L 204.82722788491978,157.1044904114872 L 215.1490157463127,183.43633396702782 L 188.8171721907721,173.1145461056349 L 177.49635324226597,199.03257743566087 L 166.17553429375985,173.1145461056349 L 139.84369073821924,183.43633396702782 L 150.16547859961216,157.10449041148723 L 124.24744726958619,145.7836714629811 L 150.16547859961216,134.46285251447495 L 139.84369073821924,108.13100895893436 L 166.17553429375982,118.45279682032728 Z" fill="none" stroke="#FFD700" stroke-width="1.6969870334477104" /><path d="M 295.82725540377663,92.53476549030131 L 307.1480743522828,118.45279682032728 L 333.4799179078234,108.13100895893436 L 323.1581300464305,134.46285251447497 L 349.0761613764564,145.7836714629811 L 323.1581300464305,157.1044904114872 L 333.4799179078234,183.43633396702782 L 307.1480743522828,173.1145461056349 L 295.82725540377663,199.03257743566087 L 284.5064364552705,173.1145461056349 L 258.17459289972993,183.43633396702782 L 268.49638076112285,157.10449041148723 L 242.57834943109685,145.7836714629811 L 268.49638076112285,134.46285251447495 L 258.1745928997299,108.13100895893436 L 284.5064364552705,118.45279682032728 Z" fill="none" stroke="#FFD700" stroke-width="1.6969870334477104" /><path d="M 414.15815756528724,92.53476549030131 L 425.4789765137934,118.45279682032728 L 451.810820069334,108.13100895893436 L 441.4890322079411,134.46285251447497 L 467.407063537967,145.7836714629811 L 441.4890322079411,157.1044904114872 L 451.810820069334,183.43633396702782 L 425.4789765137934,173.1145461056349 L 414.15815756528724,199.03257743566087 L 402.8373386167811,173.1145461056349 L 376.50549506124054,183.43633396702782 L 386.82728292263346,157.10449041148723 L 360.90925159260746,145.7836714629811 L 386.82728292263346,134.46285251447495 L 376.5054950612405,108.13100895893436 L 402.8373386167811,118.45279682032728 Z" fill="none" stroke="#FFD700" stroke-width="1.6969870334477104" /><path d="M 532.4890597267978,92.53476549030131 L 543.8098786753039,118.45279682032728 L 570.1417222308445,108.13100895893436 L 559.8199343694516,134.46285251447497 L 585.7379656994776,145.7836714629811 L 559.8199343694516,157.1044904114872 L 570.1417222308445,183.43633396702782 L 543.8098786753039,173.1145461056349 L 532.4890597267978,199.03257743566087 L 521.1682407782916,173.1145461056349 L 494.8363972227511,183.43633396702782 L 505.158185084144,157.10449041148723 L 479.240153754118,145.7836714629811 L 505.15818508414395,134.46285251447495 L 494.83639722275103,108.13100895893436 L 521.1682407782916,118.45279682032728 Z" fill="none" stroke="#FFD700" stroke-width="1.6969870334477104" /><path d="M 3.260555112877034e-15,195.00932676216956 L 11.32081894850613,220.92735809219553 L 37.65266250404673,210.6055702308026 L 27.330874642653814,236.93741378634323 L 53.248905972679786,248.25823273484934 L 27.330874642653814,259.5790516833555 L 37.65266250404673,285.91089523889605 L 11.32081894850613,275.5891073775032 L 3.260555112877034e-15,301.5071387075291 L -11.320818948506126,275.5891073775032 L -37.652662504046724,285.91089523889605 L -27.330874642653807,259.5790516833555 L -53.248905972679786,248.25823273484934 L -27.33087464265381,236.9374137863432 L -37.65266250404674,210.6055702308026 L -11.320818948506144,220.92735809219553 Z" fill="none" stroke="#FFD700" stroke-width="1.6969870334477104" /><path d="M 118.33090216151064,195.00932676216956 L 129.65172111001675,220.92735809219553 L 155.98356466555737,210.6055702308026 L 145.66177680416445,236.93741378634323 L 171.57980813419042,248.25823273484934 L 145.66177680416445,259.5790516833555 L 155.98356466555737,285.91089523889605 L 129.65172111001675,275.5891073775032 L 118.33090216151064,301.5071387075291 L 107.0100832130045,275.5891073775032 L 80.6782396574639,285.91089523889605 L 91.00002751885683,259.5790516833555 L 65.08199618883086,248.25823273484934 L 91.00002751885683,236.9374137863432 L 80.6782396574639,210.6055702308026 L 107.01008321300449,220.92735809219553 Z" fill="none" stroke="#FFD700" stroke-width="1.6969870334477104" /><path d="M 236.66180432302127,195.00932676216956 L 247.98262327152742,220.92735809219553 L 274.31446682706803,210.6055702308026 L 263.9926789656751,236.93741378634323 L 289.91071029570105,248.25823273484934 L 263.9926789656751,259.5790516833555 L 274.31446682706803,285.91089523889605 L 247.98262327152742,275.5891073775032 L 236.66180432302127,301.5071387075291 L 225.34098537451516,275.5891073775032 L 199.00914181897454,285.91089523889605 L 209.33092968036746,259.5790516833555 L 183.4128983503415,248.25823273484934 L 209.33092968036746,236.9374137863432 L 199.00914181897454,210.6055702308026 L 225.34098537451513,220.92735809219553 Z" fill="none" stroke="#FFD700" stroke-width="1.6969870334477104" /><path d="M 354.99270648453194,195.00932676216956 L 366.3135254330381,220.92735809219553 L 392.64536898857864,210.6055702308026 L 382.3235811271858,236.93741378634323 L 408.2416124572117,248.25823273484934 L 382.3235811271858,259.5790516833555 L 392.64536898857864,285.91089523889605 L 366.3135254330381,275.5891073775032 L 354.99270648453194,301.5071387075291 L 343.6718875360258,275.5891073775032 L 317.34004398048523,285.91089523889605 L 327.66183184187815,259.5790516833555 L 301.74380051185216,248.25823273484934 L 327.6618318418781,236.9374137863432 L 317.3400439804852,210.6055702308026 L 343.6718875360258,220.92735809219553 Z" fill="none" stroke="#FFD700" stroke-width="1.6969870334477104" /><path d="M 473.32360864604254,195.00932676216956 L 484.6444275945487,220.92735809219553 L 510.97627115008925,210.6055702308026 L 500.6544832886964,236.93741378634323 L 526.5725146187224,248.25823273484934 L 500.6544832886964,259.5790516833555 L 510.97627115008925,285.91089523889605 L 484.6444275945487,275.5891073775032 L 473.32360864604254,301.5071387075291 L 462.0027896975364,275.5891073775032 L 435.67094614199584,285.91089523889605 L 445.99273400338876,259.5790516833555 L 420.07470267336276,248.25823273484934 L 445.9927340033887,236.9374137863432 L 435.6709461419958,210.6055702308026 L 462.0027896975364,220.92735809219553 Z" fill="none" stroke="#FFD700" stroke-width="1.6969870334477104" /><path d="M 591.6545108075532,195.00932676216956 L 602.9753297560593,220.92735809219553 L 629.3071733115999,210.6055702308026 L 618.985385450207,236.93741378634323 L 644.903416780233,248.25823273484934 L 618.985385450207,259.5790516833555 L 629.3071733115999,285.91089523889605 L 602.9753297560593,275.5891073775032 L 591.6545108075532,301.5071387075291 L 580.333691859047,275.5891073775032 L 554.0018483035064,285.91089523889605 L 564.3236361648993,259.5790516833555 L 538.4056048348733,248.25823273484934 L 564.3236361648993,236.9374137863432 L 554.0018483035064,210.6055702308026 L 580.333691859047,220.92735809219553 Z" fill="none" stroke="#FFD700" stroke-width="1.6969870334477104" /><path d="M -59.16545108075532,297.48388803403776 L -47.84463213224919,323.4019193640637 L -21.512788576708587,313.08013150267084 L -31.834576438101504,339.4119750582114 L -5.916545108075532,350.73279400671754 L -31.834576438101504,362.0536129552237 L -21.512788576708587,388.38545651076424 L -47.84463213224919,378.0636686493714 L -59.16545108075532,403.9816999793973 L -70.48627002926145,378.0636686493714 L -96.81811358480203,388.38545651076424 L -86.49632572340913,362.0536129552237 L -112.41435705343511,350.73279400671754 L -86.49632572340913,339.4119750582114 L -96.81811358480206,313.08013150267084 L -70.48627002926146,323.40191936406376 Z" fill="none" stroke="#FFD700" stroke-width="1.6969870334477104" /><path d="M 59.16545108075532,297.48388803403776 L 70.48627002926145,323.4019193640637 L 96.81811358480205,313.08013150267084 L 86.49632572340913,339.4119750582114 L 112.41435705343511,350.73279400671754 L 86.49632572340913,362.0536129552237 L 96.81811358480205,388.38545651076424 L 70.48627002926145,378.0636686493714 L 59.16545108075532,403.9816999793973 L 47.84463213224919,378.0636686493714 L 21.512788576708594,388.38545651076424 L 31.83457643810151,362.0536129552237 L 5.916545108075532,350.73279400671754 L 31.834576438101507,339.4119750582114 L 21.51278857670858,313.08013150267084 L 47.844632132249174,323.40191936406376 Z" fill="none" stroke="#FFD700" stroke-width="1.6969870334477104" /><path d="M 177.49635324226597,297.48388803403776 L 188.8171721907721,323.4019193640637 L 215.1490157463127,313.08013150267084 L 204.82722788491978,339.4119750582114 L 230.74525921494575,350.73279400671754 L 204.82722788491978,362.0536129552237 L 215.1490157463127,388.38545651076424 L 188.8171721907721,378.0636686493714 L 177.49635324226597,403.9816999793973 L 166.17553429375985,378.0636686493714 L 139.84369073821924,388.38545651076424 L 150.16547859961216,362.0536129552237 L 124.24744726958619,350.73279400671754 L 150.16547859961216,339.4119750582114 L 139.84369073821924,313.08013150267084 L 166.17553429375982,323.40191936406376 Z" fill="none" stroke="#FFD700" stroke-width="1.6969870334477104" /><path d="M 295.82725540377663,297.48388803403776 L 307.1480743522828,323.4019193640637 L 333.4799179078234,313.08013150267084 L 323.1581300464305,339.4119750582114 L 349.0761613764564,350.73279400671754 L 323.1581300464305,362.0536129552237 L 333.4799179078234,388.38545651076424 L 307.1480743522828,378.0636686493714 L 295.82725540377663,403.9816999793973 L 284.5064364552705,378.0636686493714 L 258.17459289972993,388.38545651076424 L 268.49638076112285,362.0536129552237 L 242.57834943109685,350.73279400671754 L 268.49638076112285,339.4119750582114 L 258.1745928997299,313.08013150267084 L 284.5064364552705,323.40191936406376 Z" fill="none" stroke="#FFD700" stroke-width="1.6969870334477104" /><path d="M 414.15815756528724,297.48388803403776 L 425.4789765137934,323.4019193640637 L 451.810820069334,313.08013150267084 L 441.4890322079411,339.4119750582114 L 467.407063537967,350.73279400671754 L 441.4890322079411,362.0536129552237 L 451.810820069334,388.38545651076424 L 425.4789765137934,378.0636686493714 L 414.15815756528724,403.9816999793973 L 402.8373386167811,378.0636686493714 L 376.50549506124054,388.38545651076424 L 386.82728292263346,362.0536129552237 L 360.90925159260746,350.73279400671754 L 386.82728292263346,339.4119750582114 L 376.5054950612405,313.08013150267084 L 402.8373386167811,323.40191936406376 Z" fill="none" stroke="#FFD700" stroke-width="1.6969870334477104" /><path d="M 532.4890597267978,297.48388803403776 L 543.8098786753039,323.4019193640637 L 570.1417222308445,313.08013150267084 L 559.8199343694516,339.4119750582114 L 585.7379656994776,350.73279400671754 L 559.8199343694516,362.0536129552237 L 570.1417222308445,388.38545651076424 L 543.8098786753039,378.0636686493714 L 532.4890597267978,403.9816999793973 L 521.1682407782916,378.0636686493714 L 494.8363972227511,388.38545651076424 L 505.158185084144,362.0536129552237 L 479.240153754118,350.73279400671754 L 505.15818508414395,339.4119750582114 L 494.83639722275103,313.08013150267084 L 521.1682407782916,323.40191936406376 Z" fill="none" stroke="#FFD700" stroke-width="1.6969870334477104" /><path d="M 3.260555112877034e-15,399.9584493059059 L 11.32081894850613,425.87648063593184 L 37.65266250404673,415.554692774539 L 27.330874642653814,441.88653633007954 L 53.248905972679786,453.2073552785857 L 27.330874642653814,464.5281742270918 L 37.65266250404673,490.8600177826324 L 11.32081894850613,480.5382299212395 L 3.260555112877034e-15,506.45626125126546 L -11.320818948506126,480.5382299212395 L -37.652662504046724,490.86001778263244 L -27.330874642653807,464.5281742270918 L -53.248905972679786,453.2073552785857 L -27.33087464265381,441.88653633007954 L -37.65266250404674,415.554692774539 L -11.320818948506144,425.8764806359319 Z" fill="none" stroke="#FFD700" stroke-width="1.6969870334477104" /><path d="M 118.33090216151064,399.9584493059059 L 129.65172111001675,425.87648063593184 L 155.98356466555737,415.554692774539 L 145.66177680416445,441.88653633007954 L 171.57980813419042,453.2073552785857 L 145.66177680416445,464.5281742270918 L 155.98356466555737,490.8600177826324 L 129.65172111001675,480.5382299212395 L 118.33090216151064,506.45626125126546 L 107.0100832130045,480.5382299212395 L 80.6782396574639,490.86001778263244 L 91.00002751885683,464.5281742270918 L 65.08199618883086,453.2073552785857 L 91.00002751885683,441.88653633007954 L 80.6782396574639,415.554692774539 L 107.01008321300449,425.8764806359319 Z" fill="none" stroke="#FFD700" stroke-width="1.6969870334477104" /><path d="M 236.66180432302127,399.9584493059059 L 247.98262327152742,425.87648063593184 L 274.31446682706803,415.554692774539 L 263.9926789656751,441.88653633007954 L 289.91071029570105,453.2073552785857 L 263.9926789656751,464.5281742270918 L 274.31446682706803,490.8600177826324 L 247.98262327152742,480.5382299212395 L 236.66180432302127,506.45626125126546 L 225.34098537451516,480.5382299212395 L 199.00914181897454,490.86001778263244 L 209.33092968036746,464.5281742270918 L 183.4128983503415,453.2073552785857 L 209.33092968036746,441.88653633007954 L 199.00914181897454,415.554692774539 L 225.34098537451513,425.8764806359319 Z" fill="none" stroke="#FFD700" stroke-width="1.6969870334477104" /><path d="M 354.99270648453194,399.9584493059059 L 366.3135254330381,425.87648063593184 L 392.64536898857864,415.554692774539 L 382.3235811271858,441.88653633007954 L 408.2416124572117,453.2073552785857 L 382.3235811271858,464.5281742270918 L 392.64536898857864,490.8600177826324 L 366.3135254330381,480.5382299212395 L 354.99270648453194,506.45626125126546 L 343.6718875360258,480.5382299212395 L 317.34004398048523,490.86001778263244 L 327.66183184187815,464.5281742270918 L 301.74380051185216,453.2073552785857 L 327.6618318418781,441.88653633007954 L 317.3400439804852,415.554692774539 L 343.6718875360258,425.8764806359319 Z" fill="none" stroke="#FFD700" stroke-width="1.6969870334477104" /><path d="M 473.32360864604254,399.9584493059059 L 484.6444275945487,425.87648063593184 L 510.97627115008925,415.554692774539 L 500.6544832886964,441.88653633007954 L 526.5725146187224,453.2073552785857 L 500.6544832886964,464.5281742270918 L 510.97627115008925,490.8600177826324 L 484.6444275945487,480.5382299212395 L 473.32360864604254,506.45626125126546 L 462.0027896975364,480.5382299212395 L 435.67094614199584,490.86001778263244 L 445.99273400338876,464.5281742270918 L 420.07470267336276,453.2073552785857 L 445.9927340033887,441.88653633007954 L 435.6709461419958,415.554692774539 L 462.0027896975364,425.8764806359319 Z" fill="none" stroke="#FFD700" stroke-width="1.6969870334477104" /><path d="M 591.6545108075532,399.9584493059059 L 602.9753297560593,425.87648063593184 L 629.3071733115999,415.554692774539 L 618.985385450207,441.88653633007954 L 644.903416780233,453.2073552785857 L 618.985385450207,464.5281742270918 L 629.3071733115999,490.8600177826324 L 602.9753297560593,480.5382299212395 L 591.6545108075532,506.45626125126546 L 580.333691859047,480.5382299212395 L 554.0018483035064,490.86001778263244 L 564.3236361648993,464.5281742270918 L 538.4056048348733,453.2073552785857 L 564.3236361648993,441.88653633007954 L 554.0018483035064,415.554692774539 L 580.333691859047,425.8764806359319 Z" fill="none" stroke="#FFD700" stroke-width="1.6969870334477104" /><path d="M -59.16545108075532,502.43301057777416 L -47.84463213224919,528.3510419078001 L -21.512788576708587,518.0292540464072 L -31.834576438101504,544.3610976019478 L -5.916545108075532,555.6819165504539 L -31.834576438101504,567.0027354989601 L -21.512788576708587,593.3345790545006 L -47.84463213224919,583.0127911931078 L -59.16545108075532,608.9308225231338 L -70.48627002926145,583.0127911931078 L -96.81811358480203,593.3345790545006 L -86.49632572340913,567.0027354989601 L -112.41435705343511,555.6819165504539 L -86.49632572340913,544.3610976019478 L -96.81811358480206,518.0292540464072 L -70.48627002926146,528.3510419078001 Z" fill="none" stroke="#FFD700" stroke-width="1.6969870334477104" /><path d="M 59.16545108075532,502.43301057777416 L 70.48627002926145,528.3510419078001 L 96.81811358480205,518.0292540464072 L 86.49632572340913,544.3610976019478 L 112.41435705343511,555.6819165504539 L 86.49632572340913,567.0027354989601 L 96.81811358480205,593.3345790545006 L 70.48627002926145,583.0127911931078 L 59.16545108075532,608.9308225231338 L 47.84463213224919,583.0127911931078 L 21.512788576708594,593.3345790545006 L 31.83457643810151,567.0027354989601 L 5.916545108075532,555.6819165504539 L 31.834576438101507,544.3610976019478 L 21.51278857670858,518.0292540464072 L 47.844632132249174,528.3510419078001 Z" fill="none" stroke="#FFD700" stroke-width="1.6969870334477104" /><path d="M 177.49635324226597,502.43301057777416 L 188.8171721907721,528.3510419078001 L 215.1490157463127,518.0292540464072 L 204.82722788491978,544.3610976019478 L 230.74525921494575,555.6819165504539 L 204.82722788491978,567.0027354989601 L 215.1490157463127,593.3345790545006 L 188.8171721907721,583.0127911931078 L 177.49635324226597,608.9308225231338 L 166.17553429375985,583.0127911931078 L 139.84369073821924,593.3345790545006 L 150.16547859961216,567.0027354989601 L 124.24744726958619,555.6819165504539 L 150.16547859961216,544.3610976019478 L 139.84369073821924,518.0292540464072 L 166.17553429375982,528.3510419078001 Z" fill="none" stroke="#FFD700" stroke-width="1.6969870334477104" /><path d="M 295.82725540377663,502.43301057777416 L 307.1480743522828,528.3510419078001 L 333.4799179078234,518.0292540464072 L 323.1581300464305,544.3610976019478 L 349.0761613764564,555.6819165504539 L 323.1581300464305,567.0027354989601 L 333.4799179078234,593.3345790545006 L 307.1480743522828,583.0127911931078 L 295.82725540377663,608.9308225231338 L 284.5064364552705,583.0127911931078 L 258.17459289972993,593.3345790545006 L 268.49638076112285,567.0027354989601 L 242.57834943109685,555.6819165504539 L 268.49638076112285,544.3610976019478 L 258.1745928997299,518.0292540464072 L 284.5064364552705,528.3510419078001 Z" fill="none" stroke="#FFD700" stroke-width="1.6969870334477104" /><path d="M 414.15815756528724,502.43301057777416 L 425.4789765137934,528.3510419078001 L 451.810820069334,518.0292540464072 L 441.4890322079411,544.3610976019478 L 467.407063537967,555.6819165504539 L 441.4890322079411,567.0027354989601 L 451.810820069334,593.3345790545006 L 425.4789765137934,583.0127911931078 L 414.15815756528724,608.9308225231338 L 402.8373386167811,583.0127911931078 L 376.50549506124054,593.3345790545006 L 386.82728292263346,567.0027354989601 L 360.90925159260746,555.6819165504539 L 386.82728292263346,544.3610976019478 L 376.5054950612405,518.0292540464072 L 402.8373386167811,528.3510419078001 Z" fill="none" stroke="#FFD700" stroke-width="1.6969870334477104" /><path d="M 532.4890597267978,502.43301057777416 L 543.8098786753039,528.3510419078001 L 570.1417222308445,518.0292540464072 L 559.8199343694516,544.3610976019478 L 585.7379656994776,555.6819165504539 L 559.8199343694516,567.0027354989601 L 570.1417222308445,593.3345790545006 L 543.8098786753039,583.0127911931078 L 532.4890597267978,608.9308225231338 L 521.1682407782916,583.0127911931078 L 494.8363972227511,593.3345790545006 L 505.158185084144,567.0027354989601 L 479.240153754118,555.6819165504539 L 505.15818508414395,544.3610976019478 L 494.83639722275103,518.0292540464072 L 521.1682407782916,528.3510419078001 Z" fill="none" stroke="#FFD700" stroke-width="1.6969870334477104" /><line x1="53.248905972679786" y1="43.30911019111289" x2="65.08199618883086" y2="43.30911019111289" stroke="#FFD700" stroke-width="0.5"/><line x1="171.57980813419042" y1="43.30911019111289" x2="183.4128983503415" y2="43.30911019111289" stroke="#FFD700" stroke-width="0.5"/><line x1="289.91071029570105" y1="43.30911019111289" x2="301.74380051185216" y2="43.30911019111289" stroke="#FFD700" stroke-width="0.5"/><line x1="408.2416124572117" y1="43.30911019111289" x2="420.07470267336276" y2="43.30911019111289" stroke="#FFD700" stroke-width="0.5"/><line x1="112.41435705343511" y1="145.7836714629811" x2="124.24744726958619" y2="145.7836714629811" stroke="#FFD700" stroke-width="0.5"/><line x1="230.74525921494575" y1="145.7836714629811" x2="242.57834943109685" y2="145.7836714629811" stroke="#FFD700" stroke-width="0.5"/><line x1="349.0761613764564" y1="145.7836714629811" x2="360.90925159260746" y2="145.7836714629811" stroke="#FFD700" stroke-width="0.5"/><line x1="467.407063537967" y1="145.7836714629811" x2="479.240153754118" y2="145.7836714629811" stroke="#FFD700" stroke-width="0.5"/><line x1="53.248905972679786" y1="248.25823273484934" x2="65.08199618883086" y2="248.25823273484934" stroke="#FFD700" stroke-width="0.5"/><line x1="171.57980813419042" y1="248.25823273484934" x2="183.4128983503415" y2="248.25823273484934" stroke="#FFD700" stroke-width="0.5"/><line x1="289.91071029570105" y1="248.25823273484934" x2="301.74380051185216" y2="248.25823273484934" stroke="#FFD700" stroke-width="0.5"/><line x1="408.2416124572117" y1="248.25823273484934" x2="420.07470267336276" y2="248.25823273484934" stroke="#FFD700" stroke-width="0.5"/><line x1="112.41435705343511" y1="350.73279400671754" x2="124.24744726958619" y2="350.73279400671754" stroke="#FFD700" stroke-width="0.5"/><line x1="230.74525921494575" y1="350.73279400671754" x2="242.57834943109685" y2="350.73279400671754" stroke="#FFD700" stroke-width="0.5"/><line x1="349.0761613764564" y1="350.73279400671754" x2="360.90925159260746" y2="350.73279400671754" stroke="#FFD700" stroke-width="0.5"/><line x1="467.407063537967" y1="350.73279400671754" x2="479.240153754118" y2="350.73279400671754" stroke="#FFD700" stroke-width="0.5"/><line x1="53.248905972679786" y1="453.2073552785857" x2="65.08199618883086" y2="453.2073552785857" stroke="#FFD700" stroke-width="0.5"/><line x1="171.57980813419042" y1="453.2073552785857" x2="183.4128983503415" y2="453.2073552785857" stroke="#FFD700" stroke-width="0.5"/><line x1="289.91071029570105" y1="453.2073552785857" x2="301.74380051185216" y2="453.2073552785857" stroke="#FFD700" stroke-width="0.5"/><line x1="408.2416124572117" y1="453.2073552785857" x2="420.07470267336276" y2="453.2073552785857" stroke="#FFD700" stroke-width="0.5"/></g></svg>