<svg xmlns="http://www.w3.org/2000/svg" width="512" height="512" viewBox="0 0 512 512"><rect x="0" y="0" width="512" height="512" fill="#0D0D0D"/><g opacity="0.13760431263949924"><path d="M -75.96874791888533,-144.34062104588213 L -61.43275731584667,-111.0617335752691 L -27.622532788359607,-124.31496304941103 L -40.875762262501546,-90.50473852192398 L -7.596874791888524,-75.96874791888533 L -40.875762262501546,-61.43275731584667 L -27.622532788359607,-27.622532788359614 L -61.43275731584667,-40.875762262501546 L -75.96874791888533,-7.596874791888524 L -90.50473852192398,-40.875762262501546 L -124.31496304941103,-27.622532788359607 L -111.0617335752691,-61.43275731584666 L -144.34062104588213,-75.96874791888531 L -111.0617335752691,-90.504738521924 L -124.31496304941106,-124.31496304941103 L -90.504738521924,-111.0617335752691 Z" fill="none" stroke="#FFD700" stroke-width="1.450506329979052" /><path d="M 75.96874791888533,-144.34062104588213 L 90.50473852192398,-111.0617335752691 L 124.31496304941105,-124.31496304941103 L 111.0617335752691,-90.50473852192398 L 144.34062104588213,-75.96874791888533 L 111.0617335752691,-61.43275731584667 L 124.31496304941105,-27.622532788359614 L 90.50473852192398,-40.875762262501546 L 75.96874791888533,-7.596874791888524 L 61.43275731584667,-40.875762262501546 L 27.622532788359614,-27.622532788359607 L 40.87576226250155,-61.43275731584666 L 7.596874791888524,-75.96874791888531 L 40.87576226250155,-90.504738521924 L 27.6225327883596,-124.31496304941103 L 61.43275731584665,-111.0617335752691 Z" fill="none" stroke="#FFD700" stroke-width="1.450506329979052" /><path d="M 227.90624375665598,-144.34062104588213 L 242.44223435969462,-111.0617335752691 L 276.2524588871817,-124.31496304941103 L 262.99922941303976,-90.50473852192398 L 296.2781168836528,-75.96874791888533 L 262.99922941303976,-61.43275731584667 L 276.2524588871817,-27.622532788359614 L 242.44223435969462,-40.875762262501546 L 227.90624375665598,-7.596874791888524 L 213.37025315361734,-40.875762262501546 L 179.56002862613028,-27.622532788359607 L 192.8132581002722,-61.43275731584666 L 159.53437062965918,-75.96874791888531 L 192.8132581002722,-90.504738521924 L 179.56002862613025,-124.31496304941103 L 213.3702531536173,-111.0617335752691 Z" fill="none" stroke="#FFD700" stroke-width="1.450506329979052" /><path d="M 379.84373959442667,-144.34062104588213 L 394.37973019746534,-111.0617335752691 L 428.1899547249524,-124.31496304941103 L 414.93672525081047,-90.50473852192398 L 448.21561272142344,-75.96874791888533 L 414.93672525081047,-61.43275731584667 L 428.1899547249524,-27.622532788359614 L 394.37973019746534,-40.875762262501546 L 379.84373959442667,-7.596874791888524 L 365.307748991388,-40.875762262501546 L 331.49752446390096,-27.622532788359607 L 344.75075393804286,-61.43275731584666 L 311.4718664674299,-75.96874791888531 L 344.75075393804286,-90.504738521924 L 331.49752446390096,-124.31496304941103 L 365.307748991388,-111.0617335752691 Z" fill="none" stroke="#FFD700" stroke-width="1.450506329979052" /><path d="M 531.7812354321973,-144.34062104588213 L 546.3172260352359,-111.0617335752691 L 580.127450562723,-124.31496304941103 L 566.8742210885811,-90.50473852192398 L 600.153108559194,-75.96874791888533 L 566.8742210885811,-61.43275731584667 L 580.127450562723,-27.622532788359614 L 546.3172260352359,-40.875762262501546 L 531.7812354321973,-7.596874791888524 L 517.2452448291587,-40.875762262501546 L 483.43502030167156,-27.622532788359607 L 496.68824977581346,-61.43275731584666 L 463.4093623052005,-75.96874791888531 L 496.68824977581346,-90.504738521924 L 483.43502030167156,-124.31496304941103 L 517.2452448291585,-111.0617335752691 Z" fill="none" stroke="#FFD700" stroke-width="1.450506329979052" /><path d="M 4.186569778834279e-15,-12.76274965037274 L 14.535990603038655,20.51613782024028 L 48.34621513052572,7.2629083460983495 L 35.09298565638378,41.07313287358541 L 68.3718731269968,55.60912347662406 L 35.09298565638378,70.14511407966272 L 48.34621513052572,103.95533860714977 L 14.535990603038655,90.70210913300784 L 4.186569778834279e-15,123.98099660362087 L -14.535990603038652,90.70210913300784 L -48.346215130525714,103.95533860714978 L -35.092985656383775,70.14511407966273 L -68.3718731269968,55.60912347662407 L -35.092985656383775,41.0731328735854 L -48.34621513052573,7.2629083460983495 L -14.535990603038675,20.51613782024029 Z" fill="none" stroke="#FFD700" stroke-width="1.450506329979052" /><path d="M 151.93749583777065,-12.76274965037274 L 166.47348644080932,20.51613782024028 L 200.28371096829636,7.2629083460983495 L 187.03048149415443,41.07313287358541 L 220.30936896476746,55.60912347662406 L 187.03048149415443,70.14511407966272 L 200.28371096829636,103.95533860714977 L 166.47348644080932,90.70210913300784 L 151.93749583777065,123.98099660362087 L 137.401505234732,90.70210913300784 L 103.59128070724495,103.95533860714978 L 116.84451018138688,70.14511407966273 L 83.56562271077385,55.60912347662407 L 116.84451018138688,41.0731328735854 L 103.59128070724492,7.2629083460983495 L 137.40150523473199,20.51613782024029 Z" fill="none" stroke="#FFD700" stroke-width="1.450506329979052" /><path d="M 303.8749916755413,-12.76274965037274 L 318.41098227858,20.51613782024028 L 352.221206806067,7.2629083460983495 L 338.9679773319251,41.07313287358541 L 372.2468648025381,55.60912347662406 L 338.9679773319251,70.14511407966272 L 352.221206806067,103.95533860714977 L 318.41098227858,90.70210913300784 L 303.8749916755413,123.98099660362087 L 289.33900107250264,90.70210913300784 L 255.5287765450156,103.95533860714978 L 268.7820060191575,70.14511407966273 L 235.5031185485445,55.60912347662407 L 268.7820060191575,41.0731328735854 L 255.52877654501557,7.2629083460983495 L 289.33900107250264,20.51613782024029 Z" fill="none" stroke="#FFD700" stroke-width="1.450506329979052" /><path d="M 455.812487513312,-12.76274965037274 L 470.3484781163507,20.51613782024028 L 504.1587026438377,7.2629083460983495 L 490.9054731696958,41.07313287358541 L 524.1843606403088,55.60912347662406 L 490.9054731696958,70.14511407966272 L 504.1587026438377,103.95533860714977 L 470.3484781163507,90.70210913300784 L 455.812487513312,123.98099660362087 L 441.27649691027335,90.70210913300784 L 407.4662723827863,103.95533860714978 L 420.7195018569282,70.14511407966273 L 387.44061438631525,55.60912347662407 L 420.7195018569282,41.0731328735854 L 407.4662723827863,7.2629083460983495 L 441.27649691027335,20.51613782024029 Z" fill="none" stroke="#FFD700" stroke-width="1.450506329979052" /><path d="M 607.7499833510826,-12.76274965037274 L 622.2859739541212,20.51613782024028 L 656.0961984816083,7.2629083460983495 L 642.8429690074664,41.07313287358541 L 676.1218564780794,55.60912347662406 L 642.8429690074664,70.14511407966272 L 656.0961984816083,103.95533860714977 L 622.2859739541212,90.70210913300784 L 607.7499833510826,123.98099660362087 L 593.213992748044,90.70210913300784 L 559.4037682205569,103.95533860714978 L 572.6569976946988,70.14511407966273 L 539.3781102240858,55.60912347662407 L 572.6569976946988,41.0731328735854 L 559.4037682205569,7.2629083460983495 L 593.2139927480439,20.51613782024029 Z" fill="none" stroke="#FFD700" stroke-width="1.450506329979052" /><path d="M -75.96874791888533,118.81512174513665 L -61.43275731584667,152.09400921574968 L -27.622532788359607,138.84077974160775 L -40.875762262501546,172.6510042690948 L -7.596874791888524,187.18699487213345 L -40.875762262501546,201.7229854751721 L -27.622532788359607,235.53321000265916 L -61.43275731584667,222.27998052851723 L -75.96874791888533,255.55886799913026 L -90.50473852192398,222.27998052851723 L -124.31496304941103,235.5332100026592 L -111.0617335752691,201.72298547517212 L -144.34062104588213,187.18699487213345 L -111.0617335752691,172.65100426909478 L -124.31496304941106,138.84077974160775 L -90.504738521924,152.09400921574968 Z" fill="none" stroke="#FFD700" stroke-width="1.450506329979052" /><path d="M 75.96874791888533,118.81512174513665 L 90.50473852192398,152.09400921574968 L 124.31496304941105,138.84077974160775 L 111.0617335752691,172.6510042690948 L 144.34062104588213,187.18699487213345 L 111.0617335752691,201.7229854751721 L 124.31496304941105,235.53321000265916 L 90.50473852192398,222.27998052851723 L 75.96874791888533,255.55886799913026 L 61.43275731584667,222.27998052851723 L 27.622532788359614,235.5332100026592 L 40.87576226250155,201.72298547517212 L 7.596874791888524,187.18699487213345 L 40.87576226250155,172.65100426909478 L 27.6225327883596,138.84077974160775 L 61.43275731584665,152.09400921574968 Z" fill="none" stroke="#FFD700" stroke-width="1.450506329979052" /><path d="M 227.90624375665598,118.81512174513665 L 242.44223435969462,152.09400921574968 L 276.2524588871817,138.84077974160775 L 262.99922941303976,172.6510042690948 L 296.2781168836528,187.18699487213345 L 262.99922941303976,201.7229854751721 L 276.2524588871817,235.53321000265916 L 242.44223435969462,222.27998052851723 L 227.90624375665598,255.55886799913026 L 213.37025315361734,222.27998052851723 L 179.56002862613028,235.5332100026592 L 192.8132581002722,201.72298547517212 L 159.53437062965918,187.18699487213345 L 192.8132581002722,172.65100426909478 L 179.56002862613025,138.84077974160775 L 213.3702531536173,152.09400921574968 Z" fill="none" stroke="#FFD700" stroke-width="1.450506329979052" /><path d="M 379.84373959442667,118.81512174513665 L 394.37973019746534,152.09400921574968 L 428.1899547249524,138.84077974160775 L 414.93672525081047,172.6510042690948 L 448.21561272142344,187.18699487213345 L 414.93672525081047,201.7229854751721 L 428.1899547249524,235.53321000265916 L 394.37973019746534,222.27998052851723 L 379.84373959442667,255.55886799913026 L 365.307748991388,222.27998052851723 L 331.49752446390096,235.5332100026592 L 344.75075393804286,201.72298547517212 L 311.4718664674299,187.18699487213345 L 344.75075393804286,172.65100426909478 L 331.49752446390096,138.84077974160775 L 365.307748991388,152.09400921574968 Z" fill="none" stroke="#FFD700" stroke-width="1.450506329979052" /><path d="M 531.7812354321973,118.81512174513665 L 546.3172260352359,152.09400921574968 L 580.127450562723,138.84077974160775 L 566.8742210885811,172.6510042690948 L 600.153108559194,187.18699487213345 L 566.8742210885811,201.7229854751721 L 580.127450562723,235.53321000265916 L 546.3172260352359,222.27998052851723 L 531.7812354321973,255.55886799913026 L 517.2452448291587,222.27998052851723 L 483.43502030167156,235.5332100026592 L 496.68824977581346,201.72298547517212 L 463.4093623052005,187.18699487213345 L 496.68824977581346,172.65100426909478 L 483.43502030167156,138.84077974160775 L 517.2452448291585,152.09400921574968 Z" fill="none" stroke="#FFD700" stroke-width="1.450506329979052" /><path d="M 4.186569778834279e-15,250.39299314064598 L 14.535990603038655,283.671880611259 L 48.34621513052572,270.4186511371171 L 35.09298565638378,304.2288756646041 L 68.3718731269968,318.7648662676428 L 35.09298565638378,333.30085687068146 L 48.34621513052572,367.1110813981685 L 14.535990603038655,353.8578519240266 L 4.186569778834279e-15,387.13673939463956 L -14.535990603038652,353.8578519240266 L -48.346215130525714,367.1110813981685 L -35.092985656383775,333.30085687068146 L -68.3718731269968,318.7648662676428 L -35.092985656383775,304.2288756646041 L -48.34621513052573,270.4186511371171 L -14.535990603038675,283.671880611259 Z" fill="none" stroke="#FFD700" stroke-width="1.450506329979052" /><path d="M 151.93749583777065,250.39299314064598 L 166.47348644080932,283.671880611259 L 200.28371096829636,270.4186511371171 L 187.03048149415443,304.2288756646041 L 220.30936896476746,318.7648662676428 L 187.03048149415443,333.30085687068146 L 200.28371096829636,367.1110813981685 L 166.47348644080932,353.8578519240266 L 151.93749583777065,387.13673939463956 L 137.401505234732,353.8578519240266 L 103.59128070724495,367.1110813981685 L 116.84451018138688,333.30085687068146 L 83.56562271077385,318.7648662676428 L 116.84451018138688,304.2288756646041 L 103.59128070724492,270.4186511371171 L 137.40150523473199,283.671880611259 Z" fill="none" stroke="#FFD700" stroke-width="1.450506329979052" /><path d="M 303.8749916755413,250.39299314064598 L 318.41098227858,283.671880611259 L 352.221206806067,270.4186511371171 L 338.9679773319251,304.2288756646041 L 372.2468648025381,318.7648662676428 L 338.9679773319251,333.30085687068146 L 352.221206806067,367.1110813981685 L 318.41098227858,353.8578519240266 L 303.8749916755413,387.13673939463956 L 289.33900107250264,353.8578519240266 L 255.5287765450156,367.1110813981685 L 268.7820060191575,333.30085687068146 L 235.5031185485445,318.7648662676428 L 268.7820060191575,304.2288756646041 L 255.52877654501557,270.4186511371171 L 289.33900107250264,283.671880611259 Z" fill="none" stroke="#FFD700" stroke-width="1.450506329979052" /><path d="M 455.812487513312,250.39299314064598 L 470.3484781163507,283.671880611259 L 504.1587026438377,270.4186511371171 L 490.9054731696958,304.2288756646041 L 524.1843606403088,318.7648662676428 L 490.9054731696958,333.30085687068146 L 504.1587026438377,367.1110813981685 L 470.3484781163507,353.8578519240266 L 455.812487513312,387.13673939463956 L 441.27649691027335,353.8578519240266 L 407.4662723827863,367.1110813981685 L 420.7195018569282,333.30085687068146 L 387.44061438631525,318.7648662676428 L 420.7195018569282,304.2288756646041 L 407.4662723827863,270.4186511371171 L 441.27649691027335,283.671880611259 Z" fill="none" stroke="#FFD700" stroke-width="1.450506329979052" /><path d="M 607.7499833510826,250.39299314064598 L 622.2859739541212,283.671880611259 L 656.0961984816083,270.4186511371171 L 642.8429690074664,304.2288756646041 L 676.1218564780794,318.7648662676428 L 642.8429690074664,333.30085687068146 L 656.0961984816083,367.1110813981685 L 622.2859739541212,353.8578519240266 L 607.7499833510826,387.13673939463956 L 593.213992748044,353.8578519240266 L 559.4037682205569,367.1110813981685 L 572.6569976946988,333.30085687068146 L 539.3781102240858,318.7648662676428 L 572.6569976946988,304.2288756646041 L 559.4037682205569,270.4186511371171 L 593.2139927480439,283.671880611259 Z" fill="none" stroke="#FFD700" stroke-width="1.450506329979052" /><path d="M -75.96874791888533,381.97086453615543 L -61.43275731584667,415.2497520067684 L -27.622532788359607,401.9965225326265 L -40.875762262501546,435.80674706011354 L -7.596874791888524,450.3427376631522 L -40.875762262501546,464.8787282661909 L -27.622532788359607,498.6889527936779 L -61.43275731584667,485.435723319536 L -75.96874791888533,518.714610790149 L -90.50473852192398,485.435723319536 L -124.31496304941103,498.6889527936779 L -111.0617335752691,464.8787282661909 L -144.34062104588213,450.3427376631522 L -111.0617335752691,435.80674706011354 L -124.31496304941106,401.9965225326265 L -90.504738521924,415.2497520067684 Z" fill="none" stroke="#FFD700" stroke-width="1.450506329979052" /><path d="M 75.96874791888533,381.97086453615543 L 90.50473852192398,415.2497520067684 L 124.31496304941105,401.9965225326265 L 111.0617335752691,435.80674706011354 L 144.34062104588213,450.3427376631522 L 111.0617335752691,464.8787282661909 L 124.31496304941105,498.6889527936779 L 90.50473852192398,485.435723319536 L 75.96874791888533,518.714610790149 L 61.43275731584667,485.435723319536 L 27.622532788359614,498.6889527936779 L 40.87576226250155,464.8787282661909 L 7.596874791888524,450.3427376631522 L 40.87576226250155,435.80674706011354 L 27.6225327883596,401.9965225326265 L 61.43275731584665,415.2497520067684 Z" fill="none" stroke="#FFD700" stroke-width="1.450506329979052" /><path d="M 227.90624375665598,381.97086453615543 L 242.44223435969462,415.2497520067684 L 276.2524588871817,401.9965225326265 L 262.99922941303976,435.80674706011354 L 296.2781168836528,450.3427376631522 L 262.99922941303976,464.8787282661909 L 276.2524588871817,498.6889527936779 L 242.44223435969462,485.435723319536 L 227.90624375665598,518.714610790149 L 213.37025315361734,485.435723319536 L 179.56002862613028,498.6889527936779 L 192.8132581002722,464.8787282661909 L 159.53437062965918,450.3427376631522 L 192.8132581002722,435.80674706011354 L 179.56002862613025,401.9965225326265 L 213.3702531536173,415.2497520067684 Z" fill="none" stroke="#FFD700" stroke-width="1.450506329979052" /><path d="M 379.84373959442667,381.97086453615543 L 394.37973019746534,415.2497520067684 L 428.1899547249524,401.9965225326265 L 414.93672525081047,435.80674706011354 L 448.21561272142344,450.3427376631522 L 414.93672525081047,464.8787282661909 L 428.1899547249524,498.6889527936779 L 394.37973019746534,485.435723319536 L 379.84373959442667,518.714610790149 L 365.307748991388,485.435723319536 L 331.49752446390096,498.6889527936779 L 344.75075393804286,464.8787282661909 L 311.4718664674299,450.3427376631522 L 344.75075393804286,435.80674706011354 L 331.49752446390096,401.9965225326265 L 365.307748991388,415.2497520067684 Z" fill="none" stroke="#FFD700" stroke-width="1.450506329979052" /><path d="M 531.7812354321973,381.97086453615543 L 546.3172260352359,415.2497520067684 L 580.127450562723,401.9965225326265 L 566.8742210885811,435.80674706011354 L 600.153108559194,450.3427376631522 L 566.8742210885811,464.8787282661909 L 580.127450562723,498.6889527936779 L 546.3172260352359,485.435723319536 L 531.7812354321973,518.714610790149 L 517.2452448291587,485.435723319536 L 483.43502030167156,498.6889527936779 L 496.68824977581346,464.8787282661909 L 463.4093623052005,450.3427376631522 L 496.68824977581346,435.80674706011354 L 483.43502030167156,401.9965225326265 L 517.2452448291585,415.2497520067684 Z" fill="none" stroke="#FFD700" stroke-width="1.450506329979052" /><path d="M 4.186569778834279e-15,513.5487359316649 L 14.535990603038655,546.8276234022778 L 48.34621513052572,533.5743939281359 L 35.09298565638378,567.384618455623 L 68.3718731269968,581.9206090586616 L 35.09298565638378,596.4565996617002 L 48.34621513052572,630.2668241891873 L 14.535990603038655,617.0135947150454 L 4.186569778834279e-15,650.2924821856584 L -14.535990603038652,617.0135947150454 L -48.346215130525714,630.2668241891873 L -35.092985656383775,596.4565996617004 L -68.3718731269968,581.9206090586616 L -35.092985656383775,567.384618455623 L -48.34621513052573,533.5743939281359 L -14.535990603038675,546.8276234022778 Z" fill="none" stroke="#FFD700" stroke-width="1.450506329979052" /><path d="M 151.93749583777065,513.5487359316649 L 166.47348644080932,546.8276234022778 L 200.28371096829636,533.5743939281359 L 187.03048149415443,567.384618455623 L 220.30936896476746,581.9206090586616 L 187.03048149415443,596.4565996617002 L 200.28371096829636,630.2668241891873 L 166.47348644080932,617.0135947150454 L 151.93749583777065,650.2924821856584 L 137.401505234732,617.0135947150454 L 103.59128070724495,630.2668241891873 L 116.84451018138688,596.4565996617004 L 83.56562271077385,581.9206090586616 L 116.84451018138688,567.384618455623 L 103.59128070724492,533.5743939281359 L 137.40150523473199,546.8276234022778 Z" fill="none" stroke="#FFD700" stroke-width="1.450506329979052" /><path d="M 303.8749916755413,513.5487359316649 L 318.41098227858,546.8276234022778 L 352.221206806067,533.5743939281359 L 338.9679773319251,567.384618455623 L 372.2468648025381,581.9206090586616 L 338.9679773319251,596.4565996617002 L 352.221206806067,630.2668241891873 L 318.41098227858,617.0135947150454 L 303.8749916755413,650.2924821856584 L 289.33900107250264,617.0135947150454 L 255.5287765450156,630.2668241891873 L 268.7820060191575,596.4565996617004 L 235.5031185485445,581.9206090586616 L 268.7820060191575,567.384618455623 L 255.52877654501557,533.5743939281359 L 289.33900107250264,546.8276234022778 Z" fill="none" stroke="#FFD700" stroke-width="1.450506329979052" /><path d="M 455.812487513312,513.5487359316649 L 470.3484781163507,546.8276234022778 L 504.1587026438377,533.5743939281359 L 490.9054731696958,567.384618455623 L 524.1843606403088,581.9206090586616 L 490.9054731696958,596.4565996617002 L 504.1587026438377,630.2668241891873 L 470.3484781163507,617.0135947150454 L 455.812487513312,650.2924821856584 L 441.27649691027335,617.0135947150454 L 407.4662723827863,630.2668241891873 L 420.7195018569282,596.4565996617004 L 387.44061438631525,581.9206090586616 L 420.7195018569282,567.384618455623 L 407.4662723827863,533.5743939281359 L 441.27649691027335,546.8276234022778 Z" fill="none" stroke="#FFD700" stroke-width="1.450506329979052" /><path d="M 607.7499833510826,513.5487359316649 L 622.2859739541212,546.8276234022778 L 656.0961984816083,533.5743939281359 L 642.8429690074664,567.384618455623 L 676.1218564780794,581.9206090586616 L 642.8429690074664,596.4565996617002 L 656.0961984816083,630.2668241891873 L 622.2859739541212,617.0135947150454 L 607.7499833510826,650.2924821856584 L 593.213992748044,617.0135947150454 L 559.4037682205569,630.2668241891873 L 572.6569976946988,596.4565996617004 L 539.3781102240858,581.9206090586616 L 572.6569976946988,567.384618455623 L 559.4037682205569,533.5743939281359 L 593.2139927480439,546.8276234022778 Z" fill="none" stroke="#FFD700" stroke-width="1.450506329979052" /><line x1="68.3718731269968" y1="55.60912347662406" x2="83.56562271077385" y2="55.60912347662406" stroke="#FFD700" stroke-width="0.5"/><line x1="220.30936896476746" y1="55.60912347662406" x2="235.5031185485445" y2="55.60912347662406" stroke="#FFD700" stroke-width="0.5"/><line x1="372.2468648025381" y1="55.60912347662406" x2="387.44061438631525" y2="55.60912347662406" stroke="#FFD700" stroke-width="0.5"/><line x1="144.34062104588213" y1="187.18699487213345" x2="159.53437062965918" y2="187.18699487213345" stroke="#FFD700" stroke-width="0.5"/><line x1="296.2781168836528" y1="187.18699487213345" x2="311.4718664674299" y2="187.18699487213345" stroke="#FFD700" stroke-width="0.5"/><line x1="448.21561272142344" y1="187.18699487213345" x2="463.4093623052005" y2="187.18699487213345" stroke="#FFD700" stroke-width="0.5"/><line x1="68.3718731269968" y1="318.7648662676428" x2="83.56562271077385" y2="318.7648662676428" stroke="#FFD700" stroke-width="0.5"/><line x1="220.30936896476746" y1="318.7648662676428" x2="235.5031185485445" y2="318.7648662676428" stroke="#FFD700" stroke-width="0.5"/><line x1="372.2468648025381" y1="318.7648662676428" x2="387.44061438631525" y2="318.7648662676428" stroke="#FFD700" stroke-width="0.5"/><line x1="144.34062104588213" y1="450.3427376631522" x2="159.53437062965918" y2="450.3427376631522" stroke="#FFD700" stroke-width="0.5"/><line x1="296.2781168836528" y1="450.3427376631522" x2="311.4718664674299" y2="450.3427376631522" stroke="#FFD700" stroke-width="0.5"/><line x1="448.21561272142344" y1="450.3427376631522" x2="463.4093623052005" y2="450.3427376631522" stroke="#FFD700" stroke-width="0.5"/></g></svg>