<svg xmlns="http://www.w3.org/2000/svg" width="512" height="512" viewBox="0 0 512 512"><rect x="0" y="0" width="512" height="512" fill="#0D0D0D"/><g opacity="0.12141372564780234"><path d="M -53.892881858792364,-102.39647553170549 L -43.580925353907894,-78.78814710748591 L -19.595661860758568,-88.19010185682615 L -28.997616610098817,-64.20483836367683 L -5.389288185879238,-53.892881858792364 L -28.997616610098817,-43.580925353907894 L -19.595661860758568,-19.595661860758575 L -43.580925353907894,-28.997616610098817 L -53.892881858792364,-5.389288185879238 L -64.20483836367683,-28.997616610098817 L -88.19010185682615,-19.595661860758568 L -78.78814710748591,-43.58092535390788 L -102.39647553170549,-53.89288185879236 L -78.78814710748591,-64.20483836367684 L -88.19010185682617,-88.19010185682615 L -64.20483836367686,-78.78814710748591 Z" fill="none" stroke="#FFD700" stroke-width="0.8432285787273331" /><path d="M 53.892881858792364,-102.39647553170549 L 64.20483836367684,-78.78814710748591 L 88.19010185682616,-88.19010185682615 L 78.78814710748591,-64.20483836367683 L 102.39647553170549,-53.892881858792364 L 78.78814710748591,-43.580925353907894 L 88.19010185682616,-19.595661860758575 L 64.20483836367684,-28.997616610098817 L 53.892881858792364,-5.389288185879238 L 43.580925353907894,-28.997616610098817 L 19.595661860758575,-19.595661860758568 L 28.997616610098824,-43.58092535390788 L 5.389288185879238,-53.89288185879236 L 28.99761661009882,-64.20483836367684 L 19.59566186075856,-88.19010185682615 L 43.58092535390788,-78.78814710748591 Z" fill="none" stroke="#FFD700" stroke-width="0.8432285787273331" /><path d="M 161.6786455763771,-102.39647553170549 L 171.99060208126158,-78.78814710748591 L 195.9758655744109,-88.19010185682615 L 186.57391082507064,-64.20483836367683 L 210.18223924929023,-53.892881858792364 L 186.57391082507064,-43.580925353907894 L 195.9758655744109,-19.595661860758575 L 171.99060208126158,-28.997616610098817 L 161.6786455763771,-5.389288185879238 L 151.36668907149263,-28.997616610098817 L 127.38142557834331,-19.595661860758568 L 136.78338032768357,-43.58092535390788 L 113.17505190346398,-53.89288185879236 L 136.78338032768357,-64.20483836367684 L 127.38142557834331,-88.19010185682615 L 151.36668907149263,-78.78814710748591 Z" fill="none" stroke="#FFD700" stroke-width="0.8432285787273331" /><path d="M 269.46440929396186,-102.39647553170549 L 279.7763657988463,-78.78814710748591 L 303.76162929199563,-88.19010185682615 L 294.3596745426554,-64.20483836367683 L 317.968002966875,-53.892881858792364 L 294.3596745426554,-43.580925353907894 L 303.76162929199563,-19.595661860758575 L 279.7763657988463,-28.997616610098817 L 269.46440929396186,-5.389288185879238 L 259.1524527890774,-28.997616610098817 L 235.16718929592807,-19.595661860758568 L 244.56914404526833,-43.58092535390788 L 220.96081562104874,-53.89288185879236 L 244.56914404526833,-64.20483836367684 L 235.16718929592807,-88.19010185682615 L 259.15245278907736,-78.78814710748591 Z" fill="none" stroke="#FFD700" stroke-width="0.8432285787273331" /><path d="M 377.25017301154656,-102.39647553170549 L 387.562129516431,-78.78814710748591 L 411.54739300958033,-88.19010185682615 L 402.1454382602401,-64.20483836367683 L 425.7537666844597,-53.892881858792364 L 402.1454382602401,-43.580925353907894 L 411.54739300958033,-19.595661860758575 L 387.562129516431,-28.997616610098817 L 377.25017301154656,-5.389288185879238 L 366.9382165066621,-28.997616610098817 L 342.9529530135128,-19.595661860758568 L 352.35490776285303,-43.58092535390788 L 328.7465793386334,-53.89288185879236 L 352.35490776285303,-64.20483836367684 L 342.95295301351274,-88.19010185682615 L 366.93821650666206,-78.78814710748591 Z" fill="none" stroke="#FFD700" stroke-width="0.8432285787273331" /><path d="M 485.03593672913127,-102.39647553170549 L 495.3478932340157,-78.78814710748591 L 519.333156727165,-88.19010185682615 L 509.9312019778248,-64.20483836367683 L 533.5395304020444,-53.892881858792364 L 509.9312019778248,-43.580925353907894 L 519.333156727165,-19.595661860758575 L 495.3478932340157,-28.997616610098817 L 485.03593672913127,-5.389288185879238 L 474.7239802242468,-28.997616610098817 L 450.7387167310975,-19.595661860758568 L 460.14067148043773,-43.58092535390788 L 436.5323430562181,-53.89288185879236 L 460.14067148043773,-64.20483836367684 L 450.73871673109744,-88.19010185682615 L 474.72398022424676,-78.78814710748591 Z" fill="none" stroke="#FFD700" stroke-width="0.8432285787273331" /><path d="M 592.821700446716,-102.39647553170549 L 603.1336569516005,-78.78814710748591 L 627.1189204447498,-88.19010185682615 L 617.7169656954096,-64.20483836367683 L 641.3252941196291,-53.892881858792364 L 617.7169656954096,-43.580925353907894 L 627.1189204447498,-19.595661860758575 L 603.1336569516005,-28.997616610098817 L 592.821700446716,-5.389288185879238 L 582.5097439418315,-28.997616610098817 L 558.5244804486822,-19.595661860758568 L 567.9264351980224,-43.58092535390788 L 544.3181067738029,-53.89288185879236 L 567.9264351980224,-64.20483836367684 L 558.5244804486822,-88.19010185682615 L 582.5097439418315,-78.78814710748591 Z" fill="none" stroke="#FFD700" stroke-width="0.8432285787273331" /><path d="M 2.969988536933844e-15,-9.054004152277116 L 10.311956504884472,14.554324271942463 L 34.297219998033796,5.152369522602221 L 24.895265248693548,29.13763301575154 L 48.50359367291313,39.44958952063601 L 24.895265248693548,49.76154602552048 L 34.297219998033796,73.7468095186698 L 10.311956504884472,64.34485476932956 L 2.969988536933844e-15,87.95318319354914 L -10.311956504884469,64.34485476932956 L -34.29721999803379,73.7468095186698 L -24.89526524869354,49.761546025520495 L -48.50359367291313,39.44958952063602 L -24.895265248693544,29.137633015751533 L -34.2972199980338,5.152369522602221 L -10.311956504884487,14.55432427194247 Z" fill="none" stroke="#FFD700" stroke-width="0.8432285787273331" /><path d="M 107.78576371758473,-9.054004152277116 L 118.0977202224692,14.554324271942463 L 142.08298371561852,5.152369522602221 L 132.6810289662783,29.13763301575154 L 156.28935739049786,39.44958952063601 L 132.6810289662783,49.76154602552048 L 142.08298371561852,73.7468095186698 L 118.0977202224692,64.34485476932956 L 107.78576371758473,87.95318319354914 L 97.47380721270027,64.34485476932956 L 73.48854371955093,73.7468095186698 L 82.8904984688912,49.761546025520495 L 59.2821700446716,39.44958952063602 L 82.89049846889118,29.137633015751533 L 73.48854371955093,5.152369522602221 L 97.47380721270024,14.55432427194247 Z" fill="none" stroke="#FFD700" stroke-width="0.8432285787273331" /><path d="M 215.57152743516946,-9.054004152277116 L 225.88348394005394,14.554324271942463 L 249.86874743320325,5.152369522602221 L 240.466792683863,29.13763301575154 L 264.0751211080826,39.44958952063601 L 240.466792683863,49.76154602552048 L 249.86874743320325,73.7468095186698 L 225.88348394005394,64.34485476932956 L 215.57152743516946,87.95318319354914 L 205.25957093028498,64.34485476932956 L 181.27430743713566,73.7468095186698 L 190.67626218647592,49.761546025520495 L 167.06793376225633,39.44958952063602 L 190.67626218647592,29.137633015751533 L 181.27430743713566,5.152369522602221 L 205.25957093028498,14.55432427194247 Z" fill="none" stroke="#FFD700" stroke-width="0.8432285787273331" /><path d="M 323.3572911527542,-9.054004152277116 L 333.66924765763866,14.554324271942463 L 357.65451115078804,5.152369522602221 L 348.25255640144775,29.13763301575154 L 371.8608848256673,39.44958952063601 L 348.25255640144775,49.76154602552048 L 357.65451115078804,73.7468095186698 L 333.66924765763866,64.34485476932956 L 323.3572911527542,87.95318319354914 L 313.04533464786977,64.34485476932956 L 289.06007115472045,73.7468095186698 L 298.4620259040607,49.761546025520495 L 274.8536974798411,39.44958952063602 L 298.4620259040607,29.137633015751533 L 289.0600711547204,5.152369522602221 L 313.0453346478697,14.55432427194247 Z" fill="none" stroke="#FFD700" stroke-width="0.8432285787273331" /><path d="M 431.1430548703389,-9.054004152277116 L 441.45501137522336,14.554324271942463 L 465.44027486837274,5.152369522602221 L 456.03832011903245,29.13763301575154 L 479.646648543252,39.44958952063601 L 456.03832011903245,49.76154602552048 L 465.44027486837274,73.7468095186698 L 441.45501137522336,64.34485476932956 L 431.1430548703389,87.95318319354914 L 420.83109836545447,64.34485476932956 L 396.84583487230515,73.7468095186698 L 406.2477896216454,49.761546025520495 L 382.6394611974258,39.44958952063602 L 406.2477896216454,29.137633015751533 L 396.8458348723051,5.152369522602221 L 420.8310983654544,14.55432427194247 Z" fill="none" stroke="#FFD700" stroke-width="0.8432285787273331" /><path d="M 538.9288185879236,-9.054004152277116 L 549.2407750928081,14.554324271942463 L 573.2260385859574,5.152369522602221 L 563.8240838366172,29.13763301575154 L 587.4324122608367,39.44958952063601 L 563.8240838366172,49.76154602552048 L 573.2260385859574,73.7468095186698 L 549.2407750928081,64.34485476932956 L 538.9288185879236,87.95318319354914 L 528.6168620830391,64.34485476932956 L 504.63159858988985,73.7468095186698 L 514.03355333923,49.761546025520495 L 490.4252249150105,39.44958952063602 L 514.03355333923,29.137633015751533 L 504.6315985898898,5.152369522602221 L 528.6168620830391,14.55432427194247 Z" fill="none" stroke="#FFD700" stroke-width="0.8432285787273331" /><path d="M -53.892881858792364,84.28846722715124 L -43.580925353907894,107.89679565137082 L -19.595661860758568,98.49484090203057 L -28.997616610098817,122.4801043951799 L -5.389288185879238,132.79206090006437 L -28.997616610098817,143.10401740494885 L -19.595661860758568,167.08928089809817 L -43.580925353907894,157.6873261487579 L -53.892881858792364,181.2956545729775 L -64.20483836367683,157.6873261487579 L -88.19010185682615,167.08928089809817 L -78.78814710748591,143.10401740494885 L -102.39647553170549,132.79206090006437 L -78.78814710748591,122.4801043951799 L -88.19010185682617,98.49484090203057 L -64.20483836367686,107.89679565137084 Z" fill="none" stroke="#FFD700" stroke-width="0.8432285787273331" /><path d="M 53.892881858792364,84.28846722715124 L 64.20483836367684,107.89679565137082 L 88.19010185682616,98.49484090203057 L 78.78814710748591,122.4801043951799 L 102.39647553170549,132.79206090006437 L 78.78814710748591,143.10401740494885 L 88.19010185682616,167.08928089809817 L 64.20483836367684,157.6873261487579 L 53.892881858792364,181.2956545729775 L 43.580925353907894,157.6873261487579 L 19.595661860758575,167.08928089809817 L 28.997616610098824,143.10401740494885 L 5.389288185879238,132.79206090006437 L 28.99761661009882,122.4801043951799 L 19.59566186075856,98.49484090203057 L 43.58092535390788,107.89679565137084 Z" fill="none" stroke="#FFD700" stroke-width="0.8432285787273331" /><path d="M 161.6786455763771,84.28846722715124 L 171.99060208126158,107.89679565137082 L 195.9758655744109,98.49484090203057 L 186.57391082507064,122.4801043951799 L 210.18223924929023,132.79206090006437 L 186.57391082507064,143.10401740494885 L 195.9758655744109,167.08928089809817 L 171.99060208126158,157.6873261487579 L 161.6786455763771,181.2956545729775 L 151.36668907149263,157.6873261487579 L 127.38142557834331,167.08928089809817 L 136.78338032768357,143.10401740494885 L 113.17505190346398,132.79206090006437 L 136.78338032768357,122.4801043951799 L 127.38142557834331,98.49484090203057 L 151.36668907149263,107.89679565137084 Z" fill="none" stroke="#FFD700" stroke-width="0.8432285787273331" /><path d="M 269.46440929396186,84.28846722715124 L 279.7763657988463,107.89679565137082 L 303.76162929199563,98.49484090203057 L 294.3596745426554,122.4801043951799 L 317.968002966875,132.79206090006437 L 294.3596745426554,143.10401740494885 L 303.76162929199563,167.08928089809817 L 279.7763657988463,157.6873261487579 L 269.46440929396186,181.2956545729775 L 259.1524527890774,157.6873261487579 L 235.16718929592807,167.08928089809817 L 244.56914404526833,143.10401740494885 L 220.96081562104874,132.79206090006437 L 244.56914404526833,122.4801043951799 L 235.16718929592807,98.49484090203057 L 259.15245278907736,107.89679565137084 Z" fill="none" stroke="#FFD700" stroke-width="0.8432285787273331" /><path d="M 377.25017301154656,84.28846722715124 L 387.562129516431,107.89679565137082 L 411.54739300958033,98.49484090203057 L 402.1454382602401,122.4801043951799 L 425.7537666844597,132.79206090006437 L 402.1454382602401,143.10401740494885 L 411.54739300958033,167.08928089809817 L 387.562129516431,157.6873261487579 L 377.25017301154656,181.2956545729775 L 366.9382165066621,157.6873261487579 L 342.9529530135128,167.08928089809817 L 352.35490776285303,143.10401740494885 L 328.7465793386334,132.79206090006437 L 352.35490776285303,122.4801043951799 L 342.95295301351274,98.49484090203057 L 366.93821650666206,107.89679565137084 Z" fill="none" stroke="#FFD700" stroke-width="0.8432285787273331" /><path d="M 485.03593672913127,84.28846722715124 L 495.3478932340157,107.89679565137082 L 519.333156727165,98.49484090203057 L 509.9312019778248,122.4801043951799 L 533.5395304020444,132.79206090006437 L 509.9312019778248,143.10401740494885 L 519.333156727165,167.08928089809817 L 495.3478932340157,157.6873261487579 L 485.03593672913127,181.2956545729775 L 474.7239802242468,157.6873261487579 L 450.7387167310975,167.08928089809817 L 460.14067148043773,143.10401740494885 L 436.5323430562181,132.79206090006437 L 460.14067148043773,122.4801043951799 L 450.73871673109744,98.49484090203057 L 474.72398022424676,107.89679565137084 Z" fill="none" stroke="#FFD700" stroke-width="0.8432285787273331" /><path d="M 592.821700446716,84.28846722715124 L 603.1336569516005,107.89679565137082 L 627.1189204447498,98.49484090203057 L 617.7169656954096,122.4801043951799 L 641.3252941196291,132.79206090006437 L 617.7169656954096,143.10401740494885 L 627.1189204447498,167.08928089809817 L 603.1336569516005,157.6873261487579 L 592.821700446716,181.2956545729775 L 582.5097439418315,157.6873261487579 L 558.5244804486822,167.08928089809817 L 567.9264351980224,143.10401740494885 L 544.3181067738029,132.79206090006437 L 567.9264351980224,122.4801043951799 L 558.5244804486822,98.49484090203057 L 582.5097439418315,107.89679565137084 Z" fill="none" stroke="#FFD700" stroke-width="0.8432285787273331" /><path d="M 2.969988536933844e-15,177.6309386065797 L 10.311956504884472,201.23926703079928 L 34.297219998033796,191.83731228145902 L 24.895265248693548,215.82257577460834 L 48.50359367291313,226.13453227949282 L 24.895265248693548,236.4464887843773 L 34.297219998033796,260.4317522775266 L 10.311956504884472,251.02979752818635 L 2.969988536933844e-15,274.63812595240597 L -10.311956504884469,251.02979752818635 L -34.29721999803379,260.4317522775266 L -24.89526524869354,236.4464887843773 L -48.50359367291313,226.13453227949282 L -24.895265248693544,215.82257577460834 L -34.2972199980338,191.83731228145902 L -10.311956504884487,201.23926703079928 Z" fill="none" stroke="#FFD700" stroke-width="0.8432285787273331" /><path d="M 107.78576371758473,177.6309386065797 L 118.0977202224692,201.23926703079928 L 142.08298371561852,191.83731228145902 L 132.6810289662783,215.82257577460834 L 156.28935739049786,226.13453227949282 L 132.6810289662783,236.4464887843773 L 142.08298371561852,260.4317522775266 L 118.0977202224692,251.02979752818635 L 107.78576371758473,274.63812595240597 L 97.47380721270027,251.02979752818635 L 73.48854371955093,260.4317522775266 L 82.8904984688912,236.4464887843773 L 59.2821700446716,226.13453227949282 L 82.89049846889118,215.82257577460834 L 73.48854371955093,191.83731228145902 L 97.47380721270024,201.23926703079928 Z" fill="none" stroke="#FFD700" stroke-width="0.8432285787273331" /><path d="M 215.57152743516946,177.6309386065797 L 225.88348394005394,201.23926703079928 L 249.86874743320325,191.83731228145902 L 240.466792683863,215.82257577460834 L 264.0751211080826,226.13453227949282 L 240.466792683863,236.4464887843773 L 249.86874743320325,260.4317522775266 L 225.88348394005394,251.02979752818635 L 215.57152743516946,274.63812595240597 L 205.25957093028498,251.02979752818635 L 181.27430743713566,260.4317522775266 L 190.67626218647592,236.4464887843773 L 167.06793376225633,226.13453227949282 L 190.67626218647592,215.82257577460834 L 181.27430743713566,191.83731228145902 L 205.25957093028498,201.23926703079928 Z" fill="none" stroke="#FFD700" stroke-width="0.8432285787273331" /><path d="M 323.3572911527542,177.6309386065797 L 333.66924765763866,201.23926703079928 L 357.65451115078804,191.83731228145902 L 348.25255640144775,215.82257577460834 L 371.8608848256673,226.13453227949282 L 348.25255640144775,236.4464887843773 L 357.65451115078804,260.4317522775266 L 333.66924765763866,251.02979752818635 L 323.3572911527542,274.63812595240597 L 313.04533464786977,251.02979752818635 L 289.06007115472045,260.4317522775266 L 298.4620259040607,236.4464887843773 L 274.8536974798411,226.13453227949282 L 298.4620259040607,215.82257577460834 L 289.0600711547204,191.83731228145902 L 313.0453346478697,201.23926703079928 Z" fill="none" stroke="#FFD700" stroke-width="0.8432285787273331" /><path d="M 431.1430548703389,177.6309386065797 L 441.45501137522336,201.23926703079928 L 465.44027486837274,191.83731228145902 L 456.03832011903245,215.82257577460834 L 479.646648543252,226.13453227949282 L 456.03832011903245,236.4464887843773 L 465.44027486837274,260.4317522775266 L 441.45501137522336,251.02979752818635 L 431.1430548703389,274.63812595240597 L 420.83109836545447,251.02979752818635 L 396.84583487230515,260.4317522775266 L 406.2477896216454,236.4464887843773 L 382.6394611974258,226.13453227949282 L 406.2477896216454,215.82257577460834 L 396.8458348723051,191.83731228145902 L 420.8310983654544,201.23926703079928 Z" fill="none" stroke="#FFD700" stroke-width="0.8432285787273331" /><path d="M 538.9288185879236,177.6309386065797 L 549.2407750928081,201.23926703079928 L 573.2260385859574,191.83731228145902 L 563.8240838366172,215.82257577460834 L 587.4324122608367,226.13453227949282 L 563.8240838366172,236.4464887843773 L 573.2260385859574,260.4317522775266 L 549.2407750928081,251.02979752818635 L 538.9288185879236,274.63812595240597 L 528.6168620830391,251.02979752818635 L 504.63159858988985,260.4317522775266 L 514.03355333923,236.4464887843773 L 490.4252249150105,226.13453227949282 L 514.03355333923,215.82257577460834 L 504.6315985898898,191.83731228145902 L 528.6168620830391,201.23926703079928 Z" fill="none" stroke="#FFD700" stroke-width="0.8432285787273331" /><path d="M -53.892881858792364,270.97340998600805 L -43.580925353907894,294.5817384102276 L -19.595661860758568,285.1797836608874 L -28.997616610098817,309.1650471540367 L -5.389288185879238,319.47700365892115 L -28.997616610098817,329.7889601638056 L -19.595661860758568,353.7742236569549 L -43.580925353907894,344.3722689076147 L -53.892881858792364,367.98059733183425 L -64.20483836367683,344.3722689076147 L -88.19010185682615,353.774223656955 L -78.78814710748591,329.78896016380565 L -102.39647553170549,319.47700365892115 L -78.78814710748591,309.16504715403664 L -88.19010185682617,285.1797836608874 L -64.20483836367686,294.5817384102276 Z" fill="none" stroke="#FFD700" stroke-width="0.8432285787273331" /><path d="M 53.892881858792364,270.97340998600805 L 64.20483836367684,294.5817384102276 L 88.19010185682616,285.1797836608874 L 78.78814710748591,309.1650471540367 L 102.39647553170549,319.47700365892115 L 78.78814710748591,329.7889601638056 L 88.19010185682616,353.7742236569549 L 64.20483836367684,344.3722689076147 L 53.892881858792364,367.98059733183425 L 43.580925353907894,344.3722689076147 L 19.595661860758575,353.774223656955 L 28.997616610098824,329.78896016380565 L 5.389288185879238,319.47700365892115 L 28.99761661009882,309.16504715403664 L 19.59566186075856,285.1797836608874 L 43.58092535390788,294.5817384102276 Z" fill="none" stroke="#FFD700" stroke-width="0.8432285787273331" /><path d="M 161.6786455763771,270.97340998600805 L 171.99060208126158,294.5817384102276 L 195.9758655744109,285.1797836608874 L 186.57391082507064,309.1650471540367 L 210.18223924929023,319.47700365892115 L 186.57391082507064,329.7889601638056 L 195.9758655744109,353.7742236569549 L 171.99060208126158,344.3722689076147 L 161.6786455763771,367.98059733183425 L 151.36668907149263,344.3722689076147 L 127.38142557834331,353.774223656955 L 136.78338032768357,329.78896016380565 L 113.17505190346398,319.47700365892115 L 136.78338032768357,309.16504715403664 L 127.38142557834331,285.1797836608874 L 151.36668907149263,294.5817384102276 Z" fill="none" stroke="#FFD700" stroke-width="0.8432285787273331" /><path d="M 269.46440929396186,270.97340998600805 L 279.7763657988463,294.5817384102276 L 303.76162929199563,285.1797836608874 L 294.3596745426554,309.1650471540367 L 317.968002966875,319.47700365892115 L 294.3596745426554,329.7889601638056 L 303.76162929199563,353.7742236569549 L 279.7763657988463,344.3722689076147 L 269.46440929396186,367.98059733183425 L 259.1524527890774,344.3722689076147 L 235.16718929592807,353.774223656955 L 244.56914404526833,329.78896016380565 L 220.96081562104874,319.47700365892115 L 244.56914404526833,309.16504715403664 L 235.16718929592807,285.1797836608874 L 259.15245278907736,294.5817384102276 Z" fill="none" stroke="#FFD700" stroke-width="0.8432285787273331" /><path d="M 377.25017301154656,270.97340998600805 L 387.562129516431,294.5817384102276 L 411.54739300958033,285.1797836608874 L 402.1454382602401,309.1650471540367 L 425.7537666844597,319.47700365892115 L 402.1454382602401,329.7889601638056 L 411.54739300958033,353.7742236569549 L 387.562129516431,344.3722689076147 L 377.25017301154656,367.98059733183425 L 366.9382165066621,344.3722689076147 L 342.9529530135128,353.774223656955 L 352.35490776285303,329.78896016380565 L 328.7465793386334,319.47700365892115 L 352.35490776285303,309.16504715403664 L 342.95295301351274,285.1797836608874 L 366.93821650666206,294.5817384102276 Z" fill="none" stroke="#FFD700" stroke-width="0.8432285787273331" /><path d="M 485.03593672913127,270.97340998600805 L 495.3478932340157,294.5817384102276 L 519.333156727165,285.1797836608874 L 509.9312019778248,309.1650471540367 L 533.5395304020444,319.47700365892115 L 509.9312019778248,329.7889601638056 L 519.333156727165,353.7742236569549 L 495.3478932340157,344.3722689076147 L 485.03593672913127,367.98059733183425 L 474.7239802242468,344.3722689076147 L 450.7387167310975,353.774223656955 L 460.14067148043773,329.78896016380565 L 436.5323430562181,319.47700365892115 L 460.14067148043773,309.16504715403664 L 450.73871673109744,285.1797836608874 L 474.72398022424676,294.5817384102276 Z" fill="none" stroke="#FFD700" stroke-width="0.8432285787273331" /><path d="M 592.821700446716,270.97340998600805 L 603.1336569516005,294.5817384102276 L 627.1189204447498,285.1797836608874 L 617.7169656954096,309.1650471540367 L 641.3252941196291,319.47700365892115 L 617.7169656954096,329.7889601638056 L 627.1189204447498,353.7742236569549 L 603.1336569516005,344.3722689076147 L 592.821700446716,367.98059733183425 L 582.5097439418315,344.3722689076147 L 558.5244804486822,353.774223656955 L 567.9264351980224,329.78896016380565 L 544.3181067738029,319.47700365892115 L 567.9264351980224,309.16504715403664 L 558.5244804486822,285.1797836608874 L 582.5097439418315,294.5817384102276 Z" fill="none" stroke="#FFD700" stroke-width="0.8432285787273331" /><path d="M 2.969988536933844e-15,364.3158813654363 L 10.311956504884472,387.92420978965595 L 34.297219998033796,378.5222550403157 L 24.895265248693548,402.50751853346503 L 48.50359367291313,412.8194750383495 L 24.895265248693548,423.13143154323393 L 34.297219998033796,447.11669503638325 L 10.311956504884472,437.714740287043 L 2.969988536933844e-15,461.32306871126264 L -10.311956504884469,437.714740287043 L -34.29721999803379,447.11669503638325 L -24.89526524869354,423.131431543234 L -48.50359367291313,412.8194750383495 L -24.895265248693544,402.50751853346503 L -34.2972199980338,378.5222550403157 L -10.311956504884487,387.92420978965595 Z" fill="none" stroke="#FFD700" stroke-width="0.8432285787273331" /><path d="M 107.78576371758473,364.3158813654363 L 118.0977202224692,387.92420978965595 L 142.08298371561852,378.5222550403157 L 132.6810289662783,402.50751853346503 L 156.28935739049786,412.8194750383495 L 132.6810289662783,423.13143154323393 L 142.08298371561852,447.11669503638325 L 118.0977202224692,437.714740287043 L 107.78576371758473,461.32306871126264 L 97.47380721270027,437.714740287043 L 73.48854371955093,447.11669503638325 L 82.8904984688912,423.131431543234 L 59.2821700446716,412.8194750383495 L 82.89049846889118,402.50751853346503 L 73.48854371955093,378.5222550403157 L 97.47380721270024,387.92420978965595 Z" fill="none" stroke="#FFD700" stroke-width="0.8432285787273331" /><path d="M 215.57152743516946,364.3158813654363 L 225.88348394005394,387.92420978965595 L 249.86874743320325,378.5222550403157 L 240.466792683863,402.50751853346503 L 264.0751211080826,412.8194750383495 L 240.466792683863,423.13143154323393 L 249.86874743320325,447.11669503638325 L 225.88348394005394,437.714740287043 L 215.57152743516946,461.32306871126264 L 205.25957093028498,437.714740287043 L 181.27430743713566,447.11669503638325 L 190.67626218647592,423.131431543234 L 167.06793376225633,412.8194750383495 L 190.67626218647592,402.50751853346503 L 181.27430743713566,378.5222550403157 L 205.25957093028498,387.92420978965595 Z" fill="none" stroke="#FFD700" stroke-width="0.8432285787273331" /><path d="M 323.3572911527542,364.3158813654363 L 333.66924765763866,387.92420978965595 L 357.65451115078804,378.5222550403157 L 348.25255640144775,402.50751853346503 L 371.8608848256673,412.8194750383495 L 348.25255640144775,423.13143154323393 L 357.65451115078804,447.11669503638325 L 333.66924765763866,437.714740287043 L 323.3572911527542,461.32306871126264 L 313.04533464786977,437.714740287043 L 289.06007115472045,447.11669503638325 L 298.4620259040607,423.131431543234 L 274.8536974798411,412.8194750383495 L 298.4620259040607,402.50751853346503 L 289.0600711547204,378.5222550403157 L 313.0453346478697,387.92420978965595 Z" fill="none" stroke="#FFD700" stroke-width="0.8432285787273331" /><path d="M 431.1430548703389,364.3158813654363 L 441.45501137522336,387.92420978965595 L 465.44027486837274,378.5222550403157 L 456.03832011903245,402.50751853346503 L 479.646648543252,412.8194750383495 L 456.03832011903245,423.13143154323393 L 465.44027486837274,447.11669503638325 L 441.45501137522336,437.714740287043 L 431.1430548703389,461.32306871126264 L 420.83109836545447,437.714740287043 L 396.84583487230515,447.11669503638325 L 406.2477896216454,423.131431543234 L 382.6394611974258,412.8194750383495 L 406.2477896216454,402.50751853346503 L 396.8458348723051,378.5222550403157 L 420.8310983654544,387.92420978965595 Z" fill="none" stroke="#FFD700" stroke-width="0.8432285787273331" /><path d="M 538.9288185879236,364.3158813654363 L 549.2407750928081,387.92420978965595 L 573.2260385859574,378.5222550403157 L 563.8240838366172,402.50751853346503 L 587.4324122608367,412.8194750383495 L 563.8240838366172,423.13143154323393 L 573.2260385859574,447.11669503638325 L 549.2407750928081,437.714740287043 L 538.9288185879236,461.32306871126264 L 528.6168620830391,437.714740287043 L 504.63159858988985,447.11669503638325 L 514.03355333923,423.131431543234 L 490.4252249150105,412.8194750383495 L 514.03355333923,402.50751853346503 L 504.6315985898898,378.5222550403157 L 528.6168620830391,387.92420978965595 Z" fill="none" stroke="#FFD700" stroke-width="0.8432285787273331" /><path d="M -53.892881858792364,457.6583527448648 L -43.580925353907894,481.26668116908445 L -19.595661860758568,471.8647264197442 L -28.997616610098817,495.84998991289353 L -5.389288185879238,506.161946417778 L -28.997616610098817,516.4739029226624 L -19.595661860758568,540.4591664158118 L -43.580925353907894,531.0572116664715 L -53.892881858792364,554.6655400906911 L -64.20483836367683,531.0572116664715 L -88.19010185682615,540.4591664158118 L -78.78814710748591,516.4739029226624 L -102.39647553170549,506.161946417778 L -78.78814710748591,495.84998991289353 L -88.19010185682617,471.8647264197442 L -64.20483836367686,481.26668116908445 Z" fill="none" stroke="#FFD700" stroke-width="0.8432285787273331" /><path d="M 53.892881858792364,457.6583527448648 L 64.20483836367684,481.26668116908445 L 88.19010185682616,471.8647264197442 L 78.78814710748591,495.84998991289353 L 102.39647553170549,506.161946417778 L 78.78814710748591,516.4739029226624 L 88.19010185682616,540.4591664158118 L 64.20483836367684,531.0572116664715 L 53.892881858792364,554.6655400906911 L 43.580925353907894,531.0572116664715 L 19.595661860758575,540.4591664158118 L 28.997616610098824,516.4739029226624 L 5.389288185879238,506.161946417778 L 28.99761661009882,495.84998991289353 L 19.59566186075856,471.8647264197442 L 43.58092535390788,481.26668116908445 Z" fill="none" stroke="#FFD700" stroke-width="0.8432285787273331" /><path d="M 161.6786455763771,457.6583527448648 L 171.99060208126158,481.26668116908445 L 195.9758655744109,471.8647264197442 L 186.57391082507064,495.84998991289353 L 210.18223924929023,506.161946417778 L 186.57391082507064,516.4739029226624 L 195.9758655744109,540.4591664158118 L 171.99060208126158,531.0572116664715 L 161.6786455763771,554.6655400906911 L 151.36668907149263,531.0572116664715 L 127.38142557834331,540.4591664158118 L 136.78338032768357,516.4739029226624 L 113.17505190346398,506.161946417778 L 136.78338032768357,495.84998991289353 L 127.38142557834331,471.8647264197442 L 151.36668907149263,481.26668116908445 Z" fill="none" stroke="#FFD700" stroke-width="0.8432285787273331" /><path d="M 269.46440929396186,457.6583527448648 L 279.7763657988463,481.26668116908445 L 303.76162929199563,471.8647264197442 L 294.3596745426554,495.84998991289353 L 317.968002966875,506.161946417778 L 294.3596745426554,516.4739029226624 L 303.76162929199563,540.4591664158118 L 279.7763657988463,531.0572116664715 L 269.46440929396186,554.6655400906911 L 259.1524527890774,531.0572116664715 L 235.16718929592807,540.4591664158118 L 244.56914404526833,516.4739029226624 L 220.96081562104874,506.161946417778 L 244.56914404526833,495.84998991289353 L 235.16718929592807,471.8647264197442 L 259.15245278907736,481.26668116908445 Z" fill="none" stroke="#FFD700" stroke-width="0.8432285787273331" /><path d="M 377.25017301154656,457.6583527448648 L 387.562129516431,481.26668116908445 L 411.54739300958033,471.8647264197442 L 402.1454382602401,495.84998991289353 L 425.7537666844597,506.161946417778 L 402.1454382602401,516.4739029226624 L 411.54739300958033,540.4591664158118 L 387.562129516431,531.0572116664715 L 377.25017301154656,554.6655400906911 L 366.9382165066621,531.0572116664715 L 342.9529530135128,540.4591664158118 L 352.35490776285303,516.4739029226624 L 328.7465793386334,506.161946417778 L 352.35490776285303,495.84998991289353 L 342.95295301351274,471.8647264197442 L 366.93821650666206,481.26668116908445 Z" fill="none" stroke="#FFD700" stroke-width="0.8432285787273331" /><path d="M 485.03593672913127,457.6583527448648 L 495.3478932340157,481.26668116908445 L 519.333156727165,471.8647264197442 L 509.9312019778248,495.84998991289353 L 533.5395304020444,506.161946417778 L 509.9312019778248,516.4739029226624 L 519.333156727165,540.4591664158118 L 495.3478932340157,531.0572116664715 L 485.03593672913127,554.6655400906911 L 474.7239802242468,531.0572116664715 L 450.7387167310975,540.4591664158118 L 460.14067148043773,516.4739029226624 L 436.5323430562181,506.161946417778 L 460.14067148043773,495.84998991289353 L 450.73871673109744,471.8647264197442 L 474.72398022424676,481.26668116908445 Z" fill="none" stroke="#FFD700" stroke-width="0.8432285787273331" /><path d="M 592.821700446716,457.6583527448648 L 603.1336569516005,481.26668116908445 L 627.1189204447498,471.8647264197442 L 617.7169656954096,495.84998991289353 L 641.3252941196291,506.161946417778 L 617.7169656954096,516.4739029226624 L 627.1189204447498,540.4591664158118 L 603.1336569516005,531.0572116664715 L 592.821700446716,554.6655400906911 L 582.5097439418315,531.0572116664715 L 558.5244804486822,540.4591664158118 L 567.9264351980224,516.4739029226624 L 544.3181067738029,506.161946417778 L 567.9264351980224,495.84998991289353 L 558.5244804486822,471.8647264197442 L 582.5097439418315,481.26668116908445 Z" fill="none" stroke="#FFD700" stroke-width="0.8432285787273331" /><line x1="48.50359367291313" y1="39.44958952063601" x2="59.2821700446716" y2="39.44958952063601" stroke="#FFD700" stroke-width="0.5"/><line x1="156.28935739049786" y1="39.44958952063601" x2="167.06793376225633" y2="39.44958952063601" stroke="#FFD700" stroke-width="0.5"/><line x1="264.0751211080826" y1="39.44958952063601" x2="274.8536974798411" y2="39.44958952063601" stroke="#FFD700" stroke-width="0.5"/><line x1="371.8608848256673" y1="39.44958952063601" x2="382.6394611974258" y2="39.44958952063601" stroke="#FFD700" stroke-width="0.5"/><line x1="479.646648543252" y1="39.44958952063601" x2="490.4252249150105" y2="39.44958952063601" stroke="#FFD700" stroke-width="0.5"/><line x1="102.39647553170549" y1="132.79206090006437" x2="113.17505190346398" y2="132.79206090006437" stroke="#FFD700" stroke-width="0.5"/><line x1="210.18223924929023" y1="132.79206090006437" x2="220.96081562104874" y2="132.79206090006437" stroke="#FFD700" stroke-width="0.5"/><line x1="317.968002966875" y1="132.79206090006437" x2="328.7465793386334" y2="132.79206090006437" stroke="#FFD700" stroke-width="0.5"/><line x1="425.7537666844597" y1="132.79206090006437" x2="436.5323430562181" y2="132.79206090006437" stroke="#FFD700" stroke-width="0.5"/><line x1="48.50359367291313" y1="226.13453227949282" x2="59.2821700446716" y2="226.13453227949282" stroke="#FFD700" stroke-width="0.5"/><line x1="156.28935739049786" y1="226.13453227949282" x2="167.06793376225633" y2="226.13453227949282" stroke="#FFD700" stroke-width="0.5"/><line x1="264.0751211080826" y1="226.13453227949282" x2="274.8536974798411" y2="226.13453227949282" stroke="#FFD700" stroke-width="0.5"/><line x1="371.8608848256673" y1="226.13453227949282" x2="382.6394611974258" y2="226.13453227949282" stroke="#FFD700" stroke-width="0.5"/><line x1="479.646648543252" y1="226.13453227949282" x2="490.4252249150105" y2="226.13453227949282" stroke="#FFD700" stroke-width="0.5"/><line x1="102.39647553170549" y1="319.47700365892115" x2="113.17505190346398" y2="319.47700365892115" stroke="#FFD700" stroke-width="0.5"/><line x1="210.18223924929023" y1="319.47700365892115" x2="220.96081562104874" y2="319.47700365892115" stroke="#FFD700" stroke-width="0.5"/><line x1="317.968002966875" y1="319.47700365892115" x2="328.7465793386334" y2="319.47700365892115" stroke="#FFD700" stroke-width="0.5"/><line x1="425.7537666844597" y1="319.47700365892115" x2="436.5323430562181" y2="319.47700365892115" stroke="#FFD700" stroke-width="0.5"/><line x1="48.50359367291313" y1="412.8194750383495" x2="59.2821700446716" y2="412.8194750383495" stroke="#FFD700" stroke-width="0.5"/><line x1="156.28935739049786" y1="412.8194750383495" x2="167.06793376225633" y2="412.8194750383495" stroke="#FFD700" stroke-width="0.5"/><line x1="264.0751211080826" y1="412.8194750383495" x2="274.8536974798411" y2="412.8194750383495" stroke="#FFD700" stroke-width="0.5"/><line x1="371.8608848256673" y1="412.8194750383495" x2="382.6394611974258" y2="412.8194750383495" stroke="#FFD700" stroke-width="0.5"/><line x1="479.646648543252" y1="412.8194750383495" x2="490.4252249150105" y2="412.8194750383495" stroke="#FFD700" stroke-width="0.5"/><line x1="102.39647553170549" y1="506.161946417778" x2="113.17505190346398" y2="506.161946417778" stroke="#FFD700" stroke-width="0.5"/><line x1="210.18223924929023" y1="506.161946417778" x2="220.96081562104874" y2="506.161946417778" stroke="#FFD700" stroke-width="0.5"/><line x1="317.968002966875" y1="506.161946417778" x2="328.7465793386334" y2="506.161946417778" stroke="#FFD700" stroke-width="0.5"/><line x1="425.7537666844597" y1="506.161946417778" x2="436.5323430562181" y2="506.161946417778" stroke="#FFD700" stroke-width="0.5"/></g></svg>