<svg xmlns="http://www.w3.org/2000/svg" width="512" height="512" viewBox="0 0 512 512"><rect x="0" y="0" width="512" height="512" fill="#050510"/><g opacity="0.1843113661437814"><path d="M -29.978566913923544,-56.95927713645473 L -24.24241647192015,-43.82685910682055 L -10.900323754342534,-49.05681007350455 L -16.130274721026538,-35.714717355926936 L -2.9978566913923537,-29.978566913923544 L -16.130274721026538,-24.242416471920155 L -10.900323754342534,-10.900323754342537 L -24.24241647192015,-16.130274721026538 L -29.978566913923544,-2.9978566913923537 L -35.714717355926936,-16.130274721026538 L -49.05681007350455,-10.900323754342534 L -43.82685910682055,-24.242416471920148 L -56.95927713645473,-29.97856691392354 L -43.82685910682055,-35.714717355926936 L -49.05681007350456,-49.05681007350455 L -35.71471735592694,-43.82685910682055 Z" fill="none" stroke="#0F52BA" stroke-width="2.8312067996390198" /><path d="M 29.978566913923544,-56.95927713645473 L 35.714717355926936,-43.82685910682055 L 49.05681007350455,-49.05681007350455 L 43.82685910682055,-35.714717355926936 L 56.95927713645473,-29.978566913923544 L 43.82685910682055,-24.242416471920155 L 49.05681007350455,-10.900323754342537 L 35.714717355926936,-16.130274721026538 L 29.978566913923544,-2.9978566913923537 L 24.242416471920155,-16.130274721026538 L 10.900323754342537,-10.900323754342534 L 16.13027472102654,-24.242416471920148 L 2.9978566913923537,-29.97856691392354 L 16.130274721026538,-35.714717355926936 L 10.90032375434253,-49.05681007350455 L 24.242416471920144,-43.82685910682055 Z" fill="none" stroke="#0F52BA" stroke-width="2.8312067996390198" /><path d="M 89.93570074177063,-56.95927713645473 L 95.67185118377402,-43.82685910682055 L 109.01394390135164,-49.05681007350455 L 103.78399293466764,-35.714717355926936 L 116.91641096430182,-29.978566913923544 L 103.78399293466764,-24.242416471920155 L 109.01394390135164,-10.900323754342537 L 95.67185118377402,-16.130274721026538 L 89.93570074177063,-2.9978566913923537 L 84.19955029976724,-16.130274721026538 L 70.85745758218962,-10.900323754342534 L 76.08740854887363,-24.242416471920148 L 62.954990519239445,-29.97856691392354 L 76.08740854887363,-35.714717355926936 L 70.85745758218962,-49.05681007350455 L 84.19955029976724,-43.82685910682055 Z" fill="none" stroke="#0F52BA" stroke-width="2.8312067996390198" /><path d="M 149.89283456961772,-56.95927713645473 L 155.6289850116211,-43.82685910682055 L 168.97107772919873,-49.05681007350455 L 163.74112676251474,-35.714717355926936 L 176.87354479214892,-29.978566913923544 L 163.74112676251474,-24.242416471920155 L 168.97107772919873,-10.900323754342537 L 155.6289850116211,-16.130274721026538 L 149.89283456961772,-2.9978566913923537 L 144.15668412761434,-16.130274721026538 L 130.8145914100367,-10.900323754342534 L 136.04454237672073,-24.242416471920148 L 122.91212434708653,-29.97856691392354 L 136.04454237672073,-35.714717355926936 L 130.8145914100367,-49.05681007350455 L 144.1566841276143,-43.82685910682055 Z" fill="none" stroke="#0F52BA" stroke-width="2.8312067996390198" /><path d="M 209.8499683974648,-56.95927713645473 L 215.58611883946818,-43.82685910682055 L 228.9282115570458,-49.05681007350455 L 223.69826059036183,-35.714717355926936 L 236.830678619996,-29.978566913923544 L 223.69826059036183,-24.242416471920155 L 228.9282115570458,-10.900323754342537 L 215.58611883946818,-16.130274721026538 L 209.8499683974648,-2.9978566913923537 L 204.11381795546143,-16.130274721026538 L 190.7717252378838,-10.900323754342534 L 196.00167620456781,-24.242416471920148 L 182.8692581749336,-29.97856691392354 L 196.00167620456781,-35.714717355926936 L 190.7717252378838,-49.05681007350455 L 204.1138179554614,-43.82685910682055 Z" fill="none" stroke="#0F52BA" stroke-width="2.8312067996390198" /><path d="M 269.8071022253119,-56.95927713645473 L 275.5432526673153,-43.82685910682055 L 288.8853453848929,-49.05681007350455 L 283.6553944182089,-35.714717355926936 L 296.78781244784307,-29.978566913923544 L 283.6553944182089,-24.242416471920155 L 288.8853453848929,-10.900323754342537 L 275.5432526673153,-16.130274721026538 L 269.8071022253119,-2.9978566913923537 L 264.0709517833085,-16.130274721026538 L 250.7288590657309,-10.900323754342534 L 255.9588100324149,-24.242416471920148 L 242.8263920027807,-29.97856691392354 L 255.9588100324149,-35.714717355926936 L 250.7288590657309,-49.05681007350455 L 264.0709517833085,-43.82685910682055 Z" fill="none" stroke="#0F52BA" stroke-width="2.8312067996390198" /><path d="M 329.764236053159,-56.95927713645473 L 335.5003864951624,-43.82685910682055 L 348.84247921274,-49.05681007350455 L 343.612528246056,-35.714717355926936 L 356.74494627569015,-29.978566913923544 L 343.612528246056,-24.242416471920155 L 348.84247921274,-10.900323754342537 L 335.5003864951624,-16.130274721026538 L 329.764236053159,-2.9978566913923537 L 324.0280856111556,-16.130274721026538 L 310.685992893578,-10.900323754342534 L 315.91594386026196,-24.242416471920148 L 302.7835258306278,-29.97856691392354 L 315.91594386026196,-35.714717355926936 L 310.685992893578,-49.05681007350455 L 324.0280856111556,-43.82685910682055 Z" fill="none" stroke="#0F52BA" stroke-width="2.8312067996390198" /><path d="M 389.72136988100607,-56.95927713645473 L 395.4575203230095,-43.82685910682055 L 408.7996130405871,-49.05681007350455 L 403.5696620739031,-35.714717355926936 L 416.70208010353724,-29.978566913923544 L 403.5696620739031,-24.242416471920155 L 408.7996130405871,-10.900323754342537 L 395.4575203230095,-16.130274721026538 L 389.72136988100607,-2.9978566913923537 L 383.98521943900266,-16.130274721026538 L 370.64312672142506,-10.900323754342534 L 375.87307768810905,-24.242416471920148 L 362.7406596584749,-29.97856691392354 L 375.87307768810905,-35.714717355926936 L 370.64312672142506,-49.05681007350455 L 383.98521943900266,-43.82685910682055 Z" fill="none" stroke="#0F52BA" stroke-width="2.8312067996390198" /><path d="M 449.67850370885316,-56.95927713645473 L 455.41465415085656,-43.82685910682055 L 468.75674686843416,-49.05681007350455 L 463.5267959017502,-35.714717355926936 L 476.65921393138433,-29.978566913923544 L 463.5267959017502,-24.242416471920155 L 468.75674686843416,-10.900323754342537 L 455.41465415085656,-16.130274721026538 L 449.67850370885316,-2.9978566913923537 L 443.94235326684975,-16.130274721026538 L 430.60026054927215,-10.900323754342534 L 435.83021151595614,-24.242416471920148 L 422.697793486322,-29.97856691392354 L 435.83021151595614,-35.714717355926936 L 430.60026054927215,-49.05681007350455 L 443.94235326684975,-43.82685910682055 Z" fill="none" stroke="#0F52BA" stroke-width="2.8312067996390198" /><path d="M 509.63563753670024,-56.95927713645473 L 515.3717879787037,-43.82685910682055 L 528.7138806962813,-49.05681007350455 L 523.4839297295972,-35.714717355926936 L 536.6163477592314,-29.978566913923544 L 523.4839297295972,-24.242416471920155 L 528.7138806962813,-10.900323754342537 L 515.3717879787037,-16.130274721026538 L 509.63563753670024,-2.9978566913923537 L 503.89948709469684,-16.130274721026538 L 490.55739437711924,-10.900323754342534 L 495.7873453438032,-24.242416471920148 L 482.6549273141691,-29.97856691392354 L 495.7873453438032,-35.714717355926936 L 490.55739437711924,-49.05681007350455 L 503.89948709469684,-43.82685910682055 Z" fill="none" stroke="#0F52BA" stroke-width="2.8312067996390198" /><path d="M 569.5927713645474,-56.95927713645473 L 575.3289218065507,-43.82685910682055 L 588.6710145241284,-49.05681007350455 L 583.4410635574444,-35.714717355926936 L 596.5734815870786,-29.978566913923544 L 583.4410635574444,-24.242416471920155 L 588.6710145241284,-10.900323754342537 L 575.3289218065507,-16.130274721026538 L 569.5927713645474,-2.9978566913923537 L 563.856620922544,-16.130274721026538 L 550.5145282049664,-10.900323754342534 L 555.7444791716504,-24.242416471920148 L 542.6120611420162,-29.97856691392354 L 555.7444791716504,-35.714717355926936 L 550.5145282049664,-49.05681007350455 L 563.856620922544,-43.82685910682055 Z" fill="none" stroke="#0F52BA" stroke-width="2.8312067996390198" /><path d="M 1.6520920206372547e-15,-5.036399241539154 L 5.736150442003391,8.09601878809503 L 19.07824315958101,2.866067821411029 L 13.848292192897006,16.208160538988647 L 26.98071022253119,21.944310980992036 L 13.848292192897006,27.680461422995425 L 19.07824315958101,41.02255414057304 L 5.736150442003391,35.79260317388904 L 1.6520920206372547e-15,48.92502120352323 L -5.736150442003389,35.79260317388904 L -19.078243159581007,41.02255414057305 L -13.848292192897002,27.68046142299543 L -26.98071022253119,21.94431098099204 L -13.848292192897004,16.208160538988643 L -19.078243159581014,2.866067821411029 L -5.736150442003398,8.096018788095034 Z" fill="none" stroke="#0F52BA" stroke-width="2.8312067996390198" /><path d="M 59.95713382784709,-5.036399241539154 L 65.69328426985048,8.09601878809503 L 79.0353769874281,2.866067821411029 L 73.8054260207441,16.208160538988647 L 86.93784405037827,21.944310980992036 L 73.8054260207441,27.680461422995425 L 79.0353769874281,41.02255414057304 L 65.69328426985048,35.79260317388904 L 59.95713382784709,48.92502120352323 L 54.220983385843695,35.79260317388904 L 40.87889066826608,41.02255414057305 L 46.10884163495008,27.68046142299543 L 32.9764236053159,21.94431098099204 L 46.10884163495008,16.208160538988643 L 40.878890668266074,2.866067821411029 L 54.22098338584369,8.096018788095034 Z" fill="none" stroke="#0F52BA" stroke-width="2.8312067996390198" /><path d="M 119.91426765569418,-5.036399241539154 L 125.65041809769757,8.09601878809503 L 138.99251081527518,2.866067821411029 L 133.7625598485912,16.208160538988647 L 146.89497787822538,21.944310980992036 L 133.7625598485912,27.680461422995425 L 138.99251081527518,41.02255414057304 L 125.65041809769757,35.79260317388904 L 119.91426765569418,48.92502120352323 L 114.17811721369078,35.79260317388904 L 100.83602449611317,41.02255414057305 L 106.06597546279717,27.68046142299543 L 92.93355743316299,21.94431098099204 L 106.06597546279717,16.208160538988643 L 100.83602449611317,2.866067821411029 L 114.17811721369078,8.096018788095034 Z" fill="none" stroke="#0F52BA" stroke-width="2.8312067996390198" /><path d="M 179.87140148354126,-5.036399241539154 L 185.60755192554464,8.09601878809503 L 198.94964464312227,2.866067821411029 L 193.71969367643828,16.208160538988647 L 206.85211170607246,21.944310980992036 L 193.71969367643828,27.680461422995425 L 198.94964464312227,41.02255414057304 L 185.60755192554464,35.79260317388904 L 179.87140148354126,48.92502120352323 L 174.13525104153788,35.79260317388904 L 160.79315832396026,41.02255414057305 L 166.02310929064427,27.68046142299543 L 152.89069126101006,21.94431098099204 L 166.02310929064427,16.208160538988643 L 160.79315832396026,2.866067821411029 L 174.13525104153786,8.096018788095034 Z" fill="none" stroke="#0F52BA" stroke-width="2.8312067996390198" /><path d="M 239.82853531138835,-5.036399241539154 L 245.56468575339173,8.09601878809503 L 258.90677847096936,2.866067821411029 L 253.67682750428537,16.208160538988647 L 266.8092455339195,21.944310980992036 L 253.67682750428537,27.680461422995425 L 258.90677847096936,41.02255414057304 L 245.56468575339173,35.79260317388904 L 239.82853531138835,48.92502120352323 L 234.09238486938497,35.79260317388904 L 220.75029215180734,41.02255414057305 L 225.98024311849136,27.68046142299543 L 212.84782508885715,21.94431098099204 L 225.98024311849136,16.208160538988643 L 220.75029215180734,2.866067821411029 L 234.09238486938494,8.096018788095034 Z" fill="none" stroke="#0F52BA" stroke-width="2.8312067996390198" /><path d="M 299.78566913923544,-5.036399241539154 L 305.52181958123884,8.09601878809503 L 318.86391229881644,2.866067821411029 L 313.63396133213246,16.208160538988647 L 326.7663793617666,21.944310980992036 L 313.63396133213246,27.680461422995425 L 318.86391229881644,41.02255414057304 L 305.52181958123884,35.79260317388904 L 299.78566913923544,48.92502120352323 L 294.04951869723203,35.79260317388904 L 280.70742597965443,41.02255414057305 L 285.9373769463384,27.68046142299543 L 272.80495891670427,21.94431098099204 L 285.9373769463384,16.208160538988643 L 280.70742597965443,2.866067821411029 L 294.04951869723203,8.096018788095034 Z" fill="none" stroke="#0F52BA" stroke-width="2.8312067996390198" /><path d="M 359.7428029670825,-5.036399241539154 L 365.47895340908593,8.09601878809503 L 378.82104612666353,2.866067821411029 L 373.59109515997955,16.208160538988647 L 386.7235131896137,21.944310980992036 L 373.59109515997955,27.680461422995425 L 378.82104612666353,41.02255414057304 L 365.47895340908593,35.79260317388904 L 359.7428029670825,48.92502120352323 L 354.0066525250791,35.79260317388904 L 340.6645598075015,41.02255414057305 L 345.8945107741855,27.68046142299543 L 332.76209274455135,21.94431098099204 L 345.8945107741855,16.208160538988643 L 340.6645598075015,2.866067821411029 L 354.0066525250791,8.096018788095034 Z" fill="none" stroke="#0F52BA" stroke-width="2.8312067996390198" /><path d="M 419.6999367949296,-5.036399241539154 L 425.436087236933,8.09601878809503 L 438.7781799545106,2.866067821411029 L 433.54822898782663,16.208160538988647 L 446.6806470174608,21.944310980992036 L 433.54822898782663,27.680461422995425 L 438.7781799545106,41.02255414057304 L 425.436087236933,35.79260317388904 L 419.6999367949296,48.92502120352323 L 413.9637863529262,35.79260317388904 L 400.6216936353486,41.02255414057305 L 405.8516446020326,27.68046142299543 L 392.71922657239844,21.94431098099204 L 405.8516446020326,16.208160538988643 L 400.6216936353486,2.866067821411029 L 413.9637863529262,8.096018788095034 Z" fill="none" stroke="#0F52BA" stroke-width="2.8312067996390198" /><path d="M 479.6570706227767,-5.036399241539154 L 485.3932210647801,8.09601878809503 L 498.7353137823577,2.866067821411029 L 493.5053628156737,16.208160538988647 L 506.6377808453079,21.944310980992036 L 493.5053628156737,27.680461422995425 L 498.7353137823577,41.02255414057304 L 485.3932210647801,35.79260317388904 L 479.6570706227767,48.92502120352323 L 473.9209201807733,35.79260317388904 L 460.5788274631957,41.02255414057305 L 465.8087784298797,27.68046142299543 L 452.6763604002455,21.94431098099204 L 465.8087784298797,16.208160538988643 L 460.5788274631957,2.866067821411029 L 473.9209201807733,8.096018788095034 Z" fill="none" stroke="#0F52BA" stroke-width="2.8312067996390198" /><path d="M 539.6142044506238,-5.036399241539154 L 545.3503548926271,8.09601878809503 L 558.6924476102048,2.866067821411029 L 553.4624966435208,16.208160538988647 L 566.594914673155,21.944310980992036 L 553.4624966435208,27.680461422995425 L 558.6924476102048,41.02255414057304 L 545.3503548926271,35.79260317388904 L 539.6142044506238,48.92502120352323 L 533.8780540086204,35.79260317388904 L 520.5359612910428,41.02255414057305 L 525.7659122577268,27.68046142299543 L 512.6334942280926,21.94431098099204 L 525.7659122577268,16.208160538988643 L 520.5359612910428,2.866067821411029 L 533.8780540086204,8.096018788095034 Z" fill="none" stroke="#0F52BA" stroke-width="2.8312067996390198" /><path d="M -29.978566913923544,46.88647865337643 L -24.24241647192015,60.01889668301061 L -10.900323754342534,54.78894571632661 L -16.130274721026538,68.13103843390422 L -2.9978566913923537,73.86718887590762 L -16.130274721026538,79.60333931791101 L -10.900323754342534,92.94543203548862 L -24.24241647192015,87.71548106880462 L -29.978566913923544,100.8478990984388 L -35.714717355926936,87.71548106880462 L -49.05681007350455,92.94543203548862 L -43.82685910682055,79.60333931791101 L -56.95927713645473,73.86718887590762 L -43.82685910682055,68.13103843390422 L -49.05681007350456,54.78894571632661 L -35.71471735592694,60.01889668301061 Z" fill="none" stroke="#0F52BA" stroke-width="2.8312067996390198" /><path d="M 29.978566913923544,46.88647865337643 L 35.714717355926936,60.01889668301061 L 49.05681007350455,54.78894571632661 L 43.82685910682055,68.13103843390422 L 56.95927713645473,73.86718887590762 L 43.82685910682055,79.60333931791101 L 49.05681007350455,92.94543203548862 L 35.714717355926936,87.71548106880462 L 29.978566913923544,100.8478990984388 L 24.242416471920155,87.71548106880462 L 10.900323754342537,92.94543203548862 L 16.13027472102654,79.60333931791101 L 2.9978566913923537,73.86718887590762 L 16.130274721026538,68.13103843390422 L 10.90032375434253,54.78894571632661 L 24.242416471920144,60.01889668301061 Z" fill="none" stroke="#0F52BA" stroke-width="2.8312067996390198" /><path d="M 89.93570074177063,46.88647865337643 L 95.67185118377402,60.01889668301061 L 109.01394390135164,54.78894571632661 L 103.78399293466764,68.13103843390422 L 116.91641096430182,73.86718887590762 L 103.78399293466764,79.60333931791101 L 109.01394390135164,92.94543203548862 L 95.67185118377402,87.71548106880462 L 89.93570074177063,100.8478990984388 L 84.19955029976724,87.71548106880462 L 70.85745758218962,92.94543203548862 L 76.08740854887363,79.60333931791101 L 62.954990519239445,73.86718887590762 L 76.08740854887363,68.13103843390422 L 70.85745758218962,54.78894571632661 L 84.19955029976724,60.01889668301061 Z" fill="none" stroke="#0F52BA" stroke-width="2.8312067996390198" /><path d="M 149.89283456961772,46.88647865337643 L 155.6289850116211,60.01889668301061 L 168.97107772919873,54.78894571632661 L 163.74112676251474,68.13103843390422 L 176.87354479214892,73.86718887590762 L 163.74112676251474,79.60333931791101 L 168.97107772919873,92.94543203548862 L 155.6289850116211,87.71548106880462 L 149.89283456961772,100.8478990984388 L 144.15668412761434,87.71548106880462 L 130.8145914100367,92.94543203548862 L 136.04454237672073,79.60333931791101 L 122.91212434708653,73.86718887590762 L 136.04454237672073,68.13103843390422 L 130.8145914100367,54.78894571632661 L 144.1566841276143,60.01889668301061 Z" fill="none" stroke="#0F52BA" stroke-width="2.8312067996390198" /><path d="M 209.8499683974648,46.88647865337643 L 215.58611883946818,60.01889668301061 L 228.9282115570458,54.78894571632661 L 223.69826059036183,68.13103843390422 L 236.830678619996,73.86718887590762 L 223.69826059036183,79.60333931791101 L 228.9282115570458,92.94543203548862 L 215.58611883946818,87.71548106880462 L 209.8499683974648,100.8478990984388 L 204.11381795546143,87.71548106880462 L 190.7717252378838,92.94543203548862 L 196.00167620456781,79.60333931791101 L 182.8692581749336,73.86718887590762 L 196.00167620456781,68.13103843390422 L 190.7717252378838,54.78894571632661 L 204.1138179554614,60.01889668301061 Z" fill="none" stroke="#0F52BA" stroke-width="2.8312067996390198" /><path d="M 269.8071022253119,46.88647865337643 L 275.5432526673153,60.01889668301061 L 288.8853453848929,54.78894571632661 L 283.6553944182089,68.13103843390422 L 296.78781244784307,73.86718887590762 L 283.6553944182089,79.60333931791101 L 288.8853453848929,92.94543203548862 L 275.5432526673153,87.71548106880462 L 269.8071022253119,100.8478990984388 L 264.0709517833085,87.71548106880462 L 250.7288590657309,92.94543203548862 L 255.9588100324149,79.60333931791101 L 242.8263920027807,73.86718887590762 L 255.9588100324149,68.13103843390422 L 250.7288590657309,54.78894571632661 L 264.0709517833085,60.01889668301061 Z" fill="none" stroke="#0F52BA" stroke-width="2.8312067996390198" /><path d="M 329.764236053159,46.88647865337643 L 335.5003864951624,60.01889668301061 L 348.84247921274,54.78894571632661 L 343.612528246056,68.13103843390422 L 356.74494627569015,73.86718887590762 L 343.612528246056,79.60333931791101 L 348.84247921274,92.94543203548862 L 335.5003864951624,87.71548106880462 L 329.764236053159,100.8478990984388 L 324.0280856111556,87.71548106880462 L 310.685992893578,92.94543203548862 L 315.91594386026196,79.60333931791101 L 302.7835258306278,73.86718887590762 L 315.91594386026196,68.13103843390422 L 310.685992893578,54.78894571632661 L 324.0280856111556,60.01889668301061 Z" fill="none" stroke="#0F52BA" stroke-width="2.8312067996390198" /><path d="M 389.72136988100607,46.88647865337643 L 395.4575203230095,60.01889668301061 L 408.7996130405871,54.78894571632661 L 403.5696620739031,68.13103843390422 L 416.70208010353724,73.86718887590762 L 403.5696620739031,79.60333931791101 L 408.7996130405871,92.94543203548862 L 395.4575203230095,87.71548106880462 L 389.72136988100607,100.8478990984388 L 383.98521943900266,87.71548106880462 L 370.64312672142506,92.94543203548862 L 375.87307768810905,79.60333931791101 L 362.7406596584749,73.86718887590762 L 375.87307768810905,68.13103843390422 L 370.64312672142506,54.78894571632661 L 383.98521943900266,60.01889668301061 Z" fill="none" stroke="#0F52BA" stroke-width="2.8312067996390198" /><path d="M 449.67850370885316,46.88647865337643 L 455.41465415085656,60.01889668301061 L 468.75674686843416,54.78894571632661 L 463.5267959017502,68.13103843390422 L 476.65921393138433,73.86718887590762 L 463.5267959017502,79.60333931791101 L 468.75674686843416,92.94543203548862 L 455.41465415085656,87.71548106880462 L 449.67850370885316,100.8478990984388 L 443.94235326684975,87.71548106880462 L 430.60026054927215,92.94543203548862 L 435.83021151595614,79.60333931791101 L 422.697793486322,73.86718887590762 L 435.83021151595614,68.13103843390422 L 430.60026054927215,54.78894571632661 L 443.94235326684975,60.01889668301061 Z" fill="none" stroke="#0F52BA" stroke-width="2.8312067996390198" /><path d="M 509.63563753670024,46.88647865337643 L 515.3717879787037,60.01889668301061 L 528.7138806962813,54.78894571632661 L 523.4839297295972,68.13103843390422 L 536.6163477592314,73.86718887590762 L 523.4839297295972,79.60333931791101 L 528.7138806962813,92.94543203548862 L 515.3717879787037,87.71548106880462 L 509.63563753670024,100.8478990984388 L 503.89948709469684,87.71548106880462 L 490.55739437711924,92.94543203548862 L 495.7873453438032,79.60333931791101 L 482.6549273141691,73.86718887590762 L 495.7873453438032,68.13103843390422 L 490.55739437711924,54.78894571632661 L 503.89948709469684,60.01889668301061 Z" fill="none" stroke="#0F52BA" stroke-width="2.8312067996390198" /><path d="M 569.5927713645474,46.88647865337643 L 575.3289218065507,60.01889668301061 L 588.6710145241284,54.78894571632661 L 583.4410635574444,68.13103843390422 L 596.5734815870786,73.86718887590762 L 583.4410635574444,79.60333931791101 L 588.6710145241284,92.94543203548862 L 575.3289218065507,87.71548106880462 L 569.5927713645474,100.8478990984388 L 563.856620922544,87.71548106880462 L 550.5145282049664,92.94543203548862 L 555.7444791716504,79.60333931791101 L 542.6120611420162,73.86718887590762 L 555.7444791716504,68.13103843390422 L 550.5145282049664,54.78894571632661 L 563.856620922544,60.01889668301061 Z" fill="none" stroke="#0F52BA" stroke-width="2.8312067996390198" /><path d="M 1.6520920206372547e-15,98.809356548292 L 5.736150442003391,111.94177457792618 L 19.07824315958101,106.71182361124218 L 13.848292192897006,120.0539163288198 L 26.98071022253119,125.79006677082319 L 13.848292192897006,131.52621721282657 L 19.07824315958101,144.8683099304042 L 5.736150442003391,139.63835896372018 L 1.6520920206372547e-15,152.7707769933544 L -5.736150442003389,139.63835896372018 L -19.078243159581007,144.8683099304042 L -13.848292192897002,131.5262172128266 L -26.98071022253119,125.79006677082319 L -13.848292192897004,120.0539163288198 L -19.078243159581014,106.71182361124218 L -5.736150442003398,111.94177457792618 Z" fill="none" stroke="#0F52BA" stroke-width="2.8312067996390198" /><path d="M 59.95713382784709,98.809356548292 L 65.69328426985048,111.94177457792618 L 79.0353769874281,106.71182361124218 L 73.8054260207441,120.0539163288198 L 86.93784405037827,125.79006677082319 L 73.8054260207441,131.52621721282657 L 79.0353769874281,144.8683099304042 L 65.69328426985048,139.63835896372018 L 59.95713382784709,152.7707769933544 L 54.220983385843695,139.63835896372018 L 40.87889066826608,144.8683099304042 L 46.10884163495008,131.5262172128266 L 32.9764236053159,125.79006677082319 L 46.10884163495008,120.0539163288198 L 40.878890668266074,106.71182361124218 L 54.22098338584369,111.94177457792618 Z" fill="none" stroke="#0F52BA" stroke-width="2.8312067996390198" /><path d="M 119.91426765569418,98.809356548292 L 125.65041809769757,111.94177457792618 L 138.99251081527518,106.71182361124218 L 133.7625598485912,120.0539163288198 L 146.89497787822538,125.79006677082319 L 133.7625598485912,131.52621721282657 L 138.99251081527518,144.8683099304042 L 125.65041809769757,139.63835896372018 L 119.91426765569418,152.7707769933544 L 114.17811721369078,139.63835896372018 L 100.83602449611317,144.8683099304042 L 106.06597546279717,131.5262172128266 L 92.93355743316299,125.79006677082319 L 106.06597546279717,120.0539163288198 L 100.83602449611317,106.71182361124218 L 114.17811721369078,111.94177457792618 Z" fill="none" stroke="#0F52BA" stroke-width="2.8312067996390198" /><path d="M 179.87140148354126,98.809356548292 L 185.60755192554464,111.94177457792618 L 198.94964464312227,106.71182361124218 L 193.71969367643828,120.0539163288198 L 206.85211170607246,125.79006677082319 L 193.71969367643828,131.52621721282657 L 198.94964464312227,144.8683099304042 L 185.60755192554464,139.63835896372018 L 179.87140148354126,152.7707769933544 L 174.13525104153788,139.63835896372018 L 160.79315832396026,144.8683099304042 L 166.02310929064427,131.5262172128266 L 152.89069126101006,125.79006677082319 L 166.02310929064427,120.0539163288198 L 160.79315832396026,106.71182361124218 L 174.13525104153786,111.94177457792618 Z" fill="none" stroke="#0F52BA" stroke-width="2.8312067996390198" /><path d="M 239.82853531138835,98.809356548292 L 245.56468575339173,111.94177457792618 L 258.90677847096936,106.71182361124218 L 253.67682750428537,120.0539163288198 L 266.8092455339195,125.79006677082319 L 253.67682750428537,131.52621721282657 L 258.90677847096936,144.8683099304042 L 245.56468575339173,139.63835896372018 L 239.82853531138835,152.7707769933544 L 234.09238486938497,139.63835896372018 L 220.75029215180734,144.8683099304042 L 225.98024311849136,131.5262172128266 L 212.84782508885715,125.79006677082319 L 225.98024311849136,120.0539163288198 L 220.75029215180734,106.71182361124218 L 234.09238486938494,111.94177457792618 Z" fill="none" stroke="#0F52BA" stroke-width="2.8312067996390198" /><path d="M 299.78566913923544,98.809356548292 L 305.52181958123884,111.94177457792618 L 318.86391229881644,106.71182361124218 L 313.63396133213246,120.0539163288198 L 326.7663793617666,125.79006677082319 L 313.63396133213246,131.52621721282657 L 318.86391229881644,144.8683099304042 L 305.52181958123884,139.63835896372018 L 299.78566913923544,152.7707769933544 L 294.04951869723203,139.63835896372018 L 280.70742597965443,144.8683099304042 L 285.9373769463384,131.5262172128266 L 272.80495891670427,125.79006677082319 L 285.9373769463384,120.0539163288198 L 280.70742597965443,106.71182361124218 L 294.04951869723203,111.94177457792618 Z" fill="none" stroke="#0F52BA" stroke-width="2.8312067996390198" /><path d="M 359.7428029670825,98.809356548292 L 365.47895340908593,111.94177457792618 L 378.82104612666353,106.71182361124218 L 373.59109515997955,120.0539163288198 L 386.7235131896137,125.79006677082319 L 373.59109515997955,131.52621721282657 L 378.82104612666353,144.8683099304042 L 365.47895340908593,139.63835896372018 L 359.7428029670825,152.7707769933544 L 354.0066525250791,139.63835896372018 L 340.6645598075015,144.8683099304042 L 345.8945107741855,131.5262172128266 L 332.76209274455135,125.79006677082319 L 345.8945107741855,120.0539163288198 L 340.6645598075015,106.71182361124218 L 354.0066525250791,111.94177457792618 Z" fill="none" stroke="#0F52BA" stroke-width="2.8312067996390198" /><path d="M 419.6999367949296,98.809356548292 L 425.436087236933,111.94177457792618 L 438.7781799545106,106.71182361124218 L 433.54822898782663,120.0539163288198 L 446.6806470174608,125.79006677082319 L 433.54822898782663,131.52621721282657 L 438.7781799545106,144.8683099304042 L 425.436087236933,139.63835896372018 L 419.6999367949296,152.7707769933544 L 413.9637863529262,139.63835896372018 L 400.6216936353486,144.8683099304042 L 405.8516446020326,131.5262172128266 L 392.71922657239844,125.79006677082319 L 405.8516446020326,120.0539163288198 L 400.6216936353486,106.71182361124218 L 413.9637863529262,111.94177457792618 Z" fill="none" stroke="#0F52BA" stroke-width="2.8312067996390198" /><path d="M 479.6570706227767,98.809356548292 L 485.3932210647801,111.94177457792618 L 498.7353137823577,106.71182361124218 L 493.5053628156737,120.0539163288198 L 506.6377808453079,125.79006677082319 L 493.5053628156737,131.52621721282657 L 498.7353137823577,144.8683099304042 L 485.3932210647801,139.63835896372018 L 479.6570706227767,152.7707769933544 L 473.9209201807733,139.63835896372018 L 460.5788274631957,144.8683099304042 L 465.8087784298797,131.5262172128266 L 452.6763604002455,125.79006677082319 L 465.8087784298797,120.0539163288198 L 460.5788274631957,106.71182361124218 L 473.9209201807733,111.94177457792618 Z" fill="none" stroke="#0F52BA" stroke-width="2.8312067996390198" /><path d="M 539.6142044506238,98.809356548292 L 545.3503548926271,111.94177457792618 L 558.6924476102048,106.71182361124218 L 553.4624966435208,120.0539163288198 L 566.594914673155,125.79006677082319 L 553.4624966435208,131.52621721282657 L 558.6924476102048,144.8683099304042 L 545.3503548926271,139.63835896372018 L 539.6142044506238,152.7707769933544 L 533.8780540086204,139.63835896372018 L 520.5359612910428,144.8683099304042 L 525.7659122577268,131.5262172128266 L 512.6334942280926,125.79006677082319 L 525.7659122577268,120.0539163288198 L 520.5359612910428,106.71182361124218 L 533.8780540086204,111.94177457792618 Z" fill="none" stroke="#0F52BA" stroke-width="2.8312067996390198" /><path d="M -29.978566913923544,150.73223444320757 L -24.24241647192015,163.86465247284178 L -10.900323754342534,158.63470150615777 L -16.130274721026538,171.9767942237354 L -2.9978566913923537,177.71294466573877 L -16.130274721026538,183.44909510774215 L -10.900323754342534,196.79118782531978 L -24.24241647192015,191.56123685863577 L -29.978566913923544,204.69365488826998 L -35.714717355926936,191.56123685863577 L -49.05681007350455,196.79118782531978 L -43.82685910682055,183.44909510774218 L -56.95927713645473,177.71294466573877 L -43.82685910682055,171.97679422373537 L -49.05681007350456,158.63470150615777 L -35.71471735592694,163.86465247284178 Z" fill="none" stroke="#0F52BA" stroke-width="2.8312067996390198" /><path d="M 29.978566913923544,150.73223444320757 L 35.714717355926936,163.86465247284178 L 49.05681007350455,158.63470150615777 L 43.82685910682055,171.9767942237354 L 56.95927713645473,177.71294466573877 L 43.82685910682055,183.44909510774215 L 49.05681007350455,196.79118782531978 L 35.714717355926936,191.56123685863577 L 29.978566913923544,204.69365488826998 L 24.242416471920155,191.56123685863577 L 10.900323754342537,196.79118782531978 L 16.13027472102654,183.44909510774218 L 2.9978566913923537,177.71294466573877 L 16.130274721026538,171.97679422373537 L 10.90032375434253,158.63470150615777 L 24.242416471920144,163.86465247284178 Z" fill="none" stroke="#0F52BA" stroke-width="2.8312067996390198" /><path d="M 89.93570074177063,150.73223444320757 L 95.67185118377402,163.86465247284178 L 109.01394390135164,158.63470150615777 L 103.78399293466764,171.9767942237354 L 116.91641096430182,177.71294466573877 L 103.78399293466764,183.44909510774215 L 109.01394390135164,196.79118782531978 L 95.67185118377402,191.56123685863577 L 89.93570074177063,204.69365488826998 L 84.19955029976724,191.56123685863577 L 70.85745758218962,196.79118782531978 L 76.08740854887363,183.44909510774218 L 62.954990519239445,177.71294466573877 L 76.08740854887363,171.97679422373537 L 70.85745758218962,158.63470150615777 L 84.19955029976724,163.86465247284178 Z" fill="none" stroke="#0F52BA" stroke-width="2.8312067996390198" /><path d="M 149.89283456961772,150.73223444320757 L 155.6289850116211,163.86465247284178 L 168.97107772919873,158.63470150615777 L 163.74112676251474,171.9767942237354 L 176.87354479214892,177.71294466573877 L 163.74112676251474,183.44909510774215 L 168.97107772919873,196.79118782531978 L 155.6289850116211,191.56123685863577 L 149.89283456961772,204.69365488826998 L 144.15668412761434,191.56123685863577 L 130.8145914100367,196.79118782531978 L 136.04454237672073,183.44909510774218 L 122.91212434708653,177.71294466573877 L 136.04454237672073,171.97679422373537 L 130.8145914100367,158.63470150615777 L 144.1566841276143,163.86465247284178 Z" fill="none" stroke="#0F52BA" stroke-width="2.8312067996390198" /><path d="M 209.8499683974648,150.73223444320757 L 215.58611883946818,163.86465247284178 L 228.9282115570458,158.63470150615777 L 223.69826059036183,171.9767942237354 L 236.830678619996,177.71294466573877 L 223.69826059036183,183.44909510774215 L 228.9282115570458,196.79118782531978 L 215.58611883946818,191.56123685863577 L 209.8499683974648,204.69365488826998 L 204.11381795546143,191.56123685863577 L 190.7717252378838,196.79118782531978 L 196.00167620456781,183.44909510774218 L 182.8692581749336,177.71294466573877 L 196.00167620456781,171.97679422373537 L 190.7717252378838,158.63470150615777 L 204.1138179554614,163.86465247284178 Z" fill="none" stroke="#0F52BA" stroke-width="2.8312067996390198" /><path d="M 269.8071022253119,150.73223444320757 L 275.5432526673153,163.86465247284178 L 288.8853453848929,158.63470150615777 L 283.6553944182089,171.9767942237354 L 296.78781244784307,177.71294466573877 L 283.6553944182089,183.44909510774215 L 288.8853453848929,196.79118782531978 L 275.5432526673153,191.56123685863577 L 269.8071022253119,204.69365488826998 L 264.0709517833085,191.56123685863577 L 250.7288590657309,196.79118782531978 L 255.9588100324149,183.44909510774218 L 242.8263920027807,177.71294466573877 L 255.9588100324149,171.97679422373537 L 250.7288590657309,158.63470150615777 L 264.0709517833085,163.86465247284178 Z" fill="none" stroke="#0F52BA" stroke-width="2.8312067996390198" /><path d="M 329.764236053159,150.73223444320757 L 335.5003864951624,163.86465247284178 L 348.84247921274,158.63470150615777 L 343.612528246056,171.9767942237354 L 356.74494627569015,177.71294466573877 L 343.612528246056,183.44909510774215 L 348.84247921274,196.79118782531978 L 335.5003864951624,191.56123685863577 L 329.764236053159,204.69365488826998 L 324.0280856111556,191.56123685863577 L 310.685992893578,196.79118782531978 L 315.91594386026196,183.44909510774218 L 302.7835258306278,177.71294466573877 L 315.91594386026196,171.97679422373537 L 310.685992893578,158.63470150615777 L 324.0280856111556,163.86465247284178 Z" fill="none" stroke="#0F52BA" stroke-width="2.8312067996390198" /><path d="M 389.72136988100607,150.73223444320757 L 395.4575203230095,163.86465247284178 L 408.7996130405871,158.63470150615777 L 403.5696620739031,171.9767942237354 L 416.70208010353724,177.71294466573877 L 403.5696620739031,183.44909510774215 L 408.7996130405871,196.79118782531978 L 395.4575203230095,191.56123685863577 L 389.72136988100607,204.69365488826998 L 383.98521943900266,191.56123685863577 L 370.64312672142506,196.79118782531978 L 375.87307768810905,183.44909510774218 L 362.7406596584749,177.71294466573877 L 375.87307768810905,171.97679422373537 L 370.64312672142506,158.63470150615777 L 383.98521943900266,163.86465247284178 Z" fill="none" stroke="#0F52BA" stroke-width="2.8312067996390198" /><path d="M 449.67850370885316,150.73223444320757 L 455.41465415085656,163.86465247284178 L 468.75674686843416,158.63470150615777 L 463.5267959017502,171.9767942237354 L 476.65921393138433,177.71294466573877 L 463.5267959017502,183.44909510774215 L 468.75674686843416,196.79118782531978 L 455.41465415085656,191.56123685863577 L 449.67850370885316,204.69365488826998 L 443.94235326684975,191.56123685863577 L 430.60026054927215,196.79118782531978 L 435.83021151595614,183.44909510774218 L 422.697793486322,177.71294466573877 L 435.83021151595614,171.97679422373537 L 430.60026054927215,158.63470150615777 L 443.94235326684975,163.86465247284178 Z" fill="none" stroke="#0F52BA" stroke-width="2.8312067996390198" /><path d="M 509.63563753670024,150.73223444320757 L 515.3717879787037,163.86465247284178 L 528.7138806962813,158.63470150615777 L 523.4839297295972,171.9767942237354 L 536.6163477592314,177.71294466573877 L 523.4839297295972,183.44909510774215 L 528.7138806962813,196.79118782531978 L 515.3717879787037,191.56123685863577 L 509.63563753670024,204.69365488826998 L 503.89948709469684,191.56123685863577 L 490.55739437711924,196.79118782531978 L 495.7873453438032,183.44909510774218 L 482.6549273141691,177.71294466573877 L 495.7873453438032,171.97679422373537 L 490.55739437711924,158.63470150615777 L 503.89948709469684,163.86465247284178 Z" fill="none" stroke="#0F52BA" stroke-width="2.8312067996390198" /><path d="M 569.5927713645474,150.73223444320757 L 575.3289218065507,163.86465247284178 L 588.6710145241284,158.63470150615777 L 583.4410635574444,171.9767942237354 L 596.5734815870786,177.71294466573877 L 583.4410635574444,183.44909510774215 L 588.6710145241284,196.79118782531978 L 575.3289218065507,191.56123685863577 L 569.5927713645474,204.69365488826998 L 563.856620922544,191.56123685863577 L 550.5145282049664,196.79118782531978 L 555.7444791716504,183.44909510774218 L 542.6120611420162,177.71294466573877 L 555.7444791716504,171.97679422373537 L 550.5145282049664,158.63470150615777 L 563.856620922544,163.86465247284178 Z" fill="none" stroke="#0F52BA" stroke-width="2.8312067996390198" /><path d="M 1.6520920206372547e-15,202.65511233812313 L 5.736150442003391,215.7875303677573 L 19.07824315958101,210.55757940107333 L 13.848292192897006,223.89967211865095 L 26.98071022253119,229.63582256065433 L 13.848292192897006,235.3719730026577 L 19.07824315958101,248.71406572023534 L 5.736150442003391,243.48411475355135 L 1.6520920206372547e-15,256.6165327831855 L -5.736150442003389,243.48411475355135 L -19.078243159581007,248.71406572023534 L -13.848292192897002,235.37197300265774 L -26.98071022253119,229.63582256065433 L -13.848292192897004,223.89967211865093 L -19.078243159581014,210.55757940107333 L -5.736150442003398,215.78753036775734 Z" fill="none" stroke="#0F52BA" stroke-width="2.8312067996390198" /><path d="M 59.95713382784709,202.65511233812313 L 65.69328426985048,215.7875303677573 L 79.0353769874281,210.55757940107333 L 73.8054260207441,223.89967211865095 L 86.93784405037827,229.63582256065433 L 73.8054260207441,235.3719730026577 L 79.0353769874281,248.71406572023534 L 65.69328426985048,243.48411475355135 L 59.95713382784709,256.6165327831855 L 54.220983385843695,243.48411475355135 L 40.87889066826608,248.71406572023534 L 46.10884163495008,235.37197300265774 L 32.9764236053159,229.63582256065433 L 46.10884163495008,223.89967211865093 L 40.878890668266074,210.55757940107333 L 54.22098338584369,215.78753036775734 Z" fill="none" stroke="#0F52BA" stroke-width="2.8312067996390198" /><path d="M 119.91426765569418,202.65511233812313 L 125.65041809769757,215.7875303677573 L 138.99251081527518,210.55757940107333 L 133.7625598485912,223.89967211865095 L 146.89497787822538,229.63582256065433 L 133.7625598485912,235.3719730026577 L 138.99251081527518,248.71406572023534 L 125.65041809769757,243.48411475355135 L 119.91426765569418,256.6165327831855 L 114.17811721369078,243.48411475355135 L 100.83602449611317,248.71406572023534 L 106.06597546279717,235.37197300265774 L 92.93355743316299,229.63582256065433 L 106.06597546279717,223.89967211865093 L 100.83602449611317,210.55757940107333 L 114.17811721369078,215.78753036775734 Z" fill="none" stroke="#0F52BA" stroke-width="2.8312067996390198" /><path d="M 179.87140148354126,202.65511233812313 L 185.60755192554464,215.7875303677573 L 198.94964464312227,210.55757940107333 L 193.71969367643828,223.89967211865095 L 206.85211170607246,229.63582256065433 L 193.71969367643828,235.3719730026577 L 198.94964464312227,248.71406572023534 L 185.60755192554464,243.48411475355135 L 179.87140148354126,256.6165327831855 L 174.13525104153788,243.48411475355135 L 160.79315832396026,248.71406572023534 L 166.02310929064427,235.37197300265774 L 152.89069126101006,229.63582256065433 L 166.02310929064427,223.89967211865093 L 160.79315832396026,210.55757940107333 L 174.13525104153786,215.78753036775734 Z" fill="none" stroke="#0F52BA" stroke-width="2.8312067996390198" /><path d="M 239.82853531138835,202.65511233812313 L 245.56468575339173,215.7875303677573 L 258.90677847096936,210.55757940107333 L 253.67682750428537,223.89967211865095 L 266.8092455339195,229.63582256065433 L 253.67682750428537,235.3719730026577 L 258.90677847096936,248.71406572023534 L 245.56468575339173,243.48411475355135 L 239.82853531138835,256.6165327831855 L 234.09238486938497,243.48411475355135 L 220.75029215180734,248.71406572023534 L 225.98024311849136,235.37197300265774 L 212.84782508885715,229.63582256065433 L 225.98024311849136,223.89967211865093 L 220.75029215180734,210.55757940107333 L 234.09238486938494,215.78753036775734 Z" fill="none" stroke="#0F52BA" stroke-width="2.8312067996390198" /><path d="M 299.78566913923544,202.65511233812313 L 305.52181958123884,215.7875303677573 L 318.86391229881644,210.55757940107333 L 313.63396133213246,223.89967211865095 L 326.7663793617666,229.63582256065433 L 313.63396133213246,235.3719730026577 L 318.86391229881644,248.71406572023534 L 305.52181958123884,243.48411475355135 L 299.78566913923544,256.6165327831855 L 294.04951869723203,243.48411475355135 L 280.70742597965443,248.71406572023534 L 285.9373769463384,235.37197300265774 L 272.80495891670427,229.63582256065433 L 285.9373769463384,223.89967211865093 L 280.70742597965443,210.55757940107333 L 294.04951869723203,215.78753036775734 Z" fill="none" stroke="#0F52BA" stroke-width="2.8312067996390198" /><path d="M 359.7428029670825,202.65511233812313 L 365.47895340908593,215.7875303677573 L 378.82104612666353,210.55757940107333 L 373.59109515997955,223.89967211865095 L 386.7235131896137,229.63582256065433 L 373.59109515997955,235.3719730026577 L 378.82104612666353,248.71406572023534 L 365.47895340908593,243.48411475355135 L 359.7428029670825,256.6165327831855 L 354.0066525250791,243.48411475355135 L 340.6645598075015,248.71406572023534 L 345.8945107741855,235.37197300265774 L 332.76209274455135,229.63582256065433 L 345.8945107741855,223.89967211865093 L 340.6645598075015,210.55757940107333 L 354.0066525250791,215.78753036775734 Z" fill="none" stroke="#0F52BA" stroke-width="2.8312067996390198" /><path d="M 419.6999367949296,202.65511233812313 L 425.436087236933,215.7875303677573 L 438.7781799545106,210.55757940107333 L 433.54822898782663,223.89967211865095 L 446.6806470174608,229.63582256065433 L 433.54822898782663,235.3719730026577 L 438.7781799545106,248.71406572023534 L 425.436087236933,243.48411475355135 L 419.6999367949296,256.6165327831855 L 413.9637863529262,243.48411475355135 L 400.6216936353486,248.71406572023534 L 405.8516446020326,235.37197300265774 L 392.71922657239844,229.63582256065433 L 405.8516446020326,223.89967211865093 L 400.6216936353486,210.55757940107333 L 413.9637863529262,215.78753036775734 Z" fill="none" stroke="#0F52BA" stroke-width="2.8312067996390198" /><path d="M 479.6570706227767,202.65511233812313 L 485.3932210647801,215.7875303677573 L 498.7353137823577,210.55757940107333 L 493.5053628156737,223.89967211865095 L 506.6377808453079,229.63582256065433 L 493.5053628156737,235.3719730026577 L 498.7353137823577,248.71406572023534 L 485.3932210647801,243.48411475355135 L 479.6570706227767,256.6165327831855 L 473.9209201807733,243.48411475355135 L 460.5788274631957,248.71406572023534 L 465.8087784298797,235.37197300265774 L 452.6763604002455,229.63582256065433 L 465.8087784298797,223.89967211865093 L 460.5788274631957,210.55757940107333 L 473.9209201807733,215.78753036775734 Z" fill="none" stroke="#0F52BA" stroke-width="2.8312067996390198" /><path d="M 539.6142044506238,202.65511233812313 L 545.3503548926271,215.7875303677573 L 558.6924476102048,210.55757940107333 L 553.4624966435208,223.89967211865095 L 566.594914673155,229.63582256065433 L 553.4624966435208,235.3719730026577 L 558.6924476102048,248.71406572023534 L 545.3503548926271,243.48411475355135 L 539.6142044506238,256.6165327831855 L 533.8780540086204,243.48411475355135 L 520.5359612910428,248.71406572023534 L 525.7659122577268,235.37197300265774 L 512.6334942280926,229.63582256065433 L 525.7659122577268,223.89967211865093 L 520.5359612910428,210.55757940107333 L 533.8780540086204,215.78753036775734 Z" fill="none" stroke="#0F52BA" stroke-width="2.8312067996390198" /><path d="M -29.978566913923544,254.57799023303872 L -24.24241647192015,267.7104082626729 L -10.900323754342534,262.4804572959889 L -16.130274721026538,275.8225500135665 L -2.9978566913923537,281.5587004555699 L -16.130274721026538,287.2948508975733 L -10.900323754342534,300.6369436151509 L -24.24241647192015,295.40699264846694 L -29.978566913923544,308.5394106781011 L -35.714717355926936,295.40699264846694 L -49.05681007350455,300.6369436151509 L -43.82685910682055,287.2948508975733 L -56.95927713645473,281.5587004555699 L -43.82685910682055,275.8225500135665 L -49.05681007350456,262.4804572959889 L -35.71471735592694,267.7104082626729 Z" fill="none" stroke="#0F52BA" stroke-width="2.8312067996390198" /><path d="M 29.978566913923544,254.57799023303872 L 35.714717355926936,267.7104082626729 L 49.05681007350455,262.4804572959889 L 43.82685910682055,275.8225500135665 L 56.95927713645473,281.5587004555699 L 43.82685910682055,287.2948508975733 L 49.05681007350455,300.6369436151509 L 35.714717355926936,295.40699264846694 L 29.978566913923544,308.5394106781011 L 24.242416471920155,295.40699264846694 L 10.900323754342537,300.6369436151509 L 16.13027472102654,287.2948508975733 L 2.9978566913923537,281.5587004555699 L 16.130274721026538,275.8225500135665 L 10.90032375434253,262.4804572959889 L 24.242416471920144,267.7104082626729 Z" fill="none" stroke="#0F52BA" stroke-width="2.8312067996390198" /><path d="M 89.93570074177063,254.57799023303872 L 95.67185118377402,267.7104082626729 L 109.01394390135164,262.4804572959889 L 103.78399293466764,275.8225500135665 L 116.91641096430182,281.5587004555699 L 103.78399293466764,287.2948508975733 L 109.01394390135164,300.6369436151509 L 95.67185118377402,295.40699264846694 L 89.93570074177063,308.5394106781011 L 84.19955029976724,295.40699264846694 L 70.85745758218962,300.6369436151509 L 76.08740854887363,287.2948508975733 L 62.954990519239445,281.5587004555699 L 76.08740854887363,275.8225500135665 L 70.85745758218962,262.4804572959889 L 84.19955029976724,267.7104082626729 Z" fill="none" stroke="#0F52BA" stroke-width="2.8312067996390198" /><path d="M 149.89283456961772,254.57799023303872 L 155.6289850116211,267.7104082626729 L 168.97107772919873,262.4804572959889 L 163.74112676251474,275.8225500135665 L 176.87354479214892,281.5587004555699 L 163.74112676251474,287.2948508975733 L 168.97107772919873,300.6369436151509 L 155.6289850116211,295.40699264846694 L 149.89283456961772,308.5394106781011 L 144.15668412761434,295.40699264846694 L 130.8145914100367,300.6369436151509 L 136.04454237672073,287.2948508975733 L 122.91212434708653,281.5587004555699 L 136.04454237672073,275.8225500135665 L 130.8145914100367,262.4804572959889 L 144.1566841276143,267.7104082626729 Z" fill="none" stroke="#0F52BA" stroke-width="2.8312067996390198" /><path d="M 209.8499683974648,254.57799023303872 L 215.58611883946818,267.7104082626729 L 228.9282115570458,262.4804572959889 L 223.69826059036183,275.8225500135665 L 236.830678619996,281.5587004555699 L 223.69826059036183,287.2948508975733 L 228.9282115570458,300.6369436151509 L 215.58611883946818,295.40699264846694 L 209.8499683974648,308.5394106781011 L 204.11381795546143,295.40699264846694 L 190.7717252378838,300.6369436151509 L 196.00167620456781,287.2948508975733 L 182.8692581749336,281.5587004555699 L 196.00167620456781,275.8225500135665 L 190.7717252378838,262.4804572959889 L 204.1138179554614,267.7104082626729 Z" fill="none" stroke="#0F52BA" stroke-width="2.8312067996390198" /><path d="M 269.8071022253119,254.57799023303872 L 275.5432526673153,267.7104082626729 L 288.8853453848929,262.4804572959889 L 283.6553944182089,275.8225500135665 L 296.78781244784307,281.5587004555699 L 283.6553944182089,287.2948508975733 L 288.8853453848929,300.6369436151509 L 275.5432526673153,295.40699264846694 L 269.8071022253119,308.5394106781011 L 264.0709517833085,295.40699264846694 L 250.7288590657309,300.6369436151509 L 255.9588100324149,287.2948508975733 L 242.8263920027807,281.5587004555699 L 255.9588100324149,275.8225500135665 L 250.7288590657309,262.4804572959889 L 264.0709517833085,267.7104082626729 Z" fill="none" stroke="#0F52BA" stroke-width="2.8312067996390198" /><path d="M 329.764236053159,254.57799023303872 L 335.5003864951624,267.7104082626729 L 348.84247921274,262.4804572959889 L 343.612528246056,275.8225500135665 L 356.74494627569015,281.5587004555699 L 343.612528246056,287.2948508975733 L 348.84247921274,300.6369436151509 L 335.5003864951624,295.40699264846694 L 329.764236053159,308.5394106781011 L 324.0280856111556,295.40699264846694 L 310.685992893578,300.6369436151509 L 315.91594386026196,287.2948508975733 L 302.7835258306278,281.5587004555699 L 315.91594386026196,275.8225500135665 L 310.685992893578,262.4804572959889 L 324.0280856111556,267.7104082626729 Z" fill="none" stroke="#0F52BA" stroke-width="2.8312067996390198" /><path d="M 389.72136988100607,254.57799023303872 L 395.4575203230095,267.7104082626729 L 408.7996130405871,262.4804572959889 L 403.5696620739031,275.8225500135665 L 416.70208010353724,281.5587004555699 L 403.5696620739031,287.2948508975733 L 408.7996130405871,300.6369436151509 L 395.4575203230095,295.40699264846694 L 389.72136988100607,308.5394106781011 L 383.98521943900266,295.40699264846694 L 370.64312672142506,300.6369436151509 L 375.87307768810905,287.2948508975733 L 362.7406596584749,281.5587004555699 L 375.87307768810905,275.8225500135665 L 370.64312672142506,262.4804572959889 L 383.98521943900266,267.7104082626729 Z" fill="none" stroke="#0F52BA" stroke-width="2.8312067996390198" /><path d="M 449.67850370885316,254.57799023303872 L 455.41465415085656,267.7104082626729 L 468.75674686843416,262.4804572959889 L 463.5267959017502,275.8225500135665 L 476.65921393138433,281.5587004555699 L 463.5267959017502,287.2948508975733 L 468.75674686843416,300.6369436151509 L 455.41465415085656,295.40699264846694 L 449.67850370885316,308.5394106781011 L 443.94235326684975,295.40699264846694 L 430.60026054927215,300.6369436151509 L 435.83021151595614,287.2948508975733 L 422.697793486322,281.5587004555699 L 435.83021151595614,275.8225500135665 L 430.60026054927215,262.4804572959889 L 443.94235326684975,267.7104082626729 Z" fill="none" stroke="#0F52BA" stroke-width="2.8312067996390198" /><path d="M 509.63563753670024,254.57799023303872 L 515.3717879787037,267.7104082626729 L 528.7138806962813,262.4804572959889 L 523.4839297295972,275.8225500135665 L 536.6163477592314,281.5587004555699 L 523.4839297295972,287.2948508975733 L 528.7138806962813,300.6369436151509 L 515.3717879787037,295.40699264846694 L 509.63563753670024,308.5394106781011 L 503.89948709469684,295.40699264846694 L 490.55739437711924,300.6369436151509 L 495.7873453438032,287.2948508975733 L 482.6549273141691,281.5587004555699 L 495.7873453438032,275.8225500135665 L 490.55739437711924,262.4804572959889 L 503.89948709469684,267.7104082626729 Z" fill="none" stroke="#0F52BA" stroke-width="2.8312067996390198" /><path d="M 569.5927713645474,254.57799023303872 L 575.3289218065507,267.7104082626729 L 588.6710145241284,262.4804572959889 L 583.4410635574444,275.8225500135665 L 596.5734815870786,281.5587004555699 L 583.4410635574444,287.2948508975733 L 588.6710145241284,300.6369436151509 L 575.3289218065507,295.40699264846694 L 569.5927713645474,308.5394106781011 L 563.856620922544,295.40699264846694 L 550.5145282049664,300.6369436151509 L 555.7444791716504,287.2948508975733 L 542.6120611420162,281.5587004555699 L 555.7444791716504,275.8225500135665 L 550.5145282049664,262.4804572959889 L 563.856620922544,267.7104082626729 Z" fill="none" stroke="#0F52BA" stroke-width="2.8312067996390198" /><path d="M 1.6520920206372547e-15,306.50086812795433 L 5.736150442003391,319.6332861575885 L 19.07824315958101,314.4033351909045 L 13.848292192897006,327.7454279084821 L 26.98071022253119,333.4815783504855 L 13.848292192897006,339.2177287924889 L 19.07824315958101,352.5598215100665 L 5.736150442003391,347.3298705433825 L 1.6520920206372547e-15,360.4622885730167 L -5.736150442003389,347.3298705433825 L -19.078243159581007,352.5598215100665 L -13.848292192897002,339.2177287924889 L -26.98071022253119,333.4815783504855 L -13.848292192897004,327.7454279084821 L -19.078243159581014,314.4033351909045 L -5.736150442003398,319.6332861575885 Z" fill="none" stroke="#0F52BA" stroke-width="2.8312067996390198" /><path d="M 59.95713382784709,306.50086812795433 L 65.69328426985048,319.6332861575885 L 79.0353769874281,314.4033351909045 L 73.8054260207441,327.7454279084821 L 86.93784405037827,333.4815783504855 L 73.8054260207441,339.2177287924889 L 79.0353769874281,352.5598215100665 L 65.69328426985048,347.3298705433825 L 59.95713382784709,360.4622885730167 L 54.220983385843695,347.3298705433825 L 40.87889066826608,352.5598215100665 L 46.10884163495008,339.2177287924889 L 32.9764236053159,333.4815783504855 L 46.10884163495008,327.7454279084821 L 40.878890668266074,314.4033351909045 L 54.22098338584369,319.6332861575885 Z" fill="none" stroke="#0F52BA" stroke-width="2.8312067996390198" /><path d="M 119.91426765569418,306.50086812795433 L 125.65041809769757,319.6332861575885 L 138.99251081527518,314.4033351909045 L 133.7625598485912,327.7454279084821 L 146.89497787822538,333.4815783504855 L 133.7625598485912,339.2177287924889 L 138.99251081527518,352.5598215100665 L 125.65041809769757,347.3298705433825 L 119.91426765569418,360.4622885730167 L 114.17811721369078,347.3298705433825 L 100.83602449611317,352.5598215100665 L 106.06597546279717,339.2177287924889 L 92.93355743316299,333.4815783504855 L 106.06597546279717,327.7454279084821 L 100.83602449611317,314.4033351909045 L 114.17811721369078,319.6332861575885 Z" fill="none" stroke="#0F52BA" stroke-width="2.8312067996390198" /><path d="M 179.87140148354126,306.50086812795433 L 185.60755192554464,319.6332861575885 L 198.94964464312227,314.4033351909045 L 193.71969367643828,327.7454279084821 L 206.85211170607246,333.4815783504855 L 193.71969367643828,339.2177287924889 L 198.94964464312227,352.5598215100665 L 185.60755192554464,347.3298705433825 L 179.87140148354126,360.4622885730167 L 174.13525104153788,347.3298705433825 L 160.79315832396026,352.5598215100665 L 166.02310929064427,339.2177287924889 L 152.89069126101006,333.4815783504855 L 166.02310929064427,327.7454279084821 L 160.79315832396026,314.4033351909045 L 174.13525104153786,319.6332861575885 Z" fill="none" stroke="#0F52BA" stroke-width="2.8312067996390198" /><path d="M 239.82853531138835,306.50086812795433 L 245.56468575339173,319.6332861575885 L 258.90677847096936,314.4033351909045 L 253.67682750428537,327.7454279084821 L 266.8092455339195,333.4815783504855 L 253.67682750428537,339.2177287924889 L 258.90677847096936,352.5598215100665 L 245.56468575339173,347.3298705433825 L 239.82853531138835,360.4622885730167 L 234.09238486938497,347.3298705433825 L 220.75029215180734,352.5598215100665 L 225.98024311849136,339.2177287924889 L 212.84782508885715,333.4815783504855 L 225.98024311849136,327.7454279084821 L 220.75029215180734,314.4033351909045 L 234.09238486938494,319.6332861575885 Z" fill="none" stroke="#0F52BA" stroke-width="2.8312067996390198" /><path d="M 299.78566913923544,306.50086812795433 L 305.52181958123884,319.6332861575885 L 318.86391229881644,314.4033351909045 L 313.63396133213246,327.7454279084821 L 326.7663793617666,333.4815783504855 L 313.63396133213246,339.2177287924889 L 318.86391229881644,352.5598215100665 L 305.52181958123884,347.3298705433825 L 299.78566913923544,360.4622885730167 L 294.04951869723203,347.3298705433825 L 280.70742597965443,352.5598215100665 L 285.9373769463384,339.2177287924889 L 272.80495891670427,333.4815783504855 L 285.9373769463384,327.7454279084821 L 280.70742597965443,314.4033351909045 L 294.04951869723203,319.6332861575885 Z" fill="none" stroke="#0F52BA" stroke-width="2.8312067996390198" /><path d="M 359.7428029670825,306.50086812795433 L 365.47895340908593,319.6332861575885 L 378.82104612666353,314.4033351909045 L 373.59109515997955,327.7454279084821 L 386.7235131896137,333.4815783504855 L 373.59109515997955,339.2177287924889 L 378.82104612666353,352.5598215100665 L 365.47895340908593,347.3298705433825 L 359.7428029670825,360.4622885730167 L 354.0066525250791,347.3298705433825 L 340.6645598075015,352.5598215100665 L 345.8945107741855,339.2177287924889 L 332.76209274455135,333.4815783504855 L 345.8945107741855,327.7454279084821 L 340.6645598075015,314.4033351909045 L 354.0066525250791,319.6332861575885 Z" fill="none" stroke="#0F52BA" stroke-width="2.8312067996390198" /><path d="M 419.6999367949296,306.50086812795433 L 425.436087236933,319.6332861575885 L 438.7781799545106,314.4033351909045 L 433.54822898782663,327.7454279084821 L 446.6806470174608,333.4815783504855 L 433.54822898782663,339.2177287924889 L 438.7781799545106,352.5598215100665 L 425.436087236933,347.3298705433825 L 419.6999367949296,360.4622885730167 L 413.9637863529262,347.3298705433825 L 400.6216936353486,352.5598215100665 L 405.8516446020326,339.2177287924889 L 392.71922657239844,333.4815783504855 L 405.8516446020326,327.7454279084821 L 400.6216936353486,314.4033351909045 L 413.9637863529262,319.6332861575885 Z" fill="none" stroke="#0F52BA" stroke-width="2.8312067996390198" /><path d="M 479.6570706227767,306.50086812795433 L 485.3932210647801,319.6332861575885 L 498.7353137823577,314.4033351909045 L 493.5053628156737,327.7454279084821 L 506.6377808453079,333.4815783504855 L 493.5053628156737,339.2177287924889 L 498.7353137823577,352.5598215100665 L 485.3932210647801,347.3298705433825 L 479.6570706227767,360.4622885730167 L 473.9209201807733,347.3298705433825 L 460.5788274631957,352.5598215100665 L 465.8087784298797,339.2177287924889 L 452.6763604002455,333.4815783504855 L 465.8087784298797,327.7454279084821 L 460.5788274631957,314.4033351909045 L 473.9209201807733,319.6332861575885 Z" fill="none" stroke="#0F52BA" stroke-width="2.8312067996390198" /><path d="M 539.6142044506238,306.50086812795433 L 545.3503548926271,319.6332861575885 L 558.6924476102048,314.4033351909045 L 553.4624966435208,327.7454279084821 L 566.594914673155,333.4815783504855 L 553.4624966435208,339.2177287924889 L 558.6924476102048,352.5598215100665 L 545.3503548926271,347.3298705433825 L 539.6142044506238,360.4622885730167 L 533.8780540086204,347.3298705433825 L 520.5359612910428,352.5598215100665 L 525.7659122577268,339.2177287924889 L 512.6334942280926,333.4815783504855 L 525.7659122577268,327.7454279084821 L 520.5359612910428,314.4033351909045 L 533.8780540086204,319.6332861575885 Z" fill="none" stroke="#0F52BA" stroke-width="2.8312067996390198" /><path d="M -29.978566913923544,358.4237460228699 L -24.24241647192015,371.5561640525041 L -10.900323754342534,366.3262130858201 L -16.130274721026538,379.6683058033977 L -2.9978566913923537,385.4044562454011 L -16.130274721026538,391.1406066874045 L -10.900323754342534,404.4826994049821 L -24.24241647192015,399.2527484382981 L -29.978566913923544,412.38516646793227 L -35.714717355926936,399.2527484382981 L -49.05681007350455,404.4826994049821 L -43.82685910682055,391.1406066874045 L -56.95927713645473,385.4044562454011 L -43.82685910682055,379.6683058033977 L -49.05681007350456,366.3262130858201 L -35.71471735592694,371.5561640525041 Z" fill="none" stroke="#0F52BA" stroke-width="2.8312067996390198" /><path d="M 29.978566913923544,358.4237460228699 L 35.714717355926936,371.5561640525041 L 49.05681007350455,366.3262130858201 L 43.82685910682055,379.6683058033977 L 56.95927713645473,385.4044562454011 L 43.82685910682055,391.1406066874045 L 49.05681007350455,404.4826994049821 L 35.714717355926936,399.2527484382981 L 29.978566913923544,412.38516646793227 L 24.242416471920155,399.2527484382981 L 10.900323754342537,404.4826994049821 L 16.13027472102654,391.1406066874045 L 2.9978566913923537,385.4044562454011 L 16.130274721026538,379.6683058033977 L 10.90032375434253,366.3262130858201 L 24.242416471920144,371.5561640525041 Z" fill="none" stroke="#0F52BA" stroke-width="2.8312067996390198" /><path d="M 89.93570074177063,358.4237460228699 L 95.67185118377402,371.5561640525041 L 109.01394390135164,366.3262130858201 L 103.78399293466764,379.6683058033977 L 116.91641096430182,385.4044562454011 L 103.78399293466764,391.1406066874045 L 109.01394390135164,404.4826994049821 L 95.67185118377402,399.2527484382981 L 89.93570074177063,412.38516646793227 L 84.19955029976724,399.2527484382981 L 70.85745758218962,404.4826994049821 L 76.08740854887363,391.1406066874045 L 62.954990519239445,385.4044562454011 L 76.08740854887363,379.6683058033977 L 70.85745758218962,366.3262130858201 L 84.19955029976724,371.5561640525041 Z" fill="none" stroke="#0F52BA" stroke-width="2.8312067996390198" /><path d="M 149.89283456961772,358.4237460228699 L 155.6289850116211,371.5561640525041 L 168.97107772919873,366.3262130858201 L 163.74112676251474,379.6683058033977 L 176.87354479214892,385.4044562454011 L 163.74112676251474,391.1406066874045 L 168.97107772919873,404.4826994049821 L 155.6289850116211,399.2527484382981 L 149.89283456961772,412.38516646793227 L 144.15668412761434,399.2527484382981 L 130.8145914100367,404.4826994049821 L 136.04454237672073,391.1406066874045 L 122.91212434708653,385.4044562454011 L 136.04454237672073,379.6683058033977 L 130.8145914100367,366.3262130858201 L 144.1566841276143,371.5561640525041 Z" fill="none" stroke="#0F52BA" stroke-width="2.8312067996390198" /><path d="M 209.8499683974648,358.4237460228699 L 215.58611883946818,371.5561640525041 L 228.9282115570458,366.3262130858201 L 223.69826059036183,379.6683058033977 L 236.830678619996,385.4044562454011 L 223.69826059036183,391.1406066874045 L 228.9282115570458,404.4826994049821 L 215.58611883946818,399.2527484382981 L 209.8499683974648,412.38516646793227 L 204.11381795546143,399.2527484382981 L 190.7717252378838,404.4826994049821 L 196.00167620456781,391.1406066874045 L 182.8692581749336,385.4044562454011 L 196.00167620456781,379.6683058033977 L 190.7717252378838,366.3262130858201 L 204.1138179554614,371.5561640525041 Z" fill="none" stroke="#0F52BA" stroke-width="2.8312067996390198" /><path d="M 269.8071022253119,358.4237460228699 L 275.5432526673153,371.5561640525041 L 288.8853453848929,366.3262130858201 L 283.6553944182089,379.6683058033977 L 296.78781244784307,385.4044562454011 L 283.6553944182089,391.1406066874045 L 288.8853453848929,404.4826994049821 L 275.5432526673153,399.2527484382981 L 269.8071022253119,412.38516646793227 L 264.0709517833085,399.2527484382981 L 250.7288590657309,404.4826994049821 L 255.9588100324149,391.1406066874045 L 242.8263920027807,385.4044562454011 L 255.9588100324149,379.6683058033977 L 250.7288590657309,366.3262130858201 L 264.0709517833085,371.5561640525041 Z" fill="none" stroke="#0F52BA" stroke-width="2.8312067996390198" /><path d="M 329.764236053159,358.4237460228699 L 335.5003864951624,371.5561640525041 L 348.84247921274,366.3262130858201 L 343.612528246056,379.6683058033977 L 356.74494627569015,385.4044562454011 L 343.612528246056,391.1406066874045 L 348.84247921274,404.4826994049821 L 335.5003864951624,399.2527484382981 L 329.764236053159,412.38516646793227 L 324.0280856111556,399.2527484382981 L 310.685992893578,404.4826994049821 L 315.91594386026196,391.1406066874045 L 302.7835258306278,385.4044562454011 L 315.91594386026196,379.6683058033977 L 310.685992893578,366.3262130858201 L 324.0280856111556,371.5561640525041 Z" fill="none" stroke="#0F52BA" stroke-width="2.8312067996390198" /><path d="M 389.72136988100607,358.4237460228699 L 395.4575203230095,371.5561640525041 L 408.7996130405871,366.3262130858201 L 403.5696620739031,379.6683058033977 L 416.70208010353724,385.4044562454011 L 403.5696620739031,391.1406066874045 L 408.7996130405871,404.4826994049821 L 395.4575203230095,399.2527484382981 L 389.72136988100607,412.38516646793227 L 383.98521943900266,399.2527484382981 L 370.64312672142506,404.4826994049821 L 375.87307768810905,391.1406066874045 L 362.7406596584749,385.4044562454011 L 375.87307768810905,379.6683058033977 L 370.64312672142506,366.3262130858201 L 383.98521943900266,371.5561640525041 Z" fill="none" stroke="#0F52BA" stroke-width="2.8312067996390198" /><path d="M 449.67850370885316,358.4237460228699 L 455.41465415085656,371.5561640525041 L 468.75674686843416,366.3262130858201 L 463.5267959017502,379.6683058033977 L 476.65921393138433,385.4044562454011 L 463.5267959017502,391.1406066874045 L 468.75674686843416,404.4826994049821 L 455.41465415085656,399.2527484382981 L 449.67850370885316,412.38516646793227 L 443.94235326684975,399.2527484382981 L 430.60026054927215,404.4826994049821 L 435.83021151595614,391.1406066874045 L 422.697793486322,385.4044562454011 L 435.83021151595614,379.6683058033977 L 430.60026054927215,366.3262130858201 L 443.94235326684975,371.5561640525041 Z" fill="none" stroke="#0F52BA" stroke-width="2.8312067996390198" /><path d="M 509.63563753670024,358.4237460228699 L 515.3717879787037,371.5561640525041 L 528.7138806962813,366.3262130858201 L 523.4839297295972,379.6683058033977 L 536.6163477592314,385.4044562454011 L 523.4839297295972,391.1406066874045 L 528.7138806962813,404.4826994049821 L 515.3717879787037,399.2527484382981 L 509.63563753670024,412.38516646793227 L 503.89948709469684,399.2527484382981 L 490.55739437711924,404.4826994049821 L 495.7873453438032,391.1406066874045 L 482.6549273141691,385.4044562454011 L 495.7873453438032,379.6683058033977 L 490.55739437711924,366.3262130858201 L 503.89948709469684,371.5561640525041 Z" fill="none" stroke="#0F52BA" stroke-width="2.8312067996390198" /><path d="M 569.5927713645474,358.4237460228699 L 575.3289218065507,371.5561640525041 L 588.6710145241284,366.3262130858201 L 583.4410635574444,379.6683058033977 L 596.5734815870786,385.4044562454011 L 583.4410635574444,391.1406066874045 L 588.6710145241284,404.4826994049821 L 575.3289218065507,399.2527484382981 L 569.5927713645474,412.38516646793227 L 563.856620922544,399.2527484382981 L 550.5145282049664,404.4826994049821 L 555.7444791716504,391.1406066874045 L 542.6120611420162,385.4044562454011 L 555.7444791716504,379.6683058033977 L 550.5145282049664,366.3262130858201 L 563.856620922544,371.5561640525041 Z" fill="none" stroke="#0F52BA" stroke-width="2.8312067996390198" /><path d="M 1.6520920206372547e-15,410.3466239177855 L 5.736150442003391,423.47904194741966 L 19.07824315958101,418.2490909807357 L 13.848292192897006,431.5911836983133 L 26.98071022253119,437.3273341403167 L 13.848292192897006,443.0634845823201 L 19.07824315958101,456.4055772998977 L 5.736150442003391,451.1756263332137 L 1.6520920206372547e-15,464.30804436284785 L -5.736150442003389,451.1756263332137 L -19.078243159581007,456.4055772998977 L -13.848292192897002,443.0634845823201 L -26.98071022253119,437.3273341403167 L -13.848292192897004,431.5911836983133 L -19.078243159581014,418.2490909807357 L -5.736150442003398,423.47904194741966 Z" fill="none" stroke="#0F52BA" stroke-width="2.8312067996390198" /><path d="M 59.95713382784709,410.3466239177855 L 65.69328426985048,423.47904194741966 L 79.0353769874281,418.2490909807357 L 73.8054260207441,431.5911836983133 L 86.93784405037827,437.3273341403167 L 73.8054260207441,443.0634845823201 L 79.0353769874281,456.4055772998977 L 65.69328426985048,451.1756263332137 L 59.95713382784709,464.30804436284785 L 54.220983385843695,451.1756263332137 L 40.87889066826608,456.4055772998977 L 46.10884163495008,443.0634845823201 L 32.9764236053159,437.3273341403167 L 46.10884163495008,431.5911836983133 L 40.878890668266074,418.2490909807357 L 54.22098338584369,423.47904194741966 Z" fill="none" stroke="#0F52BA" stroke-width="2.8312067996390198" /><path d="M 119.91426765569418,410.3466239177855 L 125.65041809769757,423.47904194741966 L 138.99251081527518,418.2490909807357 L 133.7625598485912,431.5911836983133 L 146.89497787822538,437.3273341403167 L 133.7625598485912,443.0634845823201 L 138.99251081527518,456.4055772998977 L 125.65041809769757,451.1756263332137 L 119.91426765569418,464.30804436284785 L 114.17811721369078,451.1756263332137 L 100.83602449611317,456.4055772998977 L 106.06597546279717,443.0634845823201 L 92.93355743316299,437.3273341403167 L 106.06597546279717,431.5911836983133 L 100.83602449611317,418.2490909807357 L 114.17811721369078,423.47904194741966 Z" fill="none" stroke="#0F52BA" stroke-width="2.8312067996390198" /><path d="M 179.87140148354126,410.3466239177855 L 185.60755192554464,423.47904194741966 L 198.94964464312227,418.2490909807357 L 193.71969367643828,431.5911836983133 L 206.85211170607246,437.3273341403167 L 193.71969367643828,443.0634845823201 L 198.94964464312227,456.4055772998977 L 185.60755192554464,451.1756263332137 L 179.87140148354126,464.30804436284785 L 174.13525104153788,451.1756263332137 L 160.79315832396026,456.4055772998977 L 166.02310929064427,443.0634845823201 L 152.89069126101006,437.3273341403167 L 166.02310929064427,431.5911836983133 L 160.79315832396026,418.2490909807357 L 174.13525104153786,423.47904194741966 Z" fill="none" stroke="#0F52BA" stroke-width="2.8312067996390198" /><path d="M 239.82853531138835,410.3466239177855 L 245.56468575339173,423.47904194741966 L 258.90677847096936,418.2490909807357 L 253.67682750428537,431.5911836983133 L 266.8092455339195,437.3273341403167 L 253.67682750428537,443.0634845823201 L 258.90677847096936,456.4055772998977 L 245.56468575339173,451.1756263332137 L 239.82853531138835,464.30804436284785 L 234.09238486938497,451.1756263332137 L 220.75029215180734,456.4055772998977 L 225.98024311849136,443.0634845823201 L 212.84782508885715,437.3273341403167 L 225.98024311849136,431.5911836983133 L 220.75029215180734,418.2490909807357 L 234.09238486938494,423.47904194741966 Z" fill="none" stroke="#0F52BA" stroke-width="2.8312067996390198" /><path d="M 299.78566913923544,410.3466239177855 L 305.52181958123884,423.47904194741966 L 318.86391229881644,418.2490909807357 L 313.63396133213246,431.5911836983133 L 326.7663793617666,437.3273341403167 L 313.63396133213246,443.0634845823201 L 318.86391229881644,456.4055772998977 L 305.52181958123884,451.1756263332137 L 299.78566913923544,464.30804436284785 L 294.04951869723203,451.1756263332137 L 280.70742597965443,456.4055772998977 L 285.9373769463384,443.0634845823201 L 272.80495891670427,437.3273341403167 L 285.9373769463384,431.5911836983133 L 280.70742597965443,418.2490909807357 L 294.04951869723203,423.47904194741966 Z" fill="none" stroke="#0F52BA" stroke-width="2.8312067996390198" /><path d="M 359.7428029670825,410.3466239177855 L 365.47895340908593,423.47904194741966 L 378.82104612666353,418.2490909807357 L 373.59109515997955,431.5911836983133 L 386.7235131896137,437.3273341403167 L 373.59109515997955,443.0634845823201 L 378.82104612666353,456.4055772998977 L 365.47895340908593,451.1756263332137 L 359.7428029670825,464.30804436284785 L 354.0066525250791,451.1756263332137 L 340.6645598075015,456.4055772998977 L 345.8945107741855,443.0634845823201 L 332.76209274455135,437.3273341403167 L 345.8945107741855,431.5911836983133 L 340.6645598075015,418.2490909807357 L 354.0066525250791,423.47904194741966 Z" fill="none" stroke="#0F52BA" stroke-width="2.8312067996390198" /><path d="M 419.6999367949296,410.3466239177855 L 425.436087236933,423.47904194741966 L 438.7781799545106,418.2490909807357 L 433.54822898782663,431.5911836983133 L 446.6806470174608,437.3273341403167 L 433.54822898782663,443.0634845823201 L 438.7781799545106,456.4055772998977 L 425.436087236933,451.1756263332137 L 419.6999367949296,464.30804436284785 L 413.9637863529262,451.1756263332137 L 400.6216936353486,456.4055772998977 L 405.8516446020326,443.0634845823201 L 392.71922657239844,437.3273341403167 L 405.8516446020326,431.5911836983133 L 400.6216936353486,418.2490909807357 L 413.9637863529262,423.47904194741966 Z" fill="none" stroke="#0F52BA" stroke-width="2.8312067996390198" /><path d="M 479.6570706227767,410.3466239177855 L 485.3932210647801,423.47904194741966 L 498.7353137823577,418.2490909807357 L 493.5053628156737,431.5911836983133 L 506.6377808453079,437.3273341403167 L 493.5053628156737,443.0634845823201 L 498.7353137823577,456.4055772998977 L 485.3932210647801,451.1756263332137 L 479.6570706227767,464.30804436284785 L 473.9209201807733,451.1756263332137 L 460.5788274631957,456.4055772998977 L 465.8087784298797,443.0634845823201 L 452.6763604002455,437.3273341403167 L 465.8087784298797,431.5911836983133 L 460.5788274631957,418.2490909807357 L 473.9209201807733,423.47904194741966 Z" fill="none" stroke="#0F52BA" stroke-width="2.8312067996390198" /><path d="M 539.6142044506238,410.3466239177855 L 545.3503548926271,423.47904194741966 L 558.6924476102048,418.2490909807357 L 553.4624966435208,431.5911836983133 L 566.594914673155,437.3273341403167 L 553.4624966435208,443.0634845823201 L 558.6924476102048,456.4055772998977 L 545.3503548926271,451.1756263332137 L 539.6142044506238,464.30804436284785 L 533.8780540086204,451.1756263332137 L 520.5359612910428,456.4055772998977 L 525.7659122577268,443.0634845823201 L 512.6334942280926,437.3273341403167 L 525.7659122577268,431.5911836983133 L 520.5359612910428,418.2490909807357 L 533.8780540086204,423.47904194741966 Z" fill="none" stroke="#0F52BA" stroke-width="2.8312067996390198" /><path d="M -29.978566913923544,462.26950181270104 L -24.24241647192015,475.4019198423352 L -10.900323754342534,470.1719688756512 L -16.130274721026538,483.5140615932288 L -2.9978566913923537,489.2502120352322 L -16.130274721026538,494.9863624772356 L -10.900323754342534,508.3284551948132 L -24.24241647192015,503.09850422812923 L -29.978566913923544,516.2309222577634 L -35.714717355926936,503.09850422812923 L -49.05681007350455,508.3284551948132 L -43.82685910682055,494.9863624772356 L -56.95927713645473,489.2502120352322 L -43.82685910682055,483.5140615932288 L -49.05681007350456,470.1719688756512 L -35.71471735592694,475.4019198423352 Z" fill="none" stroke="#0F52BA" stroke-width="2.8312067996390198" /><path d="M 29.978566913923544,462.26950181270104 L 35.714717355926936,475.4019198423352 L 49.05681007350455,470.1719688756512 L 43.82685910682055,483.5140615932288 L 56.95927713645473,489.2502120352322 L 43.82685910682055,494.9863624772356 L 49.05681007350455,508.3284551948132 L 35.714717355926936,503.09850422812923 L 29.978566913923544,516.2309222577634 L 24.242416471920155,503.09850422812923 L 10.900323754342537,508.3284551948132 L 16.13027472102654,494.9863624772356 L 2.9978566913923537,489.2502120352322 L 16.130274721026538,483.5140615932288 L 10.90032375434253,470.1719688756512 L 24.242416471920144,475.4019198423352 Z" fill="none" stroke="#0F52BA" stroke-width="2.8312067996390198" /><path d="M 89.93570074177063,462.26950181270104 L 95.67185118377402,475.4019198423352 L 109.01394390135164,470.1719688756512 L 103.78399293466764,483.5140615932288 L 116.91641096430182,489.2502120352322 L 103.78399293466764,494.9863624772356 L 109.01394390135164,508.3284551948132 L 95.67185118377402,503.09850422812923 L 89.93570074177063,516.2309222577634 L 84.19955029976724,503.09850422812923 L 70.85745758218962,508.3284551948132 L 76.08740854887363,494.9863624772356 L 62.954990519239445,489.2502120352322 L 76.08740854887363,483.5140615932288 L 70.85745758218962,470.1719688756512 L 84.19955029976724,475.4019198423352 Z" fill="none" stroke="#0F52BA" stroke-width="2.8312067996390198" /><path d="M 149.89283456961772,462.26950181270104 L 155.6289850116211,475.4019198423352 L 168.97107772919873,470.1719688756512 L 163.74112676251474,483.5140615932288 L 176.87354479214892,489.2502120352322 L 163.74112676251474,494.9863624772356 L 168.97107772919873,508.3284551948132 L 155.6289850116211,503.09850422812923 L 149.89283456961772,516.2309222577634 L 144.15668412761434,503.09850422812923 L 130.8145914100367,508.3284551948132 L 136.04454237672073,494.9863624772356 L 122.91212434708653,489.2502120352322 L 136.04454237672073,483.5140615932288 L 130.8145914100367,470.1719688756512 L 144.1566841276143,475.4019198423352 Z" fill="none" stroke="#0F52BA" stroke-width="2.8312067996390198" /><path d="M 209.8499683974648,462.26950181270104 L 215.58611883946818,475.4019198423352 L 228.9282115570458,470.1719688756512 L 223.69826059036183,483.5140615932288 L 236.830678619996,489.2502120352322 L 223.69826059036183,494.9863624772356 L 228.9282115570458,508.3284551948132 L 215.58611883946818,503.09850422812923 L 209.8499683974648,516.2309222577634 L 204.11381795546143,503.09850422812923 L 190.7717252378838,508.3284551948132 L 196.00167620456781,494.9863624772356 L 182.8692581749336,489.2502120352322 L 196.00167620456781,483.5140615932288 L 190.7717252378838,470.1719688756512 L 204.1138179554614,475.4019198423352 Z" fill="none" stroke="#0F52BA" stroke-width="2.8312067996390198" /><path d="M 269.8071022253119,462.26950181270104 L 275.5432526673153,475.4019198423352 L 288.8853453848929,470.1719688756512 L 283.6553944182089,483.5140615932288 L 296.78781244784307,489.2502120352322 L 283.6553944182089,494.9863624772356 L 288.8853453848929,508.3284551948132 L 275.5432526673153,503.09850422812923 L 269.8071022253119,516.2309222577634 L 264.0709517833085,503.09850422812923 L 250.7288590657309,508.3284551948132 L 255.9588100324149,494.9863624772356 L 242.8263920027807,489.2502120352322 L 255.9588100324149,483.5140615932288 L 250.7288590657309,470.1719688756512 L 264.0709517833085,475.4019198423352 Z" fill="none" stroke="#0F52BA" stroke-width="2.8312067996390198" /><path d="M 329.764236053159,462.26950181270104 L 335.5003864951624,475.4019198423352 L 348.84247921274,470.1719688756512 L 343.612528246056,483.5140615932288 L 356.74494627569015,489.2502120352322 L 343.612528246056,494.9863624772356 L 348.84247921274,508.3284551948132 L 335.5003864951624,503.09850422812923 L 329.764236053159,516.2309222577634 L 324.0280856111556,503.09850422812923 L 310.685992893578,508.3284551948132 L 315.91594386026196,494.9863624772356 L 302.7835258306278,489.2502120352322 L 315.91594386026196,483.5140615932288 L 310.685992893578,470.1719688756512 L 324.0280856111556,475.4019198423352 Z" fill="none" stroke="#0F52BA" stroke-width="2.8312067996390198" /><path d="M 389.72136988100607,462.26950181270104 L 395.4575203230095,475.4019198423352 L 408.7996130405871,470.1719688756512 L 403.5696620739031,483.5140615932288 L 416.70208010353724,489.2502120352322 L 403.5696620739031,494.9863624772356 L 408.7996130405871,508.3284551948132 L 395.4575203230095,503.09850422812923 L 389.72136988100607,516.2309222577634 L 383.98521943900266,503.09850422812923 L 370.64312672142506,508.3284551948132 L 375.87307768810905,494.9863624772356 L 362.7406596584749,489.2502120352322 L 375.87307768810905,483.5140615932288 L 370.64312672142506,470.1719688756512 L 383.98521943900266,475.4019198423352 Z" fill="none" stroke="#0F52BA" stroke-width="2.8312067996390198" /><path d="M 449.67850370885316,462.26950181270104 L 455.41465415085656,475.4019198423352 L 468.75674686843416,470.1719688756512 L 463.5267959017502,483.5140615932288 L 476.65921393138433,489.2502120352322 L 463.5267959017502,494.9863624772356 L 468.75674686843416,508.3284551948132 L 455.41465415085656,503.09850422812923 L 449.67850370885316,516.2309222577634 L 443.94235326684975,503.09850422812923 L 430.60026054927215,508.3284551948132 L 435.83021151595614,494.9863624772356 L 422.697793486322,489.2502120352322 L 435.83021151595614,483.5140615932288 L 430.60026054927215,470.1719688756512 L 443.94235326684975,475.4019198423352 Z" fill="none" stroke="#0F52BA" stroke-width="2.8312067996390198" /><path d="M 509.63563753670024,462.26950181270104 L 515.3717879787037,475.4019198423352 L 528.7138806962813,470.1719688756512 L 523.4839297295972,483.5140615932288 L 536.6163477592314,489.2502120352322 L 523.4839297295972,494.9863624772356 L 528.7138806962813,508.3284551948132 L 515.3717879787037,503.09850422812923 L 509.63563753670024,516.2309222577634 L 503.89948709469684,503.09850422812923 L 490.55739437711924,508.3284551948132 L 495.7873453438032,494.9863624772356 L 482.6549273141691,489.2502120352322 L 495.7873453438032,483.5140615932288 L 490.55739437711924,470.1719688756512 L 503.89948709469684,475.4019198423352 Z" fill="none" stroke="#0F52BA" stroke-width="2.8312067996390198" /><path d="M 569.5927713645474,462.26950181270104 L 575.3289218065507,475.4019198423352 L 588.6710145241284,470.1719688756512 L 583.4410635574444,483.5140615932288 L 596.5734815870786,489.2502120352322 L 583.4410635574444,494.9863624772356 L 588.6710145241284,508.3284551948132 L 575.3289218065507,503.09850422812923 L 569.5927713645474,516.2309222577634 L 563.856620922544,503.09850422812923 L 550.5145282049664,508.3284551948132 L 555.7444791716504,494.9863624772356 L 542.6120611420162,489.2502120352322 L 555.7444791716504,483.5140615932288 L 550.5145282049664,470.1719688756512 L 563.856620922544,475.4019198423352 Z" fill="none" stroke="#0F52BA" stroke-width="2.8312067996390198" /><line x1="26.98071022253119" y1="21.944310980992036" x2="32.9764236053159" y2="21.944310980992036" stroke="#0F52BA" stroke-width="0.5"/><line x1="86.93784405037827" y1="21.944310980992036" x2="92.93355743316299" y2="21.944310980992036" stroke="#0F52BA" stroke-width="0.5"/><line x1="146.89497787822538" y1="21.944310980992036" x2="152.89069126101006" y2="21.944310980992036" stroke="#0F52BA" stroke-width="0.5"/><line x1="206.85211170607246" y1="21.944310980992036" x2="212.84782508885715" y2="21.944310980992036" stroke="#0F52BA" stroke-width="0.5"/><line x1="266.8092455339195" y1="21.944310980992036" x2="272.80495891670427" y2="21.944310980992036" stroke="#0F52BA" stroke-width="0.5"/><line x1="326.7663793617666" y1="21.944310980992036" x2="332.76209274455135" y2="21.944310980992036" stroke="#0F52BA" stroke-width="0.5"/><line x1="386.7235131896137" y1="21.944310980992036" x2="392.71922657239844" y2="21.944310980992036" stroke="#0F52BA" stroke-width="0.5"/><line x1="446.6806470174608" y1="21.944310980992036" x2="452.6763604002455" y2="21.944310980992036" stroke="#0F52BA" stroke-width="0.5"/><line x1="56.95927713645473" y1="73.86718887590762" x2="62.954990519239445" y2="73.86718887590762" stroke="#0F52BA" stroke-width="0.5"/><line x1="116.91641096430182" y1="73.86718887590762" x2="122.91212434708653" y2="73.86718887590762" stroke="#0F52BA" stroke-width="0.5"/><line x1="176.87354479214892" y1="73.86718887590762" x2="182.8692581749336" y2="73.86718887590762" stroke="#0F52BA" stroke-width="0.5"/><line x1="236.830678619996" y1="73.86718887590762" x2="242.8263920027807" y2="73.86718887590762" stroke="#0F52BA" stroke-width="0.5"/><line x1="296.78781244784307" y1="73.86718887590762" x2="302.7835258306278" y2="73.86718887590762" stroke="#0F52BA" stroke-width="0.5"/><line x1="356.74494627569015" y1="73.86718887590762" x2="362.7406596584749" y2="73.86718887590762" stroke="#0F52BA" stroke-width="0.5"/><line x1="416.70208010353724" y1="73.86718887590762" x2="422.697793486322" y2="73.86718887590762" stroke="#0F52BA" stroke-width="0.5"/><line x1="476.65921393138433" y1="73.86718887590762" x2="482.6549273141691" y2="73.86718887590762" stroke="#0F52BA" stroke-width="0.5"/><line x1="26.98071022253119" y1="125.79006677082319" x2="32.9764236053159" y2="125.79006677082319" stroke="#0F52BA" stroke-width="0.5"/><line x1="86.93784405037827" y1="125.79006677082319" x2="92.93355743316299" y2="125.79006677082319" stroke="#0F52BA" stroke-width="0.5"/><line x1="146.89497787822538" y1="125.79006677082319" x2="152.89069126101006" y2="125.79006677082319" stroke="#0F52BA" stroke-width="0.5"/><line x1="206.85211170607246" y1="125.79006677082319" x2="212.84782508885715" y2="125.79006677082319" stroke="#0F52BA" stroke-width="0.5"/><line x1="266.8092455339195" y1="125.79006677082319" x2="272.80495891670427" y2="125.79006677082319" stroke="#0F52BA" stroke-width="0.5"/><line x1="326.7663793617666" y1="125.79006677082319" x2="332.76209274455135" y2="125.79006677082319" stroke="#0F52BA" stroke-width="0.5"/><line x1="386.7235131896137" y1="125.79006677082319" x2="392.71922657239844" y2="125.79006677082319" stroke="#0F52BA" stroke-width="0.5"/><line x1="446.6806470174608" y1="125.79006677082319" x2="452.6763604002455" y2="125.79006677082319" stroke="#0F52BA" stroke-width="0.5"/><line x1="56.95927713645473" y1="177.71294466573877" x2="62.954990519239445" y2="177.71294466573877" stroke="#0F52BA" stroke-width="0.5"/><line x1="116.91641096430182" y1="177.71294466573877" x2="122.91212434708653" y2="177.71294466573877" stroke="#0F52BA" stroke-width="0.5"/><line x1="176.87354479214892" y1="177.71294466573877" x2="182.8692581749336" y2="177.71294466573877" stroke="#0F52BA" stroke-width="0.5"/><line x1="236.830678619996" y1="177.71294466573877" x2="242.8263920027807" y2="177.71294466573877" stroke="#0F52BA" stroke-width="0.5"/><line x1="296.78781244784307" y1="177.71294466573877" x2="302.7835258306278" y2="177.71294466573877" stroke="#0F52BA" stroke-width="0.5"/><line x1="356.74494627569015" y1="177.71294466573877" x2="362.7406596584749" y2="177.71294466573877" stroke="#0F52BA" stroke-width="0.5"/><line x1="416.70208010353724" y1="177.71294466573877" x2="422.697793486322" y2="177.71294466573877" stroke="#0F52BA" stroke-width="0.5"/><line x1="476.65921393138433" y1="177.71294466573877" x2="482.6549273141691" y2="177.71294466573877" stroke="#0F52BA" stroke-width="0.5"/><line x1="26.98071022253119" y1="229.63582256065433" x2="32.9764236053159" y2="229.63582256065433" stroke="#0F52BA" stroke-width="0.5"/><line x1="86.93784405037827" y1="229.63582256065433" x2="92.93355743316299" y2="229.63582256065433" stroke="#0F52BA" stroke-width="0.5"/><line x1="146.89497787822538" y1="229.63582256065433" x2="152.89069126101006" y2="229.63582256065433" stroke="#0F52BA" stroke-width="0.5"/><line x1="206.85211170607246" y1="229.63582256065433" x2="212.84782508885715" y2="229.63582256065433" stroke="#0F52BA" stroke-width="0.5"/><line x1="266.8092455339195" y1="229.63582256065433" x2="272.80495891670427" y2="229.63582256065433" stroke="#0F52BA" stroke-width="0.5"/><line x1="326.7663793617666" y1="229.63582256065433" x2="332.76209274455135" y2="229.63582256065433" stroke="#0F52BA" stroke-width="0.5"/><line x1="386.7235131896137" y1="229.63582256065433" x2="392.71922657239844" y2="229.63582256065433" stroke="#0F52BA" stroke-width="0.5"/><line x1="446.6806470174608" y1="229.63582256065433" x2="452.6763604002455" y2="229.63582256065433" stroke="#0F52BA" stroke-width="0.5"/><line x1="56.95927713645473" y1="281.5587004555699" x2="62.954990519239445" y2="281.5587004555699" stroke="#0F52BA" stroke-width="0.5"/><line x1="116.91641096430182" y1="281.5587004555699" x2="122.91212434708653" y2="281.5587004555699" stroke="#0F52BA" stroke-width="0.5"/><line x1="176.87354479214892" y1="281.5587004555699" x2="182.8692581749336" y2="281.5587004555699" stroke="#0F52BA" stroke-width="0.5"/><line x1="236.830678619996" y1="281.5587004555699" x2="242.8263920027807" y2="281.5587004555699" stroke="#0F52BA" stroke-width="0.5"/><line x1="296.78781244784307" y1="281.5587004555699" x2="302.7835258306278" y2="281.5587004555699" stroke="#0F52BA" stroke-width="0.5"/><line x1="356.74494627569015" y1="281.5587004555699" x2="362.7406596584749" y2="281.5587004555699" stroke="#0F52BA" stroke-width="0.5"/><line x1="416.70208010353724" y1="281.5587004555699" x2="422.697793486322" y2="281.5587004555699" stroke="#0F52BA" stroke-width="0.5"/><line x1="476.65921393138433" y1="281.5587004555699" x2="482.6549273141691" y2="281.5587004555699" stroke="#0F52BA" stroke-width="0.5"/><line x1="26.98071022253119" y1="333.4815783504855" x2="32.9764236053159" y2="333.4815783504855" stroke="#0F52BA" stroke-width="0.5"/><line x1="86.93784405037827" y1="333.4815783504855" x2="92.93355743316299" y2="333.4815783504855" stroke="#0F52BA" stroke-width="0.5"/><line x1="146.89497787822538" y1="333.4815783504855" x2="152.89069126101006" y2="333.4815783504855" stroke="#0F52BA" stroke-width="0.5"/><line x1="206.85211170607246" y1="333.4815783504855" x2="212.84782508885715" y2="333.4815783504855" stroke="#0F52BA" stroke-width="0.5"/><line x1="266.8092455339195" y1="333.4815783504855" x2="272.80495891670427" y2="333.4815783504855" stroke="#0F52BA" stroke-width="0.5"/><line x1="326.7663793617666" y1="333.4815783504855" x2="332.76209274455135" y2="333.4815783504855" stroke="#0F52BA" stroke-width="0.5"/><line x1="386.7235131896137" y1="333.4815783504855" x2="392.71922657239844" y2="333.4815783504855" stroke="#0F52BA" stroke-width="0.5"/><line x1="446.6806470174608" y1="333.4815783504855" x2="452.6763604002455" y2="333.4815783504855" stroke="#0F52BA" stroke-width="0.5"/><line x1="56.95927713645473" y1="385.4044562454011" x2="62.954990519239445" y2="385.4044562454011" stroke="#0F52BA" stroke-width="0.5"/><line x1="116.91641096430182" y1="385.4044562454011" x2="122.91212434708653" y2="385.4044562454011" stroke="#0F52BA" stroke-width="0.5"/><line x1="176.87354479214892" y1="385.4044562454011" x2="182.8692581749336" y2="385.4044562454011" stroke="#0F52BA" stroke-width="0.5"/><line x1="236.830678619996" y1="385.4044562454011" x2="242.8263920027807" y2="385.4044562454011" stroke="#0F52BA" stroke-width="0.5"/><line x1="296.78781244784307" y1="385.4044562454011" x2="302.7835258306278" y2="385.4044562454011" stroke="#0F52BA" stroke-width="0.5"/><line x1="356.74494627569015" y1="385.4044562454011" x2="362.7406596584749" y2="385.4044562454011" stroke="#0F52BA" stroke-width="0.5"/><line x1="416.70208010353724" y1="385.4044562454011" x2="422.697793486322" y2="385.4044562454011" stroke="#0F52BA" stroke-width="0.5"/><line x1="476.65921393138433" y1="385.4044562454011" x2="482.6549273141691" y2="385.4044562454011" stroke="#0F52BA" stroke-width="0.5"/><line x1="26.98071022253119" y1="437.3273341403167" x2="32.9764236053159" y2="437.3273341403167" stroke="#0F52BA" stroke-width="0.5"/><line x1="86.93784405037827" y1="437.3273341403167" x2="92.93355743316299" y2="437.3273341403167" stroke="#0F52BA" stroke-width="0.5"/><line x1="146.89497787822538" y1="437.3273341403167" x2="152.89069126101006" y2="437.3273341403167" stroke="#0F52BA" stroke-width="0.5"/><line x1="206.85211170607246" y1="437.3273341403167" x2="212.84782508885715" y2="437.3273341403167" stroke="#0F52BA" stroke-width="0.5"/><line x1="266.8092455339195" y1="437.3273341403167" x2="272.80495891670427" y2="437.3273341403167" stroke="#0F52BA" stroke-width="0.5"/><line x1="326.7663793617666" y1="437.3273341403167" x2="332.76209274455135" y2="437.3273341403167" stroke="#0F52BA" stroke-width="0.5"/><line x1="386.7235131896137" y1="437.3273341403167" x2="392.71922657239844" y2="437.3273341403167" stroke="#0F52BA" stroke-width="0.5"/><line x1="446.6806470174608" y1="437.3273341403167" x2="452.6763604002455" y2="437.3273341403167" stroke="#0F52BA" stroke-width="0.5"/><line x1="56.95927713645473" y1="489.2502120352322" x2="62.954990519239445" y2="489.2502120352322" stroke="#0F52BA" stroke-width="0.5"/><line x1="116.91641096430182" y1="489.2502120352322" x2="122.91212434708653" y2="489.2502120352322" stroke="#0F52BA" stroke-width="0.5"/><line x1="176.87354479214892" y1="489.2502120352322" x2="182.8692581749336" y2="489.2502120352322" stroke="#0F52BA" stroke-width="0.5"/><line x1="236.830678619996" y1="489.2502120352322" x2="242.8263920027807" y2="489.2502120352322" stroke="#0F52BA" stroke-width="0.5"/><line x1="296.78781244784307" y1="489.2502120352322" x2="302.7835258306278" y2="489.2502120352322" stroke="#0F52BA" stroke-width="0.5"/><line x1="356.74494627569015" y1="489.2502120352322" x2="362.7406596584749" y2="489.2502120352322" stroke="#0F52BA" stroke-width="0.5"/><line x1="416.70208010353724" y1="489.2502120352322" x2="422.697793486322" y2="489.2502120352322" stroke="#0F52BA" stroke-width="0.5"/><line x1="476.65921393138433" y1="489.2502120352322" x2="482.6549273141691" y2="489.2502120352322" stroke="#0F52BA" stroke-width="0.5"/></g></svg>