<svg xmlns="http://www.w3.org/2000/svg" width="512" height="512" viewBox="0 0 512 512"><rect x="0" y="0" width="512" height="512" fill="#0D0D0D"/><g opacity="0.18061364150169007"><path d="M -39.89508019724584,-75.8006523747671 L -32.26148708506456,-58.32420421831173 L -14.506006628137524,-65.28415376635415 L -21.46595617617995,-47.52867330942712 L -3.989508019724582,-39.89508019724584 L -21.46595617617995,-32.26148708506456 L -14.506006628137524,-14.50600662813753 L -32.26148708506456,-21.46595617617995 L -39.89508019724584,-3.989508019724582 L -47.52867330942712,-21.46595617617995 L -65.28415376635415,-14.506006628137524 L -58.32420421831172,-32.26148708506455 L -75.8006523747671,-39.89508019724583 L -58.32420421831173,-47.52867330942713 L -65.28415376635417,-65.28415376635415 L -47.528673309427134,-58.32420421831172 Z" fill="none" stroke="#FFD700" stroke-width="1.8771390921329796" /><path d="M 39.89508019724584,-75.8006523747671 L 47.52867330942712,-58.32420421831173 L 65.28415376635415,-65.28415376635415 L 58.32420421831173,-47.52867330942712 L 75.8006523747671,-39.89508019724584 L 58.32420421831173,-32.26148708506456 L 65.28415376635415,-14.50600662813753 L 47.52867330942712,-21.46595617617995 L 39.89508019724584,-3.989508019724582 L 32.26148708506456,-21.46595617617995 L 14.50600662813753,-14.506006628137524 L 21.465956176179954,-32.26148708506455 L 3.989508019724582,-39.89508019724583 L 21.46595617617995,-47.52867330942713 L 14.50600662813752,-65.28415376635415 L 32.261487085064545,-58.32420421831172 Z" fill="none" stroke="#FFD700" stroke-width="1.8771390921329796" /><path d="M 119.68524059173751,-75.8006523747671 L 127.3188337039188,-58.32420421831173 L 145.07431416084583,-65.28415376635415 L 138.1143646128034,-47.52867330942712 L 155.59081276925878,-39.89508019724584 L 138.1143646128034,-32.26148708506456 L 145.07431416084583,-14.50600662813753 L 127.3188337039188,-21.46595617617995 L 119.68524059173751,-3.989508019724582 L 112.05164747955624,-21.46595617617995 L 94.2961670226292,-14.506006628137524 L 101.25611657067162,-32.26148708506455 L 83.77966841421625,-39.89508019724583 L 101.25611657067162,-47.52867330942713 L 94.29616702262919,-65.28415376635415 L 112.05164747955622,-58.32420421831172 Z" fill="none" stroke="#FFD700" stroke-width="1.8771390921329796" /><path d="M 199.47540098622918,-75.8006523747671 L 207.10899409841045,-58.32420421831173 L 224.8644745553375,-65.28415376635415 L 217.90452500729506,-47.52867330942712 L 235.38097316375044,-39.89508019724584 L 217.90452500729506,-32.26148708506456 L 224.8644745553375,-14.50600662813753 L 207.10899409841045,-21.46595617617995 L 199.47540098622918,-3.989508019724582 L 191.8418078740479,-21.46595617617995 L 174.08632741712086,-14.506006628137524 L 181.0462769651633,-32.26148708506455 L 163.5698288087079,-39.89508019724583 L 181.0462769651633,-47.52867330942713 L 174.08632741712086,-65.28415376635415 L 191.84180787404787,-58.32420421831172 Z" fill="none" stroke="#FFD700" stroke-width="1.8771390921329796" /><path d="M 279.2655613807209,-75.8006523747671 L 286.8991544929022,-58.32420421831173 L 304.6546349498292,-65.28415376635415 L 297.6946854017868,-47.52867330942712 L 315.17113355824216,-39.89508019724584 L 297.6946854017868,-32.26148708506456 L 304.6546349498292,-14.50600662813753 L 286.8991544929022,-21.46595617617995 L 279.2655613807209,-3.989508019724582 L 271.6319682685396,-21.46595617617995 L 253.87648781161258,-14.506006628137524 L 260.836437359655,-32.26148708506455 L 243.35998920319963,-39.89508019724583 L 260.836437359655,-47.52867330942713 L 253.87648781161258,-65.28415376635415 L 271.6319682685396,-58.32420421831172 Z" fill="none" stroke="#FFD700" stroke-width="1.8771390921329796" /><path d="M 359.0557217752126,-75.8006523747671 L 366.6893148873939,-58.32420421831173 L 384.4447953443209,-65.28415376635415 L 377.4848457962785,-47.52867330942712 L 394.96129395273385,-39.89508019724584 L 377.4848457962785,-32.26148708506456 L 384.4447953443209,-14.50600662813753 L 366.6893148873939,-21.46595617617995 L 359.0557217752126,-3.989508019724582 L 351.4221286630313,-21.46595617617995 L 333.6666482061043,-14.506006628137524 L 340.6265977541467,-32.26148708506455 L 323.1501495976913,-39.89508019724583 L 340.6265977541467,-47.52867330942713 L 333.66664820610424,-65.28415376635415 L 351.4221286630313,-58.32420421831172 Z" fill="none" stroke="#FFD700" stroke-width="1.8771390921329796" /><path d="M 438.8458821697042,-75.8006523747671 L 446.4794752818855,-58.32420421831173 L 464.2349557388125,-65.28415376635415 L 457.2750061907701,-47.52867330942712 L 474.7514543472255,-39.89508019724584 L 457.2750061907701,-32.26148708506456 L 464.2349557388125,-14.50600662813753 L 446.4794752818855,-21.46595617617995 L 438.8458821697042,-3.989508019724582 L 431.2122890575229,-21.46595617617995 L 413.45680860059593,-14.506006628137524 L 420.41675814863834,-32.26148708506455 L 402.94030999218296,-39.89508019724583 L 420.41675814863834,-47.52867330942713 L 413.4568086005959,-65.28415376635415 L 431.2122890575229,-58.32420421831172 Z" fill="none" stroke="#FFD700" stroke-width="1.8771390921329796" /><path d="M 518.6360425641959,-75.8006523747671 L 526.2696356763772,-58.32420421831173 L 544.0251161333042,-65.28415376635415 L 537.0651665852617,-47.52867330942712 L 554.5416147417171,-39.89508019724584 L 537.0651665852617,-32.26148708506456 L 544.0251161333042,-14.50600662813753 L 526.2696356763772,-21.46595617617995 L 518.6360425641959,-3.989508019724582 L 511.0024494520146,-21.46595617617995 L 493.2469689950876,-14.506006628137524 L 500.20691854313003,-32.26148708506455 L 482.73047038667465,-39.89508019724583 L 500.20691854313003,-47.52867330942713 L 493.2469689950876,-65.28415376635415 L 511.0024494520146,-58.32420421831172 Z" fill="none" stroke="#FFD700" stroke-width="1.8771390921329796" /><path d="M 2.1985822019377835e-15,-6.7023734731373 L 7.6335931121812814,10.77407468331807 L 25.389073569108316,3.814125135275649 L 18.42912402106589,21.569605592202677 L 35.90557217752126,29.203198704383958 L 18.42912402106589,36.83679181656524 L 25.389073569108316,54.59227227349227 L 7.6335931121812814,47.632322725449846 L 2.1985822019377835e-15,65.10877088190522 L -7.63359311218128,47.632322725449846 L -25.38907356910831,54.59227227349227 L -18.429124021065885,36.836791816565245 L -35.90557217752126,29.20319870438396 L -18.42912402106589,21.56960559220267 L -25.38907356910832,3.814125135275649 L -7.633593112181291,10.774074683318073 Z" fill="none" stroke="#FFD700" stroke-width="1.8771390921329796" /><path d="M 79.79016039449168,-6.7023734731373 L 87.42375350667297,10.77407468331807 L 105.1792339636,3.814125135275649 L 98.21928441555757,21.569605592202677 L 115.69573257201293,29.203198704383958 L 98.21928441555757,36.83679181656524 L 105.1792339636,54.59227227349227 L 87.42375350667297,47.632322725449846 L 79.79016039449168,65.10877088190522 L 72.1565672823104,47.632322725449846 L 54.40108682538337,54.59227227349227 L 61.36103637342579,36.836791816565245 L 43.88458821697042,29.20319870438396 L 61.36103637342579,21.56960559220267 L 54.40108682538336,3.814125135275649 L 72.15656728231039,10.774074683318073 Z" fill="none" stroke="#FFD700" stroke-width="1.8771390921329796" /><path d="M 159.58032078898336,-6.7023734731373 L 167.21391390116463,10.77407468331807 L 184.96939435809168,3.814125135275649 L 178.00944481004925,21.569605592202677 L 195.48589296650462,29.203198704383958 L 178.00944481004925,36.83679181656524 L 184.96939435809168,54.59227227349227 L 167.21391390116463,47.632322725449846 L 159.58032078898336,65.10877088190522 L 151.94672767680208,47.632322725449846 L 134.19124721987504,54.59227227349227 L 141.15119676791747,36.836791816565245 L 123.67474861146209,29.20319870438396 L 141.15119676791747,21.56960559220267 L 134.19124721987504,3.814125135275649 L 151.94672767680206,10.774074683318073 Z" fill="none" stroke="#FFD700" stroke-width="1.8771390921329796" /><path d="M 239.37048118347502,-6.7023734731373 L 247.0040742956563,10.77407468331807 L 264.7595547525833,3.814125135275649 L 257.7996052045409,21.569605592202677 L 275.2760533609963,29.203198704383958 L 257.7996052045409,36.83679181656524 L 264.7595547525833,54.59227227349227 L 247.0040742956563,47.632322725449846 L 239.37048118347502,65.10877088190522 L 231.73688807129375,47.632322725449846 L 213.9814076143667,54.59227227349227 L 220.94135716240913,36.836791816565245 L 203.46490900595376,29.20319870438396 L 220.94135716240913,21.56960559220267 L 213.9814076143667,3.814125135275649 L 231.73688807129372,10.774074683318073 Z" fill="none" stroke="#FFD700" stroke-width="1.8771390921329796" /><path d="M 319.1606415779667,-6.7023734731373 L 326.794234690148,10.77407468331807 L 344.549715147075,3.814125135275649 L 337.5897655990326,21.569605592202677 L 355.066213755488,29.203198704383958 L 337.5897655990326,36.83679181656524 L 344.549715147075,54.59227227349227 L 326.794234690148,47.632322725449846 L 319.1606415779667,65.10877088190522 L 311.5270484657854,47.632322725449846 L 293.7715680088584,54.59227227349227 L 300.7315175569008,36.836791816565245 L 283.25506940044545,29.20319870438396 L 300.7315175569008,21.56960559220267 L 293.77156800885837,3.814125135275649 L 311.5270484657854,10.774074683318073 Z" fill="none" stroke="#FFD700" stroke-width="1.8771390921329796" /><path d="M 398.9508019724584,-6.7023734731373 L 406.5843950846397,10.77407468331807 L 424.3398755415667,3.814125135275649 L 417.3799259935243,21.569605592202677 L 434.8563741499797,29.203198704383958 L 417.3799259935243,36.83679181656524 L 424.3398755415667,54.59227227349227 L 406.5843950846397,47.632322725449846 L 398.9508019724584,65.10877088190522 L 391.3172088602771,47.632322725449846 L 373.5617284033501,54.59227227349227 L 380.5216779513925,36.836791816565245 L 363.04522979493714,29.20319870438396 L 380.5216779513925,21.56960559220267 L 373.5617284033501,3.814125135275649 L 391.3172088602771,10.774074683318073 Z" fill="none" stroke="#FFD700" stroke-width="1.8771390921329796" /><path d="M 478.74096236695004,-6.7023734731373 L 486.37455547913135,10.77407468331807 L 504.13003593605833,3.814125135275649 L 497.17008638801593,21.569605592202677 L 514.6465345444713,29.203198704383958 L 497.17008638801593,36.83679181656524 L 504.13003593605833,54.59227227349227 L 486.37455547913135,47.632322725449846 L 478.74096236695004,65.10877088190522 L 471.10736925476874,47.632322725449846 L 453.35188879784175,54.59227227349227 L 460.31183834588415,36.836791816565245 L 442.8353901894288,29.20319870438396 L 460.31183834588415,21.56960559220267 L 453.35188879784175,3.814125135275649 L 471.10736925476874,10.774074683318073 Z" fill="none" stroke="#FFD700" stroke-width="1.8771390921329796" /><path d="M 558.5311227614418,-6.7023734731373 L 566.1647158736231,10.77407468331807 L 583.9201963305501,3.814125135275649 L 576.9602467825077,21.569605592202677 L 594.436694938963,29.203198704383958 L 576.9602467825077,36.83679181656524 L 583.9201963305501,54.59227227349227 L 566.1647158736231,47.632322725449846 L 558.5311227614418,65.10877088190522 L 550.8975296492605,47.632322725449846 L 533.1420491923335,54.59227227349227 L 540.101998740376,36.836791816565245 L 522.6255505839206,29.20319870438396 L 540.1019987403758,21.56960559220267 L 533.1420491923335,3.814125135275649 L 550.8975296492605,10.774074683318073 Z" fill="none" stroke="#FFD700" stroke-width="1.8771390921329796" /><path d="M -39.89508019724584,62.39590542849249 L -32.26148708506456,79.87235358494786 L -14.506006628137524,72.91240403690544 L -21.46595617617995,90.66788449383247 L -3.989508019724582,98.30147760601375 L -21.46595617617995,105.93507071819502 L -14.506006628137524,123.69055117512205 L -32.26148708506456,116.73060162707964 L -39.89508019724584,134.207049783535 L -47.52867330942712,116.73060162707964 L -65.28415376635415,123.69055117512207 L -58.32420421831172,105.93507071819504 L -75.8006523747671,98.30147760601375 L -58.32420421831173,90.66788449383246 L -65.28415376635417,72.91240403690544 L -47.528673309427134,79.87235358494786 Z" fill="none" stroke="#FFD700" stroke-width="1.8771390921329796" /><path d="M 39.89508019724584,62.39590542849249 L 47.52867330942712,79.87235358494786 L 65.28415376635415,72.91240403690544 L 58.32420421831173,90.66788449383247 L 75.8006523747671,98.30147760601375 L 58.32420421831173,105.93507071819502 L 65.28415376635415,123.69055117512205 L 47.52867330942712,116.73060162707964 L 39.89508019724584,134.207049783535 L 32.26148708506456,116.73060162707964 L 14.50600662813753,123.69055117512207 L 21.465956176179954,105.93507071819504 L 3.989508019724582,98.30147760601375 L 21.46595617617995,90.66788449383246 L 14.50600662813752,72.91240403690544 L 32.261487085064545,79.87235358494786 Z" fill="none" stroke="#FFD700" stroke-width="1.8771390921329796" /><path d="M 119.68524059173751,62.39590542849249 L 127.3188337039188,79.87235358494786 L 145.07431416084583,72.91240403690544 L 138.1143646128034,90.66788449383247 L 155.59081276925878,98.30147760601375 L 138.1143646128034,105.93507071819502 L 145.07431416084583,123.69055117512205 L 127.3188337039188,116.73060162707964 L 119.68524059173751,134.207049783535 L 112.05164747955624,116.73060162707964 L 94.2961670226292,123.69055117512207 L 101.25611657067162,105.93507071819504 L 83.77966841421625,98.30147760601375 L 101.25611657067162,90.66788449383246 L 94.29616702262919,72.91240403690544 L 112.05164747955622,79.87235358494786 Z" fill="none" stroke="#FFD700" stroke-width="1.8771390921329796" /><path d="M 199.47540098622918,62.39590542849249 L 207.10899409841045,79.87235358494786 L 224.8644745553375,72.91240403690544 L 217.90452500729506,90.66788449383247 L 235.38097316375044,98.30147760601375 L 217.90452500729506,105.93507071819502 L 224.8644745553375,123.69055117512205 L 207.10899409841045,116.73060162707964 L 199.47540098622918,134.207049783535 L 191.8418078740479,116.73060162707964 L 174.08632741712086,123.69055117512207 L 181.0462769651633,105.93507071819504 L 163.5698288087079,98.30147760601375 L 181.0462769651633,90.66788449383246 L 174.08632741712086,72.91240403690544 L 191.84180787404787,79.87235358494786 Z" fill="none" stroke="#FFD700" stroke-width="1.8771390921329796" /><path d="M 279.2655613807209,62.39590542849249 L 286.8991544929022,79.87235358494786 L 304.6546349498292,72.91240403690544 L 297.6946854017868,90.66788449383247 L 315.17113355824216,98.30147760601375 L 297.6946854017868,105.93507071819502 L 304.6546349498292,123.69055117512205 L 286.8991544929022,116.73060162707964 L 279.2655613807209,134.207049783535 L 271.6319682685396,116.73060162707964 L 253.87648781161258,123.69055117512207 L 260.836437359655,105.93507071819504 L 243.35998920319963,98.30147760601375 L 260.836437359655,90.66788449383246 L 253.87648781161258,72.91240403690544 L 271.6319682685396,79.87235358494786 Z" fill="none" stroke="#FFD700" stroke-width="1.8771390921329796" /><path d="M 359.0557217752126,62.39590542849249 L 366.6893148873939,79.87235358494786 L 384.4447953443209,72.91240403690544 L 377.4848457962785,90.66788449383247 L 394.96129395273385,98.30147760601375 L 377.4848457962785,105.93507071819502 L 384.4447953443209,123.69055117512205 L 366.6893148873939,116.73060162707964 L 359.0557217752126,134.207049783535 L 351.4221286630313,116.73060162707964 L 333.6666482061043,123.69055117512207 L 340.6265977541467,105.93507071819504 L 323.1501495976913,98.30147760601375 L 340.6265977541467,90.66788449383246 L 333.66664820610424,72.91240403690544 L 351.4221286630313,79.87235358494786 Z" fill="none" stroke="#FFD700" stroke-width="1.8771390921329796" /><path d="M 438.8458821697042,62.39590542849249 L 446.4794752818855,79.87235358494786 L 464.2349557388125,72.91240403690544 L 457.2750061907701,90.66788449383247 L 474.7514543472255,98.30147760601375 L 457.2750061907701,105.93507071819502 L 464.2349557388125,123.69055117512205 L 446.4794752818855,116.73060162707964 L 438.8458821697042,134.207049783535 L 431.2122890575229,116.73060162707964 L 413.45680860059593,123.69055117512207 L 420.41675814863834,105.93507071819504 L 402.94030999218296,98.30147760601375 L 420.41675814863834,90.66788449383246 L 413.4568086005959,72.91240403690544 L 431.2122890575229,79.87235358494786 Z" fill="none" stroke="#FFD700" stroke-width="1.8771390921329796" /><path d="M 518.6360425641959,62.39590542849249 L 526.2696356763772,79.87235358494786 L 544.0251161333042,72.91240403690544 L 537.0651665852617,90.66788449383247 L 554.5416147417171,98.30147760601375 L 537.0651665852617,105.93507071819502 L 544.0251161333042,123.69055117512205 L 526.2696356763772,116.73060162707964 L 518.6360425641959,134.207049783535 L 511.0024494520146,116.73060162707964 L 493.2469689950876,123.69055117512207 L 500.20691854313003,105.93507071819504 L 482.73047038667465,98.30147760601375 L 500.20691854313003,90.66788449383246 L 493.2469689950876,72.91240403690544 L 511.0024494520146,79.87235358494786 Z" fill="none" stroke="#FFD700" stroke-width="1.8771390921329796" /><path d="M 2.1985822019377835e-15,131.49418433012227 L 7.6335931121812814,148.97063248657764 L 25.389073569108316,142.0106829385352 L 18.42912402106589,159.76616339546226 L 35.90557217752126,167.39975650764353 L 18.42912402106589,175.0333496198248 L 25.389073569108316,192.78883007675185 L 7.6335931121812814,185.82888052870942 L 2.1985822019377835e-15,203.3053286851648 L -7.63359311218128,185.82888052870942 L -25.38907356910831,192.78883007675185 L -18.429124021065885,175.03334961982483 L -35.90557217752126,167.39975650764353 L -18.42912402106589,159.76616339546226 L -25.38907356910832,142.0106829385352 L -7.633593112181291,148.97063248657764 Z" fill="none" stroke="#FFD700" stroke-width="1.8771390921329796" /><path d="M 79.79016039449168,131.49418433012227 L 87.42375350667297,148.97063248657764 L 105.1792339636,142.0106829385352 L 98.21928441555757,159.76616339546226 L 115.69573257201293,167.39975650764353 L 98.21928441555757,175.0333496198248 L 105.1792339636,192.78883007675185 L 87.42375350667297,185.82888052870942 L 79.79016039449168,203.3053286851648 L 72.1565672823104,185.82888052870942 L 54.40108682538337,192.78883007675185 L 61.36103637342579,175.03334961982483 L 43.88458821697042,167.39975650764353 L 61.36103637342579,159.76616339546226 L 54.40108682538336,142.0106829385352 L 72.15656728231039,148.97063248657764 Z" fill="none" stroke="#FFD700" stroke-width="1.8771390921329796" /><path d="M 159.58032078898336,131.49418433012227 L 167.21391390116463,148.97063248657764 L 184.96939435809168,142.0106829385352 L 178.00944481004925,159.76616339546226 L 195.48589296650462,167.39975650764353 L 178.00944481004925,175.0333496198248 L 184.96939435809168,192.78883007675185 L 167.21391390116463,185.82888052870942 L 159.58032078898336,203.3053286851648 L 151.94672767680208,185.82888052870942 L 134.19124721987504,192.78883007675185 L 141.15119676791747,175.03334961982483 L 123.67474861146209,167.39975650764353 L 141.15119676791747,159.76616339546226 L 134.19124721987504,142.0106829385352 L 151.94672767680206,148.97063248657764 Z" fill="none" stroke="#FFD700" stroke-width="1.8771390921329796" /><path d="M 239.37048118347502,131.49418433012227 L 247.0040742956563,148.97063248657764 L 264.7595547525833,142.0106829385352 L 257.7996052045409,159.76616339546226 L 275.2760533609963,167.39975650764353 L 257.7996052045409,175.0333496198248 L 264.7595547525833,192.78883007675185 L 247.0040742956563,185.82888052870942 L 239.37048118347502,203.3053286851648 L 231.73688807129375,185.82888052870942 L 213.9814076143667,192.78883007675185 L 220.94135716240913,175.03334961982483 L 203.46490900595376,167.39975650764353 L 220.94135716240913,159.76616339546226 L 213.9814076143667,142.0106829385352 L 231.73688807129372,148.97063248657764 Z" fill="none" stroke="#FFD700" stroke-width="1.8771390921329796" /><path d="M 319.1606415779667,131.49418433012227 L 326.794234690148,148.97063248657764 L 344.549715147075,142.0106829385352 L 337.5897655990326,159.76616339546226 L 355.066213755488,167.39975650764353 L 337.5897655990326,175.0333496198248 L 344.549715147075,192.78883007675185 L 326.794234690148,185.82888052870942 L 319.1606415779667,203.3053286851648 L 311.5270484657854,185.82888052870942 L 293.7715680088584,192.78883007675185 L 300.7315175569008,175.03334961982483 L 283.25506940044545,167.39975650764353 L 300.7315175569008,159.76616339546226 L 293.77156800885837,142.0106829385352 L 311.5270484657854,148.97063248657764 Z" fill="none" stroke="#FFD700" stroke-width="1.8771390921329796" /><path d="M 398.9508019724584,131.49418433012227 L 406.5843950846397,148.97063248657764 L 424.3398755415667,142.0106829385352 L 417.3799259935243,159.76616339546226 L 434.8563741499797,167.39975650764353 L 417.3799259935243,175.0333496198248 L 424.3398755415667,192.78883007675185 L 406.5843950846397,185.82888052870942 L 398.9508019724584,203.3053286851648 L 391.3172088602771,185.82888052870942 L 373.5617284033501,192.78883007675185 L 380.5216779513925,175.03334961982483 L 363.04522979493714,167.39975650764353 L 380.5216779513925,159.76616339546226 L 373.5617284033501,142.0106829385352 L 391.3172088602771,148.97063248657764 Z" fill="none" stroke="#FFD700" stroke-width="1.8771390921329796" /><path d="M 478.74096236695004,131.49418433012227 L 486.37455547913135,148.97063248657764 L 504.13003593605833,142.0106829385352 L 497.17008638801593,159.76616339546226 L 514.6465345444713,167.39975650764353 L 497.17008638801593,175.0333496198248 L 504.13003593605833,192.78883007675185 L 486.37455547913135,185.82888052870942 L 478.74096236695004,203.3053286851648 L 471.10736925476874,185.82888052870942 L 453.35188879784175,192.78883007675185 L 460.31183834588415,175.03334961982483 L 442.8353901894288,167.39975650764353 L 460.31183834588415,159.76616339546226 L 453.35188879784175,142.0106829385352 L 471.10736925476874,148.97063248657764 Z" fill="none" stroke="#FFD700" stroke-width="1.8771390921329796" /><path d="M 558.5311227614418,131.49418433012227 L 566.1647158736231,148.97063248657764 L 583.9201963305501,142.0106829385352 L 576.9602467825077,159.76616339546226 L 594.436694938963,167.39975650764353 L 576.9602467825077,175.0333496198248 L 583.9201963305501,192.78883007675185 L 566.1647158736231,185.82888052870942 L 558.5311227614418,203.3053286851648 L 550.8975296492605,185.82888052870942 L 533.1420491923335,192.78883007675185 L 540.101998740376,175.03334961982483 L 522.6255505839206,167.39975650764353 L 540.1019987403758,159.76616339546226 L 533.1420491923335,142.0106829385352 L 550.8975296492605,148.97063248657764 Z" fill="none" stroke="#FFD700" stroke-width="1.8771390921329796" /><path d="M -39.89508019724584,200.59246323175208 L -32.26148708506456,218.06891138820745 L -14.506006628137524,211.10896184016502 L -21.46595617617995,228.86444229709207 L -3.989508019724582,236.49803540927334 L -21.46595617617995,244.13162852145462 L -14.506006628137524,261.88710897838166 L -32.26148708506456,254.92715943033923 L -39.89508019724584,272.4036075867946 L -47.52867330942712,254.92715943033923 L -65.28415376635415,261.88710897838166 L -58.32420421831172,244.13162852145464 L -75.8006523747671,236.49803540927334 L -58.32420421831173,228.86444229709207 L -65.28415376635417,211.10896184016502 L -47.528673309427134,218.06891138820745 Z" fill="none" stroke="#FFD700" stroke-width="1.8771390921329796" /><path d="M 39.89508019724584,200.59246323175208 L 47.52867330942712,218.06891138820745 L 65.28415376635415,211.10896184016502 L 58.32420421831173,228.86444229709207 L 75.8006523747671,236.49803540927334 L 58.32420421831173,244.13162852145462 L 65.28415376635415,261.88710897838166 L 47.52867330942712,254.92715943033923 L 39.89508019724584,272.4036075867946 L 32.26148708506456,254.92715943033923 L 14.50600662813753,261.88710897838166 L 21.465956176179954,244.13162852145464 L 3.989508019724582,236.49803540927334 L 21.46595617617995,228.86444229709207 L 14.50600662813752,211.10896184016502 L 32.261487085064545,218.06891138820745 Z" fill="none" stroke="#FFD700" stroke-width="1.8771390921329796" /><path d="M 119.68524059173751,200.59246323175208 L 127.3188337039188,218.06891138820745 L 145.07431416084583,211.10896184016502 L 138.1143646128034,228.86444229709207 L 155.59081276925878,236.49803540927334 L 138.1143646128034,244.13162852145462 L 145.07431416084583,261.88710897838166 L 127.3188337039188,254.92715943033923 L 119.68524059173751,272.4036075867946 L 112.05164747955624,254.92715943033923 L 94.2961670226292,261.88710897838166 L 101.25611657067162,244.13162852145464 L 83.77966841421625,236.49803540927334 L 101.25611657067162,228.86444229709207 L 94.29616702262919,211.10896184016502 L 112.05164747955622,218.06891138820745 Z" fill="none" stroke="#FFD700" stroke-width="1.8771390921329796" /><path d="M 199.47540098622918,200.59246323175208 L 207.10899409841045,218.06891138820745 L 224.8644745553375,211.10896184016502 L 217.90452500729506,228.86444229709207 L 235.38097316375044,236.49803540927334 L 217.90452500729506,244.13162852145462 L 224.8644745553375,261.88710897838166 L 207.10899409841045,254.92715943033923 L 199.47540098622918,272.4036075867946 L 191.8418078740479,254.92715943033923 L 174.08632741712086,261.88710897838166 L 181.0462769651633,244.13162852145464 L 163.5698288087079,236.49803540927334 L 181.0462769651633,228.86444229709207 L 174.08632741712086,211.10896184016502 L 191.84180787404787,218.06891138820745 Z" fill="none" stroke="#FFD700" stroke-width="1.8771390921329796" /><path d="M 279.2655613807209,200.59246323175208 L 286.8991544929022,218.06891138820745 L 304.6546349498292,211.10896184016502 L 297.6946854017868,228.86444229709207 L 315.17113355824216,236.49803540927334 L 297.6946854017868,244.13162852145462 L 304.6546349498292,261.88710897838166 L 286.8991544929022,254.92715943033923 L 279.2655613807209,272.4036075867946 L 271.6319682685396,254.92715943033923 L 253.87648781161258,261.88710897838166 L 260.836437359655,244.13162852145464 L 243.35998920319963,236.49803540927334 L 260.836437359655,228.86444229709207 L 253.87648781161258,211.10896184016502 L 271.6319682685396,218.06891138820745 Z" fill="none" stroke="#FFD700" stroke-width="1.8771390921329796" /><path d="M 359.0557217752126,200.59246323175208 L 366.6893148873939,218.06891138820745 L 384.4447953443209,211.10896184016502 L 377.4848457962785,228.86444229709207 L 394.96129395273385,236.49803540927334 L 377.4848457962785,244.13162852145462 L 384.4447953443209,261.88710897838166 L 366.6893148873939,254.92715943033923 L 359.0557217752126,272.4036075867946 L 351.4221286630313,254.92715943033923 L 333.6666482061043,261.88710897838166 L 340.6265977541467,244.13162852145464 L 323.1501495976913,236.49803540927334 L 340.6265977541467,228.86444229709207 L 333.66664820610424,211.10896184016502 L 351.4221286630313,218.06891138820745 Z" fill="none" stroke="#FFD700" stroke-width="1.8771390921329796" /><path d="M 438.8458821697042,200.59246323175208 L 446.4794752818855,218.06891138820745 L 464.2349557388125,211.10896184016502 L 457.2750061907701,228.86444229709207 L 474.7514543472255,236.49803540927334 L 457.2750061907701,244.13162852145462 L 464.2349557388125,261.88710897838166 L 446.4794752818855,254.92715943033923 L 438.8458821697042,272.4036075867946 L 431.2122890575229,254.92715943033923 L 413.45680860059593,261.88710897838166 L 420.41675814863834,244.13162852145464 L 402.94030999218296,236.49803540927334 L 420.41675814863834,228.86444229709207 L 413.4568086005959,211.10896184016502 L 431.2122890575229,218.06891138820745 Z" fill="none" stroke="#FFD700" stroke-width="1.8771390921329796" /><path d="M 518.6360425641959,200.59246323175208 L 526.2696356763772,218.06891138820745 L 544.0251161333042,211.10896184016502 L 537.0651665852617,228.86444229709207 L 554.5416147417171,236.49803540927334 L 537.0651665852617,244.13162852145462 L 544.0251161333042,261.88710897838166 L 526.2696356763772,254.92715943033923 L 518.6360425641959,272.4036075867946 L 511.0024494520146,254.92715943033923 L 493.2469689950876,261.88710897838166 L 500.20691854313003,244.13162852145464 L 482.73047038667465,236.49803540927334 L 500.20691854313003,228.86444229709207 L 493.2469689950876,211.10896184016502 L 511.0024494520146,218.06891138820745 Z" fill="none" stroke="#FFD700" stroke-width="1.8771390921329796" /><path d="M 2.1985822019377835e-15,269.6907421333819 L 7.6335931121812814,287.16719028983727 L 25.389073569108316,280.20724074179486 L 18.42912402106589,297.96272119872185 L 35.90557217752126,305.59631431090315 L 18.42912402106589,313.22990742308446 L 25.389073569108316,330.98538788001144 L 7.6335931121812814,324.02543833196904 L 2.1985822019377835e-15,341.5018864884244 L -7.63359311218128,324.02543833196904 L -25.38907356910831,330.98538788001144 L -18.429124021065885,313.22990742308446 L -35.90557217752126,305.59631431090315 L -18.42912402106589,297.96272119872185 L -25.38907356910832,280.20724074179486 L -7.633593112181291,287.16719028983727 Z" fill="none" stroke="#FFD700" stroke-width="1.8771390921329796" /><path d="M 79.79016039449168,269.6907421333819 L 87.42375350667297,287.16719028983727 L 105.1792339636,280.20724074179486 L 98.21928441555757,297.96272119872185 L 115.69573257201293,305.59631431090315 L 98.21928441555757,313.22990742308446 L 105.1792339636,330.98538788001144 L 87.42375350667297,324.02543833196904 L 79.79016039449168,341.5018864884244 L 72.1565672823104,324.02543833196904 L 54.40108682538337,330.98538788001144 L 61.36103637342579,313.22990742308446 L 43.88458821697042,305.59631431090315 L 61.36103637342579,297.96272119872185 L 54.40108682538336,280.20724074179486 L 72.15656728231039,287.16719028983727 Z" fill="none" stroke="#FFD700" stroke-width="1.8771390921329796" /><path d="M 159.58032078898336,269.6907421333819 L 167.21391390116463,287.16719028983727 L 184.96939435809168,280.20724074179486 L 178.00944481004925,297.96272119872185 L 195.48589296650462,305.59631431090315 L 178.00944481004925,313.22990742308446 L 184.96939435809168,330.98538788001144 L 167.21391390116463,324.02543833196904 L 159.58032078898336,341.5018864884244 L 151.94672767680208,324.02543833196904 L 134.19124721987504,330.98538788001144 L 141.15119676791747,313.22990742308446 L 123.67474861146209,305.59631431090315 L 141.15119676791747,297.96272119872185 L 134.19124721987504,280.20724074179486 L 151.94672767680206,287.16719028983727 Z" fill="none" stroke="#FFD700" stroke-width="1.8771390921329796" /><path d="M 239.37048118347502,269.6907421333819 L 247.0040742956563,287.16719028983727 L 264.7595547525833,280.20724074179486 L 257.7996052045409,297.96272119872185 L 275.2760533609963,305.59631431090315 L 257.7996052045409,313.22990742308446 L 264.7595547525833,330.98538788001144 L 247.0040742956563,324.02543833196904 L 239.37048118347502,341.5018864884244 L 231.73688807129375,324.02543833196904 L 213.9814076143667,330.98538788001144 L 220.94135716240913,313.22990742308446 L 203.46490900595376,305.59631431090315 L 220.94135716240913,297.96272119872185 L 213.9814076143667,280.20724074179486 L 231.73688807129372,287.16719028983727 Z" fill="none" stroke="#FFD700" stroke-width="1.8771390921329796" /><path d="M 319.1606415779667,269.6907421333819 L 326.794234690148,287.16719028983727 L 344.549715147075,280.20724074179486 L 337.5897655990326,297.96272119872185 L 355.066213755488,305.59631431090315 L 337.5897655990326,313.22990742308446 L 344.549715147075,330.98538788001144 L 326.794234690148,324.02543833196904 L 319.1606415779667,341.5018864884244 L 311.5270484657854,324.02543833196904 L 293.7715680088584,330.98538788001144 L 300.7315175569008,313.22990742308446 L 283.25506940044545,305.59631431090315 L 300.7315175569008,297.96272119872185 L 293.77156800885837,280.20724074179486 L 311.5270484657854,287.16719028983727 Z" fill="none" stroke="#FFD700" stroke-width="1.8771390921329796" /><path d="M 398.9508019724584,269.6907421333819 L 406.5843950846397,287.16719028983727 L 424.3398755415667,280.20724074179486 L 417.3799259935243,297.96272119872185 L 434.8563741499797,305.59631431090315 L 417.3799259935243,313.22990742308446 L 424.3398755415667,330.98538788001144 L 406.5843950846397,324.02543833196904 L 398.9508019724584,341.5018864884244 L 391.3172088602771,324.02543833196904 L 373.5617284033501,330.98538788001144 L 380.5216779513925,313.22990742308446 L 363.04522979493714,305.59631431090315 L 380.5216779513925,297.96272119872185 L 373.5617284033501,280.20724074179486 L 391.3172088602771,287.16719028983727 Z" fill="none" stroke="#FFD700" stroke-width="1.8771390921329796" /><path d="M 478.74096236695004,269.6907421333819 L 486.37455547913135,287.16719028983727 L 504.13003593605833,280.20724074179486 L 497.17008638801593,297.96272119872185 L 514.6465345444713,305.59631431090315 L 497.17008638801593,313.22990742308446 L 504.13003593605833,330.98538788001144 L 486.37455547913135,324.02543833196904 L 478.74096236695004,341.5018864884244 L 471.10736925476874,324.02543833196904 L 453.35188879784175,330.98538788001144 L 460.31183834588415,313.22990742308446 L 442.8353901894288,305.59631431090315 L 460.31183834588415,297.96272119872185 L 453.35188879784175,280.20724074179486 L 471.10736925476874,287.16719028983727 Z" fill="none" stroke="#FFD700" stroke-width="1.8771390921329796" /><path d="M 558.5311227614418,269.6907421333819 L 566.1647158736231,287.16719028983727 L 583.9201963305501,280.20724074179486 L 576.9602467825077,297.96272119872185 L 594.436694938963,305.59631431090315 L 576.9602467825077,313.22990742308446 L 583.9201963305501,330.98538788001144 L 566.1647158736231,324.02543833196904 L 558.5311227614418,341.5018864884244 L 550.8975296492605,324.02543833196904 L 533.1420491923335,330.98538788001144 L 540.101998740376,313.22990742308446 L 522.6255505839206,305.59631431090315 L 540.1019987403758,297.96272119872185 L 533.1420491923335,280.20724074179486 L 550.8975296492605,287.16719028983727 Z" fill="none" stroke="#FFD700" stroke-width="1.8771390921329796" /><path d="M -39.89508019724584,338.7890210350117 L -32.26148708506456,356.26546919146705 L -14.506006628137524,349.30551964342465 L -21.46595617617995,367.06100010035163 L -3.989508019724582,374.69459321253294 L -21.46595617617995,382.32818632471424 L -14.506006628137524,400.0836667816412 L -32.26148708506456,393.1237172335988 L -39.89508019724584,410.6001653900542 L -47.52867330942712,393.1237172335988 L -65.28415376635415,400.0836667816412 L -58.32420421831172,382.32818632471424 L -75.8006523747671,374.69459321253294 L -58.32420421831173,367.06100010035163 L -65.28415376635417,349.30551964342465 L -47.528673309427134,356.26546919146705 Z" fill="none" stroke="#FFD700" stroke-width="1.8771390921329796" /><path d="M 39.89508019724584,338.7890210350117 L 47.52867330942712,356.26546919146705 L 65.28415376635415,349.30551964342465 L 58.32420421831173,367.06100010035163 L 75.8006523747671,374.69459321253294 L 58.32420421831173,382.32818632471424 L 65.28415376635415,400.0836667816412 L 47.52867330942712,393.1237172335988 L 39.89508019724584,410.6001653900542 L 32.26148708506456,393.1237172335988 L 14.50600662813753,400.0836667816412 L 21.465956176179954,382.32818632471424 L 3.989508019724582,374.69459321253294 L 21.46595617617995,367.06100010035163 L 14.50600662813752,349.30551964342465 L 32.261487085064545,356.26546919146705 Z" fill="none" stroke="#FFD700" stroke-width="1.8771390921329796" /><path d="M 119.68524059173751,338.7890210350117 L 127.3188337039188,356.26546919146705 L 145.07431416084583,349.30551964342465 L 138.1143646128034,367.06100010035163 L 155.59081276925878,374.69459321253294 L 138.1143646128034,382.32818632471424 L 145.07431416084583,400.0836667816412 L 127.3188337039188,393.1237172335988 L 119.68524059173751,410.6001653900542 L 112.05164747955624,393.1237172335988 L 94.2961670226292,400.0836667816412 L 101.25611657067162,382.32818632471424 L 83.77966841421625,374.69459321253294 L 101.25611657067162,367.06100010035163 L 94.29616702262919,349.30551964342465 L 112.05164747955622,356.26546919146705 Z" fill="none" stroke="#FFD700" stroke-width="1.8771390921329796" /><path d="M 199.47540098622918,338.7890210350117 L 207.10899409841045,356.26546919146705 L 224.8644745553375,349.30551964342465 L 217.90452500729506,367.06100010035163 L 235.38097316375044,374.69459321253294 L 217.90452500729506,382.32818632471424 L 224.8644745553375,400.0836667816412 L 207.10899409841045,393.1237172335988 L 199.47540098622918,410.6001653900542 L 191.8418078740479,393.1237172335988 L 174.08632741712086,400.0836667816412 L 181.0462769651633,382.32818632471424 L 163.5698288087079,374.69459321253294 L 181.0462769651633,367.06100010035163 L 174.08632741712086,349.30551964342465 L 191.84180787404787,356.26546919146705 Z" fill="none" stroke="#FFD700" stroke-width="1.8771390921329796" /><path d="M 279.2655613807209,338.7890210350117 L 286.8991544929022,356.26546919146705 L 304.6546349498292,349.30551964342465 L 297.6946854017868,367.06100010035163 L 315.17113355824216,374.69459321253294 L 297.6946854017868,382.32818632471424 L 304.6546349498292,400.0836667816412 L 286.8991544929022,393.1237172335988 L 279.2655613807209,410.6001653900542 L 271.6319682685396,393.1237172335988 L 253.87648781161258,400.0836667816412 L 260.836437359655,382.32818632471424 L 243.35998920319963,374.69459321253294 L 260.836437359655,367.06100010035163 L 253.87648781161258,349.30551964342465 L 271.6319682685396,356.26546919146705 Z" fill="none" stroke="#FFD700" stroke-width="1.8771390921329796" /><path d="M 359.0557217752126,338.7890210350117 L 366.6893148873939,356.26546919146705 L 384.4447953443209,349.30551964342465 L 377.4848457962785,367.06100010035163 L 394.96129395273385,374.69459321253294 L 377.4848457962785,382.32818632471424 L 384.4447953443209,400.0836667816412 L 366.6893148873939,393.1237172335988 L 359.0557217752126,410.6001653900542 L 351.4221286630313,393.1237172335988 L 333.6666482061043,400.0836667816412 L 340.6265977541467,382.32818632471424 L 323.1501495976913,374.69459321253294 L 340.6265977541467,367.06100010035163 L 333.66664820610424,349.30551964342465 L 351.4221286630313,356.26546919146705 Z" fill="none" stroke="#FFD700" stroke-width="1.8771390921329796" /><path d="M 438.8458821697042,338.7890210350117 L 446.4794752818855,356.26546919146705 L 464.2349557388125,349.30551964342465 L 457.2750061907701,367.06100010035163 L 474.7514543472255,374.69459321253294 L 457.2750061907701,382.32818632471424 L 464.2349557388125,400.0836667816412 L 446.4794752818855,393.1237172335988 L 438.8458821697042,410.6001653900542 L 431.2122890575229,393.1237172335988 L 413.45680860059593,400.0836667816412 L 420.41675814863834,382.32818632471424 L 402.94030999218296,374.69459321253294 L 420.41675814863834,367.06100010035163 L 413.4568086005959,349.30551964342465 L 431.2122890575229,356.26546919146705 Z" fill="none" stroke="#FFD700" stroke-width="1.8771390921329796" /><path d="M 518.6360425641959,338.7890210350117 L 526.2696356763772,356.26546919146705 L 544.0251161333042,349.30551964342465 L 537.0651665852617,367.06100010035163 L 554.5416147417171,374.69459321253294 L 537.0651665852617,382.32818632471424 L 544.0251161333042,400.0836667816412 L 526.2696356763772,393.1237172335988 L 518.6360425641959,410.6001653900542 L 511.0024494520146,393.1237172335988 L 493.2469689950876,400.0836667816412 L 500.20691854313003,382.32818632471424 L 482.73047038667465,374.69459321253294 L 500.20691854313003,367.06100010035163 L 493.2469689950876,349.30551964342465 L 511.0024494520146,356.26546919146705 Z" fill="none" stroke="#FFD700" stroke-width="1.8771390921329796" /><path d="M 2.1985822019377835e-15,407.8872999366415 L 7.6335931121812814,425.3637480930969 L 25.389073569108316,418.4037985450545 L 18.42912402106589,436.1592790019815 L 35.90557217752126,443.7928721141628 L 18.42912402106589,451.4264652263441 L 25.389073569108316,469.18194568327107 L 7.6335931121812814,462.22199613522866 L 2.1985822019377835e-15,479.69844429168404 L -7.63359311218128,462.22199613522866 L -25.38907356910831,469.18194568327107 L -18.429124021065885,451.4264652263441 L -35.90557217752126,443.7928721141628 L -18.42912402106589,436.1592790019815 L -25.38907356910832,418.4037985450545 L -7.633593112181291,425.3637480930969 Z" fill="none" stroke="#FFD700" stroke-width="1.8771390921329796" /><path d="M 79.79016039449168,407.8872999366415 L 87.42375350667297,425.3637480930969 L 105.1792339636,418.4037985450545 L 98.21928441555757,436.1592790019815 L 115.69573257201293,443.7928721141628 L 98.21928441555757,451.4264652263441 L 105.1792339636,469.18194568327107 L 87.42375350667297,462.22199613522866 L 79.79016039449168,479.69844429168404 L 72.1565672823104,462.22199613522866 L 54.40108682538337,469.18194568327107 L 61.36103637342579,451.4264652263441 L 43.88458821697042,443.7928721141628 L 61.36103637342579,436.1592790019815 L 54.40108682538336,418.4037985450545 L 72.15656728231039,425.3637480930969 Z" fill="none" stroke="#FFD700" stroke-width="1.8771390921329796" /><path d="M 159.58032078898336,407.8872999366415 L 167.21391390116463,425.3637480930969 L 184.96939435809168,418.4037985450545 L 178.00944481004925,436.1592790019815 L 195.48589296650462,443.7928721141628 L 178.00944481004925,451.4264652263441 L 184.96939435809168,469.18194568327107 L 167.21391390116463,462.22199613522866 L 159.58032078898336,479.69844429168404 L 151.94672767680208,462.22199613522866 L 134.19124721987504,469.18194568327107 L 141.15119676791747,451.4264652263441 L 123.67474861146209,443.7928721141628 L 141.15119676791747,436.1592790019815 L 134.19124721987504,418.4037985450545 L 151.94672767680206,425.3637480930969 Z" fill="none" stroke="#FFD700" stroke-width="1.8771390921329796" /><path d="M 239.37048118347502,407.8872999366415 L 247.0040742956563,425.3637480930969 L 264.7595547525833,418.4037985450545 L 257.7996052045409,436.1592790019815 L 275.2760533609963,443.7928721141628 L 257.7996052045409,451.4264652263441 L 264.7595547525833,469.18194568327107 L 247.0040742956563,462.22199613522866 L 239.37048118347502,479.69844429168404 L 231.73688807129375,462.22199613522866 L 213.9814076143667,469.18194568327107 L 220.94135716240913,451.4264652263441 L 203.46490900595376,443.7928721141628 L 220.94135716240913,436.1592790019815 L 213.9814076143667,418.4037985450545 L 231.73688807129372,425.3637480930969 Z" fill="none" stroke="#FFD700" stroke-width="1.8771390921329796" /><path d="M 319.1606415779667,407.8872999366415 L 326.794234690148,425.3637480930969 L 344.549715147075,418.4037985450545 L 337.5897655990326,436.1592790019815 L 355.066213755488,443.7928721141628 L 337.5897655990326,451.4264652263441 L 344.549715147075,469.18194568327107 L 326.794234690148,462.22199613522866 L 319.1606415779667,479.69844429168404 L 311.5270484657854,462.22199613522866 L 293.7715680088584,469.18194568327107 L 300.7315175569008,451.4264652263441 L 283.25506940044545,443.7928721141628 L 300.7315175569008,436.1592790019815 L 293.77156800885837,418.4037985450545 L 311.5270484657854,425.3637480930969 Z" fill="none" stroke="#FFD700" stroke-width="1.8771390921329796" /><path d="M 398.9508019724584,407.8872999366415 L 406.5843950846397,425.3637480930969 L 424.3398755415667,418.4037985450545 L 417.3799259935243,436.1592790019815 L 434.8563741499797,443.7928721141628 L 417.3799259935243,451.4264652263441 L 424.3398755415667,469.18194568327107 L 406.5843950846397,462.22199613522866 L 398.9508019724584,479.69844429168404 L 391.3172088602771,462.22199613522866 L 373.5617284033501,469.18194568327107 L 380.5216779513925,451.4264652263441 L 363.04522979493714,443.7928721141628 L 380.5216779513925,436.1592790019815 L 373.5617284033501,418.4037985450545 L 391.3172088602771,425.3637480930969 Z" fill="none" stroke="#FFD700" stroke-width="1.8771390921329796" /><path d="M 478.74096236695004,407.8872999366415 L 486.37455547913135,425.3637480930969 L 504.13003593605833,418.4037985450545 L 497.17008638801593,436.1592790019815 L 514.6465345444713,443.7928721141628 L 497.17008638801593,451.4264652263441 L 504.13003593605833,469.18194568327107 L 486.37455547913135,462.22199613522866 L 478.74096236695004,479.69844429168404 L 471.10736925476874,462.22199613522866 L 453.35188879784175,469.18194568327107 L 460.31183834588415,451.4264652263441 L 442.8353901894288,443.7928721141628 L 460.31183834588415,436.1592790019815 L 453.35188879784175,418.4037985450545 L 471.10736925476874,425.3637480930969 Z" fill="none" stroke="#FFD700" stroke-width="1.8771390921329796" /><path d="M 558.5311227614418,407.8872999366415 L 566.1647158736231,425.3637480930969 L 583.9201963305501,418.4037985450545 L 576.9602467825077,436.1592790019815 L 594.436694938963,443.7928721141628 L 576.9602467825077,451.4264652263441 L 583.9201963305501,469.18194568327107 L 566.1647158736231,462.22199613522866 L 558.5311227614418,479.69844429168404 L 550.8975296492605,462.22199613522866 L 533.1420491923335,469.18194568327107 L 540.101998740376,451.4264652263441 L 522.6255505839206,443.7928721141628 L 540.1019987403758,436.1592790019815 L 533.1420491923335,418.4037985450545 L 550.8975296492605,425.3637480930969 Z" fill="none" stroke="#FFD700" stroke-width="1.8771390921329796" /><path d="M -39.89508019724584,476.98557883827124 L -32.26148708506456,494.4620269947266 L -14.506006628137524,487.5020774466842 L -21.46595617617995,505.2575579036112 L -3.989508019724582,512.8911510157925 L -21.46595617617995,520.5247441279738 L -14.506006628137524,538.2802245849008 L -32.26148708506456,531.3202750368584 L -39.89508019724584,548.7967231933137 L -47.52867330942712,531.3202750368584 L -65.28415376635415,538.2802245849008 L -58.32420421831172,520.5247441279738 L -75.8006523747671,512.8911510157925 L -58.32420421831173,505.2575579036112 L -65.28415376635417,487.5020774466842 L -47.528673309427134,494.4620269947266 Z" fill="none" stroke="#FFD700" stroke-width="1.8771390921329796" /><path d="M 39.89508019724584,476.98557883827124 L 47.52867330942712,494.4620269947266 L 65.28415376635415,487.5020774466842 L 58.32420421831173,505.2575579036112 L 75.8006523747671,512.8911510157925 L 58.32420421831173,520.5247441279738 L 65.28415376635415,538.2802245849008 L 47.52867330942712,531.3202750368584 L 39.89508019724584,548.7967231933137 L 32.26148708506456,531.3202750368584 L 14.50600662813753,538.2802245849008 L 21.465956176179954,520.5247441279738 L 3.989508019724582,512.8911510157925 L 21.46595617617995,505.2575579036112 L 14.50600662813752,487.5020774466842 L 32.261487085064545,494.4620269947266 Z" fill="none" stroke="#FFD700" stroke-width="1.8771390921329796" /><path d="M 119.68524059173751,476.98557883827124 L 127.3188337039188,494.4620269947266 L 145.07431416084583,487.5020774466842 L 138.1143646128034,505.2575579036112 L 155.59081276925878,512.8911510157925 L 138.1143646128034,520.5247441279738 L 145.07431416084583,538.2802245849008 L 127.3188337039188,531.3202750368584 L 119.68524059173751,548.7967231933137 L 112.05164747955624,531.3202750368584 L 94.2961670226292,538.2802245849008 L 101.25611657067162,520.5247441279738 L 83.77966841421625,512.8911510157925 L 101.25611657067162,505.2575579036112 L 94.29616702262919,487.5020774466842 L 112.05164747955622,494.4620269947266 Z" fill="none" stroke="#FFD700" stroke-width="1.8771390921329796" /><path d="M 199.47540098622918,476.98557883827124 L 207.10899409841045,494.4620269947266 L 224.8644745553375,487.5020774466842 L 217.90452500729506,505.2575579036112 L 235.38097316375044,512.8911510157925 L 217.90452500729506,520.5247441279738 L 224.8644745553375,538.2802245849008 L 207.10899409841045,531.3202750368584 L 199.47540098622918,548.7967231933137 L 191.8418078740479,531.3202750368584 L 174.08632741712086,538.2802245849008 L 181.0462769651633,520.5247441279738 L 163.5698288087079,512.8911510157925 L 181.0462769651633,505.2575579036112 L 174.08632741712086,487.5020774466842 L 191.84180787404787,494.4620269947266 Z" fill="none" stroke="#FFD700" stroke-width="1.8771390921329796" /><path d="M 279.2655613807209,476.98557883827124 L 286.8991544929022,494.4620269947266 L 304.6546349498292,487.5020774466842 L 297.6946854017868,505.2575579036112 L 315.17113355824216,512.8911510157925 L 297.6946854017868,520.5247441279738 L 304.6546349498292,538.2802245849008 L 286.8991544929022,531.3202750368584 L 279.2655613807209,548.7967231933137 L 271.6319682685396,531.3202750368584 L 253.87648781161258,538.2802245849008 L 260.836437359655,520.5247441279738 L 243.35998920319963,512.8911510157925 L 260.836437359655,505.2575579036112 L 253.87648781161258,487.5020774466842 L 271.6319682685396,494.4620269947266 Z" fill="none" stroke="#FFD700" stroke-width="1.8771390921329796" /><path d="M 359.0557217752126,476.98557883827124 L 366.6893148873939,494.4620269947266 L 384.4447953443209,487.5020774466842 L 377.4848457962785,505.2575579036112 L 394.96129395273385,512.8911510157925 L 377.4848457962785,520.5247441279738 L 384.4447953443209,538.2802245849008 L 366.6893148873939,531.3202750368584 L 359.0557217752126,548.7967231933137 L 351.4221286630313,531.3202750368584 L 333.6666482061043,538.2802245849008 L 340.6265977541467,520.5247441279738 L 323.1501495976913,512.8911510157925 L 340.6265977541467,505.2575579036112 L 333.66664820610424,487.5020774466842 L 351.4221286630313,494.4620269947266 Z" fill="none" stroke="#FFD700" stroke-width="1.8771390921329796" /><path d="M 438.8458821697042,476.98557883827124 L 446.4794752818855,494.4620269947266 L 464.2349557388125,487.5020774466842 L 457.2750061907701,505.2575579036112 L 474.7514543472255,512.8911510157925 L 457.2750061907701,520.5247441279738 L 464.2349557388125,538.2802245849008 L 446.4794752818855,531.3202750368584 L 438.8458821697042,548.7967231933137 L 431.2122890575229,531.3202750368584 L 413.45680860059593,538.2802245849008 L 420.41675814863834,520.5247441279738 L 402.94030999218296,512.8911510157925 L 420.41675814863834,505.2575579036112 L 413.4568086005959,487.5020774466842 L 431.2122890575229,494.4620269947266 Z" fill="none" stroke="#FFD700" stroke-width="1.8771390921329796" /><path d="M 518.6360425641959,476.98557883827124 L 526.2696356763772,494.4620269947266 L 544.0251161333042,487.5020774466842 L 537.0651665852617,505.2575579036112 L 554.5416147417171,512.8911510157925 L 537.0651665852617,520.5247441279738 L 544.0251161333042,538.2802245849008 L 526.2696356763772,531.3202750368584 L 518.6360425641959,548.7967231933137 L 511.0024494520146,531.3202750368584 L 493.2469689950876,538.2802245849008 L 500.20691854313003,520.5247441279738 L 482.73047038667465,512.8911510157925 L 500.20691854313003,505.2575579036112 L 493.2469689950876,487.5020774466842 L 511.0024494520146,494.4620269947266 Z" fill="none" stroke="#FFD700" stroke-width="1.8771390921329796" /><line x1="35.90557217752126" y1="29.203198704383958" x2="43.88458821697042" y2="29.203198704383958" stroke="#FFD700" stroke-width="0.5"/><line x1="115.69573257201293" y1="29.203198704383958" x2="123.67474861146209" y2="29.203198704383958" stroke="#FFD700" stroke-width="0.5"/><line x1="195.48589296650462" y1="29.203198704383958" x2="203.46490900595376" y2="29.203198704383958" stroke="#FFD700" stroke-width="0.5"/><line x1="275.2760533609963" y1="29.203198704383958" x2="283.25506940044545" y2="29.203198704383958" stroke="#FFD700" stroke-width="0.5"/><line x1="355.066213755488" y1="29.203198704383958" x2="363.04522979493714" y2="29.203198704383958" stroke="#FFD700" stroke-width="0.5"/><line x1="434.8563741499797" y1="29.203198704383958" x2="442.8353901894288" y2="29.203198704383958" stroke="#FFD700" stroke-width="0.5"/><line x1="75.8006523747671" y1="98.30147760601375" x2="83.77966841421625" y2="98.30147760601375" stroke="#FFD700" stroke-width="0.5"/><line x1="155.59081276925878" y1="98.30147760601375" x2="163.5698288087079" y2="98.30147760601375" stroke="#FFD700" stroke-width="0.5"/><line x1="235.38097316375044" y1="98.30147760601375" x2="243.35998920319963" y2="98.30147760601375" stroke="#FFD700" stroke-width="0.5"/><line x1="315.17113355824216" y1="98.30147760601375" x2="323.1501495976913" y2="98.30147760601375" stroke="#FFD700" stroke-width="0.5"/><line x1="394.96129395273385" y1="98.30147760601375" x2="402.94030999218296" y2="98.30147760601375" stroke="#FFD700" stroke-width="0.5"/><line x1="474.7514543472255" y1="98.30147760601375" x2="482.73047038667465" y2="98.30147760601375" stroke="#FFD700" stroke-width="0.5"/><line x1="35.90557217752126" y1="167.39975650764353" x2="43.88458821697042" y2="167.39975650764353" stroke="#FFD700" stroke-width="0.5"/><line x1="115.69573257201293" y1="167.39975650764353" x2="123.67474861146209" y2="167.39975650764353" stroke="#FFD700" stroke-width="0.5"/><line x1="195.48589296650462" y1="167.39975650764353" x2="203.46490900595376" y2="167.39975650764353" stroke="#FFD700" stroke-width="0.5"/><line x1="275.2760533609963" y1="167.39975650764353" x2="283.25506940044545" y2="167.39975650764353" stroke="#FFD700" stroke-width="0.5"/><line x1="355.066213755488" y1="167.39975650764353" x2="363.04522979493714" y2="167.39975650764353" stroke="#FFD700" stroke-width="0.5"/><line x1="434.8563741499797" y1="167.39975650764353" x2="442.8353901894288" y2="167.39975650764353" stroke="#FFD700" stroke-width="0.5"/><line x1="75.8006523747671" y1="236.49803540927334" x2="83.77966841421625" y2="236.49803540927334" stroke="#FFD700" stroke-width="0.5"/><line x1="155.59081276925878" y1="236.49803540927334" x2="163.5698288087079" y2="236.49803540927334" stroke="#FFD700" stroke-width="0.5"/><line x1="235.38097316375044" y1="236.49803540927334" x2="243.35998920319963" y2="236.49803540927334" stroke="#FFD700" stroke-width="0.5"/><line x1="315.17113355824216" y1="236.49803540927334" x2="323.1501495976913" y2="236.49803540927334" stroke="#FFD700" stroke-width="0.5"/><line x1="394.96129395273385" y1="236.49803540927334" x2="402.94030999218296" y2="236.49803540927334" stroke="#FFD700" stroke-width="0.5"/><line x1="474.7514543472255" y1="236.49803540927334" x2="482.73047038667465" y2="236.49803540927334" stroke="#FFD700" stroke-width="0.5"/><line x1="35.90557217752126" y1="305.59631431090315" x2="43.88458821697042" y2="305.59631431090315" stroke="#FFD700" stroke-width="0.5"/><line x1="115.69573257201293" y1="305.59631431090315" x2="123.67474861146209" y2="305.59631431090315" stroke="#FFD700" stroke-width="0.5"/><line x1="195.48589296650462" y1="305.59631431090315" x2="203.46490900595376" y2="305.59631431090315" stroke="#FFD700" stroke-width="0.5"/><line x1="275.2760533609963" y1="305.59631431090315" x2="283.25506940044545" y2="305.59631431090315" stroke="#FFD700" stroke-width="0.5"/><line x1="355.066213755488" y1="305.59631431090315" x2="363.04522979493714" y2="305.59631431090315" stroke="#FFD700" stroke-width="0.5"/><line x1="434.8563741499797" y1="305.59631431090315" x2="442.8353901894288" y2="305.59631431090315" stroke="#FFD700" stroke-width="0.5"/><line x1="75.8006523747671" y1="374.69459321253294" x2="83.77966841421625" y2="374.69459321253294" stroke="#FFD700" stroke-width="0.5"/><line x1="155.59081276925878" y1="374.69459321253294" x2="163.5698288087079" y2="374.69459321253294" stroke="#FFD700" stroke-width="0.5"/><line x1="235.38097316375044" y1="374.69459321253294" x2="243.35998920319963" y2="374.69459321253294" stroke="#FFD700" stroke-width="0.5"/><line x1="315.17113355824216" y1="374.69459321253294" x2="323.1501495976913" y2="374.69459321253294" stroke="#FFD700" stroke-width="0.5"/><line x1="394.96129395273385" y1="374.69459321253294" x2="402.94030999218296" y2="374.69459321253294" stroke="#FFD700" stroke-width="0.5"/><line x1="474.7514543472255" y1="374.69459321253294" x2="482.73047038667465" y2="374.69459321253294" stroke="#FFD700" stroke-width="0.5"/><line x1="35.90557217752126" y1="443.7928721141628" x2="43.88458821697042" y2="443.7928721141628" stroke="#FFD700" stroke-width="0.5"/><line x1="115.69573257201293" y1="443.7928721141628" x2="123.67474861146209" y2="443.7928721141628" stroke="#FFD700" stroke-width="0.5"/><line x1="195.48589296650462" y1="443.7928721141628" x2="203.46490900595376" y2="443.7928721141628" stroke="#FFD700" stroke-width="0.5"/><line x1="275.2760533609963" y1="443.7928721141628" x2="283.25506940044545" y2="443.7928721141628" stroke="#FFD700" stroke-width="0.5"/><line x1="355.066213755488" y1="443.7928721141628" x2="363.04522979493714" y2="443.7928721141628" stroke="#FFD700" stroke-width="0.5"/><line x1="434.8563741499797" y1="443.7928721141628" x2="442.8353901894288" y2="443.7928721141628" stroke="#FFD700" stroke-width="0.5"/></g></svg>