<svg xmlns="http://www.w3.org/2000/svg" width="512" height="512" viewBox="0 0 512 512"><rect x="0" y="0" width="512" height="512" fill="#050510"/><g opacity="0.05143119543857463"><path d="M -43.58099823386878,-82.80389664435069 L -35.24213523885187,-63.71279437120974 L -15.84622079002597,-71.3157756777116 L -23.44920209652783,-51.91986122888569 L -4.35809982338688,-43.58099823386878 L -23.44920209652783,-35.24213523885187 L -15.84622079002597,-15.846220790025974 L -35.24213523885187,-23.44920209652783 L -43.58099823386878,-4.35809982338688 L -51.91986122888569,-23.44920209652783 L -71.3157756777116,-15.84622079002597 L -63.71279437120973,-35.24213523885186 L -82.80389664435069,-43.580998233868776 L -63.71279437120973,-51.9198612288857 L -71.3157756777116,-71.3157756777116 L -51.91986122888571,-63.71279437120973 Z" fill="none" stroke="#0F52BA" stroke-width="2.6995183835735164" /><path d="M 43.58099823386878,-82.80389664435069 L 51.91986122888569,-63.71279437120974 L 71.3157756777116,-71.3157756777116 L 63.71279437120974,-51.91986122888569 L 82.80389664435069,-43.58099823386878 L 63.71279437120974,-35.24213523885187 L 71.3157756777116,-15.846220790025974 L 51.91986122888569,-23.44920209652783 L 43.58099823386878,-4.35809982338688 L 35.24213523885187,-23.44920209652783 L 15.846220790025974,-15.84622079002597 L 23.449202096527834,-35.24213523885186 L 4.35809982338688,-43.580998233868776 L 23.449202096527834,-51.9198612288857 L 15.846220790025967,-71.3157756777116 L 35.24213523885186,-63.71279437120973 Z" fill="none" stroke="#0F52BA" stroke-width="2.6995183835735164" /><path d="M 130.74299470160634,-82.80389664435069 L 139.08185769662325,-63.71279437120974 L 158.47777214544914,-71.3157756777116 L 150.8747908389473,-51.91986122888569 L 169.96589311208822,-43.58099823386878 L 150.8747908389473,-35.24213523885187 L 158.47777214544914,-15.846220790025974 L 139.08185769662325,-23.44920209652783 L 130.74299470160634,-4.35809982338688 L 122.40413170658942,-23.44920209652783 L 103.00821725776353,-15.84622079002597 L 110.61119856426538,-35.24213523885186 L 91.52009629112443,-43.580998233868776 L 110.61119856426538,-51.9198612288857 L 103.00821725776352,-71.3157756777116 L 122.40413170658941,-63.71279437120973 Z" fill="none" stroke="#0F52BA" stroke-width="2.6995183835735164" /><path d="M 217.90499116934387,-82.80389664435069 L 226.24385416436078,-63.71279437120974 L 245.63976861318667,-71.3157756777116 L 238.03678730668483,-51.91986122888569 L 257.12788957982576,-43.58099823386878 L 238.03678730668483,-35.24213523885187 L 245.63976861318667,-15.846220790025974 L 226.24385416436078,-23.44920209652783 L 217.90499116934387,-4.35809982338688 L 209.56612817432696,-23.44920209652783 L 190.17021372550107,-15.84622079002597 L 197.77319503200292,-35.24213523885186 L 178.68209275886198,-43.580998233868776 L 197.77319503200292,-51.9198612288857 L 190.17021372550107,-71.3157756777116 L 209.56612817432696,-63.71279437120973 Z" fill="none" stroke="#0F52BA" stroke-width="2.6995183835735164" /><path d="M 305.06698763708147,-82.80389664435069 L 313.4058506320984,-63.71279437120974 L 332.80176508092427,-71.3157756777116 L 325.1987837744224,-51.91986122888569 L 344.28988604756336,-43.58099823386878 L 325.1987837744224,-35.24213523885187 L 332.80176508092427,-15.846220790025974 L 313.4058506320984,-23.44920209652783 L 305.06698763708147,-4.35809982338688 L 296.7281246420646,-23.44920209652783 L 277.33221019323867,-15.84622079002597 L 284.93519149974054,-35.24213523885186 L 265.8440892265996,-43.580998233868776 L 284.93519149974054,-51.9198612288857 L 277.33221019323867,-71.3157756777116 L 296.72812464206453,-63.71279437120973 Z" fill="none" stroke="#0F52BA" stroke-width="2.6995183835735164" /><path d="M 392.22898410481906,-82.80389664435069 L 400.567847099836,-63.71279437120974 L 419.96376154866186,-71.3157756777116 L 412.36078024216,-51.91986122888569 L 431.45188251530095,-43.58099823386878 L 412.36078024216,-35.24213523885187 L 419.96376154866186,-15.846220790025974 L 400.567847099836,-23.44920209652783 L 392.22898410481906,-4.35809982338688 L 383.8901211098022,-23.44920209652783 L 364.49420666097626,-15.84622079002597 L 372.09718796747813,-35.24213523885186 L 353.0060856943372,-43.580998233868776 L 372.09718796747813,-51.9198612288857 L 364.49420666097626,-71.3157756777116 L 383.8901211098021,-63.71279437120973 Z" fill="none" stroke="#0F52BA" stroke-width="2.6995183835735164" /><path d="M 479.39098057255654,-82.80389664435069 L 487.7298435675735,-63.71279437120974 L 507.12575801639935,-71.3157756777116 L 499.52277670989747,-51.91986122888569 L 518.6138789830385,-43.58099823386878 L 499.52277670989747,-35.24213523885187 L 507.12575801639935,-15.846220790025974 L 487.7298435675735,-23.44920209652783 L 479.39098057255654,-4.35809982338688 L 471.05211757753966,-23.44920209652783 L 451.65620312871374,-15.84622079002597 L 459.2591844352156,-35.24213523885186 L 440.16808216207465,-43.580998233868776 L 459.2591844352156,-51.9198612288857 L 451.65620312871374,-71.3157756777116 L 471.0521175775396,-63.71279437120973 Z" fill="none" stroke="#0F52BA" stroke-width="2.6995183835735164" /><path d="M 566.5529770402942,-82.80389664435069 L 574.8918400353111,-63.71279437120974 L 594.287754484137,-71.3157756777116 L 586.6847731776352,-51.91986122888569 L 605.7758754507761,-43.58099823386878 L 586.6847731776352,-35.24213523885187 L 594.287754484137,-15.846220790025974 L 574.8918400353111,-23.44920209652783 L 566.5529770402942,-4.35809982338688 L 558.2141140452773,-23.44920209652783 L 538.8181995964513,-15.84622079002597 L 546.4211809029532,-35.24213523885186 L 527.3300786298123,-43.580998233868776 L 546.4211809029532,-51.9198612288857 L 538.8181995964513,-71.3157756777116 L 558.2141140452773,-63.71279437120973 Z" fill="none" stroke="#0F52BA" stroke-width="2.6995183835735164" /><path d="M 2.4017098495839234e-15,-7.321607703289956 L 8.338862995016912,11.769494569850995 L 27.734777443842813,4.166513263349138 L 20.131796137340952,23.562427712175037 L 39.2228984104819,31.901290707191947 L 20.131796137340952,40.24015370220886 L 27.734777443842813,59.636068151034756 L 8.338862995016912,52.0330868445329 L 2.4017098495839234e-15,71.12418911767385 L -8.33886299501691,52.0330868445329 L -27.73477744384281,59.63606815103476 L -20.13179613734095,40.24015370220887 L -39.2228984104819,31.90129070719195 L -20.13179613734095,23.56242771217503 L -27.734777443842816,4.166513263349138 L -8.338862995016923,11.769494569850998 Z" fill="none" stroke="#0F52BA" stroke-width="2.6995183835735164" /><path d="M 87.16199646773757,-7.321607703289956 L 95.50085946275448,11.769494569850995 L 114.89677391158038,4.166513263349138 L 107.29379260507852,23.562427712175037 L 126.38489487821947,31.901290707191947 L 107.29379260507852,40.24015370220886 L 114.89677391158038,59.636068151034756 L 95.50085946275448,52.0330868445329 L 87.16199646773757,71.12418911767385 L 78.82313347272066,52.0330868445329 L 59.42721902389476,59.63606815103476 L 67.03020033039661,40.24015370220887 L 47.93909805725566,31.90129070719195 L 67.03020033039661,23.56242771217503 L 59.42721902389475,4.166513263349138 L 78.82313347272064,11.769494569850998 Z" fill="none" stroke="#0F52BA" stroke-width="2.6995183835735164" /><path d="M 174.32399293547513,-7.321607703289956 L 182.66285593049204,11.769494569850995 L 202.05877037931793,4.166513263349138 L 194.4557890728161,23.562427712175037 L 213.54689134595702,31.901290707191947 L 194.4557890728161,40.24015370220886 L 202.05877037931793,59.636068151034756 L 182.66285593049204,52.0330868445329 L 174.32399293547513,71.12418911767385 L 165.98512994045822,52.0330868445329 L 146.58921549163233,59.63606815103476 L 154.19219679813418,40.24015370220887 L 135.10109452499324,31.90129070719195 L 154.19219679813418,23.56242771217503 L 146.58921549163233,4.166513263349138 L 165.98512994045822,11.769494569850998 Z" fill="none" stroke="#0F52BA" stroke-width="2.6995183835735164" /><path d="M 261.48598940321267,-7.321607703289956 L 269.8248523982296,11.769494569850995 L 289.2207668470555,4.166513263349138 L 281.6177855405536,23.562427712175037 L 300.70888781369456,31.901290707191947 L 281.6177855405536,40.24015370220886 L 289.2207668470555,59.636068151034756 L 269.8248523982296,52.0330868445329 L 261.48598940321267,71.12418911767385 L 253.14712640819576,52.0330868445329 L 233.75121195936987,59.63606815103476 L 241.35419326587171,40.24015370220887 L 222.26309099273078,31.90129070719195 L 241.35419326587171,23.56242771217503 L 233.75121195936987,4.166513263349138 L 253.14712640819576,11.769494569850998 Z" fill="none" stroke="#0F52BA" stroke-width="2.6995183835735164" /><path d="M 348.64798587095027,-7.321607703289956 L 356.9868488659672,11.769494569850995 L 376.38276331479307,4.166513263349138 L 368.7797820082912,23.562427712175037 L 387.87088428143215,31.901290707191947 L 368.7797820082912,40.24015370220886 L 376.38276331479307,59.636068151034756 L 356.9868488659672,52.0330868445329 L 348.64798587095027,71.12418911767385 L 340.3091228759333,52.0330868445329 L 320.91320842710746,59.63606815103476 L 328.51618973360934,40.24015370220887 L 309.4250874604684,31.90129070719195 L 328.51618973360934,23.56242771217503 L 320.91320842710746,4.166513263349138 L 340.3091228759333,11.769494569850998 Z" fill="none" stroke="#0F52BA" stroke-width="2.6995183835735164" /><path d="M 435.80998233868786,-7.321607703289956 L 444.1488453337048,11.769494569850995 L 463.54475978253066,4.166513263349138 L 455.9417784760288,23.562427712175037 L 475.03288074916975,31.901290707191947 L 455.9417784760288,40.24015370220886 L 463.54475978253066,59.636068151034756 L 444.1488453337048,52.0330868445329 L 435.80998233868786,71.12418911767385 L 427.4711193436709,52.0330868445329 L 408.07520489484506,59.63606815103476 L 415.67818620134693,40.24015370220887 L 396.58708392820597,31.90129070719195 L 415.67818620134693,23.56242771217503 L 408.07520489484506,4.166513263349138 L 427.4711193436709,11.769494569850998 Z" fill="none" stroke="#0F52BA" stroke-width="2.6995183835735164" /><path d="M 522.9719788064253,-7.321607703289956 L 531.3108418014423,11.769494569850995 L 550.7067562502682,4.166513263349138 L 543.1037749437663,23.562427712175037 L 562.1948772169072,31.901290707191947 L 543.1037749437663,40.24015370220886 L 550.7067562502682,59.636068151034756 L 531.3108418014423,52.0330868445329 L 522.9719788064253,71.12418911767385 L 514.6331158114084,52.0330868445329 L 495.23720136258254,59.63606815103476 L 502.8401826690844,40.24015370220887 L 483.74908039594345,31.90129070719195 L 502.8401826690844,23.56242771217503 L 495.23720136258254,4.166513263349138 L 514.6331158114084,11.769494569850998 Z" fill="none" stroke="#0F52BA" stroke-width="2.6995183835735164" /><path d="M -43.58099823386878,68.16068123777077 L -35.24213523885187,87.25178351091172 L -15.84622079002597,79.64880220440986 L -23.44920209652783,99.04471665323577 L -4.35809982338688,107.38357964825268 L -23.44920209652783,115.72244264326959 L -15.84622079002597,135.1183570920955 L -35.24213523885187,127.51537578559363 L -43.58099823386878,146.60647805873458 L -51.91986122888569,127.51537578559363 L -71.3157756777116,135.1183570920955 L -63.71279437120973,115.7224426432696 L -82.80389664435069,107.38357964825268 L -63.71279437120973,99.04471665323575 L -71.3157756777116,79.64880220440986 L -51.91986122888571,87.25178351091174 Z" fill="none" stroke="#0F52BA" stroke-width="2.6995183835735164" /><path d="M 43.58099823386878,68.16068123777077 L 51.91986122888569,87.25178351091172 L 71.3157756777116,79.64880220440986 L 63.71279437120974,99.04471665323577 L 82.80389664435069,107.38357964825268 L 63.71279437120974,115.72244264326959 L 71.3157756777116,135.1183570920955 L 51.91986122888569,127.51537578559363 L 43.58099823386878,146.60647805873458 L 35.24213523885187,127.51537578559363 L 15.846220790025974,135.1183570920955 L 23.449202096527834,115.7224426432696 L 4.35809982338688,107.38357964825268 L 23.449202096527834,99.04471665323575 L 15.846220790025967,79.64880220440986 L 35.24213523885186,87.25178351091174 Z" fill="none" stroke="#0F52BA" stroke-width="2.6995183835735164" /><path d="M 130.74299470160634,68.16068123777077 L 139.08185769662325,87.25178351091172 L 158.47777214544914,79.64880220440986 L 150.8747908389473,99.04471665323577 L 169.96589311208822,107.38357964825268 L 150.8747908389473,115.72244264326959 L 158.47777214544914,135.1183570920955 L 139.08185769662325,127.51537578559363 L 130.74299470160634,146.60647805873458 L 122.40413170658942,127.51537578559363 L 103.00821725776353,135.1183570920955 L 110.61119856426538,115.7224426432696 L 91.52009629112443,107.38357964825268 L 110.61119856426538,99.04471665323575 L 103.00821725776352,79.64880220440986 L 122.40413170658941,87.25178351091174 Z" fill="none" stroke="#0F52BA" stroke-width="2.6995183835735164" /><path d="M 217.90499116934387,68.16068123777077 L 226.24385416436078,87.25178351091172 L 245.63976861318667,79.64880220440986 L 238.03678730668483,99.04471665323577 L 257.12788957982576,107.38357964825268 L 238.03678730668483,115.72244264326959 L 245.63976861318667,135.1183570920955 L 226.24385416436078,127.51537578559363 L 217.90499116934387,146.60647805873458 L 209.56612817432696,127.51537578559363 L 190.17021372550107,135.1183570920955 L 197.77319503200292,115.7224426432696 L 178.68209275886198,107.38357964825268 L 197.77319503200292,99.04471665323575 L 190.17021372550107,79.64880220440986 L 209.56612817432696,87.25178351091174 Z" fill="none" stroke="#0F52BA" stroke-width="2.6995183835735164" /><path d="M 305.06698763708147,68.16068123777077 L 313.4058506320984,87.25178351091172 L 332.80176508092427,79.64880220440986 L 325.1987837744224,99.04471665323577 L 344.28988604756336,107.38357964825268 L 325.1987837744224,115.72244264326959 L 332.80176508092427,135.1183570920955 L 313.4058506320984,127.51537578559363 L 305.06698763708147,146.60647805873458 L 296.7281246420646,127.51537578559363 L 277.33221019323867,135.1183570920955 L 284.93519149974054,115.7224426432696 L 265.8440892265996,107.38357964825268 L 284.93519149974054,99.04471665323575 L 277.33221019323867,79.64880220440986 L 296.72812464206453,87.25178351091174 Z" fill="none" stroke="#0F52BA" stroke-width="2.6995183835735164" /><path d="M 392.22898410481906,68.16068123777077 L 400.567847099836,87.25178351091172 L 419.96376154866186,79.64880220440986 L 412.36078024216,99.04471665323577 L 431.45188251530095,107.38357964825268 L 412.36078024216,115.72244264326959 L 419.96376154866186,135.1183570920955 L 400.567847099836,127.51537578559363 L 392.22898410481906,146.60647805873458 L 383.8901211098022,127.51537578559363 L 364.49420666097626,135.1183570920955 L 372.09718796747813,115.7224426432696 L 353.0060856943372,107.38357964825268 L 372.09718796747813,99.04471665323575 L 364.49420666097626,79.64880220440986 L 383.8901211098021,87.25178351091174 Z" fill="none" stroke="#0F52BA" stroke-width="2.6995183835735164" /><path d="M 479.39098057255654,68.16068123777077 L 487.7298435675735,87.25178351091172 L 507.12575801639935,79.64880220440986 L 499.52277670989747,99.04471665323577 L 518.6138789830385,107.38357964825268 L 499.52277670989747,115.72244264326959 L 507.12575801639935,135.1183570920955 L 487.7298435675735,127.51537578559363 L 479.39098057255654,146.60647805873458 L 471.05211757753966,127.51537578559363 L 451.65620312871374,135.1183570920955 L 459.2591844352156,115.7224426432696 L 440.16808216207465,107.38357964825268 L 459.2591844352156,99.04471665323575 L 451.65620312871374,79.64880220440986 L 471.0521175775396,87.25178351091174 Z" fill="none" stroke="#0F52BA" stroke-width="2.6995183835735164" /><path d="M 566.5529770402942,68.16068123777077 L 574.8918400353111,87.25178351091172 L 594.287754484137,79.64880220440986 L 586.6847731776352,99.04471665323577 L 605.7758754507761,107.38357964825268 L 586.6847731776352,115.72244264326959 L 594.287754484137,135.1183570920955 L 574.8918400353111,127.51537578559363 L 566.5529770402942,146.60647805873458 L 558.2141140452773,127.51537578559363 L 538.8181995964513,135.1183570920955 L 546.4211809029532,115.7224426432696 L 527.3300786298123,107.38357964825268 L 546.4211809029532,99.04471665323575 L 538.8181995964513,79.64880220440986 L 558.2141140452773,87.25178351091174 Z" fill="none" stroke="#0F52BA" stroke-width="2.6995183835735164" /><path d="M 2.4017098495839234e-15,143.6429701788315 L 8.338862995016912,162.73407245197242 L 27.734777443842813,155.13109114547058 L 20.131796137340952,174.52700559429647 L 39.2228984104819,182.86586858931338 L 20.131796137340952,191.2047315843303 L 27.734777443842813,210.60064603315618 L 8.338862995016912,202.99766472665434 L 2.4017098495839234e-15,222.08876699979527 L -8.33886299501691,202.99766472665434 L -27.73477744384281,210.60064603315618 L -20.13179613734095,191.2047315843303 L -39.2228984104819,182.86586858931338 L -20.13179613734095,174.52700559429647 L -27.734777443842816,155.13109114547058 L -8.338862995016923,162.73407245197242 Z" fill="none" stroke="#0F52BA" stroke-width="2.6995183835735164" /><path d="M 87.16199646773757,143.6429701788315 L 95.50085946275448,162.73407245197242 L 114.89677391158038,155.13109114547058 L 107.29379260507852,174.52700559429647 L 126.38489487821947,182.86586858931338 L 107.29379260507852,191.2047315843303 L 114.89677391158038,210.60064603315618 L 95.50085946275448,202.99766472665434 L 87.16199646773757,222.08876699979527 L 78.82313347272066,202.99766472665434 L 59.42721902389476,210.60064603315618 L 67.03020033039661,191.2047315843303 L 47.93909805725566,182.86586858931338 L 67.03020033039661,174.52700559429647 L 59.42721902389475,155.13109114547058 L 78.82313347272064,162.73407245197242 Z" fill="none" stroke="#0F52BA" stroke-width="2.6995183835735164" /><path d="M 174.32399293547513,143.6429701788315 L 182.66285593049204,162.73407245197242 L 202.05877037931793,155.13109114547058 L 194.4557890728161,174.52700559429647 L 213.54689134595702,182.86586858931338 L 194.4557890728161,191.2047315843303 L 202.05877037931793,210.60064603315618 L 182.66285593049204,202.99766472665434 L 174.32399293547513,222.08876699979527 L 165.98512994045822,202.99766472665434 L 146.58921549163233,210.60064603315618 L 154.19219679813418,191.2047315843303 L 135.10109452499324,182.86586858931338 L 154.19219679813418,174.52700559429647 L 146.58921549163233,155.13109114547058 L 165.98512994045822,162.73407245197242 Z" fill="none" stroke="#0F52BA" stroke-width="2.6995183835735164" /><path d="M 261.48598940321267,143.6429701788315 L 269.8248523982296,162.73407245197242 L 289.2207668470555,155.13109114547058 L 281.6177855405536,174.52700559429647 L 300.70888781369456,182.86586858931338 L 281.6177855405536,191.2047315843303 L 289.2207668470555,210.60064603315618 L 269.8248523982296,202.99766472665434 L 261.48598940321267,222.08876699979527 L 253.14712640819576,202.99766472665434 L 233.75121195936987,210.60064603315618 L 241.35419326587171,191.2047315843303 L 222.26309099273078,182.86586858931338 L 241.35419326587171,174.52700559429647 L 233.75121195936987,155.13109114547058 L 253.14712640819576,162.73407245197242 Z" fill="none" stroke="#0F52BA" stroke-width="2.6995183835735164" /><path d="M 348.64798587095027,143.6429701788315 L 356.9868488659672,162.73407245197242 L 376.38276331479307,155.13109114547058 L 368.7797820082912,174.52700559429647 L 387.87088428143215,182.86586858931338 L 368.7797820082912,191.2047315843303 L 376.38276331479307,210.60064603315618 L 356.9868488659672,202.99766472665434 L 348.64798587095027,222.08876699979527 L 340.3091228759333,202.99766472665434 L 320.91320842710746,210.60064603315618 L 328.51618973360934,191.2047315843303 L 309.4250874604684,182.86586858931338 L 328.51618973360934,174.52700559429647 L 320.91320842710746,155.13109114547058 L 340.3091228759333,162.73407245197242 Z" fill="none" stroke="#0F52BA" stroke-width="2.6995183835735164" /><path d="M 435.80998233868786,143.6429701788315 L 444.1488453337048,162.73407245197242 L 463.54475978253066,155.13109114547058 L 455.9417784760288,174.52700559429647 L 475.03288074916975,182.86586858931338 L 455.9417784760288,191.2047315843303 L 463.54475978253066,210.60064603315618 L 444.1488453337048,202.99766472665434 L 435.80998233868786,222.08876699979527 L 427.4711193436709,202.99766472665434 L 408.07520489484506,210.60064603315618 L 415.67818620134693,191.2047315843303 L 396.58708392820597,182.86586858931338 L 415.67818620134693,174.52700559429647 L 408.07520489484506,155.13109114547058 L 427.4711193436709,162.73407245197242 Z" fill="none" stroke="#0F52BA" stroke-width="2.6995183835735164" /><path d="M 522.9719788064253,143.6429701788315 L 531.3108418014423,162.73407245197242 L 550.7067562502682,155.13109114547058 L 543.1037749437663,174.52700559429647 L 562.1948772169072,182.86586858931338 L 543.1037749437663,191.2047315843303 L 550.7067562502682,210.60064603315618 L 531.3108418014423,202.99766472665434 L 522.9719788064253,222.08876699979527 L 514.6331158114084,202.99766472665434 L 495.23720136258254,210.60064603315618 L 502.8401826690844,191.2047315843303 L 483.74908039594345,182.86586858931338 L 502.8401826690844,174.52700559429647 L 495.23720136258254,155.13109114547058 L 514.6331158114084,162.73407245197242 Z" fill="none" stroke="#0F52BA" stroke-width="2.6995183835735164" /><path d="M -43.58099823386878,219.12525911989223 L -35.24213523885187,238.21636139303317 L -15.84622079002597,230.61338008653132 L -23.44920209652783,250.0092945353572 L -4.35809982338688,258.3481575303741 L -23.44920209652783,266.68702052539106 L -15.84622079002597,286.0829349742169 L -35.24213523885187,278.47995366771505 L -43.58099823386878,297.571055940856 L -51.91986122888569,278.47995366771505 L -71.3157756777116,286.0829349742169 L -63.71279437120973,266.68702052539106 L -82.80389664435069,258.3481575303741 L -63.71279437120973,250.0092945353572 L -71.3157756777116,230.61338008653132 L -51.91986122888571,238.21636139303317 Z" fill="none" stroke="#0F52BA" stroke-width="2.6995183835735164" /><path d="M 43.58099823386878,219.12525911989223 L 51.91986122888569,238.21636139303317 L 71.3157756777116,230.61338008653132 L 63.71279437120974,250.0092945353572 L 82.80389664435069,258.3481575303741 L 63.71279437120974,266.68702052539106 L 71.3157756777116,286.0829349742169 L 51.91986122888569,278.47995366771505 L 43.58099823386878,297.571055940856 L 35.24213523885187,278.47995366771505 L 15.846220790025974,286.0829349742169 L 23.449202096527834,266.68702052539106 L 4.35809982338688,258.3481575303741 L 23.449202096527834,250.0092945353572 L 15.846220790025967,230.61338008653132 L 35.24213523885186,238.21636139303317 Z" fill="none" stroke="#0F52BA" stroke-width="2.6995183835735164" /><path d="M 130.74299470160634,219.12525911989223 L 139.08185769662325,238.21636139303317 L 158.47777214544914,230.61338008653132 L 150.8747908389473,250.0092945353572 L 169.96589311208822,258.3481575303741 L 150.8747908389473,266.68702052539106 L 158.47777214544914,286.0829349742169 L 139.08185769662325,278.47995366771505 L 130.74299470160634,297.571055940856 L 122.40413170658942,278.47995366771505 L 103.00821725776353,286.0829349742169 L 110.61119856426538,266.68702052539106 L 91.52009629112443,258.3481575303741 L 110.61119856426538,250.0092945353572 L 103.00821725776352,230.61338008653132 L 122.40413170658941,238.21636139303317 Z" fill="none" stroke="#0F52BA" stroke-width="2.6995183835735164" /><path d="M 217.90499116934387,219.12525911989223 L 226.24385416436078,238.21636139303317 L 245.63976861318667,230.61338008653132 L 238.03678730668483,250.0092945353572 L 257.12788957982576,258.3481575303741 L 238.03678730668483,266.68702052539106 L 245.63976861318667,286.0829349742169 L 226.24385416436078,278.47995366771505 L 217.90499116934387,297.571055940856 L 209.56612817432696,278.47995366771505 L 190.17021372550107,286.0829349742169 L 197.77319503200292,266.68702052539106 L 178.68209275886198,258.3481575303741 L 197.77319503200292,250.0092945353572 L 190.17021372550107,230.61338008653132 L 209.56612817432696,238.21636139303317 Z" fill="none" stroke="#0F52BA" stroke-width="2.6995183835735164" /><path d="M 305.06698763708147,219.12525911989223 L 313.4058506320984,238.21636139303317 L 332.80176508092427,230.61338008653132 L 325.1987837744224,250.0092945353572 L 344.28988604756336,258.3481575303741 L 325.1987837744224,266.68702052539106 L 332.80176508092427,286.0829349742169 L 313.4058506320984,278.47995366771505 L 305.06698763708147,297.571055940856 L 296.7281246420646,278.47995366771505 L 277.33221019323867,286.0829349742169 L 284.93519149974054,266.68702052539106 L 265.8440892265996,258.3481575303741 L 284.93519149974054,250.0092945353572 L 277.33221019323867,230.61338008653132 L 296.72812464206453,238.21636139303317 Z" fill="none" stroke="#0F52BA" stroke-width="2.6995183835735164" /><path d="M 392.22898410481906,219.12525911989223 L 400.567847099836,238.21636139303317 L 419.96376154866186,230.61338008653132 L 412.36078024216,250.0092945353572 L 431.45188251530095,258.3481575303741 L 412.36078024216,266.68702052539106 L 419.96376154866186,286.0829349742169 L 400.567847099836,278.47995366771505 L 392.22898410481906,297.571055940856 L 383.8901211098022,278.47995366771505 L 364.49420666097626,286.0829349742169 L 372.09718796747813,266.68702052539106 L 353.0060856943372,258.3481575303741 L 372.09718796747813,250.0092945353572 L 364.49420666097626,230.61338008653132 L 383.8901211098021,238.21636139303317 Z" fill="none" stroke="#0F52BA" stroke-width="2.6995183835735164" /><path d="M 479.39098057255654,219.12525911989223 L 487.7298435675735,238.21636139303317 L 507.12575801639935,230.61338008653132 L 499.52277670989747,250.0092945353572 L 518.6138789830385,258.3481575303741 L 499.52277670989747,266.68702052539106 L 507.12575801639935,286.0829349742169 L 487.7298435675735,278.47995366771505 L 479.39098057255654,297.571055940856 L 471.05211757753966,278.47995366771505 L 451.65620312871374,286.0829349742169 L 459.2591844352156,266.68702052539106 L 440.16808216207465,258.3481575303741 L 459.2591844352156,250.0092945353572 L 451.65620312871374,230.61338008653132 L 471.0521175775396,238.21636139303317 Z" fill="none" stroke="#0F52BA" stroke-width="2.6995183835735164" /><path d="M 566.5529770402942,219.12525911989223 L 574.8918400353111,238.21636139303317 L 594.287754484137,230.61338008653132 L 586.6847731776352,250.0092945353572 L 605.7758754507761,258.3481575303741 L 586.6847731776352,266.68702052539106 L 594.287754484137,286.0829349742169 L 574.8918400353111,278.47995366771505 L 566.5529770402942,297.571055940856 L 558.2141140452773,278.47995366771505 L 538.8181995964513,286.0829349742169 L 546.4211809029532,266.68702052539106 L 527.3300786298123,258.3481575303741 L 546.4211809029532,250.0092945353572 L 538.8181995964513,230.61338008653132 L 558.2141140452773,238.21636139303317 Z" fill="none" stroke="#0F52BA" stroke-width="2.6995183835735164" /><path d="M 2.4017098495839234e-15,294.607548060953 L 8.338862995016912,313.69865033409394 L 27.734777443842813,306.09566902759207 L 20.131796137340952,325.491583476418 L 39.2228984104819,333.83044647143487 L 20.131796137340952,342.16930946645175 L 27.734777443842813,361.56522391527767 L 8.338862995016912,353.9622426087758 L 2.4017098495839234e-15,373.05334488191676 L -8.33886299501691,353.9622426087758 L -27.73477744384281,361.56522391527767 L -20.13179613734095,342.1693094664518 L -39.2228984104819,333.83044647143487 L -20.13179613734095,325.49158347641793 L -27.734777443842816,306.09566902759207 L -8.338862995016923,313.69865033409394 Z" fill="none" stroke="#0F52BA" stroke-width="2.6995183835735164" /><path d="M 87.16199646773757,294.607548060953 L 95.50085946275448,313.69865033409394 L 114.89677391158038,306.09566902759207 L 107.29379260507852,325.491583476418 L 126.38489487821947,333.83044647143487 L 107.29379260507852,342.16930946645175 L 114.89677391158038,361.56522391527767 L 95.50085946275448,353.9622426087758 L 87.16199646773757,373.05334488191676 L 78.82313347272066,353.9622426087758 L 59.42721902389476,361.56522391527767 L 67.03020033039661,342.1693094664518 L 47.93909805725566,333.83044647143487 L 67.03020033039661,325.49158347641793 L 59.42721902389475,306.09566902759207 L 78.82313347272064,313.69865033409394 Z" fill="none" stroke="#0F52BA" stroke-width="2.6995183835735164" /><path d="M 174.32399293547513,294.607548060953 L 182.66285593049204,313.69865033409394 L 202.05877037931793,306.09566902759207 L 194.4557890728161,325.491583476418 L 213.54689134595702,333.83044647143487 L 194.4557890728161,342.16930946645175 L 202.05877037931793,361.56522391527767 L 182.66285593049204,353.9622426087758 L 174.32399293547513,373.05334488191676 L 165.98512994045822,353.9622426087758 L 146.58921549163233,361.56522391527767 L 154.19219679813418,342.1693094664518 L 135.10109452499324,333.83044647143487 L 154.19219679813418,325.49158347641793 L 146.58921549163233,306.09566902759207 L 165.98512994045822,313.69865033409394 Z" fill="none" stroke="#0F52BA" stroke-width="2.6995183835735164" /><path d="M 261.48598940321267,294.607548060953 L 269.8248523982296,313.69865033409394 L 289.2207668470555,306.09566902759207 L 281.6177855405536,325.491583476418 L 300.70888781369456,333.83044647143487 L 281.6177855405536,342.16930946645175 L 289.2207668470555,361.56522391527767 L 269.8248523982296,353.9622426087758 L 261.48598940321267,373.05334488191676 L 253.14712640819576,353.9622426087758 L 233.75121195936987,361.56522391527767 L 241.35419326587171,342.1693094664518 L 222.26309099273078,333.83044647143487 L 241.35419326587171,325.49158347641793 L 233.75121195936987,306.09566902759207 L 253.14712640819576,313.69865033409394 Z" fill="none" stroke="#0F52BA" stroke-width="2.6995183835735164" /><path d="M 348.64798587095027,294.607548060953 L 356.9868488659672,313.69865033409394 L 376.38276331479307,306.09566902759207 L 368.7797820082912,325.491583476418 L 387.87088428143215,333.83044647143487 L 368.7797820082912,342.16930946645175 L 376.38276331479307,361.56522391527767 L 356.9868488659672,353.9622426087758 L 348.64798587095027,373.05334488191676 L 340.3091228759333,353.9622426087758 L 320.91320842710746,361.56522391527767 L 328.51618973360934,342.1693094664518 L 309.4250874604684,333.83044647143487 L 328.51618973360934,325.49158347641793 L 320.91320842710746,306.09566902759207 L 340.3091228759333,313.69865033409394 Z" fill="none" stroke="#0F52BA" stroke-width="2.6995183835735164" /><path d="M 435.80998233868786,294.607548060953 L 444.1488453337048,313.69865033409394 L 463.54475978253066,306.09566902759207 L 455.9417784760288,325.491583476418 L 475.03288074916975,333.83044647143487 L 455.9417784760288,342.16930946645175 L 463.54475978253066,361.56522391527767 L 444.1488453337048,353.9622426087758 L 435.80998233868786,373.05334488191676 L 427.4711193436709,353.9622426087758 L 408.07520489484506,361.56522391527767 L 415.67818620134693,342.1693094664518 L 396.58708392820597,333.83044647143487 L 415.67818620134693,325.49158347641793 L 408.07520489484506,306.09566902759207 L 427.4711193436709,313.69865033409394 Z" fill="none" stroke="#0F52BA" stroke-width="2.6995183835735164" /><path d="M 522.9719788064253,294.607548060953 L 531.3108418014423,313.69865033409394 L 550.7067562502682,306.09566902759207 L 543.1037749437663,325.491583476418 L 562.1948772169072,333.83044647143487 L 543.1037749437663,342.16930946645175 L 550.7067562502682,361.56522391527767 L 531.3108418014423,353.9622426087758 L 522.9719788064253,373.05334488191676 L 514.6331158114084,353.9622426087758 L 495.23720136258254,361.56522391527767 L 502.8401826690844,342.1693094664518 L 483.74908039594345,333.83044647143487 L 502.8401826690844,325.49158347641793 L 495.23720136258254,306.09566902759207 L 514.6331158114084,313.69865033409394 Z" fill="none" stroke="#0F52BA" stroke-width="2.6995183835735164" /><path d="M -43.58099823386878,370.08983700201367 L -35.24213523885187,389.1809392751546 L -15.84622079002597,381.57795796865275 L -23.44920209652783,400.9738724174787 L -4.35809982338688,409.31273541249556 L -23.44920209652783,417.65159840751244 L -15.84622079002597,437.04751285633836 L -35.24213523885187,429.4445315498365 L -43.58099823386878,448.53563382297745 L -51.91986122888569,429.4445315498365 L -71.3157756777116,437.04751285633836 L -63.71279437120973,417.6515984075125 L -82.80389664435069,409.31273541249556 L -63.71279437120973,400.9738724174786 L -71.3157756777116,381.57795796865275 L -51.91986122888571,389.1809392751546 Z" fill="none" stroke="#0F52BA" stroke-width="2.6995183835735164" /><path d="M 43.58099823386878,370.08983700201367 L 51.91986122888569,389.1809392751546 L 71.3157756777116,381.57795796865275 L 63.71279437120974,400.9738724174787 L 82.80389664435069,409.31273541249556 L 63.71279437120974,417.65159840751244 L 71.3157756777116,437.04751285633836 L 51.91986122888569,429.4445315498365 L 43.58099823386878,448.53563382297745 L 35.24213523885187,429.4445315498365 L 15.846220790025974,437.04751285633836 L 23.449202096527834,417.6515984075125 L 4.35809982338688,409.31273541249556 L 23.449202096527834,400.9738724174786 L 15.846220790025967,381.57795796865275 L 35.24213523885186,389.1809392751546 Z" fill="none" stroke="#0F52BA" stroke-width="2.6995183835735164" /><path d="M 130.74299470160634,370.08983700201367 L 139.08185769662325,389.1809392751546 L 158.47777214544914,381.57795796865275 L 150.8747908389473,400.9738724174787 L 169.96589311208822,409.31273541249556 L 150.8747908389473,417.65159840751244 L 158.47777214544914,437.04751285633836 L 139.08185769662325,429.4445315498365 L 130.74299470160634,448.53563382297745 L 122.40413170658942,429.4445315498365 L 103.00821725776353,437.04751285633836 L 110.61119856426538,417.6515984075125 L 91.52009629112443,409.31273541249556 L 110.61119856426538,400.9738724174786 L 103.00821725776352,381.57795796865275 L 122.40413170658941,389.1809392751546 Z" fill="none" stroke="#0F52BA" stroke-width="2.6995183835735164" /><path d="M 217.90499116934387,370.08983700201367 L 226.24385416436078,389.1809392751546 L 245.63976861318667,381.57795796865275 L 238.03678730668483,400.9738724174787 L 257.12788957982576,409.31273541249556 L 238.03678730668483,417.65159840751244 L 245.63976861318667,437.04751285633836 L 226.24385416436078,429.4445315498365 L 217.90499116934387,448.53563382297745 L 209.56612817432696,429.4445315498365 L 190.17021372550107,437.04751285633836 L 197.77319503200292,417.6515984075125 L 178.68209275886198,409.31273541249556 L 197.77319503200292,400.9738724174786 L 190.17021372550107,381.57795796865275 L 209.56612817432696,389.1809392751546 Z" fill="none" stroke="#0F52BA" stroke-width="2.6995183835735164" /><path d="M 305.06698763708147,370.08983700201367 L 313.4058506320984,389.1809392751546 L 332.80176508092427,381.57795796865275 L 325.1987837744224,400.9738724174787 L 344.28988604756336,409.31273541249556 L 325.1987837744224,417.65159840751244 L 332.80176508092427,437.04751285633836 L 313.4058506320984,429.4445315498365 L 305.06698763708147,448.53563382297745 L 296.7281246420646,429.4445315498365 L 277.33221019323867,437.04751285633836 L 284.93519149974054,417.6515984075125 L 265.8440892265996,409.31273541249556 L 284.93519149974054,400.9738724174786 L 277.33221019323867,381.57795796865275 L 296.72812464206453,389.1809392751546 Z" fill="none" stroke="#0F52BA" stroke-width="2.6995183835735164" /><path d="M 392.22898410481906,370.08983700201367 L 400.567847099836,389.1809392751546 L 419.96376154866186,381.57795796865275 L 412.36078024216,400.9738724174787 L 431.45188251530095,409.31273541249556 L 412.36078024216,417.65159840751244 L 419.96376154866186,437.04751285633836 L 400.567847099836,429.4445315498365 L 392.22898410481906,448.53563382297745 L 383.8901211098022,429.4445315498365 L 364.49420666097626,437.04751285633836 L 372.09718796747813,417.6515984075125 L 353.0060856943372,409.31273541249556 L 372.09718796747813,400.9738724174786 L 364.49420666097626,381.57795796865275 L 383.8901211098021,389.1809392751546 Z" fill="none" stroke="#0F52BA" stroke-width="2.6995183835735164" /><path d="M 479.39098057255654,370.08983700201367 L 487.7298435675735,389.1809392751546 L 507.12575801639935,381.57795796865275 L 499.52277670989747,400.9738724174787 L 518.6138789830385,409.31273541249556 L 499.52277670989747,417.65159840751244 L 507.12575801639935,437.04751285633836 L 487.7298435675735,429.4445315498365 L 479.39098057255654,448.53563382297745 L 471.05211757753966,429.4445315498365 L 451.65620312871374,437.04751285633836 L 459.2591844352156,417.6515984075125 L 440.16808216207465,409.31273541249556 L 459.2591844352156,400.9738724174786 L 451.65620312871374,381.57795796865275 L 471.0521175775396,389.1809392751546 Z" fill="none" stroke="#0F52BA" stroke-width="2.6995183835735164" /><path d="M 566.5529770402942,370.08983700201367 L 574.8918400353111,389.1809392751546 L 594.287754484137,381.57795796865275 L 586.6847731776352,400.9738724174787 L 605.7758754507761,409.31273541249556 L 586.6847731776352,417.65159840751244 L 594.287754484137,437.04751285633836 L 574.8918400353111,429.4445315498365 L 566.5529770402942,448.53563382297745 L 558.2141140452773,429.4445315498365 L 538.8181995964513,437.04751285633836 L 546.4211809029532,417.6515984075125 L 527.3300786298123,409.31273541249556 L 546.4211809029532,400.9738724174786 L 538.8181995964513,381.57795796865275 L 558.2141140452773,389.1809392751546 Z" fill="none" stroke="#0F52BA" stroke-width="2.6995183835735164" /><path d="M 2.4017098495839234e-15,445.57212594307435 L 8.338862995016912,464.6632282162153 L 27.734777443842813,457.06024690971344 L 20.131796137340952,476.45616135853936 L 39.2228984104819,484.79502435355624 L 20.131796137340952,493.1338873485731 L 27.734777443842813,512.529801797399 L 8.338862995016912,504.92682049089717 L 2.4017098495839234e-15,524.0179227640382 L -8.33886299501691,504.92682049089717 L -27.73477744384281,512.529801797399 L -20.13179613734095,493.1338873485732 L -39.2228984104819,484.79502435355624 L -20.13179613734095,476.4561613585393 L -27.734777443842816,457.06024690971344 L -8.338862995016923,464.6632282162153 Z" fill="none" stroke="#0F52BA" stroke-width="2.6995183835735164" /><path d="M 87.16199646773757,445.57212594307435 L 95.50085946275448,464.6632282162153 L 114.89677391158038,457.06024690971344 L 107.29379260507852,476.45616135853936 L 126.38489487821947,484.79502435355624 L 107.29379260507852,493.1338873485731 L 114.89677391158038,512.529801797399 L 95.50085946275448,504.92682049089717 L 87.16199646773757,524.0179227640382 L 78.82313347272066,504.92682049089717 L 59.42721902389476,512.529801797399 L 67.03020033039661,493.1338873485732 L 47.93909805725566,484.79502435355624 L 67.03020033039661,476.4561613585393 L 59.42721902389475,457.06024690971344 L 78.82313347272064,464.6632282162153 Z" fill="none" stroke="#0F52BA" stroke-width="2.6995183835735164" /><path d="M 174.32399293547513,445.57212594307435 L 182.66285593049204,464.6632282162153 L 202.05877037931793,457.06024690971344 L 194.4557890728161,476.45616135853936 L 213.54689134595702,484.79502435355624 L 194.4557890728161,493.1338873485731 L 202.05877037931793,512.529801797399 L 182.66285593049204,504.92682049089717 L 174.32399293547513,524.0179227640382 L 165.98512994045822,504.92682049089717 L 146.58921549163233,512.529801797399 L 154.19219679813418,493.1338873485732 L 135.10109452499324,484.79502435355624 L 154.19219679813418,476.4561613585393 L 146.58921549163233,457.06024690971344 L 165.98512994045822,464.6632282162153 Z" fill="none" stroke="#0F52BA" stroke-width="2.6995183835735164" /><path d="M 261.48598940321267,445.57212594307435 L 269.8248523982296,464.6632282162153 L 289.2207668470555,457.06024690971344 L 281.6177855405536,476.45616135853936 L 300.70888781369456,484.79502435355624 L 281.6177855405536,493.1338873485731 L 289.2207668470555,512.529801797399 L 269.8248523982296,504.92682049089717 L 261.48598940321267,524.0179227640382 L 253.14712640819576,504.92682049089717 L 233.75121195936987,512.529801797399 L 241.35419326587171,493.1338873485732 L 222.26309099273078,484.79502435355624 L 241.35419326587171,476.4561613585393 L 233.75121195936987,457.06024690971344 L 253.14712640819576,464.6632282162153 Z" fill="none" stroke="#0F52BA" stroke-width="2.6995183835735164" /><path d="M 348.64798587095027,445.57212594307435 L 356.9868488659672,464.6632282162153 L 376.38276331479307,457.06024690971344 L 368.7797820082912,476.45616135853936 L 387.87088428143215,484.79502435355624 L 368.7797820082912,493.1338873485731 L 376.38276331479307,512.529801797399 L 356.9868488659672,504.92682049089717 L 348.64798587095027,524.0179227640382 L 340.3091228759333,504.92682049089717 L 320.91320842710746,512.529801797399 L 328.51618973360934,493.1338873485732 L 309.4250874604684,484.79502435355624 L 328.51618973360934,476.4561613585393 L 320.91320842710746,457.06024690971344 L 340.3091228759333,464.6632282162153 Z" fill="none" stroke="#0F52BA" stroke-width="2.6995183835735164" /><path d="M 435.80998233868786,445.57212594307435 L 444.1488453337048,464.6632282162153 L 463.54475978253066,457.06024690971344 L 455.9417784760288,476.45616135853936 L 475.03288074916975,484.79502435355624 L 455.9417784760288,493.1338873485731 L 463.54475978253066,512.529801797399 L 444.1488453337048,504.92682049089717 L 435.80998233868786,524.0179227640382 L 427.4711193436709,504.92682049089717 L 408.07520489484506,512.529801797399 L 415.67818620134693,493.1338873485732 L 396.58708392820597,484.79502435355624 L 415.67818620134693,476.4561613585393 L 408.07520489484506,457.06024690971344 L 427.4711193436709,464.6632282162153 Z" fill="none" stroke="#0F52BA" stroke-width="2.6995183835735164" /><path d="M 522.9719788064253,445.57212594307435 L 531.3108418014423,464.6632282162153 L 550.7067562502682,457.06024690971344 L 543.1037749437663,476.45616135853936 L 562.1948772169072,484.79502435355624 L 543.1037749437663,493.1338873485731 L 550.7067562502682,512.529801797399 L 531.3108418014423,504.92682049089717 L 522.9719788064253,524.0179227640382 L 514.6331158114084,504.92682049089717 L 495.23720136258254,512.529801797399 L 502.8401826690844,493.1338873485732 L 483.74908039594345,484.79502435355624 L 502.8401826690844,476.4561613585393 L 495.23720136258254,457.06024690971344 L 514.6331158114084,464.6632282162153 Z" fill="none" stroke="#0F52BA" stroke-width="2.6995183835735164" /><line x1="39.2228984104819" y1="31.901290707191947" x2="47.93909805725566" y2="31.901290707191947" stroke="#0F52BA" stroke-width="0.5"/><line x1="126.38489487821947" y1="31.901290707191947" x2="135.10109452499324" y2="31.901290707191947" stroke="#0F52BA" stroke-width="0.5"/><line x1="213.54689134595702" y1="31.901290707191947" x2="222.26309099273078" y2="31.901290707191947" stroke="#0F52BA" stroke-width="0.5"/><line x1="300.70888781369456" y1="31.901290707191947" x2="309.4250874604684" y2="31.901290707191947" stroke="#0F52BA" stroke-width="0.5"/><line x1="387.87088428143215" y1="31.901290707191947" x2="396.58708392820597" y2="31.901290707191947" stroke="#0F52BA" stroke-width="0.5"/><line x1="475.03288074916975" y1="31.901290707191947" x2="483.74908039594345" y2="31.901290707191947" stroke="#0F52BA" stroke-width="0.5"/><line x1="82.80389664435069" y1="107.38357964825268" x2="91.52009629112443" y2="107.38357964825268" stroke="#0F52BA" stroke-width="0.5"/><line x1="169.96589311208822" y1="107.38357964825268" x2="178.68209275886198" y2="107.38357964825268" stroke="#0F52BA" stroke-width="0.5"/><line x1="257.12788957982576" y1="107.38357964825268" x2="265.8440892265996" y2="107.38357964825268" stroke="#0F52BA" stroke-width="0.5"/><line x1="344.28988604756336" y1="107.38357964825268" x2="353.0060856943372" y2="107.38357964825268" stroke="#0F52BA" stroke-width="0.5"/><line x1="431.45188251530095" y1="107.38357964825268" x2="440.16808216207465" y2="107.38357964825268" stroke="#0F52BA" stroke-width="0.5"/><line x1="39.2228984104819" y1="182.86586858931338" x2="47.93909805725566" y2="182.86586858931338" stroke="#0F52BA" stroke-width="0.5"/><line x1="126.38489487821947" y1="182.86586858931338" x2="135.10109452499324" y2="182.86586858931338" stroke="#0F52BA" stroke-width="0.5"/><line x1="213.54689134595702" y1="182.86586858931338" x2="222.26309099273078" y2="182.86586858931338" stroke="#0F52BA" stroke-width="0.5"/><line x1="300.70888781369456" y1="182.86586858931338" x2="309.4250874604684" y2="182.86586858931338" stroke="#0F52BA" stroke-width="0.5"/><line x1="387.87088428143215" y1="182.86586858931338" x2="396.58708392820597" y2="182.86586858931338" stroke="#0F52BA" stroke-width="0.5"/><line x1="475.03288074916975" y1="182.86586858931338" x2="483.74908039594345" y2="182.86586858931338" stroke="#0F52BA" stroke-width="0.5"/><line x1="82.80389664435069" y1="258.3481575303741" x2="91.52009629112443" y2="258.3481575303741" stroke="#0F52BA" stroke-width="0.5"/><line x1="169.96589311208822" y1="258.3481575303741" x2="178.68209275886198" y2="258.3481575303741" stroke="#0F52BA" stroke-width="0.5"/><line x1="257.12788957982576" y1="258.3481575303741" x2="265.8440892265996" y2="258.3481575303741" stroke="#0F52BA" stroke-width="0.5"/><line x1="344.28988604756336" y1="258.3481575303741" x2="353.0060856943372" y2="258.3481575303741" stroke="#0F52BA" stroke-width="0.5"/><line x1="431.45188251530095" y1="258.3481575303741" x2="440.16808216207465" y2="258.3481575303741" stroke="#0F52BA" stroke-width="0.5"/><line x1="39.2228984104819" y1="333.83044647143487" x2="47.93909805725566" y2="333.83044647143487" stroke="#0F52BA" stroke-width="0.5"/><line x1="126.38489487821947" y1="333.83044647143487" x2="135.10109452499324" y2="333.83044647143487" stroke="#0F52BA" stroke-width="0.5"/><line x1="213.54689134595702" y1="333.83044647143487" x2="222.26309099273078" y2="333.83044647143487" stroke="#0F52BA" stroke-width="0.5"/><line x1="300.70888781369456" y1="333.83044647143487" x2="309.4250874604684" y2="333.83044647143487" stroke="#0F52BA" stroke-width="0.5"/><line x1="387.87088428143215" y1="333.83044647143487" x2="396.58708392820597" y2="333.83044647143487" stroke="#0F52BA" stroke-width="0.5"/><line x1="475.03288074916975" y1="333.83044647143487" x2="483.74908039594345" y2="333.83044647143487" stroke="#0F52BA" stroke-width="0.5"/><line x1="82.80389664435069" y1="409.31273541249556" x2="91.52009629112443" y2="409.31273541249556" stroke="#0F52BA" stroke-width="0.5"/><line x1="169.96589311208822" y1="409.31273541249556" x2="178.68209275886198" y2="409.31273541249556" stroke="#0F52BA" stroke-width="0.5"/><line x1="257.12788957982576" y1="409.31273541249556" x2="265.8440892265996" y2="409.31273541249556" stroke="#0F52BA" stroke-width="0.5"/><line x1="344.28988604756336" y1="409.31273541249556" x2="353.0060856943372" y2="409.31273541249556" stroke="#0F52BA" stroke-width="0.5"/><line x1="431.45188251530095" y1="409.31273541249556" x2="440.16808216207465" y2="409.31273541249556" stroke="#0F52BA" stroke-width="0.5"/><line x1="39.2228984104819" y1="484.79502435355624" x2="47.93909805725566" y2="484.79502435355624" stroke="#0F52BA" stroke-width="0.5"/><line x1="126.38489487821947" y1="484.79502435355624" x2="135.10109452499324" y2="484.79502435355624" stroke="#0F52BA" stroke-width="0.5"/><line x1="213.54689134595702" y1="484.79502435355624" x2="222.26309099273078" y2="484.79502435355624" stroke="#0F52BA" stroke-width="0.5"/><line x1="300.70888781369456" y1="484.79502435355624" x2="309.4250874604684" y2="484.79502435355624" stroke="#0F52BA" stroke-width="0.5"/><line x1="387.87088428143215" y1="484.79502435355624" x2="396.58708392820597" y2="484.79502435355624" stroke="#0F52BA" stroke-width="0.5"/><line x1="475.03288074916975" y1="484.79502435355624" x2="483.74908039594345" y2="484.79502435355624" stroke="#0F52BA" stroke-width="0.5"/></g></svg>