<svg xmlns="http://www.w3.org/2000/svg" width="512" height="512" viewBox="0 0 512 512"><rect x="0" y="0" width="512" height="512" fill="#0D0D0D"/><g opacity="0.06898689270903677"><path d="M -34.838889226236674,-66.19388952984968 L -28.172756371794975,-50.932357572010694 L -12.667555887445658,-57.01022256502769 L -18.745420880462653,-41.50502208067837 L -3.4838889226236667,-34.838889226236674 L -18.745420880462653,-28.172756371794975 L -12.667555887445658,-12.667555887445662 L -28.172756371794975,-18.745420880462653 L -34.838889226236674,-3.4838889226236667 L -41.50502208067837,-18.745420880462653 L -57.01022256502769,-12.667555887445658 L -50.93235757201069,-28.172756371794968 L -66.19388952984968,-34.83888922623667 L -50.932357572010694,-41.50502208067838 L -57.01022256502769,-57.01022256502769 L -41.50502208067838,-50.93235757201069 Z" fill="none" stroke="#FFD700" stroke-width="1.277862668399635" /><path d="M 34.838889226236674,-66.19388952984968 L 41.50502208067837,-50.932357572010694 L 57.01022256502769,-57.01022256502769 L 50.932357572010694,-41.50502208067837 L 66.19388952984968,-34.838889226236674 L 50.932357572010694,-28.172756371794975 L 57.01022256502769,-12.667555887445662 L 41.50502208067837,-18.745420880462653 L 34.838889226236674,-3.4838889226236667 L 28.172756371794975,-18.745420880462653 L 12.667555887445662,-12.667555887445658 L 18.745420880462657,-28.172756371794968 L 3.4838889226236667,-34.83888922623667 L 18.745420880462653,-41.50502208067838 L 12.667555887445655,-57.01022256502769 L 28.172756371794964,-50.93235757201069 Z" fill="none" stroke="#FFD700" stroke-width="1.277862668399635" /><path d="M 104.51666767871002,-66.19388952984968 L 111.18280053315172,-50.932357572010694 L 126.68800101750104,-57.01022256502769 L 120.61013602448404,-41.50502208067837 L 135.87166798232303,-34.838889226236674 L 120.61013602448404,-28.172756371794975 L 126.68800101750104,-12.667555887445662 L 111.18280053315172,-18.745420880462653 L 104.51666767871002,-3.4838889226236667 L 97.85053482426832,-18.745420880462653 L 82.345334339919,-12.667555887445658 L 88.42319933293601,-28.172756371794968 L 73.16166737509701,-34.83888922623667 L 88.42319933293601,-41.50502208067838 L 82.345334339919,-57.01022256502769 L 97.85053482426831,-50.93235757201069 Z" fill="none" stroke="#FFD700" stroke-width="1.277862668399635" /><path d="M 174.19444613118338,-66.19388952984968 L 180.8605789856251,-50.932357572010694 L 196.3657794699744,-57.01022256502769 L 190.2879144769574,-41.50502208067837 L 205.54944643479638,-34.838889226236674 L 190.2879144769574,-28.172756371794975 L 196.3657794699744,-12.667555887445662 L 180.8605789856251,-18.745420880462653 L 174.19444613118338,-3.4838889226236667 L 167.5283132767417,-18.745420880462653 L 152.02311279239237,-12.667555887445658 L 158.10097778540936,-28.172756371794968 L 142.8394458275704,-34.83888922623667 L 158.10097778540936,-41.50502208067838 L 152.02311279239237,-57.01022256502769 L 167.52831327674167,-50.93235757201069 Z" fill="none" stroke="#FFD700" stroke-width="1.277862668399635" /><path d="M 243.8722245836567,-66.19388952984968 L 250.53835743809842,-50.932357572010694 L 266.0435579224477,-57.01022256502769 L 259.9656929294307,-41.50502208067837 L 275.2272248872697,-34.838889226236674 L 259.9656929294307,-28.172756371794975 L 266.0435579224477,-12.667555887445662 L 250.53835743809842,-18.745420880462653 L 243.8722245836567,-3.4838889226236667 L 237.20609172921502,-18.745420880462653 L 221.7008912448657,-12.667555887445658 L 227.77875623788267,-28.172756371794968 L 212.5172242800437,-34.83888922623667 L 227.77875623788267,-41.50502208067838 L 221.7008912448657,-57.01022256502769 L 237.206091729215,-50.93235757201069 Z" fill="none" stroke="#FFD700" stroke-width="1.277862668399635" /><path d="M 313.5500030361301,-66.19388952984968 L 320.21613589057176,-50.932357572010694 L 335.72133637492107,-57.01022256502769 L 329.6434713819041,-41.50502208067837 L 344.9050033397431,-34.838889226236674 L 329.6434713819041,-28.172756371794975 L 335.72133637492107,-12.667555887445662 L 320.21613589057176,-18.745420880462653 L 313.5500030361301,-3.4838889226236667 L 306.8838701816884,-18.745420880462653 L 291.3786696973391,-12.667555887445658 L 297.4565346903561,-28.172756371794968 L 282.1950027325171,-34.83888922623667 L 297.4565346903561,-41.50502208067838 L 291.37866969733903,-57.01022256502769 L 306.8838701816884,-50.93235757201069 Z" fill="none" stroke="#FFD700" stroke-width="1.277862668399635" /><path d="M 383.2277814886034,-66.19388952984968 L 389.8939143430451,-50.932357572010694 L 405.39911482739444,-57.01022256502769 L 399.3212498343774,-41.50502208067837 L 414.5827817922164,-34.838889226236674 L 399.3212498343774,-28.172756371794975 L 405.39911482739444,-12.667555887445662 L 389.8939143430451,-18.745420880462653 L 383.2277814886034,-3.4838889226236667 L 376.5616486341617,-18.745420880462653 L 361.0564481498124,-12.667555887445658 L 367.1343131428294,-28.172756371794968 L 351.8727811849904,-34.83888922623667 L 367.1343131428294,-41.50502208067838 L 361.05644814981235,-57.01022256502769 L 376.5616486341617,-50.93235757201069 Z" fill="none" stroke="#FFD700" stroke-width="1.277862668399635" /><path d="M 452.9055599410767,-66.19388952984968 L 459.5716927955184,-50.932357572010694 L 475.0768932798677,-57.01022256502769 L 468.9990282868507,-41.50502208067837 L 484.2605602446897,-34.838889226236674 L 468.9990282868507,-28.172756371794975 L 475.0768932798677,-12.667555887445662 L 459.5716927955184,-18.745420880462653 L 452.9055599410767,-3.4838889226236667 L 446.23942708663503,-18.745420880462653 L 430.73422660228573,-12.667555887445658 L 436.8120915953027,-28.172756371794968 L 421.5505596374637,-34.83888922623667 L 436.8120915953027,-41.50502208067838 L 430.7342266022857,-57.01022256502769 L 446.23942708663503,-50.93235757201069 Z" fill="none" stroke="#FFD700" stroke-width="1.277862668399635" /><path d="M 522.5833383935501,-66.19388952984968 L 529.2494712479918,-50.932357572010694 L 544.7546717323411,-57.01022256502769 L 538.6768067393241,-41.50502208067837 L 553.9383386971631,-34.838889226236674 L 538.6768067393241,-28.172756371794975 L 544.7546717323411,-12.667555887445662 L 529.2494712479918,-18.745420880462653 L 522.5833383935501,-3.4838889226236667 L 515.9172055391084,-18.745420880462653 L 500.4120050547591,-12.667555887445658 L 506.4898700477761,-28.172756371794968 L 491.2283380899371,-34.83888922623667 L 506.4898700477761,-41.50502208067838 L 500.41200505475905,-57.01022256502769 L 515.9172055391084,-50.93235757201069 Z" fill="none" stroke="#FFD700" stroke-width="1.277862668399635" /><path d="M 1.919940037954198e-15,-5.85293339000776 L 6.6661328544417,9.408598567831227 L 22.171333338791015,3.3307335748142357 L 16.09346834577402,18.83593405916355 L 31.355000303613007,25.502066913605248 L 16.09346834577402,32.16819976804695 L 22.171333338791015,47.67340025239626 L 6.6661328544417,41.59553525937927 L 1.919940037954198e-15,56.85706721721826 L -6.666132854441698,41.59553525937927 L -22.171333338791012,47.67340025239626 L -16.093468345774017,32.168199768046954 L -31.355000303613007,25.50206691360525 L -16.09346834577402,18.835934059163545 L -22.17133333879102,3.3307335748142357 L -6.666132854441709,9.40859856783123 Z" fill="none" stroke="#FFD700" stroke-width="1.277862668399635" /><path d="M 69.67777845247335,-5.85293339000776 L 76.34391130691505,9.408598567831227 L 91.84911179126436,3.3307335748142357 L 85.77124679824738,18.83593405916355 L 101.03277875608636,25.502066913605248 L 85.77124679824738,32.16819976804695 L 91.84911179126436,47.67340025239626 L 76.34391130691505,41.59553525937927 L 69.67777845247335,56.85706721721826 L 63.01164559803165,41.59553525937927 L 47.50644511368233,47.67340025239626 L 53.584310106699334,32.168199768046954 L 38.32277814886034,25.50206691360525 L 53.58431010669933,18.835934059163545 L 47.50644511368233,3.3307335748142357 L 63.01164559803164,9.40859856783123 Z" fill="none" stroke="#FFD700" stroke-width="1.277862668399635" /><path d="M 139.3555569049467,-5.85293339000776 L 146.0216897593884,9.408598567831227 L 161.5268902437377,3.3307335748142357 L 155.44902525072072,18.83593405916355 L 170.7105572085597,25.502066913605248 L 155.44902525072072,32.16819976804695 L 161.5268902437377,47.67340025239626 L 146.0216897593884,41.59553525937927 L 139.3555569049467,56.85706721721826 L 132.689424050505,41.59553525937927 L 117.18422356615568,47.67340025239626 L 123.26208855917268,32.168199768046954 L 108.00055660133368,25.50206691360525 L 123.26208855917267,18.835934059163545 L 117.18422356615568,3.3307335748142357 L 132.68942405050498,9.40859856783123 Z" fill="none" stroke="#FFD700" stroke-width="1.277862668399635" /><path d="M 209.03333535742007,-5.85293339000776 L 215.69946821186178,9.408598567831227 L 231.2046686962111,3.3307335748142357 L 225.1268037031941,18.83593405916355 L 240.38833566103307,25.502066913605248 L 225.1268037031941,32.16819976804695 L 231.2046686962111,47.67340025239626 L 215.69946821186178,41.59553525937927 L 209.03333535742007,56.85706721721826 L 202.3672025029784,41.59553525937927 L 186.86200201862906,47.67340025239626 L 192.93986701164604,32.168199768046954 L 177.67833505380707,25.50206691360525 L 192.93986701164604,18.835934059163545 L 186.86200201862906,3.3307335748142357 L 202.36720250297836,9.40859856783123 Z" fill="none" stroke="#FFD700" stroke-width="1.277862668399635" /><path d="M 278.7111138098934,-5.85293339000776 L 285.3772466643351,9.408598567831227 L 300.8824471486844,3.3307335748142357 L 294.8045821556674,18.83593405916355 L 310.0661141135064,25.502066913605248 L 294.8045821556674,32.16819976804695 L 300.8824471486844,47.67340025239626 L 285.3772466643351,41.59553525937927 L 278.7111138098934,56.85706721721826 L 272.0449809554517,41.59553525937927 L 256.5397804711024,47.67340025239626 L 262.6176454641194,32.168199768046954 L 247.3561135062804,25.50206691360525 L 262.6176454641194,18.835934059163545 L 256.53978047110235,3.3307335748142357 L 272.0449809554517,9.40859856783123 Z" fill="none" stroke="#FFD700" stroke-width="1.277862668399635" /><path d="M 348.38889226236677,-5.85293339000776 L 355.05502511680845,9.408598567831227 L 370.56022560115775,3.3307335748142357 L 364.48236060814077,18.83593405916355 L 379.74389256597976,25.502066913605248 L 364.48236060814077,32.16819976804695 L 370.56022560115775,47.67340025239626 L 355.05502511680845,41.59553525937927 L 348.38889226236677,56.85706721721826 L 341.7227594079251,41.59553525937927 L 326.2175589235758,47.67340025239626 L 332.29542391659277,32.168199768046954 L 317.03389195875377,25.50206691360525 L 332.29542391659277,18.835934059163545 L 326.2175589235757,3.3307335748142357 L 341.7227594079251,9.40859856783123 Z" fill="none" stroke="#FFD700" stroke-width="1.277862668399635" /><path d="M 418.0666707148401,-5.85293339000776 L 424.73280356928177,9.408598567831227 L 440.23800405363113,3.3307335748142357 L 434.1601390606141,18.83593405916355 L 449.4216710184531,25.502066913605248 L 434.1601390606141,32.16819976804695 L 440.23800405363113,47.67340025239626 L 424.73280356928177,41.59553525937927 L 418.0666707148401,56.85706721721826 L 411.4005378603984,41.59553525937927 L 395.8953373760491,47.67340025239626 L 401.9732023690661,32.168199768046954 L 386.7116704112271,25.50206691360525 L 401.9732023690661,18.835934059163545 L 395.89533737604904,3.3307335748142357 L 411.4005378603984,9.40859856783123 Z" fill="none" stroke="#FFD700" stroke-width="1.277862668399635" /><path d="M 487.7444491673134,-5.85293339000776 L 494.4105820217551,9.408598567831227 L 509.9157825061044,3.3307335748142357 L 503.8379175130874,18.83593405916355 L 519.0994494709264,25.502066913605248 L 503.8379175130874,32.16819976804695 L 509.9157825061044,47.67340025239626 L 494.4105820217551,41.59553525937927 L 487.7444491673134,56.85706721721826 L 481.0783163128717,41.59553525937927 L 465.5731158285224,47.67340025239626 L 471.6509808215394,32.168199768046954 L 456.3894488637004,25.50206691360525 L 471.6509808215394,18.835934059163545 L 465.57311582852236,3.3307335748142357 L 481.0783163128717,9.40859856783123 Z" fill="none" stroke="#FFD700" stroke-width="1.277862668399635" /><path d="M 557.4222276197868,-5.85293339000776 L 564.0883604742285,9.408598567831227 L 579.5935609585778,3.3307335748142357 L 573.5156959655608,18.83593405916355 L 588.7772279233998,25.502066913605248 L 573.5156959655608,32.16819976804695 L 579.5935609585778,47.67340025239626 L 564.0883604742285,41.59553525937927 L 557.4222276197868,56.85706721721826 L 550.7560947653451,41.59553525937927 L 535.2508942809958,47.67340025239626 L 541.3287592740128,32.168199768046954 L 526.0672273161738,25.50206691360525 L 541.3287592740128,18.835934059163545 L 535.2508942809958,3.3307335748142357 L 550.7560947653451,9.40859856783123 Z" fill="none" stroke="#FFD700" stroke-width="1.277862668399635" /><path d="M -34.838889226236674,54.48802274983416 L -28.172756371794975,69.74955470767316 L -12.667555887445658,63.671689714656154 L -18.745420880462653,79.17689019900547 L -3.4838889226236667,85.84302305344717 L -18.745420880462653,92.50915590788887 L -12.667555887445658,108.01435639223818 L -28.172756371794975,101.93649139922118 L -34.838889226236674,117.19802335706018 L -41.50502208067837,101.93649139922118 L -57.01022256502769,108.01435639223818 L -50.93235757201069,92.50915590788888 L -66.19388952984968,85.84302305344717 L -50.932357572010694,79.17689019900547 L -57.01022256502769,63.671689714656154 L -41.50502208067838,69.74955470767316 Z" fill="none" stroke="#FFD700" stroke-width="1.277862668399635" /><path d="M 34.838889226236674,54.48802274983416 L 41.50502208067837,69.74955470767316 L 57.01022256502769,63.671689714656154 L 50.932357572010694,79.17689019900547 L 66.19388952984968,85.84302305344717 L 50.932357572010694,92.50915590788887 L 57.01022256502769,108.01435639223818 L 41.50502208067837,101.93649139922118 L 34.838889226236674,117.19802335706018 L 28.172756371794975,101.93649139922118 L 12.667555887445662,108.01435639223818 L 18.745420880462657,92.50915590788888 L 3.4838889226236667,85.84302305344717 L 18.745420880462653,79.17689019900547 L 12.667555887445655,63.671689714656154 L 28.172756371794964,69.74955470767316 Z" fill="none" stroke="#FFD700" stroke-width="1.277862668399635" /><path d="M 104.51666767871002,54.48802274983416 L 111.18280053315172,69.74955470767316 L 126.68800101750104,63.671689714656154 L 120.61013602448404,79.17689019900547 L 135.87166798232303,85.84302305344717 L 120.61013602448404,92.50915590788887 L 126.68800101750104,108.01435639223818 L 111.18280053315172,101.93649139922118 L 104.51666767871002,117.19802335706018 L 97.85053482426832,101.93649139922118 L 82.345334339919,108.01435639223818 L 88.42319933293601,92.50915590788888 L 73.16166737509701,85.84302305344717 L 88.42319933293601,79.17689019900547 L 82.345334339919,63.671689714656154 L 97.85053482426831,69.74955470767316 Z" fill="none" stroke="#FFD700" stroke-width="1.277862668399635" /><path d="M 174.19444613118338,54.48802274983416 L 180.8605789856251,69.74955470767316 L 196.3657794699744,63.671689714656154 L 190.2879144769574,79.17689019900547 L 205.54944643479638,85.84302305344717 L 190.2879144769574,92.50915590788887 L 196.3657794699744,108.01435639223818 L 180.8605789856251,101.93649139922118 L 174.19444613118338,117.19802335706018 L 167.5283132767417,101.93649139922118 L 152.02311279239237,108.01435639223818 L 158.10097778540936,92.50915590788888 L 142.8394458275704,85.84302305344717 L 158.10097778540936,79.17689019900547 L 152.02311279239237,63.671689714656154 L 167.52831327674167,69.74955470767316 Z" fill="none" stroke="#FFD700" stroke-width="1.277862668399635" /><path d="M 243.8722245836567,54.48802274983416 L 250.53835743809842,69.74955470767316 L 266.0435579224477,63.671689714656154 L 259.9656929294307,79.17689019900547 L 275.2272248872697,85.84302305344717 L 259.9656929294307,92.50915590788887 L 266.0435579224477,108.01435639223818 L 250.53835743809842,101.93649139922118 L 243.8722245836567,117.19802335706018 L 237.20609172921502,101.93649139922118 L 221.7008912448657,108.01435639223818 L 227.77875623788267,92.50915590788888 L 212.5172242800437,85.84302305344717 L 227.77875623788267,79.17689019900547 L 221.7008912448657,63.671689714656154 L 237.206091729215,69.74955470767316 Z" fill="none" stroke="#FFD700" stroke-width="1.277862668399635" /><path d="M 313.5500030361301,54.48802274983416 L 320.21613589057176,69.74955470767316 L 335.72133637492107,63.671689714656154 L 329.6434713819041,79.17689019900547 L 344.9050033397431,85.84302305344717 L 329.6434713819041,92.50915590788887 L 335.72133637492107,108.01435639223818 L 320.21613589057176,101.93649139922118 L 313.5500030361301,117.19802335706018 L 306.8838701816884,101.93649139922118 L 291.3786696973391,108.01435639223818 L 297.4565346903561,92.50915590788888 L 282.1950027325171,85.84302305344717 L 297.4565346903561,79.17689019900547 L 291.37866969733903,63.671689714656154 L 306.8838701816884,69.74955470767316 Z" fill="none" stroke="#FFD700" stroke-width="1.277862668399635" /><path d="M 383.2277814886034,54.48802274983416 L 389.8939143430451,69.74955470767316 L 405.39911482739444,63.671689714656154 L 399.3212498343774,79.17689019900547 L 414.5827817922164,85.84302305344717 L 399.3212498343774,92.50915590788887 L 405.39911482739444,108.01435639223818 L 389.8939143430451,101.93649139922118 L 383.2277814886034,117.19802335706018 L 376.5616486341617,101.93649139922118 L 361.0564481498124,108.01435639223818 L 367.1343131428294,92.50915590788888 L 351.8727811849904,85.84302305344717 L 367.1343131428294,79.17689019900547 L 361.05644814981235,63.671689714656154 L 376.5616486341617,69.74955470767316 Z" fill="none" stroke="#FFD700" stroke-width="1.277862668399635" /><path d="M 452.9055599410767,54.48802274983416 L 459.5716927955184,69.74955470767316 L 475.0768932798677,63.671689714656154 L 468.9990282868507,79.17689019900547 L 484.2605602446897,85.84302305344717 L 468.9990282868507,92.50915590788887 L 475.0768932798677,108.01435639223818 L 459.5716927955184,101.93649139922118 L 452.9055599410767,117.19802335706018 L 446.23942708663503,101.93649139922118 L 430.73422660228573,108.01435639223818 L 436.8120915953027,92.50915590788888 L 421.5505596374637,85.84302305344717 L 436.8120915953027,79.17689019900547 L 430.7342266022857,63.671689714656154 L 446.23942708663503,69.74955470767316 Z" fill="none" stroke="#FFD700" stroke-width="1.277862668399635" /><path d="M 522.5833383935501,54.48802274983416 L 529.2494712479918,69.74955470767316 L 544.7546717323411,63.671689714656154 L 538.6768067393241,79.17689019900547 L 553.9383386971631,85.84302305344717 L 538.6768067393241,92.50915590788887 L 544.7546717323411,108.01435639223818 L 529.2494712479918,101.93649139922118 L 522.5833383935501,117.19802335706018 L 515.9172055391084,101.93649139922118 L 500.4120050547591,108.01435639223818 L 506.4898700477761,92.50915590788888 L 491.2283380899371,85.84302305344717 L 506.4898700477761,79.17689019900547 L 500.41200505475905,63.671689714656154 L 515.9172055391084,69.74955470767316 Z" fill="none" stroke="#FFD700" stroke-width="1.277862668399635" /><path d="M 1.919940037954198e-15,114.82897888967607 L 6.6661328544417,130.09051084751505 L 22.171333338791015,124.01264585449806 L 16.09346834577402,139.5178463388474 L 31.355000303613007,146.18397919328908 L 16.09346834577402,152.85011204773076 L 22.171333338791015,168.3553125320801 L 6.6661328544417,162.2774475390631 L 1.919940037954198e-15,177.53897949690207 L -6.666132854441698,162.2774475390631 L -22.171333338791012,168.3553125320801 L -16.093468345774017,152.8501120477308 L -31.355000303613007,146.18397919328908 L -16.09346834577402,139.51784633884736 L -22.17133333879102,124.01264585449806 L -6.666132854441709,130.09051084751505 Z" fill="none" stroke="#FFD700" stroke-width="1.277862668399635" /><path d="M 69.67777845247335,114.82897888967607 L 76.34391130691505,130.09051084751505 L 91.84911179126436,124.01264585449806 L 85.77124679824738,139.5178463388474 L 101.03277875608636,146.18397919328908 L 85.77124679824738,152.85011204773076 L 91.84911179126436,168.3553125320801 L 76.34391130691505,162.2774475390631 L 69.67777845247335,177.53897949690207 L 63.01164559803165,162.2774475390631 L 47.50644511368233,168.3553125320801 L 53.584310106699334,152.8501120477308 L 38.32277814886034,146.18397919328908 L 53.58431010669933,139.51784633884736 L 47.50644511368233,124.01264585449806 L 63.01164559803164,130.09051084751505 Z" fill="none" stroke="#FFD700" stroke-width="1.277862668399635" /><path d="M 139.3555569049467,114.82897888967607 L 146.0216897593884,130.09051084751505 L 161.5268902437377,124.01264585449806 L 155.44902525072072,139.5178463388474 L 170.7105572085597,146.18397919328908 L 155.44902525072072,152.85011204773076 L 161.5268902437377,168.3553125320801 L 146.0216897593884,162.2774475390631 L 139.3555569049467,177.53897949690207 L 132.689424050505,162.2774475390631 L 117.18422356615568,168.3553125320801 L 123.26208855917268,152.8501120477308 L 108.00055660133368,146.18397919328908 L 123.26208855917267,139.51784633884736 L 117.18422356615568,124.01264585449806 L 132.68942405050498,130.09051084751505 Z" fill="none" stroke="#FFD700" stroke-width="1.277862668399635" /><path d="M 209.03333535742007,114.82897888967607 L 215.69946821186178,130.09051084751505 L 231.2046686962111,124.01264585449806 L 225.1268037031941,139.5178463388474 L 240.38833566103307,146.18397919328908 L 225.1268037031941,152.85011204773076 L 231.2046686962111,168.3553125320801 L 215.69946821186178,162.2774475390631 L 209.03333535742007,177.53897949690207 L 202.3672025029784,162.2774475390631 L 186.86200201862906,168.3553125320801 L 192.93986701164604,152.8501120477308 L 177.67833505380707,146.18397919328908 L 192.93986701164604,139.51784633884736 L 186.86200201862906,124.01264585449806 L 202.36720250297836,130.09051084751505 Z" fill="none" stroke="#FFD700" stroke-width="1.277862668399635" /><path d="M 278.7111138098934,114.82897888967607 L 285.3772466643351,130.09051084751505 L 300.8824471486844,124.01264585449806 L 294.8045821556674,139.5178463388474 L 310.0661141135064,146.18397919328908 L 294.8045821556674,152.85011204773076 L 300.8824471486844,168.3553125320801 L 285.3772466643351,162.2774475390631 L 278.7111138098934,177.53897949690207 L 272.0449809554517,162.2774475390631 L 256.5397804711024,168.3553125320801 L 262.6176454641194,152.8501120477308 L 247.3561135062804,146.18397919328908 L 262.6176454641194,139.51784633884736 L 256.53978047110235,124.01264585449806 L 272.0449809554517,130.09051084751505 Z" fill="none" stroke="#FFD700" stroke-width="1.277862668399635" /><path d="M 348.38889226236677,114.82897888967607 L 355.05502511680845,130.09051084751505 L 370.56022560115775,124.01264585449806 L 364.48236060814077,139.5178463388474 L 379.74389256597976,146.18397919328908 L 364.48236060814077,152.85011204773076 L 370.56022560115775,168.3553125320801 L 355.05502511680845,162.2774475390631 L 348.38889226236677,177.53897949690207 L 341.7227594079251,162.2774475390631 L 326.2175589235758,168.3553125320801 L 332.29542391659277,152.8501120477308 L 317.03389195875377,146.18397919328908 L 332.29542391659277,139.51784633884736 L 326.2175589235757,124.01264585449806 L 341.7227594079251,130.09051084751505 Z" fill="none" stroke="#FFD700" stroke-width="1.277862668399635" /><path d="M 418.0666707148401,114.82897888967607 L 424.73280356928177,130.09051084751505 L 440.23800405363113,124.01264585449806 L 434.1601390606141,139.5178463388474 L 449.4216710184531,146.18397919328908 L 434.1601390606141,152.85011204773076 L 440.23800405363113,168.3553125320801 L 424.73280356928177,162.2774475390631 L 418.0666707148401,177.53897949690207 L 411.4005378603984,162.2774475390631 L 395.8953373760491,168.3553125320801 L 401.9732023690661,152.8501120477308 L 386.7116704112271,146.18397919328908 L 401.9732023690661,139.51784633884736 L 395.89533737604904,124.01264585449806 L 411.4005378603984,130.09051084751505 Z" fill="none" stroke="#FFD700" stroke-width="1.277862668399635" /><path d="M 487.7444491673134,114.82897888967607 L 494.4105820217551,130.09051084751505 L 509.9157825061044,124.01264585449806 L 503.8379175130874,139.5178463388474 L 519.0994494709264,146.18397919328908 L 503.8379175130874,152.85011204773076 L 509.9157825061044,168.3553125320801 L 494.4105820217551,162.2774475390631 L 487.7444491673134,177.53897949690207 L 481.0783163128717,162.2774475390631 L 465.5731158285224,168.3553125320801 L 471.6509808215394,152.8501120477308 L 456.3894488637004,146.18397919328908 L 471.6509808215394,139.51784633884736 L 465.57311582852236,124.01264585449806 L 481.0783163128717,130.09051084751505 Z" fill="none" stroke="#FFD700" stroke-width="1.277862668399635" /><path d="M 557.4222276197868,114.82897888967607 L 564.0883604742285,130.09051084751505 L 579.5935609585778,124.01264585449806 L 573.5156959655608,139.5178463388474 L 588.7772279233998,146.18397919328908 L 573.5156959655608,152.85011204773076 L 579.5935609585778,168.3553125320801 L 564.0883604742285,162.2774475390631 L 557.4222276197868,177.53897949690207 L 550.7560947653451,162.2774475390631 L 535.2508942809958,168.3553125320801 L 541.3287592740128,152.8501120477308 L 526.0672273161738,146.18397919328908 L 541.3287592740128,139.51784633884736 L 535.2508942809958,124.01264585449806 L 550.7560947653451,130.09051084751505 Z" fill="none" stroke="#FFD700" stroke-width="1.277862668399635" /><path d="M -34.838889226236674,175.169935029518 L -28.172756371794975,190.43146698735697 L -12.667555887445658,184.35360199433998 L -18.745420880462653,199.8588024786893 L -3.4838889226236667,206.524935333131 L -18.745420880462653,213.19106818757268 L -12.667555887445658,228.696268671922 L -28.172756371794975,222.61840367890503 L -34.838889226236674,237.879935636744 L -41.50502208067837,222.61840367890503 L -57.01022256502769,228.696268671922 L -50.93235757201069,213.1910681875727 L -66.19388952984968,206.524935333131 L -50.932357572010694,199.85880247868928 L -57.01022256502769,184.35360199433998 L -41.50502208067838,190.43146698735697 Z" fill="none" stroke="#FFD700" stroke-width="1.277862668399635" /><path d="M 34.838889226236674,175.169935029518 L 41.50502208067837,190.43146698735697 L 57.01022256502769,184.35360199433998 L 50.932357572010694,199.8588024786893 L 66.19388952984968,206.524935333131 L 50.932357572010694,213.19106818757268 L 57.01022256502769,228.696268671922 L 41.50502208067837,222.61840367890503 L 34.838889226236674,237.879935636744 L 28.172756371794975,222.61840367890503 L 12.667555887445662,228.696268671922 L 18.745420880462657,213.1910681875727 L 3.4838889226236667,206.524935333131 L 18.745420880462653,199.85880247868928 L 12.667555887445655,184.35360199433998 L 28.172756371794964,190.43146698735697 Z" fill="none" stroke="#FFD700" stroke-width="1.277862668399635" /><path d="M 104.51666767871002,175.169935029518 L 111.18280053315172,190.43146698735697 L 126.68800101750104,184.35360199433998 L 120.61013602448404,199.8588024786893 L 135.87166798232303,206.524935333131 L 120.61013602448404,213.19106818757268 L 126.68800101750104,228.696268671922 L 111.18280053315172,222.61840367890503 L 104.51666767871002,237.879935636744 L 97.85053482426832,222.61840367890503 L 82.345334339919,228.696268671922 L 88.42319933293601,213.1910681875727 L 73.16166737509701,206.524935333131 L 88.42319933293601,199.85880247868928 L 82.345334339919,184.35360199433998 L 97.85053482426831,190.43146698735697 Z" fill="none" stroke="#FFD700" stroke-width="1.277862668399635" /><path d="M 174.19444613118338,175.169935029518 L 180.8605789856251,190.43146698735697 L 196.3657794699744,184.35360199433998 L 190.2879144769574,199.8588024786893 L 205.54944643479638,206.524935333131 L 190.2879144769574,213.19106818757268 L 196.3657794699744,228.696268671922 L 180.8605789856251,222.61840367890503 L 174.19444613118338,237.879935636744 L 167.5283132767417,222.61840367890503 L 152.02311279239237,228.696268671922 L 158.10097778540936,213.1910681875727 L 142.8394458275704,206.524935333131 L 158.10097778540936,199.85880247868928 L 152.02311279239237,184.35360199433998 L 167.52831327674167,190.43146698735697 Z" fill="none" stroke="#FFD700" stroke-width="1.277862668399635" /><path d="M 243.8722245836567,175.169935029518 L 250.53835743809842,190.43146698735697 L 266.0435579224477,184.35360199433998 L 259.9656929294307,199.8588024786893 L 275.2272248872697,206.524935333131 L 259.9656929294307,213.19106818757268 L 266.0435579224477,228.696268671922 L 250.53835743809842,222.61840367890503 L 243.8722245836567,237.879935636744 L 237.20609172921502,222.61840367890503 L 221.7008912448657,228.696268671922 L 227.77875623788267,213.1910681875727 L 212.5172242800437,206.524935333131 L 227.77875623788267,199.85880247868928 L 221.7008912448657,184.35360199433998 L 237.206091729215,190.43146698735697 Z" fill="none" stroke="#FFD700" stroke-width="1.277862668399635" /><path d="M 313.5500030361301,175.169935029518 L 320.21613589057176,190.43146698735697 L 335.72133637492107,184.35360199433998 L 329.6434713819041,199.8588024786893 L 344.9050033397431,206.524935333131 L 329.6434713819041,213.19106818757268 L 335.72133637492107,228.696268671922 L 320.21613589057176,222.61840367890503 L 313.5500030361301,237.879935636744 L 306.8838701816884,222.61840367890503 L 291.3786696973391,228.696268671922 L 297.4565346903561,213.1910681875727 L 282.1950027325171,206.524935333131 L 297.4565346903561,199.85880247868928 L 291.37866969733903,184.35360199433998 L 306.8838701816884,190.43146698735697 Z" fill="none" stroke="#FFD700" stroke-width="1.277862668399635" /><path d="M 383.2277814886034,175.169935029518 L 389.8939143430451,190.43146698735697 L 405.39911482739444,184.35360199433998 L 399.3212498343774,199.8588024786893 L 414.5827817922164,206.524935333131 L 399.3212498343774,213.19106818757268 L 405.39911482739444,228.696268671922 L 389.8939143430451,222.61840367890503 L 383.2277814886034,237.879935636744 L 376.5616486341617,222.61840367890503 L 361.0564481498124,228.696268671922 L 367.1343131428294,213.1910681875727 L 351.8727811849904,206.524935333131 L 367.1343131428294,199.85880247868928 L 361.05644814981235,184.35360199433998 L 376.5616486341617,190.43146698735697 Z" fill="none" stroke="#FFD700" stroke-width="1.277862668399635" /><path d="M 452.9055599410767,175.169935029518 L 459.5716927955184,190.43146698735697 L 475.0768932798677,184.35360199433998 L 468.9990282868507,199.8588024786893 L 484.2605602446897,206.524935333131 L 468.9990282868507,213.19106818757268 L 475.0768932798677,228.696268671922 L 459.5716927955184,222.61840367890503 L 452.9055599410767,237.879935636744 L 446.23942708663503,222.61840367890503 L 430.73422660228573,228.696268671922 L 436.8120915953027,213.1910681875727 L 421.5505596374637,206.524935333131 L 436.8120915953027,199.85880247868928 L 430.7342266022857,184.35360199433998 L 446.23942708663503,190.43146698735697 Z" fill="none" stroke="#FFD700" stroke-width="1.277862668399635" /><path d="M 522.5833383935501,175.169935029518 L 529.2494712479918,190.43146698735697 L 544.7546717323411,184.35360199433998 L 538.6768067393241,199.8588024786893 L 553.9383386971631,206.524935333131 L 538.6768067393241,213.19106818757268 L 544.7546717323411,228.696268671922 L 529.2494712479918,222.61840367890503 L 522.5833383935501,237.879935636744 L 515.9172055391084,222.61840367890503 L 500.4120050547591,228.696268671922 L 506.4898700477761,213.1910681875727 L 491.2283380899371,206.524935333131 L 506.4898700477761,199.85880247868928 L 500.41200505475905,184.35360199433998 L 515.9172055391084,190.43146698735697 Z" fill="none" stroke="#FFD700" stroke-width="1.277862668399635" /><path d="M 1.919940037954198e-15,235.51089116935992 L 6.6661328544417,250.7724231271989 L 22.171333338791015,244.6945581341819 L 16.09346834577402,260.19975861853123 L 31.355000303613007,266.8658914729729 L 16.09346834577402,273.5320243274146 L 22.171333338791015,289.0372248117639 L 6.6661328544417,282.9593598187469 L 1.919940037954198e-15,298.2208917765859 L -6.666132854441698,282.9593598187469 L -22.171333338791012,289.03722481176396 L -16.093468345774017,273.5320243274146 L -31.355000303613007,266.8658914729729 L -16.09346834577402,260.19975861853123 L -22.17133333879102,244.6945581341819 L -6.666132854441709,250.7724231271989 Z" fill="none" stroke="#FFD700" stroke-width="1.277862668399635" /><path d="M 69.67777845247335,235.51089116935992 L 76.34391130691505,250.7724231271989 L 91.84911179126436,244.6945581341819 L 85.77124679824738,260.19975861853123 L 101.03277875608636,266.8658914729729 L 85.77124679824738,273.5320243274146 L 91.84911179126436,289.0372248117639 L 76.34391130691505,282.9593598187469 L 69.67777845247335,298.2208917765859 L 63.01164559803165,282.9593598187469 L 47.50644511368233,289.03722481176396 L 53.584310106699334,273.5320243274146 L 38.32277814886034,266.8658914729729 L 53.58431010669933,260.19975861853123 L 47.50644511368233,244.6945581341819 L 63.01164559803164,250.7724231271989 Z" fill="none" stroke="#FFD700" stroke-width="1.277862668399635" /><path d="M 139.3555569049467,235.51089116935992 L 146.0216897593884,250.7724231271989 L 161.5268902437377,244.6945581341819 L 155.44902525072072,260.19975861853123 L 170.7105572085597,266.8658914729729 L 155.44902525072072,273.5320243274146 L 161.5268902437377,289.0372248117639 L 146.0216897593884,282.9593598187469 L 139.3555569049467,298.2208917765859 L 132.689424050505,282.9593598187469 L 117.18422356615568,289.03722481176396 L 123.26208855917268,273.5320243274146 L 108.00055660133368,266.8658914729729 L 123.26208855917267,260.19975861853123 L 117.18422356615568,244.6945581341819 L 132.68942405050498,250.7724231271989 Z" fill="none" stroke="#FFD700" stroke-width="1.277862668399635" /><path d="M 209.03333535742007,235.51089116935992 L 215.69946821186178,250.7724231271989 L 231.2046686962111,244.6945581341819 L 225.1268037031941,260.19975861853123 L 240.38833566103307,266.8658914729729 L 225.1268037031941,273.5320243274146 L 231.2046686962111,289.0372248117639 L 215.69946821186178,282.9593598187469 L 209.03333535742007,298.2208917765859 L 202.3672025029784,282.9593598187469 L 186.86200201862906,289.03722481176396 L 192.93986701164604,273.5320243274146 L 177.67833505380707,266.8658914729729 L 192.93986701164604,260.19975861853123 L 186.86200201862906,244.6945581341819 L 202.36720250297836,250.7724231271989 Z" fill="none" stroke="#FFD700" stroke-width="1.277862668399635" /><path d="M 278.7111138098934,235.51089116935992 L 285.3772466643351,250.7724231271989 L 300.8824471486844,244.6945581341819 L 294.8045821556674,260.19975861853123 L 310.0661141135064,266.8658914729729 L 294.8045821556674,273.5320243274146 L 300.8824471486844,289.0372248117639 L 285.3772466643351,282.9593598187469 L 278.7111138098934,298.2208917765859 L 272.0449809554517,282.9593598187469 L 256.5397804711024,289.03722481176396 L 262.6176454641194,273.5320243274146 L 247.3561135062804,266.8658914729729 L 262.6176454641194,260.19975861853123 L 256.53978047110235,244.6945581341819 L 272.0449809554517,250.7724231271989 Z" fill="none" stroke="#FFD700" stroke-width="1.277862668399635" /><path d="M 348.38889226236677,235.51089116935992 L 355.05502511680845,250.7724231271989 L 370.56022560115775,244.6945581341819 L 364.48236060814077,260.19975861853123 L 379.74389256597976,266.8658914729729 L 364.48236060814077,273.5320243274146 L 370.56022560115775,289.0372248117639 L 355.05502511680845,282.9593598187469 L 348.38889226236677,298.2208917765859 L 341.7227594079251,282.9593598187469 L 326.2175589235758,289.03722481176396 L 332.29542391659277,273.5320243274146 L 317.03389195875377,266.8658914729729 L 332.29542391659277,260.19975861853123 L 326.2175589235757,244.6945581341819 L 341.7227594079251,250.7724231271989 Z" fill="none" stroke="#FFD700" stroke-width="1.277862668399635" /><path d="M 418.0666707148401,235.51089116935992 L 424.73280356928177,250.7724231271989 L 440.23800405363113,244.6945581341819 L 434.1601390606141,260.19975861853123 L 449.4216710184531,266.8658914729729 L 434.1601390606141,273.5320243274146 L 440.23800405363113,289.0372248117639 L 424.73280356928177,282.9593598187469 L 418.0666707148401,298.2208917765859 L 411.4005378603984,282.9593598187469 L 395.8953373760491,289.03722481176396 L 401.9732023690661,273.5320243274146 L 386.7116704112271,266.8658914729729 L 401.9732023690661,260.19975861853123 L 395.89533737604904,244.6945581341819 L 411.4005378603984,250.7724231271989 Z" fill="none" stroke="#FFD700" stroke-width="1.277862668399635" /><path d="M 487.7444491673134,235.51089116935992 L 494.4105820217551,250.7724231271989 L 509.9157825061044,244.6945581341819 L 503.8379175130874,260.19975861853123 L 519.0994494709264,266.8658914729729 L 503.8379175130874,273.5320243274146 L 509.9157825061044,289.0372248117639 L 494.4105820217551,282.9593598187469 L 487.7444491673134,298.2208917765859 L 481.0783163128717,282.9593598187469 L 465.5731158285224,289.03722481176396 L 471.6509808215394,273.5320243274146 L 456.3894488637004,266.8658914729729 L 471.6509808215394,260.19975861853123 L 465.57311582852236,244.6945581341819 L 481.0783163128717,250.7724231271989 Z" fill="none" stroke="#FFD700" stroke-width="1.277862668399635" /><path d="M 557.4222276197868,235.51089116935992 L 564.0883604742285,250.7724231271989 L 579.5935609585778,244.6945581341819 L 573.5156959655608,260.19975861853123 L 588.7772279233998,266.8658914729729 L 573.5156959655608,273.5320243274146 L 579.5935609585778,289.0372248117639 L 564.0883604742285,282.9593598187469 L 557.4222276197868,298.2208917765859 L 550.7560947653451,282.9593598187469 L 535.2508942809958,289.03722481176396 L 541.3287592740128,273.5320243274146 L 526.0672273161738,266.8658914729729 L 541.3287592740128,260.19975861853123 L 535.2508942809958,244.6945581341819 L 550.7560947653451,250.7724231271989 Z" fill="none" stroke="#FFD700" stroke-width="1.277862668399635" /><path d="M -34.838889226236674,295.85184730920184 L -28.172756371794975,311.11337926704084 L -12.667555887445658,305.03551427402385 L -18.745420880462653,320.54071475837316 L -3.4838889226236667,327.20684761281484 L -18.745420880462653,333.8729804672565 L -12.667555887445658,349.3781809516058 L -28.172756371794975,343.30031595858884 L -34.838889226236674,358.56184791642784 L -41.50502208067837,343.30031595858884 L -57.01022256502769,349.3781809516058 L -50.93235757201069,333.8729804672565 L -66.19388952984968,327.20684761281484 L -50.932357572010694,320.54071475837316 L -57.01022256502769,305.03551427402385 L -41.50502208067838,311.11337926704084 Z" fill="none" stroke="#FFD700" stroke-width="1.277862668399635" /><path d="M 34.838889226236674,295.85184730920184 L 41.50502208067837,311.11337926704084 L 57.01022256502769,305.03551427402385 L 50.932357572010694,320.54071475837316 L 66.19388952984968,327.20684761281484 L 50.932357572010694,333.8729804672565 L 57.01022256502769,349.3781809516058 L 41.50502208067837,343.30031595858884 L 34.838889226236674,358.56184791642784 L 28.172756371794975,343.30031595858884 L 12.667555887445662,349.3781809516058 L 18.745420880462657,333.8729804672565 L 3.4838889226236667,327.20684761281484 L 18.745420880462653,320.54071475837316 L 12.667555887445655,305.03551427402385 L 28.172756371794964,311.11337926704084 Z" fill="none" stroke="#FFD700" stroke-width="1.277862668399635" /><path d="M 104.51666767871002,295.85184730920184 L 111.18280053315172,311.11337926704084 L 126.68800101750104,305.03551427402385 L 120.61013602448404,320.54071475837316 L 135.87166798232303,327.20684761281484 L 120.61013602448404,333.8729804672565 L 126.68800101750104,349.3781809516058 L 111.18280053315172,343.30031595858884 L 104.51666767871002,358.56184791642784 L 97.85053482426832,343.30031595858884 L 82.345334339919,349.3781809516058 L 88.42319933293601,333.8729804672565 L 73.16166737509701,327.20684761281484 L 88.42319933293601,320.54071475837316 L 82.345334339919,305.03551427402385 L 97.85053482426831,311.11337926704084 Z" fill="none" stroke="#FFD700" stroke-width="1.277862668399635" /><path d="M 174.19444613118338,295.85184730920184 L 180.8605789856251,311.11337926704084 L 196.3657794699744,305.03551427402385 L 190.2879144769574,320.54071475837316 L 205.54944643479638,327.20684761281484 L 190.2879144769574,333.8729804672565 L 196.3657794699744,349.3781809516058 L 180.8605789856251,343.30031595858884 L 174.19444613118338,358.56184791642784 L 167.5283132767417,343.30031595858884 L 152.02311279239237,349.3781809516058 L 158.10097778540936,333.8729804672565 L 142.8394458275704,327.20684761281484 L 158.10097778540936,320.54071475837316 L 152.02311279239237,305.03551427402385 L 167.52831327674167,311.11337926704084 Z" fill="none" stroke="#FFD700" stroke-width="1.277862668399635" /><path d="M 243.8722245836567,295.85184730920184 L 250.53835743809842,311.11337926704084 L 266.0435579224477,305.03551427402385 L 259.9656929294307,320.54071475837316 L 275.2272248872697,327.20684761281484 L 259.9656929294307,333.8729804672565 L 266.0435579224477,349.3781809516058 L 250.53835743809842,343.30031595858884 L 243.8722245836567,358.56184791642784 L 237.20609172921502,343.30031595858884 L 221.7008912448657,349.3781809516058 L 227.77875623788267,333.8729804672565 L 212.5172242800437,327.20684761281484 L 227.77875623788267,320.54071475837316 L 221.7008912448657,305.03551427402385 L 237.206091729215,311.11337926704084 Z" fill="none" stroke="#FFD700" stroke-width="1.277862668399635" /><path d="M 313.5500030361301,295.85184730920184 L 320.21613589057176,311.11337926704084 L 335.72133637492107,305.03551427402385 L 329.6434713819041,320.54071475837316 L 344.9050033397431,327.20684761281484 L 329.6434713819041,333.8729804672565 L 335.72133637492107,349.3781809516058 L 320.21613589057176,343.30031595858884 L 313.5500030361301,358.56184791642784 L 306.8838701816884,343.30031595858884 L 291.3786696973391,349.3781809516058 L 297.4565346903561,333.8729804672565 L 282.1950027325171,327.20684761281484 L 297.4565346903561,320.54071475837316 L 291.37866969733903,305.03551427402385 L 306.8838701816884,311.11337926704084 Z" fill="none" stroke="#FFD700" stroke-width="1.277862668399635" /><path d="M 383.2277814886034,295.85184730920184 L 389.8939143430451,311.11337926704084 L 405.39911482739444,305.03551427402385 L 399.3212498343774,320.54071475837316 L 414.5827817922164,327.20684761281484 L 399.3212498343774,333.8729804672565 L 405.39911482739444,349.3781809516058 L 389.8939143430451,343.30031595858884 L 383.2277814886034,358.56184791642784 L 376.5616486341617,343.30031595858884 L 361.0564481498124,349.3781809516058 L 367.1343131428294,333.8729804672565 L 351.8727811849904,327.20684761281484 L 367.1343131428294,320.54071475837316 L 361.05644814981235,305.03551427402385 L 376.5616486341617,311.11337926704084 Z" fill="none" stroke="#FFD700" stroke-width="1.277862668399635" /><path d="M 452.9055599410767,295.85184730920184 L 459.5716927955184,311.11337926704084 L 475.0768932798677,305.03551427402385 L 468.9990282868507,320.54071475837316 L 484.2605602446897,327.20684761281484 L 468.9990282868507,333.8729804672565 L 475.0768932798677,349.3781809516058 L 459.5716927955184,343.30031595858884 L 452.9055599410767,358.56184791642784 L 446.23942708663503,343.30031595858884 L 430.73422660228573,349.3781809516058 L 436.8120915953027,333.8729804672565 L 421.5505596374637,327.20684761281484 L 436.8120915953027,320.54071475837316 L 430.7342266022857,305.03551427402385 L 446.23942708663503,311.11337926704084 Z" fill="none" stroke="#FFD700" stroke-width="1.277862668399635" /><path d="M 522.5833383935501,295.85184730920184 L 529.2494712479918,311.11337926704084 L 544.7546717323411,305.03551427402385 L 538.6768067393241,320.54071475837316 L 553.9383386971631,327.20684761281484 L 538.6768067393241,333.8729804672565 L 544.7546717323411,349.3781809516058 L 529.2494712479918,343.30031595858884 L 522.5833383935501,358.56184791642784 L 515.9172055391084,343.30031595858884 L 500.4120050547591,349.3781809516058 L 506.4898700477761,333.8729804672565 L 491.2283380899371,327.20684761281484 L 506.4898700477761,320.54071475837316 L 500.41200505475905,305.03551427402385 L 515.9172055391084,311.11337926704084 Z" fill="none" stroke="#FFD700" stroke-width="1.277862668399635" /><path d="M 1.919940037954198e-15,356.1928034490437 L 6.6661328544417,371.4543354068827 L 22.171333338791015,365.3764704138657 L 16.09346834577402,380.881670898215 L 31.355000303613007,387.5478037526567 L 16.09346834577402,394.2139366070984 L 22.171333338791015,409.7191370914477 L 6.6661328544417,403.6412720984307 L 1.919940037954198e-15,418.9028040562697 L -6.666132854441698,403.6412720984307 L -22.171333338791012,409.7191370914477 L -16.093468345774017,394.2139366070984 L -31.355000303613007,387.5478037526567 L -16.09346834577402,380.881670898215 L -22.17133333879102,365.3764704138657 L -6.666132854441709,371.4543354068827 Z" fill="none" stroke="#FFD700" stroke-width="1.277862668399635" /><path d="M 69.67777845247335,356.1928034490437 L 76.34391130691505,371.4543354068827 L 91.84911179126436,365.3764704138657 L 85.77124679824738,380.881670898215 L 101.03277875608636,387.5478037526567 L 85.77124679824738,394.2139366070984 L 91.84911179126436,409.7191370914477 L 76.34391130691505,403.6412720984307 L 69.67777845247335,418.9028040562697 L 63.01164559803165,403.6412720984307 L 47.50644511368233,409.7191370914477 L 53.584310106699334,394.2139366070984 L 38.32277814886034,387.5478037526567 L 53.58431010669933,380.881670898215 L 47.50644511368233,365.3764704138657 L 63.01164559803164,371.4543354068827 Z" fill="none" stroke="#FFD700" stroke-width="1.277862668399635" /><path d="M 139.3555569049467,356.1928034490437 L 146.0216897593884,371.4543354068827 L 161.5268902437377,365.3764704138657 L 155.44902525072072,380.881670898215 L 170.7105572085597,387.5478037526567 L 155.44902525072072,394.2139366070984 L 161.5268902437377,409.7191370914477 L 146.0216897593884,403.6412720984307 L 139.3555569049467,418.9028040562697 L 132.689424050505,403.6412720984307 L 117.18422356615568,409.7191370914477 L 123.26208855917268,394.2139366070984 L 108.00055660133368,387.5478037526567 L 123.26208855917267,380.881670898215 L 117.18422356615568,365.3764704138657 L 132.68942405050498,371.4543354068827 Z" fill="none" stroke="#FFD700" stroke-width="1.277862668399635" /><path d="M 209.03333535742007,356.1928034490437 L 215.69946821186178,371.4543354068827 L 231.2046686962111,365.3764704138657 L 225.1268037031941,380.881670898215 L 240.38833566103307,387.5478037526567 L 225.1268037031941,394.2139366070984 L 231.2046686962111,409.7191370914477 L 215.69946821186178,403.6412720984307 L 209.03333535742007,418.9028040562697 L 202.3672025029784,403.6412720984307 L 186.86200201862906,409.7191370914477 L 192.93986701164604,394.2139366070984 L 177.67833505380707,387.5478037526567 L 192.93986701164604,380.881670898215 L 186.86200201862906,365.3764704138657 L 202.36720250297836,371.4543354068827 Z" fill="none" stroke="#FFD700" stroke-width="1.277862668399635" /><path d="M 278.7111138098934,356.1928034490437 L 285.3772466643351,371.4543354068827 L 300.8824471486844,365.3764704138657 L 294.8045821556674,380.881670898215 L 310.0661141135064,387.5478037526567 L 294.8045821556674,394.2139366070984 L 300.8824471486844,409.7191370914477 L 285.3772466643351,403.6412720984307 L 278.7111138098934,418.9028040562697 L 272.0449809554517,403.6412720984307 L 256.5397804711024,409.7191370914477 L 262.6176454641194,394.2139366070984 L 247.3561135062804,387.5478037526567 L 262.6176454641194,380.881670898215 L 256.53978047110235,365.3764704138657 L 272.0449809554517,371.4543354068827 Z" fill="none" stroke="#FFD700" stroke-width="1.277862668399635" /><path d="M 348.38889226236677,356.1928034490437 L 355.05502511680845,371.4543354068827 L 370.56022560115775,365.3764704138657 L 364.48236060814077,380.881670898215 L 379.74389256597976,387.5478037526567 L 364.48236060814077,394.2139366070984 L 370.56022560115775,409.7191370914477 L 355.05502511680845,403.6412720984307 L 348.38889226236677,418.9028040562697 L 341.7227594079251,403.6412720984307 L 326.2175589235758,409.7191370914477 L 332.29542391659277,394.2139366070984 L 317.03389195875377,387.5478037526567 L 332.29542391659277,380.881670898215 L 326.2175589235757,365.3764704138657 L 341.7227594079251,371.4543354068827 Z" fill="none" stroke="#FFD700" stroke-width="1.277862668399635" /><path d="M 418.0666707148401,356.1928034490437 L 424.73280356928177,371.4543354068827 L 440.23800405363113,365.3764704138657 L 434.1601390606141,380.881670898215 L 449.4216710184531,387.5478037526567 L 434.1601390606141,394.2139366070984 L 440.23800405363113,409.7191370914477 L 424.73280356928177,403.6412720984307 L 418.0666707148401,418.9028040562697 L 411.4005378603984,403.6412720984307 L 395.8953373760491,409.7191370914477 L 401.9732023690661,394.2139366070984 L 386.7116704112271,387.5478037526567 L 401.9732023690661,380.881670898215 L 395.89533737604904,365.3764704138657 L 411.4005378603984,371.4543354068827 Z" fill="none" stroke="#FFD700" stroke-width="1.277862668399635" /><path d="M 487.7444491673134,356.1928034490437 L 494.4105820217551,371.4543354068827 L 509.9157825061044,365.3764704138657 L 503.8379175130874,380.881670898215 L 519.0994494709264,387.5478037526567 L 503.8379175130874,394.2139366070984 L 509.9157825061044,409.7191370914477 L 494.4105820217551,403.6412720984307 L 487.7444491673134,418.9028040562697 L 481.0783163128717,403.6412720984307 L 465.5731158285224,409.7191370914477 L 471.6509808215394,394.2139366070984 L 456.3894488637004,387.5478037526567 L 471.6509808215394,380.881670898215 L 465.57311582852236,365.3764704138657 L 481.0783163128717,371.4543354068827 Z" fill="none" stroke="#FFD700" stroke-width="1.277862668399635" /><path d="M 557.4222276197868,356.1928034490437 L 564.0883604742285,371.4543354068827 L 579.5935609585778,365.3764704138657 L 573.5156959655608,380.881670898215 L 588.7772279233998,387.5478037526567 L 573.5156959655608,394.2139366070984 L 579.5935609585778,409.7191370914477 L 564.0883604742285,403.6412720984307 L 557.4222276197868,418.9028040562697 L 550.7560947653451,403.6412720984307 L 535.2508942809958,409.7191370914477 L 541.3287592740128,394.2139366070984 L 526.0672273161738,387.5478037526567 L 541.3287592740128,380.881670898215 L 535.2508942809958,365.3764704138657 L 550.7560947653451,371.4543354068827 Z" fill="none" stroke="#FFD700" stroke-width="1.277862668399635" /><path d="M -34.838889226236674,416.5337595888857 L -28.172756371794975,431.7952915467247 L -12.667555887445658,425.7174265537077 L -18.745420880462653,441.222627038057 L -3.4838889226236667,447.8887598924987 L -18.745420880462653,454.55489274694037 L -12.667555887445658,470.06009323128967 L -28.172756371794975,463.9822282382727 L -34.838889226236674,479.2437601961117 L -41.50502208067837,463.9822282382727 L -57.01022256502769,470.06009323128967 L -50.93235757201069,454.55489274694037 L -66.19388952984968,447.8887598924987 L -50.932357572010694,441.222627038057 L -57.01022256502769,425.7174265537077 L -41.50502208067838,431.7952915467247 Z" fill="none" stroke="#FFD700" stroke-width="1.277862668399635" /><path d="M 34.838889226236674,416.5337595888857 L 41.50502208067837,431.7952915467247 L 57.01022256502769,425.7174265537077 L 50.932357572010694,441.222627038057 L 66.19388952984968,447.8887598924987 L 50.932357572010694,454.55489274694037 L 57.01022256502769,470.06009323128967 L 41.50502208067837,463.9822282382727 L 34.838889226236674,479.2437601961117 L 28.172756371794975,463.9822282382727 L 12.667555887445662,470.06009323128967 L 18.745420880462657,454.55489274694037 L 3.4838889226236667,447.8887598924987 L 18.745420880462653,441.222627038057 L 12.667555887445655,425.7174265537077 L 28.172756371794964,431.7952915467247 Z" fill="none" stroke="#FFD700" stroke-width="1.277862668399635" /><path d="M 104.51666767871002,416.5337595888857 L 111.18280053315172,431.7952915467247 L 126.68800101750104,425.7174265537077 L 120.61013602448404,441.222627038057 L 135.87166798232303,447.8887598924987 L 120.61013602448404,454.55489274694037 L 126.68800101750104,470.06009323128967 L 111.18280053315172,463.9822282382727 L 104.51666767871002,479.2437601961117 L 97.85053482426832,463.9822282382727 L 82.345334339919,470.06009323128967 L 88.42319933293601,454.55489274694037 L 73.16166737509701,447.8887598924987 L 88.42319933293601,441.222627038057 L 82.345334339919,425.7174265537077 L 97.85053482426831,431.7952915467247 Z" fill="none" stroke="#FFD700" stroke-width="1.277862668399635" /><path d="M 174.19444613118338,416.5337595888857 L 180.8605789856251,431.7952915467247 L 196.3657794699744,425.7174265537077 L 190.2879144769574,441.222627038057 L 205.54944643479638,447.8887598924987 L 190.2879144769574,454.55489274694037 L 196.3657794699744,470.06009323128967 L 180.8605789856251,463.9822282382727 L 174.19444613118338,479.2437601961117 L 167.5283132767417,463.9822282382727 L 152.02311279239237,470.06009323128967 L 158.10097778540936,454.55489274694037 L 142.8394458275704,447.8887598924987 L 158.10097778540936,441.222627038057 L 152.02311279239237,425.7174265537077 L 167.52831327674167,431.7952915467247 Z" fill="none" stroke="#FFD700" stroke-width="1.277862668399635" /><path d="M 243.8722245836567,416.5337595888857 L 250.53835743809842,431.7952915467247 L 266.0435579224477,425.7174265537077 L 259.9656929294307,441.222627038057 L 275.2272248872697,447.8887598924987 L 259.9656929294307,454.55489274694037 L 266.0435579224477,470.06009323128967 L 250.53835743809842,463.9822282382727 L 243.8722245836567,479.2437601961117 L 237.20609172921502,463.9822282382727 L 221.7008912448657,470.06009323128967 L 227.77875623788267,454.55489274694037 L 212.5172242800437,447.8887598924987 L 227.77875623788267,441.222627038057 L 221.7008912448657,425.7174265537077 L 237.206091729215,431.7952915467247 Z" fill="none" stroke="#FFD700" stroke-width="1.277862668399635" /><path d="M 313.5500030361301,416.5337595888857 L 320.21613589057176,431.7952915467247 L 335.72133637492107,425.7174265537077 L 329.6434713819041,441.222627038057 L 344.9050033397431,447.8887598924987 L 329.6434713819041,454.55489274694037 L 335.72133637492107,470.06009323128967 L 320.21613589057176,463.9822282382727 L 313.5500030361301,479.2437601961117 L 306.8838701816884,463.9822282382727 L 291.3786696973391,470.06009323128967 L 297.4565346903561,454.55489274694037 L 282.1950027325171,447.8887598924987 L 297.4565346903561,441.222627038057 L 291.37866969733903,425.7174265537077 L 306.8838701816884,431.7952915467247 Z" fill="none" stroke="#FFD700" stroke-width="1.277862668399635" /><path d="M 383.2277814886034,416.5337595888857 L 389.8939143430451,431.7952915467247 L 405.39911482739444,425.7174265537077 L 399.3212498343774,441.222627038057 L 414.5827817922164,447.8887598924987 L 399.3212498343774,454.55489274694037 L 405.39911482739444,470.06009323128967 L 389.8939143430451,463.9822282382727 L 383.2277814886034,479.2437601961117 L 376.5616486341617,463.9822282382727 L 361.0564481498124,470.06009323128967 L 367.1343131428294,454.55489274694037 L 351.8727811849904,447.8887598924987 L 367.1343131428294,441.222627038057 L 361.05644814981235,425.7174265537077 L 376.5616486341617,431.7952915467247 Z" fill="none" stroke="#FFD700" stroke-width="1.277862668399635" /><path d="M 452.9055599410767,416.5337595888857 L 459.5716927955184,431.7952915467247 L 475.0768932798677,425.7174265537077 L 468.9990282868507,441.222627038057 L 484.2605602446897,447.8887598924987 L 468.9990282868507,454.55489274694037 L 475.0768932798677,470.06009323128967 L 459.5716927955184,463.9822282382727 L 452.9055599410767,479.2437601961117 L 446.23942708663503,463.9822282382727 L 430.73422660228573,470.06009323128967 L 436.8120915953027,454.55489274694037 L 421.5505596374637,447.8887598924987 L 436.8120915953027,441.222627038057 L 430.7342266022857,425.7174265537077 L 446.23942708663503,431.7952915467247 Z" fill="none" stroke="#FFD700" stroke-width="1.277862668399635" /><path d="M 522.5833383935501,416.5337595888857 L 529.2494712479918,431.7952915467247 L 544.7546717323411,425.7174265537077 L 538.6768067393241,441.222627038057 L 553.9383386971631,447.8887598924987 L 538.6768067393241,454.55489274694037 L 544.7546717323411,470.06009323128967 L 529.2494712479918,463.9822282382727 L 522.5833383935501,479.2437601961117 L 515.9172055391084,463.9822282382727 L 500.4120050547591,470.06009323128967 L 506.4898700477761,454.55489274694037 L 491.2283380899371,447.8887598924987 L 506.4898700477761,441.222627038057 L 500.41200505475905,425.7174265537077 L 515.9172055391084,431.7952915467247 Z" fill="none" stroke="#FFD700" stroke-width="1.277862668399635" /><path d="M 1.919940037954198e-15,476.87471572872755 L 6.6661328544417,492.13624768656655 L 22.171333338791015,486.05838269354956 L 16.09346834577402,501.56358317789886 L 31.355000303613007,508.22971603234055 L 16.09346834577402,514.8958488867822 L 22.171333338791015,530.4010493711315 L 6.6661328544417,524.3231843781145 L 1.919940037954198e-15,539.5847163359535 L -6.666132854441698,524.3231843781145 L -22.171333338791012,530.4010493711315 L -16.093468345774017,514.8958488867822 L -31.355000303613007,508.22971603234055 L -16.09346834577402,501.56358317789886 L -22.17133333879102,486.05838269354956 L -6.666132854441709,492.13624768656655 Z" fill="none" stroke="#FFD700" stroke-width="1.277862668399635" /><path d="M 69.67777845247335,476.87471572872755 L 76.34391130691505,492.13624768656655 L 91.84911179126436,486.05838269354956 L 85.77124679824738,501.56358317789886 L 101.03277875608636,508.22971603234055 L 85.77124679824738,514.8958488867822 L 91.84911179126436,530.4010493711315 L 76.34391130691505,524.3231843781145 L 69.67777845247335,539.5847163359535 L 63.01164559803165,524.3231843781145 L 47.50644511368233,530.4010493711315 L 53.584310106699334,514.8958488867822 L 38.32277814886034,508.22971603234055 L 53.58431010669933,501.56358317789886 L 47.50644511368233,486.05838269354956 L 63.01164559803164,492.13624768656655 Z" fill="none" stroke="#FFD700" stroke-width="1.277862668399635" /><path d="M 139.3555569049467,476.87471572872755 L 146.0216897593884,492.13624768656655 L 161.5268902437377,486.05838269354956 L 155.44902525072072,501.56358317789886 L 170.7105572085597,508.22971603234055 L 155.44902525072072,514.8958488867822 L 161.5268902437377,530.4010493711315 L 146.0216897593884,524.3231843781145 L 139.3555569049467,539.5847163359535 L 132.689424050505,524.3231843781145 L 117.18422356615568,530.4010493711315 L 123.26208855917268,514.8958488867822 L 108.00055660133368,508.22971603234055 L 123.26208855917267,501.56358317789886 L 117.18422356615568,486.05838269354956 L 132.68942405050498,492.13624768656655 Z" fill="none" stroke="#FFD700" stroke-width="1.277862668399635" /><path d="M 209.03333535742007,476.87471572872755 L 215.69946821186178,492.13624768656655 L 231.2046686962111,486.05838269354956 L 225.1268037031941,501.56358317789886 L 240.38833566103307,508.22971603234055 L 225.1268037031941,514.8958488867822 L 231.2046686962111,530.4010493711315 L 215.69946821186178,524.3231843781145 L 209.03333535742007,539.5847163359535 L 202.3672025029784,524.3231843781145 L 186.86200201862906,530.4010493711315 L 192.93986701164604,514.8958488867822 L 177.67833505380707,508.22971603234055 L 192.93986701164604,501.56358317789886 L 186.86200201862906,486.05838269354956 L 202.36720250297836,492.13624768656655 Z" fill="none" stroke="#FFD700" stroke-width="1.277862668399635" /><path d="M 278.7111138098934,476.87471572872755 L 285.3772466643351,492.13624768656655 L 300.8824471486844,486.05838269354956 L 294.8045821556674,501.56358317789886 L 310.0661141135064,508.22971603234055 L 294.8045821556674,514.8958488867822 L 300.8824471486844,530.4010493711315 L 285.3772466643351,524.3231843781145 L 278.7111138098934,539.5847163359535 L 272.0449809554517,524.3231843781145 L 256.5397804711024,530.4010493711315 L 262.6176454641194,514.8958488867822 L 247.3561135062804,508.22971603234055 L 262.6176454641194,501.56358317789886 L 256.53978047110235,486.05838269354956 L 272.0449809554517,492.13624768656655 Z" fill="none" stroke="#FFD700" stroke-width="1.277862668399635" /><path d="M 348.38889226236677,476.87471572872755 L 355.05502511680845,492.13624768656655 L 370.56022560115775,486.05838269354956 L 364.48236060814077,501.56358317789886 L 379.74389256597976,508.22971603234055 L 364.48236060814077,514.8958488867822 L 370.56022560115775,530.4010493711315 L 355.05502511680845,524.3231843781145 L 348.38889226236677,539.5847163359535 L 341.7227594079251,524.3231843781145 L 326.2175589235758,530.4010493711315 L 332.29542391659277,514.8958488867822 L 317.03389195875377,508.22971603234055 L 332.29542391659277,501.56358317789886 L 326.2175589235757,486.05838269354956 L 341.7227594079251,492.13624768656655 Z" fill="none" stroke="#FFD700" stroke-width="1.277862668399635" /><path d="M 418.0666707148401,476.87471572872755 L 424.73280356928177,492.13624768656655 L 440.23800405363113,486.05838269354956 L 434.1601390606141,501.56358317789886 L 449.4216710184531,508.22971603234055 L 434.1601390606141,514.8958488867822 L 440.23800405363113,530.4010493711315 L 424.73280356928177,524.3231843781145 L 418.0666707148401,539.5847163359535 L 411.4005378603984,524.3231843781145 L 395.8953373760491,530.4010493711315 L 401.9732023690661,514.8958488867822 L 386.7116704112271,508.22971603234055 L 401.9732023690661,501.56358317789886 L 395.89533737604904,486.05838269354956 L 411.4005378603984,492.13624768656655 Z" fill="none" stroke="#FFD700" stroke-width="1.277862668399635" /><path d="M 487.7444491673134,476.87471572872755 L 494.4105820217551,492.13624768656655 L 509.9157825061044,486.05838269354956 L 503.8379175130874,501.56358317789886 L 519.0994494709264,508.22971603234055 L 503.8379175130874,514.8958488867822 L 509.9157825061044,530.4010493711315 L 494.4105820217551,524.3231843781145 L 487.7444491673134,539.5847163359535 L 481.0783163128717,524.3231843781145 L 465.5731158285224,530.4010493711315 L 471.6509808215394,514.8958488867822 L 456.3894488637004,508.22971603234055 L 471.6509808215394,501.56358317789886 L 465.57311582852236,486.05838269354956 L 481.0783163128717,492.13624768656655 Z" fill="none" stroke="#FFD700" stroke-width="1.277862668399635" /><path d="M 557.4222276197868,476.87471572872755 L 564.0883604742285,492.13624768656655 L 579.5935609585778,486.05838269354956 L 573.5156959655608,501.56358317789886 L 588.7772279233998,508.22971603234055 L 573.5156959655608,514.8958488867822 L 579.5935609585778,530.4010493711315 L 564.0883604742285,524.3231843781145 L 557.4222276197868,539.5847163359535 L 550.7560947653451,524.3231843781145 L 535.2508942809958,530.4010493711315 L 541.3287592740128,514.8958488867822 L 526.0672273161738,508.22971603234055 L 541.3287592740128,501.56358317789886 L 535.2508942809958,486.05838269354956 L 550.7560947653451,492.13624768656655 Z" fill="none" stroke="#FFD700" stroke-width="1.277862668399635" /><line x1="31.355000303613007" y1="25.502066913605248" x2="38.32277814886034" y2="25.502066913605248" stroke="#FFD700" stroke-width="0.5"/><line x1="101.03277875608636" y1="25.502066913605248" x2="108.00055660133368" y2="25.502066913605248" stroke="#FFD700" stroke-width="0.5"/><line x1="170.7105572085597" y1="25.502066913605248" x2="177.67833505380707" y2="25.502066913605248" stroke="#FFD700" stroke-width="0.5"/><line x1="240.38833566103307" y1="25.502066913605248" x2="247.3561135062804" y2="25.502066913605248" stroke="#FFD700" stroke-width="0.5"/><line x1="310.0661141135064" y1="25.502066913605248" x2="317.03389195875377" y2="25.502066913605248" stroke="#FFD700" stroke-width="0.5"/><line x1="379.74389256597976" y1="25.502066913605248" x2="386.7116704112271" y2="25.502066913605248" stroke="#FFD700" stroke-width="0.5"/><line x1="449.4216710184531" y1="25.502066913605248" x2="456.3894488637004" y2="25.502066913605248" stroke="#FFD700" stroke-width="0.5"/><line x1="66.19388952984968" y1="85.84302305344717" x2="73.16166737509701" y2="85.84302305344717" stroke="#FFD700" stroke-width="0.5"/><line x1="135.87166798232303" y1="85.84302305344717" x2="142.8394458275704" y2="85.84302305344717" stroke="#FFD700" stroke-width="0.5"/><line x1="205.54944643479638" y1="85.84302305344717" x2="212.5172242800437" y2="85.84302305344717" stroke="#FFD700" stroke-width="0.5"/><line x1="275.2272248872697" y1="85.84302305344717" x2="282.1950027325171" y2="85.84302305344717" stroke="#FFD700" stroke-width="0.5"/><line x1="344.9050033397431" y1="85.84302305344717" x2="351.8727811849904" y2="85.84302305344717" stroke="#FFD700" stroke-width="0.5"/><line x1="414.5827817922164" y1="85.84302305344717" x2="421.5505596374637" y2="85.84302305344717" stroke="#FFD700" stroke-width="0.5"/><line x1="484.2605602446897" y1="85.84302305344717" x2="491.2283380899371" y2="85.84302305344717" stroke="#FFD700" stroke-width="0.5"/><line x1="31.355000303613007" y1="146.18397919328908" x2="38.32277814886034" y2="146.18397919328908" stroke="#FFD700" stroke-width="0.5"/><line x1="101.03277875608636" y1="146.18397919328908" x2="108.00055660133368" y2="146.18397919328908" stroke="#FFD700" stroke-width="0.5"/><line x1="170.7105572085597" y1="146.18397919328908" x2="177.67833505380707" y2="146.18397919328908" stroke="#FFD700" stroke-width="0.5"/><line x1="240.38833566103307" y1="146.18397919328908" x2="247.3561135062804" y2="146.18397919328908" stroke="#FFD700" stroke-width="0.5"/><line x1="310.0661141135064" y1="146.18397919328908" x2="317.03389195875377" y2="146.18397919328908" stroke="#FFD700" stroke-width="0.5"/><line x1="379.74389256597976" y1="146.18397919328908" x2="386.7116704112271" y2="146.18397919328908" stroke="#FFD700" stroke-width="0.5"/><line x1="449.4216710184531" y1="146.18397919328908" x2="456.3894488637004" y2="146.18397919328908" stroke="#FFD700" stroke-width="0.5"/><line x1="66.19388952984968" y1="206.524935333131" x2="73.16166737509701" y2="206.524935333131" stroke="#FFD700" stroke-width="0.5"/><line x1="135.87166798232303" y1="206.524935333131" x2="142.8394458275704" y2="206.524935333131" stroke="#FFD700" stroke-width="0.5"/><line x1="205.54944643479638" y1="206.524935333131" x2="212.5172242800437" y2="206.524935333131" stroke="#FFD700" stroke-width="0.5"/><line x1="275.2272248872697" y1="206.524935333131" x2="282.1950027325171" y2="206.524935333131" stroke="#FFD700" stroke-width="0.5"/><line x1="344.9050033397431" y1="206.524935333131" x2="351.8727811849904" y2="206.524935333131" stroke="#FFD700" stroke-width="0.5"/><line x1="414.5827817922164" y1="206.524935333131" x2="421.5505596374637" y2="206.524935333131" stroke="#FFD700" stroke-width="0.5"/><line x1="484.2605602446897" y1="206.524935333131" x2="491.2283380899371" y2="206.524935333131" stroke="#FFD700" stroke-width="0.5"/><line x1="31.355000303613007" y1="266.8658914729729" x2="38.32277814886034" y2="266.8658914729729" stroke="#FFD700" stroke-width="0.5"/><line x1="101.03277875608636" y1="266.8658914729729" x2="108.00055660133368" y2="266.8658914729729" stroke="#FFD700" stroke-width="0.5"/><line x1="170.7105572085597" y1="266.8658914729729" x2="177.67833505380707" y2="266.8658914729729" stroke="#FFD700" stroke-width="0.5"/><line x1="240.38833566103307" y1="266.8658914729729" x2="247.3561135062804" y2="266.8658914729729" stroke="#FFD700" stroke-width="0.5"/><line x1="310.0661141135064" y1="266.8658914729729" x2="317.03389195875377" y2="266.8658914729729" stroke="#FFD700" stroke-width="0.5"/><line x1="379.74389256597976" y1="266.8658914729729" x2="386.7116704112271" y2="266.8658914729729" stroke="#FFD700" stroke-width="0.5"/><line x1="449.4216710184531" y1="266.8658914729729" x2="456.3894488637004" y2="266.8658914729729" stroke="#FFD700" stroke-width="0.5"/><line x1="66.19388952984968" y1="327.20684761281484" x2="73.16166737509701" y2="327.20684761281484" stroke="#FFD700" stroke-width="0.5"/><line x1="135.87166798232303" y1="327.20684761281484" x2="142.8394458275704" y2="327.20684761281484" stroke="#FFD700" stroke-width="0.5"/><line x1="205.54944643479638" y1="327.20684761281484" x2="212.5172242800437" y2="327.20684761281484" stroke="#FFD700" stroke-width="0.5"/><line x1="275.2272248872697" y1="327.20684761281484" x2="282.1950027325171" y2="327.20684761281484" stroke="#FFD700" stroke-width="0.5"/><line x1="344.9050033397431" y1="327.20684761281484" x2="351.8727811849904" y2="327.20684761281484" stroke="#FFD700" stroke-width="0.5"/><line x1="414.5827817922164" y1="327.20684761281484" x2="421.5505596374637" y2="327.20684761281484" stroke="#FFD700" stroke-width="0.5"/><line x1="484.2605602446897" y1="327.20684761281484" x2="491.2283380899371" y2="327.20684761281484" stroke="#FFD700" stroke-width="0.5"/><line x1="31.355000303613007" y1="387.5478037526567" x2="38.32277814886034" y2="387.5478037526567" stroke="#FFD700" stroke-width="0.5"/><line x1="101.03277875608636" y1="387.5478037526567" x2="108.00055660133368" y2="387.5478037526567" stroke="#FFD700" stroke-width="0.5"/><line x1="170.7105572085597" y1="387.5478037526567" x2="177.67833505380707" y2="387.5478037526567" stroke="#FFD700" stroke-width="0.5"/><line x1="240.38833566103307" y1="387.5478037526567" x2="247.3561135062804" y2="387.5478037526567" stroke="#FFD700" stroke-width="0.5"/><line x1="310.0661141135064" y1="387.5478037526567" x2="317.03389195875377" y2="387.5478037526567" stroke="#FFD700" stroke-width="0.5"/><line x1="379.74389256597976" y1="387.5478037526567" x2="386.7116704112271" y2="387.5478037526567" stroke="#FFD700" stroke-width="0.5"/><line x1="449.4216710184531" y1="387.5478037526567" x2="456.3894488637004" y2="387.5478037526567" stroke="#FFD700" stroke-width="0.5"/><line x1="66.19388952984968" y1="447.8887598924987" x2="73.16166737509701" y2="447.8887598924987" stroke="#FFD700" stroke-width="0.5"/><line x1="135.87166798232303" y1="447.8887598924987" x2="142.8394458275704" y2="447.8887598924987" stroke="#FFD700" stroke-width="0.5"/><line x1="205.54944643479638" y1="447.8887598924987" x2="212.5172242800437" y2="447.8887598924987" stroke="#FFD700" stroke-width="0.5"/><line x1="275.2272248872697" y1="447.8887598924987" x2="282.1950027325171" y2="447.8887598924987" stroke="#FFD700" stroke-width="0.5"/><line x1="344.9050033397431" y1="447.8887598924987" x2="351.8727811849904" y2="447.8887598924987" stroke="#FFD700" stroke-width="0.5"/><line x1="414.5827817922164" y1="447.8887598924987" x2="421.5505596374637" y2="447.8887598924987" stroke="#FFD700" stroke-width="0.5"/><line x1="484.2605602446897" y1="447.8887598924987" x2="491.2283380899371" y2="447.8887598924987" stroke="#FFD700" stroke-width="0.5"/><line x1="31.355000303613007" y1="508.22971603234055" x2="38.32277814886034" y2="508.22971603234055" stroke="#FFD700" stroke-width="0.5"/><line x1="101.03277875608636" y1="508.22971603234055" x2="108.00055660133368" y2="508.22971603234055" stroke="#FFD700" stroke-width="0.5"/><line x1="170.7105572085597" y1="508.22971603234055" x2="177.67833505380707" y2="508.22971603234055" stroke="#FFD700" stroke-width="0.5"/><line x1="240.38833566103307" y1="508.22971603234055" x2="247.3561135062804" y2="508.22971603234055" stroke="#FFD700" stroke-width="0.5"/><line x1="310.0661141135064" y1="508.22971603234055" x2="317.03389195875377" y2="508.22971603234055" stroke="#FFD700" stroke-width="0.5"/><line x1="379.74389256597976" y1="508.22971603234055" x2="386.7116704112271" y2="508.22971603234055" stroke="#FFD700" stroke-width="0.5"/><line x1="449.4216710184531" y1="508.22971603234055" x2="456.3894488637004" y2="508.22971603234055" stroke="#FFD700" stroke-width="0.5"/></g></svg>