<svg xmlns="http://www.w3.org/2000/svg" width="512" height="512" viewBox="0 0 512 512"><rect x="0" y="0" width="512" height="512" fill="#000000"/><g opacity="0.08368897439618081"><path d="M -46.276169560129595,-87.92472216424623 L -37.42160785813995,-67.65297250994237 L -16.826195587154075,-75.7261435331051 L -24.89936661031681,-55.130731262119234 L -4.627616956012957,-46.276169560129595 L -24.89936661031681,-37.42160785813996 L -16.826195587154075,-16.826195587154082 L -37.42160785813995,-24.89936661031681 L -46.276169560129595,-4.627616956012957 L -55.130731262119234,-24.89936661031681 L -75.7261435331051,-16.826195587154075 L -67.65297250994237,-37.42160785813994 L -87.92472216424623,-46.27616956012959 L -67.65297250994237,-55.13073126211924 L -75.72614353310512,-75.7261435331051 L -55.13073126211925,-67.65297250994237 Z" fill="none" stroke="#FFFFFF" stroke-width="2.211427570186289" /><path d="M 46.276169560129595,-87.92472216424623 L 55.13073126211924,-67.65297250994237 L 75.72614353310512,-75.7261435331051 L 67.65297250994237,-55.130731262119234 L 87.92472216424623,-46.276169560129595 L 67.65297250994237,-37.42160785813996 L 75.72614353310512,-16.826195587154082 L 55.13073126211924,-24.89936661031681 L 46.276169560129595,-4.627616956012957 L 37.42160785813996,-24.89936661031681 L 16.826195587154082,-16.826195587154075 L 24.899366610316818,-37.42160785813994 L 4.627616956012957,-46.27616956012959 L 24.899366610316815,-55.13073126211924 L 16.82619558715407,-75.7261435331051 L 37.42160785813994,-67.65297250994237 Z" fill="none" stroke="#FFFFFF" stroke-width="2.211427570186289" /><path d="M 138.82850868038878,-87.92472216424623 L 147.68307038237842,-67.65297250994237 L 168.2784826533643,-75.7261435331051 L 160.20531163020155,-55.130731262119234 L 180.47706128450542,-46.276169560129595 L 160.20531163020155,-37.42160785813996 L 168.2784826533643,-16.826195587154082 L 147.68307038237842,-24.89936661031681 L 138.82850868038878,-4.627616956012957 L 129.97394697839914,-24.89936661031681 L 109.37853470741327,-16.826195587154075 L 117.45170573057601,-37.42160785813994 L 97.17995607627213,-46.27616956012959 L 117.451705730576,-55.13073126211924 L 109.37853470741325,-75.7261435331051 L 129.9739469783991,-67.65297250994237 Z" fill="none" stroke="#FFFFFF" stroke-width="2.211427570186289" /><path d="M 231.38084780064796,-87.92472216424623 L 240.2354095026376,-67.65297250994237 L 260.8308217736235,-75.7261435331051 L 252.75765075046075,-55.130731262119234 L 273.0294004047646,-46.276169560129595 L 252.75765075046075,-37.42160785813996 L 260.8308217736235,-16.826195587154082 L 240.2354095026376,-24.89936661031681 L 231.38084780064796,-4.627616956012957 L 222.52628609865832,-24.89936661031681 L 201.93087382767243,-16.826195587154075 L 210.0040448508352,-37.42160785813994 L 189.7322951965313,-46.27616956012959 L 210.0040448508352,-55.13073126211924 L 201.93087382767243,-75.7261435331051 L 222.52628609865832,-67.65297250994237 Z" fill="none" stroke="#FFFFFF" stroke-width="2.211427570186289" /><path d="M 323.9331869209072,-87.92472216424623 L 332.78774862289686,-67.65297250994237 L 353.3831608938827,-75.7261435331051 L 345.30998987071996,-55.130731262119234 L 365.5817395250238,-46.276169560129595 L 345.30998987071996,-37.42160785813996 L 353.3831608938827,-16.826195587154082 L 332.78774862289686,-24.89936661031681 L 323.9331869209072,-4.627616956012957 L 315.0786252189175,-24.89936661031681 L 294.4832129479317,-16.826195587154075 L 302.5563839710944,-37.42160785813994 L 282.2846343167906,-46.27616956012959 L 302.5563839710944,-55.13073126211924 L 294.4832129479317,-75.7261435331051 L 315.0786252189175,-67.65297250994237 Z" fill="none" stroke="#FFFFFF" stroke-width="2.211427570186289" /><path d="M 416.4855260411664,-87.92472216424623 L 425.34008774315606,-67.65297250994237 L 445.9355000141419,-75.7261435331051 L 437.86232899097917,-55.130731262119234 L 458.134078645283,-46.276169560129595 L 437.86232899097917,-37.42160785813996 L 445.9355000141419,-16.826195587154082 L 425.34008774315606,-24.89936661031681 L 416.4855260411664,-4.627616956012957 L 407.6309643391768,-24.89936661031681 L 387.0355520681909,-16.826195587154075 L 395.1087230913536,-37.42160785813994 L 374.8369734370498,-46.27616956012959 L 395.1087230913536,-55.13073126211924 L 387.0355520681909,-75.7261435331051 L 407.6309643391767,-67.65297250994237 Z" fill="none" stroke="#FFFFFF" stroke-width="2.211427570186289" /><path d="M 509.03786516142554,-87.92472216424623 L 517.8924268634152,-67.65297250994237 L 538.487839134401,-75.7261435331051 L 530.4146681112384,-55.130731262119234 L 550.6864177655422,-46.276169560129595 L 530.4146681112384,-37.42160785813996 L 538.487839134401,-16.826195587154082 L 517.8924268634152,-24.89936661031681 L 509.03786516142554,-4.627616956012957 L 500.18330345943593,-24.89936661031681 L 479.58789118845004,-16.826195587154075 L 487.6610622116128,-37.42160785813994 L 467.3893125573089,-46.27616956012959 L 487.6610622116128,-55.13073126211924 L 479.58789118845004,-75.7261435331051 L 500.1833034594359,-67.65297250994237 Z" fill="none" stroke="#FFFFFF" stroke-width="2.211427570186289" /><path d="M 601.5902042816848,-87.92472216424623 L 610.4447659836744,-67.65297250994237 L 631.0401782546603,-75.7261435331051 L 622.9670072314976,-55.130731262119234 L 643.2387568858014,-46.276169560129595 L 622.9670072314976,-37.42160785813996 L 631.0401782546603,-16.826195587154082 L 610.4447659836744,-24.89936661031681 L 601.5902042816848,-4.627616956012957 L 592.7356425796952,-24.89936661031681 L 572.1402303087093,-16.826195587154075 L 580.213401331872,-37.42160785813994 L 559.9416516775682,-46.27616956012959 L 580.213401331872,-55.13073126211924 L 572.1402303087093,-75.7261435331051 L 592.7356425796952,-67.65297250994237 Z" fill="none" stroke="#FFFFFF" stroke-width="2.211427570186289" /><path d="M 2.5502383317875802e-15,-7.774396486101779 L 8.854561701989642,12.497353168202075 L 29.44997397297552,4.424182145039346 L 21.376802949812785,25.01959441602522 L 41.64855260411664,33.87415611801486 L 21.376802949812785,42.7287178200045 L 29.44997397297552,63.32413009099037 L 8.854561701989642,55.250959067827644 L 2.5502383317875802e-15,75.5227087221315 L -8.854561701989638,55.250959067827644 L -29.449973972975513,63.32413009099038 L -21.376802949812777,42.72871782000451 L -41.64855260411664,33.87415611801487 L -21.37680294981278,25.019594416025214 L -29.449973972975524,4.424182145039346 L -8.854561701989653,12.497353168202082 Z" fill="none" stroke="#FFFFFF" stroke-width="2.211427570186289" /><path d="M 92.55233912025919,-7.774396486101779 L 101.40690082224883,12.497353168202075 L 122.0023130932347,4.424182145039346 L 113.92914207007198,25.01959441602522 L 134.20089172437582,33.87415611801486 L 113.92914207007198,42.7287178200045 L 122.0023130932347,63.32413009099037 L 101.40690082224883,55.250959067827644 L 92.55233912025919,75.5227087221315 L 83.69777741826955,55.250959067827644 L 63.10236514728368,63.32413009099038 L 71.1755361704464,42.72871782000451 L 50.90378651614255,33.87415611801487 L 71.1755361704464,25.019594416025214 L 63.10236514728366,4.424182145039346 L 83.69777741826954,12.497353168202082 Z" fill="none" stroke="#FFFFFF" stroke-width="2.211427570186289" /><path d="M 185.10467824051838,-7.774396486101779 L 193.95923994250802,12.497353168202075 L 214.5546522134939,4.424182145039346 L 206.48148119033118,25.01959441602522 L 226.75323084463503,33.87415611801486 L 206.48148119033118,42.7287178200045 L 214.5546522134939,63.32413009099037 L 193.95923994250802,55.250959067827644 L 185.10467824051838,75.5227087221315 L 176.25011653852874,55.250959067827644 L 155.65470426754285,63.32413009099038 L 163.7278752907056,42.72871782000451 L 143.45612563640174,33.87415611801487 L 163.7278752907056,25.019594416025214 L 155.65470426754285,4.424182145039346 L 176.25011653852874,12.497353168202082 Z" fill="none" stroke="#FFFFFF" stroke-width="2.211427570186289" /><path d="M 277.65701736077756,-7.774396486101779 L 286.5115790627672,12.497353168202075 L 307.10699133375306,4.424182145039346 L 299.03382031059033,25.01959441602522 L 319.3055699648942,33.87415611801486 L 299.03382031059033,42.7287178200045 L 307.10699133375306,63.32413009099037 L 286.5115790627672,55.250959067827644 L 277.65701736077756,75.5227087221315 L 268.80245565878795,55.250959067827644 L 248.20704338780206,63.32413009099038 L 256.2802144109648,42.72871782000451 L 236.0084647566609,33.87415611801487 L 256.2802144109648,25.019594416025214 L 248.20704338780203,4.424182145039346 L 268.8024556587879,12.497353168202082 Z" fill="none" stroke="#FFFFFF" stroke-width="2.211427570186289" /><path d="M 370.20935648103676,-7.774396486101779 L 379.06391818302643,12.497353168202075 L 399.65933045401226,4.424182145039346 L 391.58615943084953,25.01959441602522 L 411.8579090851534,33.87415611801486 L 391.58615943084953,42.7287178200045 L 399.65933045401226,63.32413009099037 L 379.06391818302643,55.250959067827644 L 370.20935648103676,75.5227087221315 L 361.3547947790471,55.250959067827644 L 340.75938250806126,63.32413009099038 L 348.832553531224,42.72871782000451 L 328.56080387692015,33.87415611801487 L 348.832553531224,25.019594416025214 L 340.75938250806126,4.424182145039346 L 361.3547947790471,12.497353168202082 Z" fill="none" stroke="#FFFFFF" stroke-width="2.211427570186289" /><path d="M 462.76169560129597,-7.774396486101779 L 471.61625730328564,12.497353168202075 L 492.21166957427147,4.424182145039346 L 484.13849855110874,25.01959441602522 L 504.4102482054126,33.87415611801486 L 484.13849855110874,42.7287178200045 L 492.21166957427147,63.32413009099037 L 471.61625730328564,55.250959067827644 L 462.76169560129597,75.5227087221315 L 453.90713389930636,55.250959067827644 L 433.31172162832047,63.32413009099038 L 441.3848926514832,42.72871782000451 L 421.11314299717935,33.87415611801487 L 441.3848926514832,25.019594416025214 L 433.31172162832047,4.424182145039346 L 453.9071338993063,12.497353168202082 Z" fill="none" stroke="#FFFFFF" stroke-width="2.211427570186289" /><path d="M 555.3140347215551,-7.774396486101779 L 564.1685964235447,12.497353168202075 L 584.7640086945306,4.424182145039346 L 576.690837671368,25.01959441602522 L 596.9625873256717,33.87415611801486 L 576.690837671368,42.7287178200045 L 584.7640086945306,63.32413009099037 L 564.1685964235447,55.250959067827644 L 555.3140347215551,75.5227087221315 L 546.4594730195655,55.250959067827644 L 525.8640607485796,63.32413009099038 L 533.9372317717423,42.72871782000451 L 513.6654821174385,33.87415611801487 L 533.9372317717423,25.019594416025214 L 525.8640607485796,4.424182145039346 L 546.4594730195655,12.497353168202082 Z" fill="none" stroke="#FFFFFF" stroke-width="2.211427570186289" /><path d="M -46.276169560129595,72.37592919204266 L -37.42160785813995,92.64767884634652 L -16.826195587154075,84.5745078231838 L -24.89936661031681,105.16992009416967 L -4.627616956012957,114.02448179615931 L -24.89936661031681,122.87904349814895 L -16.826195587154075,143.4744557691348 L -37.42160785813995,135.40128474597208 L -46.276169560129595,155.67303440027595 L -55.130731262119234,135.40128474597208 L -75.7261435331051,143.47445576913483 L -67.65297250994237,122.87904349814896 L -87.92472216424623,114.02448179615931 L -67.65297250994237,105.16992009416965 L -75.72614353310512,84.5745078231838 L -55.13073126211925,92.64767884634654 Z" fill="none" stroke="#FFFFFF" stroke-width="2.211427570186289" /><path d="M 46.276169560129595,72.37592919204266 L 55.13073126211924,92.64767884634652 L 75.72614353310512,84.5745078231838 L 67.65297250994237,105.16992009416967 L 87.92472216424623,114.02448179615931 L 67.65297250994237,122.87904349814895 L 75.72614353310512,143.4744557691348 L 55.13073126211924,135.40128474597208 L 46.276169560129595,155.67303440027595 L 37.42160785813996,135.40128474597208 L 16.826195587154082,143.47445576913483 L 24.899366610316818,122.87904349814896 L 4.627616956012957,114.02448179615931 L 24.899366610316815,105.16992009416965 L 16.82619558715407,84.5745078231838 L 37.42160785813994,92.64767884634654 Z" fill="none" stroke="#FFFFFF" stroke-width="2.211427570186289" /><path d="M 138.82850868038878,72.37592919204266 L 147.68307038237842,92.64767884634652 L 168.2784826533643,84.5745078231838 L 160.20531163020155,105.16992009416967 L 180.47706128450542,114.02448179615931 L 160.20531163020155,122.87904349814895 L 168.2784826533643,143.4744557691348 L 147.68307038237842,135.40128474597208 L 138.82850868038878,155.67303440027595 L 129.97394697839914,135.40128474597208 L 109.37853470741327,143.47445576913483 L 117.45170573057601,122.87904349814896 L 97.17995607627213,114.02448179615931 L 117.451705730576,105.16992009416965 L 109.37853470741325,84.5745078231838 L 129.9739469783991,92.64767884634654 Z" fill="none" stroke="#FFFFFF" stroke-width="2.211427570186289" /><path d="M 231.38084780064796,72.37592919204266 L 240.2354095026376,92.64767884634652 L 260.8308217736235,84.5745078231838 L 252.75765075046075,105.16992009416967 L 273.0294004047646,114.02448179615931 L 252.75765075046075,122.87904349814895 L 260.8308217736235,143.4744557691348 L 240.2354095026376,135.40128474597208 L 231.38084780064796,155.67303440027595 L 222.52628609865832,135.40128474597208 L 201.93087382767243,143.47445576913483 L 210.0040448508352,122.87904349814896 L 189.7322951965313,114.02448179615931 L 210.0040448508352,105.16992009416965 L 201.93087382767243,84.5745078231838 L 222.52628609865832,92.64767884634654 Z" fill="none" stroke="#FFFFFF" stroke-width="2.211427570186289" /><path d="M 323.9331869209072,72.37592919204266 L 332.78774862289686,92.64767884634652 L 353.3831608938827,84.5745078231838 L 345.30998987071996,105.16992009416967 L 365.5817395250238,114.02448179615931 L 345.30998987071996,122.87904349814895 L 353.3831608938827,143.4744557691348 L 332.78774862289686,135.40128474597208 L 323.9331869209072,155.67303440027595 L 315.0786252189175,135.40128474597208 L 294.4832129479317,143.47445576913483 L 302.5563839710944,122.87904349814896 L 282.2846343167906,114.02448179615931 L 302.5563839710944,105.16992009416965 L 294.4832129479317,84.5745078231838 L 315.0786252189175,92.64767884634654 Z" fill="none" stroke="#FFFFFF" stroke-width="2.211427570186289" /><path d="M 416.4855260411664,72.37592919204266 L 425.34008774315606,92.64767884634652 L 445.9355000141419,84.5745078231838 L 437.86232899097917,105.16992009416967 L 458.134078645283,114.02448179615931 L 437.86232899097917,122.87904349814895 L 445.9355000141419,143.4744557691348 L 425.34008774315606,135.40128474597208 L 416.4855260411664,155.67303440027595 L 407.6309643391768,135.40128474597208 L 387.0355520681909,143.47445576913483 L 395.1087230913536,122.87904349814896 L 374.8369734370498,114.02448179615931 L 395.1087230913536,105.16992009416965 L 387.0355520681909,84.5745078231838 L 407.6309643391767,92.64767884634654 Z" fill="none" stroke="#FFFFFF" stroke-width="2.211427570186289" /><path d="M 509.03786516142554,72.37592919204266 L 517.8924268634152,92.64767884634652 L 538.487839134401,84.5745078231838 L 530.4146681112384,105.16992009416967 L 550.6864177655422,114.02448179615931 L 530.4146681112384,122.87904349814895 L 538.487839134401,143.4744557691348 L 517.8924268634152,135.40128474597208 L 509.03786516142554,155.67303440027595 L 500.18330345943593,135.40128474597208 L 479.58789118845004,143.47445576913483 L 487.6610622116128,122.87904349814896 L 467.3893125573089,114.02448179615931 L 487.6610622116128,105.16992009416965 L 479.58789118845004,84.5745078231838 L 500.1833034594359,92.64767884634654 Z" fill="none" stroke="#FFFFFF" stroke-width="2.211427570186289" /><path d="M 601.5902042816848,72.37592919204266 L 610.4447659836744,92.64767884634652 L 631.0401782546603,84.5745078231838 L 622.9670072314976,105.16992009416967 L 643.2387568858014,114.02448179615931 L 622.9670072314976,122.87904349814895 L 631.0401782546603,143.4744557691348 L 610.4447659836744,135.40128474597208 L 601.5902042816848,155.67303440027595 L 592.7356425796952,135.40128474597208 L 572.1402303087093,143.47445576913483 L 580.213401331872,122.87904349814896 L 559.9416516775682,114.02448179615931 L 580.213401331872,105.16992009416965 L 572.1402303087093,84.5745078231838 L 592.7356425796952,92.64767884634654 Z" fill="none" stroke="#FFFFFF" stroke-width="2.211427570186289" /><path d="M 2.5502383317875802e-15,152.5262548701871 L 8.854561701989642,172.79800452449098 L 29.44997397297552,164.72483350132825 L 21.376802949812785,185.3202457723141 L 41.64855260411664,194.17480747430375 L 21.376802949812785,203.0293691762934 L 29.44997397297552,223.62478144727925 L 8.854561701989642,215.55161042411652 L 2.5502383317875802e-15,235.8233600784204 L -8.854561701989638,215.55161042411652 L -29.449973972975513,223.62478144727928 L -21.376802949812777,203.02936917629341 L -41.64855260411664,194.17480747430375 L -21.37680294981278,185.3202457723141 L -29.449973972975524,164.72483350132825 L -8.854561701989653,172.79800452449098 Z" fill="none" stroke="#FFFFFF" stroke-width="2.211427570186289" /><path d="M 92.55233912025919,152.5262548701871 L 101.40690082224883,172.79800452449098 L 122.0023130932347,164.72483350132825 L 113.92914207007198,185.3202457723141 L 134.20089172437582,194.17480747430375 L 113.92914207007198,203.0293691762934 L 122.0023130932347,223.62478144727925 L 101.40690082224883,215.55161042411652 L 92.55233912025919,235.8233600784204 L 83.69777741826955,215.55161042411652 L 63.10236514728368,223.62478144727928 L 71.1755361704464,203.02936917629341 L 50.90378651614255,194.17480747430375 L 71.1755361704464,185.3202457723141 L 63.10236514728366,164.72483350132825 L 83.69777741826954,172.79800452449098 Z" fill="none" stroke="#FFFFFF" stroke-width="2.211427570186289" /><path d="M 185.10467824051838,152.5262548701871 L 193.95923994250802,172.79800452449098 L 214.5546522134939,164.72483350132825 L 206.48148119033118,185.3202457723141 L 226.75323084463503,194.17480747430375 L 206.48148119033118,203.0293691762934 L 214.5546522134939,223.62478144727925 L 193.95923994250802,215.55161042411652 L 185.10467824051838,235.8233600784204 L 176.25011653852874,215.55161042411652 L 155.65470426754285,223.62478144727928 L 163.7278752907056,203.02936917629341 L 143.45612563640174,194.17480747430375 L 163.7278752907056,185.3202457723141 L 155.65470426754285,164.72483350132825 L 176.25011653852874,172.79800452449098 Z" fill="none" stroke="#FFFFFF" stroke-width="2.211427570186289" /><path d="M 277.65701736077756,152.5262548701871 L 286.5115790627672,172.79800452449098 L 307.10699133375306,164.72483350132825 L 299.03382031059033,185.3202457723141 L 319.3055699648942,194.17480747430375 L 299.03382031059033,203.0293691762934 L 307.10699133375306,223.62478144727925 L 286.5115790627672,215.55161042411652 L 277.65701736077756,235.8233600784204 L 268.80245565878795,215.55161042411652 L 248.20704338780206,223.62478144727928 L 256.2802144109648,203.02936917629341 L 236.0084647566609,194.17480747430375 L 256.2802144109648,185.3202457723141 L 248.20704338780203,164.72483350132825 L 268.8024556587879,172.79800452449098 Z" fill="none" stroke="#FFFFFF" stroke-width="2.211427570186289" /><path d="M 370.20935648103676,152.5262548701871 L 379.06391818302643,172.79800452449098 L 399.65933045401226,164.72483350132825 L 391.58615943084953,185.3202457723141 L 411.8579090851534,194.17480747430375 L 391.58615943084953,203.0293691762934 L 399.65933045401226,223.62478144727925 L 379.06391818302643,215.55161042411652 L 370.20935648103676,235.8233600784204 L 361.3547947790471,215.55161042411652 L 340.75938250806126,223.62478144727928 L 348.832553531224,203.02936917629341 L 328.56080387692015,194.17480747430375 L 348.832553531224,185.3202457723141 L 340.75938250806126,164.72483350132825 L 361.3547947790471,172.79800452449098 Z" fill="none" stroke="#FFFFFF" stroke-width="2.211427570186289" /><path d="M 462.76169560129597,152.5262548701871 L 471.61625730328564,172.79800452449098 L 492.21166957427147,164.72483350132825 L 484.13849855110874,185.3202457723141 L 504.4102482054126,194.17480747430375 L 484.13849855110874,203.0293691762934 L 492.21166957427147,223.62478144727925 L 471.61625730328564,215.55161042411652 L 462.76169560129597,235.8233600784204 L 453.90713389930636,215.55161042411652 L 433.31172162832047,223.62478144727928 L 441.3848926514832,203.02936917629341 L 421.11314299717935,194.17480747430375 L 441.3848926514832,185.3202457723141 L 433.31172162832047,164.72483350132825 L 453.9071338993063,172.79800452449098 Z" fill="none" stroke="#FFFFFF" stroke-width="2.211427570186289" /><path d="M 555.3140347215551,152.5262548701871 L 564.1685964235447,172.79800452449098 L 584.7640086945306,164.72483350132825 L 576.690837671368,185.3202457723141 L 596.9625873256717,194.17480747430375 L 576.690837671368,203.0293691762934 L 584.7640086945306,223.62478144727925 L 564.1685964235447,215.55161042411652 L 555.3140347215551,235.8233600784204 L 546.4594730195655,215.55161042411652 L 525.8640607485796,223.62478144727928 L 533.9372317717423,203.02936917629341 L 513.6654821174385,194.17480747430375 L 533.9372317717423,185.3202457723141 L 525.8640607485796,164.72483350132825 L 546.4594730195655,172.79800452449098 Z" fill="none" stroke="#FFFFFF" stroke-width="2.211427570186289" /><path d="M -46.276169560129595,232.6765805483316 L -37.42160785813995,252.94833020263547 L -16.826195587154075,244.87515917947275 L -24.89936661031681,265.4705714504586 L -4.627616956012957,274.32513315244825 L -24.89936661031681,283.1796948544379 L -16.826195587154075,303.77510712542374 L -37.42160785813995,295.701936102261 L -46.276169560129595,315.97368575656486 L -55.130731262119234,295.701936102261 L -75.7261435331051,303.77510712542374 L -67.65297250994237,283.1796948544379 L -87.92472216424623,274.32513315244825 L -67.65297250994237,265.4705714504586 L -75.72614353310512,244.87515917947275 L -55.13073126211925,252.94833020263547 Z" fill="none" stroke="#FFFFFF" stroke-width="2.211427570186289" /><path d="M 46.276169560129595,232.6765805483316 L 55.13073126211924,252.94833020263547 L 75.72614353310512,244.87515917947275 L 67.65297250994237,265.4705714504586 L 87.92472216424623,274.32513315244825 L 67.65297250994237,283.1796948544379 L 75.72614353310512,303.77510712542374 L 55.13073126211924,295.701936102261 L 46.276169560129595,315.97368575656486 L 37.42160785813996,295.701936102261 L 16.826195587154082,303.77510712542374 L 24.899366610316818,283.1796948544379 L 4.627616956012957,274.32513315244825 L 24.899366610316815,265.4705714504586 L 16.82619558715407,244.87515917947275 L 37.42160785813994,252.94833020263547 Z" fill="none" stroke="#FFFFFF" stroke-width="2.211427570186289" /><path d="M 138.82850868038878,232.6765805483316 L 147.68307038237842,252.94833020263547 L 168.2784826533643,244.87515917947275 L 160.20531163020155,265.4705714504586 L 180.47706128450542,274.32513315244825 L 160.20531163020155,283.1796948544379 L 168.2784826533643,303.77510712542374 L 147.68307038237842,295.701936102261 L 138.82850868038878,315.97368575656486 L 129.97394697839914,295.701936102261 L 109.37853470741327,303.77510712542374 L 117.45170573057601,283.1796948544379 L 97.17995607627213,274.32513315244825 L 117.451705730576,265.4705714504586 L 109.37853470741325,244.87515917947275 L 129.9739469783991,252.94833020263547 Z" fill="none" stroke="#FFFFFF" stroke-width="2.211427570186289" /><path d="M 231.38084780064796,232.6765805483316 L 240.2354095026376,252.94833020263547 L 260.8308217736235,244.87515917947275 L 252.75765075046075,265.4705714504586 L 273.0294004047646,274.32513315244825 L 252.75765075046075,283.1796948544379 L 260.8308217736235,303.77510712542374 L 240.2354095026376,295.701936102261 L 231.38084780064796,315.97368575656486 L 222.52628609865832,295.701936102261 L 201.93087382767243,303.77510712542374 L 210.0040448508352,283.1796948544379 L 189.7322951965313,274.32513315244825 L 210.0040448508352,265.4705714504586 L 201.93087382767243,244.87515917947275 L 222.52628609865832,252.94833020263547 Z" fill="none" stroke="#FFFFFF" stroke-width="2.211427570186289" /><path d="M 323.9331869209072,232.6765805483316 L 332.78774862289686,252.94833020263547 L 353.3831608938827,244.87515917947275 L 345.30998987071996,265.4705714504586 L 365.5817395250238,274.32513315244825 L 345.30998987071996,283.1796948544379 L 353.3831608938827,303.77510712542374 L 332.78774862289686,295.701936102261 L 323.9331869209072,315.97368575656486 L 315.0786252189175,295.701936102261 L 294.4832129479317,303.77510712542374 L 302.5563839710944,283.1796948544379 L 282.2846343167906,274.32513315244825 L 302.5563839710944,265.4705714504586 L 294.4832129479317,244.87515917947275 L 315.0786252189175,252.94833020263547 Z" fill="none" stroke="#FFFFFF" stroke-width="2.211427570186289" /><path d="M 416.4855260411664,232.6765805483316 L 425.34008774315606,252.94833020263547 L 445.9355000141419,244.87515917947275 L 437.86232899097917,265.4705714504586 L 458.134078645283,274.32513315244825 L 437.86232899097917,283.1796948544379 L 445.9355000141419,303.77510712542374 L 425.34008774315606,295.701936102261 L 416.4855260411664,315.97368575656486 L 407.6309643391768,295.701936102261 L 387.0355520681909,303.77510712542374 L 395.1087230913536,283.1796948544379 L 374.8369734370498,274.32513315244825 L 395.1087230913536,265.4705714504586 L 387.0355520681909,244.87515917947275 L 407.6309643391767,252.94833020263547 Z" fill="none" stroke="#FFFFFF" stroke-width="2.211427570186289" /><path d="M 509.03786516142554,232.6765805483316 L 517.8924268634152,252.94833020263547 L 538.487839134401,244.87515917947275 L 530.4146681112384,265.4705714504586 L 550.6864177655422,274.32513315244825 L 530.4146681112384,283.1796948544379 L 538.487839134401,303.77510712542374 L 517.8924268634152,295.701936102261 L 509.03786516142554,315.97368575656486 L 500.18330345943593,295.701936102261 L 479.58789118845004,303.77510712542374 L 487.6610622116128,283.1796948544379 L 467.3893125573089,274.32513315244825 L 487.6610622116128,265.4705714504586 L 479.58789118845004,244.87515917947275 L 500.1833034594359,252.94833020263547 Z" fill="none" stroke="#FFFFFF" stroke-width="2.211427570186289" /><path d="M 601.5902042816848,232.6765805483316 L 610.4447659836744,252.94833020263547 L 631.0401782546603,244.87515917947275 L 622.9670072314976,265.4705714504586 L 643.2387568858014,274.32513315244825 L 622.9670072314976,283.1796948544379 L 631.0401782546603,303.77510712542374 L 610.4447659836744,295.701936102261 L 601.5902042816848,315.97368575656486 L 592.7356425796952,295.701936102261 L 572.1402303087093,303.77510712542374 L 580.213401331872,283.1796948544379 L 559.9416516775682,274.32513315244825 L 580.213401331872,265.4705714504586 L 572.1402303087093,244.87515917947275 L 592.7356425796952,252.94833020263547 Z" fill="none" stroke="#FFFFFF" stroke-width="2.211427570186289" /><path d="M 2.5502383317875802e-15,312.8269062264761 L 8.854561701989642,333.09865588078 L 29.44997397297552,325.02548485761724 L 21.376802949812785,345.6208971286031 L 41.64855260411664,354.47545883059274 L 21.376802949812785,363.3300205325824 L 29.44997397297552,383.92543280356824 L 8.854561701989642,375.8522617804055 L 2.5502383317875802e-15,396.12401143470936 L -8.854561701989638,375.8522617804055 L -29.449973972975513,383.92543280356824 L -21.376802949812777,363.3300205325824 L -41.64855260411664,354.47545883059274 L -21.37680294981278,345.6208971286031 L -29.449973972975524,325.02548485761724 L -8.854561701989653,333.09865588078 Z" fill="none" stroke="#FFFFFF" stroke-width="2.211427570186289" /><path d="M 92.55233912025919,312.8269062264761 L 101.40690082224883,333.09865588078 L 122.0023130932347,325.02548485761724 L 113.92914207007198,345.6208971286031 L 134.20089172437582,354.47545883059274 L 113.92914207007198,363.3300205325824 L 122.0023130932347,383.92543280356824 L 101.40690082224883,375.8522617804055 L 92.55233912025919,396.12401143470936 L 83.69777741826955,375.8522617804055 L 63.10236514728368,383.92543280356824 L 71.1755361704464,363.3300205325824 L 50.90378651614255,354.47545883059274 L 71.1755361704464,345.6208971286031 L 63.10236514728366,325.02548485761724 L 83.69777741826954,333.09865588078 Z" fill="none" stroke="#FFFFFF" stroke-width="2.211427570186289" /><path d="M 185.10467824051838,312.8269062264761 L 193.95923994250802,333.09865588078 L 214.5546522134939,325.02548485761724 L 206.48148119033118,345.6208971286031 L 226.75323084463503,354.47545883059274 L 206.48148119033118,363.3300205325824 L 214.5546522134939,383.92543280356824 L 193.95923994250802,375.8522617804055 L 185.10467824051838,396.12401143470936 L 176.25011653852874,375.8522617804055 L 155.65470426754285,383.92543280356824 L 163.7278752907056,363.3300205325824 L 143.45612563640174,354.47545883059274 L 163.7278752907056,345.6208971286031 L 155.65470426754285,325.02548485761724 L 176.25011653852874,333.09865588078 Z" fill="none" stroke="#FFFFFF" stroke-width="2.211427570186289" /><path d="M 277.65701736077756,312.8269062264761 L 286.5115790627672,333.09865588078 L 307.10699133375306,325.02548485761724 L 299.03382031059033,345.6208971286031 L 319.3055699648942,354.47545883059274 L 299.03382031059033,363.3300205325824 L 307.10699133375306,383.92543280356824 L 286.5115790627672,375.8522617804055 L 277.65701736077756,396.12401143470936 L 268.80245565878795,375.8522617804055 L 248.20704338780206,383.92543280356824 L 256.2802144109648,363.3300205325824 L 236.0084647566609,354.47545883059274 L 256.2802144109648,345.6208971286031 L 248.20704338780203,325.02548485761724 L 268.8024556587879,333.09865588078 Z" fill="none" stroke="#FFFFFF" stroke-width="2.211427570186289" /><path d="M 370.20935648103676,312.8269062264761 L 379.06391818302643,333.09865588078 L 399.65933045401226,325.02548485761724 L 391.58615943084953,345.6208971286031 L 411.8579090851534,354.47545883059274 L 391.58615943084953,363.3300205325824 L 399.65933045401226,383.92543280356824 L 379.06391818302643,375.8522617804055 L 370.20935648103676,396.12401143470936 L 361.3547947790471,375.8522617804055 L 340.75938250806126,383.92543280356824 L 348.832553531224,363.3300205325824 L 328.56080387692015,354.47545883059274 L 348.832553531224,345.6208971286031 L 340.75938250806126,325.02548485761724 L 361.3547947790471,333.09865588078 Z" fill="none" stroke="#FFFFFF" stroke-width="2.211427570186289" /><path d="M 462.76169560129597,312.8269062264761 L 471.61625730328564,333.09865588078 L 492.21166957427147,325.02548485761724 L 484.13849855110874,345.6208971286031 L 504.4102482054126,354.47545883059274 L 484.13849855110874,363.3300205325824 L 492.21166957427147,383.92543280356824 L 471.61625730328564,375.8522617804055 L 462.76169560129597,396.12401143470936 L 453.90713389930636,375.8522617804055 L 433.31172162832047,383.92543280356824 L 441.3848926514832,363.3300205325824 L 421.11314299717935,354.47545883059274 L 441.3848926514832,345.6208971286031 L 433.31172162832047,325.02548485761724 L 453.9071338993063,333.09865588078 Z" fill="none" stroke="#FFFFFF" stroke-width="2.211427570186289" /><path d="M 555.3140347215551,312.8269062264761 L 564.1685964235447,333.09865588078 L 584.7640086945306,325.02548485761724 L 576.690837671368,345.6208971286031 L 596.9625873256717,354.47545883059274 L 576.690837671368,363.3300205325824 L 584.7640086945306,383.92543280356824 L 564.1685964235447,375.8522617804055 L 555.3140347215551,396.12401143470936 L 546.4594730195655,375.8522617804055 L 525.8640607485796,383.92543280356824 L 533.9372317717423,363.3300205325824 L 513.6654821174385,354.47545883059274 L 533.9372317717423,345.6208971286031 L 525.8640607485796,325.02548485761724 L 546.4594730195655,333.09865588078 Z" fill="none" stroke="#FFFFFF" stroke-width="2.211427570186289" /><path d="M -46.276169560129595,392.9772319046205 L -37.42160785813995,413.24898155892436 L -16.826195587154075,405.1758105357616 L -24.89936661031681,425.77122280674746 L -4.627616956012957,434.6257845087371 L -24.89936661031681,443.4803462107268 L -16.826195587154075,464.0757584817126 L -37.42160785813995,456.0025874585499 L -46.276169560129595,476.27433711285374 L -55.130731262119234,456.0025874585499 L -75.7261435331051,464.0757584817126 L -67.65297250994237,443.4803462107268 L -87.92472216424623,434.6257845087371 L -67.65297250994237,425.77122280674746 L -75.72614353310512,405.1758105357616 L -55.13073126211925,413.24898155892436 Z" fill="none" stroke="#FFFFFF" stroke-width="2.211427570186289" /><path d="M 46.276169560129595,392.9772319046205 L 55.13073126211924,413.24898155892436 L 75.72614353310512,405.1758105357616 L 67.65297250994237,425.77122280674746 L 87.92472216424623,434.6257845087371 L 67.65297250994237,443.4803462107268 L 75.72614353310512,464.0757584817126 L 55.13073126211924,456.0025874585499 L 46.276169560129595,476.27433711285374 L 37.42160785813996,456.0025874585499 L 16.826195587154082,464.0757584817126 L 24.899366610316818,443.4803462107268 L 4.627616956012957,434.6257845087371 L 24.899366610316815,425.77122280674746 L 16.82619558715407,405.1758105357616 L 37.42160785813994,413.24898155892436 Z" fill="none" stroke="#FFFFFF" stroke-width="2.211427570186289" /><path d="M 138.82850868038878,392.9772319046205 L 147.68307038237842,413.24898155892436 L 168.2784826533643,405.1758105357616 L 160.20531163020155,425.77122280674746 L 180.47706128450542,434.6257845087371 L 160.20531163020155,443.4803462107268 L 168.2784826533643,464.0757584817126 L 147.68307038237842,456.0025874585499 L 138.82850868038878,476.27433711285374 L 129.97394697839914,456.0025874585499 L 109.37853470741327,464.0757584817126 L 117.45170573057601,443.4803462107268 L 97.17995607627213,434.6257845087371 L 117.451705730576,425.77122280674746 L 109.37853470741325,405.1758105357616 L 129.9739469783991,413.24898155892436 Z" fill="none" stroke="#FFFFFF" stroke-width="2.211427570186289" /><path d="M 231.38084780064796,392.9772319046205 L 240.2354095026376,413.24898155892436 L 260.8308217736235,405.1758105357616 L 252.75765075046075,425.77122280674746 L 273.0294004047646,434.6257845087371 L 252.75765075046075,443.4803462107268 L 260.8308217736235,464.0757584817126 L 240.2354095026376,456.0025874585499 L 231.38084780064796,476.27433711285374 L 222.52628609865832,456.0025874585499 L 201.93087382767243,464.0757584817126 L 210.0040448508352,443.4803462107268 L 189.7322951965313,434.6257845087371 L 210.0040448508352,425.77122280674746 L 201.93087382767243,405.1758105357616 L 222.52628609865832,413.24898155892436 Z" fill="none" stroke="#FFFFFF" stroke-width="2.211427570186289" /><path d="M 323.9331869209072,392.9772319046205 L 332.78774862289686,413.24898155892436 L 353.3831608938827,405.1758105357616 L 345.30998987071996,425.77122280674746 L 365.5817395250238,434.6257845087371 L 345.30998987071996,443.4803462107268 L 353.3831608938827,464.0757584817126 L 332.78774862289686,456.0025874585499 L 323.9331869209072,476.27433711285374 L 315.0786252189175,456.0025874585499 L 294.4832129479317,464.0757584817126 L 302.5563839710944,443.4803462107268 L 282.2846343167906,434.6257845087371 L 302.5563839710944,425.77122280674746 L 294.4832129479317,405.1758105357616 L 315.0786252189175,413.24898155892436 Z" fill="none" stroke="#FFFFFF" stroke-width="2.211427570186289" /><path d="M 416.4855260411664,392.9772319046205 L 425.34008774315606,413.24898155892436 L 445.9355000141419,405.1758105357616 L 437.86232899097917,425.77122280674746 L 458.134078645283,434.6257845087371 L 437.86232899097917,443.4803462107268 L 445.9355000141419,464.0757584817126 L 425.34008774315606,456.0025874585499 L 416.4855260411664,476.27433711285374 L 407.6309643391768,456.0025874585499 L 387.0355520681909,464.0757584817126 L 395.1087230913536,443.4803462107268 L 374.8369734370498,434.6257845087371 L 395.1087230913536,425.77122280674746 L 387.0355520681909,405.1758105357616 L 407.6309643391767,413.24898155892436 Z" fill="none" stroke="#FFFFFF" stroke-width="2.211427570186289" /><path d="M 509.03786516142554,392.9772319046205 L 517.8924268634152,413.24898155892436 L 538.487839134401,405.1758105357616 L 530.4146681112384,425.77122280674746 L 550.6864177655422,434.6257845087371 L 530.4146681112384,443.4803462107268 L 538.487839134401,464.0757584817126 L 517.8924268634152,456.0025874585499 L 509.03786516142554,476.27433711285374 L 500.18330345943593,456.0025874585499 L 479.58789118845004,464.0757584817126 L 487.6610622116128,443.4803462107268 L 467.3893125573089,434.6257845087371 L 487.6610622116128,425.77122280674746 L 479.58789118845004,405.1758105357616 L 500.1833034594359,413.24898155892436 Z" fill="none" stroke="#FFFFFF" stroke-width="2.211427570186289" /><path d="M 601.5902042816848,392.9772319046205 L 610.4447659836744,413.24898155892436 L 631.0401782546603,405.1758105357616 L 622.9670072314976,425.77122280674746 L 643.2387568858014,434.6257845087371 L 622.9670072314976,443.4803462107268 L 631.0401782546603,464.0757584817126 L 610.4447659836744,456.0025874585499 L 601.5902042816848,476.27433711285374 L 592.7356425796952,456.0025874585499 L 572.1402303087093,464.0757584817126 L 580.213401331872,443.4803462107268 L 559.9416516775682,434.6257845087371 L 580.213401331872,425.77122280674746 L 572.1402303087093,405.1758105357616 L 592.7356425796952,413.24898155892436 Z" fill="none" stroke="#FFFFFF" stroke-width="2.211427570186289" /><path d="M 2.5502383317875802e-15,473.127557582765 L 8.854561701989642,493.39930723706885 L 29.44997397297552,485.3261362139061 L 21.376802949812785,505.92154848489196 L 41.64855260411664,514.7761101868816 L 21.376802949812785,523.6306718888712 L 29.44997397297552,544.2260841598571 L 8.854561701989642,536.1529131366945 L 2.5502383317875802e-15,556.4246627909982 L -8.854561701989638,536.1529131366945 L -29.449973972975513,544.2260841598571 L -21.376802949812777,523.6306718888712 L -41.64855260411664,514.7761101868816 L -21.37680294981278,505.92154848489196 L -29.449973972975524,485.3261362139061 L -8.854561701989653,493.39930723706885 Z" fill="none" stroke="#FFFFFF" stroke-width="2.211427570186289" /><path d="M 92.55233912025919,473.127557582765 L 101.40690082224883,493.39930723706885 L 122.0023130932347,485.3261362139061 L 113.92914207007198,505.92154848489196 L 134.20089172437582,514.7761101868816 L 113.92914207007198,523.6306718888712 L 122.0023130932347,544.2260841598571 L 101.40690082224883,536.1529131366945 L 92.55233912025919,556.4246627909982 L 83.69777741826955,536.1529131366945 L 63.10236514728368,544.2260841598571 L 71.1755361704464,523.6306718888712 L 50.90378651614255,514.7761101868816 L 71.1755361704464,505.92154848489196 L 63.10236514728366,485.3261362139061 L 83.69777741826954,493.39930723706885 Z" fill="none" stroke="#FFFFFF" stroke-width="2.211427570186289" /><path d="M 185.10467824051838,473.127557582765 L 193.95923994250802,493.39930723706885 L 214.5546522134939,485.3261362139061 L 206.48148119033118,505.92154848489196 L 226.75323084463503,514.7761101868816 L 206.48148119033118,523.6306718888712 L 214.5546522134939,544.2260841598571 L 193.95923994250802,536.1529131366945 L 185.10467824051838,556.4246627909982 L 176.25011653852874,536.1529131366945 L 155.65470426754285,544.2260841598571 L 163.7278752907056,523.6306718888712 L 143.45612563640174,514.7761101868816 L 163.7278752907056,505.92154848489196 L 155.65470426754285,485.3261362139061 L 176.25011653852874,493.39930723706885 Z" fill="none" stroke="#FFFFFF" stroke-width="2.211427570186289" /><path d="M 277.65701736077756,473.127557582765 L 286.5115790627672,493.39930723706885 L 307.10699133375306,485.3261362139061 L 299.03382031059033,505.92154848489196 L 319.3055699648942,514.7761101868816 L 299.03382031059033,523.6306718888712 L 307.10699133375306,544.2260841598571 L 286.5115790627672,536.1529131366945 L 277.65701736077756,556.4246627909982 L 268.80245565878795,536.1529131366945 L 248.20704338780206,544.2260841598571 L 256.2802144109648,523.6306718888712 L 236.0084647566609,514.7761101868816 L 256.2802144109648,505.92154848489196 L 248.20704338780203,485.3261362139061 L 268.8024556587879,493.39930723706885 Z" fill="none" stroke="#FFFFFF" stroke-width="2.211427570186289" /><path d="M 370.20935648103676,473.127557582765 L 379.06391818302643,493.39930723706885 L 399.65933045401226,485.3261362139061 L 391.58615943084953,505.92154848489196 L 411.8579090851534,514.7761101868816 L 391.58615943084953,523.6306718888712 L 399.65933045401226,544.2260841598571 L 379.06391818302643,536.1529131366945 L 370.20935648103676,556.4246627909982 L 361.3547947790471,536.1529131366945 L 340.75938250806126,544.2260841598571 L 348.832553531224,523.6306718888712 L 328.56080387692015,514.7761101868816 L 348.832553531224,505.92154848489196 L 340.75938250806126,485.3261362139061 L 361.3547947790471,493.39930723706885 Z" fill="none" stroke="#FFFFFF" stroke-width="2.211427570186289" /><path d="M 462.76169560129597,473.127557582765 L 471.61625730328564,493.39930723706885 L 492.21166957427147,485.3261362139061 L 484.13849855110874,505.92154848489196 L 504.4102482054126,514.7761101868816 L 484.13849855110874,523.6306718888712 L 492.21166957427147,544.2260841598571 L 471.61625730328564,536.1529131366945 L 462.76169560129597,556.4246627909982 L 453.90713389930636,536.1529131366945 L 433.31172162832047,544.2260841598571 L 441.3848926514832,523.6306718888712 L 421.11314299717935,514.7761101868816 L 441.3848926514832,505.92154848489196 L 433.31172162832047,485.3261362139061 L 453.9071338993063,493.39930723706885 Z" fill="none" stroke="#FFFFFF" stroke-width="2.211427570186289" /><path d="M 555.3140347215551,473.127557582765 L 564.1685964235447,493.39930723706885 L 584.7640086945306,485.3261362139061 L 576.690837671368,505.92154848489196 L 596.9625873256717,514.7761101868816 L 576.690837671368,523.6306718888712 L 584.7640086945306,544.2260841598571 L 564.1685964235447,536.1529131366945 L 555.3140347215551,556.4246627909982 L 546.4594730195655,536.1529131366945 L 525.8640607485796,544.2260841598571 L 533.9372317717423,523.6306718888712 L 513.6654821174385,514.7761101868816 L 533.9372317717423,505.92154848489196 L 525.8640607485796,485.3261362139061 L 546.4594730195655,493.39930723706885 Z" fill="none" stroke="#FFFFFF" stroke-width="2.211427570186289" /><line x1="41.64855260411664" y1="33.87415611801486" x2="50.90378651614255" y2="33.87415611801486" stroke="#FFFFFF" stroke-width="0.5"/><line x1="134.20089172437582" y1="33.87415611801486" x2="143.45612563640174" y2="33.87415611801486" stroke="#FFFFFF" stroke-width="0.5"/><line x1="226.75323084463503" y1="33.87415611801486" x2="236.0084647566609" y2="33.87415611801486" stroke="#FFFFFF" stroke-width="0.5"/><line x1="319.3055699648942" y1="33.87415611801486" x2="328.56080387692015" y2="33.87415611801486" stroke="#FFFFFF" stroke-width="0.5"/><line x1="411.8579090851534" y1="33.87415611801486" x2="421.11314299717935" y2="33.87415611801486" stroke="#FFFFFF" stroke-width="0.5"/><line x1="87.92472216424623" y1="114.02448179615931" x2="97.17995607627213" y2="114.02448179615931" stroke="#FFFFFF" stroke-width="0.5"/><line x1="180.47706128450542" y1="114.02448179615931" x2="189.7322951965313" y2="114.02448179615931" stroke="#FFFFFF" stroke-width="0.5"/><line x1="273.0294004047646" y1="114.02448179615931" x2="282.2846343167906" y2="114.02448179615931" stroke="#FFFFFF" stroke-width="0.5"/><line x1="365.5817395250238" y1="114.02448179615931" x2="374.8369734370498" y2="114.02448179615931" stroke="#FFFFFF" stroke-width="0.5"/><line x1="458.134078645283" y1="114.02448179615931" x2="467.3893125573089" y2="114.02448179615931" stroke="#FFFFFF" stroke-width="0.5"/><line x1="41.64855260411664" y1="194.17480747430375" x2="50.90378651614255" y2="194.17480747430375" stroke="#FFFFFF" stroke-width="0.5"/><line x1="134.20089172437582" y1="194.17480747430375" x2="143.45612563640174" y2="194.17480747430375" stroke="#FFFFFF" stroke-width="0.5"/><line x1="226.75323084463503" y1="194.17480747430375" x2="236.0084647566609" y2="194.17480747430375" stroke="#FFFFFF" stroke-width="0.5"/><line x1="319.3055699648942" y1="194.17480747430375" x2="328.56080387692015" y2="194.17480747430375" stroke="#FFFFFF" stroke-width="0.5"/><line x1="411.8579090851534" y1="194.17480747430375" x2="421.11314299717935" y2="194.17480747430375" stroke="#FFFFFF" stroke-width="0.5"/><line x1="87.92472216424623" y1="274.32513315244825" x2="97.17995607627213" y2="274.32513315244825" stroke="#FFFFFF" stroke-width="0.5"/><line x1="180.47706128450542" y1="274.32513315244825" x2="189.7322951965313" y2="274.32513315244825" stroke="#FFFFFF" stroke-width="0.5"/><line x1="273.0294004047646" y1="274.32513315244825" x2="282.2846343167906" y2="274.32513315244825" stroke="#FFFFFF" stroke-width="0.5"/><line x1="365.5817395250238" y1="274.32513315244825" x2="374.8369734370498" y2="274.32513315244825" stroke="#FFFFFF" stroke-width="0.5"/><line x1="458.134078645283" y1="274.32513315244825" x2="467.3893125573089" y2="274.32513315244825" stroke="#FFFFFF" stroke-width="0.5"/><line x1="41.64855260411664" y1="354.47545883059274" x2="50.90378651614255" y2="354.47545883059274" stroke="#FFFFFF" stroke-width="0.5"/><line x1="134.20089172437582" y1="354.47545883059274" x2="143.45612563640174" y2="354.47545883059274" stroke="#FFFFFF" stroke-width="0.5"/><line x1="226.75323084463503" y1="354.47545883059274" x2="236.0084647566609" y2="354.47545883059274" stroke="#FFFFFF" stroke-width="0.5"/><line x1="319.3055699648942" y1="354.47545883059274" x2="328.56080387692015" y2="354.47545883059274" stroke="#FFFFFF" stroke-width="0.5"/><line x1="411.8579090851534" y1="354.47545883059274" x2="421.11314299717935" y2="354.47545883059274" stroke="#FFFFFF" stroke-width="0.5"/><line x1="87.92472216424623" y1="434.6257845087371" x2="97.17995607627213" y2="434.6257845087371" stroke="#FFFFFF" stroke-width="0.5"/><line x1="180.47706128450542" y1="434.6257845087371" x2="189.7322951965313" y2="434.6257845087371" stroke="#FFFFFF" stroke-width="0.5"/><line x1="273.0294004047646" y1="434.6257845087371" x2="282.2846343167906" y2="434.6257845087371" stroke="#FFFFFF" stroke-width="0.5"/><line x1="365.5817395250238" y1="434.6257845087371" x2="374.8369734370498" y2="434.6257845087371" stroke="#FFFFFF" stroke-width="0.5"/><line x1="458.134078645283" y1="434.6257845087371" x2="467.3893125573089" y2="434.6257845087371" stroke="#FFFFFF" stroke-width="0.5"/></g></svg>