<svg xmlns="http://www.w3.org/2000/svg" width="512" height="512" viewBox="0 0 512 512"><rect x="0" y="0" width="512" height="512" fill="#050510"/><g opacity="0.11787127855600384"><path d="M -33.7238259430614,-64.07526929181665 L -27.2710512108746,-49.30220221644518 L -12.26211453235722,-55.18553735376558 L -18.145449669677614,-40.176600675248196 L -3.3723825943061385,-33.7238259430614 L -18.145449669677614,-27.2710512108746 L -12.26211453235722,-12.26211453235722 L -27.2710512108746,-18.145449669677614 L -33.7238259430614,-3.3723825943061385 L -40.176600675248196,-18.145449669677614 L -55.18553735376558,-12.26211453235722 L -49.30220221644518,-27.271051210874592 L -64.07526929181665,-33.72382594306139 L -49.30220221644518,-40.1766006752482 L -55.18553735376558,-55.18553735376558 L -40.17660067524821,-49.30220221644518 Z" fill="none" stroke="#0F52BA" stroke-width="2.520860911356686" /><path d="M 33.7238259430614,-64.07526929181665 L 40.176600675248196,-49.30220221644518 L 55.18553735376558,-55.18553735376558 L 49.30220221644518,-40.176600675248196 L 64.07526929181665,-33.7238259430614 L 49.30220221644518,-27.2710512108746 L 55.18553735376558,-12.26211453235722 L 40.176600675248196,-18.145449669677614 L 33.7238259430614,-3.3723825943061385 L 27.271051210874603,-18.145449669677614 L 12.26211453235722,-12.26211453235722 L 18.145449669677618,-27.271051210874592 L 3.3723825943061385,-33.72382594306139 L 18.145449669677618,-40.1766006752482 L 12.262114532357216,-55.18553735376558 L 27.271051210874592,-49.30220221644518 Z" fill="none" stroke="#0F52BA" stroke-width="2.520860911356686" /><path d="M 101.1714778291842,-64.07526929181665 L 107.624252561371,-49.30220221644518 L 122.63318923988838,-55.18553735376558 L 116.74985410256798,-40.176600675248196 L 131.52292117793945,-33.7238259430614 L 116.74985410256798,-27.2710512108746 L 122.63318923988838,-12.26211453235722 L 107.624252561371,-18.145449669677614 L 101.1714778291842,-3.3723825943061385 L 94.7187030969974,-18.145449669677614 L 79.70976641848002,-12.26211453235722 L 85.59310155580042,-27.271051210874592 L 70.82003448042894,-33.72382594306139 L 85.59310155580042,-40.1766006752482 L 79.70976641848002,-55.18553735376558 L 94.71870309699739,-49.30220221644518 Z" fill="none" stroke="#0F52BA" stroke-width="2.520860911356686" /><path d="M 168.619129715307,-64.07526929181665 L 175.0719044474938,-49.30220221644518 L 190.08084112601117,-55.18553735376558 L 184.19750598869078,-40.176600675248196 L 198.97057306406225,-33.7238259430614 L 184.19750598869078,-27.2710512108746 L 190.08084112601117,-12.26211453235722 L 175.0719044474938,-18.145449669677614 L 168.619129715307,-3.3723825943061385 L 162.1663549831202,-18.145449669677614 L 147.15741830460283,-12.26211453235722 L 153.04075344192321,-27.271051210874592 L 138.26768636655174,-33.72382594306139 L 153.04075344192321,-40.1766006752482 L 147.1574183046028,-55.18553735376558 L 162.1663549831202,-49.30220221644518 Z" fill="none" stroke="#0F52BA" stroke-width="2.520860911356686" /><path d="M 236.0667816014298,-64.07526929181665 L 242.5195563336166,-49.30220221644518 L 257.528493012134,-55.18553735376558 L 251.64515787481358,-40.176600675248196 L 266.41822495018505,-33.7238259430614 L 251.64515787481358,-27.2710512108746 L 257.528493012134,-12.26211453235722 L 242.5195563336166,-18.145449669677614 L 236.0667816014298,-3.3723825943061385 L 229.61400686924298,-18.145449669677614 L 214.60507019072563,-12.26211453235722 L 220.488405328046,-27.271051210874592 L 205.71533825267454,-33.72382594306139 L 220.488405328046,-40.1766006752482 L 214.6050701907256,-55.18553735376558 L 229.61400686924298,-49.30220221644518 Z" fill="none" stroke="#0F52BA" stroke-width="2.520860911356686" /><path d="M 303.5144334875526,-64.07526929181665 L 309.9672082197394,-49.30220221644518 L 324.9761448982568,-55.18553735376558 L 319.0928097609364,-40.176600675248196 L 333.86587683630785,-33.7238259430614 L 319.0928097609364,-27.2710512108746 L 324.9761448982568,-12.26211453235722 L 309.9672082197394,-18.145449669677614 L 303.5144334875526,-3.3723825943061385 L 297.0616587553658,-18.145449669677614 L 282.0527220768484,-12.26211453235722 L 287.93605721416884,-27.271051210874592 L 273.16299013879734,-33.72382594306139 L 287.9360572141688,-40.1766006752482 L 282.0527220768484,-55.18553735376558 L 297.0616587553658,-49.30220221644518 Z" fill="none" stroke="#0F52BA" stroke-width="2.520860911356686" /><path d="M 370.9620853736754,-64.07526929181665 L 377.4148601058622,-49.30220221644518 L 392.4237967843796,-55.18553735376558 L 386.5404616470592,-40.176600675248196 L 401.31352872243065,-33.7238259430614 L 386.5404616470592,-27.2710512108746 L 392.4237967843796,-12.26211453235722 L 377.4148601058622,-18.145449669677614 L 370.9620853736754,-3.3723825943061385 L 364.5093106414886,-18.145449669677614 L 349.5003739629712,-12.26211453235722 L 355.38370910029164,-27.271051210874592 L 340.61064202492014,-33.72382594306139 L 355.3837091002916,-40.1766006752482 L 349.5003739629712,-55.18553735376558 L 364.5093106414886,-49.30220221644518 Z" fill="none" stroke="#0F52BA" stroke-width="2.520860911356686" /><path d="M 438.4097372597982,-64.07526929181665 L 444.862511991985,-49.30220221644518 L 459.8714486705024,-55.18553735376558 L 453.988113533182,-40.176600675248196 L 468.76118060855345,-33.7238259430614 L 453.988113533182,-27.2710512108746 L 459.8714486705024,-12.26211453235722 L 444.862511991985,-18.145449669677614 L 438.4097372597982,-3.3723825943061385 L 431.9569625276114,-18.145449669677614 L 416.948025849094,-12.26211453235722 L 422.83136098641444,-27.271051210874592 L 408.05829391104294,-33.72382594306139 L 422.8313609864144,-40.1766006752482 L 416.948025849094,-55.18553735376558 L 431.9569625276114,-49.30220221644518 Z" fill="none" stroke="#0F52BA" stroke-width="2.520860911356686" /><path d="M 505.857389145921,-64.07526929181665 L 512.3101638781078,-49.30220221644518 L 527.3191005566251,-55.18553735376558 L 521.4357654193047,-40.176600675248196 L 536.2088324946762,-33.7238259430614 L 521.4357654193047,-27.2710512108746 L 527.3191005566251,-12.26211453235722 L 512.3101638781078,-18.145449669677614 L 505.857389145921,-3.3723825943061385 L 499.4046144137342,-18.145449669677614 L 484.3956777352168,-12.26211453235722 L 490.27901287253724,-27.271051210874592 L 475.50594579716574,-33.72382594306139 L 490.2790128725372,-40.1766006752482 L 484.3956777352168,-55.18553735376558 L 499.4046144137342,-49.30220221644518 Z" fill="none" stroke="#0F52BA" stroke-width="2.520860911356686" /><path d="M 573.3050410320438,-64.07526929181665 L 579.7578157642306,-49.30220221644518 L 594.766752442748,-55.18553735376558 L 588.8834173054277,-40.176600675248196 L 603.6564843807992,-33.7238259430614 L 588.8834173054277,-27.2710512108746 L 594.766752442748,-12.26211453235722 L 579.7578157642306,-18.145449669677614 L 573.3050410320438,-3.3723825943061385 L 566.8522662998571,-18.145449669677614 L 551.8433296213396,-12.26211453235722 L 557.72666475866,-27.271051210874592 L 542.9535976832885,-33.72382594306139 L 557.72666475866,-40.1766006752482 L 551.8433296213396,-55.18553735376558 L 566.8522662998571,-49.30220221644518 Z" fill="none" stroke="#0F52BA" stroke-width="2.520860911356686" /><path d="M 1.8584898973277676e-15,-5.665602758434318 L 6.4527747321868,9.107464316937158 L 21.46171141070418,3.2241291796167637 L 15.578376273383785,18.233065858134143 L 30.35144334875526,24.685840590320943 L 15.578376273383785,31.138615322507743 L 21.46171141070418,46.14755200102512 L 6.4527747321868,40.26421686370473 L 1.8584898973277676e-15,55.037283939076204 L -6.452774732186797,40.26421686370473 L -21.46171141070418,46.14755200102512 L -15.57837627338378,31.13861532250775 L -30.35144334875526,24.685840590320947 L -15.578376273383784,18.23306585813414 L -21.461711410704183,3.2241291796167637 L -6.452774732186808,9.107464316937163 Z" fill="none" stroke="#0F52BA" stroke-width="2.520860911356686" /><path d="M 67.4476518861228,-5.665602758434318 L 73.9004266183096,9.107464316937158 L 88.90936329682698,3.2241291796167637 L 83.02602815950658,18.233065858134143 L 97.79909523487805,24.685840590320943 L 83.02602815950658,31.138615322507743 L 88.90936329682698,46.14755200102512 L 73.9004266183096,40.26421686370473 L 67.4476518861228,55.037283939076204 L 60.994877153936,40.26421686370473 L 45.985940475418616,46.14755200102512 L 51.86927561273902,31.13861532250775 L 37.09620853736754,24.685840590320947 L 51.86927561273902,18.23306585813414 L 45.985940475418616,3.2241291796167637 L 60.99487715393599,9.107464316937163 Z" fill="none" stroke="#0F52BA" stroke-width="2.520860911356686" /><path d="M 134.8953037722456,-5.665602758434318 L 141.3480785044324,9.107464316937158 L 156.35701518294977,3.2241291796167637 L 150.47368004562938,18.233065858134143 L 165.24674712100085,24.685840590320943 L 150.47368004562938,31.138615322507743 L 156.35701518294977,46.14755200102512 L 141.3480785044324,40.26421686370473 L 134.8953037722456,55.037283939076204 L 128.4425290400588,40.26421686370473 L 113.43359236154141,46.14755200102512 L 119.31692749886182,31.13861532250775 L 104.54386042349034,24.685840590320947 L 119.31692749886182,18.23306585813414 L 113.43359236154141,3.2241291796167637 L 128.4425290400588,9.107464316937163 Z" fill="none" stroke="#0F52BA" stroke-width="2.520860911356686" /><path d="M 202.3429556583684,-5.665602758434318 L 208.7957303905552,9.107464316937158 L 223.80466706907256,3.2241291796167637 L 217.92133193175218,18.233065858134143 L 232.69439900712365,24.685840590320943 L 217.92133193175218,31.138615322507743 L 223.80466706907256,46.14755200102512 L 208.7957303905552,40.26421686370473 L 202.3429556583684,55.037283939076204 L 195.89018092618159,40.26421686370473 L 180.88124424766423,46.14755200102512 L 186.76457938498461,31.13861532250775 L 171.99151230961314,24.685840590320947 L 186.76457938498461,18.23306585813414 L 180.8812442476642,3.2241291796167637 L 195.89018092618159,9.107464316937163 Z" fill="none" stroke="#0F52BA" stroke-width="2.520860911356686" /><path d="M 269.7906075444912,-5.665602758434318 L 276.243382276678,9.107464316937158 L 291.2523189551954,3.2241291796167637 L 285.368983817875,18.233065858134143 L 300.14205089324645,24.685840590320943 L 285.368983817875,31.138615322507743 L 291.2523189551954,46.14755200102512 L 276.243382276678,40.26421686370473 L 269.7906075444912,55.037283939076204 L 263.3378328123044,40.26421686370473 L 248.32889613378703,46.14755200102512 L 254.2122312711074,31.13861532250775 L 239.43916419573594,24.685840590320947 L 254.2122312711074,18.23306585813414 L 248.328896133787,3.2241291796167637 L 263.3378328123044,9.107464316937163 Z" fill="none" stroke="#0F52BA" stroke-width="2.520860911356686" /><path d="M 337.238259430614,-5.665602758434318 L 343.6910341628008,9.107464316937158 L 358.6999708413182,3.2241291796167637 L 352.8166357039978,18.233065858134143 L 367.58970277936925,24.685840590320943 L 352.8166357039978,31.138615322507743 L 358.6999708413182,46.14755200102512 L 343.6910341628008,40.26421686370473 L 337.238259430614,55.037283939076204 L 330.7854846984272,40.26421686370473 L 315.7765480199098,46.14755200102512 L 321.65988315723024,31.13861532250775 L 306.88681608185874,24.685840590320947 L 321.6598831572302,18.23306585813414 L 315.7765480199098,3.2241291796167637 L 330.7854846984272,9.107464316937163 Z" fill="none" stroke="#0F52BA" stroke-width="2.520860911356686" /><path d="M 404.6859113167368,-5.665602758434318 L 411.1386860489236,9.107464316937158 L 426.147622727441,3.2241291796167637 L 420.2642875901206,18.233065858134143 L 435.03735466549205,24.685840590320943 L 420.2642875901206,31.138615322507743 L 426.147622727441,46.14755200102512 L 411.1386860489236,40.26421686370473 L 404.6859113167368,55.037283939076204 L 398.23313658455,40.26421686370473 L 383.2241999060326,46.14755200102512 L 389.10753504335304,31.13861532250775 L 374.33446796798154,24.685840590320947 L 389.107535043353,18.23306585813414 L 383.2241999060326,3.2241291796167637 L 398.23313658455,9.107464316937163 Z" fill="none" stroke="#0F52BA" stroke-width="2.520860911356686" /><path d="M 472.1335632028596,-5.665602758434318 L 478.5863379350464,9.107464316937158 L 493.5952746135638,3.2241291796167637 L 487.7119394762434,18.233065858134143 L 502.48500655161484,24.685840590320943 L 487.7119394762434,31.138615322507743 L 493.5952746135638,46.14755200102512 L 478.5863379350464,40.26421686370473 L 472.1335632028596,55.037283939076204 L 465.6807884706728,40.26421686370473 L 450.6718517921554,46.14755200102512 L 456.55518692947584,31.13861532250775 L 441.78211985410434,24.685840590320947 L 456.5551869294758,18.23306585813414 L 450.6718517921554,3.2241291796167637 L 465.6807884706728,9.107464316937163 Z" fill="none" stroke="#0F52BA" stroke-width="2.520860911356686" /><path d="M 539.5812150889824,-5.665602758434318 L 546.0339898211691,9.107464316937158 L 561.0429264996866,3.2241291796167637 L 555.1595913623662,18.233065858134143 L 569.9326584377377,24.685840590320943 L 555.1595913623662,31.138615322507743 L 561.0429264996866,46.14755200102512 L 546.0339898211691,40.26421686370473 L 539.5812150889824,55.037283939076204 L 533.1284403567956,40.26421686370473 L 518.1195036782782,46.14755200102512 L 524.0028388155986,31.13861532250775 L 509.22977174022714,24.685840590320947 L 524.0028388155986,18.23306585813414 L 518.1195036782782,3.2241291796167637 L 533.1284403567956,9.107464316937163 Z" fill="none" stroke="#0F52BA" stroke-width="2.520860911356686" /><path d="M -33.7238259430614,52.744063774948025 L -27.2710512108746,67.5171308503195 L -12.26211453235722,61.6337957129991 L -18.145449669677614,76.64273239151649 L -3.3723825943061385,83.09550712370329 L -18.145449669677614,89.54828185589008 L -12.26211453235722,104.55721853440747 L -27.2710512108746,98.67388339708707 L -33.7238259430614,113.44695047245855 L -40.176600675248196,98.67388339708707 L -55.18553735376558,104.55721853440747 L -49.30220221644518,89.5482818558901 L -64.07526929181665,83.09550712370329 L -49.30220221644518,76.64273239151649 L -55.18553735376558,61.6337957129991 L -40.17660067524821,67.5171308503195 Z" fill="none" stroke="#0F52BA" stroke-width="2.520860911356686" /><path d="M 33.7238259430614,52.744063774948025 L 40.176600675248196,67.5171308503195 L 55.18553735376558,61.6337957129991 L 49.30220221644518,76.64273239151649 L 64.07526929181665,83.09550712370329 L 49.30220221644518,89.54828185589008 L 55.18553735376558,104.55721853440747 L 40.176600675248196,98.67388339708707 L 33.7238259430614,113.44695047245855 L 27.271051210874603,98.67388339708707 L 12.26211453235722,104.55721853440747 L 18.145449669677618,89.5482818558901 L 3.3723825943061385,83.09550712370329 L 18.145449669677618,76.64273239151649 L 12.262114532357216,61.6337957129991 L 27.271051210874592,67.5171308503195 Z" fill="none" stroke="#0F52BA" stroke-width="2.520860911356686" /><path d="M 101.1714778291842,52.744063774948025 L 107.624252561371,67.5171308503195 L 122.63318923988838,61.6337957129991 L 116.74985410256798,76.64273239151649 L 131.52292117793945,83.09550712370329 L 116.74985410256798,89.54828185589008 L 122.63318923988838,104.55721853440747 L 107.624252561371,98.67388339708707 L 101.1714778291842,113.44695047245855 L 94.7187030969974,98.67388339708707 L 79.70976641848002,104.55721853440747 L 85.59310155580042,89.5482818558901 L 70.82003448042894,83.09550712370329 L 85.59310155580042,76.64273239151649 L 79.70976641848002,61.6337957129991 L 94.71870309699739,67.5171308503195 Z" fill="none" stroke="#0F52BA" stroke-width="2.520860911356686" /><path d="M 168.619129715307,52.744063774948025 L 175.0719044474938,67.5171308503195 L 190.08084112601117,61.6337957129991 L 184.19750598869078,76.64273239151649 L 198.97057306406225,83.09550712370329 L 184.19750598869078,89.54828185589008 L 190.08084112601117,104.55721853440747 L 175.0719044474938,98.67388339708707 L 168.619129715307,113.44695047245855 L 162.1663549831202,98.67388339708707 L 147.15741830460283,104.55721853440747 L 153.04075344192321,89.5482818558901 L 138.26768636655174,83.09550712370329 L 153.04075344192321,76.64273239151649 L 147.1574183046028,61.6337957129991 L 162.1663549831202,67.5171308503195 Z" fill="none" stroke="#0F52BA" stroke-width="2.520860911356686" /><path d="M 236.0667816014298,52.744063774948025 L 242.5195563336166,67.5171308503195 L 257.528493012134,61.6337957129991 L 251.64515787481358,76.64273239151649 L 266.41822495018505,83.09550712370329 L 251.64515787481358,89.54828185589008 L 257.528493012134,104.55721853440747 L 242.5195563336166,98.67388339708707 L 236.0667816014298,113.44695047245855 L 229.61400686924298,98.67388339708707 L 214.60507019072563,104.55721853440747 L 220.488405328046,89.5482818558901 L 205.71533825267454,83.09550712370329 L 220.488405328046,76.64273239151649 L 214.6050701907256,61.6337957129991 L 229.61400686924298,67.5171308503195 Z" fill="none" stroke="#0F52BA" stroke-width="2.520860911356686" /><path d="M 303.5144334875526,52.744063774948025 L 309.9672082197394,67.5171308503195 L 324.9761448982568,61.6337957129991 L 319.0928097609364,76.64273239151649 L 333.86587683630785,83.09550712370329 L 319.0928097609364,89.54828185589008 L 324.9761448982568,104.55721853440747 L 309.9672082197394,98.67388339708707 L 303.5144334875526,113.44695047245855 L 297.0616587553658,98.67388339708707 L 282.0527220768484,104.55721853440747 L 287.93605721416884,89.5482818558901 L 273.16299013879734,83.09550712370329 L 287.9360572141688,76.64273239151649 L 282.0527220768484,61.6337957129991 L 297.0616587553658,67.5171308503195 Z" fill="none" stroke="#0F52BA" stroke-width="2.520860911356686" /><path d="M 370.9620853736754,52.744063774948025 L 377.4148601058622,67.5171308503195 L 392.4237967843796,61.6337957129991 L 386.5404616470592,76.64273239151649 L 401.31352872243065,83.09550712370329 L 386.5404616470592,89.54828185589008 L 392.4237967843796,104.55721853440747 L 377.4148601058622,98.67388339708707 L 370.9620853736754,113.44695047245855 L 364.5093106414886,98.67388339708707 L 349.5003739629712,104.55721853440747 L 355.38370910029164,89.5482818558901 L 340.61064202492014,83.09550712370329 L 355.3837091002916,76.64273239151649 L 349.5003739629712,61.6337957129991 L 364.5093106414886,67.5171308503195 Z" fill="none" stroke="#0F52BA" stroke-width="2.520860911356686" /><path d="M 438.4097372597982,52.744063774948025 L 444.862511991985,67.5171308503195 L 459.8714486705024,61.6337957129991 L 453.988113533182,76.64273239151649 L 468.76118060855345,83.09550712370329 L 453.988113533182,89.54828185589008 L 459.8714486705024,104.55721853440747 L 444.862511991985,98.67388339708707 L 438.4097372597982,113.44695047245855 L 431.9569625276114,98.67388339708707 L 416.948025849094,104.55721853440747 L 422.83136098641444,89.5482818558901 L 408.05829391104294,83.09550712370329 L 422.8313609864144,76.64273239151649 L 416.948025849094,61.6337957129991 L 431.9569625276114,67.5171308503195 Z" fill="none" stroke="#0F52BA" stroke-width="2.520860911356686" /><path d="M 505.857389145921,52.744063774948025 L 512.3101638781078,67.5171308503195 L 527.3191005566251,61.6337957129991 L 521.4357654193047,76.64273239151649 L 536.2088324946762,83.09550712370329 L 521.4357654193047,89.54828185589008 L 527.3191005566251,104.55721853440747 L 512.3101638781078,98.67388339708707 L 505.857389145921,113.44695047245855 L 499.4046144137342,98.67388339708707 L 484.3956777352168,104.55721853440747 L 490.27901287253724,89.5482818558901 L 475.50594579716574,83.09550712370329 L 490.2790128725372,76.64273239151649 L 484.3956777352168,61.6337957129991 L 499.4046144137342,67.5171308503195 Z" fill="none" stroke="#0F52BA" stroke-width="2.520860911356686" /><path d="M 573.3050410320438,52.744063774948025 L 579.7578157642306,67.5171308503195 L 594.766752442748,61.6337957129991 L 588.8834173054277,76.64273239151649 L 603.6564843807992,83.09550712370329 L 588.8834173054277,89.54828185589008 L 594.766752442748,104.55721853440747 L 579.7578157642306,98.67388339708707 L 573.3050410320438,113.44695047245855 L 566.8522662998571,98.67388339708707 L 551.8433296213396,104.55721853440747 L 557.72666475866,89.5482818558901 L 542.9535976832885,83.09550712370329 L 557.72666475866,76.64273239151649 L 551.8433296213396,61.6337957129991 L 566.8522662998571,67.5171308503195 Z" fill="none" stroke="#0F52BA" stroke-width="2.520860911356686" /><path d="M 1.8584898973277676e-15,111.15373030833038 L 6.4527747321868,125.92679738370185 L 21.46171141070418,120.04346224638145 L 15.578376273383785,135.05239892489882 L 30.35144334875526,141.50517365708563 L 15.578376273383785,147.95794838927245 L 21.46171141070418,162.9668850677898 L 6.4527747321868,157.08354993046942 L 1.8584898973277676e-15,171.8566170058409 L -6.452774732186797,157.08354993046942 L -21.46171141070418,162.9668850677898 L -15.57837627338378,147.95794838927245 L -30.35144334875526,141.50517365708563 L -15.578376273383784,135.05239892489882 L -21.461711410704183,120.04346224638145 L -6.452774732186808,125.92679738370185 Z" fill="none" stroke="#0F52BA" stroke-width="2.520860911356686" /><path d="M 67.4476518861228,111.15373030833038 L 73.9004266183096,125.92679738370185 L 88.90936329682698,120.04346224638145 L 83.02602815950658,135.05239892489882 L 97.79909523487805,141.50517365708563 L 83.02602815950658,147.95794838927245 L 88.90936329682698,162.9668850677898 L 73.9004266183096,157.08354993046942 L 67.4476518861228,171.8566170058409 L 60.994877153936,157.08354993046942 L 45.985940475418616,162.9668850677898 L 51.86927561273902,147.95794838927245 L 37.09620853736754,141.50517365708563 L 51.86927561273902,135.05239892489882 L 45.985940475418616,120.04346224638145 L 60.99487715393599,125.92679738370185 Z" fill="none" stroke="#0F52BA" stroke-width="2.520860911356686" /><path d="M 134.8953037722456,111.15373030833038 L 141.3480785044324,125.92679738370185 L 156.35701518294977,120.04346224638145 L 150.47368004562938,135.05239892489882 L 165.24674712100085,141.50517365708563 L 150.47368004562938,147.95794838927245 L 156.35701518294977,162.9668850677898 L 141.3480785044324,157.08354993046942 L 134.8953037722456,171.8566170058409 L 128.4425290400588,157.08354993046942 L 113.43359236154141,162.9668850677898 L 119.31692749886182,147.95794838927245 L 104.54386042349034,141.50517365708563 L 119.31692749886182,135.05239892489882 L 113.43359236154141,120.04346224638145 L 128.4425290400588,125.92679738370185 Z" fill="none" stroke="#0F52BA" stroke-width="2.520860911356686" /><path d="M 202.3429556583684,111.15373030833038 L 208.7957303905552,125.92679738370185 L 223.80466706907256,120.04346224638145 L 217.92133193175218,135.05239892489882 L 232.69439900712365,141.50517365708563 L 217.92133193175218,147.95794838927245 L 223.80466706907256,162.9668850677898 L 208.7957303905552,157.08354993046942 L 202.3429556583684,171.8566170058409 L 195.89018092618159,157.08354993046942 L 180.88124424766423,162.9668850677898 L 186.76457938498461,147.95794838927245 L 171.99151230961314,141.50517365708563 L 186.76457938498461,135.05239892489882 L 180.8812442476642,120.04346224638145 L 195.89018092618159,125.92679738370185 Z" fill="none" stroke="#0F52BA" stroke-width="2.520860911356686" /><path d="M 269.7906075444912,111.15373030833038 L 276.243382276678,125.92679738370185 L 291.2523189551954,120.04346224638145 L 285.368983817875,135.05239892489882 L 300.14205089324645,141.50517365708563 L 285.368983817875,147.95794838927245 L 291.2523189551954,162.9668850677898 L 276.243382276678,157.08354993046942 L 269.7906075444912,171.8566170058409 L 263.3378328123044,157.08354993046942 L 248.32889613378703,162.9668850677898 L 254.2122312711074,147.95794838927245 L 239.43916419573594,141.50517365708563 L 254.2122312711074,135.05239892489882 L 248.328896133787,120.04346224638145 L 263.3378328123044,125.92679738370185 Z" fill="none" stroke="#0F52BA" stroke-width="2.520860911356686" /><path d="M 337.238259430614,111.15373030833038 L 343.6910341628008,125.92679738370185 L 358.6999708413182,120.04346224638145 L 352.8166357039978,135.05239892489882 L 367.58970277936925,141.50517365708563 L 352.8166357039978,147.95794838927245 L 358.6999708413182,162.9668850677898 L 343.6910341628008,157.08354993046942 L 337.238259430614,171.8566170058409 L 330.7854846984272,157.08354993046942 L 315.7765480199098,162.9668850677898 L 321.65988315723024,147.95794838927245 L 306.88681608185874,141.50517365708563 L 321.6598831572302,135.05239892489882 L 315.7765480199098,120.04346224638145 L 330.7854846984272,125.92679738370185 Z" fill="none" stroke="#0F52BA" stroke-width="2.520860911356686" /><path d="M 404.6859113167368,111.15373030833038 L 411.1386860489236,125.92679738370185 L 426.147622727441,120.04346224638145 L 420.2642875901206,135.05239892489882 L 435.03735466549205,141.50517365708563 L 420.2642875901206,147.95794838927245 L 426.147622727441,162.9668850677898 L 411.1386860489236,157.08354993046942 L 404.6859113167368,171.8566170058409 L 398.23313658455,157.08354993046942 L 383.2241999060326,162.9668850677898 L 389.10753504335304,147.95794838927245 L 374.33446796798154,141.50517365708563 L 389.107535043353,135.05239892489882 L 383.2241999060326,120.04346224638145 L 398.23313658455,125.92679738370185 Z" fill="none" stroke="#0F52BA" stroke-width="2.520860911356686" /><path d="M 472.1335632028596,111.15373030833038 L 478.5863379350464,125.92679738370185 L 493.5952746135638,120.04346224638145 L 487.7119394762434,135.05239892489882 L 502.48500655161484,141.50517365708563 L 487.7119394762434,147.95794838927245 L 493.5952746135638,162.9668850677898 L 478.5863379350464,157.08354993046942 L 472.1335632028596,171.8566170058409 L 465.6807884706728,157.08354993046942 L 450.6718517921554,162.9668850677898 L 456.55518692947584,147.95794838927245 L 441.78211985410434,141.50517365708563 L 456.5551869294758,135.05239892489882 L 450.6718517921554,120.04346224638145 L 465.6807884706728,125.92679738370185 Z" fill="none" stroke="#0F52BA" stroke-width="2.520860911356686" /><path d="M 539.5812150889824,111.15373030833038 L 546.0339898211691,125.92679738370185 L 561.0429264996866,120.04346224638145 L 555.1595913623662,135.05239892489882 L 569.9326584377377,141.50517365708563 L 555.1595913623662,147.95794838927245 L 561.0429264996866,162.9668850677898 L 546.0339898211691,157.08354993046942 L 539.5812150889824,171.8566170058409 L 533.1284403567956,157.08354993046942 L 518.1195036782782,162.9668850677898 L 524.0028388155986,147.95794838927245 L 509.22977174022714,141.50517365708563 L 524.0028388155986,135.05239892489882 L 518.1195036782782,120.04346224638145 L 533.1284403567956,125.92679738370185 Z" fill="none" stroke="#0F52BA" stroke-width="2.520860911356686" /><path d="M -33.7238259430614,169.56339684171272 L -27.2710512108746,184.3364639170842 L -12.26211453235722,178.4531287797638 L -18.145449669677614,193.46206545828116 L -3.3723825943061385,199.91484019046797 L -18.145449669677614,206.36761492265478 L -12.26211453235722,221.37655160117214 L -27.2710512108746,215.49321646385175 L -33.7238259430614,230.26628353922322 L -40.176600675248196,215.49321646385175 L -55.18553735376558,221.37655160117214 L -49.30220221644518,206.36761492265478 L -64.07526929181665,199.91484019046797 L -49.30220221644518,193.46206545828116 L -55.18553735376558,178.4531287797638 L -40.17660067524821,184.3364639170842 Z" fill="none" stroke="#0F52BA" stroke-width="2.520860911356686" /><path d="M 33.7238259430614,169.56339684171272 L 40.176600675248196,184.3364639170842 L 55.18553735376558,178.4531287797638 L 49.30220221644518,193.46206545828116 L 64.07526929181665,199.91484019046797 L 49.30220221644518,206.36761492265478 L 55.18553735376558,221.37655160117214 L 40.176600675248196,215.49321646385175 L 33.7238259430614,230.26628353922322 L 27.271051210874603,215.49321646385175 L 12.26211453235722,221.37655160117214 L 18.145449669677618,206.36761492265478 L 3.3723825943061385,199.91484019046797 L 18.145449669677618,193.46206545828116 L 12.262114532357216,178.4531287797638 L 27.271051210874592,184.3364639170842 Z" fill="none" stroke="#0F52BA" stroke-width="2.520860911356686" /><path d="M 101.1714778291842,169.56339684171272 L 107.624252561371,184.3364639170842 L 122.63318923988838,178.4531287797638 L 116.74985410256798,193.46206545828116 L 131.52292117793945,199.91484019046797 L 116.74985410256798,206.36761492265478 L 122.63318923988838,221.37655160117214 L 107.624252561371,215.49321646385175 L 101.1714778291842,230.26628353922322 L 94.7187030969974,215.49321646385175 L 79.70976641848002,221.37655160117214 L 85.59310155580042,206.36761492265478 L 70.82003448042894,199.91484019046797 L 85.59310155580042,193.46206545828116 L 79.70976641848002,178.4531287797638 L 94.71870309699739,184.3364639170842 Z" fill="none" stroke="#0F52BA" stroke-width="2.520860911356686" /><path d="M 168.619129715307,169.56339684171272 L 175.0719044474938,184.3364639170842 L 190.08084112601117,178.4531287797638 L 184.19750598869078,193.46206545828116 L 198.97057306406225,199.91484019046797 L 184.19750598869078,206.36761492265478 L 190.08084112601117,221.37655160117214 L 175.0719044474938,215.49321646385175 L 168.619129715307,230.26628353922322 L 162.1663549831202,215.49321646385175 L 147.15741830460283,221.37655160117214 L 153.04075344192321,206.36761492265478 L 138.26768636655174,199.91484019046797 L 153.04075344192321,193.46206545828116 L 147.1574183046028,178.4531287797638 L 162.1663549831202,184.3364639170842 Z" fill="none" stroke="#0F52BA" stroke-width="2.520860911356686" /><path d="M 236.0667816014298,169.56339684171272 L 242.5195563336166,184.3364639170842 L 257.528493012134,178.4531287797638 L 251.64515787481358,193.46206545828116 L 266.41822495018505,199.91484019046797 L 251.64515787481358,206.36761492265478 L 257.528493012134,221.37655160117214 L 242.5195563336166,215.49321646385175 L 236.0667816014298,230.26628353922322 L 229.61400686924298,215.49321646385175 L 214.60507019072563,221.37655160117214 L 220.488405328046,206.36761492265478 L 205.71533825267454,199.91484019046797 L 220.488405328046,193.46206545828116 L 214.6050701907256,178.4531287797638 L 229.61400686924298,184.3364639170842 Z" fill="none" stroke="#0F52BA" stroke-width="2.520860911356686" /><path d="M 303.5144334875526,169.56339684171272 L 309.9672082197394,184.3364639170842 L 324.9761448982568,178.4531287797638 L 319.0928097609364,193.46206545828116 L 333.86587683630785,199.91484019046797 L 319.0928097609364,206.36761492265478 L 324.9761448982568,221.37655160117214 L 309.9672082197394,215.49321646385175 L 303.5144334875526,230.26628353922322 L 297.0616587553658,215.49321646385175 L 282.0527220768484,221.37655160117214 L 287.93605721416884,206.36761492265478 L 273.16299013879734,199.91484019046797 L 287.9360572141688,193.46206545828116 L 282.0527220768484,178.4531287797638 L 297.0616587553658,184.3364639170842 Z" fill="none" stroke="#0F52BA" stroke-width="2.520860911356686" /><path d="M 370.9620853736754,169.56339684171272 L 377.4148601058622,184.3364639170842 L 392.4237967843796,178.4531287797638 L 386.5404616470592,193.46206545828116 L 401.31352872243065,199.91484019046797 L 386.5404616470592,206.36761492265478 L 392.4237967843796,221.37655160117214 L 377.4148601058622,215.49321646385175 L 370.9620853736754,230.26628353922322 L 364.5093106414886,215.49321646385175 L 349.5003739629712,221.37655160117214 L 355.38370910029164,206.36761492265478 L 340.61064202492014,199.91484019046797 L 355.3837091002916,193.46206545828116 L 349.5003739629712,178.4531287797638 L 364.5093106414886,184.3364639170842 Z" fill="none" stroke="#0F52BA" stroke-width="2.520860911356686" /><path d="M 438.4097372597982,169.56339684171272 L 444.862511991985,184.3364639170842 L 459.8714486705024,178.4531287797638 L 453.988113533182,193.46206545828116 L 468.76118060855345,199.91484019046797 L 453.988113533182,206.36761492265478 L 459.8714486705024,221.37655160117214 L 444.862511991985,215.49321646385175 L 438.4097372597982,230.26628353922322 L 431.9569625276114,215.49321646385175 L 416.948025849094,221.37655160117214 L 422.83136098641444,206.36761492265478 L 408.05829391104294,199.91484019046797 L 422.8313609864144,193.46206545828116 L 416.948025849094,178.4531287797638 L 431.9569625276114,184.3364639170842 Z" fill="none" stroke="#0F52BA" stroke-width="2.520860911356686" /><path d="M 505.857389145921,169.56339684171272 L 512.3101638781078,184.3364639170842 L 527.3191005566251,178.4531287797638 L 521.4357654193047,193.46206545828116 L 536.2088324946762,199.91484019046797 L 521.4357654193047,206.36761492265478 L 527.3191005566251,221.37655160117214 L 512.3101638781078,215.49321646385175 L 505.857389145921,230.26628353922322 L 499.4046144137342,215.49321646385175 L 484.3956777352168,221.37655160117214 L 490.27901287253724,206.36761492265478 L 475.50594579716574,199.91484019046797 L 490.2790128725372,193.46206545828116 L 484.3956777352168,178.4531287797638 L 499.4046144137342,184.3364639170842 Z" fill="none" stroke="#0F52BA" stroke-width="2.520860911356686" /><path d="M 573.3050410320438,169.56339684171272 L 579.7578157642306,184.3364639170842 L 594.766752442748,178.4531287797638 L 588.8834173054277,193.46206545828116 L 603.6564843807992,199.91484019046797 L 588.8834173054277,206.36761492265478 L 594.766752442748,221.37655160117214 L 579.7578157642306,215.49321646385175 L 573.3050410320438,230.26628353922322 L 566.8522662998571,215.49321646385175 L 551.8433296213396,221.37655160117214 L 557.72666475866,206.36761492265478 L 542.9535976832885,199.91484019046797 L 557.72666475866,193.46206545828116 L 551.8433296213396,178.4531287797638 L 566.8522662998571,184.3364639170842 Z" fill="none" stroke="#0F52BA" stroke-width="2.520860911356686" /><path d="M 1.8584898973277676e-15,227.97306337509508 L 6.4527747321868,242.74613045046655 L 21.46171141070418,236.86279531314617 L 15.578376273383785,251.87173199166352 L 30.35144334875526,258.32450672385033 L 15.578376273383785,264.77728145603714 L 21.46171141070418,279.78621813455453 L 6.4527747321868,273.90288299723414 L 1.8584898973277676e-15,288.6759500726056 L -6.452774732186797,273.90288299723414 L -21.46171141070418,279.78621813455453 L -15.57837627338378,264.77728145603714 L -30.35144334875526,258.32450672385033 L -15.578376273383784,251.87173199166352 L -21.461711410704183,236.86279531314617 L -6.452774732186808,242.74613045046655 Z" fill="none" stroke="#0F52BA" stroke-width="2.520860911356686" /><path d="M 67.4476518861228,227.97306337509508 L 73.9004266183096,242.74613045046655 L 88.90936329682698,236.86279531314617 L 83.02602815950658,251.87173199166352 L 97.79909523487805,258.32450672385033 L 83.02602815950658,264.77728145603714 L 88.90936329682698,279.78621813455453 L 73.9004266183096,273.90288299723414 L 67.4476518861228,288.6759500726056 L 60.994877153936,273.90288299723414 L 45.985940475418616,279.78621813455453 L 51.86927561273902,264.77728145603714 L 37.09620853736754,258.32450672385033 L 51.86927561273902,251.87173199166352 L 45.985940475418616,236.86279531314617 L 60.99487715393599,242.74613045046655 Z" fill="none" stroke="#0F52BA" stroke-width="2.520860911356686" /><path d="M 134.8953037722456,227.97306337509508 L 141.3480785044324,242.74613045046655 L 156.35701518294977,236.86279531314617 L 150.47368004562938,251.87173199166352 L 165.24674712100085,258.32450672385033 L 150.47368004562938,264.77728145603714 L 156.35701518294977,279.78621813455453 L 141.3480785044324,273.90288299723414 L 134.8953037722456,288.6759500726056 L 128.4425290400588,273.90288299723414 L 113.43359236154141,279.78621813455453 L 119.31692749886182,264.77728145603714 L 104.54386042349034,258.32450672385033 L 119.31692749886182,251.87173199166352 L 113.43359236154141,236.86279531314617 L 128.4425290400588,242.74613045046655 Z" fill="none" stroke="#0F52BA" stroke-width="2.520860911356686" /><path d="M 202.3429556583684,227.97306337509508 L 208.7957303905552,242.74613045046655 L 223.80466706907256,236.86279531314617 L 217.92133193175218,251.87173199166352 L 232.69439900712365,258.32450672385033 L 217.92133193175218,264.77728145603714 L 223.80466706907256,279.78621813455453 L 208.7957303905552,273.90288299723414 L 202.3429556583684,288.6759500726056 L 195.89018092618159,273.90288299723414 L 180.88124424766423,279.78621813455453 L 186.76457938498461,264.77728145603714 L 171.99151230961314,258.32450672385033 L 186.76457938498461,251.87173199166352 L 180.8812442476642,236.86279531314617 L 195.89018092618159,242.74613045046655 Z" fill="none" stroke="#0F52BA" stroke-width="2.520860911356686" /><path d="M 269.7906075444912,227.97306337509508 L 276.243382276678,242.74613045046655 L 291.2523189551954,236.86279531314617 L 285.368983817875,251.87173199166352 L 300.14205089324645,258.32450672385033 L 285.368983817875,264.77728145603714 L 291.2523189551954,279.78621813455453 L 276.243382276678,273.90288299723414 L 269.7906075444912,288.6759500726056 L 263.3378328123044,273.90288299723414 L 248.32889613378703,279.78621813455453 L 254.2122312711074,264.77728145603714 L 239.43916419573594,258.32450672385033 L 254.2122312711074,251.87173199166352 L 248.328896133787,236.86279531314617 L 263.3378328123044,242.74613045046655 Z" fill="none" stroke="#0F52BA" stroke-width="2.520860911356686" /><path d="M 337.238259430614,227.97306337509508 L 343.6910341628008,242.74613045046655 L 358.6999708413182,236.86279531314617 L 352.8166357039978,251.87173199166352 L 367.58970277936925,258.32450672385033 L 352.8166357039978,264.77728145603714 L 358.6999708413182,279.78621813455453 L 343.6910341628008,273.90288299723414 L 337.238259430614,288.6759500726056 L 330.7854846984272,273.90288299723414 L 315.7765480199098,279.78621813455453 L 321.65988315723024,264.77728145603714 L 306.88681608185874,258.32450672385033 L 321.6598831572302,251.87173199166352 L 315.7765480199098,236.86279531314617 L 330.7854846984272,242.74613045046655 Z" fill="none" stroke="#0F52BA" stroke-width="2.520860911356686" /><path d="M 404.6859113167368,227.97306337509508 L 411.1386860489236,242.74613045046655 L 426.147622727441,236.86279531314617 L 420.2642875901206,251.87173199166352 L 435.03735466549205,258.32450672385033 L 420.2642875901206,264.77728145603714 L 426.147622727441,279.78621813455453 L 411.1386860489236,273.90288299723414 L 404.6859113167368,288.6759500726056 L 398.23313658455,273.90288299723414 L 383.2241999060326,279.78621813455453 L 389.10753504335304,264.77728145603714 L 374.33446796798154,258.32450672385033 L 389.107535043353,251.87173199166352 L 383.2241999060326,236.86279531314617 L 398.23313658455,242.74613045046655 Z" fill="none" stroke="#0F52BA" stroke-width="2.520860911356686" /><path d="M 472.1335632028596,227.97306337509508 L 478.5863379350464,242.74613045046655 L 493.5952746135638,236.86279531314617 L 487.7119394762434,251.87173199166352 L 502.48500655161484,258.32450672385033 L 487.7119394762434,264.77728145603714 L 493.5952746135638,279.78621813455453 L 478.5863379350464,273.90288299723414 L 472.1335632028596,288.6759500726056 L 465.6807884706728,273.90288299723414 L 450.6718517921554,279.78621813455453 L 456.55518692947584,264.77728145603714 L 441.78211985410434,258.32450672385033 L 456.5551869294758,251.87173199166352 L 450.6718517921554,236.86279531314617 L 465.6807884706728,242.74613045046655 Z" fill="none" stroke="#0F52BA" stroke-width="2.520860911356686" /><path d="M 539.5812150889824,227.97306337509508 L 546.0339898211691,242.74613045046655 L 561.0429264996866,236.86279531314617 L 555.1595913623662,251.87173199166352 L 569.9326584377377,258.32450672385033 L 555.1595913623662,264.77728145603714 L 561.0429264996866,279.78621813455453 L 546.0339898211691,273.90288299723414 L 539.5812150889824,288.6759500726056 L 533.1284403567956,273.90288299723414 L 518.1195036782782,279.78621813455453 L 524.0028388155986,264.77728145603714 L 509.22977174022714,258.32450672385033 L 524.0028388155986,251.87173199166352 L 518.1195036782782,236.86279531314617 L 533.1284403567956,242.74613045046655 Z" fill="none" stroke="#0F52BA" stroke-width="2.520860911356686" /><path d="M -33.7238259430614,286.3827299084774 L -27.2710512108746,301.15579698384886 L -12.26211453235722,295.2724618465285 L -18.145449669677614,310.28139852504586 L -3.3723825943061385,316.73417325723267 L -18.145449669677614,323.1869479894195 L -12.26211453235722,338.19588466793687 L -27.2710512108746,332.3125495306165 L -33.7238259430614,347.0856166059879 L -40.176600675248196,332.3125495306165 L -55.18553735376558,338.19588466793687 L -49.30220221644518,323.1869479894195 L -64.07526929181665,316.73417325723267 L -49.30220221644518,310.28139852504586 L -55.18553735376558,295.2724618465285 L -40.17660067524821,301.1557969838489 Z" fill="none" stroke="#0F52BA" stroke-width="2.520860911356686" /><path d="M 33.7238259430614,286.3827299084774 L 40.176600675248196,301.15579698384886 L 55.18553735376558,295.2724618465285 L 49.30220221644518,310.28139852504586 L 64.07526929181665,316.73417325723267 L 49.30220221644518,323.1869479894195 L 55.18553735376558,338.19588466793687 L 40.176600675248196,332.3125495306165 L 33.7238259430614,347.0856166059879 L 27.271051210874603,332.3125495306165 L 12.26211453235722,338.19588466793687 L 18.145449669677618,323.1869479894195 L 3.3723825943061385,316.73417325723267 L 18.145449669677618,310.28139852504586 L 12.262114532357216,295.2724618465285 L 27.271051210874592,301.1557969838489 Z" fill="none" stroke="#0F52BA" stroke-width="2.520860911356686" /><path d="M 101.1714778291842,286.3827299084774 L 107.624252561371,301.15579698384886 L 122.63318923988838,295.2724618465285 L 116.74985410256798,310.28139852504586 L 131.52292117793945,316.73417325723267 L 116.74985410256798,323.1869479894195 L 122.63318923988838,338.19588466793687 L 107.624252561371,332.3125495306165 L 101.1714778291842,347.0856166059879 L 94.7187030969974,332.3125495306165 L 79.70976641848002,338.19588466793687 L 85.59310155580042,323.1869479894195 L 70.82003448042894,316.73417325723267 L 85.59310155580042,310.28139852504586 L 79.70976641848002,295.2724618465285 L 94.71870309699739,301.1557969838489 Z" fill="none" stroke="#0F52BA" stroke-width="2.520860911356686" /><path d="M 168.619129715307,286.3827299084774 L 175.0719044474938,301.15579698384886 L 190.08084112601117,295.2724618465285 L 184.19750598869078,310.28139852504586 L 198.97057306406225,316.73417325723267 L 184.19750598869078,323.1869479894195 L 190.08084112601117,338.19588466793687 L 175.0719044474938,332.3125495306165 L 168.619129715307,347.0856166059879 L 162.1663549831202,332.3125495306165 L 147.15741830460283,338.19588466793687 L 153.04075344192321,323.1869479894195 L 138.26768636655174,316.73417325723267 L 153.04075344192321,310.28139852504586 L 147.1574183046028,295.2724618465285 L 162.1663549831202,301.1557969838489 Z" fill="none" stroke="#0F52BA" stroke-width="2.520860911356686" /><path d="M 236.0667816014298,286.3827299084774 L 242.5195563336166,301.15579698384886 L 257.528493012134,295.2724618465285 L 251.64515787481358,310.28139852504586 L 266.41822495018505,316.73417325723267 L 251.64515787481358,323.1869479894195 L 257.528493012134,338.19588466793687 L 242.5195563336166,332.3125495306165 L 236.0667816014298,347.0856166059879 L 229.61400686924298,332.3125495306165 L 214.60507019072563,338.19588466793687 L 220.488405328046,323.1869479894195 L 205.71533825267454,316.73417325723267 L 220.488405328046,310.28139852504586 L 214.6050701907256,295.2724618465285 L 229.61400686924298,301.1557969838489 Z" fill="none" stroke="#0F52BA" stroke-width="2.520860911356686" /><path d="M 303.5144334875526,286.3827299084774 L 309.9672082197394,301.15579698384886 L 324.9761448982568,295.2724618465285 L 319.0928097609364,310.28139852504586 L 333.86587683630785,316.73417325723267 L 319.0928097609364,323.1869479894195 L 324.9761448982568,338.19588466793687 L 309.9672082197394,332.3125495306165 L 303.5144334875526,347.0856166059879 L 297.0616587553658,332.3125495306165 L 282.0527220768484,338.19588466793687 L 287.93605721416884,323.1869479894195 L 273.16299013879734,316.73417325723267 L 287.9360572141688,310.28139852504586 L 282.0527220768484,295.2724618465285 L 297.0616587553658,301.1557969838489 Z" fill="none" stroke="#0F52BA" stroke-width="2.520860911356686" /><path d="M 370.9620853736754,286.3827299084774 L 377.4148601058622,301.15579698384886 L 392.4237967843796,295.2724618465285 L 386.5404616470592,310.28139852504586 L 401.31352872243065,316.73417325723267 L 386.5404616470592,323.1869479894195 L 392.4237967843796,338.19588466793687 L 377.4148601058622,332.3125495306165 L 370.9620853736754,347.0856166059879 L 364.5093106414886,332.3125495306165 L 349.5003739629712,338.19588466793687 L 355.38370910029164,323.1869479894195 L 340.61064202492014,316.73417325723267 L 355.3837091002916,310.28139852504586 L 349.5003739629712,295.2724618465285 L 364.5093106414886,301.1557969838489 Z" fill="none" stroke="#0F52BA" stroke-width="2.520860911356686" /><path d="M 438.4097372597982,286.3827299084774 L 444.862511991985,301.15579698384886 L 459.8714486705024,295.2724618465285 L 453.988113533182,310.28139852504586 L 468.76118060855345,316.73417325723267 L 453.988113533182,323.1869479894195 L 459.8714486705024,338.19588466793687 L 444.862511991985,332.3125495306165 L 438.4097372597982,347.0856166059879 L 431.9569625276114,332.3125495306165 L 416.948025849094,338.19588466793687 L 422.83136098641444,323.1869479894195 L 408.05829391104294,316.73417325723267 L 422.8313609864144,310.28139852504586 L 416.948025849094,295.2724618465285 L 431.9569625276114,301.1557969838489 Z" fill="none" stroke="#0F52BA" stroke-width="2.520860911356686" /><path d="M 505.857389145921,286.3827299084774 L 512.3101638781078,301.15579698384886 L 527.3191005566251,295.2724618465285 L 521.4357654193047,310.28139852504586 L 536.2088324946762,316.73417325723267 L 521.4357654193047,323.1869479894195 L 527.3191005566251,338.19588466793687 L 512.3101638781078,332.3125495306165 L 505.857389145921,347.0856166059879 L 499.4046144137342,332.3125495306165 L 484.3956777352168,338.19588466793687 L 490.27901287253724,323.1869479894195 L 475.50594579716574,316.73417325723267 L 490.2790128725372,310.28139852504586 L 484.3956777352168,295.2724618465285 L 499.4046144137342,301.1557969838489 Z" fill="none" stroke="#0F52BA" stroke-width="2.520860911356686" /><path d="M 573.3050410320438,286.3827299084774 L 579.7578157642306,301.15579698384886 L 594.766752442748,295.2724618465285 L 588.8834173054277,310.28139852504586 L 603.6564843807992,316.73417325723267 L 588.8834173054277,323.1869479894195 L 594.766752442748,338.19588466793687 L 579.7578157642306,332.3125495306165 L 573.3050410320438,347.0856166059879 L 566.8522662998571,332.3125495306165 L 551.8433296213396,338.19588466793687 L 557.72666475866,323.1869479894195 L 542.9535976832885,316.73417325723267 L 557.72666475866,310.28139852504586 L 551.8433296213396,295.2724618465285 L 566.8522662998571,301.1557969838489 Z" fill="none" stroke="#0F52BA" stroke-width="2.520860911356686" /><path d="M 1.8584898973277676e-15,344.79239644185975 L 6.4527747321868,359.5654635172312 L 21.46171141070418,353.6821283799108 L 15.578376273383785,368.6910650584282 L 30.35144334875526,375.143839790615 L 15.578376273383785,381.5966145228018 L 21.46171141070418,396.6055512013192 L 6.4527747321868,390.7222160639988 L 1.8584898973277676e-15,405.49528313937026 L -6.452774732186797,390.7222160639988 L -21.46171141070418,396.6055512013192 L -15.57837627338378,381.5966145228018 L -30.35144334875526,375.143839790615 L -15.578376273383784,368.6910650584282 L -21.461711410704183,353.6821283799108 L -6.452774732186808,359.56546351723125 Z" fill="none" stroke="#0F52BA" stroke-width="2.520860911356686" /><path d="M 67.4476518861228,344.79239644185975 L 73.9004266183096,359.5654635172312 L 88.90936329682698,353.6821283799108 L 83.02602815950658,368.6910650584282 L 97.79909523487805,375.143839790615 L 83.02602815950658,381.5966145228018 L 88.90936329682698,396.6055512013192 L 73.9004266183096,390.7222160639988 L 67.4476518861228,405.49528313937026 L 60.994877153936,390.7222160639988 L 45.985940475418616,396.6055512013192 L 51.86927561273902,381.5966145228018 L 37.09620853736754,375.143839790615 L 51.86927561273902,368.6910650584282 L 45.985940475418616,353.6821283799108 L 60.99487715393599,359.56546351723125 Z" fill="none" stroke="#0F52BA" stroke-width="2.520860911356686" /><path d="M 134.8953037722456,344.79239644185975 L 141.3480785044324,359.5654635172312 L 156.35701518294977,353.6821283799108 L 150.47368004562938,368.6910650584282 L 165.24674712100085,375.143839790615 L 150.47368004562938,381.5966145228018 L 156.35701518294977,396.6055512013192 L 141.3480785044324,390.7222160639988 L 134.8953037722456,405.49528313937026 L 128.4425290400588,390.7222160639988 L 113.43359236154141,396.6055512013192 L 119.31692749886182,381.5966145228018 L 104.54386042349034,375.143839790615 L 119.31692749886182,368.6910650584282 L 113.43359236154141,353.6821283799108 L 128.4425290400588,359.56546351723125 Z" fill="none" stroke="#0F52BA" stroke-width="2.520860911356686" /><path d="M 202.3429556583684,344.79239644185975 L 208.7957303905552,359.5654635172312 L 223.80466706907256,353.6821283799108 L 217.92133193175218,368.6910650584282 L 232.69439900712365,375.143839790615 L 217.92133193175218,381.5966145228018 L 223.80466706907256,396.6055512013192 L 208.7957303905552,390.7222160639988 L 202.3429556583684,405.49528313937026 L 195.89018092618159,390.7222160639988 L 180.88124424766423,396.6055512013192 L 186.76457938498461,381.5966145228018 L 171.99151230961314,375.143839790615 L 186.76457938498461,368.6910650584282 L 180.8812442476642,353.6821283799108 L 195.89018092618159,359.56546351723125 Z" fill="none" stroke="#0F52BA" stroke-width="2.520860911356686" /><path d="M 269.7906075444912,344.79239644185975 L 276.243382276678,359.5654635172312 L 291.2523189551954,353.6821283799108 L 285.368983817875,368.6910650584282 L 300.14205089324645,375.143839790615 L 285.368983817875,381.5966145228018 L 291.2523189551954,396.6055512013192 L 276.243382276678,390.7222160639988 L 269.7906075444912,405.49528313937026 L 263.3378328123044,390.7222160639988 L 248.32889613378703,396.6055512013192 L 254.2122312711074,381.5966145228018 L 239.43916419573594,375.143839790615 L 254.2122312711074,368.6910650584282 L 248.328896133787,353.6821283799108 L 263.3378328123044,359.56546351723125 Z" fill="none" stroke="#0F52BA" stroke-width="2.520860911356686" /><path d="M 337.238259430614,344.79239644185975 L 343.6910341628008,359.5654635172312 L 358.6999708413182,353.6821283799108 L 352.8166357039978,368.6910650584282 L 367.58970277936925,375.143839790615 L 352.8166357039978,381.5966145228018 L 358.6999708413182,396.6055512013192 L 343.6910341628008,390.7222160639988 L 337.238259430614,405.49528313937026 L 330.7854846984272,390.7222160639988 L 315.7765480199098,396.6055512013192 L 321.65988315723024,381.5966145228018 L 306.88681608185874,375.143839790615 L 321.6598831572302,368.6910650584282 L 315.7765480199098,353.6821283799108 L 330.7854846984272,359.56546351723125 Z" fill="none" stroke="#0F52BA" stroke-width="2.520860911356686" /><path d="M 404.6859113167368,344.79239644185975 L 411.1386860489236,359.5654635172312 L 426.147622727441,353.6821283799108 L 420.2642875901206,368.6910650584282 L 435.03735466549205,375.143839790615 L 420.2642875901206,381.5966145228018 L 426.147622727441,396.6055512013192 L 411.1386860489236,390.7222160639988 L 404.6859113167368,405.49528313937026 L 398.23313658455,390.7222160639988 L 383.2241999060326,396.6055512013192 L 389.10753504335304,381.5966145228018 L 374.33446796798154,375.143839790615 L 389.107535043353,368.6910650584282 L 383.2241999060326,353.6821283799108 L 398.23313658455,359.56546351723125 Z" fill="none" stroke="#0F52BA" stroke-width="2.520860911356686" /><path d="M 472.1335632028596,344.79239644185975 L 478.5863379350464,359.5654635172312 L 493.5952746135638,353.6821283799108 L 487.7119394762434,368.6910650584282 L 502.48500655161484,375.143839790615 L 487.7119394762434,381.5966145228018 L 493.5952746135638,396.6055512013192 L 478.5863379350464,390.7222160639988 L 472.1335632028596,405.49528313937026 L 465.6807884706728,390.7222160639988 L 450.6718517921554,396.6055512013192 L 456.55518692947584,381.5966145228018 L 441.78211985410434,375.143839790615 L 456.5551869294758,368.6910650584282 L 450.6718517921554,353.6821283799108 L 465.6807884706728,359.56546351723125 Z" fill="none" stroke="#0F52BA" stroke-width="2.520860911356686" /><path d="M 539.5812150889824,344.79239644185975 L 546.0339898211691,359.5654635172312 L 561.0429264996866,353.6821283799108 L 555.1595913623662,368.6910650584282 L 569.9326584377377,375.143839790615 L 555.1595913623662,381.5966145228018 L 561.0429264996866,396.6055512013192 L 546.0339898211691,390.7222160639988 L 539.5812150889824,405.49528313937026 L 533.1284403567956,390.7222160639988 L 518.1195036782782,396.6055512013192 L 524.0028388155986,381.5966145228018 L 509.22977174022714,375.143839790615 L 524.0028388155986,368.6910650584282 L 518.1195036782782,353.6821283799108 L 533.1284403567956,359.56546351723125 Z" fill="none" stroke="#0F52BA" stroke-width="2.520860911356686" /><path d="M -33.7238259430614,403.2020629752421 L -27.2710512108746,417.97513005061353 L -12.26211453235722,412.09179491329314 L -18.145449669677614,427.10073159181053 L -3.3723825943061385,433.55350632399734 L -18.145449669677614,440.00628105618415 L -12.26211453235722,455.01521773470154 L -27.2710512108746,449.13188259738115 L -33.7238259430614,463.9049496727526 L -40.176600675248196,449.13188259738115 L -55.18553735376558,455.01521773470154 L -49.30220221644518,440.00628105618415 L -64.07526929181665,433.55350632399734 L -49.30220221644518,427.10073159181053 L -55.18553735376558,412.09179491329314 L -40.17660067524821,417.9751300506136 Z" fill="none" stroke="#0F52BA" stroke-width="2.520860911356686" /><path d="M 33.7238259430614,403.2020629752421 L 40.176600675248196,417.97513005061353 L 55.18553735376558,412.09179491329314 L 49.30220221644518,427.10073159181053 L 64.07526929181665,433.55350632399734 L 49.30220221644518,440.00628105618415 L 55.18553735376558,455.01521773470154 L 40.176600675248196,449.13188259738115 L 33.7238259430614,463.9049496727526 L 27.271051210874603,449.13188259738115 L 12.26211453235722,455.01521773470154 L 18.145449669677618,440.00628105618415 L 3.3723825943061385,433.55350632399734 L 18.145449669677618,427.10073159181053 L 12.262114532357216,412.09179491329314 L 27.271051210874592,417.9751300506136 Z" fill="none" stroke="#0F52BA" stroke-width="2.520860911356686" /><path d="M 101.1714778291842,403.2020629752421 L 107.624252561371,417.97513005061353 L 122.63318923988838,412.09179491329314 L 116.74985410256798,427.10073159181053 L 131.52292117793945,433.55350632399734 L 116.74985410256798,440.00628105618415 L 122.63318923988838,455.01521773470154 L 107.624252561371,449.13188259738115 L 101.1714778291842,463.9049496727526 L 94.7187030969974,449.13188259738115 L 79.70976641848002,455.01521773470154 L 85.59310155580042,440.00628105618415 L 70.82003448042894,433.55350632399734 L 85.59310155580042,427.10073159181053 L 79.70976641848002,412.09179491329314 L 94.71870309699739,417.9751300506136 Z" fill="none" stroke="#0F52BA" stroke-width="2.520860911356686" /><path d="M 168.619129715307,403.2020629752421 L 175.0719044474938,417.97513005061353 L 190.08084112601117,412.09179491329314 L 184.19750598869078,427.10073159181053 L 198.97057306406225,433.55350632399734 L 184.19750598869078,440.00628105618415 L 190.08084112601117,455.01521773470154 L 175.0719044474938,449.13188259738115 L 168.619129715307,463.9049496727526 L 162.1663549831202,449.13188259738115 L 147.15741830460283,455.01521773470154 L 153.04075344192321,440.00628105618415 L 138.26768636655174,433.55350632399734 L 153.04075344192321,427.10073159181053 L 147.1574183046028,412.09179491329314 L 162.1663549831202,417.9751300506136 Z" fill="none" stroke="#0F52BA" stroke-width="2.520860911356686" /><path d="M 236.0667816014298,403.2020629752421 L 242.5195563336166,417.97513005061353 L 257.528493012134,412.09179491329314 L 251.64515787481358,427.10073159181053 L 266.41822495018505,433.55350632399734 L 251.64515787481358,440.00628105618415 L 257.528493012134,455.01521773470154 L 242.5195563336166,449.13188259738115 L 236.0667816014298,463.9049496727526 L 229.61400686924298,449.13188259738115 L 214.60507019072563,455.01521773470154 L 220.488405328046,440.00628105618415 L 205.71533825267454,433.55350632399734 L 220.488405328046,427.10073159181053 L 214.6050701907256,412.09179491329314 L 229.61400686924298,417.9751300506136 Z" fill="none" stroke="#0F52BA" stroke-width="2.520860911356686" /><path d="M 303.5144334875526,403.2020629752421 L 309.9672082197394,417.97513005061353 L 324.9761448982568,412.09179491329314 L 319.0928097609364,427.10073159181053 L 333.86587683630785,433.55350632399734 L 319.0928097609364,440.00628105618415 L 324.9761448982568,455.01521773470154 L 309.9672082197394,449.13188259738115 L 303.5144334875526,463.9049496727526 L 297.0616587553658,449.13188259738115 L 282.0527220768484,455.01521773470154 L 287.93605721416884,440.00628105618415 L 273.16299013879734,433.55350632399734 L 287.9360572141688,427.10073159181053 L 282.0527220768484,412.09179491329314 L 297.0616587553658,417.9751300506136 Z" fill="none" stroke="#0F52BA" stroke-width="2.520860911356686" /><path d="M 370.9620853736754,403.2020629752421 L 377.4148601058622,417.97513005061353 L 392.4237967843796,412.09179491329314 L 386.5404616470592,427.10073159181053 L 401.31352872243065,433.55350632399734 L 386.5404616470592,440.00628105618415 L 392.4237967843796,455.01521773470154 L 377.4148601058622,449.13188259738115 L 370.9620853736754,463.9049496727526 L 364.5093106414886,449.13188259738115 L 349.5003739629712,455.01521773470154 L 355.38370910029164,440.00628105618415 L 340.61064202492014,433.55350632399734 L 355.3837091002916,427.10073159181053 L 349.5003739629712,412.09179491329314 L 364.5093106414886,417.9751300506136 Z" fill="none" stroke="#0F52BA" stroke-width="2.520860911356686" /><path d="M 438.4097372597982,403.2020629752421 L 444.862511991985,417.97513005061353 L 459.8714486705024,412.09179491329314 L 453.988113533182,427.10073159181053 L 468.76118060855345,433.55350632399734 L 453.988113533182,440.00628105618415 L 459.8714486705024,455.01521773470154 L 444.862511991985,449.13188259738115 L 438.4097372597982,463.9049496727526 L 431.9569625276114,449.13188259738115 L 416.948025849094,455.01521773470154 L 422.83136098641444,440.00628105618415 L 408.05829391104294,433.55350632399734 L 422.8313609864144,427.10073159181053 L 416.948025849094,412.09179491329314 L 431.9569625276114,417.9751300506136 Z" fill="none" stroke="#0F52BA" stroke-width="2.520860911356686" /><path d="M 505.857389145921,403.2020629752421 L 512.3101638781078,417.97513005061353 L 527.3191005566251,412.09179491329314 L 521.4357654193047,427.10073159181053 L 536.2088324946762,433.55350632399734 L 521.4357654193047,440.00628105618415 L 527.3191005566251,455.01521773470154 L 512.3101638781078,449.13188259738115 L 505.857389145921,463.9049496727526 L 499.4046144137342,449.13188259738115 L 484.3956777352168,455.01521773470154 L 490.27901287253724,440.00628105618415 L 475.50594579716574,433.55350632399734 L 490.2790128725372,427.10073159181053 L 484.3956777352168,412.09179491329314 L 499.4046144137342,417.9751300506136 Z" fill="none" stroke="#0F52BA" stroke-width="2.520860911356686" /><path d="M 573.3050410320438,403.2020629752421 L 579.7578157642306,417.97513005061353 L 594.766752442748,412.09179491329314 L 588.8834173054277,427.10073159181053 L 603.6564843807992,433.55350632399734 L 588.8834173054277,440.00628105618415 L 594.766752442748,455.01521773470154 L 579.7578157642306,449.13188259738115 L 573.3050410320438,463.9049496727526 L 566.8522662998571,449.13188259738115 L 551.8433296213396,455.01521773470154 L 557.72666475866,440.00628105618415 L 542.9535976832885,433.55350632399734 L 557.72666475866,427.10073159181053 L 551.8433296213396,412.09179491329314 L 566.8522662998571,417.9751300506136 Z" fill="none" stroke="#0F52BA" stroke-width="2.520860911356686" /><path d="M 1.8584898973277676e-15,461.6117295086244 L 6.4527747321868,476.38479658399586 L 21.46171141070418,470.5014614466755 L 15.578376273383785,485.51039812519286 L 30.35144334875526,491.9631728573797 L 15.578376273383785,498.4159475895665 L 21.46171141070418,513.4248842680838 L 6.4527747321868,507.5415491307635 L 1.8584898973277676e-15,522.3146162061349 L -6.452774732186797,507.5415491307635 L -21.46171141070418,513.4248842680838 L -15.57837627338378,498.4159475895665 L -30.35144334875526,491.9631728573797 L -15.578376273383784,485.51039812519286 L -21.461711410704183,470.5014614466755 L -6.452774732186808,476.3847965839959 Z" fill="none" stroke="#0F52BA" stroke-width="2.520860911356686" /><path d="M 67.4476518861228,461.6117295086244 L 73.9004266183096,476.38479658399586 L 88.90936329682698,470.5014614466755 L 83.02602815950658,485.51039812519286 L 97.79909523487805,491.9631728573797 L 83.02602815950658,498.4159475895665 L 88.90936329682698,513.4248842680838 L 73.9004266183096,507.5415491307635 L 67.4476518861228,522.3146162061349 L 60.994877153936,507.5415491307635 L 45.985940475418616,513.4248842680838 L 51.86927561273902,498.4159475895665 L 37.09620853736754,491.9631728573797 L 51.86927561273902,485.51039812519286 L 45.985940475418616,470.5014614466755 L 60.99487715393599,476.3847965839959 Z" fill="none" stroke="#0F52BA" stroke-width="2.520860911356686" /><path d="M 134.8953037722456,461.6117295086244 L 141.3480785044324,476.38479658399586 L 156.35701518294977,470.5014614466755 L 150.47368004562938,485.51039812519286 L 165.24674712100085,491.9631728573797 L 150.47368004562938,498.4159475895665 L 156.35701518294977,513.4248842680838 L 141.3480785044324,507.5415491307635 L 134.8953037722456,522.3146162061349 L 128.4425290400588,507.5415491307635 L 113.43359236154141,513.4248842680838 L 119.31692749886182,498.4159475895665 L 104.54386042349034,491.9631728573797 L 119.31692749886182,485.51039812519286 L 113.43359236154141,470.5014614466755 L 128.4425290400588,476.3847965839959 Z" fill="none" stroke="#0F52BA" stroke-width="2.520860911356686" /><path d="M 202.3429556583684,461.6117295086244 L 208.7957303905552,476.38479658399586 L 223.80466706907256,470.5014614466755 L 217.92133193175218,485.51039812519286 L 232.69439900712365,491.9631728573797 L 217.92133193175218,498.4159475895665 L 223.80466706907256,513.4248842680838 L 208.7957303905552,507.5415491307635 L 202.3429556583684,522.3146162061349 L 195.89018092618159,507.5415491307635 L 180.88124424766423,513.4248842680838 L 186.76457938498461,498.4159475895665 L 171.99151230961314,491.9631728573797 L 186.76457938498461,485.51039812519286 L 180.8812442476642,470.5014614466755 L 195.89018092618159,476.3847965839959 Z" fill="none" stroke="#0F52BA" stroke-width="2.520860911356686" /><path d="M 269.7906075444912,461.6117295086244 L 276.243382276678,476.38479658399586 L 291.2523189551954,470.5014614466755 L 285.368983817875,485.51039812519286 L 300.14205089324645,491.9631728573797 L 285.368983817875,498.4159475895665 L 291.2523189551954,513.4248842680838 L 276.243382276678,507.5415491307635 L 269.7906075444912,522.3146162061349 L 263.3378328123044,507.5415491307635 L 248.32889613378703,513.4248842680838 L 254.2122312711074,498.4159475895665 L 239.43916419573594,491.9631728573797 L 254.2122312711074,485.51039812519286 L 248.328896133787,470.5014614466755 L 263.3378328123044,476.3847965839959 Z" fill="none" stroke="#0F52BA" stroke-width="2.520860911356686" /><path d="M 337.238259430614,461.6117295086244 L 343.6910341628008,476.38479658399586 L 358.6999708413182,470.5014614466755 L 352.8166357039978,485.51039812519286 L 367.58970277936925,491.9631728573797 L 352.8166357039978,498.4159475895665 L 358.6999708413182,513.4248842680838 L 343.6910341628008,507.5415491307635 L 337.238259430614,522.3146162061349 L 330.7854846984272,507.5415491307635 L 315.7765480199098,513.4248842680838 L 321.65988315723024,498.4159475895665 L 306.88681608185874,491.9631728573797 L 321.6598831572302,485.51039812519286 L 315.7765480199098,470.5014614466755 L 330.7854846984272,476.3847965839959 Z" fill="none" stroke="#0F52BA" stroke-width="2.520860911356686" /><path d="M 404.6859113167368,461.6117295086244 L 411.1386860489236,476.38479658399586 L 426.147622727441,470.5014614466755 L 420.2642875901206,485.51039812519286 L 435.03735466549205,491.9631728573797 L 420.2642875901206,498.4159475895665 L 426.147622727441,513.4248842680838 L 411.1386860489236,507.5415491307635 L 404.6859113167368,522.3146162061349 L 398.23313658455,507.5415491307635 L 383.2241999060326,513.4248842680838 L 389.10753504335304,498.4159475895665 L 374.33446796798154,491.9631728573797 L 389.107535043353,485.51039812519286 L 383.2241999060326,470.5014614466755 L 398.23313658455,476.3847965839959 Z" fill="none" stroke="#0F52BA" stroke-width="2.520860911356686" /><path d="M 472.1335632028596,461.6117295086244 L 478.5863379350464,476.38479658399586 L 493.5952746135638,470.5014614466755 L 487.7119394762434,485.51039812519286 L 502.48500655161484,491.9631728573797 L 487.7119394762434,498.4159475895665 L 493.5952746135638,513.4248842680838 L 478.5863379350464,507.5415491307635 L 472.1335632028596,522.3146162061349 L 465.6807884706728,507.5415491307635 L 450.6718517921554,513.4248842680838 L 456.55518692947584,498.4159475895665 L 441.78211985410434,491.9631728573797 L 456.5551869294758,485.51039812519286 L 450.6718517921554,470.5014614466755 L 465.6807884706728,476.3847965839959 Z" fill="none" stroke="#0F52BA" stroke-width="2.520860911356686" /><path d="M 539.5812150889824,461.6117295086244 L 546.0339898211691,476.38479658399586 L 561.0429264996866,470.5014614466755 L 555.1595913623662,485.51039812519286 L 569.9326584377377,491.9631728573797 L 555.1595913623662,498.4159475895665 L 561.0429264996866,513.4248842680838 L 546.0339898211691,507.5415491307635 L 539.5812150889824,522.3146162061349 L 533.1284403567956,507.5415491307635 L 518.1195036782782,513.4248842680838 L 524.0028388155986,498.4159475895665 L 509.22977174022714,491.9631728573797 L 524.0028388155986,485.51039812519286 L 518.1195036782782,470.5014614466755 L 533.1284403567956,476.3847965839959 Z" fill="none" stroke="#0F52BA" stroke-width="2.520860911356686" /><line x1="30.35144334875526" y1="24.685840590320943" x2="37.09620853736754" y2="24.685840590320943" stroke="#0F52BA" stroke-width="0.5"/><line x1="97.79909523487805" y1="24.685840590320943" x2="104.54386042349034" y2="24.685840590320943" stroke="#0F52BA" stroke-width="0.5"/><line x1="165.24674712100085" y1="24.685840590320943" x2="171.99151230961314" y2="24.685840590320943" stroke="#0F52BA" stroke-width="0.5"/><line x1="232.69439900712365" y1="24.685840590320943" x2="239.43916419573594" y2="24.685840590320943" stroke="#0F52BA" stroke-width="0.5"/><line x1="300.14205089324645" y1="24.685840590320943" x2="306.88681608185874" y2="24.685840590320943" stroke="#0F52BA" stroke-width="0.5"/><line x1="367.58970277936925" y1="24.685840590320943" x2="374.33446796798154" y2="24.685840590320943" stroke="#0F52BA" stroke-width="0.5"/><line x1="435.03735466549205" y1="24.685840590320943" x2="441.78211985410434" y2="24.685840590320943" stroke="#0F52BA" stroke-width="0.5"/><line x1="502.48500655161484" y1="24.685840590320943" x2="509.22977174022714" y2="24.685840590320943" stroke="#0F52BA" stroke-width="0.5"/><line x1="64.07526929181665" y1="83.09550712370329" x2="70.82003448042894" y2="83.09550712370329" stroke="#0F52BA" stroke-width="0.5"/><line x1="131.52292117793945" y1="83.09550712370329" x2="138.26768636655174" y2="83.09550712370329" stroke="#0F52BA" stroke-width="0.5"/><line x1="198.97057306406225" y1="83.09550712370329" x2="205.71533825267454" y2="83.09550712370329" stroke="#0F52BA" stroke-width="0.5"/><line x1="266.41822495018505" y1="83.09550712370329" x2="273.16299013879734" y2="83.09550712370329" stroke="#0F52BA" stroke-width="0.5"/><line x1="333.86587683630785" y1="83.09550712370329" x2="340.61064202492014" y2="83.09550712370329" stroke="#0F52BA" stroke-width="0.5"/><line x1="401.31352872243065" y1="83.09550712370329" x2="408.05829391104294" y2="83.09550712370329" stroke="#0F52BA" stroke-width="0.5"/><line x1="468.76118060855345" y1="83.09550712370329" x2="475.50594579716574" y2="83.09550712370329" stroke="#0F52BA" stroke-width="0.5"/><line x1="30.35144334875526" y1="141.50517365708563" x2="37.09620853736754" y2="141.50517365708563" stroke="#0F52BA" stroke-width="0.5"/><line x1="97.79909523487805" y1="141.50517365708563" x2="104.54386042349034" y2="141.50517365708563" stroke="#0F52BA" stroke-width="0.5"/><line x1="165.24674712100085" y1="141.50517365708563" x2="171.99151230961314" y2="141.50517365708563" stroke="#0F52BA" stroke-width="0.5"/><line x1="232.69439900712365" y1="141.50517365708563" x2="239.43916419573594" y2="141.50517365708563" stroke="#0F52BA" stroke-width="0.5"/><line x1="300.14205089324645" y1="141.50517365708563" x2="306.88681608185874" y2="141.50517365708563" stroke="#0F52BA" stroke-width="0.5"/><line x1="367.58970277936925" y1="141.50517365708563" x2="374.33446796798154" y2="141.50517365708563" stroke="#0F52BA" stroke-width="0.5"/><line x1="435.03735466549205" y1="141.50517365708563" x2="441.78211985410434" y2="141.50517365708563" stroke="#0F52BA" stroke-width="0.5"/><line x1="502.48500655161484" y1="141.50517365708563" x2="509.22977174022714" y2="141.50517365708563" stroke="#0F52BA" stroke-width="0.5"/><line x1="64.07526929181665" y1="199.91484019046797" x2="70.82003448042894" y2="199.91484019046797" stroke="#0F52BA" stroke-width="0.5"/><line x1="131.52292117793945" y1="199.91484019046797" x2="138.26768636655174" y2="199.91484019046797" stroke="#0F52BA" stroke-width="0.5"/><line x1="198.97057306406225" y1="199.91484019046797" x2="205.71533825267454" y2="199.91484019046797" stroke="#0F52BA" stroke-width="0.5"/><line x1="266.41822495018505" y1="199.91484019046797" x2="273.16299013879734" y2="199.91484019046797" stroke="#0F52BA" stroke-width="0.5"/><line x1="333.86587683630785" y1="199.91484019046797" x2="340.61064202492014" y2="199.91484019046797" stroke="#0F52BA" stroke-width="0.5"/><line x1="401.31352872243065" y1="199.91484019046797" x2="408.05829391104294" y2="199.91484019046797" stroke="#0F52BA" stroke-width="0.5"/><line x1="468.76118060855345" y1="199.91484019046797" x2="475.50594579716574" y2="199.91484019046797" stroke="#0F52BA" stroke-width="0.5"/><line x1="30.35144334875526" y1="258.32450672385033" x2="37.09620853736754" y2="258.32450672385033" stroke="#0F52BA" stroke-width="0.5"/><line x1="97.79909523487805" y1="258.32450672385033" x2="104.54386042349034" y2="258.32450672385033" stroke="#0F52BA" stroke-width="0.5"/><line x1="165.24674712100085" y1="258.32450672385033" x2="171.99151230961314" y2="258.32450672385033" stroke="#0F52BA" stroke-width="0.5"/><line x1="232.69439900712365" y1="258.32450672385033" x2="239.43916419573594" y2="258.32450672385033" stroke="#0F52BA" stroke-width="0.5"/><line x1="300.14205089324645" y1="258.32450672385033" x2="306.88681608185874" y2="258.32450672385033" stroke="#0F52BA" stroke-width="0.5"/><line x1="367.58970277936925" y1="258.32450672385033" x2="374.33446796798154" y2="258.32450672385033" stroke="#0F52BA" stroke-width="0.5"/><line x1="435.03735466549205" y1="258.32450672385033" x2="441.78211985410434" y2="258.32450672385033" stroke="#0F52BA" stroke-width="0.5"/><line x1="502.48500655161484" y1="258.32450672385033" x2="509.22977174022714" y2="258.32450672385033" stroke="#0F52BA" stroke-width="0.5"/><line x1="64.07526929181665" y1="316.73417325723267" x2="70.82003448042894" y2="316.73417325723267" stroke="#0F52BA" stroke-width="0.5"/><line x1="131.52292117793945" y1="316.73417325723267" x2="138.26768636655174" y2="316.73417325723267" stroke="#0F52BA" stroke-width="0.5"/><line x1="198.97057306406225" y1="316.73417325723267" x2="205.71533825267454" y2="316.73417325723267" stroke="#0F52BA" stroke-width="0.5"/><line x1="266.41822495018505" y1="316.73417325723267" x2="273.16299013879734" y2="316.73417325723267" stroke="#0F52BA" stroke-width="0.5"/><line x1="333.86587683630785" y1="316.73417325723267" x2="340.61064202492014" y2="316.73417325723267" stroke="#0F52BA" stroke-width="0.5"/><line x1="401.31352872243065" y1="316.73417325723267" x2="408.05829391104294" y2="316.73417325723267" stroke="#0F52BA" stroke-width="0.5"/><line x1="468.76118060855345" y1="316.73417325723267" x2="475.50594579716574" y2="316.73417325723267" stroke="#0F52BA" stroke-width="0.5"/><line x1="30.35144334875526" y1="375.143839790615" x2="37.09620853736754" y2="375.143839790615" stroke="#0F52BA" stroke-width="0.5"/><line x1="97.79909523487805" y1="375.143839790615" x2="104.54386042349034" y2="375.143839790615" stroke="#0F52BA" stroke-width="0.5"/><line x1="165.24674712100085" y1="375.143839790615" x2="171.99151230961314" y2="375.143839790615" stroke="#0F52BA" stroke-width="0.5"/><line x1="232.69439900712365" y1="375.143839790615" x2="239.43916419573594" y2="375.143839790615" stroke="#0F52BA" stroke-width="0.5"/><line x1="300.14205089324645" y1="375.143839790615" x2="306.88681608185874" y2="375.143839790615" stroke="#0F52BA" stroke-width="0.5"/><line x1="367.58970277936925" y1="375.143839790615" x2="374.33446796798154" y2="375.143839790615" stroke="#0F52BA" stroke-width="0.5"/><line x1="435.03735466549205" y1="375.143839790615" x2="441.78211985410434" y2="375.143839790615" stroke="#0F52BA" stroke-width="0.5"/><line x1="502.48500655161484" y1="375.143839790615" x2="509.22977174022714" y2="375.143839790615" stroke="#0F52BA" stroke-width="0.5"/><line x1="64.07526929181665" y1="433.55350632399734" x2="70.82003448042894" y2="433.55350632399734" stroke="#0F52BA" stroke-width="0.5"/><line x1="131.52292117793945" y1="433.55350632399734" x2="138.26768636655174" y2="433.55350632399734" stroke="#0F52BA" stroke-width="0.5"/><line x1="198.97057306406225" y1="433.55350632399734" x2="205.71533825267454" y2="433.55350632399734" stroke="#0F52BA" stroke-width="0.5"/><line x1="266.41822495018505" y1="433.55350632399734" x2="273.16299013879734" y2="433.55350632399734" stroke="#0F52BA" stroke-width="0.5"/><line x1="333.86587683630785" y1="433.55350632399734" x2="340.61064202492014" y2="433.55350632399734" stroke="#0F52BA" stroke-width="0.5"/><line x1="401.31352872243065" y1="433.55350632399734" x2="408.05829391104294" y2="433.55350632399734" stroke="#0F52BA" stroke-width="0.5"/><line x1="468.76118060855345" y1="433.55350632399734" x2="475.50594579716574" y2="433.55350632399734" stroke="#0F52BA" stroke-width="0.5"/><line x1="30.35144334875526" y1="491.9631728573797" x2="37.09620853736754" y2="491.9631728573797" stroke="#0F52BA" stroke-width="0.5"/><line x1="97.79909523487805" y1="491.9631728573797" x2="104.54386042349034" y2="491.9631728573797" stroke="#0F52BA" stroke-width="0.5"/><line x1="165.24674712100085" y1="491.9631728573797" x2="171.99151230961314" y2="491.9631728573797" stroke="#0F52BA" stroke-width="0.5"/><line x1="232.69439900712365" y1="491.9631728573797" x2="239.43916419573594" y2="491.9631728573797" stroke="#0F52BA" stroke-width="0.5"/><line x1="300.14205089324645" y1="491.9631728573797" x2="306.88681608185874" y2="491.9631728573797" stroke="#0F52BA" stroke-width="0.5"/><line x1="367.58970277936925" y1="491.9631728573797" x2="374.33446796798154" y2="491.9631728573797" stroke="#0F52BA" stroke-width="0.5"/><line x1="435.03735466549205" y1="491.9631728573797" x2="441.78211985410434" y2="491.9631728573797" stroke="#0F52BA" stroke-width="0.5"/><line x1="502.48500655161484" y1="491.9631728573797" x2="509.22977174022714" y2="491.9631728573797" stroke="#0F52BA" stroke-width="0.5"/></g></svg>