<svg xmlns="http://www.w3.org/2000/svg" width="512" height="512" viewBox="0 0 512 512"><rect x="0" y="0" width="512" height="512" fill="#0D0D0D"/><g opacity="0.10405281039609239"><path d="M -63.6124450088519,-120.86364551681861 L -51.440730610290416,-92.99756298719092 L -23.129732898597922,-104.09515711910586 L -34.22732703051288,-75.78415940741338 L -6.361244500885192,-63.6124450088519 L -34.22732703051288,-51.440730610290416 L -23.129732898597922,-23.12973289859793 L -51.440730610290416,-34.22732703051288 L -63.6124450088519,-6.361244500885192 L -75.78415940741338,-34.22732703051288 L -104.09515711910586,-23.129732898597922 L -92.9975629871909,-51.4407306102904 L -120.86364551681861,-63.61244500885189 L -92.99756298719092,-75.7841594074134 L -104.09515711910589,-104.09515711910586 L -75.7841594074134,-92.9975629871909 Z" fill="none" stroke="#FFD700" stroke-width="0.6983129979103398" /><path d="M 63.6124450088519,-120.86364551681861 L 75.78415940741338,-92.99756298719092 L 104.09515711910588,-104.09515711910586 L 92.99756298719092,-75.78415940741338 L 120.86364551681861,-63.6124450088519 L 92.99756298719092,-51.440730610290416 L 104.09515711910588,-23.12973289859793 L 75.78415940741338,-34.22732703051288 L 63.6124450088519,-6.361244500885192 L 51.440730610290416,-34.22732703051288 L 23.12973289859793,-23.129732898597922 L 34.227327030512896,-51.4407306102904 L 6.361244500885192,-63.61244500885189 L 34.22732703051289,-75.7841594074134 L 23.129732898597915,-104.09515711910586 L 51.4407306102904,-92.9975629871909 Z" fill="none" stroke="#FFD700" stroke-width="0.6983129979103398" /><path d="M 190.8373350265557,-120.86364551681861 L 203.00904942511718,-92.99756298719092 L 231.32004713680968,-104.09515711910586 L 220.22245300489473,-75.78415940741338 L 248.0885355345224,-63.6124450088519 L 220.22245300489473,-51.440730610290416 L 231.32004713680968,-23.12973289859793 L 203.00904942511718,-34.22732703051288 L 190.8373350265557,-6.361244500885192 L 178.66562062799423,-34.22732703051288 L 150.35462291630174,-23.129732898597922 L 161.4522170482167,-51.4407306102904 L 133.586134518589,-63.61244500885189 L 161.4522170482167,-75.7841594074134 L 150.3546229163017,-104.09515711910586 L 178.6656206279942,-92.9975629871909 Z" fill="none" stroke="#FFD700" stroke-width="0.6983129979103398" /><path d="M 318.0622250442595,-120.86364551681861 L 330.233939442821,-92.99756298719092 L 358.5449371545135,-104.09515711910586 L 347.4473430225985,-75.78415940741338 L 375.3134255522262,-63.6124450088519 L 347.4473430225985,-51.440730610290416 L 358.5449371545135,-23.12973289859793 L 330.233939442821,-34.22732703051288 L 318.0622250442595,-6.361244500885192 L 305.890510645698,-34.22732703051288 L 277.5795129340055,-23.129732898597922 L 288.6771070659205,-51.4407306102904 L 260.8110245362928,-63.61244500885189 L 288.6771070659205,-75.7841594074134 L 277.5795129340055,-104.09515711910586 L 305.890510645698,-92.9975629871909 Z" fill="none" stroke="#FFD700" stroke-width="0.6983129979103398" /><path d="M 445.2871150619633,-120.86364551681861 L 457.4588294605248,-92.99756298719092 L 485.7698271722173,-104.09515711910586 L 474.6722330403023,-75.78415940741338 L 502.53831556993,-63.6124450088519 L 474.6722330403023,-51.440730610290416 L 485.7698271722173,-23.12973289859793 L 457.4588294605248,-34.22732703051288 L 445.2871150619633,-6.361244500885192 L 433.1154006634018,-34.22732703051288 L 404.80440295170933,-23.129732898597922 L 415.9019970836243,-51.4407306102904 L 388.0359145539966,-63.61244500885189 L 415.9019970836243,-75.7841594074134 L 404.8044029517093,-104.09515711910586 L 433.1154006634018,-92.9975629871909 Z" fill="none" stroke="#FFD700" stroke-width="0.6983129979103398" /><path d="M 572.5120050796671,-120.86364551681861 L 584.6837194782286,-92.99756298719092 L 612.9947171899211,-104.09515711910586 L 601.8971230580062,-75.78415940741338 L 629.7632055876338,-63.6124450088519 L 601.8971230580062,-51.440730610290416 L 612.9947171899211,-23.12973289859793 L 584.6837194782286,-34.22732703051288 L 572.5120050796671,-6.361244500885192 L 560.3402906811057,-34.22732703051288 L 532.0292929694132,-23.129732898597922 L 543.1268871013281,-51.4407306102904 L 515.2608045717004,-63.61244500885189 L 543.1268871013281,-75.7841594074134 L 532.0292929694132,-104.09515711910586 L 560.3402906811057,-92.9975629871909 Z" fill="none" stroke="#FFD700" stroke-width="0.6983129979103398" /><path d="M 3.5056249724712376e-15,-10.68689076148712 L 12.171714398561486,17.179191768140573 L 40.48271211025398,6.0815976362256166 L 29.385117978339014,34.3925953479181 L 57.25120050796671,46.56430974647959 L 29.385117978339014,58.73602414504107 L 40.48271211025398,87.04702185673355 L 12.171714398561486,75.9494277248186 L 3.5056249724712376e-15,103.8155102544463 L -12.171714398561482,75.9494277248186 L -40.48271211025397,87.04702185673356 L -29.385117978339007,58.736024145041085 L -57.25120050796671,46.564309746479594 L -29.38511797833901,34.392595347918096 L -40.482712110253985,6.0815976362256166 L -12.171714398561502,17.17919176814058 Z" fill="none" stroke="#FFD700" stroke-width="0.6983129979103398" /><path d="M 127.2248900177038,-10.68689076148712 L 139.3966044162653,17.179191768140573 L 167.70760212795778,6.0815976362256166 L 156.6100079960428,34.3925953479181 L 184.47609052567051,46.56430974647959 L 156.6100079960428,58.73602414504107 L 167.70760212795778,87.04702185673355 L 139.3966044162653,75.9494277248186 L 127.2248900177038,103.8155102544463 L 115.05317561914232,75.9494277248186 L 86.74217790744983,87.04702185673356 L 97.83977203936479,58.736024145041085 L 69.97368950973708,46.564309746479594 L 97.83977203936479,34.392595347918096 L 86.74217790744981,6.0815976362256166 L 115.0531756191423,17.17919176814058 Z" fill="none" stroke="#FFD700" stroke-width="0.6983129979103398" /><path d="M 254.4497800354076,-10.68689076148712 L 266.6214944339691,17.179191768140573 L 294.93249214566157,6.0815976362256166 L 283.8348980137466,34.3925953479181 L 311.7009805433743,46.56430974647959 L 283.8348980137466,58.73602414504107 L 294.93249214566157,87.04702185673355 L 266.6214944339691,75.9494277248186 L 254.4497800354076,103.8155102544463 L 242.27806563684612,75.9494277248186 L 213.96706792515363,87.04702185673356 L 225.0646620570686,58.736024145041085 L 197.1985795274409,46.564309746479594 L 225.06466205706857,34.392595347918096 L 213.96706792515363,6.0815976362256166 L 242.2780656368461,17.17919176814058 Z" fill="none" stroke="#FFD700" stroke-width="0.6983129979103398" /><path d="M 381.6746700531114,-10.68689076148712 L 393.8463844516729,17.179191768140573 L 422.1573821633654,6.0815976362256166 L 411.0597880314504,34.3925953479181 L 438.9258705610781,46.56430974647959 L 411.0597880314504,58.73602414504107 L 422.1573821633654,87.04702185673355 L 393.8463844516729,75.9494277248186 L 381.6746700531114,103.8155102544463 L 369.5029556545499,75.9494277248186 L 341.19195794285747,87.04702185673356 L 352.2895520747724,58.736024145041085 L 324.4234695451447,46.564309746479594 L 352.2895520747724,34.392595347918096 L 341.1919579428574,6.0815976362256166 L 369.5029556545499,17.17919176814058 Z" fill="none" stroke="#FFD700" stroke-width="0.6983129979103398" /><path d="M 508.8995600708152,-10.68689076148712 L 521.0712744693767,17.179191768140573 L 549.3822721810692,6.0815976362256166 L 538.2846780491542,34.3925953479181 L 566.150760578782,46.56430974647959 L 538.2846780491542,58.73602414504107 L 549.3822721810692,87.04702185673355 L 521.0712744693767,75.9494277248186 L 508.8995600708152,103.8155102544463 L 496.7278456722537,75.9494277248186 L 468.4168479605612,87.04702185673356 L 479.5144420924762,58.736024145041085 L 451.6483595628485,46.564309746479594 L 479.5144420924762,34.392595347918096 L 468.4168479605612,6.0815976362256166 L 496.7278456722537,17.17919176814058 Z" fill="none" stroke="#FFD700" stroke-width="0.6983129979103398" /><path d="M 636.124450088519,-10.68689076148712 L 648.2961644870804,17.179191768140573 L 676.6071621987729,6.0815976362256166 L 665.509568066858,34.3925953479181 L 693.3756505964857,46.56430974647959 L 665.509568066858,58.73602414504107 L 676.6071621987729,87.04702185673355 L 648.2961644870804,75.9494277248186 L 636.124450088519,103.8155102544463 L 623.9527356899575,75.9494277248186 L 595.641737978265,87.04702185673356 L 606.7393321101799,58.736024145041085 L 578.8732495805523,46.564309746479594 L 606.7393321101799,34.392595347918096 L 595.641737978265,6.0815976362256166 L 623.9527356899575,17.17919176814058 Z" fill="none" stroke="#FFD700" stroke-width="0.6983129979103398" /><path d="M -63.6124450088519,99.48986399384438 L -51.440730610290416,127.35594652347207 L -23.129732898597922,116.25835239155711 L -34.22732703051288,144.5693501032496 L -6.361244500885192,156.74106450181108 L -34.22732703051288,168.91277890037256 L -23.129732898597922,197.22377661206505 L -51.440730610290416,186.1261824801501 L -63.6124450088519,213.99226500977778 L -75.78415940741338,186.1261824801501 L -104.09515711910586,197.22377661206505 L -92.9975629871909,168.9127789003726 L -120.86364551681861,156.74106450181108 L -92.99756298719092,144.56935010324958 L -104.09515711910589,116.25835239155711 L -75.7841594074134,127.35594652347207 Z" fill="none" stroke="#FFD700" stroke-width="0.6983129979103398" /><path d="M 63.6124450088519,99.48986399384438 L 75.78415940741338,127.35594652347207 L 104.09515711910588,116.25835239155711 L 92.99756298719092,144.5693501032496 L 120.86364551681861,156.74106450181108 L 92.99756298719092,168.91277890037256 L 104.09515711910588,197.22377661206505 L 75.78415940741338,186.1261824801501 L 63.6124450088519,213.99226500977778 L 51.440730610290416,186.1261824801501 L 23.12973289859793,197.22377661206505 L 34.227327030512896,168.9127789003726 L 6.361244500885192,156.74106450181108 L 34.22732703051289,144.56935010324958 L 23.129732898597915,116.25835239155711 L 51.4407306102904,127.35594652347207 Z" fill="none" stroke="#FFD700" stroke-width="0.6983129979103398" /><path d="M 190.8373350265557,99.48986399384438 L 203.00904942511718,127.35594652347207 L 231.32004713680968,116.25835239155711 L 220.22245300489473,144.5693501032496 L 248.0885355345224,156.74106450181108 L 220.22245300489473,168.91277890037256 L 231.32004713680968,197.22377661206505 L 203.00904942511718,186.1261824801501 L 190.8373350265557,213.99226500977778 L 178.66562062799423,186.1261824801501 L 150.35462291630174,197.22377661206505 L 161.4522170482167,168.9127789003726 L 133.586134518589,156.74106450181108 L 161.4522170482167,144.56935010324958 L 150.3546229163017,116.25835239155711 L 178.6656206279942,127.35594652347207 Z" fill="none" stroke="#FFD700" stroke-width="0.6983129979103398" /><path d="M 318.0622250442595,99.48986399384438 L 330.233939442821,127.35594652347207 L 358.5449371545135,116.25835239155711 L 347.4473430225985,144.5693501032496 L 375.3134255522262,156.74106450181108 L 347.4473430225985,168.91277890037256 L 358.5449371545135,197.22377661206505 L 330.233939442821,186.1261824801501 L 318.0622250442595,213.99226500977778 L 305.890510645698,186.1261824801501 L 277.5795129340055,197.22377661206505 L 288.6771070659205,168.9127789003726 L 260.8110245362928,156.74106450181108 L 288.6771070659205,144.56935010324958 L 277.5795129340055,116.25835239155711 L 305.890510645698,127.35594652347207 Z" fill="none" stroke="#FFD700" stroke-width="0.6983129979103398" /><path d="M 445.2871150619633,99.48986399384438 L 457.4588294605248,127.35594652347207 L 485.7698271722173,116.25835239155711 L 474.6722330403023,144.5693501032496 L 502.53831556993,156.74106450181108 L 474.6722330403023,168.91277890037256 L 485.7698271722173,197.22377661206505 L 457.4588294605248,186.1261824801501 L 445.2871150619633,213.99226500977778 L 433.1154006634018,186.1261824801501 L 404.80440295170933,197.22377661206505 L 415.9019970836243,168.9127789003726 L 388.0359145539966,156.74106450181108 L 415.9019970836243,144.56935010324958 L 404.8044029517093,116.25835239155711 L 433.1154006634018,127.35594652347207 Z" fill="none" stroke="#FFD700" stroke-width="0.6983129979103398" /><path d="M 572.5120050796671,99.48986399384438 L 584.6837194782286,127.35594652347207 L 612.9947171899211,116.25835239155711 L 601.8971230580062,144.5693501032496 L 629.7632055876338,156.74106450181108 L 601.8971230580062,168.91277890037256 L 612.9947171899211,197.22377661206505 L 584.6837194782286,186.1261824801501 L 572.5120050796671,213.99226500977778 L 560.3402906811057,186.1261824801501 L 532.0292929694132,197.22377661206505 L 543.1268871013281,168.9127789003726 L 515.2608045717004,156.74106450181108 L 543.1268871013281,144.56935010324958 L 532.0292929694132,116.25835239155711 L 560.3402906811057,127.35594652347207 Z" fill="none" stroke="#FFD700" stroke-width="0.6983129979103398" /><path d="M 3.5056249724712376e-15,209.66661874917588 L 12.171714398561486,237.53270127880356 L 40.48271211025398,226.4351071468886 L 29.385117978339014,254.7461048585811 L 57.25120050796671,266.9178192571426 L 29.385117978339014,279.0895336557041 L 40.48271211025398,307.4005313673965 L 12.171714398561486,296.3029372354816 L 3.5056249724712376e-15,324.1690197651093 L -12.171714398561482,296.3029372354816 L -40.48271211025397,307.4005313673966 L -29.385117978339007,279.0895336557041 L -57.25120050796671,266.9178192571426 L -29.38511797833901,254.74610485858108 L -40.482712110253985,226.4351071468886 L -12.171714398561502,237.5327012788036 Z" fill="none" stroke="#FFD700" stroke-width="0.6983129979103398" /><path d="M 127.2248900177038,209.66661874917588 L 139.3966044162653,237.53270127880356 L 167.70760212795778,226.4351071468886 L 156.6100079960428,254.7461048585811 L 184.47609052567051,266.9178192571426 L 156.6100079960428,279.0895336557041 L 167.70760212795778,307.4005313673965 L 139.3966044162653,296.3029372354816 L 127.2248900177038,324.1690197651093 L 115.05317561914232,296.3029372354816 L 86.74217790744983,307.4005313673966 L 97.83977203936479,279.0895336557041 L 69.97368950973708,266.9178192571426 L 97.83977203936479,254.74610485858108 L 86.74217790744981,226.4351071468886 L 115.0531756191423,237.5327012788036 Z" fill="none" stroke="#FFD700" stroke-width="0.6983129979103398" /><path d="M 254.4497800354076,209.66661874917588 L 266.6214944339691,237.53270127880356 L 294.93249214566157,226.4351071468886 L 283.8348980137466,254.7461048585811 L 311.7009805433743,266.9178192571426 L 283.8348980137466,279.0895336557041 L 294.93249214566157,307.4005313673965 L 266.6214944339691,296.3029372354816 L 254.4497800354076,324.1690197651093 L 242.27806563684612,296.3029372354816 L 213.96706792515363,307.4005313673966 L 225.0646620570686,279.0895336557041 L 197.1985795274409,266.9178192571426 L 225.06466205706857,254.74610485858108 L 213.96706792515363,226.4351071468886 L 242.2780656368461,237.5327012788036 Z" fill="none" stroke="#FFD700" stroke-width="0.6983129979103398" /><path d="M 381.6746700531114,209.66661874917588 L 393.8463844516729,237.53270127880356 L 422.1573821633654,226.4351071468886 L 411.0597880314504,254.7461048585811 L 438.9258705610781,266.9178192571426 L 411.0597880314504,279.0895336557041 L 422.1573821633654,307.4005313673965 L 393.8463844516729,296.3029372354816 L 381.6746700531114,324.1690197651093 L 369.5029556545499,296.3029372354816 L 341.19195794285747,307.4005313673966 L 352.2895520747724,279.0895336557041 L 324.4234695451447,266.9178192571426 L 352.2895520747724,254.74610485858108 L 341.1919579428574,226.4351071468886 L 369.5029556545499,237.5327012788036 Z" fill="none" stroke="#FFD700" stroke-width="0.6983129979103398" /><path d="M 508.8995600708152,209.66661874917588 L 521.0712744693767,237.53270127880356 L 549.3822721810692,226.4351071468886 L 538.2846780491542,254.7461048585811 L 566.150760578782,266.9178192571426 L 538.2846780491542,279.0895336557041 L 549.3822721810692,307.4005313673965 L 521.0712744693767,296.3029372354816 L 508.8995600708152,324.1690197651093 L 496.7278456722537,296.3029372354816 L 468.4168479605612,307.4005313673966 L 479.5144420924762,279.0895336557041 L 451.6483595628485,266.9178192571426 L 479.5144420924762,254.74610485858108 L 468.4168479605612,226.4351071468886 L 496.7278456722537,237.5327012788036 Z" fill="none" stroke="#FFD700" stroke-width="0.6983129979103398" /><path d="M 636.124450088519,209.66661874917588 L 648.2961644870804,237.53270127880356 L 676.6071621987729,226.4351071468886 L 665.509568066858,254.7461048585811 L 693.3756505964857,266.9178192571426 L 665.509568066858,279.0895336557041 L 676.6071621987729,307.4005313673965 L 648.2961644870804,296.3029372354816 L 636.124450088519,324.1690197651093 L 623.9527356899575,296.3029372354816 L 595.641737978265,307.4005313673966 L 606.7393321101799,279.0895336557041 L 578.8732495805523,266.9178192571426 L 606.7393321101799,254.74610485858108 L 595.641737978265,226.4351071468886 L 623.9527356899575,237.5327012788036 Z" fill="none" stroke="#FFD700" stroke-width="0.6983129979103398" /><path d="M -63.6124450088519,319.8433735045073 L -51.440730610290416,347.70945603413503 L -23.129732898597922,336.6118619022201 L -34.22732703051288,364.9228596139125 L -6.361244500885192,377.094574012474 L -34.22732703051288,389.26628841103553 L -23.129732898597922,417.57728612272797 L -51.440730610290416,406.479691990813 L -63.6124450088519,434.3457745204407 L -75.78415940741338,406.479691990813 L -104.09515711910586,417.577286122728 L -92.9975629871909,389.26628841103553 L -120.86364551681861,377.094574012474 L -92.99756298719092,364.9228596139125 L -104.09515711910589,336.6118619022201 L -75.7841594074134,347.70945603413503 Z" fill="none" stroke="#FFD700" stroke-width="0.6983129979103398" /><path d="M 63.6124450088519,319.8433735045073 L 75.78415940741338,347.70945603413503 L 104.09515711910588,336.6118619022201 L 92.99756298719092,364.9228596139125 L 120.86364551681861,377.094574012474 L 92.99756298719092,389.26628841103553 L 104.09515711910588,417.57728612272797 L 75.78415940741338,406.479691990813 L 63.6124450088519,434.3457745204407 L 51.440730610290416,406.479691990813 L 23.12973289859793,417.577286122728 L 34.227327030512896,389.26628841103553 L 6.361244500885192,377.094574012474 L 34.22732703051289,364.9228596139125 L 23.129732898597915,336.6118619022201 L 51.4407306102904,347.70945603413503 Z" fill="none" stroke="#FFD700" stroke-width="0.6983129979103398" /><path d="M 190.8373350265557,319.8433735045073 L 203.00904942511718,347.70945603413503 L 231.32004713680968,336.6118619022201 L 220.22245300489473,364.9228596139125 L 248.0885355345224,377.094574012474 L 220.22245300489473,389.26628841103553 L 231.32004713680968,417.57728612272797 L 203.00904942511718,406.479691990813 L 190.8373350265557,434.3457745204407 L 178.66562062799423,406.479691990813 L 150.35462291630174,417.577286122728 L 161.4522170482167,389.26628841103553 L 133.586134518589,377.094574012474 L 161.4522170482167,364.9228596139125 L 150.3546229163017,336.6118619022201 L 178.6656206279942,347.70945603413503 Z" fill="none" stroke="#FFD700" stroke-width="0.6983129979103398" /><path d="M 318.0622250442595,319.8433735045073 L 330.233939442821,347.70945603413503 L 358.5449371545135,336.6118619022201 L 347.4473430225985,364.9228596139125 L 375.3134255522262,377.094574012474 L 347.4473430225985,389.26628841103553 L 358.5449371545135,417.57728612272797 L 330.233939442821,406.479691990813 L 318.0622250442595,434.3457745204407 L 305.890510645698,406.479691990813 L 277.5795129340055,417.577286122728 L 288.6771070659205,389.26628841103553 L 260.8110245362928,377.094574012474 L 288.6771070659205,364.9228596139125 L 277.5795129340055,336.6118619022201 L 305.890510645698,347.70945603413503 Z" fill="none" stroke="#FFD700" stroke-width="0.6983129979103398" /><path d="M 445.2871150619633,319.8433735045073 L 457.4588294605248,347.70945603413503 L 485.7698271722173,336.6118619022201 L 474.6722330403023,364.9228596139125 L 502.53831556993,377.094574012474 L 474.6722330403023,389.26628841103553 L 485.7698271722173,417.57728612272797 L 457.4588294605248,406.479691990813 L 445.2871150619633,434.3457745204407 L 433.1154006634018,406.479691990813 L 404.80440295170933,417.577286122728 L 415.9019970836243,389.26628841103553 L 388.0359145539966,377.094574012474 L 415.9019970836243,364.9228596139125 L 404.8044029517093,336.6118619022201 L 433.1154006634018,347.70945603413503 Z" fill="none" stroke="#FFD700" stroke-width="0.6983129979103398" /><path d="M 572.5120050796671,319.8433735045073 L 584.6837194782286,347.70945603413503 L 612.9947171899211,336.6118619022201 L 601.8971230580062,364.9228596139125 L 629.7632055876338,377.094574012474 L 601.8971230580062,389.26628841103553 L 612.9947171899211,417.57728612272797 L 584.6837194782286,406.479691990813 L 572.5120050796671,434.3457745204407 L 560.3402906811057,406.479691990813 L 532.0292929694132,417.577286122728 L 543.1268871013281,389.26628841103553 L 515.2608045717004,377.094574012474 L 543.1268871013281,364.9228596139125 L 532.0292929694132,336.6118619022201 L 560.3402906811057,347.70945603413503 Z" fill="none" stroke="#FFD700" stroke-width="0.6983129979103398" /><path d="M 3.5056249724712376e-15,430.0201282598388 L 12.171714398561486,457.88621078946653 L 40.48271211025398,446.78861665755153 L 29.385117978339014,475.099614369244 L 57.25120050796671,487.2713287678055 L 29.385117978339014,499.44304316636703 L 40.48271211025398,527.7540408780595 L 12.171714398561486,516.6564467461445 L 3.5056249724712376e-15,544.5225292757723 L -12.171714398561482,516.6564467461445 L -40.48271211025397,527.7540408780595 L -29.385117978339007,499.44304316636703 L -57.25120050796671,487.2713287678055 L -29.38511797833901,475.099614369244 L -40.482712110253985,446.78861665755153 L -12.171714398561502,457.88621078946653 Z" fill="none" stroke="#FFD700" stroke-width="0.6983129979103398" /><path d="M 127.2248900177038,430.0201282598388 L 139.3966044162653,457.88621078946653 L 167.70760212795778,446.78861665755153 L 156.6100079960428,475.099614369244 L 184.47609052567051,487.2713287678055 L 156.6100079960428,499.44304316636703 L 167.70760212795778,527.7540408780595 L 139.3966044162653,516.6564467461445 L 127.2248900177038,544.5225292757723 L 115.05317561914232,516.6564467461445 L 86.74217790744983,527.7540408780595 L 97.83977203936479,499.44304316636703 L 69.97368950973708,487.2713287678055 L 97.83977203936479,475.099614369244 L 86.74217790744981,446.78861665755153 L 115.0531756191423,457.88621078946653 Z" fill="none" stroke="#FFD700" stroke-width="0.6983129979103398" /><path d="M 254.4497800354076,430.0201282598388 L 266.6214944339691,457.88621078946653 L 294.93249214566157,446.78861665755153 L 283.8348980137466,475.099614369244 L 311.7009805433743,487.2713287678055 L 283.8348980137466,499.44304316636703 L 294.93249214566157,527.7540408780595 L 266.6214944339691,516.6564467461445 L 254.4497800354076,544.5225292757723 L 242.27806563684612,516.6564467461445 L 213.96706792515363,527.7540408780595 L 225.0646620570686,499.44304316636703 L 197.1985795274409,487.2713287678055 L 225.06466205706857,475.099614369244 L 213.96706792515363,446.78861665755153 L 242.2780656368461,457.88621078946653 Z" fill="none" stroke="#FFD700" stroke-width="0.6983129979103398" /><path d="M 381.6746700531114,430.0201282598388 L 393.8463844516729,457.88621078946653 L 422.1573821633654,446.78861665755153 L 411.0597880314504,475.099614369244 L 438.9258705610781,487.2713287678055 L 411.0597880314504,499.44304316636703 L 422.1573821633654,527.7540408780595 L 393.8463844516729,516.6564467461445 L 381.6746700531114,544.5225292757723 L 369.5029556545499,516.6564467461445 L 341.19195794285747,527.7540408780595 L 352.2895520747724,499.44304316636703 L 324.4234695451447,487.2713287678055 L 352.2895520747724,475.099614369244 L 341.1919579428574,446.78861665755153 L 369.5029556545499,457.88621078946653 Z" fill="none" stroke="#FFD700" stroke-width="0.6983129979103398" /><path d="M 508.8995600708152,430.0201282598388 L 521.0712744693767,457.88621078946653 L 549.3822721810692,446.78861665755153 L 538.2846780491542,475.099614369244 L 566.150760578782,487.2713287678055 L 538.2846780491542,499.44304316636703 L 549.3822721810692,527.7540408780595 L 521.0712744693767,516.6564467461445 L 508.8995600708152,544.5225292757723 L 496.7278456722537,516.6564467461445 L 468.4168479605612,527.7540408780595 L 479.5144420924762,499.44304316636703 L 451.6483595628485,487.2713287678055 L 479.5144420924762,475.099614369244 L 468.4168479605612,446.78861665755153 L 496.7278456722537,457.88621078946653 Z" fill="none" stroke="#FFD700" stroke-width="0.6983129979103398" /><path d="M 636.124450088519,430.0201282598388 L 648.2961644870804,457.88621078946653 L 676.6071621987729,446.78861665755153 L 665.509568066858,475.099614369244 L 693.3756505964857,487.2713287678055 L 665.509568066858,499.44304316636703 L 676.6071621987729,527.7540408780595 L 648.2961644870804,516.6564467461445 L 636.124450088519,544.5225292757723 L 623.9527356899575,516.6564467461445 L 595.641737978265,527.7540408780595 L 606.7393321101799,499.44304316636703 L 578.8732495805523,487.2713287678055 L 606.7393321101799,475.099614369244 L 595.641737978265,446.78861665755153 L 623.9527356899575,457.88621078946653 Z" fill="none" stroke="#FFD700" stroke-width="0.6983129979103398" /><path d="M -63.6124450088519,540.1968830151704 L -51.440730610290416,568.0629655447981 L -23.129732898597922,556.9653714128832 L -34.22732703051288,585.2763691245757 L -6.361244500885192,597.4480835231371 L -34.22732703051288,609.6197979216986 L -23.129732898597922,637.9307956333911 L -51.440730610290416,626.8332015014762 L -63.6124450088519,654.6992840311038 L -75.78415940741338,626.8332015014762 L -104.09515711910586,637.9307956333911 L -92.9975629871909,609.6197979216986 L -120.86364551681861,597.4480835231371 L -92.99756298719092,585.2763691245757 L -104.09515711910589,556.9653714128832 L -75.7841594074134,568.0629655447981 Z" fill="none" stroke="#FFD700" stroke-width="0.6983129979103398" /><path d="M 63.6124450088519,540.1968830151704 L 75.78415940741338,568.0629655447981 L 104.09515711910588,556.9653714128832 L 92.99756298719092,585.2763691245757 L 120.86364551681861,597.4480835231371 L 92.99756298719092,609.6197979216986 L 104.09515711910588,637.9307956333911 L 75.78415940741338,626.8332015014762 L 63.6124450088519,654.6992840311038 L 51.440730610290416,626.8332015014762 L 23.12973289859793,637.9307956333911 L 34.227327030512896,609.6197979216986 L 6.361244500885192,597.4480835231371 L 34.22732703051289,585.2763691245757 L 23.129732898597915,556.9653714128832 L 51.4407306102904,568.0629655447981 Z" fill="none" stroke="#FFD700" stroke-width="0.6983129979103398" /><path d="M 190.8373350265557,540.1968830151704 L 203.00904942511718,568.0629655447981 L 231.32004713680968,556.9653714128832 L 220.22245300489473,585.2763691245757 L 248.0885355345224,597.4480835231371 L 220.22245300489473,609.6197979216986 L 231.32004713680968,637.9307956333911 L 203.00904942511718,626.8332015014762 L 190.8373350265557,654.6992840311038 L 178.66562062799423,626.8332015014762 L 150.35462291630174,637.9307956333911 L 161.4522170482167,609.6197979216986 L 133.586134518589,597.4480835231371 L 161.4522170482167,585.2763691245757 L 150.3546229163017,556.9653714128832 L 178.6656206279942,568.0629655447981 Z" fill="none" stroke="#FFD700" stroke-width="0.6983129979103398" /><path d="M 318.0622250442595,540.1968830151704 L 330.233939442821,568.0629655447981 L 358.5449371545135,556.9653714128832 L 347.4473430225985,585.2763691245757 L 375.3134255522262,597.4480835231371 L 347.4473430225985,609.6197979216986 L 358.5449371545135,637.9307956333911 L 330.233939442821,626.8332015014762 L 318.0622250442595,654.6992840311038 L 305.890510645698,626.8332015014762 L 277.5795129340055,637.9307956333911 L 288.6771070659205,609.6197979216986 L 260.8110245362928,597.4480835231371 L 288.6771070659205,585.2763691245757 L 277.5795129340055,556.9653714128832 L 305.890510645698,568.0629655447981 Z" fill="none" stroke="#FFD700" stroke-width="0.6983129979103398" /><path d="M 445.2871150619633,540.1968830151704 L 457.4588294605248,568.0629655447981 L 485.7698271722173,556.9653714128832 L 474.6722330403023,585.2763691245757 L 502.53831556993,597.4480835231371 L 474.6722330403023,609.6197979216986 L 485.7698271722173,637.9307956333911 L 457.4588294605248,626.8332015014762 L 445.2871150619633,654.6992840311038 L 433.1154006634018,626.8332015014762 L 404.80440295170933,637.9307956333911 L 415.9019970836243,609.6197979216986 L 388.0359145539966,597.4480835231371 L 415.9019970836243,585.2763691245757 L 404.8044029517093,556.9653714128832 L 433.1154006634018,568.0629655447981 Z" fill="none" stroke="#FFD700" stroke-width="0.6983129979103398" /><path d="M 572.5120050796671,540.1968830151704 L 584.6837194782286,568.0629655447981 L 612.9947171899211,556.9653714128832 L 601.8971230580062,585.2763691245757 L 629.7632055876338,597.4480835231371 L 601.8971230580062,609.6197979216986 L 612.9947171899211,637.9307956333911 L 584.6837194782286,626.8332015014762 L 572.5120050796671,654.6992840311038 L 560.3402906811057,626.8332015014762 L 532.0292929694132,637.9307956333911 L 543.1268871013281,609.6197979216986 L 515.2608045717004,597.4480835231371 L 543.1268871013281,585.2763691245757 L 532.0292929694132,556.9653714128832 L 560.3402906811057,568.0629655447981 Z" fill="none" stroke="#FFD700" stroke-width="0.6983129979103398" /><line x1="57.25120050796671" y1="46.56430974647959" x2="69.97368950973708" y2="46.56430974647959" stroke="#FFD700" stroke-width="0.5"/><line x1="184.47609052567051" y1="46.56430974647959" x2="197.1985795274409" y2="46.56430974647959" stroke="#FFD700" stroke-width="0.5"/><line x1="311.7009805433743" y1="46.56430974647959" x2="324.4234695451447" y2="46.56430974647959" stroke="#FFD700" stroke-width="0.5"/><line x1="438.9258705610781" y1="46.56430974647959" x2="451.6483595628485" y2="46.56430974647959" stroke="#FFD700" stroke-width="0.5"/><line x1="120.86364551681861" y1="156.74106450181108" x2="133.586134518589" y2="156.74106450181108" stroke="#FFD700" stroke-width="0.5"/><line x1="248.0885355345224" y1="156.74106450181108" x2="260.8110245362928" y2="156.74106450181108" stroke="#FFD700" stroke-width="0.5"/><line x1="375.3134255522262" y1="156.74106450181108" x2="388.0359145539966" y2="156.74106450181108" stroke="#FFD700" stroke-width="0.5"/><line x1="57.25120050796671" y1="266.9178192571426" x2="69.97368950973708" y2="266.9178192571426" stroke="#FFD700" stroke-width="0.5"/><line x1="184.47609052567051" y1="266.9178192571426" x2="197.1985795274409" y2="266.9178192571426" stroke="#FFD700" stroke-width="0.5"/><line x1="311.7009805433743" y1="266.9178192571426" x2="324.4234695451447" y2="266.9178192571426" stroke="#FFD700" stroke-width="0.5"/><line x1="438.9258705610781" y1="266.9178192571426" x2="451.6483595628485" y2="266.9178192571426" stroke="#FFD700" stroke-width="0.5"/><line x1="120.86364551681861" y1="377.094574012474" x2="133.586134518589" y2="377.094574012474" stroke="#FFD700" stroke-width="0.5"/><line x1="248.0885355345224" y1="377.094574012474" x2="260.8110245362928" y2="377.094574012474" stroke="#FFD700" stroke-width="0.5"/><line x1="375.3134255522262" y1="377.094574012474" x2="388.0359145539966" y2="377.094574012474" stroke="#FFD700" stroke-width="0.5"/><line x1="57.25120050796671" y1="487.2713287678055" x2="69.97368950973708" y2="487.2713287678055" stroke="#FFD700" stroke-width="0.5"/><line x1="184.47609052567051" y1="487.2713287678055" x2="197.1985795274409" y2="487.2713287678055" stroke="#FFD700" stroke-width="0.5"/><line x1="311.7009805433743" y1="487.2713287678055" x2="324.4234695451447" y2="487.2713287678055" stroke="#FFD700" stroke-width="0.5"/><line x1="438.9258705610781" y1="487.2713287678055" x2="451.6483595628485" y2="487.2713287678055" stroke="#FFD700" stroke-width="0.5"/></g></svg>