<svg xmlns="http://www.w3.org/2000/svg" width="512" height="512" viewBox="0 0 512 512"><rect x="0" y="0" width="512" height="512" fill="#0D0D0D"/><g opacity="0.19003114557826478"><path d="M -55.926203418005265,-106.25978649421 L -45.225187676430025,-81.76074075248418 L -20.334985503404447,-91.51742133260608 L -30.09166608352635,-66.6272191595805 L -5.592620341800526,-55.926203418005265 L -30.09166608352635,-45.22518767643003 L -20.334985503404447,-20.334985503404454 L -45.225187676430025,-30.09166608352635 L -55.926203418005265,-5.592620341800526 L -66.6272191595805,-30.09166608352635 L -91.51742133260608,-20.334985503404447 L -81.76074075248417,-45.22518767643002 L -106.25978649421,-55.92620341800526 L -81.76074075248418,-66.6272191595805 L -91.51742133260609,-91.51742133260608 L -66.62721915958052,-81.76074075248417 Z" fill="none" stroke="#FFD700" stroke-width="2.019592405073155" /><path d="M 55.926203418005265,-106.25978649421 L 66.6272191595805,-81.76074075248418 L 91.51742133260609,-91.51742133260608 L 81.76074075248418,-66.6272191595805 L 106.25978649421,-55.926203418005265 L 81.76074075248418,-45.22518767643003 L 91.51742133260609,-20.334985503404454 L 66.6272191595805,-30.09166608352635 L 55.926203418005265,-5.592620341800526 L 45.22518767643003,-30.09166608352635 L 20.334985503404454,-20.334985503404447 L 30.091666083526356,-45.22518767643002 L 5.592620341800526,-55.92620341800526 L 30.091666083526352,-66.6272191595805 L 20.33498550340444,-91.51742133260608 L 45.22518767643001,-81.76074075248417 Z" fill="none" stroke="#FFD700" stroke-width="2.019592405073155" /><path d="M 167.7786102540158,-106.25978649421 L 178.47962599559105,-81.76074075248418 L 203.3698281686166,-91.51742133260608 L 193.6131475884947,-66.6272191595805 L 218.11219333022055,-55.926203418005265 L 193.6131475884947,-45.22518767643003 L 203.3698281686166,-20.334985503404454 L 178.47962599559105,-30.09166608352635 L 167.7786102540158,-5.592620341800526 L 157.07759451244056,-30.09166608352635 L 132.187392339415,-20.334985503404447 L 141.9440729195369,-45.22518767643002 L 117.44502717781106,-55.92620341800526 L 141.9440729195369,-66.6272191595805 L 132.18739233941497,-91.51742133260608 L 157.07759451244056,-81.76074075248417 Z" fill="none" stroke="#FFD700" stroke-width="2.019592405073155" /><path d="M 279.6310170900263,-106.25978649421 L 290.33203283160157,-81.76074075248418 L 315.2222350046271,-91.51742133260608 L 305.4655544245052,-66.6272191595805 L 329.96460016623104,-55.926203418005265 L 305.4655544245052,-45.22518767643003 L 315.2222350046271,-20.334985503404454 L 290.33203283160157,-30.09166608352635 L 279.6310170900263,-5.592620341800526 L 268.93000134845107,-30.09166608352635 L 244.03979917542551,-20.334985503404447 L 253.7964797555474,-45.22518767643002 L 229.29743401382157,-55.92620341800526 L 253.7964797555474,-66.6272191595805 L 244.0397991754255,-91.51742133260608 L 268.93000134845107,-81.76074075248417 Z" fill="none" stroke="#FFD700" stroke-width="2.019592405073155" /><path d="M 391.48342392603683,-106.25978649421 L 402.1844396676121,-81.76074075248418 L 427.07464184063764,-91.51742133260608 L 417.31796126051574,-66.6272191595805 L 441.81700700224155,-55.926203418005265 L 417.31796126051574,-45.22518767643003 L 427.07464184063764,-20.334985503404454 L 402.1844396676121,-30.09166608352635 L 391.48342392603683,-5.592620341800526 L 380.7824081844616,-30.09166608352635 L 355.89220601143603,-20.334985503404447 L 365.6488865915579,-45.22518767643002 L 341.1498408498321,-55.92620341800526 L 365.6488865915579,-66.6272191595805 L 355.89220601143603,-91.51742133260608 L 380.7824081844616,-81.76074075248417 Z" fill="none" stroke="#FFD700" stroke-width="2.019592405073155" /><path d="M 503.33583076204735,-106.25978649421 L 514.0368465036225,-81.76074075248418 L 538.9270486766482,-91.51742133260608 L 529.1703680965263,-66.6272191595805 L 553.6694138382521,-55.926203418005265 L 529.1703680965263,-45.22518767643003 L 538.9270486766482,-20.334985503404454 L 514.0368465036225,-30.09166608352635 L 503.33583076204735,-5.592620341800526 L 492.6348150204721,-30.09166608352635 L 467.74461284744655,-20.334985503404447 L 477.50129342756844,-45.22518767643002 L 453.00224768584263,-55.92620341800526 L 477.50129342756844,-66.6272191595805 L 467.74461284744655,-91.51742133260608 L 492.6348150204721,-81.76074075248417 Z" fill="none" stroke="#FFD700" stroke-width="2.019592405073155" /><path d="M 615.188237598058,-106.25978649421 L 625.8892533396332,-81.76074075248418 L 650.7794555126588,-91.51742133260608 L 641.0227749325369,-66.6272191595805 L 665.5218206742627,-55.926203418005265 L 641.0227749325369,-45.22518767643003 L 650.7794555126588,-20.334985503404454 L 625.8892533396332,-30.09166608352635 L 615.188237598058,-5.592620341800526 L 604.4872218564827,-30.09166608352635 L 579.5970196834571,-20.334985503404447 L 589.3537002635791,-45.22518767643002 L 564.8546545218533,-55.92620341800526 L 589.3537002635791,-66.6272191595805 L 579.5970196834571,-91.51742133260608 L 604.4872218564827,-81.76074075248417 Z" fill="none" stroke="#FFD700" stroke-width="2.019592405073155" /><path d="M 3.0820430701945762e-15,-9.39560217422489 L 10.701015741575237,15.103443567500932 L 35.59121791460082,5.346762987379037 L 25.834537334478917,30.236965160404615 L 50.33358307620474,40.93798090197985 L 25.834537334478917,51.63899664355508 L 35.59121791460082,76.52919881658066 L 10.701015741575237,66.77251823645877 L 3.0820430701945762e-15,91.27156397818459 L -10.701015741575233,66.77251823645877 L -35.59121791460081,76.52919881658067 L -25.83453733447891,51.638996643555096 L -50.33358307620474,40.937980901979856 L -25.834537334478913,30.236965160404605 L -35.591217914600826,5.346762987379037 L -10.701015741575251,15.103443567500939 Z" fill="none" stroke="#FFD700" stroke-width="2.019592405073155" /><path d="M 111.85240683601053,-9.39560217422489 L 122.55342257758576,15.103443567500932 L 147.44362475061135,5.346762987379037 L 137.68694417048945,30.236965160404615 L 162.18598991221526,40.93798090197985 L 137.68694417048945,51.63899664355508 L 147.44362475061135,76.52919881658066 L 122.55342257758576,66.77251823645877 L 111.85240683601053,91.27156397818459 L 101.1513910944353,66.77251823645877 L 76.26118892140971,76.52919881658067 L 86.01786950153162,51.638996643555096 L 61.51882375980579,40.937980901979856 L 86.01786950153162,30.236965160404605 L 76.26118892140971,5.346762987379037 L 101.15139109443528,15.103443567500939 Z" fill="none" stroke="#FFD700" stroke-width="2.019592405073155" /><path d="M 223.70481367202106,-9.39560217422489 L 234.4058294135963,15.103443567500932 L 259.2960315866219,5.346762987379037 L 249.53935100649997,30.236965160404615 L 274.0383967482258,40.93798090197985 L 249.53935100649997,51.63899664355508 L 259.2960315866219,76.52919881658066 L 234.4058294135963,66.77251823645877 L 223.70481367202106,91.27156397818459 L 213.00379793044584,66.77251823645877 L 188.11359575742026,76.52919881658067 L 197.87027633754215,51.638996643555096 L 173.37123059581631,40.937980901979856 L 197.87027633754215,30.236965160404605 L 188.11359575742023,5.346762987379037 L 213.0037979304458,15.103443567500939 Z" fill="none" stroke="#FFD700" stroke-width="2.019592405073155" /><path d="M 335.5572205080316,-9.39560217422489 L 346.25823624960685,15.103443567500932 L 371.1484384226324,5.346762987379037 L 361.3917578425105,30.236965160404615 L 385.8908035842363,40.93798090197985 L 361.3917578425105,51.63899664355508 L 371.1484384226324,76.52919881658066 L 346.25823624960685,66.77251823645877 L 335.5572205080316,91.27156397818459 L 324.85620476645636,66.77251823645877 L 299.9660025934308,76.52919881658067 L 309.7226831735527,51.638996643555096 L 285.2236374318269,40.937980901979856 L 309.7226831735527,30.236965160404605 L 299.9660025934308,5.346762987379037 L 324.85620476645636,15.103443567500939 Z" fill="none" stroke="#FFD700" stroke-width="2.019592405073155" /><path d="M 447.4096273440421,-9.39560217422489 L 458.11064308561737,15.103443567500932 L 483.0008452586429,5.346762987379037 L 473.24416467852103,30.236965160404615 L 497.74321042024684,40.93798090197985 L 473.24416467852103,51.63899664355508 L 483.0008452586429,76.52919881658066 L 458.11064308561737,66.77251823645877 L 447.4096273440421,91.27156397818459 L 436.7086116024669,66.77251823645877 L 411.8184094294413,76.52919881658067 L 421.5750900095632,51.638996643555096 L 397.0760442678374,40.937980901979856 L 421.5750900095632,30.236965160404605 L 411.8184094294413,5.346762987379037 L 436.7086116024669,15.103443567500939 Z" fill="none" stroke="#FFD700" stroke-width="2.019592405073155" /><path d="M 559.2620341800526,-9.39560217422489 L 569.9630499216279,15.103443567500932 L 594.8532520946535,5.346762987379037 L 585.0965715145315,30.236965160404615 L 609.5956172562574,40.93798090197985 L 585.0965715145315,51.63899664355508 L 594.8532520946535,76.52919881658066 L 569.9630499216279,66.77251823645877 L 559.2620341800526,91.27156397818459 L 548.5610184384774,66.77251823645877 L 523.6708162654518,76.52919881658067 L 533.4274968455737,51.638996643555096 L 508.9284511038479,40.937980901979856 L 533.4274968455737,30.236965160404605 L 523.6708162654518,5.346762987379037 L 548.5610184384774,15.103443567500939 Z" fill="none" stroke="#FFD700" stroke-width="2.019592405073155" /><path d="M -55.926203418005265,87.46858214576022 L -45.225187676430025,111.96762788748606 L -20.334985503404447,102.21094730736417 L -30.09166608352635,127.10114948038974 L -5.592620341800526,137.80216522196497 L -30.09166608352635,148.50318096354022 L -20.334985503404447,173.39338313656577 L -45.225187676430025,163.63670255644388 L -55.926203418005265,188.13574829816972 L -66.6272191595805,163.63670255644388 L -91.51742133260608,173.39338313656577 L -81.76074075248417,148.50318096354022 L -106.25978649421,137.80216522196497 L -81.76074075248418,127.10114948038972 L -91.51742133260609,102.21094730736417 L -66.62721915958052,111.96762788748606 Z" fill="none" stroke="#FFD700" stroke-width="2.019592405073155" /><path d="M 55.926203418005265,87.46858214576022 L 66.6272191595805,111.96762788748606 L 91.51742133260609,102.21094730736417 L 81.76074075248418,127.10114948038974 L 106.25978649421,137.80216522196497 L 81.76074075248418,148.50318096354022 L 91.51742133260609,173.39338313656577 L 66.6272191595805,163.63670255644388 L 55.926203418005265,188.13574829816972 L 45.22518767643003,163.63670255644388 L 20.334985503404454,173.39338313656577 L 30.091666083526356,148.50318096354022 L 5.592620341800526,137.80216522196497 L 30.091666083526352,127.10114948038972 L 20.33498550340444,102.21094730736417 L 45.22518767643001,111.96762788748606 Z" fill="none" stroke="#FFD700" stroke-width="2.019592405073155" /><path d="M 167.7786102540158,87.46858214576022 L 178.47962599559105,111.96762788748606 L 203.3698281686166,102.21094730736417 L 193.6131475884947,127.10114948038974 L 218.11219333022055,137.80216522196497 L 193.6131475884947,148.50318096354022 L 203.3698281686166,173.39338313656577 L 178.47962599559105,163.63670255644388 L 167.7786102540158,188.13574829816972 L 157.07759451244056,163.63670255644388 L 132.187392339415,173.39338313656577 L 141.9440729195369,148.50318096354022 L 117.44502717781106,137.80216522196497 L 141.9440729195369,127.10114948038972 L 132.18739233941497,102.21094730736417 L 157.07759451244056,111.96762788748606 Z" fill="none" stroke="#FFD700" stroke-width="2.019592405073155" /><path d="M 279.6310170900263,87.46858214576022 L 290.33203283160157,111.96762788748606 L 315.2222350046271,102.21094730736417 L 305.4655544245052,127.10114948038974 L 329.96460016623104,137.80216522196497 L 305.4655544245052,148.50318096354022 L 315.2222350046271,173.39338313656577 L 290.33203283160157,163.63670255644388 L 279.6310170900263,188.13574829816972 L 268.93000134845107,163.63670255644388 L 244.03979917542551,173.39338313656577 L 253.7964797555474,148.50318096354022 L 229.29743401382157,137.80216522196497 L 253.7964797555474,127.10114948038972 L 244.0397991754255,102.21094730736417 L 268.93000134845107,111.96762788748606 Z" fill="none" stroke="#FFD700" stroke-width="2.019592405073155" /><path d="M 391.48342392603683,87.46858214576022 L 402.1844396676121,111.96762788748606 L 427.07464184063764,102.21094730736417 L 417.31796126051574,127.10114948038974 L 441.81700700224155,137.80216522196497 L 417.31796126051574,148.50318096354022 L 427.07464184063764,173.39338313656577 L 402.1844396676121,163.63670255644388 L 391.48342392603683,188.13574829816972 L 380.7824081844616,163.63670255644388 L 355.89220601143603,173.39338313656577 L 365.6488865915579,148.50318096354022 L 341.1498408498321,137.80216522196497 L 365.6488865915579,127.10114948038972 L 355.89220601143603,102.21094730736417 L 380.7824081844616,111.96762788748606 Z" fill="none" stroke="#FFD700" stroke-width="2.019592405073155" /><path d="M 503.33583076204735,87.46858214576022 L 514.0368465036225,111.96762788748606 L 538.9270486766482,102.21094730736417 L 529.1703680965263,127.10114948038974 L 553.6694138382521,137.80216522196497 L 529.1703680965263,148.50318096354022 L 538.9270486766482,173.39338313656577 L 514.0368465036225,163.63670255644388 L 503.33583076204735,188.13574829816972 L 492.6348150204721,163.63670255644388 L 467.74461284744655,173.39338313656577 L 477.50129342756844,148.50318096354022 L 453.00224768584263,137.80216522196497 L 477.50129342756844,127.10114948038972 L 467.74461284744655,102.21094730736417 L 492.6348150204721,111.96762788748606 Z" fill="none" stroke="#FFD700" stroke-width="2.019592405073155" /><path d="M 615.188237598058,87.46858214576022 L 625.8892533396332,111.96762788748606 L 650.7794555126588,102.21094730736417 L 641.0227749325369,127.10114948038974 L 665.5218206742627,137.80216522196497 L 641.0227749325369,148.50318096354022 L 650.7794555126588,173.39338313656577 L 625.8892533396332,163.63670255644388 L 615.188237598058,188.13574829816972 L 604.4872218564827,163.63670255644388 L 579.5970196834571,173.39338313656577 L 589.3537002635791,148.50318096354022 L 564.8546545218533,137.80216522196497 L 589.3537002635791,127.10114948038972 L 579.5970196834571,102.21094730736417 L 604.4872218564827,111.96762788748606 Z" fill="none" stroke="#FFD700" stroke-width="2.019592405073155" /><path d="M 3.0820430701945762e-15,184.33276646574535 L 10.701015741575237,208.8318122074712 L 35.59121791460082,199.0751316273493 L 25.834537334478917,223.96533380037485 L 50.33358307620474,234.6663495419501 L 25.834537334478917,245.36736528352534 L 35.59121791460082,270.25756745655093 L 10.701015741575237,260.50088687642904 L 3.0820430701945762e-15,284.99993261815484 L -10.701015741575233,260.50088687642904 L -35.59121791460081,270.25756745655093 L -25.83453733447891,245.36736528352534 L -50.33358307620474,234.6663495419501 L -25.834537334478913,223.96533380037485 L -35.591217914600826,199.0751316273493 L -10.701015741575251,208.8318122074712 Z" fill="none" stroke="#FFD700" stroke-width="2.019592405073155" /><path d="M 111.85240683601053,184.33276646574535 L 122.55342257758576,208.8318122074712 L 147.44362475061135,199.0751316273493 L 137.68694417048945,223.96533380037485 L 162.18598991221526,234.6663495419501 L 137.68694417048945,245.36736528352534 L 147.44362475061135,270.25756745655093 L 122.55342257758576,260.50088687642904 L 111.85240683601053,284.99993261815484 L 101.1513910944353,260.50088687642904 L 76.26118892140971,270.25756745655093 L 86.01786950153162,245.36736528352534 L 61.51882375980579,234.6663495419501 L 86.01786950153162,223.96533380037485 L 76.26118892140971,199.0751316273493 L 101.15139109443528,208.8318122074712 Z" fill="none" stroke="#FFD700" stroke-width="2.019592405073155" /><path d="M 223.70481367202106,184.33276646574535 L 234.4058294135963,208.8318122074712 L 259.2960315866219,199.0751316273493 L 249.53935100649997,223.96533380037485 L 274.0383967482258,234.6663495419501 L 249.53935100649997,245.36736528352534 L 259.2960315866219,270.25756745655093 L 234.4058294135963,260.50088687642904 L 223.70481367202106,284.99993261815484 L 213.00379793044584,260.50088687642904 L 188.11359575742026,270.25756745655093 L 197.87027633754215,245.36736528352534 L 173.37123059581631,234.6663495419501 L 197.87027633754215,223.96533380037485 L 188.11359575742023,199.0751316273493 L 213.0037979304458,208.8318122074712 Z" fill="none" stroke="#FFD700" stroke-width="2.019592405073155" /><path d="M 335.5572205080316,184.33276646574535 L 346.25823624960685,208.8318122074712 L 371.1484384226324,199.0751316273493 L 361.3917578425105,223.96533380037485 L 385.8908035842363,234.6663495419501 L 361.3917578425105,245.36736528352534 L 371.1484384226324,270.25756745655093 L 346.25823624960685,260.50088687642904 L 335.5572205080316,284.99993261815484 L 324.85620476645636,260.50088687642904 L 299.9660025934308,270.25756745655093 L 309.7226831735527,245.36736528352534 L 285.2236374318269,234.6663495419501 L 309.7226831735527,223.96533380037485 L 299.9660025934308,199.0751316273493 L 324.85620476645636,208.8318122074712 Z" fill="none" stroke="#FFD700" stroke-width="2.019592405073155" /><path d="M 447.4096273440421,184.33276646574535 L 458.11064308561737,208.8318122074712 L 483.0008452586429,199.0751316273493 L 473.24416467852103,223.96533380037485 L 497.74321042024684,234.6663495419501 L 473.24416467852103,245.36736528352534 L 483.0008452586429,270.25756745655093 L 458.11064308561737,260.50088687642904 L 447.4096273440421,284.99993261815484 L 436.7086116024669,260.50088687642904 L 411.8184094294413,270.25756745655093 L 421.5750900095632,245.36736528352534 L 397.0760442678374,234.6663495419501 L 421.5750900095632,223.96533380037485 L 411.8184094294413,199.0751316273493 L 436.7086116024669,208.8318122074712 Z" fill="none" stroke="#FFD700" stroke-width="2.019592405073155" /><path d="M 559.2620341800526,184.33276646574535 L 569.9630499216279,208.8318122074712 L 594.8532520946535,199.0751316273493 L 585.0965715145315,223.96533380037485 L 609.5956172562574,234.6663495419501 L 585.0965715145315,245.36736528352534 L 594.8532520946535,270.25756745655093 L 569.9630499216279,260.50088687642904 L 559.2620341800526,284.99993261815484 L 548.5610184384774,260.50088687642904 L 523.6708162654518,270.25756745655093 L 533.4274968455737,245.36736528352534 L 508.9284511038479,234.6663495419501 L 533.4274968455737,223.96533380037485 L 523.6708162654518,199.0751316273493 L 548.5610184384774,208.8318122074712 Z" fill="none" stroke="#FFD700" stroke-width="2.019592405073155" /><path d="M -55.926203418005265,281.19695078573045 L -45.225187676430025,305.69599652745626 L -20.334985503404447,295.93931594733436 L -30.09166608352635,320.8295181203599 L -5.592620341800526,331.53053386193517 L -30.09166608352635,342.2315496035104 L -20.334985503404447,367.121751776536 L -45.225187676430025,357.3650711964141 L -55.926203418005265,381.8641169381399 L -66.6272191595805,357.3650711964141 L -91.51742133260608,367.121751776536 L -81.76074075248417,342.2315496035104 L -106.25978649421,331.53053386193517 L -81.76074075248418,320.8295181203599 L -91.51742133260609,295.93931594733436 L -66.62721915958052,305.69599652745626 Z" fill="none" stroke="#FFD700" stroke-width="2.019592405073155" /><path d="M 55.926203418005265,281.19695078573045 L 66.6272191595805,305.69599652745626 L 91.51742133260609,295.93931594733436 L 81.76074075248418,320.8295181203599 L 106.25978649421,331.53053386193517 L 81.76074075248418,342.2315496035104 L 91.51742133260609,367.121751776536 L 66.6272191595805,357.3650711964141 L 55.926203418005265,381.8641169381399 L 45.22518767643003,357.3650711964141 L 20.334985503404454,367.121751776536 L 30.091666083526356,342.2315496035104 L 5.592620341800526,331.53053386193517 L 30.091666083526352,320.8295181203599 L 20.33498550340444,295.93931594733436 L 45.22518767643001,305.69599652745626 Z" fill="none" stroke="#FFD700" stroke-width="2.019592405073155" /><path d="M 167.7786102540158,281.19695078573045 L 178.47962599559105,305.69599652745626 L 203.3698281686166,295.93931594733436 L 193.6131475884947,320.8295181203599 L 218.11219333022055,331.53053386193517 L 193.6131475884947,342.2315496035104 L 203.3698281686166,367.121751776536 L 178.47962599559105,357.3650711964141 L 167.7786102540158,381.8641169381399 L 157.07759451244056,357.3650711964141 L 132.187392339415,367.121751776536 L 141.9440729195369,342.2315496035104 L 117.44502717781106,331.53053386193517 L 141.9440729195369,320.8295181203599 L 132.18739233941497,295.93931594733436 L 157.07759451244056,305.69599652745626 Z" fill="none" stroke="#FFD700" stroke-width="2.019592405073155" /><path d="M 279.6310170900263,281.19695078573045 L 290.33203283160157,305.69599652745626 L 315.2222350046271,295.93931594733436 L 305.4655544245052,320.8295181203599 L 329.96460016623104,331.53053386193517 L 305.4655544245052,342.2315496035104 L 315.2222350046271,367.121751776536 L 290.33203283160157,357.3650711964141 L 279.6310170900263,381.8641169381399 L 268.93000134845107,357.3650711964141 L 244.03979917542551,367.121751776536 L 253.7964797555474,342.2315496035104 L 229.29743401382157,331.53053386193517 L 253.7964797555474,320.8295181203599 L 244.0397991754255,295.93931594733436 L 268.93000134845107,305.69599652745626 Z" fill="none" stroke="#FFD700" stroke-width="2.019592405073155" /><path d="M 391.48342392603683,281.19695078573045 L 402.1844396676121,305.69599652745626 L 427.07464184063764,295.93931594733436 L 417.31796126051574,320.8295181203599 L 441.81700700224155,331.53053386193517 L 417.31796126051574,342.2315496035104 L 427.07464184063764,367.121751776536 L 402.1844396676121,357.3650711964141 L 391.48342392603683,381.8641169381399 L 380.7824081844616,357.3650711964141 L 355.89220601143603,367.121751776536 L 365.6488865915579,342.2315496035104 L 341.1498408498321,331.53053386193517 L 365.6488865915579,320.8295181203599 L 355.89220601143603,295.93931594733436 L 380.7824081844616,305.69599652745626 Z" fill="none" stroke="#FFD700" stroke-width="2.019592405073155" /><path d="M 503.33583076204735,281.19695078573045 L 514.0368465036225,305.69599652745626 L 538.9270486766482,295.93931594733436 L 529.1703680965263,320.8295181203599 L 553.6694138382521,331.53053386193517 L 529.1703680965263,342.2315496035104 L 538.9270486766482,367.121751776536 L 514.0368465036225,357.3650711964141 L 503.33583076204735,381.8641169381399 L 492.6348150204721,357.3650711964141 L 467.74461284744655,367.121751776536 L 477.50129342756844,342.2315496035104 L 453.00224768584263,331.53053386193517 L 477.50129342756844,320.8295181203599 L 467.74461284744655,295.93931594733436 L 492.6348150204721,305.69599652745626 Z" fill="none" stroke="#FFD700" stroke-width="2.019592405073155" /><path d="M 615.188237598058,281.19695078573045 L 625.8892533396332,305.69599652745626 L 650.7794555126588,295.93931594733436 L 641.0227749325369,320.8295181203599 L 665.5218206742627,331.53053386193517 L 641.0227749325369,342.2315496035104 L 650.7794555126588,367.121751776536 L 625.8892533396332,357.3650711964141 L 615.188237598058,381.8641169381399 L 604.4872218564827,357.3650711964141 L 579.5970196834571,367.121751776536 L 589.3537002635791,342.2315496035104 L 564.8546545218533,331.53053386193517 L 589.3537002635791,320.8295181203599 L 579.5970196834571,295.93931594733436 L 604.4872218564827,305.69599652745626 Z" fill="none" stroke="#FFD700" stroke-width="2.019592405073155" /><path d="M 3.0820430701945762e-15,378.06113510571555 L 10.701015741575237,402.56018084744136 L 35.59121791460082,392.80350026731946 L 25.834537334478917,417.693702440345 L 50.33358307620474,428.39471818192027 L 25.834537334478917,439.0957339234955 L 35.59121791460082,463.9859360965211 L 10.701015741575237,454.2292555163992 L 3.0820430701945762e-15,478.728301258125 L -10.701015741575233,454.2292555163992 L -35.59121791460081,463.9859360965211 L -25.83453733447891,439.0957339234955 L -50.33358307620474,428.39471818192027 L -25.834537334478913,417.693702440345 L -35.591217914600826,392.80350026731946 L -10.701015741575251,402.56018084744136 Z" fill="none" stroke="#FFD700" stroke-width="2.019592405073155" /><path d="M 111.85240683601053,378.06113510571555 L 122.55342257758576,402.56018084744136 L 147.44362475061135,392.80350026731946 L 137.68694417048945,417.693702440345 L 162.18598991221526,428.39471818192027 L 137.68694417048945,439.0957339234955 L 147.44362475061135,463.9859360965211 L 122.55342257758576,454.2292555163992 L 111.85240683601053,478.728301258125 L 101.1513910944353,454.2292555163992 L 76.26118892140971,463.9859360965211 L 86.01786950153162,439.0957339234955 L 61.51882375980579,428.39471818192027 L 86.01786950153162,417.693702440345 L 76.26118892140971,392.80350026731946 L 101.15139109443528,402.56018084744136 Z" fill="none" stroke="#FFD700" stroke-width="2.019592405073155" /><path d="M 223.70481367202106,378.06113510571555 L 234.4058294135963,402.56018084744136 L 259.2960315866219,392.80350026731946 L 249.53935100649997,417.693702440345 L 274.0383967482258,428.39471818192027 L 249.53935100649997,439.0957339234955 L 259.2960315866219,463.9859360965211 L 234.4058294135963,454.2292555163992 L 223.70481367202106,478.728301258125 L 213.00379793044584,454.2292555163992 L 188.11359575742026,463.9859360965211 L 197.87027633754215,439.0957339234955 L 173.37123059581631,428.39471818192027 L 197.87027633754215,417.693702440345 L 188.11359575742023,392.80350026731946 L 213.0037979304458,402.56018084744136 Z" fill="none" stroke="#FFD700" stroke-width="2.019592405073155" /><path d="M 335.5572205080316,378.06113510571555 L 346.25823624960685,402.56018084744136 L 371.1484384226324,392.80350026731946 L 361.3917578425105,417.693702440345 L 385.8908035842363,428.39471818192027 L 361.3917578425105,439.0957339234955 L 371.1484384226324,463.9859360965211 L 346.25823624960685,454.2292555163992 L 335.5572205080316,478.728301258125 L 324.85620476645636,454.2292555163992 L 299.9660025934308,463.9859360965211 L 309.7226831735527,439.0957339234955 L 285.2236374318269,428.39471818192027 L 309.7226831735527,417.693702440345 L 299.9660025934308,392.80350026731946 L 324.85620476645636,402.56018084744136 Z" fill="none" stroke="#FFD700" stroke-width="2.019592405073155" /><path d="M 447.4096273440421,378.06113510571555 L 458.11064308561737,402.56018084744136 L 483.0008452586429,392.80350026731946 L 473.24416467852103,417.693702440345 L 497.74321042024684,428.39471818192027 L 473.24416467852103,439.0957339234955 L 483.0008452586429,463.9859360965211 L 458.11064308561737,454.2292555163992 L 447.4096273440421,478.728301258125 L 436.7086116024669,454.2292555163992 L 411.8184094294413,463.9859360965211 L 421.5750900095632,439.0957339234955 L 397.0760442678374,428.39471818192027 L 421.5750900095632,417.693702440345 L 411.8184094294413,392.80350026731946 L 436.7086116024669,402.56018084744136 Z" fill="none" stroke="#FFD700" stroke-width="2.019592405073155" /><path d="M 559.2620341800526,378.06113510571555 L 569.9630499216279,402.56018084744136 L 594.8532520946535,392.80350026731946 L 585.0965715145315,417.693702440345 L 609.5956172562574,428.39471818192027 L 585.0965715145315,439.0957339234955 L 594.8532520946535,463.9859360965211 L 569.9630499216279,454.2292555163992 L 559.2620341800526,478.728301258125 L 548.5610184384774,454.2292555163992 L 523.6708162654518,463.9859360965211 L 533.4274968455737,439.0957339234955 L 508.9284511038479,428.39471818192027 L 533.4274968455737,417.693702440345 L 523.6708162654518,392.80350026731946 L 548.5610184384774,402.56018084744136 Z" fill="none" stroke="#FFD700" stroke-width="2.019592405073155" /><path d="M -55.926203418005265,474.92531942570076 L -45.225187676430025,499.4243651674266 L -20.334985503404447,489.6676845873047 L -30.09166608352635,514.5578867603302 L -5.592620341800526,525.2589025019055 L -30.09166608352635,535.9599182434807 L -20.334985503404447,560.8501204165063 L -45.225187676430025,551.0934398363844 L -55.926203418005265,575.5924855781102 L -66.6272191595805,551.0934398363844 L -91.51742133260608,560.8501204165063 L -81.76074075248417,535.9599182434807 L -106.25978649421,525.2589025019055 L -81.76074075248418,514.5578867603302 L -91.51742133260609,489.6676845873047 L -66.62721915958052,499.4243651674266 Z" fill="none" stroke="#FFD700" stroke-width="2.019592405073155" /><path d="M 55.926203418005265,474.92531942570076 L 66.6272191595805,499.4243651674266 L 91.51742133260609,489.6676845873047 L 81.76074075248418,514.5578867603302 L 106.25978649421,525.2589025019055 L 81.76074075248418,535.9599182434807 L 91.51742133260609,560.8501204165063 L 66.6272191595805,551.0934398363844 L 55.926203418005265,575.5924855781102 L 45.22518767643003,551.0934398363844 L 20.334985503404454,560.8501204165063 L 30.091666083526356,535.9599182434807 L 5.592620341800526,525.2589025019055 L 30.091666083526352,514.5578867603302 L 20.33498550340444,489.6676845873047 L 45.22518767643001,499.4243651674266 Z" fill="none" stroke="#FFD700" stroke-width="2.019592405073155" /><path d="M 167.7786102540158,474.92531942570076 L 178.47962599559105,499.4243651674266 L 203.3698281686166,489.6676845873047 L 193.6131475884947,514.5578867603302 L 218.11219333022055,525.2589025019055 L 193.6131475884947,535.9599182434807 L 203.3698281686166,560.8501204165063 L 178.47962599559105,551.0934398363844 L 167.7786102540158,575.5924855781102 L 157.07759451244056,551.0934398363844 L 132.187392339415,560.8501204165063 L 141.9440729195369,535.9599182434807 L 117.44502717781106,525.2589025019055 L 141.9440729195369,514.5578867603302 L 132.18739233941497,489.6676845873047 L 157.07759451244056,499.4243651674266 Z" fill="none" stroke="#FFD700" stroke-width="2.019592405073155" /><path d="M 279.6310170900263,474.92531942570076 L 290.33203283160157,499.4243651674266 L 315.2222350046271,489.6676845873047 L 305.4655544245052,514.5578867603302 L 329.96460016623104,525.2589025019055 L 305.4655544245052,535.9599182434807 L 315.2222350046271,560.8501204165063 L 290.33203283160157,551.0934398363844 L 279.6310170900263,575.5924855781102 L 268.93000134845107,551.0934398363844 L 244.03979917542551,560.8501204165063 L 253.7964797555474,535.9599182434807 L 229.29743401382157,525.2589025019055 L 253.7964797555474,514.5578867603302 L 244.0397991754255,489.6676845873047 L 268.93000134845107,499.4243651674266 Z" fill="none" stroke="#FFD700" stroke-width="2.019592405073155" /><path d="M 391.48342392603683,474.92531942570076 L 402.1844396676121,499.4243651674266 L 427.07464184063764,489.6676845873047 L 417.31796126051574,514.5578867603302 L 441.81700700224155,525.2589025019055 L 417.31796126051574,535.9599182434807 L 427.07464184063764,560.8501204165063 L 402.1844396676121,551.0934398363844 L 391.48342392603683,575.5924855781102 L 380.7824081844616,551.0934398363844 L 355.89220601143603,560.8501204165063 L 365.6488865915579,535.9599182434807 L 341.1498408498321,525.2589025019055 L 365.6488865915579,514.5578867603302 L 355.89220601143603,489.6676845873047 L 380.7824081844616,499.4243651674266 Z" fill="none" stroke="#FFD700" stroke-width="2.019592405073155" /><path d="M 503.33583076204735,474.92531942570076 L 514.0368465036225,499.4243651674266 L 538.9270486766482,489.6676845873047 L 529.1703680965263,514.5578867603302 L 553.6694138382521,525.2589025019055 L 529.1703680965263,535.9599182434807 L 538.9270486766482,560.8501204165063 L 514.0368465036225,551.0934398363844 L 503.33583076204735,575.5924855781102 L 492.6348150204721,551.0934398363844 L 467.74461284744655,560.8501204165063 L 477.50129342756844,535.9599182434807 L 453.00224768584263,525.2589025019055 L 477.50129342756844,514.5578867603302 L 467.74461284744655,489.6676845873047 L 492.6348150204721,499.4243651674266 Z" fill="none" stroke="#FFD700" stroke-width="2.019592405073155" /><path d="M 615.188237598058,474.92531942570076 L 625.8892533396332,499.4243651674266 L 650.7794555126588,489.6676845873047 L 641.0227749325369,514.5578867603302 L 665.5218206742627,525.2589025019055 L 641.0227749325369,535.9599182434807 L 650.7794555126588,560.8501204165063 L 625.8892533396332,551.0934398363844 L 615.188237598058,575.5924855781102 L 604.4872218564827,551.0934398363844 L 579.5970196834571,560.8501204165063 L 589.3537002635791,535.9599182434807 L 564.8546545218533,525.2589025019055 L 589.3537002635791,514.5578867603302 L 579.5970196834571,489.6676845873047 L 604.4872218564827,499.4243651674266 Z" fill="none" stroke="#FFD700" stroke-width="2.019592405073155" /><line x1="50.33358307620474" y1="40.93798090197985" x2="61.51882375980579" y2="40.93798090197985" stroke="#FFD700" stroke-width="0.5"/><line x1="162.18598991221526" y1="40.93798090197985" x2="173.37123059581631" y2="40.93798090197985" stroke="#FFD700" stroke-width="0.5"/><line x1="274.0383967482258" y1="40.93798090197985" x2="285.2236374318269" y2="40.93798090197985" stroke="#FFD700" stroke-width="0.5"/><line x1="385.8908035842363" y1="40.93798090197985" x2="397.0760442678374" y2="40.93798090197985" stroke="#FFD700" stroke-width="0.5"/><line x1="497.74321042024684" y1="40.93798090197985" x2="508.9284511038479" y2="40.93798090197985" stroke="#FFD700" stroke-width="0.5"/><line x1="106.25978649421" y1="137.80216522196497" x2="117.44502717781106" y2="137.80216522196497" stroke="#FFD700" stroke-width="0.5"/><line x1="218.11219333022055" y1="137.80216522196497" x2="229.29743401382157" y2="137.80216522196497" stroke="#FFD700" stroke-width="0.5"/><line x1="329.96460016623104" y1="137.80216522196497" x2="341.1498408498321" y2="137.80216522196497" stroke="#FFD700" stroke-width="0.5"/><line x1="441.81700700224155" y1="137.80216522196497" x2="453.00224768584263" y2="137.80216522196497" stroke="#FFD700" stroke-width="0.5"/><line x1="50.33358307620474" y1="234.6663495419501" x2="61.51882375980579" y2="234.6663495419501" stroke="#FFD700" stroke-width="0.5"/><line x1="162.18598991221526" y1="234.6663495419501" x2="173.37123059581631" y2="234.6663495419501" stroke="#FFD700" stroke-width="0.5"/><line x1="274.0383967482258" y1="234.6663495419501" x2="285.2236374318269" y2="234.6663495419501" stroke="#FFD700" stroke-width="0.5"/><line x1="385.8908035842363" y1="234.6663495419501" x2="397.0760442678374" y2="234.6663495419501" stroke="#FFD700" stroke-width="0.5"/><line x1="497.74321042024684" y1="234.6663495419501" x2="508.9284511038479" y2="234.6663495419501" stroke="#FFD700" stroke-width="0.5"/><line x1="106.25978649421" y1="331.53053386193517" x2="117.44502717781106" y2="331.53053386193517" stroke="#FFD700" stroke-width="0.5"/><line x1="218.11219333022055" y1="331.53053386193517" x2="229.29743401382157" y2="331.53053386193517" stroke="#FFD700" stroke-width="0.5"/><line x1="329.96460016623104" y1="331.53053386193517" x2="341.1498408498321" y2="331.53053386193517" stroke="#FFD700" stroke-width="0.5"/><line x1="441.81700700224155" y1="331.53053386193517" x2="453.00224768584263" y2="331.53053386193517" stroke="#FFD700" stroke-width="0.5"/><line x1="50.33358307620474" y1="428.39471818192027" x2="61.51882375980579" y2="428.39471818192027" stroke="#FFD700" stroke-width="0.5"/><line x1="162.18598991221526" y1="428.39471818192027" x2="173.37123059581631" y2="428.39471818192027" stroke="#FFD700" stroke-width="0.5"/><line x1="274.0383967482258" y1="428.39471818192027" x2="285.2236374318269" y2="428.39471818192027" stroke="#FFD700" stroke-width="0.5"/><line x1="385.8908035842363" y1="428.39471818192027" x2="397.0760442678374" y2="428.39471818192027" stroke="#FFD700" stroke-width="0.5"/><line x1="497.74321042024684" y1="428.39471818192027" x2="508.9284511038479" y2="428.39471818192027" stroke="#FFD700" stroke-width="0.5"/></g></svg>