<svg xmlns="http://www.w3.org/2000/svg" width="512" height="512" viewBox="0 0 512 512"><rect x="0" y="0" width="512" height="512" fill="#000000"/><g opacity="0.11212028714926926"><path d="M -62.34786178651591,-118.46093739438022 L -50.41811491197184,-91.14881848671823 L -22.66992551096159,-102.02579806207021 L -33.546905086313586,-74.27760866105997 L -6.234786178651589,-62.34786178651591 L -33.546905086313586,-50.41811491197184 L -22.66992551096159,-22.669925510961598 L -50.41811491197184,-33.546905086313586 L -62.34786178651591,-6.234786178651589 L -74.27760866105997,-33.546905086313586 L -102.02579806207021,-22.66992551096159 L -91.14881848671821,-50.41811491197183 L -118.46093739438022,-62.3478617865159 L -91.14881848671823,-74.27760866105997 L -102.02579806207024,-102.02579806207021 L -74.27760866105999,-91.14881848671821 Z" fill="none" stroke="#FFFFFF" stroke-width="1.33819747010162" /><path d="M 62.34786178651591,-118.46093739438022 L 74.27760866105997,-91.14881848671823 L 102.02579806207022,-102.02579806207021 L 91.14881848671823,-74.27760866105997 L 118.46093739438022,-62.34786178651591 L 91.14881848671823,-50.41811491197184 L 102.02579806207022,-22.669925510961598 L 74.27760866105997,-33.546905086313586 L 62.34786178651591,-6.234786178651589 L 50.41811491197184,-33.546905086313586 L 22.669925510961598,-22.66992551096159 L 33.5469050863136,-50.41811491197183 L 6.234786178651589,-62.3478617865159 L 33.54690508631359,-74.27760866105997 L 22.669925510961583,-102.02579806207021 L 50.41811491197183,-91.14881848671821 Z" fill="none" stroke="#FFFFFF" stroke-width="1.33819747010162" /><path d="M 187.0435853595477,-118.46093739438022 L 198.97333223409177,-91.14881848671823 L 226.72152163510202,-102.02579806207021 L 215.84454205975,-74.27760866105997 L 243.15666096741202,-62.34786178651591 L 215.84454205975,-50.41811491197184 L 226.72152163510202,-22.669925510961598 L 198.97333223409177,-33.546905086313586 L 187.0435853595477,-6.234786178651589 L 175.11383848500364,-33.546905086313586 L 147.3656490839934,-22.66992551096159 L 158.2426286593454,-50.41811491197183 L 130.9305097516834,-62.3478617865159 L 158.2426286593454,-74.27760866105997 L 147.3656490839934,-102.02579806207021 L 175.1138384850036,-91.14881848671821 Z" fill="none" stroke="#FFFFFF" stroke-width="1.33819747010162" /><path d="M 311.7393089325795,-118.46093739438022 L 323.6690558071235,-91.14881848671823 L 351.4172452081338,-102.02579806207021 L 340.5402656327818,-74.27760866105997 L 367.85238454044384,-62.34786178651591 L 340.5402656327818,-50.41811491197184 L 351.4172452081338,-22.669925510961598 L 323.6690558071235,-33.546905086313586 L 311.7393089325795,-6.234786178651589 L 299.80956205803545,-33.546905086313586 L 272.0613726570252,-22.66992551096159 L 282.93835223237716,-50.41811491197183 L 255.62623332471517,-62.3478617865159 L 282.93835223237716,-74.27760866105997 L 272.0613726570252,-102.02579806207021 L 299.8095620580354,-91.14881848671821 Z" fill="none" stroke="#FFFFFF" stroke-width="1.33819747010162" /><path d="M 436.43503250561133,-118.46093739438022 L 448.36477938015537,-91.14881848671823 L 476.11296878116565,-102.02579806207021 L 465.23598920581367,-74.27760866105997 L 492.5481081134757,-62.34786178651591 L 465.23598920581367,-50.41811491197184 L 476.11296878116565,-22.669925510961598 L 448.36477938015537,-33.546905086313586 L 436.43503250561133,-6.234786178651589 L 424.5052856310673,-33.546905086313586 L 396.757096230057,-22.66992551096159 L 407.634075805409,-50.41811491197183 L 380.321956897747,-62.3478617865159 L 407.634075805409,-74.27760866105997 L 396.757096230057,-102.02579806207021 L 424.50528563106724,-91.14881848671821 Z" fill="none" stroke="#FFFFFF" stroke-width="1.33819747010162" /><path d="M 561.1307560786432,-118.46093739438022 L 573.0605029531873,-91.14881848671823 L 600.8086923541975,-102.02579806207021 L 589.9317127788455,-74.27760866105997 L 617.2438316865075,-62.34786178651591 L 589.9317127788455,-50.41811491197184 L 600.8086923541975,-22.669925510961598 L 573.0605029531873,-33.546905086313586 L 561.1307560786432,-6.234786178651589 L 549.2010092040991,-33.546905086313586 L 521.4528198030889,-22.66992551096159 L 532.329799378441,-50.41811491197183 L 505.01768047077894,-62.3478617865159 L 532.329799378441,-74.27760866105997 L 521.4528198030889,-102.02579806207021 L 549.2010092040991,-91.14881848671821 Z" fill="none" stroke="#FFFFFF" stroke-width="1.33819747010162" /><path d="M 3.435934921674223e-15,-10.474440780134671 L 11.929746874544065,16.83767812752733 L 39.677936275554316,5.960698552175337 L 28.800956700202317,33.70888795318558 L 56.11307560786432,45.638634827729646 L 28.800956700202317,57.56838170227371 L 39.677936275554316,85.31657110328396 L 11.929746874544065,74.43959152793197 L 3.435934921674223e-15,101.75171043559396 L -11.929746874544062,74.43959152793197 L -39.67793627555431,85.31657110328396 L -28.80095670020231,57.568381702273726 L -56.11307560786432,45.63863482772965 L -28.800956700202313,33.708887953185574 L -39.67793627555432,5.960698552175337 L -11.92974687454408,16.837678127527337 Z" fill="none" stroke="#FFFFFF" stroke-width="1.33819747010162" /><path d="M 124.69572357303181,-10.474440780134671 L 136.62547044757588,16.83767812752733 L 164.37365984858613,5.960698552175337 L 153.49668027323412,33.70888795318558 L 180.80879918089613,45.638634827729646 L 153.49668027323412,57.56838170227371 L 164.37365984858613,85.31657110328396 L 136.62547044757588,74.43959152793197 L 124.69572357303181,101.75171043559396 L 112.76597669848775,74.43959152793197 L 85.0177872974775,85.31657110328396 L 95.8947668728295,57.568381702273726 L 68.5826479651675,45.63863482772965 L 95.8947668728295,33.708887953185574 L 85.0177872974775,5.960698552175337 L 112.76597669848773,16.837678127527337 Z" fill="none" stroke="#FFFFFF" stroke-width="1.33819747010162" /><path d="M 249.39144714606363,-10.474440780134671 L 261.32119402060766,16.83767812752733 L 289.06938342161794,5.960698552175337 L 278.19240384626596,33.70888795318558 L 305.504522753928,45.638634827729646 L 278.19240384626596,57.56838170227371 L 289.06938342161794,85.31657110328396 L 261.32119402060766,74.43959152793197 L 249.39144714606363,101.75171043559396 L 237.46170027151956,74.43959152793197 L 209.7135108705093,85.31657110328396 L 220.59049044586132,57.568381702273726 L 193.2783715381993,45.63863482772965 L 220.59049044586132,33.708887953185574 L 209.7135108705093,5.960698552175337 L 237.46170027151953,16.837678127527337 Z" fill="none" stroke="#FFFFFF" stroke-width="1.33819747010162" /><path d="M 374.0871707190954,-10.474440780134671 L 386.0169175936395,16.83767812752733 L 413.7651069946497,5.960698552175337 L 402.88812741929775,33.70888795318558 L 430.2002463269597,45.638634827729646 L 402.88812741929775,57.56838170227371 L 413.7651069946497,85.31657110328396 L 386.0169175936395,74.43959152793197 L 374.0871707190954,101.75171043559396 L 362.1574238445514,74.43959152793197 L 334.4092344435411,85.31657110328396 L 345.2862140188931,57.568381702273726 L 317.9740951112311,45.63863482772965 L 345.2862140188931,33.708887953185574 L 334.4092344435411,5.960698552175337 L 362.1574238445513,16.837678127527337 Z" fill="none" stroke="#FFFFFF" stroke-width="1.33819747010162" /><path d="M 498.78289429212725,-10.474440780134671 L 510.71264116667135,16.83767812752733 L 538.4608305676816,5.960698552175337 L 527.5838509923295,33.70888795318558 L 554.8959698999915,45.638634827729646 L 527.5838509923295,57.56838170227371 L 538.4608305676816,85.31657110328396 L 510.71264116667135,74.43959152793197 L 498.78289429212725,101.75171043559396 L 486.8531474175832,74.43959152793197 L 459.10495801657294,85.31657110328396 L 469.9819375919249,57.568381702273726 L 442.66981868426296,45.63863482772965 L 469.9819375919249,33.708887953185574 L 459.10495801657294,5.960698552175337 L 486.85314741758316,16.837678127527337 Z" fill="none" stroke="#FFFFFF" stroke-width="1.33819747010162" /><path d="M 623.4786178651591,-10.474440780134671 L 635.4083647397032,16.83767812752733 L 663.1565541407134,5.960698552175337 L 652.2795745653614,33.70888795318558 L 679.5916934730234,45.638634827729646 L 652.2795745653614,57.56838170227371 L 663.1565541407134,85.31657110328396 L 635.4083647397032,74.43959152793197 L 623.4786178651591,101.75171043559396 L 611.548870990615,74.43959152793197 L 583.8006815896048,85.31657110328396 L 594.6776611649568,57.568381702273726 L 567.3655422572948,45.63863482772965 L 594.6776611649568,33.708887953185574 L 583.8006815896048,5.960698552175337 L 611.548870990615,16.837678127527337 Z" fill="none" stroke="#FFFFFF" stroke-width="1.33819747010162" /><path d="M -62.34786178651591,97.5120558341109 L -50.41811491197184,124.8241747417729 L -22.66992551096159,113.9471951664209 L -33.546905086313586,141.69538456743115 L -6.234786178651589,153.6251314419752 L -33.546905086313586,165.55487831651928 L -22.66992551096159,193.30306771752953 L -50.41811491197184,182.42608814217752 L -62.34786178651591,209.73820704983953 L -74.27760866105997,182.42608814217752 L -102.02579806207021,193.30306771752953 L -91.14881848671821,165.55487831651928 L -118.46093739438022,153.6251314419752 L -91.14881848671823,141.69538456743115 L -102.02579806207024,113.9471951664209 L -74.27760866105999,124.82417474177291 Z" fill="none" stroke="#FFFFFF" stroke-width="1.33819747010162" /><path d="M 62.34786178651591,97.5120558341109 L 74.27760866105997,124.8241747417729 L 102.02579806207022,113.9471951664209 L 91.14881848671823,141.69538456743115 L 118.46093739438022,153.6251314419752 L 91.14881848671823,165.55487831651928 L 102.02579806207022,193.30306771752953 L 74.27760866105997,182.42608814217752 L 62.34786178651591,209.73820704983953 L 50.41811491197184,182.42608814217752 L 22.669925510961598,193.30306771752953 L 33.5469050863136,165.55487831651928 L 6.234786178651589,153.6251314419752 L 33.54690508631359,141.69538456743115 L 22.669925510961583,113.9471951664209 L 50.41811491197183,124.82417474177291 Z" fill="none" stroke="#FFFFFF" stroke-width="1.33819747010162" /><path d="M 187.0435853595477,97.5120558341109 L 198.97333223409177,124.8241747417729 L 226.72152163510202,113.9471951664209 L 215.84454205975,141.69538456743115 L 243.15666096741202,153.6251314419752 L 215.84454205975,165.55487831651928 L 226.72152163510202,193.30306771752953 L 198.97333223409177,182.42608814217752 L 187.0435853595477,209.73820704983953 L 175.11383848500364,182.42608814217752 L 147.3656490839934,193.30306771752953 L 158.2426286593454,165.55487831651928 L 130.9305097516834,153.6251314419752 L 158.2426286593454,141.69538456743115 L 147.3656490839934,113.9471951664209 L 175.1138384850036,124.82417474177291 Z" fill="none" stroke="#FFFFFF" stroke-width="1.33819747010162" /><path d="M 311.7393089325795,97.5120558341109 L 323.6690558071235,124.8241747417729 L 351.4172452081338,113.9471951664209 L 340.5402656327818,141.69538456743115 L 367.85238454044384,153.6251314419752 L 340.5402656327818,165.55487831651928 L 351.4172452081338,193.30306771752953 L 323.6690558071235,182.42608814217752 L 311.7393089325795,209.73820704983953 L 299.80956205803545,182.42608814217752 L 272.0613726570252,193.30306771752953 L 282.93835223237716,165.55487831651928 L 255.62623332471517,153.6251314419752 L 282.93835223237716,141.69538456743115 L 272.0613726570252,113.9471951664209 L 299.8095620580354,124.82417474177291 Z" fill="none" stroke="#FFFFFF" stroke-width="1.33819747010162" /><path d="M 436.43503250561133,97.5120558341109 L 448.36477938015537,124.8241747417729 L 476.11296878116565,113.9471951664209 L 465.23598920581367,141.69538456743115 L 492.5481081134757,153.6251314419752 L 465.23598920581367,165.55487831651928 L 476.11296878116565,193.30306771752953 L 448.36477938015537,182.42608814217752 L 436.43503250561133,209.73820704983953 L 424.5052856310673,182.42608814217752 L 396.757096230057,193.30306771752953 L 407.634075805409,165.55487831651928 L 380.321956897747,153.6251314419752 L 407.634075805409,141.69538456743115 L 396.757096230057,113.9471951664209 L 424.50528563106724,124.82417474177291 Z" fill="none" stroke="#FFFFFF" stroke-width="1.33819747010162" /><path d="M 561.1307560786432,97.5120558341109 L 573.0605029531873,124.8241747417729 L 600.8086923541975,113.9471951664209 L 589.9317127788455,141.69538456743115 L 617.2438316865075,153.6251314419752 L 589.9317127788455,165.55487831651928 L 600.8086923541975,193.30306771752953 L 573.0605029531873,182.42608814217752 L 561.1307560786432,209.73820704983953 L 549.2010092040991,182.42608814217752 L 521.4528198030889,193.30306771752953 L 532.329799378441,165.55487831651928 L 505.01768047077894,153.6251314419752 L 532.329799378441,141.69538456743115 L 521.4528198030889,113.9471951664209 L 549.2010092040991,124.82417474177291 Z" fill="none" stroke="#FFFFFF" stroke-width="1.33819747010162" /><path d="M 3.435934921674223e-15,205.49855244835638 L 11.929746874544065,232.8106713560184 L 39.677936275554316,221.93369178066638 L 28.800956700202317,249.68188118167663 L 56.11307560786432,261.6116280562207 L 28.800956700202317,273.54137493076473 L 39.677936275554316,301.289564331775 L 11.929746874544065,290.41258475642303 L 3.435934921674223e-15,317.72470366408504 L -11.929746874544062,290.41258475642303 L -39.67793627555431,301.289564331775 L -28.80095670020231,273.5413749307648 L -56.11307560786432,261.6116280562207 L -28.800956700202313,249.68188118167663 L -39.67793627555432,221.93369178066638 L -11.92974687454408,232.8106713560184 Z" fill="none" stroke="#FFFFFF" stroke-width="1.33819747010162" /><path d="M 124.69572357303181,205.49855244835638 L 136.62547044757588,232.8106713560184 L 164.37365984858613,221.93369178066638 L 153.49668027323412,249.68188118167663 L 180.80879918089613,261.6116280562207 L 153.49668027323412,273.54137493076473 L 164.37365984858613,301.289564331775 L 136.62547044757588,290.41258475642303 L 124.69572357303181,317.72470366408504 L 112.76597669848775,290.41258475642303 L 85.0177872974775,301.289564331775 L 95.8947668728295,273.5413749307648 L 68.5826479651675,261.6116280562207 L 95.8947668728295,249.68188118167663 L 85.0177872974775,221.93369178066638 L 112.76597669848773,232.8106713560184 Z" fill="none" stroke="#FFFFFF" stroke-width="1.33819747010162" /><path d="M 249.39144714606363,205.49855244835638 L 261.32119402060766,232.8106713560184 L 289.06938342161794,221.93369178066638 L 278.19240384626596,249.68188118167663 L 305.504522753928,261.6116280562207 L 278.19240384626596,273.54137493076473 L 289.06938342161794,301.289564331775 L 261.32119402060766,290.41258475642303 L 249.39144714606363,317.72470366408504 L 237.46170027151956,290.41258475642303 L 209.7135108705093,301.289564331775 L 220.59049044586132,273.5413749307648 L 193.2783715381993,261.6116280562207 L 220.59049044586132,249.68188118167663 L 209.7135108705093,221.93369178066638 L 237.46170027151953,232.8106713560184 Z" fill="none" stroke="#FFFFFF" stroke-width="1.33819747010162" /><path d="M 374.0871707190954,205.49855244835638 L 386.0169175936395,232.8106713560184 L 413.7651069946497,221.93369178066638 L 402.88812741929775,249.68188118167663 L 430.2002463269597,261.6116280562207 L 402.88812741929775,273.54137493076473 L 413.7651069946497,301.289564331775 L 386.0169175936395,290.41258475642303 L 374.0871707190954,317.72470366408504 L 362.1574238445514,290.41258475642303 L 334.4092344435411,301.289564331775 L 345.2862140188931,273.5413749307648 L 317.9740951112311,261.6116280562207 L 345.2862140188931,249.68188118167663 L 334.4092344435411,221.93369178066638 L 362.1574238445513,232.8106713560184 Z" fill="none" stroke="#FFFFFF" stroke-width="1.33819747010162" /><path d="M 498.78289429212725,205.49855244835638 L 510.71264116667135,232.8106713560184 L 538.4608305676816,221.93369178066638 L 527.5838509923295,249.68188118167663 L 554.8959698999915,261.6116280562207 L 527.5838509923295,273.54137493076473 L 538.4608305676816,301.289564331775 L 510.71264116667135,290.41258475642303 L 498.78289429212725,317.72470366408504 L 486.8531474175832,290.41258475642303 L 459.10495801657294,301.289564331775 L 469.9819375919249,273.5413749307648 L 442.66981868426296,261.6116280562207 L 469.9819375919249,249.68188118167663 L 459.10495801657294,221.93369178066638 L 486.85314741758316,232.8106713560184 Z" fill="none" stroke="#FFFFFF" stroke-width="1.33819747010162" /><path d="M 623.4786178651591,205.49855244835638 L 635.4083647397032,232.8106713560184 L 663.1565541407134,221.93369178066638 L 652.2795745653614,249.68188118167663 L 679.5916934730234,261.6116280562207 L 652.2795745653614,273.54137493076473 L 663.1565541407134,301.289564331775 L 635.4083647397032,290.41258475642303 L 623.4786178651591,317.72470366408504 L 611.548870990615,290.41258475642303 L 583.8006815896048,301.289564331775 L 594.6776611649568,273.5413749307648 L 567.3655422572948,261.6116280562207 L 594.6776611649568,249.68188118167663 L 583.8006815896048,221.93369178066638 L 611.548870990615,232.8106713560184 Z" fill="none" stroke="#FFFFFF" stroke-width="1.33819747010162" /><path d="M -62.34786178651591,313.485049062602 L -50.41811491197184,340.79716797026396 L -22.66992551096159,329.920188394912 L -33.546905086313586,357.66837779592225 L -6.234786178651589,369.5981246704663 L -33.546905086313586,381.5278715450103 L -22.66992551096159,409.2760609460206 L -50.41811491197184,398.3990813706686 L -62.34786178651591,425.7112002783306 L -74.27760866105997,398.3990813706686 L -102.02579806207021,409.2760609460206 L -91.14881848671821,381.5278715450104 L -118.46093739438022,369.5981246704663 L -91.14881848671823,357.6683777959222 L -102.02579806207024,329.920188394912 L -74.27760866105999,340.79716797026396 Z" fill="none" stroke="#FFFFFF" stroke-width="1.33819747010162" /><path d="M 62.34786178651591,313.485049062602 L 74.27760866105997,340.79716797026396 L 102.02579806207022,329.920188394912 L 91.14881848671823,357.66837779592225 L 118.46093739438022,369.5981246704663 L 91.14881848671823,381.5278715450103 L 102.02579806207022,409.2760609460206 L 74.27760866105997,398.3990813706686 L 62.34786178651591,425.7112002783306 L 50.41811491197184,398.3990813706686 L 22.669925510961598,409.2760609460206 L 33.5469050863136,381.5278715450104 L 6.234786178651589,369.5981246704663 L 33.54690508631359,357.6683777959222 L 22.669925510961583,329.920188394912 L 50.41811491197183,340.79716797026396 Z" fill="none" stroke="#FFFFFF" stroke-width="1.33819747010162" /><path d="M 187.0435853595477,313.485049062602 L 198.97333223409177,340.79716797026396 L 226.72152163510202,329.920188394912 L 215.84454205975,357.66837779592225 L 243.15666096741202,369.5981246704663 L 215.84454205975,381.5278715450103 L 226.72152163510202,409.2760609460206 L 198.97333223409177,398.3990813706686 L 187.0435853595477,425.7112002783306 L 175.11383848500364,398.3990813706686 L 147.3656490839934,409.2760609460206 L 158.2426286593454,381.5278715450104 L 130.9305097516834,369.5981246704663 L 158.2426286593454,357.6683777959222 L 147.3656490839934,329.920188394912 L 175.1138384850036,340.79716797026396 Z" fill="none" stroke="#FFFFFF" stroke-width="1.33819747010162" /><path d="M 311.7393089325795,313.485049062602 L 323.6690558071235,340.79716797026396 L 351.4172452081338,329.920188394912 L 340.5402656327818,357.66837779592225 L 367.85238454044384,369.5981246704663 L 340.5402656327818,381.5278715450103 L 351.4172452081338,409.2760609460206 L 323.6690558071235,398.3990813706686 L 311.7393089325795,425.7112002783306 L 299.80956205803545,398.3990813706686 L 272.0613726570252,409.2760609460206 L 282.93835223237716,381.5278715450104 L 255.62623332471517,369.5981246704663 L 282.93835223237716,357.6683777959222 L 272.0613726570252,329.920188394912 L 299.8095620580354,340.79716797026396 Z" fill="none" stroke="#FFFFFF" stroke-width="1.33819747010162" /><path d="M 436.43503250561133,313.485049062602 L 448.36477938015537,340.79716797026396 L 476.11296878116565,329.920188394912 L 465.23598920581367,357.66837779592225 L 492.5481081134757,369.5981246704663 L 465.23598920581367,381.5278715450103 L 476.11296878116565,409.2760609460206 L 448.36477938015537,398.3990813706686 L 436.43503250561133,425.7112002783306 L 424.5052856310673,398.3990813706686 L 396.757096230057,409.2760609460206 L 407.634075805409,381.5278715450104 L 380.321956897747,369.5981246704663 L 407.634075805409,357.6683777959222 L 396.757096230057,329.920188394912 L 424.50528563106724,340.79716797026396 Z" fill="none" stroke="#FFFFFF" stroke-width="1.33819747010162" /><path d="M 561.1307560786432,313.485049062602 L 573.0605029531873,340.79716797026396 L 600.8086923541975,329.920188394912 L 589.9317127788455,357.66837779592225 L 617.2438316865075,369.5981246704663 L 589.9317127788455,381.5278715450103 L 600.8086923541975,409.2760609460206 L 573.0605029531873,398.3990813706686 L 561.1307560786432,425.7112002783306 L 549.2010092040991,398.3990813706686 L 521.4528198030889,409.2760609460206 L 532.329799378441,381.5278715450104 L 505.01768047077894,369.5981246704663 L 532.329799378441,357.6683777959222 L 521.4528198030889,329.920188394912 L 549.2010092040991,340.79716797026396 Z" fill="none" stroke="#FFFFFF" stroke-width="1.33819747010162" /><path d="M 3.435934921674223e-15,421.47154567684754 L 11.929746874544065,448.78366458450955 L 39.677936275554316,437.90668500915757 L 28.800956700202317,465.65487441016785 L 56.11307560786432,477.5846212847119 L 28.800956700202317,489.5143681592559 L 39.677936275554316,517.2625575602661 L 11.929746874544065,506.3855779849142 L 3.435934921674223e-15,533.6976968925762 L -11.929746874544062,506.3855779849142 L -39.67793627555431,517.2625575602663 L -28.80095670020231,489.514368159256 L -56.11307560786432,477.5846212847119 L -28.800956700202313,465.6548744101678 L -39.67793627555432,437.90668500915757 L -11.92974687454408,448.78366458450955 Z" fill="none" stroke="#FFFFFF" stroke-width="1.33819747010162" /><path d="M 124.69572357303181,421.47154567684754 L 136.62547044757588,448.78366458450955 L 164.37365984858613,437.90668500915757 L 153.49668027323412,465.65487441016785 L 180.80879918089613,477.5846212847119 L 153.49668027323412,489.5143681592559 L 164.37365984858613,517.2625575602661 L 136.62547044757588,506.3855779849142 L 124.69572357303181,533.6976968925762 L 112.76597669848775,506.3855779849142 L 85.0177872974775,517.2625575602663 L 95.8947668728295,489.514368159256 L 68.5826479651675,477.5846212847119 L 95.8947668728295,465.6548744101678 L 85.0177872974775,437.90668500915757 L 112.76597669848773,448.78366458450955 Z" fill="none" stroke="#FFFFFF" stroke-width="1.33819747010162" /><path d="M 249.39144714606363,421.47154567684754 L 261.32119402060766,448.78366458450955 L 289.06938342161794,437.90668500915757 L 278.19240384626596,465.65487441016785 L 305.504522753928,477.5846212847119 L 278.19240384626596,489.5143681592559 L 289.06938342161794,517.2625575602661 L 261.32119402060766,506.3855779849142 L 249.39144714606363,533.6976968925762 L 237.46170027151956,506.3855779849142 L 209.7135108705093,517.2625575602663 L 220.59049044586132,489.514368159256 L 193.2783715381993,477.5846212847119 L 220.59049044586132,465.6548744101678 L 209.7135108705093,437.90668500915757 L 237.46170027151953,448.78366458450955 Z" fill="none" stroke="#FFFFFF" stroke-width="1.33819747010162" /><path d="M 374.0871707190954,421.47154567684754 L 386.0169175936395,448.78366458450955 L 413.7651069946497,437.90668500915757 L 402.88812741929775,465.65487441016785 L 430.2002463269597,477.5846212847119 L 402.88812741929775,489.5143681592559 L 413.7651069946497,517.2625575602661 L 386.0169175936395,506.3855779849142 L 374.0871707190954,533.6976968925762 L 362.1574238445514,506.3855779849142 L 334.4092344435411,517.2625575602663 L 345.2862140188931,489.514368159256 L 317.9740951112311,477.5846212847119 L 345.2862140188931,465.6548744101678 L 334.4092344435411,437.90668500915757 L 362.1574238445513,448.78366458450955 Z" fill="none" stroke="#FFFFFF" stroke-width="1.33819747010162" /><path d="M 498.78289429212725,421.47154567684754 L 510.71264116667135,448.78366458450955 L 538.4608305676816,437.90668500915757 L 527.5838509923295,465.65487441016785 L 554.8959698999915,477.5846212847119 L 527.5838509923295,489.5143681592559 L 538.4608305676816,517.2625575602661 L 510.71264116667135,506.3855779849142 L 498.78289429212725,533.6976968925762 L 486.8531474175832,506.3855779849142 L 459.10495801657294,517.2625575602663 L 469.9819375919249,489.514368159256 L 442.66981868426296,477.5846212847119 L 469.9819375919249,465.6548744101678 L 459.10495801657294,437.90668500915757 L 486.85314741758316,448.78366458450955 Z" fill="none" stroke="#FFFFFF" stroke-width="1.33819747010162" /><path d="M 623.4786178651591,421.47154567684754 L 635.4083647397032,448.78366458450955 L 663.1565541407134,437.90668500915757 L 652.2795745653614,465.65487441016785 L 679.5916934730234,477.5846212847119 L 652.2795745653614,489.5143681592559 L 663.1565541407134,517.2625575602661 L 635.4083647397032,506.3855779849142 L 623.4786178651591,533.6976968925762 L 611.548870990615,506.3855779849142 L 583.8006815896048,517.2625575602663 L 594.6776611649568,489.514368159256 L 567.3655422572948,477.5846212847119 L 594.6776611649568,465.6548744101678 L 583.8006815896048,437.90668500915757 L 611.548870990615,448.78366458450955 Z" fill="none" stroke="#FFFFFF" stroke-width="1.33819747010162" /><path d="M -62.34786178651591,529.4580422910931 L -50.41811491197184,556.7701611987551 L -22.66992551096159,545.893181623403 L -33.546905086313586,573.6413710244133 L -6.234786178651589,585.5711178989574 L -33.546905086313586,597.5008647735015 L -22.66992551096159,625.2490541745117 L -50.41811491197184,614.3720745991596 L -62.34786178651591,641.6841935068217 L -74.27760866105997,614.3720745991596 L -102.02579806207021,625.2490541745117 L -91.14881848671821,597.5008647735015 L -118.46093739438022,585.5711178989574 L -91.14881848671823,573.6413710244133 L -102.02579806207024,545.893181623403 L -74.27760866105999,556.7701611987551 Z" fill="none" stroke="#FFFFFF" stroke-width="1.33819747010162" /><path d="M 62.34786178651591,529.4580422910931 L 74.27760866105997,556.7701611987551 L 102.02579806207022,545.893181623403 L 91.14881848671823,573.6413710244133 L 118.46093739438022,585.5711178989574 L 91.14881848671823,597.5008647735015 L 102.02579806207022,625.2490541745117 L 74.27760866105997,614.3720745991596 L 62.34786178651591,641.6841935068217 L 50.41811491197184,614.3720745991596 L 22.669925510961598,625.2490541745117 L 33.5469050863136,597.5008647735015 L 6.234786178651589,585.5711178989574 L 33.54690508631359,573.6413710244133 L 22.669925510961583,545.893181623403 L 50.41811491197183,556.7701611987551 Z" fill="none" stroke="#FFFFFF" stroke-width="1.33819747010162" /><path d="M 187.0435853595477,529.4580422910931 L 198.97333223409177,556.7701611987551 L 226.72152163510202,545.893181623403 L 215.84454205975,573.6413710244133 L 243.15666096741202,585.5711178989574 L 215.84454205975,597.5008647735015 L 226.72152163510202,625.2490541745117 L 198.97333223409177,614.3720745991596 L 187.0435853595477,641.6841935068217 L 175.11383848500364,614.3720745991596 L 147.3656490839934,625.2490541745117 L 158.2426286593454,597.5008647735015 L 130.9305097516834,585.5711178989574 L 158.2426286593454,573.6413710244133 L 147.3656490839934,545.893181623403 L 175.1138384850036,556.7701611987551 Z" fill="none" stroke="#FFFFFF" stroke-width="1.33819747010162" /><path d="M 311.7393089325795,529.4580422910931 L 323.6690558071235,556.7701611987551 L 351.4172452081338,545.893181623403 L 340.5402656327818,573.6413710244133 L 367.85238454044384,585.5711178989574 L 340.5402656327818,597.5008647735015 L 351.4172452081338,625.2490541745117 L 323.6690558071235,614.3720745991596 L 311.7393089325795,641.6841935068217 L 299.80956205803545,614.3720745991596 L 272.0613726570252,625.2490541745117 L 282.93835223237716,597.5008647735015 L 255.62623332471517,585.5711178989574 L 282.93835223237716,573.6413710244133 L 272.0613726570252,545.893181623403 L 299.8095620580354,556.7701611987551 Z" fill="none" stroke="#FFFFFF" stroke-width="1.33819747010162" /><path d="M 436.43503250561133,529.4580422910931 L 448.36477938015537,556.7701611987551 L 476.11296878116565,545.893181623403 L 465.23598920581367,573.6413710244133 L 492.5481081134757,585.5711178989574 L 465.23598920581367,597.5008647735015 L 476.11296878116565,625.2490541745117 L 448.36477938015537,614.3720745991596 L 436.43503250561133,641.6841935068217 L 424.5052856310673,614.3720745991596 L 396.757096230057,625.2490541745117 L 407.634075805409,597.5008647735015 L 380.321956897747,585.5711178989574 L 407.634075805409,573.6413710244133 L 396.757096230057,545.893181623403 L 424.50528563106724,556.7701611987551 Z" fill="none" stroke="#FFFFFF" stroke-width="1.33819747010162" /><path d="M 561.1307560786432,529.4580422910931 L 573.0605029531873,556.7701611987551 L 600.8086923541975,545.893181623403 L 589.9317127788455,573.6413710244133 L 617.2438316865075,585.5711178989574 L 589.9317127788455,597.5008647735015 L 600.8086923541975,625.2490541745117 L 573.0605029531873,614.3720745991596 L 561.1307560786432,641.6841935068217 L 549.2010092040991,614.3720745991596 L 521.4528198030889,625.2490541745117 L 532.329799378441,597.5008647735015 L 505.01768047077894,585.5711178989574 L 532.329799378441,573.6413710244133 L 521.4528198030889,545.893181623403 L 549.2010092040991,556.7701611987551 Z" fill="none" stroke="#FFFFFF" stroke-width="1.33819747010162" /><line x1="56.11307560786432" y1="45.638634827729646" x2="68.5826479651675" y2="45.638634827729646" stroke="#FFFFFF" stroke-width="0.5"/><line x1="180.80879918089613" y1="45.638634827729646" x2="193.2783715381993" y2="45.638634827729646" stroke="#FFFFFF" stroke-width="0.5"/><line x1="305.504522753928" y1="45.638634827729646" x2="317.9740951112311" y2="45.638634827729646" stroke="#FFFFFF" stroke-width="0.5"/><line x1="430.2002463269597" y1="45.638634827729646" x2="442.66981868426296" y2="45.638634827729646" stroke="#FFFFFF" stroke-width="0.5"/><line x1="118.46093739438022" y1="153.6251314419752" x2="130.9305097516834" y2="153.6251314419752" stroke="#FFFFFF" stroke-width="0.5"/><line x1="243.15666096741202" y1="153.6251314419752" x2="255.62623332471517" y2="153.6251314419752" stroke="#FFFFFF" stroke-width="0.5"/><line x1="367.85238454044384" y1="153.6251314419752" x2="380.321956897747" y2="153.6251314419752" stroke="#FFFFFF" stroke-width="0.5"/><line x1="492.5481081134757" y1="153.6251314419752" x2="505.01768047077894" y2="153.6251314419752" stroke="#FFFFFF" stroke-width="0.5"/><line x1="56.11307560786432" y1="261.6116280562207" x2="68.5826479651675" y2="261.6116280562207" stroke="#FFFFFF" stroke-width="0.5"/><line x1="180.80879918089613" y1="261.6116280562207" x2="193.2783715381993" y2="261.6116280562207" stroke="#FFFFFF" stroke-width="0.5"/><line x1="305.504522753928" y1="261.6116280562207" x2="317.9740951112311" y2="261.6116280562207" stroke="#FFFFFF" stroke-width="0.5"/><line x1="430.2002463269597" y1="261.6116280562207" x2="442.66981868426296" y2="261.6116280562207" stroke="#FFFFFF" stroke-width="0.5"/><line x1="118.46093739438022" y1="369.5981246704663" x2="130.9305097516834" y2="369.5981246704663" stroke="#FFFFFF" stroke-width="0.5"/><line x1="243.15666096741202" y1="369.5981246704663" x2="255.62623332471517" y2="369.5981246704663" stroke="#FFFFFF" stroke-width="0.5"/><line x1="367.85238454044384" y1="369.5981246704663" x2="380.321956897747" y2="369.5981246704663" stroke="#FFFFFF" stroke-width="0.5"/><line x1="492.5481081134757" y1="369.5981246704663" x2="505.01768047077894" y2="369.5981246704663" stroke="#FFFFFF" stroke-width="0.5"/><line x1="56.11307560786432" y1="477.5846212847119" x2="68.5826479651675" y2="477.5846212847119" stroke="#FFFFFF" stroke-width="0.5"/><line x1="180.80879918089613" y1="477.5846212847119" x2="193.2783715381993" y2="477.5846212847119" stroke="#FFFFFF" stroke-width="0.5"/><line x1="305.504522753928" y1="477.5846212847119" x2="317.9740951112311" y2="477.5846212847119" stroke="#FFFFFF" stroke-width="0.5"/><line x1="430.2002463269597" y1="477.5846212847119" x2="442.66981868426296" y2="477.5846212847119" stroke="#FFFFFF" stroke-width="0.5"/></g></svg>