<svg xmlns="http://www.w3.org/2000/svg" width="512" height="512" viewBox="0 0 512 512"><rect x="0" y="0" width="512" height="512" fill="#000000"/><g opacity="0.17017142182224032"><path d="M -35.941519467435114,-68.28888698812672 L -29.06440745032773,-52.544336569094746 L -13.068476540020598,-58.81456239484963 L -19.338702365775482,-42.81863148454249 L -3.5941519467435086,-35.941519467435114 L -19.338702365775482,-29.06440745032773 L -13.068476540020598,-13.068476540020601 L -29.06440745032773,-19.338702365775482 L -35.941519467435114,-3.5941519467435086 L -42.81863148454249,-19.338702365775482 L -58.81456239484963,-13.068476540020598 L -52.54433656909474,-29.064407450327725 L -68.28888698812672,-35.94151946743511 L -52.544336569094746,-42.8186314845425 L -58.81456239484963,-58.81456239484963 L -42.81863148454251,-52.54433656909474 Z" fill="none" stroke="#00A86B" stroke-width="2.7322392474078754" /><path d="M 35.941519467435114,-68.28888698812672 L 42.81863148454249,-52.544336569094746 L 58.81456239484963,-58.81456239484963 L 52.544336569094746,-42.81863148454249 L 68.28888698812672,-35.941519467435114 L 52.544336569094746,-29.06440745032773 L 58.81456239484963,-13.068476540020601 L 42.81863148454249,-19.338702365775482 L 35.941519467435114,-3.5941519467435086 L 29.064407450327735,-19.338702365775482 L 13.068476540020601,-13.068476540020598 L 19.338702365775486,-29.064407450327725 L 3.5941519467435086,-35.94151946743511 L 19.338702365775482,-42.8186314845425 L 13.068476540020594,-58.81456239484963 L 29.06440745032772,-52.54433656909474 Z" fill="none" stroke="#00A86B" stroke-width="2.7322392474078754" /><path d="M 107.82455840230534,-68.28888698812672 L 114.70167041941272,-52.544336569094746 L 130.69760132971987,-58.81456239484963 L 124.42737550396498,-42.81863148454249 L 140.17192592299693,-35.941519467435114 L 124.42737550396498,-29.06440745032773 L 130.69760132971987,-13.068476540020601 L 114.70167041941272,-19.338702365775482 L 107.82455840230534,-3.5941519467435086 L 100.94744638519796,-19.338702365775482 L 84.95151547489083,-13.068476540020598 L 91.22174130064572,-29.064407450327725 L 75.47719088161374,-35.94151946743511 L 91.2217413006457,-42.8186314845425 L 84.95151547489083,-58.81456239484963 L 100.94744638519795,-52.54433656909474 Z" fill="none" stroke="#00A86B" stroke-width="2.7322392474078754" /><path d="M 179.70759733717557,-68.28888698812672 L 186.58470935428295,-52.544336569094746 L 202.5806402645901,-58.81456239484963 L 196.3104144388352,-42.81863148454249 L 212.05496485786716,-35.941519467435114 L 196.3104144388352,-29.06440745032773 L 202.5806402645901,-13.068476540020601 L 186.58470935428295,-19.338702365775482 L 179.70759733717557,-3.5941519467435086 L 172.8304853200682,-19.338702365775482 L 156.83455440976107,-13.068476540020598 L 163.10478023551593,-29.064407450327725 L 147.36022981648398,-35.94151946743511 L 163.10478023551593,-42.8186314845425 L 156.83455440976104,-58.81456239484963 L 172.8304853200682,-52.54433656909474 Z" fill="none" stroke="#00A86B" stroke-width="2.7322392474078754" /><path d="M 251.5906362720458,-68.28888698812672 L 258.4677482891532,-52.544336569094746 L 274.46367919946033,-58.81456239484963 L 268.19345337370544,-42.81863148454249 L 283.9380037927374,-35.941519467435114 L 268.19345337370544,-29.06440745032773 L 274.46367919946033,-13.068476540020601 L 258.4677482891532,-19.338702365775482 L 251.5906362720458,-3.5941519467435086 L 244.71352425493842,-19.338702365775482 L 228.7175933446313,-13.068476540020598 L 234.98781917038616,-29.064407450327725 L 219.2432687513542,-35.94151946743511 L 234.98781917038616,-42.8186314845425 L 228.71759334463127,-58.81456239484963 L 244.71352425493842,-52.54433656909474 Z" fill="none" stroke="#00A86B" stroke-width="2.7322392474078754" /><path d="M 323.473675206916,-68.28888698812672 L 330.3507872240234,-52.544336569094746 L 346.34671813433056,-58.81456239484963 L 340.07649230857567,-42.81863148454249 L 355.8210427276076,-35.941519467435114 L 340.07649230857567,-29.06440745032773 L 346.34671813433056,-13.068476540020601 L 330.3507872240234,-19.338702365775482 L 323.473675206916,-3.5941519467435086 L 316.59656318980865,-19.338702365775482 L 300.6006322795015,-13.068476540020598 L 306.8708581052564,-29.064407450327725 L 291.12630768622444,-35.94151946743511 L 306.8708581052564,-42.8186314845425 L 300.6006322795015,-58.81456239484963 L 316.59656318980865,-52.54433656909474 Z" fill="none" stroke="#00A86B" stroke-width="2.7322392474078754" /><path d="M 395.35671414178626,-68.28888698812672 L 402.23382615889363,-52.544336569094746 L 418.2297570692008,-58.81456239484963 L 411.9595312434459,-42.81863148454249 L 427.70408166247785,-35.941519467435114 L 411.9595312434459,-29.06440745032773 L 418.2297570692008,-13.068476540020601 L 402.23382615889363,-19.338702365775482 L 395.35671414178626,-3.5941519467435086 L 388.4796021246789,-19.338702365775482 L 372.4836712143717,-13.068476540020598 L 378.7538970401266,-29.064407450327725 L 363.00934662109466,-35.94151946743511 L 378.7538970401266,-42.8186314845425 L 372.4836712143717,-58.81456239484963 L 388.4796021246789,-52.54433656909474 Z" fill="none" stroke="#00A86B" stroke-width="2.7322392474078754" /><path d="M 467.2397530766565,-68.28888698812672 L 474.11686509376386,-52.544336569094746 L 490.112796004071,-58.81456239484963 L 483.8425701783161,-42.81863148454249 L 499.5871205973481,-35.941519467435114 L 483.8425701783161,-29.06440745032773 L 490.112796004071,-13.068476540020601 L 474.11686509376386,-19.338702365775482 L 467.2397530766565,-3.5941519467435086 L 460.3626410595491,-19.338702365775482 L 444.36671014924195,-13.068476540020598 L 450.63693597499685,-29.064407450327725 L 434.8923855559649,-35.94151946743511 L 450.63693597499685,-42.8186314845425 L 444.36671014924195,-58.81456239484963 L 460.3626410595491,-52.54433656909474 Z" fill="none" stroke="#00A86B" stroke-width="2.7322392474078754" /><path d="M 539.1227920115267,-68.28888698812672 L 545.9999040286341,-52.544336569094746 L 561.9958349389412,-58.81456239484963 L 555.7256091131864,-42.81863148454249 L 571.4701595322183,-35.941519467435114 L 555.7256091131864,-29.06440745032773 L 561.9958349389412,-13.068476540020601 L 545.9999040286341,-19.338702365775482 L 539.1227920115267,-3.5941519467435086 L 532.2456799944193,-19.338702365775482 L 516.2497490841122,-13.068476540020598 L 522.5199749098671,-29.064407450327725 L 506.7754244908351,-35.94151946743511 L 522.5199749098671,-42.8186314845425 L 516.2497490841122,-58.81456239484963 L 532.2456799944193,-52.54433656909474 Z" fill="none" stroke="#00A86B" stroke-width="2.7322392474078754" /><path d="M 1.9807050047529015e-15,-6.038175270529102 L 6.8771120171073825,9.706375148502872 L 22.873042927414517,3.4361493227479905 L 16.60281710165963,19.43208023305512 L 32.347367520691606,26.309192250162504 L 16.60281710165963,33.18630426726988 L 22.873042927414517,49.18223517757701 L 6.8771120171073825,42.912009351822135 L 1.9807050047529015e-15,58.65655977085411 L -6.877112017107381,42.912009351822135 L -22.873042927414513,49.18223517757702 L -16.602817101659628,33.1863042672699 L -32.347367520691606,26.309192250162507 L -16.60281710165963,19.432080233055117 L -22.87304292741452,3.4361493227479905 L -6.877112017107391,9.706375148502875 Z" fill="none" stroke="#00A86B" stroke-width="2.7322392474078754" /><path d="M 71.88303893487023,-6.038175270529102 L 78.76015095197761,9.706375148502872 L 94.75608186228474,3.4361493227479905 L 88.48585603652987,19.43208023305512 L 104.23040645556183,26.309192250162504 L 88.48585603652987,33.18630426726988 L 94.75608186228474,49.18223517757701 L 78.76015095197761,42.912009351822135 L 71.88303893487023,58.65655977085411 L 65.00592691776285,42.912009351822135 L 49.00999600745571,49.18223517757702 L 55.280221833210604,33.1863042672699 L 39.53567141417862,26.309192250162507 L 55.2802218332106,19.432080233055117 L 49.00999600745571,3.4361493227479905 L 65.00592691776284,9.706375148502875 Z" fill="none" stroke="#00A86B" stroke-width="2.7322392474078754" /><path d="M 143.76607786974046,-6.038175270529102 L 150.64318988684784,9.706375148502872 L 166.639120797155,3.4361493227479905 L 160.3688949714001,19.43208023305512 L 176.11344539043205,26.309192250162504 L 160.3688949714001,33.18630426726988 L 166.639120797155,49.18223517757701 L 150.64318988684784,42.912009351822135 L 143.76607786974046,58.65655977085411 L 136.88896585263308,42.912009351822135 L 120.89303494232594,49.18223517757702 L 127.16326076808083,33.1863042672699 L 111.41871034904885,26.309192250162507 L 127.16326076808082,19.432080233055117 L 120.89303494232594,3.4361493227479905 L 136.88896585263308,9.706375148502875 Z" fill="none" stroke="#00A86B" stroke-width="2.7322392474078754" /><path d="M 215.64911680461068,-6.038175270529102 L 222.52622882171806,9.706375148502872 L 238.52215973202522,3.4361493227479905 L 232.25193390627032,19.43208023305512 L 247.99648432530228,26.309192250162504 L 232.25193390627032,33.18630426726988 L 238.52215973202522,49.18223517757701 L 222.52622882171806,42.912009351822135 L 215.64911680461068,58.65655977085411 L 208.7720047875033,42.912009351822135 L 192.77607387719618,49.18223517757702 L 199.04629970295105,33.1863042672699 L 183.3017492839191,26.309192250162507 L 199.04629970295105,19.432080233055117 L 192.77607387719615,3.4361493227479905 L 208.7720047875033,9.706375148502875 Z" fill="none" stroke="#00A86B" stroke-width="2.7322392474078754" /><path d="M 287.5321557394809,-6.038175270529102 L 294.4092677565883,9.706375148502872 L 310.40519866689544,3.4361493227479905 L 304.13497284114055,19.43208023305512 L 319.8795232601725,26.309192250162504 L 304.13497284114055,33.18630426726988 L 310.40519866689544,49.18223517757701 L 294.4092677565883,42.912009351822135 L 287.5321557394809,58.65655977085411 L 280.65504372237353,42.912009351822135 L 264.6591128120664,49.18223517757702 L 270.9293386378213,33.1863042672699 L 255.18478821878932,26.309192250162507 L 270.9293386378213,19.432080233055117 L 264.6591128120664,3.4361493227479905 L 280.65504372237353,9.706375148502875 Z" fill="none" stroke="#00A86B" stroke-width="2.7322392474078754" /><path d="M 359.41519467435114,-6.038175270529102 L 366.2923066914585,9.706375148502872 L 382.2882376017657,3.4361493227479905 L 376.0180117760108,19.43208023305512 L 391.76256219504273,26.309192250162504 L 376.0180117760108,33.18630426726988 L 382.2882376017657,49.18223517757701 L 366.2923066914585,42.912009351822135 L 359.41519467435114,58.65655977085411 L 352.53808265724376,42.912009351822135 L 336.5421517469366,49.18223517757702 L 342.8123775726915,33.1863042672699 L 327.06782715365955,26.309192250162507 L 342.8123775726915,19.432080233055117 L 336.5421517469366,3.4361493227479905 L 352.53808265724376,9.706375148502875 Z" fill="none" stroke="#00A86B" stroke-width="2.7322392474078754" /><path d="M 431.29823360922137,-6.038175270529102 L 438.17534562632875,9.706375148502872 L 454.1712765366359,3.4361493227479905 L 447.901050710881,19.43208023305512 L 463.64560112991296,26.309192250162504 L 447.901050710881,33.18630426726988 L 454.1712765366359,49.18223517757701 L 438.17534562632875,42.912009351822135 L 431.29823360922137,58.65655977085411 L 424.421121592114,42.912009351822135 L 408.42519068180684,49.18223517757702 L 414.69541650756173,33.1863042672699 L 398.9508660885298,26.309192250162507 L 414.69541650756173,19.432080233055117 L 408.42519068180684,3.4361493227479905 L 424.421121592114,9.706375148502875 Z" fill="none" stroke="#00A86B" stroke-width="2.7322392474078754" /><path d="M 503.1812725440916,-6.038175270529102 L 510.058384561199,9.706375148502872 L 526.0543154715061,3.4361493227479905 L 519.7840896457512,19.43208023305512 L 535.5286400647832,26.309192250162504 L 519.7840896457512,33.18630426726988 L 526.0543154715061,49.18223517757701 L 510.058384561199,42.912009351822135 L 503.1812725440916,58.65655977085411 L 496.3041605269842,42.912009351822135 L 480.30822961667707,49.18223517757702 L 486.57845544243196,33.1863042672699 L 470.8339050234,26.309192250162507 L 486.57845544243196,19.432080233055117 L 480.30822961667707,3.4361493227479905 L 496.3041605269842,9.706375148502875 Z" fill="none" stroke="#00A86B" stroke-width="2.7322392474078754" /><path d="M 575.0643114789618,-6.038175270529102 L 581.9414234960692,9.706375148502872 L 597.9373544063764,3.4361493227479905 L 591.6671285806215,19.43208023305512 L 607.4116789996534,26.309192250162504 L 591.6671285806215,33.18630426726988 L 597.9373544063764,49.18223517757701 L 581.9414234960692,42.912009351822135 L 575.0643114789618,58.65655977085411 L 568.1871994618544,42.912009351822135 L 552.1912685515473,49.18223517757702 L 558.4614943773022,33.1863042672699 L 542.7169439582702,26.309192250162507 L 558.4614943773022,19.432080233055117 L 552.1912685515473,3.4361493227479905 L 568.1871994618544,9.706375148502875 Z" fill="none" stroke="#00A86B" stroke-width="2.7322392474078754" /><path d="M -35.941519467435114,56.212536447068516 L -29.06440745032773,71.9570868661005 L -13.068476540020598,65.6868610403456 L -19.338702365775482,81.68279195065274 L -3.5941519467435086,88.55990396776012 L -19.338702365775482,95.4370159848675 L -13.068476540020598,111.43294689517464 L -29.06440745032773,105.16272106941975 L -35.941519467435114,120.90727148845173 L -42.81863148454249,105.16272106941975 L -58.81456239484963,111.43294689517464 L -52.54433656909474,95.43701598486751 L -68.28888698812672,88.55990396776012 L -52.544336569094746,81.68279195065273 L -58.81456239484963,65.6868610403456 L -42.81863148454251,71.9570868661005 Z" fill="none" stroke="#00A86B" stroke-width="2.7322392474078754" /><path d="M 35.941519467435114,56.212536447068516 L 42.81863148454249,71.9570868661005 L 58.81456239484963,65.6868610403456 L 52.544336569094746,81.68279195065274 L 68.28888698812672,88.55990396776012 L 52.544336569094746,95.4370159848675 L 58.81456239484963,111.43294689517464 L 42.81863148454249,105.16272106941975 L 35.941519467435114,120.90727148845173 L 29.064407450327735,105.16272106941975 L 13.068476540020601,111.43294689517464 L 19.338702365775486,95.43701598486751 L 3.5941519467435086,88.55990396776012 L 19.338702365775482,81.68279195065273 L 13.068476540020594,65.6868610403456 L 29.06440745032772,71.9570868661005 Z" fill="none" stroke="#00A86B" stroke-width="2.7322392474078754" /><path d="M 107.82455840230534,56.212536447068516 L 114.70167041941272,71.9570868661005 L 130.69760132971987,65.6868610403456 L 124.42737550396498,81.68279195065274 L 140.17192592299693,88.55990396776012 L 124.42737550396498,95.4370159848675 L 130.69760132971987,111.43294689517464 L 114.70167041941272,105.16272106941975 L 107.82455840230534,120.90727148845173 L 100.94744638519796,105.16272106941975 L 84.95151547489083,111.43294689517464 L 91.22174130064572,95.43701598486751 L 75.47719088161374,88.55990396776012 L 91.2217413006457,81.68279195065273 L 84.95151547489083,65.6868610403456 L 100.94744638519795,71.9570868661005 Z" fill="none" stroke="#00A86B" stroke-width="2.7322392474078754" /><path d="M 179.70759733717557,56.212536447068516 L 186.58470935428295,71.9570868661005 L 202.5806402645901,65.6868610403456 L 196.3104144388352,81.68279195065274 L 212.05496485786716,88.55990396776012 L 196.3104144388352,95.4370159848675 L 202.5806402645901,111.43294689517464 L 186.58470935428295,105.16272106941975 L 179.70759733717557,120.90727148845173 L 172.8304853200682,105.16272106941975 L 156.83455440976107,111.43294689517464 L 163.10478023551593,95.43701598486751 L 147.36022981648398,88.55990396776012 L 163.10478023551593,81.68279195065273 L 156.83455440976104,65.6868610403456 L 172.8304853200682,71.9570868661005 Z" fill="none" stroke="#00A86B" stroke-width="2.7322392474078754" /><path d="M 251.5906362720458,56.212536447068516 L 258.4677482891532,71.9570868661005 L 274.46367919946033,65.6868610403456 L 268.19345337370544,81.68279195065274 L 283.9380037927374,88.55990396776012 L 268.19345337370544,95.4370159848675 L 274.46367919946033,111.43294689517464 L 258.4677482891532,105.16272106941975 L 251.5906362720458,120.90727148845173 L 244.71352425493842,105.16272106941975 L 228.7175933446313,111.43294689517464 L 234.98781917038616,95.43701598486751 L 219.2432687513542,88.55990396776012 L 234.98781917038616,81.68279195065273 L 228.71759334463127,65.6868610403456 L 244.71352425493842,71.9570868661005 Z" fill="none" stroke="#00A86B" stroke-width="2.7322392474078754" /><path d="M 323.473675206916,56.212536447068516 L 330.3507872240234,71.9570868661005 L 346.34671813433056,65.6868610403456 L 340.07649230857567,81.68279195065274 L 355.8210427276076,88.55990396776012 L 340.07649230857567,95.4370159848675 L 346.34671813433056,111.43294689517464 L 330.3507872240234,105.16272106941975 L 323.473675206916,120.90727148845173 L 316.59656318980865,105.16272106941975 L 300.6006322795015,111.43294689517464 L 306.8708581052564,95.43701598486751 L 291.12630768622444,88.55990396776012 L 306.8708581052564,81.68279195065273 L 300.6006322795015,65.6868610403456 L 316.59656318980865,71.9570868661005 Z" fill="none" stroke="#00A86B" stroke-width="2.7322392474078754" /><path d="M 395.35671414178626,56.212536447068516 L 402.23382615889363,71.9570868661005 L 418.2297570692008,65.6868610403456 L 411.9595312434459,81.68279195065274 L 427.70408166247785,88.55990396776012 L 411.9595312434459,95.4370159848675 L 418.2297570692008,111.43294689517464 L 402.23382615889363,105.16272106941975 L 395.35671414178626,120.90727148845173 L 388.4796021246789,105.16272106941975 L 372.4836712143717,111.43294689517464 L 378.7538970401266,95.43701598486751 L 363.00934662109466,88.55990396776012 L 378.7538970401266,81.68279195065273 L 372.4836712143717,65.6868610403456 L 388.4796021246789,71.9570868661005 Z" fill="none" stroke="#00A86B" stroke-width="2.7322392474078754" /><path d="M 467.2397530766565,56.212536447068516 L 474.11686509376386,71.9570868661005 L 490.112796004071,65.6868610403456 L 483.8425701783161,81.68279195065274 L 499.5871205973481,88.55990396776012 L 483.8425701783161,95.4370159848675 L 490.112796004071,111.43294689517464 L 474.11686509376386,105.16272106941975 L 467.2397530766565,120.90727148845173 L 460.3626410595491,105.16272106941975 L 444.36671014924195,111.43294689517464 L 450.63693597499685,95.43701598486751 L 434.8923855559649,88.55990396776012 L 450.63693597499685,81.68279195065273 L 444.36671014924195,65.6868610403456 L 460.3626410595491,71.9570868661005 Z" fill="none" stroke="#00A86B" stroke-width="2.7322392474078754" /><path d="M 539.1227920115267,56.212536447068516 L 545.9999040286341,71.9570868661005 L 561.9958349389412,65.6868610403456 L 555.7256091131864,81.68279195065274 L 571.4701595322183,88.55990396776012 L 555.7256091131864,95.4370159848675 L 561.9958349389412,111.43294689517464 L 545.9999040286341,105.16272106941975 L 539.1227920115267,120.90727148845173 L 532.2456799944193,105.16272106941975 L 516.2497490841122,111.43294689517464 L 522.5199749098671,95.43701598486751 L 506.7754244908351,88.55990396776012 L 522.5199749098671,81.68279195065273 L 516.2497490841122,65.6868610403456 L 532.2456799944193,71.9570868661005 Z" fill="none" stroke="#00A86B" stroke-width="2.7322392474078754" /><path d="M 1.9807050047529015e-15,118.46324816466613 L 6.8771120171073825,134.2077985836981 L 22.873042927414517,127.93757275794322 L 16.60281710165963,143.93350366825035 L 32.347367520691606,150.81061568535773 L 16.60281710165963,157.6877277024651 L 22.873042927414517,173.68365861277223 L 6.8771120171073825,167.41343278701737 L 1.9807050047529015e-15,183.15798320604932 L -6.877112017107381,167.41343278701737 L -22.873042927414513,173.68365861277226 L -16.602817101659628,157.6877277024651 L -32.347367520691606,150.81061568535773 L -16.60281710165963,143.93350366825035 L -22.87304292741452,127.93757275794322 L -6.877112017107391,134.2077985836981 Z" fill="none" stroke="#00A86B" stroke-width="2.7322392474078754" /><path d="M 71.88303893487023,118.46324816466613 L 78.76015095197761,134.2077985836981 L 94.75608186228474,127.93757275794322 L 88.48585603652987,143.93350366825035 L 104.23040645556183,150.81061568535773 L 88.48585603652987,157.6877277024651 L 94.75608186228474,173.68365861277223 L 78.76015095197761,167.41343278701737 L 71.88303893487023,183.15798320604932 L 65.00592691776285,167.41343278701737 L 49.00999600745571,173.68365861277226 L 55.280221833210604,157.6877277024651 L 39.53567141417862,150.81061568535773 L 55.2802218332106,143.93350366825035 L 49.00999600745571,127.93757275794322 L 65.00592691776284,134.2077985836981 Z" fill="none" stroke="#00A86B" stroke-width="2.7322392474078754" /><path d="M 143.76607786974046,118.46324816466613 L 150.64318988684784,134.2077985836981 L 166.639120797155,127.93757275794322 L 160.3688949714001,143.93350366825035 L 176.11344539043205,150.81061568535773 L 160.3688949714001,157.6877277024651 L 166.639120797155,173.68365861277223 L 150.64318988684784,167.41343278701737 L 143.76607786974046,183.15798320604932 L 136.88896585263308,167.41343278701737 L 120.89303494232594,173.68365861277226 L 127.16326076808083,157.6877277024651 L 111.41871034904885,150.81061568535773 L 127.16326076808082,143.93350366825035 L 120.89303494232594,127.93757275794322 L 136.88896585263308,134.2077985836981 Z" fill="none" stroke="#00A86B" stroke-width="2.7322392474078754" /><path d="M 215.64911680461068,118.46324816466613 L 222.52622882171806,134.2077985836981 L 238.52215973202522,127.93757275794322 L 232.25193390627032,143.93350366825035 L 247.99648432530228,150.81061568535773 L 232.25193390627032,157.6877277024651 L 238.52215973202522,173.68365861277223 L 222.52622882171806,167.41343278701737 L 215.64911680461068,183.15798320604932 L 208.7720047875033,167.41343278701737 L 192.77607387719618,173.68365861277226 L 199.04629970295105,157.6877277024651 L 183.3017492839191,150.81061568535773 L 199.04629970295105,143.93350366825035 L 192.77607387719615,127.93757275794322 L 208.7720047875033,134.2077985836981 Z" fill="none" stroke="#00A86B" stroke-width="2.7322392474078754" /><path d="M 287.5321557394809,118.46324816466613 L 294.4092677565883,134.2077985836981 L 310.40519866689544,127.93757275794322 L 304.13497284114055,143.93350366825035 L 319.8795232601725,150.81061568535773 L 304.13497284114055,157.6877277024651 L 310.40519866689544,173.68365861277223 L 294.4092677565883,167.41343278701737 L 287.5321557394809,183.15798320604932 L 280.65504372237353,167.41343278701737 L 264.6591128120664,173.68365861277226 L 270.9293386378213,157.6877277024651 L 255.18478821878932,150.81061568535773 L 270.9293386378213,143.93350366825035 L 264.6591128120664,127.93757275794322 L 280.65504372237353,134.2077985836981 Z" fill="none" stroke="#00A86B" stroke-width="2.7322392474078754" /><path d="M 359.41519467435114,118.46324816466613 L 366.2923066914585,134.2077985836981 L 382.2882376017657,127.93757275794322 L 376.0180117760108,143.93350366825035 L 391.76256219504273,150.81061568535773 L 376.0180117760108,157.6877277024651 L 382.2882376017657,173.68365861277223 L 366.2923066914585,167.41343278701737 L 359.41519467435114,183.15798320604932 L 352.53808265724376,167.41343278701737 L 336.5421517469366,173.68365861277226 L 342.8123775726915,157.6877277024651 L 327.06782715365955,150.81061568535773 L 342.8123775726915,143.93350366825035 L 336.5421517469366,127.93757275794322 L 352.53808265724376,134.2077985836981 Z" fill="none" stroke="#00A86B" stroke-width="2.7322392474078754" /><path d="M 431.29823360922137,118.46324816466613 L 438.17534562632875,134.2077985836981 L 454.1712765366359,127.93757275794322 L 447.901050710881,143.93350366825035 L 463.64560112991296,150.81061568535773 L 447.901050710881,157.6877277024651 L 454.1712765366359,173.68365861277223 L 438.17534562632875,167.41343278701737 L 431.29823360922137,183.15798320604932 L 424.421121592114,167.41343278701737 L 408.42519068180684,173.68365861277226 L 414.69541650756173,157.6877277024651 L 398.9508660885298,150.81061568535773 L 414.69541650756173,143.93350366825035 L 408.42519068180684,127.93757275794322 L 424.421121592114,134.2077985836981 Z" fill="none" stroke="#00A86B" stroke-width="2.7322392474078754" /><path d="M 503.1812725440916,118.46324816466613 L 510.058384561199,134.2077985836981 L 526.0543154715061,127.93757275794322 L 519.7840896457512,143.93350366825035 L 535.5286400647832,150.81061568535773 L 519.7840896457512,157.6877277024651 L 526.0543154715061,173.68365861277223 L 510.058384561199,167.41343278701737 L 503.1812725440916,183.15798320604932 L 496.3041605269842,167.41343278701737 L 480.30822961667707,173.68365861277226 L 486.57845544243196,157.6877277024651 L 470.8339050234,150.81061568535773 L 486.57845544243196,143.93350366825035 L 480.30822961667707,127.93757275794322 L 496.3041605269842,134.2077985836981 Z" fill="none" stroke="#00A86B" stroke-width="2.7322392474078754" /><path d="M 575.0643114789618,118.46324816466613 L 581.9414234960692,134.2077985836981 L 597.9373544063764,127.93757275794322 L 591.6671285806215,143.93350366825035 L 607.4116789996534,150.81061568535773 L 591.6671285806215,157.6877277024651 L 597.9373544063764,173.68365861277223 L 581.9414234960692,167.41343278701737 L 575.0643114789618,183.15798320604932 L 568.1871994618544,167.41343278701737 L 552.1912685515473,173.68365861277226 L 558.4614943773022,157.6877277024651 L 542.7169439582702,150.81061568535773 L 558.4614943773022,143.93350366825035 L 552.1912685515473,127.93757275794322 L 568.1871994618544,134.2077985836981 Z" fill="none" stroke="#00A86B" stroke-width="2.7322392474078754" /><path d="M -35.941519467435114,180.71395988226374 L -29.06440745032773,196.45851030129572 L -13.068476540020598,190.18828447554085 L -19.338702365775482,206.18421538584798 L -3.5941519467435086,213.06132740295536 L -19.338702365775482,219.93843942006274 L -13.068476540020598,235.93437033036986 L -29.06440745032773,229.664144504615 L -35.941519467435114,245.40869492364698 L -42.81863148454249,229.664144504615 L -58.81456239484963,235.93437033036986 L -52.54433656909474,219.93843942006274 L -68.28888698812672,213.06132740295536 L -52.544336569094746,206.18421538584798 L -58.81456239484963,190.18828447554085 L -42.81863148454251,196.45851030129572 Z" fill="none" stroke="#00A86B" stroke-width="2.7322392474078754" /><path d="M 35.941519467435114,180.71395988226374 L 42.81863148454249,196.45851030129572 L 58.81456239484963,190.18828447554085 L 52.544336569094746,206.18421538584798 L 68.28888698812672,213.06132740295536 L 52.544336569094746,219.93843942006274 L 58.81456239484963,235.93437033036986 L 42.81863148454249,229.664144504615 L 35.941519467435114,245.40869492364698 L 29.064407450327735,229.664144504615 L 13.068476540020601,235.93437033036986 L 19.338702365775486,219.93843942006274 L 3.5941519467435086,213.06132740295536 L 19.338702365775482,206.18421538584798 L 13.068476540020594,190.18828447554085 L 29.06440745032772,196.45851030129572 Z" fill="none" stroke="#00A86B" stroke-width="2.7322392474078754" /><path d="M 107.82455840230534,180.71395988226374 L 114.70167041941272,196.45851030129572 L 130.69760132971987,190.18828447554085 L 124.42737550396498,206.18421538584798 L 140.17192592299693,213.06132740295536 L 124.42737550396498,219.93843942006274 L 130.69760132971987,235.93437033036986 L 114.70167041941272,229.664144504615 L 107.82455840230534,245.40869492364698 L 100.94744638519796,229.664144504615 L 84.95151547489083,235.93437033036986 L 91.22174130064572,219.93843942006274 L 75.47719088161374,213.06132740295536 L 91.2217413006457,206.18421538584798 L 84.95151547489083,190.18828447554085 L 100.94744638519795,196.45851030129572 Z" fill="none" stroke="#00A86B" stroke-width="2.7322392474078754" /><path d="M 179.70759733717557,180.71395988226374 L 186.58470935428295,196.45851030129572 L 202.5806402645901,190.18828447554085 L 196.3104144388352,206.18421538584798 L 212.05496485786716,213.06132740295536 L 196.3104144388352,219.93843942006274 L 202.5806402645901,235.93437033036986 L 186.58470935428295,229.664144504615 L 179.70759733717557,245.40869492364698 L 172.8304853200682,229.664144504615 L 156.83455440976107,235.93437033036986 L 163.10478023551593,219.93843942006274 L 147.36022981648398,213.06132740295536 L 163.10478023551593,206.18421538584798 L 156.83455440976104,190.18828447554085 L 172.8304853200682,196.45851030129572 Z" fill="none" stroke="#00A86B" stroke-width="2.7322392474078754" /><path d="M 251.5906362720458,180.71395988226374 L 258.4677482891532,196.45851030129572 L 274.46367919946033,190.18828447554085 L 268.19345337370544,206.18421538584798 L 283.9380037927374,213.06132740295536 L 268.19345337370544,219.93843942006274 L 274.46367919946033,235.93437033036986 L 258.4677482891532,229.664144504615 L 251.5906362720458,245.40869492364698 L 244.71352425493842,229.664144504615 L 228.7175933446313,235.93437033036986 L 234.98781917038616,219.93843942006274 L 219.2432687513542,213.06132740295536 L 234.98781917038616,206.18421538584798 L 228.71759334463127,190.18828447554085 L 244.71352425493842,196.45851030129572 Z" fill="none" stroke="#00A86B" stroke-width="2.7322392474078754" /><path d="M 323.473675206916,180.71395988226374 L 330.3507872240234,196.45851030129572 L 346.34671813433056,190.18828447554085 L 340.07649230857567,206.18421538584798 L 355.8210427276076,213.06132740295536 L 340.07649230857567,219.93843942006274 L 346.34671813433056,235.93437033036986 L 330.3507872240234,229.664144504615 L 323.473675206916,245.40869492364698 L 316.59656318980865,229.664144504615 L 300.6006322795015,235.93437033036986 L 306.8708581052564,219.93843942006274 L 291.12630768622444,213.06132740295536 L 306.8708581052564,206.18421538584798 L 300.6006322795015,190.18828447554085 L 316.59656318980865,196.45851030129572 Z" fill="none" stroke="#00A86B" stroke-width="2.7322392474078754" /><path d="M 395.35671414178626,180.71395988226374 L 402.23382615889363,196.45851030129572 L 418.2297570692008,190.18828447554085 L 411.9595312434459,206.18421538584798 L 427.70408166247785,213.06132740295536 L 411.9595312434459,219.93843942006274 L 418.2297570692008,235.93437033036986 L 402.23382615889363,229.664144504615 L 395.35671414178626,245.40869492364698 L 388.4796021246789,229.664144504615 L 372.4836712143717,235.93437033036986 L 378.7538970401266,219.93843942006274 L 363.00934662109466,213.06132740295536 L 378.7538970401266,206.18421538584798 L 372.4836712143717,190.18828447554085 L 388.4796021246789,196.45851030129572 Z" fill="none" stroke="#00A86B" stroke-width="2.7322392474078754" /><path d="M 467.2397530766565,180.71395988226374 L 474.11686509376386,196.45851030129572 L 490.112796004071,190.18828447554085 L 483.8425701783161,206.18421538584798 L 499.5871205973481,213.06132740295536 L 483.8425701783161,219.93843942006274 L 490.112796004071,235.93437033036986 L 474.11686509376386,229.664144504615 L 467.2397530766565,245.40869492364698 L 460.3626410595491,229.664144504615 L 444.36671014924195,235.93437033036986 L 450.63693597499685,219.93843942006274 L 434.8923855559649,213.06132740295536 L 450.63693597499685,206.18421538584798 L 444.36671014924195,190.18828447554085 L 460.3626410595491,196.45851030129572 Z" fill="none" stroke="#00A86B" stroke-width="2.7322392474078754" /><path d="M 539.1227920115267,180.71395988226374 L 545.9999040286341,196.45851030129572 L 561.9958349389412,190.18828447554085 L 555.7256091131864,206.18421538584798 L 571.4701595322183,213.06132740295536 L 555.7256091131864,219.93843942006274 L 561.9958349389412,235.93437033036986 L 545.9999040286341,229.664144504615 L 539.1227920115267,245.40869492364698 L 532.2456799944193,229.664144504615 L 516.2497490841122,235.93437033036986 L 522.5199749098671,219.93843942006274 L 506.7754244908351,213.06132740295536 L 522.5199749098671,206.18421538584798 L 516.2497490841122,190.18828447554085 L 532.2456799944193,196.45851030129572 Z" fill="none" stroke="#00A86B" stroke-width="2.7322392474078754" /><path d="M 1.9807050047529015e-15,242.9646715998614 L 6.8771120171073825,258.70922201889334 L 22.873042927414517,252.43899619313848 L 16.60281710165963,268.4349271034456 L 32.347367520691606,275.312039120553 L 16.60281710165963,282.18915113766036 L 22.873042927414517,298.1850820479675 L 6.8771120171073825,291.9148562222126 L 1.9807050047529015e-15,307.6594066412446 L -6.877112017107381,291.9148562222126 L -22.873042927414513,298.1850820479675 L -16.602817101659628,282.18915113766036 L -32.347367520691606,275.312039120553 L -16.60281710165963,268.4349271034456 L -22.87304292741452,252.43899619313848 L -6.877112017107391,258.70922201889334 Z" fill="none" stroke="#00A86B" stroke-width="2.7322392474078754" /><path d="M 71.88303893487023,242.9646715998614 L 78.76015095197761,258.70922201889334 L 94.75608186228474,252.43899619313848 L 88.48585603652987,268.4349271034456 L 104.23040645556183,275.312039120553 L 88.48585603652987,282.18915113766036 L 94.75608186228474,298.1850820479675 L 78.76015095197761,291.9148562222126 L 71.88303893487023,307.6594066412446 L 65.00592691776285,291.9148562222126 L 49.00999600745571,298.1850820479675 L 55.280221833210604,282.18915113766036 L 39.53567141417862,275.312039120553 L 55.2802218332106,268.4349271034456 L 49.00999600745571,252.43899619313848 L 65.00592691776284,258.70922201889334 Z" fill="none" stroke="#00A86B" stroke-width="2.7322392474078754" /><path d="M 143.76607786974046,242.9646715998614 L 150.64318988684784,258.70922201889334 L 166.639120797155,252.43899619313848 L 160.3688949714001,268.4349271034456 L 176.11344539043205,275.312039120553 L 160.3688949714001,282.18915113766036 L 166.639120797155,298.1850820479675 L 150.64318988684784,291.9148562222126 L 143.76607786974046,307.6594066412446 L 136.88896585263308,291.9148562222126 L 120.89303494232594,298.1850820479675 L 127.16326076808083,282.18915113766036 L 111.41871034904885,275.312039120553 L 127.16326076808082,268.4349271034456 L 120.89303494232594,252.43899619313848 L 136.88896585263308,258.70922201889334 Z" fill="none" stroke="#00A86B" stroke-width="2.7322392474078754" /><path d="M 215.64911680461068,242.9646715998614 L 222.52622882171806,258.70922201889334 L 238.52215973202522,252.43899619313848 L 232.25193390627032,268.4349271034456 L 247.99648432530228,275.312039120553 L 232.25193390627032,282.18915113766036 L 238.52215973202522,298.1850820479675 L 222.52622882171806,291.9148562222126 L 215.64911680461068,307.6594066412446 L 208.7720047875033,291.9148562222126 L 192.77607387719618,298.1850820479675 L 199.04629970295105,282.18915113766036 L 183.3017492839191,275.312039120553 L 199.04629970295105,268.4349271034456 L 192.77607387719615,252.43899619313848 L 208.7720047875033,258.70922201889334 Z" fill="none" stroke="#00A86B" stroke-width="2.7322392474078754" /><path d="M 287.5321557394809,242.9646715998614 L 294.4092677565883,258.70922201889334 L 310.40519866689544,252.43899619313848 L 304.13497284114055,268.4349271034456 L 319.8795232601725,275.312039120553 L 304.13497284114055,282.18915113766036 L 310.40519866689544,298.1850820479675 L 294.4092677565883,291.9148562222126 L 287.5321557394809,307.6594066412446 L 280.65504372237353,291.9148562222126 L 264.6591128120664,298.1850820479675 L 270.9293386378213,282.18915113766036 L 255.18478821878932,275.312039120553 L 270.9293386378213,268.4349271034456 L 264.6591128120664,252.43899619313848 L 280.65504372237353,258.70922201889334 Z" fill="none" stroke="#00A86B" stroke-width="2.7322392474078754" /><path d="M 359.41519467435114,242.9646715998614 L 366.2923066914585,258.70922201889334 L 382.2882376017657,252.43899619313848 L 376.0180117760108,268.4349271034456 L 391.76256219504273,275.312039120553 L 376.0180117760108,282.18915113766036 L 382.2882376017657,298.1850820479675 L 366.2923066914585,291.9148562222126 L 359.41519467435114,307.6594066412446 L 352.53808265724376,291.9148562222126 L 336.5421517469366,298.1850820479675 L 342.8123775726915,282.18915113766036 L 327.06782715365955,275.312039120553 L 342.8123775726915,268.4349271034456 L 336.5421517469366,252.43899619313848 L 352.53808265724376,258.70922201889334 Z" fill="none" stroke="#00A86B" stroke-width="2.7322392474078754" /><path d="M 431.29823360922137,242.9646715998614 L 438.17534562632875,258.70922201889334 L 454.1712765366359,252.43899619313848 L 447.901050710881,268.4349271034456 L 463.64560112991296,275.312039120553 L 447.901050710881,282.18915113766036 L 454.1712765366359,298.1850820479675 L 438.17534562632875,291.9148562222126 L 431.29823360922137,307.6594066412446 L 424.421121592114,291.9148562222126 L 408.42519068180684,298.1850820479675 L 414.69541650756173,282.18915113766036 L 398.9508660885298,275.312039120553 L 414.69541650756173,268.4349271034456 L 408.42519068180684,252.43899619313848 L 424.421121592114,258.70922201889334 Z" fill="none" stroke="#00A86B" stroke-width="2.7322392474078754" /><path d="M 503.1812725440916,242.9646715998614 L 510.058384561199,258.70922201889334 L 526.0543154715061,252.43899619313848 L 519.7840896457512,268.4349271034456 L 535.5286400647832,275.312039120553 L 519.7840896457512,282.18915113766036 L 526.0543154715061,298.1850820479675 L 510.058384561199,291.9148562222126 L 503.1812725440916,307.6594066412446 L 496.3041605269842,291.9148562222126 L 480.30822961667707,298.1850820479675 L 486.57845544243196,282.18915113766036 L 470.8339050234,275.312039120553 L 486.57845544243196,268.4349271034456 L 480.30822961667707,252.43899619313848 L 496.3041605269842,258.70922201889334 Z" fill="none" stroke="#00A86B" stroke-width="2.7322392474078754" /><path d="M 575.0643114789618,242.9646715998614 L 581.9414234960692,258.70922201889334 L 597.9373544063764,252.43899619313848 L 591.6671285806215,268.4349271034456 L 607.4116789996534,275.312039120553 L 591.6671285806215,282.18915113766036 L 597.9373544063764,298.1850820479675 L 581.9414234960692,291.9148562222126 L 575.0643114789618,307.6594066412446 L 568.1871994618544,291.9148562222126 L 552.1912685515473,298.1850820479675 L 558.4614943773022,282.18915113766036 L 542.7169439582702,275.312039120553 L 558.4614943773022,268.4349271034456 L 552.1912685515473,252.43899619313848 L 568.1871994618544,258.70922201889334 Z" fill="none" stroke="#00A86B" stroke-width="2.7322392474078754" /><path d="M -35.941519467435114,305.215383317459 L -29.06440745032773,320.95993373649094 L -13.068476540020598,314.68970791073605 L -19.338702365775482,330.6856388210432 L -3.5941519467435086,337.5627508381506 L -19.338702365775482,344.43986285525796 L -13.068476540020598,360.4357937655651 L -29.06440745032773,354.1655679398102 L -35.941519467435114,369.91011835884217 L -42.81863148454249,354.1655679398102 L -58.81456239484963,360.4357937655651 L -52.54433656909474,344.43986285525796 L -68.28888698812672,337.5627508381506 L -52.544336569094746,330.6856388210432 L -58.81456239484963,314.68970791073605 L -42.81863148454251,320.95993373649094 Z" fill="none" stroke="#00A86B" stroke-width="2.7322392474078754" /><path d="M 35.941519467435114,305.215383317459 L 42.81863148454249,320.95993373649094 L 58.81456239484963,314.68970791073605 L 52.544336569094746,330.6856388210432 L 68.28888698812672,337.5627508381506 L 52.544336569094746,344.43986285525796 L 58.81456239484963,360.4357937655651 L 42.81863148454249,354.1655679398102 L 35.941519467435114,369.91011835884217 L 29.064407450327735,354.1655679398102 L 13.068476540020601,360.4357937655651 L 19.338702365775486,344.43986285525796 L 3.5941519467435086,337.5627508381506 L 19.338702365775482,330.6856388210432 L 13.068476540020594,314.68970791073605 L 29.06440745032772,320.95993373649094 Z" fill="none" stroke="#00A86B" stroke-width="2.7322392474078754" /><path d="M 107.82455840230534,305.215383317459 L 114.70167041941272,320.95993373649094 L 130.69760132971987,314.68970791073605 L 124.42737550396498,330.6856388210432 L 140.17192592299693,337.5627508381506 L 124.42737550396498,344.43986285525796 L 130.69760132971987,360.4357937655651 L 114.70167041941272,354.1655679398102 L 107.82455840230534,369.91011835884217 L 100.94744638519796,354.1655679398102 L 84.95151547489083,360.4357937655651 L 91.22174130064572,344.43986285525796 L 75.47719088161374,337.5627508381506 L 91.2217413006457,330.6856388210432 L 84.95151547489083,314.68970791073605 L 100.94744638519795,320.95993373649094 Z" fill="none" stroke="#00A86B" stroke-width="2.7322392474078754" /><path d="M 179.70759733717557,305.215383317459 L 186.58470935428295,320.95993373649094 L 202.5806402645901,314.68970791073605 L 196.3104144388352,330.6856388210432 L 212.05496485786716,337.5627508381506 L 196.3104144388352,344.43986285525796 L 202.5806402645901,360.4357937655651 L 186.58470935428295,354.1655679398102 L 179.70759733717557,369.91011835884217 L 172.8304853200682,354.1655679398102 L 156.83455440976107,360.4357937655651 L 163.10478023551593,344.43986285525796 L 147.36022981648398,337.5627508381506 L 163.10478023551593,330.6856388210432 L 156.83455440976104,314.68970791073605 L 172.8304853200682,320.95993373649094 Z" fill="none" stroke="#00A86B" stroke-width="2.7322392474078754" /><path d="M 251.5906362720458,305.215383317459 L 258.4677482891532,320.95993373649094 L 274.46367919946033,314.68970791073605 L 268.19345337370544,330.6856388210432 L 283.9380037927374,337.5627508381506 L 268.19345337370544,344.43986285525796 L 274.46367919946033,360.4357937655651 L 258.4677482891532,354.1655679398102 L 251.5906362720458,369.91011835884217 L 244.71352425493842,354.1655679398102 L 228.7175933446313,360.4357937655651 L 234.98781917038616,344.43986285525796 L 219.2432687513542,337.5627508381506 L 234.98781917038616,330.6856388210432 L 228.71759334463127,314.68970791073605 L 244.71352425493842,320.95993373649094 Z" fill="none" stroke="#00A86B" stroke-width="2.7322392474078754" /><path d="M 323.473675206916,305.215383317459 L 330.3507872240234,320.95993373649094 L 346.34671813433056,314.68970791073605 L 340.07649230857567,330.6856388210432 L 355.8210427276076,337.5627508381506 L 340.07649230857567,344.43986285525796 L 346.34671813433056,360.4357937655651 L 330.3507872240234,354.1655679398102 L 323.473675206916,369.91011835884217 L 316.59656318980865,354.1655679398102 L 300.6006322795015,360.4357937655651 L 306.8708581052564,344.43986285525796 L 291.12630768622444,337.5627508381506 L 306.8708581052564,330.6856388210432 L 300.6006322795015,314.68970791073605 L 316.59656318980865,320.95993373649094 Z" fill="none" stroke="#00A86B" stroke-width="2.7322392474078754" /><path d="M 395.35671414178626,305.215383317459 L 402.23382615889363,320.95993373649094 L 418.2297570692008,314.68970791073605 L 411.9595312434459,330.6856388210432 L 427.70408166247785,337.5627508381506 L 411.9595312434459,344.43986285525796 L 418.2297570692008,360.4357937655651 L 402.23382615889363,354.1655679398102 L 395.35671414178626,369.91011835884217 L 388.4796021246789,354.1655679398102 L 372.4836712143717,360.4357937655651 L 378.7538970401266,344.43986285525796 L 363.00934662109466,337.5627508381506 L 378.7538970401266,330.6856388210432 L 372.4836712143717,314.68970791073605 L 388.4796021246789,320.95993373649094 Z" fill="none" stroke="#00A86B" stroke-width="2.7322392474078754" /><path d="M 467.2397530766565,305.215383317459 L 474.11686509376386,320.95993373649094 L 490.112796004071,314.68970791073605 L 483.8425701783161,330.6856388210432 L 499.5871205973481,337.5627508381506 L 483.8425701783161,344.43986285525796 L 490.112796004071,360.4357937655651 L 474.11686509376386,354.1655679398102 L 467.2397530766565,369.91011835884217 L 460.3626410595491,354.1655679398102 L 444.36671014924195,360.4357937655651 L 450.63693597499685,344.43986285525796 L 434.8923855559649,337.5627508381506 L 450.63693597499685,330.6856388210432 L 444.36671014924195,314.68970791073605 L 460.3626410595491,320.95993373649094 Z" fill="none" stroke="#00A86B" stroke-width="2.7322392474078754" /><path d="M 539.1227920115267,305.215383317459 L 545.9999040286341,320.95993373649094 L 561.9958349389412,314.68970791073605 L 555.7256091131864,330.6856388210432 L 571.4701595322183,337.5627508381506 L 555.7256091131864,344.43986285525796 L 561.9958349389412,360.4357937655651 L 545.9999040286341,354.1655679398102 L 539.1227920115267,369.91011835884217 L 532.2456799944193,354.1655679398102 L 516.2497490841122,360.4357937655651 L 522.5199749098671,344.43986285525796 L 506.7754244908351,337.5627508381506 L 522.5199749098671,330.6856388210432 L 516.2497490841122,314.68970791073605 L 532.2456799944193,320.95993373649094 Z" fill="none" stroke="#00A86B" stroke-width="2.7322392474078754" /><path d="M 1.9807050047529015e-15,367.46609503505664 L 6.8771120171073825,383.2106454540886 L 22.873042927414517,376.9404196283337 L 16.60281710165963,392.93635053864085 L 32.347367520691606,399.81346255574823 L 16.60281710165963,406.6905745728556 L 22.873042927414517,422.68650548316276 L 6.8771120171073825,416.41627965740787 L 1.9807050047529015e-15,432.1608300764398 L -6.877112017107381,416.41627965740787 L -22.873042927414513,422.68650548316276 L -16.602817101659628,406.6905745728556 L -32.347367520691606,399.81346255574823 L -16.60281710165963,392.93635053864085 L -22.87304292741452,376.9404196283337 L -6.877112017107391,383.2106454540886 Z" fill="none" stroke="#00A86B" stroke-width="2.7322392474078754" /><path d="M 71.88303893487023,367.46609503505664 L 78.76015095197761,383.2106454540886 L 94.75608186228474,376.9404196283337 L 88.48585603652987,392.93635053864085 L 104.23040645556183,399.81346255574823 L 88.48585603652987,406.6905745728556 L 94.75608186228474,422.68650548316276 L 78.76015095197761,416.41627965740787 L 71.88303893487023,432.1608300764398 L 65.00592691776285,416.41627965740787 L 49.00999600745571,422.68650548316276 L 55.280221833210604,406.6905745728556 L 39.53567141417862,399.81346255574823 L 55.2802218332106,392.93635053864085 L 49.00999600745571,376.9404196283337 L 65.00592691776284,383.2106454540886 Z" fill="none" stroke="#00A86B" stroke-width="2.7322392474078754" /><path d="M 143.76607786974046,367.46609503505664 L 150.64318988684784,383.2106454540886 L 166.639120797155,376.9404196283337 L 160.3688949714001,392.93635053864085 L 176.11344539043205,399.81346255574823 L 160.3688949714001,406.6905745728556 L 166.639120797155,422.68650548316276 L 150.64318988684784,416.41627965740787 L 143.76607786974046,432.1608300764398 L 136.88896585263308,416.41627965740787 L 120.89303494232594,422.68650548316276 L 127.16326076808083,406.6905745728556 L 111.41871034904885,399.81346255574823 L 127.16326076808082,392.93635053864085 L 120.89303494232594,376.9404196283337 L 136.88896585263308,383.2106454540886 Z" fill="none" stroke="#00A86B" stroke-width="2.7322392474078754" /><path d="M 215.64911680461068,367.46609503505664 L 222.52622882171806,383.2106454540886 L 238.52215973202522,376.9404196283337 L 232.25193390627032,392.93635053864085 L 247.99648432530228,399.81346255574823 L 232.25193390627032,406.6905745728556 L 238.52215973202522,422.68650548316276 L 222.52622882171806,416.41627965740787 L 215.64911680461068,432.1608300764398 L 208.7720047875033,416.41627965740787 L 192.77607387719618,422.68650548316276 L 199.04629970295105,406.6905745728556 L 183.3017492839191,399.81346255574823 L 199.04629970295105,392.93635053864085 L 192.77607387719615,376.9404196283337 L 208.7720047875033,383.2106454540886 Z" fill="none" stroke="#00A86B" stroke-width="2.7322392474078754" /><path d="M 287.5321557394809,367.46609503505664 L 294.4092677565883,383.2106454540886 L 310.40519866689544,376.9404196283337 L 304.13497284114055,392.93635053864085 L 319.8795232601725,399.81346255574823 L 304.13497284114055,406.6905745728556 L 310.40519866689544,422.68650548316276 L 294.4092677565883,416.41627965740787 L 287.5321557394809,432.1608300764398 L 280.65504372237353,416.41627965740787 L 264.6591128120664,422.68650548316276 L 270.9293386378213,406.6905745728556 L 255.18478821878932,399.81346255574823 L 270.9293386378213,392.93635053864085 L 264.6591128120664,376.9404196283337 L 280.65504372237353,383.2106454540886 Z" fill="none" stroke="#00A86B" stroke-width="2.7322392474078754" /><path d="M 359.41519467435114,367.46609503505664 L 366.2923066914585,383.2106454540886 L 382.2882376017657,376.9404196283337 L 376.0180117760108,392.93635053864085 L 391.76256219504273,399.81346255574823 L 376.0180117760108,406.6905745728556 L 382.2882376017657,422.68650548316276 L 366.2923066914585,416.41627965740787 L 359.41519467435114,432.1608300764398 L 352.53808265724376,416.41627965740787 L 336.5421517469366,422.68650548316276 L 342.8123775726915,406.6905745728556 L 327.06782715365955,399.81346255574823 L 342.8123775726915,392.93635053864085 L 336.5421517469366,376.9404196283337 L 352.53808265724376,383.2106454540886 Z" fill="none" stroke="#00A86B" stroke-width="2.7322392474078754" /><path d="M 431.29823360922137,367.46609503505664 L 438.17534562632875,383.2106454540886 L 454.1712765366359,376.9404196283337 L 447.901050710881,392.93635053864085 L 463.64560112991296,399.81346255574823 L 447.901050710881,406.6905745728556 L 454.1712765366359,422.68650548316276 L 438.17534562632875,416.41627965740787 L 431.29823360922137,432.1608300764398 L 424.421121592114,416.41627965740787 L 408.42519068180684,422.68650548316276 L 414.69541650756173,406.6905745728556 L 398.9508660885298,399.81346255574823 L 414.69541650756173,392.93635053864085 L 408.42519068180684,376.9404196283337 L 424.421121592114,383.2106454540886 Z" fill="none" stroke="#00A86B" stroke-width="2.7322392474078754" /><path d="M 503.1812725440916,367.46609503505664 L 510.058384561199,383.2106454540886 L 526.0543154715061,376.9404196283337 L 519.7840896457512,392.93635053864085 L 535.5286400647832,399.81346255574823 L 519.7840896457512,406.6905745728556 L 526.0543154715061,422.68650548316276 L 510.058384561199,416.41627965740787 L 503.1812725440916,432.1608300764398 L 496.3041605269842,416.41627965740787 L 480.30822961667707,422.68650548316276 L 486.57845544243196,406.6905745728556 L 470.8339050234,399.81346255574823 L 486.57845544243196,392.93635053864085 L 480.30822961667707,376.9404196283337 L 496.3041605269842,383.2106454540886 Z" fill="none" stroke="#00A86B" stroke-width="2.7322392474078754" /><path d="M 575.0643114789618,367.46609503505664 L 581.9414234960692,383.2106454540886 L 597.9373544063764,376.9404196283337 L 591.6671285806215,392.93635053864085 L 607.4116789996534,399.81346255574823 L 591.6671285806215,406.6905745728556 L 597.9373544063764,422.68650548316276 L 581.9414234960692,416.41627965740787 L 575.0643114789618,432.1608300764398 L 568.1871994618544,416.41627965740787 L 552.1912685515473,422.68650548316276 L 558.4614943773022,406.6905745728556 L 542.7169439582702,399.81346255574823 L 558.4614943773022,392.93635053864085 L 552.1912685515473,376.9404196283337 L 568.1871994618544,383.2106454540886 Z" fill="none" stroke="#00A86B" stroke-width="2.7322392474078754" /><path d="M -35.941519467435114,429.71680675265424 L -29.06440745032773,445.4613571716862 L -13.068476540020598,439.1911313459313 L -19.338702365775482,455.18706225623845 L -3.5941519467435086,462.0641742733458 L -19.338702365775482,468.9412862904532 L -13.068476540020598,484.93721720076036 L -29.06440745032773,478.66699137500547 L -35.941519467435114,494.4115417940374 L -42.81863148454249,478.66699137500547 L -58.81456239484963,484.93721720076036 L -52.54433656909474,468.9412862904532 L -68.28888698812672,462.0641742733458 L -52.544336569094746,455.18706225623845 L -58.81456239484963,439.1911313459313 L -42.81863148454251,445.4613571716862 Z" fill="none" stroke="#00A86B" stroke-width="2.7322392474078754" /><path d="M 35.941519467435114,429.71680675265424 L 42.81863148454249,445.4613571716862 L 58.81456239484963,439.1911313459313 L 52.544336569094746,455.18706225623845 L 68.28888698812672,462.0641742733458 L 52.544336569094746,468.9412862904532 L 58.81456239484963,484.93721720076036 L 42.81863148454249,478.66699137500547 L 35.941519467435114,494.4115417940374 L 29.064407450327735,478.66699137500547 L 13.068476540020601,484.93721720076036 L 19.338702365775486,468.9412862904532 L 3.5941519467435086,462.0641742733458 L 19.338702365775482,455.18706225623845 L 13.068476540020594,439.1911313459313 L 29.06440745032772,445.4613571716862 Z" fill="none" stroke="#00A86B" stroke-width="2.7322392474078754" /><path d="M 107.82455840230534,429.71680675265424 L 114.70167041941272,445.4613571716862 L 130.69760132971987,439.1911313459313 L 124.42737550396498,455.18706225623845 L 140.17192592299693,462.0641742733458 L 124.42737550396498,468.9412862904532 L 130.69760132971987,484.93721720076036 L 114.70167041941272,478.66699137500547 L 107.82455840230534,494.4115417940374 L 100.94744638519796,478.66699137500547 L 84.95151547489083,484.93721720076036 L 91.22174130064572,468.9412862904532 L 75.47719088161374,462.0641742733458 L 91.2217413006457,455.18706225623845 L 84.95151547489083,439.1911313459313 L 100.94744638519795,445.4613571716862 Z" fill="none" stroke="#00A86B" stroke-width="2.7322392474078754" /><path d="M 179.70759733717557,429.71680675265424 L 186.58470935428295,445.4613571716862 L 202.5806402645901,439.1911313459313 L 196.3104144388352,455.18706225623845 L 212.05496485786716,462.0641742733458 L 196.3104144388352,468.9412862904532 L 202.5806402645901,484.93721720076036 L 186.58470935428295,478.66699137500547 L 179.70759733717557,494.4115417940374 L 172.8304853200682,478.66699137500547 L 156.83455440976107,484.93721720076036 L 163.10478023551593,468.9412862904532 L 147.36022981648398,462.0641742733458 L 163.10478023551593,455.18706225623845 L 156.83455440976104,439.1911313459313 L 172.8304853200682,445.4613571716862 Z" fill="none" stroke="#00A86B" stroke-width="2.7322392474078754" /><path d="M 251.5906362720458,429.71680675265424 L 258.4677482891532,445.4613571716862 L 274.46367919946033,439.1911313459313 L 268.19345337370544,455.18706225623845 L 283.9380037927374,462.0641742733458 L 268.19345337370544,468.9412862904532 L 274.46367919946033,484.93721720076036 L 258.4677482891532,478.66699137500547 L 251.5906362720458,494.4115417940374 L 244.71352425493842,478.66699137500547 L 228.7175933446313,484.93721720076036 L 234.98781917038616,468.9412862904532 L 219.2432687513542,462.0641742733458 L 234.98781917038616,455.18706225623845 L 228.71759334463127,439.1911313459313 L 244.71352425493842,445.4613571716862 Z" fill="none" stroke="#00A86B" stroke-width="2.7322392474078754" /><path d="M 323.473675206916,429.71680675265424 L 330.3507872240234,445.4613571716862 L 346.34671813433056,439.1911313459313 L 340.07649230857567,455.18706225623845 L 355.8210427276076,462.0641742733458 L 340.07649230857567,468.9412862904532 L 346.34671813433056,484.93721720076036 L 330.3507872240234,478.66699137500547 L 323.473675206916,494.4115417940374 L 316.59656318980865,478.66699137500547 L 300.6006322795015,484.93721720076036 L 306.8708581052564,468.9412862904532 L 291.12630768622444,462.0641742733458 L 306.8708581052564,455.18706225623845 L 300.6006322795015,439.1911313459313 L 316.59656318980865,445.4613571716862 Z" fill="none" stroke="#00A86B" stroke-width="2.7322392474078754" /><path d="M 395.35671414178626,429.71680675265424 L 402.23382615889363,445.4613571716862 L 418.2297570692008,439.1911313459313 L 411.9595312434459,455.18706225623845 L 427.70408166247785,462.0641742733458 L 411.9595312434459,468.9412862904532 L 418.2297570692008,484.93721720076036 L 402.23382615889363,478.66699137500547 L 395.35671414178626,494.4115417940374 L 388.4796021246789,478.66699137500547 L 372.4836712143717,484.93721720076036 L 378.7538970401266,468.9412862904532 L 363.00934662109466,462.0641742733458 L 378.7538970401266,455.18706225623845 L 372.4836712143717,439.1911313459313 L 388.4796021246789,445.4613571716862 Z" fill="none" stroke="#00A86B" stroke-width="2.7322392474078754" /><path d="M 467.2397530766565,429.71680675265424 L 474.11686509376386,445.4613571716862 L 490.112796004071,439.1911313459313 L 483.8425701783161,455.18706225623845 L 499.5871205973481,462.0641742733458 L 483.8425701783161,468.9412862904532 L 490.112796004071,484.93721720076036 L 474.11686509376386,478.66699137500547 L 467.2397530766565,494.4115417940374 L 460.3626410595491,478.66699137500547 L 444.36671014924195,484.93721720076036 L 450.63693597499685,468.9412862904532 L 434.8923855559649,462.0641742733458 L 450.63693597499685,455.18706225623845 L 444.36671014924195,439.1911313459313 L 460.3626410595491,445.4613571716862 Z" fill="none" stroke="#00A86B" stroke-width="2.7322392474078754" /><path d="M 539.1227920115267,429.71680675265424 L 545.9999040286341,445.4613571716862 L 561.9958349389412,439.1911313459313 L 555.7256091131864,455.18706225623845 L 571.4701595322183,462.0641742733458 L 555.7256091131864,468.9412862904532 L 561.9958349389412,484.93721720076036 L 545.9999040286341,478.66699137500547 L 539.1227920115267,494.4115417940374 L 532.2456799944193,478.66699137500547 L 516.2497490841122,484.93721720076036 L 522.5199749098671,468.9412862904532 L 506.7754244908351,462.0641742733458 L 522.5199749098671,455.18706225623845 L 516.2497490841122,439.1911313459313 L 532.2456799944193,445.4613571716862 Z" fill="none" stroke="#00A86B" stroke-width="2.7322392474078754" /><path d="M 1.9807050047529015e-15,491.9675184702519 L 6.8771120171073825,507.71206888928384 L 22.873042927414517,501.44184306352895 L 16.60281710165963,517.4377739738361 L 32.347367520691606,524.3148859909435 L 16.60281710165963,531.1919980080509 L 22.873042927414517,547.187928918358 L 6.8771120171073825,540.9177030926031 L 1.9807050047529015e-15,556.6622535116351 L -6.877112017107381,540.9177030926031 L -22.873042927414513,547.187928918358 L -16.602817101659628,531.1919980080509 L -32.347367520691606,524.3148859909435 L -16.60281710165963,517.4377739738361 L -22.87304292741452,501.44184306352895 L -6.877112017107391,507.71206888928384 Z" fill="none" stroke="#00A86B" stroke-width="2.7322392474078754" /><path d="M 71.88303893487023,491.9675184702519 L 78.76015095197761,507.71206888928384 L 94.75608186228474,501.44184306352895 L 88.48585603652987,517.4377739738361 L 104.23040645556183,524.3148859909435 L 88.48585603652987,531.1919980080509 L 94.75608186228474,547.187928918358 L 78.76015095197761,540.9177030926031 L 71.88303893487023,556.6622535116351 L 65.00592691776285,540.9177030926031 L 49.00999600745571,547.187928918358 L 55.280221833210604,531.1919980080509 L 39.53567141417862,524.3148859909435 L 55.2802218332106,517.4377739738361 L 49.00999600745571,501.44184306352895 L 65.00592691776284,507.71206888928384 Z" fill="none" stroke="#00A86B" stroke-width="2.7322392474078754" /><path d="M 143.76607786974046,491.9675184702519 L 150.64318988684784,507.71206888928384 L 166.639120797155,501.44184306352895 L 160.3688949714001,517.4377739738361 L 176.11344539043205,524.3148859909435 L 160.3688949714001,531.1919980080509 L 166.639120797155,547.187928918358 L 150.64318988684784,540.9177030926031 L 143.76607786974046,556.6622535116351 L 136.88896585263308,540.9177030926031 L 120.89303494232594,547.187928918358 L 127.16326076808083,531.1919980080509 L 111.41871034904885,524.3148859909435 L 127.16326076808082,517.4377739738361 L 120.89303494232594,501.44184306352895 L 136.88896585263308,507.71206888928384 Z" fill="none" stroke="#00A86B" stroke-width="2.7322392474078754" /><path d="M 215.64911680461068,491.9675184702519 L 222.52622882171806,507.71206888928384 L 238.52215973202522,501.44184306352895 L 232.25193390627032,517.4377739738361 L 247.99648432530228,524.3148859909435 L 232.25193390627032,531.1919980080509 L 238.52215973202522,547.187928918358 L 222.52622882171806,540.9177030926031 L 215.64911680461068,556.6622535116351 L 208.7720047875033,540.9177030926031 L 192.77607387719618,547.187928918358 L 199.04629970295105,531.1919980080509 L 183.3017492839191,524.3148859909435 L 199.04629970295105,517.4377739738361 L 192.77607387719615,501.44184306352895 L 208.7720047875033,507.71206888928384 Z" fill="none" stroke="#00A86B" stroke-width="2.7322392474078754" /><path d="M 287.5321557394809,491.9675184702519 L 294.4092677565883,507.71206888928384 L 310.40519866689544,501.44184306352895 L 304.13497284114055,517.4377739738361 L 319.8795232601725,524.3148859909435 L 304.13497284114055,531.1919980080509 L 310.40519866689544,547.187928918358 L 294.4092677565883,540.9177030926031 L 287.5321557394809,556.6622535116351 L 280.65504372237353,540.9177030926031 L 264.6591128120664,547.187928918358 L 270.9293386378213,531.1919980080509 L 255.18478821878932,524.3148859909435 L 270.9293386378213,517.4377739738361 L 264.6591128120664,501.44184306352895 L 280.65504372237353,507.71206888928384 Z" fill="none" stroke="#00A86B" stroke-width="2.7322392474078754" /><path d="M 359.41519467435114,491.9675184702519 L 366.2923066914585,507.71206888928384 L 382.2882376017657,501.44184306352895 L 376.0180117760108,517.4377739738361 L 391.76256219504273,524.3148859909435 L 376.0180117760108,531.1919980080509 L 382.2882376017657,547.187928918358 L 366.2923066914585,540.9177030926031 L 359.41519467435114,556.6622535116351 L 352.53808265724376,540.9177030926031 L 336.5421517469366,547.187928918358 L 342.8123775726915,531.1919980080509 L 327.06782715365955,524.3148859909435 L 342.8123775726915,517.4377739738361 L 336.5421517469366,501.44184306352895 L 352.53808265724376,507.71206888928384 Z" fill="none" stroke="#00A86B" stroke-width="2.7322392474078754" /><path d="M 431.29823360922137,491.9675184702519 L 438.17534562632875,507.71206888928384 L 454.1712765366359,501.44184306352895 L 447.901050710881,517.4377739738361 L 463.64560112991296,524.3148859909435 L 447.901050710881,531.1919980080509 L 454.1712765366359,547.187928918358 L 438.17534562632875,540.9177030926031 L 431.29823360922137,556.6622535116351 L 424.421121592114,540.9177030926031 L 408.42519068180684,547.187928918358 L 414.69541650756173,531.1919980080509 L 398.9508660885298,524.3148859909435 L 414.69541650756173,517.4377739738361 L 408.42519068180684,501.44184306352895 L 424.421121592114,507.71206888928384 Z" fill="none" stroke="#00A86B" stroke-width="2.7322392474078754" /><path d="M 503.1812725440916,491.9675184702519 L 510.058384561199,507.71206888928384 L 526.0543154715061,501.44184306352895 L 519.7840896457512,517.4377739738361 L 535.5286400647832,524.3148859909435 L 519.7840896457512,531.1919980080509 L 526.0543154715061,547.187928918358 L 510.058384561199,540.9177030926031 L 503.1812725440916,556.6622535116351 L 496.3041605269842,540.9177030926031 L 480.30822961667707,547.187928918358 L 486.57845544243196,531.1919980080509 L 470.8339050234,524.3148859909435 L 486.57845544243196,517.4377739738361 L 480.30822961667707,501.44184306352895 L 496.3041605269842,507.71206888928384 Z" fill="none" stroke="#00A86B" stroke-width="2.7322392474078754" /><path d="M 575.0643114789618,491.9675184702519 L 581.9414234960692,507.71206888928384 L 597.9373544063764,501.44184306352895 L 591.6671285806215,517.4377739738361 L 607.4116789996534,524.3148859909435 L 591.6671285806215,531.1919980080509 L 597.9373544063764,547.187928918358 L 581.9414234960692,540.9177030926031 L 575.0643114789618,556.6622535116351 L 568.1871994618544,540.9177030926031 L 552.1912685515473,547.187928918358 L 558.4614943773022,531.1919980080509 L 542.7169439582702,524.3148859909435 L 558.4614943773022,517.4377739738361 L 552.1912685515473,501.44184306352895 L 568.1871994618544,507.71206888928384 Z" fill="none" stroke="#00A86B" stroke-width="2.7322392474078754" /><line x1="32.347367520691606" y1="26.309192250162504" x2="39.53567141417862" y2="26.309192250162504" stroke="#00A86B" stroke-width="0.5"/><line x1="104.23040645556183" y1="26.309192250162504" x2="111.41871034904885" y2="26.309192250162504" stroke="#00A86B" stroke-width="0.5"/><line x1="176.11344539043205" y1="26.309192250162504" x2="183.3017492839191" y2="26.309192250162504" stroke="#00A86B" stroke-width="0.5"/><line x1="247.99648432530228" y1="26.309192250162504" x2="255.18478821878932" y2="26.309192250162504" stroke="#00A86B" stroke-width="0.5"/><line x1="319.8795232601725" y1="26.309192250162504" x2="327.06782715365955" y2="26.309192250162504" stroke="#00A86B" stroke-width="0.5"/><line x1="391.76256219504273" y1="26.309192250162504" x2="398.9508660885298" y2="26.309192250162504" stroke="#00A86B" stroke-width="0.5"/><line x1="463.64560112991296" y1="26.309192250162504" x2="470.8339050234" y2="26.309192250162504" stroke="#00A86B" stroke-width="0.5"/><line x1="68.28888698812672" y1="88.55990396776012" x2="75.47719088161374" y2="88.55990396776012" stroke="#00A86B" stroke-width="0.5"/><line x1="140.17192592299693" y1="88.55990396776012" x2="147.36022981648398" y2="88.55990396776012" stroke="#00A86B" stroke-width="0.5"/><line x1="212.05496485786716" y1="88.55990396776012" x2="219.2432687513542" y2="88.55990396776012" stroke="#00A86B" stroke-width="0.5"/><line x1="283.9380037927374" y1="88.55990396776012" x2="291.12630768622444" y2="88.55990396776012" stroke="#00A86B" stroke-width="0.5"/><line x1="355.8210427276076" y1="88.55990396776012" x2="363.00934662109466" y2="88.55990396776012" stroke="#00A86B" stroke-width="0.5"/><line x1="427.70408166247785" y1="88.55990396776012" x2="434.8923855559649" y2="88.55990396776012" stroke="#00A86B" stroke-width="0.5"/><line x1="499.5871205973481" y1="88.55990396776012" x2="506.7754244908351" y2="88.55990396776012" stroke="#00A86B" stroke-width="0.5"/><line x1="32.347367520691606" y1="150.81061568535773" x2="39.53567141417862" y2="150.81061568535773" stroke="#00A86B" stroke-width="0.5"/><line x1="104.23040645556183" y1="150.81061568535773" x2="111.41871034904885" y2="150.81061568535773" stroke="#00A86B" stroke-width="0.5"/><line x1="176.11344539043205" y1="150.81061568535773" x2="183.3017492839191" y2="150.81061568535773" stroke="#00A86B" stroke-width="0.5"/><line x1="247.99648432530228" y1="150.81061568535773" x2="255.18478821878932" y2="150.81061568535773" stroke="#00A86B" stroke-width="0.5"/><line x1="319.8795232601725" y1="150.81061568535773" x2="327.06782715365955" y2="150.81061568535773" stroke="#00A86B" stroke-width="0.5"/><line x1="391.76256219504273" y1="150.81061568535773" x2="398.9508660885298" y2="150.81061568535773" stroke="#00A86B" stroke-width="0.5"/><line x1="463.64560112991296" y1="150.81061568535773" x2="470.8339050234" y2="150.81061568535773" stroke="#00A86B" stroke-width="0.5"/><line x1="68.28888698812672" y1="213.06132740295536" x2="75.47719088161374" y2="213.06132740295536" stroke="#00A86B" stroke-width="0.5"/><line x1="140.17192592299693" y1="213.06132740295536" x2="147.36022981648398" y2="213.06132740295536" stroke="#00A86B" stroke-width="0.5"/><line x1="212.05496485786716" y1="213.06132740295536" x2="219.2432687513542" y2="213.06132740295536" stroke="#00A86B" stroke-width="0.5"/><line x1="283.9380037927374" y1="213.06132740295536" x2="291.12630768622444" y2="213.06132740295536" stroke="#00A86B" stroke-width="0.5"/><line x1="355.8210427276076" y1="213.06132740295536" x2="363.00934662109466" y2="213.06132740295536" stroke="#00A86B" stroke-width="0.5"/><line x1="427.70408166247785" y1="213.06132740295536" x2="434.8923855559649" y2="213.06132740295536" stroke="#00A86B" stroke-width="0.5"/><line x1="499.5871205973481" y1="213.06132740295536" x2="506.7754244908351" y2="213.06132740295536" stroke="#00A86B" stroke-width="0.5"/><line x1="32.347367520691606" y1="275.312039120553" x2="39.53567141417862" y2="275.312039120553" stroke="#00A86B" stroke-width="0.5"/><line x1="104.23040645556183" y1="275.312039120553" x2="111.41871034904885" y2="275.312039120553" stroke="#00A86B" stroke-width="0.5"/><line x1="176.11344539043205" y1="275.312039120553" x2="183.3017492839191" y2="275.312039120553" stroke="#00A86B" stroke-width="0.5"/><line x1="247.99648432530228" y1="275.312039120553" x2="255.18478821878932" y2="275.312039120553" stroke="#00A86B" stroke-width="0.5"/><line x1="319.8795232601725" y1="275.312039120553" x2="327.06782715365955" y2="275.312039120553" stroke="#00A86B" stroke-width="0.5"/><line x1="391.76256219504273" y1="275.312039120553" x2="398.9508660885298" y2="275.312039120553" stroke="#00A86B" stroke-width="0.5"/><line x1="463.64560112991296" y1="275.312039120553" x2="470.8339050234" y2="275.312039120553" stroke="#00A86B" stroke-width="0.5"/><line x1="68.28888698812672" y1="337.5627508381506" x2="75.47719088161374" y2="337.5627508381506" stroke="#00A86B" stroke-width="0.5"/><line x1="140.17192592299693" y1="337.5627508381506" x2="147.36022981648398" y2="337.5627508381506" stroke="#00A86B" stroke-width="0.5"/><line x1="212.05496485786716" y1="337.5627508381506" x2="219.2432687513542" y2="337.5627508381506" stroke="#00A86B" stroke-width="0.5"/><line x1="283.9380037927374" y1="337.5627508381506" x2="291.12630768622444" y2="337.5627508381506" stroke="#00A86B" stroke-width="0.5"/><line x1="355.8210427276076" y1="337.5627508381506" x2="363.00934662109466" y2="337.5627508381506" stroke="#00A86B" stroke-width="0.5"/><line x1="427.70408166247785" y1="337.5627508381506" x2="434.8923855559649" y2="337.5627508381506" stroke="#00A86B" stroke-width="0.5"/><line x1="499.5871205973481" y1="337.5627508381506" x2="506.7754244908351" y2="337.5627508381506" stroke="#00A86B" stroke-width="0.5"/><line x1="32.347367520691606" y1="399.81346255574823" x2="39.53567141417862" y2="399.81346255574823" stroke="#00A86B" stroke-width="0.5"/><line x1="104.23040645556183" y1="399.81346255574823" x2="111.41871034904885" y2="399.81346255574823" stroke="#00A86B" stroke-width="0.5"/><line x1="176.11344539043205" y1="399.81346255574823" x2="183.3017492839191" y2="399.81346255574823" stroke="#00A86B" stroke-width="0.5"/><line x1="247.99648432530228" y1="399.81346255574823" x2="255.18478821878932" y2="399.81346255574823" stroke="#00A86B" stroke-width="0.5"/><line x1="319.8795232601725" y1="399.81346255574823" x2="327.06782715365955" y2="399.81346255574823" stroke="#00A86B" stroke-width="0.5"/><line x1="391.76256219504273" y1="399.81346255574823" x2="398.9508660885298" y2="399.81346255574823" stroke="#00A86B" stroke-width="0.5"/><line x1="463.64560112991296" y1="399.81346255574823" x2="470.8339050234" y2="399.81346255574823" stroke="#00A86B" stroke-width="0.5"/><line x1="68.28888698812672" y1="462.0641742733458" x2="75.47719088161374" y2="462.0641742733458" stroke="#00A86B" stroke-width="0.5"/><line x1="140.17192592299693" y1="462.0641742733458" x2="147.36022981648398" y2="462.0641742733458" stroke="#00A86B" stroke-width="0.5"/><line x1="212.05496485786716" y1="462.0641742733458" x2="219.2432687513542" y2="462.0641742733458" stroke="#00A86B" stroke-width="0.5"/><line x1="283.9380037927374" y1="462.0641742733458" x2="291.12630768622444" y2="462.0641742733458" stroke="#00A86B" stroke-width="0.5"/><line x1="355.8210427276076" y1="462.0641742733458" x2="363.00934662109466" y2="462.0641742733458" stroke="#00A86B" stroke-width="0.5"/><line x1="427.70408166247785" y1="462.0641742733458" x2="434.8923855559649" y2="462.0641742733458" stroke="#00A86B" stroke-width="0.5"/><line x1="499.5871205973481" y1="462.0641742733458" x2="506.7754244908351" y2="462.0641742733458" stroke="#00A86B" stroke-width="0.5"/></g></svg>