<svg xmlns="http://www.w3.org/2000/svg" width="512" height="512" viewBox="0 0 512 512"><rect x="0" y="0" width="512" height="512" fill="#000000"/><g opacity="0.05372292399579796"><path d="M -35.827509892141144,-68.07226879506817 L -28.97221266283175,-52.37766143723857 L -13.027022214156137,-58.62799757012615 L -19.277358347043712,-42.68280712145054 L -3.5827509892141123,-35.827509892141144 L -19.277358347043712,-28.972212662831755 L -13.027022214156137,-13.02702221415614 L -28.97221266283175,-19.277358347043712 L -35.827509892141144,-3.5827509892141123 L -42.68280712145054,-19.277358347043712 L -58.62799757012615,-13.027022214156137 L -52.37766143723857,-28.972212662831744 L -68.07226879506817,-35.82750989214114 L -52.37766143723857,-42.68280712145054 L -58.627997570126155,-58.62799757012615 L -42.682807121450544,-52.37766143723857 Z" fill="none" stroke="#00A86B" stroke-width="2.014575780143298" /><path d="M 35.827509892141144,-68.07226879506817 L 42.68280712145054,-52.37766143723857 L 58.627997570126155,-58.62799757012615 L 52.37766143723857,-42.68280712145054 L 68.07226879506817,-35.827509892141144 L 52.37766143723857,-28.972212662831755 L 58.627997570126155,-13.02702221415614 L 42.68280712145054,-19.277358347043712 L 35.827509892141144,-3.5827509892141123 L 28.972212662831755,-19.277358347043712 L 13.02702221415614,-13.027022214156137 L 19.277358347043716,-28.972212662831744 L 3.5827509892141123,-35.82750989214114 L 19.277358347043716,-42.68280712145054 L 13.027022214156133,-58.62799757012615 L 28.972212662831744,-52.37766143723857 Z" fill="none" stroke="#00A86B" stroke-width="2.014575780143298" /><path d="M 107.48252967642344,-68.07226879506817 L 114.33782690573283,-52.37766143723857 L 130.28301735440846,-58.62799757012615 L 124.03268122152087,-42.68280712145054 L 139.72728857935047,-35.827509892141144 L 124.03268122152087,-28.972212662831755 L 130.28301735440846,-13.02702221415614 L 114.33782690573283,-19.277358347043712 L 107.48252967642344,-3.5827509892141123 L 100.62723244711405,-19.277358347043712 L 84.68204199843844,-13.027022214156137 L 90.932378131326,-28.972212662831744 L 75.23777077349641,-35.82750989214114 L 90.932378131326,-42.68280712145054 L 84.68204199843842,-58.62799757012615 L 100.62723244711404,-52.37766143723857 Z" fill="none" stroke="#00A86B" stroke-width="2.014575780143298" /><path d="M 179.13754946070574,-68.07226879506817 L 185.99284669001514,-52.37766143723857 L 201.93803713869076,-58.62799757012615 L 195.68770100580318,-42.68280712145054 L 211.38230836363277,-35.827509892141144 L 195.68770100580318,-28.972212662831755 L 201.93803713869076,-13.02702221415614 L 185.99284669001514,-19.277358347043712 L 179.13754946070574,-3.5827509892141123 L 172.28225223139634,-19.277358347043712 L 156.33706178272075,-13.027022214156137 L 162.5873979156083,-28.972212662831744 L 146.8927905577787,-35.82750989214114 L 162.5873979156083,-42.68280712145054 L 156.33706178272072,-58.62799757012615 L 172.28225223139634,-52.37766143723857 Z" fill="none" stroke="#00A86B" stroke-width="2.014575780143298" /><path d="M 250.79256924498802,-68.07226879506817 L 257.6478664742974,-52.37766143723857 L 273.593056922973,-58.62799757012615 L 267.3427207900854,-42.68280712145054 L 283.03732814791505,-35.827509892141144 L 267.3427207900854,-28.972212662831755 L 273.593056922973,-13.02702221415614 L 257.6478664742974,-19.277358347043712 L 250.79256924498802,-3.5827509892141123 L 243.93727201567862,-19.277358347043712 L 227.99208156700303,-13.027022214156137 L 234.24241769989058,-28.972212662831744 L 218.54781034206098,-35.82750989214114 L 234.24241769989058,-42.68280712145054 L 227.992081567003,-58.62799757012615 L 243.93727201567862,-52.37766143723857 Z" fill="none" stroke="#00A86B" stroke-width="2.014575780143298" /><path d="M 322.44758902927026,-68.07226879506817 L 329.30288625857963,-52.37766143723857 L 345.2480767072553,-58.62799757012615 L 338.9977405743677,-42.68280712145054 L 354.6923479321973,-35.827509892141144 L 338.9977405743677,-28.972212662831755 L 345.2480767072553,-13.02702221415614 L 329.30288625857963,-19.277358347043712 L 322.44758902927026,-3.5827509892141123 L 315.5922917999609,-19.277358347043712 L 299.64710135128524,-13.027022214156137 L 305.8974374841728,-28.972212662831744 L 290.2028301263432,-35.82750989214114 L 305.8974374841728,-42.68280712145054 L 299.64710135128524,-58.62799757012615 L 315.5922917999609,-52.37766143723857 Z" fill="none" stroke="#00A86B" stroke-width="2.014575780143298" /><path d="M 394.1026088135526,-68.07226879506817 L 400.95790604286196,-52.37766143723857 L 416.9030964915376,-58.62799757012615 L 410.65276035865,-42.68280712145054 L 426.34736771647965,-35.827509892141144 L 410.65276035865,-28.972212662831755 L 416.9030964915376,-13.02702221415614 L 400.95790604286196,-19.277358347043712 L 394.1026088135526,-3.5827509892141123 L 387.2473115842432,-19.277358347043712 L 371.3021211355676,-13.027022214156137 L 377.55245726845516,-28.972212662831744 L 361.85784991062553,-35.82750989214114 L 377.55245726845516,-42.68280712145054 L 371.3021211355676,-58.62799757012615 L 387.2473115842432,-52.37766143723857 Z" fill="none" stroke="#00A86B" stroke-width="2.014575780143298" /><path d="M 465.75762859783487,-68.07226879506817 L 472.61292582714424,-52.37766143723857 L 488.5581162758199,-58.62799757012615 L 482.3077801429323,-42.68280712145054 L 498.00238750076187,-35.827509892141144 L 482.3077801429323,-28.972212662831755 L 488.5581162758199,-13.02702221415614 L 472.61292582714424,-19.277358347043712 L 465.75762859783487,-3.5827509892141123 L 458.9023313685255,-19.277358347043712 L 442.95714091984985,-13.027022214156137 L 449.20747705273743,-28.972212662831744 L 433.51286969490786,-35.82750989214114 L 449.20747705273743,-42.68280712145054 L 442.95714091984985,-58.62799757012615 L 458.90233136852544,-52.37766143723857 Z" fill="none" stroke="#00A86B" stroke-width="2.014575780143298" /><path d="M 537.4126483821171,-68.07226879506817 L 544.2679456114265,-52.37766143723857 L 560.2131360601021,-58.62799757012615 L 553.9627999272145,-42.68280712145054 L 569.6574072850442,-35.827509892141144 L 553.9627999272145,-28.972212662831755 L 560.2131360601021,-13.02702221415614 L 544.2679456114265,-19.277358347043712 L 537.4126483821171,-3.5827509892141123 L 530.5573511528078,-19.277358347043712 L 514.6121607041322,-13.027022214156137 L 520.8624968370198,-28.972212662831744 L 505.1678894791901,-35.82750989214114 L 520.8624968370198,-42.68280712145054 L 514.6121607041322,-58.62799757012615 L 530.5573511528078,-52.37766143723857 Z" fill="none" stroke="#00A86B" stroke-width="2.014575780143298" /><path d="M 1.9744220389873857e-15,-6.019021661879712 L 6.855297229309391,9.675585695949888 L 22.800487677985007,3.425249563062316 L 16.55015154509743,19.37044001173793 L 32.24475890292703,26.22573724104732 L 16.55015154509743,33.08103447035671 L 22.800487677985007,49.02622491903232 L 6.855297229309391,42.77588878614475 L 1.9744220389873857e-15,58.47049614397435 L -6.8552972293093895,42.77588878614475 L -22.800487677985004,49.02622491903233 L -16.550151545097428,33.08103447035672 L -32.24475890292703,26.225737241047323 L -16.550151545097428,19.370440011737923 L -22.80048767798501,3.425249563062316 L -6.8552972293094,9.675585695949891 Z" fill="none" stroke="#00A86B" stroke-width="2.014575780143298" /><path d="M 71.65501978428229,-6.019021661879712 L 78.51031701359167,9.675585695949888 L 94.45550746226729,3.425249563062316 L 88.20517132937972,19.37044001173793 L 103.89977868720932,26.22573724104732 L 88.20517132937972,33.08103447035671 L 94.45550746226729,49.02622491903232 L 78.51031701359167,42.77588878614475 L 71.65501978428229,58.47049614397435 L 64.7997225549729,42.77588878614475 L 48.854532106297285,49.02622491903233 L 55.10486823918486,33.08103447035672 L 39.410260881355256,26.225737241047323 L 55.10486823918486,19.370440011737923 L 48.85453210629728,3.425249563062316 L 64.79972255497289,9.675585695949891 Z" fill="none" stroke="#00A86B" stroke-width="2.014575780143298" /><path d="M 143.31003956856458,-6.019021661879712 L 150.16533679787398,9.675585695949888 L 166.1105272465496,3.425249563062316 L 159.860191113662,19.37044001173793 L 175.5547984714916,26.22573724104732 L 159.860191113662,33.08103447035671 L 166.1105272465496,49.02622491903232 L 150.16533679787398,42.77588878614475 L 143.31003956856458,58.47049614397435 L 136.45474233925518,42.77588878614475 L 120.50955189057957,49.02622491903233 L 126.75988802346714,33.08103447035672 L 111.06528066563754,26.225737241047323 L 126.75988802346714,19.370440011737923 L 120.50955189057956,3.425249563062316 L 136.45474233925518,9.675585695949891 Z" fill="none" stroke="#00A86B" stroke-width="2.014575780143298" /><path d="M 214.96505935284688,-6.019021661879712 L 221.82035658215628,9.675585695949888 L 237.7655470308319,3.425249563062316 L 231.5152108979443,19.37044001173793 L 247.2098182557739,26.22573724104732 L 231.5152108979443,33.08103447035671 L 237.7655470308319,49.02622491903232 L 221.82035658215628,42.77588878614475 L 214.96505935284688,58.47049614397435 L 208.10976212353748,42.77588878614475 L 192.16457167486186,49.02622491903233 L 198.41490780774944,33.08103447035672 L 182.72030044991985,26.225737241047323 L 198.41490780774944,19.370440011737923 L 192.16457167486186,3.425249563062316 L 208.10976212353748,9.675585695949891 Z" fill="none" stroke="#00A86B" stroke-width="2.014575780143298" /><path d="M 286.62007913712915,-6.019021661879712 L 293.4753763664385,9.675585695949888 L 309.42056681511417,3.425249563062316 L 303.1702306822266,19.37044001173793 L 318.86483804005616,26.22573724104732 L 303.1702306822266,33.08103447035671 L 309.42056681511417,49.02622491903232 L 293.4753763664385,42.77588878614475 L 286.62007913712915,58.47049614397435 L 279.7647819078198,42.77588878614475 L 263.81959145914414,49.02622491903233 L 270.0699275920317,33.08103447035672 L 254.37532023420212,26.225737241047323 L 270.0699275920317,19.370440011737923 L 263.81959145914414,3.425249563062316 L 279.7647819078197,9.675585695949891 Z" fill="none" stroke="#00A86B" stroke-width="2.014575780143298" /><path d="M 358.2750989214114,-6.019021661879712 L 365.1303961507208,9.675585695949888 L 381.07558659939644,3.425249563062316 L 374.82525046650886,19.37044001173793 L 390.5198578243385,26.22573724104732 L 374.82525046650886,33.08103447035671 L 381.07558659939644,49.02622491903232 L 365.1303961507208,42.77588878614475 L 358.2750989214114,58.47049614397435 L 351.41980169210206,42.77588878614475 L 335.4746112434264,49.02622491903233 L 341.724947376314,33.08103447035672 L 326.03034001848437,26.225737241047323 L 341.724947376314,19.370440011737923 L 335.4746112434264,3.425249563062316 L 351.41980169210206,9.675585695949891 Z" fill="none" stroke="#00A86B" stroke-width="2.014575780143298" /><path d="M 429.93011870569376,-6.019021661879712 L 436.78541593500313,9.675585695949888 L 452.7306063836788,3.425249563062316 L 446.4802702507912,19.37044001173793 L 462.1748776086208,26.22573724104732 L 446.4802702507912,33.08103447035671 L 452.7306063836788,49.02622491903232 L 436.78541593500313,42.77588878614475 L 429.93011870569376,58.47049614397435 L 423.0748214763844,42.77588878614475 L 407.12963102770874,49.02622491903233 L 413.3799671605963,33.08103447035672 L 397.6853598027667,26.225737241047323 L 413.3799671605963,19.370440011737923 L 407.12963102770874,3.425249563062316 L 423.0748214763844,9.675585695949891 Z" fill="none" stroke="#00A86B" stroke-width="2.014575780143298" /><path d="M 501.58513848997603,-6.019021661879712 L 508.4404357192854,9.675585695949888 L 524.385626167961,3.425249563062316 L 518.1352900350735,19.37044001173793 L 533.829897392903,26.22573724104732 L 518.1352900350735,33.08103447035671 L 524.385626167961,49.02622491903232 L 508.4404357192854,42.77588878614475 L 501.58513848997603,58.47049614397435 L 494.72984126066666,42.77588878614475 L 478.784650811991,49.02622491903233 L 485.0349869448786,33.08103447035672 L 469.34037958704903,26.225737241047323 L 485.0349869448786,19.370440011737923 L 478.784650811991,3.425249563062316 L 494.7298412606666,9.675585695949891 Z" fill="none" stroke="#00A86B" stroke-width="2.014575780143298" /><path d="M 573.2401582742583,-6.019021661879712 L 580.0954555035677,9.675585695949888 L 596.0406459522433,3.425249563062316 L 589.7903098193557,19.37044001173793 L 605.4849171771854,26.22573724104732 L 589.7903098193557,33.08103447035671 L 596.0406459522433,49.02622491903232 L 580.0954555035677,42.77588878614475 L 573.2401582742583,58.47049614397435 L 566.3848610449489,42.77588878614475 L 550.4396705962733,49.02622491903233 L 556.6900067291609,33.08103447035672 L 540.9953993713312,26.225737241047323 L 556.6900067291609,19.370440011737923 L 550.4396705962733,3.425249563062316 L 566.3848610449489,9.675585695949891 Z" fill="none" stroke="#00A86B" stroke-width="2.014575780143298" /><path d="M -35.827509892141144,56.03422547130876 L -28.97221266283175,71.72883282913836 L -13.027022214156137,65.47849669625079 L -19.277358347043712,81.4236871449264 L -3.5827509892141123,88.27898437423579 L -19.277358347043712,95.13428160354518 L -13.027022214156137,111.0794720522208 L -28.97221266283175,104.82913591933323 L -35.827509892141144,120.52374327716282 L -42.68280712145054,104.82913591933323 L -58.62799757012615,111.0794720522208 L -52.37766143723857,95.13428160354519 L -68.07226879506817,88.27898437423579 L -52.37766143723857,81.42368714492639 L -58.627997570126155,65.47849669625079 L -42.682807121450544,71.72883282913836 Z" fill="none" stroke="#00A86B" stroke-width="2.014575780143298" /><path d="M 35.827509892141144,56.03422547130876 L 42.68280712145054,71.72883282913836 L 58.627997570126155,65.47849669625079 L 52.37766143723857,81.4236871449264 L 68.07226879506817,88.27898437423579 L 52.37766143723857,95.13428160354518 L 58.627997570126155,111.0794720522208 L 42.68280712145054,104.82913591933323 L 35.827509892141144,120.52374327716282 L 28.972212662831755,104.82913591933323 L 13.02702221415614,111.0794720522208 L 19.277358347043716,95.13428160354519 L 3.5827509892141123,88.27898437423579 L 19.277358347043716,81.42368714492639 L 13.027022214156133,65.47849669625079 L 28.972212662831744,71.72883282913836 Z" fill="none" stroke="#00A86B" stroke-width="2.014575780143298" /><path d="M 107.48252967642344,56.03422547130876 L 114.33782690573283,71.72883282913836 L 130.28301735440846,65.47849669625079 L 124.03268122152087,81.4236871449264 L 139.72728857935047,88.27898437423579 L 124.03268122152087,95.13428160354518 L 130.28301735440846,111.0794720522208 L 114.33782690573283,104.82913591933323 L 107.48252967642344,120.52374327716282 L 100.62723244711405,104.82913591933323 L 84.68204199843844,111.0794720522208 L 90.932378131326,95.13428160354519 L 75.23777077349641,88.27898437423579 L 90.932378131326,81.42368714492639 L 84.68204199843842,65.47849669625079 L 100.62723244711404,71.72883282913836 Z" fill="none" stroke="#00A86B" stroke-width="2.014575780143298" /><path d="M 179.13754946070574,56.03422547130876 L 185.99284669001514,71.72883282913836 L 201.93803713869076,65.47849669625079 L 195.68770100580318,81.4236871449264 L 211.38230836363277,88.27898437423579 L 195.68770100580318,95.13428160354518 L 201.93803713869076,111.0794720522208 L 185.99284669001514,104.82913591933323 L 179.13754946070574,120.52374327716282 L 172.28225223139634,104.82913591933323 L 156.33706178272075,111.0794720522208 L 162.5873979156083,95.13428160354519 L 146.8927905577787,88.27898437423579 L 162.5873979156083,81.42368714492639 L 156.33706178272072,65.47849669625079 L 172.28225223139634,71.72883282913836 Z" fill="none" stroke="#00A86B" stroke-width="2.014575780143298" /><path d="M 250.79256924498802,56.03422547130876 L 257.6478664742974,71.72883282913836 L 273.593056922973,65.47849669625079 L 267.3427207900854,81.4236871449264 L 283.03732814791505,88.27898437423579 L 267.3427207900854,95.13428160354518 L 273.593056922973,111.0794720522208 L 257.6478664742974,104.82913591933323 L 250.79256924498802,120.52374327716282 L 243.93727201567862,104.82913591933323 L 227.99208156700303,111.0794720522208 L 234.24241769989058,95.13428160354519 L 218.54781034206098,88.27898437423579 L 234.24241769989058,81.42368714492639 L 227.992081567003,65.47849669625079 L 243.93727201567862,71.72883282913836 Z" fill="none" stroke="#00A86B" stroke-width="2.014575780143298" /><path d="M 322.44758902927026,56.03422547130876 L 329.30288625857963,71.72883282913836 L 345.2480767072553,65.47849669625079 L 338.9977405743677,81.4236871449264 L 354.6923479321973,88.27898437423579 L 338.9977405743677,95.13428160354518 L 345.2480767072553,111.0794720522208 L 329.30288625857963,104.82913591933323 L 322.44758902927026,120.52374327716282 L 315.5922917999609,104.82913591933323 L 299.64710135128524,111.0794720522208 L 305.8974374841728,95.13428160354519 L 290.2028301263432,88.27898437423579 L 305.8974374841728,81.42368714492639 L 299.64710135128524,65.47849669625079 L 315.5922917999609,71.72883282913836 Z" fill="none" stroke="#00A86B" stroke-width="2.014575780143298" /><path d="M 394.1026088135526,56.03422547130876 L 400.95790604286196,71.72883282913836 L 416.9030964915376,65.47849669625079 L 410.65276035865,81.4236871449264 L 426.34736771647965,88.27898437423579 L 410.65276035865,95.13428160354518 L 416.9030964915376,111.0794720522208 L 400.95790604286196,104.82913591933323 L 394.1026088135526,120.52374327716282 L 387.2473115842432,104.82913591933323 L 371.3021211355676,111.0794720522208 L 377.55245726845516,95.13428160354519 L 361.85784991062553,88.27898437423579 L 377.55245726845516,81.42368714492639 L 371.3021211355676,65.47849669625079 L 387.2473115842432,71.72883282913836 Z" fill="none" stroke="#00A86B" stroke-width="2.014575780143298" /><path d="M 465.75762859783487,56.03422547130876 L 472.61292582714424,71.72883282913836 L 488.5581162758199,65.47849669625079 L 482.3077801429323,81.4236871449264 L 498.00238750076187,88.27898437423579 L 482.3077801429323,95.13428160354518 L 488.5581162758199,111.0794720522208 L 472.61292582714424,104.82913591933323 L 465.75762859783487,120.52374327716282 L 458.9023313685255,104.82913591933323 L 442.95714091984985,111.0794720522208 L 449.20747705273743,95.13428160354519 L 433.51286969490786,88.27898437423579 L 449.20747705273743,81.42368714492639 L 442.95714091984985,65.47849669625079 L 458.90233136852544,71.72883282913836 Z" fill="none" stroke="#00A86B" stroke-width="2.014575780143298" /><path d="M 537.4126483821171,56.03422547130876 L 544.2679456114265,71.72883282913836 L 560.2131360601021,65.47849669625079 L 553.9627999272145,81.4236871449264 L 569.6574072850442,88.27898437423579 L 553.9627999272145,95.13428160354518 L 560.2131360601021,111.0794720522208 L 544.2679456114265,104.82913591933323 L 537.4126483821171,120.52374327716282 L 530.5573511528078,104.82913591933323 L 514.6121607041322,111.0794720522208 L 520.8624968370198,95.13428160354519 L 505.1678894791901,88.27898437423579 L 520.8624968370198,81.42368714492639 L 514.6121607041322,65.47849669625079 L 530.5573511528078,71.72883282913836 Z" fill="none" stroke="#00A86B" stroke-width="2.014575780143298" /><path d="M 1.9744220389873857e-15,118.08747260449724 L 6.855297229309391,133.78207996232683 L 22.800487677985007,127.53174382943926 L 16.55015154509743,143.47693427811487 L 32.24475890292703,150.33223150742427 L 16.55015154509743,157.18752873673367 L 22.800487677985007,173.13271918540926 L 6.855297229309391,166.8823830525217 L 1.9744220389873857e-15,182.5769904103513 L -6.8552972293093895,166.8823830525217 L -22.800487677985004,173.1327191854093 L -16.550151545097428,157.18752873673367 L -32.24475890292703,150.33223150742427 L -16.550151545097428,143.47693427811487 L -22.80048767798501,127.53174382943926 L -6.8552972293094,133.78207996232683 Z" fill="none" stroke="#00A86B" stroke-width="2.014575780143298" /><path d="M 71.65501978428229,118.08747260449724 L 78.51031701359167,133.78207996232683 L 94.45550746226729,127.53174382943926 L 88.20517132937972,143.47693427811487 L 103.89977868720932,150.33223150742427 L 88.20517132937972,157.18752873673367 L 94.45550746226729,173.13271918540926 L 78.51031701359167,166.8823830525217 L 71.65501978428229,182.5769904103513 L 64.7997225549729,166.8823830525217 L 48.854532106297285,173.1327191854093 L 55.10486823918486,157.18752873673367 L 39.410260881355256,150.33223150742427 L 55.10486823918486,143.47693427811487 L 48.85453210629728,127.53174382943926 L 64.79972255497289,133.78207996232683 Z" fill="none" stroke="#00A86B" stroke-width="2.014575780143298" /><path d="M 143.31003956856458,118.08747260449724 L 150.16533679787398,133.78207996232683 L 166.1105272465496,127.53174382943926 L 159.860191113662,143.47693427811487 L 175.5547984714916,150.33223150742427 L 159.860191113662,157.18752873673367 L 166.1105272465496,173.13271918540926 L 150.16533679787398,166.8823830525217 L 143.31003956856458,182.5769904103513 L 136.45474233925518,166.8823830525217 L 120.50955189057957,173.1327191854093 L 126.75988802346714,157.18752873673367 L 111.06528066563754,150.33223150742427 L 126.75988802346714,143.47693427811487 L 120.50955189057956,127.53174382943926 L 136.45474233925518,133.78207996232683 Z" fill="none" stroke="#00A86B" stroke-width="2.014575780143298" /><path d="M 214.96505935284688,118.08747260449724 L 221.82035658215628,133.78207996232683 L 237.7655470308319,127.53174382943926 L 231.5152108979443,143.47693427811487 L 247.2098182557739,150.33223150742427 L 231.5152108979443,157.18752873673367 L 237.7655470308319,173.13271918540926 L 221.82035658215628,166.8823830525217 L 214.96505935284688,182.5769904103513 L 208.10976212353748,166.8823830525217 L 192.16457167486186,173.1327191854093 L 198.41490780774944,157.18752873673367 L 182.72030044991985,150.33223150742427 L 198.41490780774944,143.47693427811487 L 192.16457167486186,127.53174382943926 L 208.10976212353748,133.78207996232683 Z" fill="none" stroke="#00A86B" stroke-width="2.014575780143298" /><path d="M 286.62007913712915,118.08747260449724 L 293.4753763664385,133.78207996232683 L 309.42056681511417,127.53174382943926 L 303.1702306822266,143.47693427811487 L 318.86483804005616,150.33223150742427 L 303.1702306822266,157.18752873673367 L 309.42056681511417,173.13271918540926 L 293.4753763664385,166.8823830525217 L 286.62007913712915,182.5769904103513 L 279.7647819078198,166.8823830525217 L 263.81959145914414,173.1327191854093 L 270.0699275920317,157.18752873673367 L 254.37532023420212,150.33223150742427 L 270.0699275920317,143.47693427811487 L 263.81959145914414,127.53174382943926 L 279.7647819078197,133.78207996232683 Z" fill="none" stroke="#00A86B" stroke-width="2.014575780143298" /><path d="M 358.2750989214114,118.08747260449724 L 365.1303961507208,133.78207996232683 L 381.07558659939644,127.53174382943926 L 374.82525046650886,143.47693427811487 L 390.5198578243385,150.33223150742427 L 374.82525046650886,157.18752873673367 L 381.07558659939644,173.13271918540926 L 365.1303961507208,166.8823830525217 L 358.2750989214114,182.5769904103513 L 351.41980169210206,166.8823830525217 L 335.4746112434264,173.1327191854093 L 341.724947376314,157.18752873673367 L 326.03034001848437,150.33223150742427 L 341.724947376314,143.47693427811487 L 335.4746112434264,127.53174382943926 L 351.41980169210206,133.78207996232683 Z" fill="none" stroke="#00A86B" stroke-width="2.014575780143298" /><path d="M 429.93011870569376,118.08747260449724 L 436.78541593500313,133.78207996232683 L 452.7306063836788,127.53174382943926 L 446.4802702507912,143.47693427811487 L 462.1748776086208,150.33223150742427 L 446.4802702507912,157.18752873673367 L 452.7306063836788,173.13271918540926 L 436.78541593500313,166.8823830525217 L 429.93011870569376,182.5769904103513 L 423.0748214763844,166.8823830525217 L 407.12963102770874,173.1327191854093 L 413.3799671605963,157.18752873673367 L 397.6853598027667,150.33223150742427 L 413.3799671605963,143.47693427811487 L 407.12963102770874,127.53174382943926 L 423.0748214763844,133.78207996232683 Z" fill="none" stroke="#00A86B" stroke-width="2.014575780143298" /><path d="M 501.58513848997603,118.08747260449724 L 508.4404357192854,133.78207996232683 L 524.385626167961,127.53174382943926 L 518.1352900350735,143.47693427811487 L 533.829897392903,150.33223150742427 L 518.1352900350735,157.18752873673367 L 524.385626167961,173.13271918540926 L 508.4404357192854,166.8823830525217 L 501.58513848997603,182.5769904103513 L 494.72984126066666,166.8823830525217 L 478.784650811991,173.1327191854093 L 485.0349869448786,157.18752873673367 L 469.34037958704903,150.33223150742427 L 485.0349869448786,143.47693427811487 L 478.784650811991,127.53174382943926 L 494.7298412606666,133.78207996232683 Z" fill="none" stroke="#00A86B" stroke-width="2.014575780143298" /><path d="M 573.2401582742583,118.08747260449724 L 580.0954555035677,133.78207996232683 L 596.0406459522433,127.53174382943926 L 589.7903098193557,143.47693427811487 L 605.4849171771854,150.33223150742427 L 589.7903098193557,157.18752873673367 L 596.0406459522433,173.13271918540926 L 580.0954555035677,166.8823830525217 L 573.2401582742583,182.5769904103513 L 566.3848610449489,166.8823830525217 L 550.4396705962733,173.1327191854093 L 556.6900067291609,157.18752873673367 L 540.9953993713312,150.33223150742427 L 556.6900067291609,143.47693427811487 L 550.4396705962733,127.53174382943926 L 566.3848610449489,133.78207996232683 Z" fill="none" stroke="#00A86B" stroke-width="2.014575780143298" /><path d="M -35.827509892141144,180.14071973768569 L -28.97221266283175,195.83532709551528 L -13.027022214156137,189.58499096262773 L -19.277358347043712,205.53018141130332 L -3.5827509892141123,212.38547864061272 L -19.277358347043712,219.24077586992212 L -13.027022214156137,235.1859663185977 L -28.97221266283175,228.93563018571015 L -35.827509892141144,244.63023754353975 L -42.68280712145054,228.93563018571015 L -58.62799757012615,235.18596631859774 L -52.37766143723857,219.24077586992212 L -68.07226879506817,212.38547864061272 L -52.37766143723857,205.53018141130332 L -58.627997570126155,189.58499096262773 L -42.682807121450544,195.83532709551528 Z" fill="none" stroke="#00A86B" stroke-width="2.014575780143298" /><path d="M 35.827509892141144,180.14071973768569 L 42.68280712145054,195.83532709551528 L 58.627997570126155,189.58499096262773 L 52.37766143723857,205.53018141130332 L 68.07226879506817,212.38547864061272 L 52.37766143723857,219.24077586992212 L 58.627997570126155,235.1859663185977 L 42.68280712145054,228.93563018571015 L 35.827509892141144,244.63023754353975 L 28.972212662831755,228.93563018571015 L 13.02702221415614,235.18596631859774 L 19.277358347043716,219.24077586992212 L 3.5827509892141123,212.38547864061272 L 19.277358347043716,205.53018141130332 L 13.027022214156133,189.58499096262773 L 28.972212662831744,195.83532709551528 Z" fill="none" stroke="#00A86B" stroke-width="2.014575780143298" /><path d="M 107.48252967642344,180.14071973768569 L 114.33782690573283,195.83532709551528 L 130.28301735440846,189.58499096262773 L 124.03268122152087,205.53018141130332 L 139.72728857935047,212.38547864061272 L 124.03268122152087,219.24077586992212 L 130.28301735440846,235.1859663185977 L 114.33782690573283,228.93563018571015 L 107.48252967642344,244.63023754353975 L 100.62723244711405,228.93563018571015 L 84.68204199843844,235.18596631859774 L 90.932378131326,219.24077586992212 L 75.23777077349641,212.38547864061272 L 90.932378131326,205.53018141130332 L 84.68204199843842,189.58499096262773 L 100.62723244711404,195.83532709551528 Z" fill="none" stroke="#00A86B" stroke-width="2.014575780143298" /><path d="M 179.13754946070574,180.14071973768569 L 185.99284669001514,195.83532709551528 L 201.93803713869076,189.58499096262773 L 195.68770100580318,205.53018141130332 L 211.38230836363277,212.38547864061272 L 195.68770100580318,219.24077586992212 L 201.93803713869076,235.1859663185977 L 185.99284669001514,228.93563018571015 L 179.13754946070574,244.63023754353975 L 172.28225223139634,228.93563018571015 L 156.33706178272075,235.18596631859774 L 162.5873979156083,219.24077586992212 L 146.8927905577787,212.38547864061272 L 162.5873979156083,205.53018141130332 L 156.33706178272072,189.58499096262773 L 172.28225223139634,195.83532709551528 Z" fill="none" stroke="#00A86B" stroke-width="2.014575780143298" /><path d="M 250.79256924498802,180.14071973768569 L 257.6478664742974,195.83532709551528 L 273.593056922973,189.58499096262773 L 267.3427207900854,205.53018141130332 L 283.03732814791505,212.38547864061272 L 267.3427207900854,219.24077586992212 L 273.593056922973,235.1859663185977 L 257.6478664742974,228.93563018571015 L 250.79256924498802,244.63023754353975 L 243.93727201567862,228.93563018571015 L 227.99208156700303,235.18596631859774 L 234.24241769989058,219.24077586992212 L 218.54781034206098,212.38547864061272 L 234.24241769989058,205.53018141130332 L 227.992081567003,189.58499096262773 L 243.93727201567862,195.83532709551528 Z" fill="none" stroke="#00A86B" stroke-width="2.014575780143298" /><path d="M 322.44758902927026,180.14071973768569 L 329.30288625857963,195.83532709551528 L 345.2480767072553,189.58499096262773 L 338.9977405743677,205.53018141130332 L 354.6923479321973,212.38547864061272 L 338.9977405743677,219.24077586992212 L 345.2480767072553,235.1859663185977 L 329.30288625857963,228.93563018571015 L 322.44758902927026,244.63023754353975 L 315.5922917999609,228.93563018571015 L 299.64710135128524,235.18596631859774 L 305.8974374841728,219.24077586992212 L 290.2028301263432,212.38547864061272 L 305.8974374841728,205.53018141130332 L 299.64710135128524,189.58499096262773 L 315.5922917999609,195.83532709551528 Z" fill="none" stroke="#00A86B" stroke-width="2.014575780143298" /><path d="M 394.1026088135526,180.14071973768569 L 400.95790604286196,195.83532709551528 L 416.9030964915376,189.58499096262773 L 410.65276035865,205.53018141130332 L 426.34736771647965,212.38547864061272 L 410.65276035865,219.24077586992212 L 416.9030964915376,235.1859663185977 L 400.95790604286196,228.93563018571015 L 394.1026088135526,244.63023754353975 L 387.2473115842432,228.93563018571015 L 371.3021211355676,235.18596631859774 L 377.55245726845516,219.24077586992212 L 361.85784991062553,212.38547864061272 L 377.55245726845516,205.53018141130332 L 371.3021211355676,189.58499096262773 L 387.2473115842432,195.83532709551528 Z" fill="none" stroke="#00A86B" stroke-width="2.014575780143298" /><path d="M 465.75762859783487,180.14071973768569 L 472.61292582714424,195.83532709551528 L 488.5581162758199,189.58499096262773 L 482.3077801429323,205.53018141130332 L 498.00238750076187,212.38547864061272 L 482.3077801429323,219.24077586992212 L 488.5581162758199,235.1859663185977 L 472.61292582714424,228.93563018571015 L 465.75762859783487,244.63023754353975 L 458.9023313685255,228.93563018571015 L 442.95714091984985,235.18596631859774 L 449.20747705273743,219.24077586992212 L 433.51286969490786,212.38547864061272 L 449.20747705273743,205.53018141130332 L 442.95714091984985,189.58499096262773 L 458.90233136852544,195.83532709551528 Z" fill="none" stroke="#00A86B" stroke-width="2.014575780143298" /><path d="M 537.4126483821171,180.14071973768569 L 544.2679456114265,195.83532709551528 L 560.2131360601021,189.58499096262773 L 553.9627999272145,205.53018141130332 L 569.6574072850442,212.38547864061272 L 553.9627999272145,219.24077586992212 L 560.2131360601021,235.1859663185977 L 544.2679456114265,228.93563018571015 L 537.4126483821171,244.63023754353975 L 530.5573511528078,228.93563018571015 L 514.6121607041322,235.18596631859774 L 520.8624968370198,219.24077586992212 L 505.1678894791901,212.38547864061272 L 520.8624968370198,205.53018141130332 L 514.6121607041322,189.58499096262773 L 530.5573511528078,195.83532709551528 Z" fill="none" stroke="#00A86B" stroke-width="2.014575780143298" /><path d="M 1.9744220389873857e-15,242.1939668708741 L 6.855297229309391,257.8885742287037 L 22.800487677985007,251.63823809581612 L 16.55015154509743,267.58342854449177 L 32.24475890292703,274.43872577380114 L 16.55015154509743,281.2940230031105 L 22.800487677985007,297.23921345178616 L 6.855297229309391,290.9888773188986 L 1.9744220389873857e-15,306.6834846767282 L -6.8552972293093895,290.9888773188986 L -22.800487677985004,297.23921345178616 L -16.550151545097428,281.2940230031105 L -32.24475890292703,274.43872577380114 L -16.550151545097428,267.58342854449177 L -22.80048767798501,251.63823809581612 L -6.8552972293094,257.8885742287037 Z" fill="none" stroke="#00A86B" stroke-width="2.014575780143298" /><path d="M 71.65501978428229,242.1939668708741 L 78.51031701359167,257.8885742287037 L 94.45550746226729,251.63823809581612 L 88.20517132937972,267.58342854449177 L 103.89977868720932,274.43872577380114 L 88.20517132937972,281.2940230031105 L 94.45550746226729,297.23921345178616 L 78.51031701359167,290.9888773188986 L 71.65501978428229,306.6834846767282 L 64.7997225549729,290.9888773188986 L 48.854532106297285,297.23921345178616 L 55.10486823918486,281.2940230031105 L 39.410260881355256,274.43872577380114 L 55.10486823918486,267.58342854449177 L 48.85453210629728,251.63823809581612 L 64.79972255497289,257.8885742287037 Z" fill="none" stroke="#00A86B" stroke-width="2.014575780143298" /><path d="M 143.31003956856458,242.1939668708741 L 150.16533679787398,257.8885742287037 L 166.1105272465496,251.63823809581612 L 159.860191113662,267.58342854449177 L 175.5547984714916,274.43872577380114 L 159.860191113662,281.2940230031105 L 166.1105272465496,297.23921345178616 L 150.16533679787398,290.9888773188986 L 143.31003956856458,306.6834846767282 L 136.45474233925518,290.9888773188986 L 120.50955189057957,297.23921345178616 L 126.75988802346714,281.2940230031105 L 111.06528066563754,274.43872577380114 L 126.75988802346714,267.58342854449177 L 120.50955189057956,251.63823809581612 L 136.45474233925518,257.8885742287037 Z" fill="none" stroke="#00A86B" stroke-width="2.014575780143298" /><path d="M 214.96505935284688,242.1939668708741 L 221.82035658215628,257.8885742287037 L 237.7655470308319,251.63823809581612 L 231.5152108979443,267.58342854449177 L 247.2098182557739,274.43872577380114 L 231.5152108979443,281.2940230031105 L 237.7655470308319,297.23921345178616 L 221.82035658215628,290.9888773188986 L 214.96505935284688,306.6834846767282 L 208.10976212353748,290.9888773188986 L 192.16457167486186,297.23921345178616 L 198.41490780774944,281.2940230031105 L 182.72030044991985,274.43872577380114 L 198.41490780774944,267.58342854449177 L 192.16457167486186,251.63823809581612 L 208.10976212353748,257.8885742287037 Z" fill="none" stroke="#00A86B" stroke-width="2.014575780143298" /><path d="M 286.62007913712915,242.1939668708741 L 293.4753763664385,257.8885742287037 L 309.42056681511417,251.63823809581612 L 303.1702306822266,267.58342854449177 L 318.86483804005616,274.43872577380114 L 303.1702306822266,281.2940230031105 L 309.42056681511417,297.23921345178616 L 293.4753763664385,290.9888773188986 L 286.62007913712915,306.6834846767282 L 279.7647819078198,290.9888773188986 L 263.81959145914414,297.23921345178616 L 270.0699275920317,281.2940230031105 L 254.37532023420212,274.43872577380114 L 270.0699275920317,267.58342854449177 L 263.81959145914414,251.63823809581612 L 279.7647819078197,257.8885742287037 Z" fill="none" stroke="#00A86B" stroke-width="2.014575780143298" /><path d="M 358.2750989214114,242.1939668708741 L 365.1303961507208,257.8885742287037 L 381.07558659939644,251.63823809581612 L 374.82525046650886,267.58342854449177 L 390.5198578243385,274.43872577380114 L 374.82525046650886,281.2940230031105 L 381.07558659939644,297.23921345178616 L 365.1303961507208,290.9888773188986 L 358.2750989214114,306.6834846767282 L 351.41980169210206,290.9888773188986 L 335.4746112434264,297.23921345178616 L 341.724947376314,281.2940230031105 L 326.03034001848437,274.43872577380114 L 341.724947376314,267.58342854449177 L 335.4746112434264,251.63823809581612 L 351.41980169210206,257.8885742287037 Z" fill="none" stroke="#00A86B" stroke-width="2.014575780143298" /><path d="M 429.93011870569376,242.1939668708741 L 436.78541593500313,257.8885742287037 L 452.7306063836788,251.63823809581612 L 446.4802702507912,267.58342854449177 L 462.1748776086208,274.43872577380114 L 446.4802702507912,281.2940230031105 L 452.7306063836788,297.23921345178616 L 436.78541593500313,290.9888773188986 L 429.93011870569376,306.6834846767282 L 423.0748214763844,290.9888773188986 L 407.12963102770874,297.23921345178616 L 413.3799671605963,281.2940230031105 L 397.6853598027667,274.43872577380114 L 413.3799671605963,267.58342854449177 L 407.12963102770874,251.63823809581612 L 423.0748214763844,257.8885742287037 Z" fill="none" stroke="#00A86B" stroke-width="2.014575780143298" /><path d="M 501.58513848997603,242.1939668708741 L 508.4404357192854,257.8885742287037 L 524.385626167961,251.63823809581612 L 518.1352900350735,267.58342854449177 L 533.829897392903,274.43872577380114 L 518.1352900350735,281.2940230031105 L 524.385626167961,297.23921345178616 L 508.4404357192854,290.9888773188986 L 501.58513848997603,306.6834846767282 L 494.72984126066666,290.9888773188986 L 478.784650811991,297.23921345178616 L 485.0349869448786,281.2940230031105 L 469.34037958704903,274.43872577380114 L 485.0349869448786,267.58342854449177 L 478.784650811991,251.63823809581612 L 494.7298412606666,257.8885742287037 Z" fill="none" stroke="#00A86B" stroke-width="2.014575780143298" /><path d="M 573.2401582742583,242.1939668708741 L 580.0954555035677,257.8885742287037 L 596.0406459522433,251.63823809581612 L 589.7903098193557,267.58342854449177 L 605.4849171771854,274.43872577380114 L 589.7903098193557,281.2940230031105 L 596.0406459522433,297.23921345178616 L 580.0954555035677,290.9888773188986 L 573.2401582742583,306.6834846767282 L 566.3848610449489,290.9888773188986 L 550.4396705962733,297.23921345178616 L 556.6900067291609,281.2940230031105 L 540.9953993713312,274.43872577380114 L 556.6900067291609,267.58342854449177 L 550.4396705962733,251.63823809581612 L 566.3848610449489,257.8885742287037 Z" fill="none" stroke="#00A86B" stroke-width="2.014575780143298" /><path d="M -35.827509892141144,304.2472140040626 L -28.97221266283175,319.9418213618922 L -13.027022214156137,313.6914852290046 L -19.277358347043712,329.6366756776803 L -3.5827509892141123,336.49197290698964 L -19.277358347043712,343.347270136299 L -13.027022214156137,359.29246058497466 L -28.97221266283175,353.0421244520871 L -35.827509892141144,368.7367318099167 L -42.68280712145054,353.0421244520871 L -58.62799757012615,359.29246058497466 L -52.37766143723857,343.347270136299 L -68.07226879506817,336.49197290698964 L -52.37766143723857,329.6366756776803 L -58.627997570126155,313.6914852290046 L -42.682807121450544,319.9418213618922 Z" fill="none" stroke="#00A86B" stroke-width="2.014575780143298" /><path d="M 35.827509892141144,304.2472140040626 L 42.68280712145054,319.9418213618922 L 58.627997570126155,313.6914852290046 L 52.37766143723857,329.6366756776803 L 68.07226879506817,336.49197290698964 L 52.37766143723857,343.347270136299 L 58.627997570126155,359.29246058497466 L 42.68280712145054,353.0421244520871 L 35.827509892141144,368.7367318099167 L 28.972212662831755,353.0421244520871 L 13.02702221415614,359.29246058497466 L 19.277358347043716,343.347270136299 L 3.5827509892141123,336.49197290698964 L 19.277358347043716,329.6366756776803 L 13.027022214156133,313.6914852290046 L 28.972212662831744,319.9418213618922 Z" fill="none" stroke="#00A86B" stroke-width="2.014575780143298" /><path d="M 107.48252967642344,304.2472140040626 L 114.33782690573283,319.9418213618922 L 130.28301735440846,313.6914852290046 L 124.03268122152087,329.6366756776803 L 139.72728857935047,336.49197290698964 L 124.03268122152087,343.347270136299 L 130.28301735440846,359.29246058497466 L 114.33782690573283,353.0421244520871 L 107.48252967642344,368.7367318099167 L 100.62723244711405,353.0421244520871 L 84.68204199843844,359.29246058497466 L 90.932378131326,343.347270136299 L 75.23777077349641,336.49197290698964 L 90.932378131326,329.6366756776803 L 84.68204199843842,313.6914852290046 L 100.62723244711404,319.9418213618922 Z" fill="none" stroke="#00A86B" stroke-width="2.014575780143298" /><path d="M 179.13754946070574,304.2472140040626 L 185.99284669001514,319.9418213618922 L 201.93803713869076,313.6914852290046 L 195.68770100580318,329.6366756776803 L 211.38230836363277,336.49197290698964 L 195.68770100580318,343.347270136299 L 201.93803713869076,359.29246058497466 L 185.99284669001514,353.0421244520871 L 179.13754946070574,368.7367318099167 L 172.28225223139634,353.0421244520871 L 156.33706178272075,359.29246058497466 L 162.5873979156083,343.347270136299 L 146.8927905577787,336.49197290698964 L 162.5873979156083,329.6366756776803 L 156.33706178272072,313.6914852290046 L 172.28225223139634,319.9418213618922 Z" fill="none" stroke="#00A86B" stroke-width="2.014575780143298" /><path d="M 250.79256924498802,304.2472140040626 L 257.6478664742974,319.9418213618922 L 273.593056922973,313.6914852290046 L 267.3427207900854,329.6366756776803 L 283.03732814791505,336.49197290698964 L 267.3427207900854,343.347270136299 L 273.593056922973,359.29246058497466 L 257.6478664742974,353.0421244520871 L 250.79256924498802,368.7367318099167 L 243.93727201567862,353.0421244520871 L 227.99208156700303,359.29246058497466 L 234.24241769989058,343.347270136299 L 218.54781034206098,336.49197290698964 L 234.24241769989058,329.6366756776803 L 227.992081567003,313.6914852290046 L 243.93727201567862,319.9418213618922 Z" fill="none" stroke="#00A86B" stroke-width="2.014575780143298" /><path d="M 322.44758902927026,304.2472140040626 L 329.30288625857963,319.9418213618922 L 345.2480767072553,313.6914852290046 L 338.9977405743677,329.6366756776803 L 354.6923479321973,336.49197290698964 L 338.9977405743677,343.347270136299 L 345.2480767072553,359.29246058497466 L 329.30288625857963,353.0421244520871 L 322.44758902927026,368.7367318099167 L 315.5922917999609,353.0421244520871 L 299.64710135128524,359.29246058497466 L 305.8974374841728,343.347270136299 L 290.2028301263432,336.49197290698964 L 305.8974374841728,329.6366756776803 L 299.64710135128524,313.6914852290046 L 315.5922917999609,319.9418213618922 Z" fill="none" stroke="#00A86B" stroke-width="2.014575780143298" /><path d="M 394.1026088135526,304.2472140040626 L 400.95790604286196,319.9418213618922 L 416.9030964915376,313.6914852290046 L 410.65276035865,329.6366756776803 L 426.34736771647965,336.49197290698964 L 410.65276035865,343.347270136299 L 416.9030964915376,359.29246058497466 L 400.95790604286196,353.0421244520871 L 394.1026088135526,368.7367318099167 L 387.2473115842432,353.0421244520871 L 371.3021211355676,359.29246058497466 L 377.55245726845516,343.347270136299 L 361.85784991062553,336.49197290698964 L 377.55245726845516,329.6366756776803 L 371.3021211355676,313.6914852290046 L 387.2473115842432,319.9418213618922 Z" fill="none" stroke="#00A86B" stroke-width="2.014575780143298" /><path d="M 465.75762859783487,304.2472140040626 L 472.61292582714424,319.9418213618922 L 488.5581162758199,313.6914852290046 L 482.3077801429323,329.6366756776803 L 498.00238750076187,336.49197290698964 L 482.3077801429323,343.347270136299 L 488.5581162758199,359.29246058497466 L 472.61292582714424,353.0421244520871 L 465.75762859783487,368.7367318099167 L 458.9023313685255,353.0421244520871 L 442.95714091984985,359.29246058497466 L 449.20747705273743,343.347270136299 L 433.51286969490786,336.49197290698964 L 449.20747705273743,329.6366756776803 L 442.95714091984985,313.6914852290046 L 458.90233136852544,319.9418213618922 Z" fill="none" stroke="#00A86B" stroke-width="2.014575780143298" /><path d="M 537.4126483821171,304.2472140040626 L 544.2679456114265,319.9418213618922 L 560.2131360601021,313.6914852290046 L 553.9627999272145,329.6366756776803 L 569.6574072850442,336.49197290698964 L 553.9627999272145,343.347270136299 L 560.2131360601021,359.29246058497466 L 544.2679456114265,353.0421244520871 L 537.4126483821171,368.7367318099167 L 530.5573511528078,353.0421244520871 L 514.6121607041322,359.29246058497466 L 520.8624968370198,343.347270136299 L 505.1678894791901,336.49197290698964 L 520.8624968370198,329.6366756776803 L 514.6121607041322,313.6914852290046 L 530.5573511528078,319.9418213618922 Z" fill="none" stroke="#00A86B" stroke-width="2.014575780143298" /><path d="M 1.9744220389873857e-15,366.3004611372511 L 6.855297229309391,381.99506849508066 L 22.800487677985007,375.7447323621931 L 16.55015154509743,391.6899228108687 L 32.24475890292703,398.5452200401781 L 16.55015154509743,405.40051726948747 L 22.800487677985007,421.3457077181631 L 6.855297229309391,415.09537158527553 L 1.9744220389873857e-15,430.7899789431051 L -6.8552972293093895,415.09537158527553 L -22.800487677985004,421.3457077181631 L -16.550151545097428,405.40051726948747 L -32.24475890292703,398.5452200401781 L -16.550151545097428,391.6899228108687 L -22.80048767798501,375.7447323621931 L -6.8552972293094,381.99506849508066 Z" fill="none" stroke="#00A86B" stroke-width="2.014575780143298" /><path d="M 71.65501978428229,366.3004611372511 L 78.51031701359167,381.99506849508066 L 94.45550746226729,375.7447323621931 L 88.20517132937972,391.6899228108687 L 103.89977868720932,398.5452200401781 L 88.20517132937972,405.40051726948747 L 94.45550746226729,421.3457077181631 L 78.51031701359167,415.09537158527553 L 71.65501978428229,430.7899789431051 L 64.7997225549729,415.09537158527553 L 48.854532106297285,421.3457077181631 L 55.10486823918486,405.40051726948747 L 39.410260881355256,398.5452200401781 L 55.10486823918486,391.6899228108687 L 48.85453210629728,375.7447323621931 L 64.79972255497289,381.99506849508066 Z" fill="none" stroke="#00A86B" stroke-width="2.014575780143298" /><path d="M 143.31003956856458,366.3004611372511 L 150.16533679787398,381.99506849508066 L 166.1105272465496,375.7447323621931 L 159.860191113662,391.6899228108687 L 175.5547984714916,398.5452200401781 L 159.860191113662,405.40051726948747 L 166.1105272465496,421.3457077181631 L 150.16533679787398,415.09537158527553 L 143.31003956856458,430.7899789431051 L 136.45474233925518,415.09537158527553 L 120.50955189057957,421.3457077181631 L 126.75988802346714,405.40051726948747 L 111.06528066563754,398.5452200401781 L 126.75988802346714,391.6899228108687 L 120.50955189057956,375.7447323621931 L 136.45474233925518,381.99506849508066 Z" fill="none" stroke="#00A86B" stroke-width="2.014575780143298" /><path d="M 214.96505935284688,366.3004611372511 L 221.82035658215628,381.99506849508066 L 237.7655470308319,375.7447323621931 L 231.5152108979443,391.6899228108687 L 247.2098182557739,398.5452200401781 L 231.5152108979443,405.40051726948747 L 237.7655470308319,421.3457077181631 L 221.82035658215628,415.09537158527553 L 214.96505935284688,430.7899789431051 L 208.10976212353748,415.09537158527553 L 192.16457167486186,421.3457077181631 L 198.41490780774944,405.40051726948747 L 182.72030044991985,398.5452200401781 L 198.41490780774944,391.6899228108687 L 192.16457167486186,375.7447323621931 L 208.10976212353748,381.99506849508066 Z" fill="none" stroke="#00A86B" stroke-width="2.014575780143298" /><path d="M 286.62007913712915,366.3004611372511 L 293.4753763664385,381.99506849508066 L 309.42056681511417,375.7447323621931 L 303.1702306822266,391.6899228108687 L 318.86483804005616,398.5452200401781 L 303.1702306822266,405.40051726948747 L 309.42056681511417,421.3457077181631 L 293.4753763664385,415.09537158527553 L 286.62007913712915,430.7899789431051 L 279.7647819078198,415.09537158527553 L 263.81959145914414,421.3457077181631 L 270.0699275920317,405.40051726948747 L 254.37532023420212,398.5452200401781 L 270.0699275920317,391.6899228108687 L 263.81959145914414,375.7447323621931 L 279.7647819078197,381.99506849508066 Z" fill="none" stroke="#00A86B" stroke-width="2.014575780143298" /><path d="M 358.2750989214114,366.3004611372511 L 365.1303961507208,381.99506849508066 L 381.07558659939644,375.7447323621931 L 374.82525046650886,391.6899228108687 L 390.5198578243385,398.5452200401781 L 374.82525046650886,405.40051726948747 L 381.07558659939644,421.3457077181631 L 365.1303961507208,415.09537158527553 L 358.2750989214114,430.7899789431051 L 351.41980169210206,415.09537158527553 L 335.4746112434264,421.3457077181631 L 341.724947376314,405.40051726948747 L 326.03034001848437,398.5452200401781 L 341.724947376314,391.6899228108687 L 335.4746112434264,375.7447323621931 L 351.41980169210206,381.99506849508066 Z" fill="none" stroke="#00A86B" stroke-width="2.014575780143298" /><path d="M 429.93011870569376,366.3004611372511 L 436.78541593500313,381.99506849508066 L 452.7306063836788,375.7447323621931 L 446.4802702507912,391.6899228108687 L 462.1748776086208,398.5452200401781 L 446.4802702507912,405.40051726948747 L 452.7306063836788,421.3457077181631 L 436.78541593500313,415.09537158527553 L 429.93011870569376,430.7899789431051 L 423.0748214763844,415.09537158527553 L 407.12963102770874,421.3457077181631 L 413.3799671605963,405.40051726948747 L 397.6853598027667,398.5452200401781 L 413.3799671605963,391.6899228108687 L 407.12963102770874,375.7447323621931 L 423.0748214763844,381.99506849508066 Z" fill="none" stroke="#00A86B" stroke-width="2.014575780143298" /><path d="M 501.58513848997603,366.3004611372511 L 508.4404357192854,381.99506849508066 L 524.385626167961,375.7447323621931 L 518.1352900350735,391.6899228108687 L 533.829897392903,398.5452200401781 L 518.1352900350735,405.40051726948747 L 524.385626167961,421.3457077181631 L 508.4404357192854,415.09537158527553 L 501.58513848997603,430.7899789431051 L 494.72984126066666,415.09537158527553 L 478.784650811991,421.3457077181631 L 485.0349869448786,405.40051726948747 L 469.34037958704903,398.5452200401781 L 485.0349869448786,391.6899228108687 L 478.784650811991,375.7447323621931 L 494.7298412606666,381.99506849508066 Z" fill="none" stroke="#00A86B" stroke-width="2.014575780143298" /><path d="M 573.2401582742583,366.3004611372511 L 580.0954555035677,381.99506849508066 L 596.0406459522433,375.7447323621931 L 589.7903098193557,391.6899228108687 L 605.4849171771854,398.5452200401781 L 589.7903098193557,405.40051726948747 L 596.0406459522433,421.3457077181631 L 580.0954555035677,415.09537158527553 L 573.2401582742583,430.7899789431051 L 566.3848610449489,415.09537158527553 L 550.4396705962733,421.3457077181631 L 556.6900067291609,405.40051726948747 L 540.9953993713312,398.5452200401781 L 556.6900067291609,391.6899228108687 L 550.4396705962733,375.7447323621931 L 566.3848610449489,381.99506849508066 Z" fill="none" stroke="#00A86B" stroke-width="2.014575780143298" /><path d="M -35.827509892141144,428.3537082704395 L -28.97221266283175,444.0483156282691 L -13.027022214156137,437.7979794953815 L -19.277358347043712,453.7431699440572 L -3.5827509892141123,460.59846717336654 L -19.277358347043712,467.4537644026759 L -13.027022214156137,483.39895485135156 L -28.97221266283175,477.148618718464 L -35.827509892141144,492.8432260762936 L -42.68280712145054,477.148618718464 L -58.62799757012615,483.39895485135156 L -52.37766143723857,467.4537644026759 L -68.07226879506817,460.59846717336654 L -52.37766143723857,453.7431699440572 L -58.627997570126155,437.7979794953815 L -42.682807121450544,444.0483156282691 Z" fill="none" stroke="#00A86B" stroke-width="2.014575780143298" /><path d="M 35.827509892141144,428.3537082704395 L 42.68280712145054,444.0483156282691 L 58.627997570126155,437.7979794953815 L 52.37766143723857,453.7431699440572 L 68.07226879506817,460.59846717336654 L 52.37766143723857,467.4537644026759 L 58.627997570126155,483.39895485135156 L 42.68280712145054,477.148618718464 L 35.827509892141144,492.8432260762936 L 28.972212662831755,477.148618718464 L 13.02702221415614,483.39895485135156 L 19.277358347043716,467.4537644026759 L 3.5827509892141123,460.59846717336654 L 19.277358347043716,453.7431699440572 L 13.027022214156133,437.7979794953815 L 28.972212662831744,444.0483156282691 Z" fill="none" stroke="#00A86B" stroke-width="2.014575780143298" /><path d="M 107.48252967642344,428.3537082704395 L 114.33782690573283,444.0483156282691 L 130.28301735440846,437.7979794953815 L 124.03268122152087,453.7431699440572 L 139.72728857935047,460.59846717336654 L 124.03268122152087,467.4537644026759 L 130.28301735440846,483.39895485135156 L 114.33782690573283,477.148618718464 L 107.48252967642344,492.8432260762936 L 100.62723244711405,477.148618718464 L 84.68204199843844,483.39895485135156 L 90.932378131326,467.4537644026759 L 75.23777077349641,460.59846717336654 L 90.932378131326,453.7431699440572 L 84.68204199843842,437.7979794953815 L 100.62723244711404,444.0483156282691 Z" fill="none" stroke="#00A86B" stroke-width="2.014575780143298" /><path d="M 179.13754946070574,428.3537082704395 L 185.99284669001514,444.0483156282691 L 201.93803713869076,437.7979794953815 L 195.68770100580318,453.7431699440572 L 211.38230836363277,460.59846717336654 L 195.68770100580318,467.4537644026759 L 201.93803713869076,483.39895485135156 L 185.99284669001514,477.148618718464 L 179.13754946070574,492.8432260762936 L 172.28225223139634,477.148618718464 L 156.33706178272075,483.39895485135156 L 162.5873979156083,467.4537644026759 L 146.8927905577787,460.59846717336654 L 162.5873979156083,453.7431699440572 L 156.33706178272072,437.7979794953815 L 172.28225223139634,444.0483156282691 Z" fill="none" stroke="#00A86B" stroke-width="2.014575780143298" /><path d="M 250.79256924498802,428.3537082704395 L 257.6478664742974,444.0483156282691 L 273.593056922973,437.7979794953815 L 267.3427207900854,453.7431699440572 L 283.03732814791505,460.59846717336654 L 267.3427207900854,467.4537644026759 L 273.593056922973,483.39895485135156 L 257.6478664742974,477.148618718464 L 250.79256924498802,492.8432260762936 L 243.93727201567862,477.148618718464 L 227.99208156700303,483.39895485135156 L 234.24241769989058,467.4537644026759 L 218.54781034206098,460.59846717336654 L 234.24241769989058,453.7431699440572 L 227.992081567003,437.7979794953815 L 243.93727201567862,444.0483156282691 Z" fill="none" stroke="#00A86B" stroke-width="2.014575780143298" /><path d="M 322.44758902927026,428.3537082704395 L 329.30288625857963,444.0483156282691 L 345.2480767072553,437.7979794953815 L 338.9977405743677,453.7431699440572 L 354.6923479321973,460.59846717336654 L 338.9977405743677,467.4537644026759 L 345.2480767072553,483.39895485135156 L 329.30288625857963,477.148618718464 L 322.44758902927026,492.8432260762936 L 315.5922917999609,477.148618718464 L 299.64710135128524,483.39895485135156 L 305.8974374841728,467.4537644026759 L 290.2028301263432,460.59846717336654 L 305.8974374841728,453.7431699440572 L 299.64710135128524,437.7979794953815 L 315.5922917999609,444.0483156282691 Z" fill="none" stroke="#00A86B" stroke-width="2.014575780143298" /><path d="M 394.1026088135526,428.3537082704395 L 400.95790604286196,444.0483156282691 L 416.9030964915376,437.7979794953815 L 410.65276035865,453.7431699440572 L 426.34736771647965,460.59846717336654 L 410.65276035865,467.4537644026759 L 416.9030964915376,483.39895485135156 L 400.95790604286196,477.148618718464 L 394.1026088135526,492.8432260762936 L 387.2473115842432,477.148618718464 L 371.3021211355676,483.39895485135156 L 377.55245726845516,467.4537644026759 L 361.85784991062553,460.59846717336654 L 377.55245726845516,453.7431699440572 L 371.3021211355676,437.7979794953815 L 387.2473115842432,444.0483156282691 Z" fill="none" stroke="#00A86B" stroke-width="2.014575780143298" /><path d="M 465.75762859783487,428.3537082704395 L 472.61292582714424,444.0483156282691 L 488.5581162758199,437.7979794953815 L 482.3077801429323,453.7431699440572 L 498.00238750076187,460.59846717336654 L 482.3077801429323,467.4537644026759 L 488.5581162758199,483.39895485135156 L 472.61292582714424,477.148618718464 L 465.75762859783487,492.8432260762936 L 458.9023313685255,477.148618718464 L 442.95714091984985,483.39895485135156 L 449.20747705273743,467.4537644026759 L 433.51286969490786,460.59846717336654 L 449.20747705273743,453.7431699440572 L 442.95714091984985,437.7979794953815 L 458.90233136852544,444.0483156282691 Z" fill="none" stroke="#00A86B" stroke-width="2.014575780143298" /><path d="M 537.4126483821171,428.3537082704395 L 544.2679456114265,444.0483156282691 L 560.2131360601021,437.7979794953815 L 553.9627999272145,453.7431699440572 L 569.6574072850442,460.59846717336654 L 553.9627999272145,467.4537644026759 L 560.2131360601021,483.39895485135156 L 544.2679456114265,477.148618718464 L 537.4126483821171,492.8432260762936 L 530.5573511528078,477.148618718464 L 514.6121607041322,483.39895485135156 L 520.8624968370198,467.4537644026759 L 505.1678894791901,460.59846717336654 L 520.8624968370198,453.7431699440572 L 514.6121607041322,437.7979794953815 L 530.5573511528078,444.0483156282691 Z" fill="none" stroke="#00A86B" stroke-width="2.014575780143298" /><path d="M 1.9744220389873857e-15,490.406955403628 L 6.855297229309391,506.1015627614576 L 22.800487677985007,499.85122662857003 L 16.55015154509743,515.7964170772457 L 32.24475890292703,522.651714306555 L 16.55015154509743,529.5070115358644 L 22.800487677985007,545.45220198454 L 6.855297229309391,539.2018658516524 L 1.9744220389873857e-15,554.8964732094821 L -6.8552972293093895,539.2018658516524 L -22.800487677985004,545.45220198454 L -16.550151545097428,529.5070115358644 L -32.24475890292703,522.651714306555 L -16.550151545097428,515.7964170772457 L -22.80048767798501,499.85122662857003 L -6.8552972293094,506.1015627614576 Z" fill="none" stroke="#00A86B" stroke-width="2.014575780143298" /><path d="M 71.65501978428229,490.406955403628 L 78.51031701359167,506.1015627614576 L 94.45550746226729,499.85122662857003 L 88.20517132937972,515.7964170772457 L 103.89977868720932,522.651714306555 L 88.20517132937972,529.5070115358644 L 94.45550746226729,545.45220198454 L 78.51031701359167,539.2018658516524 L 71.65501978428229,554.8964732094821 L 64.7997225549729,539.2018658516524 L 48.854532106297285,545.45220198454 L 55.10486823918486,529.5070115358644 L 39.410260881355256,522.651714306555 L 55.10486823918486,515.7964170772457 L 48.85453210629728,499.85122662857003 L 64.79972255497289,506.1015627614576 Z" fill="none" stroke="#00A86B" stroke-width="2.014575780143298" /><path d="M 143.31003956856458,490.406955403628 L 150.16533679787398,506.1015627614576 L 166.1105272465496,499.85122662857003 L 159.860191113662,515.7964170772457 L 175.5547984714916,522.651714306555 L 159.860191113662,529.5070115358644 L 166.1105272465496,545.45220198454 L 150.16533679787398,539.2018658516524 L 143.31003956856458,554.8964732094821 L 136.45474233925518,539.2018658516524 L 120.50955189057957,545.45220198454 L 126.75988802346714,529.5070115358644 L 111.06528066563754,522.651714306555 L 126.75988802346714,515.7964170772457 L 120.50955189057956,499.85122662857003 L 136.45474233925518,506.1015627614576 Z" fill="none" stroke="#00A86B" stroke-width="2.014575780143298" /><path d="M 214.96505935284688,490.406955403628 L 221.82035658215628,506.1015627614576 L 237.7655470308319,499.85122662857003 L 231.5152108979443,515.7964170772457 L 247.2098182557739,522.651714306555 L 231.5152108979443,529.5070115358644 L 237.7655470308319,545.45220198454 L 221.82035658215628,539.2018658516524 L 214.96505935284688,554.8964732094821 L 208.10976212353748,539.2018658516524 L 192.16457167486186,545.45220198454 L 198.41490780774944,529.5070115358644 L 182.72030044991985,522.651714306555 L 198.41490780774944,515.7964170772457 L 192.16457167486186,499.85122662857003 L 208.10976212353748,506.1015627614576 Z" fill="none" stroke="#00A86B" stroke-width="2.014575780143298" /><path d="M 286.62007913712915,490.406955403628 L 293.4753763664385,506.1015627614576 L 309.42056681511417,499.85122662857003 L 303.1702306822266,515.7964170772457 L 318.86483804005616,522.651714306555 L 303.1702306822266,529.5070115358644 L 309.42056681511417,545.45220198454 L 293.4753763664385,539.2018658516524 L 286.62007913712915,554.8964732094821 L 279.7647819078198,539.2018658516524 L 263.81959145914414,545.45220198454 L 270.0699275920317,529.5070115358644 L 254.37532023420212,522.651714306555 L 270.0699275920317,515.7964170772457 L 263.81959145914414,499.85122662857003 L 279.7647819078197,506.1015627614576 Z" fill="none" stroke="#00A86B" stroke-width="2.014575780143298" /><path d="M 358.2750989214114,490.406955403628 L 365.1303961507208,506.1015627614576 L 381.07558659939644,499.85122662857003 L 374.82525046650886,515.7964170772457 L 390.5198578243385,522.651714306555 L 374.82525046650886,529.5070115358644 L 381.07558659939644,545.45220198454 L 365.1303961507208,539.2018658516524 L 358.2750989214114,554.8964732094821 L 351.41980169210206,539.2018658516524 L 335.4746112434264,545.45220198454 L 341.724947376314,529.5070115358644 L 326.03034001848437,522.651714306555 L 341.724947376314,515.7964170772457 L 335.4746112434264,499.85122662857003 L 351.41980169210206,506.1015627614576 Z" fill="none" stroke="#00A86B" stroke-width="2.014575780143298" /><path d="M 429.93011870569376,490.406955403628 L 436.78541593500313,506.1015627614576 L 452.7306063836788,499.85122662857003 L 446.4802702507912,515.7964170772457 L 462.1748776086208,522.651714306555 L 446.4802702507912,529.5070115358644 L 452.7306063836788,545.45220198454 L 436.78541593500313,539.2018658516524 L 429.93011870569376,554.8964732094821 L 423.0748214763844,539.2018658516524 L 407.12963102770874,545.45220198454 L 413.3799671605963,529.5070115358644 L 397.6853598027667,522.651714306555 L 413.3799671605963,515.7964170772457 L 407.12963102770874,499.85122662857003 L 423.0748214763844,506.1015627614576 Z" fill="none" stroke="#00A86B" stroke-width="2.014575780143298" /><path d="M 501.58513848997603,490.406955403628 L 508.4404357192854,506.1015627614576 L 524.385626167961,499.85122662857003 L 518.1352900350735,515.7964170772457 L 533.829897392903,522.651714306555 L 518.1352900350735,529.5070115358644 L 524.385626167961,545.45220198454 L 508.4404357192854,539.2018658516524 L 501.58513848997603,554.8964732094821 L 494.72984126066666,539.2018658516524 L 478.784650811991,545.45220198454 L 485.0349869448786,529.5070115358644 L 469.34037958704903,522.651714306555 L 485.0349869448786,515.7964170772457 L 478.784650811991,499.85122662857003 L 494.7298412606666,506.1015627614576 Z" fill="none" stroke="#00A86B" stroke-width="2.014575780143298" /><path d="M 573.2401582742583,490.406955403628 L 580.0954555035677,506.1015627614576 L 596.0406459522433,499.85122662857003 L 589.7903098193557,515.7964170772457 L 605.4849171771854,522.651714306555 L 589.7903098193557,529.5070115358644 L 596.0406459522433,545.45220198454 L 580.0954555035677,539.2018658516524 L 573.2401582742583,554.8964732094821 L 566.3848610449489,539.2018658516524 L 550.4396705962733,545.45220198454 L 556.6900067291609,529.5070115358644 L 540.9953993713312,522.651714306555 L 556.6900067291609,515.7964170772457 L 550.4396705962733,499.85122662857003 L 566.3848610449489,506.1015627614576 Z" fill="none" stroke="#00A86B" stroke-width="2.014575780143298" /><line x1="32.24475890292703" y1="26.22573724104732" x2="39.410260881355256" y2="26.22573724104732" stroke="#00A86B" stroke-width="0.5"/><line x1="103.89977868720932" y1="26.22573724104732" x2="111.06528066563754" y2="26.22573724104732" stroke="#00A86B" stroke-width="0.5"/><line x1="175.5547984714916" y1="26.22573724104732" x2="182.72030044991985" y2="26.22573724104732" stroke="#00A86B" stroke-width="0.5"/><line x1="247.2098182557739" y1="26.22573724104732" x2="254.37532023420212" y2="26.22573724104732" stroke="#00A86B" stroke-width="0.5"/><line x1="318.86483804005616" y1="26.22573724104732" x2="326.03034001848437" y2="26.22573724104732" stroke="#00A86B" stroke-width="0.5"/><line x1="390.5198578243385" y1="26.22573724104732" x2="397.6853598027667" y2="26.22573724104732" stroke="#00A86B" stroke-width="0.5"/><line x1="462.1748776086208" y1="26.22573724104732" x2="469.34037958704903" y2="26.22573724104732" stroke="#00A86B" stroke-width="0.5"/><line x1="68.07226879506817" y1="88.27898437423579" x2="75.23777077349641" y2="88.27898437423579" stroke="#00A86B" stroke-width="0.5"/><line x1="139.72728857935047" y1="88.27898437423579" x2="146.8927905577787" y2="88.27898437423579" stroke="#00A86B" stroke-width="0.5"/><line x1="211.38230836363277" y1="88.27898437423579" x2="218.54781034206098" y2="88.27898437423579" stroke="#00A86B" stroke-width="0.5"/><line x1="283.03732814791505" y1="88.27898437423579" x2="290.2028301263432" y2="88.27898437423579" stroke="#00A86B" stroke-width="0.5"/><line x1="354.6923479321973" y1="88.27898437423579" x2="361.85784991062553" y2="88.27898437423579" stroke="#00A86B" stroke-width="0.5"/><line x1="426.34736771647965" y1="88.27898437423579" x2="433.51286969490786" y2="88.27898437423579" stroke="#00A86B" stroke-width="0.5"/><line x1="498.00238750076187" y1="88.27898437423579" x2="505.1678894791901" y2="88.27898437423579" stroke="#00A86B" stroke-width="0.5"/><line x1="32.24475890292703" y1="150.33223150742427" x2="39.410260881355256" y2="150.33223150742427" stroke="#00A86B" stroke-width="0.5"/><line x1="103.89977868720932" y1="150.33223150742427" x2="111.06528066563754" y2="150.33223150742427" stroke="#00A86B" stroke-width="0.5"/><line x1="175.5547984714916" y1="150.33223150742427" x2="182.72030044991985" y2="150.33223150742427" stroke="#00A86B" stroke-width="0.5"/><line x1="247.2098182557739" y1="150.33223150742427" x2="254.37532023420212" y2="150.33223150742427" stroke="#00A86B" stroke-width="0.5"/><line x1="318.86483804005616" y1="150.33223150742427" x2="326.03034001848437" y2="150.33223150742427" stroke="#00A86B" stroke-width="0.5"/><line x1="390.5198578243385" y1="150.33223150742427" x2="397.6853598027667" y2="150.33223150742427" stroke="#00A86B" stroke-width="0.5"/><line x1="462.1748776086208" y1="150.33223150742427" x2="469.34037958704903" y2="150.33223150742427" stroke="#00A86B" stroke-width="0.5"/><line x1="68.07226879506817" y1="212.38547864061272" x2="75.23777077349641" y2="212.38547864061272" stroke="#00A86B" stroke-width="0.5"/><line x1="139.72728857935047" y1="212.38547864061272" x2="146.8927905577787" y2="212.38547864061272" stroke="#00A86B" stroke-width="0.5"/><line x1="211.38230836363277" y1="212.38547864061272" x2="218.54781034206098" y2="212.38547864061272" stroke="#00A86B" stroke-width="0.5"/><line x1="283.03732814791505" y1="212.38547864061272" x2="290.2028301263432" y2="212.38547864061272" stroke="#00A86B" stroke-width="0.5"/><line x1="354.6923479321973" y1="212.38547864061272" x2="361.85784991062553" y2="212.38547864061272" stroke="#00A86B" stroke-width="0.5"/><line x1="426.34736771647965" y1="212.38547864061272" x2="433.51286969490786" y2="212.38547864061272" stroke="#00A86B" stroke-width="0.5"/><line x1="498.00238750076187" y1="212.38547864061272" x2="505.1678894791901" y2="212.38547864061272" stroke="#00A86B" stroke-width="0.5"/><line x1="32.24475890292703" y1="274.43872577380114" x2="39.410260881355256" y2="274.43872577380114" stroke="#00A86B" stroke-width="0.5"/><line x1="103.89977868720932" y1="274.43872577380114" x2="111.06528066563754" y2="274.43872577380114" stroke="#00A86B" stroke-width="0.5"/><line x1="175.5547984714916" y1="274.43872577380114" x2="182.72030044991985" y2="274.43872577380114" stroke="#00A86B" stroke-width="0.5"/><line x1="247.2098182557739" y1="274.43872577380114" x2="254.37532023420212" y2="274.43872577380114" stroke="#00A86B" stroke-width="0.5"/><line x1="318.86483804005616" y1="274.43872577380114" x2="326.03034001848437" y2="274.43872577380114" stroke="#00A86B" stroke-width="0.5"/><line x1="390.5198578243385" y1="274.43872577380114" x2="397.6853598027667" y2="274.43872577380114" stroke="#00A86B" stroke-width="0.5"/><line x1="462.1748776086208" y1="274.43872577380114" x2="469.34037958704903" y2="274.43872577380114" stroke="#00A86B" stroke-width="0.5"/><line x1="68.07226879506817" y1="336.49197290698964" x2="75.23777077349641" y2="336.49197290698964" stroke="#00A86B" stroke-width="0.5"/><line x1="139.72728857935047" y1="336.49197290698964" x2="146.8927905577787" y2="336.49197290698964" stroke="#00A86B" stroke-width="0.5"/><line x1="211.38230836363277" y1="336.49197290698964" x2="218.54781034206098" y2="336.49197290698964" stroke="#00A86B" stroke-width="0.5"/><line x1="283.03732814791505" y1="336.49197290698964" x2="290.2028301263432" y2="336.49197290698964" stroke="#00A86B" stroke-width="0.5"/><line x1="354.6923479321973" y1="336.49197290698964" x2="361.85784991062553" y2="336.49197290698964" stroke="#00A86B" stroke-width="0.5"/><line x1="426.34736771647965" y1="336.49197290698964" x2="433.51286969490786" y2="336.49197290698964" stroke="#00A86B" stroke-width="0.5"/><line x1="498.00238750076187" y1="336.49197290698964" x2="505.1678894791901" y2="336.49197290698964" stroke="#00A86B" stroke-width="0.5"/><line x1="32.24475890292703" y1="398.5452200401781" x2="39.410260881355256" y2="398.5452200401781" stroke="#00A86B" stroke-width="0.5"/><line x1="103.89977868720932" y1="398.5452200401781" x2="111.06528066563754" y2="398.5452200401781" stroke="#00A86B" stroke-width="0.5"/><line x1="175.5547984714916" y1="398.5452200401781" x2="182.72030044991985" y2="398.5452200401781" stroke="#00A86B" stroke-width="0.5"/><line x1="247.2098182557739" y1="398.5452200401781" x2="254.37532023420212" y2="398.5452200401781" stroke="#00A86B" stroke-width="0.5"/><line x1="318.86483804005616" y1="398.5452200401781" x2="326.03034001848437" y2="398.5452200401781" stroke="#00A86B" stroke-width="0.5"/><line x1="390.5198578243385" y1="398.5452200401781" x2="397.6853598027667" y2="398.5452200401781" stroke="#00A86B" stroke-width="0.5"/><line x1="462.1748776086208" y1="398.5452200401781" x2="469.34037958704903" y2="398.5452200401781" stroke="#00A86B" stroke-width="0.5"/><line x1="68.07226879506817" y1="460.59846717336654" x2="75.23777077349641" y2="460.59846717336654" stroke="#00A86B" stroke-width="0.5"/><line x1="139.72728857935047" y1="460.59846717336654" x2="146.8927905577787" y2="460.59846717336654" stroke="#00A86B" stroke-width="0.5"/><line x1="211.38230836363277" y1="460.59846717336654" x2="218.54781034206098" y2="460.59846717336654" stroke="#00A86B" stroke-width="0.5"/><line x1="283.03732814791505" y1="460.59846717336654" x2="290.2028301263432" y2="460.59846717336654" stroke="#00A86B" stroke-width="0.5"/><line x1="354.6923479321973" y1="460.59846717336654" x2="361.85784991062553" y2="460.59846717336654" stroke="#00A86B" stroke-width="0.5"/><line x1="426.34736771647965" y1="460.59846717336654" x2="433.51286969490786" y2="460.59846717336654" stroke="#00A86B" stroke-width="0.5"/><line x1="498.00238750076187" y1="460.59846717336654" x2="505.1678894791901" y2="460.59846717336654" stroke="#00A86B" stroke-width="0.5"/></g></svg>