<svg xmlns="http://www.w3.org/2000/svg" width="512" height="512" viewBox="0 0 512 512"><rect x="0" y="0" width="512" height="512" fill="#050510"/><g opacity="0.1748938620672067"><path d="M -37.305680531918355,-70.88079301064488 L -30.167547595583343,-54.538657876840425 L -13.564490819109757,-61.04687024472695 L -20.072703186996286,-44.44381346825337 L -3.7305680531918313,-37.305680531918355 L -20.072703186996286,-30.167547595583343 L -13.564490819109757,-13.56449081910976 L -30.167547595583343,-20.072703186996286 L -37.305680531918355,-3.7305680531918313 L -44.44381346825337,-20.072703186996286 L -61.04687024472695,-13.564490819109757 L -54.53865787684042,-30.167547595583333 L -70.88079301064488,-37.30568053191835 L -54.538657876840425,-44.443813468253374 L -61.04687024472696,-61.04687024472695 L -44.44381346825338,-54.53865787684042 Z" fill="none" stroke="#0F52BA" stroke-width="2.5434841523149445" /><path d="M 37.305680531918355,-70.88079301064488 L 44.44381346825337,-54.538657876840425 L 61.046870244726954,-61.04687024472695 L 54.538657876840425,-44.44381346825337 L 70.88079301064488,-37.305680531918355 L 54.538657876840425,-30.167547595583343 L 61.046870244726954,-13.56449081910976 L 44.44381346825337,-20.072703186996286 L 37.305680531918355,-3.7305680531918313 L 30.167547595583343,-20.072703186996286 L 13.56449081910976,-13.564490819109757 L 20.07270318699629,-30.167547595583333 L 3.7305680531918313,-37.30568053191835 L 20.072703186996286,-44.443813468253374 L 13.564490819109754,-61.04687024472695 L 30.167547595583333,-54.53865787684042 Z" fill="none" stroke="#0F52BA" stroke-width="2.5434841523149445" /><path d="M 111.91704159575507,-70.88079301064488 L 119.05517453209008,-54.538657876840425 L 135.65823130856367,-61.04687024472695 L 129.15001894067714,-44.44381346825337 L 145.4921540744816,-37.305680531918355 L 129.15001894067714,-30.167547595583343 L 135.65823130856367,-13.56449081910976 L 119.05517453209008,-20.072703186996286 L 111.91704159575507,-3.7305680531918313 L 104.77890865942005,-20.072703186996286 L 88.17585188294647,-13.564490819109757 L 94.684064250833,-30.167547595583333 L 78.34192911702854,-37.30568053191835 L 94.68406425083299,-44.443813468253374 L 88.17585188294646,-61.04687024472695 L 104.77890865942004,-54.53865787684042 Z" fill="none" stroke="#0F52BA" stroke-width="2.5434841523149445" /><path d="M 186.5284026595918,-70.88079301064488 L 193.6665355959268,-54.538657876840425 L 210.26959237240038,-61.04687024472695 L 203.76138000451385,-44.44381346825337 L 220.1035151383183,-37.305680531918355 L 203.76138000451385,-30.167547595583343 L 210.26959237240038,-13.56449081910976 L 193.6665355959268,-20.072703186996286 L 186.5284026595918,-3.7305680531918313 L 179.39026972325678,-20.072703186996286 L 162.7872129467832,-13.564490819109757 L 169.29542531466973,-30.167547595583333 L 152.95329018086528,-37.30568053191835 L 169.29542531466973,-44.443813468253374 L 162.7872129467832,-61.04687024472695 L 179.39026972325678,-54.53865787684042 Z" fill="none" stroke="#0F52BA" stroke-width="2.5434841523149445" /><path d="M 261.1397637234285,-70.88079301064488 L 268.2778966597635,-54.538657876840425 L 284.88095343623706,-61.04687024472695 L 278.37274106835054,-44.44381346825337 L 294.714876202155,-37.305680531918355 L 278.37274106835054,-30.167547595583343 L 284.88095343623706,-13.56449081910976 L 268.2778966597635,-20.072703186996286 L 261.1397637234285,-3.7305680531918313 L 254.00163078709346,-20.072703186996286 L 237.39857401061988,-13.564490819109757 L 243.9067863785064,-30.167547595583333 L 227.56465124470196,-37.30568053191835 L 243.9067863785064,-44.443813468253374 L 237.39857401061988,-61.04687024472695 L 254.00163078709346,-54.53865787684042 Z" fill="none" stroke="#0F52BA" stroke-width="2.5434841523149445" /><path d="M 335.7511247872652,-70.88079301064488 L 342.8892577236002,-54.538657876840425 L 359.4923145000738,-61.04687024472695 L 352.9841021321873,-44.44381346825337 L 369.3262372659917,-37.305680531918355 L 352.9841021321873,-30.167547595583343 L 359.4923145000738,-13.56449081910976 L 342.8892577236002,-20.072703186996286 L 335.7511247872652,-3.7305680531918313 L 328.6129918509302,-20.072703186996286 L 312.0099350744566,-13.564490819109757 L 318.51814744234315,-30.167547595583333 L 302.1760123085387,-37.30568053191835 L 318.51814744234315,-44.443813468253374 L 312.0099350744566,-61.04687024472695 L 328.6129918509302,-54.53865787684042 Z" fill="none" stroke="#0F52BA" stroke-width="2.5434841523149445" /><path d="M 410.3624858511019,-70.88079301064488 L 417.5006187874369,-54.538657876840425 L 434.1036755639105,-61.04687024472695 L 427.59546319602396,-44.44381346825337 L 443.9375983298284,-37.305680531918355 L 427.59546319602396,-30.167547595583343 L 434.1036755639105,-13.56449081910976 L 417.5006187874369,-20.072703186996286 L 410.3624858511019,-3.7305680531918313 L 403.2243529147669,-20.072703186996286 L 386.6212961382933,-13.564490819109757 L 393.12950850617983,-30.167547595583333 L 376.7873733723754,-37.30568053191835 L 393.12950850617983,-44.443813468253374 L 386.6212961382933,-61.04687024472695 L 403.2243529147669,-54.53865787684042 Z" fill="none" stroke="#0F52BA" stroke-width="2.5434841523149445" /><path d="M 484.9738469149386,-70.88079301064488 L 492.1119798512736,-54.538657876840425 L 508.71503662774717,-61.04687024472695 L 502.20682425986064,-44.44381346825337 L 518.5489593936651,-37.305680531918355 L 502.20682425986064,-30.167547595583343 L 508.71503662774717,-13.56449081910976 L 492.1119798512736,-20.072703186996286 L 484.9738469149386,-3.7305680531918313 L 477.83571397860356,-20.072703186996286 L 461.23265720213,-13.564490819109757 L 467.7408695700165,-30.167547595583333 L 451.39873443621207,-37.30568053191835 L 467.7408695700165,-44.443813468253374 L 461.23265720213,-61.04687024472695 L 477.83571397860356,-54.53865787684042 Z" fill="none" stroke="#0F52BA" stroke-width="2.5434841523149445" /><path d="M 559.5852079787753,-70.88079301064488 L 566.7233409151104,-54.538657876840425 L 583.3263976915839,-61.04687024472695 L 576.8181853236974,-44.44381346825337 L 593.1603204575018,-37.305680531918355 L 576.8181853236974,-30.167547595583343 L 583.3263976915839,-13.56449081910976 L 566.7233409151104,-20.072703186996286 L 559.5852079787753,-3.7305680531918313 L 552.4470750424404,-20.072703186996286 L 535.8440182659667,-13.564490819109757 L 542.3522306338532,-30.167547595583333 L 526.0100955000488,-37.30568053191835 L 542.3522306338532,-44.443813468253374 L 535.8440182659667,-61.04687024472695 L 552.4470750424402,-54.53865787684042 Z" fill="none" stroke="#0F52BA" stroke-width="2.5434841523149445" /><path d="M 2.0558827014042396e-15,-6.267354329362291 L 7.138132936335014,10.074780804442163 L 23.7411897128086,3.566568436555638 L 17.23297734492207,20.16962521302922 L 33.575112478726524,27.307758149364233 L 17.23297734492207,34.445891085699245 L 23.7411897128086,51.048947862172824 L 7.138132936335014,44.5407354942863 L 2.0558827014042396e-15,60.88287062809076 L -7.138132936335011,44.5407354942863 L -23.741189712808595,51.04894786217283 L -17.232977344922066,34.44589108569925 L -33.575112478726524,27.307758149364236 L -17.23297734492207,20.169625213029214 L -23.741189712808602,3.566568436555638 L -7.1381329363350225,10.074780804442167 Z" fill="none" stroke="#0F52BA" stroke-width="2.5434841523149445" /><path d="M 74.61136106383671,-6.267354329362291 L 81.74949400017172,10.074780804442163 L 98.3525507766453,3.566568436555638 L 91.84433840875877,20.16962521302922 L 108.18647354256323,27.307758149364233 L 91.84433840875877,34.445891085699245 L 98.3525507766453,51.048947862172824 L 81.74949400017172,44.5407354942863 L 74.61136106383671,60.88287062809076 L 67.4732281275017,44.5407354942863 L 50.87017135102812,51.04894786217283 L 57.37838371891465,34.44589108569925 L 41.03624858511019,27.307758149364236 L 57.37838371891464,20.169625213029214 L 50.870171351028105,3.566568436555638 L 67.47322812750168,10.074780804442167 Z" fill="none" stroke="#0F52BA" stroke-width="2.5434841523149445" /><path d="M 149.22272212767342,-6.267354329362291 L 156.36085506400843,10.074780804442163 L 172.963911840482,3.566568436555638 L 166.45569947259548,20.16962521302922 L 182.79783460639993,27.307758149364233 L 166.45569947259548,34.445891085699245 L 172.963911840482,51.048947862172824 L 156.36085506400843,44.5407354942863 L 149.22272212767342,60.88287062809076 L 142.0845891913384,44.5407354942863 L 125.48153241486483,51.04894786217283 L 131.98974478275136,34.44589108569925 L 115.6476096489469,27.307758149364236 L 131.98974478275136,20.169625213029214 L 125.48153241486482,3.566568436555638 L 142.0845891913384,10.074780804442167 Z" fill="none" stroke="#0F52BA" stroke-width="2.5434841523149445" /><path d="M 223.83408319151016,-6.267354329362291 L 230.97221612784517,10.074780804442163 L 247.57527290431875,3.566568436555638 L 241.06706053643222,20.16962521302922 L 257.40919567023667,27.307758149364233 L 241.06706053643222,34.445891085699245 L 247.57527290431875,51.048947862172824 L 230.97221612784517,44.5407354942863 L 223.83408319151016,60.88287062809076 L 216.69595025517515,44.5407354942863 L 200.09289347870157,51.04894786217283 L 206.6011058465881,34.44589108569925 L 190.25897071278365,27.307758149364236 L 206.6011058465881,20.169625213029214 L 200.09289347870157,3.566568436555638 L 216.69595025517515,10.074780804442167 Z" fill="none" stroke="#0F52BA" stroke-width="2.5434841523149445" /><path d="M 298.44544425534684,-6.267354329362291 L 305.58357719168185,10.074780804442163 L 322.18663396815543,3.566568436555638 L 315.6784216002689,20.16962521302922 L 332.02055673407335,27.307758149364233 L 315.6784216002689,34.445891085699245 L 322.18663396815543,51.048947862172824 L 305.58357719168185,44.5407354942863 L 298.44544425534684,60.88287062809076 L 291.30731131901183,44.5407354942863 L 274.70425454253825,51.04894786217283 L 281.2124669104248,34.44589108569925 L 264.87033177662033,27.307758149364236 L 281.2124669104248,20.169625213029214 L 274.70425454253825,3.566568436555638 L 291.30731131901183,10.074780804442167 Z" fill="none" stroke="#0F52BA" stroke-width="2.5434841523149445" /><path d="M 373.0568053191836,-6.267354329362291 L 380.1949382555186,10.074780804442163 L 396.7979950319922,3.566568436555638 L 390.28978266410564,20.16962521302922 L 406.6319177979101,27.307758149364233 L 390.28978266410564,34.445891085699245 L 396.7979950319922,51.048947862172824 L 380.1949382555186,44.5407354942863 L 373.0568053191836,60.88287062809076 L 365.91867238284857,44.5407354942863 L 349.315615606375,51.04894786217283 L 355.8238279742615,34.44589108569925 L 339.4816928404571,27.307758149364236 L 355.8238279742615,20.169625213029214 L 349.315615606375,3.566568436555638 L 365.91867238284857,10.074780804442167 Z" fill="none" stroke="#0F52BA" stroke-width="2.5434841523149445" /><path d="M 447.66816638302026,-6.267354329362291 L 454.8062993193553,10.074780804442163 L 471.40935609582885,3.566568436555638 L 464.9011437279423,20.16962521302922 L 481.2432788617468,27.307758149364233 L 464.9011437279423,34.445891085699245 L 471.40935609582885,51.048947862172824 L 454.8062993193553,44.5407354942863 L 447.66816638302026,60.88287062809076 L 440.53003344668525,44.5407354942863 L 423.9269766702117,51.04894786217283 L 430.4351890380982,34.44589108569925 L 414.09305390429375,27.307758149364236 L 430.4351890380982,20.169625213029214 L 423.9269766702117,3.566568436555638 L 440.53003344668525,10.074780804442167 Z" fill="none" stroke="#0F52BA" stroke-width="2.5434841523149445" /><path d="M 522.279527446857,-6.267354329362291 L 529.417660383192,10.074780804442163 L 546.0207171596655,3.566568436555638 L 539.5125047917791,20.16962521302922 L 555.8546399255835,27.307758149364233 L 539.5125047917791,34.445891085699245 L 546.0207171596655,51.048947862172824 L 529.417660383192,44.5407354942863 L 522.279527446857,60.88287062809076 L 515.141394510522,44.5407354942863 L 498.53833773404835,51.04894786217283 L 505.0465501019349,34.44589108569925 L 488.70441496813044,27.307758149364236 L 505.0465501019349,20.169625213029214 L 498.53833773404835,3.566568436555638 L 515.1413945105219,10.074780804442167 Z" fill="none" stroke="#0F52BA" stroke-width="2.5434841523149445" /><path d="M -37.305680531918355,58.3460843519203 L -30.167547595583343,74.68821948572474 L -13.564490819109757,68.18000711783823 L -20.072703186996286,84.78306389431181 L -3.7305680531918313,91.92119683064682 L -20.072703186996286,99.05932976698183 L -13.564490819109757,115.66238654345541 L -30.167547595583343,109.1541741755689 L -37.305680531918355,125.49630930937334 L -44.44381346825337,109.1541741755689 L -61.04687024472695,115.66238654345543 L -54.53865787684042,99.05932976698185 L -70.88079301064488,91.92119683064682 L -54.538657876840425,84.78306389431181 L -61.04687024472696,68.18000711783823 L -44.44381346825338,74.68821948572476 Z" fill="none" stroke="#0F52BA" stroke-width="2.5434841523149445" /><path d="M 37.305680531918355,58.3460843519203 L 44.44381346825337,74.68821948572474 L 61.046870244726954,68.18000711783823 L 54.538657876840425,84.78306389431181 L 70.88079301064488,91.92119683064682 L 54.538657876840425,99.05932976698183 L 61.046870244726954,115.66238654345541 L 44.44381346825337,109.1541741755689 L 37.305680531918355,125.49630930937334 L 30.167547595583343,109.1541741755689 L 13.56449081910976,115.66238654345543 L 20.07270318699629,99.05932976698185 L 3.7305680531918313,91.92119683064682 L 20.072703186996286,84.78306389431181 L 13.564490819109754,68.18000711783823 L 30.167547595583333,74.68821948572476 Z" fill="none" stroke="#0F52BA" stroke-width="2.5434841523149445" /><path d="M 111.91704159575507,58.3460843519203 L 119.05517453209008,74.68821948572474 L 135.65823130856367,68.18000711783823 L 129.15001894067714,84.78306389431181 L 145.4921540744816,91.92119683064682 L 129.15001894067714,99.05932976698183 L 135.65823130856367,115.66238654345541 L 119.05517453209008,109.1541741755689 L 111.91704159575507,125.49630930937334 L 104.77890865942005,109.1541741755689 L 88.17585188294647,115.66238654345543 L 94.684064250833,99.05932976698185 L 78.34192911702854,91.92119683064682 L 94.68406425083299,84.78306389431181 L 88.17585188294646,68.18000711783823 L 104.77890865942004,74.68821948572476 Z" fill="none" stroke="#0F52BA" stroke-width="2.5434841523149445" /><path d="M 186.5284026595918,58.3460843519203 L 193.6665355959268,74.68821948572474 L 210.26959237240038,68.18000711783823 L 203.76138000451385,84.78306389431181 L 220.1035151383183,91.92119683064682 L 203.76138000451385,99.05932976698183 L 210.26959237240038,115.66238654345541 L 193.6665355959268,109.1541741755689 L 186.5284026595918,125.49630930937334 L 179.39026972325678,109.1541741755689 L 162.7872129467832,115.66238654345543 L 169.29542531466973,99.05932976698185 L 152.95329018086528,91.92119683064682 L 169.29542531466973,84.78306389431181 L 162.7872129467832,68.18000711783823 L 179.39026972325678,74.68821948572476 Z" fill="none" stroke="#0F52BA" stroke-width="2.5434841523149445" /><path d="M 261.1397637234285,58.3460843519203 L 268.2778966597635,74.68821948572474 L 284.88095343623706,68.18000711783823 L 278.37274106835054,84.78306389431181 L 294.714876202155,91.92119683064682 L 278.37274106835054,99.05932976698183 L 284.88095343623706,115.66238654345541 L 268.2778966597635,109.1541741755689 L 261.1397637234285,125.49630930937334 L 254.00163078709346,109.1541741755689 L 237.39857401061988,115.66238654345543 L 243.9067863785064,99.05932976698185 L 227.56465124470196,91.92119683064682 L 243.9067863785064,84.78306389431181 L 237.39857401061988,68.18000711783823 L 254.00163078709346,74.68821948572476 Z" fill="none" stroke="#0F52BA" stroke-width="2.5434841523149445" /><path d="M 335.7511247872652,58.3460843519203 L 342.8892577236002,74.68821948572474 L 359.4923145000738,68.18000711783823 L 352.9841021321873,84.78306389431181 L 369.3262372659917,91.92119683064682 L 352.9841021321873,99.05932976698183 L 359.4923145000738,115.66238654345541 L 342.8892577236002,109.1541741755689 L 335.7511247872652,125.49630930937334 L 328.6129918509302,109.1541741755689 L 312.0099350744566,115.66238654345543 L 318.51814744234315,99.05932976698185 L 302.1760123085387,91.92119683064682 L 318.51814744234315,84.78306389431181 L 312.0099350744566,68.18000711783823 L 328.6129918509302,74.68821948572476 Z" fill="none" stroke="#0F52BA" stroke-width="2.5434841523149445" /><path d="M 410.3624858511019,58.3460843519203 L 417.5006187874369,74.68821948572474 L 434.1036755639105,68.18000711783823 L 427.59546319602396,84.78306389431181 L 443.9375983298284,91.92119683064682 L 427.59546319602396,99.05932976698183 L 434.1036755639105,115.66238654345541 L 417.5006187874369,109.1541741755689 L 410.3624858511019,125.49630930937334 L 403.2243529147669,109.1541741755689 L 386.6212961382933,115.66238654345543 L 393.12950850617983,99.05932976698185 L 376.7873733723754,91.92119683064682 L 393.12950850617983,84.78306389431181 L 386.6212961382933,68.18000711783823 L 403.2243529147669,74.68821948572476 Z" fill="none" stroke="#0F52BA" stroke-width="2.5434841523149445" /><path d="M 484.9738469149386,58.3460843519203 L 492.1119798512736,74.68821948572474 L 508.71503662774717,68.18000711783823 L 502.20682425986064,84.78306389431181 L 518.5489593936651,91.92119683064682 L 502.20682425986064,99.05932976698183 L 508.71503662774717,115.66238654345541 L 492.1119798512736,109.1541741755689 L 484.9738469149386,125.49630930937334 L 477.83571397860356,109.1541741755689 L 461.23265720213,115.66238654345543 L 467.7408695700165,99.05932976698185 L 451.39873443621207,91.92119683064682 L 467.7408695700165,84.78306389431181 L 461.23265720213,68.18000711783823 L 477.83571397860356,74.68821948572476 Z" fill="none" stroke="#0F52BA" stroke-width="2.5434841523149445" /><path d="M 559.5852079787753,58.3460843519203 L 566.7233409151104,74.68821948572474 L 583.3263976915839,68.18000711783823 L 576.8181853236974,84.78306389431181 L 593.1603204575018,91.92119683064682 L 576.8181853236974,99.05932976698183 L 583.3263976915839,115.66238654345541 L 566.7233409151104,109.1541741755689 L 559.5852079787753,125.49630930937334 L 552.4470750424404,109.1541741755689 L 535.8440182659667,115.66238654345543 L 542.3522306338532,99.05932976698185 L 526.0100955000488,91.92119683064682 L 542.3522306338532,84.78306389431181 L 535.8440182659667,68.18000711783823 L 552.4470750424402,74.68821948572476 Z" fill="none" stroke="#0F52BA" stroke-width="2.5434841523149445" /><path d="M 2.0558827014042396e-15,122.9595230332029 L 7.138132936335014,139.30165816700736 L 23.7411897128086,132.79344579912083 L 17.23297734492207,149.3965025755944 L 33.575112478726524,156.53463551192942 L 17.23297734492207,163.67276844826443 L 23.7411897128086,180.275825224738 L 7.138132936335014,173.76761285685149 L 2.0558827014042396e-15,190.10974799065593 L -7.138132936335011,173.76761285685149 L -23.741189712808595,180.275825224738 L -17.232977344922066,163.67276844826443 L -33.575112478726524,156.53463551192942 L -17.23297734492207,149.3965025755944 L -23.741189712808602,132.79344579912083 L -7.1381329363350225,139.30165816700736 Z" fill="none" stroke="#0F52BA" stroke-width="2.5434841523149445" /><path d="M 74.61136106383671,122.9595230332029 L 81.74949400017172,139.30165816700736 L 98.3525507766453,132.79344579912083 L 91.84433840875877,149.3965025755944 L 108.18647354256323,156.53463551192942 L 91.84433840875877,163.67276844826443 L 98.3525507766453,180.275825224738 L 81.74949400017172,173.76761285685149 L 74.61136106383671,190.10974799065593 L 67.4732281275017,173.76761285685149 L 50.87017135102812,180.275825224738 L 57.37838371891465,163.67276844826443 L 41.03624858511019,156.53463551192942 L 57.37838371891464,149.3965025755944 L 50.870171351028105,132.79344579912083 L 67.47322812750168,139.30165816700736 Z" fill="none" stroke="#0F52BA" stroke-width="2.5434841523149445" /><path d="M 149.22272212767342,122.9595230332029 L 156.36085506400843,139.30165816700736 L 172.963911840482,132.79344579912083 L 166.45569947259548,149.3965025755944 L 182.79783460639993,156.53463551192942 L 166.45569947259548,163.67276844826443 L 172.963911840482,180.275825224738 L 156.36085506400843,173.76761285685149 L 149.22272212767342,190.10974799065593 L 142.0845891913384,173.76761285685149 L 125.48153241486483,180.275825224738 L 131.98974478275136,163.67276844826443 L 115.6476096489469,156.53463551192942 L 131.98974478275136,149.3965025755944 L 125.48153241486482,132.79344579912083 L 142.0845891913384,139.30165816700736 Z" fill="none" stroke="#0F52BA" stroke-width="2.5434841523149445" /><path d="M 223.83408319151016,122.9595230332029 L 230.97221612784517,139.30165816700736 L 247.57527290431875,132.79344579912083 L 241.06706053643222,149.3965025755944 L 257.40919567023667,156.53463551192942 L 241.06706053643222,163.67276844826443 L 247.57527290431875,180.275825224738 L 230.97221612784517,173.76761285685149 L 223.83408319151016,190.10974799065593 L 216.69595025517515,173.76761285685149 L 200.09289347870157,180.275825224738 L 206.6011058465881,163.67276844826443 L 190.25897071278365,156.53463551192942 L 206.6011058465881,149.3965025755944 L 200.09289347870157,132.79344579912083 L 216.69595025517515,139.30165816700736 Z" fill="none" stroke="#0F52BA" stroke-width="2.5434841523149445" /><path d="M 298.44544425534684,122.9595230332029 L 305.58357719168185,139.30165816700736 L 322.18663396815543,132.79344579912083 L 315.6784216002689,149.3965025755944 L 332.02055673407335,156.53463551192942 L 315.6784216002689,163.67276844826443 L 322.18663396815543,180.275825224738 L 305.58357719168185,173.76761285685149 L 298.44544425534684,190.10974799065593 L 291.30731131901183,173.76761285685149 L 274.70425454253825,180.275825224738 L 281.2124669104248,163.67276844826443 L 264.87033177662033,156.53463551192942 L 281.2124669104248,149.3965025755944 L 274.70425454253825,132.79344579912083 L 291.30731131901183,139.30165816700736 Z" fill="none" stroke="#0F52BA" stroke-width="2.5434841523149445" /><path d="M 373.0568053191836,122.9595230332029 L 380.1949382555186,139.30165816700736 L 396.7979950319922,132.79344579912083 L 390.28978266410564,149.3965025755944 L 406.6319177979101,156.53463551192942 L 390.28978266410564,163.67276844826443 L 396.7979950319922,180.275825224738 L 380.1949382555186,173.76761285685149 L 373.0568053191836,190.10974799065593 L 365.91867238284857,173.76761285685149 L 349.315615606375,180.275825224738 L 355.8238279742615,163.67276844826443 L 339.4816928404571,156.53463551192942 L 355.8238279742615,149.3965025755944 L 349.315615606375,132.79344579912083 L 365.91867238284857,139.30165816700736 Z" fill="none" stroke="#0F52BA" stroke-width="2.5434841523149445" /><path d="M 447.66816638302026,122.9595230332029 L 454.8062993193553,139.30165816700736 L 471.40935609582885,132.79344579912083 L 464.9011437279423,149.3965025755944 L 481.2432788617468,156.53463551192942 L 464.9011437279423,163.67276844826443 L 471.40935609582885,180.275825224738 L 454.8062993193553,173.76761285685149 L 447.66816638302026,190.10974799065593 L 440.53003344668525,173.76761285685149 L 423.9269766702117,180.275825224738 L 430.4351890380982,163.67276844826443 L 414.09305390429375,156.53463551192942 L 430.4351890380982,149.3965025755944 L 423.9269766702117,132.79344579912083 L 440.53003344668525,139.30165816700736 Z" fill="none" stroke="#0F52BA" stroke-width="2.5434841523149445" /><path d="M 522.279527446857,122.9595230332029 L 529.417660383192,139.30165816700736 L 546.0207171596655,132.79344579912083 L 539.5125047917791,149.3965025755944 L 555.8546399255835,156.53463551192942 L 539.5125047917791,163.67276844826443 L 546.0207171596655,180.275825224738 L 529.417660383192,173.76761285685149 L 522.279527446857,190.10974799065593 L 515.141394510522,173.76761285685149 L 498.53833773404835,180.275825224738 L 505.0465501019349,163.67276844826443 L 488.70441496813044,156.53463551192942 L 505.0465501019349,149.3965025755944 L 498.53833773404835,132.79344579912083 L 515.1413945105219,139.30165816700736 Z" fill="none" stroke="#0F52BA" stroke-width="2.5434841523149445" /><path d="M -37.305680531918355,187.57296171448547 L -30.167547595583343,203.91509684828992 L -13.564490819109757,197.4068844804034 L -20.072703186996286,214.00994125687697 L -3.7305680531918313,221.14807419321198 L -20.072703186996286,228.286207129547 L -13.564490819109757,244.88926390602057 L -30.167547595583343,238.38105153813405 L -37.305680531918355,254.7231866719385 L -44.44381346825337,238.38105153813405 L -61.04687024472695,244.88926390602057 L -54.53865787684042,228.286207129547 L -70.88079301064488,221.14807419321198 L -54.538657876840425,214.00994125687697 L -61.04687024472696,197.4068844804034 L -44.44381346825338,203.91509684828992 Z" fill="none" stroke="#0F52BA" stroke-width="2.5434841523149445" /><path d="M 37.305680531918355,187.57296171448547 L 44.44381346825337,203.91509684828992 L 61.046870244726954,197.4068844804034 L 54.538657876840425,214.00994125687697 L 70.88079301064488,221.14807419321198 L 54.538657876840425,228.286207129547 L 61.046870244726954,244.88926390602057 L 44.44381346825337,238.38105153813405 L 37.305680531918355,254.7231866719385 L 30.167547595583343,238.38105153813405 L 13.56449081910976,244.88926390602057 L 20.07270318699629,228.286207129547 L 3.7305680531918313,221.14807419321198 L 20.072703186996286,214.00994125687697 L 13.564490819109754,197.4068844804034 L 30.167547595583333,203.91509684828992 Z" fill="none" stroke="#0F52BA" stroke-width="2.5434841523149445" /><path d="M 111.91704159575507,187.57296171448547 L 119.05517453209008,203.91509684828992 L 135.65823130856367,197.4068844804034 L 129.15001894067714,214.00994125687697 L 145.4921540744816,221.14807419321198 L 129.15001894067714,228.286207129547 L 135.65823130856367,244.88926390602057 L 119.05517453209008,238.38105153813405 L 111.91704159575507,254.7231866719385 L 104.77890865942005,238.38105153813405 L 88.17585188294647,244.88926390602057 L 94.684064250833,228.286207129547 L 78.34192911702854,221.14807419321198 L 94.68406425083299,214.00994125687697 L 88.17585188294646,197.4068844804034 L 104.77890865942004,203.91509684828992 Z" fill="none" stroke="#0F52BA" stroke-width="2.5434841523149445" /><path d="M 186.5284026595918,187.57296171448547 L 193.6665355959268,203.91509684828992 L 210.26959237240038,197.4068844804034 L 203.76138000451385,214.00994125687697 L 220.1035151383183,221.14807419321198 L 203.76138000451385,228.286207129547 L 210.26959237240038,244.88926390602057 L 193.6665355959268,238.38105153813405 L 186.5284026595918,254.7231866719385 L 179.39026972325678,238.38105153813405 L 162.7872129467832,244.88926390602057 L 169.29542531466973,228.286207129547 L 152.95329018086528,221.14807419321198 L 169.29542531466973,214.00994125687697 L 162.7872129467832,197.4068844804034 L 179.39026972325678,203.91509684828992 Z" fill="none" stroke="#0F52BA" stroke-width="2.5434841523149445" /><path d="M 261.1397637234285,187.57296171448547 L 268.2778966597635,203.91509684828992 L 284.88095343623706,197.4068844804034 L 278.37274106835054,214.00994125687697 L 294.714876202155,221.14807419321198 L 278.37274106835054,228.286207129547 L 284.88095343623706,244.88926390602057 L 268.2778966597635,238.38105153813405 L 261.1397637234285,254.7231866719385 L 254.00163078709346,238.38105153813405 L 237.39857401061988,244.88926390602057 L 243.9067863785064,228.286207129547 L 227.56465124470196,221.14807419321198 L 243.9067863785064,214.00994125687697 L 237.39857401061988,197.4068844804034 L 254.00163078709346,203.91509684828992 Z" fill="none" stroke="#0F52BA" stroke-width="2.5434841523149445" /><path d="M 335.7511247872652,187.57296171448547 L 342.8892577236002,203.91509684828992 L 359.4923145000738,197.4068844804034 L 352.9841021321873,214.00994125687697 L 369.3262372659917,221.14807419321198 L 352.9841021321873,228.286207129547 L 359.4923145000738,244.88926390602057 L 342.8892577236002,238.38105153813405 L 335.7511247872652,254.7231866719385 L 328.6129918509302,238.38105153813405 L 312.0099350744566,244.88926390602057 L 318.51814744234315,228.286207129547 L 302.1760123085387,221.14807419321198 L 318.51814744234315,214.00994125687697 L 312.0099350744566,197.4068844804034 L 328.6129918509302,203.91509684828992 Z" fill="none" stroke="#0F52BA" stroke-width="2.5434841523149445" /><path d="M 410.3624858511019,187.57296171448547 L 417.5006187874369,203.91509684828992 L 434.1036755639105,197.4068844804034 L 427.59546319602396,214.00994125687697 L 443.9375983298284,221.14807419321198 L 427.59546319602396,228.286207129547 L 434.1036755639105,244.88926390602057 L 417.5006187874369,238.38105153813405 L 410.3624858511019,254.7231866719385 L 403.2243529147669,238.38105153813405 L 386.6212961382933,244.88926390602057 L 393.12950850617983,228.286207129547 L 376.7873733723754,221.14807419321198 L 393.12950850617983,214.00994125687697 L 386.6212961382933,197.4068844804034 L 403.2243529147669,203.91509684828992 Z" fill="none" stroke="#0F52BA" stroke-width="2.5434841523149445" /><path d="M 484.9738469149386,187.57296171448547 L 492.1119798512736,203.91509684828992 L 508.71503662774717,197.4068844804034 L 502.20682425986064,214.00994125687697 L 518.5489593936651,221.14807419321198 L 502.20682425986064,228.286207129547 L 508.71503662774717,244.88926390602057 L 492.1119798512736,238.38105153813405 L 484.9738469149386,254.7231866719385 L 477.83571397860356,238.38105153813405 L 461.23265720213,244.88926390602057 L 467.7408695700165,228.286207129547 L 451.39873443621207,221.14807419321198 L 467.7408695700165,214.00994125687697 L 461.23265720213,197.4068844804034 L 477.83571397860356,203.91509684828992 Z" fill="none" stroke="#0F52BA" stroke-width="2.5434841523149445" /><path d="M 559.5852079787753,187.57296171448547 L 566.7233409151104,203.91509684828992 L 583.3263976915839,197.4068844804034 L 576.8181853236974,214.00994125687697 L 593.1603204575018,221.14807419321198 L 576.8181853236974,228.286207129547 L 583.3263976915839,244.88926390602057 L 566.7233409151104,238.38105153813405 L 559.5852079787753,254.7231866719385 L 552.4470750424404,238.38105153813405 L 535.8440182659667,244.88926390602057 L 542.3522306338532,228.286207129547 L 526.0100955000488,221.14807419321198 L 542.3522306338532,214.00994125687697 L 535.8440182659667,197.4068844804034 L 552.4470750424402,203.91509684828992 Z" fill="none" stroke="#0F52BA" stroke-width="2.5434841523149445" /><path d="M 2.0558827014042396e-15,252.1864003957681 L 7.138132936335014,268.52853552957254 L 23.7411897128086,262.020323161686 L 17.23297734492207,278.6233799381596 L 33.575112478726524,285.7615128744946 L 17.23297734492207,292.8996458108296 L 23.7411897128086,309.5027025873032 L 7.138132936335014,302.99449021941666 L 2.0558827014042396e-15,319.3366253532211 L -7.138132936335011,302.99449021941666 L -23.741189712808595,309.5027025873032 L -17.232977344922066,292.8996458108296 L -33.575112478726524,285.7615128744946 L -17.23297734492207,278.6233799381596 L -23.741189712808602,262.020323161686 L -7.1381329363350225,268.52853552957254 Z" fill="none" stroke="#0F52BA" stroke-width="2.5434841523149445" /><path d="M 74.61136106383671,252.1864003957681 L 81.74949400017172,268.52853552957254 L 98.3525507766453,262.020323161686 L 91.84433840875877,278.6233799381596 L 108.18647354256323,285.7615128744946 L 91.84433840875877,292.8996458108296 L 98.3525507766453,309.5027025873032 L 81.74949400017172,302.99449021941666 L 74.61136106383671,319.3366253532211 L 67.4732281275017,302.99449021941666 L 50.87017135102812,309.5027025873032 L 57.37838371891465,292.8996458108296 L 41.03624858511019,285.7615128744946 L 57.37838371891464,278.6233799381596 L 50.870171351028105,262.020323161686 L 67.47322812750168,268.52853552957254 Z" fill="none" stroke="#0F52BA" stroke-width="2.5434841523149445" /><path d="M 149.22272212767342,252.1864003957681 L 156.36085506400843,268.52853552957254 L 172.963911840482,262.020323161686 L 166.45569947259548,278.6233799381596 L 182.79783460639993,285.7615128744946 L 166.45569947259548,292.8996458108296 L 172.963911840482,309.5027025873032 L 156.36085506400843,302.99449021941666 L 149.22272212767342,319.3366253532211 L 142.0845891913384,302.99449021941666 L 125.48153241486483,309.5027025873032 L 131.98974478275136,292.8996458108296 L 115.6476096489469,285.7615128744946 L 131.98974478275136,278.6233799381596 L 125.48153241486482,262.020323161686 L 142.0845891913384,268.52853552957254 Z" fill="none" stroke="#0F52BA" stroke-width="2.5434841523149445" /><path d="M 223.83408319151016,252.1864003957681 L 230.97221612784517,268.52853552957254 L 247.57527290431875,262.020323161686 L 241.06706053643222,278.6233799381596 L 257.40919567023667,285.7615128744946 L 241.06706053643222,292.8996458108296 L 247.57527290431875,309.5027025873032 L 230.97221612784517,302.99449021941666 L 223.83408319151016,319.3366253532211 L 216.69595025517515,302.99449021941666 L 200.09289347870157,309.5027025873032 L 206.6011058465881,292.8996458108296 L 190.25897071278365,285.7615128744946 L 206.6011058465881,278.6233799381596 L 200.09289347870157,262.020323161686 L 216.69595025517515,268.52853552957254 Z" fill="none" stroke="#0F52BA" stroke-width="2.5434841523149445" /><path d="M 298.44544425534684,252.1864003957681 L 305.58357719168185,268.52853552957254 L 322.18663396815543,262.020323161686 L 315.6784216002689,278.6233799381596 L 332.02055673407335,285.7615128744946 L 315.6784216002689,292.8996458108296 L 322.18663396815543,309.5027025873032 L 305.58357719168185,302.99449021941666 L 298.44544425534684,319.3366253532211 L 291.30731131901183,302.99449021941666 L 274.70425454253825,309.5027025873032 L 281.2124669104248,292.8996458108296 L 264.87033177662033,285.7615128744946 L 281.2124669104248,278.6233799381596 L 274.70425454253825,262.020323161686 L 291.30731131901183,268.52853552957254 Z" fill="none" stroke="#0F52BA" stroke-width="2.5434841523149445" /><path d="M 373.0568053191836,252.1864003957681 L 380.1949382555186,268.52853552957254 L 396.7979950319922,262.020323161686 L 390.28978266410564,278.6233799381596 L 406.6319177979101,285.7615128744946 L 390.28978266410564,292.8996458108296 L 396.7979950319922,309.5027025873032 L 380.1949382555186,302.99449021941666 L 373.0568053191836,319.3366253532211 L 365.91867238284857,302.99449021941666 L 349.315615606375,309.5027025873032 L 355.8238279742615,292.8996458108296 L 339.4816928404571,285.7615128744946 L 355.8238279742615,278.6233799381596 L 349.315615606375,262.020323161686 L 365.91867238284857,268.52853552957254 Z" fill="none" stroke="#0F52BA" stroke-width="2.5434841523149445" /><path d="M 447.66816638302026,252.1864003957681 L 454.8062993193553,268.52853552957254 L 471.40935609582885,262.020323161686 L 464.9011437279423,278.6233799381596 L 481.2432788617468,285.7615128744946 L 464.9011437279423,292.8996458108296 L 471.40935609582885,309.5027025873032 L 454.8062993193553,302.99449021941666 L 447.66816638302026,319.3366253532211 L 440.53003344668525,302.99449021941666 L 423.9269766702117,309.5027025873032 L 430.4351890380982,292.8996458108296 L 414.09305390429375,285.7615128744946 L 430.4351890380982,278.6233799381596 L 423.9269766702117,262.020323161686 L 440.53003344668525,268.52853552957254 Z" fill="none" stroke="#0F52BA" stroke-width="2.5434841523149445" /><path d="M 522.279527446857,252.1864003957681 L 529.417660383192,268.52853552957254 L 546.0207171596655,262.020323161686 L 539.5125047917791,278.6233799381596 L 555.8546399255835,285.7615128744946 L 539.5125047917791,292.8996458108296 L 546.0207171596655,309.5027025873032 L 529.417660383192,302.99449021941666 L 522.279527446857,319.3366253532211 L 515.141394510522,302.99449021941666 L 498.53833773404835,309.5027025873032 L 505.0465501019349,292.8996458108296 L 488.70441496813044,285.7615128744946 L 505.0465501019349,278.6233799381596 L 498.53833773404835,262.020323161686 L 515.1413945105219,268.52853552957254 Z" fill="none" stroke="#0F52BA" stroke-width="2.5434841523149445" /><path d="M -37.305680531918355,316.79983907705065 L -30.167547595583343,333.1419742108551 L -13.564490819109757,326.63376184296857 L -20.072703186996286,343.23681861944215 L -3.7305680531918313,350.37495155577716 L -20.072703186996286,357.51308449211217 L -13.564490819109757,374.11614126858575 L -30.167547595583343,367.6079289006992 L -37.305680531918355,383.95006403450367 L -44.44381346825337,367.6079289006992 L -61.04687024472695,374.11614126858575 L -54.53865787684042,357.51308449211217 L -70.88079301064488,350.37495155577716 L -54.538657876840425,343.23681861944215 L -61.04687024472696,326.63376184296857 L -44.44381346825338,333.1419742108551 Z" fill="none" stroke="#0F52BA" stroke-width="2.5434841523149445" /><path d="M 37.305680531918355,316.79983907705065 L 44.44381346825337,333.1419742108551 L 61.046870244726954,326.63376184296857 L 54.538657876840425,343.23681861944215 L 70.88079301064488,350.37495155577716 L 54.538657876840425,357.51308449211217 L 61.046870244726954,374.11614126858575 L 44.44381346825337,367.6079289006992 L 37.305680531918355,383.95006403450367 L 30.167547595583343,367.6079289006992 L 13.56449081910976,374.11614126858575 L 20.07270318699629,357.51308449211217 L 3.7305680531918313,350.37495155577716 L 20.072703186996286,343.23681861944215 L 13.564490819109754,326.63376184296857 L 30.167547595583333,333.1419742108551 Z" fill="none" stroke="#0F52BA" stroke-width="2.5434841523149445" /><path d="M 111.91704159575507,316.79983907705065 L 119.05517453209008,333.1419742108551 L 135.65823130856367,326.63376184296857 L 129.15001894067714,343.23681861944215 L 145.4921540744816,350.37495155577716 L 129.15001894067714,357.51308449211217 L 135.65823130856367,374.11614126858575 L 119.05517453209008,367.6079289006992 L 111.91704159575507,383.95006403450367 L 104.77890865942005,367.6079289006992 L 88.17585188294647,374.11614126858575 L 94.684064250833,357.51308449211217 L 78.34192911702854,350.37495155577716 L 94.68406425083299,343.23681861944215 L 88.17585188294646,326.63376184296857 L 104.77890865942004,333.1419742108551 Z" fill="none" stroke="#0F52BA" stroke-width="2.5434841523149445" /><path d="M 186.5284026595918,316.79983907705065 L 193.6665355959268,333.1419742108551 L 210.26959237240038,326.63376184296857 L 203.76138000451385,343.23681861944215 L 220.1035151383183,350.37495155577716 L 203.76138000451385,357.51308449211217 L 210.26959237240038,374.11614126858575 L 193.6665355959268,367.6079289006992 L 186.5284026595918,383.95006403450367 L 179.39026972325678,367.6079289006992 L 162.7872129467832,374.11614126858575 L 169.29542531466973,357.51308449211217 L 152.95329018086528,350.37495155577716 L 169.29542531466973,343.23681861944215 L 162.7872129467832,326.63376184296857 L 179.39026972325678,333.1419742108551 Z" fill="none" stroke="#0F52BA" stroke-width="2.5434841523149445" /><path d="M 261.1397637234285,316.79983907705065 L 268.2778966597635,333.1419742108551 L 284.88095343623706,326.63376184296857 L 278.37274106835054,343.23681861944215 L 294.714876202155,350.37495155577716 L 278.37274106835054,357.51308449211217 L 284.88095343623706,374.11614126858575 L 268.2778966597635,367.6079289006992 L 261.1397637234285,383.95006403450367 L 254.00163078709346,367.6079289006992 L 237.39857401061988,374.11614126858575 L 243.9067863785064,357.51308449211217 L 227.56465124470196,350.37495155577716 L 243.9067863785064,343.23681861944215 L 237.39857401061988,326.63376184296857 L 254.00163078709346,333.1419742108551 Z" fill="none" stroke="#0F52BA" stroke-width="2.5434841523149445" /><path d="M 335.7511247872652,316.79983907705065 L 342.8892577236002,333.1419742108551 L 359.4923145000738,326.63376184296857 L 352.9841021321873,343.23681861944215 L 369.3262372659917,350.37495155577716 L 352.9841021321873,357.51308449211217 L 359.4923145000738,374.11614126858575 L 342.8892577236002,367.6079289006992 L 335.7511247872652,383.95006403450367 L 328.6129918509302,367.6079289006992 L 312.0099350744566,374.11614126858575 L 318.51814744234315,357.51308449211217 L 302.1760123085387,350.37495155577716 L 318.51814744234315,343.23681861944215 L 312.0099350744566,326.63376184296857 L 328.6129918509302,333.1419742108551 Z" fill="none" stroke="#0F52BA" stroke-width="2.5434841523149445" /><path d="M 410.3624858511019,316.79983907705065 L 417.5006187874369,333.1419742108551 L 434.1036755639105,326.63376184296857 L 427.59546319602396,343.23681861944215 L 443.9375983298284,350.37495155577716 L 427.59546319602396,357.51308449211217 L 434.1036755639105,374.11614126858575 L 417.5006187874369,367.6079289006992 L 410.3624858511019,383.95006403450367 L 403.2243529147669,367.6079289006992 L 386.6212961382933,374.11614126858575 L 393.12950850617983,357.51308449211217 L 376.7873733723754,350.37495155577716 L 393.12950850617983,343.23681861944215 L 386.6212961382933,326.63376184296857 L 403.2243529147669,333.1419742108551 Z" fill="none" stroke="#0F52BA" stroke-width="2.5434841523149445" /><path d="M 484.9738469149386,316.79983907705065 L 492.1119798512736,333.1419742108551 L 508.71503662774717,326.63376184296857 L 502.20682425986064,343.23681861944215 L 518.5489593936651,350.37495155577716 L 502.20682425986064,357.51308449211217 L 508.71503662774717,374.11614126858575 L 492.1119798512736,367.6079289006992 L 484.9738469149386,383.95006403450367 L 477.83571397860356,367.6079289006992 L 461.23265720213,374.11614126858575 L 467.7408695700165,357.51308449211217 L 451.39873443621207,350.37495155577716 L 467.7408695700165,343.23681861944215 L 461.23265720213,326.63376184296857 L 477.83571397860356,333.1419742108551 Z" fill="none" stroke="#0F52BA" stroke-width="2.5434841523149445" /><path d="M 559.5852079787753,316.79983907705065 L 566.7233409151104,333.1419742108551 L 583.3263976915839,326.63376184296857 L 576.8181853236974,343.23681861944215 L 593.1603204575018,350.37495155577716 L 576.8181853236974,357.51308449211217 L 583.3263976915839,374.11614126858575 L 566.7233409151104,367.6079289006992 L 559.5852079787753,383.95006403450367 L 552.4470750424404,367.6079289006992 L 535.8440182659667,374.11614126858575 L 542.3522306338532,357.51308449211217 L 526.0100955000488,350.37495155577716 L 542.3522306338532,343.23681861944215 L 535.8440182659667,326.63376184296857 L 552.4470750424402,333.1419742108551 Z" fill="none" stroke="#0F52BA" stroke-width="2.5434841523149445" /><path d="M 2.0558827014042396e-15,381.4132777583332 L 7.138132936335014,397.75541289213766 L 23.7411897128086,391.2472005242511 L 17.23297734492207,407.8502573007247 L 33.575112478726524,414.9883902370597 L 17.23297734492207,422.12652317339473 L 23.7411897128086,438.7295799498683 L 7.138132936335014,432.2213675819818 L 2.0558827014042396e-15,448.5635027157862 L -7.138132936335011,432.2213675819818 L -23.741189712808595,438.7295799498683 L -17.232977344922066,422.12652317339473 L -33.575112478726524,414.9883902370597 L -17.23297734492207,407.8502573007247 L -23.741189712808602,391.2472005242511 L -7.1381329363350225,397.75541289213766 Z" fill="none" stroke="#0F52BA" stroke-width="2.5434841523149445" /><path d="M 74.61136106383671,381.4132777583332 L 81.74949400017172,397.75541289213766 L 98.3525507766453,391.2472005242511 L 91.84433840875877,407.8502573007247 L 108.18647354256323,414.9883902370597 L 91.84433840875877,422.12652317339473 L 98.3525507766453,438.7295799498683 L 81.74949400017172,432.2213675819818 L 74.61136106383671,448.5635027157862 L 67.4732281275017,432.2213675819818 L 50.87017135102812,438.7295799498683 L 57.37838371891465,422.12652317339473 L 41.03624858511019,414.9883902370597 L 57.37838371891464,407.8502573007247 L 50.870171351028105,391.2472005242511 L 67.47322812750168,397.75541289213766 Z" fill="none" stroke="#0F52BA" stroke-width="2.5434841523149445" /><path d="M 149.22272212767342,381.4132777583332 L 156.36085506400843,397.75541289213766 L 172.963911840482,391.2472005242511 L 166.45569947259548,407.8502573007247 L 182.79783460639993,414.9883902370597 L 166.45569947259548,422.12652317339473 L 172.963911840482,438.7295799498683 L 156.36085506400843,432.2213675819818 L 149.22272212767342,448.5635027157862 L 142.0845891913384,432.2213675819818 L 125.48153241486483,438.7295799498683 L 131.98974478275136,422.12652317339473 L 115.6476096489469,414.9883902370597 L 131.98974478275136,407.8502573007247 L 125.48153241486482,391.2472005242511 L 142.0845891913384,397.75541289213766 Z" fill="none" stroke="#0F52BA" stroke-width="2.5434841523149445" /><path d="M 223.83408319151016,381.4132777583332 L 230.97221612784517,397.75541289213766 L 247.57527290431875,391.2472005242511 L 241.06706053643222,407.8502573007247 L 257.40919567023667,414.9883902370597 L 241.06706053643222,422.12652317339473 L 247.57527290431875,438.7295799498683 L 230.97221612784517,432.2213675819818 L 223.83408319151016,448.5635027157862 L 216.69595025517515,432.2213675819818 L 200.09289347870157,438.7295799498683 L 206.6011058465881,422.12652317339473 L 190.25897071278365,414.9883902370597 L 206.6011058465881,407.8502573007247 L 200.09289347870157,391.2472005242511 L 216.69595025517515,397.75541289213766 Z" fill="none" stroke="#0F52BA" stroke-width="2.5434841523149445" /><path d="M 298.44544425534684,381.4132777583332 L 305.58357719168185,397.75541289213766 L 322.18663396815543,391.2472005242511 L 315.6784216002689,407.8502573007247 L 332.02055673407335,414.9883902370597 L 315.6784216002689,422.12652317339473 L 322.18663396815543,438.7295799498683 L 305.58357719168185,432.2213675819818 L 298.44544425534684,448.5635027157862 L 291.30731131901183,432.2213675819818 L 274.70425454253825,438.7295799498683 L 281.2124669104248,422.12652317339473 L 264.87033177662033,414.9883902370597 L 281.2124669104248,407.8502573007247 L 274.70425454253825,391.2472005242511 L 291.30731131901183,397.75541289213766 Z" fill="none" stroke="#0F52BA" stroke-width="2.5434841523149445" /><path d="M 373.0568053191836,381.4132777583332 L 380.1949382555186,397.75541289213766 L 396.7979950319922,391.2472005242511 L 390.28978266410564,407.8502573007247 L 406.6319177979101,414.9883902370597 L 390.28978266410564,422.12652317339473 L 396.7979950319922,438.7295799498683 L 380.1949382555186,432.2213675819818 L 373.0568053191836,448.5635027157862 L 365.91867238284857,432.2213675819818 L 349.315615606375,438.7295799498683 L 355.8238279742615,422.12652317339473 L 339.4816928404571,414.9883902370597 L 355.8238279742615,407.8502573007247 L 349.315615606375,391.2472005242511 L 365.91867238284857,397.75541289213766 Z" fill="none" stroke="#0F52BA" stroke-width="2.5434841523149445" /><path d="M 447.66816638302026,381.4132777583332 L 454.8062993193553,397.75541289213766 L 471.40935609582885,391.2472005242511 L 464.9011437279423,407.8502573007247 L 481.2432788617468,414.9883902370597 L 464.9011437279423,422.12652317339473 L 471.40935609582885,438.7295799498683 L 454.8062993193553,432.2213675819818 L 447.66816638302026,448.5635027157862 L 440.53003344668525,432.2213675819818 L 423.9269766702117,438.7295799498683 L 430.4351890380982,422.12652317339473 L 414.09305390429375,414.9883902370597 L 430.4351890380982,407.8502573007247 L 423.9269766702117,391.2472005242511 L 440.53003344668525,397.75541289213766 Z" fill="none" stroke="#0F52BA" stroke-width="2.5434841523149445" /><path d="M 522.279527446857,381.4132777583332 L 529.417660383192,397.75541289213766 L 546.0207171596655,391.2472005242511 L 539.5125047917791,407.8502573007247 L 555.8546399255835,414.9883902370597 L 539.5125047917791,422.12652317339473 L 546.0207171596655,438.7295799498683 L 529.417660383192,432.2213675819818 L 522.279527446857,448.5635027157862 L 515.141394510522,432.2213675819818 L 498.53833773404835,438.7295799498683 L 505.0465501019349,422.12652317339473 L 488.70441496813044,414.9883902370597 L 505.0465501019349,407.8502573007247 L 498.53833773404835,391.2472005242511 L 515.1413945105219,397.75541289213766 Z" fill="none" stroke="#0F52BA" stroke-width="2.5434841523149445" /><path d="M -37.305680531918355,446.0267164396158 L -30.167547595583343,462.3688515734203 L -13.564490819109757,455.86063920553374 L -20.072703186996286,472.4636959820073 L -3.7305680531918313,479.60182891834233 L -20.072703186996286,486.73996185467735 L -13.564490819109757,503.3430186311509 L -30.167547595583343,496.8348062632644 L -37.305680531918355,513.1769413970688 L -44.44381346825337,496.8348062632644 L -61.04687024472695,503.3430186311509 L -54.53865787684042,486.73996185467735 L -70.88079301064488,479.60182891834233 L -54.538657876840425,472.4636959820073 L -61.04687024472696,455.86063920553374 L -44.44381346825338,462.3688515734203 Z" fill="none" stroke="#0F52BA" stroke-width="2.5434841523149445" /><path d="M 37.305680531918355,446.0267164396158 L 44.44381346825337,462.3688515734203 L 61.046870244726954,455.86063920553374 L 54.538657876840425,472.4636959820073 L 70.88079301064488,479.60182891834233 L 54.538657876840425,486.73996185467735 L 61.046870244726954,503.3430186311509 L 44.44381346825337,496.8348062632644 L 37.305680531918355,513.1769413970688 L 30.167547595583343,496.8348062632644 L 13.56449081910976,503.3430186311509 L 20.07270318699629,486.73996185467735 L 3.7305680531918313,479.60182891834233 L 20.072703186996286,472.4636959820073 L 13.564490819109754,455.86063920553374 L 30.167547595583333,462.3688515734203 Z" fill="none" stroke="#0F52BA" stroke-width="2.5434841523149445" /><path d="M 111.91704159575507,446.0267164396158 L 119.05517453209008,462.3688515734203 L 135.65823130856367,455.86063920553374 L 129.15001894067714,472.4636959820073 L 145.4921540744816,479.60182891834233 L 129.15001894067714,486.73996185467735 L 135.65823130856367,503.3430186311509 L 119.05517453209008,496.8348062632644 L 111.91704159575507,513.1769413970688 L 104.77890865942005,496.8348062632644 L 88.17585188294647,503.3430186311509 L 94.684064250833,486.73996185467735 L 78.34192911702854,479.60182891834233 L 94.68406425083299,472.4636959820073 L 88.17585188294646,455.86063920553374 L 104.77890865942004,462.3688515734203 Z" fill="none" stroke="#0F52BA" stroke-width="2.5434841523149445" /><path d="M 186.5284026595918,446.0267164396158 L 193.6665355959268,462.3688515734203 L 210.26959237240038,455.86063920553374 L 203.76138000451385,472.4636959820073 L 220.1035151383183,479.60182891834233 L 203.76138000451385,486.73996185467735 L 210.26959237240038,503.3430186311509 L 193.6665355959268,496.8348062632644 L 186.5284026595918,513.1769413970688 L 179.39026972325678,496.8348062632644 L 162.7872129467832,503.3430186311509 L 169.29542531466973,486.73996185467735 L 152.95329018086528,479.60182891834233 L 169.29542531466973,472.4636959820073 L 162.7872129467832,455.86063920553374 L 179.39026972325678,462.3688515734203 Z" fill="none" stroke="#0F52BA" stroke-width="2.5434841523149445" /><path d="M 261.1397637234285,446.0267164396158 L 268.2778966597635,462.3688515734203 L 284.88095343623706,455.86063920553374 L 278.37274106835054,472.4636959820073 L 294.714876202155,479.60182891834233 L 278.37274106835054,486.73996185467735 L 284.88095343623706,503.3430186311509 L 268.2778966597635,496.8348062632644 L 261.1397637234285,513.1769413970688 L 254.00163078709346,496.8348062632644 L 237.39857401061988,503.3430186311509 L 243.9067863785064,486.73996185467735 L 227.56465124470196,479.60182891834233 L 243.9067863785064,472.4636959820073 L 237.39857401061988,455.86063920553374 L 254.00163078709346,462.3688515734203 Z" fill="none" stroke="#0F52BA" stroke-width="2.5434841523149445" /><path d="M 335.7511247872652,446.0267164396158 L 342.8892577236002,462.3688515734203 L 359.4923145000738,455.86063920553374 L 352.9841021321873,472.4636959820073 L 369.3262372659917,479.60182891834233 L 352.9841021321873,486.73996185467735 L 359.4923145000738,503.3430186311509 L 342.8892577236002,496.8348062632644 L 335.7511247872652,513.1769413970688 L 328.6129918509302,496.8348062632644 L 312.0099350744566,503.3430186311509 L 318.51814744234315,486.73996185467735 L 302.1760123085387,479.60182891834233 L 318.51814744234315,472.4636959820073 L 312.0099350744566,455.86063920553374 L 328.6129918509302,462.3688515734203 Z" fill="none" stroke="#0F52BA" stroke-width="2.5434841523149445" /><path d="M 410.3624858511019,446.0267164396158 L 417.5006187874369,462.3688515734203 L 434.1036755639105,455.86063920553374 L 427.59546319602396,472.4636959820073 L 443.9375983298284,479.60182891834233 L 427.59546319602396,486.73996185467735 L 434.1036755639105,503.3430186311509 L 417.5006187874369,496.8348062632644 L 410.3624858511019,513.1769413970688 L 403.2243529147669,496.8348062632644 L 386.6212961382933,503.3430186311509 L 393.12950850617983,486.73996185467735 L 376.7873733723754,479.60182891834233 L 393.12950850617983,472.4636959820073 L 386.6212961382933,455.86063920553374 L 403.2243529147669,462.3688515734203 Z" fill="none" stroke="#0F52BA" stroke-width="2.5434841523149445" /><path d="M 484.9738469149386,446.0267164396158 L 492.1119798512736,462.3688515734203 L 508.71503662774717,455.86063920553374 L 502.20682425986064,472.4636959820073 L 518.5489593936651,479.60182891834233 L 502.20682425986064,486.73996185467735 L 508.71503662774717,503.3430186311509 L 492.1119798512736,496.8348062632644 L 484.9738469149386,513.1769413970688 L 477.83571397860356,496.8348062632644 L 461.23265720213,503.3430186311509 L 467.7408695700165,486.73996185467735 L 451.39873443621207,479.60182891834233 L 467.7408695700165,472.4636959820073 L 461.23265720213,455.86063920553374 L 477.83571397860356,462.3688515734203 Z" fill="none" stroke="#0F52BA" stroke-width="2.5434841523149445" /><path d="M 559.5852079787753,446.0267164396158 L 566.7233409151104,462.3688515734203 L 583.3263976915839,455.86063920553374 L 576.8181853236974,472.4636959820073 L 593.1603204575018,479.60182891834233 L 576.8181853236974,486.73996185467735 L 583.3263976915839,503.3430186311509 L 566.7233409151104,496.8348062632644 L 559.5852079787753,513.1769413970688 L 552.4470750424404,496.8348062632644 L 535.8440182659667,503.3430186311509 L 542.3522306338532,486.73996185467735 L 526.0100955000488,479.60182891834233 L 542.3522306338532,472.4636959820073 L 535.8440182659667,455.86063920553374 L 552.4470750424402,462.3688515734203 Z" fill="none" stroke="#0F52BA" stroke-width="2.5434841523149445" /><line x1="33.575112478726524" y1="27.307758149364233" x2="41.03624858511019" y2="27.307758149364233" stroke="#0F52BA" stroke-width="0.5"/><line x1="108.18647354256323" y1="27.307758149364233" x2="115.6476096489469" y2="27.307758149364233" stroke="#0F52BA" stroke-width="0.5"/><line x1="182.79783460639993" y1="27.307758149364233" x2="190.25897071278365" y2="27.307758149364233" stroke="#0F52BA" stroke-width="0.5"/><line x1="257.40919567023667" y1="27.307758149364233" x2="264.87033177662033" y2="27.307758149364233" stroke="#0F52BA" stroke-width="0.5"/><line x1="332.02055673407335" y1="27.307758149364233" x2="339.4816928404571" y2="27.307758149364233" stroke="#0F52BA" stroke-width="0.5"/><line x1="406.6319177979101" y1="27.307758149364233" x2="414.09305390429375" y2="27.307758149364233" stroke="#0F52BA" stroke-width="0.5"/><line x1="481.2432788617468" y1="27.307758149364233" x2="488.70441496813044" y2="27.307758149364233" stroke="#0F52BA" stroke-width="0.5"/><line x1="70.88079301064488" y1="91.92119683064682" x2="78.34192911702854" y2="91.92119683064682" stroke="#0F52BA" stroke-width="0.5"/><line x1="145.4921540744816" y1="91.92119683064682" x2="152.95329018086528" y2="91.92119683064682" stroke="#0F52BA" stroke-width="0.5"/><line x1="220.1035151383183" y1="91.92119683064682" x2="227.56465124470196" y2="91.92119683064682" stroke="#0F52BA" stroke-width="0.5"/><line x1="294.714876202155" y1="91.92119683064682" x2="302.1760123085387" y2="91.92119683064682" stroke="#0F52BA" stroke-width="0.5"/><line x1="369.3262372659917" y1="91.92119683064682" x2="376.7873733723754" y2="91.92119683064682" stroke="#0F52BA" stroke-width="0.5"/><line x1="443.9375983298284" y1="91.92119683064682" x2="451.39873443621207" y2="91.92119683064682" stroke="#0F52BA" stroke-width="0.5"/><line x1="33.575112478726524" y1="156.53463551192942" x2="41.03624858511019" y2="156.53463551192942" stroke="#0F52BA" stroke-width="0.5"/><line x1="108.18647354256323" y1="156.53463551192942" x2="115.6476096489469" y2="156.53463551192942" stroke="#0F52BA" stroke-width="0.5"/><line x1="182.79783460639993" y1="156.53463551192942" x2="190.25897071278365" y2="156.53463551192942" stroke="#0F52BA" stroke-width="0.5"/><line x1="257.40919567023667" y1="156.53463551192942" x2="264.87033177662033" y2="156.53463551192942" stroke="#0F52BA" stroke-width="0.5"/><line x1="332.02055673407335" y1="156.53463551192942" x2="339.4816928404571" y2="156.53463551192942" stroke="#0F52BA" stroke-width="0.5"/><line x1="406.6319177979101" y1="156.53463551192942" x2="414.09305390429375" y2="156.53463551192942" stroke="#0F52BA" stroke-width="0.5"/><line x1="481.2432788617468" y1="156.53463551192942" x2="488.70441496813044" y2="156.53463551192942" stroke="#0F52BA" stroke-width="0.5"/><line x1="70.88079301064488" y1="221.14807419321198" x2="78.34192911702854" y2="221.14807419321198" stroke="#0F52BA" stroke-width="0.5"/><line x1="145.4921540744816" y1="221.14807419321198" x2="152.95329018086528" y2="221.14807419321198" stroke="#0F52BA" stroke-width="0.5"/><line x1="220.1035151383183" y1="221.14807419321198" x2="227.56465124470196" y2="221.14807419321198" stroke="#0F52BA" stroke-width="0.5"/><line x1="294.714876202155" y1="221.14807419321198" x2="302.1760123085387" y2="221.14807419321198" stroke="#0F52BA" stroke-width="0.5"/><line x1="369.3262372659917" y1="221.14807419321198" x2="376.7873733723754" y2="221.14807419321198" stroke="#0F52BA" stroke-width="0.5"/><line x1="443.9375983298284" y1="221.14807419321198" x2="451.39873443621207" y2="221.14807419321198" stroke="#0F52BA" stroke-width="0.5"/><line x1="33.575112478726524" y1="285.7615128744946" x2="41.03624858511019" y2="285.7615128744946" stroke="#0F52BA" stroke-width="0.5"/><line x1="108.18647354256323" y1="285.7615128744946" x2="115.6476096489469" y2="285.7615128744946" stroke="#0F52BA" stroke-width="0.5"/><line x1="182.79783460639993" y1="285.7615128744946" x2="190.25897071278365" y2="285.7615128744946" stroke="#0F52BA" stroke-width="0.5"/><line x1="257.40919567023667" y1="285.7615128744946" x2="264.87033177662033" y2="285.7615128744946" stroke="#0F52BA" stroke-width="0.5"/><line x1="332.02055673407335" y1="285.7615128744946" x2="339.4816928404571" y2="285.7615128744946" stroke="#0F52BA" stroke-width="0.5"/><line x1="406.6319177979101" y1="285.7615128744946" x2="414.09305390429375" y2="285.7615128744946" stroke="#0F52BA" stroke-width="0.5"/><line x1="481.2432788617468" y1="285.7615128744946" x2="488.70441496813044" y2="285.7615128744946" stroke="#0F52BA" stroke-width="0.5"/><line x1="70.88079301064488" y1="350.37495155577716" x2="78.34192911702854" y2="350.37495155577716" stroke="#0F52BA" stroke-width="0.5"/><line x1="145.4921540744816" y1="350.37495155577716" x2="152.95329018086528" y2="350.37495155577716" stroke="#0F52BA" stroke-width="0.5"/><line x1="220.1035151383183" y1="350.37495155577716" x2="227.56465124470196" y2="350.37495155577716" stroke="#0F52BA" stroke-width="0.5"/><line x1="294.714876202155" y1="350.37495155577716" x2="302.1760123085387" y2="350.37495155577716" stroke="#0F52BA" stroke-width="0.5"/><line x1="369.3262372659917" y1="350.37495155577716" x2="376.7873733723754" y2="350.37495155577716" stroke="#0F52BA" stroke-width="0.5"/><line x1="443.9375983298284" y1="350.37495155577716" x2="451.39873443621207" y2="350.37495155577716" stroke="#0F52BA" stroke-width="0.5"/><line x1="33.575112478726524" y1="414.9883902370597" x2="41.03624858511019" y2="414.9883902370597" stroke="#0F52BA" stroke-width="0.5"/><line x1="108.18647354256323" y1="414.9883902370597" x2="115.6476096489469" y2="414.9883902370597" stroke="#0F52BA" stroke-width="0.5"/><line x1="182.79783460639993" y1="414.9883902370597" x2="190.25897071278365" y2="414.9883902370597" stroke="#0F52BA" stroke-width="0.5"/><line x1="257.40919567023667" y1="414.9883902370597" x2="264.87033177662033" y2="414.9883902370597" stroke="#0F52BA" stroke-width="0.5"/><line x1="332.02055673407335" y1="414.9883902370597" x2="339.4816928404571" y2="414.9883902370597" stroke="#0F52BA" stroke-width="0.5"/><line x1="406.6319177979101" y1="414.9883902370597" x2="414.09305390429375" y2="414.9883902370597" stroke="#0F52BA" stroke-width="0.5"/><line x1="481.2432788617468" y1="414.9883902370597" x2="488.70441496813044" y2="414.9883902370597" stroke="#0F52BA" stroke-width="0.5"/><line x1="70.88079301064488" y1="479.60182891834233" x2="78.34192911702854" y2="479.60182891834233" stroke="#0F52BA" stroke-width="0.5"/><line x1="145.4921540744816" y1="479.60182891834233" x2="152.95329018086528" y2="479.60182891834233" stroke="#0F52BA" stroke-width="0.5"/><line x1="220.1035151383183" y1="479.60182891834233" x2="227.56465124470196" y2="479.60182891834233" stroke="#0F52BA" stroke-width="0.5"/><line x1="294.714876202155" y1="479.60182891834233" x2="302.1760123085387" y2="479.60182891834233" stroke="#0F52BA" stroke-width="0.5"/><line x1="369.3262372659917" y1="479.60182891834233" x2="376.7873733723754" y2="479.60182891834233" stroke="#0F52BA" stroke-width="0.5"/><line x1="443.9375983298284" y1="479.60182891834233" x2="451.39873443621207" y2="479.60182891834233" stroke="#0F52BA" stroke-width="0.5"/></g></svg>