<svg xmlns="http://www.w3.org/2000/svg" width="512" height="512" viewBox="0 0 512 512"><rect x="0" y="0" width="512" height="512" fill="#000000"/><g opacity="0.16843364095242397"><path d="M -29.97569238772615,-56.953815536679684 L -24.240091962498582,-43.82265672266343 L -10.899278565415326,-49.05210621003697 L -16.128728052788865,-35.711292812953715 L -2.9975692387726127,-29.97569238772615 L -16.128728052788865,-24.240091962498582 L -10.899278565415326,-10.89927856541533 L -24.240091962498582,-16.128728052788865 L -29.97569238772615,-2.9975692387726127 L -35.711292812953715,-16.128728052788865 L -49.05210621003697,-10.899278565415326 L -43.82265672266343,-24.240091962498575 L -56.953815536679684,-29.975692387726145 L -43.82265672266343,-35.71129281295372 L -49.052106210036975,-49.05210621003697 L -35.71129281295372,-43.82265672266343 Z" fill="none" stroke="#FFFFFF" stroke-width="1.3698257807967373" /><path d="M 29.97569238772615,-56.953815536679684 L 35.711292812953715,-43.82265672266343 L 49.05210621003697,-49.05210621003697 L 43.82265672266343,-35.711292812953715 L 56.953815536679684,-29.97569238772615 L 43.82265672266343,-24.240091962498582 L 49.05210621003697,-10.89927856541533 L 35.711292812953715,-16.128728052788865 L 29.97569238772615,-2.9975692387726127 L 24.240091962498582,-16.128728052788865 L 10.89927856541533,-10.899278565415326 L 16.128728052788865,-24.240091962498575 L 2.9975692387726127,-29.975692387726145 L 16.128728052788865,-35.71129281295372 L 10.899278565415322,-49.05210621003697 L 24.24009196249857,-43.82265672266343 Z" fill="none" stroke="#FFFFFF" stroke-width="1.3698257807967373" /><path d="M 89.92707716317844,-56.953815536679684 L 95.66267758840601,-43.82265672266343 L 109.00349098548926,-49.05210621003697 L 103.77404149811572,-35.711292812953715 L 116.90520031213197,-29.97569238772615 L 103.77404149811572,-24.240091962498582 L 109.00349098548926,-10.89927856541533 L 95.66267758840601,-16.128728052788865 L 89.92707716317844,-2.9975692387726127 L 84.19147673795086,-16.128728052788865 L 70.85066334086761,-10.899278565415326 L 76.08011282824116,-24.240091962498575 L 62.9489540142249,-29.975692387726145 L 76.08011282824116,-35.71129281295372 L 70.85066334086761,-49.05210621003697 L 84.19147673795086,-43.82265672266343 Z" fill="none" stroke="#FFFFFF" stroke-width="1.3698257807967373" /><path d="M 149.87846193863072,-56.953815536679684 L 155.6140623638583,-43.82265672266343 L 168.95487576094155,-49.05210621003697 L 163.72542627356802,-35.711292812953715 L 176.85658508758425,-29.97569238772615 L 163.72542627356802,-24.240091962498582 L 168.95487576094155,-10.89927856541533 L 155.6140623638583,-16.128728052788865 L 149.87846193863072,-2.9975692387726127 L 144.14286151340315,-16.128728052788865 L 130.8020481163199,-10.899278565415326 L 136.03149760369345,-24.240091962498575 L 122.90033878967719,-29.975692387726145 L 136.03149760369342,-35.71129281295372 L 130.8020481163199,-49.05210621003697 L 144.14286151340315,-43.82265672266343 Z" fill="none" stroke="#FFFFFF" stroke-width="1.3698257807967373" /><path d="M 209.82984671408303,-56.953815536679684 L 215.5654471393106,-43.82265672266343 L 228.90626053639386,-49.05210621003697 L 223.67681104902033,-35.711292812953715 L 236.80796986303656,-29.97569238772615 L 223.67681104902033,-24.240091962498582 L 228.90626053639386,-10.89927856541533 L 215.5654471393106,-16.128728052788865 L 209.82984671408303,-2.9975692387726127 L 204.09424628885546,-16.128728052788865 L 190.7534328917722,-10.899278565415326 L 195.98288237914576,-24.240091962498575 L 182.8517235651295,-29.975692387726145 L 195.98288237914574,-35.71129281295372 L 190.7534328917722,-49.05210621003697 L 204.09424628885546,-43.82265672266343 Z" fill="none" stroke="#FFFFFF" stroke-width="1.3698257807967373" /><path d="M 269.78123148953534,-56.953815536679684 L 275.5168319147629,-43.82265672266343 L 288.85764531184617,-49.05210621003697 L 283.62819582447264,-35.711292812953715 L 296.7593546384889,-29.97569238772615 L 283.62819582447264,-24.240091962498582 L 288.85764531184617,-10.89927856541533 L 275.5168319147629,-16.128728052788865 L 269.78123148953534,-2.9975692387726127 L 264.04563106430777,-16.128728052788865 L 250.70481766722452,-10.899278565415326 L 255.93426715459807,-24.240091962498575 L 242.80310834058182,-29.975692387726145 L 255.93426715459805,-35.71129281295372 L 250.70481766722452,-49.05210621003697 L 264.04563106430777,-43.82265672266343 Z" fill="none" stroke="#FFFFFF" stroke-width="1.3698257807967373" /><path d="M 329.7326162649876,-56.953815536679684 L 335.4682166902152,-43.82265672266343 L 348.8090300872984,-49.05210621003697 L 343.5795805999249,-35.711292812953715 L 356.71073941394116,-29.97569238772615 L 343.5795805999249,-24.240091962498582 L 348.8090300872984,-10.89927856541533 L 335.4682166902152,-16.128728052788865 L 329.7326162649876,-2.9975692387726127 L 323.99701583976,-16.128728052788865 L 310.6562024426768,-10.899278565415326 L 315.8856519300503,-24.240091962498575 L 302.75449311603404,-29.975692387726145 L 315.8856519300503,-35.71129281295372 L 310.6562024426768,-49.05210621003697 L 323.99701583976,-43.82265672266343 Z" fill="none" stroke="#FFFFFF" stroke-width="1.3698257807967373" /><path d="M 389.6840010404399,-56.953815536679684 L 395.4196014656675,-43.82265672266343 L 408.76041486275074,-49.05210621003697 L 403.5309653753772,-35.711292812953715 L 416.66212418939347,-29.97569238772615 L 403.5309653753772,-24.240091962498582 L 408.76041486275074,-10.89927856541533 L 395.4196014656675,-16.128728052788865 L 389.6840010404399,-2.9975692387726127 L 383.94840061521234,-16.128728052788865 L 370.6075872181291,-10.899278565415326 L 375.8370367055026,-24.240091962498575 L 362.70587789148635,-29.975692387726145 L 375.8370367055026,-35.71129281295372 L 370.6075872181291,-49.05210621003697 L 383.94840061521234,-43.82265672266343 Z" fill="none" stroke="#FFFFFF" stroke-width="1.3698257807967373" /><path d="M 449.6353858158922,-56.953815536679684 L 455.3709862411198,-43.82265672266343 L 468.71179963820305,-49.05210621003697 L 463.4823501508295,-35.711292812953715 L 476.6135089648458,-29.97569238772615 L 463.4823501508295,-24.240091962498582 L 468.71179963820305,-10.89927856541533 L 455.3709862411198,-16.128728052788865 L 449.6353858158922,-2.9975692387726127 L 443.89978539066465,-16.128728052788865 L 430.5589719935814,-10.899278565415326 L 435.7884214809549,-24.240091962498575 L 422.65726266693866,-29.975692387726145 L 435.7884214809549,-35.71129281295372 L 430.5589719935814,-49.05210621003697 L 443.89978539066465,-43.82265672266343 Z" fill="none" stroke="#FFFFFF" stroke-width="1.3698257807967373" /><path d="M 509.58677059134453,-56.953815536679684 L 515.3223710165721,-43.82265672266343 L 528.6631844136554,-49.05210621003697 L 523.4337349262818,-35.711292812953715 L 536.5648937402981,-29.97569238772615 L 523.4337349262818,-24.240091962498582 L 528.6631844136554,-10.89927856541533 L 515.3223710165721,-16.128728052788865 L 509.58677059134453,-2.9975692387726127 L 503.85117016611696,-16.128728052788865 L 490.5103567690337,-10.899278565415326 L 495.73980625640723,-24.240091962498575 L 482.608647442391,-29.975692387726145 L 495.73980625640723,-35.71129281295372 L 490.5103567690337,-49.05210621003697 L 503.85117016611696,-43.82265672266343 Z" fill="none" stroke="#FFFFFF" stroke-width="1.3698257807967373" /><path d="M 569.5381553667969,-56.953815536679684 L 575.2737557920244,-43.82265672266343 L 588.6145691891077,-49.05210621003697 L 583.3851197017342,-35.711292812953715 L 596.5162785157504,-29.97569238772615 L 583.3851197017342,-24.240091962498582 L 588.6145691891077,-10.89927856541533 L 575.2737557920244,-16.128728052788865 L 569.5381553667969,-2.9975692387726127 L 563.8025549415694,-16.128728052788865 L 550.4617415444861,-10.899278565415326 L 555.6911910318596,-24.240091962498575 L 542.5600322178434,-29.975692387726145 L 555.6911910318596,-35.71129281295372 L 550.4617415444861,-49.05210621003697 L 563.8025549415693,-43.82265672266343 Z" fill="none" stroke="#FFFFFF" stroke-width="1.3698257807967373" /><path d="M 1.6519336080684531e-15,-5.0359163211379965 L 5.7356004252275685,8.095242492878254 L 19.076413822310823,2.8657930055047203 L 13.846964334937285,16.206606402587973 L 26.978123148953536,21.94220682781554 L 13.846964334937285,27.677807253043106 L 19.076413822310823,41.01862065012636 L 5.7356004252275685,35.78917116275282 L 1.6519336080684531e-15,48.920329976769075 L -5.735600425227568,35.78917116275282 L -19.07641382231082,41.018620650126365 L -13.846964334937281,27.677807253043113 L -26.978123148953536,21.942206827815543 L -13.846964334937283,16.206606402587965 L -19.076413822310826,2.8657930055047203 L -5.7356004252275765,8.095242492878258 Z" fill="none" stroke="#FFFFFF" stroke-width="1.3698257807967373" /><path d="M 59.9513847754523,-5.0359163211379965 L 65.68698520067987,8.095242492878254 L 79.02779859776312,2.8657930055047203 L 73.79834911038958,16.206606402587973 L 86.92950792440584,21.94220682781554 L 73.79834911038958,27.677807253043106 L 79.02779859776312,41.01862065012636 L 65.68698520067987,35.78917116275282 L 59.9513847754523,48.920329976769075 L 54.21578435022473,35.78917116275282 L 40.87497095314148,41.018620650126365 L 46.104420440515014,27.677807253043113 L 32.97326162649876,21.942206827815543 L 46.104420440515014,16.206606402587965 L 40.87497095314147,2.8657930055047203 L 54.21578435022472,8.095242492878258 Z" fill="none" stroke="#FFFFFF" stroke-width="1.3698257807967373" /><path d="M 119.9027695509046,-5.0359163211379965 L 125.63836997613217,8.095242492878254 L 138.97918337321542,2.8657930055047203 L 133.7497338858419,16.206606402587973 L 146.88089269985812,21.94220682781554 L 133.7497338858419,27.677807253043106 L 138.97918337321542,41.01862065012636 L 125.63836997613217,35.78917116275282 L 119.9027695509046,48.920329976769075 L 114.16716912567702,35.78917116275282 L 100.82635572859377,41.018620650126365 L 106.05580521596731,27.677807253043113 L 92.92464640195107,21.942206827815543 L 106.05580521596731,16.206606402587965 L 100.82635572859377,2.8657930055047203 L 114.16716912567702,8.095242492878258 Z" fill="none" stroke="#FFFFFF" stroke-width="1.3698257807967373" /><path d="M 179.85415432635688,-5.0359163211379965 L 185.58975475158445,8.095242492878254 L 198.9305681486677,2.8657930055047203 L 193.70111866129417,16.206606402587973 L 206.8322774753104,21.94220682781554 L 193.70111866129417,27.677807253043106 L 198.9305681486677,41.01862065012636 L 185.58975475158445,35.78917116275282 L 179.85415432635688,48.920329976769075 L 174.1185539011293,35.78917116275282 L 160.77774050404605,41.018620650126365 L 166.0071899914196,27.677807253043113 L 152.87603117740335,21.942206827815543 L 166.00718999141958,16.206606402587965 L 160.77774050404605,2.8657930055047203 L 174.1185539011293,8.095242492878258 Z" fill="none" stroke="#FFFFFF" stroke-width="1.3698257807967373" /><path d="M 239.8055391018092,-5.0359163211379965 L 245.54113952703676,8.095242492878254 L 258.88195292412,2.8657930055047203 L 253.65250343674649,16.206606402587973 L 266.78366225076275,21.94220682781554 L 253.65250343674649,27.677807253043106 L 258.88195292412,41.01862065012636 L 245.54113952703676,35.78917116275282 L 239.8055391018092,48.920329976769075 L 234.06993867658161,35.78917116275282 L 220.72912527949836,41.018620650126365 L 225.95857476687192,27.677807253043113 L 212.82741595285566,21.942206827815543 L 225.9585747668719,16.206606402587965 L 220.72912527949836,2.8657930055047203 L 234.06993867658161,8.095242492878258 Z" fill="none" stroke="#FFFFFF" stroke-width="1.3698257807967373" /><path d="M 299.7569238772615,-5.0359163211379965 L 305.4925243024891,8.095242492878254 L 318.8333376995723,2.8657930055047203 L 313.6038882121988,16.206606402587973 L 326.73504702621506,21.94220682781554 L 313.6038882121988,27.677807253043106 L 318.8333376995723,41.01862065012636 L 305.4925243024891,35.78917116275282 L 299.7569238772615,48.920329976769075 L 294.0213234520339,35.78917116275282 L 280.6805100549507,41.018620650126365 L 285.9099595423242,27.677807253043113 L 272.77880072830794,21.942206827815543 L 285.9099595423242,16.206606402587965 L 280.6805100549507,2.8657930055047203 L 294.0213234520339,8.095242492878258 Z" fill="none" stroke="#FFFFFF" stroke-width="1.3698257807967373" /><path d="M 359.70830865271375,-5.0359163211379965 L 365.4439090779413,8.095242492878254 L 378.7847224750246,2.8657930055047203 L 373.55527298765105,16.206606402587973 L 386.6864318016673,21.94220682781554 L 373.55527298765105,27.677807253043106 L 378.7847224750246,41.01862065012636 L 365.4439090779413,35.78917116275282 L 359.70830865271375,48.920329976769075 L 353.9727082274862,35.78917116275282 L 340.6318948304029,41.018620650126365 L 345.86134431777646,27.677807253043113 L 332.7301855037602,21.942206827815543 L 345.86134431777646,16.206606402587965 L 340.6318948304029,2.8657930055047203 L 353.9727082274862,8.095242492878258 Z" fill="none" stroke="#FFFFFF" stroke-width="1.3698257807967373" /><path d="M 419.65969342816607,-5.0359163211379965 L 425.39529385339364,8.095242492878254 L 438.7361072504769,2.8657930055047203 L 433.50665776310336,16.206606402587973 L 446.6378165771196,21.94220682781554 L 433.50665776310336,27.677807253043106 L 438.7361072504769,41.01862065012636 L 425.39529385339364,35.78917116275282 L 419.65969342816607,48.920329976769075 L 413.9240930029385,35.78917116275282 L 400.58327960585524,41.018620650126365 L 405.81272909322877,27.677807253043113 L 392.6815702792125,21.942206827815543 L 405.81272909322877,16.206606402587965 L 400.58327960585524,2.8657930055047203 L 413.9240930029385,8.095242492878258 Z" fill="none" stroke="#FFFFFF" stroke-width="1.3698257807967373" /><path d="M 479.6110782036184,-5.0359163211379965 L 485.34667862884595,8.095242492878254 L 498.6874920259292,2.8657930055047203 L 493.4580425385557,16.206606402587973 L 506.58920135257193,21.94220682781554 L 493.4580425385557,27.677807253043106 L 498.6874920259292,41.01862065012636 L 485.34667862884595,35.78917116275282 L 479.6110782036184,48.920329976769075 L 473.8754777783908,35.78917116275282 L 460.53466438130755,41.018620650126365 L 465.7641138686811,27.677807253043113 L 452.6329550546648,21.942206827815543 L 465.7641138686811,16.206606402587965 L 460.53466438130755,2.8657930055047203 L 473.8754777783908,8.095242492878258 Z" fill="none" stroke="#FFFFFF" stroke-width="1.3698257807967373" /><path d="M 539.5624629790707,-5.0359163211379965 L 545.2980634042982,8.095242492878254 L 558.6388768013815,2.8657930055047203 L 553.409427314008,16.206606402587973 L 566.5405861280242,21.94220682781554 L 553.409427314008,27.677807253043106 L 558.6388768013815,41.01862065012636 L 545.2980634042982,35.78917116275282 L 539.5624629790707,48.920329976769075 L 533.8268625538432,35.78917116275282 L 520.4860491567599,41.018620650126365 L 525.7154986441334,27.677807253043113 L 512.5843398301172,21.942206827815543 L 525.7154986441334,16.206606402587965 L 520.4860491567599,2.8657930055047203 L 533.8268625538431,8.095242492878258 Z" fill="none" stroke="#FFFFFF" stroke-width="1.3698257807967373" /><path d="M -29.97569238772615,46.8819828944037 L -24.240091962498582,60.01314170841995 L -10.899278565415326,54.783692221046415 L -16.128728052788865,68.12450561812966 L -2.9975692387726127,73.86010604335723 L -16.128728052788865,79.59570646858481 L -10.899278565415326,92.93651986566806 L -24.240091962498582,87.70707037829452 L -29.97569238772615,100.83822919231076 L -35.711292812953715,87.70707037829452 L -49.05210621003697,92.93651986566806 L -43.82265672266343,79.59570646858481 L -56.953815536679684,73.86010604335723 L -43.82265672266343,68.12450561812966 L -49.052106210036975,54.783692221046415 L -35.71129281295372,60.01314170841995 Z" fill="none" stroke="#FFFFFF" stroke-width="1.3698257807967373" /><path d="M 29.97569238772615,46.8819828944037 L 35.711292812953715,60.01314170841995 L 49.05210621003697,54.783692221046415 L 43.82265672266343,68.12450561812966 L 56.953815536679684,73.86010604335723 L 43.82265672266343,79.59570646858481 L 49.05210621003697,92.93651986566806 L 35.711292812953715,87.70707037829452 L 29.97569238772615,100.83822919231076 L 24.240091962498582,87.70707037829452 L 10.89927856541533,92.93651986566806 L 16.128728052788865,79.59570646858481 L 2.9975692387726127,73.86010604335723 L 16.128728052788865,68.12450561812966 L 10.899278565415322,54.783692221046415 L 24.24009196249857,60.01314170841995 Z" fill="none" stroke="#FFFFFF" stroke-width="1.3698257807967373" /><path d="M 89.92707716317844,46.8819828944037 L 95.66267758840601,60.01314170841995 L 109.00349098548926,54.783692221046415 L 103.77404149811572,68.12450561812966 L 116.90520031213197,73.86010604335723 L 103.77404149811572,79.59570646858481 L 109.00349098548926,92.93651986566806 L 95.66267758840601,87.70707037829452 L 89.92707716317844,100.83822919231076 L 84.19147673795086,87.70707037829452 L 70.85066334086761,92.93651986566806 L 76.08011282824116,79.59570646858481 L 62.9489540142249,73.86010604335723 L 76.08011282824116,68.12450561812966 L 70.85066334086761,54.783692221046415 L 84.19147673795086,60.01314170841995 Z" fill="none" stroke="#FFFFFF" stroke-width="1.3698257807967373" /><path d="M 149.87846193863072,46.8819828944037 L 155.6140623638583,60.01314170841995 L 168.95487576094155,54.783692221046415 L 163.72542627356802,68.12450561812966 L 176.85658508758425,73.86010604335723 L 163.72542627356802,79.59570646858481 L 168.95487576094155,92.93651986566806 L 155.6140623638583,87.70707037829452 L 149.87846193863072,100.83822919231076 L 144.14286151340315,87.70707037829452 L 130.8020481163199,92.93651986566806 L 136.03149760369345,79.59570646858481 L 122.90033878967719,73.86010604335723 L 136.03149760369342,68.12450561812966 L 130.8020481163199,54.783692221046415 L 144.14286151340315,60.01314170841995 Z" fill="none" stroke="#FFFFFF" stroke-width="1.3698257807967373" /><path d="M 209.82984671408303,46.8819828944037 L 215.5654471393106,60.01314170841995 L 228.90626053639386,54.783692221046415 L 223.67681104902033,68.12450561812966 L 236.80796986303656,73.86010604335723 L 223.67681104902033,79.59570646858481 L 228.90626053639386,92.93651986566806 L 215.5654471393106,87.70707037829452 L 209.82984671408303,100.83822919231076 L 204.09424628885546,87.70707037829452 L 190.7534328917722,92.93651986566806 L 195.98288237914576,79.59570646858481 L 182.8517235651295,73.86010604335723 L 195.98288237914574,68.12450561812966 L 190.7534328917722,54.783692221046415 L 204.09424628885546,60.01314170841995 Z" fill="none" stroke="#FFFFFF" stroke-width="1.3698257807967373" /><path d="M 269.78123148953534,46.8819828944037 L 275.5168319147629,60.01314170841995 L 288.85764531184617,54.783692221046415 L 283.62819582447264,68.12450561812966 L 296.7593546384889,73.86010604335723 L 283.62819582447264,79.59570646858481 L 288.85764531184617,92.93651986566806 L 275.5168319147629,87.70707037829452 L 269.78123148953534,100.83822919231076 L 264.04563106430777,87.70707037829452 L 250.70481766722452,92.93651986566806 L 255.93426715459807,79.59570646858481 L 242.80310834058182,73.86010604335723 L 255.93426715459805,68.12450561812966 L 250.70481766722452,54.783692221046415 L 264.04563106430777,60.01314170841995 Z" fill="none" stroke="#FFFFFF" stroke-width="1.3698257807967373" /><path d="M 329.7326162649876,46.8819828944037 L 335.4682166902152,60.01314170841995 L 348.8090300872984,54.783692221046415 L 343.5795805999249,68.12450561812966 L 356.71073941394116,73.86010604335723 L 343.5795805999249,79.59570646858481 L 348.8090300872984,92.93651986566806 L 335.4682166902152,87.70707037829452 L 329.7326162649876,100.83822919231076 L 323.99701583976,87.70707037829452 L 310.6562024426768,92.93651986566806 L 315.8856519300503,79.59570646858481 L 302.75449311603404,73.86010604335723 L 315.8856519300503,68.12450561812966 L 310.6562024426768,54.783692221046415 L 323.99701583976,60.01314170841995 Z" fill="none" stroke="#FFFFFF" stroke-width="1.3698257807967373" /><path d="M 389.6840010404399,46.8819828944037 L 395.4196014656675,60.01314170841995 L 408.76041486275074,54.783692221046415 L 403.5309653753772,68.12450561812966 L 416.66212418939347,73.86010604335723 L 403.5309653753772,79.59570646858481 L 408.76041486275074,92.93651986566806 L 395.4196014656675,87.70707037829452 L 389.6840010404399,100.83822919231076 L 383.94840061521234,87.70707037829452 L 370.6075872181291,92.93651986566806 L 375.8370367055026,79.59570646858481 L 362.70587789148635,73.86010604335723 L 375.8370367055026,68.12450561812966 L 370.6075872181291,54.783692221046415 L 383.94840061521234,60.01314170841995 Z" fill="none" stroke="#FFFFFF" stroke-width="1.3698257807967373" /><path d="M 449.6353858158922,46.8819828944037 L 455.3709862411198,60.01314170841995 L 468.71179963820305,54.783692221046415 L 463.4823501508295,68.12450561812966 L 476.6135089648458,73.86010604335723 L 463.4823501508295,79.59570646858481 L 468.71179963820305,92.93651986566806 L 455.3709862411198,87.70707037829452 L 449.6353858158922,100.83822919231076 L 443.89978539066465,87.70707037829452 L 430.5589719935814,92.93651986566806 L 435.7884214809549,79.59570646858481 L 422.65726266693866,73.86010604335723 L 435.7884214809549,68.12450561812966 L 430.5589719935814,54.783692221046415 L 443.89978539066465,60.01314170841995 Z" fill="none" stroke="#FFFFFF" stroke-width="1.3698257807967373" /><path d="M 509.58677059134453,46.8819828944037 L 515.3223710165721,60.01314170841995 L 528.6631844136554,54.783692221046415 L 523.4337349262818,68.12450561812966 L 536.5648937402981,73.86010604335723 L 523.4337349262818,79.59570646858481 L 528.6631844136554,92.93651986566806 L 515.3223710165721,87.70707037829452 L 509.58677059134453,100.83822919231076 L 503.85117016611696,87.70707037829452 L 490.5103567690337,92.93651986566806 L 495.73980625640723,79.59570646858481 L 482.608647442391,73.86010604335723 L 495.73980625640723,68.12450561812966 L 490.5103567690337,54.783692221046415 L 503.85117016611696,60.01314170841995 Z" fill="none" stroke="#FFFFFF" stroke-width="1.3698257807967373" /><path d="M 569.5381553667969,46.8819828944037 L 575.2737557920244,60.01314170841995 L 588.6145691891077,54.783692221046415 L 583.3851197017342,68.12450561812966 L 596.5162785157504,73.86010604335723 L 583.3851197017342,79.59570646858481 L 588.6145691891077,92.93651986566806 L 575.2737557920244,87.70707037829452 L 569.5381553667969,100.83822919231076 L 563.8025549415694,87.70707037829452 L 550.4617415444861,92.93651986566806 L 555.6911910318596,79.59570646858481 L 542.5600322178434,73.86010604335723 L 555.6911910318596,68.12450561812966 L 550.4617415444861,54.783692221046415 L 563.8025549415693,60.01314170841995 Z" fill="none" stroke="#FFFFFF" stroke-width="1.3698257807967373" /><path d="M 1.6519336080684531e-15,98.79988210994537 L 5.7356004252275685,111.93104092396162 L 19.076413822310823,106.70159143658807 L 13.846964334937285,120.04240483367133 L 26.978123148953536,125.7780052588989 L 13.846964334937285,131.51360568412647 L 19.076413822310823,144.85441908120973 L 5.7356004252275685,139.6249695938362 L 1.6519336080684531e-15,152.75612840785243 L -5.735600425227568,139.6249695938362 L -19.07641382231082,144.85441908120973 L -13.846964334937281,131.51360568412647 L -26.978123148953536,125.7780052588989 L -13.846964334937283,120.04240483367133 L -19.076413822310826,106.70159143658807 L -5.7356004252275765,111.93104092396162 Z" fill="none" stroke="#FFFFFF" stroke-width="1.3698257807967373" /><path d="M 59.9513847754523,98.79988210994537 L 65.68698520067987,111.93104092396162 L 79.02779859776312,106.70159143658807 L 73.79834911038958,120.04240483367133 L 86.92950792440584,125.7780052588989 L 73.79834911038958,131.51360568412647 L 79.02779859776312,144.85441908120973 L 65.68698520067987,139.6249695938362 L 59.9513847754523,152.75612840785243 L 54.21578435022473,139.6249695938362 L 40.87497095314148,144.85441908120973 L 46.104420440515014,131.51360568412647 L 32.97326162649876,125.7780052588989 L 46.104420440515014,120.04240483367133 L 40.87497095314147,106.70159143658807 L 54.21578435022472,111.93104092396162 Z" fill="none" stroke="#FFFFFF" stroke-width="1.3698257807967373" /><path d="M 119.9027695509046,98.79988210994537 L 125.63836997613217,111.93104092396162 L 138.97918337321542,106.70159143658807 L 133.7497338858419,120.04240483367133 L 146.88089269985812,125.7780052588989 L 133.7497338858419,131.51360568412647 L 138.97918337321542,144.85441908120973 L 125.63836997613217,139.6249695938362 L 119.9027695509046,152.75612840785243 L 114.16716912567702,139.6249695938362 L 100.82635572859377,144.85441908120973 L 106.05580521596731,131.51360568412647 L 92.92464640195107,125.7780052588989 L 106.05580521596731,120.04240483367133 L 100.82635572859377,106.70159143658807 L 114.16716912567702,111.93104092396162 Z" fill="none" stroke="#FFFFFF" stroke-width="1.3698257807967373" /><path d="M 179.85415432635688,98.79988210994537 L 185.58975475158445,111.93104092396162 L 198.9305681486677,106.70159143658807 L 193.70111866129417,120.04240483367133 L 206.8322774753104,125.7780052588989 L 193.70111866129417,131.51360568412647 L 198.9305681486677,144.85441908120973 L 185.58975475158445,139.6249695938362 L 179.85415432635688,152.75612840785243 L 174.1185539011293,139.6249695938362 L 160.77774050404605,144.85441908120973 L 166.0071899914196,131.51360568412647 L 152.87603117740335,125.7780052588989 L 166.00718999141958,120.04240483367133 L 160.77774050404605,106.70159143658807 L 174.1185539011293,111.93104092396162 Z" fill="none" stroke="#FFFFFF" stroke-width="1.3698257807967373" /><path d="M 239.8055391018092,98.79988210994537 L 245.54113952703676,111.93104092396162 L 258.88195292412,106.70159143658807 L 253.65250343674649,120.04240483367133 L 266.78366225076275,125.7780052588989 L 253.65250343674649,131.51360568412647 L 258.88195292412,144.85441908120973 L 245.54113952703676,139.6249695938362 L 239.8055391018092,152.75612840785243 L 234.06993867658161,139.6249695938362 L 220.72912527949836,144.85441908120973 L 225.95857476687192,131.51360568412647 L 212.82741595285566,125.7780052588989 L 225.9585747668719,120.04240483367133 L 220.72912527949836,106.70159143658807 L 234.06993867658161,111.93104092396162 Z" fill="none" stroke="#FFFFFF" stroke-width="1.3698257807967373" /><path d="M 299.7569238772615,98.79988210994537 L 305.4925243024891,111.93104092396162 L 318.8333376995723,106.70159143658807 L 313.6038882121988,120.04240483367133 L 326.73504702621506,125.7780052588989 L 313.6038882121988,131.51360568412647 L 318.8333376995723,144.85441908120973 L 305.4925243024891,139.6249695938362 L 299.7569238772615,152.75612840785243 L 294.0213234520339,139.6249695938362 L 280.6805100549507,144.85441908120973 L 285.9099595423242,131.51360568412647 L 272.77880072830794,125.7780052588989 L 285.9099595423242,120.04240483367133 L 280.6805100549507,106.70159143658807 L 294.0213234520339,111.93104092396162 Z" fill="none" stroke="#FFFFFF" stroke-width="1.3698257807967373" /><path d="M 359.70830865271375,98.79988210994537 L 365.4439090779413,111.93104092396162 L 378.7847224750246,106.70159143658807 L 373.55527298765105,120.04240483367133 L 386.6864318016673,125.7780052588989 L 373.55527298765105,131.51360568412647 L 378.7847224750246,144.85441908120973 L 365.4439090779413,139.6249695938362 L 359.70830865271375,152.75612840785243 L 353.9727082274862,139.6249695938362 L 340.6318948304029,144.85441908120973 L 345.86134431777646,131.51360568412647 L 332.7301855037602,125.7780052588989 L 345.86134431777646,120.04240483367133 L 340.6318948304029,106.70159143658807 L 353.9727082274862,111.93104092396162 Z" fill="none" stroke="#FFFFFF" stroke-width="1.3698257807967373" /><path d="M 419.65969342816607,98.79988210994537 L 425.39529385339364,111.93104092396162 L 438.7361072504769,106.70159143658807 L 433.50665776310336,120.04240483367133 L 446.6378165771196,125.7780052588989 L 433.50665776310336,131.51360568412647 L 438.7361072504769,144.85441908120973 L 425.39529385339364,139.6249695938362 L 419.65969342816607,152.75612840785243 L 413.9240930029385,139.6249695938362 L 400.58327960585524,144.85441908120973 L 405.81272909322877,131.51360568412647 L 392.6815702792125,125.7780052588989 L 405.81272909322877,120.04240483367133 L 400.58327960585524,106.70159143658807 L 413.9240930029385,111.93104092396162 Z" fill="none" stroke="#FFFFFF" stroke-width="1.3698257807967373" /><path d="M 479.6110782036184,98.79988210994537 L 485.34667862884595,111.93104092396162 L 498.6874920259292,106.70159143658807 L 493.4580425385557,120.04240483367133 L 506.58920135257193,125.7780052588989 L 493.4580425385557,131.51360568412647 L 498.6874920259292,144.85441908120973 L 485.34667862884595,139.6249695938362 L 479.6110782036184,152.75612840785243 L 473.8754777783908,139.6249695938362 L 460.53466438130755,144.85441908120973 L 465.7641138686811,131.51360568412647 L 452.6329550546648,125.7780052588989 L 465.7641138686811,120.04240483367133 L 460.53466438130755,106.70159143658807 L 473.8754777783908,111.93104092396162 Z" fill="none" stroke="#FFFFFF" stroke-width="1.3698257807967373" /><path d="M 539.5624629790707,98.79988210994537 L 545.2980634042982,111.93104092396162 L 558.6388768013815,106.70159143658807 L 553.409427314008,120.04240483367133 L 566.5405861280242,125.7780052588989 L 553.409427314008,131.51360568412647 L 558.6388768013815,144.85441908120973 L 545.2980634042982,139.6249695938362 L 539.5624629790707,152.75612840785243 L 533.8268625538432,139.6249695938362 L 520.4860491567599,144.85441908120973 L 525.7154986441334,131.51360568412647 L 512.5843398301172,125.7780052588989 L 525.7154986441334,120.04240483367133 L 520.4860491567599,106.70159143658807 L 533.8268625538431,111.93104092396162 Z" fill="none" stroke="#FFFFFF" stroke-width="1.3698257807967373" /><path d="M -29.97569238772615,150.71778132548707 L -24.240091962498582,163.8489401395033 L -10.899278565415326,158.61949065212977 L -16.128728052788865,171.96030404921302 L -2.9975692387726127,177.6959044744406 L -16.128728052788865,183.43150489966817 L -10.899278565415326,196.77231829675142 L -24.240091962498582,191.5428688093779 L -29.97569238772615,204.67402762339412 L -35.711292812953715,191.5428688093779 L -49.05210621003697,196.77231829675142 L -43.82265672266343,183.43150489966817 L -56.953815536679684,177.6959044744406 L -43.82265672266343,171.96030404921302 L -49.052106210036975,158.61949065212977 L -35.71129281295372,163.84894013950333 Z" fill="none" stroke="#FFFFFF" stroke-width="1.3698257807967373" /><path d="M 29.97569238772615,150.71778132548707 L 35.711292812953715,163.8489401395033 L 49.05210621003697,158.61949065212977 L 43.82265672266343,171.96030404921302 L 56.953815536679684,177.6959044744406 L 43.82265672266343,183.43150489966817 L 49.05210621003697,196.77231829675142 L 35.711292812953715,191.5428688093779 L 29.97569238772615,204.67402762339412 L 24.240091962498582,191.5428688093779 L 10.89927856541533,196.77231829675142 L 16.128728052788865,183.43150489966817 L 2.9975692387726127,177.6959044744406 L 16.128728052788865,171.96030404921302 L 10.899278565415322,158.61949065212977 L 24.24009196249857,163.84894013950333 Z" fill="none" stroke="#FFFFFF" stroke-width="1.3698257807967373" /><path d="M 89.92707716317844,150.71778132548707 L 95.66267758840601,163.8489401395033 L 109.00349098548926,158.61949065212977 L 103.77404149811572,171.96030404921302 L 116.90520031213197,177.6959044744406 L 103.77404149811572,183.43150489966817 L 109.00349098548926,196.77231829675142 L 95.66267758840601,191.5428688093779 L 89.92707716317844,204.67402762339412 L 84.19147673795086,191.5428688093779 L 70.85066334086761,196.77231829675142 L 76.08011282824116,183.43150489966817 L 62.9489540142249,177.6959044744406 L 76.08011282824116,171.96030404921302 L 70.85066334086761,158.61949065212977 L 84.19147673795086,163.84894013950333 Z" fill="none" stroke="#FFFFFF" stroke-width="1.3698257807967373" /><path d="M 149.87846193863072,150.71778132548707 L 155.6140623638583,163.8489401395033 L 168.95487576094155,158.61949065212977 L 163.72542627356802,171.96030404921302 L 176.85658508758425,177.6959044744406 L 163.72542627356802,183.43150489966817 L 168.95487576094155,196.77231829675142 L 155.6140623638583,191.5428688093779 L 149.87846193863072,204.67402762339412 L 144.14286151340315,191.5428688093779 L 130.8020481163199,196.77231829675142 L 136.03149760369345,183.43150489966817 L 122.90033878967719,177.6959044744406 L 136.03149760369342,171.96030404921302 L 130.8020481163199,158.61949065212977 L 144.14286151340315,163.84894013950333 Z" fill="none" stroke="#FFFFFF" stroke-width="1.3698257807967373" /><path d="M 209.82984671408303,150.71778132548707 L 215.5654471393106,163.8489401395033 L 228.90626053639386,158.61949065212977 L 223.67681104902033,171.96030404921302 L 236.80796986303656,177.6959044744406 L 223.67681104902033,183.43150489966817 L 228.90626053639386,196.77231829675142 L 215.5654471393106,191.5428688093779 L 209.82984671408303,204.67402762339412 L 204.09424628885546,191.5428688093779 L 190.7534328917722,196.77231829675142 L 195.98288237914576,183.43150489966817 L 182.8517235651295,177.6959044744406 L 195.98288237914574,171.96030404921302 L 190.7534328917722,158.61949065212977 L 204.09424628885546,163.84894013950333 Z" fill="none" stroke="#FFFFFF" stroke-width="1.3698257807967373" /><path d="M 269.78123148953534,150.71778132548707 L 275.5168319147629,163.8489401395033 L 288.85764531184617,158.61949065212977 L 283.62819582447264,171.96030404921302 L 296.7593546384889,177.6959044744406 L 283.62819582447264,183.43150489966817 L 288.85764531184617,196.77231829675142 L 275.5168319147629,191.5428688093779 L 269.78123148953534,204.67402762339412 L 264.04563106430777,191.5428688093779 L 250.70481766722452,196.77231829675142 L 255.93426715459807,183.43150489966817 L 242.80310834058182,177.6959044744406 L 255.93426715459805,171.96030404921302 L 250.70481766722452,158.61949065212977 L 264.04563106430777,163.84894013950333 Z" fill="none" stroke="#FFFFFF" stroke-width="1.3698257807967373" /><path d="M 329.7326162649876,150.71778132548707 L 335.4682166902152,163.8489401395033 L 348.8090300872984,158.61949065212977 L 343.5795805999249,171.96030404921302 L 356.71073941394116,177.6959044744406 L 343.5795805999249,183.43150489966817 L 348.8090300872984,196.77231829675142 L 335.4682166902152,191.5428688093779 L 329.7326162649876,204.67402762339412 L 323.99701583976,191.5428688093779 L 310.6562024426768,196.77231829675142 L 315.8856519300503,183.43150489966817 L 302.75449311603404,177.6959044744406 L 315.8856519300503,171.96030404921302 L 310.6562024426768,158.61949065212977 L 323.99701583976,163.84894013950333 Z" fill="none" stroke="#FFFFFF" stroke-width="1.3698257807967373" /><path d="M 389.6840010404399,150.71778132548707 L 395.4196014656675,163.8489401395033 L 408.76041486275074,158.61949065212977 L 403.5309653753772,171.96030404921302 L 416.66212418939347,177.6959044744406 L 403.5309653753772,183.43150489966817 L 408.76041486275074,196.77231829675142 L 395.4196014656675,191.5428688093779 L 389.6840010404399,204.67402762339412 L 383.94840061521234,191.5428688093779 L 370.6075872181291,196.77231829675142 L 375.8370367055026,183.43150489966817 L 362.70587789148635,177.6959044744406 L 375.8370367055026,171.96030404921302 L 370.6075872181291,158.61949065212977 L 383.94840061521234,163.84894013950333 Z" fill="none" stroke="#FFFFFF" stroke-width="1.3698257807967373" /><path d="M 449.6353858158922,150.71778132548707 L 455.3709862411198,163.8489401395033 L 468.71179963820305,158.61949065212977 L 463.4823501508295,171.96030404921302 L 476.6135089648458,177.6959044744406 L 463.4823501508295,183.43150489966817 L 468.71179963820305,196.77231829675142 L 455.3709862411198,191.5428688093779 L 449.6353858158922,204.67402762339412 L 443.89978539066465,191.5428688093779 L 430.5589719935814,196.77231829675142 L 435.7884214809549,183.43150489966817 L 422.65726266693866,177.6959044744406 L 435.7884214809549,171.96030404921302 L 430.5589719935814,158.61949065212977 L 443.89978539066465,163.84894013950333 Z" fill="none" stroke="#FFFFFF" stroke-width="1.3698257807967373" /><path d="M 509.58677059134453,150.71778132548707 L 515.3223710165721,163.8489401395033 L 528.6631844136554,158.61949065212977 L 523.4337349262818,171.96030404921302 L 536.5648937402981,177.6959044744406 L 523.4337349262818,183.43150489966817 L 528.6631844136554,196.77231829675142 L 515.3223710165721,191.5428688093779 L 509.58677059134453,204.67402762339412 L 503.85117016611696,191.5428688093779 L 490.5103567690337,196.77231829675142 L 495.73980625640723,183.43150489966817 L 482.608647442391,177.6959044744406 L 495.73980625640723,171.96030404921302 L 490.5103567690337,158.61949065212977 L 503.85117016611696,163.84894013950333 Z" fill="none" stroke="#FFFFFF" stroke-width="1.3698257807967373" /><path d="M 569.5381553667969,150.71778132548707 L 575.2737557920244,163.8489401395033 L 588.6145691891077,158.61949065212977 L 583.3851197017342,171.96030404921302 L 596.5162785157504,177.6959044744406 L 583.3851197017342,183.43150489966817 L 588.6145691891077,196.77231829675142 L 575.2737557920244,191.5428688093779 L 569.5381553667969,204.67402762339412 L 563.8025549415694,191.5428688093779 L 550.4617415444861,196.77231829675142 L 555.6911910318596,183.43150489966817 L 542.5600322178434,177.6959044744406 L 555.6911910318596,171.96030404921302 L 550.4617415444861,158.61949065212977 L 563.8025549415693,163.84894013950333 Z" fill="none" stroke="#FFFFFF" stroke-width="1.3698257807967373" /><path d="M 1.6519336080684531e-15,202.6356805410288 L 5.7356004252275685,215.76683935504502 L 19.076413822310823,210.5373898676715 L 13.846964334937285,223.87820326475475 L 26.978123148953536,229.61380368998232 L 13.846964334937285,235.3494041152099 L 19.076413822310823,248.69021751229315 L 5.7356004252275685,243.46076802491962 L 1.6519336080684531e-15,256.5919268389359 L -5.735600425227568,243.46076802491962 L -19.07641382231082,248.69021751229315 L -13.846964334937281,235.3494041152099 L -26.978123148953536,229.61380368998232 L -13.846964334937283,223.87820326475475 L -19.076413822310826,210.5373898676715 L -5.7356004252275765,215.76683935504505 Z" fill="none" stroke="#FFFFFF" stroke-width="1.3698257807967373" /><path d="M 59.9513847754523,202.6356805410288 L 65.68698520067987,215.76683935504502 L 79.02779859776312,210.5373898676715 L 73.79834911038958,223.87820326475475 L 86.92950792440584,229.61380368998232 L 73.79834911038958,235.3494041152099 L 79.02779859776312,248.69021751229315 L 65.68698520067987,243.46076802491962 L 59.9513847754523,256.5919268389359 L 54.21578435022473,243.46076802491962 L 40.87497095314148,248.69021751229315 L 46.104420440515014,235.3494041152099 L 32.97326162649876,229.61380368998232 L 46.104420440515014,223.87820326475475 L 40.87497095314147,210.5373898676715 L 54.21578435022472,215.76683935504505 Z" fill="none" stroke="#FFFFFF" stroke-width="1.3698257807967373" /><path d="M 119.9027695509046,202.6356805410288 L 125.63836997613217,215.76683935504502 L 138.97918337321542,210.5373898676715 L 133.7497338858419,223.87820326475475 L 146.88089269985812,229.61380368998232 L 133.7497338858419,235.3494041152099 L 138.97918337321542,248.69021751229315 L 125.63836997613217,243.46076802491962 L 119.9027695509046,256.5919268389359 L 114.16716912567702,243.46076802491962 L 100.82635572859377,248.69021751229315 L 106.05580521596731,235.3494041152099 L 92.92464640195107,229.61380368998232 L 106.05580521596731,223.87820326475475 L 100.82635572859377,210.5373898676715 L 114.16716912567702,215.76683935504505 Z" fill="none" stroke="#FFFFFF" stroke-width="1.3698257807967373" /><path d="M 179.85415432635688,202.6356805410288 L 185.58975475158445,215.76683935504502 L 198.9305681486677,210.5373898676715 L 193.70111866129417,223.87820326475475 L 206.8322774753104,229.61380368998232 L 193.70111866129417,235.3494041152099 L 198.9305681486677,248.69021751229315 L 185.58975475158445,243.46076802491962 L 179.85415432635688,256.5919268389359 L 174.1185539011293,243.46076802491962 L 160.77774050404605,248.69021751229315 L 166.0071899914196,235.3494041152099 L 152.87603117740335,229.61380368998232 L 166.00718999141958,223.87820326475475 L 160.77774050404605,210.5373898676715 L 174.1185539011293,215.76683935504505 Z" fill="none" stroke="#FFFFFF" stroke-width="1.3698257807967373" /><path d="M 239.8055391018092,202.6356805410288 L 245.54113952703676,215.76683935504502 L 258.88195292412,210.5373898676715 L 253.65250343674649,223.87820326475475 L 266.78366225076275,229.61380368998232 L 253.65250343674649,235.3494041152099 L 258.88195292412,248.69021751229315 L 245.54113952703676,243.46076802491962 L 239.8055391018092,256.5919268389359 L 234.06993867658161,243.46076802491962 L 220.72912527949836,248.69021751229315 L 225.95857476687192,235.3494041152099 L 212.82741595285566,229.61380368998232 L 225.9585747668719,223.87820326475475 L 220.72912527949836,210.5373898676715 L 234.06993867658161,215.76683935504505 Z" fill="none" stroke="#FFFFFF" stroke-width="1.3698257807967373" /><path d="M 299.7569238772615,202.6356805410288 L 305.4925243024891,215.76683935504502 L 318.8333376995723,210.5373898676715 L 313.6038882121988,223.87820326475475 L 326.73504702621506,229.61380368998232 L 313.6038882121988,235.3494041152099 L 318.8333376995723,248.69021751229315 L 305.4925243024891,243.46076802491962 L 299.7569238772615,256.5919268389359 L 294.0213234520339,243.46076802491962 L 280.6805100549507,248.69021751229315 L 285.9099595423242,235.3494041152099 L 272.77880072830794,229.61380368998232 L 285.9099595423242,223.87820326475475 L 280.6805100549507,210.5373898676715 L 294.0213234520339,215.76683935504505 Z" fill="none" stroke="#FFFFFF" stroke-width="1.3698257807967373" /><path d="M 359.70830865271375,202.6356805410288 L 365.4439090779413,215.76683935504502 L 378.7847224750246,210.5373898676715 L 373.55527298765105,223.87820326475475 L 386.6864318016673,229.61380368998232 L 373.55527298765105,235.3494041152099 L 378.7847224750246,248.69021751229315 L 365.4439090779413,243.46076802491962 L 359.70830865271375,256.5919268389359 L 353.9727082274862,243.46076802491962 L 340.6318948304029,248.69021751229315 L 345.86134431777646,235.3494041152099 L 332.7301855037602,229.61380368998232 L 345.86134431777646,223.87820326475475 L 340.6318948304029,210.5373898676715 L 353.9727082274862,215.76683935504505 Z" fill="none" stroke="#FFFFFF" stroke-width="1.3698257807967373" /><path d="M 419.65969342816607,202.6356805410288 L 425.39529385339364,215.76683935504502 L 438.7361072504769,210.5373898676715 L 433.50665776310336,223.87820326475475 L 446.6378165771196,229.61380368998232 L 433.50665776310336,235.3494041152099 L 438.7361072504769,248.69021751229315 L 425.39529385339364,243.46076802491962 L 419.65969342816607,256.5919268389359 L 413.9240930029385,243.46076802491962 L 400.58327960585524,248.69021751229315 L 405.81272909322877,235.3494041152099 L 392.6815702792125,229.61380368998232 L 405.81272909322877,223.87820326475475 L 400.58327960585524,210.5373898676715 L 413.9240930029385,215.76683935504505 Z" fill="none" stroke="#FFFFFF" stroke-width="1.3698257807967373" /><path d="M 479.6110782036184,202.6356805410288 L 485.34667862884595,215.76683935504502 L 498.6874920259292,210.5373898676715 L 493.4580425385557,223.87820326475475 L 506.58920135257193,229.61380368998232 L 493.4580425385557,235.3494041152099 L 498.6874920259292,248.69021751229315 L 485.34667862884595,243.46076802491962 L 479.6110782036184,256.5919268389359 L 473.8754777783908,243.46076802491962 L 460.53466438130755,248.69021751229315 L 465.7641138686811,235.3494041152099 L 452.6329550546648,229.61380368998232 L 465.7641138686811,223.87820326475475 L 460.53466438130755,210.5373898676715 L 473.8754777783908,215.76683935504505 Z" fill="none" stroke="#FFFFFF" stroke-width="1.3698257807967373" /><path d="M 539.5624629790707,202.6356805410288 L 545.2980634042982,215.76683935504502 L 558.6388768013815,210.5373898676715 L 553.409427314008,223.87820326475475 L 566.5405861280242,229.61380368998232 L 553.409427314008,235.3494041152099 L 558.6388768013815,248.69021751229315 L 545.2980634042982,243.46076802491962 L 539.5624629790707,256.5919268389359 L 533.8268625538432,243.46076802491962 L 520.4860491567599,248.69021751229315 L 525.7154986441334,235.3494041152099 L 512.5843398301172,229.61380368998232 L 525.7154986441334,223.87820326475475 L 520.4860491567599,210.5373898676715 L 533.8268625538431,215.76683935504505 Z" fill="none" stroke="#FFFFFF" stroke-width="1.3698257807967373" /><path d="M -29.97569238772615,254.55357975657043 L -24.240091962498582,267.68473857058666 L -10.899278565415326,262.45528908321313 L -16.128728052788865,275.7961024802964 L -2.9975692387726127,281.53170290552396 L -16.128728052788865,287.26730333075153 L -10.899278565415326,300.6081167278348 L -24.240091962498582,295.37866724046125 L -29.97569238772615,308.5098260544775 L -35.711292812953715,295.37866724046125 L -49.05210621003697,300.6081167278348 L -43.82265672266343,287.26730333075153 L -56.953815536679684,281.53170290552396 L -43.82265672266343,275.7961024802964 L -49.052106210036975,262.45528908321313 L -35.71129281295372,267.68473857058666 Z" fill="none" stroke="#FFFFFF" stroke-width="1.3698257807967373" /><path d="M 29.97569238772615,254.55357975657043 L 35.711292812953715,267.68473857058666 L 49.05210621003697,262.45528908321313 L 43.82265672266343,275.7961024802964 L 56.953815536679684,281.53170290552396 L 43.82265672266343,287.26730333075153 L 49.05210621003697,300.6081167278348 L 35.711292812953715,295.37866724046125 L 29.97569238772615,308.5098260544775 L 24.240091962498582,295.37866724046125 L 10.89927856541533,300.6081167278348 L 16.128728052788865,287.26730333075153 L 2.9975692387726127,281.53170290552396 L 16.128728052788865,275.7961024802964 L 10.899278565415322,262.45528908321313 L 24.24009196249857,267.68473857058666 Z" fill="none" stroke="#FFFFFF" stroke-width="1.3698257807967373" /><path d="M 89.92707716317844,254.55357975657043 L 95.66267758840601,267.68473857058666 L 109.00349098548926,262.45528908321313 L 103.77404149811572,275.7961024802964 L 116.90520031213197,281.53170290552396 L 103.77404149811572,287.26730333075153 L 109.00349098548926,300.6081167278348 L 95.66267758840601,295.37866724046125 L 89.92707716317844,308.5098260544775 L 84.19147673795086,295.37866724046125 L 70.85066334086761,300.6081167278348 L 76.08011282824116,287.26730333075153 L 62.9489540142249,281.53170290552396 L 76.08011282824116,275.7961024802964 L 70.85066334086761,262.45528908321313 L 84.19147673795086,267.68473857058666 Z" fill="none" stroke="#FFFFFF" stroke-width="1.3698257807967373" /><path d="M 149.87846193863072,254.55357975657043 L 155.6140623638583,267.68473857058666 L 168.95487576094155,262.45528908321313 L 163.72542627356802,275.7961024802964 L 176.85658508758425,281.53170290552396 L 163.72542627356802,287.26730333075153 L 168.95487576094155,300.6081167278348 L 155.6140623638583,295.37866724046125 L 149.87846193863072,308.5098260544775 L 144.14286151340315,295.37866724046125 L 130.8020481163199,300.6081167278348 L 136.03149760369345,287.26730333075153 L 122.90033878967719,281.53170290552396 L 136.03149760369342,275.7961024802964 L 130.8020481163199,262.45528908321313 L 144.14286151340315,267.68473857058666 Z" fill="none" stroke="#FFFFFF" stroke-width="1.3698257807967373" /><path d="M 209.82984671408303,254.55357975657043 L 215.5654471393106,267.68473857058666 L 228.90626053639386,262.45528908321313 L 223.67681104902033,275.7961024802964 L 236.80796986303656,281.53170290552396 L 223.67681104902033,287.26730333075153 L 228.90626053639386,300.6081167278348 L 215.5654471393106,295.37866724046125 L 209.82984671408303,308.5098260544775 L 204.09424628885546,295.37866724046125 L 190.7534328917722,300.6081167278348 L 195.98288237914576,287.26730333075153 L 182.8517235651295,281.53170290552396 L 195.98288237914574,275.7961024802964 L 190.7534328917722,262.45528908321313 L 204.09424628885546,267.68473857058666 Z" fill="none" stroke="#FFFFFF" stroke-width="1.3698257807967373" /><path d="M 269.78123148953534,254.55357975657043 L 275.5168319147629,267.68473857058666 L 288.85764531184617,262.45528908321313 L 283.62819582447264,275.7961024802964 L 296.7593546384889,281.53170290552396 L 283.62819582447264,287.26730333075153 L 288.85764531184617,300.6081167278348 L 275.5168319147629,295.37866724046125 L 269.78123148953534,308.5098260544775 L 264.04563106430777,295.37866724046125 L 250.70481766722452,300.6081167278348 L 255.93426715459807,287.26730333075153 L 242.80310834058182,281.53170290552396 L 255.93426715459805,275.7961024802964 L 250.70481766722452,262.45528908321313 L 264.04563106430777,267.68473857058666 Z" fill="none" stroke="#FFFFFF" stroke-width="1.3698257807967373" /><path d="M 329.7326162649876,254.55357975657043 L 335.4682166902152,267.68473857058666 L 348.8090300872984,262.45528908321313 L 343.5795805999249,275.7961024802964 L 356.71073941394116,281.53170290552396 L 343.5795805999249,287.26730333075153 L 348.8090300872984,300.6081167278348 L 335.4682166902152,295.37866724046125 L 329.7326162649876,308.5098260544775 L 323.99701583976,295.37866724046125 L 310.6562024426768,300.6081167278348 L 315.8856519300503,287.26730333075153 L 302.75449311603404,281.53170290552396 L 315.8856519300503,275.7961024802964 L 310.6562024426768,262.45528908321313 L 323.99701583976,267.68473857058666 Z" fill="none" stroke="#FFFFFF" stroke-width="1.3698257807967373" /><path d="M 389.6840010404399,254.55357975657043 L 395.4196014656675,267.68473857058666 L 408.76041486275074,262.45528908321313 L 403.5309653753772,275.7961024802964 L 416.66212418939347,281.53170290552396 L 403.5309653753772,287.26730333075153 L 408.76041486275074,300.6081167278348 L 395.4196014656675,295.37866724046125 L 389.6840010404399,308.5098260544775 L 383.94840061521234,295.37866724046125 L 370.6075872181291,300.6081167278348 L 375.8370367055026,287.26730333075153 L 362.70587789148635,281.53170290552396 L 375.8370367055026,275.7961024802964 L 370.6075872181291,262.45528908321313 L 383.94840061521234,267.68473857058666 Z" fill="none" stroke="#FFFFFF" stroke-width="1.3698257807967373" /><path d="M 449.6353858158922,254.55357975657043 L 455.3709862411198,267.68473857058666 L 468.71179963820305,262.45528908321313 L 463.4823501508295,275.7961024802964 L 476.6135089648458,281.53170290552396 L 463.4823501508295,287.26730333075153 L 468.71179963820305,300.6081167278348 L 455.3709862411198,295.37866724046125 L 449.6353858158922,308.5098260544775 L 443.89978539066465,295.37866724046125 L 430.5589719935814,300.6081167278348 L 435.7884214809549,287.26730333075153 L 422.65726266693866,281.53170290552396 L 435.7884214809549,275.7961024802964 L 430.5589719935814,262.45528908321313 L 443.89978539066465,267.68473857058666 Z" fill="none" stroke="#FFFFFF" stroke-width="1.3698257807967373" /><path d="M 509.58677059134453,254.55357975657043 L 515.3223710165721,267.68473857058666 L 528.6631844136554,262.45528908321313 L 523.4337349262818,275.7961024802964 L 536.5648937402981,281.53170290552396 L 523.4337349262818,287.26730333075153 L 528.6631844136554,300.6081167278348 L 515.3223710165721,295.37866724046125 L 509.58677059134453,308.5098260544775 L 503.85117016611696,295.37866724046125 L 490.5103567690337,300.6081167278348 L 495.73980625640723,287.26730333075153 L 482.608647442391,281.53170290552396 L 495.73980625640723,275.7961024802964 L 490.5103567690337,262.45528908321313 L 503.85117016611696,267.68473857058666 Z" fill="none" stroke="#FFFFFF" stroke-width="1.3698257807967373" /><path d="M 569.5381553667969,254.55357975657043 L 575.2737557920244,267.68473857058666 L 588.6145691891077,262.45528908321313 L 583.3851197017342,275.7961024802964 L 596.5162785157504,281.53170290552396 L 583.3851197017342,287.26730333075153 L 588.6145691891077,300.6081167278348 L 575.2737557920244,295.37866724046125 L 569.5381553667969,308.5098260544775 L 563.8025549415694,295.37866724046125 L 550.4617415444861,300.6081167278348 L 555.6911910318596,287.26730333075153 L 542.5600322178434,281.53170290552396 L 555.6911910318596,275.7961024802964 L 550.4617415444861,262.45528908321313 L 563.8025549415693,267.68473857058666 Z" fill="none" stroke="#FFFFFF" stroke-width="1.3698257807967373" /><path d="M 1.6519336080684531e-15,306.4714789721121 L 5.7356004252275685,319.60263778612835 L 19.076413822310823,314.3731882987548 L 13.846964334937285,327.7140016958381 L 26.978123148953536,333.44960212106565 L 13.846964334937285,339.1852025462932 L 19.076413822310823,352.5260159433765 L 5.7356004252275685,347.29656645600295 L 1.6519336080684531e-15,360.4277252700192 L -5.735600425227568,347.29656645600295 L -19.07641382231082,352.5260159433765 L -13.846964334937281,339.1852025462932 L -26.978123148953536,333.44960212106565 L -13.846964334937283,327.7140016958381 L -19.076413822310826,314.3731882987548 L -5.7356004252275765,319.60263778612835 Z" fill="none" stroke="#FFFFFF" stroke-width="1.3698257807967373" /><path d="M 59.9513847754523,306.4714789721121 L 65.68698520067987,319.60263778612835 L 79.02779859776312,314.3731882987548 L 73.79834911038958,327.7140016958381 L 86.92950792440584,333.44960212106565 L 73.79834911038958,339.1852025462932 L 79.02779859776312,352.5260159433765 L 65.68698520067987,347.29656645600295 L 59.9513847754523,360.4277252700192 L 54.21578435022473,347.29656645600295 L 40.87497095314148,352.5260159433765 L 46.104420440515014,339.1852025462932 L 32.97326162649876,333.44960212106565 L 46.104420440515014,327.7140016958381 L 40.87497095314147,314.3731882987548 L 54.21578435022472,319.60263778612835 Z" fill="none" stroke="#FFFFFF" stroke-width="1.3698257807967373" /><path d="M 119.9027695509046,306.4714789721121 L 125.63836997613217,319.60263778612835 L 138.97918337321542,314.3731882987548 L 133.7497338858419,327.7140016958381 L 146.88089269985812,333.44960212106565 L 133.7497338858419,339.1852025462932 L 138.97918337321542,352.5260159433765 L 125.63836997613217,347.29656645600295 L 119.9027695509046,360.4277252700192 L 114.16716912567702,347.29656645600295 L 100.82635572859377,352.5260159433765 L 106.05580521596731,339.1852025462932 L 92.92464640195107,333.44960212106565 L 106.05580521596731,327.7140016958381 L 100.82635572859377,314.3731882987548 L 114.16716912567702,319.60263778612835 Z" fill="none" stroke="#FFFFFF" stroke-width="1.3698257807967373" /><path d="M 179.85415432635688,306.4714789721121 L 185.58975475158445,319.60263778612835 L 198.9305681486677,314.3731882987548 L 193.70111866129417,327.7140016958381 L 206.8322774753104,333.44960212106565 L 193.70111866129417,339.1852025462932 L 198.9305681486677,352.5260159433765 L 185.58975475158445,347.29656645600295 L 179.85415432635688,360.4277252700192 L 174.1185539011293,347.29656645600295 L 160.77774050404605,352.5260159433765 L 166.0071899914196,339.1852025462932 L 152.87603117740335,333.44960212106565 L 166.00718999141958,327.7140016958381 L 160.77774050404605,314.3731882987548 L 174.1185539011293,319.60263778612835 Z" fill="none" stroke="#FFFFFF" stroke-width="1.3698257807967373" /><path d="M 239.8055391018092,306.4714789721121 L 245.54113952703676,319.60263778612835 L 258.88195292412,314.3731882987548 L 253.65250343674649,327.7140016958381 L 266.78366225076275,333.44960212106565 L 253.65250343674649,339.1852025462932 L 258.88195292412,352.5260159433765 L 245.54113952703676,347.29656645600295 L 239.8055391018092,360.4277252700192 L 234.06993867658161,347.29656645600295 L 220.72912527949836,352.5260159433765 L 225.95857476687192,339.1852025462932 L 212.82741595285566,333.44960212106565 L 225.9585747668719,327.7140016958381 L 220.72912527949836,314.3731882987548 L 234.06993867658161,319.60263778612835 Z" fill="none" stroke="#FFFFFF" stroke-width="1.3698257807967373" /><path d="M 299.7569238772615,306.4714789721121 L 305.4925243024891,319.60263778612835 L 318.8333376995723,314.3731882987548 L 313.6038882121988,327.7140016958381 L 326.73504702621506,333.44960212106565 L 313.6038882121988,339.1852025462932 L 318.8333376995723,352.5260159433765 L 305.4925243024891,347.29656645600295 L 299.7569238772615,360.4277252700192 L 294.0213234520339,347.29656645600295 L 280.6805100549507,352.5260159433765 L 285.9099595423242,339.1852025462932 L 272.77880072830794,333.44960212106565 L 285.9099595423242,327.7140016958381 L 280.6805100549507,314.3731882987548 L 294.0213234520339,319.60263778612835 Z" fill="none" stroke="#FFFFFF" stroke-width="1.3698257807967373" /><path d="M 359.70830865271375,306.4714789721121 L 365.4439090779413,319.60263778612835 L 378.7847224750246,314.3731882987548 L 373.55527298765105,327.7140016958381 L 386.6864318016673,333.44960212106565 L 373.55527298765105,339.1852025462932 L 378.7847224750246,352.5260159433765 L 365.4439090779413,347.29656645600295 L 359.70830865271375,360.4277252700192 L 353.9727082274862,347.29656645600295 L 340.6318948304029,352.5260159433765 L 345.86134431777646,339.1852025462932 L 332.7301855037602,333.44960212106565 L 345.86134431777646,327.7140016958381 L 340.6318948304029,314.3731882987548 L 353.9727082274862,319.60263778612835 Z" fill="none" stroke="#FFFFFF" stroke-width="1.3698257807967373" /><path d="M 419.65969342816607,306.4714789721121 L 425.39529385339364,319.60263778612835 L 438.7361072504769,314.3731882987548 L 433.50665776310336,327.7140016958381 L 446.6378165771196,333.44960212106565 L 433.50665776310336,339.1852025462932 L 438.7361072504769,352.5260159433765 L 425.39529385339364,347.29656645600295 L 419.65969342816607,360.4277252700192 L 413.9240930029385,347.29656645600295 L 400.58327960585524,352.5260159433765 L 405.81272909322877,339.1852025462932 L 392.6815702792125,333.44960212106565 L 405.81272909322877,327.7140016958381 L 400.58327960585524,314.3731882987548 L 413.9240930029385,319.60263778612835 Z" fill="none" stroke="#FFFFFF" stroke-width="1.3698257807967373" /><path d="M 479.6110782036184,306.4714789721121 L 485.34667862884595,319.60263778612835 L 498.6874920259292,314.3731882987548 L 493.4580425385557,327.7140016958381 L 506.58920135257193,333.44960212106565 L 493.4580425385557,339.1852025462932 L 498.6874920259292,352.5260159433765 L 485.34667862884595,347.29656645600295 L 479.6110782036184,360.4277252700192 L 473.8754777783908,347.29656645600295 L 460.53466438130755,352.5260159433765 L 465.7641138686811,339.1852025462932 L 452.6329550546648,333.44960212106565 L 465.7641138686811,327.7140016958381 L 460.53466438130755,314.3731882987548 L 473.8754777783908,319.60263778612835 Z" fill="none" stroke="#FFFFFF" stroke-width="1.3698257807967373" /><path d="M 539.5624629790707,306.4714789721121 L 545.2980634042982,319.60263778612835 L 558.6388768013815,314.3731882987548 L 553.409427314008,327.7140016958381 L 566.5405861280242,333.44960212106565 L 553.409427314008,339.1852025462932 L 558.6388768013815,352.5260159433765 L 545.2980634042982,347.29656645600295 L 539.5624629790707,360.4277252700192 L 533.8268625538432,347.29656645600295 L 520.4860491567599,352.5260159433765 L 525.7154986441334,339.1852025462932 L 512.5843398301172,333.44960212106565 L 525.7154986441334,327.7140016958381 L 520.4860491567599,314.3731882987548 L 533.8268625538431,319.60263778612835 Z" fill="none" stroke="#FFFFFF" stroke-width="1.3698257807967373" /><path d="M -29.97569238772615,358.3893781876538 L -24.240091962498582,371.52053700167005 L -10.899278565415326,366.2910875142965 L -16.128728052788865,379.6319009113798 L -2.9975692387726127,385.36750133660735 L -16.128728052788865,391.1031017618349 L -10.899278565415326,404.4439151589182 L -24.240091962498582,399.21446567154464 L -29.97569238772615,412.3456244855609 L -35.711292812953715,399.21446567154464 L -49.05210621003697,404.4439151589182 L -43.82265672266343,391.1031017618349 L -56.953815536679684,385.36750133660735 L -43.82265672266343,379.6319009113798 L -49.052106210036975,366.2910875142965 L -35.71129281295372,371.52053700167005 Z" fill="none" stroke="#FFFFFF" stroke-width="1.3698257807967373" /><path d="M 29.97569238772615,358.3893781876538 L 35.711292812953715,371.52053700167005 L 49.05210621003697,366.2910875142965 L 43.82265672266343,379.6319009113798 L 56.953815536679684,385.36750133660735 L 43.82265672266343,391.1031017618349 L 49.05210621003697,404.4439151589182 L 35.711292812953715,399.21446567154464 L 29.97569238772615,412.3456244855609 L 24.240091962498582,399.21446567154464 L 10.89927856541533,404.4439151589182 L 16.128728052788865,391.1031017618349 L 2.9975692387726127,385.36750133660735 L 16.128728052788865,379.6319009113798 L 10.899278565415322,366.2910875142965 L 24.24009196249857,371.52053700167005 Z" fill="none" stroke="#FFFFFF" stroke-width="1.3698257807967373" /><path d="M 89.92707716317844,358.3893781876538 L 95.66267758840601,371.52053700167005 L 109.00349098548926,366.2910875142965 L 103.77404149811572,379.6319009113798 L 116.90520031213197,385.36750133660735 L 103.77404149811572,391.1031017618349 L 109.00349098548926,404.4439151589182 L 95.66267758840601,399.21446567154464 L 89.92707716317844,412.3456244855609 L 84.19147673795086,399.21446567154464 L 70.85066334086761,404.4439151589182 L 76.08011282824116,391.1031017618349 L 62.9489540142249,385.36750133660735 L 76.08011282824116,379.6319009113798 L 70.85066334086761,366.2910875142965 L 84.19147673795086,371.52053700167005 Z" fill="none" stroke="#FFFFFF" stroke-width="1.3698257807967373" /><path d="M 149.87846193863072,358.3893781876538 L 155.6140623638583,371.52053700167005 L 168.95487576094155,366.2910875142965 L 163.72542627356802,379.6319009113798 L 176.85658508758425,385.36750133660735 L 163.72542627356802,391.1031017618349 L 168.95487576094155,404.4439151589182 L 155.6140623638583,399.21446567154464 L 149.87846193863072,412.3456244855609 L 144.14286151340315,399.21446567154464 L 130.8020481163199,404.4439151589182 L 136.03149760369345,391.1031017618349 L 122.90033878967719,385.36750133660735 L 136.03149760369342,379.6319009113798 L 130.8020481163199,366.2910875142965 L 144.14286151340315,371.52053700167005 Z" fill="none" stroke="#FFFFFF" stroke-width="1.3698257807967373" /><path d="M 209.82984671408303,358.3893781876538 L 215.5654471393106,371.52053700167005 L 228.90626053639386,366.2910875142965 L 223.67681104902033,379.6319009113798 L 236.80796986303656,385.36750133660735 L 223.67681104902033,391.1031017618349 L 228.90626053639386,404.4439151589182 L 215.5654471393106,399.21446567154464 L 209.82984671408303,412.3456244855609 L 204.09424628885546,399.21446567154464 L 190.7534328917722,404.4439151589182 L 195.98288237914576,391.1031017618349 L 182.8517235651295,385.36750133660735 L 195.98288237914574,379.6319009113798 L 190.7534328917722,366.2910875142965 L 204.09424628885546,371.52053700167005 Z" fill="none" stroke="#FFFFFF" stroke-width="1.3698257807967373" /><path d="M 269.78123148953534,358.3893781876538 L 275.5168319147629,371.52053700167005 L 288.85764531184617,366.2910875142965 L 283.62819582447264,379.6319009113798 L 296.7593546384889,385.36750133660735 L 283.62819582447264,391.1031017618349 L 288.85764531184617,404.4439151589182 L 275.5168319147629,399.21446567154464 L 269.78123148953534,412.3456244855609 L 264.04563106430777,399.21446567154464 L 250.70481766722452,404.4439151589182 L 255.93426715459807,391.1031017618349 L 242.80310834058182,385.36750133660735 L 255.93426715459805,379.6319009113798 L 250.70481766722452,366.2910875142965 L 264.04563106430777,371.52053700167005 Z" fill="none" stroke="#FFFFFF" stroke-width="1.3698257807967373" /><path d="M 329.7326162649876,358.3893781876538 L 335.4682166902152,371.52053700167005 L 348.8090300872984,366.2910875142965 L 343.5795805999249,379.6319009113798 L 356.71073941394116,385.36750133660735 L 343.5795805999249,391.1031017618349 L 348.8090300872984,404.4439151589182 L 335.4682166902152,399.21446567154464 L 329.7326162649876,412.3456244855609 L 323.99701583976,399.21446567154464 L 310.6562024426768,404.4439151589182 L 315.8856519300503,391.1031017618349 L 302.75449311603404,385.36750133660735 L 315.8856519300503,379.6319009113798 L 310.6562024426768,366.2910875142965 L 323.99701583976,371.52053700167005 Z" fill="none" stroke="#FFFFFF" stroke-width="1.3698257807967373" /><path d="M 389.6840010404399,358.3893781876538 L 395.4196014656675,371.52053700167005 L 408.76041486275074,366.2910875142965 L 403.5309653753772,379.6319009113798 L 416.66212418939347,385.36750133660735 L 403.5309653753772,391.1031017618349 L 408.76041486275074,404.4439151589182 L 395.4196014656675,399.21446567154464 L 389.6840010404399,412.3456244855609 L 383.94840061521234,399.21446567154464 L 370.6075872181291,404.4439151589182 L 375.8370367055026,391.1031017618349 L 362.70587789148635,385.36750133660735 L 375.8370367055026,379.6319009113798 L 370.6075872181291,366.2910875142965 L 383.94840061521234,371.52053700167005 Z" fill="none" stroke="#FFFFFF" stroke-width="1.3698257807967373" /><path d="M 449.6353858158922,358.3893781876538 L 455.3709862411198,371.52053700167005 L 468.71179963820305,366.2910875142965 L 463.4823501508295,379.6319009113798 L 476.6135089648458,385.36750133660735 L 463.4823501508295,391.1031017618349 L 468.71179963820305,404.4439151589182 L 455.3709862411198,399.21446567154464 L 449.6353858158922,412.3456244855609 L 443.89978539066465,399.21446567154464 L 430.5589719935814,404.4439151589182 L 435.7884214809549,391.1031017618349 L 422.65726266693866,385.36750133660735 L 435.7884214809549,379.6319009113798 L 430.5589719935814,366.2910875142965 L 443.89978539066465,371.52053700167005 Z" fill="none" stroke="#FFFFFF" stroke-width="1.3698257807967373" /><path d="M 509.58677059134453,358.3893781876538 L 515.3223710165721,371.52053700167005 L 528.6631844136554,366.2910875142965 L 523.4337349262818,379.6319009113798 L 536.5648937402981,385.36750133660735 L 523.4337349262818,391.1031017618349 L 528.6631844136554,404.4439151589182 L 515.3223710165721,399.21446567154464 L 509.58677059134453,412.3456244855609 L 503.85117016611696,399.21446567154464 L 490.5103567690337,404.4439151589182 L 495.73980625640723,391.1031017618349 L 482.608647442391,385.36750133660735 L 495.73980625640723,379.6319009113798 L 490.5103567690337,366.2910875142965 L 503.85117016611696,371.52053700167005 Z" fill="none" stroke="#FFFFFF" stroke-width="1.3698257807967373" /><path d="M 569.5381553667969,358.3893781876538 L 575.2737557920244,371.52053700167005 L 588.6145691891077,366.2910875142965 L 583.3851197017342,379.6319009113798 L 596.5162785157504,385.36750133660735 L 583.3851197017342,391.1031017618349 L 588.6145691891077,404.4439151589182 L 575.2737557920244,399.21446567154464 L 569.5381553667969,412.3456244855609 L 563.8025549415694,399.21446567154464 L 550.4617415444861,404.4439151589182 L 555.6911910318596,391.1031017618349 L 542.5600322178434,385.36750133660735 L 555.6911910318596,379.6319009113798 L 550.4617415444861,366.2910875142965 L 563.8025549415693,371.52053700167005 Z" fill="none" stroke="#FFFFFF" stroke-width="1.3698257807967373" /><path d="M 1.6519336080684531e-15,410.3072774031955 L 5.7356004252275685,423.43843621721174 L 19.076413822310823,418.2089867298382 L 13.846964334937285,431.54980012692147 L 26.978123148953536,437.28540055214904 L 13.846964334937285,443.0210009773766 L 19.076413822310823,456.36181437445987 L 5.7356004252275685,451.13236488708634 L 1.6519336080684531e-15,464.2635237011026 L -5.735600425227568,451.13236488708634 L -19.07641382231082,456.36181437445987 L -13.846964334937281,443.0210009773766 L -26.978123148953536,437.28540055214904 L -13.846964334937283,431.54980012692147 L -19.076413822310826,418.2089867298382 L -5.7356004252275765,423.43843621721174 Z" fill="none" stroke="#FFFFFF" stroke-width="1.3698257807967373" /><path d="M 59.9513847754523,410.3072774031955 L 65.68698520067987,423.43843621721174 L 79.02779859776312,418.2089867298382 L 73.79834911038958,431.54980012692147 L 86.92950792440584,437.28540055214904 L 73.79834911038958,443.0210009773766 L 79.02779859776312,456.36181437445987 L 65.68698520067987,451.13236488708634 L 59.9513847754523,464.2635237011026 L 54.21578435022473,451.13236488708634 L 40.87497095314148,456.36181437445987 L 46.104420440515014,443.0210009773766 L 32.97326162649876,437.28540055214904 L 46.104420440515014,431.54980012692147 L 40.87497095314147,418.2089867298382 L 54.21578435022472,423.43843621721174 Z" fill="none" stroke="#FFFFFF" stroke-width="1.3698257807967373" /><path d="M 119.9027695509046,410.3072774031955 L 125.63836997613217,423.43843621721174 L 138.97918337321542,418.2089867298382 L 133.7497338858419,431.54980012692147 L 146.88089269985812,437.28540055214904 L 133.7497338858419,443.0210009773766 L 138.97918337321542,456.36181437445987 L 125.63836997613217,451.13236488708634 L 119.9027695509046,464.2635237011026 L 114.16716912567702,451.13236488708634 L 100.82635572859377,456.36181437445987 L 106.05580521596731,443.0210009773766 L 92.92464640195107,437.28540055214904 L 106.05580521596731,431.54980012692147 L 100.82635572859377,418.2089867298382 L 114.16716912567702,423.43843621721174 Z" fill="none" stroke="#FFFFFF" stroke-width="1.3698257807967373" /><path d="M 179.85415432635688,410.3072774031955 L 185.58975475158445,423.43843621721174 L 198.9305681486677,418.2089867298382 L 193.70111866129417,431.54980012692147 L 206.8322774753104,437.28540055214904 L 193.70111866129417,443.0210009773766 L 198.9305681486677,456.36181437445987 L 185.58975475158445,451.13236488708634 L 179.85415432635688,464.2635237011026 L 174.1185539011293,451.13236488708634 L 160.77774050404605,456.36181437445987 L 166.0071899914196,443.0210009773766 L 152.87603117740335,437.28540055214904 L 166.00718999141958,431.54980012692147 L 160.77774050404605,418.2089867298382 L 174.1185539011293,423.43843621721174 Z" fill="none" stroke="#FFFFFF" stroke-width="1.3698257807967373" /><path d="M 239.8055391018092,410.3072774031955 L 245.54113952703676,423.43843621721174 L 258.88195292412,418.2089867298382 L 253.65250343674649,431.54980012692147 L 266.78366225076275,437.28540055214904 L 253.65250343674649,443.0210009773766 L 258.88195292412,456.36181437445987 L 245.54113952703676,451.13236488708634 L 239.8055391018092,464.2635237011026 L 234.06993867658161,451.13236488708634 L 220.72912527949836,456.36181437445987 L 225.95857476687192,443.0210009773766 L 212.82741595285566,437.28540055214904 L 225.9585747668719,431.54980012692147 L 220.72912527949836,418.2089867298382 L 234.06993867658161,423.43843621721174 Z" fill="none" stroke="#FFFFFF" stroke-width="1.3698257807967373" /><path d="M 299.7569238772615,410.3072774031955 L 305.4925243024891,423.43843621721174 L 318.8333376995723,418.2089867298382 L 313.6038882121988,431.54980012692147 L 326.73504702621506,437.28540055214904 L 313.6038882121988,443.0210009773766 L 318.8333376995723,456.36181437445987 L 305.4925243024891,451.13236488708634 L 299.7569238772615,464.2635237011026 L 294.0213234520339,451.13236488708634 L 280.6805100549507,456.36181437445987 L 285.9099595423242,443.0210009773766 L 272.77880072830794,437.28540055214904 L 285.9099595423242,431.54980012692147 L 280.6805100549507,418.2089867298382 L 294.0213234520339,423.43843621721174 Z" fill="none" stroke="#FFFFFF" stroke-width="1.3698257807967373" /><path d="M 359.70830865271375,410.3072774031955 L 365.4439090779413,423.43843621721174 L 378.7847224750246,418.2089867298382 L 373.55527298765105,431.54980012692147 L 386.6864318016673,437.28540055214904 L 373.55527298765105,443.0210009773766 L 378.7847224750246,456.36181437445987 L 365.4439090779413,451.13236488708634 L 359.70830865271375,464.2635237011026 L 353.9727082274862,451.13236488708634 L 340.6318948304029,456.36181437445987 L 345.86134431777646,443.0210009773766 L 332.7301855037602,437.28540055214904 L 345.86134431777646,431.54980012692147 L 340.6318948304029,418.2089867298382 L 353.9727082274862,423.43843621721174 Z" fill="none" stroke="#FFFFFF" stroke-width="1.3698257807967373" /><path d="M 419.65969342816607,410.3072774031955 L 425.39529385339364,423.43843621721174 L 438.7361072504769,418.2089867298382 L 433.50665776310336,431.54980012692147 L 446.6378165771196,437.28540055214904 L 433.50665776310336,443.0210009773766 L 438.7361072504769,456.36181437445987 L 425.39529385339364,451.13236488708634 L 419.65969342816607,464.2635237011026 L 413.9240930029385,451.13236488708634 L 400.58327960585524,456.36181437445987 L 405.81272909322877,443.0210009773766 L 392.6815702792125,437.28540055214904 L 405.81272909322877,431.54980012692147 L 400.58327960585524,418.2089867298382 L 413.9240930029385,423.43843621721174 Z" fill="none" stroke="#FFFFFF" stroke-width="1.3698257807967373" /><path d="M 479.6110782036184,410.3072774031955 L 485.34667862884595,423.43843621721174 L 498.6874920259292,418.2089867298382 L 493.4580425385557,431.54980012692147 L 506.58920135257193,437.28540055214904 L 493.4580425385557,443.0210009773766 L 498.6874920259292,456.36181437445987 L 485.34667862884595,451.13236488708634 L 479.6110782036184,464.2635237011026 L 473.8754777783908,451.13236488708634 L 460.53466438130755,456.36181437445987 L 465.7641138686811,443.0210009773766 L 452.6329550546648,437.28540055214904 L 465.7641138686811,431.54980012692147 L 460.53466438130755,418.2089867298382 L 473.8754777783908,423.43843621721174 Z" fill="none" stroke="#FFFFFF" stroke-width="1.3698257807967373" /><path d="M 539.5624629790707,410.3072774031955 L 545.2980634042982,423.43843621721174 L 558.6388768013815,418.2089867298382 L 553.409427314008,431.54980012692147 L 566.5405861280242,437.28540055214904 L 553.409427314008,443.0210009773766 L 558.6388768013815,456.36181437445987 L 545.2980634042982,451.13236488708634 L 539.5624629790707,464.2635237011026 L 533.8268625538432,451.13236488708634 L 520.4860491567599,456.36181437445987 L 525.7154986441334,443.0210009773766 L 512.5843398301172,437.28540055214904 L 525.7154986441334,431.54980012692147 L 520.4860491567599,418.2089867298382 L 533.8268625538431,423.43843621721174 Z" fill="none" stroke="#FFFFFF" stroke-width="1.3698257807967373" /><path d="M -29.97569238772615,462.22517661873724 L -24.240091962498582,475.3563354327535 L -10.899278565415326,470.12688594537997 L -16.128728052788865,483.4676993424632 L -2.9975692387726127,489.2032997676908 L -16.128728052788865,494.93890019291837 L -10.899278565415326,508.2797135900016 L -24.240091962498582,503.0502641026281 L -29.97569238772615,516.1814229166444 L -35.711292812953715,503.0502641026281 L -49.05210621003697,508.2797135900016 L -43.82265672266343,494.93890019291837 L -56.953815536679684,489.2032997676908 L -43.82265672266343,483.4676993424632 L -49.052106210036975,470.12688594537997 L -35.71129281295372,475.3563354327535 Z" fill="none" stroke="#FFFFFF" stroke-width="1.3698257807967373" /><path d="M 29.97569238772615,462.22517661873724 L 35.711292812953715,475.3563354327535 L 49.05210621003697,470.12688594537997 L 43.82265672266343,483.4676993424632 L 56.953815536679684,489.2032997676908 L 43.82265672266343,494.93890019291837 L 49.05210621003697,508.2797135900016 L 35.711292812953715,503.0502641026281 L 29.97569238772615,516.1814229166444 L 24.240091962498582,503.0502641026281 L 10.89927856541533,508.2797135900016 L 16.128728052788865,494.93890019291837 L 2.9975692387726127,489.2032997676908 L 16.128728052788865,483.4676993424632 L 10.899278565415322,470.12688594537997 L 24.24009196249857,475.3563354327535 Z" fill="none" stroke="#FFFFFF" stroke-width="1.3698257807967373" /><path d="M 89.92707716317844,462.22517661873724 L 95.66267758840601,475.3563354327535 L 109.00349098548926,470.12688594537997 L 103.77404149811572,483.4676993424632 L 116.90520031213197,489.2032997676908 L 103.77404149811572,494.93890019291837 L 109.00349098548926,508.2797135900016 L 95.66267758840601,503.0502641026281 L 89.92707716317844,516.1814229166444 L 84.19147673795086,503.0502641026281 L 70.85066334086761,508.2797135900016 L 76.08011282824116,494.93890019291837 L 62.9489540142249,489.2032997676908 L 76.08011282824116,483.4676993424632 L 70.85066334086761,470.12688594537997 L 84.19147673795086,475.3563354327535 Z" fill="none" stroke="#FFFFFF" stroke-width="1.3698257807967373" /><path d="M 149.87846193863072,462.22517661873724 L 155.6140623638583,475.3563354327535 L 168.95487576094155,470.12688594537997 L 163.72542627356802,483.4676993424632 L 176.85658508758425,489.2032997676908 L 163.72542627356802,494.93890019291837 L 168.95487576094155,508.2797135900016 L 155.6140623638583,503.0502641026281 L 149.87846193863072,516.1814229166444 L 144.14286151340315,503.0502641026281 L 130.8020481163199,508.2797135900016 L 136.03149760369345,494.93890019291837 L 122.90033878967719,489.2032997676908 L 136.03149760369342,483.4676993424632 L 130.8020481163199,470.12688594537997 L 144.14286151340315,475.3563354327535 Z" fill="none" stroke="#FFFFFF" stroke-width="1.3698257807967373" /><path d="M 209.82984671408303,462.22517661873724 L 215.5654471393106,475.3563354327535 L 228.90626053639386,470.12688594537997 L 223.67681104902033,483.4676993424632 L 236.80796986303656,489.2032997676908 L 223.67681104902033,494.93890019291837 L 228.90626053639386,508.2797135900016 L 215.5654471393106,503.0502641026281 L 209.82984671408303,516.1814229166444 L 204.09424628885546,503.0502641026281 L 190.7534328917722,508.2797135900016 L 195.98288237914576,494.93890019291837 L 182.8517235651295,489.2032997676908 L 195.98288237914574,483.4676993424632 L 190.7534328917722,470.12688594537997 L 204.09424628885546,475.3563354327535 Z" fill="none" stroke="#FFFFFF" stroke-width="1.3698257807967373" /><path d="M 269.78123148953534,462.22517661873724 L 275.5168319147629,475.3563354327535 L 288.85764531184617,470.12688594537997 L 283.62819582447264,483.4676993424632 L 296.7593546384889,489.2032997676908 L 283.62819582447264,494.93890019291837 L 288.85764531184617,508.2797135900016 L 275.5168319147629,503.0502641026281 L 269.78123148953534,516.1814229166444 L 264.04563106430777,503.0502641026281 L 250.70481766722452,508.2797135900016 L 255.93426715459807,494.93890019291837 L 242.80310834058182,489.2032997676908 L 255.93426715459805,483.4676993424632 L 250.70481766722452,470.12688594537997 L 264.04563106430777,475.3563354327535 Z" fill="none" stroke="#FFFFFF" stroke-width="1.3698257807967373" /><path d="M 329.7326162649876,462.22517661873724 L 335.4682166902152,475.3563354327535 L 348.8090300872984,470.12688594537997 L 343.5795805999249,483.4676993424632 L 356.71073941394116,489.2032997676908 L 343.5795805999249,494.93890019291837 L 348.8090300872984,508.2797135900016 L 335.4682166902152,503.0502641026281 L 329.7326162649876,516.1814229166444 L 323.99701583976,503.0502641026281 L 310.6562024426768,508.2797135900016 L 315.8856519300503,494.93890019291837 L 302.75449311603404,489.2032997676908 L 315.8856519300503,483.4676993424632 L 310.6562024426768,470.12688594537997 L 323.99701583976,475.3563354327535 Z" fill="none" stroke="#FFFFFF" stroke-width="1.3698257807967373" /><path d="M 389.6840010404399,462.22517661873724 L 395.4196014656675,475.3563354327535 L 408.76041486275074,470.12688594537997 L 403.5309653753772,483.4676993424632 L 416.66212418939347,489.2032997676908 L 403.5309653753772,494.93890019291837 L 408.76041486275074,508.2797135900016 L 395.4196014656675,503.0502641026281 L 389.6840010404399,516.1814229166444 L 383.94840061521234,503.0502641026281 L 370.6075872181291,508.2797135900016 L 375.8370367055026,494.93890019291837 L 362.70587789148635,489.2032997676908 L 375.8370367055026,483.4676993424632 L 370.6075872181291,470.12688594537997 L 383.94840061521234,475.3563354327535 Z" fill="none" stroke="#FFFFFF" stroke-width="1.3698257807967373" /><path d="M 449.6353858158922,462.22517661873724 L 455.3709862411198,475.3563354327535 L 468.71179963820305,470.12688594537997 L 463.4823501508295,483.4676993424632 L 476.6135089648458,489.2032997676908 L 463.4823501508295,494.93890019291837 L 468.71179963820305,508.2797135900016 L 455.3709862411198,503.0502641026281 L 449.6353858158922,516.1814229166444 L 443.89978539066465,503.0502641026281 L 430.5589719935814,508.2797135900016 L 435.7884214809549,494.93890019291837 L 422.65726266693866,489.2032997676908 L 435.7884214809549,483.4676993424632 L 430.5589719935814,470.12688594537997 L 443.89978539066465,475.3563354327535 Z" fill="none" stroke="#FFFFFF" stroke-width="1.3698257807967373" /><path d="M 509.58677059134453,462.22517661873724 L 515.3223710165721,475.3563354327535 L 528.6631844136554,470.12688594537997 L 523.4337349262818,483.4676993424632 L 536.5648937402981,489.2032997676908 L 523.4337349262818,494.93890019291837 L 528.6631844136554,508.2797135900016 L 515.3223710165721,503.0502641026281 L 509.58677059134453,516.1814229166444 L 503.85117016611696,503.0502641026281 L 490.5103567690337,508.2797135900016 L 495.73980625640723,494.93890019291837 L 482.608647442391,489.2032997676908 L 495.73980625640723,483.4676993424632 L 490.5103567690337,470.12688594537997 L 503.85117016611696,475.3563354327535 Z" fill="none" stroke="#FFFFFF" stroke-width="1.3698257807967373" /><path d="M 569.5381553667969,462.22517661873724 L 575.2737557920244,475.3563354327535 L 588.6145691891077,470.12688594537997 L 583.3851197017342,483.4676993424632 L 596.5162785157504,489.2032997676908 L 583.3851197017342,494.93890019291837 L 588.6145691891077,508.2797135900016 L 575.2737557920244,503.0502641026281 L 569.5381553667969,516.1814229166444 L 563.8025549415694,503.0502641026281 L 550.4617415444861,508.2797135900016 L 555.6911910318596,494.93890019291837 L 542.5600322178434,489.2032997676908 L 555.6911910318596,483.4676993424632 L 550.4617415444861,470.12688594537997 L 563.8025549415693,475.3563354327535 Z" fill="none" stroke="#FFFFFF" stroke-width="1.3698257807967373" /><line x1="26.978123148953536" y1="21.94220682781554" x2="32.97326162649876" y2="21.94220682781554" stroke="#FFFFFF" stroke-width="0.5"/><line x1="86.92950792440584" y1="21.94220682781554" x2="92.92464640195107" y2="21.94220682781554" stroke="#FFFFFF" stroke-width="0.5"/><line x1="146.88089269985812" y1="21.94220682781554" x2="152.87603117740335" y2="21.94220682781554" stroke="#FFFFFF" stroke-width="0.5"/><line x1="206.8322774753104" y1="21.94220682781554" x2="212.82741595285566" y2="21.94220682781554" stroke="#FFFFFF" stroke-width="0.5"/><line x1="266.78366225076275" y1="21.94220682781554" x2="272.77880072830794" y2="21.94220682781554" stroke="#FFFFFF" stroke-width="0.5"/><line x1="326.73504702621506" y1="21.94220682781554" x2="332.7301855037602" y2="21.94220682781554" stroke="#FFFFFF" stroke-width="0.5"/><line x1="386.6864318016673" y1="21.94220682781554" x2="392.6815702792125" y2="21.94220682781554" stroke="#FFFFFF" stroke-width="0.5"/><line x1="446.6378165771196" y1="21.94220682781554" x2="452.6329550546648" y2="21.94220682781554" stroke="#FFFFFF" stroke-width="0.5"/><line x1="56.953815536679684" y1="73.86010604335723" x2="62.9489540142249" y2="73.86010604335723" stroke="#FFFFFF" stroke-width="0.5"/><line x1="116.90520031213197" y1="73.86010604335723" x2="122.90033878967719" y2="73.86010604335723" stroke="#FFFFFF" stroke-width="0.5"/><line x1="176.85658508758425" y1="73.86010604335723" x2="182.8517235651295" y2="73.86010604335723" stroke="#FFFFFF" stroke-width="0.5"/><line x1="236.80796986303656" y1="73.86010604335723" x2="242.80310834058182" y2="73.86010604335723" stroke="#FFFFFF" stroke-width="0.5"/><line x1="296.7593546384889" y1="73.86010604335723" x2="302.75449311603404" y2="73.86010604335723" stroke="#FFFFFF" stroke-width="0.5"/><line x1="356.71073941394116" y1="73.86010604335723" x2="362.70587789148635" y2="73.86010604335723" stroke="#FFFFFF" stroke-width="0.5"/><line x1="416.66212418939347" y1="73.86010604335723" x2="422.65726266693866" y2="73.86010604335723" stroke="#FFFFFF" stroke-width="0.5"/><line x1="476.6135089648458" y1="73.86010604335723" x2="482.608647442391" y2="73.86010604335723" stroke="#FFFFFF" stroke-width="0.5"/><line x1="26.978123148953536" y1="125.7780052588989" x2="32.97326162649876" y2="125.7780052588989" stroke="#FFFFFF" stroke-width="0.5"/><line x1="86.92950792440584" y1="125.7780052588989" x2="92.92464640195107" y2="125.7780052588989" stroke="#FFFFFF" stroke-width="0.5"/><line x1="146.88089269985812" y1="125.7780052588989" x2="152.87603117740335" y2="125.7780052588989" stroke="#FFFFFF" stroke-width="0.5"/><line x1="206.8322774753104" y1="125.7780052588989" x2="212.82741595285566" y2="125.7780052588989" stroke="#FFFFFF" stroke-width="0.5"/><line x1="266.78366225076275" y1="125.7780052588989" x2="272.77880072830794" y2="125.7780052588989" stroke="#FFFFFF" stroke-width="0.5"/><line x1="326.73504702621506" y1="125.7780052588989" x2="332.7301855037602" y2="125.7780052588989" stroke="#FFFFFF" stroke-width="0.5"/><line x1="386.6864318016673" y1="125.7780052588989" x2="392.6815702792125" y2="125.7780052588989" stroke="#FFFFFF" stroke-width="0.5"/><line x1="446.6378165771196" y1="125.7780052588989" x2="452.6329550546648" y2="125.7780052588989" stroke="#FFFFFF" stroke-width="0.5"/><line x1="56.953815536679684" y1="177.6959044744406" x2="62.9489540142249" y2="177.6959044744406" stroke="#FFFFFF" stroke-width="0.5"/><line x1="116.90520031213197" y1="177.6959044744406" x2="122.90033878967719" y2="177.6959044744406" stroke="#FFFFFF" stroke-width="0.5"/><line x1="176.85658508758425" y1="177.6959044744406" x2="182.8517235651295" y2="177.6959044744406" stroke="#FFFFFF" stroke-width="0.5"/><line x1="236.80796986303656" y1="177.6959044744406" x2="242.80310834058182" y2="177.6959044744406" stroke="#FFFFFF" stroke-width="0.5"/><line x1="296.7593546384889" y1="177.6959044744406" x2="302.75449311603404" y2="177.6959044744406" stroke="#FFFFFF" stroke-width="0.5"/><line x1="356.71073941394116" y1="177.6959044744406" x2="362.70587789148635" y2="177.6959044744406" stroke="#FFFFFF" stroke-width="0.5"/><line x1="416.66212418939347" y1="177.6959044744406" x2="422.65726266693866" y2="177.6959044744406" stroke="#FFFFFF" stroke-width="0.5"/><line x1="476.6135089648458" y1="177.6959044744406" x2="482.608647442391" y2="177.6959044744406" stroke="#FFFFFF" stroke-width="0.5"/><line x1="26.978123148953536" y1="229.61380368998232" x2="32.97326162649876" y2="229.61380368998232" stroke="#FFFFFF" stroke-width="0.5"/><line x1="86.92950792440584" y1="229.61380368998232" x2="92.92464640195107" y2="229.61380368998232" stroke="#FFFFFF" stroke-width="0.5"/><line x1="146.88089269985812" y1="229.61380368998232" x2="152.87603117740335" y2="229.61380368998232" stroke="#FFFFFF" stroke-width="0.5"/><line x1="206.8322774753104" y1="229.61380368998232" x2="212.82741595285566" y2="229.61380368998232" stroke="#FFFFFF" stroke-width="0.5"/><line x1="266.78366225076275" y1="229.61380368998232" x2="272.77880072830794" y2="229.61380368998232" stroke="#FFFFFF" stroke-width="0.5"/><line x1="326.73504702621506" y1="229.61380368998232" x2="332.7301855037602" y2="229.61380368998232" stroke="#FFFFFF" stroke-width="0.5"/><line x1="386.6864318016673" y1="229.61380368998232" x2="392.6815702792125" y2="229.61380368998232" stroke="#FFFFFF" stroke-width="0.5"/><line x1="446.6378165771196" y1="229.61380368998232" x2="452.6329550546648" y2="229.61380368998232" stroke="#FFFFFF" stroke-width="0.5"/><line x1="56.953815536679684" y1="281.53170290552396" x2="62.9489540142249" y2="281.53170290552396" stroke="#FFFFFF" stroke-width="0.5"/><line x1="116.90520031213197" y1="281.53170290552396" x2="122.90033878967719" y2="281.53170290552396" stroke="#FFFFFF" stroke-width="0.5"/><line x1="176.85658508758425" y1="281.53170290552396" x2="182.8517235651295" y2="281.53170290552396" stroke="#FFFFFF" stroke-width="0.5"/><line x1="236.80796986303656" y1="281.53170290552396" x2="242.80310834058182" y2="281.53170290552396" stroke="#FFFFFF" stroke-width="0.5"/><line x1="296.7593546384889" y1="281.53170290552396" x2="302.75449311603404" y2="281.53170290552396" stroke="#FFFFFF" stroke-width="0.5"/><line x1="356.71073941394116" y1="281.53170290552396" x2="362.70587789148635" y2="281.53170290552396" stroke="#FFFFFF" stroke-width="0.5"/><line x1="416.66212418939347" y1="281.53170290552396" x2="422.65726266693866" y2="281.53170290552396" stroke="#FFFFFF" stroke-width="0.5"/><line x1="476.6135089648458" y1="281.53170290552396" x2="482.608647442391" y2="281.53170290552396" stroke="#FFFFFF" stroke-width="0.5"/><line x1="26.978123148953536" y1="333.44960212106565" x2="32.97326162649876" y2="333.44960212106565" stroke="#FFFFFF" stroke-width="0.5"/><line x1="86.92950792440584" y1="333.44960212106565" x2="92.92464640195107" y2="333.44960212106565" stroke="#FFFFFF" stroke-width="0.5"/><line x1="146.88089269985812" y1="333.44960212106565" x2="152.87603117740335" y2="333.44960212106565" stroke="#FFFFFF" stroke-width="0.5"/><line x1="206.8322774753104" y1="333.44960212106565" x2="212.82741595285566" y2="333.44960212106565" stroke="#FFFFFF" stroke-width="0.5"/><line x1="266.78366225076275" y1="333.44960212106565" x2="272.77880072830794" y2="333.44960212106565" stroke="#FFFFFF" stroke-width="0.5"/><line x1="326.73504702621506" y1="333.44960212106565" x2="332.7301855037602" y2="333.44960212106565" stroke="#FFFFFF" stroke-width="0.5"/><line x1="386.6864318016673" y1="333.44960212106565" x2="392.6815702792125" y2="333.44960212106565" stroke="#FFFFFF" stroke-width="0.5"/><line x1="446.6378165771196" y1="333.44960212106565" x2="452.6329550546648" y2="333.44960212106565" stroke="#FFFFFF" stroke-width="0.5"/><line x1="56.953815536679684" y1="385.36750133660735" x2="62.9489540142249" y2="385.36750133660735" stroke="#FFFFFF" stroke-width="0.5"/><line x1="116.90520031213197" y1="385.36750133660735" x2="122.90033878967719" y2="385.36750133660735" stroke="#FFFFFF" stroke-width="0.5"/><line x1="176.85658508758425" y1="385.36750133660735" x2="182.8517235651295" y2="385.36750133660735" stroke="#FFFFFF" stroke-width="0.5"/><line x1="236.80796986303656" y1="385.36750133660735" x2="242.80310834058182" y2="385.36750133660735" stroke="#FFFFFF" stroke-width="0.5"/><line x1="296.7593546384889" y1="385.36750133660735" x2="302.75449311603404" y2="385.36750133660735" stroke="#FFFFFF" stroke-width="0.5"/><line x1="356.71073941394116" y1="385.36750133660735" x2="362.70587789148635" y2="385.36750133660735" stroke="#FFFFFF" stroke-width="0.5"/><line x1="416.66212418939347" y1="385.36750133660735" x2="422.65726266693866" y2="385.36750133660735" stroke="#FFFFFF" stroke-width="0.5"/><line x1="476.6135089648458" y1="385.36750133660735" x2="482.608647442391" y2="385.36750133660735" stroke="#FFFFFF" stroke-width="0.5"/><line x1="26.978123148953536" y1="437.28540055214904" x2="32.97326162649876" y2="437.28540055214904" stroke="#FFFFFF" stroke-width="0.5"/><line x1="86.92950792440584" y1="437.28540055214904" x2="92.92464640195107" y2="437.28540055214904" stroke="#FFFFFF" stroke-width="0.5"/><line x1="146.88089269985812" y1="437.28540055214904" x2="152.87603117740335" y2="437.28540055214904" stroke="#FFFFFF" stroke-width="0.5"/><line x1="206.8322774753104" y1="437.28540055214904" x2="212.82741595285566" y2="437.28540055214904" stroke="#FFFFFF" stroke-width="0.5"/><line x1="266.78366225076275" y1="437.28540055214904" x2="272.77880072830794" y2="437.28540055214904" stroke="#FFFFFF" stroke-width="0.5"/><line x1="326.73504702621506" y1="437.28540055214904" x2="332.7301855037602" y2="437.28540055214904" stroke="#FFFFFF" stroke-width="0.5"/><line x1="386.6864318016673" y1="437.28540055214904" x2="392.6815702792125" y2="437.28540055214904" stroke="#FFFFFF" stroke-width="0.5"/><line x1="446.6378165771196" y1="437.28540055214904" x2="452.6329550546648" y2="437.28540055214904" stroke="#FFFFFF" stroke-width="0.5"/><line x1="56.953815536679684" y1="489.2032997676908" x2="62.9489540142249" y2="489.2032997676908" stroke="#FFFFFF" stroke-width="0.5"/><line x1="116.90520031213197" y1="489.2032997676908" x2="122.90033878967719" y2="489.2032997676908" stroke="#FFFFFF" stroke-width="0.5"/><line x1="176.85658508758425" y1="489.2032997676908" x2="182.8517235651295" y2="489.2032997676908" stroke="#FFFFFF" stroke-width="0.5"/><line x1="236.80796986303656" y1="489.2032997676908" x2="242.80310834058182" y2="489.2032997676908" stroke="#FFFFFF" stroke-width="0.5"/><line x1="296.7593546384889" y1="489.2032997676908" x2="302.75449311603404" y2="489.2032997676908" stroke="#FFFFFF" stroke-width="0.5"/><line x1="356.71073941394116" y1="489.2032997676908" x2="362.70587789148635" y2="489.2032997676908" stroke="#FFFFFF" stroke-width="0.5"/><line x1="416.66212418939347" y1="489.2032997676908" x2="422.65726266693866" y2="489.2032997676908" stroke="#FFFFFF" stroke-width="0.5"/><line x1="476.6135089648458" y1="489.2032997676908" x2="482.608647442391" y2="489.2032997676908" stroke="#FFFFFF" stroke-width="0.5"/></g></svg>