<svg xmlns="http://www.w3.org/2000/svg" width="512" height="512" viewBox="0 0 512 512"><rect x="0" y="0" width="512" height="512" fill="#000000"/><g opacity="0.15535561447281188"><path d="M -71.42500524753261,-135.70750997031195 L -57.75842216512244,-104.41905547638592 L -25.970410246399062,-116.87960024866615 L -38.43095501867929,-85.09158832994277 L -7.14250052475326,-71.42500524753261 L -38.43095501867929,-57.75842216512245 L -25.970410246399062,-25.97041024639907 L -57.75842216512244,-38.43095501867929 L -71.42500524753261,-7.14250052475326 L -85.09158832994277,-38.43095501867929 L -116.87960024866615,-25.970410246399062 L -104.41905547638592,-57.758422165122425 L -135.70750997031195,-71.4250052475326 L -104.41905547638592,-85.09158832994278 L -116.87960024866616,-116.87960024866615 L -85.0915883299428,-104.41905547638592 Z" fill="none" stroke="#FFFFFF" stroke-width="0.9858329894420844" /><path d="M 71.42500524753261,-135.70750997031195 L 85.09158832994278,-104.41905547638592 L 116.87960024866615,-116.87960024866615 L 104.41905547638592,-85.09158832994277 L 135.70750997031195,-71.42500524753261 L 104.41905547638592,-57.75842216512245 L 116.87960024866615,-25.97041024639907 L 85.09158832994278,-38.43095501867929 L 71.42500524753261,-7.14250052475326 L 57.75842216512245,-38.43095501867929 L 25.97041024639907,-25.970410246399062 L 38.430955018679306,-57.758422165122425 L 7.14250052475326,-71.4250052475326 L 38.4309550186793,-85.09158832994278 L 25.970410246399055,-116.87960024866615 L 57.758422165122425,-104.41905547638592 Z" fill="none" stroke="#FFFFFF" stroke-width="0.9858329894420844" /><path d="M 214.27501574259782,-135.70750997031195 L 227.941598825008,-104.41905547638592 L 259.72961074373137,-116.87960024866615 L 247.26906597145114,-85.09158832994277 L 278.55752046537714,-71.42500524753261 L 247.26906597145114,-57.75842216512245 L 259.72961074373137,-25.97041024639907 L 227.941598825008,-38.43095501867929 L 214.27501574259782,-7.14250052475326 L 200.60843266018765,-38.43095501867929 L 168.82042074146426,-25.970410246399062 L 181.28096551374452,-57.758422165122425 L 149.99251101981847,-71.4250052475326 L 181.2809655137445,-85.09158832994278 L 168.82042074146426,-116.87960024866615 L 200.60843266018765,-104.41905547638592 Z" fill="none" stroke="#FFFFFF" stroke-width="0.9858329894420844" /><path d="M 357.125026237663,-135.70750997031195 L 370.7916093200732,-104.41905547638592 L 402.57962123879656,-116.87960024866615 L 390.11907646651633,-85.09158832994277 L 421.4075309604424,-71.42500524753261 L 390.11907646651633,-57.75842216512245 L 402.57962123879656,-25.97041024639907 L 370.7916093200732,-38.43095501867929 L 357.125026237663,-7.14250052475326 L 343.45844315525284,-38.43095501867929 L 311.67043123652945,-25.970410246399062 L 324.1309760088097,-57.758422165122425 L 292.84252151488363,-71.4250052475326 L 324.1309760088097,-85.09158832994278 L 311.67043123652945,-116.87960024866615 L 343.45844315525284,-104.41905547638592 Z" fill="none" stroke="#FFFFFF" stroke-width="0.9858329894420844" /><path d="M 499.97503673272826,-135.70750997031195 L 513.6416198151384,-104.41905547638592 L 545.4296317338618,-116.87960024866615 L 532.9690869615815,-85.09158832994277 L 564.2575414555076,-71.42500524753261 L 532.9690869615815,-57.75842216512245 L 545.4296317338618,-25.97041024639907 L 513.6416198151384,-38.43095501867929 L 499.97503673272826,-7.14250052475326 L 486.3084536503181,-38.43095501867929 L 454.5204417315947,-25.970410246399062 L 466.98098650387493,-57.758422165122425 L 435.6925320099489,-71.4250052475326 L 466.98098650387493,-85.09158832994278 L 454.5204417315947,-116.87960024866615 L 486.3084536503181,-104.41905547638592 Z" fill="none" stroke="#FFFFFF" stroke-width="0.9858329894420844" /><path d="M 642.8250472277936,-135.70750997031195 L 656.4916303102037,-104.41905547638592 L 688.2796422289271,-116.87960024866615 L 675.8190974566469,-85.09158832994277 L 707.1075519505729,-71.42500524753261 L 675.8190974566469,-57.75842216512245 L 688.2796422289271,-25.97041024639907 L 656.4916303102037,-38.43095501867929 L 642.8250472277936,-7.14250052475326 L 629.1584641453834,-38.43095501867929 L 597.3704522266601,-25.970410246399062 L 609.8309969989402,-57.758422165122425 L 578.5425425050142,-71.4250052475326 L 609.8309969989402,-85.09158832994278 L 597.3704522266601,-116.87960024866615 L 629.1584641453834,-104.41905547638592 Z" fill="none" stroke="#FFFFFF" stroke-width="0.9858329894420844" /><path d="M 3.936168182496318e-15,-11.999400881585487 L 13.666583082410167,19.289053612340545 L 45.45459500113355,6.828508840060323 L 32.99405022885332,38.6165207587837 L 64.28250472277935,52.283103841193864 L 32.99405022885332,65.94968692360402 L 45.45459500113355,97.7376988423274 L 13.666583082410167,85.27715407004717 L 3.936168182496318e-15,116.56560856397321 L -13.666583082410162,85.27715407004717 L -45.45459500113354,97.7376988423274 L -32.994050228853304,65.94968692360405 L -64.28250472277935,52.28310384119387 L -32.99405022885331,38.61652075878369 L -45.454595001133555,6.828508840060323 L -13.666583082410185,19.28905361234056 Z" fill="none" stroke="#FFFFFF" stroke-width="0.9858329894420844" /><path d="M 142.85001049506522,-11.999400881585487 L 156.5165935774754,19.289053612340545 L 188.30460549619877,6.828508840060323 L 175.84406072391855,38.6165207587837 L 207.13251521784457,52.283103841193864 L 175.84406072391855,65.94968692360402 L 188.30460549619877,97.7376988423274 L 156.5165935774754,85.27715407004717 L 142.85001049506522,116.56560856397321 L 129.18342741265505,85.27715407004717 L 97.39541549393168,97.7376988423274 L 109.85596026621192,65.94968692360405 L 78.56750577228587,52.28310384119387 L 109.85596026621191,38.61652075878369 L 97.39541549393167,6.828508840060323 L 129.18342741265502,19.28905361234056 Z" fill="none" stroke="#FFFFFF" stroke-width="0.9858329894420844" /><path d="M 285.70002099013044,-11.999400881585487 L 299.3666040725406,19.289053612340545 L 331.154615991264,6.828508840060323 L 318.69407121898377,38.6165207587837 L 349.9825257129098,52.283103841193864 L 318.69407121898377,65.94968692360402 L 331.154615991264,97.7376988423274 L 299.3666040725406,85.27715407004717 L 285.70002099013044,116.56560856397321 L 272.03343790772027,85.27715407004717 L 240.24542598899689,97.7376988423274 L 252.70597076127714,65.94968692360405 L 221.4175162673511,52.28310384119387 L 252.70597076127711,38.61652075878369 L 240.24542598899689,6.828508840060323 L 272.03343790772027,19.28905361234056 Z" fill="none" stroke="#FFFFFF" stroke-width="0.9858329894420844" /><path d="M 428.55003148519563,-11.999400881585487 L 442.2166145676058,19.289053612340545 L 474.0046264863292,6.828508840060323 L 461.54408171404896,38.6165207587837 L 492.83253620797495,52.283103841193864 L 461.54408171404896,65.94968692360402 L 474.0046264863292,97.7376988423274 L 442.2166145676058,85.27715407004717 L 428.55003148519563,116.56560856397321 L 414.88344840278546,85.27715407004717 L 383.0954364840621,97.7376988423274 L 395.5559812563423,65.94968692360405 L 364.2675267624163,52.28310384119387 L 395.5559812563423,38.61652075878369 L 383.0954364840621,6.828508840060323 L 414.88344840278546,19.28905361234056 Z" fill="none" stroke="#FFFFFF" stroke-width="0.9858329894420844" /><path d="M 571.4000419802609,-11.999400881585487 L 585.066625062671,19.289053612340545 L 616.8546369813944,6.828508840060323 L 604.3940922091142,38.6165207587837 L 635.6825467030402,52.283103841193864 L 604.3940922091142,65.94968692360402 L 616.8546369813944,97.7376988423274 L 585.066625062671,85.27715407004717 L 571.4000419802609,116.56560856397321 L 557.7334588978507,85.27715407004717 L 525.9454469791274,97.7376988423274 L 538.4059917514076,65.94968692360405 L 507.11753725748156,52.28310384119387 L 538.4059917514076,38.61652075878369 L 525.9454469791274,6.828508840060323 L 557.7334588978507,19.28905361234056 Z" fill="none" stroke="#FFFFFF" stroke-width="0.9858329894420844" /><path d="M -71.42500524753261,111.70870820714097 L -57.75842216512244,142.997162701067 L -25.970410246399062,130.53661792878677 L -38.43095501867929,162.32462984751015 L -7.14250052475326,175.99121292992032 L -38.43095501867929,189.6577960123305 L -25.970410246399062,221.44580793105388 L -57.75842216512244,208.98526315877365 L -71.42500524753261,240.27371765269967 L -85.09158832994277,208.98526315877365 L -116.87960024866615,221.44580793105388 L -104.41905547638592,189.6577960123305 L -135.70750997031195,175.99121292992032 L -104.41905547638592,162.32462984751015 L -116.87960024866616,130.53661792878677 L -85.0915883299428,142.99716270106703 Z" fill="none" stroke="#FFFFFF" stroke-width="0.9858329894420844" /><path d="M 71.42500524753261,111.70870820714097 L 85.09158832994278,142.997162701067 L 116.87960024866615,130.53661792878677 L 104.41905547638592,162.32462984751015 L 135.70750997031195,175.99121292992032 L 104.41905547638592,189.6577960123305 L 116.87960024866615,221.44580793105388 L 85.09158832994278,208.98526315877365 L 71.42500524753261,240.27371765269967 L 57.75842216512245,208.98526315877365 L 25.97041024639907,221.44580793105388 L 38.430955018679306,189.6577960123305 L 7.14250052475326,175.99121292992032 L 38.4309550186793,162.32462984751015 L 25.970410246399055,130.53661792878677 L 57.758422165122425,142.99716270106703 Z" fill="none" stroke="#FFFFFF" stroke-width="0.9858329894420844" /><path d="M 214.27501574259782,111.70870820714097 L 227.941598825008,142.997162701067 L 259.72961074373137,130.53661792878677 L 247.26906597145114,162.32462984751015 L 278.55752046537714,175.99121292992032 L 247.26906597145114,189.6577960123305 L 259.72961074373137,221.44580793105388 L 227.941598825008,208.98526315877365 L 214.27501574259782,240.27371765269967 L 200.60843266018765,208.98526315877365 L 168.82042074146426,221.44580793105388 L 181.28096551374452,189.6577960123305 L 149.99251101981847,175.99121292992032 L 181.2809655137445,162.32462984751015 L 168.82042074146426,130.53661792878677 L 200.60843266018765,142.99716270106703 Z" fill="none" stroke="#FFFFFF" stroke-width="0.9858329894420844" /><path d="M 357.125026237663,111.70870820714097 L 370.7916093200732,142.997162701067 L 402.57962123879656,130.53661792878677 L 390.11907646651633,162.32462984751015 L 421.4075309604424,175.99121292992032 L 390.11907646651633,189.6577960123305 L 402.57962123879656,221.44580793105388 L 370.7916093200732,208.98526315877365 L 357.125026237663,240.27371765269967 L 343.45844315525284,208.98526315877365 L 311.67043123652945,221.44580793105388 L 324.1309760088097,189.6577960123305 L 292.84252151488363,175.99121292992032 L 324.1309760088097,162.32462984751015 L 311.67043123652945,130.53661792878677 L 343.45844315525284,142.99716270106703 Z" fill="none" stroke="#FFFFFF" stroke-width="0.9858329894420844" /><path d="M 499.97503673272826,111.70870820714097 L 513.6416198151384,142.997162701067 L 545.4296317338618,130.53661792878677 L 532.9690869615815,162.32462984751015 L 564.2575414555076,175.99121292992032 L 532.9690869615815,189.6577960123305 L 545.4296317338618,221.44580793105388 L 513.6416198151384,208.98526315877365 L 499.97503673272826,240.27371765269967 L 486.3084536503181,208.98526315877365 L 454.5204417315947,221.44580793105388 L 466.98098650387493,189.6577960123305 L 435.6925320099489,175.99121292992032 L 466.98098650387493,162.32462984751015 L 454.5204417315947,130.53661792878677 L 486.3084536503181,142.99716270106703 Z" fill="none" stroke="#FFFFFF" stroke-width="0.9858329894420844" /><path d="M 642.8250472277936,111.70870820714097 L 656.4916303102037,142.997162701067 L 688.2796422289271,130.53661792878677 L 675.8190974566469,162.32462984751015 L 707.1075519505729,175.99121292992032 L 675.8190974566469,189.6577960123305 L 688.2796422289271,221.44580793105388 L 656.4916303102037,208.98526315877365 L 642.8250472277936,240.27371765269967 L 629.1584641453834,208.98526315877365 L 597.3704522266601,221.44580793105388 L 609.8309969989402,189.6577960123305 L 578.5425425050142,175.99121292992032 L 609.8309969989402,162.32462984751015 L 597.3704522266601,130.53661792878677 L 629.1584641453834,142.99716270106703 Z" fill="none" stroke="#FFFFFF" stroke-width="0.9858329894420844" /><path d="M 3.936168182496318e-15,235.41681729586745 L 13.666583082410167,266.70527178979347 L 45.45459500113355,254.24472701751324 L 32.99405022885332,286.0327389362366 L 64.28250472277935,299.6993220186468 L 32.99405022885332,313.36590510105697 L 45.45459500113355,345.15391701978035 L 13.666583082410167,332.6933722475001 L 3.936168182496318e-15,363.9818267414262 L -13.666583082410162,332.6933722475001 L -45.45459500113354,345.15391701978035 L -32.994050228853304,313.36590510105697 L -64.28250472277935,299.6993220186468 L -32.99405022885331,286.0327389362366 L -45.454595001133555,254.24472701751324 L -13.666583082410185,266.70527178979347 Z" fill="none" stroke="#FFFFFF" stroke-width="0.9858329894420844" /><path d="M 142.85001049506522,235.41681729586745 L 156.5165935774754,266.70527178979347 L 188.30460549619877,254.24472701751324 L 175.84406072391855,286.0327389362366 L 207.13251521784457,299.6993220186468 L 175.84406072391855,313.36590510105697 L 188.30460549619877,345.15391701978035 L 156.5165935774754,332.6933722475001 L 142.85001049506522,363.9818267414262 L 129.18342741265505,332.6933722475001 L 97.39541549393168,345.15391701978035 L 109.85596026621192,313.36590510105697 L 78.56750577228587,299.6993220186468 L 109.85596026621191,286.0327389362366 L 97.39541549393167,254.24472701751324 L 129.18342741265502,266.70527178979347 Z" fill="none" stroke="#FFFFFF" stroke-width="0.9858329894420844" /><path d="M 285.70002099013044,235.41681729586745 L 299.3666040725406,266.70527178979347 L 331.154615991264,254.24472701751324 L 318.69407121898377,286.0327389362366 L 349.9825257129098,299.6993220186468 L 318.69407121898377,313.36590510105697 L 331.154615991264,345.15391701978035 L 299.3666040725406,332.6933722475001 L 285.70002099013044,363.9818267414262 L 272.03343790772027,332.6933722475001 L 240.24542598899689,345.15391701978035 L 252.70597076127714,313.36590510105697 L 221.4175162673511,299.6993220186468 L 252.70597076127711,286.0327389362366 L 240.24542598899689,254.24472701751324 L 272.03343790772027,266.70527178979347 Z" fill="none" stroke="#FFFFFF" stroke-width="0.9858329894420844" /><path d="M 428.55003148519563,235.41681729586745 L 442.2166145676058,266.70527178979347 L 474.0046264863292,254.24472701751324 L 461.54408171404896,286.0327389362366 L 492.83253620797495,299.6993220186468 L 461.54408171404896,313.36590510105697 L 474.0046264863292,345.15391701978035 L 442.2166145676058,332.6933722475001 L 428.55003148519563,363.9818267414262 L 414.88344840278546,332.6933722475001 L 383.0954364840621,345.15391701978035 L 395.5559812563423,313.36590510105697 L 364.2675267624163,299.6993220186468 L 395.5559812563423,286.0327389362366 L 383.0954364840621,254.24472701751324 L 414.88344840278546,266.70527178979347 Z" fill="none" stroke="#FFFFFF" stroke-width="0.9858329894420844" /><path d="M 571.4000419802609,235.41681729586745 L 585.066625062671,266.70527178979347 L 616.8546369813944,254.24472701751324 L 604.3940922091142,286.0327389362366 L 635.6825467030402,299.6993220186468 L 604.3940922091142,313.36590510105697 L 616.8546369813944,345.15391701978035 L 585.066625062671,332.6933722475001 L 571.4000419802609,363.9818267414262 L 557.7334588978507,332.6933722475001 L 525.9454469791274,345.15391701978035 L 538.4059917514076,313.36590510105697 L 507.11753725748156,299.6993220186468 L 538.4059917514076,286.0327389362366 L 525.9454469791274,254.24472701751324 L 557.7334588978507,266.70527178979347 Z" fill="none" stroke="#FFFFFF" stroke-width="0.9858329894420844" /><path d="M -71.42500524753261,359.1249263845939 L -57.75842216512244,390.41338087851994 L -25.970410246399062,377.9528361062397 L -38.43095501867929,409.7408480249631 L -7.14250052475326,423.40743110737327 L -38.43095501867929,437.07401418978344 L -25.970410246399062,468.8620261085068 L -57.75842216512244,456.4014813362266 L -71.42500524753261,487.68993583015265 L -85.09158832994277,456.4014813362266 L -116.87960024866615,468.8620261085068 L -104.41905547638592,437.07401418978344 L -135.70750997031195,423.40743110737327 L -104.41905547638592,409.7408480249631 L -116.87960024866616,377.9528361062397 L -85.0915883299428,390.41338087851994 Z" fill="none" stroke="#FFFFFF" stroke-width="0.9858329894420844" /><path d="M 71.42500524753261,359.1249263845939 L 85.09158832994278,390.41338087851994 L 116.87960024866615,377.9528361062397 L 104.41905547638592,409.7408480249631 L 135.70750997031195,423.40743110737327 L 104.41905547638592,437.07401418978344 L 116.87960024866615,468.8620261085068 L 85.09158832994278,456.4014813362266 L 71.42500524753261,487.68993583015265 L 57.75842216512245,456.4014813362266 L 25.97041024639907,468.8620261085068 L 38.430955018679306,437.07401418978344 L 7.14250052475326,423.40743110737327 L 38.4309550186793,409.7408480249631 L 25.970410246399055,377.9528361062397 L 57.758422165122425,390.41338087851994 Z" fill="none" stroke="#FFFFFF" stroke-width="0.9858329894420844" /><path d="M 214.27501574259782,359.1249263845939 L 227.941598825008,390.41338087851994 L 259.72961074373137,377.9528361062397 L 247.26906597145114,409.7408480249631 L 278.55752046537714,423.40743110737327 L 247.26906597145114,437.07401418978344 L 259.72961074373137,468.8620261085068 L 227.941598825008,456.4014813362266 L 214.27501574259782,487.68993583015265 L 200.60843266018765,456.4014813362266 L 168.82042074146426,468.8620261085068 L 181.28096551374452,437.07401418978344 L 149.99251101981847,423.40743110737327 L 181.2809655137445,409.7408480249631 L 168.82042074146426,377.9528361062397 L 200.60843266018765,390.41338087851994 Z" fill="none" stroke="#FFFFFF" stroke-width="0.9858329894420844" /><path d="M 357.125026237663,359.1249263845939 L 370.7916093200732,390.41338087851994 L 402.57962123879656,377.9528361062397 L 390.11907646651633,409.7408480249631 L 421.4075309604424,423.40743110737327 L 390.11907646651633,437.07401418978344 L 402.57962123879656,468.8620261085068 L 370.7916093200732,456.4014813362266 L 357.125026237663,487.68993583015265 L 343.45844315525284,456.4014813362266 L 311.67043123652945,468.8620261085068 L 324.1309760088097,437.07401418978344 L 292.84252151488363,423.40743110737327 L 324.1309760088097,409.7408480249631 L 311.67043123652945,377.9528361062397 L 343.45844315525284,390.41338087851994 Z" fill="none" stroke="#FFFFFF" stroke-width="0.9858329894420844" /><path d="M 499.97503673272826,359.1249263845939 L 513.6416198151384,390.41338087851994 L 545.4296317338618,377.9528361062397 L 532.9690869615815,409.7408480249631 L 564.2575414555076,423.40743110737327 L 532.9690869615815,437.07401418978344 L 545.4296317338618,468.8620261085068 L 513.6416198151384,456.4014813362266 L 499.97503673272826,487.68993583015265 L 486.3084536503181,456.4014813362266 L 454.5204417315947,468.8620261085068 L 466.98098650387493,437.07401418978344 L 435.6925320099489,423.40743110737327 L 466.98098650387493,409.7408480249631 L 454.5204417315947,377.9528361062397 L 486.3084536503181,390.41338087851994 Z" fill="none" stroke="#FFFFFF" stroke-width="0.9858329894420844" /><path d="M 642.8250472277936,359.1249263845939 L 656.4916303102037,390.41338087851994 L 688.2796422289271,377.9528361062397 L 675.8190974566469,409.7408480249631 L 707.1075519505729,423.40743110737327 L 675.8190974566469,437.07401418978344 L 688.2796422289271,468.8620261085068 L 656.4916303102037,456.4014813362266 L 642.8250472277936,487.68993583015265 L 629.1584641453834,456.4014813362266 L 597.3704522266601,468.8620261085068 L 609.8309969989402,437.07401418978344 L 578.5425425050142,423.40743110737327 L 609.8309969989402,409.7408480249631 L 597.3704522266601,377.9528361062397 L 629.1584641453834,390.41338087851994 Z" fill="none" stroke="#FFFFFF" stroke-width="0.9858329894420844" /><path d="M 3.936168182496318e-15,482.8330354733205 L 13.666583082410167,514.1214899672465 L 45.45459500113355,501.66094519496625 L 32.99405022885332,533.4489571136896 L 64.28250472277935,547.1155401960998 L 32.99405022885332,560.78212327851 L 45.45459500113355,592.5701351972333 L 13.666583082410167,580.1095904249531 L 3.936168182496318e-15,611.3980449188791 L -13.666583082410162,580.1095904249531 L -45.45459500113354,592.5701351972333 L -32.994050228853304,560.78212327851 L -64.28250472277935,547.1155401960998 L -32.99405022885331,533.4489571136896 L -45.454595001133555,501.66094519496625 L -13.666583082410185,514.1214899672465 Z" fill="none" stroke="#FFFFFF" stroke-width="0.9858329894420844" /><path d="M 142.85001049506522,482.8330354733205 L 156.5165935774754,514.1214899672465 L 188.30460549619877,501.66094519496625 L 175.84406072391855,533.4489571136896 L 207.13251521784457,547.1155401960998 L 175.84406072391855,560.78212327851 L 188.30460549619877,592.5701351972333 L 156.5165935774754,580.1095904249531 L 142.85001049506522,611.3980449188791 L 129.18342741265505,580.1095904249531 L 97.39541549393168,592.5701351972333 L 109.85596026621192,560.78212327851 L 78.56750577228587,547.1155401960998 L 109.85596026621191,533.4489571136896 L 97.39541549393167,501.66094519496625 L 129.18342741265502,514.1214899672465 Z" fill="none" stroke="#FFFFFF" stroke-width="0.9858329894420844" /><path d="M 285.70002099013044,482.8330354733205 L 299.3666040725406,514.1214899672465 L 331.154615991264,501.66094519496625 L 318.69407121898377,533.4489571136896 L 349.9825257129098,547.1155401960998 L 318.69407121898377,560.78212327851 L 331.154615991264,592.5701351972333 L 299.3666040725406,580.1095904249531 L 285.70002099013044,611.3980449188791 L 272.03343790772027,580.1095904249531 L 240.24542598899689,592.5701351972333 L 252.70597076127714,560.78212327851 L 221.4175162673511,547.1155401960998 L 252.70597076127711,533.4489571136896 L 240.24542598899689,501.66094519496625 L 272.03343790772027,514.1214899672465 Z" fill="none" stroke="#FFFFFF" stroke-width="0.9858329894420844" /><path d="M 428.55003148519563,482.8330354733205 L 442.2166145676058,514.1214899672465 L 474.0046264863292,501.66094519496625 L 461.54408171404896,533.4489571136896 L 492.83253620797495,547.1155401960998 L 461.54408171404896,560.78212327851 L 474.0046264863292,592.5701351972333 L 442.2166145676058,580.1095904249531 L 428.55003148519563,611.3980449188791 L 414.88344840278546,580.1095904249531 L 383.0954364840621,592.5701351972333 L 395.5559812563423,560.78212327851 L 364.2675267624163,547.1155401960998 L 395.5559812563423,533.4489571136896 L 383.0954364840621,501.66094519496625 L 414.88344840278546,514.1214899672465 Z" fill="none" stroke="#FFFFFF" stroke-width="0.9858329894420844" /><path d="M 571.4000419802609,482.8330354733205 L 585.066625062671,514.1214899672465 L 616.8546369813944,501.66094519496625 L 604.3940922091142,533.4489571136896 L 635.6825467030402,547.1155401960998 L 604.3940922091142,560.78212327851 L 616.8546369813944,592.5701351972333 L 585.066625062671,580.1095904249531 L 571.4000419802609,611.3980449188791 L 557.7334588978507,580.1095904249531 L 525.9454469791274,592.5701351972333 L 538.4059917514076,560.78212327851 L 507.11753725748156,547.1155401960998 L 538.4059917514076,533.4489571136896 L 525.9454469791274,501.66094519496625 L 557.7334588978507,514.1214899672465 Z" fill="none" stroke="#FFFFFF" stroke-width="0.9858329894420844" /><line x1="64.28250472277935" y1="52.283103841193864" x2="78.56750577228587" y2="52.283103841193864" stroke="#FFFFFF" stroke-width="0.5"/><line x1="207.13251521784457" y1="52.283103841193864" x2="221.4175162673511" y2="52.283103841193864" stroke="#FFFFFF" stroke-width="0.5"/><line x1="349.9825257129098" y1="52.283103841193864" x2="364.2675267624163" y2="52.283103841193864" stroke="#FFFFFF" stroke-width="0.5"/><line x1="492.83253620797495" y1="52.283103841193864" x2="507.11753725748156" y2="52.283103841193864" stroke="#FFFFFF" stroke-width="0.5"/><line x1="135.70750997031195" y1="175.99121292992032" x2="149.99251101981847" y2="175.99121292992032" stroke="#FFFFFF" stroke-width="0.5"/><line x1="278.55752046537714" y1="175.99121292992032" x2="292.84252151488363" y2="175.99121292992032" stroke="#FFFFFF" stroke-width="0.5"/><line x1="421.4075309604424" y1="175.99121292992032" x2="435.6925320099489" y2="175.99121292992032" stroke="#FFFFFF" stroke-width="0.5"/><line x1="64.28250472277935" y1="299.6993220186468" x2="78.56750577228587" y2="299.6993220186468" stroke="#FFFFFF" stroke-width="0.5"/><line x1="207.13251521784457" y1="299.6993220186468" x2="221.4175162673511" y2="299.6993220186468" stroke="#FFFFFF" stroke-width="0.5"/><line x1="349.9825257129098" y1="299.6993220186468" x2="364.2675267624163" y2="299.6993220186468" stroke="#FFFFFF" stroke-width="0.5"/><line x1="492.83253620797495" y1="299.6993220186468" x2="507.11753725748156" y2="299.6993220186468" stroke="#FFFFFF" stroke-width="0.5"/><line x1="135.70750997031195" y1="423.40743110737327" x2="149.99251101981847" y2="423.40743110737327" stroke="#FFFFFF" stroke-width="0.5"/><line x1="278.55752046537714" y1="423.40743110737327" x2="292.84252151488363" y2="423.40743110737327" stroke="#FFFFFF" stroke-width="0.5"/><line x1="421.4075309604424" y1="423.40743110737327" x2="435.6925320099489" y2="423.40743110737327" stroke="#FFFFFF" stroke-width="0.5"/></g></svg>