<svg xmlns="http://www.w3.org/2000/svg" width="512" height="512" viewBox="0 0 512 512"><rect x="0" y="0" width="512" height="512" fill="#000000"/><g opacity="0.1715461969941604"><path d="M -29.94800570196991,-56.90121083374284 L -24.21770289471035,-43.78218045576057 L -10.889211578581225,-49.0067998253586 L -16.113830948179256,-35.678308509229474 L -2.9948005701969898,-29.94800570196991 L -16.113830948179256,-24.21770289471035 L -10.889211578581225,-10.889211578581229 L -24.21770289471035,-16.113830948179256 L -29.94800570196991,-2.9948005701969898 L -35.678308509229474,-16.113830948179256 L -49.0067998253586,-10.889211578581225 L -43.78218045576057,-24.217702894710342 L -56.90121083374284,-29.948005701969908 L -43.78218045576057,-35.67830850922948 L -49.0067998253586,-49.0067998253586 L -35.67830850922948,-43.78218045576057 Z" fill="none" stroke="#FFFFFF" stroke-width="1.8344381010785877" /><path d="M 29.94800570196991,-56.90121083374284 L 35.678308509229474,-43.78218045576057 L 49.0067998253586,-49.0067998253586 L 43.78218045576057,-35.678308509229474 L 56.90121083374284,-29.94800570196991 L 43.78218045576057,-24.21770289471035 L 49.0067998253586,-10.889211578581229 L 35.678308509229474,-16.113830948179256 L 29.94800570196991,-2.9948005701969898 L 24.21770289471035,-16.113830948179256 L 10.889211578581229,-10.889211578581225 L 16.11383094817926,-24.217702894710342 L 2.9948005701969898,-29.948005701969908 L 16.113830948179256,-35.67830850922948 L 10.889211578581222,-49.0067998253586 L 24.217702894710342,-43.78218045576057 Z" fill="none" stroke="#FFFFFF" stroke-width="1.8344381010785877" /><path d="M 89.84401710590973,-56.90121083374284 L 95.57431991316929,-43.78218045576057 L 108.90281122929841,-49.0067998253586 L 103.67819185970038,-35.678308509229474 L 116.79722223768265,-29.94800570196991 L 103.67819185970038,-24.21770289471035 L 108.90281122929841,-10.889211578581229 L 95.57431991316929,-16.113830948179256 L 89.84401710590973,-2.9948005701969898 L 84.11371429865017,-16.113830948179256 L 70.78522298252105,-10.889211578581225 L 76.00984235211908,-24.217702894710342 L 62.89081197413681,-29.948005701969908 L 76.00984235211908,-35.67830850922948 L 70.78522298252103,-49.0067998253586 L 84.11371429865015,-43.78218045576057 Z" fill="none" stroke="#FFFFFF" stroke-width="1.8344381010785877" /><path d="M 149.74002850984954,-56.90121083374284 L 155.4703313171091,-43.78218045576057 L 168.79882263323822,-49.0067998253586 L 163.5742032636402,-35.678308509229474 L 176.69323364162247,-29.94800570196991 L 163.5742032636402,-24.21770289471035 L 168.79882263323822,-10.889211578581229 L 155.4703313171091,-16.113830948179256 L 149.74002850984954,-2.9948005701969898 L 144.00972570258998,-16.113830948179256 L 130.68123438646086,-10.889211578581225 L 135.9058537560589,-24.217702894710342 L 122.78682337807662,-29.948005701969908 L 135.9058537560589,-35.67830850922948 L 130.68123438646086,-49.0067998253586 L 144.00972570258998,-43.78218045576057 Z" fill="none" stroke="#FFFFFF" stroke-width="1.8344381010785877" /><path d="M 209.63603991378938,-56.90121083374284 L 215.36634272104894,-43.78218045576057 L 228.69483403717805,-49.0067998253586 L 223.47021466758002,-35.678308509229474 L 236.5892450455623,-29.94800570196991 L 223.47021466758002,-24.21770289471035 L 228.69483403717805,-10.889211578581229 L 215.36634272104894,-16.113830948179256 L 209.63603991378938,-2.9948005701969898 L 203.9057371065298,-16.113830948179256 L 190.5772457904007,-10.889211578581225 L 195.80186515999873,-24.217702894710342 L 182.68283478201644,-29.948005701969908 L 195.80186515999873,-35.67830850922948 L 190.5772457904007,-49.0067998253586 L 203.9057371065298,-43.78218045576057 Z" fill="none" stroke="#FFFFFF" stroke-width="1.8344381010785877" /><path d="M 269.5320513177292,-56.90121083374284 L 275.2623541249888,-43.78218045576057 L 288.5908454411179,-49.0067998253586 L 283.36622607151986,-35.678308509229474 L 296.4852564495021,-29.94800570196991 L 283.36622607151986,-24.21770289471035 L 288.5908454411179,-10.889211578581229 L 275.2623541249888,-16.113830948179256 L 269.5320513177292,-2.9948005701969898 L 263.8017485104697,-16.113830948179256 L 250.47325719434053,-10.889211578581225 L 255.69787656393856,-24.217702894710342 L 242.57884618595628,-29.948005701969908 L 255.69787656393856,-35.67830850922948 L 250.47325719434053,-49.0067998253586 L 263.8017485104696,-43.78218045576057 Z" fill="none" stroke="#FFFFFF" stroke-width="1.8344381010785877" /><path d="M 329.428062721669,-56.90121083374284 L 335.1583655289286,-43.78218045576057 L 348.4868568450577,-49.0067998253586 L 343.26223747545964,-35.678308509229474 L 356.3812678534419,-29.94800570196991 L 343.26223747545964,-24.21770289471035 L 348.4868568450577,-10.889211578581229 L 335.1583655289286,-16.113830948179256 L 329.428062721669,-2.9948005701969898 L 323.6977599144094,-16.113830948179256 L 310.3692685982803,-10.889211578581225 L 315.59388796787835,-24.217702894710342 L 302.4748575898961,-29.948005701969908 L 315.59388796787835,-35.67830850922948 L 310.3692685982803,-49.0067998253586 L 323.6977599144094,-43.78218045576057 Z" fill="none" stroke="#FFFFFF" stroke-width="1.8344381010785877" /><path d="M 389.32407412560883,-56.90121083374284 L 395.0543769328684,-43.78218045576057 L 408.3828682489975,-49.0067998253586 L 403.1582488793995,-35.678308509229474 L 416.27727925738174,-29.94800570196991 L 403.1582488793995,-24.21770289471035 L 408.3828682489975,-10.889211578581229 L 395.0543769328684,-16.113830948179256 L 389.32407412560883,-2.9948005701969898 L 383.59377131834924,-16.113830948179256 L 370.26528000222015,-10.889211578581225 L 375.4898993718182,-24.217702894710342 L 362.3708689938359,-29.948005701969908 L 375.4898993718182,-35.67830850922948 L 370.26528000222015,-49.0067998253586 L 383.59377131834924,-43.78218045576057 Z" fill="none" stroke="#FFFFFF" stroke-width="1.8344381010785877" /><path d="M 449.22008552954867,-56.90121083374284 L 454.95038833680826,-43.78218045576057 L 468.27887965293735,-49.0067998253586 L 463.0542602833393,-35.678308509229474 L 476.1732906613216,-29.94800570196991 L 463.0542602833393,-24.21770289471035 L 468.27887965293735,-10.889211578581229 L 454.95038833680826,-16.113830948179256 L 449.22008552954867,-2.9948005701969898 L 443.4897827222891,-16.113830948179256 L 430.16129140616,-10.889211578581225 L 435.385910775758,-24.217702894710342 L 422.26688039777576,-29.948005701969908 L 435.385910775758,-35.67830850922948 L 430.16129140616,-49.0067998253586 L 443.4897827222891,-43.78218045576057 Z" fill="none" stroke="#FFFFFF" stroke-width="1.8344381010785877" /><path d="M 509.1160969334885,-56.90121083374284 L 514.8463997407481,-43.78218045576057 L 528.1748910568772,-49.0067998253586 L 522.9502716872792,-35.678308509229474 L 536.0693020652615,-29.94800570196991 L 522.9502716872792,-24.21770289471035 L 528.1748910568772,-10.889211578581229 L 514.8463997407481,-16.113830948179256 L 509.1160969334885,-2.9948005701969898 L 503.3857941262289,-16.113830948179256 L 490.0573028100998,-10.889211578581225 L 495.28192217969786,-24.217702894710342 L 482.1628918017156,-29.948005701969908 L 495.28192217969786,-35.67830850922948 L 490.0573028100998,-49.0067998253586 L 503.3857941262289,-43.78218045576057 Z" fill="none" stroke="#FFFFFF" stroke-width="1.8344381010785877" /><path d="M 569.0121083374283,-56.90121083374284 L 574.7424111446879,-43.78218045576057 L 588.070902460817,-49.0067998253586 L 582.846283091219,-35.678308509229474 L 595.9653134692013,-29.94800570196991 L 582.846283091219,-24.21770289471035 L 588.070902460817,-10.889211578581229 L 574.7424111446879,-16.113830948179256 L 569.0121083374283,-2.9948005701969898 L 563.2818055301688,-16.113830948179256 L 549.9533142140397,-10.889211578581225 L 555.1779335836377,-24.217702894710342 L 542.0589032056554,-29.948005701969908 L 555.1779335836377,-35.67830850922948 L 549.9533142140397,-49.0067998253586 L 563.2818055301688,-43.78218045576057 Z" fill="none" stroke="#FFFFFF" stroke-width="1.8344381010785877" /><path d="M 1.6504078195693862e-15,-5.031264957930947 L 5.730302807259564,8.08776542005132 L 19.058794123388687,2.8631460504532917 L 13.834174753790656,16.191637366582412 L 26.953205131772922,21.921940173841975 L 13.834174753790656,27.652242981101537 L 19.058794123388687,40.980734297230654 L 5.730302807259564,35.75611492763263 L 1.6504078195693862e-15,48.87514530561489 L -5.730302807259562,35.75611492763263 L -19.058794123388683,40.98073429723066 L -13.834174753790652,27.652242981101544 L -26.953205131772922,21.92194017384198 L -13.834174753790654,16.19163736658241 L -19.05879412338869,2.8631460504532917 L -5.730302807259571,8.087765420051323 Z" fill="none" stroke="#FFFFFF" stroke-width="1.8344381010785877" /><path d="M 59.89601140393982,-5.031264957930947 L 65.62631421119939,8.08776542005132 L 78.95480552732852,2.8631460504532917 L 73.73018615773049,16.191637366582412 L 86.84921653571274,21.921940173841975 L 73.73018615773049,27.652242981101537 L 78.95480552732852,40.980734297230654 L 65.62631421119939,35.75611492763263 L 59.89601140393982,48.87514530561489 L 54.16570859668026,35.75611492763263 L 40.837217280551144,40.98073429723066 L 46.061836650149175,27.652242981101544 L 32.942806272166905,21.92194017384198 L 46.06183665014917,16.19163736658241 L 40.83721728055113,2.8631460504532917 L 54.165708596680254,8.087765420051323 Z" fill="none" stroke="#FFFFFF" stroke-width="1.8344381010785877" /><path d="M 119.79202280787965,-5.031264957930947 L 125.52232561513921,8.08776542005132 L 138.85081693126833,2.8631460504532917 L 133.6261975616703,16.191637366582412 L 146.74522793965258,21.921940173841975 L 133.6261975616703,27.652242981101537 L 138.85081693126833,40.980734297230654 L 125.52232561513921,35.75611492763263 L 119.79202280787965,48.87514530561489 L 114.06172000062008,35.75611492763263 L 100.73322868449097,40.98073429723066 L 105.957848054089,27.652242981101544 L 92.83881767610673,21.92194017384198 L 105.957848054089,16.19163736658241 L 100.73322868449095,2.8631460504532917 L 114.06172000062007,8.087765420051323 Z" fill="none" stroke="#FFFFFF" stroke-width="1.8344381010785877" /><path d="M 179.68803421181946,-5.031264957930947 L 185.41833701907902,8.08776542005132 L 198.74682833520814,2.8631460504532917 L 193.5222089656101,16.191637366582412 L 206.6412393435924,21.921940173841975 L 193.5222089656101,27.652242981101537 L 198.74682833520814,40.980734297230654 L 185.41833701907902,35.75611492763263 L 179.68803421181946,48.87514530561489 L 173.9577314045599,35.75611492763263 L 160.62924008843078,40.98073429723066 L 165.8538594580288,27.652242981101544 L 152.73482908004652,21.92194017384198 L 165.8538594580288,16.19163736658241 L 160.62924008843078,2.8631460504532917 L 173.9577314045599,8.087765420051323 Z" fill="none" stroke="#FFFFFF" stroke-width="1.8344381010785877" /><path d="M 239.5840456157593,-5.031264957930947 L 245.31434842301886,8.08776542005132 L 258.642839739148,2.8631460504532917 L 253.41822036954994,16.191637366582412 L 266.5372507475322,21.921940173841975 L 253.41822036954994,27.652242981101537 L 258.642839739148,40.980734297230654 L 245.31434842301886,35.75611492763263 L 239.5840456157593,48.87514530561489 L 233.85374280849973,35.75611492763263 L 220.52525149237061,40.98073429723066 L 225.74987086196865,27.652242981101544 L 212.63084048398636,21.92194017384198 L 225.74987086196865,16.19163736658241 L 220.52525149237061,2.8631460504532917 L 233.85374280849973,8.087765420051323 Z" fill="none" stroke="#FFFFFF" stroke-width="1.8344381010785877" /><path d="M 299.48005701969913,-5.031264957930947 L 305.2103598269587,8.08776542005132 L 318.5388511430878,2.8631460504532917 L 313.3142317734898,16.191637366582412 L 326.43326215147204,21.921940173841975 L 313.3142317734898,27.652242981101537 L 318.5388511430878,40.980734297230654 L 305.2103598269587,35.75611492763263 L 299.48005701969913,48.87514530561489 L 293.7497542124396,35.75611492763263 L 280.42126289631045,40.98073429723066 L 285.6458822659085,27.652242981101544 L 272.5268518879262,21.92194017384198 L 285.6458822659085,16.19163736658241 L 280.42126289631045,2.8631460504532917 L 293.74975421243954,8.087765420051323 Z" fill="none" stroke="#FFFFFF" stroke-width="1.8344381010785877" /><path d="M 359.3760684236389,-5.031264957930947 L 365.1063712308985,8.08776542005132 L 378.4348625470276,2.8631460504532917 L 373.21024317742956,16.191637366582412 L 386.3292735554118,21.921940173841975 L 373.21024317742956,27.652242981101537 L 378.4348625470276,40.980734297230654 L 365.1063712308985,35.75611492763263 L 359.3760684236389,48.87514530561489 L 353.6457656163793,35.75611492763263 L 340.31727430025023,40.98073429723066 L 345.54189366984826,27.652242981101544 L 332.422863291866,21.92194017384198 L 345.54189366984826,16.19163736658241 L 340.31727430025023,2.8631460504532917 L 353.6457656163793,8.087765420051323 Z" fill="none" stroke="#FFFFFF" stroke-width="1.8344381010785877" /><path d="M 419.27207982757875,-5.031264957930947 L 425.00238263483834,8.08776542005132 L 438.33087395096743,2.8631460504532917 L 433.1062545813694,16.191637366582412 L 446.22528495935165,21.921940173841975 L 433.1062545813694,27.652242981101537 L 438.33087395096743,40.980734297230654 L 425.00238263483834,35.75611492763263 L 419.27207982757875,48.87514530561489 L 413.54177702031916,35.75611492763263 L 400.21328570419007,40.98073429723066 L 405.4379050737881,27.652242981101544 L 392.31887469580585,21.92194017384198 L 405.4379050737881,16.19163736658241 L 400.21328570419007,2.8631460504532917 L 413.54177702031916,8.087765420051323 Z" fill="none" stroke="#FFFFFF" stroke-width="1.8344381010785877" /><path d="M 479.1680912315186,-5.031264957930947 L 484.8983940387782,8.08776542005132 L 498.22688535490727,2.8631460504532917 L 493.00226598530924,16.191637366582412 L 506.1212963632915,21.921940173841975 L 493.00226598530924,27.652242981101537 L 498.22688535490727,40.980734297230654 L 484.8983940387782,35.75611492763263 L 479.1680912315186,48.87514530561489 L 473.437788424259,35.75611492763263 L 460.1092971081299,40.98073429723066 L 465.33391647772794,27.652242981101544 L 452.2148860997457,21.92194017384198 L 465.33391647772794,16.19163736658241 L 460.1092971081299,2.8631460504532917 L 473.437788424259,8.087765420051323 Z" fill="none" stroke="#FFFFFF" stroke-width="1.8344381010785877" /><path d="M 539.0641026354584,-5.031264957930947 L 544.794405442718,8.08776542005132 L 558.1228967588471,2.8631460504532917 L 552.8982773892491,16.191637366582412 L 566.0173077672314,21.921940173841975 L 552.8982773892491,27.652242981101537 L 558.1228967588471,40.980734297230654 L 544.794405442718,35.75611492763263 L 539.0641026354584,48.87514530561489 L 533.3337998281988,35.75611492763263 L 520.0053085120697,40.98073429723066 L 525.2299278816678,27.652242981101544 L 512.1108975036855,21.92194017384198 L 525.2299278816678,16.19163736658241 L 520.0053085120697,2.8631460504532917 L 533.3337998281988,8.087765420051323 Z" fill="none" stroke="#FFFFFF" stroke-width="1.8344381010785877" /><path d="M -29.94800570196991,46.83868091788095 L -24.21770289471035,59.95771129586321 L -10.889211578581225,54.73309192626519 L -16.113830948179256,68.0615832423943 L -2.9948005701969898,73.79188604965387 L -16.113830948179256,79.52218885691343 L -10.889211578581225,92.85068017304255 L -24.21770289471035,87.62606080344452 L -29.94800570196991,100.74509118142679 L -35.678308509229474,87.62606080344452 L -49.0067998253586,92.85068017304255 L -43.78218045576057,79.52218885691344 L -56.90121083374284,73.79188604965387 L -43.78218045576057,68.0615832423943 L -49.0067998253586,54.73309192626519 L -35.67830850922948,59.95771129586322 Z" fill="none" stroke="#FFFFFF" stroke-width="1.8344381010785877" /><path d="M 29.94800570196991,46.83868091788095 L 35.678308509229474,59.95771129586321 L 49.0067998253586,54.73309192626519 L 43.78218045576057,68.0615832423943 L 56.90121083374284,73.79188604965387 L 43.78218045576057,79.52218885691343 L 49.0067998253586,92.85068017304255 L 35.678308509229474,87.62606080344452 L 29.94800570196991,100.74509118142679 L 24.21770289471035,87.62606080344452 L 10.889211578581229,92.85068017304255 L 16.11383094817926,79.52218885691344 L 2.9948005701969898,73.79188604965387 L 16.113830948179256,68.0615832423943 L 10.889211578581222,54.73309192626519 L 24.217702894710342,59.95771129586322 Z" fill="none" stroke="#FFFFFF" stroke-width="1.8344381010785877" /><path d="M 89.84401710590973,46.83868091788095 L 95.57431991316929,59.95771129586321 L 108.90281122929841,54.73309192626519 L 103.67819185970038,68.0615832423943 L 116.79722223768265,73.79188604965387 L 103.67819185970038,79.52218885691343 L 108.90281122929841,92.85068017304255 L 95.57431991316929,87.62606080344452 L 89.84401710590973,100.74509118142679 L 84.11371429865017,87.62606080344452 L 70.78522298252105,92.85068017304255 L 76.00984235211908,79.52218885691344 L 62.89081197413681,73.79188604965387 L 76.00984235211908,68.0615832423943 L 70.78522298252103,54.73309192626519 L 84.11371429865015,59.95771129586322 Z" fill="none" stroke="#FFFFFF" stroke-width="1.8344381010785877" /><path d="M 149.74002850984954,46.83868091788095 L 155.4703313171091,59.95771129586321 L 168.79882263323822,54.73309192626519 L 163.5742032636402,68.0615832423943 L 176.69323364162247,73.79188604965387 L 163.5742032636402,79.52218885691343 L 168.79882263323822,92.85068017304255 L 155.4703313171091,87.62606080344452 L 149.74002850984954,100.74509118142679 L 144.00972570258998,87.62606080344452 L 130.68123438646086,92.85068017304255 L 135.9058537560589,79.52218885691344 L 122.78682337807662,73.79188604965387 L 135.9058537560589,68.0615832423943 L 130.68123438646086,54.73309192626519 L 144.00972570258998,59.95771129586322 Z" fill="none" stroke="#FFFFFF" stroke-width="1.8344381010785877" /><path d="M 209.63603991378938,46.83868091788095 L 215.36634272104894,59.95771129586321 L 228.69483403717805,54.73309192626519 L 223.47021466758002,68.0615832423943 L 236.5892450455623,73.79188604965387 L 223.47021466758002,79.52218885691343 L 228.69483403717805,92.85068017304255 L 215.36634272104894,87.62606080344452 L 209.63603991378938,100.74509118142679 L 203.9057371065298,87.62606080344452 L 190.5772457904007,92.85068017304255 L 195.80186515999873,79.52218885691344 L 182.68283478201644,73.79188604965387 L 195.80186515999873,68.0615832423943 L 190.5772457904007,54.73309192626519 L 203.9057371065298,59.95771129586322 Z" fill="none" stroke="#FFFFFF" stroke-width="1.8344381010785877" /><path d="M 269.5320513177292,46.83868091788095 L 275.2623541249888,59.95771129586321 L 288.5908454411179,54.73309192626519 L 283.36622607151986,68.0615832423943 L 296.4852564495021,73.79188604965387 L 283.36622607151986,79.52218885691343 L 288.5908454411179,92.85068017304255 L 275.2623541249888,87.62606080344452 L 269.5320513177292,100.74509118142679 L 263.8017485104697,87.62606080344452 L 250.47325719434053,92.85068017304255 L 255.69787656393856,79.52218885691344 L 242.57884618595628,73.79188604965387 L 255.69787656393856,68.0615832423943 L 250.47325719434053,54.73309192626519 L 263.8017485104696,59.95771129586322 Z" fill="none" stroke="#FFFFFF" stroke-width="1.8344381010785877" /><path d="M 329.428062721669,46.83868091788095 L 335.1583655289286,59.95771129586321 L 348.4868568450577,54.73309192626519 L 343.26223747545964,68.0615832423943 L 356.3812678534419,73.79188604965387 L 343.26223747545964,79.52218885691343 L 348.4868568450577,92.85068017304255 L 335.1583655289286,87.62606080344452 L 329.428062721669,100.74509118142679 L 323.6977599144094,87.62606080344452 L 310.3692685982803,92.85068017304255 L 315.59388796787835,79.52218885691344 L 302.4748575898961,73.79188604965387 L 315.59388796787835,68.0615832423943 L 310.3692685982803,54.73309192626519 L 323.6977599144094,59.95771129586322 Z" fill="none" stroke="#FFFFFF" stroke-width="1.8344381010785877" /><path d="M 389.32407412560883,46.83868091788095 L 395.0543769328684,59.95771129586321 L 408.3828682489975,54.73309192626519 L 403.1582488793995,68.0615832423943 L 416.27727925738174,73.79188604965387 L 403.1582488793995,79.52218885691343 L 408.3828682489975,92.85068017304255 L 395.0543769328684,87.62606080344452 L 389.32407412560883,100.74509118142679 L 383.59377131834924,87.62606080344452 L 370.26528000222015,92.85068017304255 L 375.4898993718182,79.52218885691344 L 362.3708689938359,73.79188604965387 L 375.4898993718182,68.0615832423943 L 370.26528000222015,54.73309192626519 L 383.59377131834924,59.95771129586322 Z" fill="none" stroke="#FFFFFF" stroke-width="1.8344381010785877" /><path d="M 449.22008552954867,46.83868091788095 L 454.95038833680826,59.95771129586321 L 468.27887965293735,54.73309192626519 L 463.0542602833393,68.0615832423943 L 476.1732906613216,73.79188604965387 L 463.0542602833393,79.52218885691343 L 468.27887965293735,92.85068017304255 L 454.95038833680826,87.62606080344452 L 449.22008552954867,100.74509118142679 L 443.4897827222891,87.62606080344452 L 430.16129140616,92.85068017304255 L 435.385910775758,79.52218885691344 L 422.26688039777576,73.79188604965387 L 435.385910775758,68.0615832423943 L 430.16129140616,54.73309192626519 L 443.4897827222891,59.95771129586322 Z" fill="none" stroke="#FFFFFF" stroke-width="1.8344381010785877" /><path d="M 509.1160969334885,46.83868091788095 L 514.8463997407481,59.95771129586321 L 528.1748910568772,54.73309192626519 L 522.9502716872792,68.0615832423943 L 536.0693020652615,73.79188604965387 L 522.9502716872792,79.52218885691343 L 528.1748910568772,92.85068017304255 L 514.8463997407481,87.62606080344452 L 509.1160969334885,100.74509118142679 L 503.3857941262289,87.62606080344452 L 490.0573028100998,92.85068017304255 L 495.28192217969786,79.52218885691344 L 482.1628918017156,73.79188604965387 L 495.28192217969786,68.0615832423943 L 490.0573028100998,54.73309192626519 L 503.3857941262289,59.95771129586322 Z" fill="none" stroke="#FFFFFF" stroke-width="1.8344381010785877" /><path d="M 569.0121083374283,46.83868091788095 L 574.7424111446879,59.95771129586321 L 588.070902460817,54.73309192626519 L 582.846283091219,68.0615832423943 L 595.9653134692013,73.79188604965387 L 582.846283091219,79.52218885691343 L 588.070902460817,92.85068017304255 L 574.7424111446879,87.62606080344452 L 569.0121083374283,100.74509118142679 L 563.2818055301688,87.62606080344452 L 549.9533142140397,92.85068017304255 L 555.1779335836377,79.52218885691344 L 542.0589032056554,73.79188604965387 L 555.1779335836377,68.0615832423943 L 549.9533142140397,54.73309192626519 L 563.2818055301688,59.95771129586322 Z" fill="none" stroke="#FFFFFF" stroke-width="1.8344381010785877" /><path d="M 1.6504078195693862e-15,98.7086267936928 L 5.730302807259564,111.82765717167507 L 19.058794123388687,106.60303780207704 L 13.834174753790656,119.93152911820616 L 26.953205131772922,125.66183192546572 L 13.834174753790656,131.39213473272528 L 19.058794123388687,144.7206260488544 L 5.730302807259564,139.49600667925637 L 1.6504078195693862e-15,152.61503705723865 L -5.730302807259562,139.49600667925637 L -19.058794123388683,144.7206260488544 L -13.834174753790652,131.39213473272528 L -26.953205131772922,125.66183192546572 L -13.834174753790654,119.93152911820616 L -19.05879412338869,106.60303780207704 L -5.730302807259571,111.82765717167507 Z" fill="none" stroke="#FFFFFF" stroke-width="1.8344381010785877" /><path d="M 59.89601140393982,98.7086267936928 L 65.62631421119939,111.82765717167507 L 78.95480552732852,106.60303780207704 L 73.73018615773049,119.93152911820616 L 86.84921653571274,125.66183192546572 L 73.73018615773049,131.39213473272528 L 78.95480552732852,144.7206260488544 L 65.62631421119939,139.49600667925637 L 59.89601140393982,152.61503705723865 L 54.16570859668026,139.49600667925637 L 40.837217280551144,144.7206260488544 L 46.061836650149175,131.39213473272528 L 32.942806272166905,125.66183192546572 L 46.06183665014917,119.93152911820616 L 40.83721728055113,106.60303780207704 L 54.165708596680254,111.82765717167507 Z" fill="none" stroke="#FFFFFF" stroke-width="1.8344381010785877" /><path d="M 119.79202280787965,98.7086267936928 L 125.52232561513921,111.82765717167507 L 138.85081693126833,106.60303780207704 L 133.6261975616703,119.93152911820616 L 146.74522793965258,125.66183192546572 L 133.6261975616703,131.39213473272528 L 138.85081693126833,144.7206260488544 L 125.52232561513921,139.49600667925637 L 119.79202280787965,152.61503705723865 L 114.06172000062008,139.49600667925637 L 100.73322868449097,144.7206260488544 L 105.957848054089,131.39213473272528 L 92.83881767610673,125.66183192546572 L 105.957848054089,119.93152911820616 L 100.73322868449095,106.60303780207704 L 114.06172000062007,111.82765717167507 Z" fill="none" stroke="#FFFFFF" stroke-width="1.8344381010785877" /><path d="M 179.68803421181946,98.7086267936928 L 185.41833701907902,111.82765717167507 L 198.74682833520814,106.60303780207704 L 193.5222089656101,119.93152911820616 L 206.6412393435924,125.66183192546572 L 193.5222089656101,131.39213473272528 L 198.74682833520814,144.7206260488544 L 185.41833701907902,139.49600667925637 L 179.68803421181946,152.61503705723865 L 173.9577314045599,139.49600667925637 L 160.62924008843078,144.7206260488544 L 165.8538594580288,131.39213473272528 L 152.73482908004652,125.66183192546572 L 165.8538594580288,119.93152911820616 L 160.62924008843078,106.60303780207704 L 173.9577314045599,111.82765717167507 Z" fill="none" stroke="#FFFFFF" stroke-width="1.8344381010785877" /><path d="M 239.5840456157593,98.7086267936928 L 245.31434842301886,111.82765717167507 L 258.642839739148,106.60303780207704 L 253.41822036954994,119.93152911820616 L 266.5372507475322,125.66183192546572 L 253.41822036954994,131.39213473272528 L 258.642839739148,144.7206260488544 L 245.31434842301886,139.49600667925637 L 239.5840456157593,152.61503705723865 L 233.85374280849973,139.49600667925637 L 220.52525149237061,144.7206260488544 L 225.74987086196865,131.39213473272528 L 212.63084048398636,125.66183192546572 L 225.74987086196865,119.93152911820616 L 220.52525149237061,106.60303780207704 L 233.85374280849973,111.82765717167507 Z" fill="none" stroke="#FFFFFF" stroke-width="1.8344381010785877" /><path d="M 299.48005701969913,98.7086267936928 L 305.2103598269587,111.82765717167507 L 318.5388511430878,106.60303780207704 L 313.3142317734898,119.93152911820616 L 326.43326215147204,125.66183192546572 L 313.3142317734898,131.39213473272528 L 318.5388511430878,144.7206260488544 L 305.2103598269587,139.49600667925637 L 299.48005701969913,152.61503705723865 L 293.7497542124396,139.49600667925637 L 280.42126289631045,144.7206260488544 L 285.6458822659085,131.39213473272528 L 272.5268518879262,125.66183192546572 L 285.6458822659085,119.93152911820616 L 280.42126289631045,106.60303780207704 L 293.74975421243954,111.82765717167507 Z" fill="none" stroke="#FFFFFF" stroke-width="1.8344381010785877" /><path d="M 359.3760684236389,98.7086267936928 L 365.1063712308985,111.82765717167507 L 378.4348625470276,106.60303780207704 L 373.21024317742956,119.93152911820616 L 386.3292735554118,125.66183192546572 L 373.21024317742956,131.39213473272528 L 378.4348625470276,144.7206260488544 L 365.1063712308985,139.49600667925637 L 359.3760684236389,152.61503705723865 L 353.6457656163793,139.49600667925637 L 340.31727430025023,144.7206260488544 L 345.54189366984826,131.39213473272528 L 332.422863291866,125.66183192546572 L 345.54189366984826,119.93152911820616 L 340.31727430025023,106.60303780207704 L 353.6457656163793,111.82765717167507 Z" fill="none" stroke="#FFFFFF" stroke-width="1.8344381010785877" /><path d="M 419.27207982757875,98.7086267936928 L 425.00238263483834,111.82765717167507 L 438.33087395096743,106.60303780207704 L 433.1062545813694,119.93152911820616 L 446.22528495935165,125.66183192546572 L 433.1062545813694,131.39213473272528 L 438.33087395096743,144.7206260488544 L 425.00238263483834,139.49600667925637 L 419.27207982757875,152.61503705723865 L 413.54177702031916,139.49600667925637 L 400.21328570419007,144.7206260488544 L 405.4379050737881,131.39213473272528 L 392.31887469580585,125.66183192546572 L 405.4379050737881,119.93152911820616 L 400.21328570419007,106.60303780207704 L 413.54177702031916,111.82765717167507 Z" fill="none" stroke="#FFFFFF" stroke-width="1.8344381010785877" /><path d="M 479.1680912315186,98.7086267936928 L 484.8983940387782,111.82765717167507 L 498.22688535490727,106.60303780207704 L 493.00226598530924,119.93152911820616 L 506.1212963632915,125.66183192546572 L 493.00226598530924,131.39213473272528 L 498.22688535490727,144.7206260488544 L 484.8983940387782,139.49600667925637 L 479.1680912315186,152.61503705723865 L 473.437788424259,139.49600667925637 L 460.1092971081299,144.7206260488544 L 465.33391647772794,131.39213473272528 L 452.2148860997457,125.66183192546572 L 465.33391647772794,119.93152911820616 L 460.1092971081299,106.60303780207704 L 473.437788424259,111.82765717167507 Z" fill="none" stroke="#FFFFFF" stroke-width="1.8344381010785877" /><path d="M 539.0641026354584,98.7086267936928 L 544.794405442718,111.82765717167507 L 558.1228967588471,106.60303780207704 L 552.8982773892491,119.93152911820616 L 566.0173077672314,125.66183192546572 L 552.8982773892491,131.39213473272528 L 558.1228967588471,144.7206260488544 L 544.794405442718,139.49600667925637 L 539.0641026354584,152.61503705723865 L 533.3337998281988,139.49600667925637 L 520.0053085120697,144.7206260488544 L 525.2299278816678,131.39213473272528 L 512.1108975036855,125.66183192546572 L 525.2299278816678,119.93152911820616 L 520.0053085120697,106.60303780207704 L 533.3337998281988,111.82765717167507 Z" fill="none" stroke="#FFFFFF" stroke-width="1.8344381010785877" /><path d="M -29.94800570196991,150.5785726695047 L -24.21770289471035,163.69760304748698 L -10.889211578581225,158.47298367788895 L -16.113830948179256,171.80147499401806 L -2.9948005701969898,177.53177780127763 L -16.113830948179256,183.2620806085372 L -10.889211578581225,196.5905719246663 L -24.21770289471035,191.36595255506828 L -29.94800570196991,204.48498293305056 L -35.678308509229474,191.36595255506828 L -49.0067998253586,196.5905719246663 L -43.78218045576057,183.2620806085372 L -56.90121083374284,177.53177780127763 L -43.78218045576057,171.80147499401806 L -49.0067998253586,158.47298367788895 L -35.67830850922948,163.69760304748698 Z" fill="none" stroke="#FFFFFF" stroke-width="1.8344381010785877" /><path d="M 29.94800570196991,150.5785726695047 L 35.678308509229474,163.69760304748698 L 49.0067998253586,158.47298367788895 L 43.78218045576057,171.80147499401806 L 56.90121083374284,177.53177780127763 L 43.78218045576057,183.2620806085372 L 49.0067998253586,196.5905719246663 L 35.678308509229474,191.36595255506828 L 29.94800570196991,204.48498293305056 L 24.21770289471035,191.36595255506828 L 10.889211578581229,196.5905719246663 L 16.11383094817926,183.2620806085372 L 2.9948005701969898,177.53177780127763 L 16.113830948179256,171.80147499401806 L 10.889211578581222,158.47298367788895 L 24.217702894710342,163.69760304748698 Z" fill="none" stroke="#FFFFFF" stroke-width="1.8344381010785877" /><path d="M 89.84401710590973,150.5785726695047 L 95.57431991316929,163.69760304748698 L 108.90281122929841,158.47298367788895 L 103.67819185970038,171.80147499401806 L 116.79722223768265,177.53177780127763 L 103.67819185970038,183.2620806085372 L 108.90281122929841,196.5905719246663 L 95.57431991316929,191.36595255506828 L 89.84401710590973,204.48498293305056 L 84.11371429865017,191.36595255506828 L 70.78522298252105,196.5905719246663 L 76.00984235211908,183.2620806085372 L 62.89081197413681,177.53177780127763 L 76.00984235211908,171.80147499401806 L 70.78522298252103,158.47298367788895 L 84.11371429865015,163.69760304748698 Z" fill="none" stroke="#FFFFFF" stroke-width="1.8344381010785877" /><path d="M 149.74002850984954,150.5785726695047 L 155.4703313171091,163.69760304748698 L 168.79882263323822,158.47298367788895 L 163.5742032636402,171.80147499401806 L 176.69323364162247,177.53177780127763 L 163.5742032636402,183.2620806085372 L 168.79882263323822,196.5905719246663 L 155.4703313171091,191.36595255506828 L 149.74002850984954,204.48498293305056 L 144.00972570258998,191.36595255506828 L 130.68123438646086,196.5905719246663 L 135.9058537560589,183.2620806085372 L 122.78682337807662,177.53177780127763 L 135.9058537560589,171.80147499401806 L 130.68123438646086,158.47298367788895 L 144.00972570258998,163.69760304748698 Z" fill="none" stroke="#FFFFFF" stroke-width="1.8344381010785877" /><path d="M 209.63603991378938,150.5785726695047 L 215.36634272104894,163.69760304748698 L 228.69483403717805,158.47298367788895 L 223.47021466758002,171.80147499401806 L 236.5892450455623,177.53177780127763 L 223.47021466758002,183.2620806085372 L 228.69483403717805,196.5905719246663 L 215.36634272104894,191.36595255506828 L 209.63603991378938,204.48498293305056 L 203.9057371065298,191.36595255506828 L 190.5772457904007,196.5905719246663 L 195.80186515999873,183.2620806085372 L 182.68283478201644,177.53177780127763 L 195.80186515999873,171.80147499401806 L 190.5772457904007,158.47298367788895 L 203.9057371065298,163.69760304748698 Z" fill="none" stroke="#FFFFFF" stroke-width="1.8344381010785877" /><path d="M 269.5320513177292,150.5785726695047 L 275.2623541249888,163.69760304748698 L 288.5908454411179,158.47298367788895 L 283.36622607151986,171.80147499401806 L 296.4852564495021,177.53177780127763 L 283.36622607151986,183.2620806085372 L 288.5908454411179,196.5905719246663 L 275.2623541249888,191.36595255506828 L 269.5320513177292,204.48498293305056 L 263.8017485104697,191.36595255506828 L 250.47325719434053,196.5905719246663 L 255.69787656393856,183.2620806085372 L 242.57884618595628,177.53177780127763 L 255.69787656393856,171.80147499401806 L 250.47325719434053,158.47298367788895 L 263.8017485104696,163.69760304748698 Z" fill="none" stroke="#FFFFFF" stroke-width="1.8344381010785877" /><path d="M 329.428062721669,150.5785726695047 L 335.1583655289286,163.69760304748698 L 348.4868568450577,158.47298367788895 L 343.26223747545964,171.80147499401806 L 356.3812678534419,177.53177780127763 L 343.26223747545964,183.2620806085372 L 348.4868568450577,196.5905719246663 L 335.1583655289286,191.36595255506828 L 329.428062721669,204.48498293305056 L 323.6977599144094,191.36595255506828 L 310.3692685982803,196.5905719246663 L 315.59388796787835,183.2620806085372 L 302.4748575898961,177.53177780127763 L 315.59388796787835,171.80147499401806 L 310.3692685982803,158.47298367788895 L 323.6977599144094,163.69760304748698 Z" fill="none" stroke="#FFFFFF" stroke-width="1.8344381010785877" /><path d="M 389.32407412560883,150.5785726695047 L 395.0543769328684,163.69760304748698 L 408.3828682489975,158.47298367788895 L 403.1582488793995,171.80147499401806 L 416.27727925738174,177.53177780127763 L 403.1582488793995,183.2620806085372 L 408.3828682489975,196.5905719246663 L 395.0543769328684,191.36595255506828 L 389.32407412560883,204.48498293305056 L 383.59377131834924,191.36595255506828 L 370.26528000222015,196.5905719246663 L 375.4898993718182,183.2620806085372 L 362.3708689938359,177.53177780127763 L 375.4898993718182,171.80147499401806 L 370.26528000222015,158.47298367788895 L 383.59377131834924,163.69760304748698 Z" fill="none" stroke="#FFFFFF" stroke-width="1.8344381010785877" /><path d="M 449.22008552954867,150.5785726695047 L 454.95038833680826,163.69760304748698 L 468.27887965293735,158.47298367788895 L 463.0542602833393,171.80147499401806 L 476.1732906613216,177.53177780127763 L 463.0542602833393,183.2620806085372 L 468.27887965293735,196.5905719246663 L 454.95038833680826,191.36595255506828 L 449.22008552954867,204.48498293305056 L 443.4897827222891,191.36595255506828 L 430.16129140616,196.5905719246663 L 435.385910775758,183.2620806085372 L 422.26688039777576,177.53177780127763 L 435.385910775758,171.80147499401806 L 430.16129140616,158.47298367788895 L 443.4897827222891,163.69760304748698 Z" fill="none" stroke="#FFFFFF" stroke-width="1.8344381010785877" /><path d="M 509.1160969334885,150.5785726695047 L 514.8463997407481,163.69760304748698 L 528.1748910568772,158.47298367788895 L 522.9502716872792,171.80147499401806 L 536.0693020652615,177.53177780127763 L 522.9502716872792,183.2620806085372 L 528.1748910568772,196.5905719246663 L 514.8463997407481,191.36595255506828 L 509.1160969334885,204.48498293305056 L 503.3857941262289,191.36595255506828 L 490.0573028100998,196.5905719246663 L 495.28192217969786,183.2620806085372 L 482.1628918017156,177.53177780127763 L 495.28192217969786,171.80147499401806 L 490.0573028100998,158.47298367788895 L 503.3857941262289,163.69760304748698 Z" fill="none" stroke="#FFFFFF" stroke-width="1.8344381010785877" /><path d="M 569.0121083374283,150.5785726695047 L 574.7424111446879,163.69760304748698 L 588.070902460817,158.47298367788895 L 582.846283091219,171.80147499401806 L 595.9653134692013,177.53177780127763 L 582.846283091219,183.2620806085372 L 588.070902460817,196.5905719246663 L 574.7424111446879,191.36595255506828 L 569.0121083374283,204.48498293305056 L 563.2818055301688,191.36595255506828 L 549.9533142140397,196.5905719246663 L 555.1779335836377,183.2620806085372 L 542.0589032056554,177.53177780127763 L 555.1779335836377,171.80147499401806 L 549.9533142140397,158.47298367788895 L 563.2818055301688,163.69760304748698 Z" fill="none" stroke="#FFFFFF" stroke-width="1.8344381010785877" /><path d="M 1.6504078195693862e-15,202.4485185453166 L 5.730302807259564,215.5675489232989 L 19.058794123388687,210.34292955370086 L 13.834174753790656,223.67142086982997 L 26.953205131772922,229.40172367708954 L 13.834174753790656,235.1320264843491 L 19.058794123388687,248.46051780047821 L 5.730302807259564,243.23589843088018 L 1.6504078195693862e-15,256.35492880886244 L -5.730302807259562,243.23589843088018 L -19.058794123388683,248.46051780047821 L -13.834174753790652,235.1320264843491 L -26.953205131772922,229.40172367708954 L -13.834174753790654,223.67142086982997 L -19.05879412338869,210.34292955370086 L -5.730302807259571,215.5675489232989 Z" fill="none" stroke="#FFFFFF" stroke-width="1.8344381010785877" /><path d="M 59.89601140393982,202.4485185453166 L 65.62631421119939,215.5675489232989 L 78.95480552732852,210.34292955370086 L 73.73018615773049,223.67142086982997 L 86.84921653571274,229.40172367708954 L 73.73018615773049,235.1320264843491 L 78.95480552732852,248.46051780047821 L 65.62631421119939,243.23589843088018 L 59.89601140393982,256.35492880886244 L 54.16570859668026,243.23589843088018 L 40.837217280551144,248.46051780047821 L 46.061836650149175,235.1320264843491 L 32.942806272166905,229.40172367708954 L 46.06183665014917,223.67142086982997 L 40.83721728055113,210.34292955370086 L 54.165708596680254,215.5675489232989 Z" fill="none" stroke="#FFFFFF" stroke-width="1.8344381010785877" /><path d="M 119.79202280787965,202.4485185453166 L 125.52232561513921,215.5675489232989 L 138.85081693126833,210.34292955370086 L 133.6261975616703,223.67142086982997 L 146.74522793965258,229.40172367708954 L 133.6261975616703,235.1320264843491 L 138.85081693126833,248.46051780047821 L 125.52232561513921,243.23589843088018 L 119.79202280787965,256.35492880886244 L 114.06172000062008,243.23589843088018 L 100.73322868449097,248.46051780047821 L 105.957848054089,235.1320264843491 L 92.83881767610673,229.40172367708954 L 105.957848054089,223.67142086982997 L 100.73322868449095,210.34292955370086 L 114.06172000062007,215.5675489232989 Z" fill="none" stroke="#FFFFFF" stroke-width="1.8344381010785877" /><path d="M 179.68803421181946,202.4485185453166 L 185.41833701907902,215.5675489232989 L 198.74682833520814,210.34292955370086 L 193.5222089656101,223.67142086982997 L 206.6412393435924,229.40172367708954 L 193.5222089656101,235.1320264843491 L 198.74682833520814,248.46051780047821 L 185.41833701907902,243.23589843088018 L 179.68803421181946,256.35492880886244 L 173.9577314045599,243.23589843088018 L 160.62924008843078,248.46051780047821 L 165.8538594580288,235.1320264843491 L 152.73482908004652,229.40172367708954 L 165.8538594580288,223.67142086982997 L 160.62924008843078,210.34292955370086 L 173.9577314045599,215.5675489232989 Z" fill="none" stroke="#FFFFFF" stroke-width="1.8344381010785877" /><path d="M 239.5840456157593,202.4485185453166 L 245.31434842301886,215.5675489232989 L 258.642839739148,210.34292955370086 L 253.41822036954994,223.67142086982997 L 266.5372507475322,229.40172367708954 L 253.41822036954994,235.1320264843491 L 258.642839739148,248.46051780047821 L 245.31434842301886,243.23589843088018 L 239.5840456157593,256.35492880886244 L 233.85374280849973,243.23589843088018 L 220.52525149237061,248.46051780047821 L 225.74987086196865,235.1320264843491 L 212.63084048398636,229.40172367708954 L 225.74987086196865,223.67142086982997 L 220.52525149237061,210.34292955370086 L 233.85374280849973,215.5675489232989 Z" fill="none" stroke="#FFFFFF" stroke-width="1.8344381010785877" /><path d="M 299.48005701969913,202.4485185453166 L 305.2103598269587,215.5675489232989 L 318.5388511430878,210.34292955370086 L 313.3142317734898,223.67142086982997 L 326.43326215147204,229.40172367708954 L 313.3142317734898,235.1320264843491 L 318.5388511430878,248.46051780047821 L 305.2103598269587,243.23589843088018 L 299.48005701969913,256.35492880886244 L 293.7497542124396,243.23589843088018 L 280.42126289631045,248.46051780047821 L 285.6458822659085,235.1320264843491 L 272.5268518879262,229.40172367708954 L 285.6458822659085,223.67142086982997 L 280.42126289631045,210.34292955370086 L 293.74975421243954,215.5675489232989 Z" fill="none" stroke="#FFFFFF" stroke-width="1.8344381010785877" /><path d="M 359.3760684236389,202.4485185453166 L 365.1063712308985,215.5675489232989 L 378.4348625470276,210.34292955370086 L 373.21024317742956,223.67142086982997 L 386.3292735554118,229.40172367708954 L 373.21024317742956,235.1320264843491 L 378.4348625470276,248.46051780047821 L 365.1063712308985,243.23589843088018 L 359.3760684236389,256.35492880886244 L 353.6457656163793,243.23589843088018 L 340.31727430025023,248.46051780047821 L 345.54189366984826,235.1320264843491 L 332.422863291866,229.40172367708954 L 345.54189366984826,223.67142086982997 L 340.31727430025023,210.34292955370086 L 353.6457656163793,215.5675489232989 Z" fill="none" stroke="#FFFFFF" stroke-width="1.8344381010785877" /><path d="M 419.27207982757875,202.4485185453166 L 425.00238263483834,215.5675489232989 L 438.33087395096743,210.34292955370086 L 433.1062545813694,223.67142086982997 L 446.22528495935165,229.40172367708954 L 433.1062545813694,235.1320264843491 L 438.33087395096743,248.46051780047821 L 425.00238263483834,243.23589843088018 L 419.27207982757875,256.35492880886244 L 413.54177702031916,243.23589843088018 L 400.21328570419007,248.46051780047821 L 405.4379050737881,235.1320264843491 L 392.31887469580585,229.40172367708954 L 405.4379050737881,223.67142086982997 L 400.21328570419007,210.34292955370086 L 413.54177702031916,215.5675489232989 Z" fill="none" stroke="#FFFFFF" stroke-width="1.8344381010785877" /><path d="M 479.1680912315186,202.4485185453166 L 484.8983940387782,215.5675489232989 L 498.22688535490727,210.34292955370086 L 493.00226598530924,223.67142086982997 L 506.1212963632915,229.40172367708954 L 493.00226598530924,235.1320264843491 L 498.22688535490727,248.46051780047821 L 484.8983940387782,243.23589843088018 L 479.1680912315186,256.35492880886244 L 473.437788424259,243.23589843088018 L 460.1092971081299,248.46051780047821 L 465.33391647772794,235.1320264843491 L 452.2148860997457,229.40172367708954 L 465.33391647772794,223.67142086982997 L 460.1092971081299,210.34292955370086 L 473.437788424259,215.5675489232989 Z" fill="none" stroke="#FFFFFF" stroke-width="1.8344381010785877" /><path d="M 539.0641026354584,202.4485185453166 L 544.794405442718,215.5675489232989 L 558.1228967588471,210.34292955370086 L 552.8982773892491,223.67142086982997 L 566.0173077672314,229.40172367708954 L 552.8982773892491,235.1320264843491 L 558.1228967588471,248.46051780047821 L 544.794405442718,243.23589843088018 L 539.0641026354584,256.35492880886244 L 533.3337998281988,243.23589843088018 L 520.0053085120697,248.46051780047821 L 525.2299278816678,235.1320264843491 L 512.1108975036855,229.40172367708954 L 525.2299278816678,223.67142086982997 L 520.0053085120697,210.34292955370086 L 533.3337998281988,215.5675489232989 Z" fill="none" stroke="#FFFFFF" stroke-width="1.8344381010785877" /><path d="M -29.94800570196991,254.31846442112843 L -24.21770289471035,267.4374947991107 L -10.889211578581225,262.2128754295127 L -16.113830948179256,275.54136674564177 L -2.9948005701969898,281.27166955290136 L -16.113830948179256,287.00197236016095 L -10.889211578581225,300.33046367629004 L -24.21770289471035,295.105844306692 L -29.94800570196991,308.22487468467426 L -35.678308509229474,295.105844306692 L -49.0067998253586,300.33046367629004 L -43.78218045576057,287.00197236016095 L -56.90121083374284,281.27166955290136 L -43.78218045576057,275.54136674564177 L -49.0067998253586,262.2128754295127 L -35.67830850922948,267.4374947991107 Z" fill="none" stroke="#FFFFFF" stroke-width="1.8344381010785877" /><path d="M 29.94800570196991,254.31846442112843 L 35.678308509229474,267.4374947991107 L 49.0067998253586,262.2128754295127 L 43.78218045576057,275.54136674564177 L 56.90121083374284,281.27166955290136 L 43.78218045576057,287.00197236016095 L 49.0067998253586,300.33046367629004 L 35.678308509229474,295.105844306692 L 29.94800570196991,308.22487468467426 L 24.21770289471035,295.105844306692 L 10.889211578581229,300.33046367629004 L 16.11383094817926,287.00197236016095 L 2.9948005701969898,281.27166955290136 L 16.113830948179256,275.54136674564177 L 10.889211578581222,262.2128754295127 L 24.217702894710342,267.4374947991107 Z" fill="none" stroke="#FFFFFF" stroke-width="1.8344381010785877" /><path d="M 89.84401710590973,254.31846442112843 L 95.57431991316929,267.4374947991107 L 108.90281122929841,262.2128754295127 L 103.67819185970038,275.54136674564177 L 116.79722223768265,281.27166955290136 L 103.67819185970038,287.00197236016095 L 108.90281122929841,300.33046367629004 L 95.57431991316929,295.105844306692 L 89.84401710590973,308.22487468467426 L 84.11371429865017,295.105844306692 L 70.78522298252105,300.33046367629004 L 76.00984235211908,287.00197236016095 L 62.89081197413681,281.27166955290136 L 76.00984235211908,275.54136674564177 L 70.78522298252103,262.2128754295127 L 84.11371429865015,267.4374947991107 Z" fill="none" stroke="#FFFFFF" stroke-width="1.8344381010785877" /><path d="M 149.74002850984954,254.31846442112843 L 155.4703313171091,267.4374947991107 L 168.79882263323822,262.2128754295127 L 163.5742032636402,275.54136674564177 L 176.69323364162247,281.27166955290136 L 163.5742032636402,287.00197236016095 L 168.79882263323822,300.33046367629004 L 155.4703313171091,295.105844306692 L 149.74002850984954,308.22487468467426 L 144.00972570258998,295.105844306692 L 130.68123438646086,300.33046367629004 L 135.9058537560589,287.00197236016095 L 122.78682337807662,281.27166955290136 L 135.9058537560589,275.54136674564177 L 130.68123438646086,262.2128754295127 L 144.00972570258998,267.4374947991107 Z" fill="none" stroke="#FFFFFF" stroke-width="1.8344381010785877" /><path d="M 209.63603991378938,254.31846442112843 L 215.36634272104894,267.4374947991107 L 228.69483403717805,262.2128754295127 L 223.47021466758002,275.54136674564177 L 236.5892450455623,281.27166955290136 L 223.47021466758002,287.00197236016095 L 228.69483403717805,300.33046367629004 L 215.36634272104894,295.105844306692 L 209.63603991378938,308.22487468467426 L 203.9057371065298,295.105844306692 L 190.5772457904007,300.33046367629004 L 195.80186515999873,287.00197236016095 L 182.68283478201644,281.27166955290136 L 195.80186515999873,275.54136674564177 L 190.5772457904007,262.2128754295127 L 203.9057371065298,267.4374947991107 Z" fill="none" stroke="#FFFFFF" stroke-width="1.8344381010785877" /><path d="M 269.5320513177292,254.31846442112843 L 275.2623541249888,267.4374947991107 L 288.5908454411179,262.2128754295127 L 283.36622607151986,275.54136674564177 L 296.4852564495021,281.27166955290136 L 283.36622607151986,287.00197236016095 L 288.5908454411179,300.33046367629004 L 275.2623541249888,295.105844306692 L 269.5320513177292,308.22487468467426 L 263.8017485104697,295.105844306692 L 250.47325719434053,300.33046367629004 L 255.69787656393856,287.00197236016095 L 242.57884618595628,281.27166955290136 L 255.69787656393856,275.54136674564177 L 250.47325719434053,262.2128754295127 L 263.8017485104696,267.4374947991107 Z" fill="none" stroke="#FFFFFF" stroke-width="1.8344381010785877" /><path d="M 329.428062721669,254.31846442112843 L 335.1583655289286,267.4374947991107 L 348.4868568450577,262.2128754295127 L 343.26223747545964,275.54136674564177 L 356.3812678534419,281.27166955290136 L 343.26223747545964,287.00197236016095 L 348.4868568450577,300.33046367629004 L 335.1583655289286,295.105844306692 L 329.428062721669,308.22487468467426 L 323.6977599144094,295.105844306692 L 310.3692685982803,300.33046367629004 L 315.59388796787835,287.00197236016095 L 302.4748575898961,281.27166955290136 L 315.59388796787835,275.54136674564177 L 310.3692685982803,262.2128754295127 L 323.6977599144094,267.4374947991107 Z" fill="none" stroke="#FFFFFF" stroke-width="1.8344381010785877" /><path d="M 389.32407412560883,254.31846442112843 L 395.0543769328684,267.4374947991107 L 408.3828682489975,262.2128754295127 L 403.1582488793995,275.54136674564177 L 416.27727925738174,281.27166955290136 L 403.1582488793995,287.00197236016095 L 408.3828682489975,300.33046367629004 L 395.0543769328684,295.105844306692 L 389.32407412560883,308.22487468467426 L 383.59377131834924,295.105844306692 L 370.26528000222015,300.33046367629004 L 375.4898993718182,287.00197236016095 L 362.3708689938359,281.27166955290136 L 375.4898993718182,275.54136674564177 L 370.26528000222015,262.2128754295127 L 383.59377131834924,267.4374947991107 Z" fill="none" stroke="#FFFFFF" stroke-width="1.8344381010785877" /><path d="M 449.22008552954867,254.31846442112843 L 454.95038833680826,267.4374947991107 L 468.27887965293735,262.2128754295127 L 463.0542602833393,275.54136674564177 L 476.1732906613216,281.27166955290136 L 463.0542602833393,287.00197236016095 L 468.27887965293735,300.33046367629004 L 454.95038833680826,295.105844306692 L 449.22008552954867,308.22487468467426 L 443.4897827222891,295.105844306692 L 430.16129140616,300.33046367629004 L 435.385910775758,287.00197236016095 L 422.26688039777576,281.27166955290136 L 435.385910775758,275.54136674564177 L 430.16129140616,262.2128754295127 L 443.4897827222891,267.4374947991107 Z" fill="none" stroke="#FFFFFF" stroke-width="1.8344381010785877" /><path d="M 509.1160969334885,254.31846442112843 L 514.8463997407481,267.4374947991107 L 528.1748910568772,262.2128754295127 L 522.9502716872792,275.54136674564177 L 536.0693020652615,281.27166955290136 L 522.9502716872792,287.00197236016095 L 528.1748910568772,300.33046367629004 L 514.8463997407481,295.105844306692 L 509.1160969334885,308.22487468467426 L 503.3857941262289,295.105844306692 L 490.0573028100998,300.33046367629004 L 495.28192217969786,287.00197236016095 L 482.1628918017156,281.27166955290136 L 495.28192217969786,275.54136674564177 L 490.0573028100998,262.2128754295127 L 503.3857941262289,267.4374947991107 Z" fill="none" stroke="#FFFFFF" stroke-width="1.8344381010785877" /><path d="M 569.0121083374283,254.31846442112843 L 574.7424111446879,267.4374947991107 L 588.070902460817,262.2128754295127 L 582.846283091219,275.54136674564177 L 595.9653134692013,281.27166955290136 L 582.846283091219,287.00197236016095 L 588.070902460817,300.33046367629004 L 574.7424111446879,295.105844306692 L 569.0121083374283,308.22487468467426 L 563.2818055301688,295.105844306692 L 549.9533142140397,300.33046367629004 L 555.1779335836377,287.00197236016095 L 542.0589032056554,281.27166955290136 L 555.1779335836377,275.54136674564177 L 549.9533142140397,262.2128754295127 L 563.2818055301688,267.4374947991107 Z" fill="none" stroke="#FFFFFF" stroke-width="1.8344381010785877" /><path d="M 1.6504078195693862e-15,306.1884102969404 L 5.730302807259564,319.30744067492265 L 19.058794123388687,314.0828213053246 L 13.834174753790656,327.4113126214537 L 26.953205131772922,333.1416154287133 L 13.834174753790656,338.8719182359729 L 19.058794123388687,352.200409552102 L 5.730302807259564,346.97579018250394 L 1.6504078195693862e-15,360.0948205604862 L -5.730302807259562,346.97579018250394 L -19.058794123388683,352.200409552102 L -13.834174753790652,338.8719182359729 L -26.953205131772922,333.1416154287133 L -13.834174753790654,327.4113126214537 L -19.05879412338869,314.0828213053246 L -5.730302807259571,319.30744067492265 Z" fill="none" stroke="#FFFFFF" stroke-width="1.8344381010785877" /><path d="M 59.89601140393982,306.1884102969404 L 65.62631421119939,319.30744067492265 L 78.95480552732852,314.0828213053246 L 73.73018615773049,327.4113126214537 L 86.84921653571274,333.1416154287133 L 73.73018615773049,338.8719182359729 L 78.95480552732852,352.200409552102 L 65.62631421119939,346.97579018250394 L 59.89601140393982,360.0948205604862 L 54.16570859668026,346.97579018250394 L 40.837217280551144,352.200409552102 L 46.061836650149175,338.8719182359729 L 32.942806272166905,333.1416154287133 L 46.06183665014917,327.4113126214537 L 40.83721728055113,314.0828213053246 L 54.165708596680254,319.30744067492265 Z" fill="none" stroke="#FFFFFF" stroke-width="1.8344381010785877" /><path d="M 119.79202280787965,306.1884102969404 L 125.52232561513921,319.30744067492265 L 138.85081693126833,314.0828213053246 L 133.6261975616703,327.4113126214537 L 146.74522793965258,333.1416154287133 L 133.6261975616703,338.8719182359729 L 138.85081693126833,352.200409552102 L 125.52232561513921,346.97579018250394 L 119.79202280787965,360.0948205604862 L 114.06172000062008,346.97579018250394 L 100.73322868449097,352.200409552102 L 105.957848054089,338.8719182359729 L 92.83881767610673,333.1416154287133 L 105.957848054089,327.4113126214537 L 100.73322868449095,314.0828213053246 L 114.06172000062007,319.30744067492265 Z" fill="none" stroke="#FFFFFF" stroke-width="1.8344381010785877" /><path d="M 179.68803421181946,306.1884102969404 L 185.41833701907902,319.30744067492265 L 198.74682833520814,314.0828213053246 L 193.5222089656101,327.4113126214537 L 206.6412393435924,333.1416154287133 L 193.5222089656101,338.8719182359729 L 198.74682833520814,352.200409552102 L 185.41833701907902,346.97579018250394 L 179.68803421181946,360.0948205604862 L 173.9577314045599,346.97579018250394 L 160.62924008843078,352.200409552102 L 165.8538594580288,338.8719182359729 L 152.73482908004652,333.1416154287133 L 165.8538594580288,327.4113126214537 L 160.62924008843078,314.0828213053246 L 173.9577314045599,319.30744067492265 Z" fill="none" stroke="#FFFFFF" stroke-width="1.8344381010785877" /><path d="M 239.5840456157593,306.1884102969404 L 245.31434842301886,319.30744067492265 L 258.642839739148,314.0828213053246 L 253.41822036954994,327.4113126214537 L 266.5372507475322,333.1416154287133 L 253.41822036954994,338.8719182359729 L 258.642839739148,352.200409552102 L 245.31434842301886,346.97579018250394 L 239.5840456157593,360.0948205604862 L 233.85374280849973,346.97579018250394 L 220.52525149237061,352.200409552102 L 225.74987086196865,338.8719182359729 L 212.63084048398636,333.1416154287133 L 225.74987086196865,327.4113126214537 L 220.52525149237061,314.0828213053246 L 233.85374280849973,319.30744067492265 Z" fill="none" stroke="#FFFFFF" stroke-width="1.8344381010785877" /><path d="M 299.48005701969913,306.1884102969404 L 305.2103598269587,319.30744067492265 L 318.5388511430878,314.0828213053246 L 313.3142317734898,327.4113126214537 L 326.43326215147204,333.1416154287133 L 313.3142317734898,338.8719182359729 L 318.5388511430878,352.200409552102 L 305.2103598269587,346.97579018250394 L 299.48005701969913,360.0948205604862 L 293.7497542124396,346.97579018250394 L 280.42126289631045,352.200409552102 L 285.6458822659085,338.8719182359729 L 272.5268518879262,333.1416154287133 L 285.6458822659085,327.4113126214537 L 280.42126289631045,314.0828213053246 L 293.74975421243954,319.30744067492265 Z" fill="none" stroke="#FFFFFF" stroke-width="1.8344381010785877" /><path d="M 359.3760684236389,306.1884102969404 L 365.1063712308985,319.30744067492265 L 378.4348625470276,314.0828213053246 L 373.21024317742956,327.4113126214537 L 386.3292735554118,333.1416154287133 L 373.21024317742956,338.8719182359729 L 378.4348625470276,352.200409552102 L 365.1063712308985,346.97579018250394 L 359.3760684236389,360.0948205604862 L 353.6457656163793,346.97579018250394 L 340.31727430025023,352.200409552102 L 345.54189366984826,338.8719182359729 L 332.422863291866,333.1416154287133 L 345.54189366984826,327.4113126214537 L 340.31727430025023,314.0828213053246 L 353.6457656163793,319.30744067492265 Z" fill="none" stroke="#FFFFFF" stroke-width="1.8344381010785877" /><path d="M 419.27207982757875,306.1884102969404 L 425.00238263483834,319.30744067492265 L 438.33087395096743,314.0828213053246 L 433.1062545813694,327.4113126214537 L 446.22528495935165,333.1416154287133 L 433.1062545813694,338.8719182359729 L 438.33087395096743,352.200409552102 L 425.00238263483834,346.97579018250394 L 419.27207982757875,360.0948205604862 L 413.54177702031916,346.97579018250394 L 400.21328570419007,352.200409552102 L 405.4379050737881,338.8719182359729 L 392.31887469580585,333.1416154287133 L 405.4379050737881,327.4113126214537 L 400.21328570419007,314.0828213053246 L 413.54177702031916,319.30744067492265 Z" fill="none" stroke="#FFFFFF" stroke-width="1.8344381010785877" /><path d="M 479.1680912315186,306.1884102969404 L 484.8983940387782,319.30744067492265 L 498.22688535490727,314.0828213053246 L 493.00226598530924,327.4113126214537 L 506.1212963632915,333.1416154287133 L 493.00226598530924,338.8719182359729 L 498.22688535490727,352.200409552102 L 484.8983940387782,346.97579018250394 L 479.1680912315186,360.0948205604862 L 473.437788424259,346.97579018250394 L 460.1092971081299,352.200409552102 L 465.33391647772794,338.8719182359729 L 452.2148860997457,333.1416154287133 L 465.33391647772794,327.4113126214537 L 460.1092971081299,314.0828213053246 L 473.437788424259,319.30744067492265 Z" fill="none" stroke="#FFFFFF" stroke-width="1.8344381010785877" /><path d="M 539.0641026354584,306.1884102969404 L 544.794405442718,319.30744067492265 L 558.1228967588471,314.0828213053246 L 552.8982773892491,327.4113126214537 L 566.0173077672314,333.1416154287133 L 552.8982773892491,338.8719182359729 L 558.1228967588471,352.200409552102 L 544.794405442718,346.97579018250394 L 539.0641026354584,360.0948205604862 L 533.3337998281988,346.97579018250394 L 520.0053085120697,352.200409552102 L 525.2299278816678,338.8719182359729 L 512.1108975036855,333.1416154287133 L 525.2299278816678,327.4113126214537 L 520.0053085120697,314.0828213053246 L 533.3337998281988,319.30744067492265 Z" fill="none" stroke="#FFFFFF" stroke-width="1.8344381010785877" /><path d="M -29.94800570196991,358.05835617275227 L -24.21770289471035,371.1773865507345 L -10.889211578581225,365.9527671811365 L -16.113830948179256,379.2812584972656 L -2.9948005701969898,385.0115613045252 L -16.113830948179256,390.74186411178476 L -10.889211578581225,404.07035542791385 L -24.21770289471035,398.8457360583158 L -29.94800570196991,411.9647664362981 L -35.678308509229474,398.8457360583158 L -49.0067998253586,404.07035542791385 L -43.78218045576057,390.74186411178476 L -56.90121083374284,385.0115613045252 L -43.78218045576057,379.2812584972656 L -49.0067998253586,365.9527671811365 L -35.67830850922948,371.1773865507345 Z" fill="none" stroke="#FFFFFF" stroke-width="1.8344381010785877" /><path d="M 29.94800570196991,358.05835617275227 L 35.678308509229474,371.1773865507345 L 49.0067998253586,365.9527671811365 L 43.78218045576057,379.2812584972656 L 56.90121083374284,385.0115613045252 L 43.78218045576057,390.74186411178476 L 49.0067998253586,404.07035542791385 L 35.678308509229474,398.8457360583158 L 29.94800570196991,411.9647664362981 L 24.21770289471035,398.8457360583158 L 10.889211578581229,404.07035542791385 L 16.11383094817926,390.74186411178476 L 2.9948005701969898,385.0115613045252 L 16.113830948179256,379.2812584972656 L 10.889211578581222,365.9527671811365 L 24.217702894710342,371.1773865507345 Z" fill="none" stroke="#FFFFFF" stroke-width="1.8344381010785877" /><path d="M 89.84401710590973,358.05835617275227 L 95.57431991316929,371.1773865507345 L 108.90281122929841,365.9527671811365 L 103.67819185970038,379.2812584972656 L 116.79722223768265,385.0115613045252 L 103.67819185970038,390.74186411178476 L 108.90281122929841,404.07035542791385 L 95.57431991316929,398.8457360583158 L 89.84401710590973,411.9647664362981 L 84.11371429865017,398.8457360583158 L 70.78522298252105,404.07035542791385 L 76.00984235211908,390.74186411178476 L 62.89081197413681,385.0115613045252 L 76.00984235211908,379.2812584972656 L 70.78522298252103,365.9527671811365 L 84.11371429865015,371.1773865507345 Z" fill="none" stroke="#FFFFFF" stroke-width="1.8344381010785877" /><path d="M 149.74002850984954,358.05835617275227 L 155.4703313171091,371.1773865507345 L 168.79882263323822,365.9527671811365 L 163.5742032636402,379.2812584972656 L 176.69323364162247,385.0115613045252 L 163.5742032636402,390.74186411178476 L 168.79882263323822,404.07035542791385 L 155.4703313171091,398.8457360583158 L 149.74002850984954,411.9647664362981 L 144.00972570258998,398.8457360583158 L 130.68123438646086,404.07035542791385 L 135.9058537560589,390.74186411178476 L 122.78682337807662,385.0115613045252 L 135.9058537560589,379.2812584972656 L 130.68123438646086,365.9527671811365 L 144.00972570258998,371.1773865507345 Z" fill="none" stroke="#FFFFFF" stroke-width="1.8344381010785877" /><path d="M 209.63603991378938,358.05835617275227 L 215.36634272104894,371.1773865507345 L 228.69483403717805,365.9527671811365 L 223.47021466758002,379.2812584972656 L 236.5892450455623,385.0115613045252 L 223.47021466758002,390.74186411178476 L 228.69483403717805,404.07035542791385 L 215.36634272104894,398.8457360583158 L 209.63603991378938,411.9647664362981 L 203.9057371065298,398.8457360583158 L 190.5772457904007,404.07035542791385 L 195.80186515999873,390.74186411178476 L 182.68283478201644,385.0115613045252 L 195.80186515999873,379.2812584972656 L 190.5772457904007,365.9527671811365 L 203.9057371065298,371.1773865507345 Z" fill="none" stroke="#FFFFFF" stroke-width="1.8344381010785877" /><path d="M 269.5320513177292,358.05835617275227 L 275.2623541249888,371.1773865507345 L 288.5908454411179,365.9527671811365 L 283.36622607151986,379.2812584972656 L 296.4852564495021,385.0115613045252 L 283.36622607151986,390.74186411178476 L 288.5908454411179,404.07035542791385 L 275.2623541249888,398.8457360583158 L 269.5320513177292,411.9647664362981 L 263.8017485104697,398.8457360583158 L 250.47325719434053,404.07035542791385 L 255.69787656393856,390.74186411178476 L 242.57884618595628,385.0115613045252 L 255.69787656393856,379.2812584972656 L 250.47325719434053,365.9527671811365 L 263.8017485104696,371.1773865507345 Z" fill="none" stroke="#FFFFFF" stroke-width="1.8344381010785877" /><path d="M 329.428062721669,358.05835617275227 L 335.1583655289286,371.1773865507345 L 348.4868568450577,365.9527671811365 L 343.26223747545964,379.2812584972656 L 356.3812678534419,385.0115613045252 L 343.26223747545964,390.74186411178476 L 348.4868568450577,404.07035542791385 L 335.1583655289286,398.8457360583158 L 329.428062721669,411.9647664362981 L 323.6977599144094,398.8457360583158 L 310.3692685982803,404.07035542791385 L 315.59388796787835,390.74186411178476 L 302.4748575898961,385.0115613045252 L 315.59388796787835,379.2812584972656 L 310.3692685982803,365.9527671811365 L 323.6977599144094,371.1773865507345 Z" fill="none" stroke="#FFFFFF" stroke-width="1.8344381010785877" /><path d="M 389.32407412560883,358.05835617275227 L 395.0543769328684,371.1773865507345 L 408.3828682489975,365.9527671811365 L 403.1582488793995,379.2812584972656 L 416.27727925738174,385.0115613045252 L 403.1582488793995,390.74186411178476 L 408.3828682489975,404.07035542791385 L 395.0543769328684,398.8457360583158 L 389.32407412560883,411.9647664362981 L 383.59377131834924,398.8457360583158 L 370.26528000222015,404.07035542791385 L 375.4898993718182,390.74186411178476 L 362.3708689938359,385.0115613045252 L 375.4898993718182,379.2812584972656 L 370.26528000222015,365.9527671811365 L 383.59377131834924,371.1773865507345 Z" fill="none" stroke="#FFFFFF" stroke-width="1.8344381010785877" /><path d="M 449.22008552954867,358.05835617275227 L 454.95038833680826,371.1773865507345 L 468.27887965293735,365.9527671811365 L 463.0542602833393,379.2812584972656 L 476.1732906613216,385.0115613045252 L 463.0542602833393,390.74186411178476 L 468.27887965293735,404.07035542791385 L 454.95038833680826,398.8457360583158 L 449.22008552954867,411.9647664362981 L 443.4897827222891,398.8457360583158 L 430.16129140616,404.07035542791385 L 435.385910775758,390.74186411178476 L 422.26688039777576,385.0115613045252 L 435.385910775758,379.2812584972656 L 430.16129140616,365.9527671811365 L 443.4897827222891,371.1773865507345 Z" fill="none" stroke="#FFFFFF" stroke-width="1.8344381010785877" /><path d="M 509.1160969334885,358.05835617275227 L 514.8463997407481,371.1773865507345 L 528.1748910568772,365.9527671811365 L 522.9502716872792,379.2812584972656 L 536.0693020652615,385.0115613045252 L 522.9502716872792,390.74186411178476 L 528.1748910568772,404.07035542791385 L 514.8463997407481,398.8457360583158 L 509.1160969334885,411.9647664362981 L 503.3857941262289,398.8457360583158 L 490.0573028100998,404.07035542791385 L 495.28192217969786,390.74186411178476 L 482.1628918017156,385.0115613045252 L 495.28192217969786,379.2812584972656 L 490.0573028100998,365.9527671811365 L 503.3857941262289,371.1773865507345 Z" fill="none" stroke="#FFFFFF" stroke-width="1.8344381010785877" /><path d="M 569.0121083374283,358.05835617275227 L 574.7424111446879,371.1773865507345 L 588.070902460817,365.9527671811365 L 582.846283091219,379.2812584972656 L 595.9653134692013,385.0115613045252 L 582.846283091219,390.74186411178476 L 588.070902460817,404.07035542791385 L 574.7424111446879,398.8457360583158 L 569.0121083374283,411.9647664362981 L 563.2818055301688,398.8457360583158 L 549.9533142140397,404.07035542791385 L 555.1779335836377,390.74186411178476 L 542.0589032056554,385.0115613045252 L 555.1779335836377,379.2812584972656 L 549.9533142140397,365.9527671811365 L 563.2818055301688,371.1773865507345 Z" fill="none" stroke="#FFFFFF" stroke-width="1.8344381010785877" /><path d="M 1.6504078195693862e-15,409.92830204856415 L 5.730302807259564,423.0473324265464 L 19.058794123388687,417.8227130569484 L 13.834174753790656,431.15120437307746 L 26.953205131772922,436.88150718033705 L 13.834174753790656,442.61180998759664 L 19.058794123388687,455.94030130372573 L 5.730302807259564,450.7156819341277 L 1.6504078195693862e-15,463.83471231210996 L -5.730302807259562,450.7156819341277 L -19.058794123388683,455.94030130372573 L -13.834174753790652,442.61180998759664 L -26.953205131772922,436.88150718033705 L -13.834174753790654,431.15120437307746 L -19.05879412338869,417.8227130569484 L -5.730302807259571,423.0473324265464 Z" fill="none" stroke="#FFFFFF" stroke-width="1.8344381010785877" /><path d="M 59.89601140393982,409.92830204856415 L 65.62631421119939,423.0473324265464 L 78.95480552732852,417.8227130569484 L 73.73018615773049,431.15120437307746 L 86.84921653571274,436.88150718033705 L 73.73018615773049,442.61180998759664 L 78.95480552732852,455.94030130372573 L 65.62631421119939,450.7156819341277 L 59.89601140393982,463.83471231210996 L 54.16570859668026,450.7156819341277 L 40.837217280551144,455.94030130372573 L 46.061836650149175,442.61180998759664 L 32.942806272166905,436.88150718033705 L 46.06183665014917,431.15120437307746 L 40.83721728055113,417.8227130569484 L 54.165708596680254,423.0473324265464 Z" fill="none" stroke="#FFFFFF" stroke-width="1.8344381010785877" /><path d="M 119.79202280787965,409.92830204856415 L 125.52232561513921,423.0473324265464 L 138.85081693126833,417.8227130569484 L 133.6261975616703,431.15120437307746 L 146.74522793965258,436.88150718033705 L 133.6261975616703,442.61180998759664 L 138.85081693126833,455.94030130372573 L 125.52232561513921,450.7156819341277 L 119.79202280787965,463.83471231210996 L 114.06172000062008,450.7156819341277 L 100.73322868449097,455.94030130372573 L 105.957848054089,442.61180998759664 L 92.83881767610673,436.88150718033705 L 105.957848054089,431.15120437307746 L 100.73322868449095,417.8227130569484 L 114.06172000062007,423.0473324265464 Z" fill="none" stroke="#FFFFFF" stroke-width="1.8344381010785877" /><path d="M 179.68803421181946,409.92830204856415 L 185.41833701907902,423.0473324265464 L 198.74682833520814,417.8227130569484 L 193.5222089656101,431.15120437307746 L 206.6412393435924,436.88150718033705 L 193.5222089656101,442.61180998759664 L 198.74682833520814,455.94030130372573 L 185.41833701907902,450.7156819341277 L 179.68803421181946,463.83471231210996 L 173.9577314045599,450.7156819341277 L 160.62924008843078,455.94030130372573 L 165.8538594580288,442.61180998759664 L 152.73482908004652,436.88150718033705 L 165.8538594580288,431.15120437307746 L 160.62924008843078,417.8227130569484 L 173.9577314045599,423.0473324265464 Z" fill="none" stroke="#FFFFFF" stroke-width="1.8344381010785877" /><path d="M 239.5840456157593,409.92830204856415 L 245.31434842301886,423.0473324265464 L 258.642839739148,417.8227130569484 L 253.41822036954994,431.15120437307746 L 266.5372507475322,436.88150718033705 L 253.41822036954994,442.61180998759664 L 258.642839739148,455.94030130372573 L 245.31434842301886,450.7156819341277 L 239.5840456157593,463.83471231210996 L 233.85374280849973,450.7156819341277 L 220.52525149237061,455.94030130372573 L 225.74987086196865,442.61180998759664 L 212.63084048398636,436.88150718033705 L 225.74987086196865,431.15120437307746 L 220.52525149237061,417.8227130569484 L 233.85374280849973,423.0473324265464 Z" fill="none" stroke="#FFFFFF" stroke-width="1.8344381010785877" /><path d="M 299.48005701969913,409.92830204856415 L 305.2103598269587,423.0473324265464 L 318.5388511430878,417.8227130569484 L 313.3142317734898,431.15120437307746 L 326.43326215147204,436.88150718033705 L 313.3142317734898,442.61180998759664 L 318.5388511430878,455.94030130372573 L 305.2103598269587,450.7156819341277 L 299.48005701969913,463.83471231210996 L 293.7497542124396,450.7156819341277 L 280.42126289631045,455.94030130372573 L 285.6458822659085,442.61180998759664 L 272.5268518879262,436.88150718033705 L 285.6458822659085,431.15120437307746 L 280.42126289631045,417.8227130569484 L 293.74975421243954,423.0473324265464 Z" fill="none" stroke="#FFFFFF" stroke-width="1.8344381010785877" /><path d="M 359.3760684236389,409.92830204856415 L 365.1063712308985,423.0473324265464 L 378.4348625470276,417.8227130569484 L 373.21024317742956,431.15120437307746 L 386.3292735554118,436.88150718033705 L 373.21024317742956,442.61180998759664 L 378.4348625470276,455.94030130372573 L 365.1063712308985,450.7156819341277 L 359.3760684236389,463.83471231210996 L 353.6457656163793,450.7156819341277 L 340.31727430025023,455.94030130372573 L 345.54189366984826,442.61180998759664 L 332.422863291866,436.88150718033705 L 345.54189366984826,431.15120437307746 L 340.31727430025023,417.8227130569484 L 353.6457656163793,423.0473324265464 Z" fill="none" stroke="#FFFFFF" stroke-width="1.8344381010785877" /><path d="M 419.27207982757875,409.92830204856415 L 425.00238263483834,423.0473324265464 L 438.33087395096743,417.8227130569484 L 433.1062545813694,431.15120437307746 L 446.22528495935165,436.88150718033705 L 433.1062545813694,442.61180998759664 L 438.33087395096743,455.94030130372573 L 425.00238263483834,450.7156819341277 L 419.27207982757875,463.83471231210996 L 413.54177702031916,450.7156819341277 L 400.21328570419007,455.94030130372573 L 405.4379050737881,442.61180998759664 L 392.31887469580585,436.88150718033705 L 405.4379050737881,431.15120437307746 L 400.21328570419007,417.8227130569484 L 413.54177702031916,423.0473324265464 Z" fill="none" stroke="#FFFFFF" stroke-width="1.8344381010785877" /><path d="M 479.1680912315186,409.92830204856415 L 484.8983940387782,423.0473324265464 L 498.22688535490727,417.8227130569484 L 493.00226598530924,431.15120437307746 L 506.1212963632915,436.88150718033705 L 493.00226598530924,442.61180998759664 L 498.22688535490727,455.94030130372573 L 484.8983940387782,450.7156819341277 L 479.1680912315186,463.83471231210996 L 473.437788424259,450.7156819341277 L 460.1092971081299,455.94030130372573 L 465.33391647772794,442.61180998759664 L 452.2148860997457,436.88150718033705 L 465.33391647772794,431.15120437307746 L 460.1092971081299,417.8227130569484 L 473.437788424259,423.0473324265464 Z" fill="none" stroke="#FFFFFF" stroke-width="1.8344381010785877" /><path d="M 539.0641026354584,409.92830204856415 L 544.794405442718,423.0473324265464 L 558.1228967588471,417.8227130569484 L 552.8982773892491,431.15120437307746 L 566.0173077672314,436.88150718033705 L 552.8982773892491,442.61180998759664 L 558.1228967588471,455.94030130372573 L 544.794405442718,450.7156819341277 L 539.0641026354584,463.83471231210996 L 533.3337998281988,450.7156819341277 L 520.0053085120697,455.94030130372573 L 525.2299278816678,442.61180998759664 L 512.1108975036855,436.88150718033705 L 525.2299278816678,431.15120437307746 L 520.0053085120697,417.8227130569484 L 533.3337998281988,423.0473324265464 Z" fill="none" stroke="#FFFFFF" stroke-width="1.8344381010785877" /><path d="M -29.94800570196991,461.7982479243761 L -24.21770289471035,474.91727830235834 L -10.889211578581225,469.6926589327603 L -16.113830948179256,483.0211502488894 L -2.9948005701969898,488.751453056149 L -16.113830948179256,494.4817558634086 L -10.889211578581225,507.81024717953767 L -24.21770289471035,502.58562780993964 L -29.94800570196991,515.704658187922 L -35.678308509229474,502.58562780993964 L -49.0067998253586,507.81024717953767 L -43.78218045576057,494.4817558634086 L -56.90121083374284,488.751453056149 L -43.78218045576057,483.0211502488894 L -49.0067998253586,469.6926589327603 L -35.67830850922948,474.91727830235834 Z" fill="none" stroke="#FFFFFF" stroke-width="1.8344381010785877" /><path d="M 29.94800570196991,461.7982479243761 L 35.678308509229474,474.91727830235834 L 49.0067998253586,469.6926589327603 L 43.78218045576057,483.0211502488894 L 56.90121083374284,488.751453056149 L 43.78218045576057,494.4817558634086 L 49.0067998253586,507.81024717953767 L 35.678308509229474,502.58562780993964 L 29.94800570196991,515.704658187922 L 24.21770289471035,502.58562780993964 L 10.889211578581229,507.81024717953767 L 16.11383094817926,494.4817558634086 L 2.9948005701969898,488.751453056149 L 16.113830948179256,483.0211502488894 L 10.889211578581222,469.6926589327603 L 24.217702894710342,474.91727830235834 Z" fill="none" stroke="#FFFFFF" stroke-width="1.8344381010785877" /><path d="M 89.84401710590973,461.7982479243761 L 95.57431991316929,474.91727830235834 L 108.90281122929841,469.6926589327603 L 103.67819185970038,483.0211502488894 L 116.79722223768265,488.751453056149 L 103.67819185970038,494.4817558634086 L 108.90281122929841,507.81024717953767 L 95.57431991316929,502.58562780993964 L 89.84401710590973,515.704658187922 L 84.11371429865017,502.58562780993964 L 70.78522298252105,507.81024717953767 L 76.00984235211908,494.4817558634086 L 62.89081197413681,488.751453056149 L 76.00984235211908,483.0211502488894 L 70.78522298252103,469.6926589327603 L 84.11371429865015,474.91727830235834 Z" fill="none" stroke="#FFFFFF" stroke-width="1.8344381010785877" /><path d="M 149.74002850984954,461.7982479243761 L 155.4703313171091,474.91727830235834 L 168.79882263323822,469.6926589327603 L 163.5742032636402,483.0211502488894 L 176.69323364162247,488.751453056149 L 163.5742032636402,494.4817558634086 L 168.79882263323822,507.81024717953767 L 155.4703313171091,502.58562780993964 L 149.74002850984954,515.704658187922 L 144.00972570258998,502.58562780993964 L 130.68123438646086,507.81024717953767 L 135.9058537560589,494.4817558634086 L 122.78682337807662,488.751453056149 L 135.9058537560589,483.0211502488894 L 130.68123438646086,469.6926589327603 L 144.00972570258998,474.91727830235834 Z" fill="none" stroke="#FFFFFF" stroke-width="1.8344381010785877" /><path d="M 209.63603991378938,461.7982479243761 L 215.36634272104894,474.91727830235834 L 228.69483403717805,469.6926589327603 L 223.47021466758002,483.0211502488894 L 236.5892450455623,488.751453056149 L 223.47021466758002,494.4817558634086 L 228.69483403717805,507.81024717953767 L 215.36634272104894,502.58562780993964 L 209.63603991378938,515.704658187922 L 203.9057371065298,502.58562780993964 L 190.5772457904007,507.81024717953767 L 195.80186515999873,494.4817558634086 L 182.68283478201644,488.751453056149 L 195.80186515999873,483.0211502488894 L 190.5772457904007,469.6926589327603 L 203.9057371065298,474.91727830235834 Z" fill="none" stroke="#FFFFFF" stroke-width="1.8344381010785877" /><path d="M 269.5320513177292,461.7982479243761 L 275.2623541249888,474.91727830235834 L 288.5908454411179,469.6926589327603 L 283.36622607151986,483.0211502488894 L 296.4852564495021,488.751453056149 L 283.36622607151986,494.4817558634086 L 288.5908454411179,507.81024717953767 L 275.2623541249888,502.58562780993964 L 269.5320513177292,515.704658187922 L 263.8017485104697,502.58562780993964 L 250.47325719434053,507.81024717953767 L 255.69787656393856,494.4817558634086 L 242.57884618595628,488.751453056149 L 255.69787656393856,483.0211502488894 L 250.47325719434053,469.6926589327603 L 263.8017485104696,474.91727830235834 Z" fill="none" stroke="#FFFFFF" stroke-width="1.8344381010785877" /><path d="M 329.428062721669,461.7982479243761 L 335.1583655289286,474.91727830235834 L 348.4868568450577,469.6926589327603 L 343.26223747545964,483.0211502488894 L 356.3812678534419,488.751453056149 L 343.26223747545964,494.4817558634086 L 348.4868568450577,507.81024717953767 L 335.1583655289286,502.58562780993964 L 329.428062721669,515.704658187922 L 323.6977599144094,502.58562780993964 L 310.3692685982803,507.81024717953767 L 315.59388796787835,494.4817558634086 L 302.4748575898961,488.751453056149 L 315.59388796787835,483.0211502488894 L 310.3692685982803,469.6926589327603 L 323.6977599144094,474.91727830235834 Z" fill="none" stroke="#FFFFFF" stroke-width="1.8344381010785877" /><path d="M 389.32407412560883,461.7982479243761 L 395.0543769328684,474.91727830235834 L 408.3828682489975,469.6926589327603 L 403.1582488793995,483.0211502488894 L 416.27727925738174,488.751453056149 L 403.1582488793995,494.4817558634086 L 408.3828682489975,507.81024717953767 L 395.0543769328684,502.58562780993964 L 389.32407412560883,515.704658187922 L 383.59377131834924,502.58562780993964 L 370.26528000222015,507.81024717953767 L 375.4898993718182,494.4817558634086 L 362.3708689938359,488.751453056149 L 375.4898993718182,483.0211502488894 L 370.26528000222015,469.6926589327603 L 383.59377131834924,474.91727830235834 Z" fill="none" stroke="#FFFFFF" stroke-width="1.8344381010785877" /><path d="M 449.22008552954867,461.7982479243761 L 454.95038833680826,474.91727830235834 L 468.27887965293735,469.6926589327603 L 463.0542602833393,483.0211502488894 L 476.1732906613216,488.751453056149 L 463.0542602833393,494.4817558634086 L 468.27887965293735,507.81024717953767 L 454.95038833680826,502.58562780993964 L 449.22008552954867,515.704658187922 L 443.4897827222891,502.58562780993964 L 430.16129140616,507.81024717953767 L 435.385910775758,494.4817558634086 L 422.26688039777576,488.751453056149 L 435.385910775758,483.0211502488894 L 430.16129140616,469.6926589327603 L 443.4897827222891,474.91727830235834 Z" fill="none" stroke="#FFFFFF" stroke-width="1.8344381010785877" /><path d="M 509.1160969334885,461.7982479243761 L 514.8463997407481,474.91727830235834 L 528.1748910568772,469.6926589327603 L 522.9502716872792,483.0211502488894 L 536.0693020652615,488.751453056149 L 522.9502716872792,494.4817558634086 L 528.1748910568772,507.81024717953767 L 514.8463997407481,502.58562780993964 L 509.1160969334885,515.704658187922 L 503.3857941262289,502.58562780993964 L 490.0573028100998,507.81024717953767 L 495.28192217969786,494.4817558634086 L 482.1628918017156,488.751453056149 L 495.28192217969786,483.0211502488894 L 490.0573028100998,469.6926589327603 L 503.3857941262289,474.91727830235834 Z" fill="none" stroke="#FFFFFF" stroke-width="1.8344381010785877" /><path d="M 569.0121083374283,461.7982479243761 L 574.7424111446879,474.91727830235834 L 588.070902460817,469.6926589327603 L 582.846283091219,483.0211502488894 L 595.9653134692013,488.751453056149 L 582.846283091219,494.4817558634086 L 588.070902460817,507.81024717953767 L 574.7424111446879,502.58562780993964 L 569.0121083374283,515.704658187922 L 563.2818055301688,502.58562780993964 L 549.9533142140397,507.81024717953767 L 555.1779335836377,494.4817558634086 L 542.0589032056554,488.751453056149 L 555.1779335836377,483.0211502488894 L 549.9533142140397,469.6926589327603 L 563.2818055301688,474.91727830235834 Z" fill="none" stroke="#FFFFFF" stroke-width="1.8344381010785877" /><line x1="26.953205131772922" y1="21.921940173841975" x2="32.942806272166905" y2="21.921940173841975" stroke="#FFFFFF" stroke-width="0.5"/><line x1="86.84921653571274" y1="21.921940173841975" x2="92.83881767610673" y2="21.921940173841975" stroke="#FFFFFF" stroke-width="0.5"/><line x1="146.74522793965258" y1="21.921940173841975" x2="152.73482908004652" y2="21.921940173841975" stroke="#FFFFFF" stroke-width="0.5"/><line x1="206.6412393435924" y1="21.921940173841975" x2="212.63084048398636" y2="21.921940173841975" stroke="#FFFFFF" stroke-width="0.5"/><line x1="266.5372507475322" y1="21.921940173841975" x2="272.5268518879262" y2="21.921940173841975" stroke="#FFFFFF" stroke-width="0.5"/><line x1="326.43326215147204" y1="21.921940173841975" x2="332.422863291866" y2="21.921940173841975" stroke="#FFFFFF" stroke-width="0.5"/><line x1="386.3292735554118" y1="21.921940173841975" x2="392.31887469580585" y2="21.921940173841975" stroke="#FFFFFF" stroke-width="0.5"/><line x1="446.22528495935165" y1="21.921940173841975" x2="452.2148860997457" y2="21.921940173841975" stroke="#FFFFFF" stroke-width="0.5"/><line x1="56.90121083374284" y1="73.79188604965387" x2="62.89081197413681" y2="73.79188604965387" stroke="#FFFFFF" stroke-width="0.5"/><line x1="116.79722223768265" y1="73.79188604965387" x2="122.78682337807662" y2="73.79188604965387" stroke="#FFFFFF" stroke-width="0.5"/><line x1="176.69323364162247" y1="73.79188604965387" x2="182.68283478201644" y2="73.79188604965387" stroke="#FFFFFF" stroke-width="0.5"/><line x1="236.5892450455623" y1="73.79188604965387" x2="242.57884618595628" y2="73.79188604965387" stroke="#FFFFFF" stroke-width="0.5"/><line x1="296.4852564495021" y1="73.79188604965387" x2="302.4748575898961" y2="73.79188604965387" stroke="#FFFFFF" stroke-width="0.5"/><line x1="356.3812678534419" y1="73.79188604965387" x2="362.3708689938359" y2="73.79188604965387" stroke="#FFFFFF" stroke-width="0.5"/><line x1="416.27727925738174" y1="73.79188604965387" x2="422.26688039777576" y2="73.79188604965387" stroke="#FFFFFF" stroke-width="0.5"/><line x1="476.1732906613216" y1="73.79188604965387" x2="482.1628918017156" y2="73.79188604965387" stroke="#FFFFFF" stroke-width="0.5"/><line x1="26.953205131772922" y1="125.66183192546572" x2="32.942806272166905" y2="125.66183192546572" stroke="#FFFFFF" stroke-width="0.5"/><line x1="86.84921653571274" y1="125.66183192546572" x2="92.83881767610673" y2="125.66183192546572" stroke="#FFFFFF" stroke-width="0.5"/><line x1="146.74522793965258" y1="125.66183192546572" x2="152.73482908004652" y2="125.66183192546572" stroke="#FFFFFF" stroke-width="0.5"/><line x1="206.6412393435924" y1="125.66183192546572" x2="212.63084048398636" y2="125.66183192546572" stroke="#FFFFFF" stroke-width="0.5"/><line x1="266.5372507475322" y1="125.66183192546572" x2="272.5268518879262" y2="125.66183192546572" stroke="#FFFFFF" stroke-width="0.5"/><line x1="326.43326215147204" y1="125.66183192546572" x2="332.422863291866" y2="125.66183192546572" stroke="#FFFFFF" stroke-width="0.5"/><line x1="386.3292735554118" y1="125.66183192546572" x2="392.31887469580585" y2="125.66183192546572" stroke="#FFFFFF" stroke-width="0.5"/><line x1="446.22528495935165" y1="125.66183192546572" x2="452.2148860997457" y2="125.66183192546572" stroke="#FFFFFF" stroke-width="0.5"/><line x1="56.90121083374284" y1="177.53177780127763" x2="62.89081197413681" y2="177.53177780127763" stroke="#FFFFFF" stroke-width="0.5"/><line x1="116.79722223768265" y1="177.53177780127763" x2="122.78682337807662" y2="177.53177780127763" stroke="#FFFFFF" stroke-width="0.5"/><line x1="176.69323364162247" y1="177.53177780127763" x2="182.68283478201644" y2="177.53177780127763" stroke="#FFFFFF" stroke-width="0.5"/><line x1="236.5892450455623" y1="177.53177780127763" x2="242.57884618595628" y2="177.53177780127763" stroke="#FFFFFF" stroke-width="0.5"/><line x1="296.4852564495021" y1="177.53177780127763" x2="302.4748575898961" y2="177.53177780127763" stroke="#FFFFFF" stroke-width="0.5"/><line x1="356.3812678534419" y1="177.53177780127763" x2="362.3708689938359" y2="177.53177780127763" stroke="#FFFFFF" stroke-width="0.5"/><line x1="416.27727925738174" y1="177.53177780127763" x2="422.26688039777576" y2="177.53177780127763" stroke="#FFFFFF" stroke-width="0.5"/><line x1="476.1732906613216" y1="177.53177780127763" x2="482.1628918017156" y2="177.53177780127763" stroke="#FFFFFF" stroke-width="0.5"/><line x1="26.953205131772922" y1="229.40172367708954" x2="32.942806272166905" y2="229.40172367708954" stroke="#FFFFFF" stroke-width="0.5"/><line x1="86.84921653571274" y1="229.40172367708954" x2="92.83881767610673" y2="229.40172367708954" stroke="#FFFFFF" stroke-width="0.5"/><line x1="146.74522793965258" y1="229.40172367708954" x2="152.73482908004652" y2="229.40172367708954" stroke="#FFFFFF" stroke-width="0.5"/><line x1="206.6412393435924" y1="229.40172367708954" x2="212.63084048398636" y2="229.40172367708954" stroke="#FFFFFF" stroke-width="0.5"/><line x1="266.5372507475322" y1="229.40172367708954" x2="272.5268518879262" y2="229.40172367708954" stroke="#FFFFFF" stroke-width="0.5"/><line x1="326.43326215147204" y1="229.40172367708954" x2="332.422863291866" y2="229.40172367708954" stroke="#FFFFFF" stroke-width="0.5"/><line x1="386.3292735554118" y1="229.40172367708954" x2="392.31887469580585" y2="229.40172367708954" stroke="#FFFFFF" stroke-width="0.5"/><line x1="446.22528495935165" y1="229.40172367708954" x2="452.2148860997457" y2="229.40172367708954" stroke="#FFFFFF" stroke-width="0.5"/><line x1="56.90121083374284" y1="281.27166955290136" x2="62.89081197413681" y2="281.27166955290136" stroke="#FFFFFF" stroke-width="0.5"/><line x1="116.79722223768265" y1="281.27166955290136" x2="122.78682337807662" y2="281.27166955290136" stroke="#FFFFFF" stroke-width="0.5"/><line x1="176.69323364162247" y1="281.27166955290136" x2="182.68283478201644" y2="281.27166955290136" stroke="#FFFFFF" stroke-width="0.5"/><line x1="236.5892450455623" y1="281.27166955290136" x2="242.57884618595628" y2="281.27166955290136" stroke="#FFFFFF" stroke-width="0.5"/><line x1="296.4852564495021" y1="281.27166955290136" x2="302.4748575898961" y2="281.27166955290136" stroke="#FFFFFF" stroke-width="0.5"/><line x1="356.3812678534419" y1="281.27166955290136" x2="362.3708689938359" y2="281.27166955290136" stroke="#FFFFFF" stroke-width="0.5"/><line x1="416.27727925738174" y1="281.27166955290136" x2="422.26688039777576" y2="281.27166955290136" stroke="#FFFFFF" stroke-width="0.5"/><line x1="476.1732906613216" y1="281.27166955290136" x2="482.1628918017156" y2="281.27166955290136" stroke="#FFFFFF" stroke-width="0.5"/><line x1="26.953205131772922" y1="333.1416154287133" x2="32.942806272166905" y2="333.1416154287133" stroke="#FFFFFF" stroke-width="0.5"/><line x1="86.84921653571274" y1="333.1416154287133" x2="92.83881767610673" y2="333.1416154287133" stroke="#FFFFFF" stroke-width="0.5"/><line x1="146.74522793965258" y1="333.1416154287133" x2="152.73482908004652" y2="333.1416154287133" stroke="#FFFFFF" stroke-width="0.5"/><line x1="206.6412393435924" y1="333.1416154287133" x2="212.63084048398636" y2="333.1416154287133" stroke="#FFFFFF" stroke-width="0.5"/><line x1="266.5372507475322" y1="333.1416154287133" x2="272.5268518879262" y2="333.1416154287133" stroke="#FFFFFF" stroke-width="0.5"/><line x1="326.43326215147204" y1="333.1416154287133" x2="332.422863291866" y2="333.1416154287133" stroke="#FFFFFF" stroke-width="0.5"/><line x1="386.3292735554118" y1="333.1416154287133" x2="392.31887469580585" y2="333.1416154287133" stroke="#FFFFFF" stroke-width="0.5"/><line x1="446.22528495935165" y1="333.1416154287133" x2="452.2148860997457" y2="333.1416154287133" stroke="#FFFFFF" stroke-width="0.5"/><line x1="56.90121083374284" y1="385.0115613045252" x2="62.89081197413681" y2="385.0115613045252" stroke="#FFFFFF" stroke-width="0.5"/><line x1="116.79722223768265" y1="385.0115613045252" x2="122.78682337807662" y2="385.0115613045252" stroke="#FFFFFF" stroke-width="0.5"/><line x1="176.69323364162247" y1="385.0115613045252" x2="182.68283478201644" y2="385.0115613045252" stroke="#FFFFFF" stroke-width="0.5"/><line x1="236.5892450455623" y1="385.0115613045252" x2="242.57884618595628" y2="385.0115613045252" stroke="#FFFFFF" stroke-width="0.5"/><line x1="296.4852564495021" y1="385.0115613045252" x2="302.4748575898961" y2="385.0115613045252" stroke="#FFFFFF" stroke-width="0.5"/><line x1="356.3812678534419" y1="385.0115613045252" x2="362.3708689938359" y2="385.0115613045252" stroke="#FFFFFF" stroke-width="0.5"/><line x1="416.27727925738174" y1="385.0115613045252" x2="422.26688039777576" y2="385.0115613045252" stroke="#FFFFFF" stroke-width="0.5"/><line x1="476.1732906613216" y1="385.0115613045252" x2="482.1628918017156" y2="385.0115613045252" stroke="#FFFFFF" stroke-width="0.5"/><line x1="26.953205131772922" y1="436.88150718033705" x2="32.942806272166905" y2="436.88150718033705" stroke="#FFFFFF" stroke-width="0.5"/><line x1="86.84921653571274" y1="436.88150718033705" x2="92.83881767610673" y2="436.88150718033705" stroke="#FFFFFF" stroke-width="0.5"/><line x1="146.74522793965258" y1="436.88150718033705" x2="152.73482908004652" y2="436.88150718033705" stroke="#FFFFFF" stroke-width="0.5"/><line x1="206.6412393435924" y1="436.88150718033705" x2="212.63084048398636" y2="436.88150718033705" stroke="#FFFFFF" stroke-width="0.5"/><line x1="266.5372507475322" y1="436.88150718033705" x2="272.5268518879262" y2="436.88150718033705" stroke="#FFFFFF" stroke-width="0.5"/><line x1="326.43326215147204" y1="436.88150718033705" x2="332.422863291866" y2="436.88150718033705" stroke="#FFFFFF" stroke-width="0.5"/><line x1="386.3292735554118" y1="436.88150718033705" x2="392.31887469580585" y2="436.88150718033705" stroke="#FFFFFF" stroke-width="0.5"/><line x1="446.22528495935165" y1="436.88150718033705" x2="452.2148860997457" y2="436.88150718033705" stroke="#FFFFFF" stroke-width="0.5"/><line x1="56.90121083374284" y1="488.751453056149" x2="62.89081197413681" y2="488.751453056149" stroke="#FFFFFF" stroke-width="0.5"/><line x1="116.79722223768265" y1="488.751453056149" x2="122.78682337807662" y2="488.751453056149" stroke="#FFFFFF" stroke-width="0.5"/><line x1="176.69323364162247" y1="488.751453056149" x2="182.68283478201644" y2="488.751453056149" stroke="#FFFFFF" stroke-width="0.5"/><line x1="236.5892450455623" y1="488.751453056149" x2="242.57884618595628" y2="488.751453056149" stroke="#FFFFFF" stroke-width="0.5"/><line x1="296.4852564495021" y1="488.751453056149" x2="302.4748575898961" y2="488.751453056149" stroke="#FFFFFF" stroke-width="0.5"/><line x1="356.3812678534419" y1="488.751453056149" x2="362.3708689938359" y2="488.751453056149" stroke="#FFFFFF" stroke-width="0.5"/><line x1="416.27727925738174" y1="488.751453056149" x2="422.26688039777576" y2="488.751453056149" stroke="#FFFFFF" stroke-width="0.5"/><line x1="476.1732906613216" y1="488.751453056149" x2="482.1628918017156" y2="488.751453056149" stroke="#FFFFFF" stroke-width="0.5"/></g></svg>