<svg xmlns="http://www.w3.org/2000/svg" width="512" height="512" viewBox="0 0 512 512"><rect x="0" y="0" width="512" height="512" fill="#050510"/><g opacity="0.12581469420148744"><path d="M -31.139139070811506,-59.164364234541864 L -25.180922760555497,-45.52354569458414 L -11.3223123132579,-50.95596582836511 L -16.75473244703887,-37.097355381067516 L -3.1139139070811517,-31.139139070811506 L -16.75473244703887,-25.180922760555497 L -11.3223123132579,-11.322312313257903 L -25.180922760555497,-16.75473244703887 L -31.139139070811506,-3.1139139070811517 L -37.097355381067516,-16.75473244703887 L -50.95596582836511,-11.3223123132579 L -45.52354569458414,-25.18092276055549 L -59.164364234541864,-31.139139070811503 L -45.52354569458414,-37.09735538106752 L -50.955965828365116,-50.95596582836511 L -37.09735538106752,-45.52354569458414 Z" fill="none" stroke="#0F52BA" stroke-width="2.737152458278999" /><path d="M 31.139139070811506,-59.164364234541864 L 37.097355381067516,-45.52354569458414 L 50.95596582836511,-50.95596582836511 L 45.52354569458414,-37.097355381067516 L 59.164364234541864,-31.139139070811506 L 45.52354569458414,-25.180922760555497 L 50.95596582836511,-11.322312313257903 L 37.097355381067516,-16.75473244703887 L 31.139139070811506,-3.1139139070811517 L 25.180922760555497,-16.75473244703887 L 11.322312313257903,-11.3223123132579 L 16.75473244703887,-25.18092276055549 L 3.1139139070811517,-31.139139070811503 L 16.75473244703887,-37.09735538106752 L 11.322312313257896,-50.95596582836511 L 25.18092276055549,-45.52354569458414 Z" fill="none" stroke="#0F52BA" stroke-width="2.737152458278999" /><path d="M 93.41741721243451,-59.164364234541864 L 99.37563352269052,-45.52354569458414 L 113.23424396998811,-50.95596582836511 L 107.80182383620715,-37.097355381067516 L 121.44264237616487,-31.139139070811506 L 107.80182383620715,-25.180922760555497 L 113.23424396998811,-11.322312313257903 L 99.37563352269052,-16.75473244703887 L 93.41741721243451,-3.1139139070811517 L 87.45920090217851,-16.75473244703887 L 73.60059045488092,-11.3223123132579 L 79.03301058866188,-25.18092276055549 L 65.39219204870416,-31.139139070811503 L 79.03301058866188,-37.09735538106752 L 73.6005904548809,-50.95596582836511 L 87.4592009021785,-45.52354569458414 Z" fill="none" stroke="#0F52BA" stroke-width="2.737152458278999" /><path d="M 155.69569535405753,-59.164364234541864 L 161.65391166431354,-45.52354569458414 L 175.51252211161113,-50.95596582836511 L 170.08010197783017,-37.097355381067516 L 183.72092051778787,-31.139139070811506 L 170.08010197783017,-25.180922760555497 L 175.51252211161113,-11.322312313257903 L 161.65391166431354,-16.75473244703887 L 155.69569535405753,-3.1139139070811517 L 149.73747904380153,-16.75473244703887 L 135.87886859650393,-11.3223123132579 L 141.3112887302849,-25.18092276055549 L 127.67047019032718,-31.139139070811503 L 141.3112887302849,-37.09735538106752 L 135.87886859650393,-50.95596582836511 L 149.73747904380153,-45.52354569458414 Z" fill="none" stroke="#0F52BA" stroke-width="2.737152458278999" /><path d="M 217.97397349568055,-59.164364234541864 L 223.93218980593656,-45.52354569458414 L 237.79080025323415,-50.95596582836511 L 232.3583801194532,-37.097355381067516 L 245.99919865941092,-31.139139070811506 L 232.3583801194532,-25.180922760555497 L 237.79080025323415,-11.322312313257903 L 223.93218980593656,-16.75473244703887 L 217.97397349568055,-3.1139139070811517 L 212.01575718542455,-16.75473244703887 L 198.15714673812695,-11.3223123132579 L 203.58956687190792,-25.18092276055549 L 189.94874833195018,-31.139139070811503 L 203.58956687190792,-37.09735538106752 L 198.15714673812695,-50.95596582836511 L 212.01575718542455,-45.52354569458414 Z" fill="none" stroke="#0F52BA" stroke-width="2.737152458278999" /><path d="M 280.2522516373036,-59.164364234541864 L 286.2104679475596,-45.52354569458414 L 300.0690783948572,-50.95596582836511 L 294.6366582610762,-37.097355381067516 L 308.2774768010339,-31.139139070811506 L 294.6366582610762,-25.180922760555497 L 300.0690783948572,-11.322312313257903 L 286.2104679475596,-16.75473244703887 L 280.2522516373036,-3.1139139070811517 L 274.29403532704754,-16.75473244703887 L 260.43542487975,-11.3223123132579 L 265.86784501353094,-25.18092276055549 L 252.22702647357323,-31.139139070811503 L 265.86784501353094,-37.09735538106752 L 260.43542487975,-50.95596582836511 L 274.29403532704754,-45.52354569458414 Z" fill="none" stroke="#0F52BA" stroke-width="2.737152458278999" /><path d="M 342.53052977892656,-59.164364234541864 L 348.4887460891826,-45.52354569458414 L 362.34735653648016,-50.95596582836511 L 356.9149364026992,-37.097355381067516 L 370.5557549426569,-31.139139070811506 L 356.9149364026992,-25.180922760555497 L 362.34735653648016,-11.322312313257903 L 348.4887460891826,-16.75473244703887 L 342.53052977892656,-3.1139139070811517 L 336.57231346867053,-16.75473244703887 L 322.71370302137296,-11.3223123132579 L 328.14612315515393,-25.18092276055549 L 314.5053046151962,-31.139139070811503 L 328.14612315515393,-37.09735538106752 L 322.71370302137296,-50.95596582836511 L 336.57231346867053,-45.52354569458414 Z" fill="none" stroke="#0F52BA" stroke-width="2.737152458278999" /><path d="M 404.8088079205496,-59.164364234541864 L 410.76702423080565,-45.52354569458414 L 424.6256346781032,-50.95596582836511 L 419.19321454432225,-37.097355381067516 L 432.83403308427995,-31.139139070811506 L 419.19321454432225,-25.180922760555497 L 424.6256346781032,-11.322312313257903 L 410.76702423080565,-16.75473244703887 L 404.8088079205496,-3.1139139070811517 L 398.8505916102936,-16.75473244703887 L 384.991981162996,-11.3223123132579 L 390.424401296777,-25.18092276055549 L 376.78358275681927,-31.139139070811503 L 390.424401296777,-37.09735538106752 L 384.991981162996,-50.95596582836511 L 398.8505916102936,-45.52354569458414 Z" fill="none" stroke="#0F52BA" stroke-width="2.737152458278999" /><path d="M 467.0870860621726,-59.164364234541864 L 473.04530237242864,-45.52354569458414 L 486.9039128197262,-50.95596582836511 L 481.47149268594524,-37.097355381067516 L 495.11231122590294,-31.139139070811506 L 481.47149268594524,-25.180922760555497 L 486.9039128197262,-11.322312313257903 L 473.04530237242864,-16.75473244703887 L 467.0870860621726,-3.1139139070811517 L 461.12886975191657,-16.75473244703887 L 447.270259304619,-11.3223123132579 L 452.70267943839997,-25.18092276055549 L 439.06186089844226,-31.139139070811503 L 452.70267943839997,-37.09735538106752 L 447.270259304619,-50.95596582836511 L 461.12886975191657,-45.52354569458414 Z" fill="none" stroke="#0F52BA" stroke-width="2.737152458278999" /><path d="M 529.3653642037956,-59.164364234541864 L 535.3235805140516,-45.52354569458414 L 549.1821909613492,-50.95596582836511 L 543.7497708275682,-37.097355381067516 L 557.390589367526,-31.139139070811506 L 543.7497708275682,-25.180922760555497 L 549.1821909613492,-11.322312313257903 L 535.3235805140516,-16.75473244703887 L 529.3653642037956,-3.1139139070811517 L 523.4071478935396,-16.75473244703887 L 509.548537446242,-11.3223123132579 L 514.980957580023,-25.18092276055549 L 501.34013904006525,-31.139139070811503 L 514.980957580023,-37.09735538106752 L 509.548537446242,-50.95596582836511 L 523.4071478935396,-45.52354569458414 Z" fill="none" stroke="#0F52BA" stroke-width="2.737152458278999" /><path d="M 1.7160501146073119e-15,-5.23137536389633 L 5.95821631025601,8.409443176061385 L 19.816826757553606,2.977023042280422 L 14.38440662377264,16.835633489578015 L 28.025225163730354,22.793849799834025 L 14.38440662377264,28.752066110090034 L 19.816826757553606,42.61067655738763 L 5.95821631025601,37.17825642360666 L 1.7160501146073119e-15,50.819074963564375 L -5.958216310256009,37.17825642360666 L -19.816826757553603,42.610676557387634 L -14.384406623772636,28.75206611009004 L -28.025225163730354,22.793849799834028 L -14.384406623772637,16.83563348957801 L -19.81682675755361,2.977023042280422 L -5.958216310256018,8.409443176061389 Z" fill="none" stroke="#0F52BA" stroke-width="2.737152458278999" /><path d="M 62.27827814162301,-5.23137536389633 L 68.23649445187903,8.409443176061385 L 82.09510489917662,2.977023042280422 L 76.66268476539565,16.835633489578015 L 90.30350330535336,22.793849799834025 L 76.66268476539565,28.752066110090034 L 82.09510489917662,42.61067655738763 L 68.23649445187903,37.17825642360666 L 62.27827814162301,50.819074963564375 L 56.320061831367006,37.17825642360666 L 42.461451384069406,42.610676557387634 L 47.89387151785038,28.75206611009004 L 34.25305297789266,22.793849799834028 L 47.89387151785037,16.83563348957801 L 42.461451384069406,2.977023042280422 L 56.32006183136699,8.409443176061389 Z" fill="none" stroke="#0F52BA" stroke-width="2.737152458278999" /><path d="M 124.55655628324602,-5.23137536389633 L 130.51477259350204,8.409443176061385 L 144.37338304079964,2.977023042280422 L 138.94096290701867,16.835633489578015 L 152.58178144697638,22.793849799834025 L 138.94096290701867,28.752066110090034 L 144.37338304079964,42.61067655738763 L 130.51477259350204,37.17825642360666 L 124.55655628324602,50.819074963564375 L 118.59833997299002,37.17825642360666 L 104.73972952569243,42.610676557387634 L 110.17214965947339,28.75206611009004 L 96.53133111951567,22.793849799834028 L 110.17214965947339,16.83563348957801 L 104.73972952569241,2.977023042280422 L 118.59833997299,8.409443176061389 Z" fill="none" stroke="#0F52BA" stroke-width="2.737152458278999" /><path d="M 186.83483442486903,-5.23137536389633 L 192.79305073512504,8.409443176061385 L 206.65166118242263,2.977023042280422 L 201.21924104864166,16.835633489578015 L 214.86005958859937,22.793849799834025 L 201.21924104864166,28.752066110090034 L 206.65166118242263,42.61067655738763 L 192.79305073512504,37.17825642360666 L 186.83483442486903,50.819074963564375 L 180.87661811461302,37.17825642360666 L 167.01800766731543,42.610676557387634 L 172.4504278010964,28.75206611009004 L 158.8096092611387,22.793849799834028 L 172.4504278010964,16.83563348957801 L 167.01800766731543,2.977023042280422 L 180.87661811461302,8.409443176061389 Z" fill="none" stroke="#0F52BA" stroke-width="2.737152458278999" /><path d="M 249.11311256649205,-5.23137536389633 L 255.07132887674805,8.409443176061385 L 268.9299393240457,2.977023042280422 L 263.4975191902647,16.835633489578015 L 277.1383377302224,22.793849799834025 L 263.4975191902647,28.752066110090034 L 268.9299393240457,42.61067655738763 L 255.07132887674805,37.17825642360666 L 249.11311256649205,50.819074963564375 L 243.15489625623604,37.17825642360666 L 229.29628580893845,42.610676557387634 L 234.72870594271942,28.75206611009004 L 221.08788740276168,22.793849799834028 L 234.72870594271942,16.83563348957801 L 229.29628580893845,2.977023042280422 L 243.15489625623604,8.409443176061389 Z" fill="none" stroke="#0F52BA" stroke-width="2.737152458278999" /><path d="M 311.39139070811507,-5.23137536389633 L 317.3496070183711,8.409443176061385 L 331.20821746566867,2.977023042280422 L 325.7757973318877,16.835633489578015 L 339.4166158718454,22.793849799834025 L 325.7757973318877,28.752066110090034 L 331.20821746566867,42.61067655738763 L 317.3496070183711,37.17825642360666 L 311.39139070811507,50.819074963564375 L 305.43317439785903,37.17825642360666 L 291.57456395056147,42.610676557387634 L 297.00698408434243,28.75206611009004 L 283.3661655443847,22.793849799834028 L 297.00698408434243,16.83563348957801 L 291.57456395056147,2.977023042280422 L 305.43317439785903,8.409443176061389 Z" fill="none" stroke="#0F52BA" stroke-width="2.737152458278999" /><path d="M 373.66966884973806,-5.23137536389633 L 379.6278851599941,8.409443176061385 L 393.48649560729166,2.977023042280422 L 388.0540754735107,16.835633489578015 L 401.6948940134684,22.793849799834025 L 388.0540754735107,28.752066110090034 L 393.48649560729166,42.61067655738763 L 379.6278851599941,37.17825642360666 L 373.66966884973806,50.819074963564375 L 367.711452539482,37.17825642360666 L 353.85284209218446,42.610676557387634 L 359.2852622259654,28.75206611009004 L 345.6444436860077,22.793849799834028 L 359.2852622259654,16.83563348957801 L 353.85284209218446,2.977023042280422 L 367.711452539482,8.409443176061389 Z" fill="none" stroke="#0F52BA" stroke-width="2.737152458278999" /><path d="M 435.9479469913611,-5.23137536389633 L 441.90616330161714,8.409443176061385 L 455.7647737489147,2.977023042280422 L 450.33235361513374,16.835633489578015 L 463.97317215509145,22.793849799834025 L 450.33235361513374,28.752066110090034 L 455.7647737489147,42.61067655738763 L 441.90616330161714,37.17825642360666 L 435.9479469913611,50.819074963564375 L 429.9897306811051,37.17825642360666 L 416.1311202338075,42.610676557387634 L 421.5635403675885,28.75206611009004 L 407.92272182763077,22.793849799834028 L 421.5635403675885,16.83563348957801 L 416.1311202338075,2.977023042280422 L 429.9897306811051,8.409443176061389 Z" fill="none" stroke="#0F52BA" stroke-width="2.737152458278999" /><path d="M 498.2262251329841,-5.23137536389633 L 504.18444144324013,8.409443176061385 L 518.0430518905378,2.977023042280422 L 512.6106317567568,16.835633489578015 L 526.2514502967144,22.793849799834025 L 512.6106317567568,28.752066110090034 L 518.0430518905378,42.61067655738763 L 504.18444144324013,37.17825642360666 L 498.2262251329841,50.819074963564375 L 492.26800882272806,37.17825642360666 L 478.4093983754305,42.610676557387634 L 483.84181850921146,28.75206611009004 L 470.20099996925376,22.793849799834028 L 483.84181850921146,16.83563348957801 L 478.4093983754305,2.977023042280422 L 492.26800882272806,8.409443176061389 Z" fill="none" stroke="#0F52BA" stroke-width="2.737152458278999" /><path d="M 560.5045032746071,-5.23137536389633 L 566.4627195848632,8.409443176061385 L 580.3213300321607,2.977023042280422 L 574.8889098983798,16.835633489578015 L 588.5297284383375,22.793849799834025 L 574.8889098983798,28.752066110090034 L 580.3213300321607,42.61067655738763 L 566.4627195848632,37.17825642360666 L 560.5045032746071,50.819074963564375 L 554.5462869643511,37.17825642360666 L 540.6876765170535,42.610676557387634 L 546.1200966508345,28.75206611009004 L 532.4792781108767,22.793849799834028 L 546.1200966508345,16.83563348957801 L 540.6876765170535,2.977023042280422 L 554.5462869643511,8.409443176061389 Z" fill="none" stroke="#0F52BA" stroke-width="2.737152458278999" /><path d="M -31.139139070811506,48.7016135067492 L -25.180922760555497,62.34243204670691 L -11.3223123132579,56.91001191292595 L -16.75473244703887,70.76862236022355 L -3.1139139070811517,76.72683867047955 L -16.75473244703887,82.68505498073556 L -11.3223123132579,96.54366542803315 L -25.180922760555497,91.11124529425219 L -31.139139070811506,104.7520638342099 L -37.097355381067516,91.11124529425219 L -50.95596582836511,96.54366542803317 L -45.52354569458414,82.68505498073557 L -59.164364234541864,76.72683867047955 L -45.52354569458414,70.76862236022353 L -50.955965828365116,56.91001191292595 L -37.09735538106752,62.34243204670692 Z" fill="none" stroke="#0F52BA" stroke-width="2.737152458278999" /><path d="M 31.139139070811506,48.7016135067492 L 37.097355381067516,62.34243204670691 L 50.95596582836511,56.91001191292595 L 45.52354569458414,70.76862236022355 L 59.164364234541864,76.72683867047955 L 45.52354569458414,82.68505498073556 L 50.95596582836511,96.54366542803315 L 37.097355381067516,91.11124529425219 L 31.139139070811506,104.7520638342099 L 25.180922760555497,91.11124529425219 L 11.322312313257903,96.54366542803317 L 16.75473244703887,82.68505498073557 L 3.1139139070811517,76.72683867047955 L 16.75473244703887,70.76862236022353 L 11.322312313257896,56.91001191292595 L 25.18092276055549,62.34243204670692 Z" fill="none" stroke="#0F52BA" stroke-width="2.737152458278999" /><path d="M 93.41741721243451,48.7016135067492 L 99.37563352269052,62.34243204670691 L 113.23424396998811,56.91001191292595 L 107.80182383620715,70.76862236022355 L 121.44264237616487,76.72683867047955 L 107.80182383620715,82.68505498073556 L 113.23424396998811,96.54366542803315 L 99.37563352269052,91.11124529425219 L 93.41741721243451,104.7520638342099 L 87.45920090217851,91.11124529425219 L 73.60059045488092,96.54366542803317 L 79.03301058866188,82.68505498073557 L 65.39219204870416,76.72683867047955 L 79.03301058866188,70.76862236022353 L 73.6005904548809,56.91001191292595 L 87.4592009021785,62.34243204670692 Z" fill="none" stroke="#0F52BA" stroke-width="2.737152458278999" /><path d="M 155.69569535405753,48.7016135067492 L 161.65391166431354,62.34243204670691 L 175.51252211161113,56.91001191292595 L 170.08010197783017,70.76862236022355 L 183.72092051778787,76.72683867047955 L 170.08010197783017,82.68505498073556 L 175.51252211161113,96.54366542803315 L 161.65391166431354,91.11124529425219 L 155.69569535405753,104.7520638342099 L 149.73747904380153,91.11124529425219 L 135.87886859650393,96.54366542803317 L 141.3112887302849,82.68505498073557 L 127.67047019032718,76.72683867047955 L 141.3112887302849,70.76862236022353 L 135.87886859650393,56.91001191292595 L 149.73747904380153,62.34243204670692 Z" fill="none" stroke="#0F52BA" stroke-width="2.737152458278999" /><path d="M 217.97397349568055,48.7016135067492 L 223.93218980593656,62.34243204670691 L 237.79080025323415,56.91001191292595 L 232.3583801194532,70.76862236022355 L 245.99919865941092,76.72683867047955 L 232.3583801194532,82.68505498073556 L 237.79080025323415,96.54366542803315 L 223.93218980593656,91.11124529425219 L 217.97397349568055,104.7520638342099 L 212.01575718542455,91.11124529425219 L 198.15714673812695,96.54366542803317 L 203.58956687190792,82.68505498073557 L 189.94874833195018,76.72683867047955 L 203.58956687190792,70.76862236022353 L 198.15714673812695,56.91001191292595 L 212.01575718542455,62.34243204670692 Z" fill="none" stroke="#0F52BA" stroke-width="2.737152458278999" /><path d="M 280.2522516373036,48.7016135067492 L 286.2104679475596,62.34243204670691 L 300.0690783948572,56.91001191292595 L 294.6366582610762,70.76862236022355 L 308.2774768010339,76.72683867047955 L 294.6366582610762,82.68505498073556 L 300.0690783948572,96.54366542803315 L 286.2104679475596,91.11124529425219 L 280.2522516373036,104.7520638342099 L 274.29403532704754,91.11124529425219 L 260.43542487975,96.54366542803317 L 265.86784501353094,82.68505498073557 L 252.22702647357323,76.72683867047955 L 265.86784501353094,70.76862236022353 L 260.43542487975,56.91001191292595 L 274.29403532704754,62.34243204670692 Z" fill="none" stroke="#0F52BA" stroke-width="2.737152458278999" /><path d="M 342.53052977892656,48.7016135067492 L 348.4887460891826,62.34243204670691 L 362.34735653648016,56.91001191292595 L 356.9149364026992,70.76862236022355 L 370.5557549426569,76.72683867047955 L 356.9149364026992,82.68505498073556 L 362.34735653648016,96.54366542803315 L 348.4887460891826,91.11124529425219 L 342.53052977892656,104.7520638342099 L 336.57231346867053,91.11124529425219 L 322.71370302137296,96.54366542803317 L 328.14612315515393,82.68505498073557 L 314.5053046151962,76.72683867047955 L 328.14612315515393,70.76862236022353 L 322.71370302137296,56.91001191292595 L 336.57231346867053,62.34243204670692 Z" fill="none" stroke="#0F52BA" stroke-width="2.737152458278999" /><path d="M 404.8088079205496,48.7016135067492 L 410.76702423080565,62.34243204670691 L 424.6256346781032,56.91001191292595 L 419.19321454432225,70.76862236022355 L 432.83403308427995,76.72683867047955 L 419.19321454432225,82.68505498073556 L 424.6256346781032,96.54366542803315 L 410.76702423080565,91.11124529425219 L 404.8088079205496,104.7520638342099 L 398.8505916102936,91.11124529425219 L 384.991981162996,96.54366542803317 L 390.424401296777,82.68505498073557 L 376.78358275681927,76.72683867047955 L 390.424401296777,70.76862236022353 L 384.991981162996,56.91001191292595 L 398.8505916102936,62.34243204670692 Z" fill="none" stroke="#0F52BA" stroke-width="2.737152458278999" /><path d="M 467.0870860621726,48.7016135067492 L 473.04530237242864,62.34243204670691 L 486.9039128197262,56.91001191292595 L 481.47149268594524,70.76862236022355 L 495.11231122590294,76.72683867047955 L 481.47149268594524,82.68505498073556 L 486.9039128197262,96.54366542803315 L 473.04530237242864,91.11124529425219 L 467.0870860621726,104.7520638342099 L 461.12886975191657,91.11124529425219 L 447.270259304619,96.54366542803317 L 452.70267943839997,82.68505498073557 L 439.06186089844226,76.72683867047955 L 452.70267943839997,70.76862236022353 L 447.270259304619,56.91001191292595 L 461.12886975191657,62.34243204670692 Z" fill="none" stroke="#0F52BA" stroke-width="2.737152458278999" /><path d="M 529.3653642037956,48.7016135067492 L 535.3235805140516,62.34243204670691 L 549.1821909613492,56.91001191292595 L 543.7497708275682,70.76862236022355 L 557.390589367526,76.72683867047955 L 543.7497708275682,82.68505498073556 L 549.1821909613492,96.54366542803315 L 535.3235805140516,91.11124529425219 L 529.3653642037956,104.7520638342099 L 523.4071478935396,91.11124529425219 L 509.548537446242,96.54366542803317 L 514.980957580023,82.68505498073557 L 501.34013904006525,76.72683867047955 L 514.980957580023,70.76862236022353 L 509.548537446242,56.91001191292595 L 523.4071478935396,62.34243204670692 Z" fill="none" stroke="#0F52BA" stroke-width="2.737152458278999" /><path d="M 1.7160501146073119e-15,102.63460237739473 L 5.95821631025601,116.27542091735245 L 19.816826757553606,110.84300078357148 L 14.38440662377264,124.70161123086908 L 28.025225163730354,130.65982754112508 L 14.38440662377264,136.6180438513811 L 19.816826757553606,150.47665429867868 L 5.95821631025601,145.04423416489772 L 1.7160501146073119e-15,158.68505270485542 L -5.958216310256009,145.04423416489772 L -19.816826757553603,150.47665429867868 L -14.384406623772636,136.6180438513811 L -28.025225163730354,130.65982754112508 L -14.384406623772637,124.70161123086906 L -19.81682675755361,110.84300078357148 L -5.958216310256018,116.27542091735245 Z" fill="none" stroke="#0F52BA" stroke-width="2.737152458278999" /><path d="M 62.27827814162301,102.63460237739473 L 68.23649445187903,116.27542091735245 L 82.09510489917662,110.84300078357148 L 76.66268476539565,124.70161123086908 L 90.30350330535336,130.65982754112508 L 76.66268476539565,136.6180438513811 L 82.09510489917662,150.47665429867868 L 68.23649445187903,145.04423416489772 L 62.27827814162301,158.68505270485542 L 56.320061831367006,145.04423416489772 L 42.461451384069406,150.47665429867868 L 47.89387151785038,136.6180438513811 L 34.25305297789266,130.65982754112508 L 47.89387151785037,124.70161123086906 L 42.461451384069406,110.84300078357148 L 56.32006183136699,116.27542091735245 Z" fill="none" stroke="#0F52BA" stroke-width="2.737152458278999" /><path d="M 124.55655628324602,102.63460237739473 L 130.51477259350204,116.27542091735245 L 144.37338304079964,110.84300078357148 L 138.94096290701867,124.70161123086908 L 152.58178144697638,130.65982754112508 L 138.94096290701867,136.6180438513811 L 144.37338304079964,150.47665429867868 L 130.51477259350204,145.04423416489772 L 124.55655628324602,158.68505270485542 L 118.59833997299002,145.04423416489772 L 104.73972952569243,150.47665429867868 L 110.17214965947339,136.6180438513811 L 96.53133111951567,130.65982754112508 L 110.17214965947339,124.70161123086906 L 104.73972952569241,110.84300078357148 L 118.59833997299,116.27542091735245 Z" fill="none" stroke="#0F52BA" stroke-width="2.737152458278999" /><path d="M 186.83483442486903,102.63460237739473 L 192.79305073512504,116.27542091735245 L 206.65166118242263,110.84300078357148 L 201.21924104864166,124.70161123086908 L 214.86005958859937,130.65982754112508 L 201.21924104864166,136.6180438513811 L 206.65166118242263,150.47665429867868 L 192.79305073512504,145.04423416489772 L 186.83483442486903,158.68505270485542 L 180.87661811461302,145.04423416489772 L 167.01800766731543,150.47665429867868 L 172.4504278010964,136.6180438513811 L 158.8096092611387,130.65982754112508 L 172.4504278010964,124.70161123086906 L 167.01800766731543,110.84300078357148 L 180.87661811461302,116.27542091735245 Z" fill="none" stroke="#0F52BA" stroke-width="2.737152458278999" /><path d="M 249.11311256649205,102.63460237739473 L 255.07132887674805,116.27542091735245 L 268.9299393240457,110.84300078357148 L 263.4975191902647,124.70161123086908 L 277.1383377302224,130.65982754112508 L 263.4975191902647,136.6180438513811 L 268.9299393240457,150.47665429867868 L 255.07132887674805,145.04423416489772 L 249.11311256649205,158.68505270485542 L 243.15489625623604,145.04423416489772 L 229.29628580893845,150.47665429867868 L 234.72870594271942,136.6180438513811 L 221.08788740276168,130.65982754112508 L 234.72870594271942,124.70161123086906 L 229.29628580893845,110.84300078357148 L 243.15489625623604,116.27542091735245 Z" fill="none" stroke="#0F52BA" stroke-width="2.737152458278999" /><path d="M 311.39139070811507,102.63460237739473 L 317.3496070183711,116.27542091735245 L 331.20821746566867,110.84300078357148 L 325.7757973318877,124.70161123086908 L 339.4166158718454,130.65982754112508 L 325.7757973318877,136.6180438513811 L 331.20821746566867,150.47665429867868 L 317.3496070183711,145.04423416489772 L 311.39139070811507,158.68505270485542 L 305.43317439785903,145.04423416489772 L 291.57456395056147,150.47665429867868 L 297.00698408434243,136.6180438513811 L 283.3661655443847,130.65982754112508 L 297.00698408434243,124.70161123086906 L 291.57456395056147,110.84300078357148 L 305.43317439785903,116.27542091735245 Z" fill="none" stroke="#0F52BA" stroke-width="2.737152458278999" /><path d="M 373.66966884973806,102.63460237739473 L 379.6278851599941,116.27542091735245 L 393.48649560729166,110.84300078357148 L 388.0540754735107,124.70161123086908 L 401.6948940134684,130.65982754112508 L 388.0540754735107,136.6180438513811 L 393.48649560729166,150.47665429867868 L 379.6278851599941,145.04423416489772 L 373.66966884973806,158.68505270485542 L 367.711452539482,145.04423416489772 L 353.85284209218446,150.47665429867868 L 359.2852622259654,136.6180438513811 L 345.6444436860077,130.65982754112508 L 359.2852622259654,124.70161123086906 L 353.85284209218446,110.84300078357148 L 367.711452539482,116.27542091735245 Z" fill="none" stroke="#0F52BA" stroke-width="2.737152458278999" /><path d="M 435.9479469913611,102.63460237739473 L 441.90616330161714,116.27542091735245 L 455.7647737489147,110.84300078357148 L 450.33235361513374,124.70161123086908 L 463.97317215509145,130.65982754112508 L 450.33235361513374,136.6180438513811 L 455.7647737489147,150.47665429867868 L 441.90616330161714,145.04423416489772 L 435.9479469913611,158.68505270485542 L 429.9897306811051,145.04423416489772 L 416.1311202338075,150.47665429867868 L 421.5635403675885,136.6180438513811 L 407.92272182763077,130.65982754112508 L 421.5635403675885,124.70161123086906 L 416.1311202338075,110.84300078357148 L 429.9897306811051,116.27542091735245 Z" fill="none" stroke="#0F52BA" stroke-width="2.737152458278999" /><path d="M 498.2262251329841,102.63460237739473 L 504.18444144324013,116.27542091735245 L 518.0430518905378,110.84300078357148 L 512.6106317567568,124.70161123086908 L 526.2514502967144,130.65982754112508 L 512.6106317567568,136.6180438513811 L 518.0430518905378,150.47665429867868 L 504.18444144324013,145.04423416489772 L 498.2262251329841,158.68505270485542 L 492.26800882272806,145.04423416489772 L 478.4093983754305,150.47665429867868 L 483.84181850921146,136.6180438513811 L 470.20099996925376,130.65982754112508 L 483.84181850921146,124.70161123086906 L 478.4093983754305,110.84300078357148 L 492.26800882272806,116.27542091735245 Z" fill="none" stroke="#0F52BA" stroke-width="2.737152458278999" /><path d="M 560.5045032746071,102.63460237739473 L 566.4627195848632,116.27542091735245 L 580.3213300321607,110.84300078357148 L 574.8889098983798,124.70161123086908 L 588.5297284383375,130.65982754112508 L 574.8889098983798,136.6180438513811 L 580.3213300321607,150.47665429867868 L 566.4627195848632,145.04423416489772 L 560.5045032746071,158.68505270485542 L 554.5462869643511,145.04423416489772 L 540.6876765170535,150.47665429867868 L 546.1200966508345,136.6180438513811 L 532.4792781108767,130.65982754112508 L 546.1200966508345,124.70161123086906 L 540.6876765170535,110.84300078357148 L 554.5462869643511,116.27542091735245 Z" fill="none" stroke="#0F52BA" stroke-width="2.737152458278999" /><path d="M -31.139139070811506,156.5675912480403 L -25.180922760555497,170.208409787998 L -11.3223123132579,164.77598965421703 L -16.75473244703887,178.63460010151462 L -3.1139139070811517,184.59281641177063 L -16.75473244703887,190.55103272202663 L -11.3223123132579,204.40964316932423 L -25.180922760555497,198.97722303554326 L -31.139139070811506,212.61804157550097 L -37.097355381067516,198.97722303554326 L -50.95596582836511,204.40964316932423 L -45.52354569458414,190.55103272202663 L -59.164364234541864,184.59281641177063 L -45.52354569458414,178.63460010151462 L -50.955965828365116,164.77598965421703 L -37.09735538106752,170.208409787998 Z" fill="none" stroke="#0F52BA" stroke-width="2.737152458278999" /><path d="M 31.139139070811506,156.5675912480403 L 37.097355381067516,170.208409787998 L 50.95596582836511,164.77598965421703 L 45.52354569458414,178.63460010151462 L 59.164364234541864,184.59281641177063 L 45.52354569458414,190.55103272202663 L 50.95596582836511,204.40964316932423 L 37.097355381067516,198.97722303554326 L 31.139139070811506,212.61804157550097 L 25.180922760555497,198.97722303554326 L 11.322312313257903,204.40964316932423 L 16.75473244703887,190.55103272202663 L 3.1139139070811517,184.59281641177063 L 16.75473244703887,178.63460010151462 L 11.322312313257896,164.77598965421703 L 25.18092276055549,170.208409787998 Z" fill="none" stroke="#0F52BA" stroke-width="2.737152458278999" /><path d="M 93.41741721243451,156.5675912480403 L 99.37563352269052,170.208409787998 L 113.23424396998811,164.77598965421703 L 107.80182383620715,178.63460010151462 L 121.44264237616487,184.59281641177063 L 107.80182383620715,190.55103272202663 L 113.23424396998811,204.40964316932423 L 99.37563352269052,198.97722303554326 L 93.41741721243451,212.61804157550097 L 87.45920090217851,198.97722303554326 L 73.60059045488092,204.40964316932423 L 79.03301058866188,190.55103272202663 L 65.39219204870416,184.59281641177063 L 79.03301058866188,178.63460010151462 L 73.6005904548809,164.77598965421703 L 87.4592009021785,170.208409787998 Z" fill="none" stroke="#0F52BA" stroke-width="2.737152458278999" /><path d="M 155.69569535405753,156.5675912480403 L 161.65391166431354,170.208409787998 L 175.51252211161113,164.77598965421703 L 170.08010197783017,178.63460010151462 L 183.72092051778787,184.59281641177063 L 170.08010197783017,190.55103272202663 L 175.51252211161113,204.40964316932423 L 161.65391166431354,198.97722303554326 L 155.69569535405753,212.61804157550097 L 149.73747904380153,198.97722303554326 L 135.87886859650393,204.40964316932423 L 141.3112887302849,190.55103272202663 L 127.67047019032718,184.59281641177063 L 141.3112887302849,178.63460010151462 L 135.87886859650393,164.77598965421703 L 149.73747904380153,170.208409787998 Z" fill="none" stroke="#0F52BA" stroke-width="2.737152458278999" /><path d="M 217.97397349568055,156.5675912480403 L 223.93218980593656,170.208409787998 L 237.79080025323415,164.77598965421703 L 232.3583801194532,178.63460010151462 L 245.99919865941092,184.59281641177063 L 232.3583801194532,190.55103272202663 L 237.79080025323415,204.40964316932423 L 223.93218980593656,198.97722303554326 L 217.97397349568055,212.61804157550097 L 212.01575718542455,198.97722303554326 L 198.15714673812695,204.40964316932423 L 203.58956687190792,190.55103272202663 L 189.94874833195018,184.59281641177063 L 203.58956687190792,178.63460010151462 L 198.15714673812695,164.77598965421703 L 212.01575718542455,170.208409787998 Z" fill="none" stroke="#0F52BA" stroke-width="2.737152458278999" /><path d="M 280.2522516373036,156.5675912480403 L 286.2104679475596,170.208409787998 L 300.0690783948572,164.77598965421703 L 294.6366582610762,178.63460010151462 L 308.2774768010339,184.59281641177063 L 294.6366582610762,190.55103272202663 L 300.0690783948572,204.40964316932423 L 286.2104679475596,198.97722303554326 L 280.2522516373036,212.61804157550097 L 274.29403532704754,198.97722303554326 L 260.43542487975,204.40964316932423 L 265.86784501353094,190.55103272202663 L 252.22702647357323,184.59281641177063 L 265.86784501353094,178.63460010151462 L 260.43542487975,164.77598965421703 L 274.29403532704754,170.208409787998 Z" fill="none" stroke="#0F52BA" stroke-width="2.737152458278999" /><path d="M 342.53052977892656,156.5675912480403 L 348.4887460891826,170.208409787998 L 362.34735653648016,164.77598965421703 L 356.9149364026992,178.63460010151462 L 370.5557549426569,184.59281641177063 L 356.9149364026992,190.55103272202663 L 362.34735653648016,204.40964316932423 L 348.4887460891826,198.97722303554326 L 342.53052977892656,212.61804157550097 L 336.57231346867053,198.97722303554326 L 322.71370302137296,204.40964316932423 L 328.14612315515393,190.55103272202663 L 314.5053046151962,184.59281641177063 L 328.14612315515393,178.63460010151462 L 322.71370302137296,164.77598965421703 L 336.57231346867053,170.208409787998 Z" fill="none" stroke="#0F52BA" stroke-width="2.737152458278999" /><path d="M 404.8088079205496,156.5675912480403 L 410.76702423080565,170.208409787998 L 424.6256346781032,164.77598965421703 L 419.19321454432225,178.63460010151462 L 432.83403308427995,184.59281641177063 L 419.19321454432225,190.55103272202663 L 424.6256346781032,204.40964316932423 L 410.76702423080565,198.97722303554326 L 404.8088079205496,212.61804157550097 L 398.8505916102936,198.97722303554326 L 384.991981162996,204.40964316932423 L 390.424401296777,190.55103272202663 L 376.78358275681927,184.59281641177063 L 390.424401296777,178.63460010151462 L 384.991981162996,164.77598965421703 L 398.8505916102936,170.208409787998 Z" fill="none" stroke="#0F52BA" stroke-width="2.737152458278999" /><path d="M 467.0870860621726,156.5675912480403 L 473.04530237242864,170.208409787998 L 486.9039128197262,164.77598965421703 L 481.47149268594524,178.63460010151462 L 495.11231122590294,184.59281641177063 L 481.47149268594524,190.55103272202663 L 486.9039128197262,204.40964316932423 L 473.04530237242864,198.97722303554326 L 467.0870860621726,212.61804157550097 L 461.12886975191657,198.97722303554326 L 447.270259304619,204.40964316932423 L 452.70267943839997,190.55103272202663 L 439.06186089844226,184.59281641177063 L 452.70267943839997,178.63460010151462 L 447.270259304619,164.77598965421703 L 461.12886975191657,170.208409787998 Z" fill="none" stroke="#0F52BA" stroke-width="2.737152458278999" /><path d="M 529.3653642037956,156.5675912480403 L 535.3235805140516,170.208409787998 L 549.1821909613492,164.77598965421703 L 543.7497708275682,178.63460010151462 L 557.390589367526,184.59281641177063 L 543.7497708275682,190.55103272202663 L 549.1821909613492,204.40964316932423 L 535.3235805140516,198.97722303554326 L 529.3653642037956,212.61804157550097 L 523.4071478935396,198.97722303554326 L 509.548537446242,204.40964316932423 L 514.980957580023,190.55103272202663 L 501.34013904006525,184.59281641177063 L 514.980957580023,178.63460010151462 L 509.548537446242,164.77598965421703 L 523.4071478935396,170.208409787998 Z" fill="none" stroke="#0F52BA" stroke-width="2.737152458278999" /><path d="M 1.7160501146073119e-15,210.50058011868583 L 5.95821631025601,224.14139865864354 L 19.816826757553606,218.70897852486257 L 14.38440662377264,232.56758897216017 L 28.025225163730354,238.52580528241617 L 14.38440662377264,244.48402159267218 L 19.816826757553606,258.34263203996977 L 5.95821631025601,252.9102119061888 L 1.7160501146073119e-15,266.5510304461465 L -5.958216310256009,252.9102119061888 L -19.816826757553603,258.34263203996977 L -14.384406623772636,244.48402159267218 L -28.025225163730354,238.52580528241617 L -14.384406623772637,232.56758897216017 L -19.81682675755361,218.70897852486257 L -5.958216310256018,224.14139865864354 Z" fill="none" stroke="#0F52BA" stroke-width="2.737152458278999" /><path d="M 62.27827814162301,210.50058011868583 L 68.23649445187903,224.14139865864354 L 82.09510489917662,218.70897852486257 L 76.66268476539565,232.56758897216017 L 90.30350330535336,238.52580528241617 L 76.66268476539565,244.48402159267218 L 82.09510489917662,258.34263203996977 L 68.23649445187903,252.9102119061888 L 62.27827814162301,266.5510304461465 L 56.320061831367006,252.9102119061888 L 42.461451384069406,258.34263203996977 L 47.89387151785038,244.48402159267218 L 34.25305297789266,238.52580528241617 L 47.89387151785037,232.56758897216017 L 42.461451384069406,218.70897852486257 L 56.32006183136699,224.14139865864354 Z" fill="none" stroke="#0F52BA" stroke-width="2.737152458278999" /><path d="M 124.55655628324602,210.50058011868583 L 130.51477259350204,224.14139865864354 L 144.37338304079964,218.70897852486257 L 138.94096290701867,232.56758897216017 L 152.58178144697638,238.52580528241617 L 138.94096290701867,244.48402159267218 L 144.37338304079964,258.34263203996977 L 130.51477259350204,252.9102119061888 L 124.55655628324602,266.5510304461465 L 118.59833997299002,252.9102119061888 L 104.73972952569243,258.34263203996977 L 110.17214965947339,244.48402159267218 L 96.53133111951567,238.52580528241617 L 110.17214965947339,232.56758897216017 L 104.73972952569241,218.70897852486257 L 118.59833997299,224.14139865864354 Z" fill="none" stroke="#0F52BA" stroke-width="2.737152458278999" /><path d="M 186.83483442486903,210.50058011868583 L 192.79305073512504,224.14139865864354 L 206.65166118242263,218.70897852486257 L 201.21924104864166,232.56758897216017 L 214.86005958859937,238.52580528241617 L 201.21924104864166,244.48402159267218 L 206.65166118242263,258.34263203996977 L 192.79305073512504,252.9102119061888 L 186.83483442486903,266.5510304461465 L 180.87661811461302,252.9102119061888 L 167.01800766731543,258.34263203996977 L 172.4504278010964,244.48402159267218 L 158.8096092611387,238.52580528241617 L 172.4504278010964,232.56758897216017 L 167.01800766731543,218.70897852486257 L 180.87661811461302,224.14139865864354 Z" fill="none" stroke="#0F52BA" stroke-width="2.737152458278999" /><path d="M 249.11311256649205,210.50058011868583 L 255.07132887674805,224.14139865864354 L 268.9299393240457,218.70897852486257 L 263.4975191902647,232.56758897216017 L 277.1383377302224,238.52580528241617 L 263.4975191902647,244.48402159267218 L 268.9299393240457,258.34263203996977 L 255.07132887674805,252.9102119061888 L 249.11311256649205,266.5510304461465 L 243.15489625623604,252.9102119061888 L 229.29628580893845,258.34263203996977 L 234.72870594271942,244.48402159267218 L 221.08788740276168,238.52580528241617 L 234.72870594271942,232.56758897216017 L 229.29628580893845,218.70897852486257 L 243.15489625623604,224.14139865864354 Z" fill="none" stroke="#0F52BA" stroke-width="2.737152458278999" /><path d="M 311.39139070811507,210.50058011868583 L 317.3496070183711,224.14139865864354 L 331.20821746566867,218.70897852486257 L 325.7757973318877,232.56758897216017 L 339.4166158718454,238.52580528241617 L 325.7757973318877,244.48402159267218 L 331.20821746566867,258.34263203996977 L 317.3496070183711,252.9102119061888 L 311.39139070811507,266.5510304461465 L 305.43317439785903,252.9102119061888 L 291.57456395056147,258.34263203996977 L 297.00698408434243,244.48402159267218 L 283.3661655443847,238.52580528241617 L 297.00698408434243,232.56758897216017 L 291.57456395056147,218.70897852486257 L 305.43317439785903,224.14139865864354 Z" fill="none" stroke="#0F52BA" stroke-width="2.737152458278999" /><path d="M 373.66966884973806,210.50058011868583 L 379.6278851599941,224.14139865864354 L 393.48649560729166,218.70897852486257 L 388.0540754735107,232.56758897216017 L 401.6948940134684,238.52580528241617 L 388.0540754735107,244.48402159267218 L 393.48649560729166,258.34263203996977 L 379.6278851599941,252.9102119061888 L 373.66966884973806,266.5510304461465 L 367.711452539482,252.9102119061888 L 353.85284209218446,258.34263203996977 L 359.2852622259654,244.48402159267218 L 345.6444436860077,238.52580528241617 L 359.2852622259654,232.56758897216017 L 353.85284209218446,218.70897852486257 L 367.711452539482,224.14139865864354 Z" fill="none" stroke="#0F52BA" stroke-width="2.737152458278999" /><path d="M 435.9479469913611,210.50058011868583 L 441.90616330161714,224.14139865864354 L 455.7647737489147,218.70897852486257 L 450.33235361513374,232.56758897216017 L 463.97317215509145,238.52580528241617 L 450.33235361513374,244.48402159267218 L 455.7647737489147,258.34263203996977 L 441.90616330161714,252.9102119061888 L 435.9479469913611,266.5510304461465 L 429.9897306811051,252.9102119061888 L 416.1311202338075,258.34263203996977 L 421.5635403675885,244.48402159267218 L 407.92272182763077,238.52580528241617 L 421.5635403675885,232.56758897216017 L 416.1311202338075,218.70897852486257 L 429.9897306811051,224.14139865864354 Z" fill="none" stroke="#0F52BA" stroke-width="2.737152458278999" /><path d="M 498.2262251329841,210.50058011868583 L 504.18444144324013,224.14139865864354 L 518.0430518905378,218.70897852486257 L 512.6106317567568,232.56758897216017 L 526.2514502967144,238.52580528241617 L 512.6106317567568,244.48402159267218 L 518.0430518905378,258.34263203996977 L 504.18444144324013,252.9102119061888 L 498.2262251329841,266.5510304461465 L 492.26800882272806,252.9102119061888 L 478.4093983754305,258.34263203996977 L 483.84181850921146,244.48402159267218 L 470.20099996925376,238.52580528241617 L 483.84181850921146,232.56758897216017 L 478.4093983754305,218.70897852486257 L 492.26800882272806,224.14139865864354 Z" fill="none" stroke="#0F52BA" stroke-width="2.737152458278999" /><path d="M 560.5045032746071,210.50058011868583 L 566.4627195848632,224.14139865864354 L 580.3213300321607,218.70897852486257 L 574.8889098983798,232.56758897216017 L 588.5297284383375,238.52580528241617 L 574.8889098983798,244.48402159267218 L 580.3213300321607,258.34263203996977 L 566.4627195848632,252.9102119061888 L 560.5045032746071,266.5510304461465 L 554.5462869643511,252.9102119061888 L 540.6876765170535,258.34263203996977 L 546.1200966508345,244.48402159267218 L 532.4792781108767,238.52580528241617 L 546.1200966508345,232.56758897216017 L 540.6876765170535,218.70897852486257 L 554.5462869643511,224.14139865864354 Z" fill="none" stroke="#0F52BA" stroke-width="2.737152458278999" /><path d="M -31.139139070811506,264.4335689893313 L -25.180922760555497,278.074387529289 L -11.3223123132579,272.64196739550806 L -16.75473244703887,286.5005778428056 L -3.1139139070811517,292.45879415306166 L -16.75473244703887,298.4170104633177 L -11.3223123132579,312.27562091061526 L -25.180922760555497,306.8432007768343 L -31.139139070811506,320.484019316792 L -37.097355381067516,306.8432007768343 L -50.95596582836511,312.27562091061526 L -45.52354569458414,298.4170104633177 L -59.164364234541864,292.45879415306166 L -45.52354569458414,286.5005778428056 L -50.955965828365116,272.64196739550806 L -37.09735538106752,278.074387529289 Z" fill="none" stroke="#0F52BA" stroke-width="2.737152458278999" /><path d="M 31.139139070811506,264.4335689893313 L 37.097355381067516,278.074387529289 L 50.95596582836511,272.64196739550806 L 45.52354569458414,286.5005778428056 L 59.164364234541864,292.45879415306166 L 45.52354569458414,298.4170104633177 L 50.95596582836511,312.27562091061526 L 37.097355381067516,306.8432007768343 L 31.139139070811506,320.484019316792 L 25.180922760555497,306.8432007768343 L 11.322312313257903,312.27562091061526 L 16.75473244703887,298.4170104633177 L 3.1139139070811517,292.45879415306166 L 16.75473244703887,286.5005778428056 L 11.322312313257896,272.64196739550806 L 25.18092276055549,278.074387529289 Z" fill="none" stroke="#0F52BA" stroke-width="2.737152458278999" /><path d="M 93.41741721243451,264.4335689893313 L 99.37563352269052,278.074387529289 L 113.23424396998811,272.64196739550806 L 107.80182383620715,286.5005778428056 L 121.44264237616487,292.45879415306166 L 107.80182383620715,298.4170104633177 L 113.23424396998811,312.27562091061526 L 99.37563352269052,306.8432007768343 L 93.41741721243451,320.484019316792 L 87.45920090217851,306.8432007768343 L 73.60059045488092,312.27562091061526 L 79.03301058866188,298.4170104633177 L 65.39219204870416,292.45879415306166 L 79.03301058866188,286.5005778428056 L 73.6005904548809,272.64196739550806 L 87.4592009021785,278.074387529289 Z" fill="none" stroke="#0F52BA" stroke-width="2.737152458278999" /><path d="M 155.69569535405753,264.4335689893313 L 161.65391166431354,278.074387529289 L 175.51252211161113,272.64196739550806 L 170.08010197783017,286.5005778428056 L 183.72092051778787,292.45879415306166 L 170.08010197783017,298.4170104633177 L 175.51252211161113,312.27562091061526 L 161.65391166431354,306.8432007768343 L 155.69569535405753,320.484019316792 L 149.73747904380153,306.8432007768343 L 135.87886859650393,312.27562091061526 L 141.3112887302849,298.4170104633177 L 127.67047019032718,292.45879415306166 L 141.3112887302849,286.5005778428056 L 135.87886859650393,272.64196739550806 L 149.73747904380153,278.074387529289 Z" fill="none" stroke="#0F52BA" stroke-width="2.737152458278999" /><path d="M 217.97397349568055,264.4335689893313 L 223.93218980593656,278.074387529289 L 237.79080025323415,272.64196739550806 L 232.3583801194532,286.5005778428056 L 245.99919865941092,292.45879415306166 L 232.3583801194532,298.4170104633177 L 237.79080025323415,312.27562091061526 L 223.93218980593656,306.8432007768343 L 217.97397349568055,320.484019316792 L 212.01575718542455,306.8432007768343 L 198.15714673812695,312.27562091061526 L 203.58956687190792,298.4170104633177 L 189.94874833195018,292.45879415306166 L 203.58956687190792,286.5005778428056 L 198.15714673812695,272.64196739550806 L 212.01575718542455,278.074387529289 Z" fill="none" stroke="#0F52BA" stroke-width="2.737152458278999" /><path d="M 280.2522516373036,264.4335689893313 L 286.2104679475596,278.074387529289 L 300.0690783948572,272.64196739550806 L 294.6366582610762,286.5005778428056 L 308.2774768010339,292.45879415306166 L 294.6366582610762,298.4170104633177 L 300.0690783948572,312.27562091061526 L 286.2104679475596,306.8432007768343 L 280.2522516373036,320.484019316792 L 274.29403532704754,306.8432007768343 L 260.43542487975,312.27562091061526 L 265.86784501353094,298.4170104633177 L 252.22702647357323,292.45879415306166 L 265.86784501353094,286.5005778428056 L 260.43542487975,272.64196739550806 L 274.29403532704754,278.074387529289 Z" fill="none" stroke="#0F52BA" stroke-width="2.737152458278999" /><path d="M 342.53052977892656,264.4335689893313 L 348.4887460891826,278.074387529289 L 362.34735653648016,272.64196739550806 L 356.9149364026992,286.5005778428056 L 370.5557549426569,292.45879415306166 L 356.9149364026992,298.4170104633177 L 362.34735653648016,312.27562091061526 L 348.4887460891826,306.8432007768343 L 342.53052977892656,320.484019316792 L 336.57231346867053,306.8432007768343 L 322.71370302137296,312.27562091061526 L 328.14612315515393,298.4170104633177 L 314.5053046151962,292.45879415306166 L 328.14612315515393,286.5005778428056 L 322.71370302137296,272.64196739550806 L 336.57231346867053,278.074387529289 Z" fill="none" stroke="#0F52BA" stroke-width="2.737152458278999" /><path d="M 404.8088079205496,264.4335689893313 L 410.76702423080565,278.074387529289 L 424.6256346781032,272.64196739550806 L 419.19321454432225,286.5005778428056 L 432.83403308427995,292.45879415306166 L 419.19321454432225,298.4170104633177 L 424.6256346781032,312.27562091061526 L 410.76702423080565,306.8432007768343 L 404.8088079205496,320.484019316792 L 398.8505916102936,306.8432007768343 L 384.991981162996,312.27562091061526 L 390.424401296777,298.4170104633177 L 376.78358275681927,292.45879415306166 L 390.424401296777,286.5005778428056 L 384.991981162996,272.64196739550806 L 398.8505916102936,278.074387529289 Z" fill="none" stroke="#0F52BA" stroke-width="2.737152458278999" /><path d="M 467.0870860621726,264.4335689893313 L 473.04530237242864,278.074387529289 L 486.9039128197262,272.64196739550806 L 481.47149268594524,286.5005778428056 L 495.11231122590294,292.45879415306166 L 481.47149268594524,298.4170104633177 L 486.9039128197262,312.27562091061526 L 473.04530237242864,306.8432007768343 L 467.0870860621726,320.484019316792 L 461.12886975191657,306.8432007768343 L 447.270259304619,312.27562091061526 L 452.70267943839997,298.4170104633177 L 439.06186089844226,292.45879415306166 L 452.70267943839997,286.5005778428056 L 447.270259304619,272.64196739550806 L 461.12886975191657,278.074387529289 Z" fill="none" stroke="#0F52BA" stroke-width="2.737152458278999" /><path d="M 529.3653642037956,264.4335689893313 L 535.3235805140516,278.074387529289 L 549.1821909613492,272.64196739550806 L 543.7497708275682,286.5005778428056 L 557.390589367526,292.45879415306166 L 543.7497708275682,298.4170104633177 L 549.1821909613492,312.27562091061526 L 535.3235805140516,306.8432007768343 L 529.3653642037956,320.484019316792 L 523.4071478935396,306.8432007768343 L 509.548537446242,312.27562091061526 L 514.980957580023,298.4170104633177 L 501.34013904006525,292.45879415306166 L 514.980957580023,286.5005778428056 L 509.548537446242,272.64196739550806 L 523.4071478935396,278.074387529289 Z" fill="none" stroke="#0F52BA" stroke-width="2.737152458278999" /><path d="M 1.7160501146073119e-15,318.36655785997687 L 5.95821631025601,332.00737639993457 L 19.816826757553606,326.5749562661536 L 14.38440662377264,340.43356671345117 L 28.025225163730354,346.3917830237072 L 14.38440662377264,352.34999933396324 L 19.816826757553606,366.2086097812608 L 5.95821631025601,360.77618964747984 L 1.7160501146073119e-15,374.41700818743755 L -5.958216310256009,360.77618964747984 L -19.816826757553603,366.2086097812608 L -14.384406623772636,352.34999933396324 L -28.025225163730354,346.3917830237072 L -14.384406623772637,340.43356671345117 L -19.81682675755361,326.5749562661536 L -5.958216310256018,332.00737639993457 Z" fill="none" stroke="#0F52BA" stroke-width="2.737152458278999" /><path d="M 62.27827814162301,318.36655785997687 L 68.23649445187903,332.00737639993457 L 82.09510489917662,326.5749562661536 L 76.66268476539565,340.43356671345117 L 90.30350330535336,346.3917830237072 L 76.66268476539565,352.34999933396324 L 82.09510489917662,366.2086097812608 L 68.23649445187903,360.77618964747984 L 62.27827814162301,374.41700818743755 L 56.320061831367006,360.77618964747984 L 42.461451384069406,366.2086097812608 L 47.89387151785038,352.34999933396324 L 34.25305297789266,346.3917830237072 L 47.89387151785037,340.43356671345117 L 42.461451384069406,326.5749562661536 L 56.32006183136699,332.00737639993457 Z" fill="none" stroke="#0F52BA" stroke-width="2.737152458278999" /><path d="M 124.55655628324602,318.36655785997687 L 130.51477259350204,332.00737639993457 L 144.37338304079964,326.5749562661536 L 138.94096290701867,340.43356671345117 L 152.58178144697638,346.3917830237072 L 138.94096290701867,352.34999933396324 L 144.37338304079964,366.2086097812608 L 130.51477259350204,360.77618964747984 L 124.55655628324602,374.41700818743755 L 118.59833997299002,360.77618964747984 L 104.73972952569243,366.2086097812608 L 110.17214965947339,352.34999933396324 L 96.53133111951567,346.3917830237072 L 110.17214965947339,340.43356671345117 L 104.73972952569241,326.5749562661536 L 118.59833997299,332.00737639993457 Z" fill="none" stroke="#0F52BA" stroke-width="2.737152458278999" /><path d="M 186.83483442486903,318.36655785997687 L 192.79305073512504,332.00737639993457 L 206.65166118242263,326.5749562661536 L 201.21924104864166,340.43356671345117 L 214.86005958859937,346.3917830237072 L 201.21924104864166,352.34999933396324 L 206.65166118242263,366.2086097812608 L 192.79305073512504,360.77618964747984 L 186.83483442486903,374.41700818743755 L 180.87661811461302,360.77618964747984 L 167.01800766731543,366.2086097812608 L 172.4504278010964,352.34999933396324 L 158.8096092611387,346.3917830237072 L 172.4504278010964,340.43356671345117 L 167.01800766731543,326.5749562661536 L 180.87661811461302,332.00737639993457 Z" fill="none" stroke="#0F52BA" stroke-width="2.737152458278999" /><path d="M 249.11311256649205,318.36655785997687 L 255.07132887674805,332.00737639993457 L 268.9299393240457,326.5749562661536 L 263.4975191902647,340.43356671345117 L 277.1383377302224,346.3917830237072 L 263.4975191902647,352.34999933396324 L 268.9299393240457,366.2086097812608 L 255.07132887674805,360.77618964747984 L 249.11311256649205,374.41700818743755 L 243.15489625623604,360.77618964747984 L 229.29628580893845,366.2086097812608 L 234.72870594271942,352.34999933396324 L 221.08788740276168,346.3917830237072 L 234.72870594271942,340.43356671345117 L 229.29628580893845,326.5749562661536 L 243.15489625623604,332.00737639993457 Z" fill="none" stroke="#0F52BA" stroke-width="2.737152458278999" /><path d="M 311.39139070811507,318.36655785997687 L 317.3496070183711,332.00737639993457 L 331.20821746566867,326.5749562661536 L 325.7757973318877,340.43356671345117 L 339.4166158718454,346.3917830237072 L 325.7757973318877,352.34999933396324 L 331.20821746566867,366.2086097812608 L 317.3496070183711,360.77618964747984 L 311.39139070811507,374.41700818743755 L 305.43317439785903,360.77618964747984 L 291.57456395056147,366.2086097812608 L 297.00698408434243,352.34999933396324 L 283.3661655443847,346.3917830237072 L 297.00698408434243,340.43356671345117 L 291.57456395056147,326.5749562661536 L 305.43317439785903,332.00737639993457 Z" fill="none" stroke="#0F52BA" stroke-width="2.737152458278999" /><path d="M 373.66966884973806,318.36655785997687 L 379.6278851599941,332.00737639993457 L 393.48649560729166,326.5749562661536 L 388.0540754735107,340.43356671345117 L 401.6948940134684,346.3917830237072 L 388.0540754735107,352.34999933396324 L 393.48649560729166,366.2086097812608 L 379.6278851599941,360.77618964747984 L 373.66966884973806,374.41700818743755 L 367.711452539482,360.77618964747984 L 353.85284209218446,366.2086097812608 L 359.2852622259654,352.34999933396324 L 345.6444436860077,346.3917830237072 L 359.2852622259654,340.43356671345117 L 353.85284209218446,326.5749562661536 L 367.711452539482,332.00737639993457 Z" fill="none" stroke="#0F52BA" stroke-width="2.737152458278999" /><path d="M 435.9479469913611,318.36655785997687 L 441.90616330161714,332.00737639993457 L 455.7647737489147,326.5749562661536 L 450.33235361513374,340.43356671345117 L 463.97317215509145,346.3917830237072 L 450.33235361513374,352.34999933396324 L 455.7647737489147,366.2086097812608 L 441.90616330161714,360.77618964747984 L 435.9479469913611,374.41700818743755 L 429.9897306811051,360.77618964747984 L 416.1311202338075,366.2086097812608 L 421.5635403675885,352.34999933396324 L 407.92272182763077,346.3917830237072 L 421.5635403675885,340.43356671345117 L 416.1311202338075,326.5749562661536 L 429.9897306811051,332.00737639993457 Z" fill="none" stroke="#0F52BA" stroke-width="2.737152458278999" /><path d="M 498.2262251329841,318.36655785997687 L 504.18444144324013,332.00737639993457 L 518.0430518905378,326.5749562661536 L 512.6106317567568,340.43356671345117 L 526.2514502967144,346.3917830237072 L 512.6106317567568,352.34999933396324 L 518.0430518905378,366.2086097812608 L 504.18444144324013,360.77618964747984 L 498.2262251329841,374.41700818743755 L 492.26800882272806,360.77618964747984 L 478.4093983754305,366.2086097812608 L 483.84181850921146,352.34999933396324 L 470.20099996925376,346.3917830237072 L 483.84181850921146,340.43356671345117 L 478.4093983754305,326.5749562661536 L 492.26800882272806,332.00737639993457 Z" fill="none" stroke="#0F52BA" stroke-width="2.737152458278999" /><path d="M 560.5045032746071,318.36655785997687 L 566.4627195848632,332.00737639993457 L 580.3213300321607,326.5749562661536 L 574.8889098983798,340.43356671345117 L 588.5297284383375,346.3917830237072 L 574.8889098983798,352.34999933396324 L 580.3213300321607,366.2086097812608 L 566.4627195848632,360.77618964747984 L 560.5045032746071,374.41700818743755 L 554.5462869643511,360.77618964747984 L 540.6876765170535,366.2086097812608 L 546.1200966508345,352.34999933396324 L 532.4792781108767,346.3917830237072 L 546.1200966508345,340.43356671345117 L 540.6876765170535,326.5749562661536 L 554.5462869643511,332.00737639993457 Z" fill="none" stroke="#0F52BA" stroke-width="2.737152458278999" /><path d="M -31.139139070811506,372.2995467306224 L -25.180922760555497,385.9403652705801 L -11.3223123132579,380.50794513679915 L -16.75473244703887,394.3665555840967 L -3.1139139070811517,400.32477189435275 L -16.75473244703887,406.2829882046088 L -11.3223123132579,420.14159865190635 L -25.180922760555497,414.7091785181254 L -31.139139070811506,428.3499970580831 L -37.097355381067516,414.7091785181254 L -50.95596582836511,420.14159865190635 L -45.52354569458414,406.2829882046088 L -59.164364234541864,400.32477189435275 L -45.52354569458414,394.3665555840967 L -50.955965828365116,380.50794513679915 L -37.09735538106752,385.9403652705801 Z" fill="none" stroke="#0F52BA" stroke-width="2.737152458278999" /><path d="M 31.139139070811506,372.2995467306224 L 37.097355381067516,385.9403652705801 L 50.95596582836511,380.50794513679915 L 45.52354569458414,394.3665555840967 L 59.164364234541864,400.32477189435275 L 45.52354569458414,406.2829882046088 L 50.95596582836511,420.14159865190635 L 37.097355381067516,414.7091785181254 L 31.139139070811506,428.3499970580831 L 25.180922760555497,414.7091785181254 L 11.322312313257903,420.14159865190635 L 16.75473244703887,406.2829882046088 L 3.1139139070811517,400.32477189435275 L 16.75473244703887,394.3665555840967 L 11.322312313257896,380.50794513679915 L 25.18092276055549,385.9403652705801 Z" fill="none" stroke="#0F52BA" stroke-width="2.737152458278999" /><path d="M 93.41741721243451,372.2995467306224 L 99.37563352269052,385.9403652705801 L 113.23424396998811,380.50794513679915 L 107.80182383620715,394.3665555840967 L 121.44264237616487,400.32477189435275 L 107.80182383620715,406.2829882046088 L 113.23424396998811,420.14159865190635 L 99.37563352269052,414.7091785181254 L 93.41741721243451,428.3499970580831 L 87.45920090217851,414.7091785181254 L 73.60059045488092,420.14159865190635 L 79.03301058866188,406.2829882046088 L 65.39219204870416,400.32477189435275 L 79.03301058866188,394.3665555840967 L 73.6005904548809,380.50794513679915 L 87.4592009021785,385.9403652705801 Z" fill="none" stroke="#0F52BA" stroke-width="2.737152458278999" /><path d="M 155.69569535405753,372.2995467306224 L 161.65391166431354,385.9403652705801 L 175.51252211161113,380.50794513679915 L 170.08010197783017,394.3665555840967 L 183.72092051778787,400.32477189435275 L 170.08010197783017,406.2829882046088 L 175.51252211161113,420.14159865190635 L 161.65391166431354,414.7091785181254 L 155.69569535405753,428.3499970580831 L 149.73747904380153,414.7091785181254 L 135.87886859650393,420.14159865190635 L 141.3112887302849,406.2829882046088 L 127.67047019032718,400.32477189435275 L 141.3112887302849,394.3665555840967 L 135.87886859650393,380.50794513679915 L 149.73747904380153,385.9403652705801 Z" fill="none" stroke="#0F52BA" stroke-width="2.737152458278999" /><path d="M 217.97397349568055,372.2995467306224 L 223.93218980593656,385.9403652705801 L 237.79080025323415,380.50794513679915 L 232.3583801194532,394.3665555840967 L 245.99919865941092,400.32477189435275 L 232.3583801194532,406.2829882046088 L 237.79080025323415,420.14159865190635 L 223.93218980593656,414.7091785181254 L 217.97397349568055,428.3499970580831 L 212.01575718542455,414.7091785181254 L 198.15714673812695,420.14159865190635 L 203.58956687190792,406.2829882046088 L 189.94874833195018,400.32477189435275 L 203.58956687190792,394.3665555840967 L 198.15714673812695,380.50794513679915 L 212.01575718542455,385.9403652705801 Z" fill="none" stroke="#0F52BA" stroke-width="2.737152458278999" /><path d="M 280.2522516373036,372.2995467306224 L 286.2104679475596,385.9403652705801 L 300.0690783948572,380.50794513679915 L 294.6366582610762,394.3665555840967 L 308.2774768010339,400.32477189435275 L 294.6366582610762,406.2829882046088 L 300.0690783948572,420.14159865190635 L 286.2104679475596,414.7091785181254 L 280.2522516373036,428.3499970580831 L 274.29403532704754,414.7091785181254 L 260.43542487975,420.14159865190635 L 265.86784501353094,406.2829882046088 L 252.22702647357323,400.32477189435275 L 265.86784501353094,394.3665555840967 L 260.43542487975,380.50794513679915 L 274.29403532704754,385.9403652705801 Z" fill="none" stroke="#0F52BA" stroke-width="2.737152458278999" /><path d="M 342.53052977892656,372.2995467306224 L 348.4887460891826,385.9403652705801 L 362.34735653648016,380.50794513679915 L 356.9149364026992,394.3665555840967 L 370.5557549426569,400.32477189435275 L 356.9149364026992,406.2829882046088 L 362.34735653648016,420.14159865190635 L 348.4887460891826,414.7091785181254 L 342.53052977892656,428.3499970580831 L 336.57231346867053,414.7091785181254 L 322.71370302137296,420.14159865190635 L 328.14612315515393,406.2829882046088 L 314.5053046151962,400.32477189435275 L 328.14612315515393,394.3665555840967 L 322.71370302137296,380.50794513679915 L 336.57231346867053,385.9403652705801 Z" fill="none" stroke="#0F52BA" stroke-width="2.737152458278999" /><path d="M 404.8088079205496,372.2995467306224 L 410.76702423080565,385.9403652705801 L 424.6256346781032,380.50794513679915 L 419.19321454432225,394.3665555840967 L 432.83403308427995,400.32477189435275 L 419.19321454432225,406.2829882046088 L 424.6256346781032,420.14159865190635 L 410.76702423080565,414.7091785181254 L 404.8088079205496,428.3499970580831 L 398.8505916102936,414.7091785181254 L 384.991981162996,420.14159865190635 L 390.424401296777,406.2829882046088 L 376.78358275681927,400.32477189435275 L 390.424401296777,394.3665555840967 L 384.991981162996,380.50794513679915 L 398.8505916102936,385.9403652705801 Z" fill="none" stroke="#0F52BA" stroke-width="2.737152458278999" /><path d="M 467.0870860621726,372.2995467306224 L 473.04530237242864,385.9403652705801 L 486.9039128197262,380.50794513679915 L 481.47149268594524,394.3665555840967 L 495.11231122590294,400.32477189435275 L 481.47149268594524,406.2829882046088 L 486.9039128197262,420.14159865190635 L 473.04530237242864,414.7091785181254 L 467.0870860621726,428.3499970580831 L 461.12886975191657,414.7091785181254 L 447.270259304619,420.14159865190635 L 452.70267943839997,406.2829882046088 L 439.06186089844226,400.32477189435275 L 452.70267943839997,394.3665555840967 L 447.270259304619,380.50794513679915 L 461.12886975191657,385.9403652705801 Z" fill="none" stroke="#0F52BA" stroke-width="2.737152458278999" /><path d="M 529.3653642037956,372.2995467306224 L 535.3235805140516,385.9403652705801 L 549.1821909613492,380.50794513679915 L 543.7497708275682,394.3665555840967 L 557.390589367526,400.32477189435275 L 543.7497708275682,406.2829882046088 L 549.1821909613492,420.14159865190635 L 535.3235805140516,414.7091785181254 L 529.3653642037956,428.3499970580831 L 523.4071478935396,414.7091785181254 L 509.548537446242,420.14159865190635 L 514.980957580023,406.2829882046088 L 501.34013904006525,400.32477189435275 L 514.980957580023,394.3665555840967 L 509.548537446242,380.50794513679915 L 523.4071478935396,385.9403652705801 Z" fill="none" stroke="#0F52BA" stroke-width="2.737152458278999" /><path d="M 1.7160501146073119e-15,426.23253560126795 L 5.95821631025601,439.87335414122566 L 19.816826757553606,434.4409340074447 L 14.38440662377264,448.29954445474226 L 28.025225163730354,454.2577607649983 L 14.38440662377264,460.21597707525433 L 19.816826757553606,474.0745875225519 L 5.95821631025601,468.64216738877093 L 1.7160501146073119e-15,482.28298592872864 L -5.958216310256009,468.64216738877093 L -19.816826757553603,474.0745875225519 L -14.384406623772636,460.21597707525433 L -28.025225163730354,454.2577607649983 L -14.384406623772637,448.29954445474226 L -19.81682675755361,434.4409340074447 L -5.958216310256018,439.87335414122566 Z" fill="none" stroke="#0F52BA" stroke-width="2.737152458278999" /><path d="M 62.27827814162301,426.23253560126795 L 68.23649445187903,439.87335414122566 L 82.09510489917662,434.4409340074447 L 76.66268476539565,448.29954445474226 L 90.30350330535336,454.2577607649983 L 76.66268476539565,460.21597707525433 L 82.09510489917662,474.0745875225519 L 68.23649445187903,468.64216738877093 L 62.27827814162301,482.28298592872864 L 56.320061831367006,468.64216738877093 L 42.461451384069406,474.0745875225519 L 47.89387151785038,460.21597707525433 L 34.25305297789266,454.2577607649983 L 47.89387151785037,448.29954445474226 L 42.461451384069406,434.4409340074447 L 56.32006183136699,439.87335414122566 Z" fill="none" stroke="#0F52BA" stroke-width="2.737152458278999" /><path d="M 124.55655628324602,426.23253560126795 L 130.51477259350204,439.87335414122566 L 144.37338304079964,434.4409340074447 L 138.94096290701867,448.29954445474226 L 152.58178144697638,454.2577607649983 L 138.94096290701867,460.21597707525433 L 144.37338304079964,474.0745875225519 L 130.51477259350204,468.64216738877093 L 124.55655628324602,482.28298592872864 L 118.59833997299002,468.64216738877093 L 104.73972952569243,474.0745875225519 L 110.17214965947339,460.21597707525433 L 96.53133111951567,454.2577607649983 L 110.17214965947339,448.29954445474226 L 104.73972952569241,434.4409340074447 L 118.59833997299,439.87335414122566 Z" fill="none" stroke="#0F52BA" stroke-width="2.737152458278999" /><path d="M 186.83483442486903,426.23253560126795 L 192.79305073512504,439.87335414122566 L 206.65166118242263,434.4409340074447 L 201.21924104864166,448.29954445474226 L 214.86005958859937,454.2577607649983 L 201.21924104864166,460.21597707525433 L 206.65166118242263,474.0745875225519 L 192.79305073512504,468.64216738877093 L 186.83483442486903,482.28298592872864 L 180.87661811461302,468.64216738877093 L 167.01800766731543,474.0745875225519 L 172.4504278010964,460.21597707525433 L 158.8096092611387,454.2577607649983 L 172.4504278010964,448.29954445474226 L 167.01800766731543,434.4409340074447 L 180.87661811461302,439.87335414122566 Z" fill="none" stroke="#0F52BA" stroke-width="2.737152458278999" /><path d="M 249.11311256649205,426.23253560126795 L 255.07132887674805,439.87335414122566 L 268.9299393240457,434.4409340074447 L 263.4975191902647,448.29954445474226 L 277.1383377302224,454.2577607649983 L 263.4975191902647,460.21597707525433 L 268.9299393240457,474.0745875225519 L 255.07132887674805,468.64216738877093 L 249.11311256649205,482.28298592872864 L 243.15489625623604,468.64216738877093 L 229.29628580893845,474.0745875225519 L 234.72870594271942,460.21597707525433 L 221.08788740276168,454.2577607649983 L 234.72870594271942,448.29954445474226 L 229.29628580893845,434.4409340074447 L 243.15489625623604,439.87335414122566 Z" fill="none" stroke="#0F52BA" stroke-width="2.737152458278999" /><path d="M 311.39139070811507,426.23253560126795 L 317.3496070183711,439.87335414122566 L 331.20821746566867,434.4409340074447 L 325.7757973318877,448.29954445474226 L 339.4166158718454,454.2577607649983 L 325.7757973318877,460.21597707525433 L 331.20821746566867,474.0745875225519 L 317.3496070183711,468.64216738877093 L 311.39139070811507,482.28298592872864 L 305.43317439785903,468.64216738877093 L 291.57456395056147,474.0745875225519 L 297.00698408434243,460.21597707525433 L 283.3661655443847,454.2577607649983 L 297.00698408434243,448.29954445474226 L 291.57456395056147,434.4409340074447 L 305.43317439785903,439.87335414122566 Z" fill="none" stroke="#0F52BA" stroke-width="2.737152458278999" /><path d="M 373.66966884973806,426.23253560126795 L 379.6278851599941,439.87335414122566 L 393.48649560729166,434.4409340074447 L 388.0540754735107,448.29954445474226 L 401.6948940134684,454.2577607649983 L 388.0540754735107,460.21597707525433 L 393.48649560729166,474.0745875225519 L 379.6278851599941,468.64216738877093 L 373.66966884973806,482.28298592872864 L 367.711452539482,468.64216738877093 L 353.85284209218446,474.0745875225519 L 359.2852622259654,460.21597707525433 L 345.6444436860077,454.2577607649983 L 359.2852622259654,448.29954445474226 L 353.85284209218446,434.4409340074447 L 367.711452539482,439.87335414122566 Z" fill="none" stroke="#0F52BA" stroke-width="2.737152458278999" /><path d="M 435.9479469913611,426.23253560126795 L 441.90616330161714,439.87335414122566 L 455.7647737489147,434.4409340074447 L 450.33235361513374,448.29954445474226 L 463.97317215509145,454.2577607649983 L 450.33235361513374,460.21597707525433 L 455.7647737489147,474.0745875225519 L 441.90616330161714,468.64216738877093 L 435.9479469913611,482.28298592872864 L 429.9897306811051,468.64216738877093 L 416.1311202338075,474.0745875225519 L 421.5635403675885,460.21597707525433 L 407.92272182763077,454.2577607649983 L 421.5635403675885,448.29954445474226 L 416.1311202338075,434.4409340074447 L 429.9897306811051,439.87335414122566 Z" fill="none" stroke="#0F52BA" stroke-width="2.737152458278999" /><path d="M 498.2262251329841,426.23253560126795 L 504.18444144324013,439.87335414122566 L 518.0430518905378,434.4409340074447 L 512.6106317567568,448.29954445474226 L 526.2514502967144,454.2577607649983 L 512.6106317567568,460.21597707525433 L 518.0430518905378,474.0745875225519 L 504.18444144324013,468.64216738877093 L 498.2262251329841,482.28298592872864 L 492.26800882272806,468.64216738877093 L 478.4093983754305,474.0745875225519 L 483.84181850921146,460.21597707525433 L 470.20099996925376,454.2577607649983 L 483.84181850921146,448.29954445474226 L 478.4093983754305,434.4409340074447 L 492.26800882272806,439.87335414122566 Z" fill="none" stroke="#0F52BA" stroke-width="2.737152458278999" /><path d="M 560.5045032746071,426.23253560126795 L 566.4627195848632,439.87335414122566 L 580.3213300321607,434.4409340074447 L 574.8889098983798,448.29954445474226 L 588.5297284383375,454.2577607649983 L 574.8889098983798,460.21597707525433 L 580.3213300321607,474.0745875225519 L 566.4627195848632,468.64216738877093 L 560.5045032746071,482.28298592872864 L 554.5462869643511,468.64216738877093 L 540.6876765170535,474.0745875225519 L 546.1200966508345,460.21597707525433 L 532.4792781108767,454.2577607649983 L 546.1200966508345,448.29954445474226 L 540.6876765170535,434.4409340074447 L 554.5462869643511,439.87335414122566 Z" fill="none" stroke="#0F52BA" stroke-width="2.737152458278999" /><path d="M -31.139139070811506,480.1655244719135 L -25.180922760555497,493.8063430118712 L -11.3223123132579,488.37392287809024 L -16.75473244703887,502.2325333253878 L -3.1139139070811517,508.19074963564384 L -16.75473244703887,514.1489659458998 L -11.3223123132579,528.0075763931975 L -25.180922760555497,522.5751562594165 L -31.139139070811506,536.2159747993742 L -37.097355381067516,522.5751562594165 L -50.95596582836511,528.0075763931975 L -45.52354569458414,514.1489659458998 L -59.164364234541864,508.19074963564384 L -45.52354569458414,502.2325333253878 L -50.955965828365116,488.37392287809024 L -37.09735538106752,493.8063430118712 Z" fill="none" stroke="#0F52BA" stroke-width="2.737152458278999" /><path d="M 31.139139070811506,480.1655244719135 L 37.097355381067516,493.8063430118712 L 50.95596582836511,488.37392287809024 L 45.52354569458414,502.2325333253878 L 59.164364234541864,508.19074963564384 L 45.52354569458414,514.1489659458998 L 50.95596582836511,528.0075763931975 L 37.097355381067516,522.5751562594165 L 31.139139070811506,536.2159747993742 L 25.180922760555497,522.5751562594165 L 11.322312313257903,528.0075763931975 L 16.75473244703887,514.1489659458998 L 3.1139139070811517,508.19074963564384 L 16.75473244703887,502.2325333253878 L 11.322312313257896,488.37392287809024 L 25.18092276055549,493.8063430118712 Z" fill="none" stroke="#0F52BA" stroke-width="2.737152458278999" /><path d="M 93.41741721243451,480.1655244719135 L 99.37563352269052,493.8063430118712 L 113.23424396998811,488.37392287809024 L 107.80182383620715,502.2325333253878 L 121.44264237616487,508.19074963564384 L 107.80182383620715,514.1489659458998 L 113.23424396998811,528.0075763931975 L 99.37563352269052,522.5751562594165 L 93.41741721243451,536.2159747993742 L 87.45920090217851,522.5751562594165 L 73.60059045488092,528.0075763931975 L 79.03301058866188,514.1489659458998 L 65.39219204870416,508.19074963564384 L 79.03301058866188,502.2325333253878 L 73.6005904548809,488.37392287809024 L 87.4592009021785,493.8063430118712 Z" fill="none" stroke="#0F52BA" stroke-width="2.737152458278999" /><path d="M 155.69569535405753,480.1655244719135 L 161.65391166431354,493.8063430118712 L 175.51252211161113,488.37392287809024 L 170.08010197783017,502.2325333253878 L 183.72092051778787,508.19074963564384 L 170.08010197783017,514.1489659458998 L 175.51252211161113,528.0075763931975 L 161.65391166431354,522.5751562594165 L 155.69569535405753,536.2159747993742 L 149.73747904380153,522.5751562594165 L 135.87886859650393,528.0075763931975 L 141.3112887302849,514.1489659458998 L 127.67047019032718,508.19074963564384 L 141.3112887302849,502.2325333253878 L 135.87886859650393,488.37392287809024 L 149.73747904380153,493.8063430118712 Z" fill="none" stroke="#0F52BA" stroke-width="2.737152458278999" /><path d="M 217.97397349568055,480.1655244719135 L 223.93218980593656,493.8063430118712 L 237.79080025323415,488.37392287809024 L 232.3583801194532,502.2325333253878 L 245.99919865941092,508.19074963564384 L 232.3583801194532,514.1489659458998 L 237.79080025323415,528.0075763931975 L 223.93218980593656,522.5751562594165 L 217.97397349568055,536.2159747993742 L 212.01575718542455,522.5751562594165 L 198.15714673812695,528.0075763931975 L 203.58956687190792,514.1489659458998 L 189.94874833195018,508.19074963564384 L 203.58956687190792,502.2325333253878 L 198.15714673812695,488.37392287809024 L 212.01575718542455,493.8063430118712 Z" fill="none" stroke="#0F52BA" stroke-width="2.737152458278999" /><path d="M 280.2522516373036,480.1655244719135 L 286.2104679475596,493.8063430118712 L 300.0690783948572,488.37392287809024 L 294.6366582610762,502.2325333253878 L 308.2774768010339,508.19074963564384 L 294.6366582610762,514.1489659458998 L 300.0690783948572,528.0075763931975 L 286.2104679475596,522.5751562594165 L 280.2522516373036,536.2159747993742 L 274.29403532704754,522.5751562594165 L 260.43542487975,528.0075763931975 L 265.86784501353094,514.1489659458998 L 252.22702647357323,508.19074963564384 L 265.86784501353094,502.2325333253878 L 260.43542487975,488.37392287809024 L 274.29403532704754,493.8063430118712 Z" fill="none" stroke="#0F52BA" stroke-width="2.737152458278999" /><path d="M 342.53052977892656,480.1655244719135 L 348.4887460891826,493.8063430118712 L 362.34735653648016,488.37392287809024 L 356.9149364026992,502.2325333253878 L 370.5557549426569,508.19074963564384 L 356.9149364026992,514.1489659458998 L 362.34735653648016,528.0075763931975 L 348.4887460891826,522.5751562594165 L 342.53052977892656,536.2159747993742 L 336.57231346867053,522.5751562594165 L 322.71370302137296,528.0075763931975 L 328.14612315515393,514.1489659458998 L 314.5053046151962,508.19074963564384 L 328.14612315515393,502.2325333253878 L 322.71370302137296,488.37392287809024 L 336.57231346867053,493.8063430118712 Z" fill="none" stroke="#0F52BA" stroke-width="2.737152458278999" /><path d="M 404.8088079205496,480.1655244719135 L 410.76702423080565,493.8063430118712 L 424.6256346781032,488.37392287809024 L 419.19321454432225,502.2325333253878 L 432.83403308427995,508.19074963564384 L 419.19321454432225,514.1489659458998 L 424.6256346781032,528.0075763931975 L 410.76702423080565,522.5751562594165 L 404.8088079205496,536.2159747993742 L 398.8505916102936,522.5751562594165 L 384.991981162996,528.0075763931975 L 390.424401296777,514.1489659458998 L 376.78358275681927,508.19074963564384 L 390.424401296777,502.2325333253878 L 384.991981162996,488.37392287809024 L 398.8505916102936,493.8063430118712 Z" fill="none" stroke="#0F52BA" stroke-width="2.737152458278999" /><path d="M 467.0870860621726,480.1655244719135 L 473.04530237242864,493.8063430118712 L 486.9039128197262,488.37392287809024 L 481.47149268594524,502.2325333253878 L 495.11231122590294,508.19074963564384 L 481.47149268594524,514.1489659458998 L 486.9039128197262,528.0075763931975 L 473.04530237242864,522.5751562594165 L 467.0870860621726,536.2159747993742 L 461.12886975191657,522.5751562594165 L 447.270259304619,528.0075763931975 L 452.70267943839997,514.1489659458998 L 439.06186089844226,508.19074963564384 L 452.70267943839997,502.2325333253878 L 447.270259304619,488.37392287809024 L 461.12886975191657,493.8063430118712 Z" fill="none" stroke="#0F52BA" stroke-width="2.737152458278999" /><path d="M 529.3653642037956,480.1655244719135 L 535.3235805140516,493.8063430118712 L 549.1821909613492,488.37392287809024 L 543.7497708275682,502.2325333253878 L 557.390589367526,508.19074963564384 L 543.7497708275682,514.1489659458998 L 549.1821909613492,528.0075763931975 L 535.3235805140516,522.5751562594165 L 529.3653642037956,536.2159747993742 L 523.4071478935396,522.5751562594165 L 509.548537446242,528.0075763931975 L 514.980957580023,514.1489659458998 L 501.34013904006525,508.19074963564384 L 514.980957580023,502.2325333253878 L 509.548537446242,488.37392287809024 L 523.4071478935396,493.8063430118712 Z" fill="none" stroke="#0F52BA" stroke-width="2.737152458278999" /><line x1="28.025225163730354" y1="22.793849799834025" x2="34.25305297789266" y2="22.793849799834025" stroke="#0F52BA" stroke-width="0.5"/><line x1="90.30350330535336" y1="22.793849799834025" x2="96.53133111951567" y2="22.793849799834025" stroke="#0F52BA" stroke-width="0.5"/><line x1="152.58178144697638" y1="22.793849799834025" x2="158.8096092611387" y2="22.793849799834025" stroke="#0F52BA" stroke-width="0.5"/><line x1="214.86005958859937" y1="22.793849799834025" x2="221.08788740276168" y2="22.793849799834025" stroke="#0F52BA" stroke-width="0.5"/><line x1="277.1383377302224" y1="22.793849799834025" x2="283.3661655443847" y2="22.793849799834025" stroke="#0F52BA" stroke-width="0.5"/><line x1="339.4166158718454" y1="22.793849799834025" x2="345.6444436860077" y2="22.793849799834025" stroke="#0F52BA" stroke-width="0.5"/><line x1="401.6948940134684" y1="22.793849799834025" x2="407.92272182763077" y2="22.793849799834025" stroke="#0F52BA" stroke-width="0.5"/><line x1="463.97317215509145" y1="22.793849799834025" x2="470.20099996925376" y2="22.793849799834025" stroke="#0F52BA" stroke-width="0.5"/><line x1="59.164364234541864" y1="76.72683867047955" x2="65.39219204870416" y2="76.72683867047955" stroke="#0F52BA" stroke-width="0.5"/><line x1="121.44264237616487" y1="76.72683867047955" x2="127.67047019032718" y2="76.72683867047955" stroke="#0F52BA" stroke-width="0.5"/><line x1="183.72092051778787" y1="76.72683867047955" x2="189.94874833195018" y2="76.72683867047955" stroke="#0F52BA" stroke-width="0.5"/><line x1="245.99919865941092" y1="76.72683867047955" x2="252.22702647357323" y2="76.72683867047955" stroke="#0F52BA" stroke-width="0.5"/><line x1="308.2774768010339" y1="76.72683867047955" x2="314.5053046151962" y2="76.72683867047955" stroke="#0F52BA" stroke-width="0.5"/><line x1="370.5557549426569" y1="76.72683867047955" x2="376.78358275681927" y2="76.72683867047955" stroke="#0F52BA" stroke-width="0.5"/><line x1="432.83403308427995" y1="76.72683867047955" x2="439.06186089844226" y2="76.72683867047955" stroke="#0F52BA" stroke-width="0.5"/><line x1="495.11231122590294" y1="76.72683867047955" x2="501.34013904006525" y2="76.72683867047955" stroke="#0F52BA" stroke-width="0.5"/><line x1="28.025225163730354" y1="130.65982754112508" x2="34.25305297789266" y2="130.65982754112508" stroke="#0F52BA" stroke-width="0.5"/><line x1="90.30350330535336" y1="130.65982754112508" x2="96.53133111951567" y2="130.65982754112508" stroke="#0F52BA" stroke-width="0.5"/><line x1="152.58178144697638" y1="130.65982754112508" x2="158.8096092611387" y2="130.65982754112508" stroke="#0F52BA" stroke-width="0.5"/><line x1="214.86005958859937" y1="130.65982754112508" x2="221.08788740276168" y2="130.65982754112508" stroke="#0F52BA" stroke-width="0.5"/><line x1="277.1383377302224" y1="130.65982754112508" x2="283.3661655443847" y2="130.65982754112508" stroke="#0F52BA" stroke-width="0.5"/><line x1="339.4166158718454" y1="130.65982754112508" x2="345.6444436860077" y2="130.65982754112508" stroke="#0F52BA" stroke-width="0.5"/><line x1="401.6948940134684" y1="130.65982754112508" x2="407.92272182763077" y2="130.65982754112508" stroke="#0F52BA" stroke-width="0.5"/><line x1="463.97317215509145" y1="130.65982754112508" x2="470.20099996925376" y2="130.65982754112508" stroke="#0F52BA" stroke-width="0.5"/><line x1="59.164364234541864" y1="184.59281641177063" x2="65.39219204870416" y2="184.59281641177063" stroke="#0F52BA" stroke-width="0.5"/><line x1="121.44264237616487" y1="184.59281641177063" x2="127.67047019032718" y2="184.59281641177063" stroke="#0F52BA" stroke-width="0.5"/><line x1="183.72092051778787" y1="184.59281641177063" x2="189.94874833195018" y2="184.59281641177063" stroke="#0F52BA" stroke-width="0.5"/><line x1="245.99919865941092" y1="184.59281641177063" x2="252.22702647357323" y2="184.59281641177063" stroke="#0F52BA" stroke-width="0.5"/><line x1="308.2774768010339" y1="184.59281641177063" x2="314.5053046151962" y2="184.59281641177063" stroke="#0F52BA" stroke-width="0.5"/><line x1="370.5557549426569" y1="184.59281641177063" x2="376.78358275681927" y2="184.59281641177063" stroke="#0F52BA" stroke-width="0.5"/><line x1="432.83403308427995" y1="184.59281641177063" x2="439.06186089844226" y2="184.59281641177063" stroke="#0F52BA" stroke-width="0.5"/><line x1="495.11231122590294" y1="184.59281641177063" x2="501.34013904006525" y2="184.59281641177063" stroke="#0F52BA" stroke-width="0.5"/><line x1="28.025225163730354" y1="238.52580528241617" x2="34.25305297789266" y2="238.52580528241617" stroke="#0F52BA" stroke-width="0.5"/><line x1="90.30350330535336" y1="238.52580528241617" x2="96.53133111951567" y2="238.52580528241617" stroke="#0F52BA" stroke-width="0.5"/><line x1="152.58178144697638" y1="238.52580528241617" x2="158.8096092611387" y2="238.52580528241617" stroke="#0F52BA" stroke-width="0.5"/><line x1="214.86005958859937" y1="238.52580528241617" x2="221.08788740276168" y2="238.52580528241617" stroke="#0F52BA" stroke-width="0.5"/><line x1="277.1383377302224" y1="238.52580528241617" x2="283.3661655443847" y2="238.52580528241617" stroke="#0F52BA" stroke-width="0.5"/><line x1="339.4166158718454" y1="238.52580528241617" x2="345.6444436860077" y2="238.52580528241617" stroke="#0F52BA" stroke-width="0.5"/><line x1="401.6948940134684" y1="238.52580528241617" x2="407.92272182763077" y2="238.52580528241617" stroke="#0F52BA" stroke-width="0.5"/><line x1="463.97317215509145" y1="238.52580528241617" x2="470.20099996925376" y2="238.52580528241617" stroke="#0F52BA" stroke-width="0.5"/><line x1="59.164364234541864" y1="292.45879415306166" x2="65.39219204870416" y2="292.45879415306166" stroke="#0F52BA" stroke-width="0.5"/><line x1="121.44264237616487" y1="292.45879415306166" x2="127.67047019032718" y2="292.45879415306166" stroke="#0F52BA" stroke-width="0.5"/><line x1="183.72092051778787" y1="292.45879415306166" x2="189.94874833195018" y2="292.45879415306166" stroke="#0F52BA" stroke-width="0.5"/><line x1="245.99919865941092" y1="292.45879415306166" x2="252.22702647357323" y2="292.45879415306166" stroke="#0F52BA" stroke-width="0.5"/><line x1="308.2774768010339" y1="292.45879415306166" x2="314.5053046151962" y2="292.45879415306166" stroke="#0F52BA" stroke-width="0.5"/><line x1="370.5557549426569" y1="292.45879415306166" x2="376.78358275681927" y2="292.45879415306166" stroke="#0F52BA" stroke-width="0.5"/><line x1="432.83403308427995" y1="292.45879415306166" x2="439.06186089844226" y2="292.45879415306166" stroke="#0F52BA" stroke-width="0.5"/><line x1="495.11231122590294" y1="292.45879415306166" x2="501.34013904006525" y2="292.45879415306166" stroke="#0F52BA" stroke-width="0.5"/><line x1="28.025225163730354" y1="346.3917830237072" x2="34.25305297789266" y2="346.3917830237072" stroke="#0F52BA" stroke-width="0.5"/><line x1="90.30350330535336" y1="346.3917830237072" x2="96.53133111951567" y2="346.3917830237072" stroke="#0F52BA" stroke-width="0.5"/><line x1="152.58178144697638" y1="346.3917830237072" x2="158.8096092611387" y2="346.3917830237072" stroke="#0F52BA" stroke-width="0.5"/><line x1="214.86005958859937" y1="346.3917830237072" x2="221.08788740276168" y2="346.3917830237072" stroke="#0F52BA" stroke-width="0.5"/><line x1="277.1383377302224" y1="346.3917830237072" x2="283.3661655443847" y2="346.3917830237072" stroke="#0F52BA" stroke-width="0.5"/><line x1="339.4166158718454" y1="346.3917830237072" x2="345.6444436860077" y2="346.3917830237072" stroke="#0F52BA" stroke-width="0.5"/><line x1="401.6948940134684" y1="346.3917830237072" x2="407.92272182763077" y2="346.3917830237072" stroke="#0F52BA" stroke-width="0.5"/><line x1="463.97317215509145" y1="346.3917830237072" x2="470.20099996925376" y2="346.3917830237072" stroke="#0F52BA" stroke-width="0.5"/><line x1="59.164364234541864" y1="400.32477189435275" x2="65.39219204870416" y2="400.32477189435275" stroke="#0F52BA" stroke-width="0.5"/><line x1="121.44264237616487" y1="400.32477189435275" x2="127.67047019032718" y2="400.32477189435275" stroke="#0F52BA" stroke-width="0.5"/><line x1="183.72092051778787" y1="400.32477189435275" x2="189.94874833195018" y2="400.32477189435275" stroke="#0F52BA" stroke-width="0.5"/><line x1="245.99919865941092" y1="400.32477189435275" x2="252.22702647357323" y2="400.32477189435275" stroke="#0F52BA" stroke-width="0.5"/><line x1="308.2774768010339" y1="400.32477189435275" x2="314.5053046151962" y2="400.32477189435275" stroke="#0F52BA" stroke-width="0.5"/><line x1="370.5557549426569" y1="400.32477189435275" x2="376.78358275681927" y2="400.32477189435275" stroke="#0F52BA" stroke-width="0.5"/><line x1="432.83403308427995" y1="400.32477189435275" x2="439.06186089844226" y2="400.32477189435275" stroke="#0F52BA" stroke-width="0.5"/><line x1="495.11231122590294" y1="400.32477189435275" x2="501.34013904006525" y2="400.32477189435275" stroke="#0F52BA" stroke-width="0.5"/><line x1="28.025225163730354" y1="454.2577607649983" x2="34.25305297789266" y2="454.2577607649983" stroke="#0F52BA" stroke-width="0.5"/><line x1="90.30350330535336" y1="454.2577607649983" x2="96.53133111951567" y2="454.2577607649983" stroke="#0F52BA" stroke-width="0.5"/><line x1="152.58178144697638" y1="454.2577607649983" x2="158.8096092611387" y2="454.2577607649983" stroke="#0F52BA" stroke-width="0.5"/><line x1="214.86005958859937" y1="454.2577607649983" x2="221.08788740276168" y2="454.2577607649983" stroke="#0F52BA" stroke-width="0.5"/><line x1="277.1383377302224" y1="454.2577607649983" x2="283.3661655443847" y2="454.2577607649983" stroke="#0F52BA" stroke-width="0.5"/><line x1="339.4166158718454" y1="454.2577607649983" x2="345.6444436860077" y2="454.2577607649983" stroke="#0F52BA" stroke-width="0.5"/><line x1="401.6948940134684" y1="454.2577607649983" x2="407.92272182763077" y2="454.2577607649983" stroke="#0F52BA" stroke-width="0.5"/><line x1="463.97317215509145" y1="454.2577607649983" x2="470.20099996925376" y2="454.2577607649983" stroke="#0F52BA" stroke-width="0.5"/><line x1="59.164364234541864" y1="508.19074963564384" x2="65.39219204870416" y2="508.19074963564384" stroke="#0F52BA" stroke-width="0.5"/><line x1="121.44264237616487" y1="508.19074963564384" x2="127.67047019032718" y2="508.19074963564384" stroke="#0F52BA" stroke-width="0.5"/><line x1="183.72092051778787" y1="508.19074963564384" x2="189.94874833195018" y2="508.19074963564384" stroke="#0F52BA" stroke-width="0.5"/><line x1="245.99919865941092" y1="508.19074963564384" x2="252.22702647357323" y2="508.19074963564384" stroke="#0F52BA" stroke-width="0.5"/><line x1="308.2774768010339" y1="508.19074963564384" x2="314.5053046151962" y2="508.19074963564384" stroke="#0F52BA" stroke-width="0.5"/><line x1="370.5557549426569" y1="508.19074963564384" x2="376.78358275681927" y2="508.19074963564384" stroke="#0F52BA" stroke-width="0.5"/><line x1="432.83403308427995" y1="508.19074963564384" x2="439.06186089844226" y2="508.19074963564384" stroke="#0F52BA" stroke-width="0.5"/><line x1="495.11231122590294" y1="508.19074963564384" x2="501.34013904006525" y2="508.19074963564384" stroke="#0F52BA" stroke-width="0.5"/></g></svg>