<svg xmlns="http://www.w3.org/2000/svg" width="512" height="512" viewBox="0 0 512 512"><rect x="0" y="0" width="512" height="512" fill="#0D0D0D"/><g opacity="0.1620106265470435"><path d="M -64.03432118163413,-121.66521024510484 L -51.78188427215596,-93.61432054061699 L -23.283128719044342,-104.7855136442239 L -34.454321822651266,-76.28675809111229 L -6.403432118163408,-64.03432118163413 L -34.454321822651266,-51.78188427215596 L -23.283128719044342,-23.28312871904435 L -51.78188427215596,-34.454321822651266 L -64.03432118163413,-6.403432118163408 L -76.28675809111229,-34.454321822651266 L -104.7855136442239,-23.283128719044342 L -93.61432054061697,-51.78188427215595 L -121.66521024510484,-64.03432118163413 L -93.61432054061699,-76.28675809111229 L -104.78551364422393,-104.7855136442239 L -76.2867580911123,-93.61432054061697 Z" fill="none" stroke="#FFD700" stroke-width="1.078996837408746" /><path d="M 64.03432118163413,-121.66521024510484 L 76.28675809111229,-93.61432054061699 L 104.78551364422391,-104.7855136442239 L 93.61432054061699,-76.28675809111229 L 121.66521024510484,-64.03432118163413 L 93.61432054061699,-51.78188427215596 L 104.78551364422391,-23.28312871904435 L 76.28675809111229,-34.454321822651266 L 64.03432118163413,-6.403432118163408 L 51.78188427215597,-34.454321822651266 L 23.28312871904435,-23.283128719044342 L 34.45432182265127,-51.78188427215595 L 6.403432118163408,-64.03432118163413 L 34.454321822651266,-76.28675809111229 L 23.283128719044335,-104.7855136442239 L 51.78188427215595,-93.61432054061697 Z" fill="none" stroke="#FFD700" stroke-width="1.078996837408746" /><path d="M 192.10296354490237,-121.66521024510484 L 204.35540045438051,-93.61432054061699 L 232.85415600749215,-104.7855136442239 L 221.68296290388523,-76.28675809111229 L 249.73385260837307,-64.03432118163413 L 221.68296290388523,-51.78188427215596 L 232.85415600749215,-23.28312871904435 L 204.35540045438051,-34.454321822651266 L 192.10296354490237,-6.403432118163408 L 179.85052663542422,-34.454321822651266 L 151.35177108231258,-23.283128719044342 L 162.5229641859195,-51.78188427215595 L 134.47207448143166,-64.03432118163413 L 162.5229641859195,-76.28675809111229 L 151.35177108231258,-104.7855136442239 L 179.8505266354242,-93.61432054061697 Z" fill="none" stroke="#FFD700" stroke-width="1.078996837408746" /><path d="M 320.1716059081706,-121.66521024510484 L 332.42404281764874,-93.61432054061699 L 360.92279837076035,-104.7855136442239 L 349.7516052671534,-76.28675809111229 L 377.8024949716413,-64.03432118163413 L 349.7516052671534,-51.78188427215596 L 360.92279837076035,-23.28312871904435 L 332.42404281764874,-34.454321822651266 L 320.1716059081706,-6.403432118163408 L 307.91916899869244,-34.454321822651266 L 279.42041344558083,-23.283128719044342 L 290.59160654918776,-51.78188427215595 L 262.5407168446999,-64.03432118163413 L 290.59160654918776,-76.28675809111229 L 279.4204134455808,-104.7855136442239 L 307.9191689986924,-93.61432054061697 Z" fill="none" stroke="#FFD700" stroke-width="1.078996837408746" /><path d="M 448.2402482714389,-121.66521024510484 L 460.492685180917,-93.61432054061699 L 488.99144073402863,-104.7855136442239 L 477.8202476304217,-76.28675809111229 L 505.8711373349096,-64.03432118163413 L 477.8202476304217,-51.78188427215596 L 488.99144073402863,-23.28312871904435 L 460.492685180917,-34.454321822651266 L 448.2402482714389,-6.403432118163408 L 435.9878113619607,-34.454321822651266 L 407.4890558088491,-23.283128719044342 L 418.66024891245604,-51.78188427215595 L 390.60935920796817,-64.03432118163413 L 418.66024891245604,-76.28675809111229 L 407.48905580884906,-104.7855136442239 L 435.98781136196067,-93.61432054061697 Z" fill="none" stroke="#FFD700" stroke-width="1.078996837408746" /><path d="M 576.3088906347072,-121.66521024510484 L 588.5613275441854,-93.61432054061699 L 617.0600830972969,-104.7855136442239 L 605.88888999369,-76.28675809111229 L 633.9397796981779,-64.03432118163413 L 605.88888999369,-51.78188427215596 L 617.0600830972969,-23.28312871904435 L 588.5613275441854,-34.454321822651266 L 576.3088906347072,-6.403432118163408 L 564.056453725229,-34.454321822651266 L 535.5576981721174,-23.283128719044342 L 546.7288912757243,-51.78188427215595 L 518.6780015712365,-64.03432118163413 L 546.7288912757243,-76.28675809111229 L 535.5576981721174,-104.7855136442239 L 564.056453725229,-93.61432054061697 Z" fill="none" stroke="#FFD700" stroke-width="1.078996837408746" /><path d="M 3.528874191179781e-15,-10.75776595851454 L 12.252436909478162,17.29312374597332 L 40.751192462589785,6.121930642366401 L 29.57999935898286,34.620686195478015 L 57.63088906347072,46.87312310495618 L 29.57999935898286,59.12556001443434 L 40.751192462589785,87.62431556754595 L 12.252436909478162,76.45312246393904 L 3.528874191179781e-15,104.5040121684269 L -12.252436909478158,76.45312246393904 L -40.75119246258978,87.62431556754596 L -29.579999358982853,59.125560014434356 L -57.63088906347072,46.873123104956186 L -29.579999358982857,34.62068619547801 L -40.75119246258979,6.121930642366401 L -12.252436909478178,17.293123745973325 Z" fill="none" stroke="#FFD700" stroke-width="1.078996837408746" /><path d="M 128.06864236326825,-10.75776595851454 L 140.3210792727464,17.29312374597332 L 168.81983482585804,6.121930642366401 L 157.6486417222511,34.620686195478015 L 185.699531426739,46.87312310495618 L 157.6486417222511,59.12556001443434 L 168.81983482585804,87.62431556754595 L 140.3210792727464,76.45312246393904 L 128.06864236326825,104.5040121684269 L 115.81620545379009,76.45312246393904 L 87.31744990067847,87.62431556754596 L 98.4886430042854,59.125560014434356 L 70.43775329979754,46.873123104956186 L 98.4886430042854,34.62068619547801 L 87.31744990067847,6.121930642366401 L 115.81620545379008,17.293123745973325 Z" fill="none" stroke="#FFD700" stroke-width="1.078996837408746" /><path d="M 256.1372847265365,-10.75776595851454 L 268.38972163601466,17.29312374597332 L 296.8884771891263,6.121930642366401 L 285.7172840855194,34.620686195478015 L 313.7681737900072,46.87312310495618 L 285.7172840855194,59.12556001443434 L 296.8884771891263,87.62431556754595 L 268.38972163601466,76.45312246393904 L 256.1372847265365,104.5040121684269 L 243.88484781705836,76.45312246393904 L 215.38609226394672,87.62431556754596 L 226.55728536755365,59.125560014434356 L 198.5063956630658,46.873123104956186 L 226.55728536755365,34.62068619547801 L 215.38609226394672,6.121930642366401 L 243.88484781705833,17.293123745973325 Z" fill="none" stroke="#FFD700" stroke-width="1.078996837408746" /><path d="M 384.20592708980473,-10.75776595851454 L 396.4583639992829,17.29312374597332 L 424.9571195523945,6.121930642366401 L 413.78592644878756,34.620686195478015 L 441.83681615327544,46.87312310495618 L 413.78592644878756,59.12556001443434 L 424.9571195523945,87.62431556754595 L 396.4583639992829,76.45312246393904 L 384.20592708980473,104.5040121684269 L 371.9534901803266,76.45312246393904 L 343.454734627215,87.62431556754596 L 354.6259277308219,59.125560014434356 L 326.575038026334,46.873123104956186 L 354.6259277308219,34.62068619547801 L 343.4547346272149,6.121930642366401 L 371.9534901803265,17.293123745973325 Z" fill="none" stroke="#FFD700" stroke-width="1.078996837408746" /><path d="M 512.274569453073,-10.75776595851454 L 524.5270063625512,17.29312374597332 L 553.0257619156628,6.121930642366401 L 541.8545688120558,34.620686195478015 L 569.9054585165437,46.87312310495618 L 541.8545688120558,59.12556001443434 L 553.0257619156628,87.62431556754595 L 524.5270063625512,76.45312246393904 L 512.274569453073,104.5040121684269 L 500.02213254359486,76.45312246393904 L 471.52337699048326,87.62431556754596 L 482.6945700940902,59.125560014434356 L 454.6436803896023,46.873123104956186 L 482.6945700940902,34.62068619547801 L 471.5233769904832,6.121930642366401 L 500.0221325435948,17.293123745973325 Z" fill="none" stroke="#FFD700" stroke-width="1.078996837408746" /><path d="M -64.03432118163413,100.14967832807575 L -51.78188427215596,128.2005680325636 L -23.283128719044342,117.02937492895668 L -34.454321822651266,145.52813048206832 L -6.403432118163408,157.78056739154647 L -34.454321822651266,170.03300430102462 L -23.283128719044342,198.53175985413625 L -51.78188427215596,187.36056675052933 L -64.03432118163413,215.41145645501717 L -76.28675809111229,187.36056675052933 L -104.7855136442239,198.53175985413625 L -93.61432054061697,170.03300430102465 L -121.66521024510484,157.78056739154647 L -93.61432054061699,145.5281304820683 L -104.78551364422393,117.02937492895668 L -76.2867580911123,128.2005680325636 Z" fill="none" stroke="#FFD700" stroke-width="1.078996837408746" /><path d="M 64.03432118163413,100.14967832807575 L 76.28675809111229,128.2005680325636 L 104.78551364422391,117.02937492895668 L 93.61432054061699,145.52813048206832 L 121.66521024510484,157.78056739154647 L 93.61432054061699,170.03300430102462 L 104.78551364422391,198.53175985413625 L 76.28675809111229,187.36056675052933 L 64.03432118163413,215.41145645501717 L 51.78188427215597,187.36056675052933 L 23.28312871904435,198.53175985413625 L 34.45432182265127,170.03300430102465 L 6.403432118163408,157.78056739154647 L 34.454321822651266,145.5281304820683 L 23.283128719044335,117.02937492895668 L 51.78188427215595,128.2005680325636 Z" fill="none" stroke="#FFD700" stroke-width="1.078996837408746" /><path d="M 192.10296354490237,100.14967832807575 L 204.35540045438051,128.2005680325636 L 232.85415600749215,117.02937492895668 L 221.68296290388523,145.52813048206832 L 249.73385260837307,157.78056739154647 L 221.68296290388523,170.03300430102462 L 232.85415600749215,198.53175985413625 L 204.35540045438051,187.36056675052933 L 192.10296354490237,215.41145645501717 L 179.85052663542422,187.36056675052933 L 151.35177108231258,198.53175985413625 L 162.5229641859195,170.03300430102465 L 134.47207448143166,157.78056739154647 L 162.5229641859195,145.5281304820683 L 151.35177108231258,117.02937492895668 L 179.8505266354242,128.2005680325636 Z" fill="none" stroke="#FFD700" stroke-width="1.078996837408746" /><path d="M 320.1716059081706,100.14967832807575 L 332.42404281764874,128.2005680325636 L 360.92279837076035,117.02937492895668 L 349.7516052671534,145.52813048206832 L 377.8024949716413,157.78056739154647 L 349.7516052671534,170.03300430102462 L 360.92279837076035,198.53175985413625 L 332.42404281764874,187.36056675052933 L 320.1716059081706,215.41145645501717 L 307.91916899869244,187.36056675052933 L 279.42041344558083,198.53175985413625 L 290.59160654918776,170.03300430102465 L 262.5407168446999,157.78056739154647 L 290.59160654918776,145.5281304820683 L 279.4204134455808,117.02937492895668 L 307.9191689986924,128.2005680325636 Z" fill="none" stroke="#FFD700" stroke-width="1.078996837408746" /><path d="M 448.2402482714389,100.14967832807575 L 460.492685180917,128.2005680325636 L 488.99144073402863,117.02937492895668 L 477.8202476304217,145.52813048206832 L 505.8711373349096,157.78056739154647 L 477.8202476304217,170.03300430102462 L 488.99144073402863,198.53175985413625 L 460.492685180917,187.36056675052933 L 448.2402482714389,215.41145645501717 L 435.9878113619607,187.36056675052933 L 407.4890558088491,198.53175985413625 L 418.66024891245604,170.03300430102465 L 390.60935920796817,157.78056739154647 L 418.66024891245604,145.5281304820683 L 407.48905580884906,117.02937492895668 L 435.98781136196067,128.2005680325636 Z" fill="none" stroke="#FFD700" stroke-width="1.078996837408746" /><path d="M 576.3088906347072,100.14967832807575 L 588.5613275441854,128.2005680325636 L 617.0600830972969,117.02937492895668 L 605.88888999369,145.52813048206832 L 633.9397796981779,157.78056739154647 L 605.88888999369,170.03300430102462 L 617.0600830972969,198.53175985413625 L 588.5613275441854,187.36056675052933 L 576.3088906347072,215.41145645501717 L 564.056453725229,187.36056675052933 L 535.5576981721174,198.53175985413625 L 546.7288912757243,170.03300430102465 L 518.6780015712365,157.78056739154647 L 546.7288912757243,145.5281304820683 L 535.5576981721174,117.02937492895668 L 564.056453725229,128.2005680325636 Z" fill="none" stroke="#FFD700" stroke-width="1.078996837408746" /><path d="M 3.528874191179781e-15,211.05712261466607 L 12.252436909478162,239.10801231915391 L 40.751192462589785,227.936819215547 L 29.57999935898286,256.4355747686586 L 57.63088906347072,268.6880116781368 L 29.57999935898286,280.9404485876149 L 40.751192462589785,309.43920414072653 L 12.252436909478162,298.26801103711966 L 3.528874191179781e-15,326.3189007416075 L -12.252436909478158,298.26801103711966 L -40.75119246258978,309.4392041407266 L -29.579999358982853,280.9404485876149 L -57.63088906347072,268.6880116781368 L -29.579999358982857,256.4355747686586 L -40.75119246258979,227.936819215547 L -12.252436909478178,239.10801231915391 Z" fill="none" stroke="#FFD700" stroke-width="1.078996837408746" /><path d="M 128.06864236326825,211.05712261466607 L 140.3210792727464,239.10801231915391 L 168.81983482585804,227.936819215547 L 157.6486417222511,256.4355747686586 L 185.699531426739,268.6880116781368 L 157.6486417222511,280.9404485876149 L 168.81983482585804,309.43920414072653 L 140.3210792727464,298.26801103711966 L 128.06864236326825,326.3189007416075 L 115.81620545379009,298.26801103711966 L 87.31744990067847,309.4392041407266 L 98.4886430042854,280.9404485876149 L 70.43775329979754,268.6880116781368 L 98.4886430042854,256.4355747686586 L 87.31744990067847,227.936819215547 L 115.81620545379008,239.10801231915391 Z" fill="none" stroke="#FFD700" stroke-width="1.078996837408746" /><path d="M 256.1372847265365,211.05712261466607 L 268.38972163601466,239.10801231915391 L 296.8884771891263,227.936819215547 L 285.7172840855194,256.4355747686586 L 313.7681737900072,268.6880116781368 L 285.7172840855194,280.9404485876149 L 296.8884771891263,309.43920414072653 L 268.38972163601466,298.26801103711966 L 256.1372847265365,326.3189007416075 L 243.88484781705836,298.26801103711966 L 215.38609226394672,309.4392041407266 L 226.55728536755365,280.9404485876149 L 198.5063956630658,268.6880116781368 L 226.55728536755365,256.4355747686586 L 215.38609226394672,227.936819215547 L 243.88484781705833,239.10801231915391 Z" fill="none" stroke="#FFD700" stroke-width="1.078996837408746" /><path d="M 384.20592708980473,211.05712261466607 L 396.4583639992829,239.10801231915391 L 424.9571195523945,227.936819215547 L 413.78592644878756,256.4355747686586 L 441.83681615327544,268.6880116781368 L 413.78592644878756,280.9404485876149 L 424.9571195523945,309.43920414072653 L 396.4583639992829,298.26801103711966 L 384.20592708980473,326.3189007416075 L 371.9534901803266,298.26801103711966 L 343.454734627215,309.4392041407266 L 354.6259277308219,280.9404485876149 L 326.575038026334,268.6880116781368 L 354.6259277308219,256.4355747686586 L 343.4547346272149,227.936819215547 L 371.9534901803265,239.10801231915391 Z" fill="none" stroke="#FFD700" stroke-width="1.078996837408746" /><path d="M 512.274569453073,211.05712261466607 L 524.5270063625512,239.10801231915391 L 553.0257619156628,227.936819215547 L 541.8545688120558,256.4355747686586 L 569.9054585165437,268.6880116781368 L 541.8545688120558,280.9404485876149 L 553.0257619156628,309.43920414072653 L 524.5270063625512,298.26801103711966 L 512.274569453073,326.3189007416075 L 500.02213254359486,298.26801103711966 L 471.52337699048326,309.4392041407266 L 482.6945700940902,280.9404485876149 L 454.6436803896023,268.6880116781368 L 482.6945700940902,256.4355747686586 L 471.5233769904832,227.936819215547 L 500.0221325435948,239.10801231915391 Z" fill="none" stroke="#FFD700" stroke-width="1.078996837408746" /><path d="M -64.03432118163413,321.9645669012564 L -51.78188427215596,350.01545660574425 L -23.283128719044342,338.8442635021373 L -34.454321822651266,367.34301905524893 L -6.403432118163408,379.5954559647271 L -34.454321822651266,391.84789287420523 L -23.283128719044342,420.34664842731684 L -51.78188427215596,409.1754553237099 L -64.03432118163413,437.2263450281978 L -76.28675809111229,409.1754553237099 L -104.7855136442239,420.34664842731684 L -93.61432054061697,391.84789287420523 L -121.66521024510484,379.5954559647271 L -93.61432054061699,367.34301905524893 L -104.78551364422393,338.8442635021373 L -76.2867580911123,350.01545660574425 Z" fill="none" stroke="#FFD700" stroke-width="1.078996837408746" /><path d="M 64.03432118163413,321.9645669012564 L 76.28675809111229,350.01545660574425 L 104.78551364422391,338.8442635021373 L 93.61432054061699,367.34301905524893 L 121.66521024510484,379.5954559647271 L 93.61432054061699,391.84789287420523 L 104.78551364422391,420.34664842731684 L 76.28675809111229,409.1754553237099 L 64.03432118163413,437.2263450281978 L 51.78188427215597,409.1754553237099 L 23.28312871904435,420.34664842731684 L 34.45432182265127,391.84789287420523 L 6.403432118163408,379.5954559647271 L 34.454321822651266,367.34301905524893 L 23.283128719044335,338.8442635021373 L 51.78188427215595,350.01545660574425 Z" fill="none" stroke="#FFD700" stroke-width="1.078996837408746" /><path d="M 192.10296354490237,321.9645669012564 L 204.35540045438051,350.01545660574425 L 232.85415600749215,338.8442635021373 L 221.68296290388523,367.34301905524893 L 249.73385260837307,379.5954559647271 L 221.68296290388523,391.84789287420523 L 232.85415600749215,420.34664842731684 L 204.35540045438051,409.1754553237099 L 192.10296354490237,437.2263450281978 L 179.85052663542422,409.1754553237099 L 151.35177108231258,420.34664842731684 L 162.5229641859195,391.84789287420523 L 134.47207448143166,379.5954559647271 L 162.5229641859195,367.34301905524893 L 151.35177108231258,338.8442635021373 L 179.8505266354242,350.01545660574425 Z" fill="none" stroke="#FFD700" stroke-width="1.078996837408746" /><path d="M 320.1716059081706,321.9645669012564 L 332.42404281764874,350.01545660574425 L 360.92279837076035,338.8442635021373 L 349.7516052671534,367.34301905524893 L 377.8024949716413,379.5954559647271 L 349.7516052671534,391.84789287420523 L 360.92279837076035,420.34664842731684 L 332.42404281764874,409.1754553237099 L 320.1716059081706,437.2263450281978 L 307.91916899869244,409.1754553237099 L 279.42041344558083,420.34664842731684 L 290.59160654918776,391.84789287420523 L 262.5407168446999,379.5954559647271 L 290.59160654918776,367.34301905524893 L 279.4204134455808,338.8442635021373 L 307.9191689986924,350.01545660574425 Z" fill="none" stroke="#FFD700" stroke-width="1.078996837408746" /><path d="M 448.2402482714389,321.9645669012564 L 460.492685180917,350.01545660574425 L 488.99144073402863,338.8442635021373 L 477.8202476304217,367.34301905524893 L 505.8711373349096,379.5954559647271 L 477.8202476304217,391.84789287420523 L 488.99144073402863,420.34664842731684 L 460.492685180917,409.1754553237099 L 448.2402482714389,437.2263450281978 L 435.9878113619607,409.1754553237099 L 407.4890558088491,420.34664842731684 L 418.66024891245604,391.84789287420523 L 390.60935920796817,379.5954559647271 L 418.66024891245604,367.34301905524893 L 407.48905580884906,338.8442635021373 L 435.98781136196067,350.01545660574425 Z" fill="none" stroke="#FFD700" stroke-width="1.078996837408746" /><path d="M 576.3088906347072,321.9645669012564 L 588.5613275441854,350.01545660574425 L 617.0600830972969,338.8442635021373 L 605.88888999369,367.34301905524893 L 633.9397796981779,379.5954559647271 L 605.88888999369,391.84789287420523 L 617.0600830972969,420.34664842731684 L 588.5613275441854,409.1754553237099 L 576.3088906347072,437.2263450281978 L 564.056453725229,409.1754553237099 L 535.5576981721174,420.34664842731684 L 546.7288912757243,391.84789287420523 L 518.6780015712365,379.5954559647271 L 546.7288912757243,367.34301905524893 L 535.5576981721174,338.8442635021373 L 564.056453725229,350.01545660574425 Z" fill="none" stroke="#FFD700" stroke-width="1.078996837408746" /><path d="M 3.528874191179781e-15,432.87201118784674 L 12.252436909478162,460.9229008923346 L 40.751192462589785,449.7517077887277 L 29.57999935898286,478.2504633418393 L 57.63088906347072,490.50290025131744 L 29.57999935898286,502.7553371607956 L 40.751192462589785,531.2540927139072 L 12.252436909478162,520.0828996103003 L 3.528874191179781e-15,548.1337893147881 L -12.252436909478158,520.0828996103003 L -40.75119246258978,531.2540927139072 L -29.579999358982853,502.7553371607956 L -57.63088906347072,490.50290025131744 L -29.579999358982857,478.2504633418393 L -40.75119246258979,449.7517077887277 L -12.252436909478178,460.9229008923346 Z" fill="none" stroke="#FFD700" stroke-width="1.078996837408746" /><path d="M 128.06864236326825,432.87201118784674 L 140.3210792727464,460.9229008923346 L 168.81983482585804,449.7517077887277 L 157.6486417222511,478.2504633418393 L 185.699531426739,490.50290025131744 L 157.6486417222511,502.7553371607956 L 168.81983482585804,531.2540927139072 L 140.3210792727464,520.0828996103003 L 128.06864236326825,548.1337893147881 L 115.81620545379009,520.0828996103003 L 87.31744990067847,531.2540927139072 L 98.4886430042854,502.7553371607956 L 70.43775329979754,490.50290025131744 L 98.4886430042854,478.2504633418393 L 87.31744990067847,449.7517077887277 L 115.81620545379008,460.9229008923346 Z" fill="none" stroke="#FFD700" stroke-width="1.078996837408746" /><path d="M 256.1372847265365,432.87201118784674 L 268.38972163601466,460.9229008923346 L 296.8884771891263,449.7517077887277 L 285.7172840855194,478.2504633418393 L 313.7681737900072,490.50290025131744 L 285.7172840855194,502.7553371607956 L 296.8884771891263,531.2540927139072 L 268.38972163601466,520.0828996103003 L 256.1372847265365,548.1337893147881 L 243.88484781705836,520.0828996103003 L 215.38609226394672,531.2540927139072 L 226.55728536755365,502.7553371607956 L 198.5063956630658,490.50290025131744 L 226.55728536755365,478.2504633418393 L 215.38609226394672,449.7517077887277 L 243.88484781705833,460.9229008923346 Z" fill="none" stroke="#FFD700" stroke-width="1.078996837408746" /><path d="M 384.20592708980473,432.87201118784674 L 396.4583639992829,460.9229008923346 L 424.9571195523945,449.7517077887277 L 413.78592644878756,478.2504633418393 L 441.83681615327544,490.50290025131744 L 413.78592644878756,502.7553371607956 L 424.9571195523945,531.2540927139072 L 396.4583639992829,520.0828996103003 L 384.20592708980473,548.1337893147881 L 371.9534901803266,520.0828996103003 L 343.454734627215,531.2540927139072 L 354.6259277308219,502.7553371607956 L 326.575038026334,490.50290025131744 L 354.6259277308219,478.2504633418393 L 343.4547346272149,449.7517077887277 L 371.9534901803265,460.9229008923346 Z" fill="none" stroke="#FFD700" stroke-width="1.078996837408746" /><path d="M 512.274569453073,432.87201118784674 L 524.5270063625512,460.9229008923346 L 553.0257619156628,449.7517077887277 L 541.8545688120558,478.2504633418393 L 569.9054585165437,490.50290025131744 L 541.8545688120558,502.7553371607956 L 553.0257619156628,531.2540927139072 L 524.5270063625512,520.0828996103003 L 512.274569453073,548.1337893147881 L 500.02213254359486,520.0828996103003 L 471.52337699048326,531.2540927139072 L 482.6945700940902,502.7553371607956 L 454.6436803896023,490.50290025131744 L 482.6945700940902,478.2504633418393 L 471.5233769904832,449.7517077887277 L 500.0221325435948,460.9229008923346 Z" fill="none" stroke="#FFD700" stroke-width="1.078996837408746" /><line x1="57.63088906347072" y1="46.87312310495618" x2="70.43775329979754" y2="46.87312310495618" stroke="#FFD700" stroke-width="0.5"/><line x1="185.699531426739" y1="46.87312310495618" x2="198.5063956630658" y2="46.87312310495618" stroke="#FFD700" stroke-width="0.5"/><line x1="313.7681737900072" y1="46.87312310495618" x2="326.575038026334" y2="46.87312310495618" stroke="#FFD700" stroke-width="0.5"/><line x1="441.83681615327544" y1="46.87312310495618" x2="454.6436803896023" y2="46.87312310495618" stroke="#FFD700" stroke-width="0.5"/><line x1="121.66521024510484" y1="157.78056739154647" x2="134.47207448143166" y2="157.78056739154647" stroke="#FFD700" stroke-width="0.5"/><line x1="249.73385260837307" y1="157.78056739154647" x2="262.5407168446999" y2="157.78056739154647" stroke="#FFD700" stroke-width="0.5"/><line x1="377.8024949716413" y1="157.78056739154647" x2="390.60935920796817" y2="157.78056739154647" stroke="#FFD700" stroke-width="0.5"/><line x1="57.63088906347072" y1="268.6880116781368" x2="70.43775329979754" y2="268.6880116781368" stroke="#FFD700" stroke-width="0.5"/><line x1="185.699531426739" y1="268.6880116781368" x2="198.5063956630658" y2="268.6880116781368" stroke="#FFD700" stroke-width="0.5"/><line x1="313.7681737900072" y1="268.6880116781368" x2="326.575038026334" y2="268.6880116781368" stroke="#FFD700" stroke-width="0.5"/><line x1="441.83681615327544" y1="268.6880116781368" x2="454.6436803896023" y2="268.6880116781368" stroke="#FFD700" stroke-width="0.5"/><line x1="121.66521024510484" y1="379.5954559647271" x2="134.47207448143166" y2="379.5954559647271" stroke="#FFD700" stroke-width="0.5"/><line x1="249.73385260837307" y1="379.5954559647271" x2="262.5407168446999" y2="379.5954559647271" stroke="#FFD700" stroke-width="0.5"/><line x1="377.8024949716413" y1="379.5954559647271" x2="390.60935920796817" y2="379.5954559647271" stroke="#FFD700" stroke-width="0.5"/><line x1="57.63088906347072" y1="490.50290025131744" x2="70.43775329979754" y2="490.50290025131744" stroke="#FFD700" stroke-width="0.5"/><line x1="185.699531426739" y1="490.50290025131744" x2="198.5063956630658" y2="490.50290025131744" stroke="#FFD700" stroke-width="0.5"/><line x1="313.7681737900072" y1="490.50290025131744" x2="326.575038026334" y2="490.50290025131744" stroke="#FFD700" stroke-width="0.5"/><line x1="441.83681615327544" y1="490.50290025131744" x2="454.6436803896023" y2="490.50290025131744" stroke="#FFD700" stroke-width="0.5"/></g></svg>