<svg xmlns="http://www.w3.org/2000/svg" width="512" height="512" viewBox="0 0 512 512"><rect x="0" y="0" width="512" height="512" fill="#050510"/><g opacity="0.06786286831733904"><path d="M -39.327615942324506,-74.72247029041657 L -31.802602414552123,-57.4946056581136 L -14.299674413678456,-64.35555747097055 L -21.16062622653541,-46.852629470096886 L -3.9327615942324528,-39.327615942324506 L -21.16062622653541,-31.802602414552123 L -14.299674413678456,-14.29967441367846 L -31.802602414552123,-21.16062622653541 L -39.327615942324506,-3.9327615942324528 L -46.852629470096886,-21.16062622653541 L -64.35555747097055,-14.299674413678456 L -57.4946056581136,-31.802602414552112 L -74.72247029041657,-39.3276159423245 L -57.4946056581136,-46.85262947009689 L -64.35555747097055,-64.35555747097055 L -46.8526294700969,-57.4946056581136 Z" fill="none" stroke="#0F52BA" stroke-width="2.473263920272358" /><path d="M 39.327615942324506,-74.72247029041657 L 46.85262947009689,-57.4946056581136 L 64.35555747097055,-64.35555747097055 L 57.4946056581136,-46.852629470096886 L 74.72247029041657,-39.327615942324506 L 57.4946056581136,-31.802602414552123 L 64.35555747097055,-14.29967441367846 L 46.85262947009689,-21.16062622653541 L 39.327615942324506,-3.9327615942324528 L 31.802602414552123,-21.16062622653541 L 14.29967441367846,-14.299674413678456 L 21.160626226535413,-31.802602414552112 L 3.9327615942324528,-39.3276159423245 L 21.160626226535413,-46.85262947009689 L 14.299674413678453,-64.35555747097055 L 31.802602414552112,-57.4946056581136 Z" fill="none" stroke="#0F52BA" stroke-width="2.473263920272358" /><path d="M 117.98284782697351,-74.72247029041657 L 125.5078613547459,-57.4946056581136 L 143.01078935561955,-64.35555747097055 L 136.1498375427626,-46.852629470096886 L 153.37770217506556,-39.327615942324506 L 136.1498375427626,-31.802602414552123 L 143.01078935561955,-14.29967441367846 L 125.5078613547459,-21.16062622653541 L 117.98284782697351,-3.9327615942324528 L 110.45783429920112,-21.16062622653541 L 92.95490629832747,-14.299674413678456 L 99.81585811118441,-31.802602414552112 L 82.58799347888146,-39.3276159423245 L 99.81585811118441,-46.85262947009689 L 92.95490629832746,-64.35555747097055 L 110.45783429920112,-57.4946056581136 Z" fill="none" stroke="#0F52BA" stroke-width="2.473263920272358" /><path d="M 196.6380797116225,-74.72247029041657 L 204.1630932393949,-57.4946056581136 L 221.66602124026855,-64.35555747097055 L 214.8050694274116,-46.852629470096886 L 232.03293405971456,-39.327615942324506 L 214.8050694274116,-31.802602414552123 L 221.66602124026855,-14.29967441367846 L 204.1630932393949,-21.16062622653541 L 196.6380797116225,-3.9327615942324528 L 189.11306618385012,-21.16062622653541 L 171.61013818297647,-14.299674413678456 L 178.4710899958334,-31.802602414552112 L 161.24322536353046,-39.3276159423245 L 178.4710899958334,-46.85262947009689 L 171.61013818297647,-64.35555747097055 L 189.11306618385012,-57.4946056581136 Z" fill="none" stroke="#0F52BA" stroke-width="2.473263920272358" /><path d="M 275.29331159627156,-74.72247029041657 L 282.81832512404395,-57.4946056581136 L 300.32125312491763,-64.35555747097055 L 293.46030131206066,-46.852629470096886 L 310.6881659443636,-39.327615942324506 L 293.46030131206066,-31.802602414552123 L 300.32125312491763,-14.29967441367846 L 282.81832512404395,-21.16062622653541 L 275.29331159627156,-3.9327615942324528 L 267.7682980684992,-21.16062622653541 L 250.26537006762553,-14.299674413678456 L 257.12632188048246,-31.802602414552112 L 239.8984572481795,-39.3276159423245 L 257.12632188048246,-46.85262947009689 L 250.2653700676255,-64.35555747097055 L 267.7682980684992,-57.4946056581136 Z" fill="none" stroke="#0F52BA" stroke-width="2.473263920272358" /><path d="M 353.9485434809206,-74.72247029041657 L 361.473557008693,-57.4946056581136 L 378.97648500956666,-64.35555747097055 L 372.1155331967097,-46.852629470096886 L 389.34339782901264,-39.327615942324506 L 372.1155331967097,-31.802602414552123 L 378.97648500956666,-14.29967441367846 L 361.473557008693,-21.16062622653541 L 353.9485434809206,-3.9327615942324528 L 346.4235299531482,-21.16062622653541 L 328.9206019522745,-14.299674413678456 L 335.7815537651315,-31.802602414552112 L 318.55368913282854,-39.3276159423245 L 335.7815537651315,-46.85262947009689 L 328.9206019522745,-64.35555747097055 L 346.4235299531482,-57.4946056581136 Z" fill="none" stroke="#0F52BA" stroke-width="2.473263920272358" /><path d="M 432.60377536556956,-74.72247029041657 L 440.12878889334195,-57.4946056581136 L 457.63171689421563,-64.35555747097055 L 450.77076508135866,-46.852629470096886 L 467.9986297136616,-39.327615942324506 L 450.77076508135866,-31.802602414552123 L 457.63171689421563,-14.29967441367846 L 440.12878889334195,-21.16062622653541 L 432.60377536556956,-3.9327615942324528 L 425.0787618377972,-21.16062622653541 L 407.5758338369235,-14.299674413678456 L 414.43678564978046,-31.802602414552112 L 397.2089210174775,-39.3276159423245 L 414.43678564978046,-46.85262947009689 L 407.5758338369235,-64.35555747097055 L 425.0787618377972,-57.4946056581136 Z" fill="none" stroke="#0F52BA" stroke-width="2.473263920272358" /><path d="M 511.25900725021864,-74.72247029041657 L 518.784020777991,-57.4946056581136 L 536.2869487788647,-64.35555747097055 L 529.4259969660077,-46.852629470096886 L 546.6538615983106,-39.327615942324506 L 529.4259969660077,-31.802602414552123 L 536.2869487788647,-14.29967441367846 L 518.784020777991,-21.16062622653541 L 511.25900725021864,-3.9327615942324528 L 503.73399372244626,-21.16062622653541 L 486.2310657215726,-14.299674413678456 L 493.09201753442954,-31.802602414552112 L 475.8641529021266,-39.3276159423245 L 493.09201753442954,-46.85262947009689 L 486.2310657215726,-64.35555747097055 L 503.73399372244626,-57.4946056581136 Z" fill="none" stroke="#0F52BA" stroke-width="2.473263920272358" /><path d="M 589.9142391348676,-74.72247029041657 L 597.4392526626399,-57.4946056581136 L 614.9421806635136,-64.35555747097055 L 608.0812288506567,-46.852629470096886 L 625.3090934829596,-39.327615942324506 L 608.0812288506567,-31.802602414552123 L 614.9421806635136,-14.29967441367846 L 597.4392526626399,-21.16062622653541 L 589.9142391348676,-3.9327615942324528 L 582.3892256070952,-21.16062622653541 L 564.8862976062215,-14.299674413678456 L 571.7472494190785,-31.802602414552112 L 554.5193847867755,-39.3276159423245 L 571.7472494190785,-46.85262947009689 L 564.8862976062215,-64.35555747097055 L 582.3892256070951,-57.4946056581136 Z" fill="none" stroke="#0F52BA" stroke-width="2.473263920272358" /><path d="M 2.1673097541838857e-15,-6.607039478310519 L 7.525013527772384,10.620825153992438 L 25.02794152864605,3.7598733411354885 L 18.166989715789096,21.26280134200915 L 35.39485434809205,28.787814869781535 L 18.166989715789096,36.312828397553915 L 25.02794152864605,53.81575639842758 L 7.525013527772384,46.95480458557063 L 2.1673097541838857e-15,64.18266921787358 L -7.525013527772383,46.95480458557063 L -25.027941528646046,53.81575639842758 L -18.166989715789093,36.31282839755393 L -35.39485434809205,28.78781486978154 L -18.166989715789093,21.262801342009148 L -25.027941528646053,3.7598733411354885 L -7.525013527772394,10.620825153992442 Z" fill="none" stroke="#0F52BA" stroke-width="2.473263920272358" /><path d="M 78.65523188464901,-6.607039478310519 L 86.1802454124214,10.620825153992438 L 103.68317341329507,3.7598733411354885 L 96.82222160043811,21.26280134200915 L 114.05008623274107,28.787814869781535 L 96.82222160043811,36.312828397553915 L 103.68317341329507,53.81575639842758 L 86.1802454124214,46.95480458557063 L 78.65523188464901,64.18266921787358 L 71.13021835687663,46.95480458557063 L 53.627290356002966,53.81575639842758 L 60.48824216885992,36.31282839755393 L 43.26037753655696,28.78781486978154 L 60.48824216885992,21.262801342009148 L 53.62729035600296,3.7598733411354885 L 71.13021835687661,10.620825153992442 Z" fill="none" stroke="#0F52BA" stroke-width="2.473263920272358" /><path d="M 157.31046376929802,-6.607039478310519 L 164.8354772970704,10.620825153992438 L 182.33840529794406,3.7598733411354885 L 175.47745348508712,21.26280134200915 L 192.70531811739008,28.787814869781535 L 175.47745348508712,36.312828397553915 L 182.33840529794406,53.81575639842758 L 164.8354772970704,46.95480458557063 L 157.31046376929802,64.18266921787358 L 149.78545024152564,46.95480458557063 L 132.28252224065199,53.81575639842758 L 139.14347405350892,36.31282839755393 L 121.91560942120597,28.78781486978154 L 139.14347405350892,21.262801342009148 L 132.28252224065199,3.7598733411354885 L 149.78545024152564,10.620825153992442 Z" fill="none" stroke="#0F52BA" stroke-width="2.473263920272358" /><path d="M 235.96569565394702,-6.607039478310519 L 243.4907091817194,10.620825153992438 L 260.9936371825931,3.7598733411354885 L 254.13268536973612,21.26280134200915 L 271.3605500020391,28.787814869781535 L 254.13268536973612,36.312828397553915 L 260.9936371825931,53.81575639842758 L 243.4907091817194,46.95480458557063 L 235.96569565394702,64.18266921787358 L 228.44068212617464,46.95480458557063 L 210.93775412530098,53.81575639842758 L 217.79870593815792,36.31282839755393 L 200.57084130585497,28.78781486978154 L 217.79870593815792,21.262801342009148 L 210.93775412530096,3.7598733411354885 L 228.44068212617464,10.620825153992442 Z" fill="none" stroke="#0F52BA" stroke-width="2.473263920272358" /><path d="M 314.62092753859605,-6.607039478310519 L 322.14594106636844,10.620825153992438 L 339.6488690672421,3.7598733411354885 L 332.78791725438515,21.26280134200915 L 350.0157818866881,28.787814869781535 L 332.78791725438515,36.312828397553915 L 339.6488690672421,53.81575639842758 L 322.14594106636844,46.95480458557063 L 314.62092753859605,64.18266921787358 L 307.09591401082366,46.95480458557063 L 289.59298600995,53.81575639842758 L 296.45393782280695,36.31282839755393 L 279.226073190504,28.78781486978154 L 296.45393782280695,21.262801342009148 L 289.59298600995,3.7598733411354885 L 307.09591401082366,10.620825153992442 Z" fill="none" stroke="#0F52BA" stroke-width="2.473263920272358" /><path d="M 393.2761594232451,-6.607039478310519 L 400.80117295101746,10.620825153992438 L 418.30410095189114,3.7598733411354885 L 411.4431491390342,21.26280134200915 L 428.67101377133713,28.787814869781535 L 411.4431491390342,36.312828397553915 L 418.30410095189114,53.81575639842758 L 400.80117295101746,46.95480458557063 L 393.2761594232451,64.18266921787358 L 385.7511458954727,46.95480458557063 L 368.248217894599,53.81575639842758 L 375.109169707456,36.31282839755393 L 357.881305075153,28.78781486978154 L 375.109169707456,21.262801342009148 L 368.248217894599,3.7598733411354885 L 385.7511458954727,10.620825153992442 Z" fill="none" stroke="#0F52BA" stroke-width="2.473263920272358" /><path d="M 471.93139130789405,-6.607039478310519 L 479.45640483566643,10.620825153992438 L 496.9593328365401,3.7598733411354885 L 490.09838102368315,21.26280134200915 L 507.3262456559861,28.787814869781535 L 490.09838102368315,36.312828397553915 L 496.9593328365401,53.81575639842758 L 479.45640483566643,46.95480458557063 L 471.93139130789405,64.18266921787358 L 464.40637778012166,46.95480458557063 L 446.903449779248,53.81575639842758 L 453.76440159210495,36.31282839755393 L 436.536536959802,28.78781486978154 L 453.76440159210495,21.262801342009148 L 446.903449779248,3.7598733411354885 L 464.40637778012166,10.620825153992442 Z" fill="none" stroke="#0F52BA" stroke-width="2.473263920272358" /><path d="M 550.5866231925431,-6.607039478310519 L 558.1116367203155,10.620825153992438 L 575.6145647211891,3.7598733411354885 L 568.7536129083322,21.26280134200915 L 585.9814775406352,28.787814869781535 L 568.7536129083322,36.312828397553915 L 575.6145647211891,53.81575639842758 L 558.1116367203155,46.95480458557063 L 550.5866231925431,64.18266921787358 L 543.0616096647708,46.95480458557063 L 525.5586816638971,53.81575639842758 L 532.419633476754,36.31282839755393 L 515.1917688444511,28.78781486978154 L 532.419633476754,21.262801342009148 L 525.5586816638971,3.7598733411354885 L 543.0616096647707,10.620825153992442 Z" fill="none" stroke="#0F52BA" stroke-width="2.473263920272358" /><path d="M -39.327615942324506,61.508391333795515 L -31.802602414552123,78.73625596609847 L -14.299674413678456,71.87530415324153 L -21.16062622653541,89.37823215411518 L -3.9327615942324528,96.90324568188757 L -21.16062622653541,104.42825920965996 L -14.299674413678456,121.93118721053361 L -31.802602414552123,115.07023539767667 L -39.327615942324506,132.29810002997962 L -46.852629470096886,115.07023539767667 L -64.35555747097055,121.93118721053362 L -57.4946056581136,104.42825920965996 L -74.72247029041657,96.90324568188757 L -57.4946056581136,89.37823215411518 L -64.35555747097055,71.87530415324153 L -46.8526294700969,78.73625596609847 Z" fill="none" stroke="#0F52BA" stroke-width="2.473263920272358" /><path d="M 39.327615942324506,61.508391333795515 L 46.85262947009689,78.73625596609847 L 64.35555747097055,71.87530415324153 L 57.4946056581136,89.37823215411518 L 74.72247029041657,96.90324568188757 L 57.4946056581136,104.42825920965996 L 64.35555747097055,121.93118721053361 L 46.85262947009689,115.07023539767667 L 39.327615942324506,132.29810002997962 L 31.802602414552123,115.07023539767667 L 14.29967441367846,121.93118721053362 L 21.160626226535413,104.42825920965996 L 3.9327615942324528,96.90324568188757 L 21.160626226535413,89.37823215411518 L 14.299674413678453,71.87530415324153 L 31.802602414552112,78.73625596609847 Z" fill="none" stroke="#0F52BA" stroke-width="2.473263920272358" /><path d="M 117.98284782697351,61.508391333795515 L 125.5078613547459,78.73625596609847 L 143.01078935561955,71.87530415324153 L 136.1498375427626,89.37823215411518 L 153.37770217506556,96.90324568188757 L 136.1498375427626,104.42825920965996 L 143.01078935561955,121.93118721053361 L 125.5078613547459,115.07023539767667 L 117.98284782697351,132.29810002997962 L 110.45783429920112,115.07023539767667 L 92.95490629832747,121.93118721053362 L 99.81585811118441,104.42825920965996 L 82.58799347888146,96.90324568188757 L 99.81585811118441,89.37823215411518 L 92.95490629832746,71.87530415324153 L 110.45783429920112,78.73625596609847 Z" fill="none" stroke="#0F52BA" stroke-width="2.473263920272358" /><path d="M 196.6380797116225,61.508391333795515 L 204.1630932393949,78.73625596609847 L 221.66602124026855,71.87530415324153 L 214.8050694274116,89.37823215411518 L 232.03293405971456,96.90324568188757 L 214.8050694274116,104.42825920965996 L 221.66602124026855,121.93118721053361 L 204.1630932393949,115.07023539767667 L 196.6380797116225,132.29810002997962 L 189.11306618385012,115.07023539767667 L 171.61013818297647,121.93118721053362 L 178.4710899958334,104.42825920965996 L 161.24322536353046,96.90324568188757 L 178.4710899958334,89.37823215411518 L 171.61013818297647,71.87530415324153 L 189.11306618385012,78.73625596609847 Z" fill="none" stroke="#0F52BA" stroke-width="2.473263920272358" /><path d="M 275.29331159627156,61.508391333795515 L 282.81832512404395,78.73625596609847 L 300.32125312491763,71.87530415324153 L 293.46030131206066,89.37823215411518 L 310.6881659443636,96.90324568188757 L 293.46030131206066,104.42825920965996 L 300.32125312491763,121.93118721053361 L 282.81832512404395,115.07023539767667 L 275.29331159627156,132.29810002997962 L 267.7682980684992,115.07023539767667 L 250.26537006762553,121.93118721053362 L 257.12632188048246,104.42825920965996 L 239.8984572481795,96.90324568188757 L 257.12632188048246,89.37823215411518 L 250.2653700676255,71.87530415324153 L 267.7682980684992,78.73625596609847 Z" fill="none" stroke="#0F52BA" stroke-width="2.473263920272358" /><path d="M 353.9485434809206,61.508391333795515 L 361.473557008693,78.73625596609847 L 378.97648500956666,71.87530415324153 L 372.1155331967097,89.37823215411518 L 389.34339782901264,96.90324568188757 L 372.1155331967097,104.42825920965996 L 378.97648500956666,121.93118721053361 L 361.473557008693,115.07023539767667 L 353.9485434809206,132.29810002997962 L 346.4235299531482,115.07023539767667 L 328.9206019522745,121.93118721053362 L 335.7815537651315,104.42825920965996 L 318.55368913282854,96.90324568188757 L 335.7815537651315,89.37823215411518 L 328.9206019522745,71.87530415324153 L 346.4235299531482,78.73625596609847 Z" fill="none" stroke="#0F52BA" stroke-width="2.473263920272358" /><path d="M 432.60377536556956,61.508391333795515 L 440.12878889334195,78.73625596609847 L 457.63171689421563,71.87530415324153 L 450.77076508135866,89.37823215411518 L 467.9986297136616,96.90324568188757 L 450.77076508135866,104.42825920965996 L 457.63171689421563,121.93118721053361 L 440.12878889334195,115.07023539767667 L 432.60377536556956,132.29810002997962 L 425.0787618377972,115.07023539767667 L 407.5758338369235,121.93118721053362 L 414.43678564978046,104.42825920965996 L 397.2089210174775,96.90324568188757 L 414.43678564978046,89.37823215411518 L 407.5758338369235,71.87530415324153 L 425.0787618377972,78.73625596609847 Z" fill="none" stroke="#0F52BA" stroke-width="2.473263920272358" /><path d="M 511.25900725021864,61.508391333795515 L 518.784020777991,78.73625596609847 L 536.2869487788647,71.87530415324153 L 529.4259969660077,89.37823215411518 L 546.6538615983106,96.90324568188757 L 529.4259969660077,104.42825920965996 L 536.2869487788647,121.93118721053361 L 518.784020777991,115.07023539767667 L 511.25900725021864,132.29810002997962 L 503.73399372244626,115.07023539767667 L 486.2310657215726,121.93118721053362 L 493.09201753442954,104.42825920965996 L 475.8641529021266,96.90324568188757 L 493.09201753442954,89.37823215411518 L 486.2310657215726,71.87530415324153 L 503.73399372244626,78.73625596609847 Z" fill="none" stroke="#0F52BA" stroke-width="2.473263920272358" /><path d="M 589.9142391348676,61.508391333795515 L 597.4392526626399,78.73625596609847 L 614.9421806635136,71.87530415324153 L 608.0812288506567,89.37823215411518 L 625.3090934829596,96.90324568188757 L 608.0812288506567,104.42825920965996 L 614.9421806635136,121.93118721053361 L 597.4392526626399,115.07023539767667 L 589.9142391348676,132.29810002997962 L 582.3892256070952,115.07023539767667 L 564.8862976062215,121.93118721053362 L 571.7472494190785,104.42825920965996 L 554.5193847867755,96.90324568188757 L 571.7472494190785,89.37823215411518 L 564.8862976062215,71.87530415324153 L 582.3892256070951,78.73625596609847 Z" fill="none" stroke="#0F52BA" stroke-width="2.473263920272358" /><path d="M 2.1673097541838857e-15,129.62382214590156 L 7.525013527772384,146.8516867782045 L 25.02794152864605,139.99073496534757 L 18.166989715789096,157.49366296622122 L 35.39485434809205,165.0186764939936 L 18.166989715789096,172.543690021766 L 25.02794152864605,190.04661802263965 L 7.525013527772384,183.1856662097827 L 2.1673097541838857e-15,200.41353084208566 L -7.525013527772383,183.1856662097827 L -25.027941528646046,190.04661802263965 L -18.166989715789093,172.543690021766 L -35.39485434809205,165.0186764939936 L -18.166989715789093,157.49366296622122 L -25.027941528646053,139.99073496534757 L -7.525013527772394,146.8516867782045 Z" fill="none" stroke="#0F52BA" stroke-width="2.473263920272358" /><path d="M 78.65523188464901,129.62382214590156 L 86.1802454124214,146.8516867782045 L 103.68317341329507,139.99073496534757 L 96.82222160043811,157.49366296622122 L 114.05008623274107,165.0186764939936 L 96.82222160043811,172.543690021766 L 103.68317341329507,190.04661802263965 L 86.1802454124214,183.1856662097827 L 78.65523188464901,200.41353084208566 L 71.13021835687663,183.1856662097827 L 53.627290356002966,190.04661802263965 L 60.48824216885992,172.543690021766 L 43.26037753655696,165.0186764939936 L 60.48824216885992,157.49366296622122 L 53.62729035600296,139.99073496534757 L 71.13021835687661,146.8516867782045 Z" fill="none" stroke="#0F52BA" stroke-width="2.473263920272358" /><path d="M 157.31046376929802,129.62382214590156 L 164.8354772970704,146.8516867782045 L 182.33840529794406,139.99073496534757 L 175.47745348508712,157.49366296622122 L 192.70531811739008,165.0186764939936 L 175.47745348508712,172.543690021766 L 182.33840529794406,190.04661802263965 L 164.8354772970704,183.1856662097827 L 157.31046376929802,200.41353084208566 L 149.78545024152564,183.1856662097827 L 132.28252224065199,190.04661802263965 L 139.14347405350892,172.543690021766 L 121.91560942120597,165.0186764939936 L 139.14347405350892,157.49366296622122 L 132.28252224065199,139.99073496534757 L 149.78545024152564,146.8516867782045 Z" fill="none" stroke="#0F52BA" stroke-width="2.473263920272358" /><path d="M 235.96569565394702,129.62382214590156 L 243.4907091817194,146.8516867782045 L 260.9936371825931,139.99073496534757 L 254.13268536973612,157.49366296622122 L 271.3605500020391,165.0186764939936 L 254.13268536973612,172.543690021766 L 260.9936371825931,190.04661802263965 L 243.4907091817194,183.1856662097827 L 235.96569565394702,200.41353084208566 L 228.44068212617464,183.1856662097827 L 210.93775412530098,190.04661802263965 L 217.79870593815792,172.543690021766 L 200.57084130585497,165.0186764939936 L 217.79870593815792,157.49366296622122 L 210.93775412530096,139.99073496534757 L 228.44068212617464,146.8516867782045 Z" fill="none" stroke="#0F52BA" stroke-width="2.473263920272358" /><path d="M 314.62092753859605,129.62382214590156 L 322.14594106636844,146.8516867782045 L 339.6488690672421,139.99073496534757 L 332.78791725438515,157.49366296622122 L 350.0157818866881,165.0186764939936 L 332.78791725438515,172.543690021766 L 339.6488690672421,190.04661802263965 L 322.14594106636844,183.1856662097827 L 314.62092753859605,200.41353084208566 L 307.09591401082366,183.1856662097827 L 289.59298600995,190.04661802263965 L 296.45393782280695,172.543690021766 L 279.226073190504,165.0186764939936 L 296.45393782280695,157.49366296622122 L 289.59298600995,139.99073496534757 L 307.09591401082366,146.8516867782045 Z" fill="none" stroke="#0F52BA" stroke-width="2.473263920272358" /><path d="M 393.2761594232451,129.62382214590156 L 400.80117295101746,146.8516867782045 L 418.30410095189114,139.99073496534757 L 411.4431491390342,157.49366296622122 L 428.67101377133713,165.0186764939936 L 411.4431491390342,172.543690021766 L 418.30410095189114,190.04661802263965 L 400.80117295101746,183.1856662097827 L 393.2761594232451,200.41353084208566 L 385.7511458954727,183.1856662097827 L 368.248217894599,190.04661802263965 L 375.109169707456,172.543690021766 L 357.881305075153,165.0186764939936 L 375.109169707456,157.49366296622122 L 368.248217894599,139.99073496534757 L 385.7511458954727,146.8516867782045 Z" fill="none" stroke="#0F52BA" stroke-width="2.473263920272358" /><path d="M 471.93139130789405,129.62382214590156 L 479.45640483566643,146.8516867782045 L 496.9593328365401,139.99073496534757 L 490.09838102368315,157.49366296622122 L 507.3262456559861,165.0186764939936 L 490.09838102368315,172.543690021766 L 496.9593328365401,190.04661802263965 L 479.45640483566643,183.1856662097827 L 471.93139130789405,200.41353084208566 L 464.40637778012166,183.1856662097827 L 446.903449779248,190.04661802263965 L 453.76440159210495,172.543690021766 L 436.536536959802,165.0186764939936 L 453.76440159210495,157.49366296622122 L 446.903449779248,139.99073496534757 L 464.40637778012166,146.8516867782045 Z" fill="none" stroke="#0F52BA" stroke-width="2.473263920272358" /><path d="M 550.5866231925431,129.62382214590156 L 558.1116367203155,146.8516867782045 L 575.6145647211891,139.99073496534757 L 568.7536129083322,157.49366296622122 L 585.9814775406352,165.0186764939936 L 568.7536129083322,172.543690021766 L 575.6145647211891,190.04661802263965 L 558.1116367203155,183.1856662097827 L 550.5866231925431,200.41353084208566 L 543.0616096647708,183.1856662097827 L 525.5586816638971,190.04661802263965 L 532.419633476754,172.543690021766 L 515.1917688444511,165.0186764939936 L 532.419633476754,157.49366296622122 L 525.5586816638971,139.99073496534757 L 543.0616096647707,146.8516867782045 Z" fill="none" stroke="#0F52BA" stroke-width="2.473263920272358" /><path d="M -39.327615942324506,197.7392529580076 L -31.802602414552123,214.96711759031055 L -14.299674413678456,208.1061657774536 L -21.16062622653541,225.60909377832726 L -3.9327615942324528,233.13410730609965 L -21.16062622653541,240.65912083387204 L -14.299674413678456,258.1620488347457 L -31.802602414552123,251.30109702188875 L -39.327615942324506,268.5289616541917 L -46.852629470096886,251.30109702188875 L -64.35555747097055,258.1620488347457 L -57.4946056581136,240.65912083387204 L -74.72247029041657,233.13410730609965 L -57.4946056581136,225.60909377832726 L -64.35555747097055,208.1061657774536 L -46.8526294700969,214.96711759031055 Z" fill="none" stroke="#0F52BA" stroke-width="2.473263920272358" /><path d="M 39.327615942324506,197.7392529580076 L 46.85262947009689,214.96711759031055 L 64.35555747097055,208.1061657774536 L 57.4946056581136,225.60909377832726 L 74.72247029041657,233.13410730609965 L 57.4946056581136,240.65912083387204 L 64.35555747097055,258.1620488347457 L 46.85262947009689,251.30109702188875 L 39.327615942324506,268.5289616541917 L 31.802602414552123,251.30109702188875 L 14.29967441367846,258.1620488347457 L 21.160626226535413,240.65912083387204 L 3.9327615942324528,233.13410730609965 L 21.160626226535413,225.60909377832726 L 14.299674413678453,208.1061657774536 L 31.802602414552112,214.96711759031055 Z" fill="none" stroke="#0F52BA" stroke-width="2.473263920272358" /><path d="M 117.98284782697351,197.7392529580076 L 125.5078613547459,214.96711759031055 L 143.01078935561955,208.1061657774536 L 136.1498375427626,225.60909377832726 L 153.37770217506556,233.13410730609965 L 136.1498375427626,240.65912083387204 L 143.01078935561955,258.1620488347457 L 125.5078613547459,251.30109702188875 L 117.98284782697351,268.5289616541917 L 110.45783429920112,251.30109702188875 L 92.95490629832747,258.1620488347457 L 99.81585811118441,240.65912083387204 L 82.58799347888146,233.13410730609965 L 99.81585811118441,225.60909377832726 L 92.95490629832746,208.1061657774536 L 110.45783429920112,214.96711759031055 Z" fill="none" stroke="#0F52BA" stroke-width="2.473263920272358" /><path d="M 196.6380797116225,197.7392529580076 L 204.1630932393949,214.96711759031055 L 221.66602124026855,208.1061657774536 L 214.8050694274116,225.60909377832726 L 232.03293405971456,233.13410730609965 L 214.8050694274116,240.65912083387204 L 221.66602124026855,258.1620488347457 L 204.1630932393949,251.30109702188875 L 196.6380797116225,268.5289616541917 L 189.11306618385012,251.30109702188875 L 171.61013818297647,258.1620488347457 L 178.4710899958334,240.65912083387204 L 161.24322536353046,233.13410730609965 L 178.4710899958334,225.60909377832726 L 171.61013818297647,208.1061657774536 L 189.11306618385012,214.96711759031055 Z" fill="none" stroke="#0F52BA" stroke-width="2.473263920272358" /><path d="M 275.29331159627156,197.7392529580076 L 282.81832512404395,214.96711759031055 L 300.32125312491763,208.1061657774536 L 293.46030131206066,225.60909377832726 L 310.6881659443636,233.13410730609965 L 293.46030131206066,240.65912083387204 L 300.32125312491763,258.1620488347457 L 282.81832512404395,251.30109702188875 L 275.29331159627156,268.5289616541917 L 267.7682980684992,251.30109702188875 L 250.26537006762553,258.1620488347457 L 257.12632188048246,240.65912083387204 L 239.8984572481795,233.13410730609965 L 257.12632188048246,225.60909377832726 L 250.2653700676255,208.1061657774536 L 267.7682980684992,214.96711759031055 Z" fill="none" stroke="#0F52BA" stroke-width="2.473263920272358" /><path d="M 353.9485434809206,197.7392529580076 L 361.473557008693,214.96711759031055 L 378.97648500956666,208.1061657774536 L 372.1155331967097,225.60909377832726 L 389.34339782901264,233.13410730609965 L 372.1155331967097,240.65912083387204 L 378.97648500956666,258.1620488347457 L 361.473557008693,251.30109702188875 L 353.9485434809206,268.5289616541917 L 346.4235299531482,251.30109702188875 L 328.9206019522745,258.1620488347457 L 335.7815537651315,240.65912083387204 L 318.55368913282854,233.13410730609965 L 335.7815537651315,225.60909377832726 L 328.9206019522745,208.1061657774536 L 346.4235299531482,214.96711759031055 Z" fill="none" stroke="#0F52BA" stroke-width="2.473263920272358" /><path d="M 432.60377536556956,197.7392529580076 L 440.12878889334195,214.96711759031055 L 457.63171689421563,208.1061657774536 L 450.77076508135866,225.60909377832726 L 467.9986297136616,233.13410730609965 L 450.77076508135866,240.65912083387204 L 457.63171689421563,258.1620488347457 L 440.12878889334195,251.30109702188875 L 432.60377536556956,268.5289616541917 L 425.0787618377972,251.30109702188875 L 407.5758338369235,258.1620488347457 L 414.43678564978046,240.65912083387204 L 397.2089210174775,233.13410730609965 L 414.43678564978046,225.60909377832726 L 407.5758338369235,208.1061657774536 L 425.0787618377972,214.96711759031055 Z" fill="none" stroke="#0F52BA" stroke-width="2.473263920272358" /><path d="M 511.25900725021864,197.7392529580076 L 518.784020777991,214.96711759031055 L 536.2869487788647,208.1061657774536 L 529.4259969660077,225.60909377832726 L 546.6538615983106,233.13410730609965 L 529.4259969660077,240.65912083387204 L 536.2869487788647,258.1620488347457 L 518.784020777991,251.30109702188875 L 511.25900725021864,268.5289616541917 L 503.73399372244626,251.30109702188875 L 486.2310657215726,258.1620488347457 L 493.09201753442954,240.65912083387204 L 475.8641529021266,233.13410730609965 L 493.09201753442954,225.60909377832726 L 486.2310657215726,208.1061657774536 L 503.73399372244626,214.96711759031055 Z" fill="none" stroke="#0F52BA" stroke-width="2.473263920272358" /><path d="M 589.9142391348676,197.7392529580076 L 597.4392526626399,214.96711759031055 L 614.9421806635136,208.1061657774536 L 608.0812288506567,225.60909377832726 L 625.3090934829596,233.13410730609965 L 608.0812288506567,240.65912083387204 L 614.9421806635136,258.1620488347457 L 597.4392526626399,251.30109702188875 L 589.9142391348676,268.5289616541917 L 582.3892256070952,251.30109702188875 L 564.8862976062215,258.1620488347457 L 571.7472494190785,240.65912083387204 L 554.5193847867755,233.13410730609965 L 571.7472494190785,225.60909377832726 L 564.8862976062215,208.1061657774536 L 582.3892256070951,214.96711759031055 Z" fill="none" stroke="#0F52BA" stroke-width="2.473263920272358" /><path d="M 2.1673097541838857e-15,265.8546837701137 L 7.525013527772384,283.08254840241665 L 25.02794152864605,276.2215965895597 L 18.166989715789096,293.72452459043336 L 35.39485434809205,301.24953811820575 L 18.166989715789096,308.77455164597814 L 25.02794152864605,326.2774796468518 L 7.525013527772384,319.41652783399485 L 2.1673097541838857e-15,336.6443924662978 L -7.525013527772383,319.41652783399485 L -25.027941528646046,326.2774796468518 L -18.166989715789093,308.77455164597814 L -35.39485434809205,301.24953811820575 L -18.166989715789093,293.72452459043336 L -25.027941528646053,276.2215965895597 L -7.525013527772394,283.08254840241665 Z" fill="none" stroke="#0F52BA" stroke-width="2.473263920272358" /><path d="M 78.65523188464901,265.8546837701137 L 86.1802454124214,283.08254840241665 L 103.68317341329507,276.2215965895597 L 96.82222160043811,293.72452459043336 L 114.05008623274107,301.24953811820575 L 96.82222160043811,308.77455164597814 L 103.68317341329507,326.2774796468518 L 86.1802454124214,319.41652783399485 L 78.65523188464901,336.6443924662978 L 71.13021835687663,319.41652783399485 L 53.627290356002966,326.2774796468518 L 60.48824216885992,308.77455164597814 L 43.26037753655696,301.24953811820575 L 60.48824216885992,293.72452459043336 L 53.62729035600296,276.2215965895597 L 71.13021835687661,283.08254840241665 Z" fill="none" stroke="#0F52BA" stroke-width="2.473263920272358" /><path d="M 157.31046376929802,265.8546837701137 L 164.8354772970704,283.08254840241665 L 182.33840529794406,276.2215965895597 L 175.47745348508712,293.72452459043336 L 192.70531811739008,301.24953811820575 L 175.47745348508712,308.77455164597814 L 182.33840529794406,326.2774796468518 L 164.8354772970704,319.41652783399485 L 157.31046376929802,336.6443924662978 L 149.78545024152564,319.41652783399485 L 132.28252224065199,326.2774796468518 L 139.14347405350892,308.77455164597814 L 121.91560942120597,301.24953811820575 L 139.14347405350892,293.72452459043336 L 132.28252224065199,276.2215965895597 L 149.78545024152564,283.08254840241665 Z" fill="none" stroke="#0F52BA" stroke-width="2.473263920272358" /><path d="M 235.96569565394702,265.8546837701137 L 243.4907091817194,283.08254840241665 L 260.9936371825931,276.2215965895597 L 254.13268536973612,293.72452459043336 L 271.3605500020391,301.24953811820575 L 254.13268536973612,308.77455164597814 L 260.9936371825931,326.2774796468518 L 243.4907091817194,319.41652783399485 L 235.96569565394702,336.6443924662978 L 228.44068212617464,319.41652783399485 L 210.93775412530098,326.2774796468518 L 217.79870593815792,308.77455164597814 L 200.57084130585497,301.24953811820575 L 217.79870593815792,293.72452459043336 L 210.93775412530096,276.2215965895597 L 228.44068212617464,283.08254840241665 Z" fill="none" stroke="#0F52BA" stroke-width="2.473263920272358" /><path d="M 314.62092753859605,265.8546837701137 L 322.14594106636844,283.08254840241665 L 339.6488690672421,276.2215965895597 L 332.78791725438515,293.72452459043336 L 350.0157818866881,301.24953811820575 L 332.78791725438515,308.77455164597814 L 339.6488690672421,326.2774796468518 L 322.14594106636844,319.41652783399485 L 314.62092753859605,336.6443924662978 L 307.09591401082366,319.41652783399485 L 289.59298600995,326.2774796468518 L 296.45393782280695,308.77455164597814 L 279.226073190504,301.24953811820575 L 296.45393782280695,293.72452459043336 L 289.59298600995,276.2215965895597 L 307.09591401082366,283.08254840241665 Z" fill="none" stroke="#0F52BA" stroke-width="2.473263920272358" /><path d="M 393.2761594232451,265.8546837701137 L 400.80117295101746,283.08254840241665 L 418.30410095189114,276.2215965895597 L 411.4431491390342,293.72452459043336 L 428.67101377133713,301.24953811820575 L 411.4431491390342,308.77455164597814 L 418.30410095189114,326.2774796468518 L 400.80117295101746,319.41652783399485 L 393.2761594232451,336.6443924662978 L 385.7511458954727,319.41652783399485 L 368.248217894599,326.2774796468518 L 375.109169707456,308.77455164597814 L 357.881305075153,301.24953811820575 L 375.109169707456,293.72452459043336 L 368.248217894599,276.2215965895597 L 385.7511458954727,283.08254840241665 Z" fill="none" stroke="#0F52BA" stroke-width="2.473263920272358" /><path d="M 471.93139130789405,265.8546837701137 L 479.45640483566643,283.08254840241665 L 496.9593328365401,276.2215965895597 L 490.09838102368315,293.72452459043336 L 507.3262456559861,301.24953811820575 L 490.09838102368315,308.77455164597814 L 496.9593328365401,326.2774796468518 L 479.45640483566643,319.41652783399485 L 471.93139130789405,336.6443924662978 L 464.40637778012166,319.41652783399485 L 446.903449779248,326.2774796468518 L 453.76440159210495,308.77455164597814 L 436.536536959802,301.24953811820575 L 453.76440159210495,293.72452459043336 L 446.903449779248,276.2215965895597 L 464.40637778012166,283.08254840241665 Z" fill="none" stroke="#0F52BA" stroke-width="2.473263920272358" /><path d="M 550.5866231925431,265.8546837701137 L 558.1116367203155,283.08254840241665 L 575.6145647211891,276.2215965895597 L 568.7536129083322,293.72452459043336 L 585.9814775406352,301.24953811820575 L 568.7536129083322,308.77455164597814 L 575.6145647211891,326.2774796468518 L 558.1116367203155,319.41652783399485 L 550.5866231925431,336.6443924662978 L 543.0616096647708,319.41652783399485 L 525.5586816638971,326.2774796468518 L 532.419633476754,308.77455164597814 L 515.1917688444511,301.24953811820575 L 532.419633476754,293.72452459043336 L 525.5586816638971,276.2215965895597 L 543.0616096647707,283.08254840241665 Z" fill="none" stroke="#0F52BA" stroke-width="2.473263920272358" /><path d="M -39.327615942324506,333.9701145822197 L -31.802602414552123,351.19797921452266 L -14.299674413678456,344.3370274016657 L -21.16062622653541,361.8399554025394 L -3.9327615942324528,369.36496893031176 L -21.16062622653541,376.88998245808415 L -14.299674413678456,394.39291045895783 L -31.802602414552123,387.53195864610086 L -39.327615942324506,404.7598232784038 L -46.852629470096886,387.53195864610086 L -64.35555747097055,394.39291045895783 L -57.4946056581136,376.88998245808415 L -74.72247029041657,369.36496893031176 L -57.4946056581136,361.8399554025394 L -64.35555747097055,344.3370274016657 L -46.8526294700969,351.19797921452266 Z" fill="none" stroke="#0F52BA" stroke-width="2.473263920272358" /><path d="M 39.327615942324506,333.9701145822197 L 46.85262947009689,351.19797921452266 L 64.35555747097055,344.3370274016657 L 57.4946056581136,361.8399554025394 L 74.72247029041657,369.36496893031176 L 57.4946056581136,376.88998245808415 L 64.35555747097055,394.39291045895783 L 46.85262947009689,387.53195864610086 L 39.327615942324506,404.7598232784038 L 31.802602414552123,387.53195864610086 L 14.29967441367846,394.39291045895783 L 21.160626226535413,376.88998245808415 L 3.9327615942324528,369.36496893031176 L 21.160626226535413,361.8399554025394 L 14.299674413678453,344.3370274016657 L 31.802602414552112,351.19797921452266 Z" fill="none" stroke="#0F52BA" stroke-width="2.473263920272358" /><path d="M 117.98284782697351,333.9701145822197 L 125.5078613547459,351.19797921452266 L 143.01078935561955,344.3370274016657 L 136.1498375427626,361.8399554025394 L 153.37770217506556,369.36496893031176 L 136.1498375427626,376.88998245808415 L 143.01078935561955,394.39291045895783 L 125.5078613547459,387.53195864610086 L 117.98284782697351,404.7598232784038 L 110.45783429920112,387.53195864610086 L 92.95490629832747,394.39291045895783 L 99.81585811118441,376.88998245808415 L 82.58799347888146,369.36496893031176 L 99.81585811118441,361.8399554025394 L 92.95490629832746,344.3370274016657 L 110.45783429920112,351.19797921452266 Z" fill="none" stroke="#0F52BA" stroke-width="2.473263920272358" /><path d="M 196.6380797116225,333.9701145822197 L 204.1630932393949,351.19797921452266 L 221.66602124026855,344.3370274016657 L 214.8050694274116,361.8399554025394 L 232.03293405971456,369.36496893031176 L 214.8050694274116,376.88998245808415 L 221.66602124026855,394.39291045895783 L 204.1630932393949,387.53195864610086 L 196.6380797116225,404.7598232784038 L 189.11306618385012,387.53195864610086 L 171.61013818297647,394.39291045895783 L 178.4710899958334,376.88998245808415 L 161.24322536353046,369.36496893031176 L 178.4710899958334,361.8399554025394 L 171.61013818297647,344.3370274016657 L 189.11306618385012,351.19797921452266 Z" fill="none" stroke="#0F52BA" stroke-width="2.473263920272358" /><path d="M 275.29331159627156,333.9701145822197 L 282.81832512404395,351.19797921452266 L 300.32125312491763,344.3370274016657 L 293.46030131206066,361.8399554025394 L 310.6881659443636,369.36496893031176 L 293.46030131206066,376.88998245808415 L 300.32125312491763,394.39291045895783 L 282.81832512404395,387.53195864610086 L 275.29331159627156,404.7598232784038 L 267.7682980684992,387.53195864610086 L 250.26537006762553,394.39291045895783 L 257.12632188048246,376.88998245808415 L 239.8984572481795,369.36496893031176 L 257.12632188048246,361.8399554025394 L 250.2653700676255,344.3370274016657 L 267.7682980684992,351.19797921452266 Z" fill="none" stroke="#0F52BA" stroke-width="2.473263920272358" /><path d="M 353.9485434809206,333.9701145822197 L 361.473557008693,351.19797921452266 L 378.97648500956666,344.3370274016657 L 372.1155331967097,361.8399554025394 L 389.34339782901264,369.36496893031176 L 372.1155331967097,376.88998245808415 L 378.97648500956666,394.39291045895783 L 361.473557008693,387.53195864610086 L 353.9485434809206,404.7598232784038 L 346.4235299531482,387.53195864610086 L 328.9206019522745,394.39291045895783 L 335.7815537651315,376.88998245808415 L 318.55368913282854,369.36496893031176 L 335.7815537651315,361.8399554025394 L 328.9206019522745,344.3370274016657 L 346.4235299531482,351.19797921452266 Z" fill="none" stroke="#0F52BA" stroke-width="2.473263920272358" /><path d="M 432.60377536556956,333.9701145822197 L 440.12878889334195,351.19797921452266 L 457.63171689421563,344.3370274016657 L 450.77076508135866,361.8399554025394 L 467.9986297136616,369.36496893031176 L 450.77076508135866,376.88998245808415 L 457.63171689421563,394.39291045895783 L 440.12878889334195,387.53195864610086 L 432.60377536556956,404.7598232784038 L 425.0787618377972,387.53195864610086 L 407.5758338369235,394.39291045895783 L 414.43678564978046,376.88998245808415 L 397.2089210174775,369.36496893031176 L 414.43678564978046,361.8399554025394 L 407.5758338369235,344.3370274016657 L 425.0787618377972,351.19797921452266 Z" fill="none" stroke="#0F52BA" stroke-width="2.473263920272358" /><path d="M 511.25900725021864,333.9701145822197 L 518.784020777991,351.19797921452266 L 536.2869487788647,344.3370274016657 L 529.4259969660077,361.8399554025394 L 546.6538615983106,369.36496893031176 L 529.4259969660077,376.88998245808415 L 536.2869487788647,394.39291045895783 L 518.784020777991,387.53195864610086 L 511.25900725021864,404.7598232784038 L 503.73399372244626,387.53195864610086 L 486.2310657215726,394.39291045895783 L 493.09201753442954,376.88998245808415 L 475.8641529021266,369.36496893031176 L 493.09201753442954,361.8399554025394 L 486.2310657215726,344.3370274016657 L 503.73399372244626,351.19797921452266 Z" fill="none" stroke="#0F52BA" stroke-width="2.473263920272358" /><path d="M 589.9142391348676,333.9701145822197 L 597.4392526626399,351.19797921452266 L 614.9421806635136,344.3370274016657 L 608.0812288506567,361.8399554025394 L 625.3090934829596,369.36496893031176 L 608.0812288506567,376.88998245808415 L 614.9421806635136,394.39291045895783 L 597.4392526626399,387.53195864610086 L 589.9142391348676,404.7598232784038 L 582.3892256070952,387.53195864610086 L 564.8862976062215,394.39291045895783 L 571.7472494190785,376.88998245808415 L 554.5193847867755,369.36496893031176 L 571.7472494190785,361.8399554025394 L 564.8862976062215,344.3370274016657 L 582.3892256070951,351.19797921452266 Z" fill="none" stroke="#0F52BA" stroke-width="2.473263920272358" /><path d="M 2.1673097541838857e-15,402.08554539432583 L 7.525013527772384,419.3134100266288 L 25.02794152864605,412.4524582137718 L 18.166989715789096,429.9553862146455 L 35.39485434809205,437.4803997424179 L 18.166989715789096,445.0054132701903 L 25.02794152864605,462.50834127106395 L 7.525013527772384,455.647389458207 L 2.1673097541838857e-15,472.87525409050994 L -7.525013527772383,455.647389458207 L -25.027941528646046,462.50834127106395 L -18.166989715789093,445.0054132701903 L -35.39485434809205,437.4803997424179 L -18.166989715789093,429.9553862146455 L -25.027941528646053,412.4524582137718 L -7.525013527772394,419.3134100266288 Z" fill="none" stroke="#0F52BA" stroke-width="2.473263920272358" /><path d="M 78.65523188464901,402.08554539432583 L 86.1802454124214,419.3134100266288 L 103.68317341329507,412.4524582137718 L 96.82222160043811,429.9553862146455 L 114.05008623274107,437.4803997424179 L 96.82222160043811,445.0054132701903 L 103.68317341329507,462.50834127106395 L 86.1802454124214,455.647389458207 L 78.65523188464901,472.87525409050994 L 71.13021835687663,455.647389458207 L 53.627290356002966,462.50834127106395 L 60.48824216885992,445.0054132701903 L 43.26037753655696,437.4803997424179 L 60.48824216885992,429.9553862146455 L 53.62729035600296,412.4524582137718 L 71.13021835687661,419.3134100266288 Z" fill="none" stroke="#0F52BA" stroke-width="2.473263920272358" /><path d="M 157.31046376929802,402.08554539432583 L 164.8354772970704,419.3134100266288 L 182.33840529794406,412.4524582137718 L 175.47745348508712,429.9553862146455 L 192.70531811739008,437.4803997424179 L 175.47745348508712,445.0054132701903 L 182.33840529794406,462.50834127106395 L 164.8354772970704,455.647389458207 L 157.31046376929802,472.87525409050994 L 149.78545024152564,455.647389458207 L 132.28252224065199,462.50834127106395 L 139.14347405350892,445.0054132701903 L 121.91560942120597,437.4803997424179 L 139.14347405350892,429.9553862146455 L 132.28252224065199,412.4524582137718 L 149.78545024152564,419.3134100266288 Z" fill="none" stroke="#0F52BA" stroke-width="2.473263920272358" /><path d="M 235.96569565394702,402.08554539432583 L 243.4907091817194,419.3134100266288 L 260.9936371825931,412.4524582137718 L 254.13268536973612,429.9553862146455 L 271.3605500020391,437.4803997424179 L 254.13268536973612,445.0054132701903 L 260.9936371825931,462.50834127106395 L 243.4907091817194,455.647389458207 L 235.96569565394702,472.87525409050994 L 228.44068212617464,455.647389458207 L 210.93775412530098,462.50834127106395 L 217.79870593815792,445.0054132701903 L 200.57084130585497,437.4803997424179 L 217.79870593815792,429.9553862146455 L 210.93775412530096,412.4524582137718 L 228.44068212617464,419.3134100266288 Z" fill="none" stroke="#0F52BA" stroke-width="2.473263920272358" /><path d="M 314.62092753859605,402.08554539432583 L 322.14594106636844,419.3134100266288 L 339.6488690672421,412.4524582137718 L 332.78791725438515,429.9553862146455 L 350.0157818866881,437.4803997424179 L 332.78791725438515,445.0054132701903 L 339.6488690672421,462.50834127106395 L 322.14594106636844,455.647389458207 L 314.62092753859605,472.87525409050994 L 307.09591401082366,455.647389458207 L 289.59298600995,462.50834127106395 L 296.45393782280695,445.0054132701903 L 279.226073190504,437.4803997424179 L 296.45393782280695,429.9553862146455 L 289.59298600995,412.4524582137718 L 307.09591401082366,419.3134100266288 Z" fill="none" stroke="#0F52BA" stroke-width="2.473263920272358" /><path d="M 393.2761594232451,402.08554539432583 L 400.80117295101746,419.3134100266288 L 418.30410095189114,412.4524582137718 L 411.4431491390342,429.9553862146455 L 428.67101377133713,437.4803997424179 L 411.4431491390342,445.0054132701903 L 418.30410095189114,462.50834127106395 L 400.80117295101746,455.647389458207 L 393.2761594232451,472.87525409050994 L 385.7511458954727,455.647389458207 L 368.248217894599,462.50834127106395 L 375.109169707456,445.0054132701903 L 357.881305075153,437.4803997424179 L 375.109169707456,429.9553862146455 L 368.248217894599,412.4524582137718 L 385.7511458954727,419.3134100266288 Z" fill="none" stroke="#0F52BA" stroke-width="2.473263920272358" /><path d="M 471.93139130789405,402.08554539432583 L 479.45640483566643,419.3134100266288 L 496.9593328365401,412.4524582137718 L 490.09838102368315,429.9553862146455 L 507.3262456559861,437.4803997424179 L 490.09838102368315,445.0054132701903 L 496.9593328365401,462.50834127106395 L 479.45640483566643,455.647389458207 L 471.93139130789405,472.87525409050994 L 464.40637778012166,455.647389458207 L 446.903449779248,462.50834127106395 L 453.76440159210495,445.0054132701903 L 436.536536959802,437.4803997424179 L 453.76440159210495,429.9553862146455 L 446.903449779248,412.4524582137718 L 464.40637778012166,419.3134100266288 Z" fill="none" stroke="#0F52BA" stroke-width="2.473263920272358" /><path d="M 550.5866231925431,402.08554539432583 L 558.1116367203155,419.3134100266288 L 575.6145647211891,412.4524582137718 L 568.7536129083322,429.9553862146455 L 585.9814775406352,437.4803997424179 L 568.7536129083322,445.0054132701903 L 575.6145647211891,462.50834127106395 L 558.1116367203155,455.647389458207 L 550.5866231925431,472.87525409050994 L 543.0616096647708,455.647389458207 L 525.5586816638971,462.50834127106395 L 532.419633476754,445.0054132701903 L 515.1917688444511,437.4803997424179 L 532.419633476754,429.9553862146455 L 525.5586816638971,412.4524582137718 L 543.0616096647707,419.3134100266288 Z" fill="none" stroke="#0F52BA" stroke-width="2.473263920272358" /><path d="M -39.327615942324506,470.2009762064318 L -31.802602414552123,487.42884083873474 L -14.299674413678456,480.5678890258778 L -21.16062622653541,498.07081702675146 L -3.9327615942324528,505.59583055452384 L -21.16062622653541,513.1208440822962 L -14.299674413678456,530.6237720831699 L -31.802602414552123,523.7628202703129 L -39.327615942324506,540.9906849026158 L -46.852629470096886,523.7628202703129 L -64.35555747097055,530.6237720831699 L -57.4946056581136,513.1208440822962 L -74.72247029041657,505.59583055452384 L -57.4946056581136,498.07081702675146 L -64.35555747097055,480.5678890258778 L -46.8526294700969,487.42884083873474 Z" fill="none" stroke="#0F52BA" stroke-width="2.473263920272358" /><path d="M 39.327615942324506,470.2009762064318 L 46.85262947009689,487.42884083873474 L 64.35555747097055,480.5678890258778 L 57.4946056581136,498.07081702675146 L 74.72247029041657,505.59583055452384 L 57.4946056581136,513.1208440822962 L 64.35555747097055,530.6237720831699 L 46.85262947009689,523.7628202703129 L 39.327615942324506,540.9906849026158 L 31.802602414552123,523.7628202703129 L 14.29967441367846,530.6237720831699 L 21.160626226535413,513.1208440822962 L 3.9327615942324528,505.59583055452384 L 21.160626226535413,498.07081702675146 L 14.299674413678453,480.5678890258778 L 31.802602414552112,487.42884083873474 Z" fill="none" stroke="#0F52BA" stroke-width="2.473263920272358" /><path d="M 117.98284782697351,470.2009762064318 L 125.5078613547459,487.42884083873474 L 143.01078935561955,480.5678890258778 L 136.1498375427626,498.07081702675146 L 153.37770217506556,505.59583055452384 L 136.1498375427626,513.1208440822962 L 143.01078935561955,530.6237720831699 L 125.5078613547459,523.7628202703129 L 117.98284782697351,540.9906849026158 L 110.45783429920112,523.7628202703129 L 92.95490629832747,530.6237720831699 L 99.81585811118441,513.1208440822962 L 82.58799347888146,505.59583055452384 L 99.81585811118441,498.07081702675146 L 92.95490629832746,480.5678890258778 L 110.45783429920112,487.42884083873474 Z" fill="none" stroke="#0F52BA" stroke-width="2.473263920272358" /><path d="M 196.6380797116225,470.2009762064318 L 204.1630932393949,487.42884083873474 L 221.66602124026855,480.5678890258778 L 214.8050694274116,498.07081702675146 L 232.03293405971456,505.59583055452384 L 214.8050694274116,513.1208440822962 L 221.66602124026855,530.6237720831699 L 204.1630932393949,523.7628202703129 L 196.6380797116225,540.9906849026158 L 189.11306618385012,523.7628202703129 L 171.61013818297647,530.6237720831699 L 178.4710899958334,513.1208440822962 L 161.24322536353046,505.59583055452384 L 178.4710899958334,498.07081702675146 L 171.61013818297647,480.5678890258778 L 189.11306618385012,487.42884083873474 Z" fill="none" stroke="#0F52BA" stroke-width="2.473263920272358" /><path d="M 275.29331159627156,470.2009762064318 L 282.81832512404395,487.42884083873474 L 300.32125312491763,480.5678890258778 L 293.46030131206066,498.07081702675146 L 310.6881659443636,505.59583055452384 L 293.46030131206066,513.1208440822962 L 300.32125312491763,530.6237720831699 L 282.81832512404395,523.7628202703129 L 275.29331159627156,540.9906849026158 L 267.7682980684992,523.7628202703129 L 250.26537006762553,530.6237720831699 L 257.12632188048246,513.1208440822962 L 239.8984572481795,505.59583055452384 L 257.12632188048246,498.07081702675146 L 250.2653700676255,480.5678890258778 L 267.7682980684992,487.42884083873474 Z" fill="none" stroke="#0F52BA" stroke-width="2.473263920272358" /><path d="M 353.9485434809206,470.2009762064318 L 361.473557008693,487.42884083873474 L 378.97648500956666,480.5678890258778 L 372.1155331967097,498.07081702675146 L 389.34339782901264,505.59583055452384 L 372.1155331967097,513.1208440822962 L 378.97648500956666,530.6237720831699 L 361.473557008693,523.7628202703129 L 353.9485434809206,540.9906849026158 L 346.4235299531482,523.7628202703129 L 328.9206019522745,530.6237720831699 L 335.7815537651315,513.1208440822962 L 318.55368913282854,505.59583055452384 L 335.7815537651315,498.07081702675146 L 328.9206019522745,480.5678890258778 L 346.4235299531482,487.42884083873474 Z" fill="none" stroke="#0F52BA" stroke-width="2.473263920272358" /><path d="M 432.60377536556956,470.2009762064318 L 440.12878889334195,487.42884083873474 L 457.63171689421563,480.5678890258778 L 450.77076508135866,498.07081702675146 L 467.9986297136616,505.59583055452384 L 450.77076508135866,513.1208440822962 L 457.63171689421563,530.6237720831699 L 440.12878889334195,523.7628202703129 L 432.60377536556956,540.9906849026158 L 425.0787618377972,523.7628202703129 L 407.5758338369235,530.6237720831699 L 414.43678564978046,513.1208440822962 L 397.2089210174775,505.59583055452384 L 414.43678564978046,498.07081702675146 L 407.5758338369235,480.5678890258778 L 425.0787618377972,487.42884083873474 Z" fill="none" stroke="#0F52BA" stroke-width="2.473263920272358" /><path d="M 511.25900725021864,470.2009762064318 L 518.784020777991,487.42884083873474 L 536.2869487788647,480.5678890258778 L 529.4259969660077,498.07081702675146 L 546.6538615983106,505.59583055452384 L 529.4259969660077,513.1208440822962 L 536.2869487788647,530.6237720831699 L 518.784020777991,523.7628202703129 L 511.25900725021864,540.9906849026158 L 503.73399372244626,523.7628202703129 L 486.2310657215726,530.6237720831699 L 493.09201753442954,513.1208440822962 L 475.8641529021266,505.59583055452384 L 493.09201753442954,498.07081702675146 L 486.2310657215726,480.5678890258778 L 503.73399372244626,487.42884083873474 Z" fill="none" stroke="#0F52BA" stroke-width="2.473263920272358" /><path d="M 589.9142391348676,470.2009762064318 L 597.4392526626399,487.42884083873474 L 614.9421806635136,480.5678890258778 L 608.0812288506567,498.07081702675146 L 625.3090934829596,505.59583055452384 L 608.0812288506567,513.1208440822962 L 614.9421806635136,530.6237720831699 L 597.4392526626399,523.7628202703129 L 589.9142391348676,540.9906849026158 L 582.3892256070952,523.7628202703129 L 564.8862976062215,530.6237720831699 L 571.7472494190785,513.1208440822962 L 554.5193847867755,505.59583055452384 L 571.7472494190785,498.07081702675146 L 564.8862976062215,480.5678890258778 L 582.3892256070951,487.42884083873474 Z" fill="none" stroke="#0F52BA" stroke-width="2.473263920272358" /><line x1="35.39485434809205" y1="28.787814869781535" x2="43.26037753655696" y2="28.787814869781535" stroke="#0F52BA" stroke-width="0.5"/><line x1="114.05008623274107" y1="28.787814869781535" x2="121.91560942120597" y2="28.787814869781535" stroke="#0F52BA" stroke-width="0.5"/><line x1="192.70531811739008" y1="28.787814869781535" x2="200.57084130585497" y2="28.787814869781535" stroke="#0F52BA" stroke-width="0.5"/><line x1="271.3605500020391" y1="28.787814869781535" x2="279.226073190504" y2="28.787814869781535" stroke="#0F52BA" stroke-width="0.5"/><line x1="350.0157818866881" y1="28.787814869781535" x2="357.881305075153" y2="28.787814869781535" stroke="#0F52BA" stroke-width="0.5"/><line x1="428.67101377133713" y1="28.787814869781535" x2="436.536536959802" y2="28.787814869781535" stroke="#0F52BA" stroke-width="0.5"/><line x1="74.72247029041657" y1="96.90324568188757" x2="82.58799347888146" y2="96.90324568188757" stroke="#0F52BA" stroke-width="0.5"/><line x1="153.37770217506556" y1="96.90324568188757" x2="161.24322536353046" y2="96.90324568188757" stroke="#0F52BA" stroke-width="0.5"/><line x1="232.03293405971456" y1="96.90324568188757" x2="239.8984572481795" y2="96.90324568188757" stroke="#0F52BA" stroke-width="0.5"/><line x1="310.6881659443636" y1="96.90324568188757" x2="318.55368913282854" y2="96.90324568188757" stroke="#0F52BA" stroke-width="0.5"/><line x1="389.34339782901264" y1="96.90324568188757" x2="397.2089210174775" y2="96.90324568188757" stroke="#0F52BA" stroke-width="0.5"/><line x1="467.9986297136616" y1="96.90324568188757" x2="475.8641529021266" y2="96.90324568188757" stroke="#0F52BA" stroke-width="0.5"/><line x1="35.39485434809205" y1="165.0186764939936" x2="43.26037753655696" y2="165.0186764939936" stroke="#0F52BA" stroke-width="0.5"/><line x1="114.05008623274107" y1="165.0186764939936" x2="121.91560942120597" y2="165.0186764939936" stroke="#0F52BA" stroke-width="0.5"/><line x1="192.70531811739008" y1="165.0186764939936" x2="200.57084130585497" y2="165.0186764939936" stroke="#0F52BA" stroke-width="0.5"/><line x1="271.3605500020391" y1="165.0186764939936" x2="279.226073190504" y2="165.0186764939936" stroke="#0F52BA" stroke-width="0.5"/><line x1="350.0157818866881" y1="165.0186764939936" x2="357.881305075153" y2="165.0186764939936" stroke="#0F52BA" stroke-width="0.5"/><line x1="428.67101377133713" y1="165.0186764939936" x2="436.536536959802" y2="165.0186764939936" stroke="#0F52BA" stroke-width="0.5"/><line x1="74.72247029041657" y1="233.13410730609965" x2="82.58799347888146" y2="233.13410730609965" stroke="#0F52BA" stroke-width="0.5"/><line x1="153.37770217506556" y1="233.13410730609965" x2="161.24322536353046" y2="233.13410730609965" stroke="#0F52BA" stroke-width="0.5"/><line x1="232.03293405971456" y1="233.13410730609965" x2="239.8984572481795" y2="233.13410730609965" stroke="#0F52BA" stroke-width="0.5"/><line x1="310.6881659443636" y1="233.13410730609965" x2="318.55368913282854" y2="233.13410730609965" stroke="#0F52BA" stroke-width="0.5"/><line x1="389.34339782901264" y1="233.13410730609965" x2="397.2089210174775" y2="233.13410730609965" stroke="#0F52BA" stroke-width="0.5"/><line x1="467.9986297136616" y1="233.13410730609965" x2="475.8641529021266" y2="233.13410730609965" stroke="#0F52BA" stroke-width="0.5"/><line x1="35.39485434809205" y1="301.24953811820575" x2="43.26037753655696" y2="301.24953811820575" stroke="#0F52BA" stroke-width="0.5"/><line x1="114.05008623274107" y1="301.24953811820575" x2="121.91560942120597" y2="301.24953811820575" stroke="#0F52BA" stroke-width="0.5"/><line x1="192.70531811739008" y1="301.24953811820575" x2="200.57084130585497" y2="301.24953811820575" stroke="#0F52BA" stroke-width="0.5"/><line x1="271.3605500020391" y1="301.24953811820575" x2="279.226073190504" y2="301.24953811820575" stroke="#0F52BA" stroke-width="0.5"/><line x1="350.0157818866881" y1="301.24953811820575" x2="357.881305075153" y2="301.24953811820575" stroke="#0F52BA" stroke-width="0.5"/><line x1="428.67101377133713" y1="301.24953811820575" x2="436.536536959802" y2="301.24953811820575" stroke="#0F52BA" stroke-width="0.5"/><line x1="74.72247029041657" y1="369.36496893031176" x2="82.58799347888146" y2="369.36496893031176" stroke="#0F52BA" stroke-width="0.5"/><line x1="153.37770217506556" y1="369.36496893031176" x2="161.24322536353046" y2="369.36496893031176" stroke="#0F52BA" stroke-width="0.5"/><line x1="232.03293405971456" y1="369.36496893031176" x2="239.8984572481795" y2="369.36496893031176" stroke="#0F52BA" stroke-width="0.5"/><line x1="310.6881659443636" y1="369.36496893031176" x2="318.55368913282854" y2="369.36496893031176" stroke="#0F52BA" stroke-width="0.5"/><line x1="389.34339782901264" y1="369.36496893031176" x2="397.2089210174775" y2="369.36496893031176" stroke="#0F52BA" stroke-width="0.5"/><line x1="467.9986297136616" y1="369.36496893031176" x2="475.8641529021266" y2="369.36496893031176" stroke="#0F52BA" stroke-width="0.5"/><line x1="35.39485434809205" y1="437.4803997424179" x2="43.26037753655696" y2="437.4803997424179" stroke="#0F52BA" stroke-width="0.5"/><line x1="114.05008623274107" y1="437.4803997424179" x2="121.91560942120597" y2="437.4803997424179" stroke="#0F52BA" stroke-width="0.5"/><line x1="192.70531811739008" y1="437.4803997424179" x2="200.57084130585497" y2="437.4803997424179" stroke="#0F52BA" stroke-width="0.5"/><line x1="271.3605500020391" y1="437.4803997424179" x2="279.226073190504" y2="437.4803997424179" stroke="#0F52BA" stroke-width="0.5"/><line x1="350.0157818866881" y1="437.4803997424179" x2="357.881305075153" y2="437.4803997424179" stroke="#0F52BA" stroke-width="0.5"/><line x1="428.67101377133713" y1="437.4803997424179" x2="436.536536959802" y2="437.4803997424179" stroke="#0F52BA" stroke-width="0.5"/><line x1="74.72247029041657" y1="505.59583055452384" x2="82.58799347888146" y2="505.59583055452384" stroke="#0F52BA" stroke-width="0.5"/><line x1="153.37770217506556" y1="505.59583055452384" x2="161.24322536353046" y2="505.59583055452384" stroke="#0F52BA" stroke-width="0.5"/><line x1="232.03293405971456" y1="505.59583055452384" x2="239.8984572481795" y2="505.59583055452384" stroke="#0F52BA" stroke-width="0.5"/><line x1="310.6881659443636" y1="505.59583055452384" x2="318.55368913282854" y2="505.59583055452384" stroke="#0F52BA" stroke-width="0.5"/><line x1="389.34339782901264" y1="505.59583055452384" x2="397.2089210174775" y2="505.59583055452384" stroke="#0F52BA" stroke-width="0.5"/><line x1="467.9986297136616" y1="505.59583055452384" x2="475.8641529021266" y2="505.59583055452384" stroke="#0F52BA" stroke-width="0.5"/></g></svg>