<svg xmlns="http://www.w3.org/2000/svg" width="512" height="512" viewBox="0 0 512 512"><rect x="0" y="0" width="512" height="512" fill="#000000"/><g opacity="0.10994295480658438"><path d="M -38.05243840363718,-72.29963296691065 L -30.771419534554663,-55.63037290527061 L -13.836014891331448,-62.268861915942914 L -20.474503902003754,-45.3334572727197 L -3.8052438403637154,-38.05243840363718 L -20.474503902003754,-30.771419534554667 L -13.836014891331448,-13.836014891331452 L -30.771419534554663,-20.474503902003754 L -38.05243840363718,-3.8052438403637154 L -45.3334572727197,-20.474503902003754 L -62.268861915942914,-13.836014891331448 L -55.630372905270605,-30.771419534554656 L -72.29963296691065,-38.052438403637176 L -55.630372905270605,-45.333457272719706 L -62.26886191594292,-62.268861915942914 L -45.33345727271971,-55.630372905270605 Z" fill="none" stroke="#FFFFFF" stroke-width="2.4813925037073865" /><path d="M 38.05243840363718,-72.29963296691065 L 45.3334572727197,-55.63037290527061 L 62.26886191594292,-62.268861915942914 L 55.63037290527061,-45.3334572727197 L 72.29963296691065,-38.05243840363718 L 55.63037290527061,-30.771419534554667 L 62.26886191594292,-13.836014891331452 L 45.3334572727197,-20.474503902003754 L 38.05243840363718,-3.8052438403637154 L 30.771419534554667,-20.474503902003754 L 13.836014891331452,-13.836014891331448 L 20.47450390200376,-30.771419534554656 L 3.8052438403637154,-38.052438403637176 L 20.474503902003757,-45.333457272719706 L 13.836014891331445,-62.268861915942914 L 30.771419534554653,-55.630372905270605 Z" fill="none" stroke="#FFFFFF" stroke-width="2.4813925037073865" /><path d="M 114.15731521091155,-72.29963296691065 L 121.43833407999406,-55.63037290527061 L 138.3737387232173,-62.268861915942914 L 131.73524971254497,-45.3334572727197 L 148.40450977418502,-38.05243840363718 L 131.73524971254497,-30.771419534554667 L 138.3737387232173,-13.836014891331452 L 121.43833407999406,-20.474503902003754 L 114.15731521091155,-3.8052438403637154 L 106.87629634182903,-20.474503902003754 L 89.94089169860581,-13.836014891331448 L 96.57938070927813,-30.771419534554656 L 79.91012064763808,-38.052438403637176 L 96.57938070927813,-45.333457272719706 L 89.94089169860581,-62.268861915942914 L 106.87629634182902,-55.630372905270605 Z" fill="none" stroke="#FFFFFF" stroke-width="2.4813925037073865" /><path d="M 190.2621920181859,-72.29963296691065 L 197.54321088726843,-55.63037290527061 L 214.47861553049165,-62.268861915942914 L 207.84012651981934,-45.3334572727197 L 224.50938658145938,-38.05243840363718 L 207.84012651981934,-30.771419534554667 L 214.47861553049165,-13.836014891331452 L 197.54321088726843,-20.474503902003754 L 190.2621920181859,-3.8052438403637154 L 182.9811731491034,-20.474503902003754 L 166.04576850588018,-13.836014891331448 L 172.6842575165525,-30.771419534554656 L 156.01499745491245,-38.052438403637176 L 172.6842575165525,-45.333457272719706 L 166.04576850588018,-62.268861915942914 L 182.9811731491034,-55.630372905270605 Z" fill="none" stroke="#FFFFFF" stroke-width="2.4813925037073865" /><path d="M 266.36706882546025,-72.29963296691065 L 273.64808769454277,-55.63037290527061 L 290.58349233776596,-62.268861915942914 L 283.9450033270937,-45.3334572727197 L 300.6142633887337,-38.05243840363718 L 283.9450033270937,-30.771419534554667 L 290.58349233776596,-13.836014891331452 L 273.64808769454277,-20.474503902003754 L 266.36706882546025,-3.8052438403637154 L 259.08604995637774,-20.474503902003754 L 242.1506453131545,-13.836014891331448 L 248.78913432382683,-30.771419534554656 L 232.11987426218678,-38.052438403637176 L 248.78913432382683,-45.333457272719706 L 242.1506453131545,-62.268861915942914 L 259.08604995637774,-55.630372905270605 Z" fill="none" stroke="#FFFFFF" stroke-width="2.4813925037073865" /><path d="M 342.4719456327347,-72.29963296691065 L 349.7529645018172,-55.63037290527061 L 366.6883691450404,-62.268861915942914 L 360.0498801343681,-45.3334572727197 L 376.71914019600814,-38.05243840363718 L 360.0498801343681,-30.771419534554667 L 366.6883691450404,-13.836014891331452 L 349.7529645018172,-20.474503902003754 L 342.4719456327347,-3.8052438403637154 L 335.19092676365216,-20.474503902003754 L 318.25552212042896,-13.836014891331448 L 324.89401113110125,-30.771419534554656 L 308.2247510694612,-38.052438403637176 L 324.89401113110125,-45.333457272719706 L 318.25552212042896,-62.268861915942914 L 335.19092676365216,-55.630372905270605 Z" fill="none" stroke="#FFFFFF" stroke-width="2.4813925037073865" /><path d="M 418.576822440009,-72.29963296691065 L 425.8578413090915,-55.63037290527061 L 442.7932459523147,-62.268861915942914 L 436.1547569416424,-45.3334572727197 L 452.82401700328245,-38.05243840363718 L 436.1547569416424,-30.771419534554667 L 442.7932459523147,-13.836014891331452 L 425.8578413090915,-20.474503902003754 L 418.576822440009,-3.8052438403637154 L 411.29580357092647,-20.474503902003754 L 394.3603989277033,-13.836014891331448 L 400.99888793837556,-30.771419534554656 L 384.3296278767355,-38.052438403637176 L 400.99888793837556,-45.333457272719706 L 394.3603989277033,-62.268861915942914 L 411.29580357092647,-55.630372905270605 Z" fill="none" stroke="#FFFFFF" stroke-width="2.4813925037073865" /><path d="M 494.6816992472833,-72.29963296691065 L 501.9627181163658,-55.63037290527061 L 518.898122759589,-62.268861915942914 L 512.2596337489167,-45.3334572727197 L 528.9288938105567,-38.05243840363718 L 512.2596337489167,-30.771419534554667 L 518.898122759589,-13.836014891331452 L 501.9627181163658,-20.474503902003754 L 494.6816992472833,-3.8052438403637154 L 487.4006803782008,-20.474503902003754 L 470.4652757349776,-13.836014891331448 L 477.10376474564987,-30.771419534554656 L 460.4345046840098,-38.052438403637176 L 477.10376474564987,-45.333457272719706 L 470.4652757349776,-62.268861915942914 L 487.4006803782008,-55.630372905270605 Z" fill="none" stroke="#FFFFFF" stroke-width="2.4813925037073865" /><path d="M 570.7865760545577,-72.29963296691065 L 578.0675949236403,-55.63037290527061 L 595.0029995668634,-62.268861915942914 L 588.3645105561911,-45.3334572727197 L 605.0337706178311,-38.05243840363718 L 588.3645105561911,-30.771419534554667 L 595.0029995668634,-13.836014891331452 L 578.0675949236403,-20.474503902003754 L 570.7865760545577,-3.8052438403637154 L 563.5055571854751,-20.474503902003754 L 546.570152542252,-13.836014891331448 L 553.2086415529243,-30.771419534554656 L 536.5393814912843,-38.052438403637176 L 553.2086415529243,-45.333457272719706 L 546.570152542252,-62.268861915942914 L 563.5055571854751,-55.630372905270605 Z" fill="none" stroke="#FFFFFF" stroke-width="2.4813925037073865" /><path d="M 2.0970358600844746e-15,-6.392809651811049 L 7.281018869082518,10.276450409828989 L 24.216423512305735,3.637961399156687 L 17.57793450163343,20.573366042379902 L 34.24719456327347,27.854384911462418 L 17.57793450163343,35.135403780544934 L 24.216423512305735,52.07080842376815 L 7.281018869082518,45.43231941309585 L 2.0970358600844746e-15,62.101579474735885 L -7.281018869082517,45.43231941309585 L -24.21642351230573,52.070808423768156 L -17.577934501633422,35.13540378054495 L -34.24719456327347,27.85438491146242 L -17.577934501633425,20.573366042379895 L -24.216423512305738,3.637961399156687 L -7.281018869082528,10.276450409828996 Z" fill="none" stroke="#FFFFFF" stroke-width="2.4813925037073865" /><path d="M 76.10487680727437,-6.392809651811049 L 83.38589567635688,10.276450409828989 L 100.3213003195801,3.637961399156687 L 93.68281130890779,20.573366042379902 L 110.35207137054783,27.854384911462418 L 93.68281130890779,35.135403780544934 L 100.3213003195801,52.07080842376815 L 83.38589567635688,45.43231941309585 L 76.10487680727437,62.101579474735885 L 68.82385793819185,45.43231941309585 L 51.888453294968635,52.070808423768156 L 58.526942305640944,35.13540378054495 L 41.8576822440009,27.85438491146242 L 58.526942305640944,20.573366042379895 L 51.88845329496863,3.637961399156687 L 68.82385793819184,10.276450409828996 Z" fill="none" stroke="#FFFFFF" stroke-width="2.4813925037073865" /><path d="M 152.20975361454873,-6.392809651811049 L 159.49077248363125,10.276450409828989 L 176.42617712685447,3.637961399156687 L 169.78768811618215,20.573366042379902 L 186.4569481778222,27.854384911462418 L 169.78768811618215,35.135403780544934 L 176.42617712685447,52.07080842376815 L 159.49077248363125,45.43231941309585 L 152.20975361454873,62.101579474735885 L 144.92873474546622,45.43231941309585 L 127.993330102243,52.070808423768156 L 134.6318191129153,35.13540378054495 L 117.96255905127526,27.85438491146242 L 134.6318191129153,20.573366042379895 L 127.993330102243,3.637961399156687 L 144.92873474546622,10.276450409828996 Z" fill="none" stroke="#FFFFFF" stroke-width="2.4813925037073865" /><path d="M 228.3146304218231,-6.392809651811049 L 235.5956492909056,10.276450409828989 L 252.53105393412883,3.637961399156687 L 245.89256492345652,20.573366042379902 L 262.56182498509656,27.854384911462418 L 245.89256492345652,35.135403780544934 L 252.53105393412883,52.07080842376815 L 235.5956492909056,45.43231941309585 L 228.3146304218231,62.101579474735885 L 221.03361155274058,45.43231941309585 L 204.09820690951736,52.070808423768156 L 210.73669592018967,35.13540378054495 L 194.06743585854963,27.85438491146242 L 210.73669592018967,20.573366042379895 L 204.09820690951736,3.637961399156687 L 221.03361155274058,10.276450409828996 Z" fill="none" stroke="#FFFFFF" stroke-width="2.4813925037073865" /><path d="M 304.41950722909746,-6.392809651811049 L 311.70052609818,10.276450409828989 L 328.6359307414032,3.637961399156687 L 321.9974417307309,20.573366042379902 L 338.66670179237093,27.854384911462418 L 321.9974417307309,35.135403780544934 L 328.6359307414032,52.07080842376815 L 311.70052609818,45.43231941309585 L 304.41950722909746,62.101579474735885 L 297.13848836001495,45.43231941309585 L 280.20308371679175,52.070808423768156 L 286.84157272746404,35.13540378054495 L 270.172312665824,27.85438491146242 L 286.84157272746404,20.573366042379895 L 280.20308371679175,3.637961399156687 L 297.13848836001495,10.276450409828996 Z" fill="none" stroke="#FFFFFF" stroke-width="2.4813925037073865" /><path d="M 380.5243840363719,-6.392809651811049 L 387.8054029054544,10.276450409828989 L 404.7408075486776,3.637961399156687 L 398.1023185380053,20.573366042379902 L 414.77157859964535,27.854384911462418 L 398.1023185380053,35.135403780544934 L 404.7408075486776,52.07080842376815 L 387.8054029054544,45.43231941309585 L 380.5243840363719,62.101579474735885 L 373.24336516728937,45.43231941309585 L 356.3079605240662,52.070808423768156 L 362.94644953473846,35.13540378054495 L 346.2771894730984,27.85438491146242 L 362.94644953473846,20.573366042379895 L 356.3079605240662,3.637961399156687 L 373.24336516728937,10.276450409828996 Z" fill="none" stroke="#FFFFFF" stroke-width="2.4813925037073865" /><path d="M 456.6292608436462,-6.392809651811049 L 463.9102797127287,10.276450409828989 L 480.8456843559519,3.637961399156687 L 474.2071953452796,20.573366042379902 L 490.87645540691966,27.854384911462418 L 474.2071953452796,35.135403780544934 L 480.8456843559519,52.07080842376815 L 463.9102797127287,45.43231941309585 L 456.6292608436462,62.101579474735885 L 449.3482419745637,45.43231941309585 L 432.4128373313405,52.070808423768156 L 439.05132634201277,35.13540378054495 L 422.3820662803727,27.85438491146242 L 439.05132634201277,20.573366042379895 L 432.4128373313405,3.637961399156687 L 449.3482419745637,10.276450409828996 Z" fill="none" stroke="#FFFFFF" stroke-width="2.4813925037073865" /><path d="M 532.7341376509205,-6.392809651811049 L 540.0151565200031,10.276450409828989 L 556.9505611632262,3.637961399156687 L 550.3120721525539,20.573366042379902 L 566.981332214194,27.854384911462418 L 550.3120721525539,35.135403780544934 L 556.9505611632262,52.07080842376815 L 540.0151565200031,45.43231941309585 L 532.7341376509205,62.101579474735885 L 525.4531187818379,45.43231941309585 L 508.5177141386148,52.070808423768156 L 515.1562031492871,35.13540378054495 L 498.48694308764703,27.85438491146242 L 515.1562031492871,20.573366042379895 L 508.5177141386148,3.637961399156687 L 525.4531187818379,10.276450409828996 Z" fill="none" stroke="#FFFFFF" stroke-width="2.4813925037073865" /><path d="M -38.05243840363718,59.51401366328855 L -30.771419534554663,76.1832737249286 L -13.836014891331448,69.54478471425628 L -20.474503902003754,86.4801893574795 L -3.8052438403637154,93.76120822656202 L -20.474503902003754,101.04222709564453 L -13.836014891331448,117.97763173886776 L -30.771419534554663,111.33914272819544 L -38.05243840363718,128.0084027898355 L -45.3334572727197,111.33914272819544 L -62.268861915942914,117.97763173886776 L -55.630372905270605,101.04222709564455 L -72.29963296691065,93.76120822656202 L -55.630372905270605,86.4801893574795 L -62.26886191594292,69.54478471425628 L -45.33345727271971,76.1832737249286 Z" fill="none" stroke="#FFFFFF" stroke-width="2.4813925037073865" /><path d="M 38.05243840363718,59.51401366328855 L 45.3334572727197,76.1832737249286 L 62.26886191594292,69.54478471425628 L 55.63037290527061,86.4801893574795 L 72.29963296691065,93.76120822656202 L 55.63037290527061,101.04222709564453 L 62.26886191594292,117.97763173886776 L 45.3334572727197,111.33914272819544 L 38.05243840363718,128.0084027898355 L 30.771419534554667,111.33914272819544 L 13.836014891331452,117.97763173886776 L 20.47450390200376,101.04222709564455 L 3.8052438403637154,93.76120822656202 L 20.474503902003757,86.4801893574795 L 13.836014891331445,69.54478471425628 L 30.771419534554653,76.1832737249286 Z" fill="none" stroke="#FFFFFF" stroke-width="2.4813925037073865" /><path d="M 114.15731521091155,59.51401366328855 L 121.43833407999406,76.1832737249286 L 138.3737387232173,69.54478471425628 L 131.73524971254497,86.4801893574795 L 148.40450977418502,93.76120822656202 L 131.73524971254497,101.04222709564453 L 138.3737387232173,117.97763173886776 L 121.43833407999406,111.33914272819544 L 114.15731521091155,128.0084027898355 L 106.87629634182903,111.33914272819544 L 89.94089169860581,117.97763173886776 L 96.57938070927813,101.04222709564455 L 79.91012064763808,93.76120822656202 L 96.57938070927813,86.4801893574795 L 89.94089169860581,69.54478471425628 L 106.87629634182902,76.1832737249286 Z" fill="none" stroke="#FFFFFF" stroke-width="2.4813925037073865" /><path d="M 190.2621920181859,59.51401366328855 L 197.54321088726843,76.1832737249286 L 214.47861553049165,69.54478471425628 L 207.84012651981934,86.4801893574795 L 224.50938658145938,93.76120822656202 L 207.84012651981934,101.04222709564453 L 214.47861553049165,117.97763173886776 L 197.54321088726843,111.33914272819544 L 190.2621920181859,128.0084027898355 L 182.9811731491034,111.33914272819544 L 166.04576850588018,117.97763173886776 L 172.6842575165525,101.04222709564455 L 156.01499745491245,93.76120822656202 L 172.6842575165525,86.4801893574795 L 166.04576850588018,69.54478471425628 L 182.9811731491034,76.1832737249286 Z" fill="none" stroke="#FFFFFF" stroke-width="2.4813925037073865" /><path d="M 266.36706882546025,59.51401366328855 L 273.64808769454277,76.1832737249286 L 290.58349233776596,69.54478471425628 L 283.9450033270937,86.4801893574795 L 300.6142633887337,93.76120822656202 L 283.9450033270937,101.04222709564453 L 290.58349233776596,117.97763173886776 L 273.64808769454277,111.33914272819544 L 266.36706882546025,128.0084027898355 L 259.08604995637774,111.33914272819544 L 242.1506453131545,117.97763173886776 L 248.78913432382683,101.04222709564455 L 232.11987426218678,93.76120822656202 L 248.78913432382683,86.4801893574795 L 242.1506453131545,69.54478471425628 L 259.08604995637774,76.1832737249286 Z" fill="none" stroke="#FFFFFF" stroke-width="2.4813925037073865" /><path d="M 342.4719456327347,59.51401366328855 L 349.7529645018172,76.1832737249286 L 366.6883691450404,69.54478471425628 L 360.0498801343681,86.4801893574795 L 376.71914019600814,93.76120822656202 L 360.0498801343681,101.04222709564453 L 366.6883691450404,117.97763173886776 L 349.7529645018172,111.33914272819544 L 342.4719456327347,128.0084027898355 L 335.19092676365216,111.33914272819544 L 318.25552212042896,117.97763173886776 L 324.89401113110125,101.04222709564455 L 308.2247510694612,93.76120822656202 L 324.89401113110125,86.4801893574795 L 318.25552212042896,69.54478471425628 L 335.19092676365216,76.1832737249286 Z" fill="none" stroke="#FFFFFF" stroke-width="2.4813925037073865" /><path d="M 418.576822440009,59.51401366328855 L 425.8578413090915,76.1832737249286 L 442.7932459523147,69.54478471425628 L 436.1547569416424,86.4801893574795 L 452.82401700328245,93.76120822656202 L 436.1547569416424,101.04222709564453 L 442.7932459523147,117.97763173886776 L 425.8578413090915,111.33914272819544 L 418.576822440009,128.0084027898355 L 411.29580357092647,111.33914272819544 L 394.3603989277033,117.97763173886776 L 400.99888793837556,101.04222709564455 L 384.3296278767355,93.76120822656202 L 400.99888793837556,86.4801893574795 L 394.3603989277033,69.54478471425628 L 411.29580357092647,76.1832737249286 Z" fill="none" stroke="#FFFFFF" stroke-width="2.4813925037073865" /><path d="M 494.6816992472833,59.51401366328855 L 501.9627181163658,76.1832737249286 L 518.898122759589,69.54478471425628 L 512.2596337489167,86.4801893574795 L 528.9288938105567,93.76120822656202 L 512.2596337489167,101.04222709564453 L 518.898122759589,117.97763173886776 L 501.9627181163658,111.33914272819544 L 494.6816992472833,128.0084027898355 L 487.4006803782008,111.33914272819544 L 470.4652757349776,117.97763173886776 L 477.10376474564987,101.04222709564455 L 460.4345046840098,93.76120822656202 L 477.10376474564987,86.4801893574795 L 470.4652757349776,69.54478471425628 L 487.4006803782008,76.1832737249286 Z" fill="none" stroke="#FFFFFF" stroke-width="2.4813925037073865" /><path d="M 570.7865760545577,59.51401366328855 L 578.0675949236403,76.1832737249286 L 595.0029995668634,69.54478471425628 L 588.3645105561911,86.4801893574795 L 605.0337706178311,93.76120822656202 L 588.3645105561911,101.04222709564453 L 595.0029995668634,117.97763173886776 L 578.0675949236403,111.33914272819544 L 570.7865760545577,128.0084027898355 L 563.5055571854751,111.33914272819544 L 546.570152542252,117.97763173886776 L 553.2086415529243,101.04222709564455 L 536.5393814912843,93.76120822656202 L 553.2086415529243,86.4801893574795 L 546.570152542252,69.54478471425628 L 563.5055571854751,76.1832737249286 Z" fill="none" stroke="#FFFFFF" stroke-width="2.4813925037073865" /><path d="M 2.0970358600844746e-15,125.42083697838814 L 7.281018869082518,142.09009704002818 L 24.216423512305735,135.45160802935587 L 17.57793450163343,152.3870126725791 L 34.24719456327347,159.6680315416616 L 17.57793450163343,166.94905041074412 L 24.216423512305735,183.88445505396734 L 7.281018869082518,177.24596604329503 L 2.0970358600844746e-15,193.91522610493507 L -7.281018869082517,177.24596604329503 L -24.21642351230573,183.88445505396734 L -17.577934501633422,166.94905041074412 L -34.24719456327347,159.6680315416616 L -17.577934501633425,152.3870126725791 L -24.216423512305738,135.45160802935587 L -7.281018869082528,142.09009704002818 Z" fill="none" stroke="#FFFFFF" stroke-width="2.4813925037073865" /><path d="M 76.10487680727437,125.42083697838814 L 83.38589567635688,142.09009704002818 L 100.3213003195801,135.45160802935587 L 93.68281130890779,152.3870126725791 L 110.35207137054783,159.6680315416616 L 93.68281130890779,166.94905041074412 L 100.3213003195801,183.88445505396734 L 83.38589567635688,177.24596604329503 L 76.10487680727437,193.91522610493507 L 68.82385793819185,177.24596604329503 L 51.888453294968635,183.88445505396734 L 58.526942305640944,166.94905041074412 L 41.8576822440009,159.6680315416616 L 58.526942305640944,152.3870126725791 L 51.88845329496863,135.45160802935587 L 68.82385793819184,142.09009704002818 Z" fill="none" stroke="#FFFFFF" stroke-width="2.4813925037073865" /><path d="M 152.20975361454873,125.42083697838814 L 159.49077248363125,142.09009704002818 L 176.42617712685447,135.45160802935587 L 169.78768811618215,152.3870126725791 L 186.4569481778222,159.6680315416616 L 169.78768811618215,166.94905041074412 L 176.42617712685447,183.88445505396734 L 159.49077248363125,177.24596604329503 L 152.20975361454873,193.91522610493507 L 144.92873474546622,177.24596604329503 L 127.993330102243,183.88445505396734 L 134.6318191129153,166.94905041074412 L 117.96255905127526,159.6680315416616 L 134.6318191129153,152.3870126725791 L 127.993330102243,135.45160802935587 L 144.92873474546622,142.09009704002818 Z" fill="none" stroke="#FFFFFF" stroke-width="2.4813925037073865" /><path d="M 228.3146304218231,125.42083697838814 L 235.5956492909056,142.09009704002818 L 252.53105393412883,135.45160802935587 L 245.89256492345652,152.3870126725791 L 262.56182498509656,159.6680315416616 L 245.89256492345652,166.94905041074412 L 252.53105393412883,183.88445505396734 L 235.5956492909056,177.24596604329503 L 228.3146304218231,193.91522610493507 L 221.03361155274058,177.24596604329503 L 204.09820690951736,183.88445505396734 L 210.73669592018967,166.94905041074412 L 194.06743585854963,159.6680315416616 L 210.73669592018967,152.3870126725791 L 204.09820690951736,135.45160802935587 L 221.03361155274058,142.09009704002818 Z" fill="none" stroke="#FFFFFF" stroke-width="2.4813925037073865" /><path d="M 304.41950722909746,125.42083697838814 L 311.70052609818,142.09009704002818 L 328.6359307414032,135.45160802935587 L 321.9974417307309,152.3870126725791 L 338.66670179237093,159.6680315416616 L 321.9974417307309,166.94905041074412 L 328.6359307414032,183.88445505396734 L 311.70052609818,177.24596604329503 L 304.41950722909746,193.91522610493507 L 297.13848836001495,177.24596604329503 L 280.20308371679175,183.88445505396734 L 286.84157272746404,166.94905041074412 L 270.172312665824,159.6680315416616 L 286.84157272746404,152.3870126725791 L 280.20308371679175,135.45160802935587 L 297.13848836001495,142.09009704002818 Z" fill="none" stroke="#FFFFFF" stroke-width="2.4813925037073865" /><path d="M 380.5243840363719,125.42083697838814 L 387.8054029054544,142.09009704002818 L 404.7408075486776,135.45160802935587 L 398.1023185380053,152.3870126725791 L 414.77157859964535,159.6680315416616 L 398.1023185380053,166.94905041074412 L 404.7408075486776,183.88445505396734 L 387.8054029054544,177.24596604329503 L 380.5243840363719,193.91522610493507 L 373.24336516728937,177.24596604329503 L 356.3079605240662,183.88445505396734 L 362.94644953473846,166.94905041074412 L 346.2771894730984,159.6680315416616 L 362.94644953473846,152.3870126725791 L 356.3079605240662,135.45160802935587 L 373.24336516728937,142.09009704002818 Z" fill="none" stroke="#FFFFFF" stroke-width="2.4813925037073865" /><path d="M 456.6292608436462,125.42083697838814 L 463.9102797127287,142.09009704002818 L 480.8456843559519,135.45160802935587 L 474.2071953452796,152.3870126725791 L 490.87645540691966,159.6680315416616 L 474.2071953452796,166.94905041074412 L 480.8456843559519,183.88445505396734 L 463.9102797127287,177.24596604329503 L 456.6292608436462,193.91522610493507 L 449.3482419745637,177.24596604329503 L 432.4128373313405,183.88445505396734 L 439.05132634201277,166.94905041074412 L 422.3820662803727,159.6680315416616 L 439.05132634201277,152.3870126725791 L 432.4128373313405,135.45160802935587 L 449.3482419745637,142.09009704002818 Z" fill="none" stroke="#FFFFFF" stroke-width="2.4813925037073865" /><path d="M 532.7341376509205,125.42083697838814 L 540.0151565200031,142.09009704002818 L 556.9505611632262,135.45160802935587 L 550.3120721525539,152.3870126725791 L 566.981332214194,159.6680315416616 L 550.3120721525539,166.94905041074412 L 556.9505611632262,183.88445505396734 L 540.0151565200031,177.24596604329503 L 532.7341376509205,193.91522610493507 L 525.4531187818379,177.24596604329503 L 508.5177141386148,183.88445505396734 L 515.1562031492871,166.94905041074412 L 498.48694308764703,159.6680315416616 L 515.1562031492871,152.3870126725791 L 508.5177141386148,135.45160802935587 L 525.4531187818379,142.09009704002818 Z" fill="none" stroke="#FFFFFF" stroke-width="2.4813925037073865" /><path d="M -38.05243840363718,191.32766029348775 L -30.771419534554663,207.9969203551278 L -13.836014891331448,201.35843134445548 L -20.474503902003754,218.2938359876787 L -3.8052438403637154,225.57485485676122 L -20.474503902003754,232.85587372584374 L -13.836014891331448,249.79127836906696 L -30.771419534554663,243.15278935839464 L -38.05243840363718,259.82204942003466 L -45.3334572727197,243.15278935839464 L -62.268861915942914,249.79127836906696 L -55.630372905270605,232.85587372584374 L -72.29963296691065,225.57485485676122 L -55.630372905270605,218.2938359876787 L -62.26886191594292,201.35843134445548 L -45.33345727271971,207.9969203551278 Z" fill="none" stroke="#FFFFFF" stroke-width="2.4813925037073865" /><path d="M 38.05243840363718,191.32766029348775 L 45.3334572727197,207.9969203551278 L 62.26886191594292,201.35843134445548 L 55.63037290527061,218.2938359876787 L 72.29963296691065,225.57485485676122 L 55.63037290527061,232.85587372584374 L 62.26886191594292,249.79127836906696 L 45.3334572727197,243.15278935839464 L 38.05243840363718,259.82204942003466 L 30.771419534554667,243.15278935839464 L 13.836014891331452,249.79127836906696 L 20.47450390200376,232.85587372584374 L 3.8052438403637154,225.57485485676122 L 20.474503902003757,218.2938359876787 L 13.836014891331445,201.35843134445548 L 30.771419534554653,207.9969203551278 Z" fill="none" stroke="#FFFFFF" stroke-width="2.4813925037073865" /><path d="M 114.15731521091155,191.32766029348775 L 121.43833407999406,207.9969203551278 L 138.3737387232173,201.35843134445548 L 131.73524971254497,218.2938359876787 L 148.40450977418502,225.57485485676122 L 131.73524971254497,232.85587372584374 L 138.3737387232173,249.79127836906696 L 121.43833407999406,243.15278935839464 L 114.15731521091155,259.82204942003466 L 106.87629634182903,243.15278935839464 L 89.94089169860581,249.79127836906696 L 96.57938070927813,232.85587372584374 L 79.91012064763808,225.57485485676122 L 96.57938070927813,218.2938359876787 L 89.94089169860581,201.35843134445548 L 106.87629634182902,207.9969203551278 Z" fill="none" stroke="#FFFFFF" stroke-width="2.4813925037073865" /><path d="M 190.2621920181859,191.32766029348775 L 197.54321088726843,207.9969203551278 L 214.47861553049165,201.35843134445548 L 207.84012651981934,218.2938359876787 L 224.50938658145938,225.57485485676122 L 207.84012651981934,232.85587372584374 L 214.47861553049165,249.79127836906696 L 197.54321088726843,243.15278935839464 L 190.2621920181859,259.82204942003466 L 182.9811731491034,243.15278935839464 L 166.04576850588018,249.79127836906696 L 172.6842575165525,232.85587372584374 L 156.01499745491245,225.57485485676122 L 172.6842575165525,218.2938359876787 L 166.04576850588018,201.35843134445548 L 182.9811731491034,207.9969203551278 Z" fill="none" stroke="#FFFFFF" stroke-width="2.4813925037073865" /><path d="M 266.36706882546025,191.32766029348775 L 273.64808769454277,207.9969203551278 L 290.58349233776596,201.35843134445548 L 283.9450033270937,218.2938359876787 L 300.6142633887337,225.57485485676122 L 283.9450033270937,232.85587372584374 L 290.58349233776596,249.79127836906696 L 273.64808769454277,243.15278935839464 L 266.36706882546025,259.82204942003466 L 259.08604995637774,243.15278935839464 L 242.1506453131545,249.79127836906696 L 248.78913432382683,232.85587372584374 L 232.11987426218678,225.57485485676122 L 248.78913432382683,218.2938359876787 L 242.1506453131545,201.35843134445548 L 259.08604995637774,207.9969203551278 Z" fill="none" stroke="#FFFFFF" stroke-width="2.4813925037073865" /><path d="M 342.4719456327347,191.32766029348775 L 349.7529645018172,207.9969203551278 L 366.6883691450404,201.35843134445548 L 360.0498801343681,218.2938359876787 L 376.71914019600814,225.57485485676122 L 360.0498801343681,232.85587372584374 L 366.6883691450404,249.79127836906696 L 349.7529645018172,243.15278935839464 L 342.4719456327347,259.82204942003466 L 335.19092676365216,243.15278935839464 L 318.25552212042896,249.79127836906696 L 324.89401113110125,232.85587372584374 L 308.2247510694612,225.57485485676122 L 324.89401113110125,218.2938359876787 L 318.25552212042896,201.35843134445548 L 335.19092676365216,207.9969203551278 Z" fill="none" stroke="#FFFFFF" stroke-width="2.4813925037073865" /><path d="M 418.576822440009,191.32766029348775 L 425.8578413090915,207.9969203551278 L 442.7932459523147,201.35843134445548 L 436.1547569416424,218.2938359876787 L 452.82401700328245,225.57485485676122 L 436.1547569416424,232.85587372584374 L 442.7932459523147,249.79127836906696 L 425.8578413090915,243.15278935839464 L 418.576822440009,259.82204942003466 L 411.29580357092647,243.15278935839464 L 394.3603989277033,249.79127836906696 L 400.99888793837556,232.85587372584374 L 384.3296278767355,225.57485485676122 L 400.99888793837556,218.2938359876787 L 394.3603989277033,201.35843134445548 L 411.29580357092647,207.9969203551278 Z" fill="none" stroke="#FFFFFF" stroke-width="2.4813925037073865" /><path d="M 494.6816992472833,191.32766029348775 L 501.9627181163658,207.9969203551278 L 518.898122759589,201.35843134445548 L 512.2596337489167,218.2938359876787 L 528.9288938105567,225.57485485676122 L 512.2596337489167,232.85587372584374 L 518.898122759589,249.79127836906696 L 501.9627181163658,243.15278935839464 L 494.6816992472833,259.82204942003466 L 487.4006803782008,243.15278935839464 L 470.4652757349776,249.79127836906696 L 477.10376474564987,232.85587372584374 L 460.4345046840098,225.57485485676122 L 477.10376474564987,218.2938359876787 L 470.4652757349776,201.35843134445548 L 487.4006803782008,207.9969203551278 Z" fill="none" stroke="#FFFFFF" stroke-width="2.4813925037073865" /><path d="M 570.7865760545577,191.32766029348775 L 578.0675949236403,207.9969203551278 L 595.0029995668634,201.35843134445548 L 588.3645105561911,218.2938359876787 L 605.0337706178311,225.57485485676122 L 588.3645105561911,232.85587372584374 L 595.0029995668634,249.79127836906696 L 578.0675949236403,243.15278935839464 L 570.7865760545577,259.82204942003466 L 563.5055571854751,243.15278935839464 L 546.570152542252,249.79127836906696 L 553.2086415529243,232.85587372584374 L 536.5393814912843,225.57485485676122 L 553.2086415529243,218.2938359876787 L 546.570152542252,201.35843134445548 L 563.5055571854751,207.9969203551278 Z" fill="none" stroke="#FFFFFF" stroke-width="2.4813925037073865" /><path d="M 2.0970358600844746e-15,257.23448360858737 L 7.281018869082518,273.9037436702274 L 24.216423512305735,267.2652546595551 L 17.57793450163343,284.2006593027783 L 34.24719456327347,291.48167817186084 L 17.57793450163343,298.76269704094335 L 24.216423512305735,315.69810168416655 L 7.281018869082518,309.05961267349426 L 2.0970358600844746e-15,325.7288727351343 L -7.281018869082517,309.05961267349426 L -24.21642351230573,315.69810168416655 L -17.577934501633422,298.76269704094335 L -34.24719456327347,291.48167817186084 L -17.577934501633425,284.2006593027783 L -24.216423512305738,267.2652546595551 L -7.281018869082528,273.9037436702274 Z" fill="none" stroke="#FFFFFF" stroke-width="2.4813925037073865" /><path d="M 76.10487680727437,257.23448360858737 L 83.38589567635688,273.9037436702274 L 100.3213003195801,267.2652546595551 L 93.68281130890779,284.2006593027783 L 110.35207137054783,291.48167817186084 L 93.68281130890779,298.76269704094335 L 100.3213003195801,315.69810168416655 L 83.38589567635688,309.05961267349426 L 76.10487680727437,325.7288727351343 L 68.82385793819185,309.05961267349426 L 51.888453294968635,315.69810168416655 L 58.526942305640944,298.76269704094335 L 41.8576822440009,291.48167817186084 L 58.526942305640944,284.2006593027783 L 51.88845329496863,267.2652546595551 L 68.82385793819184,273.9037436702274 Z" fill="none" stroke="#FFFFFF" stroke-width="2.4813925037073865" /><path d="M 152.20975361454873,257.23448360858737 L 159.49077248363125,273.9037436702274 L 176.42617712685447,267.2652546595551 L 169.78768811618215,284.2006593027783 L 186.4569481778222,291.48167817186084 L 169.78768811618215,298.76269704094335 L 176.42617712685447,315.69810168416655 L 159.49077248363125,309.05961267349426 L 152.20975361454873,325.7288727351343 L 144.92873474546622,309.05961267349426 L 127.993330102243,315.69810168416655 L 134.6318191129153,298.76269704094335 L 117.96255905127526,291.48167817186084 L 134.6318191129153,284.2006593027783 L 127.993330102243,267.2652546595551 L 144.92873474546622,273.9037436702274 Z" fill="none" stroke="#FFFFFF" stroke-width="2.4813925037073865" /><path d="M 228.3146304218231,257.23448360858737 L 235.5956492909056,273.9037436702274 L 252.53105393412883,267.2652546595551 L 245.89256492345652,284.2006593027783 L 262.56182498509656,291.48167817186084 L 245.89256492345652,298.76269704094335 L 252.53105393412883,315.69810168416655 L 235.5956492909056,309.05961267349426 L 228.3146304218231,325.7288727351343 L 221.03361155274058,309.05961267349426 L 204.09820690951736,315.69810168416655 L 210.73669592018967,298.76269704094335 L 194.06743585854963,291.48167817186084 L 210.73669592018967,284.2006593027783 L 204.09820690951736,267.2652546595551 L 221.03361155274058,273.9037436702274 Z" fill="none" stroke="#FFFFFF" stroke-width="2.4813925037073865" /><path d="M 304.41950722909746,257.23448360858737 L 311.70052609818,273.9037436702274 L 328.6359307414032,267.2652546595551 L 321.9974417307309,284.2006593027783 L 338.66670179237093,291.48167817186084 L 321.9974417307309,298.76269704094335 L 328.6359307414032,315.69810168416655 L 311.70052609818,309.05961267349426 L 304.41950722909746,325.7288727351343 L 297.13848836001495,309.05961267349426 L 280.20308371679175,315.69810168416655 L 286.84157272746404,298.76269704094335 L 270.172312665824,291.48167817186084 L 286.84157272746404,284.2006593027783 L 280.20308371679175,267.2652546595551 L 297.13848836001495,273.9037436702274 Z" fill="none" stroke="#FFFFFF" stroke-width="2.4813925037073865" /><path d="M 380.5243840363719,257.23448360858737 L 387.8054029054544,273.9037436702274 L 404.7408075486776,267.2652546595551 L 398.1023185380053,284.2006593027783 L 414.77157859964535,291.48167817186084 L 398.1023185380053,298.76269704094335 L 404.7408075486776,315.69810168416655 L 387.8054029054544,309.05961267349426 L 380.5243840363719,325.7288727351343 L 373.24336516728937,309.05961267349426 L 356.3079605240662,315.69810168416655 L 362.94644953473846,298.76269704094335 L 346.2771894730984,291.48167817186084 L 362.94644953473846,284.2006593027783 L 356.3079605240662,267.2652546595551 L 373.24336516728937,273.9037436702274 Z" fill="none" stroke="#FFFFFF" stroke-width="2.4813925037073865" /><path d="M 456.6292608436462,257.23448360858737 L 463.9102797127287,273.9037436702274 L 480.8456843559519,267.2652546595551 L 474.2071953452796,284.2006593027783 L 490.87645540691966,291.48167817186084 L 474.2071953452796,298.76269704094335 L 480.8456843559519,315.69810168416655 L 463.9102797127287,309.05961267349426 L 456.6292608436462,325.7288727351343 L 449.3482419745637,309.05961267349426 L 432.4128373313405,315.69810168416655 L 439.05132634201277,298.76269704094335 L 422.3820662803727,291.48167817186084 L 439.05132634201277,284.2006593027783 L 432.4128373313405,267.2652546595551 L 449.3482419745637,273.9037436702274 Z" fill="none" stroke="#FFFFFF" stroke-width="2.4813925037073865" /><path d="M 532.7341376509205,257.23448360858737 L 540.0151565200031,273.9037436702274 L 556.9505611632262,267.2652546595551 L 550.3120721525539,284.2006593027783 L 566.981332214194,291.48167817186084 L 550.3120721525539,298.76269704094335 L 556.9505611632262,315.69810168416655 L 540.0151565200031,309.05961267349426 L 532.7341376509205,325.7288727351343 L 525.4531187818379,309.05961267349426 L 508.5177141386148,315.69810168416655 L 515.1562031492871,298.76269704094335 L 498.48694308764703,291.48167817186084 L 515.1562031492871,284.2006593027783 L 508.5177141386148,267.2652546595551 L 525.4531187818379,273.9037436702274 Z" fill="none" stroke="#FFFFFF" stroke-width="2.4813925037073865" /><path d="M -38.05243840363718,323.14130692368695 L -30.771419534554663,339.810566985327 L -13.836014891331448,333.1720779746547 L -20.474503902003754,350.1074826178779 L -3.8052438403637154,357.3885014869604 L -20.474503902003754,364.66952035604294 L -13.836014891331448,381.60492499926613 L -30.771419534554663,374.96643598859384 L -38.05243840363718,391.6356960502339 L -45.3334572727197,374.96643598859384 L -62.268861915942914,381.60492499926613 L -55.630372905270605,364.66952035604294 L -72.29963296691065,357.3885014869604 L -55.630372905270605,350.1074826178779 L -62.26886191594292,333.1720779746547 L -45.33345727271971,339.810566985327 Z" fill="none" stroke="#FFFFFF" stroke-width="2.4813925037073865" /><path d="M 38.05243840363718,323.14130692368695 L 45.3334572727197,339.810566985327 L 62.26886191594292,333.1720779746547 L 55.63037290527061,350.1074826178779 L 72.29963296691065,357.3885014869604 L 55.63037290527061,364.66952035604294 L 62.26886191594292,381.60492499926613 L 45.3334572727197,374.96643598859384 L 38.05243840363718,391.6356960502339 L 30.771419534554667,374.96643598859384 L 13.836014891331452,381.60492499926613 L 20.47450390200376,364.66952035604294 L 3.8052438403637154,357.3885014869604 L 20.474503902003757,350.1074826178779 L 13.836014891331445,333.1720779746547 L 30.771419534554653,339.810566985327 Z" fill="none" stroke="#FFFFFF" stroke-width="2.4813925037073865" /><path d="M 114.15731521091155,323.14130692368695 L 121.43833407999406,339.810566985327 L 138.3737387232173,333.1720779746547 L 131.73524971254497,350.1074826178779 L 148.40450977418502,357.3885014869604 L 131.73524971254497,364.66952035604294 L 138.3737387232173,381.60492499926613 L 121.43833407999406,374.96643598859384 L 114.15731521091155,391.6356960502339 L 106.87629634182903,374.96643598859384 L 89.94089169860581,381.60492499926613 L 96.57938070927813,364.66952035604294 L 79.91012064763808,357.3885014869604 L 96.57938070927813,350.1074826178779 L 89.94089169860581,333.1720779746547 L 106.87629634182902,339.810566985327 Z" fill="none" stroke="#FFFFFF" stroke-width="2.4813925037073865" /><path d="M 190.2621920181859,323.14130692368695 L 197.54321088726843,339.810566985327 L 214.47861553049165,333.1720779746547 L 207.84012651981934,350.1074826178779 L 224.50938658145938,357.3885014869604 L 207.84012651981934,364.66952035604294 L 214.47861553049165,381.60492499926613 L 197.54321088726843,374.96643598859384 L 190.2621920181859,391.6356960502339 L 182.9811731491034,374.96643598859384 L 166.04576850588018,381.60492499926613 L 172.6842575165525,364.66952035604294 L 156.01499745491245,357.3885014869604 L 172.6842575165525,350.1074826178779 L 166.04576850588018,333.1720779746547 L 182.9811731491034,339.810566985327 Z" fill="none" stroke="#FFFFFF" stroke-width="2.4813925037073865" /><path d="M 266.36706882546025,323.14130692368695 L 273.64808769454277,339.810566985327 L 290.58349233776596,333.1720779746547 L 283.9450033270937,350.1074826178779 L 300.6142633887337,357.3885014869604 L 283.9450033270937,364.66952035604294 L 290.58349233776596,381.60492499926613 L 273.64808769454277,374.96643598859384 L 266.36706882546025,391.6356960502339 L 259.08604995637774,374.96643598859384 L 242.1506453131545,381.60492499926613 L 248.78913432382683,364.66952035604294 L 232.11987426218678,357.3885014869604 L 248.78913432382683,350.1074826178779 L 242.1506453131545,333.1720779746547 L 259.08604995637774,339.810566985327 Z" fill="none" stroke="#FFFFFF" stroke-width="2.4813925037073865" /><path d="M 342.4719456327347,323.14130692368695 L 349.7529645018172,339.810566985327 L 366.6883691450404,333.1720779746547 L 360.0498801343681,350.1074826178779 L 376.71914019600814,357.3885014869604 L 360.0498801343681,364.66952035604294 L 366.6883691450404,381.60492499926613 L 349.7529645018172,374.96643598859384 L 342.4719456327347,391.6356960502339 L 335.19092676365216,374.96643598859384 L 318.25552212042896,381.60492499926613 L 324.89401113110125,364.66952035604294 L 308.2247510694612,357.3885014869604 L 324.89401113110125,350.1074826178779 L 318.25552212042896,333.1720779746547 L 335.19092676365216,339.810566985327 Z" fill="none" stroke="#FFFFFF" stroke-width="2.4813925037073865" /><path d="M 418.576822440009,323.14130692368695 L 425.8578413090915,339.810566985327 L 442.7932459523147,333.1720779746547 L 436.1547569416424,350.1074826178779 L 452.82401700328245,357.3885014869604 L 436.1547569416424,364.66952035604294 L 442.7932459523147,381.60492499926613 L 425.8578413090915,374.96643598859384 L 418.576822440009,391.6356960502339 L 411.29580357092647,374.96643598859384 L 394.3603989277033,381.60492499926613 L 400.99888793837556,364.66952035604294 L 384.3296278767355,357.3885014869604 L 400.99888793837556,350.1074826178779 L 394.3603989277033,333.1720779746547 L 411.29580357092647,339.810566985327 Z" fill="none" stroke="#FFFFFF" stroke-width="2.4813925037073865" /><path d="M 494.6816992472833,323.14130692368695 L 501.9627181163658,339.810566985327 L 518.898122759589,333.1720779746547 L 512.2596337489167,350.1074826178779 L 528.9288938105567,357.3885014869604 L 512.2596337489167,364.66952035604294 L 518.898122759589,381.60492499926613 L 501.9627181163658,374.96643598859384 L 494.6816992472833,391.6356960502339 L 487.4006803782008,374.96643598859384 L 470.4652757349776,381.60492499926613 L 477.10376474564987,364.66952035604294 L 460.4345046840098,357.3885014869604 L 477.10376474564987,350.1074826178779 L 470.4652757349776,333.1720779746547 L 487.4006803782008,339.810566985327 Z" fill="none" stroke="#FFFFFF" stroke-width="2.4813925037073865" /><path d="M 570.7865760545577,323.14130692368695 L 578.0675949236403,339.810566985327 L 595.0029995668634,333.1720779746547 L 588.3645105561911,350.1074826178779 L 605.0337706178311,357.3885014869604 L 588.3645105561911,364.66952035604294 L 595.0029995668634,381.60492499926613 L 578.0675949236403,374.96643598859384 L 570.7865760545577,391.6356960502339 L 563.5055571854751,374.96643598859384 L 546.570152542252,381.60492499926613 L 553.2086415529243,364.66952035604294 L 536.5393814912843,357.3885014869604 L 553.2086415529243,350.1074826178779 L 546.570152542252,333.1720779746547 L 563.5055571854751,339.810566985327 Z" fill="none" stroke="#FFFFFF" stroke-width="2.4813925037073865" /><path d="M 2.0970358600844746e-15,389.04813023878654 L 7.281018869082518,405.7173903004266 L 24.216423512305735,399.0789012897543 L 17.57793450163343,416.0143059329775 L 34.24719456327347,423.29532480206 L 17.57793450163343,430.5763436711425 L 24.216423512305735,447.5117483143657 L 7.281018869082518,440.87325930369343 L 2.0970358600844746e-15,457.5425193653335 L -7.281018869082517,440.87325930369343 L -24.21642351230573,447.5117483143657 L -17.577934501633422,430.5763436711425 L -34.24719456327347,423.29532480206 L -17.577934501633425,416.0143059329775 L -24.216423512305738,399.0789012897543 L -7.281018869082528,405.7173903004266 Z" fill="none" stroke="#FFFFFF" stroke-width="2.4813925037073865" /><path d="M 76.10487680727437,389.04813023878654 L 83.38589567635688,405.7173903004266 L 100.3213003195801,399.0789012897543 L 93.68281130890779,416.0143059329775 L 110.35207137054783,423.29532480206 L 93.68281130890779,430.5763436711425 L 100.3213003195801,447.5117483143657 L 83.38589567635688,440.87325930369343 L 76.10487680727437,457.5425193653335 L 68.82385793819185,440.87325930369343 L 51.888453294968635,447.5117483143657 L 58.526942305640944,430.5763436711425 L 41.8576822440009,423.29532480206 L 58.526942305640944,416.0143059329775 L 51.88845329496863,399.0789012897543 L 68.82385793819184,405.7173903004266 Z" fill="none" stroke="#FFFFFF" stroke-width="2.4813925037073865" /><path d="M 152.20975361454873,389.04813023878654 L 159.49077248363125,405.7173903004266 L 176.42617712685447,399.0789012897543 L 169.78768811618215,416.0143059329775 L 186.4569481778222,423.29532480206 L 169.78768811618215,430.5763436711425 L 176.42617712685447,447.5117483143657 L 159.49077248363125,440.87325930369343 L 152.20975361454873,457.5425193653335 L 144.92873474546622,440.87325930369343 L 127.993330102243,447.5117483143657 L 134.6318191129153,430.5763436711425 L 117.96255905127526,423.29532480206 L 134.6318191129153,416.0143059329775 L 127.993330102243,399.0789012897543 L 144.92873474546622,405.7173903004266 Z" fill="none" stroke="#FFFFFF" stroke-width="2.4813925037073865" /><path d="M 228.3146304218231,389.04813023878654 L 235.5956492909056,405.7173903004266 L 252.53105393412883,399.0789012897543 L 245.89256492345652,416.0143059329775 L 262.56182498509656,423.29532480206 L 245.89256492345652,430.5763436711425 L 252.53105393412883,447.5117483143657 L 235.5956492909056,440.87325930369343 L 228.3146304218231,457.5425193653335 L 221.03361155274058,440.87325930369343 L 204.09820690951736,447.5117483143657 L 210.73669592018967,430.5763436711425 L 194.06743585854963,423.29532480206 L 210.73669592018967,416.0143059329775 L 204.09820690951736,399.0789012897543 L 221.03361155274058,405.7173903004266 Z" fill="none" stroke="#FFFFFF" stroke-width="2.4813925037073865" /><path d="M 304.41950722909746,389.04813023878654 L 311.70052609818,405.7173903004266 L 328.6359307414032,399.0789012897543 L 321.9974417307309,416.0143059329775 L 338.66670179237093,423.29532480206 L 321.9974417307309,430.5763436711425 L 328.6359307414032,447.5117483143657 L 311.70052609818,440.87325930369343 L 304.41950722909746,457.5425193653335 L 297.13848836001495,440.87325930369343 L 280.20308371679175,447.5117483143657 L 286.84157272746404,430.5763436711425 L 270.172312665824,423.29532480206 L 286.84157272746404,416.0143059329775 L 280.20308371679175,399.0789012897543 L 297.13848836001495,405.7173903004266 Z" fill="none" stroke="#FFFFFF" stroke-width="2.4813925037073865" /><path d="M 380.5243840363719,389.04813023878654 L 387.8054029054544,405.7173903004266 L 404.7408075486776,399.0789012897543 L 398.1023185380053,416.0143059329775 L 414.77157859964535,423.29532480206 L 398.1023185380053,430.5763436711425 L 404.7408075486776,447.5117483143657 L 387.8054029054544,440.87325930369343 L 380.5243840363719,457.5425193653335 L 373.24336516728937,440.87325930369343 L 356.3079605240662,447.5117483143657 L 362.94644953473846,430.5763436711425 L 346.2771894730984,423.29532480206 L 362.94644953473846,416.0143059329775 L 356.3079605240662,399.0789012897543 L 373.24336516728937,405.7173903004266 Z" fill="none" stroke="#FFFFFF" stroke-width="2.4813925037073865" /><path d="M 456.6292608436462,389.04813023878654 L 463.9102797127287,405.7173903004266 L 480.8456843559519,399.0789012897543 L 474.2071953452796,416.0143059329775 L 490.87645540691966,423.29532480206 L 474.2071953452796,430.5763436711425 L 480.8456843559519,447.5117483143657 L 463.9102797127287,440.87325930369343 L 456.6292608436462,457.5425193653335 L 449.3482419745637,440.87325930369343 L 432.4128373313405,447.5117483143657 L 439.05132634201277,430.5763436711425 L 422.3820662803727,423.29532480206 L 439.05132634201277,416.0143059329775 L 432.4128373313405,399.0789012897543 L 449.3482419745637,405.7173903004266 Z" fill="none" stroke="#FFFFFF" stroke-width="2.4813925037073865" /><path d="M 532.7341376509205,389.04813023878654 L 540.0151565200031,405.7173903004266 L 556.9505611632262,399.0789012897543 L 550.3120721525539,416.0143059329775 L 566.981332214194,423.29532480206 L 550.3120721525539,430.5763436711425 L 556.9505611632262,447.5117483143657 L 540.0151565200031,440.87325930369343 L 532.7341376509205,457.5425193653335 L 525.4531187818379,440.87325930369343 L 508.5177141386148,447.5117483143657 L 515.1562031492871,430.5763436711425 L 498.48694308764703,423.29532480206 L 515.1562031492871,416.0143059329775 L 508.5177141386148,399.0789012897543 L 525.4531187818379,405.7173903004266 Z" fill="none" stroke="#FFFFFF" stroke-width="2.4813925037073865" /><path d="M -38.05243840363718,454.9549535538861 L -30.771419534554663,471.6242136155262 L -13.836014891331448,464.9857246048539 L -20.474503902003754,481.9211292480771 L -3.8052438403637154,489.2021481171596 L -20.474503902003754,496.4831669862421 L -13.836014891331448,513.4185716294653 L -30.771419534554663,506.780082618793 L -38.05243840363718,523.4493426804331 L -45.3334572727197,506.780082618793 L -62.268861915942914,513.4185716294653 L -55.630372905270605,496.4831669862421 L -72.29963296691065,489.2021481171596 L -55.630372905270605,481.9211292480771 L -62.26886191594292,464.9857246048539 L -45.33345727271971,471.6242136155262 Z" fill="none" stroke="#FFFFFF" stroke-width="2.4813925037073865" /><path d="M 38.05243840363718,454.9549535538861 L 45.3334572727197,471.6242136155262 L 62.26886191594292,464.9857246048539 L 55.63037290527061,481.9211292480771 L 72.29963296691065,489.2021481171596 L 55.63037290527061,496.4831669862421 L 62.26886191594292,513.4185716294653 L 45.3334572727197,506.780082618793 L 38.05243840363718,523.4493426804331 L 30.771419534554667,506.780082618793 L 13.836014891331452,513.4185716294653 L 20.47450390200376,496.4831669862421 L 3.8052438403637154,489.2021481171596 L 20.474503902003757,481.9211292480771 L 13.836014891331445,464.9857246048539 L 30.771419534554653,471.6242136155262 Z" fill="none" stroke="#FFFFFF" stroke-width="2.4813925037073865" /><path d="M 114.15731521091155,454.9549535538861 L 121.43833407999406,471.6242136155262 L 138.3737387232173,464.9857246048539 L 131.73524971254497,481.9211292480771 L 148.40450977418502,489.2021481171596 L 131.73524971254497,496.4831669862421 L 138.3737387232173,513.4185716294653 L 121.43833407999406,506.780082618793 L 114.15731521091155,523.4493426804331 L 106.87629634182903,506.780082618793 L 89.94089169860581,513.4185716294653 L 96.57938070927813,496.4831669862421 L 79.91012064763808,489.2021481171596 L 96.57938070927813,481.9211292480771 L 89.94089169860581,464.9857246048539 L 106.87629634182902,471.6242136155262 Z" fill="none" stroke="#FFFFFF" stroke-width="2.4813925037073865" /><path d="M 190.2621920181859,454.9549535538861 L 197.54321088726843,471.6242136155262 L 214.47861553049165,464.9857246048539 L 207.84012651981934,481.9211292480771 L 224.50938658145938,489.2021481171596 L 207.84012651981934,496.4831669862421 L 214.47861553049165,513.4185716294653 L 197.54321088726843,506.780082618793 L 190.2621920181859,523.4493426804331 L 182.9811731491034,506.780082618793 L 166.04576850588018,513.4185716294653 L 172.6842575165525,496.4831669862421 L 156.01499745491245,489.2021481171596 L 172.6842575165525,481.9211292480771 L 166.04576850588018,464.9857246048539 L 182.9811731491034,471.6242136155262 Z" fill="none" stroke="#FFFFFF" stroke-width="2.4813925037073865" /><path d="M 266.36706882546025,454.9549535538861 L 273.64808769454277,471.6242136155262 L 290.58349233776596,464.9857246048539 L 283.9450033270937,481.9211292480771 L 300.6142633887337,489.2021481171596 L 283.9450033270937,496.4831669862421 L 290.58349233776596,513.4185716294653 L 273.64808769454277,506.780082618793 L 266.36706882546025,523.4493426804331 L 259.08604995637774,506.780082618793 L 242.1506453131545,513.4185716294653 L 248.78913432382683,496.4831669862421 L 232.11987426218678,489.2021481171596 L 248.78913432382683,481.9211292480771 L 242.1506453131545,464.9857246048539 L 259.08604995637774,471.6242136155262 Z" fill="none" stroke="#FFFFFF" stroke-width="2.4813925037073865" /><path d="M 342.4719456327347,454.9549535538861 L 349.7529645018172,471.6242136155262 L 366.6883691450404,464.9857246048539 L 360.0498801343681,481.9211292480771 L 376.71914019600814,489.2021481171596 L 360.0498801343681,496.4831669862421 L 366.6883691450404,513.4185716294653 L 349.7529645018172,506.780082618793 L 342.4719456327347,523.4493426804331 L 335.19092676365216,506.780082618793 L 318.25552212042896,513.4185716294653 L 324.89401113110125,496.4831669862421 L 308.2247510694612,489.2021481171596 L 324.89401113110125,481.9211292480771 L 318.25552212042896,464.9857246048539 L 335.19092676365216,471.6242136155262 Z" fill="none" stroke="#FFFFFF" stroke-width="2.4813925037073865" /><path d="M 418.576822440009,454.9549535538861 L 425.8578413090915,471.6242136155262 L 442.7932459523147,464.9857246048539 L 436.1547569416424,481.9211292480771 L 452.82401700328245,489.2021481171596 L 436.1547569416424,496.4831669862421 L 442.7932459523147,513.4185716294653 L 425.8578413090915,506.780082618793 L 418.576822440009,523.4493426804331 L 411.29580357092647,506.780082618793 L 394.3603989277033,513.4185716294653 L 400.99888793837556,496.4831669862421 L 384.3296278767355,489.2021481171596 L 400.99888793837556,481.9211292480771 L 394.3603989277033,464.9857246048539 L 411.29580357092647,471.6242136155262 Z" fill="none" stroke="#FFFFFF" stroke-width="2.4813925037073865" /><path d="M 494.6816992472833,454.9549535538861 L 501.9627181163658,471.6242136155262 L 518.898122759589,464.9857246048539 L 512.2596337489167,481.9211292480771 L 528.9288938105567,489.2021481171596 L 512.2596337489167,496.4831669862421 L 518.898122759589,513.4185716294653 L 501.9627181163658,506.780082618793 L 494.6816992472833,523.4493426804331 L 487.4006803782008,506.780082618793 L 470.4652757349776,513.4185716294653 L 477.10376474564987,496.4831669862421 L 460.4345046840098,489.2021481171596 L 477.10376474564987,481.9211292480771 L 470.4652757349776,464.9857246048539 L 487.4006803782008,471.6242136155262 Z" fill="none" stroke="#FFFFFF" stroke-width="2.4813925037073865" /><path d="M 570.7865760545577,454.9549535538861 L 578.0675949236403,471.6242136155262 L 595.0029995668634,464.9857246048539 L 588.3645105561911,481.9211292480771 L 605.0337706178311,489.2021481171596 L 588.3645105561911,496.4831669862421 L 595.0029995668634,513.4185716294653 L 578.0675949236403,506.780082618793 L 570.7865760545577,523.4493426804331 L 563.5055571854751,506.780082618793 L 546.570152542252,513.4185716294653 L 553.2086415529243,496.4831669862421 L 536.5393814912843,489.2021481171596 L 553.2086415529243,481.9211292480771 L 546.570152542252,464.9857246048539 L 563.5055571854751,471.6242136155262 Z" fill="none" stroke="#FFFFFF" stroke-width="2.4813925037073865" /><line x1="34.24719456327347" y1="27.854384911462418" x2="41.8576822440009" y2="27.854384911462418" stroke="#FFFFFF" stroke-width="0.5"/><line x1="110.35207137054783" y1="27.854384911462418" x2="117.96255905127526" y2="27.854384911462418" stroke="#FFFFFF" stroke-width="0.5"/><line x1="186.4569481778222" y1="27.854384911462418" x2="194.06743585854963" y2="27.854384911462418" stroke="#FFFFFF" stroke-width="0.5"/><line x1="262.56182498509656" y1="27.854384911462418" x2="270.172312665824" y2="27.854384911462418" stroke="#FFFFFF" stroke-width="0.5"/><line x1="338.66670179237093" y1="27.854384911462418" x2="346.2771894730984" y2="27.854384911462418" stroke="#FFFFFF" stroke-width="0.5"/><line x1="414.77157859964535" y1="27.854384911462418" x2="422.3820662803727" y2="27.854384911462418" stroke="#FFFFFF" stroke-width="0.5"/><line x1="490.87645540691966" y1="27.854384911462418" x2="498.48694308764703" y2="27.854384911462418" stroke="#FFFFFF" stroke-width="0.5"/><line x1="72.29963296691065" y1="93.76120822656202" x2="79.91012064763808" y2="93.76120822656202" stroke="#FFFFFF" stroke-width="0.5"/><line x1="148.40450977418502" y1="93.76120822656202" x2="156.01499745491245" y2="93.76120822656202" stroke="#FFFFFF" stroke-width="0.5"/><line x1="224.50938658145938" y1="93.76120822656202" x2="232.11987426218678" y2="93.76120822656202" stroke="#FFFFFF" stroke-width="0.5"/><line x1="300.6142633887337" y1="93.76120822656202" x2="308.2247510694612" y2="93.76120822656202" stroke="#FFFFFF" stroke-width="0.5"/><line x1="376.71914019600814" y1="93.76120822656202" x2="384.3296278767355" y2="93.76120822656202" stroke="#FFFFFF" stroke-width="0.5"/><line x1="452.82401700328245" y1="93.76120822656202" x2="460.4345046840098" y2="93.76120822656202" stroke="#FFFFFF" stroke-width="0.5"/><line x1="34.24719456327347" y1="159.6680315416616" x2="41.8576822440009" y2="159.6680315416616" stroke="#FFFFFF" stroke-width="0.5"/><line x1="110.35207137054783" y1="159.6680315416616" x2="117.96255905127526" y2="159.6680315416616" stroke="#FFFFFF" stroke-width="0.5"/><line x1="186.4569481778222" y1="159.6680315416616" x2="194.06743585854963" y2="159.6680315416616" stroke="#FFFFFF" stroke-width="0.5"/><line x1="262.56182498509656" y1="159.6680315416616" x2="270.172312665824" y2="159.6680315416616" stroke="#FFFFFF" stroke-width="0.5"/><line x1="338.66670179237093" y1="159.6680315416616" x2="346.2771894730984" y2="159.6680315416616" stroke="#FFFFFF" stroke-width="0.5"/><line x1="414.77157859964535" y1="159.6680315416616" x2="422.3820662803727" y2="159.6680315416616" stroke="#FFFFFF" stroke-width="0.5"/><line x1="490.87645540691966" y1="159.6680315416616" x2="498.48694308764703" y2="159.6680315416616" stroke="#FFFFFF" stroke-width="0.5"/><line x1="72.29963296691065" y1="225.57485485676122" x2="79.91012064763808" y2="225.57485485676122" stroke="#FFFFFF" stroke-width="0.5"/><line x1="148.40450977418502" y1="225.57485485676122" x2="156.01499745491245" y2="225.57485485676122" stroke="#FFFFFF" stroke-width="0.5"/><line x1="224.50938658145938" y1="225.57485485676122" x2="232.11987426218678" y2="225.57485485676122" stroke="#FFFFFF" stroke-width="0.5"/><line x1="300.6142633887337" y1="225.57485485676122" x2="308.2247510694612" y2="225.57485485676122" stroke="#FFFFFF" stroke-width="0.5"/><line x1="376.71914019600814" y1="225.57485485676122" x2="384.3296278767355" y2="225.57485485676122" stroke="#FFFFFF" stroke-width="0.5"/><line x1="452.82401700328245" y1="225.57485485676122" x2="460.4345046840098" y2="225.57485485676122" stroke="#FFFFFF" stroke-width="0.5"/><line x1="34.24719456327347" y1="291.48167817186084" x2="41.8576822440009" y2="291.48167817186084" stroke="#FFFFFF" stroke-width="0.5"/><line x1="110.35207137054783" y1="291.48167817186084" x2="117.96255905127526" y2="291.48167817186084" stroke="#FFFFFF" stroke-width="0.5"/><line x1="186.4569481778222" y1="291.48167817186084" x2="194.06743585854963" y2="291.48167817186084" stroke="#FFFFFF" stroke-width="0.5"/><line x1="262.56182498509656" y1="291.48167817186084" x2="270.172312665824" y2="291.48167817186084" stroke="#FFFFFF" stroke-width="0.5"/><line x1="338.66670179237093" y1="291.48167817186084" x2="346.2771894730984" y2="291.48167817186084" stroke="#FFFFFF" stroke-width="0.5"/><line x1="414.77157859964535" y1="291.48167817186084" x2="422.3820662803727" y2="291.48167817186084" stroke="#FFFFFF" stroke-width="0.5"/><line x1="490.87645540691966" y1="291.48167817186084" x2="498.48694308764703" y2="291.48167817186084" stroke="#FFFFFF" stroke-width="0.5"/><line x1="72.29963296691065" y1="357.3885014869604" x2="79.91012064763808" y2="357.3885014869604" stroke="#FFFFFF" stroke-width="0.5"/><line x1="148.40450977418502" y1="357.3885014869604" x2="156.01499745491245" y2="357.3885014869604" stroke="#FFFFFF" stroke-width="0.5"/><line x1="224.50938658145938" y1="357.3885014869604" x2="232.11987426218678" y2="357.3885014869604" stroke="#FFFFFF" stroke-width="0.5"/><line x1="300.6142633887337" y1="357.3885014869604" x2="308.2247510694612" y2="357.3885014869604" stroke="#FFFFFF" stroke-width="0.5"/><line x1="376.71914019600814" y1="357.3885014869604" x2="384.3296278767355" y2="357.3885014869604" stroke="#FFFFFF" stroke-width="0.5"/><line x1="452.82401700328245" y1="357.3885014869604" x2="460.4345046840098" y2="357.3885014869604" stroke="#FFFFFF" stroke-width="0.5"/><line x1="34.24719456327347" y1="423.29532480206" x2="41.8576822440009" y2="423.29532480206" stroke="#FFFFFF" stroke-width="0.5"/><line x1="110.35207137054783" y1="423.29532480206" x2="117.96255905127526" y2="423.29532480206" stroke="#FFFFFF" stroke-width="0.5"/><line x1="186.4569481778222" y1="423.29532480206" x2="194.06743585854963" y2="423.29532480206" stroke="#FFFFFF" stroke-width="0.5"/><line x1="262.56182498509656" y1="423.29532480206" x2="270.172312665824" y2="423.29532480206" stroke="#FFFFFF" stroke-width="0.5"/><line x1="338.66670179237093" y1="423.29532480206" x2="346.2771894730984" y2="423.29532480206" stroke="#FFFFFF" stroke-width="0.5"/><line x1="414.77157859964535" y1="423.29532480206" x2="422.3820662803727" y2="423.29532480206" stroke="#FFFFFF" stroke-width="0.5"/><line x1="490.87645540691966" y1="423.29532480206" x2="498.48694308764703" y2="423.29532480206" stroke="#FFFFFF" stroke-width="0.5"/><line x1="72.29963296691065" y1="489.2021481171596" x2="79.91012064763808" y2="489.2021481171596" stroke="#FFFFFF" stroke-width="0.5"/><line x1="148.40450977418502" y1="489.2021481171596" x2="156.01499745491245" y2="489.2021481171596" stroke="#FFFFFF" stroke-width="0.5"/><line x1="224.50938658145938" y1="489.2021481171596" x2="232.11987426218678" y2="489.2021481171596" stroke="#FFFFFF" stroke-width="0.5"/><line x1="300.6142633887337" y1="489.2021481171596" x2="308.2247510694612" y2="489.2021481171596" stroke="#FFFFFF" stroke-width="0.5"/><line x1="376.71914019600814" y1="489.2021481171596" x2="384.3296278767355" y2="489.2021481171596" stroke="#FFFFFF" stroke-width="0.5"/><line x1="452.82401700328245" y1="489.2021481171596" x2="460.4345046840098" y2="489.2021481171596" stroke="#FFFFFF" stroke-width="0.5"/></g></svg>