<svg xmlns="http://www.w3.org/2000/svg" width="512" height="512" viewBox="0 0 512 512"><rect x="0" y="0" width="512" height="512" fill="#050510"/><g opacity="0.06692764014793916"><path d="M -46.332204340630774,-88.03118824719847 L -37.46692084757412,-67.73489198385046 L -16.846570051708042,-75.8178386295535 L -24.92951669741109,-55.19748783368742 L -4.633220434063077,-46.332204340630774 L -24.92951669741109,-37.46692084757413 L -16.846570051708042,-16.846570051708046 L -37.46692084757412,-24.92951669741109 L -46.332204340630774,-4.633220434063077 L -55.19748783368742,-24.92951669741109 L -75.8178386295535,-16.846570051708042 L -67.73489198385045,-37.466920847574116 L -88.03118824719847,-46.33220434063077 L -67.73489198385046,-55.19748783368743 L -75.8178386295535,-75.8178386295535 L -55.19748783368743,-67.73489198385045 Z" fill="none" stroke="#0F52BA" stroke-width="1.4043848518768254" /><path d="M 46.332204340630774,-88.03118824719847 L 55.197487833687426,-67.73489198385046 L 75.8178386295535,-75.8178386295535 L 67.73489198385046,-55.19748783368742 L 88.03118824719847,-46.332204340630774 L 67.73489198385046,-37.46692084757413 L 75.8178386295535,-16.846570051708046 L 55.197487833687426,-24.92951669741109 L 46.332204340630774,-4.633220434063077 L 37.46692084757413,-24.92951669741109 L 16.846570051708046,-16.846570051708042 L 24.929516697411096,-37.466920847574116 L 4.633220434063077,-46.33220434063077 L 24.929516697411092,-55.19748783368743 L 16.846570051708035,-75.8178386295535 L 37.466920847574116,-67.73489198385045 Z" fill="none" stroke="#0F52BA" stroke-width="1.4043848518768254" /><path d="M 138.99661302189233,-88.03118824719847 L 147.86189651494897,-67.73489198385046 L 168.48224731081507,-75.8178386295535 L 160.399300665112,-55.19748783368742 L 180.69559692846002,-46.332204340630774 L 160.399300665112,-37.46692084757413 L 168.48224731081507,-16.846570051708046 L 147.86189651494897,-24.92951669741109 L 138.99661302189233,-4.633220434063077 L 130.1313295288357,-24.92951669741109 L 109.5109787329696,-16.846570051708042 L 117.59392537867265,-37.466920847574116 L 97.29762911532464,-46.33220434063077 L 117.59392537867265,-55.19748783368743 L 109.51097873296959,-75.8178386295535 L 130.13132952883566,-67.73489198385045 Z" fill="none" stroke="#0F52BA" stroke-width="1.4043848518768254" /><path d="M 231.6610217031539,-88.03118824719847 L 240.52630519621053,-67.73489198385046 L 261.1466559920766,-75.8178386295535 L 253.06370934637357,-55.19748783368742 L 273.3600056097216,-46.332204340630774 L 253.06370934637357,-37.46692084757413 L 261.1466559920766,-16.846570051708046 L 240.52630519621053,-24.92951669741109 L 231.6610217031539,-4.633220434063077 L 222.79573821009726,-24.92951669741109 L 202.17538741423115,-16.846570051708042 L 210.2583340599342,-37.466920847574116 L 189.9620377965862,-46.33220434063077 L 210.2583340599342,-55.19748783368743 L 202.17538741423115,-75.8178386295535 L 222.79573821009723,-67.73489198385045 Z" fill="none" stroke="#0F52BA" stroke-width="1.4043848518768254" /><path d="M 324.3254303844154,-88.03118824719847 L 333.1907138774721,-67.73489198385046 L 353.81106467333814,-75.8178386295535 L 345.7281180276351,-55.19748783368742 L 366.02441429098315,-46.332204340630774 L 345.7281180276351,-37.46692084757413 L 353.81106467333814,-16.846570051708046 L 333.1907138774721,-24.92951669741109 L 324.3254303844154,-4.633220434063077 L 315.46014689135876,-24.92951669741109 L 294.8397960954927,-16.846570051708042 L 302.92274274119575,-37.466920847574116 L 282.6264464778477,-46.33220434063077 L 302.92274274119575,-55.19748783368743 L 294.8397960954927,-75.8178386295535 L 315.46014689135876,-67.73489198385045 Z" fill="none" stroke="#0F52BA" stroke-width="1.4043848518768254" /><path d="M 416.98983906567696,-88.03118824719847 L 425.8551225587336,-67.73489198385046 L 446.47547335459967,-75.8178386295535 L 438.39252670889664,-55.19748783368742 L 458.6888229722447,-46.332204340630774 L 438.39252670889664,-37.46692084757413 L 446.47547335459967,-16.846570051708046 L 425.8551225587336,-24.92951669741109 L 416.98983906567696,-4.633220434063077 L 408.1245555726203,-24.92951669741109 L 387.50420477675425,-16.846570051708042 L 395.5871514224573,-37.466920847574116 L 375.29085515910924,-46.33220434063077 L 395.5871514224573,-55.19748783368743 L 387.50420477675425,-75.8178386295535 L 408.1245555726203,-67.73489198385045 Z" fill="none" stroke="#0F52BA" stroke-width="1.4043848518768254" /><path d="M 509.65424774693855,-88.03118824719847 L 518.5195312399952,-67.73489198385046 L 539.1398820358613,-75.8178386295535 L 531.0569353901583,-55.19748783368742 L 551.3532316535062,-46.332204340630774 L 531.0569353901583,-37.46692084757413 L 539.1398820358613,-16.846570051708046 L 518.5195312399952,-24.92951669741109 L 509.65424774693855,-4.633220434063077 L 500.7889642538819,-24.92951669741109 L 480.16861345801584,-16.846570051708042 L 488.2515601037189,-37.466920847574116 L 467.95526384037083,-46.33220434063077 L 488.2515601037189,-55.19748783368743 L 480.1686134580158,-75.8178386295535 L 500.7889642538819,-67.73489198385045 Z" fill="none" stroke="#0F52BA" stroke-width="1.4043848518768254" /><path d="M 602.3186564282,-88.03118824719847 L 611.1839399212566,-67.73489198385046 L 631.8042907171227,-75.8178386295535 L 623.7213440714197,-55.19748783368742 L 644.0176403347677,-46.332204340630774 L 623.7213440714197,-37.46692084757413 L 631.8042907171227,-16.846570051708046 L 611.1839399212566,-24.92951669741109 L 602.3186564282,-4.633220434063077 L 593.4533729351434,-24.92951669741109 L 572.8330221392773,-16.846570051708042 L 580.9159687849804,-37.466920847574116 L 560.6196725216323,-46.33220434063077 L 580.9159687849804,-55.19748783368743 L 572.8330221392773,-75.8178386295535 L 593.4533729351434,-67.73489198385045 Z" fill="none" stroke="#0F52BA" stroke-width="1.4043848518768254" /><path d="M 2.5533263584437564e-15,-7.783810329225972 L 8.86528349305665,12.51248593412204 L 29.485634288922732,4.429539288418997 L 21.402687643219686,25.049890084285078 L 41.6989839065677,33.915173577341726 L 21.402687643219686,42.78045707039837 L 29.485634288922732,63.40080786626446 L 8.86528349305665,55.31786122056141 L 2.5533263584437564e-15,75.61415748390942 L -8.865283493056646,55.31786122056141 L -29.48563428892273,63.40080786626446 L -21.40268764321968,42.780457070398384 L -41.6989839065677,33.91517357734173 L -21.402687643219682,25.04989008428507 L -29.48563428892274,4.429539288418997 L -8.86528349305666,12.512485934122047 Z" fill="none" stroke="#0F52BA" stroke-width="1.4043848518768254" /><path d="M 92.66440868126155,-7.783810329225972 L 101.5296921743182,12.51248593412204 L 122.15004297018427,4.429539288418997 L 114.06709632448124,25.049890084285078 L 134.36339258782925,33.915173577341726 L 114.06709632448124,42.78045707039837 L 122.15004297018427,63.40080786626446 L 101.5296921743182,55.31786122056141 L 92.66440868126155,75.61415748390942 L 83.7991251882049,55.31786122056141 L 63.17877439233882,63.40080786626446 L 71.26172103804187,42.780457070398384 L 50.96542477469385,33.91517357734173 L 71.26172103804187,25.04989008428507 L 63.17877439233881,4.429539288418997 L 83.79912518820488,12.512485934122047 Z" fill="none" stroke="#0F52BA" stroke-width="1.4043848518768254" /><path d="M 185.3288173625231,-7.783810329225972 L 194.19410085557973,12.51248593412204 L 214.81445165144584,4.429539288418997 L 206.73150500574278,25.049890084285078 L 227.0278012690908,33.915173577341726 L 206.73150500574278,42.78045707039837 L 214.81445165144584,63.40080786626446 L 194.19410085557973,55.31786122056141 L 185.3288173625231,75.61415748390942 L 176.46353386946646,55.31786122056141 L 155.84318307360036,63.40080786626446 L 163.92612971930342,42.780457070398384 L 143.6298334559554,33.91517357734173 L 163.92612971930342,25.04989008428507 L 155.84318307360036,4.429539288418997 L 176.46353386946643,12.512485934122047 Z" fill="none" stroke="#0F52BA" stroke-width="1.4043848518768254" /><path d="M 277.99322604378466,-7.783810329225972 L 286.8585095368413,12.51248593412204 L 307.47886033270737,4.429539288418997 L 299.39591368700434,25.049890084285078 L 319.6922099503524,33.915173577341726 L 299.39591368700434,42.78045707039837 L 307.47886033270737,63.40080786626446 L 286.8585095368413,55.31786122056141 L 277.99322604378466,75.61415748390942 L 269.127942550728,55.31786122056141 L 248.50759175486192,63.40080786626446 L 256.590538400565,42.780457070398384 L 236.29424213721697,33.91517357734173 L 256.590538400565,25.04989008428507 L 248.50759175486192,4.429539288418997 L 269.127942550728,12.512485934122047 Z" fill="none" stroke="#0F52BA" stroke-width="1.4043848518768254" /><path d="M 370.6576347250462,-7.783810329225972 L 379.52291821810286,12.51248593412204 L 400.1432690139689,4.429539288418997 L 392.0603223682659,25.049890084285078 L 412.3566186316139,33.915173577341726 L 392.0603223682659,42.78045707039837 L 400.1432690139689,63.40080786626446 L 379.52291821810286,55.31786122056141 L 370.6576347250462,75.61415748390942 L 361.7923512319895,55.31786122056141 L 341.1720004361235,63.40080786626446 L 349.2549470818265,42.780457070398384 L 328.9586508184785,33.91517357734173 L 349.2549470818265,25.04989008428507 L 341.1720004361234,4.429539288418997 L 361.7923512319895,12.512485934122047 Z" fill="none" stroke="#0F52BA" stroke-width="1.4043848518768254" /><path d="M 463.3220434063077,-7.783810329225972 L 472.1873268993644,12.51248593412204 L 492.80767769523044,4.429539288418997 L 484.7247310495274,25.049890084285078 L 505.02102731287545,33.915173577341726 L 484.7247310495274,42.78045707039837 L 492.80767769523044,63.40080786626446 L 472.1873268993644,55.31786122056141 L 463.3220434063077,75.61415748390942 L 454.45675991325106,55.31786122056141 L 433.836409117385,63.40080786626446 L 441.91935576308805,42.780457070398384 L 421.62305949974,33.91517357734173 L 441.91935576308805,25.04989008428507 L 433.83640911738496,4.429539288418997 L 454.45675991325106,12.512485934122047 Z" fill="none" stroke="#0F52BA" stroke-width="1.4043848518768254" /><path d="M 555.9864520875693,-7.783810329225972 L 564.8517355806259,12.51248593412204 L 585.472086376492,4.429539288418997 L 577.389139730789,25.049890084285078 L 597.685435994137,33.915173577341726 L 577.389139730789,42.78045707039837 L 585.472086376492,63.40080786626446 L 564.8517355806259,55.31786122056141 L 555.9864520875693,75.61415748390942 L 547.1211685945127,55.31786122056141 L 526.5008177986466,63.40080786626446 L 534.5837644443496,42.780457070398384 L 514.2874681810016,33.91517357734173 L 534.5837644443496,25.04989008428507 L 526.5008177986466,4.429539288418997 L 547.1211685945127,12.512485934122047 Z" fill="none" stroke="#0F52BA" stroke-width="1.4043848518768254" /><path d="M -46.332204340630774,72.46356758874654 L -37.46692084757412,92.75986385209455 L -16.846570051708042,84.67691720639151 L -24.92951669741109,105.29726800225758 L -4.633220434063077,114.16255149531423 L -24.92951669741109,123.02783498837088 L -16.846570051708042,143.64818578423697 L -37.46692084757412,135.5652391385339 L -46.332204340630774,155.86153540188192 L -55.19748783368742,135.5652391385339 L -75.8178386295535,143.64818578423697 L -67.73489198385045,123.0278349883709 L -88.03118824719847,114.16255149531423 L -67.73489198385046,105.29726800225758 L -75.8178386295535,84.67691720639151 L -55.19748783368743,92.75986385209455 Z" fill="none" stroke="#0F52BA" stroke-width="1.4043848518768254" /><path d="M 46.332204340630774,72.46356758874654 L 55.197487833687426,92.75986385209455 L 75.8178386295535,84.67691720639151 L 67.73489198385046,105.29726800225758 L 88.03118824719847,114.16255149531423 L 67.73489198385046,123.02783498837088 L 75.8178386295535,143.64818578423697 L 55.197487833687426,135.5652391385339 L 46.332204340630774,155.86153540188192 L 37.46692084757413,135.5652391385339 L 16.846570051708046,143.64818578423697 L 24.929516697411096,123.0278349883709 L 4.633220434063077,114.16255149531423 L 24.929516697411092,105.29726800225758 L 16.846570051708035,84.67691720639151 L 37.466920847574116,92.75986385209455 Z" fill="none" stroke="#0F52BA" stroke-width="1.4043848518768254" /><path d="M 138.99661302189233,72.46356758874654 L 147.86189651494897,92.75986385209455 L 168.48224731081507,84.67691720639151 L 160.399300665112,105.29726800225758 L 180.69559692846002,114.16255149531423 L 160.399300665112,123.02783498837088 L 168.48224731081507,143.64818578423697 L 147.86189651494897,135.5652391385339 L 138.99661302189233,155.86153540188192 L 130.1313295288357,135.5652391385339 L 109.5109787329696,143.64818578423697 L 117.59392537867265,123.0278349883709 L 97.29762911532464,114.16255149531423 L 117.59392537867265,105.29726800225758 L 109.51097873296959,84.67691720639151 L 130.13132952883566,92.75986385209455 Z" fill="none" stroke="#0F52BA" stroke-width="1.4043848518768254" /><path d="M 231.6610217031539,72.46356758874654 L 240.52630519621053,92.75986385209455 L 261.1466559920766,84.67691720639151 L 253.06370934637357,105.29726800225758 L 273.3600056097216,114.16255149531423 L 253.06370934637357,123.02783498837088 L 261.1466559920766,143.64818578423697 L 240.52630519621053,135.5652391385339 L 231.6610217031539,155.86153540188192 L 222.79573821009726,135.5652391385339 L 202.17538741423115,143.64818578423697 L 210.2583340599342,123.0278349883709 L 189.9620377965862,114.16255149531423 L 210.2583340599342,105.29726800225758 L 202.17538741423115,84.67691720639151 L 222.79573821009723,92.75986385209455 Z" fill="none" stroke="#0F52BA" stroke-width="1.4043848518768254" /><path d="M 324.3254303844154,72.46356758874654 L 333.1907138774721,92.75986385209455 L 353.81106467333814,84.67691720639151 L 345.7281180276351,105.29726800225758 L 366.02441429098315,114.16255149531423 L 345.7281180276351,123.02783498837088 L 353.81106467333814,143.64818578423697 L 333.1907138774721,135.5652391385339 L 324.3254303844154,155.86153540188192 L 315.46014689135876,135.5652391385339 L 294.8397960954927,143.64818578423697 L 302.92274274119575,123.0278349883709 L 282.6264464778477,114.16255149531423 L 302.92274274119575,105.29726800225758 L 294.8397960954927,84.67691720639151 L 315.46014689135876,92.75986385209455 Z" fill="none" stroke="#0F52BA" stroke-width="1.4043848518768254" /><path d="M 416.98983906567696,72.46356758874654 L 425.8551225587336,92.75986385209455 L 446.47547335459967,84.67691720639151 L 438.39252670889664,105.29726800225758 L 458.6888229722447,114.16255149531423 L 438.39252670889664,123.02783498837088 L 446.47547335459967,143.64818578423697 L 425.8551225587336,135.5652391385339 L 416.98983906567696,155.86153540188192 L 408.1245555726203,135.5652391385339 L 387.50420477675425,143.64818578423697 L 395.5871514224573,123.0278349883709 L 375.29085515910924,114.16255149531423 L 395.5871514224573,105.29726800225758 L 387.50420477675425,84.67691720639151 L 408.1245555726203,92.75986385209455 Z" fill="none" stroke="#0F52BA" stroke-width="1.4043848518768254" /><path d="M 509.65424774693855,72.46356758874654 L 518.5195312399952,92.75986385209455 L 539.1398820358613,84.67691720639151 L 531.0569353901583,105.29726800225758 L 551.3532316535062,114.16255149531423 L 531.0569353901583,123.02783498837088 L 539.1398820358613,143.64818578423697 L 518.5195312399952,135.5652391385339 L 509.65424774693855,155.86153540188192 L 500.7889642538819,135.5652391385339 L 480.16861345801584,143.64818578423697 L 488.2515601037189,123.0278349883709 L 467.95526384037083,114.16255149531423 L 488.2515601037189,105.29726800225758 L 480.1686134580158,84.67691720639151 L 500.7889642538819,92.75986385209455 Z" fill="none" stroke="#0F52BA" stroke-width="1.4043848518768254" /><path d="M 602.3186564282,72.46356758874654 L 611.1839399212566,92.75986385209455 L 631.8042907171227,84.67691720639151 L 623.7213440714197,105.29726800225758 L 644.0176403347677,114.16255149531423 L 623.7213440714197,123.02783498837088 L 631.8042907171227,143.64818578423697 L 611.1839399212566,135.5652391385339 L 602.3186564282,155.86153540188192 L 593.4533729351434,135.5652391385339 L 572.8330221392773,143.64818578423697 L 580.9159687849804,123.0278349883709 L 560.6196725216323,114.16255149531423 L 580.9159687849804,105.29726800225758 L 572.8330221392773,84.67691720639151 L 593.4533729351434,92.75986385209455 Z" fill="none" stroke="#0F52BA" stroke-width="1.4043848518768254" /><path d="M 2.5533263584437564e-15,152.71094550671904 L 8.86528349305665,173.00724177006705 L 29.485634288922732,164.924295124364 L 21.402687643219686,185.5446459202301 L 41.6989839065677,194.40992941328673 L 21.402687643219686,203.27521290634337 L 29.485634288922732,223.89556370220947 L 8.86528349305665,215.8126170565064 L 2.5533263584437564e-15,236.10891331985442 L -8.865283493056646,215.8126170565064 L -29.48563428892273,223.89556370220947 L -21.40268764321968,203.2752129063434 L -41.6989839065677,194.40992941328673 L -21.402687643219682,185.54464592023007 L -29.48563428892274,164.924295124364 L -8.86528349305666,173.00724177006705 Z" fill="none" stroke="#0F52BA" stroke-width="1.4043848518768254" /><path d="M 92.66440868126155,152.71094550671904 L 101.5296921743182,173.00724177006705 L 122.15004297018427,164.924295124364 L 114.06709632448124,185.5446459202301 L 134.36339258782925,194.40992941328673 L 114.06709632448124,203.27521290634337 L 122.15004297018427,223.89556370220947 L 101.5296921743182,215.8126170565064 L 92.66440868126155,236.10891331985442 L 83.7991251882049,215.8126170565064 L 63.17877439233882,223.89556370220947 L 71.26172103804187,203.2752129063434 L 50.96542477469385,194.40992941328673 L 71.26172103804187,185.54464592023007 L 63.17877439233881,164.924295124364 L 83.79912518820488,173.00724177006705 Z" fill="none" stroke="#0F52BA" stroke-width="1.4043848518768254" /><path d="M 185.3288173625231,152.71094550671904 L 194.19410085557973,173.00724177006705 L 214.81445165144584,164.924295124364 L 206.73150500574278,185.5446459202301 L 227.0278012690908,194.40992941328673 L 206.73150500574278,203.27521290634337 L 214.81445165144584,223.89556370220947 L 194.19410085557973,215.8126170565064 L 185.3288173625231,236.10891331985442 L 176.46353386946646,215.8126170565064 L 155.84318307360036,223.89556370220947 L 163.92612971930342,203.2752129063434 L 143.6298334559554,194.40992941328673 L 163.92612971930342,185.54464592023007 L 155.84318307360036,164.924295124364 L 176.46353386946643,173.00724177006705 Z" fill="none" stroke="#0F52BA" stroke-width="1.4043848518768254" /><path d="M 277.99322604378466,152.71094550671904 L 286.8585095368413,173.00724177006705 L 307.47886033270737,164.924295124364 L 299.39591368700434,185.5446459202301 L 319.6922099503524,194.40992941328673 L 299.39591368700434,203.27521290634337 L 307.47886033270737,223.89556370220947 L 286.8585095368413,215.8126170565064 L 277.99322604378466,236.10891331985442 L 269.127942550728,215.8126170565064 L 248.50759175486192,223.89556370220947 L 256.590538400565,203.2752129063434 L 236.29424213721697,194.40992941328673 L 256.590538400565,185.54464592023007 L 248.50759175486192,164.924295124364 L 269.127942550728,173.00724177006705 Z" fill="none" stroke="#0F52BA" stroke-width="1.4043848518768254" /><path d="M 370.6576347250462,152.71094550671904 L 379.52291821810286,173.00724177006705 L 400.1432690139689,164.924295124364 L 392.0603223682659,185.5446459202301 L 412.3566186316139,194.40992941328673 L 392.0603223682659,203.27521290634337 L 400.1432690139689,223.89556370220947 L 379.52291821810286,215.8126170565064 L 370.6576347250462,236.10891331985442 L 361.7923512319895,215.8126170565064 L 341.1720004361235,223.89556370220947 L 349.2549470818265,203.2752129063434 L 328.9586508184785,194.40992941328673 L 349.2549470818265,185.54464592023007 L 341.1720004361234,164.924295124364 L 361.7923512319895,173.00724177006705 Z" fill="none" stroke="#0F52BA" stroke-width="1.4043848518768254" /><path d="M 463.3220434063077,152.71094550671904 L 472.1873268993644,173.00724177006705 L 492.80767769523044,164.924295124364 L 484.7247310495274,185.5446459202301 L 505.02102731287545,194.40992941328673 L 484.7247310495274,203.27521290634337 L 492.80767769523044,223.89556370220947 L 472.1873268993644,215.8126170565064 L 463.3220434063077,236.10891331985442 L 454.45675991325106,215.8126170565064 L 433.836409117385,223.89556370220947 L 441.91935576308805,203.2752129063434 L 421.62305949974,194.40992941328673 L 441.91935576308805,185.54464592023007 L 433.83640911738496,164.924295124364 L 454.45675991325106,173.00724177006705 Z" fill="none" stroke="#0F52BA" stroke-width="1.4043848518768254" /><path d="M 555.9864520875693,152.71094550671904 L 564.8517355806259,173.00724177006705 L 585.472086376492,164.924295124364 L 577.389139730789,185.5446459202301 L 597.685435994137,194.40992941328673 L 577.389139730789,203.27521290634337 L 585.472086376492,223.89556370220947 L 564.8517355806259,215.8126170565064 L 555.9864520875693,236.10891331985442 L 547.1211685945127,215.8126170565064 L 526.5008177986466,223.89556370220947 L 534.5837644443496,203.2752129063434 L 514.2874681810016,194.40992941328673 L 534.5837644443496,185.54464592023007 L 526.5008177986466,164.924295124364 L 547.1211685945127,173.00724177006705 Z" fill="none" stroke="#0F52BA" stroke-width="1.4043848518768254" /><path d="M -46.332204340630774,232.95832342469154 L -37.46692084757412,253.25461968803955 L -16.846570051708042,245.1716730423365 L -24.92951669741109,265.79202383820257 L -4.633220434063077,274.65730733125923 L -24.92951669741109,283.5225908243159 L -16.846570051708042,304.14294162018194 L -37.46692084757412,296.0599949744789 L -46.332204340630774,316.35629123782695 L -55.19748783368742,296.0599949744789 L -75.8178386295535,304.14294162018194 L -67.73489198385045,283.5225908243159 L -88.03118824719847,274.65730733125923 L -67.73489198385046,265.79202383820257 L -75.8178386295535,245.1716730423365 L -55.19748783368743,253.25461968803955 Z" fill="none" stroke="#0F52BA" stroke-width="1.4043848518768254" /><path d="M 46.332204340630774,232.95832342469154 L 55.197487833687426,253.25461968803955 L 75.8178386295535,245.1716730423365 L 67.73489198385046,265.79202383820257 L 88.03118824719847,274.65730733125923 L 67.73489198385046,283.5225908243159 L 75.8178386295535,304.14294162018194 L 55.197487833687426,296.0599949744789 L 46.332204340630774,316.35629123782695 L 37.46692084757413,296.0599949744789 L 16.846570051708046,304.14294162018194 L 24.929516697411096,283.5225908243159 L 4.633220434063077,274.65730733125923 L 24.929516697411092,265.79202383820257 L 16.846570051708035,245.1716730423365 L 37.466920847574116,253.25461968803955 Z" fill="none" stroke="#0F52BA" stroke-width="1.4043848518768254" /><path d="M 138.99661302189233,232.95832342469154 L 147.86189651494897,253.25461968803955 L 168.48224731081507,245.1716730423365 L 160.399300665112,265.79202383820257 L 180.69559692846002,274.65730733125923 L 160.399300665112,283.5225908243159 L 168.48224731081507,304.14294162018194 L 147.86189651494897,296.0599949744789 L 138.99661302189233,316.35629123782695 L 130.1313295288357,296.0599949744789 L 109.5109787329696,304.14294162018194 L 117.59392537867265,283.5225908243159 L 97.29762911532464,274.65730733125923 L 117.59392537867265,265.79202383820257 L 109.51097873296959,245.1716730423365 L 130.13132952883566,253.25461968803955 Z" fill="none" stroke="#0F52BA" stroke-width="1.4043848518768254" /><path d="M 231.6610217031539,232.95832342469154 L 240.52630519621053,253.25461968803955 L 261.1466559920766,245.1716730423365 L 253.06370934637357,265.79202383820257 L 273.3600056097216,274.65730733125923 L 253.06370934637357,283.5225908243159 L 261.1466559920766,304.14294162018194 L 240.52630519621053,296.0599949744789 L 231.6610217031539,316.35629123782695 L 222.79573821009726,296.0599949744789 L 202.17538741423115,304.14294162018194 L 210.2583340599342,283.5225908243159 L 189.9620377965862,274.65730733125923 L 210.2583340599342,265.79202383820257 L 202.17538741423115,245.1716730423365 L 222.79573821009723,253.25461968803955 Z" fill="none" stroke="#0F52BA" stroke-width="1.4043848518768254" /><path d="M 324.3254303844154,232.95832342469154 L 333.1907138774721,253.25461968803955 L 353.81106467333814,245.1716730423365 L 345.7281180276351,265.79202383820257 L 366.02441429098315,274.65730733125923 L 345.7281180276351,283.5225908243159 L 353.81106467333814,304.14294162018194 L 333.1907138774721,296.0599949744789 L 324.3254303844154,316.35629123782695 L 315.46014689135876,296.0599949744789 L 294.8397960954927,304.14294162018194 L 302.92274274119575,283.5225908243159 L 282.6264464778477,274.65730733125923 L 302.92274274119575,265.79202383820257 L 294.8397960954927,245.1716730423365 L 315.46014689135876,253.25461968803955 Z" fill="none" stroke="#0F52BA" stroke-width="1.4043848518768254" /><path d="M 416.98983906567696,232.95832342469154 L 425.8551225587336,253.25461968803955 L 446.47547335459967,245.1716730423365 L 438.39252670889664,265.79202383820257 L 458.6888229722447,274.65730733125923 L 438.39252670889664,283.5225908243159 L 446.47547335459967,304.14294162018194 L 425.8551225587336,296.0599949744789 L 416.98983906567696,316.35629123782695 L 408.1245555726203,296.0599949744789 L 387.50420477675425,304.14294162018194 L 395.5871514224573,283.5225908243159 L 375.29085515910924,274.65730733125923 L 395.5871514224573,265.79202383820257 L 387.50420477675425,245.1716730423365 L 408.1245555726203,253.25461968803955 Z" fill="none" stroke="#0F52BA" stroke-width="1.4043848518768254" /><path d="M 509.65424774693855,232.95832342469154 L 518.5195312399952,253.25461968803955 L 539.1398820358613,245.1716730423365 L 531.0569353901583,265.79202383820257 L 551.3532316535062,274.65730733125923 L 531.0569353901583,283.5225908243159 L 539.1398820358613,304.14294162018194 L 518.5195312399952,296.0599949744789 L 509.65424774693855,316.35629123782695 L 500.7889642538819,296.0599949744789 L 480.16861345801584,304.14294162018194 L 488.2515601037189,283.5225908243159 L 467.95526384037083,274.65730733125923 L 488.2515601037189,265.79202383820257 L 480.1686134580158,245.1716730423365 L 500.7889642538819,253.25461968803955 Z" fill="none" stroke="#0F52BA" stroke-width="1.4043848518768254" /><path d="M 602.3186564282,232.95832342469154 L 611.1839399212566,253.25461968803955 L 631.8042907171227,245.1716730423365 L 623.7213440714197,265.79202383820257 L 644.0176403347677,274.65730733125923 L 623.7213440714197,283.5225908243159 L 631.8042907171227,304.14294162018194 L 611.1839399212566,296.0599949744789 L 602.3186564282,316.35629123782695 L 593.4533729351434,296.0599949744789 L 572.8330221392773,304.14294162018194 L 580.9159687849804,283.5225908243159 L 560.6196725216323,274.65730733125923 L 580.9159687849804,265.79202383820257 L 572.8330221392773,245.1716730423365 L 593.4533729351434,253.25461968803955 Z" fill="none" stroke="#0F52BA" stroke-width="1.4043848518768254" /><path d="M 2.5533263584437564e-15,313.205701342664 L 8.86528349305665,333.501997606012 L 29.485634288922732,325.419050960309 L 21.402687643219686,346.03940175617504 L 41.6989839065677,354.9046852492317 L 21.402687643219686,363.76996874228837 L 29.485634288922732,384.3903195381544 L 8.86528349305665,376.3073728924514 L 2.5533263584437564e-15,396.6036691557994 L -8.865283493056646,376.3073728924514 L -29.48563428892273,384.3903195381544 L -21.40268764321968,363.76996874228837 L -41.6989839065677,354.9046852492317 L -21.402687643219682,346.03940175617504 L -29.48563428892274,325.419050960309 L -8.86528349305666,333.501997606012 Z" fill="none" stroke="#0F52BA" stroke-width="1.4043848518768254" /><path d="M 92.66440868126155,313.205701342664 L 101.5296921743182,333.501997606012 L 122.15004297018427,325.419050960309 L 114.06709632448124,346.03940175617504 L 134.36339258782925,354.9046852492317 L 114.06709632448124,363.76996874228837 L 122.15004297018427,384.3903195381544 L 101.5296921743182,376.3073728924514 L 92.66440868126155,396.6036691557994 L 83.7991251882049,376.3073728924514 L 63.17877439233882,384.3903195381544 L 71.26172103804187,363.76996874228837 L 50.96542477469385,354.9046852492317 L 71.26172103804187,346.03940175617504 L 63.17877439233881,325.419050960309 L 83.79912518820488,333.501997606012 Z" fill="none" stroke="#0F52BA" stroke-width="1.4043848518768254" /><path d="M 185.3288173625231,313.205701342664 L 194.19410085557973,333.501997606012 L 214.81445165144584,325.419050960309 L 206.73150500574278,346.03940175617504 L 227.0278012690908,354.9046852492317 L 206.73150500574278,363.76996874228837 L 214.81445165144584,384.3903195381544 L 194.19410085557973,376.3073728924514 L 185.3288173625231,396.6036691557994 L 176.46353386946646,376.3073728924514 L 155.84318307360036,384.3903195381544 L 163.92612971930342,363.76996874228837 L 143.6298334559554,354.9046852492317 L 163.92612971930342,346.03940175617504 L 155.84318307360036,325.419050960309 L 176.46353386946643,333.501997606012 Z" fill="none" stroke="#0F52BA" stroke-width="1.4043848518768254" /><path d="M 277.99322604378466,313.205701342664 L 286.8585095368413,333.501997606012 L 307.47886033270737,325.419050960309 L 299.39591368700434,346.03940175617504 L 319.6922099503524,354.9046852492317 L 299.39591368700434,363.76996874228837 L 307.47886033270737,384.3903195381544 L 286.8585095368413,376.3073728924514 L 277.99322604378466,396.6036691557994 L 269.127942550728,376.3073728924514 L 248.50759175486192,384.3903195381544 L 256.590538400565,363.76996874228837 L 236.29424213721697,354.9046852492317 L 256.590538400565,346.03940175617504 L 248.50759175486192,325.419050960309 L 269.127942550728,333.501997606012 Z" fill="none" stroke="#0F52BA" stroke-width="1.4043848518768254" /><path d="M 370.6576347250462,313.205701342664 L 379.52291821810286,333.501997606012 L 400.1432690139689,325.419050960309 L 392.0603223682659,346.03940175617504 L 412.3566186316139,354.9046852492317 L 392.0603223682659,363.76996874228837 L 400.1432690139689,384.3903195381544 L 379.52291821810286,376.3073728924514 L 370.6576347250462,396.6036691557994 L 361.7923512319895,376.3073728924514 L 341.1720004361235,384.3903195381544 L 349.2549470818265,363.76996874228837 L 328.9586508184785,354.9046852492317 L 349.2549470818265,346.03940175617504 L 341.1720004361234,325.419050960309 L 361.7923512319895,333.501997606012 Z" fill="none" stroke="#0F52BA" stroke-width="1.4043848518768254" /><path d="M 463.3220434063077,313.205701342664 L 472.1873268993644,333.501997606012 L 492.80767769523044,325.419050960309 L 484.7247310495274,346.03940175617504 L 505.02102731287545,354.9046852492317 L 484.7247310495274,363.76996874228837 L 492.80767769523044,384.3903195381544 L 472.1873268993644,376.3073728924514 L 463.3220434063077,396.6036691557994 L 454.45675991325106,376.3073728924514 L 433.836409117385,384.3903195381544 L 441.91935576308805,363.76996874228837 L 421.62305949974,354.9046852492317 L 441.91935576308805,346.03940175617504 L 433.83640911738496,325.419050960309 L 454.45675991325106,333.501997606012 Z" fill="none" stroke="#0F52BA" stroke-width="1.4043848518768254" /><path d="M 555.9864520875693,313.205701342664 L 564.8517355806259,333.501997606012 L 585.472086376492,325.419050960309 L 577.389139730789,346.03940175617504 L 597.685435994137,354.9046852492317 L 577.389139730789,363.76996874228837 L 585.472086376492,384.3903195381544 L 564.8517355806259,376.3073728924514 L 555.9864520875693,396.6036691557994 L 547.1211685945127,376.3073728924514 L 526.5008177986466,384.3903195381544 L 534.5837644443496,363.76996874228837 L 514.2874681810016,354.9046852492317 L 534.5837644443496,346.03940175617504 L 526.5008177986466,325.419050960309 L 547.1211685945127,333.501997606012 Z" fill="none" stroke="#0F52BA" stroke-width="1.4043848518768254" /><path d="M -46.332204340630774,393.4530792606365 L -37.46692084757412,413.74937552398455 L -16.846570051708042,405.6664288782815 L -24.92951669741109,426.28677967414757 L -4.633220434063077,435.15206316720423 L -24.92951669741109,444.0173466602609 L -16.846570051708042,464.63769745612694 L -37.46692084757412,456.5547508104239 L -46.332204340630774,476.85104707377195 L -55.19748783368742,456.5547508104239 L -75.8178386295535,464.63769745612694 L -67.73489198385045,444.0173466602609 L -88.03118824719847,435.15206316720423 L -67.73489198385046,426.28677967414757 L -75.8178386295535,405.6664288782815 L -55.19748783368743,413.74937552398455 Z" fill="none" stroke="#0F52BA" stroke-width="1.4043848518768254" /><path d="M 46.332204340630774,393.4530792606365 L 55.197487833687426,413.74937552398455 L 75.8178386295535,405.6664288782815 L 67.73489198385046,426.28677967414757 L 88.03118824719847,435.15206316720423 L 67.73489198385046,444.0173466602609 L 75.8178386295535,464.63769745612694 L 55.197487833687426,456.5547508104239 L 46.332204340630774,476.85104707377195 L 37.46692084757413,456.5547508104239 L 16.846570051708046,464.63769745612694 L 24.929516697411096,444.0173466602609 L 4.633220434063077,435.15206316720423 L 24.929516697411092,426.28677967414757 L 16.846570051708035,405.6664288782815 L 37.466920847574116,413.74937552398455 Z" fill="none" stroke="#0F52BA" stroke-width="1.4043848518768254" /><path d="M 138.99661302189233,393.4530792606365 L 147.86189651494897,413.74937552398455 L 168.48224731081507,405.6664288782815 L 160.399300665112,426.28677967414757 L 180.69559692846002,435.15206316720423 L 160.399300665112,444.0173466602609 L 168.48224731081507,464.63769745612694 L 147.86189651494897,456.5547508104239 L 138.99661302189233,476.85104707377195 L 130.1313295288357,456.5547508104239 L 109.5109787329696,464.63769745612694 L 117.59392537867265,444.0173466602609 L 97.29762911532464,435.15206316720423 L 117.59392537867265,426.28677967414757 L 109.51097873296959,405.6664288782815 L 130.13132952883566,413.74937552398455 Z" fill="none" stroke="#0F52BA" stroke-width="1.4043848518768254" /><path d="M 231.6610217031539,393.4530792606365 L 240.52630519621053,413.74937552398455 L 261.1466559920766,405.6664288782815 L 253.06370934637357,426.28677967414757 L 273.3600056097216,435.15206316720423 L 253.06370934637357,444.0173466602609 L 261.1466559920766,464.63769745612694 L 240.52630519621053,456.5547508104239 L 231.6610217031539,476.85104707377195 L 222.79573821009726,456.5547508104239 L 202.17538741423115,464.63769745612694 L 210.2583340599342,444.0173466602609 L 189.9620377965862,435.15206316720423 L 210.2583340599342,426.28677967414757 L 202.17538741423115,405.6664288782815 L 222.79573821009723,413.74937552398455 Z" fill="none" stroke="#0F52BA" stroke-width="1.4043848518768254" /><path d="M 324.3254303844154,393.4530792606365 L 333.1907138774721,413.74937552398455 L 353.81106467333814,405.6664288782815 L 345.7281180276351,426.28677967414757 L 366.02441429098315,435.15206316720423 L 345.7281180276351,444.0173466602609 L 353.81106467333814,464.63769745612694 L 333.1907138774721,456.5547508104239 L 324.3254303844154,476.85104707377195 L 315.46014689135876,456.5547508104239 L 294.8397960954927,464.63769745612694 L 302.92274274119575,444.0173466602609 L 282.6264464778477,435.15206316720423 L 302.92274274119575,426.28677967414757 L 294.8397960954927,405.6664288782815 L 315.46014689135876,413.74937552398455 Z" fill="none" stroke="#0F52BA" stroke-width="1.4043848518768254" /><path d="M 416.98983906567696,393.4530792606365 L 425.8551225587336,413.74937552398455 L 446.47547335459967,405.6664288782815 L 438.39252670889664,426.28677967414757 L 458.6888229722447,435.15206316720423 L 438.39252670889664,444.0173466602609 L 446.47547335459967,464.63769745612694 L 425.8551225587336,456.5547508104239 L 416.98983906567696,476.85104707377195 L 408.1245555726203,456.5547508104239 L 387.50420477675425,464.63769745612694 L 395.5871514224573,444.0173466602609 L 375.29085515910924,435.15206316720423 L 395.5871514224573,426.28677967414757 L 387.50420477675425,405.6664288782815 L 408.1245555726203,413.74937552398455 Z" fill="none" stroke="#0F52BA" stroke-width="1.4043848518768254" /><path d="M 509.65424774693855,393.4530792606365 L 518.5195312399952,413.74937552398455 L 539.1398820358613,405.6664288782815 L 531.0569353901583,426.28677967414757 L 551.3532316535062,435.15206316720423 L 531.0569353901583,444.0173466602609 L 539.1398820358613,464.63769745612694 L 518.5195312399952,456.5547508104239 L 509.65424774693855,476.85104707377195 L 500.7889642538819,456.5547508104239 L 480.16861345801584,464.63769745612694 L 488.2515601037189,444.0173466602609 L 467.95526384037083,435.15206316720423 L 488.2515601037189,426.28677967414757 L 480.1686134580158,405.6664288782815 L 500.7889642538819,413.74937552398455 Z" fill="none" stroke="#0F52BA" stroke-width="1.4043848518768254" /><path d="M 602.3186564282,393.4530792606365 L 611.1839399212566,413.74937552398455 L 631.8042907171227,405.6664288782815 L 623.7213440714197,426.28677967414757 L 644.0176403347677,435.15206316720423 L 623.7213440714197,444.0173466602609 L 631.8042907171227,464.63769745612694 L 611.1839399212566,456.5547508104239 L 602.3186564282,476.85104707377195 L 593.4533729351434,456.5547508104239 L 572.8330221392773,464.63769745612694 L 580.9159687849804,444.0173466602609 L 560.6196725216323,435.15206316720423 L 580.9159687849804,426.28677967414757 L 572.8330221392773,405.6664288782815 L 593.4533729351434,413.74937552398455 Z" fill="none" stroke="#0F52BA" stroke-width="1.4043848518768254" /><path d="M 2.5533263584437564e-15,473.700457178609 L 8.86528349305665,493.996753441957 L 29.485634288922732,485.913806796254 L 21.402687643219686,506.53415759212004 L 41.6989839065677,515.3994410851767 L 21.402687643219686,524.2647245782333 L 29.485634288922732,544.8850753740994 L 8.86528349305665,536.8021287283964 L 2.5533263584437564e-15,557.0984249917444 L -8.865283493056646,536.8021287283964 L -29.48563428892273,544.8850753740994 L -21.40268764321968,524.2647245782333 L -41.6989839065677,515.3994410851767 L -21.402687643219682,506.53415759212004 L -29.48563428892274,485.913806796254 L -8.86528349305666,493.996753441957 Z" fill="none" stroke="#0F52BA" stroke-width="1.4043848518768254" /><path d="M 92.66440868126155,473.700457178609 L 101.5296921743182,493.996753441957 L 122.15004297018427,485.913806796254 L 114.06709632448124,506.53415759212004 L 134.36339258782925,515.3994410851767 L 114.06709632448124,524.2647245782333 L 122.15004297018427,544.8850753740994 L 101.5296921743182,536.8021287283964 L 92.66440868126155,557.0984249917444 L 83.7991251882049,536.8021287283964 L 63.17877439233882,544.8850753740994 L 71.26172103804187,524.2647245782333 L 50.96542477469385,515.3994410851767 L 71.26172103804187,506.53415759212004 L 63.17877439233881,485.913806796254 L 83.79912518820488,493.996753441957 Z" fill="none" stroke="#0F52BA" stroke-width="1.4043848518768254" /><path d="M 185.3288173625231,473.700457178609 L 194.19410085557973,493.996753441957 L 214.81445165144584,485.913806796254 L 206.73150500574278,506.53415759212004 L 227.0278012690908,515.3994410851767 L 206.73150500574278,524.2647245782333 L 214.81445165144584,544.8850753740994 L 194.19410085557973,536.8021287283964 L 185.3288173625231,557.0984249917444 L 176.46353386946646,536.8021287283964 L 155.84318307360036,544.8850753740994 L 163.92612971930342,524.2647245782333 L 143.6298334559554,515.3994410851767 L 163.92612971930342,506.53415759212004 L 155.84318307360036,485.913806796254 L 176.46353386946643,493.996753441957 Z" fill="none" stroke="#0F52BA" stroke-width="1.4043848518768254" /><path d="M 277.99322604378466,473.700457178609 L 286.8585095368413,493.996753441957 L 307.47886033270737,485.913806796254 L 299.39591368700434,506.53415759212004 L 319.6922099503524,515.3994410851767 L 299.39591368700434,524.2647245782333 L 307.47886033270737,544.8850753740994 L 286.8585095368413,536.8021287283964 L 277.99322604378466,557.0984249917444 L 269.127942550728,536.8021287283964 L 248.50759175486192,544.8850753740994 L 256.590538400565,524.2647245782333 L 236.29424213721697,515.3994410851767 L 256.590538400565,506.53415759212004 L 248.50759175486192,485.913806796254 L 269.127942550728,493.996753441957 Z" fill="none" stroke="#0F52BA" stroke-width="1.4043848518768254" /><path d="M 370.6576347250462,473.700457178609 L 379.52291821810286,493.996753441957 L 400.1432690139689,485.913806796254 L 392.0603223682659,506.53415759212004 L 412.3566186316139,515.3994410851767 L 392.0603223682659,524.2647245782333 L 400.1432690139689,544.8850753740994 L 379.52291821810286,536.8021287283964 L 370.6576347250462,557.0984249917444 L 361.7923512319895,536.8021287283964 L 341.1720004361235,544.8850753740994 L 349.2549470818265,524.2647245782333 L 328.9586508184785,515.3994410851767 L 349.2549470818265,506.53415759212004 L 341.1720004361234,485.913806796254 L 361.7923512319895,493.996753441957 Z" fill="none" stroke="#0F52BA" stroke-width="1.4043848518768254" /><path d="M 463.3220434063077,473.700457178609 L 472.1873268993644,493.996753441957 L 492.80767769523044,485.913806796254 L 484.7247310495274,506.53415759212004 L 505.02102731287545,515.3994410851767 L 484.7247310495274,524.2647245782333 L 492.80767769523044,544.8850753740994 L 472.1873268993644,536.8021287283964 L 463.3220434063077,557.0984249917444 L 454.45675991325106,536.8021287283964 L 433.836409117385,544.8850753740994 L 441.91935576308805,524.2647245782333 L 421.62305949974,515.3994410851767 L 441.91935576308805,506.53415759212004 L 433.83640911738496,485.913806796254 L 454.45675991325106,493.996753441957 Z" fill="none" stroke="#0F52BA" stroke-width="1.4043848518768254" /><path d="M 555.9864520875693,473.700457178609 L 564.8517355806259,493.996753441957 L 585.472086376492,485.913806796254 L 577.389139730789,506.53415759212004 L 597.685435994137,515.3994410851767 L 577.389139730789,524.2647245782333 L 585.472086376492,544.8850753740994 L 564.8517355806259,536.8021287283964 L 555.9864520875693,557.0984249917444 L 547.1211685945127,536.8021287283964 L 526.5008177986466,544.8850753740994 L 534.5837644443496,524.2647245782333 L 514.2874681810016,515.3994410851767 L 534.5837644443496,506.53415759212004 L 526.5008177986466,485.913806796254 L 547.1211685945127,493.996753441957 Z" fill="none" stroke="#0F52BA" stroke-width="1.4043848518768254" /><line x1="41.6989839065677" y1="33.915173577341726" x2="50.96542477469385" y2="33.915173577341726" stroke="#0F52BA" stroke-width="0.5"/><line x1="134.36339258782925" y1="33.915173577341726" x2="143.6298334559554" y2="33.915173577341726" stroke="#0F52BA" stroke-width="0.5"/><line x1="227.0278012690908" y1="33.915173577341726" x2="236.29424213721697" y2="33.915173577341726" stroke="#0F52BA" stroke-width="0.5"/><line x1="319.6922099503524" y1="33.915173577341726" x2="328.9586508184785" y2="33.915173577341726" stroke="#0F52BA" stroke-width="0.5"/><line x1="412.3566186316139" y1="33.915173577341726" x2="421.62305949974" y2="33.915173577341726" stroke="#0F52BA" stroke-width="0.5"/><line x1="88.03118824719847" y1="114.16255149531423" x2="97.29762911532464" y2="114.16255149531423" stroke="#0F52BA" stroke-width="0.5"/><line x1="180.69559692846002" y1="114.16255149531423" x2="189.9620377965862" y2="114.16255149531423" stroke="#0F52BA" stroke-width="0.5"/><line x1="273.3600056097216" y1="114.16255149531423" x2="282.6264464778477" y2="114.16255149531423" stroke="#0F52BA" stroke-width="0.5"/><line x1="366.02441429098315" y1="114.16255149531423" x2="375.29085515910924" y2="114.16255149531423" stroke="#0F52BA" stroke-width="0.5"/><line x1="458.6888229722447" y1="114.16255149531423" x2="467.95526384037083" y2="114.16255149531423" stroke="#0F52BA" stroke-width="0.5"/><line x1="41.6989839065677" y1="194.40992941328673" x2="50.96542477469385" y2="194.40992941328673" stroke="#0F52BA" stroke-width="0.5"/><line x1="134.36339258782925" y1="194.40992941328673" x2="143.6298334559554" y2="194.40992941328673" stroke="#0F52BA" stroke-width="0.5"/><line x1="227.0278012690908" y1="194.40992941328673" x2="236.29424213721697" y2="194.40992941328673" stroke="#0F52BA" stroke-width="0.5"/><line x1="319.6922099503524" y1="194.40992941328673" x2="328.9586508184785" y2="194.40992941328673" stroke="#0F52BA" stroke-width="0.5"/><line x1="412.3566186316139" y1="194.40992941328673" x2="421.62305949974" y2="194.40992941328673" stroke="#0F52BA" stroke-width="0.5"/><line x1="88.03118824719847" y1="274.65730733125923" x2="97.29762911532464" y2="274.65730733125923" stroke="#0F52BA" stroke-width="0.5"/><line x1="180.69559692846002" y1="274.65730733125923" x2="189.9620377965862" y2="274.65730733125923" stroke="#0F52BA" stroke-width="0.5"/><line x1="273.3600056097216" y1="274.65730733125923" x2="282.6264464778477" y2="274.65730733125923" stroke="#0F52BA" stroke-width="0.5"/><line x1="366.02441429098315" y1="274.65730733125923" x2="375.29085515910924" y2="274.65730733125923" stroke="#0F52BA" stroke-width="0.5"/><line x1="458.6888229722447" y1="274.65730733125923" x2="467.95526384037083" y2="274.65730733125923" stroke="#0F52BA" stroke-width="0.5"/><line x1="41.6989839065677" y1="354.9046852492317" x2="50.96542477469385" y2="354.9046852492317" stroke="#0F52BA" stroke-width="0.5"/><line x1="134.36339258782925" y1="354.9046852492317" x2="143.6298334559554" y2="354.9046852492317" stroke="#0F52BA" stroke-width="0.5"/><line x1="227.0278012690908" y1="354.9046852492317" x2="236.29424213721697" y2="354.9046852492317" stroke="#0F52BA" stroke-width="0.5"/><line x1="319.6922099503524" y1="354.9046852492317" x2="328.9586508184785" y2="354.9046852492317" stroke="#0F52BA" stroke-width="0.5"/><line x1="412.3566186316139" y1="354.9046852492317" x2="421.62305949974" y2="354.9046852492317" stroke="#0F52BA" stroke-width="0.5"/><line x1="88.03118824719847" y1="435.15206316720423" x2="97.29762911532464" y2="435.15206316720423" stroke="#0F52BA" stroke-width="0.5"/><line x1="180.69559692846002" y1="435.15206316720423" x2="189.9620377965862" y2="435.15206316720423" stroke="#0F52BA" stroke-width="0.5"/><line x1="273.3600056097216" y1="435.15206316720423" x2="282.6264464778477" y2="435.15206316720423" stroke="#0F52BA" stroke-width="0.5"/><line x1="366.02441429098315" y1="435.15206316720423" x2="375.29085515910924" y2="435.15206316720423" stroke="#0F52BA" stroke-width="0.5"/><line x1="458.6888229722447" y1="435.15206316720423" x2="467.95526384037083" y2="435.15206316720423" stroke="#0F52BA" stroke-width="0.5"/></g></svg>