<svg xmlns="http://www.w3.org/2000/svg" width="512" height="512" viewBox="0 0 512 512"><rect x="0" y="0" width="512" height="512" fill="#000000"/><g opacity="0.1421196818780711"><path d="M -64.37874155124278,-122.31960894736129 L -52.06040265715548,-94.11784237525634 L -23.408361307616843,-105.34912179486872 L -34.63964072722922,-76.69708044533009 L -6.437874155124277,-64.37874155124278 L -34.63964072722922,-52.06040265715548 L -23.408361307616843,-23.40836130761685 L -52.06040265715548,-34.63964072722922 L -64.37874155124278,-6.437874155124277 L -76.69708044533009,-34.63964072722922 L -105.34912179486872,-23.408361307616843 L -94.11784237525634,-52.060402657155464 L -122.31960894736129,-64.37874155124278 L -94.11784237525634,-76.6970804453301 L -105.34912179486872,-105.34912179486872 L -76.6970804453301,-94.11784237525634 Z" fill="none" stroke="#00A86B" stroke-width="2.48262691590126" /><path d="M 64.37874155124278,-122.31960894736129 L 76.69708044533009,-94.11784237525634 L 105.34912179486872,-105.34912179486872 L 94.11784237525634,-76.69708044533009 L 122.31960894736129,-64.37874155124278 L 94.11784237525634,-52.06040265715548 L 105.34912179486872,-23.40836130761685 L 76.69708044533009,-34.63964072722922 L 64.37874155124278,-6.437874155124277 L 52.06040265715548,-34.63964072722922 L 23.40836130761685,-23.408361307616843 L 34.63964072722922,-52.060402657155464 L 6.437874155124277,-64.37874155124278 L 34.63964072722922,-76.6970804453301 L 23.408361307616836,-105.34912179486872 L 52.06040265715546,-94.11784237525634 Z" fill="none" stroke="#00A86B" stroke-width="2.48262691590126" /><path d="M 193.13622465372833,-122.31960894736129 L 205.45456354781564,-94.11784237525634 L 234.10660489735426,-105.34912179486872 L 222.8753254777419,-76.69708044533009 L 251.07709204984684,-64.37874155124278 L 222.8753254777419,-52.06040265715548 L 234.10660489735426,-23.40836130761685 L 205.45456354781564,-34.63964072722922 L 193.13622465372833,-6.437874155124277 L 180.81788575964103,-34.63964072722922 L 152.1658444101024,-23.408361307616843 L 163.3971238297148,-52.060402657155464 L 135.19535725760983,-64.37874155124278 L 163.39712382971476,-76.6970804453301 L 152.16584441010238,-105.34912179486872 L 180.817885759641,-94.11784237525634 Z" fill="none" stroke="#00A86B" stroke-width="2.48262691590126" /><path d="M 321.89370775621387,-122.31960894736129 L 334.2120466503012,-94.11784237525634 L 362.8640879998398,-105.34912179486872 L 351.63280858022745,-76.69708044533009 L 379.8345751523324,-64.37874155124278 L 351.63280858022745,-52.06040265715548 L 362.8640879998398,-23.40836130761685 L 334.2120466503012,-34.63964072722922 L 321.89370775621387,-6.437874155124277 L 309.57536886212654,-34.63964072722922 L 280.92332751258795,-23.408361307616843 L 292.1546069322003,-52.060402657155464 L 263.95284036009537,-64.37874155124278 L 292.1546069322003,-76.6970804453301 L 280.92332751258795,-105.34912179486872 L 309.57536886212654,-94.11784237525634 Z" fill="none" stroke="#00A86B" stroke-width="2.48262691590126" /><path d="M 450.65119085869947,-122.31960894736129 L 462.9695297527868,-94.11784237525634 L 491.6215711023254,-105.34912179486872 L 480.39029168271304,-76.69708044533009 L 508.59205825481797,-64.37874155124278 L 480.39029168271304,-52.06040265715548 L 491.6215711023254,-23.40836130761685 L 462.9695297527868,-34.63964072722922 L 450.65119085869947,-6.437874155124277 L 438.33285196461213,-34.63964072722922 L 409.68081061507354,-23.408361307616843 L 420.9120900346859,-52.060402657155464 L 392.71032346258096,-64.37874155124278 L 420.9120900346859,-76.6970804453301 L 409.68081061507354,-105.34912179486872 L 438.33285196461213,-94.11784237525634 Z" fill="none" stroke="#00A86B" stroke-width="2.48262691590126" /><path d="M 579.4086739611851,-122.31960894736129 L 591.7270128552724,-94.11784237525634 L 620.379054204811,-105.34912179486872 L 609.1477747851986,-76.69708044533009 L 637.3495413573036,-64.37874155124278 L 609.1477747851986,-52.06040265715548 L 620.379054204811,-23.40836130761685 L 591.7270128552724,-34.63964072722922 L 579.4086739611851,-6.437874155124277 L 567.0903350670977,-34.63964072722922 L 538.4382937175591,-23.408361307616843 L 549.6695731371715,-52.060402657155464 L 521.4678065650666,-64.37874155124278 L 549.6695731371715,-76.6970804453301 L 538.4382937175591,-105.34912179486872 L 567.0903350670977,-94.11784237525634 Z" fill="none" stroke="#00A86B" stroke-width="2.48262691590126" /><path d="M 3.547854889823888e-15,-10.815628580608788 L 12.318338894087308,17.386137991496152 L 40.97038024362594,6.154858571883786 L 29.739100824013565,34.80689992142241 L 57.940867396118506,47.12523881550972 L 29.739100824013565,59.44357770959702 L 40.97038024362594,88.09561905913566 L 12.318338894087308,76.86433963952328 L 3.547854889823888e-15,105.06610621162822 L -12.318338894087304,76.86433963952328 L -40.97038024362593,88.09561905913566 L -29.73910082401356,59.44357770959704 L -57.940867396118506,47.125238815509725 L -29.739100824013562,34.8068999214224 L -40.97038024362595,6.154858571883786 L -12.318338894087324,17.38613799149616 Z" fill="none" stroke="#00A86B" stroke-width="2.48262691590126" /><path d="M 128.75748310248557,-10.815628580608788 L 141.07582199657287,17.386137991496152 L 169.72786334611152,6.154858571883786 L 158.49658392649914,34.80689992142241 L 186.69835049860407,47.12523881550972 L 158.49658392649914,59.44357770959702 L 169.72786334611152,88.09561905913566 L 141.07582199657287,76.86433963952328 L 128.75748310248557,105.06610621162822 L 116.43914420839826,76.86433963952328 L 87.78710285885964,88.09561905913566 L 99.018382278472,59.44357770959704 L 70.81661570636706,47.125238815509725 L 99.018382278472,34.8068999214224 L 87.78710285885961,6.154858571883786 L 116.43914420839825,17.38613799149616 Z" fill="none" stroke="#00A86B" stroke-width="2.48262691590126" /><path d="M 257.51496620497113,-10.815628580608788 L 269.83330509905846,17.386137991496152 L 298.48534644859706,6.154858571883786 L 287.2540670289847,34.80689992142241 L 315.45583360108964,47.12523881550972 L 287.2540670289847,59.44357770959702 L 298.48534644859706,88.09561905913566 L 269.83330509905846,76.86433963952328 L 257.51496620497113,105.06610621162822 L 245.19662731088383,76.86433963952328 L 216.5445859613452,88.09561905913566 L 227.77586538095758,59.44357770959704 L 199.57409880885263,47.125238815509725 L 227.77586538095755,34.8068999214224 L 216.54458596134518,6.154858571883786 L 245.1966273108838,17.38613799149616 Z" fill="none" stroke="#00A86B" stroke-width="2.48262691590126" /><path d="M 386.27244930745667,-10.815628580608788 L 398.590788201544,17.386137991496152 L 427.2428295510826,6.154858571883786 L 416.01155013147024,34.80689992142241 L 444.2133167035752,47.12523881550972 L 416.01155013147024,59.44357770959702 L 427.2428295510826,88.09561905913566 L 398.590788201544,76.86433963952328 L 386.27244930745667,105.06610621162822 L 373.95411041336934,76.86433963952328 L 345.30206906383074,88.09561905913566 L 356.5333484834431,59.44357770959704 L 328.33158191133816,47.125238815509725 L 356.5333484834431,34.8068999214224 L 345.30206906383074,6.154858571883786 L 373.95411041336934,17.38613799149616 Z" fill="none" stroke="#00A86B" stroke-width="2.48262691590126" /><path d="M 515.0299324099423,-10.815628580608788 L 527.3482713040296,17.386137991496152 L 556.0003126535682,6.154858571883786 L 544.7690332339558,34.80689992142241 L 572.9707998060608,47.12523881550972 L 544.7690332339558,59.44357770959702 L 556.0003126535682,88.09561905913566 L 527.3482713040296,76.86433963952328 L 515.0299324099423,105.06610621162822 L 502.71159351585493,76.86433963952328 L 474.05955216631634,88.09561905913566 L 485.2908315859287,59.44357770959704 L 457.08906501382376,47.125238815509725 L 485.2908315859287,34.8068999214224 L 474.05955216631634,6.154858571883786 L 502.71159351585493,17.38613799149616 Z" fill="none" stroke="#00A86B" stroke-width="2.48262691590126" /><path d="M -64.37874155124278,100.6883517861437 L -52.06040265715548,128.89011835824863 L -23.408361307616843,117.65883893863628 L -34.63964072722922,146.3108802881749 L -6.437874155124277,158.6292191822622 L -34.63964072722922,170.9475580763495 L -23.408361307616843,199.59959942588813 L -52.06040265715548,188.36832000627578 L -64.37874155124278,216.5700865783807 L -76.69708044533009,188.36832000627578 L -105.34912179486872,199.59959942588813 L -94.11784237525634,170.94755807634954 L -122.31960894736129,158.6292191822622 L -94.11784237525634,146.3108802881749 L -105.34912179486872,117.65883893863628 L -76.6970804453301,128.89011835824866 Z" fill="none" stroke="#00A86B" stroke-width="2.48262691590126" /><path d="M 64.37874155124278,100.6883517861437 L 76.69708044533009,128.89011835824863 L 105.34912179486872,117.65883893863628 L 94.11784237525634,146.3108802881749 L 122.31960894736129,158.6292191822622 L 94.11784237525634,170.9475580763495 L 105.34912179486872,199.59959942588813 L 76.69708044533009,188.36832000627578 L 64.37874155124278,216.5700865783807 L 52.06040265715548,188.36832000627578 L 23.40836130761685,199.59959942588813 L 34.63964072722922,170.94755807634954 L 6.437874155124277,158.6292191822622 L 34.63964072722922,146.3108802881749 L 23.408361307616836,117.65883893863628 L 52.06040265715546,128.89011835824866 Z" fill="none" stroke="#00A86B" stroke-width="2.48262691590126" /><path d="M 193.13622465372833,100.6883517861437 L 205.45456354781564,128.89011835824863 L 234.10660489735426,117.65883893863628 L 222.8753254777419,146.3108802881749 L 251.07709204984684,158.6292191822622 L 222.8753254777419,170.9475580763495 L 234.10660489735426,199.59959942588813 L 205.45456354781564,188.36832000627578 L 193.13622465372833,216.5700865783807 L 180.81788575964103,188.36832000627578 L 152.1658444101024,199.59959942588813 L 163.3971238297148,170.94755807634954 L 135.19535725760983,158.6292191822622 L 163.39712382971476,146.3108802881749 L 152.16584441010238,117.65883893863628 L 180.817885759641,128.89011835824866 Z" fill="none" stroke="#00A86B" stroke-width="2.48262691590126" /><path d="M 321.89370775621387,100.6883517861437 L 334.2120466503012,128.89011835824863 L 362.8640879998398,117.65883893863628 L 351.63280858022745,146.3108802881749 L 379.8345751523324,158.6292191822622 L 351.63280858022745,170.9475580763495 L 362.8640879998398,199.59959942588813 L 334.2120466503012,188.36832000627578 L 321.89370775621387,216.5700865783807 L 309.57536886212654,188.36832000627578 L 280.92332751258795,199.59959942588813 L 292.1546069322003,170.94755807634954 L 263.95284036009537,158.6292191822622 L 292.1546069322003,146.3108802881749 L 280.92332751258795,117.65883893863628 L 309.57536886212654,128.89011835824866 Z" fill="none" stroke="#00A86B" stroke-width="2.48262691590126" /><path d="M 450.65119085869947,100.6883517861437 L 462.9695297527868,128.89011835824863 L 491.6215711023254,117.65883893863628 L 480.39029168271304,146.3108802881749 L 508.59205825481797,158.6292191822622 L 480.39029168271304,170.9475580763495 L 491.6215711023254,199.59959942588813 L 462.9695297527868,188.36832000627578 L 450.65119085869947,216.5700865783807 L 438.33285196461213,188.36832000627578 L 409.68081061507354,199.59959942588813 L 420.9120900346859,170.94755807634954 L 392.71032346258096,158.6292191822622 L 420.9120900346859,146.3108802881749 L 409.68081061507354,117.65883893863628 L 438.33285196461213,128.89011835824866 Z" fill="none" stroke="#00A86B" stroke-width="2.48262691590126" /><path d="M 579.4086739611851,100.6883517861437 L 591.7270128552724,128.89011835824863 L 620.379054204811,117.65883893863628 L 609.1477747851986,146.3108802881749 L 637.3495413573036,158.6292191822622 L 609.1477747851986,170.9475580763495 L 620.379054204811,199.59959942588813 L 591.7270128552724,188.36832000627578 L 579.4086739611851,216.5700865783807 L 567.0903350670977,188.36832000627578 L 538.4382937175591,199.59959942588813 L 549.6695731371715,170.94755807634954 L 521.4678065650666,158.6292191822622 L 549.6695731371715,146.3108802881749 L 538.4382937175591,117.65883893863628 L 567.0903350670977,128.89011835824866 Z" fill="none" stroke="#00A86B" stroke-width="2.48262691590126" /><path d="M 3.547854889823888e-15,212.19233215289614 L 12.318338894087308,240.39409872500107 L 40.97038024362594,229.16281930538872 L 29.739100824013565,257.8148606549273 L 57.940867396118506,270.13319954901465 L 29.739100824013565,282.451538443102 L 40.97038024362594,311.1035797926406 L 12.318338894087308,299.8723003730282 L 3.547854889823888e-15,328.07406694513315 L -12.318338894087304,299.8723003730282 L -40.97038024362593,311.1035797926406 L -29.73910082401356,282.451538443102 L -57.940867396118506,270.13319954901465 L -29.739100824013562,257.8148606549273 L -40.97038024362595,229.16281930538872 L -12.318338894087324,240.3940987250011 Z" fill="none" stroke="#00A86B" stroke-width="2.48262691590126" /><path d="M 128.75748310248557,212.19233215289614 L 141.07582199657287,240.39409872500107 L 169.72786334611152,229.16281930538872 L 158.49658392649914,257.8148606549273 L 186.69835049860407,270.13319954901465 L 158.49658392649914,282.451538443102 L 169.72786334611152,311.1035797926406 L 141.07582199657287,299.8723003730282 L 128.75748310248557,328.07406694513315 L 116.43914420839826,299.8723003730282 L 87.78710285885964,311.1035797926406 L 99.018382278472,282.451538443102 L 70.81661570636706,270.13319954901465 L 99.018382278472,257.8148606549273 L 87.78710285885961,229.16281930538872 L 116.43914420839825,240.3940987250011 Z" fill="none" stroke="#00A86B" stroke-width="2.48262691590126" /><path d="M 257.51496620497113,212.19233215289614 L 269.83330509905846,240.39409872500107 L 298.48534644859706,229.16281930538872 L 287.2540670289847,257.8148606549273 L 315.45583360108964,270.13319954901465 L 287.2540670289847,282.451538443102 L 298.48534644859706,311.1035797926406 L 269.83330509905846,299.8723003730282 L 257.51496620497113,328.07406694513315 L 245.19662731088383,299.8723003730282 L 216.5445859613452,311.1035797926406 L 227.77586538095758,282.451538443102 L 199.57409880885263,270.13319954901465 L 227.77586538095755,257.8148606549273 L 216.54458596134518,229.16281930538872 L 245.1966273108838,240.3940987250011 Z" fill="none" stroke="#00A86B" stroke-width="2.48262691590126" /><path d="M 386.27244930745667,212.19233215289614 L 398.590788201544,240.39409872500107 L 427.2428295510826,229.16281930538872 L 416.01155013147024,257.8148606549273 L 444.2133167035752,270.13319954901465 L 416.01155013147024,282.451538443102 L 427.2428295510826,311.1035797926406 L 398.590788201544,299.8723003730282 L 386.27244930745667,328.07406694513315 L 373.95411041336934,299.8723003730282 L 345.30206906383074,311.1035797926406 L 356.5333484834431,282.451538443102 L 328.33158191133816,270.13319954901465 L 356.5333484834431,257.8148606549273 L 345.30206906383074,229.16281930538872 L 373.95411041336934,240.3940987250011 Z" fill="none" stroke="#00A86B" stroke-width="2.48262691590126" /><path d="M 515.0299324099423,212.19233215289614 L 527.3482713040296,240.39409872500107 L 556.0003126535682,229.16281930538872 L 544.7690332339558,257.8148606549273 L 572.9707998060608,270.13319954901465 L 544.7690332339558,282.451538443102 L 556.0003126535682,311.1035797926406 L 527.3482713040296,299.8723003730282 L 515.0299324099423,328.07406694513315 L 502.71159351585493,299.8723003730282 L 474.05955216631634,311.1035797926406 L 485.2908315859287,282.451538443102 L 457.08906501382376,270.13319954901465 L 485.2908315859287,257.8148606549273 L 474.05955216631634,229.16281930538872 L 502.71159351585493,240.3940987250011 Z" fill="none" stroke="#00A86B" stroke-width="2.48262691590126" /><path d="M -64.37874155124278,323.6963125196487 L -52.06040265715548,351.89807909175363 L -23.408361307616843,340.6667996721413 L -34.63964072722922,369.3188410216799 L -6.437874155124277,381.6371799157672 L -34.63964072722922,393.95551880985454 L -23.408361307616843,422.60756015939313 L -52.06040265715548,411.3762807397808 L -64.37874155124278,439.5780473118857 L -76.69708044533009,411.3762807397808 L -105.34912179486872,422.60756015939313 L -94.11784237525634,393.95551880985454 L -122.31960894736129,381.6371799157672 L -94.11784237525634,369.3188410216799 L -105.34912179486872,340.6667996721413 L -76.6970804453301,351.89807909175363 Z" fill="none" stroke="#00A86B" stroke-width="2.48262691590126" /><path d="M 64.37874155124278,323.6963125196487 L 76.69708044533009,351.89807909175363 L 105.34912179486872,340.6667996721413 L 94.11784237525634,369.3188410216799 L 122.31960894736129,381.6371799157672 L 94.11784237525634,393.95551880985454 L 105.34912179486872,422.60756015939313 L 76.69708044533009,411.3762807397808 L 64.37874155124278,439.5780473118857 L 52.06040265715548,411.3762807397808 L 23.40836130761685,422.60756015939313 L 34.63964072722922,393.95551880985454 L 6.437874155124277,381.6371799157672 L 34.63964072722922,369.3188410216799 L 23.408361307616836,340.6667996721413 L 52.06040265715546,351.89807909175363 Z" fill="none" stroke="#00A86B" stroke-width="2.48262691590126" /><path d="M 193.13622465372833,323.6963125196487 L 205.45456354781564,351.89807909175363 L 234.10660489735426,340.6667996721413 L 222.8753254777419,369.3188410216799 L 251.07709204984684,381.6371799157672 L 222.8753254777419,393.95551880985454 L 234.10660489735426,422.60756015939313 L 205.45456354781564,411.3762807397808 L 193.13622465372833,439.5780473118857 L 180.81788575964103,411.3762807397808 L 152.1658444101024,422.60756015939313 L 163.3971238297148,393.95551880985454 L 135.19535725760983,381.6371799157672 L 163.39712382971476,369.3188410216799 L 152.16584441010238,340.6667996721413 L 180.817885759641,351.89807909175363 Z" fill="none" stroke="#00A86B" stroke-width="2.48262691590126" /><path d="M 321.89370775621387,323.6963125196487 L 334.2120466503012,351.89807909175363 L 362.8640879998398,340.6667996721413 L 351.63280858022745,369.3188410216799 L 379.8345751523324,381.6371799157672 L 351.63280858022745,393.95551880985454 L 362.8640879998398,422.60756015939313 L 334.2120466503012,411.3762807397808 L 321.89370775621387,439.5780473118857 L 309.57536886212654,411.3762807397808 L 280.92332751258795,422.60756015939313 L 292.1546069322003,393.95551880985454 L 263.95284036009537,381.6371799157672 L 292.1546069322003,369.3188410216799 L 280.92332751258795,340.6667996721413 L 309.57536886212654,351.89807909175363 Z" fill="none" stroke="#00A86B" stroke-width="2.48262691590126" /><path d="M 450.65119085869947,323.6963125196487 L 462.9695297527868,351.89807909175363 L 491.6215711023254,340.6667996721413 L 480.39029168271304,369.3188410216799 L 508.59205825481797,381.6371799157672 L 480.39029168271304,393.95551880985454 L 491.6215711023254,422.60756015939313 L 462.9695297527868,411.3762807397808 L 450.65119085869947,439.5780473118857 L 438.33285196461213,411.3762807397808 L 409.68081061507354,422.60756015939313 L 420.9120900346859,393.95551880985454 L 392.71032346258096,381.6371799157672 L 420.9120900346859,369.3188410216799 L 409.68081061507354,340.6667996721413 L 438.33285196461213,351.89807909175363 Z" fill="none" stroke="#00A86B" stroke-width="2.48262691590126" /><path d="M 579.4086739611851,323.6963125196487 L 591.7270128552724,351.89807909175363 L 620.379054204811,340.6667996721413 L 609.1477747851986,369.3188410216799 L 637.3495413573036,381.6371799157672 L 609.1477747851986,393.95551880985454 L 620.379054204811,422.60756015939313 L 591.7270128552724,411.3762807397808 L 579.4086739611851,439.5780473118857 L 567.0903350670977,411.3762807397808 L 538.4382937175591,422.60756015939313 L 549.6695731371715,393.95551880985454 L 521.4678065650666,381.6371799157672 L 549.6695731371715,369.3188410216799 L 538.4382937175591,340.6667996721413 L 567.0903350670977,351.89807909175363 Z" fill="none" stroke="#00A86B" stroke-width="2.48262691590126" /><path d="M 3.547854889823888e-15,435.20029288640126 L 12.318338894087308,463.4020594585062 L 40.97038024362594,452.17078003889384 L 29.739100824013565,480.82282138843243 L 57.940867396118506,493.14116028251976 L 29.739100824013565,505.4594991766071 L 40.97038024362594,534.1115405261457 L 12.318338894087308,522.8802611065333 L 3.547854889823888e-15,551.0820276786383 L -12.318338894087304,522.8802611065333 L -40.97038024362593,534.1115405261457 L -29.73910082401356,505.4594991766071 L -57.940867396118506,493.14116028251976 L -29.739100824013562,480.82282138843243 L -40.97038024362595,452.17078003889384 L -12.318338894087324,463.4020594585062 Z" fill="none" stroke="#00A86B" stroke-width="2.48262691590126" /><path d="M 128.75748310248557,435.20029288640126 L 141.07582199657287,463.4020594585062 L 169.72786334611152,452.17078003889384 L 158.49658392649914,480.82282138843243 L 186.69835049860407,493.14116028251976 L 158.49658392649914,505.4594991766071 L 169.72786334611152,534.1115405261457 L 141.07582199657287,522.8802611065333 L 128.75748310248557,551.0820276786383 L 116.43914420839826,522.8802611065333 L 87.78710285885964,534.1115405261457 L 99.018382278472,505.4594991766071 L 70.81661570636706,493.14116028251976 L 99.018382278472,480.82282138843243 L 87.78710285885961,452.17078003889384 L 116.43914420839825,463.4020594585062 Z" fill="none" stroke="#00A86B" stroke-width="2.48262691590126" /><path d="M 257.51496620497113,435.20029288640126 L 269.83330509905846,463.4020594585062 L 298.48534644859706,452.17078003889384 L 287.2540670289847,480.82282138843243 L 315.45583360108964,493.14116028251976 L 287.2540670289847,505.4594991766071 L 298.48534644859706,534.1115405261457 L 269.83330509905846,522.8802611065333 L 257.51496620497113,551.0820276786383 L 245.19662731088383,522.8802611065333 L 216.5445859613452,534.1115405261457 L 227.77586538095758,505.4594991766071 L 199.57409880885263,493.14116028251976 L 227.77586538095755,480.82282138843243 L 216.54458596134518,452.17078003889384 L 245.1966273108838,463.4020594585062 Z" fill="none" stroke="#00A86B" stroke-width="2.48262691590126" /><path d="M 386.27244930745667,435.20029288640126 L 398.590788201544,463.4020594585062 L 427.2428295510826,452.17078003889384 L 416.01155013147024,480.82282138843243 L 444.2133167035752,493.14116028251976 L 416.01155013147024,505.4594991766071 L 427.2428295510826,534.1115405261457 L 398.590788201544,522.8802611065333 L 386.27244930745667,551.0820276786383 L 373.95411041336934,522.8802611065333 L 345.30206906383074,534.1115405261457 L 356.5333484834431,505.4594991766071 L 328.33158191133816,493.14116028251976 L 356.5333484834431,480.82282138843243 L 345.30206906383074,452.17078003889384 L 373.95411041336934,463.4020594585062 Z" fill="none" stroke="#00A86B" stroke-width="2.48262691590126" /><path d="M 515.0299324099423,435.20029288640126 L 527.3482713040296,463.4020594585062 L 556.0003126535682,452.17078003889384 L 544.7690332339558,480.82282138843243 L 572.9707998060608,493.14116028251976 L 544.7690332339558,505.4594991766071 L 556.0003126535682,534.1115405261457 L 527.3482713040296,522.8802611065333 L 515.0299324099423,551.0820276786383 L 502.71159351585493,522.8802611065333 L 474.05955216631634,534.1115405261457 L 485.2908315859287,505.4594991766071 L 457.08906501382376,493.14116028251976 L 485.2908315859287,480.82282138843243 L 474.05955216631634,452.17078003889384 L 502.71159351585493,463.4020594585062 Z" fill="none" stroke="#00A86B" stroke-width="2.48262691590126" /><line x1="57.940867396118506" y1="47.12523881550972" x2="70.81661570636706" y2="47.12523881550972" stroke="#00A86B" stroke-width="0.5"/><line x1="186.69835049860407" y1="47.12523881550972" x2="199.57409880885263" y2="47.12523881550972" stroke="#00A86B" stroke-width="0.5"/><line x1="315.45583360108964" y1="47.12523881550972" x2="328.33158191133816" y2="47.12523881550972" stroke="#00A86B" stroke-width="0.5"/><line x1="444.2133167035752" y1="47.12523881550972" x2="457.08906501382376" y2="47.12523881550972" stroke="#00A86B" stroke-width="0.5"/><line x1="122.31960894736129" y1="158.6292191822622" x2="135.19535725760983" y2="158.6292191822622" stroke="#00A86B" stroke-width="0.5"/><line x1="251.07709204984684" y1="158.6292191822622" x2="263.95284036009537" y2="158.6292191822622" stroke="#00A86B" stroke-width="0.5"/><line x1="379.8345751523324" y1="158.6292191822622" x2="392.71032346258096" y2="158.6292191822622" stroke="#00A86B" stroke-width="0.5"/><line x1="57.940867396118506" y1="270.13319954901465" x2="70.81661570636706" y2="270.13319954901465" stroke="#00A86B" stroke-width="0.5"/><line x1="186.69835049860407" y1="270.13319954901465" x2="199.57409880885263" y2="270.13319954901465" stroke="#00A86B" stroke-width="0.5"/><line x1="315.45583360108964" y1="270.13319954901465" x2="328.33158191133816" y2="270.13319954901465" stroke="#00A86B" stroke-width="0.5"/><line x1="444.2133167035752" y1="270.13319954901465" x2="457.08906501382376" y2="270.13319954901465" stroke="#00A86B" stroke-width="0.5"/><line x1="122.31960894736129" y1="381.6371799157672" x2="135.19535725760983" y2="381.6371799157672" stroke="#00A86B" stroke-width="0.5"/><line x1="251.07709204984684" y1="381.6371799157672" x2="263.95284036009537" y2="381.6371799157672" stroke="#00A86B" stroke-width="0.5"/><line x1="379.8345751523324" y1="381.6371799157672" x2="392.71032346258096" y2="381.6371799157672" stroke="#00A86B" stroke-width="0.5"/><line x1="57.940867396118506" y1="493.14116028251976" x2="70.81661570636706" y2="493.14116028251976" stroke="#00A86B" stroke-width="0.5"/><line x1="186.69835049860407" y1="493.14116028251976" x2="199.57409880885263" y2="493.14116028251976" stroke="#00A86B" stroke-width="0.5"/><line x1="315.45583360108964" y1="493.14116028251976" x2="328.33158191133816" y2="493.14116028251976" stroke="#00A86B" stroke-width="0.5"/><line x1="444.2133167035752" y1="493.14116028251976" x2="457.08906501382376" y2="493.14116028251976" stroke="#00A86B" stroke-width="0.5"/></g></svg>