<svg xmlns="http://www.w3.org/2000/svg" width="512" height="512" viewBox="0 0 512 512"><rect x="0" y="0" width="512" height="512" fill="#000000"/><g opacity="0.062431198364324494"><path d="M -34.70874341500945,-65.94661248851796 L -28.06751288344194,-50.74209223516601 L -12.62023436331405,-56.79725246670485 L -18.675394594852886,-41.34997394657697 L -3.470874341500945,-34.70874341500945 L -18.675394594852886,-28.06751288344194 L -12.62023436331405,-12.620234363314054 L -28.06751288344194,-18.675394594852886 L -34.70874341500945,-3.470874341500945 L -41.34997394657696,-18.675394594852886 L -56.79725246670485,-12.62023436331405 L -50.74209223516601,-28.06751288344193 L -65.94661248851796,-34.708743415009444 L -50.74209223516601,-41.34997394657697 L -56.797252466704855,-56.79725246670485 L -41.349973946576974,-50.74209223516601 Z" fill="none" stroke="#00A86B" stroke-width="2.06038709057513" /><path d="M 34.70874341500945,-65.94661248851796 L 41.34997394657697,-50.74209223516601 L 56.79725246670485,-56.79725246670485 L 50.74209223516601,-41.34997394657697 L 65.94661248851796,-34.70874341500945 L 50.74209223516601,-28.06751288344194 L 56.79725246670485,-12.620234363314054 L 41.34997394657697,-18.675394594852886 L 34.70874341500945,-3.470874341500945 L 28.06751288344194,-18.675394594852886 L 12.620234363314054,-12.62023436331405 L 18.67539459485289,-28.06751288344193 L 3.470874341500945,-34.708743415009444 L 18.675394594852886,-41.34997394657697 L 12.620234363314047,-56.79725246670485 L 28.06751288344193,-50.74209223516601 Z" fill="none" stroke="#00A86B" stroke-width="2.06038709057513" /><path d="M 104.12623024502835,-65.94661248851796 L 110.76746077659587,-50.74209223516601 L 126.21473929672375,-56.79725246670485 L 120.15957906518491,-41.34997394657697 L 135.36409931853686,-34.70874341500945 L 120.15957906518491,-28.06751288344194 L 126.21473929672375,-12.620234363314054 L 110.76746077659587,-18.675394594852886 L 104.12623024502835,-3.470874341500945 L 97.48499971346084,-18.675394594852886 L 82.03772119333296,-12.62023436331405 L 88.09288142487179,-28.06751288344193 L 72.88836117151985,-34.708743415009444 L 88.09288142487179,-41.34997394657697 L 82.03772119333294,-56.79725246670485 L 97.48499971346084,-50.74209223516601 Z" fill="none" stroke="#00A86B" stroke-width="2.06038709057513" /><path d="M 173.54371707504725,-65.94661248851796 L 180.18494760661477,-50.74209223516601 L 195.63222612674267,-56.79725246670485 L 189.57706589520382,-41.34997394657697 L 204.78158614855576,-34.70874341500945 L 189.57706589520382,-28.06751288344194 L 195.63222612674267,-12.620234363314054 L 180.18494760661477,-18.675394594852886 L 173.54371707504725,-3.470874341500945 L 166.90248654347974,-18.675394594852886 L 151.45520802335187,-12.62023436331405 L 157.5103682548907,-28.06751288344193 L 142.30584800153875,-34.708743415009444 L 157.5103682548907,-41.34997394657697 L 151.45520802335184,-56.79725246670485 L 166.90248654347974,-50.74209223516601 Z" fill="none" stroke="#00A86B" stroke-width="2.06038709057513" /><path d="M 242.96120390506616,-65.94661248851796 L 249.60243443663367,-50.74209223516601 L 265.04971295676154,-56.79725246670485 L 258.9945527252227,-41.34997394657697 L 274.1990729785747,-34.70874341500945 L 258.9945527252227,-28.06751288344194 L 265.04971295676154,-12.620234363314054 L 249.60243443663367,-18.675394594852886 L 242.96120390506616,-3.470874341500945 L 236.31997337349864,-18.675394594852886 L 220.87269485337077,-12.62023436331405 L 226.9278550849096,-28.06751288344193 L 211.72333483155765,-34.708743415009444 L 226.9278550849096,-41.34997394657697 L 220.87269485337075,-56.79725246670485 L 236.31997337349864,-50.74209223516601 Z" fill="none" stroke="#00A86B" stroke-width="2.06038709057513" /><path d="M 312.37869073508506,-65.94661248851796 L 319.01992126665255,-50.74209223516601 L 334.46719978678044,-56.79725246670485 L 328.4120395552416,-41.34997394657697 L 343.6165598085936,-34.70874341500945 L 328.4120395552416,-28.06751288344194 L 334.46719978678044,-12.620234363314054 L 319.01992126665255,-18.675394594852886 L 312.37869073508506,-3.470874341500945 L 305.73746020351757,-18.675394594852886 L 290.2901816833897,-12.62023436331405 L 296.3453419149285,-28.06751288344193 L 281.1408216615765,-34.708743415009444 L 296.3453419149285,-41.34997394657697 L 290.2901816833897,-56.79725246670485 L 305.7374602035175,-50.74209223516601 Z" fill="none" stroke="#00A86B" stroke-width="2.06038709057513" /><path d="M 381.79617756510396,-65.94661248851796 L 388.43740809667145,-50.74209223516601 L 403.88468661679934,-56.79725246670485 L 397.8295263852605,-41.34997394657697 L 413.0340466386125,-34.70874341500945 L 397.8295263852605,-28.06751288344194 L 403.88468661679934,-12.620234363314054 L 388.43740809667145,-18.675394594852886 L 381.79617756510396,-3.470874341500945 L 375.1549470335365,-18.675394594852886 L 359.7076685134086,-12.62023436331405 L 365.7628287449474,-28.06751288344193 L 350.5583084915954,-34.708743415009444 L 365.7628287449474,-41.34997394657697 L 359.7076685134086,-56.79725246670485 L 375.1549470335364,-50.74209223516601 Z" fill="none" stroke="#00A86B" stroke-width="2.06038709057513" /><path d="M 451.21366439512286,-65.94661248851796 L 457.85489492669035,-50.74209223516601 L 473.30217344681824,-56.79725246670485 L 467.2470132152794,-41.34997394657697 L 482.4515334686314,-34.70874341500945 L 467.2470132152794,-28.06751288344194 L 473.30217344681824,-12.620234363314054 L 457.85489492669035,-18.675394594852886 L 451.21366439512286,-3.470874341500945 L 444.5724338635554,-18.675394594852886 L 429.1251553434275,-12.62023436331405 L 435.1803155749663,-28.06751288344193 L 419.9757953216143,-34.708743415009444 L 435.1803155749663,-41.34997394657697 L 429.1251553434275,-56.79725246670485 L 444.5724338635553,-50.74209223516601 Z" fill="none" stroke="#00A86B" stroke-width="2.06038709057513" /><path d="M 520.6311512251418,-65.94661248851796 L 527.2723817567094,-50.74209223516601 L 542.7196602768372,-56.79725246670485 L 536.6645000452984,-41.34997394657697 L 551.8690202986503,-34.70874341500945 L 536.6645000452984,-28.06751288344194 L 542.7196602768372,-12.620234363314054 L 527.2723817567094,-18.675394594852886 L 520.6311512251418,-3.470874341500945 L 513.9899206935743,-18.675394594852886 L 498.54264217344644,-12.62023436331405 L 504.59780240498526,-28.06751288344193 L 489.39328215163334,-34.708743415009444 L 504.59780240498526,-41.34997394657697 L 498.54264217344644,-56.79725246670485 L 513.9899206935743,-50.74209223516601 Z" fill="none" stroke="#00A86B" stroke-width="2.06038709057513" /><path d="M 1.9127678186528142e-15,-5.831068893721586 L 6.641230531567513,9.373451359630355 L 22.0885090516954,3.3182911280915235 L 16.033348820156565,18.765569648219408 L 31.237869073508506,25.40680017978692 L 16.033348820156565,32.04803071135443 L 22.0885090516954,47.49530923148232 L 6.641230531567513,41.44014899994349 L 1.9127678186528142e-15,56.644669253295426 L -6.641230531567511,41.44014899994349 L -22.088509051695397,47.495309231482324 L -16.03334882015656,32.04803071135444 L -31.237869073508506,25.406800179786924 L -16.033348820156565,18.765569648219405 L -22.088509051695404,3.3182911280915235 L -6.641230531567522,9.373451359630359 Z" fill="none" stroke="#00A86B" stroke-width="2.06038709057513" /><path d="M 69.4174868300189,-5.831068893721586 L 76.05871736158642,9.373451359630355 L 91.5059958817143,3.3182911280915235 L 85.45083565017546,18.765569648219408 L 100.65535590352741,25.40680017978692 L 85.45083565017546,32.04803071135443 L 91.5059958817143,47.49530923148232 L 76.05871736158642,41.44014899994349 L 69.4174868300189,56.644669253295426 L 62.77625629845139,41.44014899994349 L 47.328977778323505,47.495309231482324 L 53.38413800986234,32.04803071135444 L 38.179617756510396,25.406800179786924 L 53.38413800986234,18.765569648219405 L 47.3289777783235,3.3182911280915235 L 62.77625629845138,9.373451359630359 Z" fill="none" stroke="#00A86B" stroke-width="2.06038709057513" /><path d="M 138.8349736600378,-5.831068893721586 L 145.47620419160532,9.373451359630355 L 160.92348271173321,3.3182911280915235 L 154.86832248019437,18.765569648219408 L 170.0728427335463,25.40680017978692 L 154.86832248019437,32.04803071135443 L 160.92348271173321,47.49530923148232 L 145.47620419160532,41.44014899994349 L 138.8349736600378,56.644669253295426 L 132.1937431284703,41.44014899994349 L 116.74646460834241,47.495309231482324 L 122.80162483988124,32.04803071135444 L 107.5971045865293,25.406800179786924 L 122.80162483988124,18.765569648219405 L 116.7464646083424,3.3182911280915235 L 132.1937431284703,9.373451359630359 Z" fill="none" stroke="#00A86B" stroke-width="2.06038709057513" /><path d="M 208.2524604900567,-5.831068893721586 L 214.89369102162422,9.373451359630355 L 230.34096954175212,3.3182911280915235 L 224.28580931021327,18.765569648219408 L 239.4903295635652,25.40680017978692 L 224.28580931021327,32.04803071135443 L 230.34096954175212,47.49530923148232 L 214.89369102162422,41.44014899994349 L 208.2524604900567,56.644669253295426 L 201.6112299584892,41.44014899994349 L 186.16395143836132,47.495309231482324 L 192.21911166990014,32.04803071135444 L 177.0145914165482,25.406800179786924 L 192.21911166990014,18.765569648219405 L 186.1639514383613,3.3182911280915235 L 201.6112299584892,9.373451359630359 Z" fill="none" stroke="#00A86B" stroke-width="2.06038709057513" /><path d="M 277.6699473200756,-5.831068893721586 L 284.3111778516431,9.373451359630355 L 299.758456371771,3.3182911280915235 L 293.70329614023217,18.765569648219408 L 308.9078163935841,25.40680017978692 L 293.70329614023217,32.04803071135443 L 299.758456371771,47.49530923148232 L 284.3111778516431,41.44014899994349 L 277.6699473200756,56.644669253295426 L 271.0287167885081,41.44014899994349 L 255.58143826838023,47.495309231482324 L 261.63659849991905,32.04803071135444 L 246.4320782465671,25.406800179786924 L 261.63659849991905,18.765569648219405 L 255.5814382683802,3.3182911280915235 L 271.02871678850806,9.373451359630359 Z" fill="none" stroke="#00A86B" stroke-width="2.06038709057513" /><path d="M 347.0874341500945,-5.831068893721586 L 353.728664681662,9.373451359630355 L 369.1759432017899,3.3182911280915235 L 363.12078297025107,18.765569648219408 L 378.325303223603,25.40680017978692 L 363.12078297025107,32.04803071135443 L 369.1759432017899,47.49530923148232 L 353.728664681662,41.44014899994349 L 347.0874341500945,56.644669253295426 L 340.446203618527,41.44014899994349 L 324.9989250983991,47.495309231482324 L 331.05408532993795,32.04803071135444 L 315.84956507658603,25.406800179786924 L 331.05408532993795,18.765569648219405 L 324.9989250983991,3.3182911280915235 L 340.44620361852697,9.373451359630359 Z" fill="none" stroke="#00A86B" stroke-width="2.06038709057513" /><path d="M 416.5049209801134,-5.831068893721586 L 423.1461515116809,9.373451359630355 L 438.5934300318088,3.3182911280915235 L 432.53826980027,18.765569648219408 L 447.7427900536219,25.40680017978692 L 432.53826980027,32.04803071135443 L 438.5934300318088,47.49530923148232 L 423.1461515116809,41.44014899994349 L 416.5049209801134,56.644669253295426 L 409.8636904485459,41.44014899994349 L 394.41641192841803,47.495309231482324 L 400.47157215995685,32.04803071135444 L 385.26705190660493,25.406800179786924 L 400.47157215995685,18.765569648219405 L 394.41641192841803,3.3182911280915235 L 409.86369044854587,9.373451359630359 Z" fill="none" stroke="#00A86B" stroke-width="2.06038709057513" /><path d="M 485.9224078101323,-5.831068893721586 L 492.5636383416998,9.373451359630355 L 508.0109168618277,3.3182911280915235 L 501.9557566302889,18.765569648219408 L 517.1602768836408,25.40680017978692 L 501.9557566302889,32.04803071135443 L 508.0109168618277,47.49530923148232 L 492.5636383416998,41.44014899994349 L 485.9224078101323,56.644669253295426 L 479.2811772785648,41.44014899994349 L 463.83389875843693,47.495309231482324 L 469.88905898997575,32.04803071135444 L 454.68453873662384,25.406800179786924 L 469.88905898997575,18.765569648219405 L 463.83389875843693,3.3182911280915235 L 479.28117727856477,9.373451359630359 Z" fill="none" stroke="#00A86B" stroke-width="2.06038709057513" /><path d="M 555.3398946401512,-5.831068893721586 L 561.9811251717188,9.373451359630355 L 577.4284036918466,3.3182911280915235 L 571.3732434603078,18.765569648219408 L 586.5777637136597,25.40680017978692 L 571.3732434603078,32.04803071135443 L 577.4284036918466,47.49530923148232 L 561.9811251717188,41.44014899994349 L 555.3398946401512,56.644669253295426 L 548.6986641085837,41.44014899994349 L 533.2513855884558,47.495309231482324 L 539.3065458199947,32.04803071135444 L 524.1020255666427,25.406800179786924 L 539.3065458199947,18.765569648219405 L 533.2513855884558,3.3182911280915235 L 548.6986641085837,9.373451359630359 Z" fill="none" stroke="#00A86B" stroke-width="2.06038709057513" /><path d="M -34.70874341500945,54.284474701074785 L -28.06751288344194,69.48899495442673 L -12.62023436331405,63.433834722887894 L -18.675394594852886,78.88111324301578 L -3.470874341500945,85.52234377458329 L -18.675394594852886,92.1635743061508 L -12.62023436331405,107.61085282627869 L -28.06751288344194,101.55569259473985 L -34.70874341500945,116.7602128480918 L -41.34997394657696,101.55569259473985 L -56.79725246670485,107.61085282627869 L -50.74209223516601,92.1635743061508 L -65.94661248851796,85.52234377458329 L -50.74209223516601,78.88111324301578 L -56.797252466704855,63.433834722887894 L -41.349973946576974,69.48899495442673 Z" fill="none" stroke="#00A86B" stroke-width="2.06038709057513" /><path d="M 34.70874341500945,54.284474701074785 L 41.34997394657697,69.48899495442673 L 56.79725246670485,63.433834722887894 L 50.74209223516601,78.88111324301578 L 65.94661248851796,85.52234377458329 L 50.74209223516601,92.1635743061508 L 56.79725246670485,107.61085282627869 L 41.34997394657697,101.55569259473985 L 34.70874341500945,116.7602128480918 L 28.06751288344194,101.55569259473985 L 12.620234363314054,107.61085282627869 L 18.67539459485289,92.1635743061508 L 3.470874341500945,85.52234377458329 L 18.675394594852886,78.88111324301578 L 12.620234363314047,63.433834722887894 L 28.06751288344193,69.48899495442673 Z" fill="none" stroke="#00A86B" stroke-width="2.06038709057513" /><path d="M 104.12623024502835,54.284474701074785 L 110.76746077659587,69.48899495442673 L 126.21473929672375,63.433834722887894 L 120.15957906518491,78.88111324301578 L 135.36409931853686,85.52234377458329 L 120.15957906518491,92.1635743061508 L 126.21473929672375,107.61085282627869 L 110.76746077659587,101.55569259473985 L 104.12623024502835,116.7602128480918 L 97.48499971346084,101.55569259473985 L 82.03772119333296,107.61085282627869 L 88.09288142487179,92.1635743061508 L 72.88836117151985,85.52234377458329 L 88.09288142487179,78.88111324301578 L 82.03772119333294,63.433834722887894 L 97.48499971346084,69.48899495442673 Z" fill="none" stroke="#00A86B" stroke-width="2.06038709057513" /><path d="M 173.54371707504725,54.284474701074785 L 180.18494760661477,69.48899495442673 L 195.63222612674267,63.433834722887894 L 189.57706589520382,78.88111324301578 L 204.78158614855576,85.52234377458329 L 189.57706589520382,92.1635743061508 L 195.63222612674267,107.61085282627869 L 180.18494760661477,101.55569259473985 L 173.54371707504725,116.7602128480918 L 166.90248654347974,101.55569259473985 L 151.45520802335187,107.61085282627869 L 157.5103682548907,92.1635743061508 L 142.30584800153875,85.52234377458329 L 157.5103682548907,78.88111324301578 L 151.45520802335184,63.433834722887894 L 166.90248654347974,69.48899495442673 Z" fill="none" stroke="#00A86B" stroke-width="2.06038709057513" /><path d="M 242.96120390506616,54.284474701074785 L 249.60243443663367,69.48899495442673 L 265.04971295676154,63.433834722887894 L 258.9945527252227,78.88111324301578 L 274.1990729785747,85.52234377458329 L 258.9945527252227,92.1635743061508 L 265.04971295676154,107.61085282627869 L 249.60243443663367,101.55569259473985 L 242.96120390506616,116.7602128480918 L 236.31997337349864,101.55569259473985 L 220.87269485337077,107.61085282627869 L 226.9278550849096,92.1635743061508 L 211.72333483155765,85.52234377458329 L 226.9278550849096,78.88111324301578 L 220.87269485337075,63.433834722887894 L 236.31997337349864,69.48899495442673 Z" fill="none" stroke="#00A86B" stroke-width="2.06038709057513" /><path d="M 312.37869073508506,54.284474701074785 L 319.01992126665255,69.48899495442673 L 334.46719978678044,63.433834722887894 L 328.4120395552416,78.88111324301578 L 343.6165598085936,85.52234377458329 L 328.4120395552416,92.1635743061508 L 334.46719978678044,107.61085282627869 L 319.01992126665255,101.55569259473985 L 312.37869073508506,116.7602128480918 L 305.73746020351757,101.55569259473985 L 290.2901816833897,107.61085282627869 L 296.3453419149285,92.1635743061508 L 281.1408216615765,85.52234377458329 L 296.3453419149285,78.88111324301578 L 290.2901816833897,63.433834722887894 L 305.7374602035175,69.48899495442673 Z" fill="none" stroke="#00A86B" stroke-width="2.06038709057513" /><path d="M 381.79617756510396,54.284474701074785 L 388.43740809667145,69.48899495442673 L 403.88468661679934,63.433834722887894 L 397.8295263852605,78.88111324301578 L 413.0340466386125,85.52234377458329 L 397.8295263852605,92.1635743061508 L 403.88468661679934,107.61085282627869 L 388.43740809667145,101.55569259473985 L 381.79617756510396,116.7602128480918 L 375.1549470335365,101.55569259473985 L 359.7076685134086,107.61085282627869 L 365.7628287449474,92.1635743061508 L 350.5583084915954,85.52234377458329 L 365.7628287449474,78.88111324301578 L 359.7076685134086,63.433834722887894 L 375.1549470335364,69.48899495442673 Z" fill="none" stroke="#00A86B" stroke-width="2.06038709057513" /><path d="M 451.21366439512286,54.284474701074785 L 457.85489492669035,69.48899495442673 L 473.30217344681824,63.433834722887894 L 467.2470132152794,78.88111324301578 L 482.4515334686314,85.52234377458329 L 467.2470132152794,92.1635743061508 L 473.30217344681824,107.61085282627869 L 457.85489492669035,101.55569259473985 L 451.21366439512286,116.7602128480918 L 444.5724338635554,101.55569259473985 L 429.1251553434275,107.61085282627869 L 435.1803155749663,92.1635743061508 L 419.9757953216143,85.52234377458329 L 435.1803155749663,78.88111324301578 L 429.1251553434275,63.433834722887894 L 444.5724338635553,69.48899495442673 Z" fill="none" stroke="#00A86B" stroke-width="2.06038709057513" /><path d="M 520.6311512251418,54.284474701074785 L 527.2723817567094,69.48899495442673 L 542.7196602768372,63.433834722887894 L 536.6645000452984,78.88111324301578 L 551.8690202986503,85.52234377458329 L 536.6645000452984,92.1635743061508 L 542.7196602768372,107.61085282627869 L 527.2723817567094,101.55569259473985 L 520.6311512251418,116.7602128480918 L 513.9899206935743,101.55569259473985 L 498.54264217344644,107.61085282627869 L 504.59780240498526,92.1635743061508 L 489.39328215163334,85.52234377458329 L 504.59780240498526,78.88111324301578 L 498.54264217344644,63.433834722887894 L 513.9899206935743,69.48899495442673 Z" fill="none" stroke="#00A86B" stroke-width="2.06038709057513" /><path d="M 1.9127678186528142e-15,114.40001829587115 L 6.641230531567513,129.6045385492231 L 22.0885090516954,123.54937831768426 L 16.033348820156565,138.99665683781214 L 31.237869073508506,145.63788736937965 L 16.033348820156565,152.27911790094717 L 22.0885090516954,167.72639642107504 L 6.641230531567513,161.67123618953622 L 1.9127678186528142e-15,176.87575644288816 L -6.641230531567511,161.67123618953622 L -22.088509051695397,167.72639642107507 L -16.03334882015656,152.27911790094717 L -31.237869073508506,145.63788736937965 L -16.033348820156565,138.99665683781214 L -22.088509051695404,123.54937831768426 L -6.641230531567522,129.6045385492231 Z" fill="none" stroke="#00A86B" stroke-width="2.06038709057513" /><path d="M 69.4174868300189,114.40001829587115 L 76.05871736158642,129.6045385492231 L 91.5059958817143,123.54937831768426 L 85.45083565017546,138.99665683781214 L 100.65535590352741,145.63788736937965 L 85.45083565017546,152.27911790094717 L 91.5059958817143,167.72639642107504 L 76.05871736158642,161.67123618953622 L 69.4174868300189,176.87575644288816 L 62.77625629845139,161.67123618953622 L 47.328977778323505,167.72639642107507 L 53.38413800986234,152.27911790094717 L 38.179617756510396,145.63788736937965 L 53.38413800986234,138.99665683781214 L 47.3289777783235,123.54937831768426 L 62.77625629845138,129.6045385492231 Z" fill="none" stroke="#00A86B" stroke-width="2.06038709057513" /><path d="M 138.8349736600378,114.40001829587115 L 145.47620419160532,129.6045385492231 L 160.92348271173321,123.54937831768426 L 154.86832248019437,138.99665683781214 L 170.0728427335463,145.63788736937965 L 154.86832248019437,152.27911790094717 L 160.92348271173321,167.72639642107504 L 145.47620419160532,161.67123618953622 L 138.8349736600378,176.87575644288816 L 132.1937431284703,161.67123618953622 L 116.74646460834241,167.72639642107507 L 122.80162483988124,152.27911790094717 L 107.5971045865293,145.63788736937965 L 122.80162483988124,138.99665683781214 L 116.7464646083424,123.54937831768426 L 132.1937431284703,129.6045385492231 Z" fill="none" stroke="#00A86B" stroke-width="2.06038709057513" /><path d="M 208.2524604900567,114.40001829587115 L 214.89369102162422,129.6045385492231 L 230.34096954175212,123.54937831768426 L 224.28580931021327,138.99665683781214 L 239.4903295635652,145.63788736937965 L 224.28580931021327,152.27911790094717 L 230.34096954175212,167.72639642107504 L 214.89369102162422,161.67123618953622 L 208.2524604900567,176.87575644288816 L 201.6112299584892,161.67123618953622 L 186.16395143836132,167.72639642107507 L 192.21911166990014,152.27911790094717 L 177.0145914165482,145.63788736937965 L 192.21911166990014,138.99665683781214 L 186.1639514383613,123.54937831768426 L 201.6112299584892,129.6045385492231 Z" fill="none" stroke="#00A86B" stroke-width="2.06038709057513" /><path d="M 277.6699473200756,114.40001829587115 L 284.3111778516431,129.6045385492231 L 299.758456371771,123.54937831768426 L 293.70329614023217,138.99665683781214 L 308.9078163935841,145.63788736937965 L 293.70329614023217,152.27911790094717 L 299.758456371771,167.72639642107504 L 284.3111778516431,161.67123618953622 L 277.6699473200756,176.87575644288816 L 271.0287167885081,161.67123618953622 L 255.58143826838023,167.72639642107507 L 261.63659849991905,152.27911790094717 L 246.4320782465671,145.63788736937965 L 261.63659849991905,138.99665683781214 L 255.5814382683802,123.54937831768426 L 271.02871678850806,129.6045385492231 Z" fill="none" stroke="#00A86B" stroke-width="2.06038709057513" /><path d="M 347.0874341500945,114.40001829587115 L 353.728664681662,129.6045385492231 L 369.1759432017899,123.54937831768426 L 363.12078297025107,138.99665683781214 L 378.325303223603,145.63788736937965 L 363.12078297025107,152.27911790094717 L 369.1759432017899,167.72639642107504 L 353.728664681662,161.67123618953622 L 347.0874341500945,176.87575644288816 L 340.446203618527,161.67123618953622 L 324.9989250983991,167.72639642107507 L 331.05408532993795,152.27911790094717 L 315.84956507658603,145.63788736937965 L 331.05408532993795,138.99665683781214 L 324.9989250983991,123.54937831768426 L 340.44620361852697,129.6045385492231 Z" fill="none" stroke="#00A86B" stroke-width="2.06038709057513" /><path d="M 416.5049209801134,114.40001829587115 L 423.1461515116809,129.6045385492231 L 438.5934300318088,123.54937831768426 L 432.53826980027,138.99665683781214 L 447.7427900536219,145.63788736937965 L 432.53826980027,152.27911790094717 L 438.5934300318088,167.72639642107504 L 423.1461515116809,161.67123618953622 L 416.5049209801134,176.87575644288816 L 409.8636904485459,161.67123618953622 L 394.41641192841803,167.72639642107507 L 400.47157215995685,152.27911790094717 L 385.26705190660493,145.63788736937965 L 400.47157215995685,138.99665683781214 L 394.41641192841803,123.54937831768426 L 409.86369044854587,129.6045385492231 Z" fill="none" stroke="#00A86B" stroke-width="2.06038709057513" /><path d="M 485.9224078101323,114.40001829587115 L 492.5636383416998,129.6045385492231 L 508.0109168618277,123.54937831768426 L 501.9557566302889,138.99665683781214 L 517.1602768836408,145.63788736937965 L 501.9557566302889,152.27911790094717 L 508.0109168618277,167.72639642107504 L 492.5636383416998,161.67123618953622 L 485.9224078101323,176.87575644288816 L 479.2811772785648,161.67123618953622 L 463.83389875843693,167.72639642107507 L 469.88905898997575,152.27911790094717 L 454.68453873662384,145.63788736937965 L 469.88905898997575,138.99665683781214 L 463.83389875843693,123.54937831768426 L 479.28117727856477,129.6045385492231 Z" fill="none" stroke="#00A86B" stroke-width="2.06038709057513" /><path d="M 555.3398946401512,114.40001829587115 L 561.9811251717188,129.6045385492231 L 577.4284036918466,123.54937831768426 L 571.3732434603078,138.99665683781214 L 586.5777637136597,145.63788736937965 L 571.3732434603078,152.27911790094717 L 577.4284036918466,167.72639642107504 L 561.9811251717188,161.67123618953622 L 555.3398946401512,176.87575644288816 L 548.6986641085837,161.67123618953622 L 533.2513855884558,167.72639642107507 L 539.3065458199947,152.27911790094717 L 524.1020255666427,145.63788736937965 L 539.3065458199947,138.99665683781214 L 533.2513855884558,123.54937831768426 L 548.6986641085837,129.6045385492231 Z" fill="none" stroke="#00A86B" stroke-width="2.06038709057513" /><path d="M -34.70874341500945,174.51556189066753 L -28.06751288344194,189.72008214401947 L -12.62023436331405,183.66492191248062 L -18.675394594852886,199.11220043260852 L -3.470874341500945,205.75343096417603 L -18.675394594852886,212.39466149574355 L -12.62023436331405,227.84194001587144 L -28.06751288344194,221.7867797843326 L -34.70874341500945,236.99130003768454 L -41.34997394657696,221.7867797843326 L -56.79725246670485,227.84194001587144 L -50.74209223516601,212.39466149574355 L -65.94661248851796,205.75343096417603 L -50.74209223516601,199.11220043260852 L -56.797252466704855,183.66492191248062 L -41.349973946576974,189.72008214401947 Z" fill="none" stroke="#00A86B" stroke-width="2.06038709057513" /><path d="M 34.70874341500945,174.51556189066753 L 41.34997394657697,189.72008214401947 L 56.79725246670485,183.66492191248062 L 50.74209223516601,199.11220043260852 L 65.94661248851796,205.75343096417603 L 50.74209223516601,212.39466149574355 L 56.79725246670485,227.84194001587144 L 41.34997394657697,221.7867797843326 L 34.70874341500945,236.99130003768454 L 28.06751288344194,221.7867797843326 L 12.620234363314054,227.84194001587144 L 18.67539459485289,212.39466149574355 L 3.470874341500945,205.75343096417603 L 18.675394594852886,199.11220043260852 L 12.620234363314047,183.66492191248062 L 28.06751288344193,189.72008214401947 Z" fill="none" stroke="#00A86B" stroke-width="2.06038709057513" /><path d="M 104.12623024502835,174.51556189066753 L 110.76746077659587,189.72008214401947 L 126.21473929672375,183.66492191248062 L 120.15957906518491,199.11220043260852 L 135.36409931853686,205.75343096417603 L 120.15957906518491,212.39466149574355 L 126.21473929672375,227.84194001587144 L 110.76746077659587,221.7867797843326 L 104.12623024502835,236.99130003768454 L 97.48499971346084,221.7867797843326 L 82.03772119333296,227.84194001587144 L 88.09288142487179,212.39466149574355 L 72.88836117151985,205.75343096417603 L 88.09288142487179,199.11220043260852 L 82.03772119333294,183.66492191248062 L 97.48499971346084,189.72008214401947 Z" fill="none" stroke="#00A86B" stroke-width="2.06038709057513" /><path d="M 173.54371707504725,174.51556189066753 L 180.18494760661477,189.72008214401947 L 195.63222612674267,183.66492191248062 L 189.57706589520382,199.11220043260852 L 204.78158614855576,205.75343096417603 L 189.57706589520382,212.39466149574355 L 195.63222612674267,227.84194001587144 L 180.18494760661477,221.7867797843326 L 173.54371707504725,236.99130003768454 L 166.90248654347974,221.7867797843326 L 151.45520802335187,227.84194001587144 L 157.5103682548907,212.39466149574355 L 142.30584800153875,205.75343096417603 L 157.5103682548907,199.11220043260852 L 151.45520802335184,183.66492191248062 L 166.90248654347974,189.72008214401947 Z" fill="none" stroke="#00A86B" stroke-width="2.06038709057513" /><path d="M 242.96120390506616,174.51556189066753 L 249.60243443663367,189.72008214401947 L 265.04971295676154,183.66492191248062 L 258.9945527252227,199.11220043260852 L 274.1990729785747,205.75343096417603 L 258.9945527252227,212.39466149574355 L 265.04971295676154,227.84194001587144 L 249.60243443663367,221.7867797843326 L 242.96120390506616,236.99130003768454 L 236.31997337349864,221.7867797843326 L 220.87269485337077,227.84194001587144 L 226.9278550849096,212.39466149574355 L 211.72333483155765,205.75343096417603 L 226.9278550849096,199.11220043260852 L 220.87269485337075,183.66492191248062 L 236.31997337349864,189.72008214401947 Z" fill="none" stroke="#00A86B" stroke-width="2.06038709057513" /><path d="M 312.37869073508506,174.51556189066753 L 319.01992126665255,189.72008214401947 L 334.46719978678044,183.66492191248062 L 328.4120395552416,199.11220043260852 L 343.6165598085936,205.75343096417603 L 328.4120395552416,212.39466149574355 L 334.46719978678044,227.84194001587144 L 319.01992126665255,221.7867797843326 L 312.37869073508506,236.99130003768454 L 305.73746020351757,221.7867797843326 L 290.2901816833897,227.84194001587144 L 296.3453419149285,212.39466149574355 L 281.1408216615765,205.75343096417603 L 296.3453419149285,199.11220043260852 L 290.2901816833897,183.66492191248062 L 305.7374602035175,189.72008214401947 Z" fill="none" stroke="#00A86B" stroke-width="2.06038709057513" /><path d="M 381.79617756510396,174.51556189066753 L 388.43740809667145,189.72008214401947 L 403.88468661679934,183.66492191248062 L 397.8295263852605,199.11220043260852 L 413.0340466386125,205.75343096417603 L 397.8295263852605,212.39466149574355 L 403.88468661679934,227.84194001587144 L 388.43740809667145,221.7867797843326 L 381.79617756510396,236.99130003768454 L 375.1549470335365,221.7867797843326 L 359.7076685134086,227.84194001587144 L 365.7628287449474,212.39466149574355 L 350.5583084915954,205.75343096417603 L 365.7628287449474,199.11220043260852 L 359.7076685134086,183.66492191248062 L 375.1549470335364,189.72008214401947 Z" fill="none" stroke="#00A86B" stroke-width="2.06038709057513" /><path d="M 451.21366439512286,174.51556189066753 L 457.85489492669035,189.72008214401947 L 473.30217344681824,183.66492191248062 L 467.2470132152794,199.11220043260852 L 482.4515334686314,205.75343096417603 L 467.2470132152794,212.39466149574355 L 473.30217344681824,227.84194001587144 L 457.85489492669035,221.7867797843326 L 451.21366439512286,236.99130003768454 L 444.5724338635554,221.7867797843326 L 429.1251553434275,227.84194001587144 L 435.1803155749663,212.39466149574355 L 419.9757953216143,205.75343096417603 L 435.1803155749663,199.11220043260852 L 429.1251553434275,183.66492191248062 L 444.5724338635553,189.72008214401947 Z" fill="none" stroke="#00A86B" stroke-width="2.06038709057513" /><path d="M 520.6311512251418,174.51556189066753 L 527.2723817567094,189.72008214401947 L 542.7196602768372,183.66492191248062 L 536.6645000452984,199.11220043260852 L 551.8690202986503,205.75343096417603 L 536.6645000452984,212.39466149574355 L 542.7196602768372,227.84194001587144 L 527.2723817567094,221.7867797843326 L 520.6311512251418,236.99130003768454 L 513.9899206935743,221.7867797843326 L 498.54264217344644,227.84194001587144 L 504.59780240498526,212.39466149574355 L 489.39328215163334,205.75343096417603 L 504.59780240498526,199.11220043260852 L 498.54264217344644,183.66492191248062 L 513.9899206935743,189.72008214401947 Z" fill="none" stroke="#00A86B" stroke-width="2.06038709057513" /><path d="M 1.9127678186528142e-15,234.6311054854639 L 6.641230531567513,249.83562573881585 L 22.0885090516954,243.78046550727703 L 16.033348820156565,259.2277440274049 L 31.237869073508506,265.8689745589724 L 16.033348820156565,272.5102050905399 L 22.0885090516954,287.9574836106678 L 6.641230531567513,281.902323379129 L 1.9127678186528142e-15,297.10684363248095 L -6.641230531567511,281.902323379129 L -22.088509051695397,287.9574836106678 L -16.03334882015656,272.51020509053996 L -31.237869073508506,265.8689745589724 L -16.033348820156565,259.22774402740487 L -22.088509051695404,243.78046550727703 L -6.641230531567522,249.83562573881585 Z" fill="none" stroke="#00A86B" stroke-width="2.06038709057513" /><path d="M 69.4174868300189,234.6311054854639 L 76.05871736158642,249.83562573881585 L 91.5059958817143,243.78046550727703 L 85.45083565017546,259.2277440274049 L 100.65535590352741,265.8689745589724 L 85.45083565017546,272.5102050905399 L 91.5059958817143,287.9574836106678 L 76.05871736158642,281.902323379129 L 69.4174868300189,297.10684363248095 L 62.77625629845139,281.902323379129 L 47.328977778323505,287.9574836106678 L 53.38413800986234,272.51020509053996 L 38.179617756510396,265.8689745589724 L 53.38413800986234,259.22774402740487 L 47.3289777783235,243.78046550727703 L 62.77625629845138,249.83562573881585 Z" fill="none" stroke="#00A86B" stroke-width="2.06038709057513" /><path d="M 138.8349736600378,234.6311054854639 L 145.47620419160532,249.83562573881585 L 160.92348271173321,243.78046550727703 L 154.86832248019437,259.2277440274049 L 170.0728427335463,265.8689745589724 L 154.86832248019437,272.5102050905399 L 160.92348271173321,287.9574836106678 L 145.47620419160532,281.902323379129 L 138.8349736600378,297.10684363248095 L 132.1937431284703,281.902323379129 L 116.74646460834241,287.9574836106678 L 122.80162483988124,272.51020509053996 L 107.5971045865293,265.8689745589724 L 122.80162483988124,259.22774402740487 L 116.7464646083424,243.78046550727703 L 132.1937431284703,249.83562573881585 Z" fill="none" stroke="#00A86B" stroke-width="2.06038709057513" /><path d="M 208.2524604900567,234.6311054854639 L 214.89369102162422,249.83562573881585 L 230.34096954175212,243.78046550727703 L 224.28580931021327,259.2277440274049 L 239.4903295635652,265.8689745589724 L 224.28580931021327,272.5102050905399 L 230.34096954175212,287.9574836106678 L 214.89369102162422,281.902323379129 L 208.2524604900567,297.10684363248095 L 201.6112299584892,281.902323379129 L 186.16395143836132,287.9574836106678 L 192.21911166990014,272.51020509053996 L 177.0145914165482,265.8689745589724 L 192.21911166990014,259.22774402740487 L 186.1639514383613,243.78046550727703 L 201.6112299584892,249.83562573881585 Z" fill="none" stroke="#00A86B" stroke-width="2.06038709057513" /><path d="M 277.6699473200756,234.6311054854639 L 284.3111778516431,249.83562573881585 L 299.758456371771,243.78046550727703 L 293.70329614023217,259.2277440274049 L 308.9078163935841,265.8689745589724 L 293.70329614023217,272.5102050905399 L 299.758456371771,287.9574836106678 L 284.3111778516431,281.902323379129 L 277.6699473200756,297.10684363248095 L 271.0287167885081,281.902323379129 L 255.58143826838023,287.9574836106678 L 261.63659849991905,272.51020509053996 L 246.4320782465671,265.8689745589724 L 261.63659849991905,259.22774402740487 L 255.5814382683802,243.78046550727703 L 271.02871678850806,249.83562573881585 Z" fill="none" stroke="#00A86B" stroke-width="2.06038709057513" /><path d="M 347.0874341500945,234.6311054854639 L 353.728664681662,249.83562573881585 L 369.1759432017899,243.78046550727703 L 363.12078297025107,259.2277440274049 L 378.325303223603,265.8689745589724 L 363.12078297025107,272.5102050905399 L 369.1759432017899,287.9574836106678 L 353.728664681662,281.902323379129 L 347.0874341500945,297.10684363248095 L 340.446203618527,281.902323379129 L 324.9989250983991,287.9574836106678 L 331.05408532993795,272.51020509053996 L 315.84956507658603,265.8689745589724 L 331.05408532993795,259.22774402740487 L 324.9989250983991,243.78046550727703 L 340.44620361852697,249.83562573881585 Z" fill="none" stroke="#00A86B" stroke-width="2.06038709057513" /><path d="M 416.5049209801134,234.6311054854639 L 423.1461515116809,249.83562573881585 L 438.5934300318088,243.78046550727703 L 432.53826980027,259.2277440274049 L 447.7427900536219,265.8689745589724 L 432.53826980027,272.5102050905399 L 438.5934300318088,287.9574836106678 L 423.1461515116809,281.902323379129 L 416.5049209801134,297.10684363248095 L 409.8636904485459,281.902323379129 L 394.41641192841803,287.9574836106678 L 400.47157215995685,272.51020509053996 L 385.26705190660493,265.8689745589724 L 400.47157215995685,259.22774402740487 L 394.41641192841803,243.78046550727703 L 409.86369044854587,249.83562573881585 Z" fill="none" stroke="#00A86B" stroke-width="2.06038709057513" /><path d="M 485.9224078101323,234.6311054854639 L 492.5636383416998,249.83562573881585 L 508.0109168618277,243.78046550727703 L 501.9557566302889,259.2277440274049 L 517.1602768836408,265.8689745589724 L 501.9557566302889,272.5102050905399 L 508.0109168618277,287.9574836106678 L 492.5636383416998,281.902323379129 L 485.9224078101323,297.10684363248095 L 479.2811772785648,281.902323379129 L 463.83389875843693,287.9574836106678 L 469.88905898997575,272.51020509053996 L 454.68453873662384,265.8689745589724 L 469.88905898997575,259.22774402740487 L 463.83389875843693,243.78046550727703 L 479.28117727856477,249.83562573881585 Z" fill="none" stroke="#00A86B" stroke-width="2.06038709057513" /><path d="M 555.3398946401512,234.6311054854639 L 561.9811251717188,249.83562573881585 L 577.4284036918466,243.78046550727703 L 571.3732434603078,259.2277440274049 L 586.5777637136597,265.8689745589724 L 571.3732434603078,272.5102050905399 L 577.4284036918466,287.9574836106678 L 561.9811251717188,281.902323379129 L 555.3398946401512,297.10684363248095 L 548.6986641085837,281.902323379129 L 533.2513855884558,287.9574836106678 L 539.3065458199947,272.51020509053996 L 524.1020255666427,265.8689745589724 L 539.3065458199947,259.22774402740487 L 533.2513855884558,243.78046550727703 L 548.6986641085837,249.83562573881585 Z" fill="none" stroke="#00A86B" stroke-width="2.06038709057513" /><path d="M -34.70874341500945,294.7466490802602 L -28.06751288344194,309.9511693336122 L -12.62023436331405,303.8960091020734 L -18.675394594852886,319.3432876222013 L -3.470874341500945,325.98451815376876 L -18.675394594852886,332.62574868533625 L -12.62023436331405,348.07302720546414 L -28.06751288344194,342.0178669739253 L -34.70874341500945,357.2223872272773 L -41.34997394657696,342.0178669739253 L -56.79725246670485,348.07302720546414 L -50.74209223516601,332.6257486853363 L -65.94661248851796,325.98451815376876 L -50.74209223516601,319.3432876222012 L -56.797252466704855,303.8960091020734 L -41.349973946576974,309.9511693336122 Z" fill="none" stroke="#00A86B" stroke-width="2.06038709057513" /><path d="M 34.70874341500945,294.7466490802602 L 41.34997394657697,309.9511693336122 L 56.79725246670485,303.8960091020734 L 50.74209223516601,319.3432876222013 L 65.94661248851796,325.98451815376876 L 50.74209223516601,332.62574868533625 L 56.79725246670485,348.07302720546414 L 41.34997394657697,342.0178669739253 L 34.70874341500945,357.2223872272773 L 28.06751288344194,342.0178669739253 L 12.620234363314054,348.07302720546414 L 18.67539459485289,332.6257486853363 L 3.470874341500945,325.98451815376876 L 18.675394594852886,319.3432876222012 L 12.620234363314047,303.8960091020734 L 28.06751288344193,309.9511693336122 Z" fill="none" stroke="#00A86B" stroke-width="2.06038709057513" /><path d="M 104.12623024502835,294.7466490802602 L 110.76746077659587,309.9511693336122 L 126.21473929672375,303.8960091020734 L 120.15957906518491,319.3432876222013 L 135.36409931853686,325.98451815376876 L 120.15957906518491,332.62574868533625 L 126.21473929672375,348.07302720546414 L 110.76746077659587,342.0178669739253 L 104.12623024502835,357.2223872272773 L 97.48499971346084,342.0178669739253 L 82.03772119333296,348.07302720546414 L 88.09288142487179,332.6257486853363 L 72.88836117151985,325.98451815376876 L 88.09288142487179,319.3432876222012 L 82.03772119333294,303.8960091020734 L 97.48499971346084,309.9511693336122 Z" fill="none" stroke="#00A86B" stroke-width="2.06038709057513" /><path d="M 173.54371707504725,294.7466490802602 L 180.18494760661477,309.9511693336122 L 195.63222612674267,303.8960091020734 L 189.57706589520382,319.3432876222013 L 204.78158614855576,325.98451815376876 L 189.57706589520382,332.62574868533625 L 195.63222612674267,348.07302720546414 L 180.18494760661477,342.0178669739253 L 173.54371707504725,357.2223872272773 L 166.90248654347974,342.0178669739253 L 151.45520802335187,348.07302720546414 L 157.5103682548907,332.6257486853363 L 142.30584800153875,325.98451815376876 L 157.5103682548907,319.3432876222012 L 151.45520802335184,303.8960091020734 L 166.90248654347974,309.9511693336122 Z" fill="none" stroke="#00A86B" stroke-width="2.06038709057513" /><path d="M 242.96120390506616,294.7466490802602 L 249.60243443663367,309.9511693336122 L 265.04971295676154,303.8960091020734 L 258.9945527252227,319.3432876222013 L 274.1990729785747,325.98451815376876 L 258.9945527252227,332.62574868533625 L 265.04971295676154,348.07302720546414 L 249.60243443663367,342.0178669739253 L 242.96120390506616,357.2223872272773 L 236.31997337349864,342.0178669739253 L 220.87269485337077,348.07302720546414 L 226.9278550849096,332.6257486853363 L 211.72333483155765,325.98451815376876 L 226.9278550849096,319.3432876222012 L 220.87269485337075,303.8960091020734 L 236.31997337349864,309.9511693336122 Z" fill="none" stroke="#00A86B" stroke-width="2.06038709057513" /><path d="M 312.37869073508506,294.7466490802602 L 319.01992126665255,309.9511693336122 L 334.46719978678044,303.8960091020734 L 328.4120395552416,319.3432876222013 L 343.6165598085936,325.98451815376876 L 328.4120395552416,332.62574868533625 L 334.46719978678044,348.07302720546414 L 319.01992126665255,342.0178669739253 L 312.37869073508506,357.2223872272773 L 305.73746020351757,342.0178669739253 L 290.2901816833897,348.07302720546414 L 296.3453419149285,332.6257486853363 L 281.1408216615765,325.98451815376876 L 296.3453419149285,319.3432876222012 L 290.2901816833897,303.8960091020734 L 305.7374602035175,309.9511693336122 Z" fill="none" stroke="#00A86B" stroke-width="2.06038709057513" /><path d="M 381.79617756510396,294.7466490802602 L 388.43740809667145,309.9511693336122 L 403.88468661679934,303.8960091020734 L 397.8295263852605,319.3432876222013 L 413.0340466386125,325.98451815376876 L 397.8295263852605,332.62574868533625 L 403.88468661679934,348.07302720546414 L 388.43740809667145,342.0178669739253 L 381.79617756510396,357.2223872272773 L 375.1549470335365,342.0178669739253 L 359.7076685134086,348.07302720546414 L 365.7628287449474,332.6257486853363 L 350.5583084915954,325.98451815376876 L 365.7628287449474,319.3432876222012 L 359.7076685134086,303.8960091020734 L 375.1549470335364,309.9511693336122 Z" fill="none" stroke="#00A86B" stroke-width="2.06038709057513" /><path d="M 451.21366439512286,294.7466490802602 L 457.85489492669035,309.9511693336122 L 473.30217344681824,303.8960091020734 L 467.2470132152794,319.3432876222013 L 482.4515334686314,325.98451815376876 L 467.2470132152794,332.62574868533625 L 473.30217344681824,348.07302720546414 L 457.85489492669035,342.0178669739253 L 451.21366439512286,357.2223872272773 L 444.5724338635554,342.0178669739253 L 429.1251553434275,348.07302720546414 L 435.1803155749663,332.6257486853363 L 419.9757953216143,325.98451815376876 L 435.1803155749663,319.3432876222012 L 429.1251553434275,303.8960091020734 L 444.5724338635553,309.9511693336122 Z" fill="none" stroke="#00A86B" stroke-width="2.06038709057513" /><path d="M 520.6311512251418,294.7466490802602 L 527.2723817567094,309.9511693336122 L 542.7196602768372,303.8960091020734 L 536.6645000452984,319.3432876222013 L 551.8690202986503,325.98451815376876 L 536.6645000452984,332.62574868533625 L 542.7196602768372,348.07302720546414 L 527.2723817567094,342.0178669739253 L 520.6311512251418,357.2223872272773 L 513.9899206935743,342.0178669739253 L 498.54264217344644,348.07302720546414 L 504.59780240498526,332.6257486853363 L 489.39328215163334,325.98451815376876 L 504.59780240498526,319.3432876222012 L 498.54264217344644,303.8960091020734 L 513.9899206935743,309.9511693336122 Z" fill="none" stroke="#00A86B" stroke-width="2.06038709057513" /><path d="M 1.9127678186528142e-15,354.8621926750566 L 6.641230531567513,370.06671292840855 L 22.0885090516954,364.0115526968697 L 16.033348820156565,379.4588312169976 L 31.237869073508506,386.1000617485651 L 16.033348820156565,392.7412922801326 L 22.0885090516954,408.1885708002605 L 6.641230531567513,402.1334105687217 L 1.9127678186528142e-15,417.33793082207364 L -6.641230531567511,402.1334105687217 L -22.088509051695397,408.1885708002605 L -16.03334882015656,392.74129228013265 L -31.237869073508506,386.1000617485651 L -16.033348820156565,379.45883121699757 L -22.088509051695404,364.0115526968697 L -6.641230531567522,370.06671292840855 Z" fill="none" stroke="#00A86B" stroke-width="2.06038709057513" /><path d="M 69.4174868300189,354.8621926750566 L 76.05871736158642,370.06671292840855 L 91.5059958817143,364.0115526968697 L 85.45083565017546,379.4588312169976 L 100.65535590352741,386.1000617485651 L 85.45083565017546,392.7412922801326 L 91.5059958817143,408.1885708002605 L 76.05871736158642,402.1334105687217 L 69.4174868300189,417.33793082207364 L 62.77625629845139,402.1334105687217 L 47.328977778323505,408.1885708002605 L 53.38413800986234,392.74129228013265 L 38.179617756510396,386.1000617485651 L 53.38413800986234,379.45883121699757 L 47.3289777783235,364.0115526968697 L 62.77625629845138,370.06671292840855 Z" fill="none" stroke="#00A86B" stroke-width="2.06038709057513" /><path d="M 138.8349736600378,354.8621926750566 L 145.47620419160532,370.06671292840855 L 160.92348271173321,364.0115526968697 L 154.86832248019437,379.4588312169976 L 170.0728427335463,386.1000617485651 L 154.86832248019437,392.7412922801326 L 160.92348271173321,408.1885708002605 L 145.47620419160532,402.1334105687217 L 138.8349736600378,417.33793082207364 L 132.1937431284703,402.1334105687217 L 116.74646460834241,408.1885708002605 L 122.80162483988124,392.74129228013265 L 107.5971045865293,386.1000617485651 L 122.80162483988124,379.45883121699757 L 116.7464646083424,364.0115526968697 L 132.1937431284703,370.06671292840855 Z" fill="none" stroke="#00A86B" stroke-width="2.06038709057513" /><path d="M 208.2524604900567,354.8621926750566 L 214.89369102162422,370.06671292840855 L 230.34096954175212,364.0115526968697 L 224.28580931021327,379.4588312169976 L 239.4903295635652,386.1000617485651 L 224.28580931021327,392.7412922801326 L 230.34096954175212,408.1885708002605 L 214.89369102162422,402.1334105687217 L 208.2524604900567,417.33793082207364 L 201.6112299584892,402.1334105687217 L 186.16395143836132,408.1885708002605 L 192.21911166990014,392.74129228013265 L 177.0145914165482,386.1000617485651 L 192.21911166990014,379.45883121699757 L 186.1639514383613,364.0115526968697 L 201.6112299584892,370.06671292840855 Z" fill="none" stroke="#00A86B" stroke-width="2.06038709057513" /><path d="M 277.6699473200756,354.8621926750566 L 284.3111778516431,370.06671292840855 L 299.758456371771,364.0115526968697 L 293.70329614023217,379.4588312169976 L 308.9078163935841,386.1000617485651 L 293.70329614023217,392.7412922801326 L 299.758456371771,408.1885708002605 L 284.3111778516431,402.1334105687217 L 277.6699473200756,417.33793082207364 L 271.0287167885081,402.1334105687217 L 255.58143826838023,408.1885708002605 L 261.63659849991905,392.74129228013265 L 246.4320782465671,386.1000617485651 L 261.63659849991905,379.45883121699757 L 255.5814382683802,364.0115526968697 L 271.02871678850806,370.06671292840855 Z" fill="none" stroke="#00A86B" stroke-width="2.06038709057513" /><path d="M 347.0874341500945,354.8621926750566 L 353.728664681662,370.06671292840855 L 369.1759432017899,364.0115526968697 L 363.12078297025107,379.4588312169976 L 378.325303223603,386.1000617485651 L 363.12078297025107,392.7412922801326 L 369.1759432017899,408.1885708002605 L 353.728664681662,402.1334105687217 L 347.0874341500945,417.33793082207364 L 340.446203618527,402.1334105687217 L 324.9989250983991,408.1885708002605 L 331.05408532993795,392.74129228013265 L 315.84956507658603,386.1000617485651 L 331.05408532993795,379.45883121699757 L 324.9989250983991,364.0115526968697 L 340.44620361852697,370.06671292840855 Z" fill="none" stroke="#00A86B" stroke-width="2.06038709057513" /><path d="M 416.5049209801134,354.8621926750566 L 423.1461515116809,370.06671292840855 L 438.5934300318088,364.0115526968697 L 432.53826980027,379.4588312169976 L 447.7427900536219,386.1000617485651 L 432.53826980027,392.7412922801326 L 438.5934300318088,408.1885708002605 L 423.1461515116809,402.1334105687217 L 416.5049209801134,417.33793082207364 L 409.8636904485459,402.1334105687217 L 394.41641192841803,408.1885708002605 L 400.47157215995685,392.74129228013265 L 385.26705190660493,386.1000617485651 L 400.47157215995685,379.45883121699757 L 394.41641192841803,364.0115526968697 L 409.86369044854587,370.06671292840855 Z" fill="none" stroke="#00A86B" stroke-width="2.06038709057513" /><path d="M 485.9224078101323,354.8621926750566 L 492.5636383416998,370.06671292840855 L 508.0109168618277,364.0115526968697 L 501.9557566302889,379.4588312169976 L 517.1602768836408,386.1000617485651 L 501.9557566302889,392.7412922801326 L 508.0109168618277,408.1885708002605 L 492.5636383416998,402.1334105687217 L 485.9224078101323,417.33793082207364 L 479.2811772785648,402.1334105687217 L 463.83389875843693,408.1885708002605 L 469.88905898997575,392.74129228013265 L 454.68453873662384,386.1000617485651 L 469.88905898997575,379.45883121699757 L 463.83389875843693,364.0115526968697 L 479.28117727856477,370.06671292840855 Z" fill="none" stroke="#00A86B" stroke-width="2.06038709057513" /><path d="M 555.3398946401512,354.8621926750566 L 561.9811251717188,370.06671292840855 L 577.4284036918466,364.0115526968697 L 571.3732434603078,379.4588312169976 L 586.5777637136597,386.1000617485651 L 571.3732434603078,392.7412922801326 L 577.4284036918466,408.1885708002605 L 561.9811251717188,402.1334105687217 L 555.3398946401512,417.33793082207364 L 548.6986641085837,402.1334105687217 L 533.2513855884558,408.1885708002605 L 539.3065458199947,392.74129228013265 L 524.1020255666427,386.1000617485651 L 539.3065458199947,379.45883121699757 L 533.2513855884558,364.0115526968697 L 548.6986641085837,370.06671292840855 Z" fill="none" stroke="#00A86B" stroke-width="2.06038709057513" /><path d="M -34.70874341500945,414.97773626985304 L -28.06751288344194,430.18225652320496 L -12.62023436331405,424.12709629166613 L -18.675394594852886,439.57437481179403 L -3.470874341500945,446.2156053433615 L -18.675394594852886,452.856835874929 L -12.62023436331405,468.3041143950569 L -28.06751288344194,462.2489541635181 L -34.70874341500945,477.45347441687 L -41.34997394657696,462.2489541635181 L -56.79725246670485,468.3041143950569 L -50.74209223516601,452.85683587492906 L -65.94661248851796,446.2156053433615 L -50.74209223516601,439.574374811794 L -56.797252466704855,424.12709629166613 L -41.349973946576974,430.18225652320496 Z" fill="none" stroke="#00A86B" stroke-width="2.06038709057513" /><path d="M 34.70874341500945,414.97773626985304 L 41.34997394657697,430.18225652320496 L 56.79725246670485,424.12709629166613 L 50.74209223516601,439.57437481179403 L 65.94661248851796,446.2156053433615 L 50.74209223516601,452.856835874929 L 56.79725246670485,468.3041143950569 L 41.34997394657697,462.2489541635181 L 34.70874341500945,477.45347441687 L 28.06751288344194,462.2489541635181 L 12.620234363314054,468.3041143950569 L 18.67539459485289,452.85683587492906 L 3.470874341500945,446.2156053433615 L 18.675394594852886,439.574374811794 L 12.620234363314047,424.12709629166613 L 28.06751288344193,430.18225652320496 Z" fill="none" stroke="#00A86B" stroke-width="2.06038709057513" /><path d="M 104.12623024502835,414.97773626985304 L 110.76746077659587,430.18225652320496 L 126.21473929672375,424.12709629166613 L 120.15957906518491,439.57437481179403 L 135.36409931853686,446.2156053433615 L 120.15957906518491,452.856835874929 L 126.21473929672375,468.3041143950569 L 110.76746077659587,462.2489541635181 L 104.12623024502835,477.45347441687 L 97.48499971346084,462.2489541635181 L 82.03772119333296,468.3041143950569 L 88.09288142487179,452.85683587492906 L 72.88836117151985,446.2156053433615 L 88.09288142487179,439.574374811794 L 82.03772119333294,424.12709629166613 L 97.48499971346084,430.18225652320496 Z" fill="none" stroke="#00A86B" stroke-width="2.06038709057513" /><path d="M 173.54371707504725,414.97773626985304 L 180.18494760661477,430.18225652320496 L 195.63222612674267,424.12709629166613 L 189.57706589520382,439.57437481179403 L 204.78158614855576,446.2156053433615 L 189.57706589520382,452.856835874929 L 195.63222612674267,468.3041143950569 L 180.18494760661477,462.2489541635181 L 173.54371707504725,477.45347441687 L 166.90248654347974,462.2489541635181 L 151.45520802335187,468.3041143950569 L 157.5103682548907,452.85683587492906 L 142.30584800153875,446.2156053433615 L 157.5103682548907,439.574374811794 L 151.45520802335184,424.12709629166613 L 166.90248654347974,430.18225652320496 Z" fill="none" stroke="#00A86B" stroke-width="2.06038709057513" /><path d="M 242.96120390506616,414.97773626985304 L 249.60243443663367,430.18225652320496 L 265.04971295676154,424.12709629166613 L 258.9945527252227,439.57437481179403 L 274.1990729785747,446.2156053433615 L 258.9945527252227,452.856835874929 L 265.04971295676154,468.3041143950569 L 249.60243443663367,462.2489541635181 L 242.96120390506616,477.45347441687 L 236.31997337349864,462.2489541635181 L 220.87269485337077,468.3041143950569 L 226.9278550849096,452.85683587492906 L 211.72333483155765,446.2156053433615 L 226.9278550849096,439.574374811794 L 220.87269485337075,424.12709629166613 L 236.31997337349864,430.18225652320496 Z" fill="none" stroke="#00A86B" stroke-width="2.06038709057513" /><path d="M 312.37869073508506,414.97773626985304 L 319.01992126665255,430.18225652320496 L 334.46719978678044,424.12709629166613 L 328.4120395552416,439.57437481179403 L 343.6165598085936,446.2156053433615 L 328.4120395552416,452.856835874929 L 334.46719978678044,468.3041143950569 L 319.01992126665255,462.2489541635181 L 312.37869073508506,477.45347441687 L 305.73746020351757,462.2489541635181 L 290.2901816833897,468.3041143950569 L 296.3453419149285,452.85683587492906 L 281.1408216615765,446.2156053433615 L 296.3453419149285,439.574374811794 L 290.2901816833897,424.12709629166613 L 305.7374602035175,430.18225652320496 Z" fill="none" stroke="#00A86B" stroke-width="2.06038709057513" /><path d="M 381.79617756510396,414.97773626985304 L 388.43740809667145,430.18225652320496 L 403.88468661679934,424.12709629166613 L 397.8295263852605,439.57437481179403 L 413.0340466386125,446.2156053433615 L 397.8295263852605,452.856835874929 L 403.88468661679934,468.3041143950569 L 388.43740809667145,462.2489541635181 L 381.79617756510396,477.45347441687 L 375.1549470335365,462.2489541635181 L 359.7076685134086,468.3041143950569 L 365.7628287449474,452.85683587492906 L 350.5583084915954,446.2156053433615 L 365.7628287449474,439.574374811794 L 359.7076685134086,424.12709629166613 L 375.1549470335364,430.18225652320496 Z" fill="none" stroke="#00A86B" stroke-width="2.06038709057513" /><path d="M 451.21366439512286,414.97773626985304 L 457.85489492669035,430.18225652320496 L 473.30217344681824,424.12709629166613 L 467.2470132152794,439.57437481179403 L 482.4515334686314,446.2156053433615 L 467.2470132152794,452.856835874929 L 473.30217344681824,468.3041143950569 L 457.85489492669035,462.2489541635181 L 451.21366439512286,477.45347441687 L 444.5724338635554,462.2489541635181 L 429.1251553434275,468.3041143950569 L 435.1803155749663,452.85683587492906 L 419.9757953216143,446.2156053433615 L 435.1803155749663,439.574374811794 L 429.1251553434275,424.12709629166613 L 444.5724338635553,430.18225652320496 Z" fill="none" stroke="#00A86B" stroke-width="2.06038709057513" /><path d="M 520.6311512251418,414.97773626985304 L 527.2723817567094,430.18225652320496 L 542.7196602768372,424.12709629166613 L 536.6645000452984,439.57437481179403 L 551.8690202986503,446.2156053433615 L 536.6645000452984,452.856835874929 L 542.7196602768372,468.3041143950569 L 527.2723817567094,462.2489541635181 L 520.6311512251418,477.45347441687 L 513.9899206935743,462.2489541635181 L 498.54264217344644,468.3041143950569 L 504.59780240498526,452.85683587492906 L 489.39328215163334,446.2156053433615 L 504.59780240498526,439.574374811794 L 498.54264217344644,424.12709629166613 L 513.9899206935743,430.18225652320496 Z" fill="none" stroke="#00A86B" stroke-width="2.06038709057513" /><path d="M 1.9127678186528142e-15,475.0932798646493 L 6.641230531567513,490.29780011800125 L 22.0885090516954,484.2426398864624 L 16.033348820156565,499.6899184065903 L 31.237869073508506,506.3311489381578 L 16.033348820156565,512.9723794697253 L 22.0885090516954,528.4196579898532 L 6.641230531567513,522.3644977583144 L 1.9127678186528142e-15,537.5690180116663 L -6.641230531567511,522.3644977583144 L -22.088509051695397,528.4196579898532 L -16.03334882015656,512.9723794697253 L -31.237869073508506,506.3311489381578 L -16.033348820156565,499.68991840659027 L -22.088509051695404,484.2426398864624 L -6.641230531567522,490.29780011800125 Z" fill="none" stroke="#00A86B" stroke-width="2.06038709057513" /><path d="M 69.4174868300189,475.0932798646493 L 76.05871736158642,490.29780011800125 L 91.5059958817143,484.2426398864624 L 85.45083565017546,499.6899184065903 L 100.65535590352741,506.3311489381578 L 85.45083565017546,512.9723794697253 L 91.5059958817143,528.4196579898532 L 76.05871736158642,522.3644977583144 L 69.4174868300189,537.5690180116663 L 62.77625629845139,522.3644977583144 L 47.328977778323505,528.4196579898532 L 53.38413800986234,512.9723794697253 L 38.179617756510396,506.3311489381578 L 53.38413800986234,499.68991840659027 L 47.3289777783235,484.2426398864624 L 62.77625629845138,490.29780011800125 Z" fill="none" stroke="#00A86B" stroke-width="2.06038709057513" /><path d="M 138.8349736600378,475.0932798646493 L 145.47620419160532,490.29780011800125 L 160.92348271173321,484.2426398864624 L 154.86832248019437,499.6899184065903 L 170.0728427335463,506.3311489381578 L 154.86832248019437,512.9723794697253 L 160.92348271173321,528.4196579898532 L 145.47620419160532,522.3644977583144 L 138.8349736600378,537.5690180116663 L 132.1937431284703,522.3644977583144 L 116.74646460834241,528.4196579898532 L 122.80162483988124,512.9723794697253 L 107.5971045865293,506.3311489381578 L 122.80162483988124,499.68991840659027 L 116.7464646083424,484.2426398864624 L 132.1937431284703,490.29780011800125 Z" fill="none" stroke="#00A86B" stroke-width="2.06038709057513" /><path d="M 208.2524604900567,475.0932798646493 L 214.89369102162422,490.29780011800125 L 230.34096954175212,484.2426398864624 L 224.28580931021327,499.6899184065903 L 239.4903295635652,506.3311489381578 L 224.28580931021327,512.9723794697253 L 230.34096954175212,528.4196579898532 L 214.89369102162422,522.3644977583144 L 208.2524604900567,537.5690180116663 L 201.6112299584892,522.3644977583144 L 186.16395143836132,528.4196579898532 L 192.21911166990014,512.9723794697253 L 177.0145914165482,506.3311489381578 L 192.21911166990014,499.68991840659027 L 186.1639514383613,484.2426398864624 L 201.6112299584892,490.29780011800125 Z" fill="none" stroke="#00A86B" stroke-width="2.06038709057513" /><path d="M 277.6699473200756,475.0932798646493 L 284.3111778516431,490.29780011800125 L 299.758456371771,484.2426398864624 L 293.70329614023217,499.6899184065903 L 308.9078163935841,506.3311489381578 L 293.70329614023217,512.9723794697253 L 299.758456371771,528.4196579898532 L 284.3111778516431,522.3644977583144 L 277.6699473200756,537.5690180116663 L 271.0287167885081,522.3644977583144 L 255.58143826838023,528.4196579898532 L 261.63659849991905,512.9723794697253 L 246.4320782465671,506.3311489381578 L 261.63659849991905,499.68991840659027 L 255.5814382683802,484.2426398864624 L 271.02871678850806,490.29780011800125 Z" fill="none" stroke="#00A86B" stroke-width="2.06038709057513" /><path d="M 347.0874341500945,475.0932798646493 L 353.728664681662,490.29780011800125 L 369.1759432017899,484.2426398864624 L 363.12078297025107,499.6899184065903 L 378.325303223603,506.3311489381578 L 363.12078297025107,512.9723794697253 L 369.1759432017899,528.4196579898532 L 353.728664681662,522.3644977583144 L 347.0874341500945,537.5690180116663 L 340.446203618527,522.3644977583144 L 324.9989250983991,528.4196579898532 L 331.05408532993795,512.9723794697253 L 315.84956507658603,506.3311489381578 L 331.05408532993795,499.68991840659027 L 324.9989250983991,484.2426398864624 L 340.44620361852697,490.29780011800125 Z" fill="none" stroke="#00A86B" stroke-width="2.06038709057513" /><path d="M 416.5049209801134,475.0932798646493 L 423.1461515116809,490.29780011800125 L 438.5934300318088,484.2426398864624 L 432.53826980027,499.6899184065903 L 447.7427900536219,506.3311489381578 L 432.53826980027,512.9723794697253 L 438.5934300318088,528.4196579898532 L 423.1461515116809,522.3644977583144 L 416.5049209801134,537.5690180116663 L 409.8636904485459,522.3644977583144 L 394.41641192841803,528.4196579898532 L 400.47157215995685,512.9723794697253 L 385.26705190660493,506.3311489381578 L 400.47157215995685,499.68991840659027 L 394.41641192841803,484.2426398864624 L 409.86369044854587,490.29780011800125 Z" fill="none" stroke="#00A86B" stroke-width="2.06038709057513" /><path d="M 485.9224078101323,475.0932798646493 L 492.5636383416998,490.29780011800125 L 508.0109168618277,484.2426398864624 L 501.9557566302889,499.6899184065903 L 517.1602768836408,506.3311489381578 L 501.9557566302889,512.9723794697253 L 508.0109168618277,528.4196579898532 L 492.5636383416998,522.3644977583144 L 485.9224078101323,537.5690180116663 L 479.2811772785648,522.3644977583144 L 463.83389875843693,528.4196579898532 L 469.88905898997575,512.9723794697253 L 454.68453873662384,506.3311489381578 L 469.88905898997575,499.68991840659027 L 463.83389875843693,484.2426398864624 L 479.28117727856477,490.29780011800125 Z" fill="none" stroke="#00A86B" stroke-width="2.06038709057513" /><path d="M 555.3398946401512,475.0932798646493 L 561.9811251717188,490.29780011800125 L 577.4284036918466,484.2426398864624 L 571.3732434603078,499.6899184065903 L 586.5777637136597,506.3311489381578 L 571.3732434603078,512.9723794697253 L 577.4284036918466,528.4196579898532 L 561.9811251717188,522.3644977583144 L 555.3398946401512,537.5690180116663 L 548.6986641085837,522.3644977583144 L 533.2513855884558,528.4196579898532 L 539.3065458199947,512.9723794697253 L 524.1020255666427,506.3311489381578 L 539.3065458199947,499.68991840659027 L 533.2513855884558,484.2426398864624 L 548.6986641085837,490.29780011800125 Z" fill="none" stroke="#00A86B" stroke-width="2.06038709057513" /><line x1="31.237869073508506" y1="25.40680017978692" x2="38.179617756510396" y2="25.40680017978692" stroke="#00A86B" stroke-width="0.5"/><line x1="100.65535590352741" y1="25.40680017978692" x2="107.5971045865293" y2="25.40680017978692" stroke="#00A86B" stroke-width="0.5"/><line x1="170.0728427335463" y1="25.40680017978692" x2="177.0145914165482" y2="25.40680017978692" stroke="#00A86B" stroke-width="0.5"/><line x1="239.4903295635652" y1="25.40680017978692" x2="246.4320782465671" y2="25.40680017978692" stroke="#00A86B" stroke-width="0.5"/><line x1="308.9078163935841" y1="25.40680017978692" x2="315.84956507658603" y2="25.40680017978692" stroke="#00A86B" stroke-width="0.5"/><line x1="378.325303223603" y1="25.40680017978692" x2="385.26705190660493" y2="25.40680017978692" stroke="#00A86B" stroke-width="0.5"/><line x1="447.7427900536219" y1="25.40680017978692" x2="454.68453873662384" y2="25.40680017978692" stroke="#00A86B" stroke-width="0.5"/><line x1="65.94661248851796" y1="85.52234377458329" x2="72.88836117151985" y2="85.52234377458329" stroke="#00A86B" stroke-width="0.5"/><line x1="135.36409931853686" y1="85.52234377458329" x2="142.30584800153875" y2="85.52234377458329" stroke="#00A86B" stroke-width="0.5"/><line x1="204.78158614855576" y1="85.52234377458329" x2="211.72333483155765" y2="85.52234377458329" stroke="#00A86B" stroke-width="0.5"/><line x1="274.1990729785747" y1="85.52234377458329" x2="281.1408216615765" y2="85.52234377458329" stroke="#00A86B" stroke-width="0.5"/><line x1="343.6165598085936" y1="85.52234377458329" x2="350.5583084915954" y2="85.52234377458329" stroke="#00A86B" stroke-width="0.5"/><line x1="413.0340466386125" y1="85.52234377458329" x2="419.9757953216143" y2="85.52234377458329" stroke="#00A86B" stroke-width="0.5"/><line x1="482.4515334686314" y1="85.52234377458329" x2="489.39328215163334" y2="85.52234377458329" stroke="#00A86B" stroke-width="0.5"/><line x1="31.237869073508506" y1="145.63788736937965" x2="38.179617756510396" y2="145.63788736937965" stroke="#00A86B" stroke-width="0.5"/><line x1="100.65535590352741" y1="145.63788736937965" x2="107.5971045865293" y2="145.63788736937965" stroke="#00A86B" stroke-width="0.5"/><line x1="170.0728427335463" y1="145.63788736937965" x2="177.0145914165482" y2="145.63788736937965" stroke="#00A86B" stroke-width="0.5"/><line x1="239.4903295635652" y1="145.63788736937965" x2="246.4320782465671" y2="145.63788736937965" stroke="#00A86B" stroke-width="0.5"/><line x1="308.9078163935841" y1="145.63788736937965" x2="315.84956507658603" y2="145.63788736937965" stroke="#00A86B" stroke-width="0.5"/><line x1="378.325303223603" y1="145.63788736937965" x2="385.26705190660493" y2="145.63788736937965" stroke="#00A86B" stroke-width="0.5"/><line x1="447.7427900536219" y1="145.63788736937965" x2="454.68453873662384" y2="145.63788736937965" stroke="#00A86B" stroke-width="0.5"/><line x1="65.94661248851796" y1="205.75343096417603" x2="72.88836117151985" y2="205.75343096417603" stroke="#00A86B" stroke-width="0.5"/><line x1="135.36409931853686" y1="205.75343096417603" x2="142.30584800153875" y2="205.75343096417603" stroke="#00A86B" stroke-width="0.5"/><line x1="204.78158614855576" y1="205.75343096417603" x2="211.72333483155765" y2="205.75343096417603" stroke="#00A86B" stroke-width="0.5"/><line x1="274.1990729785747" y1="205.75343096417603" x2="281.1408216615765" y2="205.75343096417603" stroke="#00A86B" stroke-width="0.5"/><line x1="343.6165598085936" y1="205.75343096417603" x2="350.5583084915954" y2="205.75343096417603" stroke="#00A86B" stroke-width="0.5"/><line x1="413.0340466386125" y1="205.75343096417603" x2="419.9757953216143" y2="205.75343096417603" stroke="#00A86B" stroke-width="0.5"/><line x1="482.4515334686314" y1="205.75343096417603" x2="489.39328215163334" y2="205.75343096417603" stroke="#00A86B" stroke-width="0.5"/><line x1="31.237869073508506" y1="265.8689745589724" x2="38.179617756510396" y2="265.8689745589724" stroke="#00A86B" stroke-width="0.5"/><line x1="100.65535590352741" y1="265.8689745589724" x2="107.5971045865293" y2="265.8689745589724" stroke="#00A86B" stroke-width="0.5"/><line x1="170.0728427335463" y1="265.8689745589724" x2="177.0145914165482" y2="265.8689745589724" stroke="#00A86B" stroke-width="0.5"/><line x1="239.4903295635652" y1="265.8689745589724" x2="246.4320782465671" y2="265.8689745589724" stroke="#00A86B" stroke-width="0.5"/><line x1="308.9078163935841" y1="265.8689745589724" x2="315.84956507658603" y2="265.8689745589724" stroke="#00A86B" stroke-width="0.5"/><line x1="378.325303223603" y1="265.8689745589724" x2="385.26705190660493" y2="265.8689745589724" stroke="#00A86B" stroke-width="0.5"/><line x1="447.7427900536219" y1="265.8689745589724" x2="454.68453873662384" y2="265.8689745589724" stroke="#00A86B" stroke-width="0.5"/><line x1="65.94661248851796" y1="325.98451815376876" x2="72.88836117151985" y2="325.98451815376876" stroke="#00A86B" stroke-width="0.5"/><line x1="135.36409931853686" y1="325.98451815376876" x2="142.30584800153875" y2="325.98451815376876" stroke="#00A86B" stroke-width="0.5"/><line x1="204.78158614855576" y1="325.98451815376876" x2="211.72333483155765" y2="325.98451815376876" stroke="#00A86B" stroke-width="0.5"/><line x1="274.1990729785747" y1="325.98451815376876" x2="281.1408216615765" y2="325.98451815376876" stroke="#00A86B" stroke-width="0.5"/><line x1="343.6165598085936" y1="325.98451815376876" x2="350.5583084915954" y2="325.98451815376876" stroke="#00A86B" stroke-width="0.5"/><line x1="413.0340466386125" y1="325.98451815376876" x2="419.9757953216143" y2="325.98451815376876" stroke="#00A86B" stroke-width="0.5"/><line x1="482.4515334686314" y1="325.98451815376876" x2="489.39328215163334" y2="325.98451815376876" stroke="#00A86B" stroke-width="0.5"/><line x1="31.237869073508506" y1="386.1000617485651" x2="38.179617756510396" y2="386.1000617485651" stroke="#00A86B" stroke-width="0.5"/><line x1="100.65535590352741" y1="386.1000617485651" x2="107.5971045865293" y2="386.1000617485651" stroke="#00A86B" stroke-width="0.5"/><line x1="170.0728427335463" y1="386.1000617485651" x2="177.0145914165482" y2="386.1000617485651" stroke="#00A86B" stroke-width="0.5"/><line x1="239.4903295635652" y1="386.1000617485651" x2="246.4320782465671" y2="386.1000617485651" stroke="#00A86B" stroke-width="0.5"/><line x1="308.9078163935841" y1="386.1000617485651" x2="315.84956507658603" y2="386.1000617485651" stroke="#00A86B" stroke-width="0.5"/><line x1="378.325303223603" y1="386.1000617485651" x2="385.26705190660493" y2="386.1000617485651" stroke="#00A86B" stroke-width="0.5"/><line x1="447.7427900536219" y1="386.1000617485651" x2="454.68453873662384" y2="386.1000617485651" stroke="#00A86B" stroke-width="0.5"/><line x1="65.94661248851796" y1="446.2156053433615" x2="72.88836117151985" y2="446.2156053433615" stroke="#00A86B" stroke-width="0.5"/><line x1="135.36409931853686" y1="446.2156053433615" x2="142.30584800153875" y2="446.2156053433615" stroke="#00A86B" stroke-width="0.5"/><line x1="204.78158614855576" y1="446.2156053433615" x2="211.72333483155765" y2="446.2156053433615" stroke="#00A86B" stroke-width="0.5"/><line x1="274.1990729785747" y1="446.2156053433615" x2="281.1408216615765" y2="446.2156053433615" stroke="#00A86B" stroke-width="0.5"/><line x1="343.6165598085936" y1="446.2156053433615" x2="350.5583084915954" y2="446.2156053433615" stroke="#00A86B" stroke-width="0.5"/><line x1="413.0340466386125" y1="446.2156053433615" x2="419.9757953216143" y2="446.2156053433615" stroke="#00A86B" stroke-width="0.5"/><line x1="482.4515334686314" y1="446.2156053433615" x2="489.39328215163334" y2="446.2156053433615" stroke="#00A86B" stroke-width="0.5"/><line x1="31.237869073508506" y1="506.3311489381578" x2="38.179617756510396" y2="506.3311489381578" stroke="#00A86B" stroke-width="0.5"/><line x1="100.65535590352741" y1="506.3311489381578" x2="107.5971045865293" y2="506.3311489381578" stroke="#00A86B" stroke-width="0.5"/><line x1="170.0728427335463" y1="506.3311489381578" x2="177.0145914165482" y2="506.3311489381578" stroke="#00A86B" stroke-width="0.5"/><line x1="239.4903295635652" y1="506.3311489381578" x2="246.4320782465671" y2="506.3311489381578" stroke="#00A86B" stroke-width="0.5"/><line x1="308.9078163935841" y1="506.3311489381578" x2="315.84956507658603" y2="506.3311489381578" stroke="#00A86B" stroke-width="0.5"/><line x1="378.325303223603" y1="506.3311489381578" x2="385.26705190660493" y2="506.3311489381578" stroke="#00A86B" stroke-width="0.5"/><line x1="447.7427900536219" y1="506.3311489381578" x2="454.68453873662384" y2="506.3311489381578" stroke="#00A86B" stroke-width="0.5"/></g></svg>