<svg xmlns="http://www.w3.org/2000/svg" width="512" height="512" viewBox="0 0 512 512"><rect x="0" y="0" width="512" height="512" fill="#000000"/><g opacity="0.0793713331359305"><path d="M -33.556873395749896,-63.75805945192481 L -27.136043650486727,-49.058127648452825 L -12.201409935552014,-54.91233685594777 L -18.05561914304697,-39.977703141013066 L -3.355687339574988,-33.556873395749896 L -18.05561914304697,-27.136043650486727 L -12.201409935552014,-12.201409935552018 L -27.136043650486727,-18.05561914304697 L -33.556873395749896,-3.355687339574988 L -39.977703141013066,-18.05561914304697 L -54.91233685594777,-12.201409935552014 L -49.05812764845282,-27.13604365048672 L -63.75805945192481,-33.55687339574989 L -49.05812764845282,-39.977703141013066 L -54.912336855947785,-54.91233685594777 L -39.97770314101307,-49.05812764845282 Z" fill="none" stroke="#00A86B" stroke-width="2.6060639629634395" /><path d="M 33.556873395749896,-63.75805945192481 L 39.977703141013066,-49.058127648452825 L 54.91233685594778,-54.91233685594777 L 49.058127648452825,-39.977703141013066 L 63.75805945192481,-33.556873395749896 L 49.058127648452825,-27.136043650486727 L 54.91233685594778,-12.201409935552018 L 39.977703141013066,-18.05561914304697 L 33.556873395749896,-3.355687339574988 L 27.13604365048673,-18.05561914304697 L 12.201409935552018,-12.201409935552014 L 18.055619143046975,-27.13604365048672 L 3.355687339574988,-33.55687339574989 L 18.055619143046975,-39.977703141013066 L 12.201409935552011,-54.91233685594777 L 27.13604365048672,-49.05812764845282 Z" fill="none" stroke="#00A86B" stroke-width="2.6060639629634395" /><path d="M 100.67062018724968,-63.75805945192481 L 107.09144993251284,-49.058127648452825 L 122.02608364744756,-54.91233685594777 L 116.1718744399526,-39.977703141013066 L 130.8718062434246,-33.556873395749896 L 116.1718744399526,-27.136043650486727 L 122.02608364744756,-12.201409935552018 L 107.09144993251284,-18.05561914304697 L 100.67062018724968,-3.355687339574988 L 94.24979044198652,-18.05561914304697 L 79.3151567270518,-12.201409935552014 L 85.16936593454676,-27.13604365048672 L 70.46943413107478,-33.55687339574989 L 85.16936593454676,-39.977703141013066 L 79.3151567270518,-54.91233685594777 L 94.2497904419865,-49.05812764845282 Z" fill="none" stroke="#00A86B" stroke-width="2.6060639629634395" /><path d="M 167.78436697874946,-63.75805945192481 L 174.20519672401264,-49.058127648452825 L 189.13983043894734,-54.91233685594777 L 183.28562123145238,-39.977703141013066 L 197.98555303492438,-33.556873395749896 L 183.28562123145238,-27.136043650486727 L 189.13983043894734,-12.201409935552018 L 174.20519672401264,-18.05561914304697 L 167.78436697874946,-3.355687339574988 L 161.36353723348628,-18.05561914304697 L 146.42890351855158,-12.201409935552014 L 152.28311272604654,-27.13604365048672 L 137.58318092257454,-33.55687339574989 L 152.28311272604654,-39.977703141013066 L 146.42890351855158,-54.91233685594777 L 161.36353723348628,-49.05812764845282 Z" fill="none" stroke="#00A86B" stroke-width="2.6060639629634395" /><path d="M 234.89811377024927,-63.75805945192481 L 241.31894351551244,-49.058127648452825 L 256.25357723044715,-54.91233685594777 L 250.3993680229522,-39.977703141013066 L 265.09929982642416,-33.556873395749896 L 250.3993680229522,-27.136043650486727 L 256.25357723044715,-12.201409935552018 L 241.31894351551244,-18.05561914304697 L 234.89811377024927,-3.355687339574988 L 228.4772840249861,-18.05561914304697 L 213.54265031005139,-12.201409935552014 L 219.39685951754635,-27.13604365048672 L 204.69692771407435,-33.55687339574989 L 219.39685951754635,-39.977703141013066 L 213.54265031005139,-54.91233685594777 L 228.4772840249861,-49.05812764845282 Z" fill="none" stroke="#00A86B" stroke-width="2.6060639629634395" /><path d="M 302.0118605617491,-63.75805945192481 L 308.43269030701225,-49.058127648452825 L 323.36732402194696,-54.91233685594777 L 317.513114814452,-39.977703141013066 L 332.21304661792396,-33.556873395749896 L 317.513114814452,-27.136043650486727 L 323.36732402194696,-12.201409935552018 L 308.43269030701225,-18.05561914304697 L 302.0118605617491,-3.355687339574988 L 295.5910308164859,-18.05561914304697 L 280.6563971015512,-12.201409935552014 L 286.5106063090461,-27.13604365048672 L 271.8106745055742,-33.55687339574989 L 286.5106063090461,-39.977703141013066 L 280.6563971015512,-54.91233685594777 L 295.5910308164859,-49.05812764845282 Z" fill="none" stroke="#00A86B" stroke-width="2.6060639629634395" /><path d="M 369.1256073532488,-63.75805945192481 L 375.546437098512,-49.058127648452825 L 390.4810708134467,-54.91233685594777 L 384.6268616059518,-39.977703141013066 L 399.3267934094237,-33.556873395749896 L 384.6268616059518,-27.136043650486727 L 390.4810708134467,-12.201409935552018 L 375.546437098512,-18.05561914304697 L 369.1256073532488,-3.355687339574988 L 362.70477760798565,-18.05561914304697 L 347.77014389305094,-12.201409935552014 L 353.62435310054593,-27.13604365048672 L 338.92442129707393,-33.55687339574989 L 353.6243531005459,-39.977703141013066 L 347.77014389305094,-54.91233685594777 L 362.70477760798565,-49.05812764845282 Z" fill="none" stroke="#00A86B" stroke-width="2.6060639629634395" /><path d="M 436.23935414474863,-63.75805945192481 L 442.6601838900118,-49.058127648452825 L 457.5948176049465,-54.91233685594777 L 451.7406083974516,-39.977703141013066 L 466.4405402009235,-33.556873395749896 L 451.7406083974516,-27.136043650486727 L 457.5948176049465,-12.201409935552018 L 442.6601838900118,-18.05561914304697 L 436.23935414474863,-3.355687339574988 L 429.81852439948545,-18.05561914304697 L 414.88389068455075,-12.201409935552014 L 420.73809989204574,-27.13604365048672 L 406.03816808857374,-33.55687339574989 L 420.7380998920457,-39.977703141013066 L 414.88389068455075,-54.91233685594777 L 429.81852439948545,-49.05812764845282 Z" fill="none" stroke="#00A86B" stroke-width="2.6060639629634395" /><path d="M 503.35310093624844,-63.75805945192481 L 509.7739306815116,-49.058127648452825 L 524.7085643964463,-54.91233685594777 L 518.8543551889513,-39.977703141013066 L 533.5542869924234,-33.556873395749896 L 518.8543551889513,-27.136043650486727 L 524.7085643964463,-12.201409935552018 L 509.7739306815116,-18.05561914304697 L 503.35310093624844,-3.355687339574988 L 496.93227119098526,-18.05561914304697 L 481.99763747605056,-12.201409935552014 L 487.85184668354555,-27.13604365048672 L 473.15191488007355,-33.55687339574989 L 487.8518466835455,-39.977703141013066 L 481.99763747605056,-54.91233685594777 L 496.93227119098526,-49.05812764845282 Z" fill="none" stroke="#00A86B" stroke-width="2.6060639629634395" /><path d="M 570.4668477277482,-63.75805945192481 L 576.8876774730114,-49.058127648452825 L 591.8223111879461,-54.91233685594777 L 585.9681019804511,-39.977703141013066 L 600.6680337839232,-33.556873395749896 L 585.9681019804511,-27.136043650486727 L 591.8223111879461,-12.201409935552018 L 576.8876774730114,-18.05561914304697 L 570.4668477277482,-3.355687339574988 L 564.0460179824851,-18.05561914304697 L 549.1113842675504,-12.201409935552014 L 554.9655934750454,-27.13604365048672 L 540.2656616715733,-33.55687339574989 L 554.9655934750454,-39.977703141013066 L 549.1113842675503,-54.91233685594777 L 564.0460179824851,-49.05812764845282 Z" fill="none" stroke="#00A86B" stroke-width="2.6060639629634395" /><path d="M 1.849289291707414e-15,-5.637554730485984 L 6.420829745263169,9.062377072986 L 21.355463460197882,3.2081678654910455 L 15.501254252702925,18.142801580425754 L 30.201186056174908,24.563631325688924 L 15.501254252702925,30.984461070952094 L 21.355463460197882,45.9190947858868 L 6.420829745263169,40.06488557839185 L 1.849289291707414e-15,54.764817381863836 L -6.420829745263167,40.06488557839185 L -21.35546346019788,45.919094785886806 L -15.501254252702921,30.9844610709521 L -30.201186056174908,24.563631325688927 L -15.501254252702923,18.14280158042575 L -21.355463460197885,3.2081678654910455 L -6.420829745263178,9.062377072986003 Z" fill="none" stroke="#00A86B" stroke-width="2.6060639629634395" /><path d="M 67.11374679149979,-5.637554730485984 L 73.53457653676296,9.062377072986 L 88.46921025169767,3.2081678654910455 L 82.61500104420271,18.142801580425754 L 97.3149328476747,24.563631325688924 L 82.61500104420271,30.984461070952094 L 88.46921025169767,45.9190947858868 L 73.53457653676296,40.06488557839185 L 67.11374679149979,54.764817381863836 L 60.69291704623662,40.06488557839185 L 45.75828333130191,45.919094785886806 L 51.61249253879687,30.9844610709521 L 36.91256073532489,24.563631325688927 L 51.61249253879687,18.14280158042575 L 45.75828333130191,3.2081678654910455 L 60.692917046236616,9.062377072986003 Z" fill="none" stroke="#00A86B" stroke-width="2.6060639629634395" /><path d="M 134.22749358299959,-5.637554730485984 L 140.64832332826276,9.062377072986 L 155.58295704319747,3.2081678654910455 L 149.7287478357025,18.142801580425754 L 164.4286796391745,24.563631325688924 L 149.7287478357025,30.984461070952094 L 155.58295704319747,45.9190947858868 L 140.64832332826276,40.06488557839185 L 134.22749358299959,54.764817381863836 L 127.80666383773642,40.06488557839185 L 112.8720301228017,45.919094785886806 L 118.72623933029666,30.9844610709521 L 104.02630752682468,24.563631325688927 L 118.72623933029666,18.14280158042575 L 112.8720301228017,3.2081678654910455 L 127.80666383773641,9.062377072986003 Z" fill="none" stroke="#00A86B" stroke-width="2.6060639629634395" /><path d="M 201.34124037449936,-5.637554730485984 L 207.76207011976254,9.062377072986 L 222.69670383469725,3.2081678654910455 L 216.84249462720229,18.142801580425754 L 231.54242643067428,24.563631325688924 L 216.84249462720229,30.984461070952094 L 222.69670383469725,45.9190947858868 L 207.76207011976254,40.06488557839185 L 201.34124037449936,54.764817381863836 L 194.9204106292362,40.06488557839185 L 179.98577691430148,45.919094785886806 L 185.83998612179644,30.9844610709521 L 171.14005431832445,24.563631325688927 L 185.83998612179644,18.14280158042575 L 179.98577691430148,3.2081678654910455 L 194.9204106292362,9.062377072986003 Z" fill="none" stroke="#00A86B" stroke-width="2.6060639629634395" /><path d="M 268.45498716599917,-5.637554730485984 L 274.87581691126235,9.062377072986 L 289.81045062619705,3.2081678654910455 L 283.9562414187021,18.142801580425754 L 298.65617322217406,24.563631325688924 L 283.9562414187021,30.984461070952094 L 289.81045062619705,45.9190947858868 L 274.87581691126235,40.06488557839185 L 268.45498716599917,54.764817381863836 L 262.034157420736,40.06488557839185 L 247.0995237058013,45.919094785886806 L 252.95373291329625,30.9844610709521 L 238.25380110982425,24.563631325688927 L 252.95373291329625,18.14280158042575 L 247.0995237058013,3.2081678654910455 L 262.034157420736,9.062377072986003 Z" fill="none" stroke="#00A86B" stroke-width="2.6060639629634395" /><path d="M 335.568733957499,-5.637554730485984 L 341.98956370276215,9.062377072986 L 356.92419741769686,3.2081678654910455 L 351.0699882102019,18.142801580425754 L 365.76992001367387,24.563631325688924 L 351.0699882102019,30.984461070952094 L 356.92419741769686,45.9190947858868 L 341.98956370276215,40.06488557839185 L 335.568733957499,54.764817381863836 L 329.1479042122358,40.06488557839185 L 314.2132704973011,45.919094785886806 L 320.067479704796,30.9844610709521 L 305.3675479013241,24.563631325688927 L 320.067479704796,18.14280158042575 L 314.2132704973011,3.2081678654910455 L 329.1479042122358,9.062377072986003 Z" fill="none" stroke="#00A86B" stroke-width="2.6060639629634395" /><path d="M 402.6824807489987,-5.637554730485984 L 409.1033104942619,9.062377072986 L 424.0379442091966,3.2081678654910455 L 418.1837350017017,18.142801580425754 L 432.8836668051736,24.563631325688924 L 418.1837350017017,30.984461070952094 L 424.0379442091966,45.9190947858868 L 409.1033104942619,40.06488557839185 L 402.6824807489987,54.764817381863836 L 396.26165100373555,40.06488557839185 L 381.32701728880085,45.919094785886806 L 387.18122649629584,30.9844610709521 L 372.48129469282384,24.563631325688927 L 387.1812264962958,18.14280158042575 L 381.32701728880085,3.2081678654910455 L 396.26165100373555,9.062377072986003 Z" fill="none" stroke="#00A86B" stroke-width="2.6060639629634395" /><path d="M 469.79622754049853,-5.637554730485984 L 476.2170572857617,9.062377072986 L 491.1516910006964,3.2081678654910455 L 485.2974817932015,18.142801580425754 L 499.9974135966734,24.563631325688924 L 485.2974817932015,30.984461070952094 L 491.1516910006964,45.9190947858868 L 476.2170572857617,40.06488557839185 L 469.79622754049853,54.764817381863836 L 463.37539779523536,40.06488557839185 L 448.44076408030065,45.919094785886806 L 454.29497328779564,30.9844610709521 L 439.59504148432364,24.563631325688927 L 454.2949732877956,18.14280158042575 L 448.44076408030065,3.2081678654910455 L 463.37539779523536,9.062377072986003 Z" fill="none" stroke="#00A86B" stroke-width="2.6060639629634395" /><path d="M 536.9099743319983,-5.637554730485984 L 543.3308040772615,9.062377072986 L 558.2654377921963,3.2081678654910455 L 552.4112285847012,18.142801580425754 L 567.1111603881733,24.563631325688924 L 552.4112285847012,30.984461070952094 L 558.2654377921963,45.9190947858868 L 543.3308040772615,40.06488557839185 L 536.9099743319983,54.764817381863836 L 530.4891445867352,40.06488557839185 L 515.5545108718005,45.919094785886806 L 521.4087200792954,30.9844610709521 L 506.70878827582345,24.563631325688927 L 521.4087200792954,18.14280158042575 L 515.5545108718004,3.2081678654910455 L 530.4891445867352,9.062377072986003 Z" fill="none" stroke="#00A86B" stroke-width="2.6060639629634395" /><path d="M -33.556873395749896,52.48294999095283 L -27.136043650486727,67.18288179442482 L -12.201409935552014,61.328672586929855 L -18.05561914304697,76.26330630186457 L -3.355687339574988,82.68413604712774 L -18.05561914304697,89.1049657923909 L -12.201409935552014,104.03959950732562 L -27.136043650486727,98.18539029983066 L -33.556873395749896,112.88532210330264 L -39.977703141013066,98.18539029983066 L -54.91233685594777,104.03959950732562 L -49.05812764845282,89.10496579239091 L -63.75805945192481,82.68413604712774 L -49.05812764845282,76.26330630186456 L -54.912336855947785,61.328672586929855 L -39.97770314101307,67.18288179442482 Z" fill="none" stroke="#00A86B" stroke-width="2.6060639629634395" /><path d="M 33.556873395749896,52.48294999095283 L 39.977703141013066,67.18288179442482 L 54.91233685594778,61.328672586929855 L 49.058127648452825,76.26330630186457 L 63.75805945192481,82.68413604712774 L 49.058127648452825,89.1049657923909 L 54.91233685594778,104.03959950732562 L 39.977703141013066,98.18539029983066 L 33.556873395749896,112.88532210330264 L 27.13604365048673,98.18539029983066 L 12.201409935552018,104.03959950732562 L 18.055619143046975,89.10496579239091 L 3.355687339574988,82.68413604712774 L 18.055619143046975,76.26330630186456 L 12.201409935552011,61.328672586929855 L 27.13604365048672,67.18288179442482 Z" fill="none" stroke="#00A86B" stroke-width="2.6060639629634395" /><path d="M 100.67062018724968,52.48294999095283 L 107.09144993251284,67.18288179442482 L 122.02608364744756,61.328672586929855 L 116.1718744399526,76.26330630186457 L 130.8718062434246,82.68413604712774 L 116.1718744399526,89.1049657923909 L 122.02608364744756,104.03959950732562 L 107.09144993251284,98.18539029983066 L 100.67062018724968,112.88532210330264 L 94.24979044198652,98.18539029983066 L 79.3151567270518,104.03959950732562 L 85.16936593454676,89.10496579239091 L 70.46943413107478,82.68413604712774 L 85.16936593454676,76.26330630186456 L 79.3151567270518,61.328672586929855 L 94.2497904419865,67.18288179442482 Z" fill="none" stroke="#00A86B" stroke-width="2.6060639629634395" /><path d="M 167.78436697874946,52.48294999095283 L 174.20519672401264,67.18288179442482 L 189.13983043894734,61.328672586929855 L 183.28562123145238,76.26330630186457 L 197.98555303492438,82.68413604712774 L 183.28562123145238,89.1049657923909 L 189.13983043894734,104.03959950732562 L 174.20519672401264,98.18539029983066 L 167.78436697874946,112.88532210330264 L 161.36353723348628,98.18539029983066 L 146.42890351855158,104.03959950732562 L 152.28311272604654,89.10496579239091 L 137.58318092257454,82.68413604712774 L 152.28311272604654,76.26330630186456 L 146.42890351855158,61.328672586929855 L 161.36353723348628,67.18288179442482 Z" fill="none" stroke="#00A86B" stroke-width="2.6060639629634395" /><path d="M 234.89811377024927,52.48294999095283 L 241.31894351551244,67.18288179442482 L 256.25357723044715,61.328672586929855 L 250.3993680229522,76.26330630186457 L 265.09929982642416,82.68413604712774 L 250.3993680229522,89.1049657923909 L 256.25357723044715,104.03959950732562 L 241.31894351551244,98.18539029983066 L 234.89811377024927,112.88532210330264 L 228.4772840249861,98.18539029983066 L 213.54265031005139,104.03959950732562 L 219.39685951754635,89.10496579239091 L 204.69692771407435,82.68413604712774 L 219.39685951754635,76.26330630186456 L 213.54265031005139,61.328672586929855 L 228.4772840249861,67.18288179442482 Z" fill="none" stroke="#00A86B" stroke-width="2.6060639629634395" /><path d="M 302.0118605617491,52.48294999095283 L 308.43269030701225,67.18288179442482 L 323.36732402194696,61.328672586929855 L 317.513114814452,76.26330630186457 L 332.21304661792396,82.68413604712774 L 317.513114814452,89.1049657923909 L 323.36732402194696,104.03959950732562 L 308.43269030701225,98.18539029983066 L 302.0118605617491,112.88532210330264 L 295.5910308164859,98.18539029983066 L 280.6563971015512,104.03959950732562 L 286.5106063090461,89.10496579239091 L 271.8106745055742,82.68413604712774 L 286.5106063090461,76.26330630186456 L 280.6563971015512,61.328672586929855 L 295.5910308164859,67.18288179442482 Z" fill="none" stroke="#00A86B" stroke-width="2.6060639629634395" /><path d="M 369.1256073532488,52.48294999095283 L 375.546437098512,67.18288179442482 L 390.4810708134467,61.328672586929855 L 384.6268616059518,76.26330630186457 L 399.3267934094237,82.68413604712774 L 384.6268616059518,89.1049657923909 L 390.4810708134467,104.03959950732562 L 375.546437098512,98.18539029983066 L 369.1256073532488,112.88532210330264 L 362.70477760798565,98.18539029983066 L 347.77014389305094,104.03959950732562 L 353.62435310054593,89.10496579239091 L 338.92442129707393,82.68413604712774 L 353.6243531005459,76.26330630186456 L 347.77014389305094,61.328672586929855 L 362.70477760798565,67.18288179442482 Z" fill="none" stroke="#00A86B" stroke-width="2.6060639629634395" /><path d="M 436.23935414474863,52.48294999095283 L 442.6601838900118,67.18288179442482 L 457.5948176049465,61.328672586929855 L 451.7406083974516,76.26330630186457 L 466.4405402009235,82.68413604712774 L 451.7406083974516,89.1049657923909 L 457.5948176049465,104.03959950732562 L 442.6601838900118,98.18539029983066 L 436.23935414474863,112.88532210330264 L 429.81852439948545,98.18539029983066 L 414.88389068455075,104.03959950732562 L 420.73809989204574,89.10496579239091 L 406.03816808857374,82.68413604712774 L 420.7380998920457,76.26330630186456 L 414.88389068455075,61.328672586929855 L 429.81852439948545,67.18288179442482 Z" fill="none" stroke="#00A86B" stroke-width="2.6060639629634395" /><path d="M 503.35310093624844,52.48294999095283 L 509.7739306815116,67.18288179442482 L 524.7085643964463,61.328672586929855 L 518.8543551889513,76.26330630186457 L 533.5542869924234,82.68413604712774 L 518.8543551889513,89.1049657923909 L 524.7085643964463,104.03959950732562 L 509.7739306815116,98.18539029983066 L 503.35310093624844,112.88532210330264 L 496.93227119098526,98.18539029983066 L 481.99763747605056,104.03959950732562 L 487.85184668354555,89.10496579239091 L 473.15191488007355,82.68413604712774 L 487.8518466835455,76.26330630186456 L 481.99763747605056,61.328672586929855 L 496.93227119098526,67.18288179442482 Z" fill="none" stroke="#00A86B" stroke-width="2.6060639629634395" /><path d="M 570.4668477277482,52.48294999095283 L 576.8876774730114,67.18288179442482 L 591.8223111879461,61.328672586929855 L 585.9681019804511,76.26330630186457 L 600.6680337839232,82.68413604712774 L 585.9681019804511,89.1049657923909 L 591.8223111879461,104.03959950732562 L 576.8876774730114,98.18539029983066 L 570.4668477277482,112.88532210330264 L 564.0460179824851,98.18539029983066 L 549.1113842675504,104.03959950732562 L 554.9655934750454,89.10496579239091 L 540.2656616715733,82.68413604712774 L 554.9655934750454,76.26330630186456 L 549.1113842675503,61.328672586929855 L 564.0460179824851,67.18288179442482 Z" fill="none" stroke="#00A86B" stroke-width="2.6060639629634395" /><path d="M 1.849289291707414e-15,110.60345471239164 L 6.420829745263169,125.30338651586362 L 21.355463460197882,119.44917730836866 L 15.501254252702925,134.38381102330337 L 30.201186056174908,140.80464076856654 L 15.501254252702925,147.22547051382972 L 21.355463460197882,162.16010422876442 L 6.420829745263169,156.30589502126946 L 1.849289291707414e-15,171.00582682474146 L -6.420829745263167,156.30589502126946 L -21.35546346019788,162.16010422876442 L -15.501254252702921,147.22547051382972 L -30.201186056174908,140.80464076856654 L -15.501254252702923,134.38381102330337 L -21.355463460197885,119.44917730836866 L -6.420829745263178,125.30338651586362 Z" fill="none" stroke="#00A86B" stroke-width="2.6060639629634395" /><path d="M 67.11374679149979,110.60345471239164 L 73.53457653676296,125.30338651586362 L 88.46921025169767,119.44917730836866 L 82.61500104420271,134.38381102330337 L 97.3149328476747,140.80464076856654 L 82.61500104420271,147.22547051382972 L 88.46921025169767,162.16010422876442 L 73.53457653676296,156.30589502126946 L 67.11374679149979,171.00582682474146 L 60.69291704623662,156.30589502126946 L 45.75828333130191,162.16010422876442 L 51.61249253879687,147.22547051382972 L 36.91256073532489,140.80464076856654 L 51.61249253879687,134.38381102330337 L 45.75828333130191,119.44917730836866 L 60.692917046236616,125.30338651586362 Z" fill="none" stroke="#00A86B" stroke-width="2.6060639629634395" /><path d="M 134.22749358299959,110.60345471239164 L 140.64832332826276,125.30338651586362 L 155.58295704319747,119.44917730836866 L 149.7287478357025,134.38381102330337 L 164.4286796391745,140.80464076856654 L 149.7287478357025,147.22547051382972 L 155.58295704319747,162.16010422876442 L 140.64832332826276,156.30589502126946 L 134.22749358299959,171.00582682474146 L 127.80666383773642,156.30589502126946 L 112.8720301228017,162.16010422876442 L 118.72623933029666,147.22547051382972 L 104.02630752682468,140.80464076856654 L 118.72623933029666,134.38381102330337 L 112.8720301228017,119.44917730836866 L 127.80666383773641,125.30338651586362 Z" fill="none" stroke="#00A86B" stroke-width="2.6060639629634395" /><path d="M 201.34124037449936,110.60345471239164 L 207.76207011976254,125.30338651586362 L 222.69670383469725,119.44917730836866 L 216.84249462720229,134.38381102330337 L 231.54242643067428,140.80464076856654 L 216.84249462720229,147.22547051382972 L 222.69670383469725,162.16010422876442 L 207.76207011976254,156.30589502126946 L 201.34124037449936,171.00582682474146 L 194.9204106292362,156.30589502126946 L 179.98577691430148,162.16010422876442 L 185.83998612179644,147.22547051382972 L 171.14005431832445,140.80464076856654 L 185.83998612179644,134.38381102330337 L 179.98577691430148,119.44917730836866 L 194.9204106292362,125.30338651586362 Z" fill="none" stroke="#00A86B" stroke-width="2.6060639629634395" /><path d="M 268.45498716599917,110.60345471239164 L 274.87581691126235,125.30338651586362 L 289.81045062619705,119.44917730836866 L 283.9562414187021,134.38381102330337 L 298.65617322217406,140.80464076856654 L 283.9562414187021,147.22547051382972 L 289.81045062619705,162.16010422876442 L 274.87581691126235,156.30589502126946 L 268.45498716599917,171.00582682474146 L 262.034157420736,156.30589502126946 L 247.0995237058013,162.16010422876442 L 252.95373291329625,147.22547051382972 L 238.25380110982425,140.80464076856654 L 252.95373291329625,134.38381102330337 L 247.0995237058013,119.44917730836866 L 262.034157420736,125.30338651586362 Z" fill="none" stroke="#00A86B" stroke-width="2.6060639629634395" /><path d="M 335.568733957499,110.60345471239164 L 341.98956370276215,125.30338651586362 L 356.92419741769686,119.44917730836866 L 351.0699882102019,134.38381102330337 L 365.76992001367387,140.80464076856654 L 351.0699882102019,147.22547051382972 L 356.92419741769686,162.16010422876442 L 341.98956370276215,156.30589502126946 L 335.568733957499,171.00582682474146 L 329.1479042122358,156.30589502126946 L 314.2132704973011,162.16010422876442 L 320.067479704796,147.22547051382972 L 305.3675479013241,140.80464076856654 L 320.067479704796,134.38381102330337 L 314.2132704973011,119.44917730836866 L 329.1479042122358,125.30338651586362 Z" fill="none" stroke="#00A86B" stroke-width="2.6060639629634395" /><path d="M 402.6824807489987,110.60345471239164 L 409.1033104942619,125.30338651586362 L 424.0379442091966,119.44917730836866 L 418.1837350017017,134.38381102330337 L 432.8836668051736,140.80464076856654 L 418.1837350017017,147.22547051382972 L 424.0379442091966,162.16010422876442 L 409.1033104942619,156.30589502126946 L 402.6824807489987,171.00582682474146 L 396.26165100373555,156.30589502126946 L 381.32701728880085,162.16010422876442 L 387.18122649629584,147.22547051382972 L 372.48129469282384,140.80464076856654 L 387.1812264962958,134.38381102330337 L 381.32701728880085,119.44917730836866 L 396.26165100373555,125.30338651586362 Z" fill="none" stroke="#00A86B" stroke-width="2.6060639629634395" /><path d="M 469.79622754049853,110.60345471239164 L 476.2170572857617,125.30338651586362 L 491.1516910006964,119.44917730836866 L 485.2974817932015,134.38381102330337 L 499.9974135966734,140.80464076856654 L 485.2974817932015,147.22547051382972 L 491.1516910006964,162.16010422876442 L 476.2170572857617,156.30589502126946 L 469.79622754049853,171.00582682474146 L 463.37539779523536,156.30589502126946 L 448.44076408030065,162.16010422876442 L 454.29497328779564,147.22547051382972 L 439.59504148432364,140.80464076856654 L 454.2949732877956,134.38381102330337 L 448.44076408030065,119.44917730836866 L 463.37539779523536,125.30338651586362 Z" fill="none" stroke="#00A86B" stroke-width="2.6060639629634395" /><path d="M 536.9099743319983,110.60345471239164 L 543.3308040772615,125.30338651586362 L 558.2654377921963,119.44917730836866 L 552.4112285847012,134.38381102330337 L 567.1111603881733,140.80464076856654 L 552.4112285847012,147.22547051382972 L 558.2654377921963,162.16010422876442 L 543.3308040772615,156.30589502126946 L 536.9099743319983,171.00582682474146 L 530.4891445867352,156.30589502126946 L 515.5545108718005,162.16010422876442 L 521.4087200792954,147.22547051382972 L 506.70878827582345,140.80464076856654 L 521.4087200792954,134.38381102330337 L 515.5545108718004,119.44917730836866 L 530.4891445867352,125.30338651586362 Z" fill="none" stroke="#00A86B" stroke-width="2.6060639629634395" /><path d="M -33.556873395749896,168.72395943383046 L -27.136043650486727,183.42389123730246 L -12.201409935552014,177.5696820298075 L -18.05561914304697,192.5043157447422 L -3.355687339574988,198.92514549000538 L -18.05561914304697,205.34597523526855 L -12.201409935552014,220.28060895020326 L -27.136043650486727,214.4263997427083 L -33.556873395749896,229.1263315461803 L -39.977703141013066,214.4263997427083 L -54.91233685594777,220.28060895020326 L -49.05812764845282,205.34597523526855 L -63.75805945192481,198.92514549000538 L -49.05812764845282,192.5043157447422 L -54.912336855947785,177.5696820298075 L -39.97770314101307,183.42389123730246 Z" fill="none" stroke="#00A86B" stroke-width="2.6060639629634395" /><path d="M 33.556873395749896,168.72395943383046 L 39.977703141013066,183.42389123730246 L 54.91233685594778,177.5696820298075 L 49.058127648452825,192.5043157447422 L 63.75805945192481,198.92514549000538 L 49.058127648452825,205.34597523526855 L 54.91233685594778,220.28060895020326 L 39.977703141013066,214.4263997427083 L 33.556873395749896,229.1263315461803 L 27.13604365048673,214.4263997427083 L 12.201409935552018,220.28060895020326 L 18.055619143046975,205.34597523526855 L 3.355687339574988,198.92514549000538 L 18.055619143046975,192.5043157447422 L 12.201409935552011,177.5696820298075 L 27.13604365048672,183.42389123730246 Z" fill="none" stroke="#00A86B" stroke-width="2.6060639629634395" /><path d="M 100.67062018724968,168.72395943383046 L 107.09144993251284,183.42389123730246 L 122.02608364744756,177.5696820298075 L 116.1718744399526,192.5043157447422 L 130.8718062434246,198.92514549000538 L 116.1718744399526,205.34597523526855 L 122.02608364744756,220.28060895020326 L 107.09144993251284,214.4263997427083 L 100.67062018724968,229.1263315461803 L 94.24979044198652,214.4263997427083 L 79.3151567270518,220.28060895020326 L 85.16936593454676,205.34597523526855 L 70.46943413107478,198.92514549000538 L 85.16936593454676,192.5043157447422 L 79.3151567270518,177.5696820298075 L 94.2497904419865,183.42389123730246 Z" fill="none" stroke="#00A86B" stroke-width="2.6060639629634395" /><path d="M 167.78436697874946,168.72395943383046 L 174.20519672401264,183.42389123730246 L 189.13983043894734,177.5696820298075 L 183.28562123145238,192.5043157447422 L 197.98555303492438,198.92514549000538 L 183.28562123145238,205.34597523526855 L 189.13983043894734,220.28060895020326 L 174.20519672401264,214.4263997427083 L 167.78436697874946,229.1263315461803 L 161.36353723348628,214.4263997427083 L 146.42890351855158,220.28060895020326 L 152.28311272604654,205.34597523526855 L 137.58318092257454,198.92514549000538 L 152.28311272604654,192.5043157447422 L 146.42890351855158,177.5696820298075 L 161.36353723348628,183.42389123730246 Z" fill="none" stroke="#00A86B" stroke-width="2.6060639629634395" /><path d="M 234.89811377024927,168.72395943383046 L 241.31894351551244,183.42389123730246 L 256.25357723044715,177.5696820298075 L 250.3993680229522,192.5043157447422 L 265.09929982642416,198.92514549000538 L 250.3993680229522,205.34597523526855 L 256.25357723044715,220.28060895020326 L 241.31894351551244,214.4263997427083 L 234.89811377024927,229.1263315461803 L 228.4772840249861,214.4263997427083 L 213.54265031005139,220.28060895020326 L 219.39685951754635,205.34597523526855 L 204.69692771407435,198.92514549000538 L 219.39685951754635,192.5043157447422 L 213.54265031005139,177.5696820298075 L 228.4772840249861,183.42389123730246 Z" fill="none" stroke="#00A86B" stroke-width="2.6060639629634395" /><path d="M 302.0118605617491,168.72395943383046 L 308.43269030701225,183.42389123730246 L 323.36732402194696,177.5696820298075 L 317.513114814452,192.5043157447422 L 332.21304661792396,198.92514549000538 L 317.513114814452,205.34597523526855 L 323.36732402194696,220.28060895020326 L 308.43269030701225,214.4263997427083 L 302.0118605617491,229.1263315461803 L 295.5910308164859,214.4263997427083 L 280.6563971015512,220.28060895020326 L 286.5106063090461,205.34597523526855 L 271.8106745055742,198.92514549000538 L 286.5106063090461,192.5043157447422 L 280.6563971015512,177.5696820298075 L 295.5910308164859,183.42389123730246 Z" fill="none" stroke="#00A86B" stroke-width="2.6060639629634395" /><path d="M 369.1256073532488,168.72395943383046 L 375.546437098512,183.42389123730246 L 390.4810708134467,177.5696820298075 L 384.6268616059518,192.5043157447422 L 399.3267934094237,198.92514549000538 L 384.6268616059518,205.34597523526855 L 390.4810708134467,220.28060895020326 L 375.546437098512,214.4263997427083 L 369.1256073532488,229.1263315461803 L 362.70477760798565,214.4263997427083 L 347.77014389305094,220.28060895020326 L 353.62435310054593,205.34597523526855 L 338.92442129707393,198.92514549000538 L 353.6243531005459,192.5043157447422 L 347.77014389305094,177.5696820298075 L 362.70477760798565,183.42389123730246 Z" fill="none" stroke="#00A86B" stroke-width="2.6060639629634395" /><path d="M 436.23935414474863,168.72395943383046 L 442.6601838900118,183.42389123730246 L 457.5948176049465,177.5696820298075 L 451.7406083974516,192.5043157447422 L 466.4405402009235,198.92514549000538 L 451.7406083974516,205.34597523526855 L 457.5948176049465,220.28060895020326 L 442.6601838900118,214.4263997427083 L 436.23935414474863,229.1263315461803 L 429.81852439948545,214.4263997427083 L 414.88389068455075,220.28060895020326 L 420.73809989204574,205.34597523526855 L 406.03816808857374,198.92514549000538 L 420.7380998920457,192.5043157447422 L 414.88389068455075,177.5696820298075 L 429.81852439948545,183.42389123730246 Z" fill="none" stroke="#00A86B" stroke-width="2.6060639629634395" /><path d="M 503.35310093624844,168.72395943383046 L 509.7739306815116,183.42389123730246 L 524.7085643964463,177.5696820298075 L 518.8543551889513,192.5043157447422 L 533.5542869924234,198.92514549000538 L 518.8543551889513,205.34597523526855 L 524.7085643964463,220.28060895020326 L 509.7739306815116,214.4263997427083 L 503.35310093624844,229.1263315461803 L 496.93227119098526,214.4263997427083 L 481.99763747605056,220.28060895020326 L 487.85184668354555,205.34597523526855 L 473.15191488007355,198.92514549000538 L 487.8518466835455,192.5043157447422 L 481.99763747605056,177.5696820298075 L 496.93227119098526,183.42389123730246 Z" fill="none" stroke="#00A86B" stroke-width="2.6060639629634395" /><path d="M 570.4668477277482,168.72395943383046 L 576.8876774730114,183.42389123730246 L 591.8223111879461,177.5696820298075 L 585.9681019804511,192.5043157447422 L 600.6680337839232,198.92514549000538 L 585.9681019804511,205.34597523526855 L 591.8223111879461,220.28060895020326 L 576.8876774730114,214.4263997427083 L 570.4668477277482,229.1263315461803 L 564.0460179824851,214.4263997427083 L 549.1113842675504,220.28060895020326 L 554.9655934750454,205.34597523526855 L 540.2656616715733,198.92514549000538 L 554.9655934750454,192.5043157447422 L 549.1113842675503,177.5696820298075 L 564.0460179824851,183.42389123730246 Z" fill="none" stroke="#00A86B" stroke-width="2.6060639629634395" /><path d="M 1.849289291707414e-15,226.84446415526926 L 6.420829745263169,241.54439595874126 L 21.355463460197882,235.6901867512463 L 15.501254252702925,250.624820466181 L 30.201186056174908,257.0456502114442 L 15.501254252702925,263.46647995670736 L 21.355463460197882,278.40111367164207 L 6.420829745263169,272.54690446414713 L 1.849289291707414e-15,287.2468362676191 L -6.420829745263167,272.54690446414713 L -21.35546346019788,278.40111367164207 L -15.501254252702921,263.46647995670736 L -30.201186056174908,257.0456502114442 L -15.501254252702923,250.624820466181 L -21.355463460197885,235.6901867512463 L -6.420829745263178,241.54439595874126 Z" fill="none" stroke="#00A86B" stroke-width="2.6060639629634395" /><path d="M 67.11374679149979,226.84446415526926 L 73.53457653676296,241.54439595874126 L 88.46921025169767,235.6901867512463 L 82.61500104420271,250.624820466181 L 97.3149328476747,257.0456502114442 L 82.61500104420271,263.46647995670736 L 88.46921025169767,278.40111367164207 L 73.53457653676296,272.54690446414713 L 67.11374679149979,287.2468362676191 L 60.69291704623662,272.54690446414713 L 45.75828333130191,278.40111367164207 L 51.61249253879687,263.46647995670736 L 36.91256073532489,257.0456502114442 L 51.61249253879687,250.624820466181 L 45.75828333130191,235.6901867512463 L 60.692917046236616,241.54439595874126 Z" fill="none" stroke="#00A86B" stroke-width="2.6060639629634395" /><path d="M 134.22749358299959,226.84446415526926 L 140.64832332826276,241.54439595874126 L 155.58295704319747,235.6901867512463 L 149.7287478357025,250.624820466181 L 164.4286796391745,257.0456502114442 L 149.7287478357025,263.46647995670736 L 155.58295704319747,278.40111367164207 L 140.64832332826276,272.54690446414713 L 134.22749358299959,287.2468362676191 L 127.80666383773642,272.54690446414713 L 112.8720301228017,278.40111367164207 L 118.72623933029666,263.46647995670736 L 104.02630752682468,257.0456502114442 L 118.72623933029666,250.624820466181 L 112.8720301228017,235.6901867512463 L 127.80666383773641,241.54439595874126 Z" fill="none" stroke="#00A86B" stroke-width="2.6060639629634395" /><path d="M 201.34124037449936,226.84446415526926 L 207.76207011976254,241.54439595874126 L 222.69670383469725,235.6901867512463 L 216.84249462720229,250.624820466181 L 231.54242643067428,257.0456502114442 L 216.84249462720229,263.46647995670736 L 222.69670383469725,278.40111367164207 L 207.76207011976254,272.54690446414713 L 201.34124037449936,287.2468362676191 L 194.9204106292362,272.54690446414713 L 179.98577691430148,278.40111367164207 L 185.83998612179644,263.46647995670736 L 171.14005431832445,257.0456502114442 L 185.83998612179644,250.624820466181 L 179.98577691430148,235.6901867512463 L 194.9204106292362,241.54439595874126 Z" fill="none" stroke="#00A86B" stroke-width="2.6060639629634395" /><path d="M 268.45498716599917,226.84446415526926 L 274.87581691126235,241.54439595874126 L 289.81045062619705,235.6901867512463 L 283.9562414187021,250.624820466181 L 298.65617322217406,257.0456502114442 L 283.9562414187021,263.46647995670736 L 289.81045062619705,278.40111367164207 L 274.87581691126235,272.54690446414713 L 268.45498716599917,287.2468362676191 L 262.034157420736,272.54690446414713 L 247.0995237058013,278.40111367164207 L 252.95373291329625,263.46647995670736 L 238.25380110982425,257.0456502114442 L 252.95373291329625,250.624820466181 L 247.0995237058013,235.6901867512463 L 262.034157420736,241.54439595874126 Z" fill="none" stroke="#00A86B" stroke-width="2.6060639629634395" /><path d="M 335.568733957499,226.84446415526926 L 341.98956370276215,241.54439595874126 L 356.92419741769686,235.6901867512463 L 351.0699882102019,250.624820466181 L 365.76992001367387,257.0456502114442 L 351.0699882102019,263.46647995670736 L 356.92419741769686,278.40111367164207 L 341.98956370276215,272.54690446414713 L 335.568733957499,287.2468362676191 L 329.1479042122358,272.54690446414713 L 314.2132704973011,278.40111367164207 L 320.067479704796,263.46647995670736 L 305.3675479013241,257.0456502114442 L 320.067479704796,250.624820466181 L 314.2132704973011,235.6901867512463 L 329.1479042122358,241.54439595874126 Z" fill="none" stroke="#00A86B" stroke-width="2.6060639629634395" /><path d="M 402.6824807489987,226.84446415526926 L 409.1033104942619,241.54439595874126 L 424.0379442091966,235.6901867512463 L 418.1837350017017,250.624820466181 L 432.8836668051736,257.0456502114442 L 418.1837350017017,263.46647995670736 L 424.0379442091966,278.40111367164207 L 409.1033104942619,272.54690446414713 L 402.6824807489987,287.2468362676191 L 396.26165100373555,272.54690446414713 L 381.32701728880085,278.40111367164207 L 387.18122649629584,263.46647995670736 L 372.48129469282384,257.0456502114442 L 387.1812264962958,250.624820466181 L 381.32701728880085,235.6901867512463 L 396.26165100373555,241.54439595874126 Z" fill="none" stroke="#00A86B" stroke-width="2.6060639629634395" /><path d="M 469.79622754049853,226.84446415526926 L 476.2170572857617,241.54439595874126 L 491.1516910006964,235.6901867512463 L 485.2974817932015,250.624820466181 L 499.9974135966734,257.0456502114442 L 485.2974817932015,263.46647995670736 L 491.1516910006964,278.40111367164207 L 476.2170572857617,272.54690446414713 L 469.79622754049853,287.2468362676191 L 463.37539779523536,272.54690446414713 L 448.44076408030065,278.40111367164207 L 454.29497328779564,263.46647995670736 L 439.59504148432364,257.0456502114442 L 454.2949732877956,250.624820466181 L 448.44076408030065,235.6901867512463 L 463.37539779523536,241.54439595874126 Z" fill="none" stroke="#00A86B" stroke-width="2.6060639629634395" /><path d="M 536.9099743319983,226.84446415526926 L 543.3308040772615,241.54439595874126 L 558.2654377921963,235.6901867512463 L 552.4112285847012,250.624820466181 L 567.1111603881733,257.0456502114442 L 552.4112285847012,263.46647995670736 L 558.2654377921963,278.40111367164207 L 543.3308040772615,272.54690446414713 L 536.9099743319983,287.2468362676191 L 530.4891445867352,272.54690446414713 L 515.5545108718005,278.40111367164207 L 521.4087200792954,263.46647995670736 L 506.70878827582345,257.0456502114442 L 521.4087200792954,250.624820466181 L 515.5545108718004,235.6901867512463 L 530.4891445867352,241.54439595874126 Z" fill="none" stroke="#00A86B" stroke-width="2.6060639629634395" /><path d="M -33.556873395749896,284.9649688767081 L -27.136043650486727,299.66490068018004 L -12.201409935552014,293.8106914726851 L -18.05561914304697,308.7453251876198 L -3.355687339574988,315.166154932883 L -18.05561914304697,321.58698467814617 L -12.201409935552014,336.52161839308087 L -27.136043650486727,330.66740918558594 L -33.556873395749896,345.3673409890579 L -39.977703141013066,330.66740918558594 L -54.91233685594777,336.52161839308087 L -49.05812764845282,321.58698467814617 L -63.75805945192481,315.166154932883 L -49.05812764845282,308.7453251876198 L -54.912336855947785,293.8106914726851 L -39.97770314101307,299.66490068018004 Z" fill="none" stroke="#00A86B" stroke-width="2.6060639629634395" /><path d="M 33.556873395749896,284.9649688767081 L 39.977703141013066,299.66490068018004 L 54.91233685594778,293.8106914726851 L 49.058127648452825,308.7453251876198 L 63.75805945192481,315.166154932883 L 49.058127648452825,321.58698467814617 L 54.91233685594778,336.52161839308087 L 39.977703141013066,330.66740918558594 L 33.556873395749896,345.3673409890579 L 27.13604365048673,330.66740918558594 L 12.201409935552018,336.52161839308087 L 18.055619143046975,321.58698467814617 L 3.355687339574988,315.166154932883 L 18.055619143046975,308.7453251876198 L 12.201409935552011,293.8106914726851 L 27.13604365048672,299.66490068018004 Z" fill="none" stroke="#00A86B" stroke-width="2.6060639629634395" /><path d="M 100.67062018724968,284.9649688767081 L 107.09144993251284,299.66490068018004 L 122.02608364744756,293.8106914726851 L 116.1718744399526,308.7453251876198 L 130.8718062434246,315.166154932883 L 116.1718744399526,321.58698467814617 L 122.02608364744756,336.52161839308087 L 107.09144993251284,330.66740918558594 L 100.67062018724968,345.3673409890579 L 94.24979044198652,330.66740918558594 L 79.3151567270518,336.52161839308087 L 85.16936593454676,321.58698467814617 L 70.46943413107478,315.166154932883 L 85.16936593454676,308.7453251876198 L 79.3151567270518,293.8106914726851 L 94.2497904419865,299.66490068018004 Z" fill="none" stroke="#00A86B" stroke-width="2.6060639629634395" /><path d="M 167.78436697874946,284.9649688767081 L 174.20519672401264,299.66490068018004 L 189.13983043894734,293.8106914726851 L 183.28562123145238,308.7453251876198 L 197.98555303492438,315.166154932883 L 183.28562123145238,321.58698467814617 L 189.13983043894734,336.52161839308087 L 174.20519672401264,330.66740918558594 L 167.78436697874946,345.3673409890579 L 161.36353723348628,330.66740918558594 L 146.42890351855158,336.52161839308087 L 152.28311272604654,321.58698467814617 L 137.58318092257454,315.166154932883 L 152.28311272604654,308.7453251876198 L 146.42890351855158,293.8106914726851 L 161.36353723348628,299.66490068018004 Z" fill="none" stroke="#00A86B" stroke-width="2.6060639629634395" /><path d="M 234.89811377024927,284.9649688767081 L 241.31894351551244,299.66490068018004 L 256.25357723044715,293.8106914726851 L 250.3993680229522,308.7453251876198 L 265.09929982642416,315.166154932883 L 250.3993680229522,321.58698467814617 L 256.25357723044715,336.52161839308087 L 241.31894351551244,330.66740918558594 L 234.89811377024927,345.3673409890579 L 228.4772840249861,330.66740918558594 L 213.54265031005139,336.52161839308087 L 219.39685951754635,321.58698467814617 L 204.69692771407435,315.166154932883 L 219.39685951754635,308.7453251876198 L 213.54265031005139,293.8106914726851 L 228.4772840249861,299.66490068018004 Z" fill="none" stroke="#00A86B" stroke-width="2.6060639629634395" /><path d="M 302.0118605617491,284.9649688767081 L 308.43269030701225,299.66490068018004 L 323.36732402194696,293.8106914726851 L 317.513114814452,308.7453251876198 L 332.21304661792396,315.166154932883 L 317.513114814452,321.58698467814617 L 323.36732402194696,336.52161839308087 L 308.43269030701225,330.66740918558594 L 302.0118605617491,345.3673409890579 L 295.5910308164859,330.66740918558594 L 280.6563971015512,336.52161839308087 L 286.5106063090461,321.58698467814617 L 271.8106745055742,315.166154932883 L 286.5106063090461,308.7453251876198 L 280.6563971015512,293.8106914726851 L 295.5910308164859,299.66490068018004 Z" fill="none" stroke="#00A86B" stroke-width="2.6060639629634395" /><path d="M 369.1256073532488,284.9649688767081 L 375.546437098512,299.66490068018004 L 390.4810708134467,293.8106914726851 L 384.6268616059518,308.7453251876198 L 399.3267934094237,315.166154932883 L 384.6268616059518,321.58698467814617 L 390.4810708134467,336.52161839308087 L 375.546437098512,330.66740918558594 L 369.1256073532488,345.3673409890579 L 362.70477760798565,330.66740918558594 L 347.77014389305094,336.52161839308087 L 353.62435310054593,321.58698467814617 L 338.92442129707393,315.166154932883 L 353.6243531005459,308.7453251876198 L 347.77014389305094,293.8106914726851 L 362.70477760798565,299.66490068018004 Z" fill="none" stroke="#00A86B" stroke-width="2.6060639629634395" /><path d="M 436.23935414474863,284.9649688767081 L 442.6601838900118,299.66490068018004 L 457.5948176049465,293.8106914726851 L 451.7406083974516,308.7453251876198 L 466.4405402009235,315.166154932883 L 451.7406083974516,321.58698467814617 L 457.5948176049465,336.52161839308087 L 442.6601838900118,330.66740918558594 L 436.23935414474863,345.3673409890579 L 429.81852439948545,330.66740918558594 L 414.88389068455075,336.52161839308087 L 420.73809989204574,321.58698467814617 L 406.03816808857374,315.166154932883 L 420.7380998920457,308.7453251876198 L 414.88389068455075,293.8106914726851 L 429.81852439948545,299.66490068018004 Z" fill="none" stroke="#00A86B" stroke-width="2.6060639629634395" /><path d="M 503.35310093624844,284.9649688767081 L 509.7739306815116,299.66490068018004 L 524.7085643964463,293.8106914726851 L 518.8543551889513,308.7453251876198 L 533.5542869924234,315.166154932883 L 518.8543551889513,321.58698467814617 L 524.7085643964463,336.52161839308087 L 509.7739306815116,330.66740918558594 L 503.35310093624844,345.3673409890579 L 496.93227119098526,330.66740918558594 L 481.99763747605056,336.52161839308087 L 487.85184668354555,321.58698467814617 L 473.15191488007355,315.166154932883 L 487.8518466835455,308.7453251876198 L 481.99763747605056,293.8106914726851 L 496.93227119098526,299.66490068018004 Z" fill="none" stroke="#00A86B" stroke-width="2.6060639629634395" /><path d="M 570.4668477277482,284.9649688767081 L 576.8876774730114,299.66490068018004 L 591.8223111879461,293.8106914726851 L 585.9681019804511,308.7453251876198 L 600.6680337839232,315.166154932883 L 585.9681019804511,321.58698467814617 L 591.8223111879461,336.52161839308087 L 576.8876774730114,330.66740918558594 L 570.4668477277482,345.3673409890579 L 564.0460179824851,330.66740918558594 L 549.1113842675504,336.52161839308087 L 554.9655934750454,321.58698467814617 L 540.2656616715733,315.166154932883 L 554.9655934750454,308.7453251876198 L 549.1113842675503,293.8106914726851 L 564.0460179824851,299.66490068018004 Z" fill="none" stroke="#00A86B" stroke-width="2.6060639629634395" /><path d="M 1.849289291707414e-15,343.08547359814696 L 6.420829745263169,357.7854054016189 L 21.355463460197882,351.93119619412397 L 15.501254252702925,366.8658299090587 L 30.201186056174908,373.28665965432185 L 15.501254252702925,379.70748939958503 L 21.355463460197882,394.64212311451973 L 6.420829745263169,388.7879139070248 L 1.849289291707414e-15,403.48784571049674 L -6.420829745263167,388.7879139070248 L -21.35546346019788,394.64212311451973 L -15.501254252702921,379.70748939958503 L -30.201186056174908,373.28665965432185 L -15.501254252702923,366.8658299090587 L -21.355463460197885,351.93119619412397 L -6.420829745263178,357.78540540161896 Z" fill="none" stroke="#00A86B" stroke-width="2.6060639629634395" /><path d="M 67.11374679149979,343.08547359814696 L 73.53457653676296,357.7854054016189 L 88.46921025169767,351.93119619412397 L 82.61500104420271,366.8658299090587 L 97.3149328476747,373.28665965432185 L 82.61500104420271,379.70748939958503 L 88.46921025169767,394.64212311451973 L 73.53457653676296,388.7879139070248 L 67.11374679149979,403.48784571049674 L 60.69291704623662,388.7879139070248 L 45.75828333130191,394.64212311451973 L 51.61249253879687,379.70748939958503 L 36.91256073532489,373.28665965432185 L 51.61249253879687,366.8658299090587 L 45.75828333130191,351.93119619412397 L 60.692917046236616,357.78540540161896 Z" fill="none" stroke="#00A86B" stroke-width="2.6060639629634395" /><path d="M 134.22749358299959,343.08547359814696 L 140.64832332826276,357.7854054016189 L 155.58295704319747,351.93119619412397 L 149.7287478357025,366.8658299090587 L 164.4286796391745,373.28665965432185 L 149.7287478357025,379.70748939958503 L 155.58295704319747,394.64212311451973 L 140.64832332826276,388.7879139070248 L 134.22749358299959,403.48784571049674 L 127.80666383773642,388.7879139070248 L 112.8720301228017,394.64212311451973 L 118.72623933029666,379.70748939958503 L 104.02630752682468,373.28665965432185 L 118.72623933029666,366.8658299090587 L 112.8720301228017,351.93119619412397 L 127.80666383773641,357.78540540161896 Z" fill="none" stroke="#00A86B" stroke-width="2.6060639629634395" /><path d="M 201.34124037449936,343.08547359814696 L 207.76207011976254,357.7854054016189 L 222.69670383469725,351.93119619412397 L 216.84249462720229,366.8658299090587 L 231.54242643067428,373.28665965432185 L 216.84249462720229,379.70748939958503 L 222.69670383469725,394.64212311451973 L 207.76207011976254,388.7879139070248 L 201.34124037449936,403.48784571049674 L 194.9204106292362,388.7879139070248 L 179.98577691430148,394.64212311451973 L 185.83998612179644,379.70748939958503 L 171.14005431832445,373.28665965432185 L 185.83998612179644,366.8658299090587 L 179.98577691430148,351.93119619412397 L 194.9204106292362,357.78540540161896 Z" fill="none" stroke="#00A86B" stroke-width="2.6060639629634395" /><path d="M 268.45498716599917,343.08547359814696 L 274.87581691126235,357.7854054016189 L 289.81045062619705,351.93119619412397 L 283.9562414187021,366.8658299090587 L 298.65617322217406,373.28665965432185 L 283.9562414187021,379.70748939958503 L 289.81045062619705,394.64212311451973 L 274.87581691126235,388.7879139070248 L 268.45498716599917,403.48784571049674 L 262.034157420736,388.7879139070248 L 247.0995237058013,394.64212311451973 L 252.95373291329625,379.70748939958503 L 238.25380110982425,373.28665965432185 L 252.95373291329625,366.8658299090587 L 247.0995237058013,351.93119619412397 L 262.034157420736,357.78540540161896 Z" fill="none" stroke="#00A86B" stroke-width="2.6060639629634395" /><path d="M 335.568733957499,343.08547359814696 L 341.98956370276215,357.7854054016189 L 356.92419741769686,351.93119619412397 L 351.0699882102019,366.8658299090587 L 365.76992001367387,373.28665965432185 L 351.0699882102019,379.70748939958503 L 356.92419741769686,394.64212311451973 L 341.98956370276215,388.7879139070248 L 335.568733957499,403.48784571049674 L 329.1479042122358,388.7879139070248 L 314.2132704973011,394.64212311451973 L 320.067479704796,379.70748939958503 L 305.3675479013241,373.28665965432185 L 320.067479704796,366.8658299090587 L 314.2132704973011,351.93119619412397 L 329.1479042122358,357.78540540161896 Z" fill="none" stroke="#00A86B" stroke-width="2.6060639629634395" /><path d="M 402.6824807489987,343.08547359814696 L 409.1033104942619,357.7854054016189 L 424.0379442091966,351.93119619412397 L 418.1837350017017,366.8658299090587 L 432.8836668051736,373.28665965432185 L 418.1837350017017,379.70748939958503 L 424.0379442091966,394.64212311451973 L 409.1033104942619,388.7879139070248 L 402.6824807489987,403.48784571049674 L 396.26165100373555,388.7879139070248 L 381.32701728880085,394.64212311451973 L 387.18122649629584,379.70748939958503 L 372.48129469282384,373.28665965432185 L 387.1812264962958,366.8658299090587 L 381.32701728880085,351.93119619412397 L 396.26165100373555,357.78540540161896 Z" fill="none" stroke="#00A86B" stroke-width="2.6060639629634395" /><path d="M 469.79622754049853,343.08547359814696 L 476.2170572857617,357.7854054016189 L 491.1516910006964,351.93119619412397 L 485.2974817932015,366.8658299090587 L 499.9974135966734,373.28665965432185 L 485.2974817932015,379.70748939958503 L 491.1516910006964,394.64212311451973 L 476.2170572857617,388.7879139070248 L 469.79622754049853,403.48784571049674 L 463.37539779523536,388.7879139070248 L 448.44076408030065,394.64212311451973 L 454.29497328779564,379.70748939958503 L 439.59504148432364,373.28665965432185 L 454.2949732877956,366.8658299090587 L 448.44076408030065,351.93119619412397 L 463.37539779523536,357.78540540161896 Z" fill="none" stroke="#00A86B" stroke-width="2.6060639629634395" /><path d="M 536.9099743319983,343.08547359814696 L 543.3308040772615,357.7854054016189 L 558.2654377921963,351.93119619412397 L 552.4112285847012,366.8658299090587 L 567.1111603881733,373.28665965432185 L 552.4112285847012,379.70748939958503 L 558.2654377921963,394.64212311451973 L 543.3308040772615,388.7879139070248 L 536.9099743319983,403.48784571049674 L 530.4891445867352,388.7879139070248 L 515.5545108718005,394.64212311451973 L 521.4087200792954,379.70748939958503 L 506.70878827582345,373.28665965432185 L 521.4087200792954,366.8658299090587 L 515.5545108718004,351.93119619412397 L 530.4891445867352,357.78540540161896 Z" fill="none" stroke="#00A86B" stroke-width="2.6060639629634395" /><path d="M -33.556873395749896,401.20597831958577 L -27.136043650486727,415.9059101230577 L -12.201409935552014,410.0517009155628 L -18.05561914304697,424.9863346304975 L -3.355687339574988,431.40716437576066 L -18.05561914304697,437.82799412102383 L -12.201409935552014,452.76262783595854 L -27.136043650486727,446.9084186284636 L -33.556873395749896,461.60835043193555 L -39.977703141013066,446.9084186284636 L -54.91233685594777,452.76262783595854 L -49.05812764845282,437.82799412102383 L -63.75805945192481,431.40716437576066 L -49.05812764845282,424.9863346304975 L -54.912336855947785,410.0517009155628 L -39.97770314101307,415.90591012305777 Z" fill="none" stroke="#00A86B" stroke-width="2.6060639629634395" /><path d="M 33.556873395749896,401.20597831958577 L 39.977703141013066,415.9059101230577 L 54.91233685594778,410.0517009155628 L 49.058127648452825,424.9863346304975 L 63.75805945192481,431.40716437576066 L 49.058127648452825,437.82799412102383 L 54.91233685594778,452.76262783595854 L 39.977703141013066,446.9084186284636 L 33.556873395749896,461.60835043193555 L 27.13604365048673,446.9084186284636 L 12.201409935552018,452.76262783595854 L 18.055619143046975,437.82799412102383 L 3.355687339574988,431.40716437576066 L 18.055619143046975,424.9863346304975 L 12.201409935552011,410.0517009155628 L 27.13604365048672,415.90591012305777 Z" fill="none" stroke="#00A86B" stroke-width="2.6060639629634395" /><path d="M 100.67062018724968,401.20597831958577 L 107.09144993251284,415.9059101230577 L 122.02608364744756,410.0517009155628 L 116.1718744399526,424.9863346304975 L 130.8718062434246,431.40716437576066 L 116.1718744399526,437.82799412102383 L 122.02608364744756,452.76262783595854 L 107.09144993251284,446.9084186284636 L 100.67062018724968,461.60835043193555 L 94.24979044198652,446.9084186284636 L 79.3151567270518,452.76262783595854 L 85.16936593454676,437.82799412102383 L 70.46943413107478,431.40716437576066 L 85.16936593454676,424.9863346304975 L 79.3151567270518,410.0517009155628 L 94.2497904419865,415.90591012305777 Z" fill="none" stroke="#00A86B" stroke-width="2.6060639629634395" /><path d="M 167.78436697874946,401.20597831958577 L 174.20519672401264,415.9059101230577 L 189.13983043894734,410.0517009155628 L 183.28562123145238,424.9863346304975 L 197.98555303492438,431.40716437576066 L 183.28562123145238,437.82799412102383 L 189.13983043894734,452.76262783595854 L 174.20519672401264,446.9084186284636 L 167.78436697874946,461.60835043193555 L 161.36353723348628,446.9084186284636 L 146.42890351855158,452.76262783595854 L 152.28311272604654,437.82799412102383 L 137.58318092257454,431.40716437576066 L 152.28311272604654,424.9863346304975 L 146.42890351855158,410.0517009155628 L 161.36353723348628,415.90591012305777 Z" fill="none" stroke="#00A86B" stroke-width="2.6060639629634395" /><path d="M 234.89811377024927,401.20597831958577 L 241.31894351551244,415.9059101230577 L 256.25357723044715,410.0517009155628 L 250.3993680229522,424.9863346304975 L 265.09929982642416,431.40716437576066 L 250.3993680229522,437.82799412102383 L 256.25357723044715,452.76262783595854 L 241.31894351551244,446.9084186284636 L 234.89811377024927,461.60835043193555 L 228.4772840249861,446.9084186284636 L 213.54265031005139,452.76262783595854 L 219.39685951754635,437.82799412102383 L 204.69692771407435,431.40716437576066 L 219.39685951754635,424.9863346304975 L 213.54265031005139,410.0517009155628 L 228.4772840249861,415.90591012305777 Z" fill="none" stroke="#00A86B" stroke-width="2.6060639629634395" /><path d="M 302.0118605617491,401.20597831958577 L 308.43269030701225,415.9059101230577 L 323.36732402194696,410.0517009155628 L 317.513114814452,424.9863346304975 L 332.21304661792396,431.40716437576066 L 317.513114814452,437.82799412102383 L 323.36732402194696,452.76262783595854 L 308.43269030701225,446.9084186284636 L 302.0118605617491,461.60835043193555 L 295.5910308164859,446.9084186284636 L 280.6563971015512,452.76262783595854 L 286.5106063090461,437.82799412102383 L 271.8106745055742,431.40716437576066 L 286.5106063090461,424.9863346304975 L 280.6563971015512,410.0517009155628 L 295.5910308164859,415.90591012305777 Z" fill="none" stroke="#00A86B" stroke-width="2.6060639629634395" /><path d="M 369.1256073532488,401.20597831958577 L 375.546437098512,415.9059101230577 L 390.4810708134467,410.0517009155628 L 384.6268616059518,424.9863346304975 L 399.3267934094237,431.40716437576066 L 384.6268616059518,437.82799412102383 L 390.4810708134467,452.76262783595854 L 375.546437098512,446.9084186284636 L 369.1256073532488,461.60835043193555 L 362.70477760798565,446.9084186284636 L 347.77014389305094,452.76262783595854 L 353.62435310054593,437.82799412102383 L 338.92442129707393,431.40716437576066 L 353.6243531005459,424.9863346304975 L 347.77014389305094,410.0517009155628 L 362.70477760798565,415.90591012305777 Z" fill="none" stroke="#00A86B" stroke-width="2.6060639629634395" /><path d="M 436.23935414474863,401.20597831958577 L 442.6601838900118,415.9059101230577 L 457.5948176049465,410.0517009155628 L 451.7406083974516,424.9863346304975 L 466.4405402009235,431.40716437576066 L 451.7406083974516,437.82799412102383 L 457.5948176049465,452.76262783595854 L 442.6601838900118,446.9084186284636 L 436.23935414474863,461.60835043193555 L 429.81852439948545,446.9084186284636 L 414.88389068455075,452.76262783595854 L 420.73809989204574,437.82799412102383 L 406.03816808857374,431.40716437576066 L 420.7380998920457,424.9863346304975 L 414.88389068455075,410.0517009155628 L 429.81852439948545,415.90591012305777 Z" fill="none" stroke="#00A86B" stroke-width="2.6060639629634395" /><path d="M 503.35310093624844,401.20597831958577 L 509.7739306815116,415.9059101230577 L 524.7085643964463,410.0517009155628 L 518.8543551889513,424.9863346304975 L 533.5542869924234,431.40716437576066 L 518.8543551889513,437.82799412102383 L 524.7085643964463,452.76262783595854 L 509.7739306815116,446.9084186284636 L 503.35310093624844,461.60835043193555 L 496.93227119098526,446.9084186284636 L 481.99763747605056,452.76262783595854 L 487.85184668354555,437.82799412102383 L 473.15191488007355,431.40716437576066 L 487.8518466835455,424.9863346304975 L 481.99763747605056,410.0517009155628 L 496.93227119098526,415.90591012305777 Z" fill="none" stroke="#00A86B" stroke-width="2.6060639629634395" /><path d="M 570.4668477277482,401.20597831958577 L 576.8876774730114,415.9059101230577 L 591.8223111879461,410.0517009155628 L 585.9681019804511,424.9863346304975 L 600.6680337839232,431.40716437576066 L 585.9681019804511,437.82799412102383 L 591.8223111879461,452.76262783595854 L 576.8876774730114,446.9084186284636 L 570.4668477277482,461.60835043193555 L 564.0460179824851,446.9084186284636 L 549.1113842675504,452.76262783595854 L 554.9655934750454,437.82799412102383 L 540.2656616715733,431.40716437576066 L 554.9655934750454,424.9863346304975 L 549.1113842675503,410.0517009155628 L 564.0460179824851,415.90591012305777 Z" fill="none" stroke="#00A86B" stroke-width="2.6060639629634395" /><path d="M 1.849289291707414e-15,459.3264830410246 L 6.420829745263169,474.0264148444965 L 21.355463460197882,468.1722056370016 L 15.501254252702925,483.1068393519363 L 30.201186056174908,489.52766909719946 L 15.501254252702925,495.94849884246264 L 21.355463460197882,510.88313255739735 L 6.420829745263169,505.0289233499024 L 1.849289291707414e-15,519.7288551533744 L -6.420829745263167,505.0289233499024 L -21.35546346019788,510.88313255739735 L -15.501254252702921,495.94849884246264 L -30.201186056174908,489.52766909719946 L -15.501254252702923,483.1068393519363 L -21.355463460197885,468.1722056370016 L -6.420829745263178,474.02641484449657 Z" fill="none" stroke="#00A86B" stroke-width="2.6060639629634395" /><path d="M 67.11374679149979,459.3264830410246 L 73.53457653676296,474.0264148444965 L 88.46921025169767,468.1722056370016 L 82.61500104420271,483.1068393519363 L 97.3149328476747,489.52766909719946 L 82.61500104420271,495.94849884246264 L 88.46921025169767,510.88313255739735 L 73.53457653676296,505.0289233499024 L 67.11374679149979,519.7288551533744 L 60.69291704623662,505.0289233499024 L 45.75828333130191,510.88313255739735 L 51.61249253879687,495.94849884246264 L 36.91256073532489,489.52766909719946 L 51.61249253879687,483.1068393519363 L 45.75828333130191,468.1722056370016 L 60.692917046236616,474.02641484449657 Z" fill="none" stroke="#00A86B" stroke-width="2.6060639629634395" /><path d="M 134.22749358299959,459.3264830410246 L 140.64832332826276,474.0264148444965 L 155.58295704319747,468.1722056370016 L 149.7287478357025,483.1068393519363 L 164.4286796391745,489.52766909719946 L 149.7287478357025,495.94849884246264 L 155.58295704319747,510.88313255739735 L 140.64832332826276,505.0289233499024 L 134.22749358299959,519.7288551533744 L 127.80666383773642,505.0289233499024 L 112.8720301228017,510.88313255739735 L 118.72623933029666,495.94849884246264 L 104.02630752682468,489.52766909719946 L 118.72623933029666,483.1068393519363 L 112.8720301228017,468.1722056370016 L 127.80666383773641,474.02641484449657 Z" fill="none" stroke="#00A86B" stroke-width="2.6060639629634395" /><path d="M 201.34124037449936,459.3264830410246 L 207.76207011976254,474.0264148444965 L 222.69670383469725,468.1722056370016 L 216.84249462720229,483.1068393519363 L 231.54242643067428,489.52766909719946 L 216.84249462720229,495.94849884246264 L 222.69670383469725,510.88313255739735 L 207.76207011976254,505.0289233499024 L 201.34124037449936,519.7288551533744 L 194.9204106292362,505.0289233499024 L 179.98577691430148,510.88313255739735 L 185.83998612179644,495.94849884246264 L 171.14005431832445,489.52766909719946 L 185.83998612179644,483.1068393519363 L 179.98577691430148,468.1722056370016 L 194.9204106292362,474.02641484449657 Z" fill="none" stroke="#00A86B" stroke-width="2.6060639629634395" /><path d="M 268.45498716599917,459.3264830410246 L 274.87581691126235,474.0264148444965 L 289.81045062619705,468.1722056370016 L 283.9562414187021,483.1068393519363 L 298.65617322217406,489.52766909719946 L 283.9562414187021,495.94849884246264 L 289.81045062619705,510.88313255739735 L 274.87581691126235,505.0289233499024 L 268.45498716599917,519.7288551533744 L 262.034157420736,505.0289233499024 L 247.0995237058013,510.88313255739735 L 252.95373291329625,495.94849884246264 L 238.25380110982425,489.52766909719946 L 252.95373291329625,483.1068393519363 L 247.0995237058013,468.1722056370016 L 262.034157420736,474.02641484449657 Z" fill="none" stroke="#00A86B" stroke-width="2.6060639629634395" /><path d="M 335.568733957499,459.3264830410246 L 341.98956370276215,474.0264148444965 L 356.92419741769686,468.1722056370016 L 351.0699882102019,483.1068393519363 L 365.76992001367387,489.52766909719946 L 351.0699882102019,495.94849884246264 L 356.92419741769686,510.88313255739735 L 341.98956370276215,505.0289233499024 L 335.568733957499,519.7288551533744 L 329.1479042122358,505.0289233499024 L 314.2132704973011,510.88313255739735 L 320.067479704796,495.94849884246264 L 305.3675479013241,489.52766909719946 L 320.067479704796,483.1068393519363 L 314.2132704973011,468.1722056370016 L 329.1479042122358,474.02641484449657 Z" fill="none" stroke="#00A86B" stroke-width="2.6060639629634395" /><path d="M 402.6824807489987,459.3264830410246 L 409.1033104942619,474.0264148444965 L 424.0379442091966,468.1722056370016 L 418.1837350017017,483.1068393519363 L 432.8836668051736,489.52766909719946 L 418.1837350017017,495.94849884246264 L 424.0379442091966,510.88313255739735 L 409.1033104942619,505.0289233499024 L 402.6824807489987,519.7288551533744 L 396.26165100373555,505.0289233499024 L 381.32701728880085,510.88313255739735 L 387.18122649629584,495.94849884246264 L 372.48129469282384,489.52766909719946 L 387.1812264962958,483.1068393519363 L 381.32701728880085,468.1722056370016 L 396.26165100373555,474.02641484449657 Z" fill="none" stroke="#00A86B" stroke-width="2.6060639629634395" /><path d="M 469.79622754049853,459.3264830410246 L 476.2170572857617,474.0264148444965 L 491.1516910006964,468.1722056370016 L 485.2974817932015,483.1068393519363 L 499.9974135966734,489.52766909719946 L 485.2974817932015,495.94849884246264 L 491.1516910006964,510.88313255739735 L 476.2170572857617,505.0289233499024 L 469.79622754049853,519.7288551533744 L 463.37539779523536,505.0289233499024 L 448.44076408030065,510.88313255739735 L 454.29497328779564,495.94849884246264 L 439.59504148432364,489.52766909719946 L 454.2949732877956,483.1068393519363 L 448.44076408030065,468.1722056370016 L 463.37539779523536,474.02641484449657 Z" fill="none" stroke="#00A86B" stroke-width="2.6060639629634395" /><path d="M 536.9099743319983,459.3264830410246 L 543.3308040772615,474.0264148444965 L 558.2654377921963,468.1722056370016 L 552.4112285847012,483.1068393519363 L 567.1111603881733,489.52766909719946 L 552.4112285847012,495.94849884246264 L 558.2654377921963,510.88313255739735 L 543.3308040772615,505.0289233499024 L 536.9099743319983,519.7288551533744 L 530.4891445867352,505.0289233499024 L 515.5545108718005,510.88313255739735 L 521.4087200792954,495.94849884246264 L 506.70878827582345,489.52766909719946 L 521.4087200792954,483.1068393519363 L 515.5545108718004,468.1722056370016 L 530.4891445867352,474.02641484449657 Z" fill="none" stroke="#00A86B" stroke-width="2.6060639629634395" /><line x1="30.201186056174908" y1="24.563631325688924" x2="36.91256073532489" y2="24.563631325688924" stroke="#00A86B" stroke-width="0.5"/><line x1="97.3149328476747" y1="24.563631325688924" x2="104.02630752682468" y2="24.563631325688924" stroke="#00A86B" stroke-width="0.5"/><line x1="164.4286796391745" y1="24.563631325688924" x2="171.14005431832445" y2="24.563631325688924" stroke="#00A86B" stroke-width="0.5"/><line x1="231.54242643067428" y1="24.563631325688924" x2="238.25380110982425" y2="24.563631325688924" stroke="#00A86B" stroke-width="0.5"/><line x1="298.65617322217406" y1="24.563631325688924" x2="305.3675479013241" y2="24.563631325688924" stroke="#00A86B" stroke-width="0.5"/><line x1="365.76992001367387" y1="24.563631325688924" x2="372.48129469282384" y2="24.563631325688924" stroke="#00A86B" stroke-width="0.5"/><line x1="432.8836668051736" y1="24.563631325688924" x2="439.59504148432364" y2="24.563631325688924" stroke="#00A86B" stroke-width="0.5"/><line x1="499.9974135966734" y1="24.563631325688924" x2="506.70878827582345" y2="24.563631325688924" stroke="#00A86B" stroke-width="0.5"/><line x1="63.75805945192481" y1="82.68413604712774" x2="70.46943413107478" y2="82.68413604712774" stroke="#00A86B" stroke-width="0.5"/><line x1="130.8718062434246" y1="82.68413604712774" x2="137.58318092257454" y2="82.68413604712774" stroke="#00A86B" stroke-width="0.5"/><line x1="197.98555303492438" y1="82.68413604712774" x2="204.69692771407435" y2="82.68413604712774" stroke="#00A86B" stroke-width="0.5"/><line x1="265.09929982642416" y1="82.68413604712774" x2="271.8106745055742" y2="82.68413604712774" stroke="#00A86B" stroke-width="0.5"/><line x1="332.21304661792396" y1="82.68413604712774" x2="338.92442129707393" y2="82.68413604712774" stroke="#00A86B" stroke-width="0.5"/><line x1="399.3267934094237" y1="82.68413604712774" x2="406.03816808857374" y2="82.68413604712774" stroke="#00A86B" stroke-width="0.5"/><line x1="466.4405402009235" y1="82.68413604712774" x2="473.15191488007355" y2="82.68413604712774" stroke="#00A86B" stroke-width="0.5"/><line x1="30.201186056174908" y1="140.80464076856654" x2="36.91256073532489" y2="140.80464076856654" stroke="#00A86B" stroke-width="0.5"/><line x1="97.3149328476747" y1="140.80464076856654" x2="104.02630752682468" y2="140.80464076856654" stroke="#00A86B" stroke-width="0.5"/><line x1="164.4286796391745" y1="140.80464076856654" x2="171.14005431832445" y2="140.80464076856654" stroke="#00A86B" stroke-width="0.5"/><line x1="231.54242643067428" y1="140.80464076856654" x2="238.25380110982425" y2="140.80464076856654" stroke="#00A86B" stroke-width="0.5"/><line x1="298.65617322217406" y1="140.80464076856654" x2="305.3675479013241" y2="140.80464076856654" stroke="#00A86B" stroke-width="0.5"/><line x1="365.76992001367387" y1="140.80464076856654" x2="372.48129469282384" y2="140.80464076856654" stroke="#00A86B" stroke-width="0.5"/><line x1="432.8836668051736" y1="140.80464076856654" x2="439.59504148432364" y2="140.80464076856654" stroke="#00A86B" stroke-width="0.5"/><line x1="499.9974135966734" y1="140.80464076856654" x2="506.70878827582345" y2="140.80464076856654" stroke="#00A86B" stroke-width="0.5"/><line x1="63.75805945192481" y1="198.92514549000538" x2="70.46943413107478" y2="198.92514549000538" stroke="#00A86B" stroke-width="0.5"/><line x1="130.8718062434246" y1="198.92514549000538" x2="137.58318092257454" y2="198.92514549000538" stroke="#00A86B" stroke-width="0.5"/><line x1="197.98555303492438" y1="198.92514549000538" x2="204.69692771407435" y2="198.92514549000538" stroke="#00A86B" stroke-width="0.5"/><line x1="265.09929982642416" y1="198.92514549000538" x2="271.8106745055742" y2="198.92514549000538" stroke="#00A86B" stroke-width="0.5"/><line x1="332.21304661792396" y1="198.92514549000538" x2="338.92442129707393" y2="198.92514549000538" stroke="#00A86B" stroke-width="0.5"/><line x1="399.3267934094237" y1="198.92514549000538" x2="406.03816808857374" y2="198.92514549000538" stroke="#00A86B" stroke-width="0.5"/><line x1="466.4405402009235" y1="198.92514549000538" x2="473.15191488007355" y2="198.92514549000538" stroke="#00A86B" stroke-width="0.5"/><line x1="30.201186056174908" y1="257.0456502114442" x2="36.91256073532489" y2="257.0456502114442" stroke="#00A86B" stroke-width="0.5"/><line x1="97.3149328476747" y1="257.0456502114442" x2="104.02630752682468" y2="257.0456502114442" stroke="#00A86B" stroke-width="0.5"/><line x1="164.4286796391745" y1="257.0456502114442" x2="171.14005431832445" y2="257.0456502114442" stroke="#00A86B" stroke-width="0.5"/><line x1="231.54242643067428" y1="257.0456502114442" x2="238.25380110982425" y2="257.0456502114442" stroke="#00A86B" stroke-width="0.5"/><line x1="298.65617322217406" y1="257.0456502114442" x2="305.3675479013241" y2="257.0456502114442" stroke="#00A86B" stroke-width="0.5"/><line x1="365.76992001367387" y1="257.0456502114442" x2="372.48129469282384" y2="257.0456502114442" stroke="#00A86B" stroke-width="0.5"/><line x1="432.8836668051736" y1="257.0456502114442" x2="439.59504148432364" y2="257.0456502114442" stroke="#00A86B" stroke-width="0.5"/><line x1="499.9974135966734" y1="257.0456502114442" x2="506.70878827582345" y2="257.0456502114442" stroke="#00A86B" stroke-width="0.5"/><line x1="63.75805945192481" y1="315.166154932883" x2="70.46943413107478" y2="315.166154932883" stroke="#00A86B" stroke-width="0.5"/><line x1="130.8718062434246" y1="315.166154932883" x2="137.58318092257454" y2="315.166154932883" stroke="#00A86B" stroke-width="0.5"/><line x1="197.98555303492438" y1="315.166154932883" x2="204.69692771407435" y2="315.166154932883" stroke="#00A86B" stroke-width="0.5"/><line x1="265.09929982642416" y1="315.166154932883" x2="271.8106745055742" y2="315.166154932883" stroke="#00A86B" stroke-width="0.5"/><line x1="332.21304661792396" y1="315.166154932883" x2="338.92442129707393" y2="315.166154932883" stroke="#00A86B" stroke-width="0.5"/><line x1="399.3267934094237" y1="315.166154932883" x2="406.03816808857374" y2="315.166154932883" stroke="#00A86B" stroke-width="0.5"/><line x1="466.4405402009235" y1="315.166154932883" x2="473.15191488007355" y2="315.166154932883" stroke="#00A86B" stroke-width="0.5"/><line x1="30.201186056174908" y1="373.28665965432185" x2="36.91256073532489" y2="373.28665965432185" stroke="#00A86B" stroke-width="0.5"/><line x1="97.3149328476747" y1="373.28665965432185" x2="104.02630752682468" y2="373.28665965432185" stroke="#00A86B" stroke-width="0.5"/><line x1="164.4286796391745" y1="373.28665965432185" x2="171.14005431832445" y2="373.28665965432185" stroke="#00A86B" stroke-width="0.5"/><line x1="231.54242643067428" y1="373.28665965432185" x2="238.25380110982425" y2="373.28665965432185" stroke="#00A86B" stroke-width="0.5"/><line x1="298.65617322217406" y1="373.28665965432185" x2="305.3675479013241" y2="373.28665965432185" stroke="#00A86B" stroke-width="0.5"/><line x1="365.76992001367387" y1="373.28665965432185" x2="372.48129469282384" y2="373.28665965432185" stroke="#00A86B" stroke-width="0.5"/><line x1="432.8836668051736" y1="373.28665965432185" x2="439.59504148432364" y2="373.28665965432185" stroke="#00A86B" stroke-width="0.5"/><line x1="499.9974135966734" y1="373.28665965432185" x2="506.70878827582345" y2="373.28665965432185" stroke="#00A86B" stroke-width="0.5"/><line x1="63.75805945192481" y1="431.40716437576066" x2="70.46943413107478" y2="431.40716437576066" stroke="#00A86B" stroke-width="0.5"/><line x1="130.8718062434246" y1="431.40716437576066" x2="137.58318092257454" y2="431.40716437576066" stroke="#00A86B" stroke-width="0.5"/><line x1="197.98555303492438" y1="431.40716437576066" x2="204.69692771407435" y2="431.40716437576066" stroke="#00A86B" stroke-width="0.5"/><line x1="265.09929982642416" y1="431.40716437576066" x2="271.8106745055742" y2="431.40716437576066" stroke="#00A86B" stroke-width="0.5"/><line x1="332.21304661792396" y1="431.40716437576066" x2="338.92442129707393" y2="431.40716437576066" stroke="#00A86B" stroke-width="0.5"/><line x1="399.3267934094237" y1="431.40716437576066" x2="406.03816808857374" y2="431.40716437576066" stroke="#00A86B" stroke-width="0.5"/><line x1="466.4405402009235" y1="431.40716437576066" x2="473.15191488007355" y2="431.40716437576066" stroke="#00A86B" stroke-width="0.5"/><line x1="30.201186056174908" y1="489.52766909719946" x2="36.91256073532489" y2="489.52766909719946" stroke="#00A86B" stroke-width="0.5"/><line x1="97.3149328476747" y1="489.52766909719946" x2="104.02630752682468" y2="489.52766909719946" stroke="#00A86B" stroke-width="0.5"/><line x1="164.4286796391745" y1="489.52766909719946" x2="171.14005431832445" y2="489.52766909719946" stroke="#00A86B" stroke-width="0.5"/><line x1="231.54242643067428" y1="489.52766909719946" x2="238.25380110982425" y2="489.52766909719946" stroke="#00A86B" stroke-width="0.5"/><line x1="298.65617322217406" y1="489.52766909719946" x2="305.3675479013241" y2="489.52766909719946" stroke="#00A86B" stroke-width="0.5"/><line x1="365.76992001367387" y1="489.52766909719946" x2="372.48129469282384" y2="489.52766909719946" stroke="#00A86B" stroke-width="0.5"/><line x1="432.8836668051736" y1="489.52766909719946" x2="439.59504148432364" y2="489.52766909719946" stroke="#00A86B" stroke-width="0.5"/><line x1="499.9974135966734" y1="489.52766909719946" x2="506.70878827582345" y2="489.52766909719946" stroke="#00A86B" stroke-width="0.5"/></g></svg>