<svg xmlns="http://www.w3.org/2000/svg" width="512" height="512" viewBox="0 0 512 512"><rect x="0" y="0" width="512" height="512" fill="#000000"/><g opacity="0.16454712008803485"><path d="M -46.369445582871386,-88.10194660745563 L -37.497036286611646,-67.78933643682677 L -16.860111112513323,-75.87878005322945 L -24.949554728916002,-55.241854879131125 L -4.636944558287141,-46.369445582871386 L -24.949554728916002,-37.497036286611646 L -16.860111112513323,-16.860111112513327 L -37.497036286611646,-24.949554728916002 L -46.369445582871386,-4.636944558287141 L -55.241854879131125,-24.949554728916002 L -75.87878005322945,-16.860111112513323 L -67.78933643682676,-37.49703628661164 L -88.10194660745563,-46.36944558287138 L -67.78933643682677,-55.241854879131125 L -75.87878005322946,-75.87878005322945 L -55.24185487913113,-67.78933643682676 Z" fill="none" stroke="#FFFFFF" stroke-width="1.7279275065417996" /><path d="M 46.369445582871386,-88.10194660745563 L 55.241854879131125,-67.78933643682677 L 75.87878005322945,-75.87878005322945 L 67.78933643682677,-55.241854879131125 L 88.10194660745563,-46.369445582871386 L 67.78933643682677,-37.497036286611646 L 75.87878005322945,-16.860111112513327 L 55.241854879131125,-24.949554728916002 L 46.369445582871386,-4.636944558287141 L 37.497036286611646,-24.949554728916002 L 16.860111112513327,-16.860111112513323 L 24.94955472891601,-37.49703628661164 L 4.636944558287141,-46.36944558287138 L 24.949554728916006,-55.241854879131125 L 16.860111112513316,-75.87878005322945 L 37.49703628661164,-67.78933643682676 Z" fill="none" stroke="#FFFFFF" stroke-width="1.7279275065417996" /><path d="M 139.10833674861416,-88.10194660745563 L 147.9807460448739,-67.78933643682677 L 168.61767121897222,-75.87878005322945 L 160.52822760256956,-55.241854879131125 L 180.84083777319842,-46.369445582871386 L 160.52822760256956,-37.497036286611646 L 168.61767121897222,-16.860111112513327 L 147.9807460448739,-24.949554728916002 L 139.10833674861416,-4.636944558287141 L 130.23592745235442,-24.949554728916002 L 109.59900227825611,-16.860111112513323 L 117.68844589465878,-37.49703628661164 L 97.37583572402991,-46.36944558287138 L 117.68844589465878,-55.241854879131125 L 109.5990022782561,-75.87878005322945 L 130.23592745235442,-67.78933643682676 Z" fill="none" stroke="#FFFFFF" stroke-width="1.7279275065417996" /><path d="M 231.84722791435695,-88.10194660745563 L 240.7196372106167,-67.78933643682677 L 261.356562384715,-75.87878005322945 L 253.26711876831234,-55.241854879131125 L 273.5797289389412,-46.369445582871386 L 253.26711876831234,-37.497036286611646 L 261.356562384715,-16.860111112513327 L 240.7196372106167,-24.949554728916002 L 231.84722791435695,-4.636944558287141 L 222.9748186180972,-24.949554728916002 L 202.3378934439989,-16.860111112513323 L 210.42733706040158,-37.49703628661164 L 190.1147268897727,-46.36944558287138 L 210.42733706040156,-55.241854879131125 L 202.3378934439989,-75.87878005322945 L 222.9748186180972,-67.78933643682676 Z" fill="none" stroke="#FFFFFF" stroke-width="1.7279275065417996" /><path d="M 324.5861190800997,-88.10194660745563 L 333.4585283763594,-67.78933643682677 L 354.09545355045776,-75.87878005322945 L 346.0060099340551,-55.241854879131125 L 366.31862010468393,-46.369445582871386 L 346.0060099340551,-37.497036286611646 L 354.09545355045776,-16.860111112513327 L 333.4585283763594,-24.949554728916002 L 324.5861190800997,-4.636944558287141 L 315.71370978384,-24.949554728916002 L 295.07678460974165,-16.860111112513323 L 303.1662282261443,-37.49703628661164 L 282.8536180555155,-46.36944558287138 L 303.1662282261443,-55.241854879131125 L 295.07678460974165,-75.87878005322945 L 315.71370978383993,-67.78933643682676 Z" fill="none" stroke="#FFFFFF" stroke-width="1.7279275065417996" /><path d="M 417.32501024584246,-88.10194660745563 L 426.1974195421022,-67.78933643682677 L 446.8343447162005,-75.87878005322945 L 438.74490109979786,-55.241854879131125 L 459.0575112704267,-46.369445582871386 L 438.74490109979786,-37.497036286611646 L 446.8343447162005,-16.860111112513327 L 426.1974195421022,-24.949554728916002 L 417.32501024584246,-4.636944558287141 L 408.45260094958275,-24.949554728916002 L 387.8156757754844,-16.860111112513323 L 395.90511939188707,-37.49703628661164 L 375.59250922125824,-46.36944558287138 L 395.90511939188707,-55.241854879131125 L 387.8156757754844,-75.87878005322945 L 408.4526009495827,-67.78933643682676 Z" fill="none" stroke="#FFFFFF" stroke-width="1.7279275065417996" /><path d="M 510.0639014115853,-88.10194660745563 L 518.936310707845,-67.78933643682677 L 539.5732358819433,-75.87878005322945 L 531.4837922655406,-55.241854879131125 L 551.7964024361695,-46.369445582871386 L 531.4837922655406,-37.497036286611646 L 539.5732358819433,-16.860111112513327 L 518.936310707845,-24.949554728916002 L 510.0639014115853,-4.636944558287141 L 501.19149211532556,-24.949554728916002 L 480.5545669412272,-16.860111112513323 L 488.6440105576299,-37.49703628661164 L 468.33140038700105,-46.36944558287138 L 488.6440105576299,-55.241854879131125 L 480.5545669412272,-75.87878005322945 L 501.1914921153255,-67.78933643682676 Z" fill="none" stroke="#FFFFFF" stroke-width="1.7279275065417996" /><path d="M 602.802792577328,-88.10194660745563 L 611.6752018735878,-67.78933643682677 L 632.3121270476861,-75.87878005322945 L 624.2226834312834,-55.241854879131125 L 644.5352936019123,-46.369445582871386 L 624.2226834312834,-37.497036286611646 L 632.3121270476861,-16.860111112513327 L 611.6752018735878,-24.949554728916002 L 602.802792577328,-4.636944558287141 L 593.9303832810682,-24.949554728916002 L 573.2934581069699,-16.860111112513323 L 581.3829017233726,-37.49703628661164 L 561.0702915527437,-46.36944558287138 L 581.3829017233726,-55.241854879131125 L 573.2934581069699,-75.87878005322945 L 593.9303832810682,-67.78933643682676 Z" fill="none" stroke="#FFFFFF" stroke-width="1.7279275065417996" /><path d="M 2.5553786900085366e-15,-7.7900668579223975 L 8.872409296259738,12.522543312706464 L 29.509334470358063,4.433099696303788 L 21.419890853955383,25.07002487040211 L 41.732501024584245,33.94243416666185 L 21.419890853955383,42.81484346292159 L 29.509334470358063,63.45176863701991 L 8.872409296259738,55.362325020617234 L 2.5553786900085366e-15,75.67493519124609 L -8.872409296259736,55.362325020617234 L -29.50933447035806,63.45176863701991 L -21.419890853955376,42.814843462921594 L -41.732501024584245,33.942434166661855 L -21.41989085395538,25.070024870402104 L -29.50933447035807,4.433099696303788 L -8.872409296259749,12.522543312706471 Z" fill="none" stroke="#FFFFFF" stroke-width="1.7279275065417996" /><path d="M 92.73889116574277,-7.7900668579223975 L 101.6113004620025,12.522543312706464 L 122.24822563610084,4.433099696303788 L 114.15878201969815,25.07002487040211 L 134.471392190327,33.94243416666185 L 114.15878201969815,42.81484346292159 L 122.24822563610084,63.45176863701991 L 101.6113004620025,55.362325020617234 L 92.73889116574277,75.67493519124609 L 83.86648186948304,55.362325020617234 L 63.229556695384716,63.45176863701991 L 71.31900031178739,42.814843462921594 L 51.006390141158526,33.942434166661855 L 71.31900031178739,25.070024870402104 L 63.2295566953847,4.433099696303788 L 83.86648186948302,12.522543312706471 Z" fill="none" stroke="#FFFFFF" stroke-width="1.7279275065417996" /><path d="M 185.47778233148554,-7.7900668579223975 L 194.3501916277453,12.522543312706464 L 214.9871168018436,4.433099696303788 L 206.89767318544094,25.07002487040211 L 227.2102833560698,33.94243416666185 L 206.89767318544094,42.81484346292159 L 214.9871168018436,63.45176863701991 L 194.3501916277453,55.362325020617234 L 185.47778233148554,75.67493519124609 L 176.6053730352258,55.362325020617234 L 155.9684478611275,63.45176863701991 L 164.05789147753018,42.814843462921594 L 143.7452813069013,33.942434166661855 L 164.05789147753018,25.070024870402104 L 155.96844786112746,4.433099696303788 L 176.6053730352258,12.522543312706471 Z" fill="none" stroke="#FFFFFF" stroke-width="1.7279275065417996" /><path d="M 278.2166734972283,-7.7900668579223975 L 287.08908279348805,12.522543312706464 L 307.7260079675864,4.433099696303788 L 299.6365643511837,25.07002487040211 L 319.94917452181255,33.94243416666185 L 299.6365643511837,42.81484346292159 L 307.7260079675864,63.45176863701991 L 287.08908279348805,55.362325020617234 L 278.2166734972283,75.67493519124609 L 269.3442642009686,55.362325020617234 L 248.70733902687027,63.45176863701991 L 256.79678264327293,42.814843462921594 L 236.48417247264408,33.942434166661855 L 256.79678264327293,25.070024870402104 L 248.70733902687027,4.433099696303788 L 269.34426420096855,12.522543312706471 Z" fill="none" stroke="#FFFFFF" stroke-width="1.7279275065417996" /><path d="M 370.9555646629711,-7.7900668579223975 L 379.8279739592308,12.522543312706464 L 400.46489913332914,4.433099696303788 L 392.3754555169265,25.07002487040211 L 412.6880656875553,33.94243416666185 L 392.3754555169265,42.81484346292159 L 400.46489913332914,63.45176863701991 L 379.8279739592308,55.362325020617234 L 370.9555646629711,75.67493519124609 L 362.08315536671137,55.362325020617234 L 341.44623019261303,63.45176863701991 L 349.5356738090157,42.814843462921594 L 329.22306363838686,33.942434166661855 L 349.5356738090157,25.070024870402104 L 341.44623019261303,4.433099696303788 L 362.0831553667113,12.522543312706471 Z" fill="none" stroke="#FFFFFF" stroke-width="1.7279275065417996" /><path d="M 463.69445582871384,-7.7900668579223975 L 472.56686512497356,12.522543312706464 L 493.2037902990719,4.433099696303788 L 485.11434668266924,25.07002487040211 L 505.42695685329807,33.94243416666185 L 485.11434668266924,42.81484346292159 L 493.2037902990719,63.45176863701991 L 472.56686512497356,55.362325020617234 L 463.69445582871384,75.67493519124609 L 454.8220465324541,55.362325020617234 L 434.1851213583558,63.45176863701991 L 442.27456497475845,42.814843462921594 L 421.9619548041296,33.942434166661855 L 442.27456497475845,25.070024870402104 L 434.1851213583558,4.433099696303788 L 454.82204653245407,12.522543312706471 Z" fill="none" stroke="#FFFFFF" stroke-width="1.7279275065417996" /><path d="M 556.4333469944567,-7.7900668579223975 L 565.3057562907164,12.522543312706464 L 585.9426814648148,4.433099696303788 L 577.853237848412,25.07002487040211 L 598.1658480190409,33.94243416666185 L 577.853237848412,42.81484346292159 L 585.9426814648148,63.45176863701991 L 565.3057562907164,55.362325020617234 L 556.4333469944567,75.67493519124609 L 547.5609376981969,55.362325020617234 L 526.9240125240985,63.45176863701991 L 535.0134561405013,42.814843462921594 L 514.7008459698724,33.942434166661855 L 535.0134561405013,25.070024870402104 L 526.9240125240985,4.433099696303788 L 547.5609376981969,12.522543312706471 Z" fill="none" stroke="#FFFFFF" stroke-width="1.7279275065417996" /><path d="M -46.369445582871386,72.52181289161084 L -37.497036286611646,92.83442306223971 L -16.860111112513323,84.74497944583703 L -24.949554728916002,105.38190461993536 L -4.636944558287141,114.25431391619509 L -24.949554728916002,123.12672321245482 L -16.860111112513323,143.76364838655314 L -37.497036286611646,135.67420477015048 L -46.369445582871386,155.98681494077934 L -55.241854879131125,135.67420477015048 L -75.87878005322945,143.76364838655314 L -67.78933643682676,123.12672321245483 L -88.10194660745563,114.25431391619509 L -67.78933643682677,105.38190461993534 L -75.87878005322946,84.74497944583703 L -55.24185487913113,92.83442306223971 Z" fill="none" stroke="#FFFFFF" stroke-width="1.7279275065417996" /><path d="M 46.369445582871386,72.52181289161084 L 55.241854879131125,92.83442306223971 L 75.87878005322945,84.74497944583703 L 67.78933643682677,105.38190461993536 L 88.10194660745563,114.25431391619509 L 67.78933643682677,123.12672321245482 L 75.87878005322945,143.76364838655314 L 55.241854879131125,135.67420477015048 L 46.369445582871386,155.98681494077934 L 37.497036286611646,135.67420477015048 L 16.860111112513327,143.76364838655314 L 24.94955472891601,123.12672321245483 L 4.636944558287141,114.25431391619509 L 24.949554728916006,105.38190461993534 L 16.860111112513316,84.74497944583703 L 37.49703628661164,92.83442306223971 Z" fill="none" stroke="#FFFFFF" stroke-width="1.7279275065417996" /><path d="M 139.10833674861416,72.52181289161084 L 147.9807460448739,92.83442306223971 L 168.61767121897222,84.74497944583703 L 160.52822760256956,105.38190461993536 L 180.84083777319842,114.25431391619509 L 160.52822760256956,123.12672321245482 L 168.61767121897222,143.76364838655314 L 147.9807460448739,135.67420477015048 L 139.10833674861416,155.98681494077934 L 130.23592745235442,135.67420477015048 L 109.59900227825611,143.76364838655314 L 117.68844589465878,123.12672321245483 L 97.37583572402991,114.25431391619509 L 117.68844589465878,105.38190461993534 L 109.5990022782561,84.74497944583703 L 130.23592745235442,92.83442306223971 Z" fill="none" stroke="#FFFFFF" stroke-width="1.7279275065417996" /><path d="M 231.84722791435695,72.52181289161084 L 240.7196372106167,92.83442306223971 L 261.356562384715,84.74497944583703 L 253.26711876831234,105.38190461993536 L 273.5797289389412,114.25431391619509 L 253.26711876831234,123.12672321245482 L 261.356562384715,143.76364838655314 L 240.7196372106167,135.67420477015048 L 231.84722791435695,155.98681494077934 L 222.9748186180972,135.67420477015048 L 202.3378934439989,143.76364838655314 L 210.42733706040158,123.12672321245483 L 190.1147268897727,114.25431391619509 L 210.42733706040156,105.38190461993534 L 202.3378934439989,84.74497944583703 L 222.9748186180972,92.83442306223971 Z" fill="none" stroke="#FFFFFF" stroke-width="1.7279275065417996" /><path d="M 324.5861190800997,72.52181289161084 L 333.4585283763594,92.83442306223971 L 354.09545355045776,84.74497944583703 L 346.0060099340551,105.38190461993536 L 366.31862010468393,114.25431391619509 L 346.0060099340551,123.12672321245482 L 354.09545355045776,143.76364838655314 L 333.4585283763594,135.67420477015048 L 324.5861190800997,155.98681494077934 L 315.71370978384,135.67420477015048 L 295.07678460974165,143.76364838655314 L 303.1662282261443,123.12672321245483 L 282.8536180555155,114.25431391619509 L 303.1662282261443,105.38190461993534 L 295.07678460974165,84.74497944583703 L 315.71370978383993,92.83442306223971 Z" fill="none" stroke="#FFFFFF" stroke-width="1.7279275065417996" /><path d="M 417.32501024584246,72.52181289161084 L 426.1974195421022,92.83442306223971 L 446.8343447162005,84.74497944583703 L 438.74490109979786,105.38190461993536 L 459.0575112704267,114.25431391619509 L 438.74490109979786,123.12672321245482 L 446.8343447162005,143.76364838655314 L 426.1974195421022,135.67420477015048 L 417.32501024584246,155.98681494077934 L 408.45260094958275,135.67420477015048 L 387.8156757754844,143.76364838655314 L 395.90511939188707,123.12672321245483 L 375.59250922125824,114.25431391619509 L 395.90511939188707,105.38190461993534 L 387.8156757754844,84.74497944583703 L 408.4526009495827,92.83442306223971 Z" fill="none" stroke="#FFFFFF" stroke-width="1.7279275065417996" /><path d="M 510.0639014115853,72.52181289161084 L 518.936310707845,92.83442306223971 L 539.5732358819433,84.74497944583703 L 531.4837922655406,105.38190461993536 L 551.7964024361695,114.25431391619509 L 531.4837922655406,123.12672321245482 L 539.5732358819433,143.76364838655314 L 518.936310707845,135.67420477015048 L 510.0639014115853,155.98681494077934 L 501.19149211532556,135.67420477015048 L 480.5545669412272,143.76364838655314 L 488.6440105576299,123.12672321245483 L 468.33140038700105,114.25431391619509 L 488.6440105576299,105.38190461993534 L 480.5545669412272,84.74497944583703 L 501.1914921153255,92.83442306223971 Z" fill="none" stroke="#FFFFFF" stroke-width="1.7279275065417996" /><path d="M 602.802792577328,72.52181289161084 L 611.6752018735878,92.83442306223971 L 632.3121270476861,84.74497944583703 L 624.2226834312834,105.38190461993536 L 644.5352936019123,114.25431391619509 L 624.2226834312834,123.12672321245482 L 632.3121270476861,143.76364838655314 L 611.6752018735878,135.67420477015048 L 602.802792577328,155.98681494077934 L 593.9303832810682,135.67420477015048 L 573.2934581069699,143.76364838655314 L 581.3829017233726,123.12672321245483 L 561.0702915527437,114.25431391619509 L 581.3829017233726,105.38190461993534 L 573.2934581069699,84.74497944583703 L 593.9303832810682,92.83442306223971 Z" fill="none" stroke="#FFFFFF" stroke-width="1.7279275065417996" /><path d="M 2.5553786900085366e-15,152.8336926411441 L 8.872409296259738,173.14630281177296 L 29.509334470358063,165.0568591953703 L 21.419890853955383,185.6937843694686 L 41.732501024584245,194.56619366572835 L 21.419890853955383,203.4386029619881 L 29.509334470358063,224.0755281360864 L 8.872409296259738,215.98608451968374 L 2.5553786900085366e-15,236.2986946903126 L -8.872409296259736,215.98608451968374 L -29.50933447035806,224.0755281360864 L -21.419890853955376,203.4386029619881 L -41.732501024584245,194.56619366572835 L -21.41989085395538,185.6937843694686 L -29.50933447035807,165.0568591953703 L -8.872409296259749,173.14630281177298 Z" fill="none" stroke="#FFFFFF" stroke-width="1.7279275065417996" /><path d="M 92.73889116574277,152.8336926411441 L 101.6113004620025,173.14630281177296 L 122.24822563610084,165.0568591953703 L 114.15878201969815,185.6937843694686 L 134.471392190327,194.56619366572835 L 114.15878201969815,203.4386029619881 L 122.24822563610084,224.0755281360864 L 101.6113004620025,215.98608451968374 L 92.73889116574277,236.2986946903126 L 83.86648186948304,215.98608451968374 L 63.229556695384716,224.0755281360864 L 71.31900031178739,203.4386029619881 L 51.006390141158526,194.56619366572835 L 71.31900031178739,185.6937843694686 L 63.2295566953847,165.0568591953703 L 83.86648186948302,173.14630281177298 Z" fill="none" stroke="#FFFFFF" stroke-width="1.7279275065417996" /><path d="M 185.47778233148554,152.8336926411441 L 194.3501916277453,173.14630281177296 L 214.9871168018436,165.0568591953703 L 206.89767318544094,185.6937843694686 L 227.2102833560698,194.56619366572835 L 206.89767318544094,203.4386029619881 L 214.9871168018436,224.0755281360864 L 194.3501916277453,215.98608451968374 L 185.47778233148554,236.2986946903126 L 176.6053730352258,215.98608451968374 L 155.9684478611275,224.0755281360864 L 164.05789147753018,203.4386029619881 L 143.7452813069013,194.56619366572835 L 164.05789147753018,185.6937843694686 L 155.96844786112746,165.0568591953703 L 176.6053730352258,173.14630281177298 Z" fill="none" stroke="#FFFFFF" stroke-width="1.7279275065417996" /><path d="M 278.2166734972283,152.8336926411441 L 287.08908279348805,173.14630281177296 L 307.7260079675864,165.0568591953703 L 299.6365643511837,185.6937843694686 L 319.94917452181255,194.56619366572835 L 299.6365643511837,203.4386029619881 L 307.7260079675864,224.0755281360864 L 287.08908279348805,215.98608451968374 L 278.2166734972283,236.2986946903126 L 269.3442642009686,215.98608451968374 L 248.70733902687027,224.0755281360864 L 256.79678264327293,203.4386029619881 L 236.48417247264408,194.56619366572835 L 256.79678264327293,185.6937843694686 L 248.70733902687027,165.0568591953703 L 269.34426420096855,173.14630281177298 Z" fill="none" stroke="#FFFFFF" stroke-width="1.7279275065417996" /><path d="M 370.9555646629711,152.8336926411441 L 379.8279739592308,173.14630281177296 L 400.46489913332914,165.0568591953703 L 392.3754555169265,185.6937843694686 L 412.6880656875553,194.56619366572835 L 392.3754555169265,203.4386029619881 L 400.46489913332914,224.0755281360864 L 379.8279739592308,215.98608451968374 L 370.9555646629711,236.2986946903126 L 362.08315536671137,215.98608451968374 L 341.44623019261303,224.0755281360864 L 349.5356738090157,203.4386029619881 L 329.22306363838686,194.56619366572835 L 349.5356738090157,185.6937843694686 L 341.44623019261303,165.0568591953703 L 362.0831553667113,173.14630281177298 Z" fill="none" stroke="#FFFFFF" stroke-width="1.7279275065417996" /><path d="M 463.69445582871384,152.8336926411441 L 472.56686512497356,173.14630281177296 L 493.2037902990719,165.0568591953703 L 485.11434668266924,185.6937843694686 L 505.42695685329807,194.56619366572835 L 485.11434668266924,203.4386029619881 L 493.2037902990719,224.0755281360864 L 472.56686512497356,215.98608451968374 L 463.69445582871384,236.2986946903126 L 454.8220465324541,215.98608451968374 L 434.1851213583558,224.0755281360864 L 442.27456497475845,203.4386029619881 L 421.9619548041296,194.56619366572835 L 442.27456497475845,185.6937843694686 L 434.1851213583558,165.0568591953703 L 454.82204653245407,173.14630281177298 Z" fill="none" stroke="#FFFFFF" stroke-width="1.7279275065417996" /><path d="M 556.4333469944567,152.8336926411441 L 565.3057562907164,173.14630281177296 L 585.9426814648148,165.0568591953703 L 577.853237848412,185.6937843694686 L 598.1658480190409,194.56619366572835 L 577.853237848412,203.4386029619881 L 585.9426814648148,224.0755281360864 L 565.3057562907164,215.98608451968374 L 556.4333469944567,236.2986946903126 L 547.5609376981969,215.98608451968374 L 526.9240125240985,224.0755281360864 L 535.0134561405013,203.4386029619881 L 514.7008459698724,194.56619366572835 L 535.0134561405013,185.6937843694686 L 526.9240125240985,165.0568591953703 L 547.5609376981969,173.14630281177298 Z" fill="none" stroke="#FFFFFF" stroke-width="1.7279275065417996" /><path d="M -46.369445582871386,233.1455723906773 L -37.497036286611646,253.45818256130616 L -16.860111112513323,245.3687389449035 L -24.949554728916002,266.00566411900184 L -4.636944558287141,274.87807341526155 L -24.949554728916002,283.7504827115213 L -16.860111112513323,304.3874078856196 L -37.497036286611646,296.29796426921695 L -46.369445582871386,316.6105744398458 L -55.241854879131125,296.29796426921695 L -75.87878005322945,304.3874078856196 L -67.78933643682676,283.75048271152133 L -88.10194660745563,274.87807341526155 L -67.78933643682677,266.00566411900184 L -75.87878005322946,245.3687389449035 L -55.24185487913113,253.4581825613062 Z" fill="none" stroke="#FFFFFF" stroke-width="1.7279275065417996" /><path d="M 46.369445582871386,233.1455723906773 L 55.241854879131125,253.45818256130616 L 75.87878005322945,245.3687389449035 L 67.78933643682677,266.00566411900184 L 88.10194660745563,274.87807341526155 L 67.78933643682677,283.7504827115213 L 75.87878005322945,304.3874078856196 L 55.241854879131125,296.29796426921695 L 46.369445582871386,316.6105744398458 L 37.497036286611646,296.29796426921695 L 16.860111112513327,304.3874078856196 L 24.94955472891601,283.75048271152133 L 4.636944558287141,274.87807341526155 L 24.949554728916006,266.00566411900184 L 16.860111112513316,245.3687389449035 L 37.49703628661164,253.4581825613062 Z" fill="none" stroke="#FFFFFF" stroke-width="1.7279275065417996" /><path d="M 139.10833674861416,233.1455723906773 L 147.9807460448739,253.45818256130616 L 168.61767121897222,245.3687389449035 L 160.52822760256956,266.00566411900184 L 180.84083777319842,274.87807341526155 L 160.52822760256956,283.7504827115213 L 168.61767121897222,304.3874078856196 L 147.9807460448739,296.29796426921695 L 139.10833674861416,316.6105744398458 L 130.23592745235442,296.29796426921695 L 109.59900227825611,304.3874078856196 L 117.68844589465878,283.75048271152133 L 97.37583572402991,274.87807341526155 L 117.68844589465878,266.00566411900184 L 109.5990022782561,245.3687389449035 L 130.23592745235442,253.4581825613062 Z" fill="none" stroke="#FFFFFF" stroke-width="1.7279275065417996" /><path d="M 231.84722791435695,233.1455723906773 L 240.7196372106167,253.45818256130616 L 261.356562384715,245.3687389449035 L 253.26711876831234,266.00566411900184 L 273.5797289389412,274.87807341526155 L 253.26711876831234,283.7504827115213 L 261.356562384715,304.3874078856196 L 240.7196372106167,296.29796426921695 L 231.84722791435695,316.6105744398458 L 222.9748186180972,296.29796426921695 L 202.3378934439989,304.3874078856196 L 210.42733706040158,283.75048271152133 L 190.1147268897727,274.87807341526155 L 210.42733706040156,266.00566411900184 L 202.3378934439989,245.3687389449035 L 222.9748186180972,253.4581825613062 Z" fill="none" stroke="#FFFFFF" stroke-width="1.7279275065417996" /><path d="M 324.5861190800997,233.1455723906773 L 333.4585283763594,253.45818256130616 L 354.09545355045776,245.3687389449035 L 346.0060099340551,266.00566411900184 L 366.31862010468393,274.87807341526155 L 346.0060099340551,283.7504827115213 L 354.09545355045776,304.3874078856196 L 333.4585283763594,296.29796426921695 L 324.5861190800997,316.6105744398458 L 315.71370978384,296.29796426921695 L 295.07678460974165,304.3874078856196 L 303.1662282261443,283.75048271152133 L 282.8536180555155,274.87807341526155 L 303.1662282261443,266.00566411900184 L 295.07678460974165,245.3687389449035 L 315.71370978383993,253.4581825613062 Z" fill="none" stroke="#FFFFFF" stroke-width="1.7279275065417996" /><path d="M 417.32501024584246,233.1455723906773 L 426.1974195421022,253.45818256130616 L 446.8343447162005,245.3687389449035 L 438.74490109979786,266.00566411900184 L 459.0575112704267,274.87807341526155 L 438.74490109979786,283.7504827115213 L 446.8343447162005,304.3874078856196 L 426.1974195421022,296.29796426921695 L 417.32501024584246,316.6105744398458 L 408.45260094958275,296.29796426921695 L 387.8156757754844,304.3874078856196 L 395.90511939188707,283.75048271152133 L 375.59250922125824,274.87807341526155 L 395.90511939188707,266.00566411900184 L 387.8156757754844,245.3687389449035 L 408.4526009495827,253.4581825613062 Z" fill="none" stroke="#FFFFFF" stroke-width="1.7279275065417996" /><path d="M 510.0639014115853,233.1455723906773 L 518.936310707845,253.45818256130616 L 539.5732358819433,245.3687389449035 L 531.4837922655406,266.00566411900184 L 551.7964024361695,274.87807341526155 L 531.4837922655406,283.7504827115213 L 539.5732358819433,304.3874078856196 L 518.936310707845,296.29796426921695 L 510.0639014115853,316.6105744398458 L 501.19149211532556,296.29796426921695 L 480.5545669412272,304.3874078856196 L 488.6440105576299,283.75048271152133 L 468.33140038700105,274.87807341526155 L 488.6440105576299,266.00566411900184 L 480.5545669412272,245.3687389449035 L 501.1914921153255,253.4581825613062 Z" fill="none" stroke="#FFFFFF" stroke-width="1.7279275065417996" /><path d="M 602.802792577328,233.1455723906773 L 611.6752018735878,253.45818256130616 L 632.3121270476861,245.3687389449035 L 624.2226834312834,266.00566411900184 L 644.5352936019123,274.87807341526155 L 624.2226834312834,283.7504827115213 L 632.3121270476861,304.3874078856196 L 611.6752018735878,296.29796426921695 L 602.802792577328,316.6105744398458 L 593.9303832810682,296.29796426921695 L 573.2934581069699,304.3874078856196 L 581.3829017233726,283.75048271152133 L 561.0702915527437,274.87807341526155 L 581.3829017233726,266.00566411900184 L 573.2934581069699,245.3687389449035 L 593.9303832810682,253.4581825613062 Z" fill="none" stroke="#FFFFFF" stroke-width="1.7279275065417996" /><path d="M 2.5553786900085366e-15,313.4574521402106 L 8.872409296259738,333.7700623108394 L 29.509334470358063,325.68061869443676 L 21.419890853955383,346.3175438685351 L 41.732501024584245,355.1899531647948 L 21.419890853955383,364.06236246105453 L 29.509334470358063,384.69928763515287 L 8.872409296259738,376.6098440187502 L 2.5553786900085366e-15,396.92245418937904 L -8.872409296259736,376.6098440187502 L -29.50933447035806,384.69928763515287 L -21.419890853955376,364.0623624610546 L -41.732501024584245,355.1899531647948 L -21.41989085395538,346.3175438685351 L -29.50933447035807,325.68061869443676 L -8.872409296259749,333.7700623108394 Z" fill="none" stroke="#FFFFFF" stroke-width="1.7279275065417996" /><path d="M 92.73889116574277,313.4574521402106 L 101.6113004620025,333.7700623108394 L 122.24822563610084,325.68061869443676 L 114.15878201969815,346.3175438685351 L 134.471392190327,355.1899531647948 L 114.15878201969815,364.06236246105453 L 122.24822563610084,384.69928763515287 L 101.6113004620025,376.6098440187502 L 92.73889116574277,396.92245418937904 L 83.86648186948304,376.6098440187502 L 63.229556695384716,384.69928763515287 L 71.31900031178739,364.0623624610546 L 51.006390141158526,355.1899531647948 L 71.31900031178739,346.3175438685351 L 63.2295566953847,325.68061869443676 L 83.86648186948302,333.7700623108394 Z" fill="none" stroke="#FFFFFF" stroke-width="1.7279275065417996" /><path d="M 185.47778233148554,313.4574521402106 L 194.3501916277453,333.7700623108394 L 214.9871168018436,325.68061869443676 L 206.89767318544094,346.3175438685351 L 227.2102833560698,355.1899531647948 L 206.89767318544094,364.06236246105453 L 214.9871168018436,384.69928763515287 L 194.3501916277453,376.6098440187502 L 185.47778233148554,396.92245418937904 L 176.6053730352258,376.6098440187502 L 155.9684478611275,384.69928763515287 L 164.05789147753018,364.0623624610546 L 143.7452813069013,355.1899531647948 L 164.05789147753018,346.3175438685351 L 155.96844786112746,325.68061869443676 L 176.6053730352258,333.7700623108394 Z" fill="none" stroke="#FFFFFF" stroke-width="1.7279275065417996" /><path d="M 278.2166734972283,313.4574521402106 L 287.08908279348805,333.7700623108394 L 307.7260079675864,325.68061869443676 L 299.6365643511837,346.3175438685351 L 319.94917452181255,355.1899531647948 L 299.6365643511837,364.06236246105453 L 307.7260079675864,384.69928763515287 L 287.08908279348805,376.6098440187502 L 278.2166734972283,396.92245418937904 L 269.3442642009686,376.6098440187502 L 248.70733902687027,384.69928763515287 L 256.79678264327293,364.0623624610546 L 236.48417247264408,355.1899531647948 L 256.79678264327293,346.3175438685351 L 248.70733902687027,325.68061869443676 L 269.34426420096855,333.7700623108394 Z" fill="none" stroke="#FFFFFF" stroke-width="1.7279275065417996" /><path d="M 370.9555646629711,313.4574521402106 L 379.8279739592308,333.7700623108394 L 400.46489913332914,325.68061869443676 L 392.3754555169265,346.3175438685351 L 412.6880656875553,355.1899531647948 L 392.3754555169265,364.06236246105453 L 400.46489913332914,384.69928763515287 L 379.8279739592308,376.6098440187502 L 370.9555646629711,396.92245418937904 L 362.08315536671137,376.6098440187502 L 341.44623019261303,384.69928763515287 L 349.5356738090157,364.0623624610546 L 329.22306363838686,355.1899531647948 L 349.5356738090157,346.3175438685351 L 341.44623019261303,325.68061869443676 L 362.0831553667113,333.7700623108394 Z" fill="none" stroke="#FFFFFF" stroke-width="1.7279275065417996" /><path d="M 463.69445582871384,313.4574521402106 L 472.56686512497356,333.7700623108394 L 493.2037902990719,325.68061869443676 L 485.11434668266924,346.3175438685351 L 505.42695685329807,355.1899531647948 L 485.11434668266924,364.06236246105453 L 493.2037902990719,384.69928763515287 L 472.56686512497356,376.6098440187502 L 463.69445582871384,396.92245418937904 L 454.8220465324541,376.6098440187502 L 434.1851213583558,384.69928763515287 L 442.27456497475845,364.0623624610546 L 421.9619548041296,355.1899531647948 L 442.27456497475845,346.3175438685351 L 434.1851213583558,325.68061869443676 L 454.82204653245407,333.7700623108394 Z" fill="none" stroke="#FFFFFF" stroke-width="1.7279275065417996" /><path d="M 556.4333469944567,313.4574521402106 L 565.3057562907164,333.7700623108394 L 585.9426814648148,325.68061869443676 L 577.853237848412,346.3175438685351 L 598.1658480190409,355.1899531647948 L 577.853237848412,364.06236246105453 L 585.9426814648148,384.69928763515287 L 565.3057562907164,376.6098440187502 L 556.4333469944567,396.92245418937904 L 547.5609376981969,376.6098440187502 L 526.9240125240985,384.69928763515287 L 535.0134561405013,364.0623624610546 L 514.7008459698724,355.1899531647948 L 535.0134561405013,346.3175438685351 L 526.9240125240985,325.68061869443676 L 547.5609376981969,333.7700623108394 Z" fill="none" stroke="#FFFFFF" stroke-width="1.7279275065417996" /><path d="M -46.369445582871386,393.76933188974385 L -37.497036286611646,414.0819420603727 L -16.860111112513323,405.99249844397 L -24.949554728916002,426.62942361806836 L -4.636944558287141,435.5018329143281 L -24.949554728916002,444.3742422105878 L -16.860111112513323,465.01116738468613 L -37.497036286611646,456.92172376828347 L -46.369445582871386,477.2343339389123 L -55.241854879131125,456.92172376828347 L -75.87878005322945,465.01116738468613 L -67.78933643682676,444.37424221058785 L -88.10194660745563,435.5018329143281 L -67.78933643682677,426.62942361806836 L -75.87878005322946,405.99249844397 L -55.24185487913113,414.0819420603727 Z" fill="none" stroke="#FFFFFF" stroke-width="1.7279275065417996" /><path d="M 46.369445582871386,393.76933188974385 L 55.241854879131125,414.0819420603727 L 75.87878005322945,405.99249844397 L 67.78933643682677,426.62942361806836 L 88.10194660745563,435.5018329143281 L 67.78933643682677,444.3742422105878 L 75.87878005322945,465.01116738468613 L 55.241854879131125,456.92172376828347 L 46.369445582871386,477.2343339389123 L 37.497036286611646,456.92172376828347 L 16.860111112513327,465.01116738468613 L 24.94955472891601,444.37424221058785 L 4.636944558287141,435.5018329143281 L 24.949554728916006,426.62942361806836 L 16.860111112513316,405.99249844397 L 37.49703628661164,414.0819420603727 Z" fill="none" stroke="#FFFFFF" stroke-width="1.7279275065417996" /><path d="M 139.10833674861416,393.76933188974385 L 147.9807460448739,414.0819420603727 L 168.61767121897222,405.99249844397 L 160.52822760256956,426.62942361806836 L 180.84083777319842,435.5018329143281 L 160.52822760256956,444.3742422105878 L 168.61767121897222,465.01116738468613 L 147.9807460448739,456.92172376828347 L 139.10833674861416,477.2343339389123 L 130.23592745235442,456.92172376828347 L 109.59900227825611,465.01116738468613 L 117.68844589465878,444.37424221058785 L 97.37583572402991,435.5018329143281 L 117.68844589465878,426.62942361806836 L 109.5990022782561,405.99249844397 L 130.23592745235442,414.0819420603727 Z" fill="none" stroke="#FFFFFF" stroke-width="1.7279275065417996" /><path d="M 231.84722791435695,393.76933188974385 L 240.7196372106167,414.0819420603727 L 261.356562384715,405.99249844397 L 253.26711876831234,426.62942361806836 L 273.5797289389412,435.5018329143281 L 253.26711876831234,444.3742422105878 L 261.356562384715,465.01116738468613 L 240.7196372106167,456.92172376828347 L 231.84722791435695,477.2343339389123 L 222.9748186180972,456.92172376828347 L 202.3378934439989,465.01116738468613 L 210.42733706040158,444.37424221058785 L 190.1147268897727,435.5018329143281 L 210.42733706040156,426.62942361806836 L 202.3378934439989,405.99249844397 L 222.9748186180972,414.0819420603727 Z" fill="none" stroke="#FFFFFF" stroke-width="1.7279275065417996" /><path d="M 324.5861190800997,393.76933188974385 L 333.4585283763594,414.0819420603727 L 354.09545355045776,405.99249844397 L 346.0060099340551,426.62942361806836 L 366.31862010468393,435.5018329143281 L 346.0060099340551,444.3742422105878 L 354.09545355045776,465.01116738468613 L 333.4585283763594,456.92172376828347 L 324.5861190800997,477.2343339389123 L 315.71370978384,456.92172376828347 L 295.07678460974165,465.01116738468613 L 303.1662282261443,444.37424221058785 L 282.8536180555155,435.5018329143281 L 303.1662282261443,426.62942361806836 L 295.07678460974165,405.99249844397 L 315.71370978383993,414.0819420603727 Z" fill="none" stroke="#FFFFFF" stroke-width="1.7279275065417996" /><path d="M 417.32501024584246,393.76933188974385 L 426.1974195421022,414.0819420603727 L 446.8343447162005,405.99249844397 L 438.74490109979786,426.62942361806836 L 459.0575112704267,435.5018329143281 L 438.74490109979786,444.3742422105878 L 446.8343447162005,465.01116738468613 L 426.1974195421022,456.92172376828347 L 417.32501024584246,477.2343339389123 L 408.45260094958275,456.92172376828347 L 387.8156757754844,465.01116738468613 L 395.90511939188707,444.37424221058785 L 375.59250922125824,435.5018329143281 L 395.90511939188707,426.62942361806836 L 387.8156757754844,405.99249844397 L 408.4526009495827,414.0819420603727 Z" fill="none" stroke="#FFFFFF" stroke-width="1.7279275065417996" /><path d="M 510.0639014115853,393.76933188974385 L 518.936310707845,414.0819420603727 L 539.5732358819433,405.99249844397 L 531.4837922655406,426.62942361806836 L 551.7964024361695,435.5018329143281 L 531.4837922655406,444.3742422105878 L 539.5732358819433,465.01116738468613 L 518.936310707845,456.92172376828347 L 510.0639014115853,477.2343339389123 L 501.19149211532556,456.92172376828347 L 480.5545669412272,465.01116738468613 L 488.6440105576299,444.37424221058785 L 468.33140038700105,435.5018329143281 L 488.6440105576299,426.62942361806836 L 480.5545669412272,405.99249844397 L 501.1914921153255,414.0819420603727 Z" fill="none" stroke="#FFFFFF" stroke-width="1.7279275065417996" /><path d="M 602.802792577328,393.76933188974385 L 611.6752018735878,414.0819420603727 L 632.3121270476861,405.99249844397 L 624.2226834312834,426.62942361806836 L 644.5352936019123,435.5018329143281 L 624.2226834312834,444.3742422105878 L 632.3121270476861,465.01116738468613 L 611.6752018735878,456.92172376828347 L 602.802792577328,477.2343339389123 L 593.9303832810682,456.92172376828347 L 573.2934581069699,465.01116738468613 L 581.3829017233726,444.37424221058785 L 561.0702915527437,435.5018329143281 L 581.3829017233726,426.62942361806836 L 573.2934581069699,405.99249844397 L 593.9303832810682,414.0819420603727 Z" fill="none" stroke="#FFFFFF" stroke-width="1.7279275065417996" /><path d="M 2.5553786900085366e-15,474.081211639277 L 8.872409296259738,494.39382180990583 L 29.509334470358063,486.30437819350317 L 21.419890853955383,506.9413033676015 L 41.732501024584245,515.8137126638612 L 21.419890853955383,524.686121960121 L 29.509334470358063,545.3230471342193 L 8.872409296259738,537.2336035178166 L 2.5553786900085366e-15,557.5462136884455 L -8.872409296259736,537.2336035178166 L -29.50933447035806,545.3230471342193 L -21.419890853955376,524.686121960121 L -41.732501024584245,515.8137126638612 L -21.41989085395538,506.9413033676015 L -29.50933447035807,486.30437819350317 L -8.872409296259749,494.39382180990583 Z" fill="none" stroke="#FFFFFF" stroke-width="1.7279275065417996" /><path d="M 92.73889116574277,474.081211639277 L 101.6113004620025,494.39382180990583 L 122.24822563610084,486.30437819350317 L 114.15878201969815,506.9413033676015 L 134.471392190327,515.8137126638612 L 114.15878201969815,524.686121960121 L 122.24822563610084,545.3230471342193 L 101.6113004620025,537.2336035178166 L 92.73889116574277,557.5462136884455 L 83.86648186948304,537.2336035178166 L 63.229556695384716,545.3230471342193 L 71.31900031178739,524.686121960121 L 51.006390141158526,515.8137126638612 L 71.31900031178739,506.9413033676015 L 63.2295566953847,486.30437819350317 L 83.86648186948302,494.39382180990583 Z" fill="none" stroke="#FFFFFF" stroke-width="1.7279275065417996" /><path d="M 185.47778233148554,474.081211639277 L 194.3501916277453,494.39382180990583 L 214.9871168018436,486.30437819350317 L 206.89767318544094,506.9413033676015 L 227.2102833560698,515.8137126638612 L 206.89767318544094,524.686121960121 L 214.9871168018436,545.3230471342193 L 194.3501916277453,537.2336035178166 L 185.47778233148554,557.5462136884455 L 176.6053730352258,537.2336035178166 L 155.9684478611275,545.3230471342193 L 164.05789147753018,524.686121960121 L 143.7452813069013,515.8137126638612 L 164.05789147753018,506.9413033676015 L 155.96844786112746,486.30437819350317 L 176.6053730352258,494.39382180990583 Z" fill="none" stroke="#FFFFFF" stroke-width="1.7279275065417996" /><path d="M 278.2166734972283,474.081211639277 L 287.08908279348805,494.39382180990583 L 307.7260079675864,486.30437819350317 L 299.6365643511837,506.9413033676015 L 319.94917452181255,515.8137126638612 L 299.6365643511837,524.686121960121 L 307.7260079675864,545.3230471342193 L 287.08908279348805,537.2336035178166 L 278.2166734972283,557.5462136884455 L 269.3442642009686,537.2336035178166 L 248.70733902687027,545.3230471342193 L 256.79678264327293,524.686121960121 L 236.48417247264408,515.8137126638612 L 256.79678264327293,506.9413033676015 L 248.70733902687027,486.30437819350317 L 269.34426420096855,494.39382180990583 Z" fill="none" stroke="#FFFFFF" stroke-width="1.7279275065417996" /><path d="M 370.9555646629711,474.081211639277 L 379.8279739592308,494.39382180990583 L 400.46489913332914,486.30437819350317 L 392.3754555169265,506.9413033676015 L 412.6880656875553,515.8137126638612 L 392.3754555169265,524.686121960121 L 400.46489913332914,545.3230471342193 L 379.8279739592308,537.2336035178166 L 370.9555646629711,557.5462136884455 L 362.08315536671137,537.2336035178166 L 341.44623019261303,545.3230471342193 L 349.5356738090157,524.686121960121 L 329.22306363838686,515.8137126638612 L 349.5356738090157,506.9413033676015 L 341.44623019261303,486.30437819350317 L 362.0831553667113,494.39382180990583 Z" fill="none" stroke="#FFFFFF" stroke-width="1.7279275065417996" /><path d="M 463.69445582871384,474.081211639277 L 472.56686512497356,494.39382180990583 L 493.2037902990719,486.30437819350317 L 485.11434668266924,506.9413033676015 L 505.42695685329807,515.8137126638612 L 485.11434668266924,524.686121960121 L 493.2037902990719,545.3230471342193 L 472.56686512497356,537.2336035178166 L 463.69445582871384,557.5462136884455 L 454.8220465324541,537.2336035178166 L 434.1851213583558,545.3230471342193 L 442.27456497475845,524.686121960121 L 421.9619548041296,515.8137126638612 L 442.27456497475845,506.9413033676015 L 434.1851213583558,486.30437819350317 L 454.82204653245407,494.39382180990583 Z" fill="none" stroke="#FFFFFF" stroke-width="1.7279275065417996" /><path d="M 556.4333469944567,474.081211639277 L 565.3057562907164,494.39382180990583 L 585.9426814648148,486.30437819350317 L 577.853237848412,506.9413033676015 L 598.1658480190409,515.8137126638612 L 577.853237848412,524.686121960121 L 585.9426814648148,545.3230471342193 L 565.3057562907164,537.2336035178166 L 556.4333469944567,557.5462136884455 L 547.5609376981969,537.2336035178166 L 526.9240125240985,545.3230471342193 L 535.0134561405013,524.686121960121 L 514.7008459698724,515.8137126638612 L 535.0134561405013,506.9413033676015 L 526.9240125240985,486.30437819350317 L 547.5609376981969,494.39382180990583 Z" fill="none" stroke="#FFFFFF" stroke-width="1.7279275065417996" /><line x1="41.732501024584245" y1="33.94243416666185" x2="51.006390141158526" y2="33.94243416666185" stroke="#FFFFFF" stroke-width="0.5"/><line x1="134.471392190327" y1="33.94243416666185" x2="143.7452813069013" y2="33.94243416666185" stroke="#FFFFFF" stroke-width="0.5"/><line x1="227.2102833560698" y1="33.94243416666185" x2="236.48417247264408" y2="33.94243416666185" stroke="#FFFFFF" stroke-width="0.5"/><line x1="319.94917452181255" y1="33.94243416666185" x2="329.22306363838686" y2="33.94243416666185" stroke="#FFFFFF" stroke-width="0.5"/><line x1="412.6880656875553" y1="33.94243416666185" x2="421.9619548041296" y2="33.94243416666185" stroke="#FFFFFF" stroke-width="0.5"/><line x1="88.10194660745563" y1="114.25431391619509" x2="97.37583572402991" y2="114.25431391619509" stroke="#FFFFFF" stroke-width="0.5"/><line x1="180.84083777319842" y1="114.25431391619509" x2="190.1147268897727" y2="114.25431391619509" stroke="#FFFFFF" stroke-width="0.5"/><line x1="273.5797289389412" y1="114.25431391619509" x2="282.8536180555155" y2="114.25431391619509" stroke="#FFFFFF" stroke-width="0.5"/><line x1="366.31862010468393" y1="114.25431391619509" x2="375.59250922125824" y2="114.25431391619509" stroke="#FFFFFF" stroke-width="0.5"/><line x1="459.0575112704267" y1="114.25431391619509" x2="468.33140038700105" y2="114.25431391619509" stroke="#FFFFFF" stroke-width="0.5"/><line x1="41.732501024584245" y1="194.56619366572835" x2="51.006390141158526" y2="194.56619366572835" stroke="#FFFFFF" stroke-width="0.5"/><line x1="134.471392190327" y1="194.56619366572835" x2="143.7452813069013" y2="194.56619366572835" stroke="#FFFFFF" stroke-width="0.5"/><line x1="227.2102833560698" y1="194.56619366572835" x2="236.48417247264408" y2="194.56619366572835" stroke="#FFFFFF" stroke-width="0.5"/><line x1="319.94917452181255" y1="194.56619366572835" x2="329.22306363838686" y2="194.56619366572835" stroke="#FFFFFF" stroke-width="0.5"/><line x1="412.6880656875553" y1="194.56619366572835" x2="421.9619548041296" y2="194.56619366572835" stroke="#FFFFFF" stroke-width="0.5"/><line x1="88.10194660745563" y1="274.87807341526155" x2="97.37583572402991" y2="274.87807341526155" stroke="#FFFFFF" stroke-width="0.5"/><line x1="180.84083777319842" y1="274.87807341526155" x2="190.1147268897727" y2="274.87807341526155" stroke="#FFFFFF" stroke-width="0.5"/><line x1="273.5797289389412" y1="274.87807341526155" x2="282.8536180555155" y2="274.87807341526155" stroke="#FFFFFF" stroke-width="0.5"/><line x1="366.31862010468393" y1="274.87807341526155" x2="375.59250922125824" y2="274.87807341526155" stroke="#FFFFFF" stroke-width="0.5"/><line x1="459.0575112704267" y1="274.87807341526155" x2="468.33140038700105" y2="274.87807341526155" stroke="#FFFFFF" stroke-width="0.5"/><line x1="41.732501024584245" y1="355.1899531647948" x2="51.006390141158526" y2="355.1899531647948" stroke="#FFFFFF" stroke-width="0.5"/><line x1="134.471392190327" y1="355.1899531647948" x2="143.7452813069013" y2="355.1899531647948" stroke="#FFFFFF" stroke-width="0.5"/><line x1="227.2102833560698" y1="355.1899531647948" x2="236.48417247264408" y2="355.1899531647948" stroke="#FFFFFF" stroke-width="0.5"/><line x1="319.94917452181255" y1="355.1899531647948" x2="329.22306363838686" y2="355.1899531647948" stroke="#FFFFFF" stroke-width="0.5"/><line x1="412.6880656875553" y1="355.1899531647948" x2="421.9619548041296" y2="355.1899531647948" stroke="#FFFFFF" stroke-width="0.5"/><line x1="88.10194660745563" y1="435.5018329143281" x2="97.37583572402991" y2="435.5018329143281" stroke="#FFFFFF" stroke-width="0.5"/><line x1="180.84083777319842" y1="435.5018329143281" x2="190.1147268897727" y2="435.5018329143281" stroke="#FFFFFF" stroke-width="0.5"/><line x1="273.5797289389412" y1="435.5018329143281" x2="282.8536180555155" y2="435.5018329143281" stroke="#FFFFFF" stroke-width="0.5"/><line x1="366.31862010468393" y1="435.5018329143281" x2="375.59250922125824" y2="435.5018329143281" stroke="#FFFFFF" stroke-width="0.5"/><line x1="459.0575112704267" y1="435.5018329143281" x2="468.33140038700105" y2="435.5018329143281" stroke="#FFFFFF" stroke-width="0.5"/></g></svg>