<svg xmlns="http://www.w3.org/2000/svg" width="512" height="512" viewBox="0 0 512 512"><rect x="0" y="0" width="512" height="512" fill="#000000"/><g opacity="0.1442970186911044"><path d="M -62.84495381254467,-119.40541224383486 L -50.8200924966396,-91.87553708705825 L -22.85067010875953,-102.8392375163298 L -33.814370538031085,-74.86981512844973 L -6.284495381254466,-62.84495381254467 L -33.814370538031085,-50.8200924966396 L -22.85067010875953,-22.85067010875953 L -50.8200924966396,-33.814370538031085 L -62.84495381254467,-6.284495381254466 L -74.86981512844973,-33.814370538031085 L -102.8392375163298,-22.85067010875953 L -91.87553708705825,-50.82009249663959 L -119.40541224383486,-62.84495381254466 L -91.87553708705825,-74.86981512844974 L -102.8392375163298,-102.8392375163298 L -74.86981512844974,-91.87553708705825 Z" fill="none" stroke="#00A86B" stroke-width="1.1032195690102966" /><path d="M 62.84495381254467,-119.40541224383486 L 74.86981512844973,-91.87553708705825 L 102.8392375163298,-102.8392375163298 L 91.87553708705825,-74.86981512844973 L 119.40541224383486,-62.84495381254467 L 91.87553708705825,-50.8200924966396 L 102.8392375163298,-22.85067010875953 L 74.86981512844973,-33.814370538031085 L 62.84495381254467,-6.284495381254466 L 50.8200924966396,-33.814370538031085 L 22.85067010875953,-22.85067010875953 L 33.814370538031085,-50.82009249663959 L 6.284495381254466,-62.84495381254466 L 33.814370538031085,-74.86981512844974 L 22.850670108759523,-102.8392375163298 L 50.82009249663959,-91.87553708705825 Z" fill="none" stroke="#00A86B" stroke-width="1.1032195690102966" /><path d="M 188.534861437634,-119.40541224383486 L 200.55972275353906,-91.87553708705825 L 228.52914514141912,-102.8392375163298 L 217.56544471214758,-74.86981512844973 L 245.0953198689242,-62.84495381254467 L 217.56544471214758,-50.8200924966396 L 228.52914514141912,-22.85067010875953 L 200.55972275353906,-33.814370538031085 L 188.534861437634,-6.284495381254466 L 176.51000012172892,-33.814370538031085 L 148.54057773384886,-22.85067010875953 L 159.5042781631204,-50.82009249663959 L 131.97440300634378,-62.84495381254466 L 159.5042781631204,-74.86981512844974 L 148.54057773384886,-102.8392375163298 L 176.51000012172892,-91.87553708705825 Z" fill="none" stroke="#00A86B" stroke-width="1.1032195690102966" /><path d="M 314.22476906272334,-119.40541224383486 L 326.2496303786284,-91.87553708705825 L 354.21905276650847,-102.8392375163298 L 343.2553523372369,-74.86981512844973 L 370.78522749401355,-62.84495381254467 L 343.2553523372369,-50.8200924966396 L 354.21905276650847,-22.85067010875953 L 326.2496303786284,-33.814370538031085 L 314.22476906272334,-6.284495381254466 L 302.19990774681827,-33.814370538031085 L 274.2304853589382,-22.85067010875953 L 285.1941857882098,-50.82009249663959 L 257.6643106314331,-62.84495381254466 L 285.1941857882098,-74.86981512844974 L 274.2304853589382,-102.8392375163298 L 302.19990774681827,-91.87553708705825 Z" fill="none" stroke="#00A86B" stroke-width="1.1032195690102966" /><path d="M 439.9146766878127,-119.40541224383486 L 451.93953800371776,-91.87553708705825 L 479.9089603915978,-102.8392375163298 L 468.94525996232625,-74.86981512844973 L 496.4751351191029,-62.84495381254467 L 468.94525996232625,-50.8200924966396 L 479.9089603915978,-22.85067010875953 L 451.93953800371776,-33.814370538031085 L 439.9146766878127,-6.284495381254466 L 427.8898153719076,-33.814370538031085 L 399.92039298402756,-22.85067010875953 L 410.8840934132991,-50.82009249663959 L 383.3542182565225,-62.84495381254466 L 410.8840934132991,-74.86981512844974 L 399.92039298402756,-102.8392375163298 L 427.8898153719076,-91.87553708705825 Z" fill="none" stroke="#00A86B" stroke-width="1.1032195690102966" /><path d="M 565.604584312902,-119.40541224383486 L 577.629445628807,-91.87553708705825 L 605.5988680166872,-102.8392375163298 L 594.6351675874156,-74.86981512844973 L 622.1650427441922,-62.84495381254467 L 594.6351675874156,-50.8200924966396 L 605.5988680166872,-22.85067010875953 L 577.629445628807,-33.814370538031085 L 565.604584312902,-6.284495381254466 L 553.579722996997,-33.814370538031085 L 525.6103006091168,-22.85067010875953 L 536.5740010383885,-50.82009249663959 L 509.0441258816118,-62.84495381254466 L 536.5740010383885,-74.86981512844974 L 525.6103006091168,-102.8392375163298 L 553.5797229969969,-91.87553708705825 Z" fill="none" stroke="#00A86B" stroke-width="1.1032195690102966" /><path d="M 3.4633292188093237e-15,-10.557952240507511 L 12.024861315905065,16.971922916269104 L 39.994283703785136,6.008222486997553 L 29.030583274513585,33.977644874877626 L 56.5604584312902,46.00250619078269 L 29.030583274513585,58.02736750668775 L 39.994283703785136,85.99678989456783 L 12.024861315905065,75.03308946529627 L 3.4633292188093237e-15,102.56296462207288 L -12.024861315905062,75.03308946529627 L -39.994283703785136,85.99678989456783 L -29.030583274513578,58.02736750668777 L -56.5604584312902,46.0025061907827 L -29.03058327451358,33.97764487487762 L -39.99428370378514,6.008222486997553 L -12.024861315905081,16.97192291626911 Z" fill="none" stroke="#00A86B" stroke-width="1.1032195690102966" /><path d="M 125.68990762508933,-10.557952240507511 L 137.7147689409944,16.971922916269104 L 165.68419132887448,6.008222486997553 L 154.7204908996029,33.977644874877626 L 182.25036605637953,46.00250619078269 L 154.7204908996029,58.02736750668775 L 165.68419132887448,85.99678989456783 L 137.7147689409944,75.03308946529627 L 125.68990762508933,102.56296462207288 L 113.66504630918428,75.03308946529627 L 85.69562392130419,85.99678989456783 L 96.65932435057576,58.02736750668777 L 69.12944919379913,46.0025061907827 L 96.65932435057576,33.97764487487762 L 85.69562392130419,6.008222486997553 L 113.66504630918425,16.97192291626911 Z" fill="none" stroke="#00A86B" stroke-width="1.1032195690102966" /><path d="M 251.37981525017867,-10.557952240507511 L 263.4046765660837,16.971922916269104 L 291.3740989539638,6.008222486997553 L 280.41039852469225,33.977644874877626 L 307.94027368146885,46.00250619078269 L 280.41039852469225,58.02736750668775 L 291.3740989539638,85.99678989456783 L 263.4046765660837,75.03308946529627 L 251.37981525017867,102.56296462207288 L 239.3549539342736,75.03308946529627 L 211.38553154639354,85.99678989456783 L 222.34923197566508,58.02736750668777 L 194.81935681888848,46.0025061907827 L 222.34923197566508,33.97764487487762 L 211.3855315463935,6.008222486997553 L 239.3549539342736,16.97192291626911 Z" fill="none" stroke="#00A86B" stroke-width="1.1032195690102966" /><path d="M 377.069722875268,-10.557952240507511 L 389.09458419117306,16.971922916269104 L 417.0640065790531,6.008222486997553 L 406.10030614978155,33.977644874877626 L 433.6301813065582,46.00250619078269 L 406.10030614978155,58.02736750668775 L 417.0640065790531,85.99678989456783 L 389.09458419117306,75.03308946529627 L 377.069722875268,102.56296462207288 L 365.0448615593629,75.03308946529627 L 337.07543917148286,85.99678989456783 L 348.0391396007544,58.02736750668777 L 320.50926444397777,46.0025061907827 L 348.0391396007544,33.97764487487762 L 337.07543917148286,6.008222486997553 L 365.0448615593629,16.97192291626911 Z" fill="none" stroke="#00A86B" stroke-width="1.1032195690102966" /><path d="M 502.75963050035733,-10.557952240507511 L 514.7844918162624,16.971922916269104 L 542.7539142041425,6.008222486997553 L 531.790213774871,33.977644874877626 L 559.3200889316475,46.00250619078269 L 531.790213774871,58.02736750668775 L 542.7539142041425,85.99678989456783 L 514.7844918162624,75.03308946529627 L 502.75963050035733,102.56296462207288 L 490.73476918445226,75.03308946529627 L 462.7653467965722,85.99678989456783 L 473.7290472258438,58.02736750668777 L 446.1991720690671,46.0025061907827 L 473.7290472258438,33.97764487487762 L 462.7653467965722,6.008222486997553 L 490.73476918445226,16.97192291626911 Z" fill="none" stroke="#00A86B" stroke-width="1.1032195690102966" /><path d="M 628.4495381254467,-10.557952240507511 L 640.4743994413517,16.971922916269104 L 668.4438218292319,6.008222486997553 L 657.4801213999602,33.977644874877626 L 685.0099965567368,46.00250619078269 L 657.4801213999602,58.02736750668775 L 668.4438218292319,85.99678989456783 L 640.4743994413517,75.03308946529627 L 628.4495381254467,102.56296462207288 L 616.4246768095417,75.03308946529627 L 588.4552544216615,85.99678989456783 L 599.4189548509331,58.02736750668777 L 571.8890796941565,46.0025061907827 L 599.4189548509331,33.97764487487762 L 588.4552544216615,6.008222486997553 L 616.4246768095416,16.97192291626911 Z" fill="none" stroke="#00A86B" stroke-width="1.1032195690102966" /><path d="M -62.84495381254467,98.28950776281984 L -50.8200924966396,125.81938291959645 L -22.85067010875953,114.85568249032491 L -33.814370538031085,142.82510487820497 L -6.284495381254466,154.84996619411004 L -33.814370538031085,166.8748275100151 L -22.85067010875953,194.84424989789517 L -50.8200924966396,183.88054946862363 L -62.84495381254467,211.41042462540025 L -74.86981512844973,183.88054946862363 L -102.8392375163298,194.84424989789517 L -91.87553708705825,166.8748275100151 L -119.40541224383486,154.84996619411004 L -91.87553708705825,142.82510487820497 L -102.8392375163298,114.85568249032491 L -74.86981512844974,125.81938291959646 Z" fill="none" stroke="#00A86B" stroke-width="1.1032195690102966" /><path d="M 62.84495381254467,98.28950776281984 L 74.86981512844973,125.81938291959645 L 102.8392375163298,114.85568249032491 L 91.87553708705825,142.82510487820497 L 119.40541224383486,154.84996619411004 L 91.87553708705825,166.8748275100151 L 102.8392375163298,194.84424989789517 L 74.86981512844973,183.88054946862363 L 62.84495381254467,211.41042462540025 L 50.8200924966396,183.88054946862363 L 22.85067010875953,194.84424989789517 L 33.814370538031085,166.8748275100151 L 6.284495381254466,154.84996619411004 L 33.814370538031085,142.82510487820497 L 22.850670108759523,114.85568249032491 L 50.82009249663959,125.81938291959646 Z" fill="none" stroke="#00A86B" stroke-width="1.1032195690102966" /><path d="M 188.534861437634,98.28950776281984 L 200.55972275353906,125.81938291959645 L 228.52914514141912,114.85568249032491 L 217.56544471214758,142.82510487820497 L 245.0953198689242,154.84996619411004 L 217.56544471214758,166.8748275100151 L 228.52914514141912,194.84424989789517 L 200.55972275353906,183.88054946862363 L 188.534861437634,211.41042462540025 L 176.51000012172892,183.88054946862363 L 148.54057773384886,194.84424989789517 L 159.5042781631204,166.8748275100151 L 131.97440300634378,154.84996619411004 L 159.5042781631204,142.82510487820497 L 148.54057773384886,114.85568249032491 L 176.51000012172892,125.81938291959646 Z" fill="none" stroke="#00A86B" stroke-width="1.1032195690102966" /><path d="M 314.22476906272334,98.28950776281984 L 326.2496303786284,125.81938291959645 L 354.21905276650847,114.85568249032491 L 343.2553523372369,142.82510487820497 L 370.78522749401355,154.84996619411004 L 343.2553523372369,166.8748275100151 L 354.21905276650847,194.84424989789517 L 326.2496303786284,183.88054946862363 L 314.22476906272334,211.41042462540025 L 302.19990774681827,183.88054946862363 L 274.2304853589382,194.84424989789517 L 285.1941857882098,166.8748275100151 L 257.6643106314331,154.84996619411004 L 285.1941857882098,142.82510487820497 L 274.2304853589382,114.85568249032491 L 302.19990774681827,125.81938291959646 Z" fill="none" stroke="#00A86B" stroke-width="1.1032195690102966" /><path d="M 439.9146766878127,98.28950776281984 L 451.93953800371776,125.81938291959645 L 479.9089603915978,114.85568249032491 L 468.94525996232625,142.82510487820497 L 496.4751351191029,154.84996619411004 L 468.94525996232625,166.8748275100151 L 479.9089603915978,194.84424989789517 L 451.93953800371776,183.88054946862363 L 439.9146766878127,211.41042462540025 L 427.8898153719076,183.88054946862363 L 399.92039298402756,194.84424989789517 L 410.8840934132991,166.8748275100151 L 383.3542182565225,154.84996619411004 L 410.8840934132991,142.82510487820497 L 399.92039298402756,114.85568249032491 L 427.8898153719076,125.81938291959646 Z" fill="none" stroke="#00A86B" stroke-width="1.1032195690102966" /><path d="M 565.604584312902,98.28950776281984 L 577.629445628807,125.81938291959645 L 605.5988680166872,114.85568249032491 L 594.6351675874156,142.82510487820497 L 622.1650427441922,154.84996619411004 L 594.6351675874156,166.8748275100151 L 605.5988680166872,194.84424989789517 L 577.629445628807,183.88054946862363 L 565.604584312902,211.41042462540025 L 553.579722996997,183.88054946862363 L 525.6103006091168,194.84424989789517 L 536.5740010383885,166.8748275100151 L 509.0441258816118,154.84996619411004 L 536.5740010383885,142.82510487820497 L 525.6103006091168,114.85568249032491 L 553.5797229969969,125.81938291959646 Z" fill="none" stroke="#00A86B" stroke-width="1.1032195690102966" /><path d="M 3.4633292188093237e-15,207.13696776614722 L 12.024861315905065,234.66684292292385 L 39.994283703785136,223.7031424936523 L 29.030583274513585,251.67256488153237 L 56.5604584312902,263.69742619743744 L 29.030583274513585,275.7222875133425 L 39.994283703785136,303.69170990122257 L 12.024861315905065,292.728009471951 L 3.4633292188093237e-15,320.25788462872765 L -12.024861315905062,292.728009471951 L -39.994283703785136,303.69170990122257 L -29.030583274513578,275.7222875133425 L -56.5604584312902,263.69742619743744 L -29.03058327451358,251.67256488153237 L -39.99428370378514,223.7031424936523 L -12.024861315905081,234.66684292292385 Z" fill="none" stroke="#00A86B" stroke-width="1.1032195690102966" /><path d="M 125.68990762508933,207.13696776614722 L 137.7147689409944,234.66684292292385 L 165.68419132887448,223.7031424936523 L 154.7204908996029,251.67256488153237 L 182.25036605637953,263.69742619743744 L 154.7204908996029,275.7222875133425 L 165.68419132887448,303.69170990122257 L 137.7147689409944,292.728009471951 L 125.68990762508933,320.25788462872765 L 113.66504630918428,292.728009471951 L 85.69562392130419,303.69170990122257 L 96.65932435057576,275.7222875133425 L 69.12944919379913,263.69742619743744 L 96.65932435057576,251.67256488153237 L 85.69562392130419,223.7031424936523 L 113.66504630918425,234.66684292292385 Z" fill="none" stroke="#00A86B" stroke-width="1.1032195690102966" /><path d="M 251.37981525017867,207.13696776614722 L 263.4046765660837,234.66684292292385 L 291.3740989539638,223.7031424936523 L 280.41039852469225,251.67256488153237 L 307.94027368146885,263.69742619743744 L 280.41039852469225,275.7222875133425 L 291.3740989539638,303.69170990122257 L 263.4046765660837,292.728009471951 L 251.37981525017867,320.25788462872765 L 239.3549539342736,292.728009471951 L 211.38553154639354,303.69170990122257 L 222.34923197566508,275.7222875133425 L 194.81935681888848,263.69742619743744 L 222.34923197566508,251.67256488153237 L 211.3855315463935,223.7031424936523 L 239.3549539342736,234.66684292292385 Z" fill="none" stroke="#00A86B" stroke-width="1.1032195690102966" /><path d="M 377.069722875268,207.13696776614722 L 389.09458419117306,234.66684292292385 L 417.0640065790531,223.7031424936523 L 406.10030614978155,251.67256488153237 L 433.6301813065582,263.69742619743744 L 406.10030614978155,275.7222875133425 L 417.0640065790531,303.69170990122257 L 389.09458419117306,292.728009471951 L 377.069722875268,320.25788462872765 L 365.0448615593629,292.728009471951 L 337.07543917148286,303.69170990122257 L 348.0391396007544,275.7222875133425 L 320.50926444397777,263.69742619743744 L 348.0391396007544,251.67256488153237 L 337.07543917148286,223.7031424936523 L 365.0448615593629,234.66684292292385 Z" fill="none" stroke="#00A86B" stroke-width="1.1032195690102966" /><path d="M 502.75963050035733,207.13696776614722 L 514.7844918162624,234.66684292292385 L 542.7539142041425,223.7031424936523 L 531.790213774871,251.67256488153237 L 559.3200889316475,263.69742619743744 L 531.790213774871,275.7222875133425 L 542.7539142041425,303.69170990122257 L 514.7844918162624,292.728009471951 L 502.75963050035733,320.25788462872765 L 490.73476918445226,292.728009471951 L 462.7653467965722,303.69170990122257 L 473.7290472258438,275.7222875133425 L 446.1991720690671,263.69742619743744 L 473.7290472258438,251.67256488153237 L 462.7653467965722,223.7031424936523 L 490.73476918445226,234.66684292292385 Z" fill="none" stroke="#00A86B" stroke-width="1.1032195690102966" /><path d="M 628.4495381254467,207.13696776614722 L 640.4743994413517,234.66684292292385 L 668.4438218292319,223.7031424936523 L 657.4801213999602,251.67256488153237 L 685.0099965567368,263.69742619743744 L 657.4801213999602,275.7222875133425 L 668.4438218292319,303.69170990122257 L 640.4743994413517,292.728009471951 L 628.4495381254467,320.25788462872765 L 616.4246768095417,292.728009471951 L 588.4552544216615,303.69170990122257 L 599.4189548509331,275.7222875133425 L 571.8890796941565,263.69742619743744 L 599.4189548509331,251.67256488153237 L 588.4552544216615,223.7031424936523 L 616.4246768095416,234.66684292292385 Z" fill="none" stroke="#00A86B" stroke-width="1.1032195690102966" /><path d="M -62.84495381254467,315.98442776947456 L -50.8200924966396,343.5143029262512 L -22.85067010875953,332.55060249697965 L -33.814370538031085,360.5200248848597 L -6.284495381254466,372.5448862007648 L -33.814370538031085,384.56974751666985 L -22.85067010875953,412.5391699045499 L -50.8200924966396,401.57546947527834 L -62.84495381254467,429.105344632055 L -74.86981512844973,401.57546947527834 L -102.8392375163298,412.5391699045499 L -91.87553708705825,384.56974751666985 L -119.40541224383486,372.5448862007648 L -91.87553708705825,360.5200248848597 L -102.8392375163298,332.55060249697965 L -74.86981512844974,343.5143029262512 Z" fill="none" stroke="#00A86B" stroke-width="1.1032195690102966" /><path d="M 62.84495381254467,315.98442776947456 L 74.86981512844973,343.5143029262512 L 102.8392375163298,332.55060249697965 L 91.87553708705825,360.5200248848597 L 119.40541224383486,372.5448862007648 L 91.87553708705825,384.56974751666985 L 102.8392375163298,412.5391699045499 L 74.86981512844973,401.57546947527834 L 62.84495381254467,429.105344632055 L 50.8200924966396,401.57546947527834 L 22.85067010875953,412.5391699045499 L 33.814370538031085,384.56974751666985 L 6.284495381254466,372.5448862007648 L 33.814370538031085,360.5200248848597 L 22.850670108759523,332.55060249697965 L 50.82009249663959,343.5143029262512 Z" fill="none" stroke="#00A86B" stroke-width="1.1032195690102966" /><path d="M 188.534861437634,315.98442776947456 L 200.55972275353906,343.5143029262512 L 228.52914514141912,332.55060249697965 L 217.56544471214758,360.5200248848597 L 245.0953198689242,372.5448862007648 L 217.56544471214758,384.56974751666985 L 228.52914514141912,412.5391699045499 L 200.55972275353906,401.57546947527834 L 188.534861437634,429.105344632055 L 176.51000012172892,401.57546947527834 L 148.54057773384886,412.5391699045499 L 159.5042781631204,384.56974751666985 L 131.97440300634378,372.5448862007648 L 159.5042781631204,360.5200248848597 L 148.54057773384886,332.55060249697965 L 176.51000012172892,343.5143029262512 Z" fill="none" stroke="#00A86B" stroke-width="1.1032195690102966" /><path d="M 314.22476906272334,315.98442776947456 L 326.2496303786284,343.5143029262512 L 354.21905276650847,332.55060249697965 L 343.2553523372369,360.5200248848597 L 370.78522749401355,372.5448862007648 L 343.2553523372369,384.56974751666985 L 354.21905276650847,412.5391699045499 L 326.2496303786284,401.57546947527834 L 314.22476906272334,429.105344632055 L 302.19990774681827,401.57546947527834 L 274.2304853589382,412.5391699045499 L 285.1941857882098,384.56974751666985 L 257.6643106314331,372.5448862007648 L 285.1941857882098,360.5200248848597 L 274.2304853589382,332.55060249697965 L 302.19990774681827,343.5143029262512 Z" fill="none" stroke="#00A86B" stroke-width="1.1032195690102966" /><path d="M 439.9146766878127,315.98442776947456 L 451.93953800371776,343.5143029262512 L 479.9089603915978,332.55060249697965 L 468.94525996232625,360.5200248848597 L 496.4751351191029,372.5448862007648 L 468.94525996232625,384.56974751666985 L 479.9089603915978,412.5391699045499 L 451.93953800371776,401.57546947527834 L 439.9146766878127,429.105344632055 L 427.8898153719076,401.57546947527834 L 399.92039298402756,412.5391699045499 L 410.8840934132991,384.56974751666985 L 383.3542182565225,372.5448862007648 L 410.8840934132991,360.5200248848597 L 399.92039298402756,332.55060249697965 L 427.8898153719076,343.5143029262512 Z" fill="none" stroke="#00A86B" stroke-width="1.1032195690102966" /><path d="M 565.604584312902,315.98442776947456 L 577.629445628807,343.5143029262512 L 605.5988680166872,332.55060249697965 L 594.6351675874156,360.5200248848597 L 622.1650427441922,372.5448862007648 L 594.6351675874156,384.56974751666985 L 605.5988680166872,412.5391699045499 L 577.629445628807,401.57546947527834 L 565.604584312902,429.105344632055 L 553.579722996997,401.57546947527834 L 525.6103006091168,412.5391699045499 L 536.5740010383885,384.56974751666985 L 509.0441258816118,372.5448862007648 L 536.5740010383885,360.5200248848597 L 525.6103006091168,332.55060249697965 L 553.5797229969969,343.5143029262512 Z" fill="none" stroke="#00A86B" stroke-width="1.1032195690102966" /><path d="M 3.4633292188093237e-15,424.83188777280196 L 12.024861315905065,452.3617629295786 L 39.994283703785136,441.39806250030705 L 29.030583274513585,469.3674848881871 L 56.5604584312902,481.3923462040922 L 29.030583274513585,493.41720751999725 L 39.994283703785136,521.3866299078774 L 12.024861315905065,510.42292947860574 L 3.4633292188093237e-15,537.9528046353823 L -12.024861315905062,510.42292947860574 L -39.994283703785136,521.3866299078774 L -29.030583274513578,493.41720751999725 L -56.5604584312902,481.3923462040922 L -29.03058327451358,469.3674848881871 L -39.99428370378514,441.39806250030705 L -12.024861315905081,452.3617629295786 Z" fill="none" stroke="#00A86B" stroke-width="1.1032195690102966" /><path d="M 125.68990762508933,424.83188777280196 L 137.7147689409944,452.3617629295786 L 165.68419132887448,441.39806250030705 L 154.7204908996029,469.3674848881871 L 182.25036605637953,481.3923462040922 L 154.7204908996029,493.41720751999725 L 165.68419132887448,521.3866299078774 L 137.7147689409944,510.42292947860574 L 125.68990762508933,537.9528046353823 L 113.66504630918428,510.42292947860574 L 85.69562392130419,521.3866299078774 L 96.65932435057576,493.41720751999725 L 69.12944919379913,481.3923462040922 L 96.65932435057576,469.3674848881871 L 85.69562392130419,441.39806250030705 L 113.66504630918425,452.3617629295786 Z" fill="none" stroke="#00A86B" stroke-width="1.1032195690102966" /><path d="M 251.37981525017867,424.83188777280196 L 263.4046765660837,452.3617629295786 L 291.3740989539638,441.39806250030705 L 280.41039852469225,469.3674848881871 L 307.94027368146885,481.3923462040922 L 280.41039852469225,493.41720751999725 L 291.3740989539638,521.3866299078774 L 263.4046765660837,510.42292947860574 L 251.37981525017867,537.9528046353823 L 239.3549539342736,510.42292947860574 L 211.38553154639354,521.3866299078774 L 222.34923197566508,493.41720751999725 L 194.81935681888848,481.3923462040922 L 222.34923197566508,469.3674848881871 L 211.3855315463935,441.39806250030705 L 239.3549539342736,452.3617629295786 Z" fill="none" stroke="#00A86B" stroke-width="1.1032195690102966" /><path d="M 377.069722875268,424.83188777280196 L 389.09458419117306,452.3617629295786 L 417.0640065790531,441.39806250030705 L 406.10030614978155,469.3674848881871 L 433.6301813065582,481.3923462040922 L 406.10030614978155,493.41720751999725 L 417.0640065790531,521.3866299078774 L 389.09458419117306,510.42292947860574 L 377.069722875268,537.9528046353823 L 365.0448615593629,510.42292947860574 L 337.07543917148286,521.3866299078774 L 348.0391396007544,493.41720751999725 L 320.50926444397777,481.3923462040922 L 348.0391396007544,469.3674848881871 L 337.07543917148286,441.39806250030705 L 365.0448615593629,452.3617629295786 Z" fill="none" stroke="#00A86B" stroke-width="1.1032195690102966" /><path d="M 502.75963050035733,424.83188777280196 L 514.7844918162624,452.3617629295786 L 542.7539142041425,441.39806250030705 L 531.790213774871,469.3674848881871 L 559.3200889316475,481.3923462040922 L 531.790213774871,493.41720751999725 L 542.7539142041425,521.3866299078774 L 514.7844918162624,510.42292947860574 L 502.75963050035733,537.9528046353823 L 490.73476918445226,510.42292947860574 L 462.7653467965722,521.3866299078774 L 473.7290472258438,493.41720751999725 L 446.1991720690671,481.3923462040922 L 473.7290472258438,469.3674848881871 L 462.7653467965722,441.39806250030705 L 490.73476918445226,452.3617629295786 Z" fill="none" stroke="#00A86B" stroke-width="1.1032195690102966" /><path d="M 628.4495381254467,424.83188777280196 L 640.4743994413517,452.3617629295786 L 668.4438218292319,441.39806250030705 L 657.4801213999602,469.3674848881871 L 685.0099965567368,481.3923462040922 L 657.4801213999602,493.41720751999725 L 668.4438218292319,521.3866299078774 L 640.4743994413517,510.42292947860574 L 628.4495381254467,537.9528046353823 L 616.4246768095417,510.42292947860574 L 588.4552544216615,521.3866299078774 L 599.4189548509331,493.41720751999725 L 571.8890796941565,481.3923462040922 L 599.4189548509331,469.3674848881871 L 588.4552544216615,441.39806250030705 L 616.4246768095416,452.3617629295786 Z" fill="none" stroke="#00A86B" stroke-width="1.1032195690102966" /><path d="M -62.84495381254467,533.6793477761294 L -50.8200924966396,561.209222932906 L -22.85067010875953,550.2455225036343 L -33.814370538031085,578.2149448915145 L -6.284495381254466,590.2398062074195 L -33.814370538031085,602.2646675233245 L -22.85067010875953,630.2340899112047 L -50.8200924966396,619.2703894819331 L -62.84495381254467,646.8002646387097 L -74.86981512844973,619.2703894819331 L -102.8392375163298,630.2340899112047 L -91.87553708705825,602.2646675233246 L -119.40541224383486,590.2398062074195 L -91.87553708705825,578.2149448915144 L -102.8392375163298,550.2455225036343 L -74.86981512844974,561.209222932906 Z" fill="none" stroke="#00A86B" stroke-width="1.1032195690102966" /><path d="M 62.84495381254467,533.6793477761294 L 74.86981512844973,561.209222932906 L 102.8392375163298,550.2455225036343 L 91.87553708705825,578.2149448915145 L 119.40541224383486,590.2398062074195 L 91.87553708705825,602.2646675233245 L 102.8392375163298,630.2340899112047 L 74.86981512844973,619.2703894819331 L 62.84495381254467,646.8002646387097 L 50.8200924966396,619.2703894819331 L 22.85067010875953,630.2340899112047 L 33.814370538031085,602.2646675233246 L 6.284495381254466,590.2398062074195 L 33.814370538031085,578.2149448915144 L 22.850670108759523,550.2455225036343 L 50.82009249663959,561.209222932906 Z" fill="none" stroke="#00A86B" stroke-width="1.1032195690102966" /><path d="M 188.534861437634,533.6793477761294 L 200.55972275353906,561.209222932906 L 228.52914514141912,550.2455225036343 L 217.56544471214758,578.2149448915145 L 245.0953198689242,590.2398062074195 L 217.56544471214758,602.2646675233245 L 228.52914514141912,630.2340899112047 L 200.55972275353906,619.2703894819331 L 188.534861437634,646.8002646387097 L 176.51000012172892,619.2703894819331 L 148.54057773384886,630.2340899112047 L 159.5042781631204,602.2646675233246 L 131.97440300634378,590.2398062074195 L 159.5042781631204,578.2149448915144 L 148.54057773384886,550.2455225036343 L 176.51000012172892,561.209222932906 Z" fill="none" stroke="#00A86B" stroke-width="1.1032195690102966" /><path d="M 314.22476906272334,533.6793477761294 L 326.2496303786284,561.209222932906 L 354.21905276650847,550.2455225036343 L 343.2553523372369,578.2149448915145 L 370.78522749401355,590.2398062074195 L 343.2553523372369,602.2646675233245 L 354.21905276650847,630.2340899112047 L 326.2496303786284,619.2703894819331 L 314.22476906272334,646.8002646387097 L 302.19990774681827,619.2703894819331 L 274.2304853589382,630.2340899112047 L 285.1941857882098,602.2646675233246 L 257.6643106314331,590.2398062074195 L 285.1941857882098,578.2149448915144 L 274.2304853589382,550.2455225036343 L 302.19990774681827,561.209222932906 Z" fill="none" stroke="#00A86B" stroke-width="1.1032195690102966" /><path d="M 439.9146766878127,533.6793477761294 L 451.93953800371776,561.209222932906 L 479.9089603915978,550.2455225036343 L 468.94525996232625,578.2149448915145 L 496.4751351191029,590.2398062074195 L 468.94525996232625,602.2646675233245 L 479.9089603915978,630.2340899112047 L 451.93953800371776,619.2703894819331 L 439.9146766878127,646.8002646387097 L 427.8898153719076,619.2703894819331 L 399.92039298402756,630.2340899112047 L 410.8840934132991,602.2646675233246 L 383.3542182565225,590.2398062074195 L 410.8840934132991,578.2149448915144 L 399.92039298402756,550.2455225036343 L 427.8898153719076,561.209222932906 Z" fill="none" stroke="#00A86B" stroke-width="1.1032195690102966" /><path d="M 565.604584312902,533.6793477761294 L 577.629445628807,561.209222932906 L 605.5988680166872,550.2455225036343 L 594.6351675874156,578.2149448915145 L 622.1650427441922,590.2398062074195 L 594.6351675874156,602.2646675233245 L 605.5988680166872,630.2340899112047 L 577.629445628807,619.2703894819331 L 565.604584312902,646.8002646387097 L 553.579722996997,619.2703894819331 L 525.6103006091168,630.2340899112047 L 536.5740010383885,602.2646675233246 L 509.0441258816118,590.2398062074195 L 536.5740010383885,578.2149448915144 L 525.6103006091168,550.2455225036343 L 553.5797229969969,561.209222932906 Z" fill="none" stroke="#00A86B" stroke-width="1.1032195690102966" /><line x1="56.5604584312902" y1="46.00250619078269" x2="69.12944919379913" y2="46.00250619078269" stroke="#00A86B" stroke-width="0.5"/><line x1="182.25036605637953" y1="46.00250619078269" x2="194.81935681888848" y2="46.00250619078269" stroke="#00A86B" stroke-width="0.5"/><line x1="307.94027368146885" y1="46.00250619078269" x2="320.50926444397777" y2="46.00250619078269" stroke="#00A86B" stroke-width="0.5"/><line x1="433.6301813065582" y1="46.00250619078269" x2="446.1991720690671" y2="46.00250619078269" stroke="#00A86B" stroke-width="0.5"/><line x1="119.40541224383486" y1="154.84996619411004" x2="131.97440300634378" y2="154.84996619411004" stroke="#00A86B" stroke-width="0.5"/><line x1="245.0953198689242" y1="154.84996619411004" x2="257.6643106314331" y2="154.84996619411004" stroke="#00A86B" stroke-width="0.5"/><line x1="370.78522749401355" y1="154.84996619411004" x2="383.3542182565225" y2="154.84996619411004" stroke="#00A86B" stroke-width="0.5"/><line x1="496.4751351191029" y1="154.84996619411004" x2="509.0441258816118" y2="154.84996619411004" stroke="#00A86B" stroke-width="0.5"/><line x1="56.5604584312902" y1="263.69742619743744" x2="69.12944919379913" y2="263.69742619743744" stroke="#00A86B" stroke-width="0.5"/><line x1="182.25036605637953" y1="263.69742619743744" x2="194.81935681888848" y2="263.69742619743744" stroke="#00A86B" stroke-width="0.5"/><line x1="307.94027368146885" y1="263.69742619743744" x2="320.50926444397777" y2="263.69742619743744" stroke="#00A86B" stroke-width="0.5"/><line x1="433.6301813065582" y1="263.69742619743744" x2="446.1991720690671" y2="263.69742619743744" stroke="#00A86B" stroke-width="0.5"/><line x1="119.40541224383486" y1="372.5448862007648" x2="131.97440300634378" y2="372.5448862007648" stroke="#00A86B" stroke-width="0.5"/><line x1="245.0953198689242" y1="372.5448862007648" x2="257.6643106314331" y2="372.5448862007648" stroke="#00A86B" stroke-width="0.5"/><line x1="370.78522749401355" y1="372.5448862007648" x2="383.3542182565225" y2="372.5448862007648" stroke="#00A86B" stroke-width="0.5"/><line x1="496.4751351191029" y1="372.5448862007648" x2="509.0441258816118" y2="372.5448862007648" stroke="#00A86B" stroke-width="0.5"/><line x1="56.5604584312902" y1="481.3923462040922" x2="69.12944919379913" y2="481.3923462040922" stroke="#00A86B" stroke-width="0.5"/><line x1="182.25036605637953" y1="481.3923462040922" x2="194.81935681888848" y2="481.3923462040922" stroke="#00A86B" stroke-width="0.5"/><line x1="307.94027368146885" y1="481.3923462040922" x2="320.50926444397777" y2="481.3923462040922" stroke="#00A86B" stroke-width="0.5"/><line x1="433.6301813065582" y1="481.3923462040922" x2="446.1991720690671" y2="481.3923462040922" stroke="#00A86B" stroke-width="0.5"/></g></svg>