<svg xmlns="http://www.w3.org/2000/svg" width="512" height="512" viewBox="0 0 512 512"><rect x="0" y="0" width="512" height="512" fill="#000000"/><g opacity="0.19748871035291288"><path d="M -54.77823468150422,-104.07864589485803 L -44.296873248095004,-80.08247960617506 L -19.91757959725644,-89.638889765752 L -29.473989756833387,-65.25959611491344 L -5.477823468150419,-54.77823468150422 L -29.473989756833387,-44.296873248095004 L -19.91757959725644,-19.91757959725644 L -44.296873248095004,-29.473989756833387 L -54.77823468150422,-5.477823468150419 L -65.25959611491344,-29.473989756833387 L -89.638889765752,-19.91757959725644 L -80.08247960617506,-44.29687324809499 L -104.07864589485803,-54.778234681504216 L -80.08247960617506,-65.25959611491345 L -89.63888976575201,-89.638889765752 L -65.25959611491345,-80.08247960617506 Z" fill="none" stroke="#00A86B" stroke-width="2.4325244435726314" /><path d="M 54.77823468150422,-104.07864589485803 L 65.25959611491345,-80.08247960617506 L 89.638889765752,-89.638889765752 L 80.08247960617506,-65.25959611491344 L 104.07864589485803,-54.77823468150422 L 80.08247960617506,-44.296873248095004 L 89.638889765752,-19.91757959725644 L 65.25959611491345,-29.473989756833387 L 54.77823468150422,-5.477823468150419 L 44.296873248095004,-29.473989756833387 L 19.91757959725644,-19.91757959725644 L 29.47398975683339,-44.29687324809499 L 5.477823468150419,-54.778234681504216 L 29.473989756833387,-65.25959611491345 L 19.917579597256434,-89.638889765752 L 44.29687324809499,-80.08247960617506 Z" fill="none" stroke="#00A86B" stroke-width="2.4325244435726314" /><path d="M 164.33470404451268,-104.07864589485803 L 174.81606547792188,-80.08247960617506 L 199.19535912876046,-89.638889765752 L 189.6389489691835,-65.25959611491344 L 213.6351152578665,-54.77823468150422 L 189.6389489691835,-44.296873248095004 L 199.19535912876046,-19.91757959725644 L 174.81606547792188,-29.473989756833387 L 164.33470404451268,-5.477823468150419 L 153.85334261110347,-29.473989756833387 L 129.4740489602649,-19.91757959725644 L 139.03045911984185,-44.29687324809499 L 115.03429283115887,-54.778234681504216 L 139.03045911984185,-65.25959611491345 L 129.4740489602649,-89.638889765752 L 153.85334261110344,-80.08247960617506 Z" fill="none" stroke="#00A86B" stroke-width="2.4325244435726314" /><path d="M 273.89117340752114,-104.07864589485803 L 284.37253484093037,-80.08247960617506 L 308.75182849176895,-89.638889765752 L 299.195418332192,-65.25959611491344 L 323.19158462087495,-54.77823468150422 L 299.195418332192,-44.296873248095004 L 308.75182849176895,-19.91757959725644 L 284.37253484093037,-29.473989756833387 L 273.89117340752114,-5.477823468150419 L 263.4098119741119,-29.473989756833387 L 239.03051832327336,-19.91757959725644 L 248.5869284828503,-44.29687324809499 L 224.59076219416733,-54.778234681504216 L 248.5869284828503,-65.25959611491345 L 239.03051832327336,-89.638889765752 L 263.4098119741119,-80.08247960617506 Z" fill="none" stroke="#00A86B" stroke-width="2.4325244435726314" /><path d="M 383.44764277052957,-104.07864589485803 L 393.9290042039388,-80.08247960617506 L 418.3082978547774,-89.638889765752 L 408.7518876952004,-65.25959611491344 L 432.7480539838834,-54.77823468150422 L 408.7518876952004,-44.296873248095004 L 418.3082978547774,-19.91757959725644 L 393.9290042039388,-29.473989756833387 L 383.44764277052957,-5.477823468150419 L 372.96628133712034,-29.473989756833387 L 348.58698768628176,-19.91757959725644 L 358.1433978458587,-44.29687324809499 L 334.14723155717576,-54.778234681504216 L 358.1433978458587,-65.25959611491345 L 348.58698768628176,-89.638889765752 L 372.96628133712034,-80.08247960617506 Z" fill="none" stroke="#00A86B" stroke-width="2.4325244435726314" /><path d="M 493.00411213353806,-104.07864589485803 L 503.4854735669473,-80.08247960617506 L 527.8647672177858,-89.638889765752 L 518.3083570582089,-65.25959611491344 L 542.3045233468919,-54.77823468150422 L 518.3083570582089,-44.296873248095004 L 527.8647672177858,-19.91757959725644 L 503.4854735669473,-29.473989756833387 L 493.00411213353806,-5.477823468150419 L 482.5227507001288,-29.473989756833387 L 458.1434570492903,-19.91757959725644 L 467.6998672088672,-44.29687324809499 L 443.70370092018425,-54.778234681504216 L 467.6998672088672,-65.25959611491345 L 458.14345704929025,-89.638889765752 L 482.5227507001288,-80.08247960617506 Z" fill="none" stroke="#00A86B" stroke-width="2.4325244435726314" /><path d="M 602.5605814965464,-104.07864589485803 L 613.0419429299557,-80.08247960617506 L 637.4212365807942,-89.638889765752 L 627.8648264212172,-65.25959611491344 L 651.8609927099002,-54.77823468150422 L 627.8648264212172,-44.296873248095004 L 637.4212365807942,-19.91757959725644 L 613.0419429299557,-29.473989756833387 L 602.5605814965464,-5.477823468150419 L 592.0792200631372,-29.473989756833387 L 567.6999264122986,-19.91757959725644 L 577.2563365718756,-44.29687324809499 L 553.2601702831927,-54.778234681504216 L 577.2563365718756,-65.25959611491345 L 567.6999264122986,-89.638889765752 L 592.0792200631372,-80.08247960617506 Z" fill="none" stroke="#00A86B" stroke-width="2.4325244435726314" /><path d="M 3.018779539454101e-15,-9.202743426492717 L 10.48136143340922,14.793422862190251 L 34.86065508424778,5.237012702613306 L 25.304244924670837,29.61630635345187 L 49.300411213353804,40.09766778686109 L 25.304244924670837,50.57902922027031 L 34.86065508424778,74.95832287110886 L 10.48136143340922,65.40191271153192 L 3.018779539454101e-15,89.39807900021489 L -10.481361433409218,65.40191271153192 L -34.86065508424778,74.95832287110886 L -25.304244924670833,50.57902922027032 L -49.300411213353804,40.097667786861095 L -25.304244924670837,29.61630635345186 L -34.86065508424779,5.237012702613306 L -10.481361433409234,14.793422862190255 Z" fill="none" stroke="#00A86B" stroke-width="2.4325244435726314" /><path d="M 109.55646936300845,-9.202743426492717 L 120.03783079641767,14.793422862190251 L 144.41712444725624,5.237012702613306 L 134.8607142876793,29.61630635345187 L 158.85688057636224,40.09766778686109 L 134.8607142876793,50.57902922027031 L 144.41712444725624,74.95832287110886 L 120.03783079641767,65.40191271153192 L 109.55646936300845,89.39807900021489 L 99.07510792959923,65.40191271153192 L 74.69581427876066,74.95832287110886 L 84.2522244383376,50.57902922027032 L 60.25605814965464,40.097667786861095 L 84.2522244383376,29.61630635345186 L 74.69581427876065,5.237012702613306 L 99.07510792959921,14.793422862190255 Z" fill="none" stroke="#00A86B" stroke-width="2.4325244435726314" /><path d="M 219.1129387260169,-9.202743426492717 L 229.5943001594261,14.793422862190251 L 253.97359381026467,5.237012702613306 L 244.41718365068772,29.61630635345187 L 268.4133499393707,40.09766778686109 L 244.41718365068772,50.57902922027031 L 253.97359381026467,74.95832287110886 L 229.5943001594261,65.40191271153192 L 219.1129387260169,89.39807900021489 L 208.6315772926077,65.40191271153192 L 184.2522836417691,74.95832287110886 L 193.80869380134607,50.57902922027032 L 169.81252751266308,40.097667786861095 L 193.80869380134607,29.61630635345186 L 184.2522836417691,5.237012702613306 L 208.63157729260766,14.793422862190255 Z" fill="none" stroke="#00A86B" stroke-width="2.4325244435726314" /><path d="M 328.66940808902535,-9.202743426492717 L 339.1507695224346,14.793422862190251 L 363.5300631732731,5.237012702613306 L 353.9736530136962,29.61630635345187 L 377.96981930237916,40.09766778686109 L 353.9736530136962,50.57902922027031 L 363.5300631732731,74.95832287110886 L 339.1507695224346,65.40191271153192 L 328.66940808902535,89.39807900021489 L 318.1880466556161,65.40191271153192 L 293.8087530047776,74.95832287110886 L 303.3651631643545,50.57902922027032 L 279.36899687567154,40.097667786861095 L 303.3651631643545,29.61630635345186 L 293.80875300477754,5.237012702613306 L 318.1880466556161,14.793422862190255 Z" fill="none" stroke="#00A86B" stroke-width="2.4325244435726314" /><path d="M 438.2258774520338,-9.202743426492717 L 448.707238885443,14.793422862190251 L 473.08653253628154,5.237012702613306 L 463.53012237670464,29.61630635345187 L 487.5262886653876,40.09766778686109 L 463.53012237670464,50.57902922027031 L 473.08653253628154,74.95832287110886 L 448.707238885443,65.40191271153192 L 438.2258774520338,89.39807900021489 L 427.74451601862455,65.40191271153192 L 403.36522236778603,74.95832287110886 L 412.92163252736293,50.57902922027032 L 388.92546623868,40.097667786861095 L 412.92163252736293,29.61630635345186 L 403.365222367786,5.237012702613306 L 427.74451601862455,14.793422862190255 Z" fill="none" stroke="#00A86B" stroke-width="2.4325244435726314" /><path d="M 547.7823468150423,-9.202743426492717 L 558.2637082484515,14.793422862190251 L 582.6430018992901,5.237012702613306 L 573.0865917397131,29.61630635345187 L 597.082758028396,40.09766778686109 L 573.0865917397131,50.57902922027031 L 582.6430018992901,74.95832287110886 L 558.2637082484515,65.40191271153192 L 547.7823468150423,89.39807900021489 L 537.300985381633,65.40191271153192 L 512.9216917307945,74.95832287110886 L 522.4781018903715,50.57902922027032 L 498.48193560168846,40.097667786861095 L 522.4781018903715,29.61630635345186 L 512.9216917307945,5.237012702613306 L 537.300985381633,14.793422862190255 Z" fill="none" stroke="#00A86B" stroke-width="2.4325244435726314" /><path d="M -54.77823468150422,85.6731590418726 L -44.296873248095004,109.66932533055557 L -19.91757959725644,100.11291517097862 L -29.473989756833387,124.49220882181719 L -5.477823468150419,134.9735702552264 L -29.473989756833387,145.4549316886356 L -19.91757959725644,169.8342253394742 L -44.296873248095004,160.27781517989723 L -54.77823468150422,184.27398146858022 L -65.25959611491344,160.27781517989723 L -89.638889765752,169.8342253394742 L -80.08247960617506,145.45493168863564 L -104.07864589485803,134.9735702552264 L -80.08247960617506,124.49220882181717 L -89.63888976575201,100.11291517097862 L -65.25959611491345,109.66932533055558 Z" fill="none" stroke="#00A86B" stroke-width="2.4325244435726314" /><path d="M 54.77823468150422,85.6731590418726 L 65.25959611491345,109.66932533055557 L 89.638889765752,100.11291517097862 L 80.08247960617506,124.49220882181719 L 104.07864589485803,134.9735702552264 L 80.08247960617506,145.4549316886356 L 89.638889765752,169.8342253394742 L 65.25959611491345,160.27781517989723 L 54.77823468150422,184.27398146858022 L 44.296873248095004,160.27781517989723 L 19.91757959725644,169.8342253394742 L 29.47398975683339,145.45493168863564 L 5.477823468150419,134.9735702552264 L 29.473989756833387,124.49220882181717 L 19.917579597256434,100.11291517097862 L 44.29687324809499,109.66932533055558 Z" fill="none" stroke="#00A86B" stroke-width="2.4325244435726314" /><path d="M 164.33470404451268,85.6731590418726 L 174.81606547792188,109.66932533055557 L 199.19535912876046,100.11291517097862 L 189.6389489691835,124.49220882181719 L 213.6351152578665,134.9735702552264 L 189.6389489691835,145.4549316886356 L 199.19535912876046,169.8342253394742 L 174.81606547792188,160.27781517989723 L 164.33470404451268,184.27398146858022 L 153.85334261110347,160.27781517989723 L 129.4740489602649,169.8342253394742 L 139.03045911984185,145.45493168863564 L 115.03429283115887,134.9735702552264 L 139.03045911984185,124.49220882181717 L 129.4740489602649,100.11291517097862 L 153.85334261110344,109.66932533055558 Z" fill="none" stroke="#00A86B" stroke-width="2.4325244435726314" /><path d="M 273.89117340752114,85.6731590418726 L 284.37253484093037,109.66932533055557 L 308.75182849176895,100.11291517097862 L 299.195418332192,124.49220882181719 L 323.19158462087495,134.9735702552264 L 299.195418332192,145.4549316886356 L 308.75182849176895,169.8342253394742 L 284.37253484093037,160.27781517989723 L 273.89117340752114,184.27398146858022 L 263.4098119741119,160.27781517989723 L 239.03051832327336,169.8342253394742 L 248.5869284828503,145.45493168863564 L 224.59076219416733,134.9735702552264 L 248.5869284828503,124.49220882181717 L 239.03051832327336,100.11291517097862 L 263.4098119741119,109.66932533055558 Z" fill="none" stroke="#00A86B" stroke-width="2.4325244435726314" /><path d="M 383.44764277052957,85.6731590418726 L 393.9290042039388,109.66932533055557 L 418.3082978547774,100.11291517097862 L 408.7518876952004,124.49220882181719 L 432.7480539838834,134.9735702552264 L 408.7518876952004,145.4549316886356 L 418.3082978547774,169.8342253394742 L 393.9290042039388,160.27781517989723 L 383.44764277052957,184.27398146858022 L 372.96628133712034,160.27781517989723 L 348.58698768628176,169.8342253394742 L 358.1433978458587,145.45493168863564 L 334.14723155717576,134.9735702552264 L 358.1433978458587,124.49220882181717 L 348.58698768628176,100.11291517097862 L 372.96628133712034,109.66932533055558 Z" fill="none" stroke="#00A86B" stroke-width="2.4325244435726314" /><path d="M 493.00411213353806,85.6731590418726 L 503.4854735669473,109.66932533055557 L 527.8647672177858,100.11291517097862 L 518.3083570582089,124.49220882181719 L 542.3045233468919,134.9735702552264 L 518.3083570582089,145.4549316886356 L 527.8647672177858,169.8342253394742 L 503.4854735669473,160.27781517989723 L 493.00411213353806,184.27398146858022 L 482.5227507001288,160.27781517989723 L 458.1434570492903,169.8342253394742 L 467.6998672088672,145.45493168863564 L 443.70370092018425,134.9735702552264 L 467.6998672088672,124.49220882181717 L 458.14345704929025,100.11291517097862 L 482.5227507001288,109.66932533055558 Z" fill="none" stroke="#00A86B" stroke-width="2.4325244435726314" /><path d="M 602.5605814965464,85.6731590418726 L 613.0419429299557,109.66932533055557 L 637.4212365807942,100.11291517097862 L 627.8648264212172,124.49220882181719 L 651.8609927099002,134.9735702552264 L 627.8648264212172,145.4549316886356 L 637.4212365807942,169.8342253394742 L 613.0419429299557,160.27781517989723 L 602.5605814965464,184.27398146858022 L 592.0792200631372,160.27781517989723 L 567.6999264122986,169.8342253394742 L 577.2563365718756,145.45493168863564 L 553.2601702831927,134.9735702552264 L 577.2563365718756,124.49220882181717 L 567.6999264122986,100.11291517097862 L 592.0792200631372,109.66932533055558 Z" fill="none" stroke="#00A86B" stroke-width="2.4325244435726314" /><path d="M 3.018779539454101e-15,180.54906151023795 L 10.48136143340922,204.54522779892093 L 34.86065508424778,194.98881763934398 L 25.304244924670837,219.36811129018255 L 49.300411213353804,229.84947272359176 L 25.304244924670837,240.33083415700096 L 34.86065508424778,264.7101278078395 L 10.48136143340922,255.15371764826259 L 3.018779539454101e-15,279.14988393694557 L -10.481361433409218,255.15371764826259 L -34.86065508424778,264.7101278078395 L -25.304244924670833,240.330834157001 L -49.300411213353804,229.84947272359176 L -25.304244924670837,219.36811129018253 L -34.86065508424779,194.98881763934398 L -10.481361433409234,204.54522779892093 Z" fill="none" stroke="#00A86B" stroke-width="2.4325244435726314" /><path d="M 109.55646936300845,180.54906151023795 L 120.03783079641767,204.54522779892093 L 144.41712444725624,194.98881763934398 L 134.8607142876793,219.36811129018255 L 158.85688057636224,229.84947272359176 L 134.8607142876793,240.33083415700096 L 144.41712444725624,264.7101278078395 L 120.03783079641767,255.15371764826259 L 109.55646936300845,279.14988393694557 L 99.07510792959923,255.15371764826259 L 74.69581427876066,264.7101278078395 L 84.2522244383376,240.330834157001 L 60.25605814965464,229.84947272359176 L 84.2522244383376,219.36811129018253 L 74.69581427876065,194.98881763934398 L 99.07510792959921,204.54522779892093 Z" fill="none" stroke="#00A86B" stroke-width="2.4325244435726314" /><path d="M 219.1129387260169,180.54906151023795 L 229.5943001594261,204.54522779892093 L 253.97359381026467,194.98881763934398 L 244.41718365068772,219.36811129018255 L 268.4133499393707,229.84947272359176 L 244.41718365068772,240.33083415700096 L 253.97359381026467,264.7101278078395 L 229.5943001594261,255.15371764826259 L 219.1129387260169,279.14988393694557 L 208.6315772926077,255.15371764826259 L 184.2522836417691,264.7101278078395 L 193.80869380134607,240.330834157001 L 169.81252751266308,229.84947272359176 L 193.80869380134607,219.36811129018253 L 184.2522836417691,194.98881763934398 L 208.63157729260766,204.54522779892093 Z" fill="none" stroke="#00A86B" stroke-width="2.4325244435726314" /><path d="M 328.66940808902535,180.54906151023795 L 339.1507695224346,204.54522779892093 L 363.5300631732731,194.98881763934398 L 353.9736530136962,219.36811129018255 L 377.96981930237916,229.84947272359176 L 353.9736530136962,240.33083415700096 L 363.5300631732731,264.7101278078395 L 339.1507695224346,255.15371764826259 L 328.66940808902535,279.14988393694557 L 318.1880466556161,255.15371764826259 L 293.8087530047776,264.7101278078395 L 303.3651631643545,240.330834157001 L 279.36899687567154,229.84947272359176 L 303.3651631643545,219.36811129018253 L 293.80875300477754,194.98881763934398 L 318.1880466556161,204.54522779892093 Z" fill="none" stroke="#00A86B" stroke-width="2.4325244435726314" /><path d="M 438.2258774520338,180.54906151023795 L 448.707238885443,204.54522779892093 L 473.08653253628154,194.98881763934398 L 463.53012237670464,219.36811129018255 L 487.5262886653876,229.84947272359176 L 463.53012237670464,240.33083415700096 L 473.08653253628154,264.7101278078395 L 448.707238885443,255.15371764826259 L 438.2258774520338,279.14988393694557 L 427.74451601862455,255.15371764826259 L 403.36522236778603,264.7101278078395 L 412.92163252736293,240.330834157001 L 388.92546623868,229.84947272359176 L 412.92163252736293,219.36811129018253 L 403.365222367786,194.98881763934398 L 427.74451601862455,204.54522779892093 Z" fill="none" stroke="#00A86B" stroke-width="2.4325244435726314" /><path d="M 547.7823468150423,180.54906151023795 L 558.2637082484515,204.54522779892093 L 582.6430018992901,194.98881763934398 L 573.0865917397131,219.36811129018255 L 597.082758028396,229.84947272359176 L 573.0865917397131,240.33083415700096 L 582.6430018992901,264.7101278078395 L 558.2637082484515,255.15371764826259 L 547.7823468150423,279.14988393694557 L 537.300985381633,255.15371764826259 L 512.9216917307945,264.7101278078395 L 522.4781018903715,240.330834157001 L 498.48193560168846,229.84947272359176 L 522.4781018903715,219.36811129018253 L 512.9216917307945,194.98881763934398 L 537.300985381633,204.54522779892093 Z" fill="none" stroke="#00A86B" stroke-width="2.4325244435726314" /><path d="M -54.77823468150422,275.4249639786032 L -44.296873248095004,299.4211302672862 L -19.91757959725644,289.8647201077092 L -29.473989756833387,314.2440137585478 L -5.477823468150419,324.725375191957 L -29.473989756833387,335.20673662536626 L -19.91757959725644,359.58603027620484 L -44.296873248095004,350.0296201166279 L -54.77823468150422,374.02578640531084 L -65.25959611491344,350.0296201166279 L -89.638889765752,359.58603027620484 L -80.08247960617506,335.20673662536626 L -104.07864589485803,324.725375191957 L -80.08247960617506,314.2440137585478 L -89.63888976575201,289.8647201077092 L -65.25959611491345,299.4211302672862 Z" fill="none" stroke="#00A86B" stroke-width="2.4325244435726314" /><path d="M 54.77823468150422,275.4249639786032 L 65.25959611491345,299.4211302672862 L 89.638889765752,289.8647201077092 L 80.08247960617506,314.2440137585478 L 104.07864589485803,324.725375191957 L 80.08247960617506,335.20673662536626 L 89.638889765752,359.58603027620484 L 65.25959611491345,350.0296201166279 L 54.77823468150422,374.02578640531084 L 44.296873248095004,350.0296201166279 L 19.91757959725644,359.58603027620484 L 29.47398975683339,335.20673662536626 L 5.477823468150419,324.725375191957 L 29.473989756833387,314.2440137585478 L 19.917579597256434,289.8647201077092 L 44.29687324809499,299.4211302672862 Z" fill="none" stroke="#00A86B" stroke-width="2.4325244435726314" /><path d="M 164.33470404451268,275.4249639786032 L 174.81606547792188,299.4211302672862 L 199.19535912876046,289.8647201077092 L 189.6389489691835,314.2440137585478 L 213.6351152578665,324.725375191957 L 189.6389489691835,335.20673662536626 L 199.19535912876046,359.58603027620484 L 174.81606547792188,350.0296201166279 L 164.33470404451268,374.02578640531084 L 153.85334261110347,350.0296201166279 L 129.4740489602649,359.58603027620484 L 139.03045911984185,335.20673662536626 L 115.03429283115887,324.725375191957 L 139.03045911984185,314.2440137585478 L 129.4740489602649,289.8647201077092 L 153.85334261110344,299.4211302672862 Z" fill="none" stroke="#00A86B" stroke-width="2.4325244435726314" /><path d="M 273.89117340752114,275.4249639786032 L 284.37253484093037,299.4211302672862 L 308.75182849176895,289.8647201077092 L 299.195418332192,314.2440137585478 L 323.19158462087495,324.725375191957 L 299.195418332192,335.20673662536626 L 308.75182849176895,359.58603027620484 L 284.37253484093037,350.0296201166279 L 273.89117340752114,374.02578640531084 L 263.4098119741119,350.0296201166279 L 239.03051832327336,359.58603027620484 L 248.5869284828503,335.20673662536626 L 224.59076219416733,324.725375191957 L 248.5869284828503,314.2440137585478 L 239.03051832327336,289.8647201077092 L 263.4098119741119,299.4211302672862 Z" fill="none" stroke="#00A86B" stroke-width="2.4325244435726314" /><path d="M 383.44764277052957,275.4249639786032 L 393.9290042039388,299.4211302672862 L 418.3082978547774,289.8647201077092 L 408.7518876952004,314.2440137585478 L 432.7480539838834,324.725375191957 L 408.7518876952004,335.20673662536626 L 418.3082978547774,359.58603027620484 L 393.9290042039388,350.0296201166279 L 383.44764277052957,374.02578640531084 L 372.96628133712034,350.0296201166279 L 348.58698768628176,359.58603027620484 L 358.1433978458587,335.20673662536626 L 334.14723155717576,324.725375191957 L 358.1433978458587,314.2440137585478 L 348.58698768628176,289.8647201077092 L 372.96628133712034,299.4211302672862 Z" fill="none" stroke="#00A86B" stroke-width="2.4325244435726314" /><path d="M 493.00411213353806,275.4249639786032 L 503.4854735669473,299.4211302672862 L 527.8647672177858,289.8647201077092 L 518.3083570582089,314.2440137585478 L 542.3045233468919,324.725375191957 L 518.3083570582089,335.20673662536626 L 527.8647672177858,359.58603027620484 L 503.4854735669473,350.0296201166279 L 493.00411213353806,374.02578640531084 L 482.5227507001288,350.0296201166279 L 458.1434570492903,359.58603027620484 L 467.6998672088672,335.20673662536626 L 443.70370092018425,324.725375191957 L 467.6998672088672,314.2440137585478 L 458.14345704929025,289.8647201077092 L 482.5227507001288,299.4211302672862 Z" fill="none" stroke="#00A86B" stroke-width="2.4325244435726314" /><path d="M 602.5605814965464,275.4249639786032 L 613.0419429299557,299.4211302672862 L 637.4212365807942,289.8647201077092 L 627.8648264212172,314.2440137585478 L 651.8609927099002,324.725375191957 L 627.8648264212172,335.20673662536626 L 637.4212365807942,359.58603027620484 L 613.0419429299557,350.0296201166279 L 602.5605814965464,374.02578640531084 L 592.0792200631372,350.0296201166279 L 567.6999264122986,359.58603027620484 L 577.2563365718756,335.20673662536626 L 553.2601702831927,324.725375191957 L 577.2563365718756,314.2440137585478 L 567.6999264122986,289.8647201077092 L 592.0792200631372,299.4211302672862 Z" fill="none" stroke="#00A86B" stroke-width="2.4325244435726314" /><path d="M 3.018779539454101e-15,370.3008664469686 L 10.48136143340922,394.29703273565156 L 34.86065508424778,384.74062257607466 L 25.304244924670837,409.1199162269132 L 49.300411213353804,419.6012776603224 L 25.304244924670837,430.08263909373164 L 34.86065508424778,454.46193274457016 L 10.48136143340922,444.90552258499326 L 3.018779539454101e-15,468.9016888736762 L -10.481361433409218,444.90552258499326 L -34.86065508424778,454.46193274457016 L -25.304244924670833,430.08263909373164 L -49.300411213353804,419.6012776603224 L -25.304244924670837,409.1199162269132 L -34.86065508424779,384.74062257607466 L -10.481361433409234,394.29703273565156 Z" fill="none" stroke="#00A86B" stroke-width="2.4325244435726314" /><path d="M 109.55646936300845,370.3008664469686 L 120.03783079641767,394.29703273565156 L 144.41712444725624,384.74062257607466 L 134.8607142876793,409.1199162269132 L 158.85688057636224,419.6012776603224 L 134.8607142876793,430.08263909373164 L 144.41712444725624,454.46193274457016 L 120.03783079641767,444.90552258499326 L 109.55646936300845,468.9016888736762 L 99.07510792959923,444.90552258499326 L 74.69581427876066,454.46193274457016 L 84.2522244383376,430.08263909373164 L 60.25605814965464,419.6012776603224 L 84.2522244383376,409.1199162269132 L 74.69581427876065,384.74062257607466 L 99.07510792959921,394.29703273565156 Z" fill="none" stroke="#00A86B" stroke-width="2.4325244435726314" /><path d="M 219.1129387260169,370.3008664469686 L 229.5943001594261,394.29703273565156 L 253.97359381026467,384.74062257607466 L 244.41718365068772,409.1199162269132 L 268.4133499393707,419.6012776603224 L 244.41718365068772,430.08263909373164 L 253.97359381026467,454.46193274457016 L 229.5943001594261,444.90552258499326 L 219.1129387260169,468.9016888736762 L 208.6315772926077,444.90552258499326 L 184.2522836417691,454.46193274457016 L 193.80869380134607,430.08263909373164 L 169.81252751266308,419.6012776603224 L 193.80869380134607,409.1199162269132 L 184.2522836417691,384.74062257607466 L 208.63157729260766,394.29703273565156 Z" fill="none" stroke="#00A86B" stroke-width="2.4325244435726314" /><path d="M 328.66940808902535,370.3008664469686 L 339.1507695224346,394.29703273565156 L 363.5300631732731,384.74062257607466 L 353.9736530136962,409.1199162269132 L 377.96981930237916,419.6012776603224 L 353.9736530136962,430.08263909373164 L 363.5300631732731,454.46193274457016 L 339.1507695224346,444.90552258499326 L 328.66940808902535,468.9016888736762 L 318.1880466556161,444.90552258499326 L 293.8087530047776,454.46193274457016 L 303.3651631643545,430.08263909373164 L 279.36899687567154,419.6012776603224 L 303.3651631643545,409.1199162269132 L 293.80875300477754,384.74062257607466 L 318.1880466556161,394.29703273565156 Z" fill="none" stroke="#00A86B" stroke-width="2.4325244435726314" /><path d="M 438.2258774520338,370.3008664469686 L 448.707238885443,394.29703273565156 L 473.08653253628154,384.74062257607466 L 463.53012237670464,409.1199162269132 L 487.5262886653876,419.6012776603224 L 463.53012237670464,430.08263909373164 L 473.08653253628154,454.46193274457016 L 448.707238885443,444.90552258499326 L 438.2258774520338,468.9016888736762 L 427.74451601862455,444.90552258499326 L 403.36522236778603,454.46193274457016 L 412.92163252736293,430.08263909373164 L 388.92546623868,419.6012776603224 L 412.92163252736293,409.1199162269132 L 403.365222367786,384.74062257607466 L 427.74451601862455,394.29703273565156 Z" fill="none" stroke="#00A86B" stroke-width="2.4325244435726314" /><path d="M 547.7823468150423,370.3008664469686 L 558.2637082484515,394.29703273565156 L 582.6430018992901,384.74062257607466 L 573.0865917397131,409.1199162269132 L 597.082758028396,419.6012776603224 L 573.0865917397131,430.08263909373164 L 582.6430018992901,454.46193274457016 L 558.2637082484515,444.90552258499326 L 547.7823468150423,468.9016888736762 L 537.300985381633,444.90552258499326 L 512.9216917307945,454.46193274457016 L 522.4781018903715,430.08263909373164 L 498.48193560168846,419.6012776603224 L 522.4781018903715,409.1199162269132 L 512.9216917307945,384.74062257607466 L 537.300985381633,394.29703273565156 Z" fill="none" stroke="#00A86B" stroke-width="2.4325244435726314" /><path d="M -54.77823468150422,465.17676891533387 L -44.296873248095004,489.1729352040168 L -19.91757959725644,479.61652504443987 L -29.473989756833387,503.99581869527844 L -5.477823468150419,514.4771801286877 L -29.473989756833387,524.9585415620969 L -19.91757959725644,549.3378352129355 L -44.296873248095004,539.7814250533585 L -54.77823468150422,563.7775913420414 L -65.25959611491344,539.7814250533585 L -89.638889765752,549.3378352129355 L -80.08247960617506,524.9585415620969 L -104.07864589485803,514.4771801286877 L -80.08247960617506,503.99581869527844 L -89.63888976575201,479.61652504443987 L -65.25959611491345,489.1729352040168 Z" fill="none" stroke="#00A86B" stroke-width="2.4325244435726314" /><path d="M 54.77823468150422,465.17676891533387 L 65.25959611491345,489.1729352040168 L 89.638889765752,479.61652504443987 L 80.08247960617506,503.99581869527844 L 104.07864589485803,514.4771801286877 L 80.08247960617506,524.9585415620969 L 89.638889765752,549.3378352129355 L 65.25959611491345,539.7814250533585 L 54.77823468150422,563.7775913420414 L 44.296873248095004,539.7814250533585 L 19.91757959725644,549.3378352129355 L 29.47398975683339,524.9585415620969 L 5.477823468150419,514.4771801286877 L 29.473989756833387,503.99581869527844 L 19.917579597256434,479.61652504443987 L 44.29687324809499,489.1729352040168 Z" fill="none" stroke="#00A86B" stroke-width="2.4325244435726314" /><path d="M 164.33470404451268,465.17676891533387 L 174.81606547792188,489.1729352040168 L 199.19535912876046,479.61652504443987 L 189.6389489691835,503.99581869527844 L 213.6351152578665,514.4771801286877 L 189.6389489691835,524.9585415620969 L 199.19535912876046,549.3378352129355 L 174.81606547792188,539.7814250533585 L 164.33470404451268,563.7775913420414 L 153.85334261110347,539.7814250533585 L 129.4740489602649,549.3378352129355 L 139.03045911984185,524.9585415620969 L 115.03429283115887,514.4771801286877 L 139.03045911984185,503.99581869527844 L 129.4740489602649,479.61652504443987 L 153.85334261110344,489.1729352040168 Z" fill="none" stroke="#00A86B" stroke-width="2.4325244435726314" /><path d="M 273.89117340752114,465.17676891533387 L 284.37253484093037,489.1729352040168 L 308.75182849176895,479.61652504443987 L 299.195418332192,503.99581869527844 L 323.19158462087495,514.4771801286877 L 299.195418332192,524.9585415620969 L 308.75182849176895,549.3378352129355 L 284.37253484093037,539.7814250533585 L 273.89117340752114,563.7775913420414 L 263.4098119741119,539.7814250533585 L 239.03051832327336,549.3378352129355 L 248.5869284828503,524.9585415620969 L 224.59076219416733,514.4771801286877 L 248.5869284828503,503.99581869527844 L 239.03051832327336,479.61652504443987 L 263.4098119741119,489.1729352040168 Z" fill="none" stroke="#00A86B" stroke-width="2.4325244435726314" /><path d="M 383.44764277052957,465.17676891533387 L 393.9290042039388,489.1729352040168 L 418.3082978547774,479.61652504443987 L 408.7518876952004,503.99581869527844 L 432.7480539838834,514.4771801286877 L 408.7518876952004,524.9585415620969 L 418.3082978547774,549.3378352129355 L 393.9290042039388,539.7814250533585 L 383.44764277052957,563.7775913420414 L 372.96628133712034,539.7814250533585 L 348.58698768628176,549.3378352129355 L 358.1433978458587,524.9585415620969 L 334.14723155717576,514.4771801286877 L 358.1433978458587,503.99581869527844 L 348.58698768628176,479.61652504443987 L 372.96628133712034,489.1729352040168 Z" fill="none" stroke="#00A86B" stroke-width="2.4325244435726314" /><path d="M 493.00411213353806,465.17676891533387 L 503.4854735669473,489.1729352040168 L 527.8647672177858,479.61652504443987 L 518.3083570582089,503.99581869527844 L 542.3045233468919,514.4771801286877 L 518.3083570582089,524.9585415620969 L 527.8647672177858,549.3378352129355 L 503.4854735669473,539.7814250533585 L 493.00411213353806,563.7775913420414 L 482.5227507001288,539.7814250533585 L 458.1434570492903,549.3378352129355 L 467.6998672088672,524.9585415620969 L 443.70370092018425,514.4771801286877 L 467.6998672088672,503.99581869527844 L 458.14345704929025,479.61652504443987 L 482.5227507001288,489.1729352040168 Z" fill="none" stroke="#00A86B" stroke-width="2.4325244435726314" /><path d="M 602.5605814965464,465.17676891533387 L 613.0419429299557,489.1729352040168 L 637.4212365807942,479.61652504443987 L 627.8648264212172,503.99581869527844 L 651.8609927099002,514.4771801286877 L 627.8648264212172,524.9585415620969 L 637.4212365807942,549.3378352129355 L 613.0419429299557,539.7814250533585 L 602.5605814965464,563.7775913420414 L 592.0792200631372,539.7814250533585 L 567.6999264122986,549.3378352129355 L 577.2563365718756,524.9585415620969 L 553.2601702831927,514.4771801286877 L 577.2563365718756,503.99581869527844 L 567.6999264122986,479.61652504443987 L 592.0792200631372,489.1729352040168 Z" fill="none" stroke="#00A86B" stroke-width="2.4325244435726314" /><line x1="49.300411213353804" y1="40.09766778686109" x2="60.25605814965464" y2="40.09766778686109" stroke="#00A86B" stroke-width="0.5"/><line x1="158.85688057636224" y1="40.09766778686109" x2="169.81252751266308" y2="40.09766778686109" stroke="#00A86B" stroke-width="0.5"/><line x1="268.4133499393707" y1="40.09766778686109" x2="279.36899687567154" y2="40.09766778686109" stroke="#00A86B" stroke-width="0.5"/><line x1="377.96981930237916" y1="40.09766778686109" x2="388.92546623868" y2="40.09766778686109" stroke="#00A86B" stroke-width="0.5"/><line x1="487.5262886653876" y1="40.09766778686109" x2="498.48193560168846" y2="40.09766778686109" stroke="#00A86B" stroke-width="0.5"/><line x1="104.07864589485803" y1="134.9735702552264" x2="115.03429283115887" y2="134.9735702552264" stroke="#00A86B" stroke-width="0.5"/><line x1="213.6351152578665" y1="134.9735702552264" x2="224.59076219416733" y2="134.9735702552264" stroke="#00A86B" stroke-width="0.5"/><line x1="323.19158462087495" y1="134.9735702552264" x2="334.14723155717576" y2="134.9735702552264" stroke="#00A86B" stroke-width="0.5"/><line x1="432.7480539838834" y1="134.9735702552264" x2="443.70370092018425" y2="134.9735702552264" stroke="#00A86B" stroke-width="0.5"/><line x1="49.300411213353804" y1="229.84947272359176" x2="60.25605814965464" y2="229.84947272359176" stroke="#00A86B" stroke-width="0.5"/><line x1="158.85688057636224" y1="229.84947272359176" x2="169.81252751266308" y2="229.84947272359176" stroke="#00A86B" stroke-width="0.5"/><line x1="268.4133499393707" y1="229.84947272359176" x2="279.36899687567154" y2="229.84947272359176" stroke="#00A86B" stroke-width="0.5"/><line x1="377.96981930237916" y1="229.84947272359176" x2="388.92546623868" y2="229.84947272359176" stroke="#00A86B" stroke-width="0.5"/><line x1="487.5262886653876" y1="229.84947272359176" x2="498.48193560168846" y2="229.84947272359176" stroke="#00A86B" stroke-width="0.5"/><line x1="104.07864589485803" y1="324.725375191957" x2="115.03429283115887" y2="324.725375191957" stroke="#00A86B" stroke-width="0.5"/><line x1="213.6351152578665" y1="324.725375191957" x2="224.59076219416733" y2="324.725375191957" stroke="#00A86B" stroke-width="0.5"/><line x1="323.19158462087495" y1="324.725375191957" x2="334.14723155717576" y2="324.725375191957" stroke="#00A86B" stroke-width="0.5"/><line x1="432.7480539838834" y1="324.725375191957" x2="443.70370092018425" y2="324.725375191957" stroke="#00A86B" stroke-width="0.5"/><line x1="49.300411213353804" y1="419.6012776603224" x2="60.25605814965464" y2="419.6012776603224" stroke="#00A86B" stroke-width="0.5"/><line x1="158.85688057636224" y1="419.6012776603224" x2="169.81252751266308" y2="419.6012776603224" stroke="#00A86B" stroke-width="0.5"/><line x1="268.4133499393707" y1="419.6012776603224" x2="279.36899687567154" y2="419.6012776603224" stroke="#00A86B" stroke-width="0.5"/><line x1="377.96981930237916" y1="419.6012776603224" x2="388.92546623868" y2="419.6012776603224" stroke="#00A86B" stroke-width="0.5"/><line x1="487.5262886653876" y1="419.6012776603224" x2="498.48193560168846" y2="419.6012776603224" stroke="#00A86B" stroke-width="0.5"/></g></svg>