<svg xmlns="http://www.w3.org/2000/svg" width="512" height="512" viewBox="0 0 512 512"><rect x="0" y="0" width="512" height="512" fill="#0D0D0D"/><g opacity="0.12430028769853538"><path d="M -31.841096315057104,-60.498082998608496 L -25.74856630100037,-46.54976490415801 L -11.57754670274532,-52.104645927368885 L -17.132427725956198,-37.933626329113835 L -3.1841096315057094,-31.841096315057104 L -17.132427725956198,-25.748566301000373 L -11.57754670274532,-11.577546702745323 L -25.74856630100037,-17.132427725956198 L -31.841096315057104,-3.1841096315057094 L -37.933626329113835,-17.132427725956198 L -52.104645927368885,-11.57754670274532 L -46.54976490415801,-25.748566301000363 L -60.498082998608496,-31.8410963150571 L -46.54976490415801,-37.93362632911384 L -52.10464592736889,-52.104645927368885 L -37.93362632911385,-46.54976490415801 Z" fill="none" stroke="#FFD700" stroke-width="1.2252728942433713" /><path d="M 31.841096315057104,-60.498082998608496 L 37.933626329113835,-46.54976490415801 L 52.10464592736889,-52.104645927368885 L 46.54976490415801,-37.933626329113835 L 60.498082998608496,-31.841096315057104 L 46.54976490415801,-25.748566301000373 L 52.10464592736889,-11.577546702745323 L 37.933626329113835,-17.132427725956198 L 31.841096315057104,-3.1841096315057094 L 25.748566301000373,-17.132427725956198 L 11.577546702745323,-11.57754670274532 L 17.1324277259562,-25.748566301000363 L 3.1841096315057094,-31.8410963150571 L 17.132427725956198,-37.93362632911384 L 11.577546702745316,-52.104645927368885 L 25.748566301000363,-46.54976490415801 Z" fill="none" stroke="#FFD700" stroke-width="1.2252728942433713" /><path d="M 95.52328894517132,-60.498082998608496 L 101.61581895922805,-46.54976490415801 L 115.7868385574831,-52.104645927368885 L 110.23195753427223,-37.933626329113835 L 124.18027562872271,-31.841096315057104 L 110.23195753427223,-25.748566301000373 L 115.7868385574831,-11.577546702745323 L 101.61581895922805,-17.132427725956198 L 95.52328894517132,-3.1841096315057094 L 89.43075893111458,-17.132427725956198 L 75.25973933285954,-11.57754670274532 L 80.8146203560704,-25.748566301000363 L 66.86630226161992,-31.8410963150571 L 80.8146203560704,-37.93362632911384 L 75.25973933285952,-52.104645927368885 L 89.43075893111458,-46.54976490415801 Z" fill="none" stroke="#FFD700" stroke-width="1.2252728942433713" /><path d="M 159.20548157528552,-60.498082998608496 L 165.29801158934225,-46.54976490415801 L 179.4690311875973,-52.104645927368885 L 173.91415016438643,-37.933626329113835 L 187.8624682588369,-31.841096315057104 L 173.91415016438643,-25.748566301000373 L 179.4690311875973,-11.577546702745323 L 165.29801158934225,-17.132427725956198 L 159.20548157528552,-3.1841096315057094 L 153.11295156122878,-17.132427725956198 L 138.94193196297374,-11.57754670274532 L 144.4968129861846,-25.748566301000363 L 130.54849489173412,-31.8410963150571 L 144.4968129861846,-37.93362632911384 L 138.94193196297374,-52.104645927368885 L 153.11295156122878,-46.54976490415801 Z" fill="none" stroke="#FFD700" stroke-width="1.2252728942433713" /><path d="M 222.88767420539972,-60.498082998608496 L 228.98020421945645,-46.54976490415801 L 243.1512238177115,-52.104645927368885 L 237.59634279450063,-37.933626329113835 L 251.5446608889511,-31.841096315057104 L 237.59634279450063,-25.748566301000373 L 243.1512238177115,-11.577546702745323 L 228.98020421945645,-17.132427725956198 L 222.88767420539972,-3.1841096315057094 L 216.79514419134298,-17.132427725956198 L 202.62412459308794,-11.57754670274532 L 208.1790056162988,-25.748566301000363 L 194.23068752184832,-31.8410963150571 L 208.1790056162988,-37.93362632911384 L 202.62412459308794,-52.104645927368885 L 216.79514419134298,-46.54976490415801 Z" fill="none" stroke="#FFD700" stroke-width="1.2252728942433713" /><path d="M 286.56986683551395,-60.498082998608496 L 292.66239684957065,-46.54976490415801 L 306.83341644782575,-52.104645927368885 L 301.27853542461486,-37.933626329113835 L 315.22685351906534,-31.841096315057104 L 301.27853542461486,-25.748566301000373 L 306.83341644782575,-11.577546702745323 L 292.66239684957065,-17.132427725956198 L 286.56986683551395,-3.1841096315057094 L 280.47733682145724,-17.132427725956198 L 266.30631722320214,-11.57754670274532 L 271.86119824641304,-25.748566301000363 L 257.91288015196255,-31.8410963150571 L 271.86119824641304,-37.93362632911384 L 266.30631722320214,-52.104645927368885 L 280.4773368214572,-46.54976490415801 Z" fill="none" stroke="#FFD700" stroke-width="1.2252728942433713" /><path d="M 350.2520594656282,-60.498082998608496 L 356.3445894796849,-46.54976490415801 L 370.51560907794,-52.104645927368885 L 364.9607280547291,-37.933626329113835 L 378.9090461491796,-31.841096315057104 L 364.9607280547291,-25.748566301000373 L 370.51560907794,-11.577546702745323 L 356.3445894796849,-17.132427725956198 L 350.2520594656282,-3.1841096315057094 L 344.1595294515715,-17.132427725956198 L 329.9885098533164,-11.57754670274532 L 335.54339087652727,-25.748566301000363 L 321.5950727820768,-31.8410963150571 L 335.54339087652727,-37.93362632911384 L 329.9885098533164,-52.104645927368885 L 344.1595294515714,-46.54976490415801 Z" fill="none" stroke="#FFD700" stroke-width="1.2252728942433713" /><path d="M 413.93425209574235,-60.498082998608496 L 420.02678210979906,-46.54976490415801 L 434.19780170805416,-52.104645927368885 L 428.64292068484326,-37.933626329113835 L 442.59123877929375,-31.841096315057104 L 428.64292068484326,-25.748566301000373 L 434.19780170805416,-11.577546702745323 L 420.02678210979906,-17.132427725956198 L 413.93425209574235,-3.1841096315057094 L 407.84172208168565,-17.132427725956198 L 393.67070248343055,-11.57754670274532 L 399.22558350664144,-25.748566301000363 L 385.27726541219096,-31.8410963150571 L 399.22558350664144,-37.93362632911384 L 393.67070248343055,-52.104645927368885 L 407.8417220816856,-46.54976490415801 Z" fill="none" stroke="#FFD700" stroke-width="1.2252728942433713" /><path d="M 477.6164447258566,-60.498082998608496 L 483.7089747399133,-46.54976490415801 L 497.8799943381684,-52.104645927368885 L 492.3251133149575,-37.933626329113835 L 506.273431409408,-31.841096315057104 L 492.3251133149575,-25.748566301000373 L 497.8799943381684,-11.577546702745323 L 483.7089747399133,-17.132427725956198 L 477.6164447258566,-3.1841096315057094 L 471.5239147117999,-17.132427725956198 L 457.3528951135448,-11.57754670274532 L 462.9077761367557,-25.748566301000363 L 448.9594580423052,-31.8410963150571 L 462.9077761367557,-37.93362632911384 L 457.3528951135448,-52.104645927368885 L 471.5239147117998,-46.54976490415801 Z" fill="none" stroke="#FFD700" stroke-width="1.2252728942433713" /><path d="M 541.2986373559708,-60.498082998608496 L 547.3911673700275,-46.54976490415801 L 561.5621869682825,-52.104645927368885 L 556.0073059450716,-37.933626329113835 L 569.9556240395221,-31.841096315057104 L 556.0073059450716,-25.748566301000373 L 561.5621869682825,-11.577546702745323 L 547.3911673700275,-17.132427725956198 L 541.2986373559708,-3.1841096315057094 L 535.206107341914,-17.132427725956198 L 521.035087743659,-11.57754670274532 L 526.5899687668699,-25.748566301000363 L 512.6416506724194,-31.8410963150571 L 526.5899687668699,-37.93362632911384 L 521.035087743659,-52.104645927368885 L 535.206107341914,-46.54976490415801 Z" fill="none" stroke="#FFD700" stroke-width="1.2252728942433713" /><path d="M 1.754734350760977e-15,-5.349304180929597 L 6.092530014056734,8.599013913520892 L 20.263549612311785,3.044132890310017 L 14.708668589100906,17.215152488565067 L 28.656986683551395,23.307682502621798 L 14.708668589100906,29.40021251667853 L 20.263549612311785,43.57123211493358 L 6.092530014056734,38.016351091722704 L 1.754734350760977e-15,51.9646691861732 L -6.092530014056732,38.016351091722704 L -20.26354961231178,43.57123211493358 L -14.708668589100903,29.40021251667854 L -28.656986683551395,23.3076825026218 L -14.708668589100904,17.21515248856506 L -20.263549612311788,3.044132890310017 L -6.0925300140567415,8.599013913520896 Z" fill="none" stroke="#FFD700" stroke-width="1.2252728942433713" /><path d="M 63.68219263011421,-5.349304180929597 L 69.77472264417094,8.599013913520892 L 83.945742242426,3.044132890310017 L 78.39086121921511,17.215152488565067 L 92.3391793136656,23.307682502621798 L 78.39086121921511,29.40021251667853 L 83.945742242426,43.57123211493358 L 69.77472264417094,38.016351091722704 L 63.68219263011421,51.9646691861732 L 57.589662616057474,38.016351091722704 L 43.418643017802424,43.57123211493358 L 48.973524041013306,29.40021251667854 L 35.025205946562814,23.3076825026218 L 48.973524041013306,17.21515248856506 L 43.418643017802424,3.044132890310017 L 57.58966261605747,8.599013913520896 Z" fill="none" stroke="#FFD700" stroke-width="1.2252728942433713" /><path d="M 127.36438526022842,-5.349304180929597 L 133.45691527428514,8.599013913520892 L 147.6279348725402,3.044132890310017 L 142.0730538493293,17.215152488565067 L 156.0213719437798,23.307682502621798 L 142.0730538493293,29.40021251667853 L 147.6279348725402,43.57123211493358 L 133.45691527428514,38.016351091722704 L 127.36438526022842,51.9646691861732 L 121.27185524617168,38.016351091722704 L 107.10083564791664,43.57123211493358 L 112.65571667112752,29.40021251667854 L 98.70739857667702,23.3076825026218 L 112.65571667112751,17.21515248856506 L 107.10083564791663,3.044132890310017 L 121.27185524617167,8.599013913520896 Z" fill="none" stroke="#FFD700" stroke-width="1.2252728942433713" /><path d="M 191.04657789034263,-5.349304180929597 L 197.13910790439937,8.599013913520892 L 211.3101275026544,3.044132890310017 L 205.75524647944354,17.215152488565067 L 219.70356457389403,23.307682502621798 L 205.75524647944354,29.40021251667853 L 211.3101275026544,43.57123211493358 L 197.13910790439937,38.016351091722704 L 191.04657789034263,51.9646691861732 L 184.9540478762859,38.016351091722704 L 170.78302827803086,43.57123211493358 L 176.33790930124172,29.40021251667854 L 162.38959120679124,23.3076825026218 L 176.33790930124172,17.21515248856506 L 170.78302827803086,3.044132890310017 L 184.9540478762859,8.599013913520896 Z" fill="none" stroke="#FFD700" stroke-width="1.2252728942433713" /><path d="M 254.72877052045683,-5.349304180929597 L 260.82130053451357,8.599013913520892 L 274.9923201327686,3.044132890310017 L 269.4374391095577,17.215152488565067 L 283.3857572040082,23.307682502621798 L 269.4374391095577,29.40021251667853 L 274.9923201327686,43.57123211493358 L 260.82130053451357,38.016351091722704 L 254.72877052045683,51.9646691861732 L 248.6362405064001,38.016351091722704 L 234.46522090814506,43.57123211493358 L 240.02010193135592,29.40021251667854 L 226.07178383690544,23.3076825026218 L 240.02010193135592,17.21515248856506 L 234.46522090814506,3.044132890310017 L 248.6362405064001,8.599013913520896 Z" fill="none" stroke="#FFD700" stroke-width="1.2252728942433713" /><path d="M 318.41096315057104,-5.349304180929597 L 324.50349316462774,8.599013913520892 L 338.67451276288284,3.044132890310017 L 333.11963173967195,17.215152488565067 L 347.06794983412243,23.307682502621798 L 333.11963173967195,29.40021251667853 L 338.67451276288284,43.57123211493358 L 324.50349316462774,38.016351091722704 L 318.41096315057104,51.9646691861732 L 312.31843313651433,38.016351091722704 L 298.14741353825923,43.57123211493358 L 303.7022945614701,29.40021251667854 L 289.75397646701964,23.3076825026218 L 303.7022945614701,17.21515248856506 L 298.14741353825923,3.044132890310017 L 312.3184331365143,8.599013913520896 Z" fill="none" stroke="#FFD700" stroke-width="1.2252728942433713" /><path d="M 382.09315578068527,-5.349304180929597 L 388.18568579474197,8.599013913520892 L 402.35670539299707,3.044132890310017 L 396.8018243697862,17.215152488565067 L 410.75014246423666,23.307682502621798 L 396.8018243697862,29.40021251667853 L 402.35670539299707,43.57123211493358 L 388.18568579474197,38.016351091722704 L 382.09315578068527,51.9646691861732 L 376.00062576662856,38.016351091722704 L 361.82960616837346,43.57123211493358 L 367.38448719158436,29.40021251667854 L 353.43616909713387,23.3076825026218 L 367.38448719158436,17.21515248856506 L 361.82960616837346,3.044132890310017 L 376.0006257666285,8.599013913520896 Z" fill="none" stroke="#FFD700" stroke-width="1.2252728942433713" /><path d="M 445.77534841079944,-5.349304180929597 L 451.86787842485614,8.599013913520892 L 466.03889802311124,3.044132890310017 L 460.48401699990035,17.215152488565067 L 474.43233509435083,23.307682502621798 L 460.48401699990035,29.40021251667853 L 466.03889802311124,43.57123211493358 L 451.86787842485614,38.016351091722704 L 445.77534841079944,51.9646691861732 L 439.68281839674273,38.016351091722704 L 425.51179879848763,43.57123211493358 L 431.06667982169853,29.40021251667854 L 417.11836172724804,23.3076825026218 L 431.06667982169853,17.21515248856506 L 425.51179879848763,3.044132890310017 L 439.6828183967427,8.599013913520896 Z" fill="none" stroke="#FFD700" stroke-width="1.2252728942433713" /><path d="M 509.45754104091367,-5.349304180929597 L 515.5500710549704,8.599013913520892 L 529.7210906532255,3.044132890310017 L 524.1662096300146,17.215152488565067 L 538.114527724465,23.307682502621798 L 524.1662096300146,29.40021251667853 L 529.7210906532255,43.57123211493358 L 515.5500710549704,38.016351091722704 L 509.45754104091367,51.9646691861732 L 503.36501102685696,38.016351091722704 L 489.19399142860186,43.57123211493358 L 494.74887245181276,29.40021251667854 L 480.8005543573623,23.3076825026218 L 494.74887245181276,17.21515248856506 L 489.19399142860186,3.044132890310017 L 503.3650110268569,8.599013913520896 Z" fill="none" stroke="#FFD700" stroke-width="1.2252728942433713" /><path d="M 573.1397336710279,-5.349304180929597 L 579.2322636850846,8.599013913520892 L 593.4032832833396,3.044132890310017 L 587.8484022601288,17.215152488565067 L 601.7967203545793,23.307682502621798 L 587.8484022601288,29.40021251667853 L 593.4032832833396,43.57123211493358 L 579.2322636850846,38.016351091722704 L 573.1397336710279,51.9646691861732 L 567.0472036569712,38.016351091722704 L 552.8761840587161,43.57123211493358 L 558.431065081927,29.40021251667854 L 544.4827469874765,23.3076825026218 L 558.431065081927,17.21515248856506 L 552.8761840587161,3.044132890310017 L 567.0472036569712,8.599013913520896 Z" fill="none" stroke="#FFD700" stroke-width="1.2252728942433713" /><path d="M -31.841096315057104,49.79947463674931 L -25.74856630100037,63.747792731199795 L -11.57754670274532,58.19291170798893 L -17.132427725956198,72.36393130624397 L -3.1841096315057094,78.4564613203007 L -17.132427725956198,84.54899133435744 L -11.57754670274532,98.72001093261248 L -25.74856630100037,93.16512990940161 L -31.841096315057104,107.1134480038521 L -37.933626329113835,93.16512990940161 L -52.104645927368885,98.7200109326125 L -46.54976490415801,84.54899133435744 L -60.498082998608496,78.4564613203007 L -46.54976490415801,72.36393130624397 L -52.10464592736889,58.19291170798893 L -37.93362632911385,63.7477927311998 Z" fill="none" stroke="#FFD700" stroke-width="1.2252728942433713" /><path d="M 31.841096315057104,49.79947463674931 L 37.933626329113835,63.747792731199795 L 52.10464592736889,58.19291170798893 L 46.54976490415801,72.36393130624397 L 60.498082998608496,78.4564613203007 L 46.54976490415801,84.54899133435744 L 52.10464592736889,98.72001093261248 L 37.933626329113835,93.16512990940161 L 31.841096315057104,107.1134480038521 L 25.748566301000373,93.16512990940161 L 11.577546702745323,98.7200109326125 L 17.1324277259562,84.54899133435744 L 3.1841096315057094,78.4564613203007 L 17.132427725956198,72.36393130624397 L 11.577546702745316,58.19291170798893 L 25.748566301000363,63.7477927311998 Z" fill="none" stroke="#FFD700" stroke-width="1.2252728942433713" /><path d="M 95.52328894517132,49.79947463674931 L 101.61581895922805,63.747792731199795 L 115.7868385574831,58.19291170798893 L 110.23195753427223,72.36393130624397 L 124.18027562872271,78.4564613203007 L 110.23195753427223,84.54899133435744 L 115.7868385574831,98.72001093261248 L 101.61581895922805,93.16512990940161 L 95.52328894517132,107.1134480038521 L 89.43075893111458,93.16512990940161 L 75.25973933285954,98.7200109326125 L 80.8146203560704,84.54899133435744 L 66.86630226161992,78.4564613203007 L 80.8146203560704,72.36393130624397 L 75.25973933285952,58.19291170798893 L 89.43075893111458,63.7477927311998 Z" fill="none" stroke="#FFD700" stroke-width="1.2252728942433713" /><path d="M 159.20548157528552,49.79947463674931 L 165.29801158934225,63.747792731199795 L 179.4690311875973,58.19291170798893 L 173.91415016438643,72.36393130624397 L 187.8624682588369,78.4564613203007 L 173.91415016438643,84.54899133435744 L 179.4690311875973,98.72001093261248 L 165.29801158934225,93.16512990940161 L 159.20548157528552,107.1134480038521 L 153.11295156122878,93.16512990940161 L 138.94193196297374,98.7200109326125 L 144.4968129861846,84.54899133435744 L 130.54849489173412,78.4564613203007 L 144.4968129861846,72.36393130624397 L 138.94193196297374,58.19291170798893 L 153.11295156122878,63.7477927311998 Z" fill="none" stroke="#FFD700" stroke-width="1.2252728942433713" /><path d="M 222.88767420539972,49.79947463674931 L 228.98020421945645,63.747792731199795 L 243.1512238177115,58.19291170798893 L 237.59634279450063,72.36393130624397 L 251.5446608889511,78.4564613203007 L 237.59634279450063,84.54899133435744 L 243.1512238177115,98.72001093261248 L 228.98020421945645,93.16512990940161 L 222.88767420539972,107.1134480038521 L 216.79514419134298,93.16512990940161 L 202.62412459308794,98.7200109326125 L 208.1790056162988,84.54899133435744 L 194.23068752184832,78.4564613203007 L 208.1790056162988,72.36393130624397 L 202.62412459308794,58.19291170798893 L 216.79514419134298,63.7477927311998 Z" fill="none" stroke="#FFD700" stroke-width="1.2252728942433713" /><path d="M 286.56986683551395,49.79947463674931 L 292.66239684957065,63.747792731199795 L 306.83341644782575,58.19291170798893 L 301.27853542461486,72.36393130624397 L 315.22685351906534,78.4564613203007 L 301.27853542461486,84.54899133435744 L 306.83341644782575,98.72001093261248 L 292.66239684957065,93.16512990940161 L 286.56986683551395,107.1134480038521 L 280.47733682145724,93.16512990940161 L 266.30631722320214,98.7200109326125 L 271.86119824641304,84.54899133435744 L 257.91288015196255,78.4564613203007 L 271.86119824641304,72.36393130624397 L 266.30631722320214,58.19291170798893 L 280.4773368214572,63.7477927311998 Z" fill="none" stroke="#FFD700" stroke-width="1.2252728942433713" /><path d="M 350.2520594656282,49.79947463674931 L 356.3445894796849,63.747792731199795 L 370.51560907794,58.19291170798893 L 364.9607280547291,72.36393130624397 L 378.9090461491796,78.4564613203007 L 364.9607280547291,84.54899133435744 L 370.51560907794,98.72001093261248 L 356.3445894796849,93.16512990940161 L 350.2520594656282,107.1134480038521 L 344.1595294515715,93.16512990940161 L 329.9885098533164,98.7200109326125 L 335.54339087652727,84.54899133435744 L 321.5950727820768,78.4564613203007 L 335.54339087652727,72.36393130624397 L 329.9885098533164,58.19291170798893 L 344.1595294515714,63.7477927311998 Z" fill="none" stroke="#FFD700" stroke-width="1.2252728942433713" /><path d="M 413.93425209574235,49.79947463674931 L 420.02678210979906,63.747792731199795 L 434.19780170805416,58.19291170798893 L 428.64292068484326,72.36393130624397 L 442.59123877929375,78.4564613203007 L 428.64292068484326,84.54899133435744 L 434.19780170805416,98.72001093261248 L 420.02678210979906,93.16512990940161 L 413.93425209574235,107.1134480038521 L 407.84172208168565,93.16512990940161 L 393.67070248343055,98.7200109326125 L 399.22558350664144,84.54899133435744 L 385.27726541219096,78.4564613203007 L 399.22558350664144,72.36393130624397 L 393.67070248343055,58.19291170798893 L 407.8417220816856,63.7477927311998 Z" fill="none" stroke="#FFD700" stroke-width="1.2252728942433713" /><path d="M 477.6164447258566,49.79947463674931 L 483.7089747399133,63.747792731199795 L 497.8799943381684,58.19291170798893 L 492.3251133149575,72.36393130624397 L 506.273431409408,78.4564613203007 L 492.3251133149575,84.54899133435744 L 497.8799943381684,98.72001093261248 L 483.7089747399133,93.16512990940161 L 477.6164447258566,107.1134480038521 L 471.5239147117999,93.16512990940161 L 457.3528951135448,98.7200109326125 L 462.9077761367557,84.54899133435744 L 448.9594580423052,78.4564613203007 L 462.9077761367557,72.36393130624397 L 457.3528951135448,58.19291170798893 L 471.5239147117998,63.7477927311998 Z" fill="none" stroke="#FFD700" stroke-width="1.2252728942433713" /><path d="M 541.2986373559708,49.79947463674931 L 547.3911673700275,63.747792731199795 L 561.5621869682825,58.19291170798893 L 556.0073059450716,72.36393130624397 L 569.9556240395221,78.4564613203007 L 556.0073059450716,84.54899133435744 L 561.5621869682825,98.72001093261248 L 547.3911673700275,93.16512990940161 L 541.2986373559708,107.1134480038521 L 535.206107341914,93.16512990940161 L 521.035087743659,98.7200109326125 L 526.5899687668699,84.54899133435744 L 512.6416506724194,78.4564613203007 L 526.5899687668699,72.36393130624397 L 521.035087743659,58.19291170798893 L 535.206107341914,63.7477927311998 Z" fill="none" stroke="#FFD700" stroke-width="1.2252728942433713" /><path d="M 1.754734350760977e-15,104.9482534544282 L 6.092530014056734,118.89657154887868 L 20.263549612311785,113.34169052566781 L 14.708668589100906,127.51271012392286 L 28.656986683551395,133.6052401379796 L 14.708668589100906,139.69777015203633 L 20.263549612311785,153.86878975029137 L 6.092530014056734,148.3139087270805 L 1.754734350760977e-15,162.262226821531 L -6.092530014056732,148.3139087270805 L -20.26354961231178,153.86878975029137 L -14.708668589100903,139.69777015203633 L -28.656986683551395,133.6052401379796 L -14.708668589100904,127.51271012392286 L -20.263549612311788,113.34169052566781 L -6.0925300140567415,118.89657154887868 Z" fill="none" stroke="#FFD700" stroke-width="1.2252728942433713" /><path d="M 63.68219263011421,104.9482534544282 L 69.77472264417094,118.89657154887868 L 83.945742242426,113.34169052566781 L 78.39086121921511,127.51271012392286 L 92.3391793136656,133.6052401379796 L 78.39086121921511,139.69777015203633 L 83.945742242426,153.86878975029137 L 69.77472264417094,148.3139087270805 L 63.68219263011421,162.262226821531 L 57.589662616057474,148.3139087270805 L 43.418643017802424,153.86878975029137 L 48.973524041013306,139.69777015203633 L 35.025205946562814,133.6052401379796 L 48.973524041013306,127.51271012392286 L 43.418643017802424,113.34169052566781 L 57.58966261605747,118.89657154887868 Z" fill="none" stroke="#FFD700" stroke-width="1.2252728942433713" /><path d="M 127.36438526022842,104.9482534544282 L 133.45691527428514,118.89657154887868 L 147.6279348725402,113.34169052566781 L 142.0730538493293,127.51271012392286 L 156.0213719437798,133.6052401379796 L 142.0730538493293,139.69777015203633 L 147.6279348725402,153.86878975029137 L 133.45691527428514,148.3139087270805 L 127.36438526022842,162.262226821531 L 121.27185524617168,148.3139087270805 L 107.10083564791664,153.86878975029137 L 112.65571667112752,139.69777015203633 L 98.70739857667702,133.6052401379796 L 112.65571667112751,127.51271012392286 L 107.10083564791663,113.34169052566781 L 121.27185524617167,118.89657154887868 Z" fill="none" stroke="#FFD700" stroke-width="1.2252728942433713" /><path d="M 191.04657789034263,104.9482534544282 L 197.13910790439937,118.89657154887868 L 211.3101275026544,113.34169052566781 L 205.75524647944354,127.51271012392286 L 219.70356457389403,133.6052401379796 L 205.75524647944354,139.69777015203633 L 211.3101275026544,153.86878975029137 L 197.13910790439937,148.3139087270805 L 191.04657789034263,162.262226821531 L 184.9540478762859,148.3139087270805 L 170.78302827803086,153.86878975029137 L 176.33790930124172,139.69777015203633 L 162.38959120679124,133.6052401379796 L 176.33790930124172,127.51271012392286 L 170.78302827803086,113.34169052566781 L 184.9540478762859,118.89657154887868 Z" fill="none" stroke="#FFD700" stroke-width="1.2252728942433713" /><path d="M 254.72877052045683,104.9482534544282 L 260.82130053451357,118.89657154887868 L 274.9923201327686,113.34169052566781 L 269.4374391095577,127.51271012392286 L 283.3857572040082,133.6052401379796 L 269.4374391095577,139.69777015203633 L 274.9923201327686,153.86878975029137 L 260.82130053451357,148.3139087270805 L 254.72877052045683,162.262226821531 L 248.6362405064001,148.3139087270805 L 234.46522090814506,153.86878975029137 L 240.02010193135592,139.69777015203633 L 226.07178383690544,133.6052401379796 L 240.02010193135592,127.51271012392286 L 234.46522090814506,113.34169052566781 L 248.6362405064001,118.89657154887868 Z" fill="none" stroke="#FFD700" stroke-width="1.2252728942433713" /><path d="M 318.41096315057104,104.9482534544282 L 324.50349316462774,118.89657154887868 L 338.67451276288284,113.34169052566781 L 333.11963173967195,127.51271012392286 L 347.06794983412243,133.6052401379796 L 333.11963173967195,139.69777015203633 L 338.67451276288284,153.86878975029137 L 324.50349316462774,148.3139087270805 L 318.41096315057104,162.262226821531 L 312.31843313651433,148.3139087270805 L 298.14741353825923,153.86878975029137 L 303.7022945614701,139.69777015203633 L 289.75397646701964,133.6052401379796 L 303.7022945614701,127.51271012392286 L 298.14741353825923,113.34169052566781 L 312.3184331365143,118.89657154887868 Z" fill="none" stroke="#FFD700" stroke-width="1.2252728942433713" /><path d="M 382.09315578068527,104.9482534544282 L 388.18568579474197,118.89657154887868 L 402.35670539299707,113.34169052566781 L 396.8018243697862,127.51271012392286 L 410.75014246423666,133.6052401379796 L 396.8018243697862,139.69777015203633 L 402.35670539299707,153.86878975029137 L 388.18568579474197,148.3139087270805 L 382.09315578068527,162.262226821531 L 376.00062576662856,148.3139087270805 L 361.82960616837346,153.86878975029137 L 367.38448719158436,139.69777015203633 L 353.43616909713387,133.6052401379796 L 367.38448719158436,127.51271012392286 L 361.82960616837346,113.34169052566781 L 376.0006257666285,118.89657154887868 Z" fill="none" stroke="#FFD700" stroke-width="1.2252728942433713" /><path d="M 445.77534841079944,104.9482534544282 L 451.86787842485614,118.89657154887868 L 466.03889802311124,113.34169052566781 L 460.48401699990035,127.51271012392286 L 474.43233509435083,133.6052401379796 L 460.48401699990035,139.69777015203633 L 466.03889802311124,153.86878975029137 L 451.86787842485614,148.3139087270805 L 445.77534841079944,162.262226821531 L 439.68281839674273,148.3139087270805 L 425.51179879848763,153.86878975029137 L 431.06667982169853,139.69777015203633 L 417.11836172724804,133.6052401379796 L 431.06667982169853,127.51271012392286 L 425.51179879848763,113.34169052566781 L 439.6828183967427,118.89657154887868 Z" fill="none" stroke="#FFD700" stroke-width="1.2252728942433713" /><path d="M 509.45754104091367,104.9482534544282 L 515.5500710549704,118.89657154887868 L 529.7210906532255,113.34169052566781 L 524.1662096300146,127.51271012392286 L 538.114527724465,133.6052401379796 L 524.1662096300146,139.69777015203633 L 529.7210906532255,153.86878975029137 L 515.5500710549704,148.3139087270805 L 509.45754104091367,162.262226821531 L 503.36501102685696,148.3139087270805 L 489.19399142860186,153.86878975029137 L 494.74887245181276,139.69777015203633 L 480.8005543573623,133.6052401379796 L 494.74887245181276,127.51271012392286 L 489.19399142860186,113.34169052566781 L 503.3650110268569,118.89657154887868 Z" fill="none" stroke="#FFD700" stroke-width="1.2252728942433713" /><path d="M 573.1397336710279,104.9482534544282 L 579.2322636850846,118.89657154887868 L 593.4032832833396,113.34169052566781 L 587.8484022601288,127.51271012392286 L 601.7967203545793,133.6052401379796 L 587.8484022601288,139.69777015203633 L 593.4032832833396,153.86878975029137 L 579.2322636850846,148.3139087270805 L 573.1397336710279,162.262226821531 L 567.0472036569712,148.3139087270805 L 552.8761840587161,153.86878975029137 L 558.431065081927,139.69777015203633 L 544.4827469874765,133.6052401379796 L 558.431065081927,127.51271012392286 L 552.8761840587161,113.34169052566781 L 567.0472036569712,118.89657154887868 Z" fill="none" stroke="#FFD700" stroke-width="1.2252728942433713" /><path d="M -31.841096315057104,160.0970322721071 L -25.74856630100037,174.04535036655759 L -11.57754670274532,168.49046934334672 L -17.132427725956198,182.66148894160176 L -3.1841096315057094,188.7540189556585 L -17.132427725956198,194.84654896971523 L -11.57754670274532,209.01756856797027 L -25.74856630100037,203.4626875447594 L -31.841096315057104,217.4110056392099 L -37.933626329113835,203.4626875447594 L -52.104645927368885,209.01756856797027 L -46.54976490415801,194.84654896971523 L -60.498082998608496,188.7540189556585 L -46.54976490415801,182.66148894160176 L -52.10464592736889,168.49046934334672 L -37.93362632911385,174.04535036655759 Z" fill="none" stroke="#FFD700" stroke-width="1.2252728942433713" /><path d="M 31.841096315057104,160.0970322721071 L 37.933626329113835,174.04535036655759 L 52.10464592736889,168.49046934334672 L 46.54976490415801,182.66148894160176 L 60.498082998608496,188.7540189556585 L 46.54976490415801,194.84654896971523 L 52.10464592736889,209.01756856797027 L 37.933626329113835,203.4626875447594 L 31.841096315057104,217.4110056392099 L 25.748566301000373,203.4626875447594 L 11.577546702745323,209.01756856797027 L 17.1324277259562,194.84654896971523 L 3.1841096315057094,188.7540189556585 L 17.132427725956198,182.66148894160176 L 11.577546702745316,168.49046934334672 L 25.748566301000363,174.04535036655759 Z" fill="none" stroke="#FFD700" stroke-width="1.2252728942433713" /><path d="M 95.52328894517132,160.0970322721071 L 101.61581895922805,174.04535036655759 L 115.7868385574831,168.49046934334672 L 110.23195753427223,182.66148894160176 L 124.18027562872271,188.7540189556585 L 110.23195753427223,194.84654896971523 L 115.7868385574831,209.01756856797027 L 101.61581895922805,203.4626875447594 L 95.52328894517132,217.4110056392099 L 89.43075893111458,203.4626875447594 L 75.25973933285954,209.01756856797027 L 80.8146203560704,194.84654896971523 L 66.86630226161992,188.7540189556585 L 80.8146203560704,182.66148894160176 L 75.25973933285952,168.49046934334672 L 89.43075893111458,174.04535036655759 Z" fill="none" stroke="#FFD700" stroke-width="1.2252728942433713" /><path d="M 159.20548157528552,160.0970322721071 L 165.29801158934225,174.04535036655759 L 179.4690311875973,168.49046934334672 L 173.91415016438643,182.66148894160176 L 187.8624682588369,188.7540189556585 L 173.91415016438643,194.84654896971523 L 179.4690311875973,209.01756856797027 L 165.29801158934225,203.4626875447594 L 159.20548157528552,217.4110056392099 L 153.11295156122878,203.4626875447594 L 138.94193196297374,209.01756856797027 L 144.4968129861846,194.84654896971523 L 130.54849489173412,188.7540189556585 L 144.4968129861846,182.66148894160176 L 138.94193196297374,168.49046934334672 L 153.11295156122878,174.04535036655759 Z" fill="none" stroke="#FFD700" stroke-width="1.2252728942433713" /><path d="M 222.88767420539972,160.0970322721071 L 228.98020421945645,174.04535036655759 L 243.1512238177115,168.49046934334672 L 237.59634279450063,182.66148894160176 L 251.5446608889511,188.7540189556585 L 237.59634279450063,194.84654896971523 L 243.1512238177115,209.01756856797027 L 228.98020421945645,203.4626875447594 L 222.88767420539972,217.4110056392099 L 216.79514419134298,203.4626875447594 L 202.62412459308794,209.01756856797027 L 208.1790056162988,194.84654896971523 L 194.23068752184832,188.7540189556585 L 208.1790056162988,182.66148894160176 L 202.62412459308794,168.49046934334672 L 216.79514419134298,174.04535036655759 Z" fill="none" stroke="#FFD700" stroke-width="1.2252728942433713" /><path d="M 286.56986683551395,160.0970322721071 L 292.66239684957065,174.04535036655759 L 306.83341644782575,168.49046934334672 L 301.27853542461486,182.66148894160176 L 315.22685351906534,188.7540189556585 L 301.27853542461486,194.84654896971523 L 306.83341644782575,209.01756856797027 L 292.66239684957065,203.4626875447594 L 286.56986683551395,217.4110056392099 L 280.47733682145724,203.4626875447594 L 266.30631722320214,209.01756856797027 L 271.86119824641304,194.84654896971523 L 257.91288015196255,188.7540189556585 L 271.86119824641304,182.66148894160176 L 266.30631722320214,168.49046934334672 L 280.4773368214572,174.04535036655759 Z" fill="none" stroke="#FFD700" stroke-width="1.2252728942433713" /><path d="M 350.2520594656282,160.0970322721071 L 356.3445894796849,174.04535036655759 L 370.51560907794,168.49046934334672 L 364.9607280547291,182.66148894160176 L 378.9090461491796,188.7540189556585 L 364.9607280547291,194.84654896971523 L 370.51560907794,209.01756856797027 L 356.3445894796849,203.4626875447594 L 350.2520594656282,217.4110056392099 L 344.1595294515715,203.4626875447594 L 329.9885098533164,209.01756856797027 L 335.54339087652727,194.84654896971523 L 321.5950727820768,188.7540189556585 L 335.54339087652727,182.66148894160176 L 329.9885098533164,168.49046934334672 L 344.1595294515714,174.04535036655759 Z" fill="none" stroke="#FFD700" stroke-width="1.2252728942433713" /><path d="M 413.93425209574235,160.0970322721071 L 420.02678210979906,174.04535036655759 L 434.19780170805416,168.49046934334672 L 428.64292068484326,182.66148894160176 L 442.59123877929375,188.7540189556585 L 428.64292068484326,194.84654896971523 L 434.19780170805416,209.01756856797027 L 420.02678210979906,203.4626875447594 L 413.93425209574235,217.4110056392099 L 407.84172208168565,203.4626875447594 L 393.67070248343055,209.01756856797027 L 399.22558350664144,194.84654896971523 L 385.27726541219096,188.7540189556585 L 399.22558350664144,182.66148894160176 L 393.67070248343055,168.49046934334672 L 407.8417220816856,174.04535036655759 Z" fill="none" stroke="#FFD700" stroke-width="1.2252728942433713" /><path d="M 477.6164447258566,160.0970322721071 L 483.7089747399133,174.04535036655759 L 497.8799943381684,168.49046934334672 L 492.3251133149575,182.66148894160176 L 506.273431409408,188.7540189556585 L 492.3251133149575,194.84654896971523 L 497.8799943381684,209.01756856797027 L 483.7089747399133,203.4626875447594 L 477.6164447258566,217.4110056392099 L 471.5239147117999,203.4626875447594 L 457.3528951135448,209.01756856797027 L 462.9077761367557,194.84654896971523 L 448.9594580423052,188.7540189556585 L 462.9077761367557,182.66148894160176 L 457.3528951135448,168.49046934334672 L 471.5239147117998,174.04535036655759 Z" fill="none" stroke="#FFD700" stroke-width="1.2252728942433713" /><path d="M 541.2986373559708,160.0970322721071 L 547.3911673700275,174.04535036655759 L 561.5621869682825,168.49046934334672 L 556.0073059450716,182.66148894160176 L 569.9556240395221,188.7540189556585 L 556.0073059450716,194.84654896971523 L 561.5621869682825,209.01756856797027 L 547.3911673700275,203.4626875447594 L 541.2986373559708,217.4110056392099 L 535.206107341914,203.4626875447594 L 521.035087743659,209.01756856797027 L 526.5899687668699,194.84654896971523 L 512.6416506724194,188.7540189556585 L 526.5899687668699,182.66148894160176 L 521.035087743659,168.49046934334672 L 535.206107341914,174.04535036655759 Z" fill="none" stroke="#FFD700" stroke-width="1.2252728942433713" /><path d="M 1.754734350760977e-15,215.24581108978603 L 6.092530014056734,229.19412918423652 L 20.263549612311785,223.63924816102565 L 14.708668589100906,237.8102677592807 L 28.656986683551395,243.90279777333743 L 14.708668589100906,249.99532778739416 L 20.263549612311785,264.1663473856492 L 6.092530014056734,258.6114663624383 L 1.754734350760977e-15,272.5597844568888 L -6.092530014056732,258.6114663624383 L -20.26354961231178,264.1663473856492 L -14.708668589100903,249.99532778739416 L -28.656986683551395,243.90279777333743 L -14.708668589100904,237.8102677592807 L -20.263549612311788,223.63924816102565 L -6.0925300140567415,229.19412918423652 Z" fill="none" stroke="#FFD700" stroke-width="1.2252728942433713" /><path d="M 63.68219263011421,215.24581108978603 L 69.77472264417094,229.19412918423652 L 83.945742242426,223.63924816102565 L 78.39086121921511,237.8102677592807 L 92.3391793136656,243.90279777333743 L 78.39086121921511,249.99532778739416 L 83.945742242426,264.1663473856492 L 69.77472264417094,258.6114663624383 L 63.68219263011421,272.5597844568888 L 57.589662616057474,258.6114663624383 L 43.418643017802424,264.1663473856492 L 48.973524041013306,249.99532778739416 L 35.025205946562814,243.90279777333743 L 48.973524041013306,237.8102677592807 L 43.418643017802424,223.63924816102565 L 57.58966261605747,229.19412918423652 Z" fill="none" stroke="#FFD700" stroke-width="1.2252728942433713" /><path d="M 127.36438526022842,215.24581108978603 L 133.45691527428514,229.19412918423652 L 147.6279348725402,223.63924816102565 L 142.0730538493293,237.8102677592807 L 156.0213719437798,243.90279777333743 L 142.0730538493293,249.99532778739416 L 147.6279348725402,264.1663473856492 L 133.45691527428514,258.6114663624383 L 127.36438526022842,272.5597844568888 L 121.27185524617168,258.6114663624383 L 107.10083564791664,264.1663473856492 L 112.65571667112752,249.99532778739416 L 98.70739857667702,243.90279777333743 L 112.65571667112751,237.8102677592807 L 107.10083564791663,223.63924816102565 L 121.27185524617167,229.19412918423652 Z" fill="none" stroke="#FFD700" stroke-width="1.2252728942433713" /><path d="M 191.04657789034263,215.24581108978603 L 197.13910790439937,229.19412918423652 L 211.3101275026544,223.63924816102565 L 205.75524647944354,237.8102677592807 L 219.70356457389403,243.90279777333743 L 205.75524647944354,249.99532778739416 L 211.3101275026544,264.1663473856492 L 197.13910790439937,258.6114663624383 L 191.04657789034263,272.5597844568888 L 184.9540478762859,258.6114663624383 L 170.78302827803086,264.1663473856492 L 176.33790930124172,249.99532778739416 L 162.38959120679124,243.90279777333743 L 176.33790930124172,237.8102677592807 L 170.78302827803086,223.63924816102565 L 184.9540478762859,229.19412918423652 Z" fill="none" stroke="#FFD700" stroke-width="1.2252728942433713" /><path d="M 254.72877052045683,215.24581108978603 L 260.82130053451357,229.19412918423652 L 274.9923201327686,223.63924816102565 L 269.4374391095577,237.8102677592807 L 283.3857572040082,243.90279777333743 L 269.4374391095577,249.99532778739416 L 274.9923201327686,264.1663473856492 L 260.82130053451357,258.6114663624383 L 254.72877052045683,272.5597844568888 L 248.6362405064001,258.6114663624383 L 234.46522090814506,264.1663473856492 L 240.02010193135592,249.99532778739416 L 226.07178383690544,243.90279777333743 L 240.02010193135592,237.8102677592807 L 234.46522090814506,223.63924816102565 L 248.6362405064001,229.19412918423652 Z" fill="none" stroke="#FFD700" stroke-width="1.2252728942433713" /><path d="M 318.41096315057104,215.24581108978603 L 324.50349316462774,229.19412918423652 L 338.67451276288284,223.63924816102565 L 333.11963173967195,237.8102677592807 L 347.06794983412243,243.90279777333743 L 333.11963173967195,249.99532778739416 L 338.67451276288284,264.1663473856492 L 324.50349316462774,258.6114663624383 L 318.41096315057104,272.5597844568888 L 312.31843313651433,258.6114663624383 L 298.14741353825923,264.1663473856492 L 303.7022945614701,249.99532778739416 L 289.75397646701964,243.90279777333743 L 303.7022945614701,237.8102677592807 L 298.14741353825923,223.63924816102565 L 312.3184331365143,229.19412918423652 Z" fill="none" stroke="#FFD700" stroke-width="1.2252728942433713" /><path d="M 382.09315578068527,215.24581108978603 L 388.18568579474197,229.19412918423652 L 402.35670539299707,223.63924816102565 L 396.8018243697862,237.8102677592807 L 410.75014246423666,243.90279777333743 L 396.8018243697862,249.99532778739416 L 402.35670539299707,264.1663473856492 L 388.18568579474197,258.6114663624383 L 382.09315578068527,272.5597844568888 L 376.00062576662856,258.6114663624383 L 361.82960616837346,264.1663473856492 L 367.38448719158436,249.99532778739416 L 353.43616909713387,243.90279777333743 L 367.38448719158436,237.8102677592807 L 361.82960616837346,223.63924816102565 L 376.0006257666285,229.19412918423652 Z" fill="none" stroke="#FFD700" stroke-width="1.2252728942433713" /><path d="M 445.77534841079944,215.24581108978603 L 451.86787842485614,229.19412918423652 L 466.03889802311124,223.63924816102565 L 460.48401699990035,237.8102677592807 L 474.43233509435083,243.90279777333743 L 460.48401699990035,249.99532778739416 L 466.03889802311124,264.1663473856492 L 451.86787842485614,258.6114663624383 L 445.77534841079944,272.5597844568888 L 439.68281839674273,258.6114663624383 L 425.51179879848763,264.1663473856492 L 431.06667982169853,249.99532778739416 L 417.11836172724804,243.90279777333743 L 431.06667982169853,237.8102677592807 L 425.51179879848763,223.63924816102565 L 439.6828183967427,229.19412918423652 Z" fill="none" stroke="#FFD700" stroke-width="1.2252728942433713" /><path d="M 509.45754104091367,215.24581108978603 L 515.5500710549704,229.19412918423652 L 529.7210906532255,223.63924816102565 L 524.1662096300146,237.8102677592807 L 538.114527724465,243.90279777333743 L 524.1662096300146,249.99532778739416 L 529.7210906532255,264.1663473856492 L 515.5500710549704,258.6114663624383 L 509.45754104091367,272.5597844568888 L 503.36501102685696,258.6114663624383 L 489.19399142860186,264.1663473856492 L 494.74887245181276,249.99532778739416 L 480.8005543573623,243.90279777333743 L 494.74887245181276,237.8102677592807 L 489.19399142860186,223.63924816102565 L 503.3650110268569,229.19412918423652 Z" fill="none" stroke="#FFD700" stroke-width="1.2252728942433713" /><path d="M 573.1397336710279,215.24581108978603 L 579.2322636850846,229.19412918423652 L 593.4032832833396,223.63924816102565 L 587.8484022601288,237.8102677592807 L 601.7967203545793,243.90279777333743 L 587.8484022601288,249.99532778739416 L 593.4032832833396,264.1663473856492 L 579.2322636850846,258.6114663624383 L 573.1397336710279,272.5597844568888 L 567.0472036569712,258.6114663624383 L 552.8761840587161,264.1663473856492 L 558.431065081927,249.99532778739416 L 544.4827469874765,243.90279777333743 L 558.431065081927,237.8102677592807 L 552.8761840587161,223.63924816102565 L 567.0472036569712,229.19412918423652 Z" fill="none" stroke="#FFD700" stroke-width="1.2252728942433713" /><path d="M -31.841096315057104,270.39458990746493 L -25.74856630100037,284.3429080019154 L -11.57754670274532,278.7880269787045 L -17.132427725956198,292.9590465769596 L -3.1841096315057094,299.0515765910163 L -17.132427725956198,305.14410660507303 L -11.57754670274532,319.31512620332813 L -25.74856630100037,313.76024518011724 L -31.841096315057104,327.7085632745677 L -37.933626329113835,313.76024518011724 L -52.104645927368885,319.31512620332813 L -46.54976490415801,305.1441066050731 L -60.498082998608496,299.0515765910163 L -46.54976490415801,292.95904657695957 L -52.10464592736889,278.7880269787045 L -37.93362632911385,284.3429080019154 Z" fill="none" stroke="#FFD700" stroke-width="1.2252728942433713" /><path d="M 31.841096315057104,270.39458990746493 L 37.933626329113835,284.3429080019154 L 52.10464592736889,278.7880269787045 L 46.54976490415801,292.9590465769596 L 60.498082998608496,299.0515765910163 L 46.54976490415801,305.14410660507303 L 52.10464592736889,319.31512620332813 L 37.933626329113835,313.76024518011724 L 31.841096315057104,327.7085632745677 L 25.748566301000373,313.76024518011724 L 11.577546702745323,319.31512620332813 L 17.1324277259562,305.1441066050731 L 3.1841096315057094,299.0515765910163 L 17.132427725956198,292.95904657695957 L 11.577546702745316,278.7880269787045 L 25.748566301000363,284.3429080019154 Z" fill="none" stroke="#FFD700" stroke-width="1.2252728942433713" /><path d="M 95.52328894517132,270.39458990746493 L 101.61581895922805,284.3429080019154 L 115.7868385574831,278.7880269787045 L 110.23195753427223,292.9590465769596 L 124.18027562872271,299.0515765910163 L 110.23195753427223,305.14410660507303 L 115.7868385574831,319.31512620332813 L 101.61581895922805,313.76024518011724 L 95.52328894517132,327.7085632745677 L 89.43075893111458,313.76024518011724 L 75.25973933285954,319.31512620332813 L 80.8146203560704,305.1441066050731 L 66.86630226161992,299.0515765910163 L 80.8146203560704,292.95904657695957 L 75.25973933285952,278.7880269787045 L 89.43075893111458,284.3429080019154 Z" fill="none" stroke="#FFD700" stroke-width="1.2252728942433713" /><path d="M 159.20548157528552,270.39458990746493 L 165.29801158934225,284.3429080019154 L 179.4690311875973,278.7880269787045 L 173.91415016438643,292.9590465769596 L 187.8624682588369,299.0515765910163 L 173.91415016438643,305.14410660507303 L 179.4690311875973,319.31512620332813 L 165.29801158934225,313.76024518011724 L 159.20548157528552,327.7085632745677 L 153.11295156122878,313.76024518011724 L 138.94193196297374,319.31512620332813 L 144.4968129861846,305.1441066050731 L 130.54849489173412,299.0515765910163 L 144.4968129861846,292.95904657695957 L 138.94193196297374,278.7880269787045 L 153.11295156122878,284.3429080019154 Z" fill="none" stroke="#FFD700" stroke-width="1.2252728942433713" /><path d="M 222.88767420539972,270.39458990746493 L 228.98020421945645,284.3429080019154 L 243.1512238177115,278.7880269787045 L 237.59634279450063,292.9590465769596 L 251.5446608889511,299.0515765910163 L 237.59634279450063,305.14410660507303 L 243.1512238177115,319.31512620332813 L 228.98020421945645,313.76024518011724 L 222.88767420539972,327.7085632745677 L 216.79514419134298,313.76024518011724 L 202.62412459308794,319.31512620332813 L 208.1790056162988,305.1441066050731 L 194.23068752184832,299.0515765910163 L 208.1790056162988,292.95904657695957 L 202.62412459308794,278.7880269787045 L 216.79514419134298,284.3429080019154 Z" fill="none" stroke="#FFD700" stroke-width="1.2252728942433713" /><path d="M 286.56986683551395,270.39458990746493 L 292.66239684957065,284.3429080019154 L 306.83341644782575,278.7880269787045 L 301.27853542461486,292.9590465769596 L 315.22685351906534,299.0515765910163 L 301.27853542461486,305.14410660507303 L 306.83341644782575,319.31512620332813 L 292.66239684957065,313.76024518011724 L 286.56986683551395,327.7085632745677 L 280.47733682145724,313.76024518011724 L 266.30631722320214,319.31512620332813 L 271.86119824641304,305.1441066050731 L 257.91288015196255,299.0515765910163 L 271.86119824641304,292.95904657695957 L 266.30631722320214,278.7880269787045 L 280.4773368214572,284.3429080019154 Z" fill="none" stroke="#FFD700" stroke-width="1.2252728942433713" /><path d="M 350.2520594656282,270.39458990746493 L 356.3445894796849,284.3429080019154 L 370.51560907794,278.7880269787045 L 364.9607280547291,292.9590465769596 L 378.9090461491796,299.0515765910163 L 364.9607280547291,305.14410660507303 L 370.51560907794,319.31512620332813 L 356.3445894796849,313.76024518011724 L 350.2520594656282,327.7085632745677 L 344.1595294515715,313.76024518011724 L 329.9885098533164,319.31512620332813 L 335.54339087652727,305.1441066050731 L 321.5950727820768,299.0515765910163 L 335.54339087652727,292.95904657695957 L 329.9885098533164,278.7880269787045 L 344.1595294515714,284.3429080019154 Z" fill="none" stroke="#FFD700" stroke-width="1.2252728942433713" /><path d="M 413.93425209574235,270.39458990746493 L 420.02678210979906,284.3429080019154 L 434.19780170805416,278.7880269787045 L 428.64292068484326,292.9590465769596 L 442.59123877929375,299.0515765910163 L 428.64292068484326,305.14410660507303 L 434.19780170805416,319.31512620332813 L 420.02678210979906,313.76024518011724 L 413.93425209574235,327.7085632745677 L 407.84172208168565,313.76024518011724 L 393.67070248343055,319.31512620332813 L 399.22558350664144,305.1441066050731 L 385.27726541219096,299.0515765910163 L 399.22558350664144,292.95904657695957 L 393.67070248343055,278.7880269787045 L 407.8417220816856,284.3429080019154 Z" fill="none" stroke="#FFD700" stroke-width="1.2252728942433713" /><path d="M 477.6164447258566,270.39458990746493 L 483.7089747399133,284.3429080019154 L 497.8799943381684,278.7880269787045 L 492.3251133149575,292.9590465769596 L 506.273431409408,299.0515765910163 L 492.3251133149575,305.14410660507303 L 497.8799943381684,319.31512620332813 L 483.7089747399133,313.76024518011724 L 477.6164447258566,327.7085632745677 L 471.5239147117999,313.76024518011724 L 457.3528951135448,319.31512620332813 L 462.9077761367557,305.1441066050731 L 448.9594580423052,299.0515765910163 L 462.9077761367557,292.95904657695957 L 457.3528951135448,278.7880269787045 L 471.5239147117998,284.3429080019154 Z" fill="none" stroke="#FFD700" stroke-width="1.2252728942433713" /><path d="M 541.2986373559708,270.39458990746493 L 547.3911673700275,284.3429080019154 L 561.5621869682825,278.7880269787045 L 556.0073059450716,292.9590465769596 L 569.9556240395221,299.0515765910163 L 556.0073059450716,305.14410660507303 L 561.5621869682825,319.31512620332813 L 547.3911673700275,313.76024518011724 L 541.2986373559708,327.7085632745677 L 535.206107341914,313.76024518011724 L 521.035087743659,319.31512620332813 L 526.5899687668699,305.1441066050731 L 512.6416506724194,299.0515765910163 L 526.5899687668699,292.95904657695957 L 521.035087743659,278.7880269787045 L 535.206107341914,284.3429080019154 Z" fill="none" stroke="#FFD700" stroke-width="1.2252728942433713" /><path d="M 1.754734350760977e-15,325.5433687251438 L 6.092530014056734,339.4916868195943 L 20.263549612311785,333.9368057963834 L 14.708668589100906,348.1078253946385 L 28.656986683551395,354.2003554086952 L 14.708668589100906,360.2928854227519 L 20.263549612311785,374.463905021007 L 6.092530014056734,368.9090239977961 L 1.754734350760977e-15,382.8573420922466 L -6.092530014056732,368.9090239977961 L -20.26354961231178,374.463905021007 L -14.708668589100903,360.29288542275197 L -28.656986683551395,354.2003554086952 L -14.708668589100904,348.10782539463844 L -20.263549612311788,333.9368057963834 L -6.0925300140567415,339.4916868195943 Z" fill="none" stroke="#FFD700" stroke-width="1.2252728942433713" /><path d="M 63.68219263011421,325.5433687251438 L 69.77472264417094,339.4916868195943 L 83.945742242426,333.9368057963834 L 78.39086121921511,348.1078253946385 L 92.3391793136656,354.2003554086952 L 78.39086121921511,360.2928854227519 L 83.945742242426,374.463905021007 L 69.77472264417094,368.9090239977961 L 63.68219263011421,382.8573420922466 L 57.589662616057474,368.9090239977961 L 43.418643017802424,374.463905021007 L 48.973524041013306,360.29288542275197 L 35.025205946562814,354.2003554086952 L 48.973524041013306,348.10782539463844 L 43.418643017802424,333.9368057963834 L 57.58966261605747,339.4916868195943 Z" fill="none" stroke="#FFD700" stroke-width="1.2252728942433713" /><path d="M 127.36438526022842,325.5433687251438 L 133.45691527428514,339.4916868195943 L 147.6279348725402,333.9368057963834 L 142.0730538493293,348.1078253946385 L 156.0213719437798,354.2003554086952 L 142.0730538493293,360.2928854227519 L 147.6279348725402,374.463905021007 L 133.45691527428514,368.9090239977961 L 127.36438526022842,382.8573420922466 L 121.27185524617168,368.9090239977961 L 107.10083564791664,374.463905021007 L 112.65571667112752,360.29288542275197 L 98.70739857667702,354.2003554086952 L 112.65571667112751,348.10782539463844 L 107.10083564791663,333.9368057963834 L 121.27185524617167,339.4916868195943 Z" fill="none" stroke="#FFD700" stroke-width="1.2252728942433713" /><path d="M 191.04657789034263,325.5433687251438 L 197.13910790439937,339.4916868195943 L 211.3101275026544,333.9368057963834 L 205.75524647944354,348.1078253946385 L 219.70356457389403,354.2003554086952 L 205.75524647944354,360.2928854227519 L 211.3101275026544,374.463905021007 L 197.13910790439937,368.9090239977961 L 191.04657789034263,382.8573420922466 L 184.9540478762859,368.9090239977961 L 170.78302827803086,374.463905021007 L 176.33790930124172,360.29288542275197 L 162.38959120679124,354.2003554086952 L 176.33790930124172,348.10782539463844 L 170.78302827803086,333.9368057963834 L 184.9540478762859,339.4916868195943 Z" fill="none" stroke="#FFD700" stroke-width="1.2252728942433713" /><path d="M 254.72877052045683,325.5433687251438 L 260.82130053451357,339.4916868195943 L 274.9923201327686,333.9368057963834 L 269.4374391095577,348.1078253946385 L 283.3857572040082,354.2003554086952 L 269.4374391095577,360.2928854227519 L 274.9923201327686,374.463905021007 L 260.82130053451357,368.9090239977961 L 254.72877052045683,382.8573420922466 L 248.6362405064001,368.9090239977961 L 234.46522090814506,374.463905021007 L 240.02010193135592,360.29288542275197 L 226.07178383690544,354.2003554086952 L 240.02010193135592,348.10782539463844 L 234.46522090814506,333.9368057963834 L 248.6362405064001,339.4916868195943 Z" fill="none" stroke="#FFD700" stroke-width="1.2252728942433713" /><path d="M 318.41096315057104,325.5433687251438 L 324.50349316462774,339.4916868195943 L 338.67451276288284,333.9368057963834 L 333.11963173967195,348.1078253946385 L 347.06794983412243,354.2003554086952 L 333.11963173967195,360.2928854227519 L 338.67451276288284,374.463905021007 L 324.50349316462774,368.9090239977961 L 318.41096315057104,382.8573420922466 L 312.31843313651433,368.9090239977961 L 298.14741353825923,374.463905021007 L 303.7022945614701,360.29288542275197 L 289.75397646701964,354.2003554086952 L 303.7022945614701,348.10782539463844 L 298.14741353825923,333.9368057963834 L 312.3184331365143,339.4916868195943 Z" fill="none" stroke="#FFD700" stroke-width="1.2252728942433713" /><path d="M 382.09315578068527,325.5433687251438 L 388.18568579474197,339.4916868195943 L 402.35670539299707,333.9368057963834 L 396.8018243697862,348.1078253946385 L 410.75014246423666,354.2003554086952 L 396.8018243697862,360.2928854227519 L 402.35670539299707,374.463905021007 L 388.18568579474197,368.9090239977961 L 382.09315578068527,382.8573420922466 L 376.00062576662856,368.9090239977961 L 361.82960616837346,374.463905021007 L 367.38448719158436,360.29288542275197 L 353.43616909713387,354.2003554086952 L 367.38448719158436,348.10782539463844 L 361.82960616837346,333.9368057963834 L 376.0006257666285,339.4916868195943 Z" fill="none" stroke="#FFD700" stroke-width="1.2252728942433713" /><path d="M 445.77534841079944,325.5433687251438 L 451.86787842485614,339.4916868195943 L 466.03889802311124,333.9368057963834 L 460.48401699990035,348.1078253946385 L 474.43233509435083,354.2003554086952 L 460.48401699990035,360.2928854227519 L 466.03889802311124,374.463905021007 L 451.86787842485614,368.9090239977961 L 445.77534841079944,382.8573420922466 L 439.68281839674273,368.9090239977961 L 425.51179879848763,374.463905021007 L 431.06667982169853,360.29288542275197 L 417.11836172724804,354.2003554086952 L 431.06667982169853,348.10782539463844 L 425.51179879848763,333.9368057963834 L 439.6828183967427,339.4916868195943 Z" fill="none" stroke="#FFD700" stroke-width="1.2252728942433713" /><path d="M 509.45754104091367,325.5433687251438 L 515.5500710549704,339.4916868195943 L 529.7210906532255,333.9368057963834 L 524.1662096300146,348.1078253946385 L 538.114527724465,354.2003554086952 L 524.1662096300146,360.2928854227519 L 529.7210906532255,374.463905021007 L 515.5500710549704,368.9090239977961 L 509.45754104091367,382.8573420922466 L 503.36501102685696,368.9090239977961 L 489.19399142860186,374.463905021007 L 494.74887245181276,360.29288542275197 L 480.8005543573623,354.2003554086952 L 494.74887245181276,348.10782539463844 L 489.19399142860186,333.9368057963834 L 503.3650110268569,339.4916868195943 Z" fill="none" stroke="#FFD700" stroke-width="1.2252728942433713" /><path d="M 573.1397336710279,325.5433687251438 L 579.2322636850846,339.4916868195943 L 593.4032832833396,333.9368057963834 L 587.8484022601288,348.1078253946385 L 601.7967203545793,354.2003554086952 L 587.8484022601288,360.2928854227519 L 593.4032832833396,374.463905021007 L 579.2322636850846,368.9090239977961 L 573.1397336710279,382.8573420922466 L 567.0472036569712,368.9090239977961 L 552.8761840587161,374.463905021007 L 558.431065081927,360.29288542275197 L 544.4827469874765,354.2003554086952 L 558.431065081927,348.10782539463844 L 552.8761840587161,333.9368057963834 L 567.0472036569712,339.4916868195943 Z" fill="none" stroke="#FFD700" stroke-width="1.2252728942433713" /><path d="M -31.841096315057104,380.69214754282274 L -25.74856630100037,394.6404656372732 L -11.57754670274532,389.0855846140623 L -17.132427725956198,403.2566042123174 L -3.1841096315057094,409.34913422637413 L -17.132427725956198,415.44166424043084 L -11.57754670274532,429.61268383868594 L -25.74856630100037,424.05780281547504 L -31.841096315057104,438.0061209099255 L -37.933626329113835,424.05780281547504 L -52.104645927368885,429.61268383868594 L -46.54976490415801,415.4416642404309 L -60.498082998608496,409.34913422637413 L -46.54976490415801,403.25660421231737 L -52.10464592736889,389.0855846140623 L -37.93362632911385,394.6404656372732 Z" fill="none" stroke="#FFD700" stroke-width="1.2252728942433713" /><path d="M 31.841096315057104,380.69214754282274 L 37.933626329113835,394.6404656372732 L 52.10464592736889,389.0855846140623 L 46.54976490415801,403.2566042123174 L 60.498082998608496,409.34913422637413 L 46.54976490415801,415.44166424043084 L 52.10464592736889,429.61268383868594 L 37.933626329113835,424.05780281547504 L 31.841096315057104,438.0061209099255 L 25.748566301000373,424.05780281547504 L 11.577546702745323,429.61268383868594 L 17.1324277259562,415.4416642404309 L 3.1841096315057094,409.34913422637413 L 17.132427725956198,403.25660421231737 L 11.577546702745316,389.0855846140623 L 25.748566301000363,394.6404656372732 Z" fill="none" stroke="#FFD700" stroke-width="1.2252728942433713" /><path d="M 95.52328894517132,380.69214754282274 L 101.61581895922805,394.6404656372732 L 115.7868385574831,389.0855846140623 L 110.23195753427223,403.2566042123174 L 124.18027562872271,409.34913422637413 L 110.23195753427223,415.44166424043084 L 115.7868385574831,429.61268383868594 L 101.61581895922805,424.05780281547504 L 95.52328894517132,438.0061209099255 L 89.43075893111458,424.05780281547504 L 75.25973933285954,429.61268383868594 L 80.8146203560704,415.4416642404309 L 66.86630226161992,409.34913422637413 L 80.8146203560704,403.25660421231737 L 75.25973933285952,389.0855846140623 L 89.43075893111458,394.6404656372732 Z" fill="none" stroke="#FFD700" stroke-width="1.2252728942433713" /><path d="M 159.20548157528552,380.69214754282274 L 165.29801158934225,394.6404656372732 L 179.4690311875973,389.0855846140623 L 173.91415016438643,403.2566042123174 L 187.8624682588369,409.34913422637413 L 173.91415016438643,415.44166424043084 L 179.4690311875973,429.61268383868594 L 165.29801158934225,424.05780281547504 L 159.20548157528552,438.0061209099255 L 153.11295156122878,424.05780281547504 L 138.94193196297374,429.61268383868594 L 144.4968129861846,415.4416642404309 L 130.54849489173412,409.34913422637413 L 144.4968129861846,403.25660421231737 L 138.94193196297374,389.0855846140623 L 153.11295156122878,394.6404656372732 Z" fill="none" stroke="#FFD700" stroke-width="1.2252728942433713" /><path d="M 222.88767420539972,380.69214754282274 L 228.98020421945645,394.6404656372732 L 243.1512238177115,389.0855846140623 L 237.59634279450063,403.2566042123174 L 251.5446608889511,409.34913422637413 L 237.59634279450063,415.44166424043084 L 243.1512238177115,429.61268383868594 L 228.98020421945645,424.05780281547504 L 222.88767420539972,438.0061209099255 L 216.79514419134298,424.05780281547504 L 202.62412459308794,429.61268383868594 L 208.1790056162988,415.4416642404309 L 194.23068752184832,409.34913422637413 L 208.1790056162988,403.25660421231737 L 202.62412459308794,389.0855846140623 L 216.79514419134298,394.6404656372732 Z" fill="none" stroke="#FFD700" stroke-width="1.2252728942433713" /><path d="M 286.56986683551395,380.69214754282274 L 292.66239684957065,394.6404656372732 L 306.83341644782575,389.0855846140623 L 301.27853542461486,403.2566042123174 L 315.22685351906534,409.34913422637413 L 301.27853542461486,415.44166424043084 L 306.83341644782575,429.61268383868594 L 292.66239684957065,424.05780281547504 L 286.56986683551395,438.0061209099255 L 280.47733682145724,424.05780281547504 L 266.30631722320214,429.61268383868594 L 271.86119824641304,415.4416642404309 L 257.91288015196255,409.34913422637413 L 271.86119824641304,403.25660421231737 L 266.30631722320214,389.0855846140623 L 280.4773368214572,394.6404656372732 Z" fill="none" stroke="#FFD700" stroke-width="1.2252728942433713" /><path d="M 350.2520594656282,380.69214754282274 L 356.3445894796849,394.6404656372732 L 370.51560907794,389.0855846140623 L 364.9607280547291,403.2566042123174 L 378.9090461491796,409.34913422637413 L 364.9607280547291,415.44166424043084 L 370.51560907794,429.61268383868594 L 356.3445894796849,424.05780281547504 L 350.2520594656282,438.0061209099255 L 344.1595294515715,424.05780281547504 L 329.9885098533164,429.61268383868594 L 335.54339087652727,415.4416642404309 L 321.5950727820768,409.34913422637413 L 335.54339087652727,403.25660421231737 L 329.9885098533164,389.0855846140623 L 344.1595294515714,394.6404656372732 Z" fill="none" stroke="#FFD700" stroke-width="1.2252728942433713" /><path d="M 413.93425209574235,380.69214754282274 L 420.02678210979906,394.6404656372732 L 434.19780170805416,389.0855846140623 L 428.64292068484326,403.2566042123174 L 442.59123877929375,409.34913422637413 L 428.64292068484326,415.44166424043084 L 434.19780170805416,429.61268383868594 L 420.02678210979906,424.05780281547504 L 413.93425209574235,438.0061209099255 L 407.84172208168565,424.05780281547504 L 393.67070248343055,429.61268383868594 L 399.22558350664144,415.4416642404309 L 385.27726541219096,409.34913422637413 L 399.22558350664144,403.25660421231737 L 393.67070248343055,389.0855846140623 L 407.8417220816856,394.6404656372732 Z" fill="none" stroke="#FFD700" stroke-width="1.2252728942433713" /><path d="M 477.6164447258566,380.69214754282274 L 483.7089747399133,394.6404656372732 L 497.8799943381684,389.0855846140623 L 492.3251133149575,403.2566042123174 L 506.273431409408,409.34913422637413 L 492.3251133149575,415.44166424043084 L 497.8799943381684,429.61268383868594 L 483.7089747399133,424.05780281547504 L 477.6164447258566,438.0061209099255 L 471.5239147117999,424.05780281547504 L 457.3528951135448,429.61268383868594 L 462.9077761367557,415.4416642404309 L 448.9594580423052,409.34913422637413 L 462.9077761367557,403.25660421231737 L 457.3528951135448,389.0855846140623 L 471.5239147117998,394.6404656372732 Z" fill="none" stroke="#FFD700" stroke-width="1.2252728942433713" /><path d="M 541.2986373559708,380.69214754282274 L 547.3911673700275,394.6404656372732 L 561.5621869682825,389.0855846140623 L 556.0073059450716,403.2566042123174 L 569.9556240395221,409.34913422637413 L 556.0073059450716,415.44166424043084 L 561.5621869682825,429.61268383868594 L 547.3911673700275,424.05780281547504 L 541.2986373559708,438.0061209099255 L 535.206107341914,424.05780281547504 L 521.035087743659,429.61268383868594 L 526.5899687668699,415.4416642404309 L 512.6416506724194,409.34913422637413 L 526.5899687668699,403.25660421231737 L 521.035087743659,389.0855846140623 L 535.206107341914,394.6404656372732 Z" fill="none" stroke="#FFD700" stroke-width="1.2252728942433713" /><path d="M 1.754734350760977e-15,435.84092636050167 L 6.092530014056734,449.78924445495215 L 20.263549612311785,444.23436343174126 L 14.708668589100906,458.40538302999636 L 28.656986683551395,464.49791304405306 L 14.708668589100906,470.59044305810977 L 20.263549612311785,484.76146265636487 L 6.092530014056734,479.206581633154 L 1.754734350760977e-15,493.15489972760446 L -6.092530014056732,479.206581633154 L -20.26354961231178,484.76146265636487 L -14.708668589100903,470.5904430581098 L -28.656986683551395,464.49791304405306 L -14.708668589100904,458.4053830299963 L -20.263549612311788,444.23436343174126 L -6.0925300140567415,449.78924445495215 Z" fill="none" stroke="#FFD700" stroke-width="1.2252728942433713" /><path d="M 63.68219263011421,435.84092636050167 L 69.77472264417094,449.78924445495215 L 83.945742242426,444.23436343174126 L 78.39086121921511,458.40538302999636 L 92.3391793136656,464.49791304405306 L 78.39086121921511,470.59044305810977 L 83.945742242426,484.76146265636487 L 69.77472264417094,479.206581633154 L 63.68219263011421,493.15489972760446 L 57.589662616057474,479.206581633154 L 43.418643017802424,484.76146265636487 L 48.973524041013306,470.5904430581098 L 35.025205946562814,464.49791304405306 L 48.973524041013306,458.4053830299963 L 43.418643017802424,444.23436343174126 L 57.58966261605747,449.78924445495215 Z" fill="none" stroke="#FFD700" stroke-width="1.2252728942433713" /><path d="M 127.36438526022842,435.84092636050167 L 133.45691527428514,449.78924445495215 L 147.6279348725402,444.23436343174126 L 142.0730538493293,458.40538302999636 L 156.0213719437798,464.49791304405306 L 142.0730538493293,470.59044305810977 L 147.6279348725402,484.76146265636487 L 133.45691527428514,479.206581633154 L 127.36438526022842,493.15489972760446 L 121.27185524617168,479.206581633154 L 107.10083564791664,484.76146265636487 L 112.65571667112752,470.5904430581098 L 98.70739857667702,464.49791304405306 L 112.65571667112751,458.4053830299963 L 107.10083564791663,444.23436343174126 L 121.27185524617167,449.78924445495215 Z" fill="none" stroke="#FFD700" stroke-width="1.2252728942433713" /><path d="M 191.04657789034263,435.84092636050167 L 197.13910790439937,449.78924445495215 L 211.3101275026544,444.23436343174126 L 205.75524647944354,458.40538302999636 L 219.70356457389403,464.49791304405306 L 205.75524647944354,470.59044305810977 L 211.3101275026544,484.76146265636487 L 197.13910790439937,479.206581633154 L 191.04657789034263,493.15489972760446 L 184.9540478762859,479.206581633154 L 170.78302827803086,484.76146265636487 L 176.33790930124172,470.5904430581098 L 162.38959120679124,464.49791304405306 L 176.33790930124172,458.4053830299963 L 170.78302827803086,444.23436343174126 L 184.9540478762859,449.78924445495215 Z" fill="none" stroke="#FFD700" stroke-width="1.2252728942433713" /><path d="M 254.72877052045683,435.84092636050167 L 260.82130053451357,449.78924445495215 L 274.9923201327686,444.23436343174126 L 269.4374391095577,458.40538302999636 L 283.3857572040082,464.49791304405306 L 269.4374391095577,470.59044305810977 L 274.9923201327686,484.76146265636487 L 260.82130053451357,479.206581633154 L 254.72877052045683,493.15489972760446 L 248.6362405064001,479.206581633154 L 234.46522090814506,484.76146265636487 L 240.02010193135592,470.5904430581098 L 226.07178383690544,464.49791304405306 L 240.02010193135592,458.4053830299963 L 234.46522090814506,444.23436343174126 L 248.6362405064001,449.78924445495215 Z" fill="none" stroke="#FFD700" stroke-width="1.2252728942433713" /><path d="M 318.41096315057104,435.84092636050167 L 324.50349316462774,449.78924445495215 L 338.67451276288284,444.23436343174126 L 333.11963173967195,458.40538302999636 L 347.06794983412243,464.49791304405306 L 333.11963173967195,470.59044305810977 L 338.67451276288284,484.76146265636487 L 324.50349316462774,479.206581633154 L 318.41096315057104,493.15489972760446 L 312.31843313651433,479.206581633154 L 298.14741353825923,484.76146265636487 L 303.7022945614701,470.5904430581098 L 289.75397646701964,464.49791304405306 L 303.7022945614701,458.4053830299963 L 298.14741353825923,444.23436343174126 L 312.3184331365143,449.78924445495215 Z" fill="none" stroke="#FFD700" stroke-width="1.2252728942433713" /><path d="M 382.09315578068527,435.84092636050167 L 388.18568579474197,449.78924445495215 L 402.35670539299707,444.23436343174126 L 396.8018243697862,458.40538302999636 L 410.75014246423666,464.49791304405306 L 396.8018243697862,470.59044305810977 L 402.35670539299707,484.76146265636487 L 388.18568579474197,479.206581633154 L 382.09315578068527,493.15489972760446 L 376.00062576662856,479.206581633154 L 361.82960616837346,484.76146265636487 L 367.38448719158436,470.5904430581098 L 353.43616909713387,464.49791304405306 L 367.38448719158436,458.4053830299963 L 361.82960616837346,444.23436343174126 L 376.0006257666285,449.78924445495215 Z" fill="none" stroke="#FFD700" stroke-width="1.2252728942433713" /><path d="M 445.77534841079944,435.84092636050167 L 451.86787842485614,449.78924445495215 L 466.03889802311124,444.23436343174126 L 460.48401699990035,458.40538302999636 L 474.43233509435083,464.49791304405306 L 460.48401699990035,470.59044305810977 L 466.03889802311124,484.76146265636487 L 451.86787842485614,479.206581633154 L 445.77534841079944,493.15489972760446 L 439.68281839674273,479.206581633154 L 425.51179879848763,484.76146265636487 L 431.06667982169853,470.5904430581098 L 417.11836172724804,464.49791304405306 L 431.06667982169853,458.4053830299963 L 425.51179879848763,444.23436343174126 L 439.6828183967427,449.78924445495215 Z" fill="none" stroke="#FFD700" stroke-width="1.2252728942433713" /><path d="M 509.45754104091367,435.84092636050167 L 515.5500710549704,449.78924445495215 L 529.7210906532255,444.23436343174126 L 524.1662096300146,458.40538302999636 L 538.114527724465,464.49791304405306 L 524.1662096300146,470.59044305810977 L 529.7210906532255,484.76146265636487 L 515.5500710549704,479.206581633154 L 509.45754104091367,493.15489972760446 L 503.36501102685696,479.206581633154 L 489.19399142860186,484.76146265636487 L 494.74887245181276,470.5904430581098 L 480.8005543573623,464.49791304405306 L 494.74887245181276,458.4053830299963 L 489.19399142860186,444.23436343174126 L 503.3650110268569,449.78924445495215 Z" fill="none" stroke="#FFD700" stroke-width="1.2252728942433713" /><path d="M 573.1397336710279,435.84092636050167 L 579.2322636850846,449.78924445495215 L 593.4032832833396,444.23436343174126 L 587.8484022601288,458.40538302999636 L 601.7967203545793,464.49791304405306 L 587.8484022601288,470.59044305810977 L 593.4032832833396,484.76146265636487 L 579.2322636850846,479.206581633154 L 573.1397336710279,493.15489972760446 L 567.0472036569712,479.206581633154 L 552.8761840587161,484.76146265636487 L 558.431065081927,470.5904430581098 L 544.4827469874765,464.49791304405306 L 558.431065081927,458.4053830299963 L 552.8761840587161,444.23436343174126 L 567.0472036569712,449.78924445495215 Z" fill="none" stroke="#FFD700" stroke-width="1.2252728942433713" /><path d="M -31.841096315057104,490.98970517818054 L -25.74856630100037,504.938023272631 L -11.57754670274532,499.38314224942013 L -17.132427725956198,513.5541618476752 L -3.1841096315057094,519.6466918617319 L -17.132427725956198,525.7392218757886 L -11.57754670274532,539.9102414740437 L -25.74856630100037,534.3553604508328 L -31.841096315057104,548.3036785452833 L -37.933626329113835,534.3553604508328 L -52.104645927368885,539.9102414740437 L -46.54976490415801,525.7392218757886 L -60.498082998608496,519.6466918617319 L -46.54976490415801,513.5541618476752 L -52.10464592736889,499.38314224942013 L -37.93362632911385,504.938023272631 Z" fill="none" stroke="#FFD700" stroke-width="1.2252728942433713" /><path d="M 31.841096315057104,490.98970517818054 L 37.933626329113835,504.938023272631 L 52.10464592736889,499.38314224942013 L 46.54976490415801,513.5541618476752 L 60.498082998608496,519.6466918617319 L 46.54976490415801,525.7392218757886 L 52.10464592736889,539.9102414740437 L 37.933626329113835,534.3553604508328 L 31.841096315057104,548.3036785452833 L 25.748566301000373,534.3553604508328 L 11.577546702745323,539.9102414740437 L 17.1324277259562,525.7392218757886 L 3.1841096315057094,519.6466918617319 L 17.132427725956198,513.5541618476752 L 11.577546702745316,499.38314224942013 L 25.748566301000363,504.938023272631 Z" fill="none" stroke="#FFD700" stroke-width="1.2252728942433713" /><path d="M 95.52328894517132,490.98970517818054 L 101.61581895922805,504.938023272631 L 115.7868385574831,499.38314224942013 L 110.23195753427223,513.5541618476752 L 124.18027562872271,519.6466918617319 L 110.23195753427223,525.7392218757886 L 115.7868385574831,539.9102414740437 L 101.61581895922805,534.3553604508328 L 95.52328894517132,548.3036785452833 L 89.43075893111458,534.3553604508328 L 75.25973933285954,539.9102414740437 L 80.8146203560704,525.7392218757886 L 66.86630226161992,519.6466918617319 L 80.8146203560704,513.5541618476752 L 75.25973933285952,499.38314224942013 L 89.43075893111458,504.938023272631 Z" fill="none" stroke="#FFD700" stroke-width="1.2252728942433713" /><path d="M 159.20548157528552,490.98970517818054 L 165.29801158934225,504.938023272631 L 179.4690311875973,499.38314224942013 L 173.91415016438643,513.5541618476752 L 187.8624682588369,519.6466918617319 L 173.91415016438643,525.7392218757886 L 179.4690311875973,539.9102414740437 L 165.29801158934225,534.3553604508328 L 159.20548157528552,548.3036785452833 L 153.11295156122878,534.3553604508328 L 138.94193196297374,539.9102414740437 L 144.4968129861846,525.7392218757886 L 130.54849489173412,519.6466918617319 L 144.4968129861846,513.5541618476752 L 138.94193196297374,499.38314224942013 L 153.11295156122878,504.938023272631 Z" fill="none" stroke="#FFD700" stroke-width="1.2252728942433713" /><path d="M 222.88767420539972,490.98970517818054 L 228.98020421945645,504.938023272631 L 243.1512238177115,499.38314224942013 L 237.59634279450063,513.5541618476752 L 251.5446608889511,519.6466918617319 L 237.59634279450063,525.7392218757886 L 243.1512238177115,539.9102414740437 L 228.98020421945645,534.3553604508328 L 222.88767420539972,548.3036785452833 L 216.79514419134298,534.3553604508328 L 202.62412459308794,539.9102414740437 L 208.1790056162988,525.7392218757886 L 194.23068752184832,519.6466918617319 L 208.1790056162988,513.5541618476752 L 202.62412459308794,499.38314224942013 L 216.79514419134298,504.938023272631 Z" fill="none" stroke="#FFD700" stroke-width="1.2252728942433713" /><path d="M 286.56986683551395,490.98970517818054 L 292.66239684957065,504.938023272631 L 306.83341644782575,499.38314224942013 L 301.27853542461486,513.5541618476752 L 315.22685351906534,519.6466918617319 L 301.27853542461486,525.7392218757886 L 306.83341644782575,539.9102414740437 L 292.66239684957065,534.3553604508328 L 286.56986683551395,548.3036785452833 L 280.47733682145724,534.3553604508328 L 266.30631722320214,539.9102414740437 L 271.86119824641304,525.7392218757886 L 257.91288015196255,519.6466918617319 L 271.86119824641304,513.5541618476752 L 266.30631722320214,499.38314224942013 L 280.4773368214572,504.938023272631 Z" fill="none" stroke="#FFD700" stroke-width="1.2252728942433713" /><path d="M 350.2520594656282,490.98970517818054 L 356.3445894796849,504.938023272631 L 370.51560907794,499.38314224942013 L 364.9607280547291,513.5541618476752 L 378.9090461491796,519.6466918617319 L 364.9607280547291,525.7392218757886 L 370.51560907794,539.9102414740437 L 356.3445894796849,534.3553604508328 L 350.2520594656282,548.3036785452833 L 344.1595294515715,534.3553604508328 L 329.9885098533164,539.9102414740437 L 335.54339087652727,525.7392218757886 L 321.5950727820768,519.6466918617319 L 335.54339087652727,513.5541618476752 L 329.9885098533164,499.38314224942013 L 344.1595294515714,504.938023272631 Z" fill="none" stroke="#FFD700" stroke-width="1.2252728942433713" /><path d="M 413.93425209574235,490.98970517818054 L 420.02678210979906,504.938023272631 L 434.19780170805416,499.38314224942013 L 428.64292068484326,513.5541618476752 L 442.59123877929375,519.6466918617319 L 428.64292068484326,525.7392218757886 L 434.19780170805416,539.9102414740437 L 420.02678210979906,534.3553604508328 L 413.93425209574235,548.3036785452833 L 407.84172208168565,534.3553604508328 L 393.67070248343055,539.9102414740437 L 399.22558350664144,525.7392218757886 L 385.27726541219096,519.6466918617319 L 399.22558350664144,513.5541618476752 L 393.67070248343055,499.38314224942013 L 407.8417220816856,504.938023272631 Z" fill="none" stroke="#FFD700" stroke-width="1.2252728942433713" /><path d="M 477.6164447258566,490.98970517818054 L 483.7089747399133,504.938023272631 L 497.8799943381684,499.38314224942013 L 492.3251133149575,513.5541618476752 L 506.273431409408,519.6466918617319 L 492.3251133149575,525.7392218757886 L 497.8799943381684,539.9102414740437 L 483.7089747399133,534.3553604508328 L 477.6164447258566,548.3036785452833 L 471.5239147117999,534.3553604508328 L 457.3528951135448,539.9102414740437 L 462.9077761367557,525.7392218757886 L 448.9594580423052,519.6466918617319 L 462.9077761367557,513.5541618476752 L 457.3528951135448,499.38314224942013 L 471.5239147117998,504.938023272631 Z" fill="none" stroke="#FFD700" stroke-width="1.2252728942433713" /><path d="M 541.2986373559708,490.98970517818054 L 547.3911673700275,504.938023272631 L 561.5621869682825,499.38314224942013 L 556.0073059450716,513.5541618476752 L 569.9556240395221,519.6466918617319 L 556.0073059450716,525.7392218757886 L 561.5621869682825,539.9102414740437 L 547.3911673700275,534.3553604508328 L 541.2986373559708,548.3036785452833 L 535.206107341914,534.3553604508328 L 521.035087743659,539.9102414740437 L 526.5899687668699,525.7392218757886 L 512.6416506724194,519.6466918617319 L 526.5899687668699,513.5541618476752 L 521.035087743659,499.38314224942013 L 535.206107341914,504.938023272631 Z" fill="none" stroke="#FFD700" stroke-width="1.2252728942433713" /><line x1="28.656986683551395" y1="23.307682502621798" x2="35.025205946562814" y2="23.307682502621798" stroke="#FFD700" stroke-width="0.5"/><line x1="92.3391793136656" y1="23.307682502621798" x2="98.70739857667702" y2="23.307682502621798" stroke="#FFD700" stroke-width="0.5"/><line x1="156.0213719437798" y1="23.307682502621798" x2="162.38959120679124" y2="23.307682502621798" stroke="#FFD700" stroke-width="0.5"/><line x1="219.70356457389403" y1="23.307682502621798" x2="226.07178383690544" y2="23.307682502621798" stroke="#FFD700" stroke-width="0.5"/><line x1="283.3857572040082" y1="23.307682502621798" x2="289.75397646701964" y2="23.307682502621798" stroke="#FFD700" stroke-width="0.5"/><line x1="347.06794983412243" y1="23.307682502621798" x2="353.43616909713387" y2="23.307682502621798" stroke="#FFD700" stroke-width="0.5"/><line x1="410.75014246423666" y1="23.307682502621798" x2="417.11836172724804" y2="23.307682502621798" stroke="#FFD700" stroke-width="0.5"/><line x1="474.43233509435083" y1="23.307682502621798" x2="480.8005543573623" y2="23.307682502621798" stroke="#FFD700" stroke-width="0.5"/><line x1="60.498082998608496" y1="78.4564613203007" x2="66.86630226161992" y2="78.4564613203007" stroke="#FFD700" stroke-width="0.5"/><line x1="124.18027562872271" y1="78.4564613203007" x2="130.54849489173412" y2="78.4564613203007" stroke="#FFD700" stroke-width="0.5"/><line x1="187.8624682588369" y1="78.4564613203007" x2="194.23068752184832" y2="78.4564613203007" stroke="#FFD700" stroke-width="0.5"/><line x1="251.5446608889511" y1="78.4564613203007" x2="257.91288015196255" y2="78.4564613203007" stroke="#FFD700" stroke-width="0.5"/><line x1="315.22685351906534" y1="78.4564613203007" x2="321.5950727820768" y2="78.4564613203007" stroke="#FFD700" stroke-width="0.5"/><line x1="378.9090461491796" y1="78.4564613203007" x2="385.27726541219096" y2="78.4564613203007" stroke="#FFD700" stroke-width="0.5"/><line x1="442.59123877929375" y1="78.4564613203007" x2="448.9594580423052" y2="78.4564613203007" stroke="#FFD700" stroke-width="0.5"/><line x1="28.656986683551395" y1="133.6052401379796" x2="35.025205946562814" y2="133.6052401379796" stroke="#FFD700" stroke-width="0.5"/><line x1="92.3391793136656" y1="133.6052401379796" x2="98.70739857667702" y2="133.6052401379796" stroke="#FFD700" stroke-width="0.5"/><line x1="156.0213719437798" y1="133.6052401379796" x2="162.38959120679124" y2="133.6052401379796" stroke="#FFD700" stroke-width="0.5"/><line x1="219.70356457389403" y1="133.6052401379796" x2="226.07178383690544" y2="133.6052401379796" stroke="#FFD700" stroke-width="0.5"/><line x1="283.3857572040082" y1="133.6052401379796" x2="289.75397646701964" y2="133.6052401379796" stroke="#FFD700" stroke-width="0.5"/><line x1="347.06794983412243" y1="133.6052401379796" x2="353.43616909713387" y2="133.6052401379796" stroke="#FFD700" stroke-width="0.5"/><line x1="410.75014246423666" y1="133.6052401379796" x2="417.11836172724804" y2="133.6052401379796" stroke="#FFD700" stroke-width="0.5"/><line x1="474.43233509435083" y1="133.6052401379796" x2="480.8005543573623" y2="133.6052401379796" stroke="#FFD700" stroke-width="0.5"/><line x1="60.498082998608496" y1="188.7540189556585" x2="66.86630226161992" y2="188.7540189556585" stroke="#FFD700" stroke-width="0.5"/><line x1="124.18027562872271" y1="188.7540189556585" x2="130.54849489173412" y2="188.7540189556585" stroke="#FFD700" stroke-width="0.5"/><line x1="187.8624682588369" y1="188.7540189556585" x2="194.23068752184832" y2="188.7540189556585" stroke="#FFD700" stroke-width="0.5"/><line x1="251.5446608889511" y1="188.7540189556585" x2="257.91288015196255" y2="188.7540189556585" stroke="#FFD700" stroke-width="0.5"/><line x1="315.22685351906534" y1="188.7540189556585" x2="321.5950727820768" y2="188.7540189556585" stroke="#FFD700" stroke-width="0.5"/><line x1="378.9090461491796" y1="188.7540189556585" x2="385.27726541219096" y2="188.7540189556585" stroke="#FFD700" stroke-width="0.5"/><line x1="442.59123877929375" y1="188.7540189556585" x2="448.9594580423052" y2="188.7540189556585" stroke="#FFD700" stroke-width="0.5"/><line x1="28.656986683551395" y1="243.90279777333743" x2="35.025205946562814" y2="243.90279777333743" stroke="#FFD700" stroke-width="0.5"/><line x1="92.3391793136656" y1="243.90279777333743" x2="98.70739857667702" y2="243.90279777333743" stroke="#FFD700" stroke-width="0.5"/><line x1="156.0213719437798" y1="243.90279777333743" x2="162.38959120679124" y2="243.90279777333743" stroke="#FFD700" stroke-width="0.5"/><line x1="219.70356457389403" y1="243.90279777333743" x2="226.07178383690544" y2="243.90279777333743" stroke="#FFD700" stroke-width="0.5"/><line x1="283.3857572040082" y1="243.90279777333743" x2="289.75397646701964" y2="243.90279777333743" stroke="#FFD700" stroke-width="0.5"/><line x1="347.06794983412243" y1="243.90279777333743" x2="353.43616909713387" y2="243.90279777333743" stroke="#FFD700" stroke-width="0.5"/><line x1="410.75014246423666" y1="243.90279777333743" x2="417.11836172724804" y2="243.90279777333743" stroke="#FFD700" stroke-width="0.5"/><line x1="474.43233509435083" y1="243.90279777333743" x2="480.8005543573623" y2="243.90279777333743" stroke="#FFD700" stroke-width="0.5"/><line x1="60.498082998608496" y1="299.0515765910163" x2="66.86630226161992" y2="299.0515765910163" stroke="#FFD700" stroke-width="0.5"/><line x1="124.18027562872271" y1="299.0515765910163" x2="130.54849489173412" y2="299.0515765910163" stroke="#FFD700" stroke-width="0.5"/><line x1="187.8624682588369" y1="299.0515765910163" x2="194.23068752184832" y2="299.0515765910163" stroke="#FFD700" stroke-width="0.5"/><line x1="251.5446608889511" y1="299.0515765910163" x2="257.91288015196255" y2="299.0515765910163" stroke="#FFD700" stroke-width="0.5"/><line x1="315.22685351906534" y1="299.0515765910163" x2="321.5950727820768" y2="299.0515765910163" stroke="#FFD700" stroke-width="0.5"/><line x1="378.9090461491796" y1="299.0515765910163" x2="385.27726541219096" y2="299.0515765910163" stroke="#FFD700" stroke-width="0.5"/><line x1="442.59123877929375" y1="299.0515765910163" x2="448.9594580423052" y2="299.0515765910163" stroke="#FFD700" stroke-width="0.5"/><line x1="28.656986683551395" y1="354.2003554086952" x2="35.025205946562814" y2="354.2003554086952" stroke="#FFD700" stroke-width="0.5"/><line x1="92.3391793136656" y1="354.2003554086952" x2="98.70739857667702" y2="354.2003554086952" stroke="#FFD700" stroke-width="0.5"/><line x1="156.0213719437798" y1="354.2003554086952" x2="162.38959120679124" y2="354.2003554086952" stroke="#FFD700" stroke-width="0.5"/><line x1="219.70356457389403" y1="354.2003554086952" x2="226.07178383690544" y2="354.2003554086952" stroke="#FFD700" stroke-width="0.5"/><line x1="283.3857572040082" y1="354.2003554086952" x2="289.75397646701964" y2="354.2003554086952" stroke="#FFD700" stroke-width="0.5"/><line x1="347.06794983412243" y1="354.2003554086952" x2="353.43616909713387" y2="354.2003554086952" stroke="#FFD700" stroke-width="0.5"/><line x1="410.75014246423666" y1="354.2003554086952" x2="417.11836172724804" y2="354.2003554086952" stroke="#FFD700" stroke-width="0.5"/><line x1="474.43233509435083" y1="354.2003554086952" x2="480.8005543573623" y2="354.2003554086952" stroke="#FFD700" stroke-width="0.5"/><line x1="60.498082998608496" y1="409.34913422637413" x2="66.86630226161992" y2="409.34913422637413" stroke="#FFD700" stroke-width="0.5"/><line x1="124.18027562872271" y1="409.34913422637413" x2="130.54849489173412" y2="409.34913422637413" stroke="#FFD700" stroke-width="0.5"/><line x1="187.8624682588369" y1="409.34913422637413" x2="194.23068752184832" y2="409.34913422637413" stroke="#FFD700" stroke-width="0.5"/><line x1="251.5446608889511" y1="409.34913422637413" x2="257.91288015196255" y2="409.34913422637413" stroke="#FFD700" stroke-width="0.5"/><line x1="315.22685351906534" y1="409.34913422637413" x2="321.5950727820768" y2="409.34913422637413" stroke="#FFD700" stroke-width="0.5"/><line x1="378.9090461491796" y1="409.34913422637413" x2="385.27726541219096" y2="409.34913422637413" stroke="#FFD700" stroke-width="0.5"/><line x1="442.59123877929375" y1="409.34913422637413" x2="448.9594580423052" y2="409.34913422637413" stroke="#FFD700" stroke-width="0.5"/><line x1="28.656986683551395" y1="464.49791304405306" x2="35.025205946562814" y2="464.49791304405306" stroke="#FFD700" stroke-width="0.5"/><line x1="92.3391793136656" y1="464.49791304405306" x2="98.70739857667702" y2="464.49791304405306" stroke="#FFD700" stroke-width="0.5"/><line x1="156.0213719437798" y1="464.49791304405306" x2="162.38959120679124" y2="464.49791304405306" stroke="#FFD700" stroke-width="0.5"/><line x1="219.70356457389403" y1="464.49791304405306" x2="226.07178383690544" y2="464.49791304405306" stroke="#FFD700" stroke-width="0.5"/><line x1="283.3857572040082" y1="464.49791304405306" x2="289.75397646701964" y2="464.49791304405306" stroke="#FFD700" stroke-width="0.5"/><line x1="347.06794983412243" y1="464.49791304405306" x2="353.43616909713387" y2="464.49791304405306" stroke="#FFD700" stroke-width="0.5"/><line x1="410.75014246423666" y1="464.49791304405306" x2="417.11836172724804" y2="464.49791304405306" stroke="#FFD700" stroke-width="0.5"/><line x1="474.43233509435083" y1="464.49791304405306" x2="480.8005543573623" y2="464.49791304405306" stroke="#FFD700" stroke-width="0.5"/></g></svg>