<svg xmlns="http://www.w3.org/2000/svg" width="512" height="512" viewBox="0 0 512 512"><rect x="0" y="0" width="512" height="512" fill="#000000"/><g opacity="0.12864528302040198"><path d="M -37.09361831945835,-70.47787480697087 L -29.996061730792903,-54.22863569552499 L -13.487384172267255,-60.699852466649446 L -19.95860094339171,-44.1911749081238 L -3.7093618319458344,-37.09361831945835 L -19.95860094339171,-29.996061730792903 L -13.487384172267255,-13.487384172267259 L -29.996061730792903,-19.95860094339171 L -37.09361831945835,-3.7093618319458344 L -44.1911749081238,-19.95860094339171 L -60.699852466649446,-13.487384172267255 L -54.228635695524986,-29.996061730792896 L -70.47787480697087,-37.09361831945834 L -54.228635695524986,-44.191174908123806 L -60.699852466649446,-60.699852466649446 L -44.191174908123806,-54.228635695524986 Z" fill="none" stroke="#00A86B" stroke-width="1.5448604827024324" /><path d="M 37.09361831945835,-70.47787480697087 L 44.1911749081238,-54.22863569552499 L 60.699852466649446,-60.699852466649446 L 54.22863569552499,-44.1911749081238 L 70.47787480697087,-37.09361831945835 L 54.22863569552499,-29.996061730792903 L 60.699852466649446,-13.487384172267259 L 44.1911749081238,-19.95860094339171 L 37.09361831945835,-3.7093618319458344 L 29.996061730792903,-19.95860094339171 L 13.487384172267259,-13.487384172267255 L 19.958600943391712,-29.996061730792896 L 3.7093618319458344,-37.09361831945834 L 19.958600943391712,-44.191174908123806 L 13.487384172267252,-60.699852466649446 L 29.996061730792892,-54.228635695524986 Z" fill="none" stroke="#00A86B" stroke-width="1.5448604827024324" /><path d="M 111.28085495837504,-70.47787480697087 L 118.3784115470405,-54.22863569552499 L 134.88708910556613,-60.699852466649446 L 128.4158723344417,-44.1911749081238 L 144.66511144588756,-37.09361831945835 L 128.4158723344417,-29.996061730792903 L 134.88708910556613,-13.487384172267259 L 118.3784115470405,-19.95860094339171 L 111.28085495837504,-3.7093618319458344 L 104.1832983697096,-19.95860094339171 L 87.67462081118396,-13.487384172267255 L 94.1458375823084,-29.996061730792896 L 77.89659847086253,-37.09361831945834 L 94.1458375823084,-44.191174908123806 L 87.67462081118394,-60.699852466649446 L 104.18329836970959,-54.228635695524986 Z" fill="none" stroke="#00A86B" stroke-width="1.5448604827024324" /><path d="M 185.46809159729173,-70.47787480697087 L 192.56564818595717,-54.22863569552499 L 209.07432574448282,-60.699852466649446 L 202.60310897335836,-44.1911749081238 L 218.85234808480425,-37.09361831945835 L 202.60310897335836,-29.996061730792903 L 209.07432574448282,-13.487384172267259 L 192.56564818595717,-19.95860094339171 L 185.46809159729173,-3.7093618319458344 L 178.3705350086263,-19.95860094339171 L 161.86185745010064,-13.487384172267255 L 168.3330742212251,-29.996061730792896 L 152.08383510977922,-37.09361831945834 L 168.3330742212251,-44.191174908123806 L 161.86185745010064,-60.699852466649446 L 178.37053500862626,-54.228635695524986 Z" fill="none" stroke="#00A86B" stroke-width="1.5448604827024324" /><path d="M 259.65532823620845,-70.47787480697087 L 266.7528848248739,-54.22863569552499 L 283.26156238339956,-60.699852466649446 L 276.7903456122751,-44.1911749081238 L 293.03958472372096,-37.09361831945835 L 276.7903456122751,-29.996061730792903 L 283.26156238339956,-13.487384172267259 L 266.7528848248739,-19.95860094339171 L 259.65532823620845,-3.7093618319458344 L 252.557771647543,-19.95860094339171 L 236.04909408901736,-13.487384172267255 L 242.52031086014182,-29.996061730792896 L 226.27107174869593,-37.09361831945834 L 242.52031086014182,-44.191174908123806 L 236.04909408901736,-60.699852466649446 L 252.55777164754298,-54.228635695524986 Z" fill="none" stroke="#00A86B" stroke-width="1.5448604827024324" /><path d="M 333.84256487512516,-70.47787480697087 L 340.9401214637906,-54.22863569552499 L 357.4487990223163,-60.699852466649446 L 350.9775822511918,-44.1911749081238 L 367.2268213626377,-37.09361831945835 L 350.9775822511918,-29.996061730792903 L 357.4487990223163,-13.487384172267259 L 340.9401214637906,-19.95860094339171 L 333.84256487512516,-3.7093618319458344 L 326.7450082864597,-19.95860094339171 L 310.23633072793405,-13.487384172267255 L 316.70754749905853,-29.996061730792896 L 300.45830838761265,-37.09361831945834 L 316.70754749905853,-44.191174908123806 L 310.23633072793405,-60.699852466649446 L 326.7450082864597,-54.228635695524986 Z" fill="none" stroke="#00A86B" stroke-width="1.5448604827024324" /><path d="M 408.0298015140418,-70.47787480697087 L 415.12735810270726,-54.22863569552499 L 431.63603566123294,-60.699852466649446 L 425.16481889010845,-44.1911749081238 L 441.41405800155434,-37.09361831945835 L 425.16481889010845,-29.996061730792903 L 431.63603566123294,-13.487384172267259 L 415.12735810270726,-19.95860094339171 L 408.0298015140418,-3.7093618319458344 L 400.9322449253764,-19.95860094339171 L 384.4235673668507,-13.487384172267255 L 390.8947841379752,-29.996061730792896 L 374.6455450265293,-37.09361831945834 L 390.8947841379752,-44.191174908123806 L 384.4235673668507,-60.699852466649446 L 400.9322449253764,-54.228635695524986 Z" fill="none" stroke="#00A86B" stroke-width="1.5448604827024324" /><path d="M 482.21703815295854,-70.47787480697087 L 489.314594741624,-54.22863569552499 L 505.82327230014965,-60.699852466649446 L 499.35205552902517,-44.1911749081238 L 515.601294640471,-37.09361831945835 L 499.35205552902517,-29.996061730792903 L 505.82327230014965,-13.487384172267259 L 489.314594741624,-19.95860094339171 L 482.21703815295854,-3.7093618319458344 L 475.1194815642931,-19.95860094339171 L 458.6108040057674,-13.487384172267255 L 465.0820207768919,-29.996061730792896 L 448.832781665446,-37.09361831945834 L 465.0820207768919,-44.191174908123806 L 458.6108040057674,-60.699852466649446 L 475.1194815642931,-54.228635695524986 Z" fill="none" stroke="#00A86B" stroke-width="1.5448604827024324" /><path d="M 556.4042747918753,-70.47787480697087 L 563.5018313805408,-54.22863569552499 L 580.0105089390664,-60.699852466649446 L 573.539292167942,-44.1911749081238 L 589.7885312793878,-37.09361831945835 L 573.539292167942,-29.996061730792903 L 580.0105089390664,-13.487384172267259 L 563.5018313805408,-19.95860094339171 L 556.4042747918753,-3.7093618319458344 L 549.3067182032098,-19.95860094339171 L 532.7980406446842,-13.487384172267255 L 539.2692574158086,-29.996061730792896 L 523.0200183043628,-37.09361831945834 L 539.2692574158086,-44.191174908123806 L 532.7980406446842,-60.699852466649446 L 549.3067182032098,-54.228635695524986 Z" fill="none" stroke="#00A86B" stroke-width="1.5448604827024324" /><path d="M 2.0441961424673233e-15,-6.231727877669009 L 7.097556588665449,10.017511233776865 L 23.606234147191095,3.5462944626524155 L 17.135017376066642,20.05497202117806 L 33.384256487512516,27.152528609843507 L 17.135017376066642,34.250085198508955 L 23.606234147191095,50.7587627570346 L 7.097556588665449,44.28754598591015 L 2.0441961424673233e-15,60.536785097356024 L -7.097556588665446,44.28754598591015 L -23.606234147191092,50.7587627570346 L -17.13501737606664,34.25008519850896 L -33.384256487512516,27.15252860984351 L -17.13501737606664,20.054972021178056 L -23.6062341471911,3.5462944626524155 L -7.097556588665458,10.017511233776869 Z" fill="none" stroke="#00A86B" stroke-width="1.5448604827024324" /><path d="M 74.1872366389167,-6.231727877669009 L 81.28479322758216,10.017511233776865 L 97.7934707861078,3.5462944626524155 L 91.32225401498334,20.05497202117806 L 107.57149312642922,27.152528609843507 L 91.32225401498334,34.250085198508955 L 97.7934707861078,50.7587627570346 L 81.28479322758216,44.28754598591015 L 74.1872366389167,60.536785097356024 L 67.08968005025126,44.28754598591015 L 50.58100249172561,50.7587627570346 L 57.05221926285006,34.25008519850896 L 40.802980151404185,27.15252860984351 L 57.05221926285006,20.054972021178056 L 50.5810024917256,3.5462944626524155 L 67.08968005025125,10.017511233776869 Z" fill="none" stroke="#00A86B" stroke-width="1.5448604827024324" /><path d="M 148.3744732778334,-6.231727877669009 L 155.47202986649884,10.017511233776865 L 171.9807074250245,3.5462944626524155 L 165.50949065390006,20.05497202117806 L 181.75872976534592,27.152528609843507 L 165.50949065390006,34.250085198508955 L 171.9807074250245,50.7587627570346 L 155.47202986649884,44.28754598591015 L 148.3744732778334,60.536785097356024 L 141.27691668916796,44.28754598591015 L 124.76823913064231,50.7587627570346 L 131.23945590176677,34.25008519850896 L 114.99021679032089,27.15252860984351 L 131.23945590176677,20.054972021178056 L 124.7682391306423,3.5462944626524155 L 141.27691668916793,10.017511233776869 Z" fill="none" stroke="#00A86B" stroke-width="1.5448604827024324" /><path d="M 222.5617099167501,-6.231727877669009 L 229.65926650541553,10.017511233776865 L 246.16794406394118,3.5462944626524155 L 239.69672729281672,20.05497202117806 L 255.9459664042626,27.152528609843507 L 239.69672729281672,34.250085198508955 L 246.16794406394118,50.7587627570346 L 229.65926650541553,44.28754598591015 L 222.5617099167501,60.536785097356024 L 215.46415332808465,44.28754598591015 L 198.955475769559,50.7587627570346 L 205.42669254068346,34.25008519850896 L 189.17745342923757,27.15252860984351 L 205.42669254068346,20.054972021178056 L 198.955475769559,3.5462944626524155 L 215.46415332808462,10.017511233776869 Z" fill="none" stroke="#00A86B" stroke-width="1.5448604827024324" /><path d="M 296.7489465556668,-6.231727877669009 L 303.84650314433225,10.017511233776865 L 320.3551807028579,3.5462944626524155 L 313.88396393173343,20.05497202117806 L 330.1332030431793,27.152528609843507 L 313.88396393173343,34.250085198508955 L 320.3551807028579,50.7587627570346 L 303.84650314433225,44.28754598591015 L 296.7489465556668,60.536785097356024 L 289.65138996700136,44.28754598591015 L 273.1427124084757,50.7587627570346 L 279.6139291796002,34.25008519850896 L 263.3646900681543,27.15252860984351 L 279.6139291796002,20.054972021178056 L 273.1427124084757,3.5462944626524155 L 289.65138996700136,10.017511233776869 Z" fill="none" stroke="#00A86B" stroke-width="1.5448604827024324" /><path d="M 370.9361831945835,-6.231727877669009 L 378.03373978324896,10.017511233776865 L 394.54241734177464,3.5462944626524155 L 388.07120057065015,20.05497202117806 L 404.32043968209604,27.152528609843507 L 388.07120057065015,34.250085198508955 L 394.54241734177464,50.7587627570346 L 378.03373978324896,44.28754598591015 L 370.9361831945835,60.536785097356024 L 363.8386266059181,44.28754598591015 L 347.3299490473924,50.7587627570346 L 353.8011658185169,34.25008519850896 L 337.551926707071,27.15252860984351 L 353.8011658185169,20.054972021178056 L 347.3299490473924,3.5462944626524155 L 363.8386266059181,10.017511233776869 Z" fill="none" stroke="#00A86B" stroke-width="1.5448604827024324" /><path d="M 445.1234198335002,-6.231727877669009 L 452.2209764221656,10.017511233776865 L 468.7296539806913,3.5462944626524155 L 462.2584372095668,20.05497202117806 L 478.5076763210127,27.152528609843507 L 462.2584372095668,34.250085198508955 L 468.7296539806913,50.7587627570346 L 452.2209764221656,44.28754598591015 L 445.1234198335002,60.536785097356024 L 438.02586324483474,44.28754598591015 L 421.51718568630906,50.7587627570346 L 427.98840245743355,34.25008519850896 L 411.73916334598766,27.15252860984351 L 427.98840245743355,20.054972021178056 L 421.51718568630906,3.5462944626524155 L 438.02586324483474,10.017511233776869 Z" fill="none" stroke="#00A86B" stroke-width="1.5448604827024324" /><path d="M 519.3106564724169,-6.231727877669009 L 526.4082130610824,10.017511233776865 L 542.916890619608,3.5462944626524155 L 536.4456738484836,20.05497202117806 L 552.6949129599294,27.152528609843507 L 536.4456738484836,34.250085198508955 L 542.916890619608,50.7587627570346 L 526.4082130610824,44.28754598591015 L 519.3106564724169,60.536785097356024 L 512.2130998837514,44.28754598591015 L 495.7044223252258,50.7587627570346 L 502.17563909635027,34.25008519850896 L 485.9263999849044,27.15252860984351 L 502.17563909635027,20.054972021178056 L 495.7044223252258,3.5462944626524155 L 512.2130998837514,10.017511233776869 Z" fill="none" stroke="#00A86B" stroke-width="1.5448604827024324" /><path d="M -37.09361831945835,58.01441905163284 L -29.996061730792903,74.26365816307872 L -13.487384172267255,67.79244139195427 L -19.95860094339171,84.30111895047992 L -3.7093618319458344,91.39867553914536 L -19.95860094339171,98.4962321278108 L -13.487384172267255,115.00490968633645 L -29.996061730792903,108.533692915212 L -37.09361831945835,124.78293202665787 L -44.1911749081238,108.533692915212 L -60.699852466649446,115.00490968633645 L -54.228635695524986,98.49623212781081 L -70.47787480697087,91.39867553914536 L -54.228635695524986,84.3011189504799 L -60.699852466649446,67.79244139195427 L -44.191174908123806,74.26365816307872 Z" fill="none" stroke="#00A86B" stroke-width="1.5448604827024324" /><path d="M 37.09361831945835,58.01441905163284 L 44.1911749081238,74.26365816307872 L 60.699852466649446,67.79244139195427 L 54.22863569552499,84.30111895047992 L 70.47787480697087,91.39867553914536 L 54.22863569552499,98.4962321278108 L 60.699852466649446,115.00490968633645 L 44.1911749081238,108.533692915212 L 37.09361831945835,124.78293202665787 L 29.996061730792903,108.533692915212 L 13.487384172267259,115.00490968633645 L 19.958600943391712,98.49623212781081 L 3.7093618319458344,91.39867553914536 L 19.958600943391712,84.3011189504799 L 13.487384172267252,67.79244139195427 L 29.996061730792892,74.26365816307872 Z" fill="none" stroke="#00A86B" stroke-width="1.5448604827024324" /><path d="M 111.28085495837504,58.01441905163284 L 118.3784115470405,74.26365816307872 L 134.88708910556613,67.79244139195427 L 128.4158723344417,84.30111895047992 L 144.66511144588756,91.39867553914536 L 128.4158723344417,98.4962321278108 L 134.88708910556613,115.00490968633645 L 118.3784115470405,108.533692915212 L 111.28085495837504,124.78293202665787 L 104.1832983697096,108.533692915212 L 87.67462081118396,115.00490968633645 L 94.1458375823084,98.49623212781081 L 77.89659847086253,91.39867553914536 L 94.1458375823084,84.3011189504799 L 87.67462081118394,67.79244139195427 L 104.18329836970959,74.26365816307872 Z" fill="none" stroke="#00A86B" stroke-width="1.5448604827024324" /><path d="M 185.46809159729173,58.01441905163284 L 192.56564818595717,74.26365816307872 L 209.07432574448282,67.79244139195427 L 202.60310897335836,84.30111895047992 L 218.85234808480425,91.39867553914536 L 202.60310897335836,98.4962321278108 L 209.07432574448282,115.00490968633645 L 192.56564818595717,108.533692915212 L 185.46809159729173,124.78293202665787 L 178.3705350086263,108.533692915212 L 161.86185745010064,115.00490968633645 L 168.3330742212251,98.49623212781081 L 152.08383510977922,91.39867553914536 L 168.3330742212251,84.3011189504799 L 161.86185745010064,67.79244139195427 L 178.37053500862626,74.26365816307872 Z" fill="none" stroke="#00A86B" stroke-width="1.5448604827024324" /><path d="M 259.65532823620845,58.01441905163284 L 266.7528848248739,74.26365816307872 L 283.26156238339956,67.79244139195427 L 276.7903456122751,84.30111895047992 L 293.03958472372096,91.39867553914536 L 276.7903456122751,98.4962321278108 L 283.26156238339956,115.00490968633645 L 266.7528848248739,108.533692915212 L 259.65532823620845,124.78293202665787 L 252.557771647543,108.533692915212 L 236.04909408901736,115.00490968633645 L 242.52031086014182,98.49623212781081 L 226.27107174869593,91.39867553914536 L 242.52031086014182,84.3011189504799 L 236.04909408901736,67.79244139195427 L 252.55777164754298,74.26365816307872 Z" fill="none" stroke="#00A86B" stroke-width="1.5448604827024324" /><path d="M 333.84256487512516,58.01441905163284 L 340.9401214637906,74.26365816307872 L 357.4487990223163,67.79244139195427 L 350.9775822511918,84.30111895047992 L 367.2268213626377,91.39867553914536 L 350.9775822511918,98.4962321278108 L 357.4487990223163,115.00490968633645 L 340.9401214637906,108.533692915212 L 333.84256487512516,124.78293202665787 L 326.7450082864597,108.533692915212 L 310.23633072793405,115.00490968633645 L 316.70754749905853,98.49623212781081 L 300.45830838761265,91.39867553914536 L 316.70754749905853,84.3011189504799 L 310.23633072793405,67.79244139195427 L 326.7450082864597,74.26365816307872 Z" fill="none" stroke="#00A86B" stroke-width="1.5448604827024324" /><path d="M 408.0298015140418,58.01441905163284 L 415.12735810270726,74.26365816307872 L 431.63603566123294,67.79244139195427 L 425.16481889010845,84.30111895047992 L 441.41405800155434,91.39867553914536 L 425.16481889010845,98.4962321278108 L 431.63603566123294,115.00490968633645 L 415.12735810270726,108.533692915212 L 408.0298015140418,124.78293202665787 L 400.9322449253764,108.533692915212 L 384.4235673668507,115.00490968633645 L 390.8947841379752,98.49623212781081 L 374.6455450265293,91.39867553914536 L 390.8947841379752,84.3011189504799 L 384.4235673668507,67.79244139195427 L 400.9322449253764,74.26365816307872 Z" fill="none" stroke="#00A86B" stroke-width="1.5448604827024324" /><path d="M 482.21703815295854,58.01441905163284 L 489.314594741624,74.26365816307872 L 505.82327230014965,67.79244139195427 L 499.35205552902517,84.30111895047992 L 515.601294640471,91.39867553914536 L 499.35205552902517,98.4962321278108 L 505.82327230014965,115.00490968633645 L 489.314594741624,108.533692915212 L 482.21703815295854,124.78293202665787 L 475.1194815642931,108.533692915212 L 458.6108040057674,115.00490968633645 L 465.0820207768919,98.49623212781081 L 448.832781665446,91.39867553914536 L 465.0820207768919,84.3011189504799 L 458.6108040057674,67.79244139195427 L 475.1194815642931,74.26365816307872 Z" fill="none" stroke="#00A86B" stroke-width="1.5448604827024324" /><path d="M 556.4042747918753,58.01441905163284 L 563.5018313805408,74.26365816307872 L 580.0105089390664,67.79244139195427 L 573.539292167942,84.30111895047992 L 589.7885312793878,91.39867553914536 L 573.539292167942,98.4962321278108 L 580.0105089390664,115.00490968633645 L 563.5018313805408,108.533692915212 L 556.4042747918753,124.78293202665787 L 549.3067182032098,108.533692915212 L 532.7980406446842,115.00490968633645 L 539.2692574158086,98.49623212781081 L 523.0200183043628,91.39867553914536 L 539.2692574158086,84.3011189504799 L 532.7980406446842,67.79244139195427 L 549.3067182032098,74.26365816307872 Z" fill="none" stroke="#00A86B" stroke-width="1.5448604827024324" /><path d="M 2.0441961424673233e-15,122.2605659809347 L 7.097556588665449,138.5098050923806 L 23.606234147191095,132.03858832125613 L 17.135017376066642,148.54726587978178 L 33.384256487512516,155.64482246844722 L 17.135017376066642,162.74237905711266 L 23.606234147191095,179.2510566156383 L 7.097556588665449,172.77983984451384 L 2.0441961424673233e-15,189.02907895595973 L -7.097556588665446,172.77983984451384 L -23.606234147191092,179.2510566156383 L -17.13501737606664,162.7423790571127 L -33.384256487512516,155.64482246844722 L -17.13501737606664,148.54726587978178 L -23.6062341471911,132.03858832125613 L -7.097556588665458,138.5098050923806 Z" fill="none" stroke="#00A86B" stroke-width="1.5448604827024324" /><path d="M 74.1872366389167,122.2605659809347 L 81.28479322758216,138.5098050923806 L 97.7934707861078,132.03858832125613 L 91.32225401498334,148.54726587978178 L 107.57149312642922,155.64482246844722 L 91.32225401498334,162.74237905711266 L 97.7934707861078,179.2510566156383 L 81.28479322758216,172.77983984451384 L 74.1872366389167,189.02907895595973 L 67.08968005025126,172.77983984451384 L 50.58100249172561,179.2510566156383 L 57.05221926285006,162.7423790571127 L 40.802980151404185,155.64482246844722 L 57.05221926285006,148.54726587978178 L 50.5810024917256,132.03858832125613 L 67.08968005025125,138.5098050923806 Z" fill="none" stroke="#00A86B" stroke-width="1.5448604827024324" /><path d="M 148.3744732778334,122.2605659809347 L 155.47202986649884,138.5098050923806 L 171.9807074250245,132.03858832125613 L 165.50949065390006,148.54726587978178 L 181.75872976534592,155.64482246844722 L 165.50949065390006,162.74237905711266 L 171.9807074250245,179.2510566156383 L 155.47202986649884,172.77983984451384 L 148.3744732778334,189.02907895595973 L 141.27691668916796,172.77983984451384 L 124.76823913064231,179.2510566156383 L 131.23945590176677,162.7423790571127 L 114.99021679032089,155.64482246844722 L 131.23945590176677,148.54726587978178 L 124.7682391306423,132.03858832125613 L 141.27691668916793,138.5098050923806 Z" fill="none" stroke="#00A86B" stroke-width="1.5448604827024324" /><path d="M 222.5617099167501,122.2605659809347 L 229.65926650541553,138.5098050923806 L 246.16794406394118,132.03858832125613 L 239.69672729281672,148.54726587978178 L 255.9459664042626,155.64482246844722 L 239.69672729281672,162.74237905711266 L 246.16794406394118,179.2510566156383 L 229.65926650541553,172.77983984451384 L 222.5617099167501,189.02907895595973 L 215.46415332808465,172.77983984451384 L 198.955475769559,179.2510566156383 L 205.42669254068346,162.7423790571127 L 189.17745342923757,155.64482246844722 L 205.42669254068346,148.54726587978178 L 198.955475769559,132.03858832125613 L 215.46415332808462,138.5098050923806 Z" fill="none" stroke="#00A86B" stroke-width="1.5448604827024324" /><path d="M 296.7489465556668,122.2605659809347 L 303.84650314433225,138.5098050923806 L 320.3551807028579,132.03858832125613 L 313.88396393173343,148.54726587978178 L 330.1332030431793,155.64482246844722 L 313.88396393173343,162.74237905711266 L 320.3551807028579,179.2510566156383 L 303.84650314433225,172.77983984451384 L 296.7489465556668,189.02907895595973 L 289.65138996700136,172.77983984451384 L 273.1427124084757,179.2510566156383 L 279.6139291796002,162.7423790571127 L 263.3646900681543,155.64482246844722 L 279.6139291796002,148.54726587978178 L 273.1427124084757,132.03858832125613 L 289.65138996700136,138.5098050923806 Z" fill="none" stroke="#00A86B" stroke-width="1.5448604827024324" /><path d="M 370.9361831945835,122.2605659809347 L 378.03373978324896,138.5098050923806 L 394.54241734177464,132.03858832125613 L 388.07120057065015,148.54726587978178 L 404.32043968209604,155.64482246844722 L 388.07120057065015,162.74237905711266 L 394.54241734177464,179.2510566156383 L 378.03373978324896,172.77983984451384 L 370.9361831945835,189.02907895595973 L 363.8386266059181,172.77983984451384 L 347.3299490473924,179.2510566156383 L 353.8011658185169,162.7423790571127 L 337.551926707071,155.64482246844722 L 353.8011658185169,148.54726587978178 L 347.3299490473924,132.03858832125613 L 363.8386266059181,138.5098050923806 Z" fill="none" stroke="#00A86B" stroke-width="1.5448604827024324" /><path d="M 445.1234198335002,122.2605659809347 L 452.2209764221656,138.5098050923806 L 468.7296539806913,132.03858832125613 L 462.2584372095668,148.54726587978178 L 478.5076763210127,155.64482246844722 L 462.2584372095668,162.74237905711266 L 468.7296539806913,179.2510566156383 L 452.2209764221656,172.77983984451384 L 445.1234198335002,189.02907895595973 L 438.02586324483474,172.77983984451384 L 421.51718568630906,179.2510566156383 L 427.98840245743355,162.7423790571127 L 411.73916334598766,155.64482246844722 L 427.98840245743355,148.54726587978178 L 421.51718568630906,132.03858832125613 L 438.02586324483474,138.5098050923806 Z" fill="none" stroke="#00A86B" stroke-width="1.5448604827024324" /><path d="M 519.3106564724169,122.2605659809347 L 526.4082130610824,138.5098050923806 L 542.916890619608,132.03858832125613 L 536.4456738484836,148.54726587978178 L 552.6949129599294,155.64482246844722 L 536.4456738484836,162.74237905711266 L 542.916890619608,179.2510566156383 L 526.4082130610824,172.77983984451384 L 519.3106564724169,189.02907895595973 L 512.2130998837514,172.77983984451384 L 495.7044223252258,179.2510566156383 L 502.17563909635027,162.7423790571127 L 485.9263999849044,155.64482246844722 L 502.17563909635027,148.54726587978178 L 495.7044223252258,132.03858832125613 L 512.2130998837514,138.5098050923806 Z" fill="none" stroke="#00A86B" stroke-width="1.5448604827024324" /><path d="M -37.09361831945835,186.50671291023656 L -29.996061730792903,202.75595202168245 L -13.487384172267255,196.284735250558 L -19.95860094339171,212.79341280908363 L -3.7093618319458344,219.89096939774907 L -19.95860094339171,226.98852598641452 L -13.487384172267255,243.49720354494016 L -29.996061730792903,237.0259867738157 L -37.09361831945835,253.2752258852616 L -44.1911749081238,237.0259867738157 L -60.699852466649446,243.49720354494016 L -54.228635695524986,226.98852598641454 L -70.47787480697087,219.89096939774907 L -54.228635695524986,212.79341280908363 L -60.699852466649446,196.284735250558 L -44.191174908123806,202.75595202168245 Z" fill="none" stroke="#00A86B" stroke-width="1.5448604827024324" /><path d="M 37.09361831945835,186.50671291023656 L 44.1911749081238,202.75595202168245 L 60.699852466649446,196.284735250558 L 54.22863569552499,212.79341280908363 L 70.47787480697087,219.89096939774907 L 54.22863569552499,226.98852598641452 L 60.699852466649446,243.49720354494016 L 44.1911749081238,237.0259867738157 L 37.09361831945835,253.2752258852616 L 29.996061730792903,237.0259867738157 L 13.487384172267259,243.49720354494016 L 19.958600943391712,226.98852598641454 L 3.7093618319458344,219.89096939774907 L 19.958600943391712,212.79341280908363 L 13.487384172267252,196.284735250558 L 29.996061730792892,202.75595202168245 Z" fill="none" stroke="#00A86B" stroke-width="1.5448604827024324" /><path d="M 111.28085495837504,186.50671291023656 L 118.3784115470405,202.75595202168245 L 134.88708910556613,196.284735250558 L 128.4158723344417,212.79341280908363 L 144.66511144588756,219.89096939774907 L 128.4158723344417,226.98852598641452 L 134.88708910556613,243.49720354494016 L 118.3784115470405,237.0259867738157 L 111.28085495837504,253.2752258852616 L 104.1832983697096,237.0259867738157 L 87.67462081118396,243.49720354494016 L 94.1458375823084,226.98852598641454 L 77.89659847086253,219.89096939774907 L 94.1458375823084,212.79341280908363 L 87.67462081118394,196.284735250558 L 104.18329836970959,202.75595202168245 Z" fill="none" stroke="#00A86B" stroke-width="1.5448604827024324" /><path d="M 185.46809159729173,186.50671291023656 L 192.56564818595717,202.75595202168245 L 209.07432574448282,196.284735250558 L 202.60310897335836,212.79341280908363 L 218.85234808480425,219.89096939774907 L 202.60310897335836,226.98852598641452 L 209.07432574448282,243.49720354494016 L 192.56564818595717,237.0259867738157 L 185.46809159729173,253.2752258852616 L 178.3705350086263,237.0259867738157 L 161.86185745010064,243.49720354494016 L 168.3330742212251,226.98852598641454 L 152.08383510977922,219.89096939774907 L 168.3330742212251,212.79341280908363 L 161.86185745010064,196.284735250558 L 178.37053500862626,202.75595202168245 Z" fill="none" stroke="#00A86B" stroke-width="1.5448604827024324" /><path d="M 259.65532823620845,186.50671291023656 L 266.7528848248739,202.75595202168245 L 283.26156238339956,196.284735250558 L 276.7903456122751,212.79341280908363 L 293.03958472372096,219.89096939774907 L 276.7903456122751,226.98852598641452 L 283.26156238339956,243.49720354494016 L 266.7528848248739,237.0259867738157 L 259.65532823620845,253.2752258852616 L 252.557771647543,237.0259867738157 L 236.04909408901736,243.49720354494016 L 242.52031086014182,226.98852598641454 L 226.27107174869593,219.89096939774907 L 242.52031086014182,212.79341280908363 L 236.04909408901736,196.284735250558 L 252.55777164754298,202.75595202168245 Z" fill="none" stroke="#00A86B" stroke-width="1.5448604827024324" /><path d="M 333.84256487512516,186.50671291023656 L 340.9401214637906,202.75595202168245 L 357.4487990223163,196.284735250558 L 350.9775822511918,212.79341280908363 L 367.2268213626377,219.89096939774907 L 350.9775822511918,226.98852598641452 L 357.4487990223163,243.49720354494016 L 340.9401214637906,237.0259867738157 L 333.84256487512516,253.2752258852616 L 326.7450082864597,237.0259867738157 L 310.23633072793405,243.49720354494016 L 316.70754749905853,226.98852598641454 L 300.45830838761265,219.89096939774907 L 316.70754749905853,212.79341280908363 L 310.23633072793405,196.284735250558 L 326.7450082864597,202.75595202168245 Z" fill="none" stroke="#00A86B" stroke-width="1.5448604827024324" /><path d="M 408.0298015140418,186.50671291023656 L 415.12735810270726,202.75595202168245 L 431.63603566123294,196.284735250558 L 425.16481889010845,212.79341280908363 L 441.41405800155434,219.89096939774907 L 425.16481889010845,226.98852598641452 L 431.63603566123294,243.49720354494016 L 415.12735810270726,237.0259867738157 L 408.0298015140418,253.2752258852616 L 400.9322449253764,237.0259867738157 L 384.4235673668507,243.49720354494016 L 390.8947841379752,226.98852598641454 L 374.6455450265293,219.89096939774907 L 390.8947841379752,212.79341280908363 L 384.4235673668507,196.284735250558 L 400.9322449253764,202.75595202168245 Z" fill="none" stroke="#00A86B" stroke-width="1.5448604827024324" /><path d="M 482.21703815295854,186.50671291023656 L 489.314594741624,202.75595202168245 L 505.82327230014965,196.284735250558 L 499.35205552902517,212.79341280908363 L 515.601294640471,219.89096939774907 L 499.35205552902517,226.98852598641452 L 505.82327230014965,243.49720354494016 L 489.314594741624,237.0259867738157 L 482.21703815295854,253.2752258852616 L 475.1194815642931,237.0259867738157 L 458.6108040057674,243.49720354494016 L 465.0820207768919,226.98852598641454 L 448.832781665446,219.89096939774907 L 465.0820207768919,212.79341280908363 L 458.6108040057674,196.284735250558 L 475.1194815642931,202.75595202168245 Z" fill="none" stroke="#00A86B" stroke-width="1.5448604827024324" /><path d="M 556.4042747918753,186.50671291023656 L 563.5018313805408,202.75595202168245 L 580.0105089390664,196.284735250558 L 573.539292167942,212.79341280908363 L 589.7885312793878,219.89096939774907 L 573.539292167942,226.98852598641452 L 580.0105089390664,243.49720354494016 L 563.5018313805408,237.0259867738157 L 556.4042747918753,253.2752258852616 L 549.3067182032098,237.0259867738157 L 532.7980406446842,243.49720354494016 L 539.2692574158086,226.98852598641454 L 523.0200183043628,219.89096939774907 L 539.2692574158086,212.79341280908363 L 532.7980406446842,196.284735250558 L 549.3067182032098,202.75595202168245 Z" fill="none" stroke="#00A86B" stroke-width="1.5448604827024324" /><path d="M 2.0441961424673233e-15,250.75285983953847 L 7.097556588665449,267.00209895098436 L 23.606234147191095,260.5308821798599 L 17.135017376066642,277.03955973838555 L 33.384256487512516,284.137116327051 L 17.135017376066642,291.23467291571643 L 23.606234147191095,307.7433504742421 L 7.097556588665449,301.2721337031176 L 2.0441961424673233e-15,317.5213728145635 L -7.097556588665446,301.2721337031176 L -23.606234147191092,307.7433504742421 L -17.13501737606664,291.23467291571643 L -33.384256487512516,284.137116327051 L -17.13501737606664,277.03955973838555 L -23.6062341471911,260.5308821798599 L -7.097556588665458,267.00209895098436 Z" fill="none" stroke="#00A86B" stroke-width="1.5448604827024324" /><path d="M 74.1872366389167,250.75285983953847 L 81.28479322758216,267.00209895098436 L 97.7934707861078,260.5308821798599 L 91.32225401498334,277.03955973838555 L 107.57149312642922,284.137116327051 L 91.32225401498334,291.23467291571643 L 97.7934707861078,307.7433504742421 L 81.28479322758216,301.2721337031176 L 74.1872366389167,317.5213728145635 L 67.08968005025126,301.2721337031176 L 50.58100249172561,307.7433504742421 L 57.05221926285006,291.23467291571643 L 40.802980151404185,284.137116327051 L 57.05221926285006,277.03955973838555 L 50.5810024917256,260.5308821798599 L 67.08968005025125,267.00209895098436 Z" fill="none" stroke="#00A86B" stroke-width="1.5448604827024324" /><path d="M 148.3744732778334,250.75285983953847 L 155.47202986649884,267.00209895098436 L 171.9807074250245,260.5308821798599 L 165.50949065390006,277.03955973838555 L 181.75872976534592,284.137116327051 L 165.50949065390006,291.23467291571643 L 171.9807074250245,307.7433504742421 L 155.47202986649884,301.2721337031176 L 148.3744732778334,317.5213728145635 L 141.27691668916796,301.2721337031176 L 124.76823913064231,307.7433504742421 L 131.23945590176677,291.23467291571643 L 114.99021679032089,284.137116327051 L 131.23945590176677,277.03955973838555 L 124.7682391306423,260.5308821798599 L 141.27691668916793,267.00209895098436 Z" fill="none" stroke="#00A86B" stroke-width="1.5448604827024324" /><path d="M 222.5617099167501,250.75285983953847 L 229.65926650541553,267.00209895098436 L 246.16794406394118,260.5308821798599 L 239.69672729281672,277.03955973838555 L 255.9459664042626,284.137116327051 L 239.69672729281672,291.23467291571643 L 246.16794406394118,307.7433504742421 L 229.65926650541553,301.2721337031176 L 222.5617099167501,317.5213728145635 L 215.46415332808465,301.2721337031176 L 198.955475769559,307.7433504742421 L 205.42669254068346,291.23467291571643 L 189.17745342923757,284.137116327051 L 205.42669254068346,277.03955973838555 L 198.955475769559,260.5308821798599 L 215.46415332808462,267.00209895098436 Z" fill="none" stroke="#00A86B" stroke-width="1.5448604827024324" /><path d="M 296.7489465556668,250.75285983953847 L 303.84650314433225,267.00209895098436 L 320.3551807028579,260.5308821798599 L 313.88396393173343,277.03955973838555 L 330.1332030431793,284.137116327051 L 313.88396393173343,291.23467291571643 L 320.3551807028579,307.7433504742421 L 303.84650314433225,301.2721337031176 L 296.7489465556668,317.5213728145635 L 289.65138996700136,301.2721337031176 L 273.1427124084757,307.7433504742421 L 279.6139291796002,291.23467291571643 L 263.3646900681543,284.137116327051 L 279.6139291796002,277.03955973838555 L 273.1427124084757,260.5308821798599 L 289.65138996700136,267.00209895098436 Z" fill="none" stroke="#00A86B" stroke-width="1.5448604827024324" /><path d="M 370.9361831945835,250.75285983953847 L 378.03373978324896,267.00209895098436 L 394.54241734177464,260.5308821798599 L 388.07120057065015,277.03955973838555 L 404.32043968209604,284.137116327051 L 388.07120057065015,291.23467291571643 L 394.54241734177464,307.7433504742421 L 378.03373978324896,301.2721337031176 L 370.9361831945835,317.5213728145635 L 363.8386266059181,301.2721337031176 L 347.3299490473924,307.7433504742421 L 353.8011658185169,291.23467291571643 L 337.551926707071,284.137116327051 L 353.8011658185169,277.03955973838555 L 347.3299490473924,260.5308821798599 L 363.8386266059181,267.00209895098436 Z" fill="none" stroke="#00A86B" stroke-width="1.5448604827024324" /><path d="M 445.1234198335002,250.75285983953847 L 452.2209764221656,267.00209895098436 L 468.7296539806913,260.5308821798599 L 462.2584372095668,277.03955973838555 L 478.5076763210127,284.137116327051 L 462.2584372095668,291.23467291571643 L 468.7296539806913,307.7433504742421 L 452.2209764221656,301.2721337031176 L 445.1234198335002,317.5213728145635 L 438.02586324483474,301.2721337031176 L 421.51718568630906,307.7433504742421 L 427.98840245743355,291.23467291571643 L 411.73916334598766,284.137116327051 L 427.98840245743355,277.03955973838555 L 421.51718568630906,260.5308821798599 L 438.02586324483474,267.00209895098436 Z" fill="none" stroke="#00A86B" stroke-width="1.5448604827024324" /><path d="M 519.3106564724169,250.75285983953847 L 526.4082130610824,267.00209895098436 L 542.916890619608,260.5308821798599 L 536.4456738484836,277.03955973838555 L 552.6949129599294,284.137116327051 L 536.4456738484836,291.23467291571643 L 542.916890619608,307.7433504742421 L 526.4082130610824,301.2721337031176 L 519.3106564724169,317.5213728145635 L 512.2130998837514,301.2721337031176 L 495.7044223252258,307.7433504742421 L 502.17563909635027,291.23467291571643 L 485.9263999849044,284.137116327051 L 502.17563909635027,277.03955973838555 L 495.7044223252258,260.5308821798599 L 512.2130998837514,267.00209895098436 Z" fill="none" stroke="#00A86B" stroke-width="1.5448604827024324" /><path d="M -37.09361831945835,314.9990067688403 L -29.996061730792903,331.24824588028616 L -13.487384172267255,324.7770291091617 L -19.95860094339171,341.28570666768735 L -3.7093618319458344,348.3832632563528 L -19.95860094339171,355.48081984501823 L -13.487384172267255,371.9894974035439 L -29.996061730792903,365.5182806324194 L -37.09361831945835,381.7675197438653 L -44.1911749081238,365.5182806324194 L -60.699852466649446,371.9894974035439 L -54.228635695524986,355.48081984501823 L -70.47787480697087,348.3832632563528 L -54.228635695524986,341.28570666768735 L -60.699852466649446,324.7770291091617 L -44.191174908123806,331.24824588028616 Z" fill="none" stroke="#00A86B" stroke-width="1.5448604827024324" /><path d="M 37.09361831945835,314.9990067688403 L 44.1911749081238,331.24824588028616 L 60.699852466649446,324.7770291091617 L 54.22863569552499,341.28570666768735 L 70.47787480697087,348.3832632563528 L 54.22863569552499,355.48081984501823 L 60.699852466649446,371.9894974035439 L 44.1911749081238,365.5182806324194 L 37.09361831945835,381.7675197438653 L 29.996061730792903,365.5182806324194 L 13.487384172267259,371.9894974035439 L 19.958600943391712,355.48081984501823 L 3.7093618319458344,348.3832632563528 L 19.958600943391712,341.28570666768735 L 13.487384172267252,324.7770291091617 L 29.996061730792892,331.24824588028616 Z" fill="none" stroke="#00A86B" stroke-width="1.5448604827024324" /><path d="M 111.28085495837504,314.9990067688403 L 118.3784115470405,331.24824588028616 L 134.88708910556613,324.7770291091617 L 128.4158723344417,341.28570666768735 L 144.66511144588756,348.3832632563528 L 128.4158723344417,355.48081984501823 L 134.88708910556613,371.9894974035439 L 118.3784115470405,365.5182806324194 L 111.28085495837504,381.7675197438653 L 104.1832983697096,365.5182806324194 L 87.67462081118396,371.9894974035439 L 94.1458375823084,355.48081984501823 L 77.89659847086253,348.3832632563528 L 94.1458375823084,341.28570666768735 L 87.67462081118394,324.7770291091617 L 104.18329836970959,331.24824588028616 Z" fill="none" stroke="#00A86B" stroke-width="1.5448604827024324" /><path d="M 185.46809159729173,314.9990067688403 L 192.56564818595717,331.24824588028616 L 209.07432574448282,324.7770291091617 L 202.60310897335836,341.28570666768735 L 218.85234808480425,348.3832632563528 L 202.60310897335836,355.48081984501823 L 209.07432574448282,371.9894974035439 L 192.56564818595717,365.5182806324194 L 185.46809159729173,381.7675197438653 L 178.3705350086263,365.5182806324194 L 161.86185745010064,371.9894974035439 L 168.3330742212251,355.48081984501823 L 152.08383510977922,348.3832632563528 L 168.3330742212251,341.28570666768735 L 161.86185745010064,324.7770291091617 L 178.37053500862626,331.24824588028616 Z" fill="none" stroke="#00A86B" stroke-width="1.5448604827024324" /><path d="M 259.65532823620845,314.9990067688403 L 266.7528848248739,331.24824588028616 L 283.26156238339956,324.7770291091617 L 276.7903456122751,341.28570666768735 L 293.03958472372096,348.3832632563528 L 276.7903456122751,355.48081984501823 L 283.26156238339956,371.9894974035439 L 266.7528848248739,365.5182806324194 L 259.65532823620845,381.7675197438653 L 252.557771647543,365.5182806324194 L 236.04909408901736,371.9894974035439 L 242.52031086014182,355.48081984501823 L 226.27107174869593,348.3832632563528 L 242.52031086014182,341.28570666768735 L 236.04909408901736,324.7770291091617 L 252.55777164754298,331.24824588028616 Z" fill="none" stroke="#00A86B" stroke-width="1.5448604827024324" /><path d="M 333.84256487512516,314.9990067688403 L 340.9401214637906,331.24824588028616 L 357.4487990223163,324.7770291091617 L 350.9775822511918,341.28570666768735 L 367.2268213626377,348.3832632563528 L 350.9775822511918,355.48081984501823 L 357.4487990223163,371.9894974035439 L 340.9401214637906,365.5182806324194 L 333.84256487512516,381.7675197438653 L 326.7450082864597,365.5182806324194 L 310.23633072793405,371.9894974035439 L 316.70754749905853,355.48081984501823 L 300.45830838761265,348.3832632563528 L 316.70754749905853,341.28570666768735 L 310.23633072793405,324.7770291091617 L 326.7450082864597,331.24824588028616 Z" fill="none" stroke="#00A86B" stroke-width="1.5448604827024324" /><path d="M 408.0298015140418,314.9990067688403 L 415.12735810270726,331.24824588028616 L 431.63603566123294,324.7770291091617 L 425.16481889010845,341.28570666768735 L 441.41405800155434,348.3832632563528 L 425.16481889010845,355.48081984501823 L 431.63603566123294,371.9894974035439 L 415.12735810270726,365.5182806324194 L 408.0298015140418,381.7675197438653 L 400.9322449253764,365.5182806324194 L 384.4235673668507,371.9894974035439 L 390.8947841379752,355.48081984501823 L 374.6455450265293,348.3832632563528 L 390.8947841379752,341.28570666768735 L 384.4235673668507,324.7770291091617 L 400.9322449253764,331.24824588028616 Z" fill="none" stroke="#00A86B" stroke-width="1.5448604827024324" /><path d="M 482.21703815295854,314.9990067688403 L 489.314594741624,331.24824588028616 L 505.82327230014965,324.7770291091617 L 499.35205552902517,341.28570666768735 L 515.601294640471,348.3832632563528 L 499.35205552902517,355.48081984501823 L 505.82327230014965,371.9894974035439 L 489.314594741624,365.5182806324194 L 482.21703815295854,381.7675197438653 L 475.1194815642931,365.5182806324194 L 458.6108040057674,371.9894974035439 L 465.0820207768919,355.48081984501823 L 448.832781665446,348.3832632563528 L 465.0820207768919,341.28570666768735 L 458.6108040057674,324.7770291091617 L 475.1194815642931,331.24824588028616 Z" fill="none" stroke="#00A86B" stroke-width="1.5448604827024324" /><path d="M 556.4042747918753,314.9990067688403 L 563.5018313805408,331.24824588028616 L 580.0105089390664,324.7770291091617 L 573.539292167942,341.28570666768735 L 589.7885312793878,348.3832632563528 L 573.539292167942,355.48081984501823 L 580.0105089390664,371.9894974035439 L 563.5018313805408,365.5182806324194 L 556.4042747918753,381.7675197438653 L 549.3067182032098,365.5182806324194 L 532.7980406446842,371.9894974035439 L 539.2692574158086,355.48081984501823 L 523.0200183043628,348.3832632563528 L 539.2692574158086,341.28570666768735 L 532.7980406446842,324.7770291091617 L 549.3067182032098,331.24824588028616 Z" fill="none" stroke="#00A86B" stroke-width="1.5448604827024324" /><path d="M 2.0441961424673233e-15,379.24515369814213 L 7.097556588665449,395.494392809588 L 23.606234147191095,389.02317603846353 L 17.135017376066642,405.5318535969892 L 33.384256487512516,412.62941018565465 L 17.135017376066642,419.7269667743201 L 23.606234147191095,436.23564433284577 L 7.097556588665449,429.7644275617213 L 2.0441961424673233e-15,446.01366667316717 L -7.097556588665446,429.7644275617213 L -23.606234147191092,436.23564433284577 L -17.13501737606664,419.7269667743201 L -33.384256487512516,412.62941018565465 L -17.13501737606664,405.5318535969892 L -23.6062341471911,389.02317603846353 L -7.097556588665458,395.494392809588 Z" fill="none" stroke="#00A86B" stroke-width="1.5448604827024324" /><path d="M 74.1872366389167,379.24515369814213 L 81.28479322758216,395.494392809588 L 97.7934707861078,389.02317603846353 L 91.32225401498334,405.5318535969892 L 107.57149312642922,412.62941018565465 L 91.32225401498334,419.7269667743201 L 97.7934707861078,436.23564433284577 L 81.28479322758216,429.7644275617213 L 74.1872366389167,446.01366667316717 L 67.08968005025126,429.7644275617213 L 50.58100249172561,436.23564433284577 L 57.05221926285006,419.7269667743201 L 40.802980151404185,412.62941018565465 L 57.05221926285006,405.5318535969892 L 50.5810024917256,389.02317603846353 L 67.08968005025125,395.494392809588 Z" fill="none" stroke="#00A86B" stroke-width="1.5448604827024324" /><path d="M 148.3744732778334,379.24515369814213 L 155.47202986649884,395.494392809588 L 171.9807074250245,389.02317603846353 L 165.50949065390006,405.5318535969892 L 181.75872976534592,412.62941018565465 L 165.50949065390006,419.7269667743201 L 171.9807074250245,436.23564433284577 L 155.47202986649884,429.7644275617213 L 148.3744732778334,446.01366667316717 L 141.27691668916796,429.7644275617213 L 124.76823913064231,436.23564433284577 L 131.23945590176677,419.7269667743201 L 114.99021679032089,412.62941018565465 L 131.23945590176677,405.5318535969892 L 124.7682391306423,389.02317603846353 L 141.27691668916793,395.494392809588 Z" fill="none" stroke="#00A86B" stroke-width="1.5448604827024324" /><path d="M 222.5617099167501,379.24515369814213 L 229.65926650541553,395.494392809588 L 246.16794406394118,389.02317603846353 L 239.69672729281672,405.5318535969892 L 255.9459664042626,412.62941018565465 L 239.69672729281672,419.7269667743201 L 246.16794406394118,436.23564433284577 L 229.65926650541553,429.7644275617213 L 222.5617099167501,446.01366667316717 L 215.46415332808465,429.7644275617213 L 198.955475769559,436.23564433284577 L 205.42669254068346,419.7269667743201 L 189.17745342923757,412.62941018565465 L 205.42669254068346,405.5318535969892 L 198.955475769559,389.02317603846353 L 215.46415332808462,395.494392809588 Z" fill="none" stroke="#00A86B" stroke-width="1.5448604827024324" /><path d="M 296.7489465556668,379.24515369814213 L 303.84650314433225,395.494392809588 L 320.3551807028579,389.02317603846353 L 313.88396393173343,405.5318535969892 L 330.1332030431793,412.62941018565465 L 313.88396393173343,419.7269667743201 L 320.3551807028579,436.23564433284577 L 303.84650314433225,429.7644275617213 L 296.7489465556668,446.01366667316717 L 289.65138996700136,429.7644275617213 L 273.1427124084757,436.23564433284577 L 279.6139291796002,419.7269667743201 L 263.3646900681543,412.62941018565465 L 279.6139291796002,405.5318535969892 L 273.1427124084757,389.02317603846353 L 289.65138996700136,395.494392809588 Z" fill="none" stroke="#00A86B" stroke-width="1.5448604827024324" /><path d="M 370.9361831945835,379.24515369814213 L 378.03373978324896,395.494392809588 L 394.54241734177464,389.02317603846353 L 388.07120057065015,405.5318535969892 L 404.32043968209604,412.62941018565465 L 388.07120057065015,419.7269667743201 L 394.54241734177464,436.23564433284577 L 378.03373978324896,429.7644275617213 L 370.9361831945835,446.01366667316717 L 363.8386266059181,429.7644275617213 L 347.3299490473924,436.23564433284577 L 353.8011658185169,419.7269667743201 L 337.551926707071,412.62941018565465 L 353.8011658185169,405.5318535969892 L 347.3299490473924,389.02317603846353 L 363.8386266059181,395.494392809588 Z" fill="none" stroke="#00A86B" stroke-width="1.5448604827024324" /><path d="M 445.1234198335002,379.24515369814213 L 452.2209764221656,395.494392809588 L 468.7296539806913,389.02317603846353 L 462.2584372095668,405.5318535969892 L 478.5076763210127,412.62941018565465 L 462.2584372095668,419.7269667743201 L 468.7296539806913,436.23564433284577 L 452.2209764221656,429.7644275617213 L 445.1234198335002,446.01366667316717 L 438.02586324483474,429.7644275617213 L 421.51718568630906,436.23564433284577 L 427.98840245743355,419.7269667743201 L 411.73916334598766,412.62941018565465 L 427.98840245743355,405.5318535969892 L 421.51718568630906,389.02317603846353 L 438.02586324483474,395.494392809588 Z" fill="none" stroke="#00A86B" stroke-width="1.5448604827024324" /><path d="M 519.3106564724169,379.24515369814213 L 526.4082130610824,395.494392809588 L 542.916890619608,389.02317603846353 L 536.4456738484836,405.5318535969892 L 552.6949129599294,412.62941018565465 L 536.4456738484836,419.7269667743201 L 542.916890619608,436.23564433284577 L 526.4082130610824,429.7644275617213 L 519.3106564724169,446.01366667316717 L 512.2130998837514,429.7644275617213 L 495.7044223252258,436.23564433284577 L 502.17563909635027,419.7269667743201 L 485.9263999849044,412.62941018565465 L 502.17563909635027,405.5318535969892 L 495.7044223252258,389.02317603846353 L 512.2130998837514,395.494392809588 Z" fill="none" stroke="#00A86B" stroke-width="1.5448604827024324" /><path d="M -37.09361831945835,443.491300627444 L -29.996061730792903,459.7405397388899 L -13.487384172267255,453.2693229677654 L -19.95860094339171,469.77800052629107 L -3.7093618319458344,476.8755571149565 L -19.95860094339171,483.97311370362195 L -13.487384172267255,500.4817912621476 L -29.996061730792903,494.01057449102314 L -37.09361831945835,510.259813602469 L -44.1911749081238,494.01057449102314 L -60.699852466649446,500.4817912621476 L -54.228635695524986,483.97311370362195 L -70.47787480697087,476.8755571149565 L -54.228635695524986,469.77800052629107 L -60.699852466649446,453.2693229677654 L -44.191174908123806,459.7405397388899 Z" fill="none" stroke="#00A86B" stroke-width="1.5448604827024324" /><path d="M 37.09361831945835,443.491300627444 L 44.1911749081238,459.7405397388899 L 60.699852466649446,453.2693229677654 L 54.22863569552499,469.77800052629107 L 70.47787480697087,476.8755571149565 L 54.22863569552499,483.97311370362195 L 60.699852466649446,500.4817912621476 L 44.1911749081238,494.01057449102314 L 37.09361831945835,510.259813602469 L 29.996061730792903,494.01057449102314 L 13.487384172267259,500.4817912621476 L 19.958600943391712,483.97311370362195 L 3.7093618319458344,476.8755571149565 L 19.958600943391712,469.77800052629107 L 13.487384172267252,453.2693229677654 L 29.996061730792892,459.7405397388899 Z" fill="none" stroke="#00A86B" stroke-width="1.5448604827024324" /><path d="M 111.28085495837504,443.491300627444 L 118.3784115470405,459.7405397388899 L 134.88708910556613,453.2693229677654 L 128.4158723344417,469.77800052629107 L 144.66511144588756,476.8755571149565 L 128.4158723344417,483.97311370362195 L 134.88708910556613,500.4817912621476 L 118.3784115470405,494.01057449102314 L 111.28085495837504,510.259813602469 L 104.1832983697096,494.01057449102314 L 87.67462081118396,500.4817912621476 L 94.1458375823084,483.97311370362195 L 77.89659847086253,476.8755571149565 L 94.1458375823084,469.77800052629107 L 87.67462081118394,453.2693229677654 L 104.18329836970959,459.7405397388899 Z" fill="none" stroke="#00A86B" stroke-width="1.5448604827024324" /><path d="M 185.46809159729173,443.491300627444 L 192.56564818595717,459.7405397388899 L 209.07432574448282,453.2693229677654 L 202.60310897335836,469.77800052629107 L 218.85234808480425,476.8755571149565 L 202.60310897335836,483.97311370362195 L 209.07432574448282,500.4817912621476 L 192.56564818595717,494.01057449102314 L 185.46809159729173,510.259813602469 L 178.3705350086263,494.01057449102314 L 161.86185745010064,500.4817912621476 L 168.3330742212251,483.97311370362195 L 152.08383510977922,476.8755571149565 L 168.3330742212251,469.77800052629107 L 161.86185745010064,453.2693229677654 L 178.37053500862626,459.7405397388899 Z" fill="none" stroke="#00A86B" stroke-width="1.5448604827024324" /><path d="M 259.65532823620845,443.491300627444 L 266.7528848248739,459.7405397388899 L 283.26156238339956,453.2693229677654 L 276.7903456122751,469.77800052629107 L 293.03958472372096,476.8755571149565 L 276.7903456122751,483.97311370362195 L 283.26156238339956,500.4817912621476 L 266.7528848248739,494.01057449102314 L 259.65532823620845,510.259813602469 L 252.557771647543,494.01057449102314 L 236.04909408901736,500.4817912621476 L 242.52031086014182,483.97311370362195 L 226.27107174869593,476.8755571149565 L 242.52031086014182,469.77800052629107 L 236.04909408901736,453.2693229677654 L 252.55777164754298,459.7405397388899 Z" fill="none" stroke="#00A86B" stroke-width="1.5448604827024324" /><path d="M 333.84256487512516,443.491300627444 L 340.9401214637906,459.7405397388899 L 357.4487990223163,453.2693229677654 L 350.9775822511918,469.77800052629107 L 367.2268213626377,476.8755571149565 L 350.9775822511918,483.97311370362195 L 357.4487990223163,500.4817912621476 L 340.9401214637906,494.01057449102314 L 333.84256487512516,510.259813602469 L 326.7450082864597,494.01057449102314 L 310.23633072793405,500.4817912621476 L 316.70754749905853,483.97311370362195 L 300.45830838761265,476.8755571149565 L 316.70754749905853,469.77800052629107 L 310.23633072793405,453.2693229677654 L 326.7450082864597,459.7405397388899 Z" fill="none" stroke="#00A86B" stroke-width="1.5448604827024324" /><path d="M 408.0298015140418,443.491300627444 L 415.12735810270726,459.7405397388899 L 431.63603566123294,453.2693229677654 L 425.16481889010845,469.77800052629107 L 441.41405800155434,476.8755571149565 L 425.16481889010845,483.97311370362195 L 431.63603566123294,500.4817912621476 L 415.12735810270726,494.01057449102314 L 408.0298015140418,510.259813602469 L 400.9322449253764,494.01057449102314 L 384.4235673668507,500.4817912621476 L 390.8947841379752,483.97311370362195 L 374.6455450265293,476.8755571149565 L 390.8947841379752,469.77800052629107 L 384.4235673668507,453.2693229677654 L 400.9322449253764,459.7405397388899 Z" fill="none" stroke="#00A86B" stroke-width="1.5448604827024324" /><path d="M 482.21703815295854,443.491300627444 L 489.314594741624,459.7405397388899 L 505.82327230014965,453.2693229677654 L 499.35205552902517,469.77800052629107 L 515.601294640471,476.8755571149565 L 499.35205552902517,483.97311370362195 L 505.82327230014965,500.4817912621476 L 489.314594741624,494.01057449102314 L 482.21703815295854,510.259813602469 L 475.1194815642931,494.01057449102314 L 458.6108040057674,500.4817912621476 L 465.0820207768919,483.97311370362195 L 448.832781665446,476.8755571149565 L 465.0820207768919,469.77800052629107 L 458.6108040057674,453.2693229677654 L 475.1194815642931,459.7405397388899 Z" fill="none" stroke="#00A86B" stroke-width="1.5448604827024324" /><path d="M 556.4042747918753,443.491300627444 L 563.5018313805408,459.7405397388899 L 580.0105089390664,453.2693229677654 L 573.539292167942,469.77800052629107 L 589.7885312793878,476.8755571149565 L 573.539292167942,483.97311370362195 L 580.0105089390664,500.4817912621476 L 563.5018313805408,494.01057449102314 L 556.4042747918753,510.259813602469 L 549.3067182032098,494.01057449102314 L 532.7980406446842,500.4817912621476 L 539.2692574158086,483.97311370362195 L 523.0200183043628,476.8755571149565 L 539.2692574158086,469.77800052629107 L 532.7980406446842,453.2693229677654 L 549.3067182032098,459.7405397388899 Z" fill="none" stroke="#00A86B" stroke-width="1.5448604827024324" /><line x1="33.384256487512516" y1="27.152528609843507" x2="40.802980151404185" y2="27.152528609843507" stroke="#00A86B" stroke-width="0.5"/><line x1="107.57149312642922" y1="27.152528609843507" x2="114.99021679032089" y2="27.152528609843507" stroke="#00A86B" stroke-width="0.5"/><line x1="181.75872976534592" y1="27.152528609843507" x2="189.17745342923757" y2="27.152528609843507" stroke="#00A86B" stroke-width="0.5"/><line x1="255.9459664042626" y1="27.152528609843507" x2="263.3646900681543" y2="27.152528609843507" stroke="#00A86B" stroke-width="0.5"/><line x1="330.1332030431793" y1="27.152528609843507" x2="337.551926707071" y2="27.152528609843507" stroke="#00A86B" stroke-width="0.5"/><line x1="404.32043968209604" y1="27.152528609843507" x2="411.73916334598766" y2="27.152528609843507" stroke="#00A86B" stroke-width="0.5"/><line x1="478.5076763210127" y1="27.152528609843507" x2="485.9263999849044" y2="27.152528609843507" stroke="#00A86B" stroke-width="0.5"/><line x1="70.47787480697087" y1="91.39867553914536" x2="77.89659847086253" y2="91.39867553914536" stroke="#00A86B" stroke-width="0.5"/><line x1="144.66511144588756" y1="91.39867553914536" x2="152.08383510977922" y2="91.39867553914536" stroke="#00A86B" stroke-width="0.5"/><line x1="218.85234808480425" y1="91.39867553914536" x2="226.27107174869593" y2="91.39867553914536" stroke="#00A86B" stroke-width="0.5"/><line x1="293.03958472372096" y1="91.39867553914536" x2="300.45830838761265" y2="91.39867553914536" stroke="#00A86B" stroke-width="0.5"/><line x1="367.2268213626377" y1="91.39867553914536" x2="374.6455450265293" y2="91.39867553914536" stroke="#00A86B" stroke-width="0.5"/><line x1="441.41405800155434" y1="91.39867553914536" x2="448.832781665446" y2="91.39867553914536" stroke="#00A86B" stroke-width="0.5"/><line x1="33.384256487512516" y1="155.64482246844722" x2="40.802980151404185" y2="155.64482246844722" stroke="#00A86B" stroke-width="0.5"/><line x1="107.57149312642922" y1="155.64482246844722" x2="114.99021679032089" y2="155.64482246844722" stroke="#00A86B" stroke-width="0.5"/><line x1="181.75872976534592" y1="155.64482246844722" x2="189.17745342923757" y2="155.64482246844722" stroke="#00A86B" stroke-width="0.5"/><line x1="255.9459664042626" y1="155.64482246844722" x2="263.3646900681543" y2="155.64482246844722" stroke="#00A86B" stroke-width="0.5"/><line x1="330.1332030431793" y1="155.64482246844722" x2="337.551926707071" y2="155.64482246844722" stroke="#00A86B" stroke-width="0.5"/><line x1="404.32043968209604" y1="155.64482246844722" x2="411.73916334598766" y2="155.64482246844722" stroke="#00A86B" stroke-width="0.5"/><line x1="478.5076763210127" y1="155.64482246844722" x2="485.9263999849044" y2="155.64482246844722" stroke="#00A86B" stroke-width="0.5"/><line x1="70.47787480697087" y1="219.89096939774907" x2="77.89659847086253" y2="219.89096939774907" stroke="#00A86B" stroke-width="0.5"/><line x1="144.66511144588756" y1="219.89096939774907" x2="152.08383510977922" y2="219.89096939774907" stroke="#00A86B" stroke-width="0.5"/><line x1="218.85234808480425" y1="219.89096939774907" x2="226.27107174869593" y2="219.89096939774907" stroke="#00A86B" stroke-width="0.5"/><line x1="293.03958472372096" y1="219.89096939774907" x2="300.45830838761265" y2="219.89096939774907" stroke="#00A86B" stroke-width="0.5"/><line x1="367.2268213626377" y1="219.89096939774907" x2="374.6455450265293" y2="219.89096939774907" stroke="#00A86B" stroke-width="0.5"/><line x1="441.41405800155434" y1="219.89096939774907" x2="448.832781665446" y2="219.89096939774907" stroke="#00A86B" stroke-width="0.5"/><line x1="33.384256487512516" y1="284.137116327051" x2="40.802980151404185" y2="284.137116327051" stroke="#00A86B" stroke-width="0.5"/><line x1="107.57149312642922" y1="284.137116327051" x2="114.99021679032089" y2="284.137116327051" stroke="#00A86B" stroke-width="0.5"/><line x1="181.75872976534592" y1="284.137116327051" x2="189.17745342923757" y2="284.137116327051" stroke="#00A86B" stroke-width="0.5"/><line x1="255.9459664042626" y1="284.137116327051" x2="263.3646900681543" y2="284.137116327051" stroke="#00A86B" stroke-width="0.5"/><line x1="330.1332030431793" y1="284.137116327051" x2="337.551926707071" y2="284.137116327051" stroke="#00A86B" stroke-width="0.5"/><line x1="404.32043968209604" y1="284.137116327051" x2="411.73916334598766" y2="284.137116327051" stroke="#00A86B" stroke-width="0.5"/><line x1="478.5076763210127" y1="284.137116327051" x2="485.9263999849044" y2="284.137116327051" stroke="#00A86B" stroke-width="0.5"/><line x1="70.47787480697087" y1="348.3832632563528" x2="77.89659847086253" y2="348.3832632563528" stroke="#00A86B" stroke-width="0.5"/><line x1="144.66511144588756" y1="348.3832632563528" x2="152.08383510977922" y2="348.3832632563528" stroke="#00A86B" stroke-width="0.5"/><line x1="218.85234808480425" y1="348.3832632563528" x2="226.27107174869593" y2="348.3832632563528" stroke="#00A86B" stroke-width="0.5"/><line x1="293.03958472372096" y1="348.3832632563528" x2="300.45830838761265" y2="348.3832632563528" stroke="#00A86B" stroke-width="0.5"/><line x1="367.2268213626377" y1="348.3832632563528" x2="374.6455450265293" y2="348.3832632563528" stroke="#00A86B" stroke-width="0.5"/><line x1="441.41405800155434" y1="348.3832632563528" x2="448.832781665446" y2="348.3832632563528" stroke="#00A86B" stroke-width="0.5"/><line x1="33.384256487512516" y1="412.62941018565465" x2="40.802980151404185" y2="412.62941018565465" stroke="#00A86B" stroke-width="0.5"/><line x1="107.57149312642922" y1="412.62941018565465" x2="114.99021679032089" y2="412.62941018565465" stroke="#00A86B" stroke-width="0.5"/><line x1="181.75872976534592" y1="412.62941018565465" x2="189.17745342923757" y2="412.62941018565465" stroke="#00A86B" stroke-width="0.5"/><line x1="255.9459664042626" y1="412.62941018565465" x2="263.3646900681543" y2="412.62941018565465" stroke="#00A86B" stroke-width="0.5"/><line x1="330.1332030431793" y1="412.62941018565465" x2="337.551926707071" y2="412.62941018565465" stroke="#00A86B" stroke-width="0.5"/><line x1="404.32043968209604" y1="412.62941018565465" x2="411.73916334598766" y2="412.62941018565465" stroke="#00A86B" stroke-width="0.5"/><line x1="478.5076763210127" y1="412.62941018565465" x2="485.9263999849044" y2="412.62941018565465" stroke="#00A86B" stroke-width="0.5"/><line x1="70.47787480697087" y1="476.8755571149565" x2="77.89659847086253" y2="476.8755571149565" stroke="#00A86B" stroke-width="0.5"/><line x1="144.66511144588756" y1="476.8755571149565" x2="152.08383510977922" y2="476.8755571149565" stroke="#00A86B" stroke-width="0.5"/><line x1="218.85234808480425" y1="476.8755571149565" x2="226.27107174869593" y2="476.8755571149565" stroke="#00A86B" stroke-width="0.5"/><line x1="293.03958472372096" y1="476.8755571149565" x2="300.45830838761265" y2="476.8755571149565" stroke="#00A86B" stroke-width="0.5"/><line x1="367.2268213626377" y1="476.8755571149565" x2="374.6455450265293" y2="476.8755571149565" stroke="#00A86B" stroke-width="0.5"/><line x1="441.41405800155434" y1="476.8755571149565" x2="448.832781665446" y2="476.8755571149565" stroke="#00A86B" stroke-width="0.5"/></g></svg>