<svg xmlns="http://www.w3.org/2000/svg" width="512" height="512" viewBox="0 0 512 512"><rect x="0" y="0" width="512" height="512" fill="#050510"/><g opacity="0.08669188620368573"><path d="M -51.45501558026772,-97.76452960250867 L -41.60952459293971,-75.22413345009707 L -18.70924418168763,-84.2007869788478 L -27.68589771043836,-61.30050656759573 L -5.145501558026773,-51.45501558026772 L -27.68589771043836,-41.60952459293971 L -18.70924418168763,-18.709244181687637 L -41.60952459293971,-27.68589771043836 L -51.45501558026772,-5.145501558026773 L -61.30050656759573,-27.68589771043836 L -84.2007869788478,-18.70924418168763 L -75.22413345009707,-41.60952459293969 L -97.76452960250867,-51.45501558026771 L -75.22413345009707,-61.30050656759574 L -84.20078697884782,-84.2007869788478 L -61.30050656759575,-75.22413345009707 Z" fill="none" stroke="#0F52BA" stroke-width="1.890897334269666" /><path d="M 51.45501558026772,-97.76452960250867 L 61.30050656759573,-75.22413345009707 L 84.20078697884782,-84.2007869788478 L 75.22413345009707,-61.30050656759573 L 97.76452960250867,-51.45501558026772 L 75.22413345009707,-41.60952459293971 L 84.20078697884782,-18.709244181687637 L 61.30050656759573,-27.68589771043836 L 51.45501558026772,-5.145501558026773 L 41.60952459293971,-27.68589771043836 L 18.709244181687637,-18.70924418168763 L 27.68589771043837,-41.60952459293969 L 5.145501558026773,-51.45501558026771 L 27.685897710438365,-61.30050656759574 L 18.70924418168763,-84.2007869788478 L 41.60952459293969,-75.22413345009707 Z" fill="none" stroke="#0F52BA" stroke-width="1.890897334269666" /><path d="M 154.36504674080317,-97.76452960250867 L 164.2105377281312,-75.22413345009707 L 187.11081813938324,-84.2007869788478 L 178.13416461063252,-61.30050656759573 L 200.6745607630441,-51.45501558026772 L 178.13416461063252,-41.60952459293971 L 187.11081813938324,-18.709244181687637 L 164.2105377281312,-27.68589771043836 L 154.36504674080317,-5.145501558026773 L 144.51955575347515,-27.68589771043836 L 121.61927534222309,-18.70924418168763 L 130.5959288709738,-41.60952459293969 L 108.05553271856222,-51.45501558026771 L 130.5959288709738,-61.30050656759574 L 121.61927534222308,-84.2007869788478 L 144.51955575347515,-75.22413345009707 Z" fill="none" stroke="#0F52BA" stroke-width="1.890897334269666" /><path d="M 257.2750779013386,-97.76452960250867 L 267.1205688886666,-75.22413345009707 L 290.02084929991867,-84.2007869788478 L 281.04419577116795,-61.30050656759573 L 303.5845919235795,-51.45501558026772 L 281.04419577116795,-41.60952459293971 L 290.02084929991867,-18.709244181687637 L 267.1205688886666,-27.68589771043836 L 257.2750779013386,-5.145501558026773 L 247.42958691401057,-27.68589771043836 L 224.52930650275852,-18.70924418168763 L 233.50596003150923,-41.60952459293969 L 210.96556387909766,-51.45501558026771 L 233.50596003150923,-61.30050656759574 L 224.52930650275852,-84.2007869788478 L 247.42958691401057,-75.22413345009707 Z" fill="none" stroke="#0F52BA" stroke-width="1.890897334269666" /><path d="M 360.185109061874,-97.76452960250867 L 370.030600049202,-75.22413345009707 L 392.9308804604541,-84.2007869788478 L 383.9542269317034,-61.30050656759573 L 406.49462308411495,-51.45501558026772 L 383.9542269317034,-41.60952459293971 L 392.9308804604541,-18.709244181687637 L 370.030600049202,-27.68589771043836 L 360.185109061874,-5.145501558026773 L 350.339618074546,-27.68589771043836 L 327.43933766329394,-18.70924418168763 L 336.41599119204466,-41.60952459293969 L 313.8755950396331,-51.45501558026771 L 336.41599119204466,-61.30050656759574 L 327.43933766329394,-84.2007869788478 L 350.33961807454597,-75.22413345009707 Z" fill="none" stroke="#0F52BA" stroke-width="1.890897334269666" /><path d="M 463.09514022240944,-97.76452960250867 L 472.94063120973743,-75.22413345009707 L 495.8409116209895,-84.2007869788478 L 486.8642580922388,-61.30050656759573 L 509.4046542446504,-51.45501558026772 L 486.8642580922388,-41.60952459293971 L 495.8409116209895,-18.709244181687637 L 472.94063120973743,-27.68589771043836 L 463.09514022240944,-5.145501558026773 L 453.24964923508145,-27.68589771043836 L 430.34936882382937,-18.70924418168763 L 439.3260223525801,-41.60952459293969 L 416.7856262001685,-51.45501558026771 L 439.3260223525801,-61.30050656759574 L 430.34936882382937,-84.2007869788478 L 453.2496492350814,-75.22413345009707 Z" fill="none" stroke="#0F52BA" stroke-width="1.890897334269666" /><path d="M 566.0051713829449,-97.76452960250867 L 575.850662370273,-75.22413345009707 L 598.750942781525,-84.2007869788478 L 589.7742892527742,-61.30050656759573 L 612.3146854051859,-51.45501558026772 L 589.7742892527742,-41.60952459293971 L 598.750942781525,-18.709244181687637 L 575.850662370273,-27.68589771043836 L 566.0051713829449,-5.145501558026773 L 556.1596803956169,-27.68589771043836 L 533.2593999843648,-18.70924418168763 L 542.2360535131156,-41.60952459293969 L 519.695657360704,-51.45501558026771 L 542.2360535131156,-61.30050656759574 L 533.2593999843648,-84.2007869788478 L 556.1596803956169,-75.22413345009707 Z" fill="none" stroke="#0F52BA" stroke-width="1.890897334269666" /><path d="M 2.8356399058703424e-15,-8.644442617484977 L 9.845490987328013,13.895953534926612 L 32.74577139858009,4.919300006175888 L 23.76911786982936,27.819580417427957 L 46.30951402224095,37.66507140475597 L 23.76911786982936,47.51056239208398 L 32.74577139858009,70.41084280333605 L 9.845490987328013,61.43418927458533 L 2.8356399058703424e-15,83.97458542699692 L -9.84549098732801,61.43418927458533 L -32.74577139858008,70.41084280333607 L -23.76911786982935,47.510562392084 L -46.30951402224095,37.66507140475598 L -23.769117869829355,27.81958041742795 L -32.74577139858009,4.919300006175888 L -9.845490987328025,13.895953534926619 Z" fill="none" stroke="#0F52BA" stroke-width="1.890897334269666" /><path d="M 102.91003116053544,-8.644442617484977 L 112.75552214786345,13.895953534926612 L 135.65580255911553,4.919300006175888 L 126.6791490303648,27.819580417427957 L 149.2195451827764,37.66507140475597 L 126.6791490303648,47.51056239208398 L 135.65580255911553,70.41084280333605 L 112.75552214786345,61.43418927458533 L 102.91003116053544,83.97458542699692 L 93.06454017320743,61.43418927458533 L 70.16425976195535,70.41084280333607 L 79.1409132907061,47.510562392084 L 56.60051713829449,37.66507140475598 L 79.14091329070608,27.81958041742795 L 70.16425976195535,4.919300006175888 L 93.06454017320742,13.895953534926619 Z" fill="none" stroke="#0F52BA" stroke-width="1.890897334269666" /><path d="M 205.82006232107088,-8.644442617484977 L 215.6655533083989,13.895953534926612 L 238.56583371965098,4.919300006175888 L 229.58918019090024,27.819580417427957 L 252.12957634331184,37.66507140475597 L 229.58918019090024,47.51056239208398 L 238.56583371965098,70.41084280333605 L 215.6655533083989,61.43418927458533 L 205.82006232107088,83.97458542699692 L 195.97457133374286,61.43418927458533 L 173.0742909224908,70.41084280333607 L 182.05094445124152,47.510562392084 L 159.51054829882992,37.66507140475598 L 182.05094445124152,27.81958041742795 L 173.07429092249077,4.919300006175888 L 195.97457133374286,13.895953534926619 Z" fill="none" stroke="#0F52BA" stroke-width="1.890897334269666" /><path d="M 308.73009348160633,-8.644442617484977 L 318.5755844689343,13.895953534926612 L 341.4758648801864,4.919300006175888 L 332.4992113514357,27.819580417427957 L 355.03960750384726,37.66507140475597 L 332.4992113514357,47.51056239208398 L 341.4758648801864,70.41084280333605 L 318.5755844689343,61.43418927458533 L 308.73009348160633,83.97458542699692 L 298.88460249427834,61.43418927458533 L 275.98432208302626,70.41084280333607 L 284.960975611777,47.510562392084 L 262.4205794593654,37.66507140475598 L 284.960975611777,27.81958041742795 L 275.98432208302626,4.919300006175888 L 298.8846024942783,13.895953534926619 Z" fill="none" stroke="#0F52BA" stroke-width="1.890897334269666" /><path d="M 411.64012464214176,-8.644442617484977 L 421.48561562946975,13.895953534926612 L 444.38589604072183,4.919300006175888 L 435.4092425119711,27.819580417427957 L 457.9496386643827,37.66507140475597 L 435.4092425119711,47.51056239208398 L 444.38589604072183,70.41084280333605 L 421.48561562946975,61.43418927458533 L 411.64012464214176,83.97458542699692 L 401.79463365481377,61.43418927458533 L 378.8943532435617,70.41084280333607 L 387.8710067723124,47.510562392084 L 365.3306106199008,37.66507140475598 L 387.8710067723124,27.81958041742795 L 378.8943532435617,4.919300006175888 L 401.7946336548137,13.895953534926619 Z" fill="none" stroke="#0F52BA" stroke-width="1.890897334269666" /><path d="M 514.5501558026772,-8.644442617484977 L 524.3956467900052,13.895953534926612 L 547.2959272012573,4.919300006175888 L 538.3192736725066,27.819580417427957 L 560.8596698249181,37.66507140475597 L 538.3192736725066,47.51056239208398 L 547.2959272012573,70.41084280333605 L 524.3956467900052,61.43418927458533 L 514.5501558026772,83.97458542699692 L 504.7046648153492,61.43418927458533 L 481.8043844040971,70.41084280333607 L 490.7810379328478,47.510562392084 L 468.24064178043625,37.66507140475598 L 490.7810379328478,27.81958041742795 L 481.8043844040971,4.919300006175888 L 504.70466481534913,13.895953534926619 Z" fill="none" stroke="#0F52BA" stroke-width="1.890897334269666" /><path d="M -51.45501558026772,80.47564436753872 L -41.60952459293971,103.01604051995031 L -18.70924418168763,94.03938699119959 L -27.68589771043836,116.93966740245166 L -5.145501558026773,126.78515838977967 L -27.68589771043836,136.6306493771077 L -18.70924418168763,159.53092978835974 L -41.60952459293971,150.55427625960903 L -51.45501558026772,173.0946724120206 L -61.30050656759573,150.55427625960903 L -84.2007869788478,159.53092978835974 L -75.22413345009707,136.6306493771077 L -97.76452960250867,126.78515838977967 L -75.22413345009707,116.93966740245165 L -84.20078697884782,94.03938699119959 L -61.30050656759575,103.01604051995031 Z" fill="none" stroke="#0F52BA" stroke-width="1.890897334269666" /><path d="M 51.45501558026772,80.47564436753872 L 61.30050656759573,103.01604051995031 L 84.20078697884782,94.03938699119959 L 75.22413345009707,116.93966740245166 L 97.76452960250867,126.78515838977967 L 75.22413345009707,136.6306493771077 L 84.20078697884782,159.53092978835974 L 61.30050656759573,150.55427625960903 L 51.45501558026772,173.0946724120206 L 41.60952459293971,150.55427625960903 L 18.709244181687637,159.53092978835974 L 27.68589771043837,136.6306493771077 L 5.145501558026773,126.78515838977967 L 27.685897710438365,116.93966740245165 L 18.70924418168763,94.03938699119959 L 41.60952459293969,103.01604051995031 Z" fill="none" stroke="#0F52BA" stroke-width="1.890897334269666" /><path d="M 154.36504674080317,80.47564436753872 L 164.2105377281312,103.01604051995031 L 187.11081813938324,94.03938699119959 L 178.13416461063252,116.93966740245166 L 200.6745607630441,126.78515838977967 L 178.13416461063252,136.6306493771077 L 187.11081813938324,159.53092978835974 L 164.2105377281312,150.55427625960903 L 154.36504674080317,173.0946724120206 L 144.51955575347515,150.55427625960903 L 121.61927534222309,159.53092978835974 L 130.5959288709738,136.6306493771077 L 108.05553271856222,126.78515838977967 L 130.5959288709738,116.93966740245165 L 121.61927534222308,94.03938699119959 L 144.51955575347515,103.01604051995031 Z" fill="none" stroke="#0F52BA" stroke-width="1.890897334269666" /><path d="M 257.2750779013386,80.47564436753872 L 267.1205688886666,103.01604051995031 L 290.02084929991867,94.03938699119959 L 281.04419577116795,116.93966740245166 L 303.5845919235795,126.78515838977967 L 281.04419577116795,136.6306493771077 L 290.02084929991867,159.53092978835974 L 267.1205688886666,150.55427625960903 L 257.2750779013386,173.0946724120206 L 247.42958691401057,150.55427625960903 L 224.52930650275852,159.53092978835974 L 233.50596003150923,136.6306493771077 L 210.96556387909766,126.78515838977967 L 233.50596003150923,116.93966740245165 L 224.52930650275852,94.03938699119959 L 247.42958691401057,103.01604051995031 Z" fill="none" stroke="#0F52BA" stroke-width="1.890897334269666" /><path d="M 360.185109061874,80.47564436753872 L 370.030600049202,103.01604051995031 L 392.9308804604541,94.03938699119959 L 383.9542269317034,116.93966740245166 L 406.49462308411495,126.78515838977967 L 383.9542269317034,136.6306493771077 L 392.9308804604541,159.53092978835974 L 370.030600049202,150.55427625960903 L 360.185109061874,173.0946724120206 L 350.339618074546,150.55427625960903 L 327.43933766329394,159.53092978835974 L 336.41599119204466,136.6306493771077 L 313.8755950396331,126.78515838977967 L 336.41599119204466,116.93966740245165 L 327.43933766329394,94.03938699119959 L 350.33961807454597,103.01604051995031 Z" fill="none" stroke="#0F52BA" stroke-width="1.890897334269666" /><path d="M 463.09514022240944,80.47564436753872 L 472.94063120973743,103.01604051995031 L 495.8409116209895,94.03938699119959 L 486.8642580922388,116.93966740245166 L 509.4046542446504,126.78515838977967 L 486.8642580922388,136.6306493771077 L 495.8409116209895,159.53092978835974 L 472.94063120973743,150.55427625960903 L 463.09514022240944,173.0946724120206 L 453.24964923508145,150.55427625960903 L 430.34936882382937,159.53092978835974 L 439.3260223525801,136.6306493771077 L 416.7856262001685,126.78515838977967 L 439.3260223525801,116.93966740245165 L 430.34936882382937,94.03938699119959 L 453.2496492350814,103.01604051995031 Z" fill="none" stroke="#0F52BA" stroke-width="1.890897334269666" /><path d="M 566.0051713829449,80.47564436753872 L 575.850662370273,103.01604051995031 L 598.750942781525,94.03938699119959 L 589.7742892527742,116.93966740245166 L 612.3146854051859,126.78515838977967 L 589.7742892527742,136.6306493771077 L 598.750942781525,159.53092978835974 L 575.850662370273,150.55427625960903 L 566.0051713829449,173.0946724120206 L 556.1596803956169,150.55427625960903 L 533.2593999843648,159.53092978835974 L 542.2360535131156,136.6306493771077 L 519.695657360704,126.78515838977967 L 542.2360535131156,116.93966740245165 L 533.2593999843648,94.03938699119959 L 556.1596803956169,103.01604051995031 Z" fill="none" stroke="#0F52BA" stroke-width="1.890897334269666" /><path d="M 2.8356399058703424e-15,169.59573135256238 L 9.845490987328013,192.13612750497398 L 32.74577139858009,183.15947397622327 L 23.76911786982936,206.05975438747532 L 46.30951402224095,215.90524537480334 L 23.76911786982936,225.75073636213136 L 32.74577139858009,248.65101677338342 L 9.845490987328013,239.6743632446327 L 2.8356399058703424e-15,262.2147593970443 L -9.84549098732801,239.6743632446327 L -32.74577139858008,248.65101677338345 L -23.76911786982935,225.75073636213136 L -46.30951402224095,215.90524537480334 L -23.769117869829355,206.05975438747532 L -32.74577139858009,183.15947397622327 L -9.845490987328025,192.13612750497398 Z" fill="none" stroke="#0F52BA" stroke-width="1.890897334269666" /><path d="M 102.91003116053544,169.59573135256238 L 112.75552214786345,192.13612750497398 L 135.65580255911553,183.15947397622327 L 126.6791490303648,206.05975438747532 L 149.2195451827764,215.90524537480334 L 126.6791490303648,225.75073636213136 L 135.65580255911553,248.65101677338342 L 112.75552214786345,239.6743632446327 L 102.91003116053544,262.2147593970443 L 93.06454017320743,239.6743632446327 L 70.16425976195535,248.65101677338345 L 79.1409132907061,225.75073636213136 L 56.60051713829449,215.90524537480334 L 79.14091329070608,206.05975438747532 L 70.16425976195535,183.15947397622327 L 93.06454017320742,192.13612750497398 Z" fill="none" stroke="#0F52BA" stroke-width="1.890897334269666" /><path d="M 205.82006232107088,169.59573135256238 L 215.6655533083989,192.13612750497398 L 238.56583371965098,183.15947397622327 L 229.58918019090024,206.05975438747532 L 252.12957634331184,215.90524537480334 L 229.58918019090024,225.75073636213136 L 238.56583371965098,248.65101677338342 L 215.6655533083989,239.6743632446327 L 205.82006232107088,262.2147593970443 L 195.97457133374286,239.6743632446327 L 173.0742909224908,248.65101677338345 L 182.05094445124152,225.75073636213136 L 159.51054829882992,215.90524537480334 L 182.05094445124152,206.05975438747532 L 173.07429092249077,183.15947397622327 L 195.97457133374286,192.13612750497398 Z" fill="none" stroke="#0F52BA" stroke-width="1.890897334269666" /><path d="M 308.73009348160633,169.59573135256238 L 318.5755844689343,192.13612750497398 L 341.4758648801864,183.15947397622327 L 332.4992113514357,206.05975438747532 L 355.03960750384726,215.90524537480334 L 332.4992113514357,225.75073636213136 L 341.4758648801864,248.65101677338342 L 318.5755844689343,239.6743632446327 L 308.73009348160633,262.2147593970443 L 298.88460249427834,239.6743632446327 L 275.98432208302626,248.65101677338345 L 284.960975611777,225.75073636213136 L 262.4205794593654,215.90524537480334 L 284.960975611777,206.05975438747532 L 275.98432208302626,183.15947397622327 L 298.8846024942783,192.13612750497398 Z" fill="none" stroke="#0F52BA" stroke-width="1.890897334269666" /><path d="M 411.64012464214176,169.59573135256238 L 421.48561562946975,192.13612750497398 L 444.38589604072183,183.15947397622327 L 435.4092425119711,206.05975438747532 L 457.9496386643827,215.90524537480334 L 435.4092425119711,225.75073636213136 L 444.38589604072183,248.65101677338342 L 421.48561562946975,239.6743632446327 L 411.64012464214176,262.2147593970443 L 401.79463365481377,239.6743632446327 L 378.8943532435617,248.65101677338345 L 387.8710067723124,225.75073636213136 L 365.3306106199008,215.90524537480334 L 387.8710067723124,206.05975438747532 L 378.8943532435617,183.15947397622327 L 401.7946336548137,192.13612750497398 Z" fill="none" stroke="#0F52BA" stroke-width="1.890897334269666" /><path d="M 514.5501558026772,169.59573135256238 L 524.3956467900052,192.13612750497398 L 547.2959272012573,183.15947397622327 L 538.3192736725066,206.05975438747532 L 560.8596698249181,215.90524537480334 L 538.3192736725066,225.75073636213136 L 547.2959272012573,248.65101677338342 L 524.3956467900052,239.6743632446327 L 514.5501558026772,262.2147593970443 L 504.7046648153492,239.6743632446327 L 481.8043844040971,248.65101677338345 L 490.7810379328478,225.75073636213136 L 468.24064178043625,215.90524537480334 L 490.7810379328478,206.05975438747532 L 481.8043844040971,183.15947397622327 L 504.70466481534913,192.13612750497398 Z" fill="none" stroke="#0F52BA" stroke-width="1.890897334269666" /><path d="M -51.45501558026772,258.7158183375861 L -41.60952459293971,281.25621448999766 L -18.70924418168763,272.27956096124694 L -27.68589771043836,295.179841372499 L -5.145501558026773,305.025332359827 L -27.68589771043836,314.870823347155 L -18.70924418168763,337.7711037584071 L -41.60952459293971,328.7944502296564 L -51.45501558026772,351.33484638206795 L -61.30050656759573,328.7944502296564 L -84.2007869788478,337.7711037584071 L -75.22413345009707,314.87082334715507 L -97.76452960250867,305.025332359827 L -75.22413345009707,295.179841372499 L -84.20078697884782,272.27956096124694 L -61.30050656759575,281.25621448999766 Z" fill="none" stroke="#0F52BA" stroke-width="1.890897334269666" /><path d="M 51.45501558026772,258.7158183375861 L 61.30050656759573,281.25621448999766 L 84.20078697884782,272.27956096124694 L 75.22413345009707,295.179841372499 L 97.76452960250867,305.025332359827 L 75.22413345009707,314.870823347155 L 84.20078697884782,337.7711037584071 L 61.30050656759573,328.7944502296564 L 51.45501558026772,351.33484638206795 L 41.60952459293971,328.7944502296564 L 18.709244181687637,337.7711037584071 L 27.68589771043837,314.87082334715507 L 5.145501558026773,305.025332359827 L 27.685897710438365,295.179841372499 L 18.70924418168763,272.27956096124694 L 41.60952459293969,281.25621448999766 Z" fill="none" stroke="#0F52BA" stroke-width="1.890897334269666" /><path d="M 154.36504674080317,258.7158183375861 L 164.2105377281312,281.25621448999766 L 187.11081813938324,272.27956096124694 L 178.13416461063252,295.179841372499 L 200.6745607630441,305.025332359827 L 178.13416461063252,314.870823347155 L 187.11081813938324,337.7711037584071 L 164.2105377281312,328.7944502296564 L 154.36504674080317,351.33484638206795 L 144.51955575347515,328.7944502296564 L 121.61927534222309,337.7711037584071 L 130.5959288709738,314.87082334715507 L 108.05553271856222,305.025332359827 L 130.5959288709738,295.179841372499 L 121.61927534222308,272.27956096124694 L 144.51955575347515,281.25621448999766 Z" fill="none" stroke="#0F52BA" stroke-width="1.890897334269666" /><path d="M 257.2750779013386,258.7158183375861 L 267.1205688886666,281.25621448999766 L 290.02084929991867,272.27956096124694 L 281.04419577116795,295.179841372499 L 303.5845919235795,305.025332359827 L 281.04419577116795,314.870823347155 L 290.02084929991867,337.7711037584071 L 267.1205688886666,328.7944502296564 L 257.2750779013386,351.33484638206795 L 247.42958691401057,328.7944502296564 L 224.52930650275852,337.7711037584071 L 233.50596003150923,314.87082334715507 L 210.96556387909766,305.025332359827 L 233.50596003150923,295.179841372499 L 224.52930650275852,272.27956096124694 L 247.42958691401057,281.25621448999766 Z" fill="none" stroke="#0F52BA" stroke-width="1.890897334269666" /><path d="M 360.185109061874,258.7158183375861 L 370.030600049202,281.25621448999766 L 392.9308804604541,272.27956096124694 L 383.9542269317034,295.179841372499 L 406.49462308411495,305.025332359827 L 383.9542269317034,314.870823347155 L 392.9308804604541,337.7711037584071 L 370.030600049202,328.7944502296564 L 360.185109061874,351.33484638206795 L 350.339618074546,328.7944502296564 L 327.43933766329394,337.7711037584071 L 336.41599119204466,314.87082334715507 L 313.8755950396331,305.025332359827 L 336.41599119204466,295.179841372499 L 327.43933766329394,272.27956096124694 L 350.33961807454597,281.25621448999766 Z" fill="none" stroke="#0F52BA" stroke-width="1.890897334269666" /><path d="M 463.09514022240944,258.7158183375861 L 472.94063120973743,281.25621448999766 L 495.8409116209895,272.27956096124694 L 486.8642580922388,295.179841372499 L 509.4046542446504,305.025332359827 L 486.8642580922388,314.870823347155 L 495.8409116209895,337.7711037584071 L 472.94063120973743,328.7944502296564 L 463.09514022240944,351.33484638206795 L 453.24964923508145,328.7944502296564 L 430.34936882382937,337.7711037584071 L 439.3260223525801,314.87082334715507 L 416.7856262001685,305.025332359827 L 439.3260223525801,295.179841372499 L 430.34936882382937,272.27956096124694 L 453.2496492350814,281.25621448999766 Z" fill="none" stroke="#0F52BA" stroke-width="1.890897334269666" /><path d="M 566.0051713829449,258.7158183375861 L 575.850662370273,281.25621448999766 L 598.750942781525,272.27956096124694 L 589.7742892527742,295.179841372499 L 612.3146854051859,305.025332359827 L 589.7742892527742,314.870823347155 L 598.750942781525,337.7711037584071 L 575.850662370273,328.7944502296564 L 566.0051713829449,351.33484638206795 L 556.1596803956169,328.7944502296564 L 533.2593999843648,337.7711037584071 L 542.2360535131156,314.87082334715507 L 519.695657360704,305.025332359827 L 542.2360535131156,295.179841372499 L 533.2593999843648,272.27956096124694 L 556.1596803956169,281.25621448999766 Z" fill="none" stroke="#0F52BA" stroke-width="1.890897334269666" /><path d="M 2.8356399058703424e-15,347.8359053226098 L 9.845490987328013,370.37630147502136 L 32.74577139858009,361.39964794627065 L 23.76911786982936,384.29992835752273 L 46.30951402224095,394.1454193448507 L 23.76911786982936,403.9909103321787 L 32.74577139858009,426.8911907434308 L 9.845490987328013,417.9145372146801 L 2.8356399058703424e-15,440.45493336709166 L -9.84549098732801,417.9145372146801 L -32.74577139858008,426.8911907434308 L -23.76911786982935,403.99091033217877 L -46.30951402224095,394.1454193448507 L -23.769117869829355,384.29992835752273 L -32.74577139858009,361.39964794627065 L -9.845490987328025,370.37630147502136 Z" fill="none" stroke="#0F52BA" stroke-width="1.890897334269666" /><path d="M 102.91003116053544,347.8359053226098 L 112.75552214786345,370.37630147502136 L 135.65580255911553,361.39964794627065 L 126.6791490303648,384.29992835752273 L 149.2195451827764,394.1454193448507 L 126.6791490303648,403.9909103321787 L 135.65580255911553,426.8911907434308 L 112.75552214786345,417.9145372146801 L 102.91003116053544,440.45493336709166 L 93.06454017320743,417.9145372146801 L 70.16425976195535,426.8911907434308 L 79.1409132907061,403.99091033217877 L 56.60051713829449,394.1454193448507 L 79.14091329070608,384.29992835752273 L 70.16425976195535,361.39964794627065 L 93.06454017320742,370.37630147502136 Z" fill="none" stroke="#0F52BA" stroke-width="1.890897334269666" /><path d="M 205.82006232107088,347.8359053226098 L 215.6655533083989,370.37630147502136 L 238.56583371965098,361.39964794627065 L 229.58918019090024,384.29992835752273 L 252.12957634331184,394.1454193448507 L 229.58918019090024,403.9909103321787 L 238.56583371965098,426.8911907434308 L 215.6655533083989,417.9145372146801 L 205.82006232107088,440.45493336709166 L 195.97457133374286,417.9145372146801 L 173.0742909224908,426.8911907434308 L 182.05094445124152,403.99091033217877 L 159.51054829882992,394.1454193448507 L 182.05094445124152,384.29992835752273 L 173.07429092249077,361.39964794627065 L 195.97457133374286,370.37630147502136 Z" fill="none" stroke="#0F52BA" stroke-width="1.890897334269666" /><path d="M 308.73009348160633,347.8359053226098 L 318.5755844689343,370.37630147502136 L 341.4758648801864,361.39964794627065 L 332.4992113514357,384.29992835752273 L 355.03960750384726,394.1454193448507 L 332.4992113514357,403.9909103321787 L 341.4758648801864,426.8911907434308 L 318.5755844689343,417.9145372146801 L 308.73009348160633,440.45493336709166 L 298.88460249427834,417.9145372146801 L 275.98432208302626,426.8911907434308 L 284.960975611777,403.99091033217877 L 262.4205794593654,394.1454193448507 L 284.960975611777,384.29992835752273 L 275.98432208302626,361.39964794627065 L 298.8846024942783,370.37630147502136 Z" fill="none" stroke="#0F52BA" stroke-width="1.890897334269666" /><path d="M 411.64012464214176,347.8359053226098 L 421.48561562946975,370.37630147502136 L 444.38589604072183,361.39964794627065 L 435.4092425119711,384.29992835752273 L 457.9496386643827,394.1454193448507 L 435.4092425119711,403.9909103321787 L 444.38589604072183,426.8911907434308 L 421.48561562946975,417.9145372146801 L 411.64012464214176,440.45493336709166 L 401.79463365481377,417.9145372146801 L 378.8943532435617,426.8911907434308 L 387.8710067723124,403.99091033217877 L 365.3306106199008,394.1454193448507 L 387.8710067723124,384.29992835752273 L 378.8943532435617,361.39964794627065 L 401.7946336548137,370.37630147502136 Z" fill="none" stroke="#0F52BA" stroke-width="1.890897334269666" /><path d="M 514.5501558026772,347.8359053226098 L 524.3956467900052,370.37630147502136 L 547.2959272012573,361.39964794627065 L 538.3192736725066,384.29992835752273 L 560.8596698249181,394.1454193448507 L 538.3192736725066,403.9909103321787 L 547.2959272012573,426.8911907434308 L 524.3956467900052,417.9145372146801 L 514.5501558026772,440.45493336709166 L 504.7046648153492,417.9145372146801 L 481.8043844040971,426.8911907434308 L 490.7810379328478,403.99091033217877 L 468.24064178043625,394.1454193448507 L 490.7810379328478,384.29992835752273 L 481.8043844040971,361.39964794627065 L 504.70466481534913,370.37630147502136 Z" fill="none" stroke="#0F52BA" stroke-width="1.890897334269666" /><path d="M -51.45501558026772,436.95599230763344 L -41.60952459293971,459.496388460045 L -18.70924418168763,450.5197349312943 L -27.68589771043836,473.4200153425464 L -5.145501558026773,483.26550632987437 L -27.68589771043836,493.11099731720236 L -18.70924418168763,516.0112777284545 L -41.60952459293971,507.0346241997037 L -51.45501558026772,529.5750203521153 L -61.30050656759573,507.0346241997037 L -84.2007869788478,516.0112777284545 L -75.22413345009707,493.1109973172024 L -97.76452960250867,483.26550632987437 L -75.22413345009707,473.4200153425464 L -84.20078697884782,450.5197349312943 L -61.30050656759575,459.496388460045 Z" fill="none" stroke="#0F52BA" stroke-width="1.890897334269666" /><path d="M 51.45501558026772,436.95599230763344 L 61.30050656759573,459.496388460045 L 84.20078697884782,450.5197349312943 L 75.22413345009707,473.4200153425464 L 97.76452960250867,483.26550632987437 L 75.22413345009707,493.11099731720236 L 84.20078697884782,516.0112777284545 L 61.30050656759573,507.0346241997037 L 51.45501558026772,529.5750203521153 L 41.60952459293971,507.0346241997037 L 18.709244181687637,516.0112777284545 L 27.68589771043837,493.1109973172024 L 5.145501558026773,483.26550632987437 L 27.685897710438365,473.4200153425464 L 18.70924418168763,450.5197349312943 L 41.60952459293969,459.496388460045 Z" fill="none" stroke="#0F52BA" stroke-width="1.890897334269666" /><path d="M 154.36504674080317,436.95599230763344 L 164.2105377281312,459.496388460045 L 187.11081813938324,450.5197349312943 L 178.13416461063252,473.4200153425464 L 200.6745607630441,483.26550632987437 L 178.13416461063252,493.11099731720236 L 187.11081813938324,516.0112777284545 L 164.2105377281312,507.0346241997037 L 154.36504674080317,529.5750203521153 L 144.51955575347515,507.0346241997037 L 121.61927534222309,516.0112777284545 L 130.5959288709738,493.1109973172024 L 108.05553271856222,483.26550632987437 L 130.5959288709738,473.4200153425464 L 121.61927534222308,450.5197349312943 L 144.51955575347515,459.496388460045 Z" fill="none" stroke="#0F52BA" stroke-width="1.890897334269666" /><path d="M 257.2750779013386,436.95599230763344 L 267.1205688886666,459.496388460045 L 290.02084929991867,450.5197349312943 L 281.04419577116795,473.4200153425464 L 303.5845919235795,483.26550632987437 L 281.04419577116795,493.11099731720236 L 290.02084929991867,516.0112777284545 L 267.1205688886666,507.0346241997037 L 257.2750779013386,529.5750203521153 L 247.42958691401057,507.0346241997037 L 224.52930650275852,516.0112777284545 L 233.50596003150923,493.1109973172024 L 210.96556387909766,483.26550632987437 L 233.50596003150923,473.4200153425464 L 224.52930650275852,450.5197349312943 L 247.42958691401057,459.496388460045 Z" fill="none" stroke="#0F52BA" stroke-width="1.890897334269666" /><path d="M 360.185109061874,436.95599230763344 L 370.030600049202,459.496388460045 L 392.9308804604541,450.5197349312943 L 383.9542269317034,473.4200153425464 L 406.49462308411495,483.26550632987437 L 383.9542269317034,493.11099731720236 L 392.9308804604541,516.0112777284545 L 370.030600049202,507.0346241997037 L 360.185109061874,529.5750203521153 L 350.339618074546,507.0346241997037 L 327.43933766329394,516.0112777284545 L 336.41599119204466,493.1109973172024 L 313.8755950396331,483.26550632987437 L 336.41599119204466,473.4200153425464 L 327.43933766329394,450.5197349312943 L 350.33961807454597,459.496388460045 Z" fill="none" stroke="#0F52BA" stroke-width="1.890897334269666" /><path d="M 463.09514022240944,436.95599230763344 L 472.94063120973743,459.496388460045 L 495.8409116209895,450.5197349312943 L 486.8642580922388,473.4200153425464 L 509.4046542446504,483.26550632987437 L 486.8642580922388,493.11099731720236 L 495.8409116209895,516.0112777284545 L 472.94063120973743,507.0346241997037 L 463.09514022240944,529.5750203521153 L 453.24964923508145,507.0346241997037 L 430.34936882382937,516.0112777284545 L 439.3260223525801,493.1109973172024 L 416.7856262001685,483.26550632987437 L 439.3260223525801,473.4200153425464 L 430.34936882382937,450.5197349312943 L 453.2496492350814,459.496388460045 Z" fill="none" stroke="#0F52BA" stroke-width="1.890897334269666" /><path d="M 566.0051713829449,436.95599230763344 L 575.850662370273,459.496388460045 L 598.750942781525,450.5197349312943 L 589.7742892527742,473.4200153425464 L 612.3146854051859,483.26550632987437 L 589.7742892527742,493.11099731720236 L 598.750942781525,516.0112777284545 L 575.850662370273,507.0346241997037 L 566.0051713829449,529.5750203521153 L 556.1596803956169,507.0346241997037 L 533.2593999843648,516.0112777284545 L 542.2360535131156,493.1109973172024 L 519.695657360704,483.26550632987437 L 542.2360535131156,473.4200153425464 L 533.2593999843648,450.5197349312943 L 556.1596803956169,459.496388460045 Z" fill="none" stroke="#0F52BA" stroke-width="1.890897334269666" /><line x1="46.30951402224095" y1="37.66507140475597" x2="56.60051713829449" y2="37.66507140475597" stroke="#0F52BA" stroke-width="0.5"/><line x1="149.2195451827764" y1="37.66507140475597" x2="159.51054829882992" y2="37.66507140475597" stroke="#0F52BA" stroke-width="0.5"/><line x1="252.12957634331184" y1="37.66507140475597" x2="262.4205794593654" y2="37.66507140475597" stroke="#0F52BA" stroke-width="0.5"/><line x1="355.03960750384726" y1="37.66507140475597" x2="365.3306106199008" y2="37.66507140475597" stroke="#0F52BA" stroke-width="0.5"/><line x1="457.9496386643827" y1="37.66507140475597" x2="468.24064178043625" y2="37.66507140475597" stroke="#0F52BA" stroke-width="0.5"/><line x1="97.76452960250867" y1="126.78515838977967" x2="108.05553271856222" y2="126.78515838977967" stroke="#0F52BA" stroke-width="0.5"/><line x1="200.6745607630441" y1="126.78515838977967" x2="210.96556387909766" y2="126.78515838977967" stroke="#0F52BA" stroke-width="0.5"/><line x1="303.5845919235795" y1="126.78515838977967" x2="313.8755950396331" y2="126.78515838977967" stroke="#0F52BA" stroke-width="0.5"/><line x1="406.49462308411495" y1="126.78515838977967" x2="416.7856262001685" y2="126.78515838977967" stroke="#0F52BA" stroke-width="0.5"/><line x1="46.30951402224095" y1="215.90524537480334" x2="56.60051713829449" y2="215.90524537480334" stroke="#0F52BA" stroke-width="0.5"/><line x1="149.2195451827764" y1="215.90524537480334" x2="159.51054829882992" y2="215.90524537480334" stroke="#0F52BA" stroke-width="0.5"/><line x1="252.12957634331184" y1="215.90524537480334" x2="262.4205794593654" y2="215.90524537480334" stroke="#0F52BA" stroke-width="0.5"/><line x1="355.03960750384726" y1="215.90524537480334" x2="365.3306106199008" y2="215.90524537480334" stroke="#0F52BA" stroke-width="0.5"/><line x1="457.9496386643827" y1="215.90524537480334" x2="468.24064178043625" y2="215.90524537480334" stroke="#0F52BA" stroke-width="0.5"/><line x1="97.76452960250867" y1="305.025332359827" x2="108.05553271856222" y2="305.025332359827" stroke="#0F52BA" stroke-width="0.5"/><line x1="200.6745607630441" y1="305.025332359827" x2="210.96556387909766" y2="305.025332359827" stroke="#0F52BA" stroke-width="0.5"/><line x1="303.5845919235795" y1="305.025332359827" x2="313.8755950396331" y2="305.025332359827" stroke="#0F52BA" stroke-width="0.5"/><line x1="406.49462308411495" y1="305.025332359827" x2="416.7856262001685" y2="305.025332359827" stroke="#0F52BA" stroke-width="0.5"/><line x1="46.30951402224095" y1="394.1454193448507" x2="56.60051713829449" y2="394.1454193448507" stroke="#0F52BA" stroke-width="0.5"/><line x1="149.2195451827764" y1="394.1454193448507" x2="159.51054829882992" y2="394.1454193448507" stroke="#0F52BA" stroke-width="0.5"/><line x1="252.12957634331184" y1="394.1454193448507" x2="262.4205794593654" y2="394.1454193448507" stroke="#0F52BA" stroke-width="0.5"/><line x1="355.03960750384726" y1="394.1454193448507" x2="365.3306106199008" y2="394.1454193448507" stroke="#0F52BA" stroke-width="0.5"/><line x1="457.9496386643827" y1="394.1454193448507" x2="468.24064178043625" y2="394.1454193448507" stroke="#0F52BA" stroke-width="0.5"/><line x1="97.76452960250867" y1="483.26550632987437" x2="108.05553271856222" y2="483.26550632987437" stroke="#0F52BA" stroke-width="0.5"/><line x1="200.6745607630441" y1="483.26550632987437" x2="210.96556387909766" y2="483.26550632987437" stroke="#0F52BA" stroke-width="0.5"/><line x1="303.5845919235795" y1="483.26550632987437" x2="313.8755950396331" y2="483.26550632987437" stroke="#0F52BA" stroke-width="0.5"/><line x1="406.49462308411495" y1="483.26550632987437" x2="416.7856262001685" y2="483.26550632987437" stroke="#0F52BA" stroke-width="0.5"/></g></svg>