<svg xmlns="http://www.w3.org/2000/svg" width="1200" height="630" viewBox="0 0 1200 630"><rect x="0" y="0" width="1200" height="630" fill="#0D0D0D"/><g opacity="0.05"><line x1="0" y1="0" x2="0" y2="630" stroke="#8B7355" stroke-width="0.5"/><line x1="60" y1="0" x2="60" y2="630" stroke="#8B7355" stroke-width="0.5"/><line x1="120" y1="0" x2="120" y2="630" stroke="#8B7355" stroke-width="0.5"/><line x1="180" y1="0" x2="180" y2="630" stroke="#8B7355" stroke-width="0.5"/><line x1="240" y1="0" x2="240" y2="630" stroke="#8B7355" stroke-width="0.5"/><line x1="300" y1="0" x2="300" y2="630" stroke="#8B7355" stroke-width="0.5"/><line x1="360" y1="0" x2="360" y2="630" stroke="#8B7355" stroke-width="0.5"/><line x1="420" y1="0" x2="420" y2="630" stroke="#8B7355" stroke-width="0.5"/><line x1="480" y1="0" x2="480" y2="630" stroke="#8B7355" stroke-width="0.5"/><line x1="540" y1="0" x2="540" y2="630" stroke="#8B7355" stroke-width="0.5"/><line x1="600" y1="0" x2="600" y2="630" stroke="#8B7355" stroke-width="0.5"/><line x1="660" y1="0" x2="660" y2="630" stroke="#8B7355" stroke-width="0.5"/><line x1="720" y1="0" x2="720" y2="630" stroke="#8B7355" stroke-width="0.5"/><line x1="780" y1="0" x2="780" y2="630" stroke="#8B7355" stroke-width="0.5"/><line x1="840" y1="0" x2="840" y2="630" stroke="#8B7355" stroke-width="0.5"/><line x1="900" y1="0" x2="900" y2="630" stroke="#8B7355" stroke-width="0.5"/><line x1="960" y1="0" x2="960" y2="630" stroke="#8B7355" stroke-width="0.5"/><line x1="1020" y1="0" x2="1020" y2="630" stroke="#8B7355" stroke-width="0.5"/><line x1="1080" y1="0" x2="1080" y2="630" stroke="#8B7355" stroke-width="0.5"/><line x1="1140" y1="0" x2="1140" y2="630" stroke="#8B7355" stroke-width="0.5"/><line x1="1200" y1="0" x2="1200" y2="630" stroke="#8B7355" stroke-width="0.5"/><line x1="0" y1="0" x2="1200" y2="0" stroke="#8B7355" stroke-width="0.5"/><line x1="0" y1="60" x2="1200" y2="60" stroke="#8B7355" stroke-width="0.5"/><line x1="0" y1="120" x2="1200" y2="120" stroke="#8B7355" stroke-width="0.5"/><line x1="0" y1="180" x2="1200" y2="180" stroke="#8B7355" stroke-width="0.5"/><line x1="0" y1="240" x2="1200" y2="240" stroke="#8B7355" stroke-width="0.5"/><line x1="0" y1="300" x2="1200" y2="300" stroke="#8B7355" stroke-width="0.5"/><line x1="0" y1="360" x2="1200" y2="360" stroke="#8B7355" stroke-width="0.5"/><line x1="0" y1="420" x2="1200" y2="420" stroke="#8B7355" stroke-width="0.5"/><line x1="0" y1="480" x2="1200" y2="480" stroke="#8B7355" stroke-width="0.5"/><line x1="0" y1="540" x2="1200" y2="540" stroke="#8B7355" stroke-width="0.5"/><line x1="0" y1="600" x2="1200" y2="600" stroke="#8B7355" stroke-width="0.5"/><line x1="0" y1="660" x2="1200" y2="660" stroke="#8B7355" stroke-width="0.5"/></g><g opacity="0.08855636568672787"><path d="M -52.952317190818675,-100.60940266255548 L -42.82032994368495,-77.41309821664014 L -19.25366888216668,-86.65096549947066 L -28.49153616499721,-63.0843044379524 L -5.295231719081869,-52.952317190818675 L -28.49153616499721,-42.82032994368495 L -19.25366888216668,-19.253668882166686 L -42.82032994368495,-28.49153616499721 L -52.952317190818675,-5.295231719081869 L -63.0843044379524,-28.49153616499721 L -86.65096549947066,-19.25366888216668 L -77.41309821664014,-42.82032994368494 L -100.60940266255548,-52.95231719081867 L -77.41309821664014,-63.084304437952404 L -86.65096549947067,-86.65096549947066 L -63.08430443795241,-77.41309821664014 Z" fill="none" stroke="#FFD700" stroke-width="0.642164826459328" /><path d="M 52.952317190818675,-100.60940266255548 L 63.0843044379524,-77.41309821664014 L 86.65096549947067,-86.65096549947066 L 77.41309821664014,-63.0843044379524 L 100.60940266255548,-52.952317190818675 L 77.41309821664014,-42.82032994368495 L 86.65096549947067,-19.253668882166686 L 63.0843044379524,-28.49153616499721 L 52.952317190818675,-5.295231719081869 L 42.82032994368495,-28.49153616499721 L 19.253668882166686,-19.25366888216668 L 28.491536164997218,-42.82032994368494 L 5.295231719081869,-52.95231719081867 L 28.491536164997214,-63.084304437952404 L 19.25366888216668,-86.65096549947066 L 42.82032994368494,-77.41309821664014 Z" fill="none" stroke="#FFD700" stroke-width="0.642164826459328" /><path d="M 158.856951572456,-100.60940266255548 L 168.98893881958975,-77.41309821664014 L 192.555599881108,-86.65096549947066 L 183.31773259827747,-63.0843044379524 L 206.51403704419283,-52.952317190818675 L 183.31773259827747,-42.82032994368495 L 192.555599881108,-19.253668882166686 L 168.98893881958975,-28.49153616499721 L 158.856951572456,-5.295231719081869 L 148.7249643253223,-28.49153616499721 L 125.15830326380402,-19.25366888216668 L 134.39617054663455,-42.82032994368494 L 111.1998661007192,-52.95231719081867 L 134.39617054663455,-63.084304437952404 L 125.15830326380402,-86.65096549947066 L 148.72496432532228,-77.41309821664014 Z" fill="none" stroke="#FFD700" stroke-width="0.642164826459328" /><path d="M 264.76158595409333,-100.60940266255548 L 274.89357320122707,-77.41309821664014 L 298.4602342627453,-86.65096549947066 L 289.2223669799148,-63.0843044379524 L 312.41867142583015,-52.952317190818675 L 289.2223669799148,-42.82032994368495 L 298.4602342627453,-19.253668882166686 L 274.89357320122707,-28.49153616499721 L 264.76158595409333,-5.295231719081869 L 254.62959870695963,-28.49153616499721 L 231.06293764544134,-19.25366888216668 L 240.30080492827187,-42.82032994368494 L 217.1045004823565,-52.95231719081867 L 240.30080492827187,-63.084304437952404 L 231.06293764544134,-86.65096549947066 L 254.6295987069596,-77.41309821664014 Z" fill="none" stroke="#FFD700" stroke-width="0.642164826459328" /><path d="M 370.6662203357307,-100.60940266255548 L 380.79820758286445,-77.41309821664014 L 404.3648686443827,-86.65096549947066 L 395.1270013615522,-63.0843044379524 L 418.32330580746753,-52.952317190818675 L 395.1270013615522,-42.82032994368495 L 404.3648686443827,-19.253668882166686 L 380.79820758286445,-28.49153616499721 L 370.6662203357307,-5.295231719081869 L 360.534233088597,-28.49153616499721 L 336.96757202707875,-19.25366888216668 L 346.20543930990925,-42.82032994368494 L 323.0091348639939,-52.95231719081867 L 346.20543930990925,-63.084304437952404 L 336.96757202707875,-86.65096549947066 L 360.534233088597,-77.41309821664014 Z" fill="none" stroke="#FFD700" stroke-width="0.642164826459328" /><path d="M 476.5708547173681,-100.60940266255548 L 486.70284196450183,-77.41309821664014 L 510.26950302602006,-86.65096549947066 L 501.03163574318955,-63.0843044379524 L 524.2279401891049,-52.952317190818675 L 501.03163574318955,-42.82032994368495 L 510.26950302602006,-19.253668882166686 L 486.70284196450183,-28.49153616499721 L 476.5708547173681,-5.295231719081869 L 466.43886747023436,-28.49153616499721 L 442.8722064087161,-19.25366888216668 L 452.11007369154663,-42.82032994368494 L 428.9137692456313,-52.95231719081867 L 452.11007369154663,-63.084304437952404 L 442.8722064087161,-86.65096549947066 L 466.43886747023436,-77.41309821664014 Z" fill="none" stroke="#FFD700" stroke-width="0.642164826459328" /><path d="M 582.4754890990054,-100.60940266255548 L 592.607476346139,-77.41309821664014 L 616.1741374076573,-86.65096549947066 L 606.9362701248268,-63.0843044379524 L 630.1325745707421,-52.952317190818675 L 606.9362701248268,-42.82032994368495 L 616.1741374076573,-19.253668882166686 L 592.607476346139,-28.49153616499721 L 582.4754890990054,-5.295231719081869 L 572.3435018518717,-28.49153616499721 L 548.7768407903534,-19.25366888216668 L 558.0147080731839,-42.82032994368494 L 534.8184036272686,-52.95231719081867 L 558.0147080731839,-63.084304437952404 L 548.7768407903534,-86.65096549947066 L 572.3435018518717,-77.41309821664014 Z" fill="none" stroke="#FFD700" stroke-width="0.642164826459328" /><path d="M 688.3801234806427,-100.60940266255548 L 698.5121107277764,-77.41309821664014 L 722.0787717892947,-86.65096549947066 L 712.8409045064642,-63.0843044379524 L 736.0372089523795,-52.952317190818675 L 712.8409045064642,-42.82032994368495 L 722.0787717892947,-19.253668882166686 L 698.5121107277764,-28.49153616499721 L 688.3801234806427,-5.295231719081869 L 678.2481362335091,-28.49153616499721 L 654.6814751719908,-19.25366888216668 L 663.9193424548213,-42.82032994368494 L 640.723038008906,-52.95231719081867 L 663.9193424548213,-63.084304437952404 L 654.6814751719908,-86.65096549947066 L 678.2481362335091,-77.41309821664014 Z" fill="none" stroke="#FFD700" stroke-width="0.642164826459328" /><path d="M 794.2847578622801,-100.60940266255548 L 804.4167451094138,-77.41309821664014 L 827.9834061709321,-86.65096549947066 L 818.7455388881016,-63.0843044379524 L 841.9418433340169,-52.952317190818675 L 818.7455388881016,-42.82032994368495 L 827.9834061709321,-19.253668882166686 L 804.4167451094138,-28.49153616499721 L 794.2847578622801,-5.295231719081869 L 784.1527706151464,-28.49153616499721 L 760.5861095536281,-19.25366888216668 L 769.8239768364587,-42.82032994368494 L 746.6276723905434,-52.95231719081867 L 769.8239768364587,-63.084304437952404 L 760.5861095536281,-86.65096549947066 L 784.1527706151464,-77.41309821664014 Z" fill="none" stroke="#FFD700" stroke-width="0.642164826459328" /><path d="M 900.1893922439175,-100.60940266255548 L 910.3213794910512,-77.41309821664014 L 933.8880405525695,-86.65096549947066 L 924.650173269739,-63.0843044379524 L 947.8464777156543,-52.952317190818675 L 924.650173269739,-42.82032994368495 L 933.8880405525695,-19.253668882166686 L 910.3213794910512,-28.49153616499721 L 900.1893922439175,-5.295231719081869 L 890.0574049967838,-28.49153616499721 L 866.4907439352655,-19.25366888216668 L 875.728611218096,-42.82032994368494 L 852.5323067721807,-52.95231719081867 L 875.728611218096,-63.084304437952404 L 866.4907439352655,-86.65096549947066 L 890.0574049967838,-77.41309821664014 Z" fill="none" stroke="#FFD700" stroke-width="0.642164826459328" /><path d="M 1006.0940266255549,-100.60940266255548 L 1016.2260138726886,-77.41309821664014 L 1039.7926749342068,-86.65096549947066 L 1030.5548076513764,-63.0843044379524 L 1053.7511120972918,-52.952317190818675 L 1030.5548076513764,-42.82032994368495 L 1039.7926749342068,-19.253668882166686 L 1016.2260138726886,-28.49153616499721 L 1006.0940266255549,-5.295231719081869 L 995.9620393784212,-28.49153616499721 L 972.3953783169029,-19.25366888216668 L 981.6332455997334,-42.82032994368494 L 958.4369411538181,-52.95231719081867 L 981.6332455997334,-63.084304437952404 L 972.3953783169029,-86.65096549947066 L 995.9620393784212,-77.41309821664014 Z" fill="none" stroke="#FFD700" stroke-width="0.642164826459328" /><path d="M 1111.9986610071924,-100.60940266255548 L 1122.1306482543262,-77.41309821664014 L 1145.6973093158444,-86.65096549947066 L 1136.4594420330138,-63.0843044379524 L 1159.6557464789291,-52.952317190818675 L 1136.4594420330138,-42.82032994368495 L 1145.6973093158444,-19.253668882166686 L 1122.1306482543262,-28.49153616499721 L 1111.9986610071924,-5.295231719081869 L 1101.8666737600586,-28.49153616499721 L 1078.3000126985403,-19.25366888216668 L 1087.537879981371,-42.82032994368494 L 1064.3415755354556,-52.95231719081867 L 1087.537879981371,-63.084304437952404 L 1078.3000126985403,-86.65096549947066 L 1101.8666737600586,-77.41309821664014 Z" fill="none" stroke="#FFD700" stroke-width="0.642164826459328" /><path d="M 1217.9032953888295,-100.60940266255548 L 1228.0352826359633,-77.41309821664014 L 1251.6019436974816,-86.65096549947066 L 1242.364076414651,-63.0843044379524 L 1265.5603808605663,-52.952317190818675 L 1242.364076414651,-42.82032994368495 L 1251.6019436974816,-19.253668882166686 L 1228.0352826359633,-28.49153616499721 L 1217.9032953888295,-5.295231719081869 L 1207.7713081416957,-28.49153616499721 L 1184.2046470801774,-19.25366888216668 L 1193.442514363008,-42.82032994368494 L 1170.2462099170928,-52.95231719081867 L 1193.442514363008,-63.084304437952404 L 1184.2046470801774,-86.65096549947066 L 1207.7713081416957,-77.41309821664014 Z" fill="none" stroke="#FFD700" stroke-width="0.642164826459328" /><path d="M 2.9181548589827156e-15,-8.895989288057535 L 10.131987247133722,14.300315157857806 L 33.698648308652,5.062447875027281 L 24.460781025821465,28.62910893654555 L 47.657085471736806,38.76109618367927 L 24.460781025821465,48.89308343081299 L 33.698648308652,72.45974449233125 L 10.131987247133722,63.22187720950073 L 2.9181548589827156e-15,86.41818165541608 L -10.131987247133718,63.22187720950073 L -33.69864830865199,72.45974449233127 L -24.460781025821458,48.89308343081301 L -47.657085471736806,38.76109618367928 L -24.46078102582146,28.629108936545542 L -33.698648308652,5.062447875027281 L -10.131987247133734,14.300315157857813 Z" fill="none" stroke="#FFD700" stroke-width="0.642164826459328" /><path d="M 105.90463438163735,-8.895989288057535 L 116.03662162877107,14.300315157857806 L 139.60328269028935,5.062447875027281 L 130.3654154074588,28.62910893654555 L 153.56171985337414,38.76109618367927 L 130.3654154074588,48.89308343081299 L 139.60328269028935,72.45974449233125 L 116.03662162877107,63.22187720950073 L 105.90463438163735,86.41818165541608 L 95.77264713450363,63.22187720950073 L 72.20598607298535,72.45974449233127 L 81.44385335581589,48.89308343081301 L 58.247548909900544,38.76109618367928 L 81.44385335581589,28.629108936545542 L 72.20598607298535,5.062447875027281 L 95.77264713450361,14.300315157857813 Z" fill="none" stroke="#FFD700" stroke-width="0.642164826459328" /><path d="M 211.8092687632747,-8.895989288057535 L 221.94125601040844,14.300315157857806 L 245.5079170719267,5.062447875027281 L 236.27004978909616,28.62910893654555 L 259.4663542350115,38.76109618367927 L 236.27004978909616,48.89308343081299 L 245.5079170719267,72.45974449233125 L 221.94125601040844,63.22187720950073 L 211.8092687632747,86.41818165541608 L 201.677281516141,63.22187720950073 L 178.1106204546227,72.45974449233127 L 187.34848773745324,48.89308343081301 L 164.15218329153788,38.76109618367928 L 187.34848773745324,28.629108936545542 L 178.1106204546227,5.062447875027281 L 201.67728151614097,14.300315157857813 Z" fill="none" stroke="#FFD700" stroke-width="0.642164826459328" /><path d="M 317.713903144912,-8.895989288057535 L 327.84589039204576,14.300315157857806 L 351.412551453564,5.062447875027281 L 342.1746841707335,28.62910893654555 L 365.37098861664884,38.76109618367927 L 342.1746841707335,48.89308343081299 L 351.412551453564,72.45974449233125 L 327.84589039204576,63.22187720950073 L 317.713903144912,86.41818165541608 L 307.5819158977783,63.22187720950073 L 284.01525483626006,72.45974449233127 L 293.25312211909056,48.89308343081301 L 270.0568176731752,38.76109618367928 L 293.25312211909056,28.629108936545542 L 284.01525483626006,5.062447875027281 L 307.5819158977783,14.300315157857813 Z" fill="none" stroke="#FFD700" stroke-width="0.642164826459328" /><path d="M 423.6185375265494,-8.895989288057535 L 433.75052477368314,14.300315157857806 L 457.31718583520137,5.062447875027281 L 448.07931855237086,28.62910893654555 L 471.2756229982862,38.76109618367927 L 448.07931855237086,48.89308343081299 L 457.31718583520137,72.45974449233125 L 433.75052477368314,63.22187720950073 L 423.6185375265494,86.41818165541608 L 413.48655027941567,63.22187720950073 L 389.91988921789743,72.45974449233127 L 399.15775650072794,48.89308343081301 L 375.9614520548126,38.76109618367928 L 399.15775650072794,28.629108936545542 L 389.91988921789743,5.062447875027281 L 413.48655027941567,14.300315157857813 Z" fill="none" stroke="#FFD700" stroke-width="0.642164826459328" /><path d="M 529.5231719081868,-8.895989288057535 L 539.6551591553205,14.300315157857806 L 563.2218202168388,5.062447875027281 L 553.9839529340082,28.62910893654555 L 577.1802573799235,38.76109618367927 L 553.9839529340082,48.89308343081299 L 563.2218202168388,72.45974449233125 L 539.6551591553205,63.22187720950073 L 529.5231719081868,86.41818165541608 L 519.3911846610531,63.22187720950073 L 495.8245235995348,72.45974449233127 L 505.0623908823653,48.89308343081301 L 481.86608643644996,38.76109618367928 L 505.0623908823653,28.629108936545542 L 495.8245235995348,5.062447875027281 L 519.3911846610531,14.300315157857813 Z" fill="none" stroke="#FFD700" stroke-width="0.642164826459328" /><path d="M 635.427806289824,-8.895989288057535 L 645.5597935369577,14.300315157857806 L 669.126454598476,5.062447875027281 L 659.8885873156455,28.62910893654555 L 683.0848917615608,38.76109618367927 L 659.8885873156455,48.89308343081299 L 669.126454598476,72.45974449233125 L 645.5597935369577,63.22187720950073 L 635.427806289824,86.41818165541608 L 625.2958190426904,63.22187720950073 L 601.7291579811721,72.45974449233127 L 610.9670252640026,48.89308343081301 L 587.7707208180873,38.76109618367928 L 610.9670252640026,28.629108936545542 L 601.7291579811721,5.062447875027281 L 625.2958190426904,14.300315157857813 Z" fill="none" stroke="#FFD700" stroke-width="0.642164826459328" /><path d="M 741.3324406714614,-8.895989288057535 L 751.4644279185951,14.300315157857806 L 775.0310889801134,5.062447875027281 L 765.7932216972829,28.62910893654555 L 788.9895261431982,38.76109618367927 L 765.7932216972829,48.89308343081299 L 775.0310889801134,72.45974449233125 L 751.4644279185951,63.22187720950073 L 741.3324406714614,86.41818165541608 L 731.2004534243277,63.22187720950073 L 707.6337923628095,72.45974449233127 L 716.87165964564,48.89308343081301 L 693.6753551997247,38.76109618367928 L 716.87165964564,28.629108936545542 L 707.6337923628095,5.062447875027281 L 731.2004534243277,14.300315157857813 Z" fill="none" stroke="#FFD700" stroke-width="0.642164826459328" /><path d="M 847.2370750530988,-8.895989288057535 L 857.3690623002325,14.300315157857806 L 880.9357233617508,5.062447875027281 L 871.6978560789203,28.62910893654555 L 894.8941605248356,38.76109618367927 L 871.6978560789203,48.89308343081299 L 880.9357233617508,72.45974449233125 L 857.3690623002325,63.22187720950073 L 847.2370750530988,86.41818165541608 L 837.1050878059651,63.22187720950073 L 813.5384267444468,72.45974449233127 L 822.7762940272773,48.89308343081301 L 799.579989581362,38.76109618367928 L 822.7762940272773,28.629108936545542 L 813.5384267444468,5.062447875027281 L 837.1050878059651,14.300315157857813 Z" fill="none" stroke="#FFD700" stroke-width="0.642164826459328" /><path d="M 953.1417094347362,-8.895989288057535 L 963.2736966818699,14.300315157857806 L 986.8403577433882,5.062447875027281 L 977.6024904605576,28.62910893654555 L 1000.798794906473,38.76109618367927 L 977.6024904605576,48.89308343081299 L 986.8403577433882,72.45974449233125 L 963.2736966818699,63.22187720950073 L 953.1417094347362,86.41818165541608 L 943.0097221876025,63.22187720950073 L 919.4430611260842,72.45974449233127 L 928.6809284089147,48.89308343081301 L 905.4846239629994,38.76109618367928 L 928.6809284089147,28.629108936545542 L 919.4430611260842,5.062447875027281 L 943.0097221876025,14.300315157857813 Z" fill="none" stroke="#FFD700" stroke-width="0.642164826459328" /><path d="M 1059.0463438163736,-8.895989288057535 L 1069.1783310635074,14.300315157857806 L 1092.7449921250256,5.062447875027281 L 1083.507124842195,28.62910893654555 L 1106.7034292881103,38.76109618367927 L 1083.507124842195,48.89308343081299 L 1092.7449921250256,72.45974449233125 L 1069.1783310635074,63.22187720950073 L 1059.0463438163736,86.41818165541608 L 1048.9143565692398,63.22187720950073 L 1025.3476955077215,72.45974449233127 L 1034.585562790552,48.89308343081301 L 1011.3892583446368,38.76109618367928 L 1034.585562790552,28.629108936545542 L 1025.3476955077215,5.062447875027281 L 1048.9143565692398,14.300315157857813 Z" fill="none" stroke="#FFD700" stroke-width="0.642164826459328" /><path d="M 1164.950978198011,-8.895989288057535 L 1175.0829654451447,14.300315157857806 L 1198.649626506663,5.062447875027281 L 1189.4117592238324,28.62910893654555 L 1212.6080636697477,38.76109618367927 L 1189.4117592238324,48.89308343081299 L 1198.649626506663,72.45974449233125 L 1175.0829654451447,63.22187720950073 L 1164.950978198011,86.41818165541608 L 1154.8189909508772,63.22187720950073 L 1131.2523298893589,72.45974449233127 L 1140.4901971721895,48.89308343081301 L 1117.2938927262742,38.76109618367928 L 1140.4901971721895,28.629108936545542 L 1131.2523298893589,5.062447875027281 L 1154.8189909508772,14.300315157857813 Z" fill="none" stroke="#FFD700" stroke-width="0.642164826459328" /><path d="M 1270.855612579648,-8.895989288057535 L 1280.987599826782,14.300315157857806 L 1304.5542608883002,5.062447875027281 L 1295.3163936054696,28.62910893654555 L 1318.5126980513849,38.76109618367927 L 1295.3163936054696,48.89308343081299 L 1304.5542608883002,72.45974449233125 L 1280.987599826782,63.22187720950073 L 1270.855612579648,86.41818165541608 L 1260.7236253325143,63.22187720950073 L 1237.156964270996,72.45974449233127 L 1246.3948315538266,48.89308343081301 L 1223.1985271079113,38.76109618367928 L 1246.3948315538266,28.629108936545542 L 1237.156964270996,5.062447875027281 L 1260.7236253325143,14.300315157857813 Z" fill="none" stroke="#FFD700" stroke-width="0.642164826459328" /><path d="M -52.952317190818675,82.8174240864404 L -42.82032994368495,106.01372853235574 L -19.25366888216668,96.7758612495252 L -28.49153616499721,120.34252231104348 L -5.295231719081869,130.4745095581772 L -28.49153616499721,140.6064968053109 L -19.25366888216668,164.1731578668292 L -42.82032994368495,154.93529058399866 L -52.952317190818675,178.13159502991402 L -63.0843044379524,154.93529058399866 L -86.65096549947066,164.1731578668292 L -77.41309821664014,140.60649680531094 L -100.60940266255548,130.4745095581772 L -77.41309821664014,120.34252231104348 L -86.65096549947067,96.7758612495252 L -63.08430443795241,106.01372853235574 Z" fill="none" stroke="#FFD700" stroke-width="0.642164826459328" /><path d="M 52.952317190818675,82.8174240864404 L 63.0843044379524,106.01372853235574 L 86.65096549947067,96.7758612495252 L 77.41309821664014,120.34252231104348 L 100.60940266255548,130.4745095581772 L 77.41309821664014,140.6064968053109 L 86.65096549947067,164.1731578668292 L 63.0843044379524,154.93529058399866 L 52.952317190818675,178.13159502991402 L 42.82032994368495,154.93529058399866 L 19.253668882166686,164.1731578668292 L 28.491536164997218,140.60649680531094 L 5.295231719081869,130.4745095581772 L 28.491536164997214,120.34252231104348 L 19.25366888216668,96.7758612495252 L 42.82032994368494,106.01372853235574 Z" fill="none" stroke="#FFD700" stroke-width="0.642164826459328" /><path d="M 158.856951572456,82.8174240864404 L 168.98893881958975,106.01372853235574 L 192.555599881108,96.7758612495252 L 183.31773259827747,120.34252231104348 L 206.51403704419283,130.4745095581772 L 183.31773259827747,140.6064968053109 L 192.555599881108,164.1731578668292 L 168.98893881958975,154.93529058399866 L 158.856951572456,178.13159502991402 L 148.7249643253223,154.93529058399866 L 125.15830326380402,164.1731578668292 L 134.39617054663455,140.60649680531094 L 111.1998661007192,130.4745095581772 L 134.39617054663455,120.34252231104348 L 125.15830326380402,96.7758612495252 L 148.72496432532228,106.01372853235574 Z" fill="none" stroke="#FFD700" stroke-width="0.642164826459328" /><path d="M 264.76158595409333,82.8174240864404 L 274.89357320122707,106.01372853235574 L 298.4602342627453,96.7758612495252 L 289.2223669799148,120.34252231104348 L 312.41867142583015,130.4745095581772 L 289.2223669799148,140.6064968053109 L 298.4602342627453,164.1731578668292 L 274.89357320122707,154.93529058399866 L 264.76158595409333,178.13159502991402 L 254.62959870695963,154.93529058399866 L 231.06293764544134,164.1731578668292 L 240.30080492827187,140.60649680531094 L 217.1045004823565,130.4745095581772 L 240.30080492827187,120.34252231104348 L 231.06293764544134,96.7758612495252 L 254.6295987069596,106.01372853235574 Z" fill="none" stroke="#FFD700" stroke-width="0.642164826459328" /><path d="M 370.6662203357307,82.8174240864404 L 380.79820758286445,106.01372853235574 L 404.3648686443827,96.7758612495252 L 395.1270013615522,120.34252231104348 L 418.32330580746753,130.4745095581772 L 395.1270013615522,140.6064968053109 L 404.3648686443827,164.1731578668292 L 380.79820758286445,154.93529058399866 L 370.6662203357307,178.13159502991402 L 360.534233088597,154.93529058399866 L 336.96757202707875,164.1731578668292 L 346.20543930990925,140.60649680531094 L 323.0091348639939,130.4745095581772 L 346.20543930990925,120.34252231104348 L 336.96757202707875,96.7758612495252 L 360.534233088597,106.01372853235574 Z" fill="none" stroke="#FFD700" stroke-width="0.642164826459328" /><path d="M 476.5708547173681,82.8174240864404 L 486.70284196450183,106.01372853235574 L 510.26950302602006,96.7758612495252 L 501.03163574318955,120.34252231104348 L 524.2279401891049,130.4745095581772 L 501.03163574318955,140.6064968053109 L 510.26950302602006,164.1731578668292 L 486.70284196450183,154.93529058399866 L 476.5708547173681,178.13159502991402 L 466.43886747023436,154.93529058399866 L 442.8722064087161,164.1731578668292 L 452.11007369154663,140.60649680531094 L 428.9137692456313,130.4745095581772 L 452.11007369154663,120.34252231104348 L 442.8722064087161,96.7758612495252 L 466.43886747023436,106.01372853235574 Z" fill="none" stroke="#FFD700" stroke-width="0.642164826459328" /><path d="M 582.4754890990054,82.8174240864404 L 592.607476346139,106.01372853235574 L 616.1741374076573,96.7758612495252 L 606.9362701248268,120.34252231104348 L 630.1325745707421,130.4745095581772 L 606.9362701248268,140.6064968053109 L 616.1741374076573,164.1731578668292 L 592.607476346139,154.93529058399866 L 582.4754890990054,178.13159502991402 L 572.3435018518717,154.93529058399866 L 548.7768407903534,164.1731578668292 L 558.0147080731839,140.60649680531094 L 534.8184036272686,130.4745095581772 L 558.0147080731839,120.34252231104348 L 548.7768407903534,96.7758612495252 L 572.3435018518717,106.01372853235574 Z" fill="none" stroke="#FFD700" stroke-width="0.642164826459328" /><path d="M 688.3801234806427,82.8174240864404 L 698.5121107277764,106.01372853235574 L 722.0787717892947,96.7758612495252 L 712.8409045064642,120.34252231104348 L 736.0372089523795,130.4745095581772 L 712.8409045064642,140.6064968053109 L 722.0787717892947,164.1731578668292 L 698.5121107277764,154.93529058399866 L 688.3801234806427,178.13159502991402 L 678.2481362335091,154.93529058399866 L 654.6814751719908,164.1731578668292 L 663.9193424548213,140.60649680531094 L 640.723038008906,130.4745095581772 L 663.9193424548213,120.34252231104348 L 654.6814751719908,96.7758612495252 L 678.2481362335091,106.01372853235574 Z" fill="none" stroke="#FFD700" stroke-width="0.642164826459328" /><path d="M 794.2847578622801,82.8174240864404 L 804.4167451094138,106.01372853235574 L 827.9834061709321,96.7758612495252 L 818.7455388881016,120.34252231104348 L 841.9418433340169,130.4745095581772 L 818.7455388881016,140.6064968053109 L 827.9834061709321,164.1731578668292 L 804.4167451094138,154.93529058399866 L 794.2847578622801,178.13159502991402 L 784.1527706151464,154.93529058399866 L 760.5861095536281,164.1731578668292 L 769.8239768364587,140.60649680531094 L 746.6276723905434,130.4745095581772 L 769.8239768364587,120.34252231104348 L 760.5861095536281,96.7758612495252 L 784.1527706151464,106.01372853235574 Z" fill="none" stroke="#FFD700" stroke-width="0.642164826459328" /><path d="M 900.1893922439175,82.8174240864404 L 910.3213794910512,106.01372853235574 L 933.8880405525695,96.7758612495252 L 924.650173269739,120.34252231104348 L 947.8464777156543,130.4745095581772 L 924.650173269739,140.6064968053109 L 933.8880405525695,164.1731578668292 L 910.3213794910512,154.93529058399866 L 900.1893922439175,178.13159502991402 L 890.0574049967838,154.93529058399866 L 866.4907439352655,164.1731578668292 L 875.728611218096,140.60649680531094 L 852.5323067721807,130.4745095581772 L 875.728611218096,120.34252231104348 L 866.4907439352655,96.7758612495252 L 890.0574049967838,106.01372853235574 Z" fill="none" stroke="#FFD700" stroke-width="0.642164826459328" /><path d="M 1006.0940266255549,82.8174240864404 L 1016.2260138726886,106.01372853235574 L 1039.7926749342068,96.7758612495252 L 1030.5548076513764,120.34252231104348 L 1053.7511120972918,130.4745095581772 L 1030.5548076513764,140.6064968053109 L 1039.7926749342068,164.1731578668292 L 1016.2260138726886,154.93529058399866 L 1006.0940266255549,178.13159502991402 L 995.9620393784212,154.93529058399866 L 972.3953783169029,164.1731578668292 L 981.6332455997334,140.60649680531094 L 958.4369411538181,130.4745095581772 L 981.6332455997334,120.34252231104348 L 972.3953783169029,96.7758612495252 L 995.9620393784212,106.01372853235574 Z" fill="none" stroke="#FFD700" stroke-width="0.642164826459328" /><path d="M 1111.9986610071924,82.8174240864404 L 1122.1306482543262,106.01372853235574 L 1145.6973093158444,96.7758612495252 L 1136.4594420330138,120.34252231104348 L 1159.6557464789291,130.4745095581772 L 1136.4594420330138,140.6064968053109 L 1145.6973093158444,164.1731578668292 L 1122.1306482543262,154.93529058399866 L 1111.9986610071924,178.13159502991402 L 1101.8666737600586,154.93529058399866 L 1078.3000126985403,164.1731578668292 L 1087.537879981371,140.60649680531094 L 1064.3415755354556,130.4745095581772 L 1087.537879981371,120.34252231104348 L 1078.3000126985403,96.7758612495252 L 1101.8666737600586,106.01372853235574 Z" fill="none" stroke="#FFD700" stroke-width="0.642164826459328" /><path d="M 1217.9032953888295,82.8174240864404 L 1228.0352826359633,106.01372853235574 L 1251.6019436974816,96.7758612495252 L 1242.364076414651,120.34252231104348 L 1265.5603808605663,130.4745095581772 L 1242.364076414651,140.6064968053109 L 1251.6019436974816,164.1731578668292 L 1228.0352826359633,154.93529058399866 L 1217.9032953888295,178.13159502991402 L 1207.7713081416957,154.93529058399866 L 1184.2046470801774,164.1731578668292 L 1193.442514363008,140.60649680531094 L 1170.2462099170928,130.4745095581772 L 1193.442514363008,120.34252231104348 L 1184.2046470801774,96.7758612495252 L 1207.7713081416957,106.01372853235574 Z" fill="none" stroke="#FFD700" stroke-width="0.642164826459328" /><path d="M 2.9181548589827156e-15,174.5308374609383 L 10.131987247133722,197.72714190685366 L 33.698648308652,188.48927462402312 L 24.460781025821465,212.0559356855414 L 47.657085471736806,222.18792293267512 L 24.460781025821465,232.31991017980883 L 33.698648308652,255.88657124132712 L 10.131987247133722,246.64870395849658 L 2.9181548589827156e-15,269.84500840441194 L -10.131987247133718,246.64870395849658 L -33.69864830865199,255.88657124132712 L -24.460781025821458,232.31991017980886 L -47.657085471736806,222.18792293267512 L -24.46078102582146,212.05593568554139 L -33.698648308652,188.48927462402312 L -10.131987247133734,197.72714190685366 Z" fill="none" stroke="#FFD700" stroke-width="0.642164826459328" /><path d="M 105.90463438163735,174.5308374609383 L 116.03662162877107,197.72714190685366 L 139.60328269028935,188.48927462402312 L 130.3654154074588,212.0559356855414 L 153.56171985337414,222.18792293267512 L 130.3654154074588,232.31991017980883 L 139.60328269028935,255.88657124132712 L 116.03662162877107,246.64870395849658 L 105.90463438163735,269.84500840441194 L 95.77264713450363,246.64870395849658 L 72.20598607298535,255.88657124132712 L 81.44385335581589,232.31991017980886 L 58.247548909900544,222.18792293267512 L 81.44385335581589,212.05593568554139 L 72.20598607298535,188.48927462402312 L 95.77264713450361,197.72714190685366 Z" fill="none" stroke="#FFD700" stroke-width="0.642164826459328" /><path d="M 211.8092687632747,174.5308374609383 L 221.94125601040844,197.72714190685366 L 245.5079170719267,188.48927462402312 L 236.27004978909616,212.0559356855414 L 259.4663542350115,222.18792293267512 L 236.27004978909616,232.31991017980883 L 245.5079170719267,255.88657124132712 L 221.94125601040844,246.64870395849658 L 211.8092687632747,269.84500840441194 L 201.677281516141,246.64870395849658 L 178.1106204546227,255.88657124132712 L 187.34848773745324,232.31991017980886 L 164.15218329153788,222.18792293267512 L 187.34848773745324,212.05593568554139 L 178.1106204546227,188.48927462402312 L 201.67728151614097,197.72714190685366 Z" fill="none" stroke="#FFD700" stroke-width="0.642164826459328" /><path d="M 317.713903144912,174.5308374609383 L 327.84589039204576,197.72714190685366 L 351.412551453564,188.48927462402312 L 342.1746841707335,212.0559356855414 L 365.37098861664884,222.18792293267512 L 342.1746841707335,232.31991017980883 L 351.412551453564,255.88657124132712 L 327.84589039204576,246.64870395849658 L 317.713903144912,269.84500840441194 L 307.5819158977783,246.64870395849658 L 284.01525483626006,255.88657124132712 L 293.25312211909056,232.31991017980886 L 270.0568176731752,222.18792293267512 L 293.25312211909056,212.05593568554139 L 284.01525483626006,188.48927462402312 L 307.5819158977783,197.72714190685366 Z" fill="none" stroke="#FFD700" stroke-width="0.642164826459328" /><path d="M 423.6185375265494,174.5308374609383 L 433.75052477368314,197.72714190685366 L 457.31718583520137,188.48927462402312 L 448.07931855237086,212.0559356855414 L 471.2756229982862,222.18792293267512 L 448.07931855237086,232.31991017980883 L 457.31718583520137,255.88657124132712 L 433.75052477368314,246.64870395849658 L 423.6185375265494,269.84500840441194 L 413.48655027941567,246.64870395849658 L 389.91988921789743,255.88657124132712 L 399.15775650072794,232.31991017980886 L 375.9614520548126,222.18792293267512 L 399.15775650072794,212.05593568554139 L 389.91988921789743,188.48927462402312 L 413.48655027941567,197.72714190685366 Z" fill="none" stroke="#FFD700" stroke-width="0.642164826459328" /><path d="M 529.5231719081868,174.5308374609383 L 539.6551591553205,197.72714190685366 L 563.2218202168388,188.48927462402312 L 553.9839529340082,212.0559356855414 L 577.1802573799235,222.18792293267512 L 553.9839529340082,232.31991017980883 L 563.2218202168388,255.88657124132712 L 539.6551591553205,246.64870395849658 L 529.5231719081868,269.84500840441194 L 519.3911846610531,246.64870395849658 L 495.8245235995348,255.88657124132712 L 505.0623908823653,232.31991017980886 L 481.86608643644996,222.18792293267512 L 505.0623908823653,212.05593568554139 L 495.8245235995348,188.48927462402312 L 519.3911846610531,197.72714190685366 Z" fill="none" stroke="#FFD700" stroke-width="0.642164826459328" /><path d="M 635.427806289824,174.5308374609383 L 645.5597935369577,197.72714190685366 L 669.126454598476,188.48927462402312 L 659.8885873156455,212.0559356855414 L 683.0848917615608,222.18792293267512 L 659.8885873156455,232.31991017980883 L 669.126454598476,255.88657124132712 L 645.5597935369577,246.64870395849658 L 635.427806289824,269.84500840441194 L 625.2958190426904,246.64870395849658 L 601.7291579811721,255.88657124132712 L 610.9670252640026,232.31991017980886 L 587.7707208180873,222.18792293267512 L 610.9670252640026,212.05593568554139 L 601.7291579811721,188.48927462402312 L 625.2958190426904,197.72714190685366 Z" fill="none" stroke="#FFD700" stroke-width="0.642164826459328" /><path d="M 741.3324406714614,174.5308374609383 L 751.4644279185951,197.72714190685366 L 775.0310889801134,188.48927462402312 L 765.7932216972829,212.0559356855414 L 788.9895261431982,222.18792293267512 L 765.7932216972829,232.31991017980883 L 775.0310889801134,255.88657124132712 L 751.4644279185951,246.64870395849658 L 741.3324406714614,269.84500840441194 L 731.2004534243277,246.64870395849658 L 707.6337923628095,255.88657124132712 L 716.87165964564,232.31991017980886 L 693.6753551997247,222.18792293267512 L 716.87165964564,212.05593568554139 L 707.6337923628095,188.48927462402312 L 731.2004534243277,197.72714190685366 Z" fill="none" stroke="#FFD700" stroke-width="0.642164826459328" /><path d="M 847.2370750530988,174.5308374609383 L 857.3690623002325,197.72714190685366 L 880.9357233617508,188.48927462402312 L 871.6978560789203,212.0559356855414 L 894.8941605248356,222.18792293267512 L 871.6978560789203,232.31991017980883 L 880.9357233617508,255.88657124132712 L 857.3690623002325,246.64870395849658 L 847.2370750530988,269.84500840441194 L 837.1050878059651,246.64870395849658 L 813.5384267444468,255.88657124132712 L 822.7762940272773,232.31991017980886 L 799.579989581362,222.18792293267512 L 822.7762940272773,212.05593568554139 L 813.5384267444468,188.48927462402312 L 837.1050878059651,197.72714190685366 Z" fill="none" stroke="#FFD700" stroke-width="0.642164826459328" /><path d="M 953.1417094347362,174.5308374609383 L 963.2736966818699,197.72714190685366 L 986.8403577433882,188.48927462402312 L 977.6024904605576,212.0559356855414 L 1000.798794906473,222.18792293267512 L 977.6024904605576,232.31991017980883 L 986.8403577433882,255.88657124132712 L 963.2736966818699,246.64870395849658 L 953.1417094347362,269.84500840441194 L 943.0097221876025,246.64870395849658 L 919.4430611260842,255.88657124132712 L 928.6809284089147,232.31991017980886 L 905.4846239629994,222.18792293267512 L 928.6809284089147,212.05593568554139 L 919.4430611260842,188.48927462402312 L 943.0097221876025,197.72714190685366 Z" fill="none" stroke="#FFD700" stroke-width="0.642164826459328" /><path d="M 1059.0463438163736,174.5308374609383 L 1069.1783310635074,197.72714190685366 L 1092.7449921250256,188.48927462402312 L 1083.507124842195,212.0559356855414 L 1106.7034292881103,222.18792293267512 L 1083.507124842195,232.31991017980883 L 1092.7449921250256,255.88657124132712 L 1069.1783310635074,246.64870395849658 L 1059.0463438163736,269.84500840441194 L 1048.9143565692398,246.64870395849658 L 1025.3476955077215,255.88657124132712 L 1034.585562790552,232.31991017980886 L 1011.3892583446368,222.18792293267512 L 1034.585562790552,212.05593568554139 L 1025.3476955077215,188.48927462402312 L 1048.9143565692398,197.72714190685366 Z" fill="none" stroke="#FFD700" stroke-width="0.642164826459328" /><path d="M 1164.950978198011,174.5308374609383 L 1175.0829654451447,197.72714190685366 L 1198.649626506663,188.48927462402312 L 1189.4117592238324,212.0559356855414 L 1212.6080636697477,222.18792293267512 L 1189.4117592238324,232.31991017980883 L 1198.649626506663,255.88657124132712 L 1175.0829654451447,246.64870395849658 L 1164.950978198011,269.84500840441194 L 1154.8189909508772,246.64870395849658 L 1131.2523298893589,255.88657124132712 L 1140.4901971721895,232.31991017980886 L 1117.2938927262742,222.18792293267512 L 1140.4901971721895,212.05593568554139 L 1131.2523298893589,188.48927462402312 L 1154.8189909508772,197.72714190685366 Z" fill="none" stroke="#FFD700" stroke-width="0.642164826459328" /><path d="M 1270.855612579648,174.5308374609383 L 1280.987599826782,197.72714190685366 L 1304.5542608883002,188.48927462402312 L 1295.3163936054696,212.0559356855414 L 1318.5126980513849,222.18792293267512 L 1295.3163936054696,232.31991017980883 L 1304.5542608883002,255.88657124132712 L 1280.987599826782,246.64870395849658 L 1270.855612579648,269.84500840441194 L 1260.7236253325143,246.64870395849658 L 1237.156964270996,255.88657124132712 L 1246.3948315538266,232.31991017980886 L 1223.1985271079113,222.18792293267512 L 1246.3948315538266,212.05593568554139 L 1237.156964270996,188.48927462402312 L 1260.7236253325143,197.72714190685366 Z" fill="none" stroke="#FFD700" stroke-width="0.642164826459328" /><path d="M -52.952317190818675,266.2442508354363 L -42.82032994368495,289.44055528135164 L -19.25366888216668,280.2026879985211 L -28.49153616499721,303.76934906003936 L -5.295231719081869,313.9013363071731 L -28.49153616499721,324.03332355430683 L -19.25366888216668,347.59998461582506 L -42.82032994368495,338.36211733299456 L -52.952317190818675,361.5584217789099 L -63.0843044379524,338.36211733299456 L -86.65096549947066,347.59998461582506 L -77.41309821664014,324.03332355430683 L -100.60940266255548,313.9013363071731 L -77.41309821664014,303.76934906003936 L -86.65096549947067,280.2026879985211 L -63.08430443795241,289.44055528135164 Z" fill="none" stroke="#FFD700" stroke-width="0.642164826459328" /><path d="M 52.952317190818675,266.2442508354363 L 63.0843044379524,289.44055528135164 L 86.65096549947067,280.2026879985211 L 77.41309821664014,303.76934906003936 L 100.60940266255548,313.9013363071731 L 77.41309821664014,324.03332355430683 L 86.65096549947067,347.59998461582506 L 63.0843044379524,338.36211733299456 L 52.952317190818675,361.5584217789099 L 42.82032994368495,338.36211733299456 L 19.253668882166686,347.59998461582506 L 28.491536164997218,324.03332355430683 L 5.295231719081869,313.9013363071731 L 28.491536164997214,303.76934906003936 L 19.25366888216668,280.2026879985211 L 42.82032994368494,289.44055528135164 Z" fill="none" stroke="#FFD700" stroke-width="0.642164826459328" /><path d="M 158.856951572456,266.2442508354363 L 168.98893881958975,289.44055528135164 L 192.555599881108,280.2026879985211 L 183.31773259827747,303.76934906003936 L 206.51403704419283,313.9013363071731 L 183.31773259827747,324.03332355430683 L 192.555599881108,347.59998461582506 L 168.98893881958975,338.36211733299456 L 158.856951572456,361.5584217789099 L 148.7249643253223,338.36211733299456 L 125.15830326380402,347.59998461582506 L 134.39617054663455,324.03332355430683 L 111.1998661007192,313.9013363071731 L 134.39617054663455,303.76934906003936 L 125.15830326380402,280.2026879985211 L 148.72496432532228,289.44055528135164 Z" fill="none" stroke="#FFD700" stroke-width="0.642164826459328" /><path d="M 264.76158595409333,266.2442508354363 L 274.89357320122707,289.44055528135164 L 298.4602342627453,280.2026879985211 L 289.2223669799148,303.76934906003936 L 312.41867142583015,313.9013363071731 L 289.2223669799148,324.03332355430683 L 298.4602342627453,347.59998461582506 L 274.89357320122707,338.36211733299456 L 264.76158595409333,361.5584217789099 L 254.62959870695963,338.36211733299456 L 231.06293764544134,347.59998461582506 L 240.30080492827187,324.03332355430683 L 217.1045004823565,313.9013363071731 L 240.30080492827187,303.76934906003936 L 231.06293764544134,280.2026879985211 L 254.6295987069596,289.44055528135164 Z" fill="none" stroke="#FFD700" stroke-width="0.642164826459328" /><path d="M 370.6662203357307,266.2442508354363 L 380.79820758286445,289.44055528135164 L 404.3648686443827,280.2026879985211 L 395.1270013615522,303.76934906003936 L 418.32330580746753,313.9013363071731 L 395.1270013615522,324.03332355430683 L 404.3648686443827,347.59998461582506 L 380.79820758286445,338.36211733299456 L 370.6662203357307,361.5584217789099 L 360.534233088597,338.36211733299456 L 336.96757202707875,347.59998461582506 L 346.20543930990925,324.03332355430683 L 323.0091348639939,313.9013363071731 L 346.20543930990925,303.76934906003936 L 336.96757202707875,280.2026879985211 L 360.534233088597,289.44055528135164 Z" fill="none" stroke="#FFD700" stroke-width="0.642164826459328" /><path d="M 476.5708547173681,266.2442508354363 L 486.70284196450183,289.44055528135164 L 510.26950302602006,280.2026879985211 L 501.03163574318955,303.76934906003936 L 524.2279401891049,313.9013363071731 L 501.03163574318955,324.03332355430683 L 510.26950302602006,347.59998461582506 L 486.70284196450183,338.36211733299456 L 476.5708547173681,361.5584217789099 L 466.43886747023436,338.36211733299456 L 442.8722064087161,347.59998461582506 L 452.11007369154663,324.03332355430683 L 428.9137692456313,313.9013363071731 L 452.11007369154663,303.76934906003936 L 442.8722064087161,280.2026879985211 L 466.43886747023436,289.44055528135164 Z" fill="none" stroke="#FFD700" stroke-width="0.642164826459328" /><path d="M 582.4754890990054,266.2442508354363 L 592.607476346139,289.44055528135164 L 616.1741374076573,280.2026879985211 L 606.9362701248268,303.76934906003936 L 630.1325745707421,313.9013363071731 L 606.9362701248268,324.03332355430683 L 616.1741374076573,347.59998461582506 L 592.607476346139,338.36211733299456 L 582.4754890990054,361.5584217789099 L 572.3435018518717,338.36211733299456 L 548.7768407903534,347.59998461582506 L 558.0147080731839,324.03332355430683 L 534.8184036272686,313.9013363071731 L 558.0147080731839,303.76934906003936 L 548.7768407903534,280.2026879985211 L 572.3435018518717,289.44055528135164 Z" fill="none" stroke="#FFD700" stroke-width="0.642164826459328" /><path d="M 688.3801234806427,266.2442508354363 L 698.5121107277764,289.44055528135164 L 722.0787717892947,280.2026879985211 L 712.8409045064642,303.76934906003936 L 736.0372089523795,313.9013363071731 L 712.8409045064642,324.03332355430683 L 722.0787717892947,347.59998461582506 L 698.5121107277764,338.36211733299456 L 688.3801234806427,361.5584217789099 L 678.2481362335091,338.36211733299456 L 654.6814751719908,347.59998461582506 L 663.9193424548213,324.03332355430683 L 640.723038008906,313.9013363071731 L 663.9193424548213,303.76934906003936 L 654.6814751719908,280.2026879985211 L 678.2481362335091,289.44055528135164 Z" fill="none" stroke="#FFD700" stroke-width="0.642164826459328" /><path d="M 794.2847578622801,266.2442508354363 L 804.4167451094138,289.44055528135164 L 827.9834061709321,280.2026879985211 L 818.7455388881016,303.76934906003936 L 841.9418433340169,313.9013363071731 L 818.7455388881016,324.03332355430683 L 827.9834061709321,347.59998461582506 L 804.4167451094138,338.36211733299456 L 794.2847578622801,361.5584217789099 L 784.1527706151464,338.36211733299456 L 760.5861095536281,347.59998461582506 L 769.8239768364587,324.03332355430683 L 746.6276723905434,313.9013363071731 L 769.8239768364587,303.76934906003936 L 760.5861095536281,280.2026879985211 L 784.1527706151464,289.44055528135164 Z" fill="none" stroke="#FFD700" stroke-width="0.642164826459328" /><path d="M 900.1893922439175,266.2442508354363 L 910.3213794910512,289.44055528135164 L 933.8880405525695,280.2026879985211 L 924.650173269739,303.76934906003936 L 947.8464777156543,313.9013363071731 L 924.650173269739,324.03332355430683 L 933.8880405525695,347.59998461582506 L 910.3213794910512,338.36211733299456 L 900.1893922439175,361.5584217789099 L 890.0574049967838,338.36211733299456 L 866.4907439352655,347.59998461582506 L 875.728611218096,324.03332355430683 L 852.5323067721807,313.9013363071731 L 875.728611218096,303.76934906003936 L 866.4907439352655,280.2026879985211 L 890.0574049967838,289.44055528135164 Z" fill="none" stroke="#FFD700" stroke-width="0.642164826459328" /><path d="M 1006.0940266255549,266.2442508354363 L 1016.2260138726886,289.44055528135164 L 1039.7926749342068,280.2026879985211 L 1030.5548076513764,303.76934906003936 L 1053.7511120972918,313.9013363071731 L 1030.5548076513764,324.03332355430683 L 1039.7926749342068,347.59998461582506 L 1016.2260138726886,338.36211733299456 L 1006.0940266255549,361.5584217789099 L 995.9620393784212,338.36211733299456 L 972.3953783169029,347.59998461582506 L 981.6332455997334,324.03332355430683 L 958.4369411538181,313.9013363071731 L 981.6332455997334,303.76934906003936 L 972.3953783169029,280.2026879985211 L 995.9620393784212,289.44055528135164 Z" fill="none" stroke="#FFD700" stroke-width="0.642164826459328" /><path d="M 1111.9986610071924,266.2442508354363 L 1122.1306482543262,289.44055528135164 L 1145.6973093158444,280.2026879985211 L 1136.4594420330138,303.76934906003936 L 1159.6557464789291,313.9013363071731 L 1136.4594420330138,324.03332355430683 L 1145.6973093158444,347.59998461582506 L 1122.1306482543262,338.36211733299456 L 1111.9986610071924,361.5584217789099 L 1101.8666737600586,338.36211733299456 L 1078.3000126985403,347.59998461582506 L 1087.537879981371,324.03332355430683 L 1064.3415755354556,313.9013363071731 L 1087.537879981371,303.76934906003936 L 1078.3000126985403,280.2026879985211 L 1101.8666737600586,289.44055528135164 Z" fill="none" stroke="#FFD700" stroke-width="0.642164826459328" /><path d="M 1217.9032953888295,266.2442508354363 L 1228.0352826359633,289.44055528135164 L 1251.6019436974816,280.2026879985211 L 1242.364076414651,303.76934906003936 L 1265.5603808605663,313.9013363071731 L 1242.364076414651,324.03332355430683 L 1251.6019436974816,347.59998461582506 L 1228.0352826359633,338.36211733299456 L 1217.9032953888295,361.5584217789099 L 1207.7713081416957,338.36211733299456 L 1184.2046470801774,347.59998461582506 L 1193.442514363008,324.03332355430683 L 1170.2462099170928,313.9013363071731 L 1193.442514363008,303.76934906003936 L 1184.2046470801774,280.2026879985211 L 1207.7713081416957,289.44055528135164 Z" fill="none" stroke="#FFD700" stroke-width="0.642164826459328" /><path d="M 2.9181548589827156e-15,357.95766420993425 L 10.131987247133722,381.1539686558496 L 33.698648308652,371.9161013730191 L 24.460781025821465,395.48276243453734 L 47.657085471736806,405.61474968167107 L 24.460781025821465,415.7467369288048 L 33.698648308652,439.31339799032304 L 10.131987247133722,430.07553070749253 L 2.9181548589827156e-15,453.2718351534079 L -10.131987247133718,430.07553070749253 L -33.69864830865199,439.3133979903231 L -24.460781025821458,415.7467369288048 L -47.657085471736806,405.61474968167107 L -24.46078102582146,395.48276243453734 L -33.698648308652,371.9161013730191 L -10.131987247133734,381.1539686558496 Z" fill="none" stroke="#FFD700" stroke-width="0.642164826459328" /><path d="M 105.90463438163735,357.95766420993425 L 116.03662162877107,381.1539686558496 L 139.60328269028935,371.9161013730191 L 130.3654154074588,395.48276243453734 L 153.56171985337414,405.61474968167107 L 130.3654154074588,415.7467369288048 L 139.60328269028935,439.31339799032304 L 116.03662162877107,430.07553070749253 L 105.90463438163735,453.2718351534079 L 95.77264713450363,430.07553070749253 L 72.20598607298535,439.3133979903231 L 81.44385335581589,415.7467369288048 L 58.247548909900544,405.61474968167107 L 81.44385335581589,395.48276243453734 L 72.20598607298535,371.9161013730191 L 95.77264713450361,381.1539686558496 Z" fill="none" stroke="#FFD700" stroke-width="0.642164826459328" /><path d="M 211.8092687632747,357.95766420993425 L 221.94125601040844,381.1539686558496 L 245.5079170719267,371.9161013730191 L 236.27004978909616,395.48276243453734 L 259.4663542350115,405.61474968167107 L 236.27004978909616,415.7467369288048 L 245.5079170719267,439.31339799032304 L 221.94125601040844,430.07553070749253 L 211.8092687632747,453.2718351534079 L 201.677281516141,430.07553070749253 L 178.1106204546227,439.3133979903231 L 187.34848773745324,415.7467369288048 L 164.15218329153788,405.61474968167107 L 187.34848773745324,395.48276243453734 L 178.1106204546227,371.9161013730191 L 201.67728151614097,381.1539686558496 Z" fill="none" stroke="#FFD700" stroke-width="0.642164826459328" /><path d="M 317.713903144912,357.95766420993425 L 327.84589039204576,381.1539686558496 L 351.412551453564,371.9161013730191 L 342.1746841707335,395.48276243453734 L 365.37098861664884,405.61474968167107 L 342.1746841707335,415.7467369288048 L 351.412551453564,439.31339799032304 L 327.84589039204576,430.07553070749253 L 317.713903144912,453.2718351534079 L 307.5819158977783,430.07553070749253 L 284.01525483626006,439.3133979903231 L 293.25312211909056,415.7467369288048 L 270.0568176731752,405.61474968167107 L 293.25312211909056,395.48276243453734 L 284.01525483626006,371.9161013730191 L 307.5819158977783,381.1539686558496 Z" fill="none" stroke="#FFD700" stroke-width="0.642164826459328" /><path d="M 423.6185375265494,357.95766420993425 L 433.75052477368314,381.1539686558496 L 457.31718583520137,371.9161013730191 L 448.07931855237086,395.48276243453734 L 471.2756229982862,405.61474968167107 L 448.07931855237086,415.7467369288048 L 457.31718583520137,439.31339799032304 L 433.75052477368314,430.07553070749253 L 423.6185375265494,453.2718351534079 L 413.48655027941567,430.07553070749253 L 389.91988921789743,439.3133979903231 L 399.15775650072794,415.7467369288048 L 375.9614520548126,405.61474968167107 L 399.15775650072794,395.48276243453734 L 389.91988921789743,371.9161013730191 L 413.48655027941567,381.1539686558496 Z" fill="none" stroke="#FFD700" stroke-width="0.642164826459328" /><path d="M 529.5231719081868,357.95766420993425 L 539.6551591553205,381.1539686558496 L 563.2218202168388,371.9161013730191 L 553.9839529340082,395.48276243453734 L 577.1802573799235,405.61474968167107 L 553.9839529340082,415.7467369288048 L 563.2218202168388,439.31339799032304 L 539.6551591553205,430.07553070749253 L 529.5231719081868,453.2718351534079 L 519.3911846610531,430.07553070749253 L 495.8245235995348,439.3133979903231 L 505.0623908823653,415.7467369288048 L 481.86608643644996,405.61474968167107 L 505.0623908823653,395.48276243453734 L 495.8245235995348,371.9161013730191 L 519.3911846610531,381.1539686558496 Z" fill="none" stroke="#FFD700" stroke-width="0.642164826459328" /><path d="M 635.427806289824,357.95766420993425 L 645.5597935369577,381.1539686558496 L 669.126454598476,371.9161013730191 L 659.8885873156455,395.48276243453734 L 683.0848917615608,405.61474968167107 L 659.8885873156455,415.7467369288048 L 669.126454598476,439.31339799032304 L 645.5597935369577,430.07553070749253 L 635.427806289824,453.2718351534079 L 625.2958190426904,430.07553070749253 L 601.7291579811721,439.3133979903231 L 610.9670252640026,415.7467369288048 L 587.7707208180873,405.61474968167107 L 610.9670252640026,395.48276243453734 L 601.7291579811721,371.9161013730191 L 625.2958190426904,381.1539686558496 Z" fill="none" stroke="#FFD700" stroke-width="0.642164826459328" /><path d="M 741.3324406714614,357.95766420993425 L 751.4644279185951,381.1539686558496 L 775.0310889801134,371.9161013730191 L 765.7932216972829,395.48276243453734 L 788.9895261431982,405.61474968167107 L 765.7932216972829,415.7467369288048 L 775.0310889801134,439.31339799032304 L 751.4644279185951,430.07553070749253 L 741.3324406714614,453.2718351534079 L 731.2004534243277,430.07553070749253 L 707.6337923628095,439.3133979903231 L 716.87165964564,415.7467369288048 L 693.6753551997247,405.61474968167107 L 716.87165964564,395.48276243453734 L 707.6337923628095,371.9161013730191 L 731.2004534243277,381.1539686558496 Z" fill="none" stroke="#FFD700" stroke-width="0.642164826459328" /><path d="M 847.2370750530988,357.95766420993425 L 857.3690623002325,381.1539686558496 L 880.9357233617508,371.9161013730191 L 871.6978560789203,395.48276243453734 L 894.8941605248356,405.61474968167107 L 871.6978560789203,415.7467369288048 L 880.9357233617508,439.31339799032304 L 857.3690623002325,430.07553070749253 L 847.2370750530988,453.2718351534079 L 837.1050878059651,430.07553070749253 L 813.5384267444468,439.3133979903231 L 822.7762940272773,415.7467369288048 L 799.579989581362,405.61474968167107 L 822.7762940272773,395.48276243453734 L 813.5384267444468,371.9161013730191 L 837.1050878059651,381.1539686558496 Z" fill="none" stroke="#FFD700" stroke-width="0.642164826459328" /><path d="M 953.1417094347362,357.95766420993425 L 963.2736966818699,381.1539686558496 L 986.8403577433882,371.9161013730191 L 977.6024904605576,395.48276243453734 L 1000.798794906473,405.61474968167107 L 977.6024904605576,415.7467369288048 L 986.8403577433882,439.31339799032304 L 963.2736966818699,430.07553070749253 L 953.1417094347362,453.2718351534079 L 943.0097221876025,430.07553070749253 L 919.4430611260842,439.3133979903231 L 928.6809284089147,415.7467369288048 L 905.4846239629994,405.61474968167107 L 928.6809284089147,395.48276243453734 L 919.4430611260842,371.9161013730191 L 943.0097221876025,381.1539686558496 Z" fill="none" stroke="#FFD700" stroke-width="0.642164826459328" /><path d="M 1059.0463438163736,357.95766420993425 L 1069.1783310635074,381.1539686558496 L 1092.7449921250256,371.9161013730191 L 1083.507124842195,395.48276243453734 L 1106.7034292881103,405.61474968167107 L 1083.507124842195,415.7467369288048 L 1092.7449921250256,439.31339799032304 L 1069.1783310635074,430.07553070749253 L 1059.0463438163736,453.2718351534079 L 1048.9143565692398,430.07553070749253 L 1025.3476955077215,439.3133979903231 L 1034.585562790552,415.7467369288048 L 1011.3892583446368,405.61474968167107 L 1034.585562790552,395.48276243453734 L 1025.3476955077215,371.9161013730191 L 1048.9143565692398,381.1539686558496 Z" fill="none" stroke="#FFD700" stroke-width="0.642164826459328" /><path d="M 1164.950978198011,357.95766420993425 L 1175.0829654451447,381.1539686558496 L 1198.649626506663,371.9161013730191 L 1189.4117592238324,395.48276243453734 L 1212.6080636697477,405.61474968167107 L 1189.4117592238324,415.7467369288048 L 1198.649626506663,439.31339799032304 L 1175.0829654451447,430.07553070749253 L 1164.950978198011,453.2718351534079 L 1154.8189909508772,430.07553070749253 L 1131.2523298893589,439.3133979903231 L 1140.4901971721895,415.7467369288048 L 1117.2938927262742,405.61474968167107 L 1140.4901971721895,395.48276243453734 L 1131.2523298893589,371.9161013730191 L 1154.8189909508772,381.1539686558496 Z" fill="none" stroke="#FFD700" stroke-width="0.642164826459328" /><path d="M 1270.855612579648,357.95766420993425 L 1280.987599826782,381.1539686558496 L 1304.5542608883002,371.9161013730191 L 1295.3163936054696,395.48276243453734 L 1318.5126980513849,405.61474968167107 L 1295.3163936054696,415.7467369288048 L 1304.5542608883002,439.31339799032304 L 1280.987599826782,430.07553070749253 L 1270.855612579648,453.2718351534079 L 1260.7236253325143,430.07553070749253 L 1237.156964270996,439.3133979903231 L 1246.3948315538266,415.7467369288048 L 1223.1985271079113,405.61474968167107 L 1246.3948315538266,395.48276243453734 L 1237.156964270996,371.9161013730191 L 1260.7236253325143,381.1539686558496 Z" fill="none" stroke="#FFD700" stroke-width="0.642164826459328" /><path d="M -52.952317190818675,449.6710775844321 L -42.82032994368495,472.86738203034747 L -19.25366888216668,463.62951474751696 L -28.49153616499721,487.1961758090352 L -5.295231719081869,497.32816305616893 L -28.49153616499721,507.46015030330267 L -19.25366888216668,531.0268113648209 L -42.82032994368495,521.7889440819904 L -52.952317190818675,544.9852485279057 L -63.0843044379524,521.7889440819904 L -86.65096549947066,531.0268113648209 L -77.41309821664014,507.46015030330267 L -100.60940266255548,497.32816305616893 L -77.41309821664014,487.1961758090352 L -86.65096549947067,463.62951474751696 L -63.08430443795241,472.86738203034747 Z" fill="none" stroke="#FFD700" stroke-width="0.642164826459328" /><path d="M 52.952317190818675,449.6710775844321 L 63.0843044379524,472.86738203034747 L 86.65096549947067,463.62951474751696 L 77.41309821664014,487.1961758090352 L 100.60940266255548,497.32816305616893 L 77.41309821664014,507.46015030330267 L 86.65096549947067,531.0268113648209 L 63.0843044379524,521.7889440819904 L 52.952317190818675,544.9852485279057 L 42.82032994368495,521.7889440819904 L 19.253668882166686,531.0268113648209 L 28.491536164997218,507.46015030330267 L 5.295231719081869,497.32816305616893 L 28.491536164997214,487.1961758090352 L 19.25366888216668,463.62951474751696 L 42.82032994368494,472.86738203034747 Z" fill="none" stroke="#FFD700" stroke-width="0.642164826459328" /><path d="M 158.856951572456,449.6710775844321 L 168.98893881958975,472.86738203034747 L 192.555599881108,463.62951474751696 L 183.31773259827747,487.1961758090352 L 206.51403704419283,497.32816305616893 L 183.31773259827747,507.46015030330267 L 192.555599881108,531.0268113648209 L 168.98893881958975,521.7889440819904 L 158.856951572456,544.9852485279057 L 148.7249643253223,521.7889440819904 L 125.15830326380402,531.0268113648209 L 134.39617054663455,507.46015030330267 L 111.1998661007192,497.32816305616893 L 134.39617054663455,487.1961758090352 L 125.15830326380402,463.62951474751696 L 148.72496432532228,472.86738203034747 Z" fill="none" stroke="#FFD700" stroke-width="0.642164826459328" /><path d="M 264.76158595409333,449.6710775844321 L 274.89357320122707,472.86738203034747 L 298.4602342627453,463.62951474751696 L 289.2223669799148,487.1961758090352 L 312.41867142583015,497.32816305616893 L 289.2223669799148,507.46015030330267 L 298.4602342627453,531.0268113648209 L 274.89357320122707,521.7889440819904 L 264.76158595409333,544.9852485279057 L 254.62959870695963,521.7889440819904 L 231.06293764544134,531.0268113648209 L 240.30080492827187,507.46015030330267 L 217.1045004823565,497.32816305616893 L 240.30080492827187,487.1961758090352 L 231.06293764544134,463.62951474751696 L 254.6295987069596,472.86738203034747 Z" fill="none" stroke="#FFD700" stroke-width="0.642164826459328" /><path d="M 370.6662203357307,449.6710775844321 L 380.79820758286445,472.86738203034747 L 404.3648686443827,463.62951474751696 L 395.1270013615522,487.1961758090352 L 418.32330580746753,497.32816305616893 L 395.1270013615522,507.46015030330267 L 404.3648686443827,531.0268113648209 L 380.79820758286445,521.7889440819904 L 370.6662203357307,544.9852485279057 L 360.534233088597,521.7889440819904 L 336.96757202707875,531.0268113648209 L 346.20543930990925,507.46015030330267 L 323.0091348639939,497.32816305616893 L 346.20543930990925,487.1961758090352 L 336.96757202707875,463.62951474751696 L 360.534233088597,472.86738203034747 Z" fill="none" stroke="#FFD700" stroke-width="0.642164826459328" /><path d="M 476.5708547173681,449.6710775844321 L 486.70284196450183,472.86738203034747 L 510.26950302602006,463.62951474751696 L 501.03163574318955,487.1961758090352 L 524.2279401891049,497.32816305616893 L 501.03163574318955,507.46015030330267 L 510.26950302602006,531.0268113648209 L 486.70284196450183,521.7889440819904 L 476.5708547173681,544.9852485279057 L 466.43886747023436,521.7889440819904 L 442.8722064087161,531.0268113648209 L 452.11007369154663,507.46015030330267 L 428.9137692456313,497.32816305616893 L 452.11007369154663,487.1961758090352 L 442.8722064087161,463.62951474751696 L 466.43886747023436,472.86738203034747 Z" fill="none" stroke="#FFD700" stroke-width="0.642164826459328" /><path d="M 582.4754890990054,449.6710775844321 L 592.607476346139,472.86738203034747 L 616.1741374076573,463.62951474751696 L 606.9362701248268,487.1961758090352 L 630.1325745707421,497.32816305616893 L 606.9362701248268,507.46015030330267 L 616.1741374076573,531.0268113648209 L 592.607476346139,521.7889440819904 L 582.4754890990054,544.9852485279057 L 572.3435018518717,521.7889440819904 L 548.7768407903534,531.0268113648209 L 558.0147080731839,507.46015030330267 L 534.8184036272686,497.32816305616893 L 558.0147080731839,487.1961758090352 L 548.7768407903534,463.62951474751696 L 572.3435018518717,472.86738203034747 Z" fill="none" stroke="#FFD700" stroke-width="0.642164826459328" /><path d="M 688.3801234806427,449.6710775844321 L 698.5121107277764,472.86738203034747 L 722.0787717892947,463.62951474751696 L 712.8409045064642,487.1961758090352 L 736.0372089523795,497.32816305616893 L 712.8409045064642,507.46015030330267 L 722.0787717892947,531.0268113648209 L 698.5121107277764,521.7889440819904 L 688.3801234806427,544.9852485279057 L 678.2481362335091,521.7889440819904 L 654.6814751719908,531.0268113648209 L 663.9193424548213,507.46015030330267 L 640.723038008906,497.32816305616893 L 663.9193424548213,487.1961758090352 L 654.6814751719908,463.62951474751696 L 678.2481362335091,472.86738203034747 Z" fill="none" stroke="#FFD700" stroke-width="0.642164826459328" /><path d="M 794.2847578622801,449.6710775844321 L 804.4167451094138,472.86738203034747 L 827.9834061709321,463.62951474751696 L 818.7455388881016,487.1961758090352 L 841.9418433340169,497.32816305616893 L 818.7455388881016,507.46015030330267 L 827.9834061709321,531.0268113648209 L 804.4167451094138,521.7889440819904 L 794.2847578622801,544.9852485279057 L 784.1527706151464,521.7889440819904 L 760.5861095536281,531.0268113648209 L 769.8239768364587,507.46015030330267 L 746.6276723905434,497.32816305616893 L 769.8239768364587,487.1961758090352 L 760.5861095536281,463.62951474751696 L 784.1527706151464,472.86738203034747 Z" fill="none" stroke="#FFD700" stroke-width="0.642164826459328" /><path d="M 900.1893922439175,449.6710775844321 L 910.3213794910512,472.86738203034747 L 933.8880405525695,463.62951474751696 L 924.650173269739,487.1961758090352 L 947.8464777156543,497.32816305616893 L 924.650173269739,507.46015030330267 L 933.8880405525695,531.0268113648209 L 910.3213794910512,521.7889440819904 L 900.1893922439175,544.9852485279057 L 890.0574049967838,521.7889440819904 L 866.4907439352655,531.0268113648209 L 875.728611218096,507.46015030330267 L 852.5323067721807,497.32816305616893 L 875.728611218096,487.1961758090352 L 866.4907439352655,463.62951474751696 L 890.0574049967838,472.86738203034747 Z" fill="none" stroke="#FFD700" stroke-width="0.642164826459328" /><path d="M 1006.0940266255549,449.6710775844321 L 1016.2260138726886,472.86738203034747 L 1039.7926749342068,463.62951474751696 L 1030.5548076513764,487.1961758090352 L 1053.7511120972918,497.32816305616893 L 1030.5548076513764,507.46015030330267 L 1039.7926749342068,531.0268113648209 L 1016.2260138726886,521.7889440819904 L 1006.0940266255549,544.9852485279057 L 995.9620393784212,521.7889440819904 L 972.3953783169029,531.0268113648209 L 981.6332455997334,507.46015030330267 L 958.4369411538181,497.32816305616893 L 981.6332455997334,487.1961758090352 L 972.3953783169029,463.62951474751696 L 995.9620393784212,472.86738203034747 Z" fill="none" stroke="#FFD700" stroke-width="0.642164826459328" /><path d="M 1111.9986610071924,449.6710775844321 L 1122.1306482543262,472.86738203034747 L 1145.6973093158444,463.62951474751696 L 1136.4594420330138,487.1961758090352 L 1159.6557464789291,497.32816305616893 L 1136.4594420330138,507.46015030330267 L 1145.6973093158444,531.0268113648209 L 1122.1306482543262,521.7889440819904 L 1111.9986610071924,544.9852485279057 L 1101.8666737600586,521.7889440819904 L 1078.3000126985403,531.0268113648209 L 1087.537879981371,507.46015030330267 L 1064.3415755354556,497.32816305616893 L 1087.537879981371,487.1961758090352 L 1078.3000126985403,463.62951474751696 L 1101.8666737600586,472.86738203034747 Z" fill="none" stroke="#FFD700" stroke-width="0.642164826459328" /><path d="M 1217.9032953888295,449.6710775844321 L 1228.0352826359633,472.86738203034747 L 1251.6019436974816,463.62951474751696 L 1242.364076414651,487.1961758090352 L 1265.5603808605663,497.32816305616893 L 1242.364076414651,507.46015030330267 L 1251.6019436974816,531.0268113648209 L 1228.0352826359633,521.7889440819904 L 1217.9032953888295,544.9852485279057 L 1207.7713081416957,521.7889440819904 L 1184.2046470801774,531.0268113648209 L 1193.442514363008,507.46015030330267 L 1170.2462099170928,497.32816305616893 L 1193.442514363008,487.1961758090352 L 1184.2046470801774,463.62951474751696 L 1207.7713081416957,472.86738203034747 Z" fill="none" stroke="#FFD700" stroke-width="0.642164826459328" /><path d="M 2.9181548589827156e-15,541.3844909589301 L 10.131987247133722,564.5807954048454 L 33.698648308652,555.3429281220149 L 24.460781025821465,578.9095891835332 L 47.657085471736806,589.0415764306669 L 24.460781025821465,599.1735636778005 L 33.698648308652,622.7402247393188 L 10.131987247133722,613.5023574564883 L 2.9181548589827156e-15,636.6986619024036 L -10.131987247133718,613.5023574564883 L -33.69864830865199,622.7402247393188 L -24.460781025821458,599.1735636778005 L -47.657085471736806,589.0415764306669 L -24.46078102582146,578.9095891835332 L -33.698648308652,555.3429281220149 L -10.131987247133734,564.5807954048454 Z" fill="none" stroke="#FFD700" stroke-width="0.642164826459328" /><path d="M 105.90463438163735,541.3844909589301 L 116.03662162877107,564.5807954048454 L 139.60328269028935,555.3429281220149 L 130.3654154074588,578.9095891835332 L 153.56171985337414,589.0415764306669 L 130.3654154074588,599.1735636778005 L 139.60328269028935,622.7402247393188 L 116.03662162877107,613.5023574564883 L 105.90463438163735,636.6986619024036 L 95.77264713450363,613.5023574564883 L 72.20598607298535,622.7402247393188 L 81.44385335581589,599.1735636778005 L 58.247548909900544,589.0415764306669 L 81.44385335581589,578.9095891835332 L 72.20598607298535,555.3429281220149 L 95.77264713450361,564.5807954048454 Z" fill="none" stroke="#FFD700" stroke-width="0.642164826459328" /><path d="M 211.8092687632747,541.3844909589301 L 221.94125601040844,564.5807954048454 L 245.5079170719267,555.3429281220149 L 236.27004978909616,578.9095891835332 L 259.4663542350115,589.0415764306669 L 236.27004978909616,599.1735636778005 L 245.5079170719267,622.7402247393188 L 221.94125601040844,613.5023574564883 L 211.8092687632747,636.6986619024036 L 201.677281516141,613.5023574564883 L 178.1106204546227,622.7402247393188 L 187.34848773745324,599.1735636778005 L 164.15218329153788,589.0415764306669 L 187.34848773745324,578.9095891835332 L 178.1106204546227,555.3429281220149 L 201.67728151614097,564.5807954048454 Z" fill="none" stroke="#FFD700" stroke-width="0.642164826459328" /><path d="M 317.713903144912,541.3844909589301 L 327.84589039204576,564.5807954048454 L 351.412551453564,555.3429281220149 L 342.1746841707335,578.9095891835332 L 365.37098861664884,589.0415764306669 L 342.1746841707335,599.1735636778005 L 351.412551453564,622.7402247393188 L 327.84589039204576,613.5023574564883 L 317.713903144912,636.6986619024036 L 307.5819158977783,613.5023574564883 L 284.01525483626006,622.7402247393188 L 293.25312211909056,599.1735636778005 L 270.0568176731752,589.0415764306669 L 293.25312211909056,578.9095891835332 L 284.01525483626006,555.3429281220149 L 307.5819158977783,564.5807954048454 Z" fill="none" stroke="#FFD700" stroke-width="0.642164826459328" /><path d="M 423.6185375265494,541.3844909589301 L 433.75052477368314,564.5807954048454 L 457.31718583520137,555.3429281220149 L 448.07931855237086,578.9095891835332 L 471.2756229982862,589.0415764306669 L 448.07931855237086,599.1735636778005 L 457.31718583520137,622.7402247393188 L 433.75052477368314,613.5023574564883 L 423.6185375265494,636.6986619024036 L 413.48655027941567,613.5023574564883 L 389.91988921789743,622.7402247393188 L 399.15775650072794,599.1735636778005 L 375.9614520548126,589.0415764306669 L 399.15775650072794,578.9095891835332 L 389.91988921789743,555.3429281220149 L 413.48655027941567,564.5807954048454 Z" fill="none" stroke="#FFD700" stroke-width="0.642164826459328" /><path d="M 529.5231719081868,541.3844909589301 L 539.6551591553205,564.5807954048454 L 563.2218202168388,555.3429281220149 L 553.9839529340082,578.9095891835332 L 577.1802573799235,589.0415764306669 L 553.9839529340082,599.1735636778005 L 563.2218202168388,622.7402247393188 L 539.6551591553205,613.5023574564883 L 529.5231719081868,636.6986619024036 L 519.3911846610531,613.5023574564883 L 495.8245235995348,622.7402247393188 L 505.0623908823653,599.1735636778005 L 481.86608643644996,589.0415764306669 L 505.0623908823653,578.9095891835332 L 495.8245235995348,555.3429281220149 L 519.3911846610531,564.5807954048454 Z" fill="none" stroke="#FFD700" stroke-width="0.642164826459328" /><path d="M 635.427806289824,541.3844909589301 L 645.5597935369577,564.5807954048454 L 669.126454598476,555.3429281220149 L 659.8885873156455,578.9095891835332 L 683.0848917615608,589.0415764306669 L 659.8885873156455,599.1735636778005 L 669.126454598476,622.7402247393188 L 645.5597935369577,613.5023574564883 L 635.427806289824,636.6986619024036 L 625.2958190426904,613.5023574564883 L 601.7291579811721,622.7402247393188 L 610.9670252640026,599.1735636778005 L 587.7707208180873,589.0415764306669 L 610.9670252640026,578.9095891835332 L 601.7291579811721,555.3429281220149 L 625.2958190426904,564.5807954048454 Z" fill="none" stroke="#FFD700" stroke-width="0.642164826459328" /><path d="M 741.3324406714614,541.3844909589301 L 751.4644279185951,564.5807954048454 L 775.0310889801134,555.3429281220149 L 765.7932216972829,578.9095891835332 L 788.9895261431982,589.0415764306669 L 765.7932216972829,599.1735636778005 L 775.0310889801134,622.7402247393188 L 751.4644279185951,613.5023574564883 L 741.3324406714614,636.6986619024036 L 731.2004534243277,613.5023574564883 L 707.6337923628095,622.7402247393188 L 716.87165964564,599.1735636778005 L 693.6753551997247,589.0415764306669 L 716.87165964564,578.9095891835332 L 707.6337923628095,555.3429281220149 L 731.2004534243277,564.5807954048454 Z" fill="none" stroke="#FFD700" stroke-width="0.642164826459328" /><path d="M 847.2370750530988,541.3844909589301 L 857.3690623002325,564.5807954048454 L 880.9357233617508,555.3429281220149 L 871.6978560789203,578.9095891835332 L 894.8941605248356,589.0415764306669 L 871.6978560789203,599.1735636778005 L 880.9357233617508,622.7402247393188 L 857.3690623002325,613.5023574564883 L 847.2370750530988,636.6986619024036 L 837.1050878059651,613.5023574564883 L 813.5384267444468,622.7402247393188 L 822.7762940272773,599.1735636778005 L 799.579989581362,589.0415764306669 L 822.7762940272773,578.9095891835332 L 813.5384267444468,555.3429281220149 L 837.1050878059651,564.5807954048454 Z" fill="none" stroke="#FFD700" stroke-width="0.642164826459328" /><path d="M 953.1417094347362,541.3844909589301 L 963.2736966818699,564.5807954048454 L 986.8403577433882,555.3429281220149 L 977.6024904605576,578.9095891835332 L 1000.798794906473,589.0415764306669 L 977.6024904605576,599.1735636778005 L 986.8403577433882,622.7402247393188 L 963.2736966818699,613.5023574564883 L 953.1417094347362,636.6986619024036 L 943.0097221876025,613.5023574564883 L 919.4430611260842,622.7402247393188 L 928.6809284089147,599.1735636778005 L 905.4846239629994,589.0415764306669 L 928.6809284089147,578.9095891835332 L 919.4430611260842,555.3429281220149 L 943.0097221876025,564.5807954048454 Z" fill="none" stroke="#FFD700" stroke-width="0.642164826459328" /><path d="M 1059.0463438163736,541.3844909589301 L 1069.1783310635074,564.5807954048454 L 1092.7449921250256,555.3429281220149 L 1083.507124842195,578.9095891835332 L 1106.7034292881103,589.0415764306669 L 1083.507124842195,599.1735636778005 L 1092.7449921250256,622.7402247393188 L 1069.1783310635074,613.5023574564883 L 1059.0463438163736,636.6986619024036 L 1048.9143565692398,613.5023574564883 L 1025.3476955077215,622.7402247393188 L 1034.585562790552,599.1735636778005 L 1011.3892583446368,589.0415764306669 L 1034.585562790552,578.9095891835332 L 1025.3476955077215,555.3429281220149 L 1048.9143565692398,564.5807954048454 Z" fill="none" stroke="#FFD700" stroke-width="0.642164826459328" /><path d="M 1164.950978198011,541.3844909589301 L 1175.0829654451447,564.5807954048454 L 1198.649626506663,555.3429281220149 L 1189.4117592238324,578.9095891835332 L 1212.6080636697477,589.0415764306669 L 1189.4117592238324,599.1735636778005 L 1198.649626506663,622.7402247393188 L 1175.0829654451447,613.5023574564883 L 1164.950978198011,636.6986619024036 L 1154.8189909508772,613.5023574564883 L 1131.2523298893589,622.7402247393188 L 1140.4901971721895,599.1735636778005 L 1117.2938927262742,589.0415764306669 L 1140.4901971721895,578.9095891835332 L 1131.2523298893589,555.3429281220149 L 1154.8189909508772,564.5807954048454 Z" fill="none" stroke="#FFD700" stroke-width="0.642164826459328" /><path d="M 1270.855612579648,541.3844909589301 L 1280.987599826782,564.5807954048454 L 1304.5542608883002,555.3429281220149 L 1295.3163936054696,578.9095891835332 L 1318.5126980513849,589.0415764306669 L 1295.3163936054696,599.1735636778005 L 1304.5542608883002,622.7402247393188 L 1280.987599826782,613.5023574564883 L 1270.855612579648,636.6986619024036 L 1260.7236253325143,613.5023574564883 L 1237.156964270996,622.7402247393188 L 1246.3948315538266,599.1735636778005 L 1223.1985271079113,589.0415764306669 L 1246.3948315538266,578.9095891835332 L 1237.156964270996,555.3429281220149 L 1260.7236253325143,564.5807954048454 Z" fill="none" stroke="#FFD700" stroke-width="0.642164826459328" /><line x1="47.657085471736806" y1="38.76109618367927" x2="58.247548909900544" y2="38.76109618367927" stroke="#FFD700" stroke-width="0.5"/><line x1="153.56171985337414" y1="38.76109618367927" x2="164.15218329153788" y2="38.76109618367927" stroke="#FFD700" stroke-width="0.5"/><line x1="259.4663542350115" y1="38.76109618367927" x2="270.0568176731752" y2="38.76109618367927" stroke="#FFD700" stroke-width="0.5"/><line x1="365.37098861664884" y1="38.76109618367927" x2="375.9614520548126" y2="38.76109618367927" stroke="#FFD700" stroke-width="0.5"/><line x1="471.2756229982862" y1="38.76109618367927" x2="481.86608643644996" y2="38.76109618367927" stroke="#FFD700" stroke-width="0.5"/><line x1="577.1802573799235" y1="38.76109618367927" x2="587.7707208180873" y2="38.76109618367927" stroke="#FFD700" stroke-width="0.5"/><line x1="683.0848917615608" y1="38.76109618367927" x2="693.6753551997247" y2="38.76109618367927" stroke="#FFD700" stroke-width="0.5"/><line x1="788.9895261431982" y1="38.76109618367927" x2="799.579989581362" y2="38.76109618367927" stroke="#FFD700" stroke-width="0.5"/><line x1="894.8941605248356" y1="38.76109618367927" x2="905.4846239629994" y2="38.76109618367927" stroke="#FFD700" stroke-width="0.5"/><line x1="1000.798794906473" y1="38.76109618367927" x2="1011.3892583446368" y2="38.76109618367927" stroke="#FFD700" stroke-width="0.5"/><line x1="1106.7034292881103" y1="38.76109618367927" x2="1117.2938927262742" y2="38.76109618367927" stroke="#FFD700" stroke-width="0.5"/><line x1="100.60940266255548" y1="130.4745095581772" x2="111.1998661007192" y2="130.4745095581772" stroke="#FFD700" stroke-width="0.5"/><line x1="206.51403704419283" y1="130.4745095581772" x2="217.1045004823565" y2="130.4745095581772" stroke="#FFD700" stroke-width="0.5"/><line x1="312.41867142583015" y1="130.4745095581772" x2="323.0091348639939" y2="130.4745095581772" stroke="#FFD700" stroke-width="0.5"/><line x1="418.32330580746753" y1="130.4745095581772" x2="428.9137692456313" y2="130.4745095581772" stroke="#FFD700" stroke-width="0.5"/><line x1="524.2279401891049" y1="130.4745095581772" x2="534.8184036272686" y2="130.4745095581772" stroke="#FFD700" stroke-width="0.5"/><line x1="630.1325745707421" y1="130.4745095581772" x2="640.723038008906" y2="130.4745095581772" stroke="#FFD700" stroke-width="0.5"/><line x1="736.0372089523795" y1="130.4745095581772" x2="746.6276723905434" y2="130.4745095581772" stroke="#FFD700" stroke-width="0.5"/><line x1="841.9418433340169" y1="130.4745095581772" x2="852.5323067721807" y2="130.4745095581772" stroke="#FFD700" stroke-width="0.5"/><line x1="947.8464777156543" y1="130.4745095581772" x2="958.4369411538181" y2="130.4745095581772" stroke="#FFD700" stroke-width="0.5"/><line x1="1053.7511120972918" y1="130.4745095581772" x2="1064.3415755354556" y2="130.4745095581772" stroke="#FFD700" stroke-width="0.5"/><line x1="1159.6557464789291" y1="130.4745095581772" x2="1170.2462099170928" y2="130.4745095581772" stroke="#FFD700" stroke-width="0.5"/><line x1="47.657085471736806" y1="222.18792293267512" x2="58.247548909900544" y2="222.18792293267512" stroke="#FFD700" stroke-width="0.5"/><line x1="153.56171985337414" y1="222.18792293267512" x2="164.15218329153788" y2="222.18792293267512" stroke="#FFD700" stroke-width="0.5"/><line x1="259.4663542350115" y1="222.18792293267512" x2="270.0568176731752" y2="222.18792293267512" stroke="#FFD700" stroke-width="0.5"/><line x1="365.37098861664884" y1="222.18792293267512" x2="375.9614520548126" y2="222.18792293267512" stroke="#FFD700" stroke-width="0.5"/><line x1="471.2756229982862" y1="222.18792293267512" x2="481.86608643644996" y2="222.18792293267512" stroke="#FFD700" stroke-width="0.5"/><line x1="577.1802573799235" y1="222.18792293267512" x2="587.7707208180873" y2="222.18792293267512" stroke="#FFD700" stroke-width="0.5"/><line x1="683.0848917615608" y1="222.18792293267512" x2="693.6753551997247" y2="222.18792293267512" stroke="#FFD700" stroke-width="0.5"/><line x1="788.9895261431982" y1="222.18792293267512" x2="799.579989581362" y2="222.18792293267512" stroke="#FFD700" stroke-width="0.5"/><line x1="894.8941605248356" y1="222.18792293267512" x2="905.4846239629994" y2="222.18792293267512" stroke="#FFD700" stroke-width="0.5"/><line x1="1000.798794906473" y1="222.18792293267512" x2="1011.3892583446368" y2="222.18792293267512" stroke="#FFD700" stroke-width="0.5"/><line x1="1106.7034292881103" y1="222.18792293267512" x2="1117.2938927262742" y2="222.18792293267512" stroke="#FFD700" stroke-width="0.5"/><line x1="100.60940266255548" y1="313.9013363071731" x2="111.1998661007192" y2="313.9013363071731" stroke="#FFD700" stroke-width="0.5"/><line x1="206.51403704419283" y1="313.9013363071731" x2="217.1045004823565" y2="313.9013363071731" stroke="#FFD700" stroke-width="0.5"/><line x1="312.41867142583015" y1="313.9013363071731" x2="323.0091348639939" y2="313.9013363071731" stroke="#FFD700" stroke-width="0.5"/><line x1="418.32330580746753" y1="313.9013363071731" x2="428.9137692456313" y2="313.9013363071731" stroke="#FFD700" stroke-width="0.5"/><line x1="524.2279401891049" y1="313.9013363071731" x2="534.8184036272686" y2="313.9013363071731" stroke="#FFD700" stroke-width="0.5"/><line x1="630.1325745707421" y1="313.9013363071731" x2="640.723038008906" y2="313.9013363071731" stroke="#FFD700" stroke-width="0.5"/><line x1="736.0372089523795" y1="313.9013363071731" x2="746.6276723905434" y2="313.9013363071731" stroke="#FFD700" stroke-width="0.5"/><line x1="841.9418433340169" y1="313.9013363071731" x2="852.5323067721807" y2="313.9013363071731" stroke="#FFD700" stroke-width="0.5"/><line x1="947.8464777156543" y1="313.9013363071731" x2="958.4369411538181" y2="313.9013363071731" stroke="#FFD700" stroke-width="0.5"/><line x1="1053.7511120972918" y1="313.9013363071731" x2="1064.3415755354556" y2="313.9013363071731" stroke="#FFD700" stroke-width="0.5"/><line x1="1159.6557464789291" y1="313.9013363071731" x2="1170.2462099170928" y2="313.9013363071731" stroke="#FFD700" stroke-width="0.5"/><line x1="47.657085471736806" y1="405.61474968167107" x2="58.247548909900544" y2="405.61474968167107" stroke="#FFD700" stroke-width="0.5"/><line x1="153.56171985337414" y1="405.61474968167107" x2="164.15218329153788" y2="405.61474968167107" stroke="#FFD700" stroke-width="0.5"/><line x1="259.4663542350115" y1="405.61474968167107" x2="270.0568176731752" y2="405.61474968167107" stroke="#FFD700" stroke-width="0.5"/><line x1="365.37098861664884" y1="405.61474968167107" x2="375.9614520548126" y2="405.61474968167107" stroke="#FFD700" stroke-width="0.5"/><line x1="471.2756229982862" y1="405.61474968167107" x2="481.86608643644996" y2="405.61474968167107" stroke="#FFD700" stroke-width="0.5"/><line x1="577.1802573799235" y1="405.61474968167107" x2="587.7707208180873" y2="405.61474968167107" stroke="#FFD700" stroke-width="0.5"/><line x1="683.0848917615608" y1="405.61474968167107" x2="693.6753551997247" y2="405.61474968167107" stroke="#FFD700" stroke-width="0.5"/><line x1="788.9895261431982" y1="405.61474968167107" x2="799.579989581362" y2="405.61474968167107" stroke="#FFD700" stroke-width="0.5"/><line x1="894.8941605248356" y1="405.61474968167107" x2="905.4846239629994" y2="405.61474968167107" stroke="#FFD700" stroke-width="0.5"/><line x1="1000.798794906473" y1="405.61474968167107" x2="1011.3892583446368" y2="405.61474968167107" stroke="#FFD700" stroke-width="0.5"/><line x1="1106.7034292881103" y1="405.61474968167107" x2="1117.2938927262742" y2="405.61474968167107" stroke="#FFD700" stroke-width="0.5"/><line x1="100.60940266255548" y1="497.32816305616893" x2="111.1998661007192" y2="497.32816305616893" stroke="#FFD700" stroke-width="0.5"/><line x1="206.51403704419283" y1="497.32816305616893" x2="217.1045004823565" y2="497.32816305616893" stroke="#FFD700" stroke-width="0.5"/><line x1="312.41867142583015" y1="497.32816305616893" x2="323.0091348639939" y2="497.32816305616893" stroke="#FFD700" stroke-width="0.5"/><line x1="418.32330580746753" y1="497.32816305616893" x2="428.9137692456313" y2="497.32816305616893" stroke="#FFD700" stroke-width="0.5"/><line x1="524.2279401891049" y1="497.32816305616893" x2="534.8184036272686" y2="497.32816305616893" stroke="#FFD700" stroke-width="0.5"/><line x1="630.1325745707421" y1="497.32816305616893" x2="640.723038008906" y2="497.32816305616893" stroke="#FFD700" stroke-width="0.5"/><line x1="736.0372089523795" y1="497.32816305616893" x2="746.6276723905434" y2="497.32816305616893" stroke="#FFD700" stroke-width="0.5"/><line x1="841.9418433340169" y1="497.32816305616893" x2="852.5323067721807" y2="497.32816305616893" stroke="#FFD700" stroke-width="0.5"/><line x1="947.8464777156543" y1="497.32816305616893" x2="958.4369411538181" y2="497.32816305616893" stroke="#FFD700" stroke-width="0.5"/><line x1="1053.7511120972918" y1="497.32816305616893" x2="1064.3415755354556" y2="497.32816305616893" stroke="#FFD700" stroke-width="0.5"/><line x1="1159.6557464789291" y1="497.32816305616893" x2="1170.2462099170928" y2="497.32816305616893" stroke="#FFD700" stroke-width="0.5"/><line x1="47.657085471736806" y1="589.0415764306669" x2="58.247548909900544" y2="589.0415764306669" stroke="#FFD700" stroke-width="0.5"/><line x1="153.56171985337414" y1="589.0415764306669" x2="164.15218329153788" y2="589.0415764306669" stroke="#FFD700" stroke-width="0.5"/><line x1="259.4663542350115" y1="589.0415764306669" x2="270.0568176731752" y2="589.0415764306669" stroke="#FFD700" stroke-width="0.5"/><line x1="365.37098861664884" y1="589.0415764306669" x2="375.9614520548126" y2="589.0415764306669" stroke="#FFD700" stroke-width="0.5"/><line x1="471.2756229982862" y1="589.0415764306669" x2="481.86608643644996" y2="589.0415764306669" stroke="#FFD700" stroke-width="0.5"/><line x1="577.1802573799235" y1="589.0415764306669" x2="587.7707208180873" y2="589.0415764306669" stroke="#FFD700" stroke-width="0.5"/><line x1="683.0848917615608" y1="589.0415764306669" x2="693.6753551997247" y2="589.0415764306669" stroke="#FFD700" stroke-width="0.5"/><line x1="788.9895261431982" y1="589.0415764306669" x2="799.579989581362" y2="589.0415764306669" stroke="#FFD700" stroke-width="0.5"/><line x1="894.8941605248356" y1="589.0415764306669" x2="905.4846239629994" y2="589.0415764306669" stroke="#FFD700" stroke-width="0.5"/><line x1="1000.798794906473" y1="589.0415764306669" x2="1011.3892583446368" y2="589.0415764306669" stroke="#FFD700" stroke-width="0.5"/><line x1="1106.7034292881103" y1="589.0415764306669" x2="1117.2938927262742" y2="589.0415764306669" stroke="#FFD700" stroke-width="0.5"/></g><g opacity="0.19304959780678604"><path d="M 1014.0907471133819 174.27820452222517 L 1014.0907471133819 233.7085293362296 L 969.7278094106846 233.7085293362296 L 969.7278094106846 199.18589092139914" fill="none" stroke="#FFFFFF" stroke-width="1.7214110499347612" stroke-linecap="square"/><path d="M 1167.5414090824972 572.9672029302303 L 1167.5414090824972 620.8867630720536 L 1200 620.8867630720536 L 1200 575.8657722452767" fill="none" stroke="#FFFFFF" stroke-width="1.7214110499347612" stroke-linecap="square"/><path d="M 1077.2560005435982 7.366890910718073 L 1135.1231002381774 7.366890910718073 L 1135.1231002381774 44.647968392125264" fill="none" stroke="#FFFFFF" stroke-width="1.7214110499347612" stroke-linecap="square"/><path d="M 20.111560830898377 402.8395938141456 L 0 402.8395938141456 L 0 361.0935122169532 L 0 361.0935122169532" fill="none" stroke="#FFFFFF" stroke-width="1.7214110499347612" stroke-linecap="square"/><path d="M 929.1830424820926 365.92739241473726 L 929.1830424820926 419.48020520049033 L 873.6127154691793 419.48020520049033 L 873.6127154691793 384.1306925938022" fill="none" stroke="#FFFFFF" stroke-width="1.7214110499347612" stroke-linecap="square"/><line x1="208.04055342825154" y1="99.75688938971464" x2="660.5872646070027" y2="99.75688938971464" stroke="#FFFFFF" stroke-width="0.5" stroke-dasharray="5,10"/><rect x="966.9068696310206" y="230.8875895565657" width="5.641879559327792" height="5.641879559327792" fill="#FFFFFF"/><rect x="1164.7204693028334" y="618.0658232923896" width="5.641879559327792" height="5.641879559327792" fill="#FFFFFF"/><circle cx="1135.1231002381774" cy="44.647968392125264" r="2.820939779663896" fill="#FFFFFF"/><rect x="1132.3021604585135" y="4.545951131054177" width="5.641879559327792" height="5.641879559327792" fill="#FFFFFF"/><circle cx="0" cy="361.0935122169532" r="2.820939779663896" fill="#FFFFFF"/><rect x="-2.820939779663896" y="400.0186540344817" width="5.641879559327792" height="5.641879559327792" fill="#FFFFFF"/><circle cx="873.6127154691793" cy="384.1306925938022" r="2.820939779663896" fill="#FFFFFF"/><circle cx="319.6223975716263" cy="104.7400850545336" r="3.1329619770803614" fill="#FFFFFF"/><circle cx="874.4728092450988" cy="572.559700278826" r="5.548524924781911" fill="#FFFFFF"/></g><g opacity="0.2"><rect x="40" y="40" width="1120" height="550" fill="none" stroke="#8B7355" stroke-width="2" rx="8"/></g><g opacity="0.7434999347866978"><line x1="50" y1="50" x2="70" y2="50" stroke="#FFC125" stroke-width="3"/><line x1="50" y1="50" x2="50" y2="70" stroke="#FFC125" stroke-width="3"/><line x1="1150" y1="580" x2="1130" y2="580" stroke="#FFC125" stroke-width="3"/><line x1="1150" y1="580" x2="1150" y2="560" stroke="#FFC125" stroke-width="3"/></g></svg>