<svg xmlns="http://www.w3.org/2000/svg" width="1200" height="630" viewBox="0 0 1200 630"><rect x="0" y="0" width="1200" height="630" fill="#000000"/><g opacity="0.05"><line x1="0" y1="0" x2="0" y2="630" stroke="#666666" stroke-width="0.5"/><line x1="60" y1="0" x2="60" y2="630" stroke="#666666" stroke-width="0.5"/><line x1="120" y1="0" x2="120" y2="630" stroke="#666666" stroke-width="0.5"/><line x1="180" y1="0" x2="180" y2="630" stroke="#666666" stroke-width="0.5"/><line x1="240" y1="0" x2="240" y2="630" stroke="#666666" stroke-width="0.5"/><line x1="300" y1="0" x2="300" y2="630" stroke="#666666" stroke-width="0.5"/><line x1="360" y1="0" x2="360" y2="630" stroke="#666666" stroke-width="0.5"/><line x1="420" y1="0" x2="420" y2="630" stroke="#666666" stroke-width="0.5"/><line x1="480" y1="0" x2="480" y2="630" stroke="#666666" stroke-width="0.5"/><line x1="540" y1="0" x2="540" y2="630" stroke="#666666" stroke-width="0.5"/><line x1="600" y1="0" x2="600" y2="630" stroke="#666666" stroke-width="0.5"/><line x1="660" y1="0" x2="660" y2="630" stroke="#666666" stroke-width="0.5"/><line x1="720" y1="0" x2="720" y2="630" stroke="#666666" stroke-width="0.5"/><line x1="780" y1="0" x2="780" y2="630" stroke="#666666" stroke-width="0.5"/><line x1="840" y1="0" x2="840" y2="630" stroke="#666666" stroke-width="0.5"/><line x1="900" y1="0" x2="900" y2="630" stroke="#666666" stroke-width="0.5"/><line x1="960" y1="0" x2="960" y2="630" stroke="#666666" stroke-width="0.5"/><line x1="1020" y1="0" x2="1020" y2="630" stroke="#666666" stroke-width="0.5"/><line x1="1080" y1="0" x2="1080" y2="630" stroke="#666666" stroke-width="0.5"/><line x1="1140" y1="0" x2="1140" y2="630" stroke="#666666" stroke-width="0.5"/><line x1="1200" y1="0" x2="1200" y2="630" stroke="#666666" stroke-width="0.5"/><line x1="0" y1="0" x2="1200" y2="0" stroke="#666666" stroke-width="0.5"/><line x1="0" y1="60" x2="1200" y2="60" stroke="#666666" stroke-width="0.5"/><line x1="0" y1="120" x2="1200" y2="120" stroke="#666666" stroke-width="0.5"/><line x1="0" y1="180" x2="1200" y2="180" stroke="#666666" stroke-width="0.5"/><line x1="0" y1="240" x2="1200" y2="240" stroke="#666666" stroke-width="0.5"/><line x1="0" y1="300" x2="1200" y2="300" stroke="#666666" stroke-width="0.5"/><line x1="0" y1="360" x2="1200" y2="360" stroke="#666666" stroke-width="0.5"/><line x1="0" y1="420" x2="1200" y2="420" stroke="#666666" stroke-width="0.5"/><line x1="0" y1="480" x2="1200" y2="480" stroke="#666666" stroke-width="0.5"/><line x1="0" y1="540" x2="1200" y2="540" stroke="#666666" stroke-width="0.5"/><line x1="0" y1="600" x2="1200" y2="600" stroke="#666666" stroke-width="0.5"/><line x1="0" y1="660" x2="1200" y2="660" stroke="#666666" stroke-width="0.5"/></g><g opacity="0.05036971569078496"><path d="M -69.11560678139263,-131.319652884646 L -55.890907964843024,-101.0428540226061 L -25.13070396454153,-113.10050959824372 L -37.18835954017916,-82.34030559794223 L -6.91156067813926,-69.11560678139263 L -37.18835954017916,-55.890907964843024 L -25.13070396454153,-25.13070396454154 L -55.890907964843024,-37.18835954017916 L -69.11560678139263,-6.91156067813926 L -82.34030559794223,-37.18835954017916 L -113.10050959824372,-25.13070396454153 L -101.0428540226061,-55.89090796484301 L -131.319652884646,-69.11560678139261 L -101.0428540226061,-82.34030559794225 L -113.10050959824373,-113.10050959824372 L -82.34030559794225,-101.0428540226061 Z" fill="none" stroke="#00A86B" stroke-width="1.154810667342884" /><path d="M 69.11560678139263,-131.319652884646 L 82.34030559794223,-101.0428540226061 L 113.10050959824372,-113.10050959824372 L 101.0428540226061,-82.34030559794223 L 131.319652884646,-69.11560678139263 L 101.0428540226061,-55.890907964843024 L 113.10050959824372,-25.13070396454154 L 82.34030559794223,-37.18835954017916 L 69.11560678139263,-6.91156067813926 L 55.890907964843024,-37.18835954017916 L 25.13070396454154,-25.13070396454153 L 37.188359540179164,-55.89090796484301 L 6.91156067813926,-69.11560678139261 L 37.188359540179164,-82.34030559794225 L 25.130703964541524,-113.10050959824372 L 55.89090796484301,-101.0428540226061 Z" fill="none" stroke="#00A86B" stroke-width="1.154810667342884" /><path d="M 207.3468203441779,-131.319652884646 L 220.57151916072752,-101.0428540226061 L 251.331723161029,-113.10050959824372 L 239.27406758539138,-82.34030559794223 L 269.55086644743125,-69.11560678139263 L 239.27406758539138,-55.890907964843024 L 251.331723161029,-25.13070396454154 L 220.57151916072752,-37.18835954017916 L 207.3468203441779,-6.91156067813926 L 194.1221215276283,-37.18835954017916 L 163.3619175273268,-25.13070396454153 L 175.41957310296445,-55.89090796484301 L 145.14277424092452,-69.11560678139261 L 175.41957310296442,-82.34030559794225 L 163.3619175273268,-113.10050959824372 L 194.12212152762828,-101.0428540226061 Z" fill="none" stroke="#00A86B" stroke-width="1.154810667342884" /><path d="M 345.5780339069632,-131.319652884646 L 358.8027327235128,-101.0428540226061 L 389.5629367238143,-113.10050959824372 L 377.50528114817666,-82.34030559794223 L 407.78208001021653,-69.11560678139263 L 377.50528114817666,-55.890907964843024 L 389.5629367238143,-25.13070396454154 L 358.8027327235128,-37.18835954017916 L 345.5780339069632,-6.91156067813926 L 332.35333509041357,-37.18835954017916 L 301.5931310901121,-25.13070396454153 L 313.6507866657497,-55.89090796484301 L 283.37398780370984,-69.11560678139261 L 313.6507866657497,-82.34030559794225 L 301.5931310901121,-113.10050959824372 L 332.35333509041357,-101.0428540226061 Z" fill="none" stroke="#00A86B" stroke-width="1.154810667342884" /><path d="M 483.8092474697484,-131.319652884646 L 497.03394628629803,-101.0428540226061 L 527.7941502865995,-113.10050959824372 L 515.7364947109619,-82.34030559794223 L 546.0132935730018,-69.11560678139263 L 515.7364947109619,-55.890907964843024 L 527.7941502865995,-25.13070396454154 L 497.03394628629803,-37.18835954017916 L 483.8092474697484,-6.91156067813926 L 470.5845486531988,-37.18835954017916 L 439.8243446528973,-25.13070396454153 L 451.88200022853493,-55.89090796484301 L 421.60520136649507,-69.11560678139261 L 451.88200022853493,-82.34030559794225 L 439.8243446528973,-113.10050959824372 L 470.5845486531988,-101.0428540226061 Z" fill="none" stroke="#00A86B" stroke-width="1.154810667342884" /><path d="M 622.0404610325336,-131.319652884646 L 635.2651598490831,-101.0428540226061 L 666.0253638493847,-113.10050959824372 L 653.967708273747,-82.34030559794223 L 684.244507135787,-69.11560678139263 L 653.967708273747,-55.890907964843024 L 666.0253638493847,-25.13070396454154 L 635.2651598490831,-37.18835954017916 L 622.0404610325336,-6.91156067813926 L 608.815762215984,-37.18835954017916 L 578.0555582156825,-25.13070396454153 L 590.1132137913202,-55.89090796484301 L 559.8364149292802,-69.11560678139261 L 590.1132137913202,-82.34030559794225 L 578.0555582156825,-113.10050959824372 L 608.8157622159839,-101.0428540226061 Z" fill="none" stroke="#00A86B" stroke-width="1.154810667342884" /><path d="M 760.2716745953189,-131.319652884646 L 773.4963734118685,-101.0428540226061 L 804.25657741217,-113.10050959824372 L 792.1989218365323,-82.34030559794223 L 822.4757206985723,-69.11560678139263 L 792.1989218365323,-55.890907964843024 L 804.25657741217,-25.13070396454154 L 773.4963734118685,-37.18835954017916 L 760.2716745953189,-6.91156067813926 L 747.0469757787694,-37.18835954017916 L 716.2867717784678,-25.13070396454153 L 728.3444273541055,-55.89090796484301 L 698.0676284920655,-69.11560678139261 L 728.3444273541055,-82.34030559794225 L 716.2867717784678,-113.10050959824372 L 747.0469757787693,-101.0428540226061 Z" fill="none" stroke="#00A86B" stroke-width="1.154810667342884" /><path d="M 898.5028881581042,-131.319652884646 L 911.7275869746537,-101.0428540226061 L 942.4877909749553,-113.10050959824372 L 930.4301353993176,-82.34030559794223 L 960.7069342613576,-69.11560678139263 L 930.4301353993176,-55.890907964843024 L 942.4877909749553,-25.13070396454154 L 911.7275869746537,-37.18835954017916 L 898.5028881581042,-6.91156067813926 L 885.2781893415546,-37.18835954017916 L 854.517985341253,-25.13070396454153 L 866.5756409168907,-55.89090796484301 L 836.2988420548508,-69.11560678139261 L 866.5756409168907,-82.34030559794225 L 854.517985341253,-113.10050959824372 L 885.2781893415545,-101.0428540226061 Z" fill="none" stroke="#00A86B" stroke-width="1.154810667342884" /><path d="M 1036.7341017208894,-131.319652884646 L 1049.958800537439,-101.0428540226061 L 1080.7190045377404,-113.10050959824372 L 1068.661348962103,-82.34030559794223 L 1098.9381478241428,-69.11560678139263 L 1068.661348962103,-55.890907964843024 L 1080.7190045377404,-25.13070396454154 L 1049.958800537439,-37.18835954017916 L 1036.7341017208894,-6.91156067813926 L 1023.5094029043398,-37.18835954017916 L 992.7491989040383,-25.13070396454153 L 1004.806854479676,-55.89090796484301 L 974.530055617636,-69.11560678139261 L 1004.806854479676,-82.34030559794225 L 992.7491989040383,-113.10050959824372 L 1023.5094029043397,-101.0428540226061 Z" fill="none" stroke="#00A86B" stroke-width="1.154810667342884" /><path d="M 1174.9653152836747,-131.319652884646 L 1188.1900141002243,-101.0428540226061 L 1218.9502181005257,-113.10050959824372 L 1206.8925625248883,-82.34030559794223 L 1237.1693613869281,-69.11560678139263 L 1206.8925625248883,-55.890907964843024 L 1218.9502181005257,-25.13070396454154 L 1188.1900141002243,-37.18835954017916 L 1174.9653152836747,-6.91156067813926 L 1161.7406164671252,-37.18835954017916 L 1130.9804124668237,-25.13070396454153 L 1143.0380680424612,-55.89090796484301 L 1112.7612691804213,-69.11560678139261 L 1143.0380680424612,-82.34030559794225 L 1130.9804124668235,-113.10050959824372 L 1161.7406164671252,-101.0428540226061 Z" fill="none" stroke="#00A86B" stroke-width="1.154810667342884" /><path d="M 1313.1965288464598,-131.319652884646 L 1326.4212276630094,-101.0428540226061 L 1357.1814316633108,-113.10050959824372 L 1345.1237760876734,-82.34030559794223 L 1375.4005749497132,-69.11560678139263 L 1345.1237760876734,-55.890907964843024 L 1357.1814316633108,-25.13070396454154 L 1326.4212276630094,-37.18835954017916 L 1313.1965288464598,-6.91156067813926 L 1299.9718300299103,-37.18835954017916 L 1269.2116260296089,-25.13070396454153 L 1281.2692816052463,-55.89090796484301 L 1250.9924827432064,-69.11560678139261 L 1281.2692816052463,-82.34030559794225 L 1269.2116260296089,-113.10050959824372 L 1299.9718300299103,-101.0428540226061 Z" fill="none" stroke="#00A86B" stroke-width="1.154810667342884" /><path d="M 3.808899297718181e-15,-11.61142193927396 L 13.224698816549605,18.665376922765937 L 43.9849028168511,6.607721347128319 L 31.927247241213472,37.367925347429804 L 62.20404610325337,50.59262416397941 L 31.927247241213472,63.81732298052901 L 43.9849028168511,94.5775269808305 L 13.224698816549605,82.51987140519287 L 3.808899297718181e-15,112.79667026723277 L -13.224698816549601,82.51987140519287 L -43.98490281685109,94.5775269808305 L -31.92724724121346,63.81732298052903 L -62.20404610325337,50.592624163979416 L -31.92724724121347,37.3679253474298 L -43.984902816851104,6.607721347128319 L -13.224698816549623,18.665376922765947 Z" fill="none" stroke="#00A86B" stroke-width="1.154810667342884" /><path d="M 138.23121356278526,-11.61142193927396 L 151.45591237933485,18.665376922765937 L 182.21611637963636,6.607721347128319 L 170.15846080399874,37.367925347429804 L 200.43525966603863,50.59262416397941 L 170.15846080399874,63.81732298052901 L 182.21611637963636,94.5775269808305 L 151.45591237933485,82.51987140519287 L 138.23121356278526,112.79667026723277 L 125.00651474623565,82.51987140519287 L 94.24631074593417,94.5775269808305 L 106.30396632157179,63.81732298052903 L 76.02716745953188,50.592624163979416 L 106.30396632157179,37.3679253474298 L 94.24631074593415,6.607721347128319 L 125.00651474623564,18.665376922765947 Z" fill="none" stroke="#00A86B" stroke-width="1.154810667342884" /><path d="M 276.4624271255705,-11.61142193927396 L 289.68712594212013,18.665376922765937 L 320.4473299424216,6.607721347128319 L 308.389674366784,37.367925347429804 L 338.66647322882386,50.59262416397941 L 308.389674366784,63.81732298052901 L 320.4473299424216,94.5775269808305 L 289.68712594212013,82.51987140519287 L 276.4624271255705,112.79667026723277 L 263.2377283090209,82.51987140519287 L 232.4775243087194,94.5775269808305 L 244.53517988435706,63.81732298052903 L 214.25838102231714,50.592624163979416 L 244.53517988435704,37.3679253474298 L 232.4775243087194,6.607721347128319 L 263.2377283090209,18.665376922765947 Z" fill="none" stroke="#00A86B" stroke-width="1.154810667342884" /><path d="M 414.6936406883558,-11.61142193927396 L 427.9183395049054,18.665376922765937 L 458.6785435052069,6.607721347128319 L 446.6208879295693,37.367925347429804 L 476.89768679160915,50.59262416397941 L 446.6208879295693,63.81732298052901 L 458.6785435052069,94.5775269808305 L 427.9183395049054,82.51987140519287 L 414.6936406883558,112.79667026723277 L 401.4689418718062,82.51987140519287 L 370.7087378715047,94.5775269808305 L 382.7663934471423,63.81732298052903 L 352.48959458510245,50.592624163979416 L 382.7663934471423,37.3679253474298 L 370.7087378715047,6.607721347128319 L 401.4689418718062,18.665376922765947 Z" fill="none" stroke="#00A86B" stroke-width="1.154810667342884" /><path d="M 552.924854251141,-11.61142193927396 L 566.1495530676906,18.665376922765937 L 596.9097570679921,6.607721347128319 L 584.8521014923544,37.367925347429804 L 615.1289003543944,50.59262416397941 L 584.8521014923544,63.81732298052901 L 596.9097570679921,94.5775269808305 L 566.1495530676906,82.51987140519287 L 552.924854251141,112.79667026723277 L 539.7001554345915,82.51987140519287 L 508.9399514342899,94.5775269808305 L 520.9976070099276,63.81732298052903 L 490.7208081478877,50.592624163979416 L 520.9976070099276,37.3679253474298 L 508.9399514342899,6.607721347128319 L 539.7001554345914,18.665376922765947 Z" fill="none" stroke="#00A86B" stroke-width="1.154810667342884" /><path d="M 691.1560678139263,-11.61142193927396 L 704.3807666304758,18.665376922765937 L 735.1409706307774,6.607721347128319 L 723.0833150551397,37.367925347429804 L 753.3601139171797,50.59262416397941 L 723.0833150551397,63.81732298052901 L 735.1409706307774,94.5775269808305 L 704.3807666304758,82.51987140519287 L 691.1560678139263,112.79667026723277 L 677.9313689973767,82.51987140519287 L 647.1711649970752,94.5775269808305 L 659.2288205727128,63.81732298052903 L 628.9520217106729,50.592624163979416 L 659.2288205727128,37.3679253474298 L 647.1711649970752,6.607721347128319 L 677.9313689973766,18.665376922765947 Z" fill="none" stroke="#00A86B" stroke-width="1.154810667342884" /><path d="M 829.3872813767116,-11.61142193927396 L 842.6119801932612,18.665376922765937 L 873.3721841935627,6.607721347128319 L 861.314528617925,37.367925347429804 L 891.591327479965,50.59262416397941 L 861.314528617925,63.81732298052901 L 873.3721841935627,94.5775269808305 L 842.6119801932612,82.51987140519287 L 829.3872813767116,112.79667026723277 L 816.162582560162,82.51987140519287 L 785.4023785598605,94.5775269808305 L 797.4600341354982,63.81732298052903 L 767.1832352734582,50.592624163979416 L 797.4600341354982,37.3679253474298 L 785.4023785598605,6.607721347128319 L 816.1625825601619,18.665376922765947 Z" fill="none" stroke="#00A86B" stroke-width="1.154810667342884" /><path d="M 967.6184949394968,-11.61142193927396 L 980.8431937560464,18.665376922765937 L 1011.6033977563479,6.607721347128319 L 999.5457421807102,37.367925347429804 L 1029.8225410427501,50.59262416397941 L 999.5457421807102,63.81732298052901 L 1011.6033977563479,94.5775269808305 L 980.8431937560464,82.51987140519287 L 967.6184949394968,112.79667026723277 L 954.3937961229473,82.51987140519287 L 923.6335921226457,94.5775269808305 L 935.6912476982834,63.81732298052903 L 905.4144488362434,50.592624163979416 L 935.6912476982834,37.3679253474298 L 923.6335921226457,6.607721347128319 L 954.3937961229472,18.665376922765947 Z" fill="none" stroke="#00A86B" stroke-width="1.154810667342884" /><path d="M 1105.849708502282,-11.61142193927396 L 1119.0744073188316,18.665376922765937 L 1149.834611319133,6.607721347128319 L 1137.7769557434956,37.367925347429804 L 1168.0537546055355,50.59262416397941 L 1137.7769557434956,63.81732298052901 L 1149.834611319133,94.5775269808305 L 1119.0744073188316,82.51987140519287 L 1105.849708502282,112.79667026723277 L 1092.6250096857325,82.51987140519287 L 1061.864805685431,94.5775269808305 L 1073.9224612610685,63.81732298052903 L 1043.6456623990287,50.592624163979416 L 1073.9224612610685,37.3679253474298 L 1061.8648056854308,6.607721347128319 L 1092.6250096857325,18.665376922765947 Z" fill="none" stroke="#00A86B" stroke-width="1.154810667342884" /><path d="M 1244.0809220650674,-11.61142193927396 L 1257.305620881617,18.665376922765937 L 1288.0658248819184,6.607721347128319 L 1276.008169306281,37.367925347429804 L 1306.2849681683208,50.59262416397941 L 1276.008169306281,63.81732298052901 L 1288.0658248819184,94.5775269808305 L 1257.305620881617,82.51987140519287 L 1244.0809220650674,112.79667026723277 L 1230.8562232485178,82.51987140519287 L 1200.0960192482164,94.5775269808305 L 1212.1536748238539,63.81732298052903 L 1181.876875961814,50.592624163979416 L 1212.1536748238539,37.3679253474298 L 1200.0960192482162,6.607721347128319 L 1230.8562232485178,18.665376922765947 Z" fill="none" stroke="#00A86B" stroke-width="1.154810667342884" /><path d="M -69.11560678139263,108.09680900609808 L -55.890907964843024,138.37360786813798 L -25.13070396454153,126.31595229250037 L -37.18835954017916,157.07615629280187 L -6.91156067813926,170.30085510935146 L -37.18835954017916,183.52555392590105 L -25.13070396454153,214.28575792620256 L -55.890907964843024,202.22810235056494 L -69.11560678139263,232.50490121260484 L -82.34030559794223,202.22810235056494 L -113.10050959824372,214.28575792620256 L -101.0428540226061,183.52555392590108 L -131.319652884646,170.30085510935146 L -101.0428540226061,157.07615629280184 L -113.10050959824373,126.31595229250037 L -82.34030559794225,138.373607868138 Z" fill="none" stroke="#00A86B" stroke-width="1.154810667342884" /><path d="M 69.11560678139263,108.09680900609808 L 82.34030559794223,138.37360786813798 L 113.10050959824372,126.31595229250037 L 101.0428540226061,157.07615629280187 L 131.319652884646,170.30085510935146 L 101.0428540226061,183.52555392590105 L 113.10050959824372,214.28575792620256 L 82.34030559794223,202.22810235056494 L 69.11560678139263,232.50490121260484 L 55.890907964843024,202.22810235056494 L 25.13070396454154,214.28575792620256 L 37.188359540179164,183.52555392590108 L 6.91156067813926,170.30085510935146 L 37.188359540179164,157.07615629280184 L 25.130703964541524,126.31595229250037 L 55.89090796484301,138.373607868138 Z" fill="none" stroke="#00A86B" stroke-width="1.154810667342884" /><path d="M 207.3468203441779,108.09680900609808 L 220.57151916072752,138.37360786813798 L 251.331723161029,126.31595229250037 L 239.27406758539138,157.07615629280187 L 269.55086644743125,170.30085510935146 L 239.27406758539138,183.52555392590105 L 251.331723161029,214.28575792620256 L 220.57151916072752,202.22810235056494 L 207.3468203441779,232.50490121260484 L 194.1221215276283,202.22810235056494 L 163.3619175273268,214.28575792620256 L 175.41957310296445,183.52555392590108 L 145.14277424092452,170.30085510935146 L 175.41957310296442,157.07615629280184 L 163.3619175273268,126.31595229250037 L 194.12212152762828,138.373607868138 Z" fill="none" stroke="#00A86B" stroke-width="1.154810667342884" /><path d="M 345.5780339069632,108.09680900609808 L 358.8027327235128,138.37360786813798 L 389.5629367238143,126.31595229250037 L 377.50528114817666,157.07615629280187 L 407.78208001021653,170.30085510935146 L 377.50528114817666,183.52555392590105 L 389.5629367238143,214.28575792620256 L 358.8027327235128,202.22810235056494 L 345.5780339069632,232.50490121260484 L 332.35333509041357,202.22810235056494 L 301.5931310901121,214.28575792620256 L 313.6507866657497,183.52555392590108 L 283.37398780370984,170.30085510935146 L 313.6507866657497,157.07615629280184 L 301.5931310901121,126.31595229250037 L 332.35333509041357,138.373607868138 Z" fill="none" stroke="#00A86B" stroke-width="1.154810667342884" /><path d="M 483.8092474697484,108.09680900609808 L 497.03394628629803,138.37360786813798 L 527.7941502865995,126.31595229250037 L 515.7364947109619,157.07615629280187 L 546.0132935730018,170.30085510935146 L 515.7364947109619,183.52555392590105 L 527.7941502865995,214.28575792620256 L 497.03394628629803,202.22810235056494 L 483.8092474697484,232.50490121260484 L 470.5845486531988,202.22810235056494 L 439.8243446528973,214.28575792620256 L 451.88200022853493,183.52555392590108 L 421.60520136649507,170.30085510935146 L 451.88200022853493,157.07615629280184 L 439.8243446528973,126.31595229250037 L 470.5845486531988,138.373607868138 Z" fill="none" stroke="#00A86B" stroke-width="1.154810667342884" /><path d="M 622.0404610325336,108.09680900609808 L 635.2651598490831,138.37360786813798 L 666.0253638493847,126.31595229250037 L 653.967708273747,157.07615629280187 L 684.244507135787,170.30085510935146 L 653.967708273747,183.52555392590105 L 666.0253638493847,214.28575792620256 L 635.2651598490831,202.22810235056494 L 622.0404610325336,232.50490121260484 L 608.815762215984,202.22810235056494 L 578.0555582156825,214.28575792620256 L 590.1132137913202,183.52555392590108 L 559.8364149292802,170.30085510935146 L 590.1132137913202,157.07615629280184 L 578.0555582156825,126.31595229250037 L 608.8157622159839,138.373607868138 Z" fill="none" stroke="#00A86B" stroke-width="1.154810667342884" /><path d="M 760.2716745953189,108.09680900609808 L 773.4963734118685,138.37360786813798 L 804.25657741217,126.31595229250037 L 792.1989218365323,157.07615629280187 L 822.4757206985723,170.30085510935146 L 792.1989218365323,183.52555392590105 L 804.25657741217,214.28575792620256 L 773.4963734118685,202.22810235056494 L 760.2716745953189,232.50490121260484 L 747.0469757787694,202.22810235056494 L 716.2867717784678,214.28575792620256 L 728.3444273541055,183.52555392590108 L 698.0676284920655,170.30085510935146 L 728.3444273541055,157.07615629280184 L 716.2867717784678,126.31595229250037 L 747.0469757787693,138.373607868138 Z" fill="none" stroke="#00A86B" stroke-width="1.154810667342884" /><path d="M 898.5028881581042,108.09680900609808 L 911.7275869746537,138.37360786813798 L 942.4877909749553,126.31595229250037 L 930.4301353993176,157.07615629280187 L 960.7069342613576,170.30085510935146 L 930.4301353993176,183.52555392590105 L 942.4877909749553,214.28575792620256 L 911.7275869746537,202.22810235056494 L 898.5028881581042,232.50490121260484 L 885.2781893415546,202.22810235056494 L 854.517985341253,214.28575792620256 L 866.5756409168907,183.52555392590108 L 836.2988420548508,170.30085510935146 L 866.5756409168907,157.07615629280184 L 854.517985341253,126.31595229250037 L 885.2781893415545,138.373607868138 Z" fill="none" stroke="#00A86B" stroke-width="1.154810667342884" /><path d="M 1036.7341017208894,108.09680900609808 L 1049.958800537439,138.37360786813798 L 1080.7190045377404,126.31595229250037 L 1068.661348962103,157.07615629280187 L 1098.9381478241428,170.30085510935146 L 1068.661348962103,183.52555392590105 L 1080.7190045377404,214.28575792620256 L 1049.958800537439,202.22810235056494 L 1036.7341017208894,232.50490121260484 L 1023.5094029043398,202.22810235056494 L 992.7491989040383,214.28575792620256 L 1004.806854479676,183.52555392590108 L 974.530055617636,170.30085510935146 L 1004.806854479676,157.07615629280184 L 992.7491989040383,126.31595229250037 L 1023.5094029043397,138.373607868138 Z" fill="none" stroke="#00A86B" stroke-width="1.154810667342884" /><path d="M 1174.9653152836747,108.09680900609808 L 1188.1900141002243,138.37360786813798 L 1218.9502181005257,126.31595229250037 L 1206.8925625248883,157.07615629280187 L 1237.1693613869281,170.30085510935146 L 1206.8925625248883,183.52555392590105 L 1218.9502181005257,214.28575792620256 L 1188.1900141002243,202.22810235056494 L 1174.9653152836747,232.50490121260484 L 1161.7406164671252,202.22810235056494 L 1130.9804124668237,214.28575792620256 L 1143.0380680424612,183.52555392590108 L 1112.7612691804213,170.30085510935146 L 1143.0380680424612,157.07615629280184 L 1130.9804124668235,126.31595229250037 L 1161.7406164671252,138.373607868138 Z" fill="none" stroke="#00A86B" stroke-width="1.154810667342884" /><path d="M 1313.1965288464598,108.09680900609808 L 1326.4212276630094,138.37360786813798 L 1357.1814316633108,126.31595229250037 L 1345.1237760876734,157.07615629280187 L 1375.4005749497132,170.30085510935146 L 1345.1237760876734,183.52555392590105 L 1357.1814316633108,214.28575792620256 L 1326.4212276630094,202.22810235056494 L 1313.1965288464598,232.50490121260484 L 1299.9718300299103,202.22810235056494 L 1269.2116260296089,214.28575792620256 L 1281.2692816052463,183.52555392590108 L 1250.9924827432064,170.30085510935146 L 1281.2692816052463,157.07615629280184 L 1269.2116260296089,126.31595229250037 L 1299.9718300299103,138.373607868138 Z" fill="none" stroke="#00A86B" stroke-width="1.154810667342884" /><path d="M 3.808899297718181e-15,227.80503995147015 L 13.224698816549605,258.08183881351005 L 43.9849028168511,246.02418323787242 L 31.927247241213472,276.7843872381739 L 62.20404610325337,290.0090860547235 L 31.927247241213472,303.23378487127314 L 43.9849028168511,333.99398887157463 L 13.224698816549605,321.936333295937 L 3.808899297718181e-15,352.2131321579769 L -13.224698816549601,321.936333295937 L -43.98490281685109,333.99398887157463 L -31.92724724121346,303.23378487127314 L -62.20404610325337,290.0090860547235 L -31.92724724121347,276.7843872381739 L -43.984902816851104,246.02418323787242 L -13.224698816549623,258.08183881351005 Z" fill="none" stroke="#00A86B" stroke-width="1.154810667342884" /><path d="M 138.23121356278526,227.80503995147015 L 151.45591237933485,258.08183881351005 L 182.21611637963636,246.02418323787242 L 170.15846080399874,276.7843872381739 L 200.43525966603863,290.0090860547235 L 170.15846080399874,303.23378487127314 L 182.21611637963636,333.99398887157463 L 151.45591237933485,321.936333295937 L 138.23121356278526,352.2131321579769 L 125.00651474623565,321.936333295937 L 94.24631074593417,333.99398887157463 L 106.30396632157179,303.23378487127314 L 76.02716745953188,290.0090860547235 L 106.30396632157179,276.7843872381739 L 94.24631074593415,246.02418323787242 L 125.00651474623564,258.08183881351005 Z" fill="none" stroke="#00A86B" stroke-width="1.154810667342884" /><path d="M 276.4624271255705,227.80503995147015 L 289.68712594212013,258.08183881351005 L 320.4473299424216,246.02418323787242 L 308.389674366784,276.7843872381739 L 338.66647322882386,290.0090860547235 L 308.389674366784,303.23378487127314 L 320.4473299424216,333.99398887157463 L 289.68712594212013,321.936333295937 L 276.4624271255705,352.2131321579769 L 263.2377283090209,321.936333295937 L 232.4775243087194,333.99398887157463 L 244.53517988435706,303.23378487127314 L 214.25838102231714,290.0090860547235 L 244.53517988435704,276.7843872381739 L 232.4775243087194,246.02418323787242 L 263.2377283090209,258.08183881351005 Z" fill="none" stroke="#00A86B" stroke-width="1.154810667342884" /><path d="M 414.6936406883558,227.80503995147015 L 427.9183395049054,258.08183881351005 L 458.6785435052069,246.02418323787242 L 446.6208879295693,276.7843872381739 L 476.89768679160915,290.0090860547235 L 446.6208879295693,303.23378487127314 L 458.6785435052069,333.99398887157463 L 427.9183395049054,321.936333295937 L 414.6936406883558,352.2131321579769 L 401.4689418718062,321.936333295937 L 370.7087378715047,333.99398887157463 L 382.7663934471423,303.23378487127314 L 352.48959458510245,290.0090860547235 L 382.7663934471423,276.7843872381739 L 370.7087378715047,246.02418323787242 L 401.4689418718062,258.08183881351005 Z" fill="none" stroke="#00A86B" stroke-width="1.154810667342884" /><path d="M 552.924854251141,227.80503995147015 L 566.1495530676906,258.08183881351005 L 596.9097570679921,246.02418323787242 L 584.8521014923544,276.7843872381739 L 615.1289003543944,290.0090860547235 L 584.8521014923544,303.23378487127314 L 596.9097570679921,333.99398887157463 L 566.1495530676906,321.936333295937 L 552.924854251141,352.2131321579769 L 539.7001554345915,321.936333295937 L 508.9399514342899,333.99398887157463 L 520.9976070099276,303.23378487127314 L 490.7208081478877,290.0090860547235 L 520.9976070099276,276.7843872381739 L 508.9399514342899,246.02418323787242 L 539.7001554345914,258.08183881351005 Z" fill="none" stroke="#00A86B" stroke-width="1.154810667342884" /><path d="M 691.1560678139263,227.80503995147015 L 704.3807666304758,258.08183881351005 L 735.1409706307774,246.02418323787242 L 723.0833150551397,276.7843872381739 L 753.3601139171797,290.0090860547235 L 723.0833150551397,303.23378487127314 L 735.1409706307774,333.99398887157463 L 704.3807666304758,321.936333295937 L 691.1560678139263,352.2131321579769 L 677.9313689973767,321.936333295937 L 647.1711649970752,333.99398887157463 L 659.2288205727128,303.23378487127314 L 628.9520217106729,290.0090860547235 L 659.2288205727128,276.7843872381739 L 647.1711649970752,246.02418323787242 L 677.9313689973766,258.08183881351005 Z" fill="none" stroke="#00A86B" stroke-width="1.154810667342884" /><path d="M 829.3872813767116,227.80503995147015 L 842.6119801932612,258.08183881351005 L 873.3721841935627,246.02418323787242 L 861.314528617925,276.7843872381739 L 891.591327479965,290.0090860547235 L 861.314528617925,303.23378487127314 L 873.3721841935627,333.99398887157463 L 842.6119801932612,321.936333295937 L 829.3872813767116,352.2131321579769 L 816.162582560162,321.936333295937 L 785.4023785598605,333.99398887157463 L 797.4600341354982,303.23378487127314 L 767.1832352734582,290.0090860547235 L 797.4600341354982,276.7843872381739 L 785.4023785598605,246.02418323787242 L 816.1625825601619,258.08183881351005 Z" fill="none" stroke="#00A86B" stroke-width="1.154810667342884" /><path d="M 967.6184949394968,227.80503995147015 L 980.8431937560464,258.08183881351005 L 1011.6033977563479,246.02418323787242 L 999.5457421807102,276.7843872381739 L 1029.8225410427501,290.0090860547235 L 999.5457421807102,303.23378487127314 L 1011.6033977563479,333.99398887157463 L 980.8431937560464,321.936333295937 L 967.6184949394968,352.2131321579769 L 954.3937961229473,321.936333295937 L 923.6335921226457,333.99398887157463 L 935.6912476982834,303.23378487127314 L 905.4144488362434,290.0090860547235 L 935.6912476982834,276.7843872381739 L 923.6335921226457,246.02418323787242 L 954.3937961229472,258.08183881351005 Z" fill="none" stroke="#00A86B" stroke-width="1.154810667342884" /><path d="M 1105.849708502282,227.80503995147015 L 1119.0744073188316,258.08183881351005 L 1149.834611319133,246.02418323787242 L 1137.7769557434956,276.7843872381739 L 1168.0537546055355,290.0090860547235 L 1137.7769557434956,303.23378487127314 L 1149.834611319133,333.99398887157463 L 1119.0744073188316,321.936333295937 L 1105.849708502282,352.2131321579769 L 1092.6250096857325,321.936333295937 L 1061.864805685431,333.99398887157463 L 1073.9224612610685,303.23378487127314 L 1043.6456623990287,290.0090860547235 L 1073.9224612610685,276.7843872381739 L 1061.8648056854308,246.02418323787242 L 1092.6250096857325,258.08183881351005 Z" fill="none" stroke="#00A86B" stroke-width="1.154810667342884" /><path d="M 1244.0809220650674,227.80503995147015 L 1257.305620881617,258.08183881351005 L 1288.0658248819184,246.02418323787242 L 1276.008169306281,276.7843872381739 L 1306.2849681683208,290.0090860547235 L 1276.008169306281,303.23378487127314 L 1288.0658248819184,333.99398887157463 L 1257.305620881617,321.936333295937 L 1244.0809220650674,352.2131321579769 L 1230.8562232485178,321.936333295937 L 1200.0960192482164,333.99398887157463 L 1212.1536748238539,303.23378487127314 L 1181.876875961814,290.0090860547235 L 1212.1536748238539,276.7843872381739 L 1200.0960192482162,246.02418323787242 L 1230.8562232485178,258.08183881351005 Z" fill="none" stroke="#00A86B" stroke-width="1.154810667342884" /><path d="M -69.11560678139263,347.5132708968422 L -55.890907964843024,377.79006975888205 L -25.13070396454153,365.73241418324443 L -37.18835954017916,396.4926181835459 L -6.91156067813926,409.71731700009553 L -37.18835954017916,422.94201581664515 L -25.13070396454153,453.70221981694664 L -55.890907964843024,441.644564241309 L -69.11560678139263,471.9213631033489 L -82.34030559794223,441.644564241309 L -113.10050959824372,453.70221981694664 L -101.0428540226061,422.94201581664515 L -131.319652884646,409.71731700009553 L -101.0428540226061,396.4926181835459 L -113.10050959824373,365.73241418324443 L -82.34030559794225,377.79006975888205 Z" fill="none" stroke="#00A86B" stroke-width="1.154810667342884" /><path d="M 69.11560678139263,347.5132708968422 L 82.34030559794223,377.79006975888205 L 113.10050959824372,365.73241418324443 L 101.0428540226061,396.4926181835459 L 131.319652884646,409.71731700009553 L 101.0428540226061,422.94201581664515 L 113.10050959824372,453.70221981694664 L 82.34030559794223,441.644564241309 L 69.11560678139263,471.9213631033489 L 55.890907964843024,441.644564241309 L 25.13070396454154,453.70221981694664 L 37.188359540179164,422.94201581664515 L 6.91156067813926,409.71731700009553 L 37.188359540179164,396.4926181835459 L 25.130703964541524,365.73241418324443 L 55.89090796484301,377.79006975888205 Z" fill="none" stroke="#00A86B" stroke-width="1.154810667342884" /><path d="M 207.3468203441779,347.5132708968422 L 220.57151916072752,377.79006975888205 L 251.331723161029,365.73241418324443 L 239.27406758539138,396.4926181835459 L 269.55086644743125,409.71731700009553 L 239.27406758539138,422.94201581664515 L 251.331723161029,453.70221981694664 L 220.57151916072752,441.644564241309 L 207.3468203441779,471.9213631033489 L 194.1221215276283,441.644564241309 L 163.3619175273268,453.70221981694664 L 175.41957310296445,422.94201581664515 L 145.14277424092452,409.71731700009553 L 175.41957310296442,396.4926181835459 L 163.3619175273268,365.73241418324443 L 194.12212152762828,377.79006975888205 Z" fill="none" stroke="#00A86B" stroke-width="1.154810667342884" /><path d="M 345.5780339069632,347.5132708968422 L 358.8027327235128,377.79006975888205 L 389.5629367238143,365.73241418324443 L 377.50528114817666,396.4926181835459 L 407.78208001021653,409.71731700009553 L 377.50528114817666,422.94201581664515 L 389.5629367238143,453.70221981694664 L 358.8027327235128,441.644564241309 L 345.5780339069632,471.9213631033489 L 332.35333509041357,441.644564241309 L 301.5931310901121,453.70221981694664 L 313.6507866657497,422.94201581664515 L 283.37398780370984,409.71731700009553 L 313.6507866657497,396.4926181835459 L 301.5931310901121,365.73241418324443 L 332.35333509041357,377.79006975888205 Z" fill="none" stroke="#00A86B" stroke-width="1.154810667342884" /><path d="M 483.8092474697484,347.5132708968422 L 497.03394628629803,377.79006975888205 L 527.7941502865995,365.73241418324443 L 515.7364947109619,396.4926181835459 L 546.0132935730018,409.71731700009553 L 515.7364947109619,422.94201581664515 L 527.7941502865995,453.70221981694664 L 497.03394628629803,441.644564241309 L 483.8092474697484,471.9213631033489 L 470.5845486531988,441.644564241309 L 439.8243446528973,453.70221981694664 L 451.88200022853493,422.94201581664515 L 421.60520136649507,409.71731700009553 L 451.88200022853493,396.4926181835459 L 439.8243446528973,365.73241418324443 L 470.5845486531988,377.79006975888205 Z" fill="none" stroke="#00A86B" stroke-width="1.154810667342884" /><path d="M 622.0404610325336,347.5132708968422 L 635.2651598490831,377.79006975888205 L 666.0253638493847,365.73241418324443 L 653.967708273747,396.4926181835459 L 684.244507135787,409.71731700009553 L 653.967708273747,422.94201581664515 L 666.0253638493847,453.70221981694664 L 635.2651598490831,441.644564241309 L 622.0404610325336,471.9213631033489 L 608.815762215984,441.644564241309 L 578.0555582156825,453.70221981694664 L 590.1132137913202,422.94201581664515 L 559.8364149292802,409.71731700009553 L 590.1132137913202,396.4926181835459 L 578.0555582156825,365.73241418324443 L 608.8157622159839,377.79006975888205 Z" fill="none" stroke="#00A86B" stroke-width="1.154810667342884" /><path d="M 760.2716745953189,347.5132708968422 L 773.4963734118685,377.79006975888205 L 804.25657741217,365.73241418324443 L 792.1989218365323,396.4926181835459 L 822.4757206985723,409.71731700009553 L 792.1989218365323,422.94201581664515 L 804.25657741217,453.70221981694664 L 773.4963734118685,441.644564241309 L 760.2716745953189,471.9213631033489 L 747.0469757787694,441.644564241309 L 716.2867717784678,453.70221981694664 L 728.3444273541055,422.94201581664515 L 698.0676284920655,409.71731700009553 L 728.3444273541055,396.4926181835459 L 716.2867717784678,365.73241418324443 L 747.0469757787693,377.79006975888205 Z" fill="none" stroke="#00A86B" stroke-width="1.154810667342884" /><path d="M 898.5028881581042,347.5132708968422 L 911.7275869746537,377.79006975888205 L 942.4877909749553,365.73241418324443 L 930.4301353993176,396.4926181835459 L 960.7069342613576,409.71731700009553 L 930.4301353993176,422.94201581664515 L 942.4877909749553,453.70221981694664 L 911.7275869746537,441.644564241309 L 898.5028881581042,471.9213631033489 L 885.2781893415546,441.644564241309 L 854.517985341253,453.70221981694664 L 866.5756409168907,422.94201581664515 L 836.2988420548508,409.71731700009553 L 866.5756409168907,396.4926181835459 L 854.517985341253,365.73241418324443 L 885.2781893415545,377.79006975888205 Z" fill="none" stroke="#00A86B" stroke-width="1.154810667342884" /><path d="M 1036.7341017208894,347.5132708968422 L 1049.958800537439,377.79006975888205 L 1080.7190045377404,365.73241418324443 L 1068.661348962103,396.4926181835459 L 1098.9381478241428,409.71731700009553 L 1068.661348962103,422.94201581664515 L 1080.7190045377404,453.70221981694664 L 1049.958800537439,441.644564241309 L 1036.7341017208894,471.9213631033489 L 1023.5094029043398,441.644564241309 L 992.7491989040383,453.70221981694664 L 1004.806854479676,422.94201581664515 L 974.530055617636,409.71731700009553 L 1004.806854479676,396.4926181835459 L 992.7491989040383,365.73241418324443 L 1023.5094029043397,377.79006975888205 Z" fill="none" stroke="#00A86B" stroke-width="1.154810667342884" /><path d="M 1174.9653152836747,347.5132708968422 L 1188.1900141002243,377.79006975888205 L 1218.9502181005257,365.73241418324443 L 1206.8925625248883,396.4926181835459 L 1237.1693613869281,409.71731700009553 L 1206.8925625248883,422.94201581664515 L 1218.9502181005257,453.70221981694664 L 1188.1900141002243,441.644564241309 L 1174.9653152836747,471.9213631033489 L 1161.7406164671252,441.644564241309 L 1130.9804124668237,453.70221981694664 L 1143.0380680424612,422.94201581664515 L 1112.7612691804213,409.71731700009553 L 1143.0380680424612,396.4926181835459 L 1130.9804124668235,365.73241418324443 L 1161.7406164671252,377.79006975888205 Z" fill="none" stroke="#00A86B" stroke-width="1.154810667342884" /><path d="M 1313.1965288464598,347.5132708968422 L 1326.4212276630094,377.79006975888205 L 1357.1814316633108,365.73241418324443 L 1345.1237760876734,396.4926181835459 L 1375.4005749497132,409.71731700009553 L 1345.1237760876734,422.94201581664515 L 1357.1814316633108,453.70221981694664 L 1326.4212276630094,441.644564241309 L 1313.1965288464598,471.9213631033489 L 1299.9718300299103,441.644564241309 L 1269.2116260296089,453.70221981694664 L 1281.2692816052463,422.94201581664515 L 1250.9924827432064,409.71731700009553 L 1281.2692816052463,396.4926181835459 L 1269.2116260296089,365.73241418324443 L 1299.9718300299103,377.79006975888205 Z" fill="none" stroke="#00A86B" stroke-width="1.154810667342884" /><path d="M 3.808899297718181e-15,467.2215018422141 L 13.224698816549605,497.49830070425395 L 43.9849028168511,485.4406451286163 L 31.927247241213472,516.2008491289179 L 62.20404610325337,529.4255479454674 L 31.927247241213472,542.650246762017 L 43.9849028168511,573.4104507623185 L 13.224698816549605,561.3527951866809 L 3.808899297718181e-15,591.6295940487208 L -13.224698816549601,561.3527951866809 L -43.98490281685109,573.4104507623185 L -31.92724724121346,542.6502467620171 L -62.20404610325337,529.4255479454674 L -31.92724724121347,516.2008491289179 L -43.984902816851104,485.4406451286163 L -13.224698816549623,497.49830070425395 Z" fill="none" stroke="#00A86B" stroke-width="1.154810667342884" /><path d="M 138.23121356278526,467.2215018422141 L 151.45591237933485,497.49830070425395 L 182.21611637963636,485.4406451286163 L 170.15846080399874,516.2008491289179 L 200.43525966603863,529.4255479454674 L 170.15846080399874,542.650246762017 L 182.21611637963636,573.4104507623185 L 151.45591237933485,561.3527951866809 L 138.23121356278526,591.6295940487208 L 125.00651474623565,561.3527951866809 L 94.24631074593417,573.4104507623185 L 106.30396632157179,542.6502467620171 L 76.02716745953188,529.4255479454674 L 106.30396632157179,516.2008491289179 L 94.24631074593415,485.4406451286163 L 125.00651474623564,497.49830070425395 Z" fill="none" stroke="#00A86B" stroke-width="1.154810667342884" /><path d="M 276.4624271255705,467.2215018422141 L 289.68712594212013,497.49830070425395 L 320.4473299424216,485.4406451286163 L 308.389674366784,516.2008491289179 L 338.66647322882386,529.4255479454674 L 308.389674366784,542.650246762017 L 320.4473299424216,573.4104507623185 L 289.68712594212013,561.3527951866809 L 276.4624271255705,591.6295940487208 L 263.2377283090209,561.3527951866809 L 232.4775243087194,573.4104507623185 L 244.53517988435706,542.6502467620171 L 214.25838102231714,529.4255479454674 L 244.53517988435704,516.2008491289179 L 232.4775243087194,485.4406451286163 L 263.2377283090209,497.49830070425395 Z" fill="none" stroke="#00A86B" stroke-width="1.154810667342884" /><path d="M 414.6936406883558,467.2215018422141 L 427.9183395049054,497.49830070425395 L 458.6785435052069,485.4406451286163 L 446.6208879295693,516.2008491289179 L 476.89768679160915,529.4255479454674 L 446.6208879295693,542.650246762017 L 458.6785435052069,573.4104507623185 L 427.9183395049054,561.3527951866809 L 414.6936406883558,591.6295940487208 L 401.4689418718062,561.3527951866809 L 370.7087378715047,573.4104507623185 L 382.7663934471423,542.6502467620171 L 352.48959458510245,529.4255479454674 L 382.7663934471423,516.2008491289179 L 370.7087378715047,485.4406451286163 L 401.4689418718062,497.49830070425395 Z" fill="none" stroke="#00A86B" stroke-width="1.154810667342884" /><path d="M 552.924854251141,467.2215018422141 L 566.1495530676906,497.49830070425395 L 596.9097570679921,485.4406451286163 L 584.8521014923544,516.2008491289179 L 615.1289003543944,529.4255479454674 L 584.8521014923544,542.650246762017 L 596.9097570679921,573.4104507623185 L 566.1495530676906,561.3527951866809 L 552.924854251141,591.6295940487208 L 539.7001554345915,561.3527951866809 L 508.9399514342899,573.4104507623185 L 520.9976070099276,542.6502467620171 L 490.7208081478877,529.4255479454674 L 520.9976070099276,516.2008491289179 L 508.9399514342899,485.4406451286163 L 539.7001554345914,497.49830070425395 Z" fill="none" stroke="#00A86B" stroke-width="1.154810667342884" /><path d="M 691.1560678139263,467.2215018422141 L 704.3807666304758,497.49830070425395 L 735.1409706307774,485.4406451286163 L 723.0833150551397,516.2008491289179 L 753.3601139171797,529.4255479454674 L 723.0833150551397,542.650246762017 L 735.1409706307774,573.4104507623185 L 704.3807666304758,561.3527951866809 L 691.1560678139263,591.6295940487208 L 677.9313689973767,561.3527951866809 L 647.1711649970752,573.4104507623185 L 659.2288205727128,542.6502467620171 L 628.9520217106729,529.4255479454674 L 659.2288205727128,516.2008491289179 L 647.1711649970752,485.4406451286163 L 677.9313689973766,497.49830070425395 Z" fill="none" stroke="#00A86B" stroke-width="1.154810667342884" /><path d="M 829.3872813767116,467.2215018422141 L 842.6119801932612,497.49830070425395 L 873.3721841935627,485.4406451286163 L 861.314528617925,516.2008491289179 L 891.591327479965,529.4255479454674 L 861.314528617925,542.650246762017 L 873.3721841935627,573.4104507623185 L 842.6119801932612,561.3527951866809 L 829.3872813767116,591.6295940487208 L 816.162582560162,561.3527951866809 L 785.4023785598605,573.4104507623185 L 797.4600341354982,542.6502467620171 L 767.1832352734582,529.4255479454674 L 797.4600341354982,516.2008491289179 L 785.4023785598605,485.4406451286163 L 816.1625825601619,497.49830070425395 Z" fill="none" stroke="#00A86B" stroke-width="1.154810667342884" /><path d="M 967.6184949394968,467.2215018422141 L 980.8431937560464,497.49830070425395 L 1011.6033977563479,485.4406451286163 L 999.5457421807102,516.2008491289179 L 1029.8225410427501,529.4255479454674 L 999.5457421807102,542.650246762017 L 1011.6033977563479,573.4104507623185 L 980.8431937560464,561.3527951866809 L 967.6184949394968,591.6295940487208 L 954.3937961229473,561.3527951866809 L 923.6335921226457,573.4104507623185 L 935.6912476982834,542.6502467620171 L 905.4144488362434,529.4255479454674 L 935.6912476982834,516.2008491289179 L 923.6335921226457,485.4406451286163 L 954.3937961229472,497.49830070425395 Z" fill="none" stroke="#00A86B" stroke-width="1.154810667342884" /><path d="M 1105.849708502282,467.2215018422141 L 1119.0744073188316,497.49830070425395 L 1149.834611319133,485.4406451286163 L 1137.7769557434956,516.2008491289179 L 1168.0537546055355,529.4255479454674 L 1137.7769557434956,542.650246762017 L 1149.834611319133,573.4104507623185 L 1119.0744073188316,561.3527951866809 L 1105.849708502282,591.6295940487208 L 1092.6250096857325,561.3527951866809 L 1061.864805685431,573.4104507623185 L 1073.9224612610685,542.6502467620171 L 1043.6456623990287,529.4255479454674 L 1073.9224612610685,516.2008491289179 L 1061.8648056854308,485.4406451286163 L 1092.6250096857325,497.49830070425395 Z" fill="none" stroke="#00A86B" stroke-width="1.154810667342884" /><path d="M 1244.0809220650674,467.2215018422141 L 1257.305620881617,497.49830070425395 L 1288.0658248819184,485.4406451286163 L 1276.008169306281,516.2008491289179 L 1306.2849681683208,529.4255479454674 L 1276.008169306281,542.650246762017 L 1288.0658248819184,573.4104507623185 L 1257.305620881617,561.3527951866809 L 1244.0809220650674,591.6295940487208 L 1230.8562232485178,561.3527951866809 L 1200.0960192482164,573.4104507623185 L 1212.1536748238539,542.6502467620171 L 1181.876875961814,529.4255479454674 L 1212.1536748238539,516.2008491289179 L 1200.0960192482162,485.4406451286163 L 1230.8562232485178,497.49830070425395 Z" fill="none" stroke="#00A86B" stroke-width="1.154810667342884" /><path d="M -69.11560678139263,586.9297327875862 L -55.890907964843024,617.2065316496262 L -25.13070396454153,605.1488760739885 L -37.18835954017916,635.90908007429 L -6.91156067813926,649.1337788908396 L -37.18835954017916,662.3584777073892 L -25.13070396454153,693.1186817076907 L -55.890907964843024,681.061026132053 L -69.11560678139263,711.337824994093 L -82.34030559794223,681.061026132053 L -113.10050959824372,693.1186817076907 L -101.0428540226061,662.3584777073893 L -131.319652884646,649.1337788908396 L -101.0428540226061,635.90908007429 L -113.10050959824373,605.1488760739885 L -82.34030559794225,617.2065316496262 Z" fill="none" stroke="#00A86B" stroke-width="1.154810667342884" /><path d="M 69.11560678139263,586.9297327875862 L 82.34030559794223,617.2065316496262 L 113.10050959824372,605.1488760739885 L 101.0428540226061,635.90908007429 L 131.319652884646,649.1337788908396 L 101.0428540226061,662.3584777073892 L 113.10050959824372,693.1186817076907 L 82.34030559794223,681.061026132053 L 69.11560678139263,711.337824994093 L 55.890907964843024,681.061026132053 L 25.13070396454154,693.1186817076907 L 37.188359540179164,662.3584777073893 L 6.91156067813926,649.1337788908396 L 37.188359540179164,635.90908007429 L 25.130703964541524,605.1488760739885 L 55.89090796484301,617.2065316496262 Z" fill="none" stroke="#00A86B" stroke-width="1.154810667342884" /><path d="M 207.3468203441779,586.9297327875862 L 220.57151916072752,617.2065316496262 L 251.331723161029,605.1488760739885 L 239.27406758539138,635.90908007429 L 269.55086644743125,649.1337788908396 L 239.27406758539138,662.3584777073892 L 251.331723161029,693.1186817076907 L 220.57151916072752,681.061026132053 L 207.3468203441779,711.337824994093 L 194.1221215276283,681.061026132053 L 163.3619175273268,693.1186817076907 L 175.41957310296445,662.3584777073893 L 145.14277424092452,649.1337788908396 L 175.41957310296442,635.90908007429 L 163.3619175273268,605.1488760739885 L 194.12212152762828,617.2065316496262 Z" fill="none" stroke="#00A86B" stroke-width="1.154810667342884" /><path d="M 345.5780339069632,586.9297327875862 L 358.8027327235128,617.2065316496262 L 389.5629367238143,605.1488760739885 L 377.50528114817666,635.90908007429 L 407.78208001021653,649.1337788908396 L 377.50528114817666,662.3584777073892 L 389.5629367238143,693.1186817076907 L 358.8027327235128,681.061026132053 L 345.5780339069632,711.337824994093 L 332.35333509041357,681.061026132053 L 301.5931310901121,693.1186817076907 L 313.6507866657497,662.3584777073893 L 283.37398780370984,649.1337788908396 L 313.6507866657497,635.90908007429 L 301.5931310901121,605.1488760739885 L 332.35333509041357,617.2065316496262 Z" fill="none" stroke="#00A86B" stroke-width="1.154810667342884" /><path d="M 483.8092474697484,586.9297327875862 L 497.03394628629803,617.2065316496262 L 527.7941502865995,605.1488760739885 L 515.7364947109619,635.90908007429 L 546.0132935730018,649.1337788908396 L 515.7364947109619,662.3584777073892 L 527.7941502865995,693.1186817076907 L 497.03394628629803,681.061026132053 L 483.8092474697484,711.337824994093 L 470.5845486531988,681.061026132053 L 439.8243446528973,693.1186817076907 L 451.88200022853493,662.3584777073893 L 421.60520136649507,649.1337788908396 L 451.88200022853493,635.90908007429 L 439.8243446528973,605.1488760739885 L 470.5845486531988,617.2065316496262 Z" fill="none" stroke="#00A86B" stroke-width="1.154810667342884" /><path d="M 622.0404610325336,586.9297327875862 L 635.2651598490831,617.2065316496262 L 666.0253638493847,605.1488760739885 L 653.967708273747,635.90908007429 L 684.244507135787,649.1337788908396 L 653.967708273747,662.3584777073892 L 666.0253638493847,693.1186817076907 L 635.2651598490831,681.061026132053 L 622.0404610325336,711.337824994093 L 608.815762215984,681.061026132053 L 578.0555582156825,693.1186817076907 L 590.1132137913202,662.3584777073893 L 559.8364149292802,649.1337788908396 L 590.1132137913202,635.90908007429 L 578.0555582156825,605.1488760739885 L 608.8157622159839,617.2065316496262 Z" fill="none" stroke="#00A86B" stroke-width="1.154810667342884" /><path d="M 760.2716745953189,586.9297327875862 L 773.4963734118685,617.2065316496262 L 804.25657741217,605.1488760739885 L 792.1989218365323,635.90908007429 L 822.4757206985723,649.1337788908396 L 792.1989218365323,662.3584777073892 L 804.25657741217,693.1186817076907 L 773.4963734118685,681.061026132053 L 760.2716745953189,711.337824994093 L 747.0469757787694,681.061026132053 L 716.2867717784678,693.1186817076907 L 728.3444273541055,662.3584777073893 L 698.0676284920655,649.1337788908396 L 728.3444273541055,635.90908007429 L 716.2867717784678,605.1488760739885 L 747.0469757787693,617.2065316496262 Z" fill="none" stroke="#00A86B" stroke-width="1.154810667342884" /><path d="M 898.5028881581042,586.9297327875862 L 911.7275869746537,617.2065316496262 L 942.4877909749553,605.1488760739885 L 930.4301353993176,635.90908007429 L 960.7069342613576,649.1337788908396 L 930.4301353993176,662.3584777073892 L 942.4877909749553,693.1186817076907 L 911.7275869746537,681.061026132053 L 898.5028881581042,711.337824994093 L 885.2781893415546,681.061026132053 L 854.517985341253,693.1186817076907 L 866.5756409168907,662.3584777073893 L 836.2988420548508,649.1337788908396 L 866.5756409168907,635.90908007429 L 854.517985341253,605.1488760739885 L 885.2781893415545,617.2065316496262 Z" fill="none" stroke="#00A86B" stroke-width="1.154810667342884" /><path d="M 1036.7341017208894,586.9297327875862 L 1049.958800537439,617.2065316496262 L 1080.7190045377404,605.1488760739885 L 1068.661348962103,635.90908007429 L 1098.9381478241428,649.1337788908396 L 1068.661348962103,662.3584777073892 L 1080.7190045377404,693.1186817076907 L 1049.958800537439,681.061026132053 L 1036.7341017208894,711.337824994093 L 1023.5094029043398,681.061026132053 L 992.7491989040383,693.1186817076907 L 1004.806854479676,662.3584777073893 L 974.530055617636,649.1337788908396 L 1004.806854479676,635.90908007429 L 992.7491989040383,605.1488760739885 L 1023.5094029043397,617.2065316496262 Z" fill="none" stroke="#00A86B" stroke-width="1.154810667342884" /><path d="M 1174.9653152836747,586.9297327875862 L 1188.1900141002243,617.2065316496262 L 1218.9502181005257,605.1488760739885 L 1206.8925625248883,635.90908007429 L 1237.1693613869281,649.1337788908396 L 1206.8925625248883,662.3584777073892 L 1218.9502181005257,693.1186817076907 L 1188.1900141002243,681.061026132053 L 1174.9653152836747,711.337824994093 L 1161.7406164671252,681.061026132053 L 1130.9804124668237,693.1186817076907 L 1143.0380680424612,662.3584777073893 L 1112.7612691804213,649.1337788908396 L 1143.0380680424612,635.90908007429 L 1130.9804124668235,605.1488760739885 L 1161.7406164671252,617.2065316496262 Z" fill="none" stroke="#00A86B" stroke-width="1.154810667342884" /><path d="M 1313.1965288464598,586.9297327875862 L 1326.4212276630094,617.2065316496262 L 1357.1814316633108,605.1488760739885 L 1345.1237760876734,635.90908007429 L 1375.4005749497132,649.1337788908396 L 1345.1237760876734,662.3584777073892 L 1357.1814316633108,693.1186817076907 L 1326.4212276630094,681.061026132053 L 1313.1965288464598,711.337824994093 L 1299.9718300299103,681.061026132053 L 1269.2116260296089,693.1186817076907 L 1281.2692816052463,662.3584777073893 L 1250.9924827432064,649.1337788908396 L 1281.2692816052463,635.90908007429 L 1269.2116260296089,605.1488760739885 L 1299.9718300299103,617.2065316496262 Z" fill="none" stroke="#00A86B" stroke-width="1.154810667342884" /><line x1="62.20404610325337" y1="50.59262416397941" x2="76.02716745953188" y2="50.59262416397941" stroke="#00A86B" stroke-width="0.5"/><line x1="200.43525966603863" y1="50.59262416397941" x2="214.25838102231714" y2="50.59262416397941" stroke="#00A86B" stroke-width="0.5"/><line x1="338.66647322882386" y1="50.59262416397941" x2="352.48959458510245" y2="50.59262416397941" stroke="#00A86B" stroke-width="0.5"/><line x1="476.89768679160915" y1="50.59262416397941" x2="490.7208081478877" y2="50.59262416397941" stroke="#00A86B" stroke-width="0.5"/><line x1="615.1289003543944" y1="50.59262416397941" x2="628.9520217106729" y2="50.59262416397941" stroke="#00A86B" stroke-width="0.5"/><line x1="753.3601139171797" y1="50.59262416397941" x2="767.1832352734582" y2="50.59262416397941" stroke="#00A86B" stroke-width="0.5"/><line x1="891.591327479965" y1="50.59262416397941" x2="905.4144488362434" y2="50.59262416397941" stroke="#00A86B" stroke-width="0.5"/><line x1="1029.8225410427501" y1="50.59262416397941" x2="1043.6456623990287" y2="50.59262416397941" stroke="#00A86B" stroke-width="0.5"/><line x1="1168.0537546055355" y1="50.59262416397941" x2="1181.876875961814" y2="50.59262416397941" stroke="#00A86B" stroke-width="0.5"/><line x1="131.319652884646" y1="170.30085510935146" x2="145.14277424092452" y2="170.30085510935146" stroke="#00A86B" stroke-width="0.5"/><line x1="269.55086644743125" y1="170.30085510935146" x2="283.37398780370984" y2="170.30085510935146" stroke="#00A86B" stroke-width="0.5"/><line x1="407.78208001021653" y1="170.30085510935146" x2="421.60520136649507" y2="170.30085510935146" stroke="#00A86B" stroke-width="0.5"/><line x1="546.0132935730018" y1="170.30085510935146" x2="559.8364149292802" y2="170.30085510935146" stroke="#00A86B" stroke-width="0.5"/><line x1="684.244507135787" y1="170.30085510935146" x2="698.0676284920655" y2="170.30085510935146" stroke="#00A86B" stroke-width="0.5"/><line x1="822.4757206985723" y1="170.30085510935146" x2="836.2988420548508" y2="170.30085510935146" stroke="#00A86B" stroke-width="0.5"/><line x1="960.7069342613576" y1="170.30085510935146" x2="974.530055617636" y2="170.30085510935146" stroke="#00A86B" stroke-width="0.5"/><line x1="1098.9381478241428" y1="170.30085510935146" x2="1112.7612691804213" y2="170.30085510935146" stroke="#00A86B" stroke-width="0.5"/><line x1="62.20404610325337" y1="290.0090860547235" x2="76.02716745953188" y2="290.0090860547235" stroke="#00A86B" stroke-width="0.5"/><line x1="200.43525966603863" y1="290.0090860547235" x2="214.25838102231714" y2="290.0090860547235" stroke="#00A86B" stroke-width="0.5"/><line x1="338.66647322882386" y1="290.0090860547235" x2="352.48959458510245" y2="290.0090860547235" stroke="#00A86B" stroke-width="0.5"/><line x1="476.89768679160915" y1="290.0090860547235" x2="490.7208081478877" y2="290.0090860547235" stroke="#00A86B" stroke-width="0.5"/><line x1="615.1289003543944" y1="290.0090860547235" x2="628.9520217106729" y2="290.0090860547235" stroke="#00A86B" stroke-width="0.5"/><line x1="753.3601139171797" y1="290.0090860547235" x2="767.1832352734582" y2="290.0090860547235" stroke="#00A86B" stroke-width="0.5"/><line x1="891.591327479965" y1="290.0090860547235" x2="905.4144488362434" y2="290.0090860547235" stroke="#00A86B" stroke-width="0.5"/><line x1="1029.8225410427501" y1="290.0090860547235" x2="1043.6456623990287" y2="290.0090860547235" stroke="#00A86B" stroke-width="0.5"/><line x1="1168.0537546055355" y1="290.0090860547235" x2="1181.876875961814" y2="290.0090860547235" stroke="#00A86B" stroke-width="0.5"/><line x1="131.319652884646" y1="409.71731700009553" x2="145.14277424092452" y2="409.71731700009553" stroke="#00A86B" stroke-width="0.5"/><line x1="269.55086644743125" y1="409.71731700009553" x2="283.37398780370984" y2="409.71731700009553" stroke="#00A86B" stroke-width="0.5"/><line x1="407.78208001021653" y1="409.71731700009553" x2="421.60520136649507" y2="409.71731700009553" stroke="#00A86B" stroke-width="0.5"/><line x1="546.0132935730018" y1="409.71731700009553" x2="559.8364149292802" y2="409.71731700009553" stroke="#00A86B" stroke-width="0.5"/><line x1="684.244507135787" y1="409.71731700009553" x2="698.0676284920655" y2="409.71731700009553" stroke="#00A86B" stroke-width="0.5"/><line x1="822.4757206985723" y1="409.71731700009553" x2="836.2988420548508" y2="409.71731700009553" stroke="#00A86B" stroke-width="0.5"/><line x1="960.7069342613576" y1="409.71731700009553" x2="974.530055617636" y2="409.71731700009553" stroke="#00A86B" stroke-width="0.5"/><line x1="1098.9381478241428" y1="409.71731700009553" x2="1112.7612691804213" y2="409.71731700009553" stroke="#00A86B" stroke-width="0.5"/><line x1="62.20404610325337" y1="529.4255479454674" x2="76.02716745953188" y2="529.4255479454674" stroke="#00A86B" stroke-width="0.5"/><line x1="200.43525966603863" y1="529.4255479454674" x2="214.25838102231714" y2="529.4255479454674" stroke="#00A86B" stroke-width="0.5"/><line x1="338.66647322882386" y1="529.4255479454674" x2="352.48959458510245" y2="529.4255479454674" stroke="#00A86B" stroke-width="0.5"/><line x1="476.89768679160915" y1="529.4255479454674" x2="490.7208081478877" y2="529.4255479454674" stroke="#00A86B" stroke-width="0.5"/><line x1="615.1289003543944" y1="529.4255479454674" x2="628.9520217106729" y2="529.4255479454674" stroke="#00A86B" stroke-width="0.5"/><line x1="753.3601139171797" y1="529.4255479454674" x2="767.1832352734582" y2="529.4255479454674" stroke="#00A86B" stroke-width="0.5"/><line x1="891.591327479965" y1="529.4255479454674" x2="905.4144488362434" y2="529.4255479454674" stroke="#00A86B" stroke-width="0.5"/><line x1="1029.8225410427501" y1="529.4255479454674" x2="1043.6456623990287" y2="529.4255479454674" stroke="#00A86B" stroke-width="0.5"/><line x1="1168.0537546055355" y1="529.4255479454674" x2="1181.876875961814" y2="529.4255479454674" stroke="#00A86B" stroke-width="0.5"/></g><g opacity="0.18454371035776274"><path d="M 383.6182596085678 179.18325670956784 L 433.0412895501943 179.18325670956784 L 433.0412895501943 242.32660950853904 L 465.9451733608337 242.32660950853904" fill="none" stroke="#FFFFFF" stroke-width="0.9684591295516394" stroke-linecap="square"/><path d="M 423.9905836172358 283.60509766433626 L 423.9905836172358 315.8049823905934 L 388.2882728344284 315.8049823905934 L 388.2882728344284 358.08611612083024" fill="none" stroke="#FFFFFF" stroke-width="0.9684591295516394" stroke-linecap="square"/><path d="M 1085.9381680777008 547.6260354684787 L 1022.688545514157 547.6260354684787 L 1022.688545514157 498.8085338564448" fill="none" stroke="#FFFFFF" stroke-width="0.9684591295516394" stroke-linecap="square"/><path d="M 369.1655160715643 379.8740317206243 L 369.1655160715643 320.4533774668856 L 308.7442717262277 320.4533774668856 L 308.7442717262277 254.42550247064975" fill="none" stroke="#FFFFFF" stroke-width="0.9684591295516394" stroke-linecap="square"/><path d="M 828.5126928372833 628.0093505922748 L 828.5126928372833 630 L 894.5287384885505 630 L 894.5287384885505 576.7462031495697" fill="none" stroke="#FFFFFF" stroke-width="0.9684591295516394" stroke-linecap="square"/><path d="M 810.9449748000804 68.9434254490507 L 746.1110405580094 68.9434254490507 L 746.1110405580094 102.18469391481901 L 810.3316779454337 102.18469391481901" fill="none" stroke="#FFFFFF" stroke-width="0.9684591295516394" stroke-linecap="square"/><path d="M 419.25616283866395 544.547986045735 L 419.25616283866395 584.1641295425192 L 369.7125911986017 584.1641295425192 L 369.7125911986017 531.6487033081853" fill="none" stroke="#FFFFFF" stroke-width="0.9684591295516394" stroke-linecap="square"/><line x1="574.9988081748592" y1="60.215906767275136" x2="574.9988081748592" y2="251.20932030454713" stroke="#FFFFFF" stroke-width="0.5" stroke-dasharray="5,10"/><rect x="425.600908497551" y="234.8862284558958" width="14.880762105286475" height="14.880762105286475" fill="#FFFFFF"/><circle cx="388.2882728344284" cy="358.08611612083024" r="7.440381052643238" fill="#FFFFFF"/><circle cx="1022.688545514157" cy="498.8085338564448" r="7.440381052643238" fill="#FFFFFF"/><circle cx="1085.9381680777008" cy="547.6260354684787" r="5.95230484211459" fill="#FFFFFF"/><circle cx="810.3316779454337" cy="102.18469391481901" r="7.440381052643238" fill="#FFFFFF"/><circle cx="810.9449748000804" cy="68.9434254490507" r="5.95230484211459" fill="#FFFFFF"/><rect x="738.6706595053662" y="94.74431286217578" width="14.880762105286475" height="14.880762105286475" fill="#FFFFFF"/><rect x="411.8157817860207" y="576.7237484898759" width="14.880762105286475" height="14.880762105286475" fill="#FFFFFF"/><rect x="522.4781367789753" y="-4.601834303104791" width="10.591250432112073" height="10.591250432112073" fill="#FFFFFF"/><circle cx="20.959103117212237" cy="105.31893023537422" r="6.868372814664807" fill="#FFFFFF"/><rect x="529.1994068729073" y="67.75120214066423" width="11.963087082201351" height="11.963087082201351" fill="#FFFFFF"/></g><g opacity="0.2"><rect x="40" y="40" width="1120" height="550" fill="none" stroke="#666666" stroke-width="2" rx="8"/></g><g opacity="0.5737987757072778"><line x1="50" y1="50" x2="70" y2="50" stroke="#00D486" stroke-width="3"/><line x1="50" y1="50" x2="50" y2="70" stroke="#00D486" stroke-width="3"/><line x1="1150" y1="580" x2="1130" y2="580" stroke="#00D486" stroke-width="3"/><line x1="1150" y1="580" x2="1150" y2="560" stroke="#00D486" stroke-width="3"/></g></svg>