<svg xmlns="http://www.w3.org/2000/svg" width="1200" height="630" viewBox="0 0 1200 630"><rect x="0" y="0" width="1200" height="630" fill="#000000"/><g opacity="0.05"><line x1="0" y1="0" x2="0" y2="630" stroke="#444444" stroke-width="0.5"/><line x1="60" y1="0" x2="60" y2="630" stroke="#444444" stroke-width="0.5"/><line x1="120" y1="0" x2="120" y2="630" stroke="#444444" stroke-width="0.5"/><line x1="180" y1="0" x2="180" y2="630" stroke="#444444" stroke-width="0.5"/><line x1="240" y1="0" x2="240" y2="630" stroke="#444444" stroke-width="0.5"/><line x1="300" y1="0" x2="300" y2="630" stroke="#444444" stroke-width="0.5"/><line x1="360" y1="0" x2="360" y2="630" stroke="#444444" stroke-width="0.5"/><line x1="420" y1="0" x2="420" y2="630" stroke="#444444" stroke-width="0.5"/><line x1="480" y1="0" x2="480" y2="630" stroke="#444444" stroke-width="0.5"/><line x1="540" y1="0" x2="540" y2="630" stroke="#444444" stroke-width="0.5"/><line x1="600" y1="0" x2="600" y2="630" stroke="#444444" stroke-width="0.5"/><line x1="660" y1="0" x2="660" y2="630" stroke="#444444" stroke-width="0.5"/><line x1="720" y1="0" x2="720" y2="630" stroke="#444444" stroke-width="0.5"/><line x1="780" y1="0" x2="780" y2="630" stroke="#444444" stroke-width="0.5"/><line x1="840" y1="0" x2="840" y2="630" stroke="#444444" stroke-width="0.5"/><line x1="900" y1="0" x2="900" y2="630" stroke="#444444" stroke-width="0.5"/><line x1="960" y1="0" x2="960" y2="630" stroke="#444444" stroke-width="0.5"/><line x1="1020" y1="0" x2="1020" y2="630" stroke="#444444" stroke-width="0.5"/><line x1="1080" y1="0" x2="1080" y2="630" stroke="#444444" stroke-width="0.5"/><line x1="1140" y1="0" x2="1140" y2="630" stroke="#444444" stroke-width="0.5"/><line x1="1200" y1="0" x2="1200" y2="630" stroke="#444444" stroke-width="0.5"/><line x1="0" y1="0" x2="1200" y2="0" stroke="#444444" stroke-width="0.5"/><line x1="0" y1="60" x2="1200" y2="60" stroke="#444444" stroke-width="0.5"/><line x1="0" y1="120" x2="1200" y2="120" stroke="#444444" stroke-width="0.5"/><line x1="0" y1="180" x2="1200" y2="180" stroke="#444444" stroke-width="0.5"/><line x1="0" y1="240" x2="1200" y2="240" stroke="#444444" stroke-width="0.5"/><line x1="0" y1="300" x2="1200" y2="300" stroke="#444444" stroke-width="0.5"/><line x1="0" y1="360" x2="1200" y2="360" stroke="#444444" stroke-width="0.5"/><line x1="0" y1="420" x2="1200" y2="420" stroke="#444444" stroke-width="0.5"/><line x1="0" y1="480" x2="1200" y2="480" stroke="#444444" stroke-width="0.5"/><line x1="0" y1="540" x2="1200" y2="540" stroke="#444444" stroke-width="0.5"/><line x1="0" y1="600" x2="1200" y2="600" stroke="#444444" stroke-width="0.5"/><line x1="0" y1="660" x2="1200" y2="660" stroke="#444444" stroke-width="0.5"/></g><g opacity="0.1640638888413384"><path d="M -61.19227658345009,-116.26532550855516 L -49.48364136485579,-89.4594225250597 L -22.249750227889784,-100.13480293901038 L -32.925130641840475,-72.90091180204438 L -6.119227658345011,-61.19227658345009 L -32.925130641840475,-49.48364136485579 L -22.249750227889784,-22.24975022788979 L -49.48364136485579,-32.925130641840475 L -61.19227658345009,-6.119227658345011 L -72.90091180204438,-32.925130641840475 L -100.13480293901038,-22.249750227889784 L -89.4594225250597,-49.48364136485578 L -116.26532550855516,-61.19227658345008 L -89.4594225250597,-72.90091180204439 L -100.1348029390104,-100.13480293901038 L -72.9009118020444,-89.4594225250597 Z" fill="none" stroke="#FFFFFF" stroke-width="2.673114419995395" /><path d="M 61.19227658345009,-116.26532550855516 L 72.90091180204439,-89.4594225250597 L 100.1348029390104,-100.13480293901038 L 89.4594225250597,-72.90091180204438 L 116.26532550855516,-61.19227658345009 L 89.4594225250597,-49.48364136485579 L 100.1348029390104,-22.24975022788979 L 72.90091180204439,-32.925130641840475 L 61.19227658345009,-6.119227658345011 L 49.4836413648558,-32.925130641840475 L 22.24975022788979,-22.249750227889784 L 32.92513064184048,-49.48364136485578 L 6.119227658345011,-61.19227658345008 L 32.92513064184048,-72.90091180204439 L 22.249750227889777,-100.13480293901038 L 49.48364136485578,-89.4594225250597 Z" fill="none" stroke="#FFFFFF" stroke-width="2.673114419995395" /><path d="M 183.57682975035027,-116.26532550855516 L 195.28546496894455,-89.4594225250597 L 222.51935610591056,-100.13480293901038 L 211.84397569195988,-72.90091180204438 L 238.64987867545534,-61.19227658345009 L 211.84397569195988,-49.48364136485579 L 222.51935610591056,-22.24975022788979 L 195.28546496894455,-32.925130641840475 L 183.57682975035027,-6.119227658345011 L 171.868194531756,-32.925130641840475 L 144.63430339478998,-22.249750227889784 L 155.30968380874066,-49.48364136485578 L 128.5037808252452,-61.19227658345008 L 155.30968380874066,-72.90091180204439 L 144.63430339478995,-100.13480293901038 L 171.86819453175596,-89.4594225250597 Z" fill="none" stroke="#FFFFFF" stroke-width="2.673114419995395" /><path d="M 305.96138291725043,-116.26532550855516 L 317.6700181358447,-89.4594225250597 L 344.9039092728107,-100.13480293901038 L 334.22852885886005,-72.90091180204438 L 361.0344318423555,-61.19227658345009 L 334.22852885886005,-49.48364136485579 L 344.9039092728107,-22.24975022788979 L 317.6700181358447,-32.925130641840475 L 305.96138291725043,-6.119227658345011 L 294.25274769865615,-32.925130641840475 L 267.01885656169014,-22.249750227889784 L 277.6942369756408,-49.48364136485578 L 250.88833399214536,-61.19227658345008 L 277.6942369756408,-72.90091180204439 L 267.01885656169014,-100.13480293901038 L 294.2527476986561,-89.4594225250597 Z" fill="none" stroke="#FFFFFF" stroke-width="2.673114419995395" /><path d="M 428.3459360841506,-116.26532550855516 L 440.0545713027449,-89.4594225250597 L 467.2884624397109,-100.13480293901038 L 456.6130820257602,-72.90091180204438 L 483.41898500925566,-61.19227658345009 L 456.6130820257602,-49.48364136485579 L 467.2884624397109,-22.24975022788979 L 440.0545713027449,-32.925130641840475 L 428.3459360841506,-6.119227658345011 L 416.6373008655563,-32.925130641840475 L 389.4034097285903,-22.249750227889784 L 400.078790142541,-49.48364136485578 L 373.2728871590455,-61.19227658345008 L 400.078790142541,-72.90091180204439 L 389.4034097285903,-100.13480293901038 L 416.63730086555626,-89.4594225250597 Z" fill="none" stroke="#FFFFFF" stroke-width="2.673114419995395" /><path d="M 550.7304892510508,-116.26532550855516 L 562.4391244696451,-89.4594225250597 L 589.6730156066111,-100.13480293901038 L 578.9976351926605,-72.90091180204438 L 605.8035381761559,-61.19227658345009 L 578.9976351926605,-49.48364136485579 L 589.6730156066111,-22.24975022788979 L 562.4391244696451,-32.925130641840475 L 550.7304892510508,-6.119227658345011 L 539.0218540324565,-32.925130641840475 L 511.7879628954905,-22.249750227889784 L 522.4633433094413,-49.48364136485578 L 495.65744032594574,-61.19227658345008 L 522.4633433094413,-72.90091180204439 L 511.7879628954905,-100.13480293901038 L 539.0218540324565,-89.4594225250597 Z" fill="none" stroke="#FFFFFF" stroke-width="2.673114419995395" /><path d="M 673.115042417951,-116.26532550855516 L 684.8236776365453,-89.4594225250597 L 712.0575687735113,-100.13480293901038 L 701.3821883595606,-72.90091180204438 L 728.1880913430562,-61.19227658345009 L 701.3821883595606,-49.48364136485579 L 712.0575687735113,-22.24975022788979 L 684.8236776365453,-32.925130641840475 L 673.115042417951,-6.119227658345011 L 661.4064071993567,-32.925130641840475 L 634.1725160623907,-22.249750227889784 L 644.8478964763415,-49.48364136485578 L 618.0419934928459,-61.19227658345008 L 644.8478964763415,-72.90091180204439 L 634.1725160623907,-100.13480293901038 L 661.4064071993567,-89.4594225250597 Z" fill="none" stroke="#FFFFFF" stroke-width="2.673114419995395" /><path d="M 795.4995955848511,-116.26532550855516 L 807.2082308034454,-89.4594225250597 L 834.4421219404114,-100.13480293901038 L 823.7667415264607,-72.90091180204438 L 850.5726445099563,-61.19227658345009 L 823.7667415264607,-49.48364136485579 L 834.4421219404114,-22.24975022788979 L 807.2082308034454,-32.925130641840475 L 795.4995955848511,-6.119227658345011 L 783.7909603662569,-32.925130641840475 L 756.5570692292908,-22.249750227889784 L 767.2324496432416,-49.48364136485578 L 740.426546659746,-61.19227658345008 L 767.2324496432416,-72.90091180204439 L 756.5570692292908,-100.13480293901038 L 783.7909603662569,-89.4594225250597 Z" fill="none" stroke="#FFFFFF" stroke-width="2.673114419995395" /><path d="M 917.8841487517514,-116.26532550855516 L 929.5927839703456,-89.4594225250597 L 956.8266751073116,-100.13480293901038 L 946.151294693361,-72.90091180204438 L 972.9571976768565,-61.19227658345009 L 946.151294693361,-49.48364136485579 L 956.8266751073116,-22.24975022788979 L 929.5927839703456,-32.925130641840475 L 917.8841487517514,-6.119227658345011 L 906.1755135331571,-32.925130641840475 L 878.9416223961911,-22.249750227889784 L 889.6170028101418,-49.48364136485578 L 862.8110998266462,-61.19227658345008 L 889.6170028101418,-72.90091180204439 L 878.9416223961911,-100.13480293901038 L 906.1755135331571,-89.4594225250597 Z" fill="none" stroke="#FFFFFF" stroke-width="2.673114419995395" /><path d="M 1040.2687019186515,-116.26532550855516 L 1051.9773371372457,-89.4594225250597 L 1079.2112282742119,-100.13480293901038 L 1068.5358478602611,-72.90091180204438 L 1095.3417508437565,-61.19227658345009 L 1068.5358478602611,-49.48364136485579 L 1079.2112282742119,-22.24975022788979 L 1051.9773371372457,-32.925130641840475 L 1040.2687019186515,-6.119227658345011 L 1028.5600667000572,-32.925130641840475 L 1001.3261755630912,-22.249750227889784 L 1012.0015559770419,-49.48364136485578 L 985.1956529935463,-61.19227658345008 L 1012.0015559770419,-72.90091180204439 L 1001.3261755630912,-100.13480293901038 L 1028.5600667000572,-89.4594225250597 Z" fill="none" stroke="#FFFFFF" stroke-width="2.673114419995395" /><path d="M 1162.6532550855516,-116.26532550855516 L 1174.3618903041458,-89.4594225250597 L 1201.595781441112,-100.13480293901038 L 1190.9204010271612,-72.90091180204438 L 1217.7263040106566,-61.19227658345009 L 1190.9204010271612,-49.48364136485579 L 1201.595781441112,-22.24975022788979 L 1174.3618903041458,-32.925130641840475 L 1162.6532550855516,-6.119227658345011 L 1150.9446198669573,-32.925130641840475 L 1123.7107287299912,-22.249750227889784 L 1134.386109143942,-49.48364136485578 L 1107.5802061604466,-61.19227658345008 L 1134.386109143942,-72.90091180204439 L 1123.7107287299912,-100.13480293901038 L 1150.9446198669573,-89.4594225250597 Z" fill="none" stroke="#FFFFFF" stroke-width="2.673114419995395" /><path d="M 1285.0378082524517,-116.26532550855516 L 1296.746443471046,-89.4594225250597 L 1323.980334608012,-100.13480293901038 L 1313.3049541940613,-72.90091180204438 L 1340.1108571775567,-61.19227658345009 L 1313.3049541940613,-49.48364136485579 L 1323.980334608012,-22.24975022788979 L 1296.746443471046,-32.925130641840475 L 1285.0378082524517,-6.119227658345011 L 1273.3291730338574,-32.925130641840475 L 1246.0952818968913,-22.249750227889784 L 1256.770662310842,-49.48364136485578 L 1229.9647593273467,-61.19227658345008 L 1256.770662310842,-72.90091180204439 L 1246.0952818968913,-100.13480293901038 L 1273.3291730338574,-89.4594225250597 Z" fill="none" stroke="#FFFFFF" stroke-width="2.673114419995395" /><path d="M 3.372251654270776e-15,-10.28030246601962 L 11.708635218594296,16.525600517475844 L 38.942526355560304,5.85022010352516 L 28.267145941609613,33.08411124049116 L 55.07304892510508,44.79274645908546 L 28.267145941609613,56.50138167767975 L 38.942526355560304,83.73527281464575 L 11.708635218594296,73.05989240069508 L 3.372251654270776e-15,99.86579538419053 L -11.708635218594292,73.05989240069508 L -38.9425263555603,83.73527281464575 L -28.267145941609606,56.50138167767977 L -55.07304892510508,44.792746459085464 L -28.26714594160961,33.084111240491154 L -38.94252635556031,5.85022010352516 L -11.708635218594312,16.52560051747585 Z" fill="none" stroke="#FFFFFF" stroke-width="2.673114419995395" /><path d="M 122.38455316690018,-10.28030246601962 L 134.09318838549447,16.525600517475844 L 161.32707952246048,5.85022010352516 L 150.65169910850977,33.08411124049116 L 177.45760209200526,44.79274645908546 L 150.65169910850977,56.50138167767975 L 161.32707952246048,83.73527281464575 L 134.09318838549447,73.05989240069508 L 122.38455316690018,99.86579538419053 L 110.67591794830588,73.05989240069508 L 83.44202681133987,83.73527281464575 L 94.11740722529058,56.50138167767977 L 67.31150424179509,44.792746459085464 L 94.11740722529056,33.084111240491154 L 83.44202681133987,5.85022010352516 L 110.67591794830587,16.52560051747585 Z" fill="none" stroke="#FFFFFF" stroke-width="2.673114419995395" /><path d="M 244.76910633380035,-10.28030246601962 L 256.47774155239466,16.525600517475844 L 283.71163268936067,5.85022010352516 L 273.03625227541,33.08411124049116 L 299.84215525890545,44.79274645908546 L 273.03625227541,56.50138167767975 L 283.71163268936067,83.73527281464575 L 256.47774155239466,73.05989240069508 L 244.76910633380035,99.86579538419053 L 233.06047111520607,73.05989240069508 L 205.82657997824006,83.73527281464575 L 216.50196039219074,56.50138167767977 L 189.69605740869528,44.792746459085464 L 216.50196039219074,33.084111240491154 L 205.82657997824003,5.85022010352516 L 233.06047111520604,16.52560051747585 Z" fill="none" stroke="#FFFFFF" stroke-width="2.673114419995395" /><path d="M 367.15365950070054,-10.28030246601962 L 378.8622947192948,16.525600517475844 L 406.09618585626083,5.85022010352516 L 395.42080544231015,33.08411124049116 L 422.2267084258056,44.79274645908546 L 395.42080544231015,56.50138167767975 L 406.09618585626083,83.73527281464575 L 378.8622947192948,73.05989240069508 L 367.15365950070054,99.86579538419053 L 355.44502428210626,73.05989240069508 L 328.21113314514025,83.73527281464575 L 338.88651355909093,56.50138167767977 L 312.0806105755955,44.792746459085464 L 338.88651355909093,33.084111240491154 L 328.21113314514025,5.85022010352516 L 355.4450242821062,16.52560051747585 Z" fill="none" stroke="#FFFFFF" stroke-width="2.673114419995395" /><path d="M 489.5382126676007,-10.28030246601962 L 501.246847886195,16.525600517475844 L 528.480739023161,5.85022010352516 L 517.8053586092103,33.08411124049116 L 544.6112615927058,44.79274645908546 L 517.8053586092103,56.50138167767975 L 528.480739023161,83.73527281464575 L 501.246847886195,73.05989240069508 L 489.5382126676007,99.86579538419053 L 477.8295774490064,73.05989240069508 L 450.5956863120404,83.73527281464575 L 461.2710667259911,56.50138167767977 L 434.46516374249563,44.792746459085464 L 461.2710667259911,33.084111240491154 L 450.5956863120404,5.85022010352516 L 477.82957744900636,16.52560051747585 Z" fill="none" stroke="#FFFFFF" stroke-width="2.673114419995395" /><path d="M 611.9227658345009,-10.28030246601962 L 623.6314010530951,16.525600517475844 L 650.8652921900612,5.85022010352516 L 640.1899117761104,33.08411124049116 L 666.995814759606,44.79274645908546 L 640.1899117761104,56.50138167767975 L 650.8652921900612,83.73527281464575 L 623.6314010530951,73.05989240069508 L 611.9227658345009,99.86579538419053 L 600.2141306159066,73.05989240069508 L 572.9802394789406,83.73527281464575 L 583.6556198928913,56.50138167767977 L 556.8497169093957,44.792746459085464 L 583.6556198928913,33.084111240491154 L 572.9802394789406,5.85022010352516 L 600.2141306159066,16.52560051747585 Z" fill="none" stroke="#FFFFFF" stroke-width="2.673114419995395" /><path d="M 734.3073190014011,-10.28030246601962 L 746.0159542199954,16.525600517475844 L 773.2498453569614,5.85022010352516 L 762.5744649430108,33.08411124049116 L 789.3803679265062,44.79274645908546 L 762.5744649430108,56.50138167767975 L 773.2498453569614,83.73527281464575 L 746.0159542199954,73.05989240069508 L 734.3073190014011,99.86579538419053 L 722.5986837828068,73.05989240069508 L 695.3647926458408,83.73527281464575 L 706.0401730597915,56.50138167767977 L 679.234270076296,44.792746459085464 L 706.0401730597915,33.084111240491154 L 695.3647926458408,5.85022010352516 L 722.5986837828068,16.52560051747585 Z" fill="none" stroke="#FFFFFF" stroke-width="2.673114419995395" /><path d="M 856.6918721683012,-10.28030246601962 L 868.4005073868955,16.525600517475844 L 895.6343985238615,5.85022010352516 L 884.9590181099109,33.08411124049116 L 911.7649210934063,44.79274645908546 L 884.9590181099109,56.50138167767975 L 895.6343985238615,83.73527281464575 L 868.4005073868955,73.05989240069508 L 856.6918721683012,99.86579538419053 L 844.9832369497069,73.05989240069508 L 817.7493458127409,83.73527281464575 L 828.4247262266916,56.50138167767977 L 801.6188232431961,44.792746459085464 L 828.4247262266916,33.084111240491154 L 817.7493458127409,5.85022010352516 L 844.9832369497069,16.52560051747585 Z" fill="none" stroke="#FFFFFF" stroke-width="2.673114419995395" /><path d="M 979.0764253352014,-10.28030246601962 L 990.7850605537957,16.525600517475844 L 1018.0189516907617,5.85022010352516 L 1007.343571276811,33.08411124049116 L 1034.1494742603065,44.79274645908546 L 1007.343571276811,56.50138167767975 L 1018.0189516907617,83.73527281464575 L 990.7850605537957,73.05989240069508 L 979.0764253352014,99.86579538419053 L 967.3677901166071,73.05989240069508 L 940.1338989796411,83.73527281464575 L 950.8092793935919,56.50138167767977 L 924.0033764100963,44.792746459085464 L 950.8092793935919,33.084111240491154 L 940.1338989796411,5.85022010352516 L 967.3677901166071,16.52560051747585 Z" fill="none" stroke="#FFFFFF" stroke-width="2.673114419995395" /><path d="M 1101.4609785021016,-10.28030246601962 L 1113.169613720696,16.525600517475844 L 1140.403504857662,5.85022010352516 L 1129.7281244437113,33.08411124049116 L 1156.5340274272066,44.79274645908546 L 1129.7281244437113,56.50138167767975 L 1140.403504857662,83.73527281464575 L 1113.169613720696,73.05989240069508 L 1101.4609785021016,99.86579538419053 L 1089.7523432835073,73.05989240069508 L 1062.5184521465412,83.73527281464575 L 1073.193832560492,56.50138167767977 L 1046.3879295769966,44.792746459085464 L 1073.193832560492,33.084111240491154 L 1062.5184521465412,5.85022010352516 L 1089.7523432835073,16.52560051747585 Z" fill="none" stroke="#FFFFFF" stroke-width="2.673114419995395" /><path d="M 1223.8455316690017,-10.28030246601962 L 1235.554166887596,16.525600517475844 L 1262.7880580245621,5.85022010352516 L 1252.1126776106114,33.08411124049116 L 1278.9185805941067,44.79274645908546 L 1252.1126776106114,56.50138167767975 L 1262.7880580245621,83.73527281464575 L 1235.554166887596,73.05989240069508 L 1223.8455316690017,99.86579538419053 L 1212.1368964504074,73.05989240069508 L 1184.9030053134413,83.73527281464575 L 1195.578385727392,56.50138167767977 L 1168.7724827438967,44.792746459085464 L 1195.578385727392,33.084111240491154 L 1184.9030053134413,5.85022010352516 L 1212.1368964504074,16.52560051747585 Z" fill="none" stroke="#FFFFFF" stroke-width="2.673114419995395" /><path d="M -61.19227658345009,95.70472057651594 L -49.48364136485579,122.5106235600114 L -22.249750227889784,111.83524314606072 L -32.925130641840475,139.06913428302673 L -6.119227658345011,150.777769501621 L -32.925130641840475,162.4864047202153 L -22.249750227889784,189.7202958571813 L -49.48364136485579,179.04491544323062 L -61.19227658345009,205.85081842672608 L -72.90091180204438,179.04491544323062 L -100.13480293901038,189.72029585718133 L -89.4594225250597,162.48640472021532 L -116.26532550855516,150.777769501621 L -89.4594225250597,139.0691342830267 L -100.1348029390104,111.83524314606072 L -72.9009118020444,122.5106235600114 Z" fill="none" stroke="#FFFFFF" stroke-width="2.673114419995395" /><path d="M 61.19227658345009,95.70472057651594 L 72.90091180204439,122.5106235600114 L 100.1348029390104,111.83524314606072 L 89.4594225250597,139.06913428302673 L 116.26532550855516,150.777769501621 L 89.4594225250597,162.4864047202153 L 100.1348029390104,189.7202958571813 L 72.90091180204439,179.04491544323062 L 61.19227658345009,205.85081842672608 L 49.4836413648558,179.04491544323062 L 22.24975022788979,189.72029585718133 L 32.92513064184048,162.48640472021532 L 6.119227658345011,150.777769501621 L 32.92513064184048,139.0691342830267 L 22.249750227889777,111.83524314606072 L 49.48364136485578,122.5106235600114 Z" fill="none" stroke="#FFFFFF" stroke-width="2.673114419995395" /><path d="M 183.57682975035027,95.70472057651594 L 195.28546496894455,122.5106235600114 L 222.51935610591056,111.83524314606072 L 211.84397569195988,139.06913428302673 L 238.64987867545534,150.777769501621 L 211.84397569195988,162.4864047202153 L 222.51935610591056,189.7202958571813 L 195.28546496894455,179.04491544323062 L 183.57682975035027,205.85081842672608 L 171.868194531756,179.04491544323062 L 144.63430339478998,189.72029585718133 L 155.30968380874066,162.48640472021532 L 128.5037808252452,150.777769501621 L 155.30968380874066,139.0691342830267 L 144.63430339478995,111.83524314606072 L 171.86819453175596,122.5106235600114 Z" fill="none" stroke="#FFFFFF" stroke-width="2.673114419995395" /><path d="M 305.96138291725043,95.70472057651594 L 317.6700181358447,122.5106235600114 L 344.9039092728107,111.83524314606072 L 334.22852885886005,139.06913428302673 L 361.0344318423555,150.777769501621 L 334.22852885886005,162.4864047202153 L 344.9039092728107,189.7202958571813 L 317.6700181358447,179.04491544323062 L 305.96138291725043,205.85081842672608 L 294.25274769865615,179.04491544323062 L 267.01885656169014,189.72029585718133 L 277.6942369756408,162.48640472021532 L 250.88833399214536,150.777769501621 L 277.6942369756408,139.0691342830267 L 267.01885656169014,111.83524314606072 L 294.2527476986561,122.5106235600114 Z" fill="none" stroke="#FFFFFF" stroke-width="2.673114419995395" /><path d="M 428.3459360841506,95.70472057651594 L 440.0545713027449,122.5106235600114 L 467.2884624397109,111.83524314606072 L 456.6130820257602,139.06913428302673 L 483.41898500925566,150.777769501621 L 456.6130820257602,162.4864047202153 L 467.2884624397109,189.7202958571813 L 440.0545713027449,179.04491544323062 L 428.3459360841506,205.85081842672608 L 416.6373008655563,179.04491544323062 L 389.4034097285903,189.72029585718133 L 400.078790142541,162.48640472021532 L 373.2728871590455,150.777769501621 L 400.078790142541,139.0691342830267 L 389.4034097285903,111.83524314606072 L 416.63730086555626,122.5106235600114 Z" fill="none" stroke="#FFFFFF" stroke-width="2.673114419995395" /><path d="M 550.7304892510508,95.70472057651594 L 562.4391244696451,122.5106235600114 L 589.6730156066111,111.83524314606072 L 578.9976351926605,139.06913428302673 L 605.8035381761559,150.777769501621 L 578.9976351926605,162.4864047202153 L 589.6730156066111,189.7202958571813 L 562.4391244696451,179.04491544323062 L 550.7304892510508,205.85081842672608 L 539.0218540324565,179.04491544323062 L 511.7879628954905,189.72029585718133 L 522.4633433094413,162.48640472021532 L 495.65744032594574,150.777769501621 L 522.4633433094413,139.0691342830267 L 511.7879628954905,111.83524314606072 L 539.0218540324565,122.5106235600114 Z" fill="none" stroke="#FFFFFF" stroke-width="2.673114419995395" /><path d="M 673.115042417951,95.70472057651594 L 684.8236776365453,122.5106235600114 L 712.0575687735113,111.83524314606072 L 701.3821883595606,139.06913428302673 L 728.1880913430562,150.777769501621 L 701.3821883595606,162.4864047202153 L 712.0575687735113,189.7202958571813 L 684.8236776365453,179.04491544323062 L 673.115042417951,205.85081842672608 L 661.4064071993567,179.04491544323062 L 634.1725160623907,189.72029585718133 L 644.8478964763415,162.48640472021532 L 618.0419934928459,150.777769501621 L 644.8478964763415,139.0691342830267 L 634.1725160623907,111.83524314606072 L 661.4064071993567,122.5106235600114 Z" fill="none" stroke="#FFFFFF" stroke-width="2.673114419995395" /><path d="M 795.4995955848511,95.70472057651594 L 807.2082308034454,122.5106235600114 L 834.4421219404114,111.83524314606072 L 823.7667415264607,139.06913428302673 L 850.5726445099563,150.777769501621 L 823.7667415264607,162.4864047202153 L 834.4421219404114,189.7202958571813 L 807.2082308034454,179.04491544323062 L 795.4995955848511,205.85081842672608 L 783.7909603662569,179.04491544323062 L 756.5570692292908,189.72029585718133 L 767.2324496432416,162.48640472021532 L 740.426546659746,150.777769501621 L 767.2324496432416,139.0691342830267 L 756.5570692292908,111.83524314606072 L 783.7909603662569,122.5106235600114 Z" fill="none" stroke="#FFFFFF" stroke-width="2.673114419995395" /><path d="M 917.8841487517514,95.70472057651594 L 929.5927839703456,122.5106235600114 L 956.8266751073116,111.83524314606072 L 946.151294693361,139.06913428302673 L 972.9571976768565,150.777769501621 L 946.151294693361,162.4864047202153 L 956.8266751073116,189.7202958571813 L 929.5927839703456,179.04491544323062 L 917.8841487517514,205.85081842672608 L 906.1755135331571,179.04491544323062 L 878.9416223961911,189.72029585718133 L 889.6170028101418,162.48640472021532 L 862.8110998266462,150.777769501621 L 889.6170028101418,139.0691342830267 L 878.9416223961911,111.83524314606072 L 906.1755135331571,122.5106235600114 Z" fill="none" stroke="#FFFFFF" stroke-width="2.673114419995395" /><path d="M 1040.2687019186515,95.70472057651594 L 1051.9773371372457,122.5106235600114 L 1079.2112282742119,111.83524314606072 L 1068.5358478602611,139.06913428302673 L 1095.3417508437565,150.777769501621 L 1068.5358478602611,162.4864047202153 L 1079.2112282742119,189.7202958571813 L 1051.9773371372457,179.04491544323062 L 1040.2687019186515,205.85081842672608 L 1028.5600667000572,179.04491544323062 L 1001.3261755630912,189.72029585718133 L 1012.0015559770419,162.48640472021532 L 985.1956529935463,150.777769501621 L 1012.0015559770419,139.0691342830267 L 1001.3261755630912,111.83524314606072 L 1028.5600667000572,122.5106235600114 Z" fill="none" stroke="#FFFFFF" stroke-width="2.673114419995395" /><path d="M 1162.6532550855516,95.70472057651594 L 1174.3618903041458,122.5106235600114 L 1201.595781441112,111.83524314606072 L 1190.9204010271612,139.06913428302673 L 1217.7263040106566,150.777769501621 L 1190.9204010271612,162.4864047202153 L 1201.595781441112,189.7202958571813 L 1174.3618903041458,179.04491544323062 L 1162.6532550855516,205.85081842672608 L 1150.9446198669573,179.04491544323062 L 1123.7107287299912,189.72029585718133 L 1134.386109143942,162.48640472021532 L 1107.5802061604466,150.777769501621 L 1134.386109143942,139.0691342830267 L 1123.7107287299912,111.83524314606072 L 1150.9446198669573,122.5106235600114 Z" fill="none" stroke="#FFFFFF" stroke-width="2.673114419995395" /><path d="M 1285.0378082524517,95.70472057651594 L 1296.746443471046,122.5106235600114 L 1323.980334608012,111.83524314606072 L 1313.3049541940613,139.06913428302673 L 1340.1108571775567,150.777769501621 L 1313.3049541940613,162.4864047202153 L 1323.980334608012,189.7202958571813 L 1296.746443471046,179.04491544323062 L 1285.0378082524517,205.85081842672608 L 1273.3291730338574,179.04491544323062 L 1246.0952818968913,189.72029585718133 L 1256.770662310842,162.48640472021532 L 1229.9647593273467,150.777769501621 L 1256.770662310842,139.0691342830267 L 1246.0952818968913,111.83524314606072 L 1273.3291730338574,122.5106235600114 Z" fill="none" stroke="#FFFFFF" stroke-width="2.673114419995395" /><path d="M 3.372251654270776e-15,201.6897436190515 L 11.708635218594296,228.49564660254697 L 38.942526355560304,217.8202661885963 L 28.267145941609613,245.0541573255623 L 55.07304892510508,256.7627925441566 L 28.267145941609613,268.47142776275086 L 38.942526355560304,295.7053188997169 L 11.708635218594296,285.0299384857662 L 3.372251654270776e-15,311.83584146926165 L -11.708635218594292,285.0299384857662 L -38.9425263555603,295.7053188997169 L -28.267145941609606,268.47142776275086 L -55.07304892510508,256.7627925441566 L -28.26714594160961,245.05415732556227 L -38.94252635556031,217.8202661885963 L -11.708635218594312,228.49564660254697 Z" fill="none" stroke="#FFFFFF" stroke-width="2.673114419995395" /><path d="M 122.38455316690018,201.6897436190515 L 134.09318838549447,228.49564660254697 L 161.32707952246048,217.8202661885963 L 150.65169910850977,245.0541573255623 L 177.45760209200526,256.7627925441566 L 150.65169910850977,268.47142776275086 L 161.32707952246048,295.7053188997169 L 134.09318838549447,285.0299384857662 L 122.38455316690018,311.83584146926165 L 110.67591794830588,285.0299384857662 L 83.44202681133987,295.7053188997169 L 94.11740722529058,268.47142776275086 L 67.31150424179509,256.7627925441566 L 94.11740722529056,245.05415732556227 L 83.44202681133987,217.8202661885963 L 110.67591794830587,228.49564660254697 Z" fill="none" stroke="#FFFFFF" stroke-width="2.673114419995395" /><path d="M 244.76910633380035,201.6897436190515 L 256.47774155239466,228.49564660254697 L 283.71163268936067,217.8202661885963 L 273.03625227541,245.0541573255623 L 299.84215525890545,256.7627925441566 L 273.03625227541,268.47142776275086 L 283.71163268936067,295.7053188997169 L 256.47774155239466,285.0299384857662 L 244.76910633380035,311.83584146926165 L 233.06047111520607,285.0299384857662 L 205.82657997824006,295.7053188997169 L 216.50196039219074,268.47142776275086 L 189.69605740869528,256.7627925441566 L 216.50196039219074,245.05415732556227 L 205.82657997824003,217.8202661885963 L 233.06047111520604,228.49564660254697 Z" fill="none" stroke="#FFFFFF" stroke-width="2.673114419995395" /><path d="M 367.15365950070054,201.6897436190515 L 378.8622947192948,228.49564660254697 L 406.09618585626083,217.8202661885963 L 395.42080544231015,245.0541573255623 L 422.2267084258056,256.7627925441566 L 395.42080544231015,268.47142776275086 L 406.09618585626083,295.7053188997169 L 378.8622947192948,285.0299384857662 L 367.15365950070054,311.83584146926165 L 355.44502428210626,285.0299384857662 L 328.21113314514025,295.7053188997169 L 338.88651355909093,268.47142776275086 L 312.0806105755955,256.7627925441566 L 338.88651355909093,245.05415732556227 L 328.21113314514025,217.8202661885963 L 355.4450242821062,228.49564660254697 Z" fill="none" stroke="#FFFFFF" stroke-width="2.673114419995395" /><path d="M 489.5382126676007,201.6897436190515 L 501.246847886195,228.49564660254697 L 528.480739023161,217.8202661885963 L 517.8053586092103,245.0541573255623 L 544.6112615927058,256.7627925441566 L 517.8053586092103,268.47142776275086 L 528.480739023161,295.7053188997169 L 501.246847886195,285.0299384857662 L 489.5382126676007,311.83584146926165 L 477.8295774490064,285.0299384857662 L 450.5956863120404,295.7053188997169 L 461.2710667259911,268.47142776275086 L 434.46516374249563,256.7627925441566 L 461.2710667259911,245.05415732556227 L 450.5956863120404,217.8202661885963 L 477.82957744900636,228.49564660254697 Z" fill="none" stroke="#FFFFFF" stroke-width="2.673114419995395" /><path d="M 611.9227658345009,201.6897436190515 L 623.6314010530951,228.49564660254697 L 650.8652921900612,217.8202661885963 L 640.1899117761104,245.0541573255623 L 666.995814759606,256.7627925441566 L 640.1899117761104,268.47142776275086 L 650.8652921900612,295.7053188997169 L 623.6314010530951,285.0299384857662 L 611.9227658345009,311.83584146926165 L 600.2141306159066,285.0299384857662 L 572.9802394789406,295.7053188997169 L 583.6556198928913,268.47142776275086 L 556.8497169093957,256.7627925441566 L 583.6556198928913,245.05415732556227 L 572.9802394789406,217.8202661885963 L 600.2141306159066,228.49564660254697 Z" fill="none" stroke="#FFFFFF" stroke-width="2.673114419995395" /><path d="M 734.3073190014011,201.6897436190515 L 746.0159542199954,228.49564660254697 L 773.2498453569614,217.8202661885963 L 762.5744649430108,245.0541573255623 L 789.3803679265062,256.7627925441566 L 762.5744649430108,268.47142776275086 L 773.2498453569614,295.7053188997169 L 746.0159542199954,285.0299384857662 L 734.3073190014011,311.83584146926165 L 722.5986837828068,285.0299384857662 L 695.3647926458408,295.7053188997169 L 706.0401730597915,268.47142776275086 L 679.234270076296,256.7627925441566 L 706.0401730597915,245.05415732556227 L 695.3647926458408,217.8202661885963 L 722.5986837828068,228.49564660254697 Z" fill="none" stroke="#FFFFFF" stroke-width="2.673114419995395" /><path d="M 856.6918721683012,201.6897436190515 L 868.4005073868955,228.49564660254697 L 895.6343985238615,217.8202661885963 L 884.9590181099109,245.0541573255623 L 911.7649210934063,256.7627925441566 L 884.9590181099109,268.47142776275086 L 895.6343985238615,295.7053188997169 L 868.4005073868955,285.0299384857662 L 856.6918721683012,311.83584146926165 L 844.9832369497069,285.0299384857662 L 817.7493458127409,295.7053188997169 L 828.4247262266916,268.47142776275086 L 801.6188232431961,256.7627925441566 L 828.4247262266916,245.05415732556227 L 817.7493458127409,217.8202661885963 L 844.9832369497069,228.49564660254697 Z" fill="none" stroke="#FFFFFF" stroke-width="2.673114419995395" /><path d="M 979.0764253352014,201.6897436190515 L 990.7850605537957,228.49564660254697 L 1018.0189516907617,217.8202661885963 L 1007.343571276811,245.0541573255623 L 1034.1494742603065,256.7627925441566 L 1007.343571276811,268.47142776275086 L 1018.0189516907617,295.7053188997169 L 990.7850605537957,285.0299384857662 L 979.0764253352014,311.83584146926165 L 967.3677901166071,285.0299384857662 L 940.1338989796411,295.7053188997169 L 950.8092793935919,268.47142776275086 L 924.0033764100963,256.7627925441566 L 950.8092793935919,245.05415732556227 L 940.1338989796411,217.8202661885963 L 967.3677901166071,228.49564660254697 Z" fill="none" stroke="#FFFFFF" stroke-width="2.673114419995395" /><path d="M 1101.4609785021016,201.6897436190515 L 1113.169613720696,228.49564660254697 L 1140.403504857662,217.8202661885963 L 1129.7281244437113,245.0541573255623 L 1156.5340274272066,256.7627925441566 L 1129.7281244437113,268.47142776275086 L 1140.403504857662,295.7053188997169 L 1113.169613720696,285.0299384857662 L 1101.4609785021016,311.83584146926165 L 1089.7523432835073,285.0299384857662 L 1062.5184521465412,295.7053188997169 L 1073.193832560492,268.47142776275086 L 1046.3879295769966,256.7627925441566 L 1073.193832560492,245.05415732556227 L 1062.5184521465412,217.8202661885963 L 1089.7523432835073,228.49564660254697 Z" fill="none" stroke="#FFFFFF" stroke-width="2.673114419995395" /><path d="M 1223.8455316690017,201.6897436190515 L 1235.554166887596,228.49564660254697 L 1262.7880580245621,217.8202661885963 L 1252.1126776106114,245.0541573255623 L 1278.9185805941067,256.7627925441566 L 1252.1126776106114,268.47142776275086 L 1262.7880580245621,295.7053188997169 L 1235.554166887596,285.0299384857662 L 1223.8455316690017,311.83584146926165 L 1212.1368964504074,285.0299384857662 L 1184.9030053134413,295.7053188997169 L 1195.578385727392,268.47142776275086 L 1168.7724827438967,256.7627925441566 L 1195.578385727392,245.05415732556227 L 1184.9030053134413,217.8202661885963 L 1212.1368964504074,228.49564660254697 Z" fill="none" stroke="#FFFFFF" stroke-width="2.673114419995395" /><path d="M -61.19227658345009,307.674766661587 L -49.48364136485579,334.48066964508246 L -22.249750227889784,323.8052892311318 L -32.925130641840475,351.0391803680978 L -6.119227658345011,362.74781558669207 L -32.925130641840475,374.45645080528635 L -22.249750227889784,401.69034194225236 L -49.48364136485579,391.0149615283017 L -61.19227658345009,417.82086451179714 L -72.90091180204438,391.0149615283017 L -100.13480293901038,401.69034194225236 L -89.4594225250597,374.4564508052864 L -116.26532550855516,362.74781558669207 L -89.4594225250597,351.0391803680978 L -100.1348029390104,323.8052892311318 L -72.9009118020444,334.48066964508246 Z" fill="none" stroke="#FFFFFF" stroke-width="2.673114419995395" /><path d="M 61.19227658345009,307.674766661587 L 72.90091180204439,334.48066964508246 L 100.1348029390104,323.8052892311318 L 89.4594225250597,351.0391803680978 L 116.26532550855516,362.74781558669207 L 89.4594225250597,374.45645080528635 L 100.1348029390104,401.69034194225236 L 72.90091180204439,391.0149615283017 L 61.19227658345009,417.82086451179714 L 49.4836413648558,391.0149615283017 L 22.24975022788979,401.69034194225236 L 32.92513064184048,374.4564508052864 L 6.119227658345011,362.74781558669207 L 32.92513064184048,351.0391803680978 L 22.249750227889777,323.8052892311318 L 49.48364136485578,334.48066964508246 Z" fill="none" stroke="#FFFFFF" stroke-width="2.673114419995395" /><path d="M 183.57682975035027,307.674766661587 L 195.28546496894455,334.48066964508246 L 222.51935610591056,323.8052892311318 L 211.84397569195988,351.0391803680978 L 238.64987867545534,362.74781558669207 L 211.84397569195988,374.45645080528635 L 222.51935610591056,401.69034194225236 L 195.28546496894455,391.0149615283017 L 183.57682975035027,417.82086451179714 L 171.868194531756,391.0149615283017 L 144.63430339478998,401.69034194225236 L 155.30968380874066,374.4564508052864 L 128.5037808252452,362.74781558669207 L 155.30968380874066,351.0391803680978 L 144.63430339478995,323.8052892311318 L 171.86819453175596,334.48066964508246 Z" fill="none" stroke="#FFFFFF" stroke-width="2.673114419995395" /><path d="M 305.96138291725043,307.674766661587 L 317.6700181358447,334.48066964508246 L 344.9039092728107,323.8052892311318 L 334.22852885886005,351.0391803680978 L 361.0344318423555,362.74781558669207 L 334.22852885886005,374.45645080528635 L 344.9039092728107,401.69034194225236 L 317.6700181358447,391.0149615283017 L 305.96138291725043,417.82086451179714 L 294.25274769865615,391.0149615283017 L 267.01885656169014,401.69034194225236 L 277.6942369756408,374.4564508052864 L 250.88833399214536,362.74781558669207 L 277.6942369756408,351.0391803680978 L 267.01885656169014,323.8052892311318 L 294.2527476986561,334.48066964508246 Z" fill="none" stroke="#FFFFFF" stroke-width="2.673114419995395" /><path d="M 428.3459360841506,307.674766661587 L 440.0545713027449,334.48066964508246 L 467.2884624397109,323.8052892311318 L 456.6130820257602,351.0391803680978 L 483.41898500925566,362.74781558669207 L 456.6130820257602,374.45645080528635 L 467.2884624397109,401.69034194225236 L 440.0545713027449,391.0149615283017 L 428.3459360841506,417.82086451179714 L 416.6373008655563,391.0149615283017 L 389.4034097285903,401.69034194225236 L 400.078790142541,374.4564508052864 L 373.2728871590455,362.74781558669207 L 400.078790142541,351.0391803680978 L 389.4034097285903,323.8052892311318 L 416.63730086555626,334.48066964508246 Z" fill="none" stroke="#FFFFFF" stroke-width="2.673114419995395" /><path d="M 550.7304892510508,307.674766661587 L 562.4391244696451,334.48066964508246 L 589.6730156066111,323.8052892311318 L 578.9976351926605,351.0391803680978 L 605.8035381761559,362.74781558669207 L 578.9976351926605,374.45645080528635 L 589.6730156066111,401.69034194225236 L 562.4391244696451,391.0149615283017 L 550.7304892510508,417.82086451179714 L 539.0218540324565,391.0149615283017 L 511.7879628954905,401.69034194225236 L 522.4633433094413,374.4564508052864 L 495.65744032594574,362.74781558669207 L 522.4633433094413,351.0391803680978 L 511.7879628954905,323.8052892311318 L 539.0218540324565,334.48066964508246 Z" fill="none" stroke="#FFFFFF" stroke-width="2.673114419995395" /><path d="M 673.115042417951,307.674766661587 L 684.8236776365453,334.48066964508246 L 712.0575687735113,323.8052892311318 L 701.3821883595606,351.0391803680978 L 728.1880913430562,362.74781558669207 L 701.3821883595606,374.45645080528635 L 712.0575687735113,401.69034194225236 L 684.8236776365453,391.0149615283017 L 673.115042417951,417.82086451179714 L 661.4064071993567,391.0149615283017 L 634.1725160623907,401.69034194225236 L 644.8478964763415,374.4564508052864 L 618.0419934928459,362.74781558669207 L 644.8478964763415,351.0391803680978 L 634.1725160623907,323.8052892311318 L 661.4064071993567,334.48066964508246 Z" fill="none" stroke="#FFFFFF" stroke-width="2.673114419995395" /><path d="M 795.4995955848511,307.674766661587 L 807.2082308034454,334.48066964508246 L 834.4421219404114,323.8052892311318 L 823.7667415264607,351.0391803680978 L 850.5726445099563,362.74781558669207 L 823.7667415264607,374.45645080528635 L 834.4421219404114,401.69034194225236 L 807.2082308034454,391.0149615283017 L 795.4995955848511,417.82086451179714 L 783.7909603662569,391.0149615283017 L 756.5570692292908,401.69034194225236 L 767.2324496432416,374.4564508052864 L 740.426546659746,362.74781558669207 L 767.2324496432416,351.0391803680978 L 756.5570692292908,323.8052892311318 L 783.7909603662569,334.48066964508246 Z" fill="none" stroke="#FFFFFF" stroke-width="2.673114419995395" /><path d="M 917.8841487517514,307.674766661587 L 929.5927839703456,334.48066964508246 L 956.8266751073116,323.8052892311318 L 946.151294693361,351.0391803680978 L 972.9571976768565,362.74781558669207 L 946.151294693361,374.45645080528635 L 956.8266751073116,401.69034194225236 L 929.5927839703456,391.0149615283017 L 917.8841487517514,417.82086451179714 L 906.1755135331571,391.0149615283017 L 878.9416223961911,401.69034194225236 L 889.6170028101418,374.4564508052864 L 862.8110998266462,362.74781558669207 L 889.6170028101418,351.0391803680978 L 878.9416223961911,323.8052892311318 L 906.1755135331571,334.48066964508246 Z" fill="none" stroke="#FFFFFF" stroke-width="2.673114419995395" /><path d="M 1040.2687019186515,307.674766661587 L 1051.9773371372457,334.48066964508246 L 1079.2112282742119,323.8052892311318 L 1068.5358478602611,351.0391803680978 L 1095.3417508437565,362.74781558669207 L 1068.5358478602611,374.45645080528635 L 1079.2112282742119,401.69034194225236 L 1051.9773371372457,391.0149615283017 L 1040.2687019186515,417.82086451179714 L 1028.5600667000572,391.0149615283017 L 1001.3261755630912,401.69034194225236 L 1012.0015559770419,374.4564508052864 L 985.1956529935463,362.74781558669207 L 1012.0015559770419,351.0391803680978 L 1001.3261755630912,323.8052892311318 L 1028.5600667000572,334.48066964508246 Z" fill="none" stroke="#FFFFFF" stroke-width="2.673114419995395" /><path d="M 1162.6532550855516,307.674766661587 L 1174.3618903041458,334.48066964508246 L 1201.595781441112,323.8052892311318 L 1190.9204010271612,351.0391803680978 L 1217.7263040106566,362.74781558669207 L 1190.9204010271612,374.45645080528635 L 1201.595781441112,401.69034194225236 L 1174.3618903041458,391.0149615283017 L 1162.6532550855516,417.82086451179714 L 1150.9446198669573,391.0149615283017 L 1123.7107287299912,401.69034194225236 L 1134.386109143942,374.4564508052864 L 1107.5802061604466,362.74781558669207 L 1134.386109143942,351.0391803680978 L 1123.7107287299912,323.8052892311318 L 1150.9446198669573,334.48066964508246 Z" fill="none" stroke="#FFFFFF" stroke-width="2.673114419995395" /><path d="M 1285.0378082524517,307.674766661587 L 1296.746443471046,334.48066964508246 L 1323.980334608012,323.8052892311318 L 1313.3049541940613,351.0391803680978 L 1340.1108571775567,362.74781558669207 L 1313.3049541940613,374.45645080528635 L 1323.980334608012,401.69034194225236 L 1296.746443471046,391.0149615283017 L 1285.0378082524517,417.82086451179714 L 1273.3291730338574,391.0149615283017 L 1246.0952818968913,401.69034194225236 L 1256.770662310842,374.4564508052864 L 1229.9647593273467,362.74781558669207 L 1256.770662310842,351.0391803680978 L 1246.0952818968913,323.8052892311318 L 1273.3291730338574,334.48066964508246 Z" fill="none" stroke="#FFFFFF" stroke-width="2.673114419995395" /><path d="M 3.372251654270776e-15,413.65978970412255 L 11.708635218594296,440.465692687618 L 38.942526355560304,429.7903122736673 L 28.267145941609613,457.02420341063333 L 55.07304892510508,468.7328386292276 L 28.267145941609613,480.4414738478219 L 38.942526355560304,507.6753649847879 L 11.708635218594296,496.9999845708372 L 3.372251654270776e-15,523.8058875543327 L -11.708635218594292,496.9999845708372 L -38.9425263555603,507.6753649847879 L -28.267145941609606,480.44147384782195 L -55.07304892510508,468.7328386292276 L -28.26714594160961,457.02420341063333 L -38.94252635556031,429.7903122736673 L -11.708635218594312,440.465692687618 Z" fill="none" stroke="#FFFFFF" stroke-width="2.673114419995395" /><path d="M 122.38455316690018,413.65978970412255 L 134.09318838549447,440.465692687618 L 161.32707952246048,429.7903122736673 L 150.65169910850977,457.02420341063333 L 177.45760209200526,468.7328386292276 L 150.65169910850977,480.4414738478219 L 161.32707952246048,507.6753649847879 L 134.09318838549447,496.9999845708372 L 122.38455316690018,523.8058875543327 L 110.67591794830588,496.9999845708372 L 83.44202681133987,507.6753649847879 L 94.11740722529058,480.44147384782195 L 67.31150424179509,468.7328386292276 L 94.11740722529056,457.02420341063333 L 83.44202681133987,429.7903122736673 L 110.67591794830587,440.465692687618 Z" fill="none" stroke="#FFFFFF" stroke-width="2.673114419995395" /><path d="M 244.76910633380035,413.65978970412255 L 256.47774155239466,440.465692687618 L 283.71163268936067,429.7903122736673 L 273.03625227541,457.02420341063333 L 299.84215525890545,468.7328386292276 L 273.03625227541,480.4414738478219 L 283.71163268936067,507.6753649847879 L 256.47774155239466,496.9999845708372 L 244.76910633380035,523.8058875543327 L 233.06047111520607,496.9999845708372 L 205.82657997824006,507.6753649847879 L 216.50196039219074,480.44147384782195 L 189.69605740869528,468.7328386292276 L 216.50196039219074,457.02420341063333 L 205.82657997824003,429.7903122736673 L 233.06047111520604,440.465692687618 Z" fill="none" stroke="#FFFFFF" stroke-width="2.673114419995395" /><path d="M 367.15365950070054,413.65978970412255 L 378.8622947192948,440.465692687618 L 406.09618585626083,429.7903122736673 L 395.42080544231015,457.02420341063333 L 422.2267084258056,468.7328386292276 L 395.42080544231015,480.4414738478219 L 406.09618585626083,507.6753649847879 L 378.8622947192948,496.9999845708372 L 367.15365950070054,523.8058875543327 L 355.44502428210626,496.9999845708372 L 328.21113314514025,507.6753649847879 L 338.88651355909093,480.44147384782195 L 312.0806105755955,468.7328386292276 L 338.88651355909093,457.02420341063333 L 328.21113314514025,429.7903122736673 L 355.4450242821062,440.465692687618 Z" fill="none" stroke="#FFFFFF" stroke-width="2.673114419995395" /><path d="M 489.5382126676007,413.65978970412255 L 501.246847886195,440.465692687618 L 528.480739023161,429.7903122736673 L 517.8053586092103,457.02420341063333 L 544.6112615927058,468.7328386292276 L 517.8053586092103,480.4414738478219 L 528.480739023161,507.6753649847879 L 501.246847886195,496.9999845708372 L 489.5382126676007,523.8058875543327 L 477.8295774490064,496.9999845708372 L 450.5956863120404,507.6753649847879 L 461.2710667259911,480.44147384782195 L 434.46516374249563,468.7328386292276 L 461.2710667259911,457.02420341063333 L 450.5956863120404,429.7903122736673 L 477.82957744900636,440.465692687618 Z" fill="none" stroke="#FFFFFF" stroke-width="2.673114419995395" /><path d="M 611.9227658345009,413.65978970412255 L 623.6314010530951,440.465692687618 L 650.8652921900612,429.7903122736673 L 640.1899117761104,457.02420341063333 L 666.995814759606,468.7328386292276 L 640.1899117761104,480.4414738478219 L 650.8652921900612,507.6753649847879 L 623.6314010530951,496.9999845708372 L 611.9227658345009,523.8058875543327 L 600.2141306159066,496.9999845708372 L 572.9802394789406,507.6753649847879 L 583.6556198928913,480.44147384782195 L 556.8497169093957,468.7328386292276 L 583.6556198928913,457.02420341063333 L 572.9802394789406,429.7903122736673 L 600.2141306159066,440.465692687618 Z" fill="none" stroke="#FFFFFF" stroke-width="2.673114419995395" /><path d="M 734.3073190014011,413.65978970412255 L 746.0159542199954,440.465692687618 L 773.2498453569614,429.7903122736673 L 762.5744649430108,457.02420341063333 L 789.3803679265062,468.7328386292276 L 762.5744649430108,480.4414738478219 L 773.2498453569614,507.6753649847879 L 746.0159542199954,496.9999845708372 L 734.3073190014011,523.8058875543327 L 722.5986837828068,496.9999845708372 L 695.3647926458408,507.6753649847879 L 706.0401730597915,480.44147384782195 L 679.234270076296,468.7328386292276 L 706.0401730597915,457.02420341063333 L 695.3647926458408,429.7903122736673 L 722.5986837828068,440.465692687618 Z" fill="none" stroke="#FFFFFF" stroke-width="2.673114419995395" /><path d="M 856.6918721683012,413.65978970412255 L 868.4005073868955,440.465692687618 L 895.6343985238615,429.7903122736673 L 884.9590181099109,457.02420341063333 L 911.7649210934063,468.7328386292276 L 884.9590181099109,480.4414738478219 L 895.6343985238615,507.6753649847879 L 868.4005073868955,496.9999845708372 L 856.6918721683012,523.8058875543327 L 844.9832369497069,496.9999845708372 L 817.7493458127409,507.6753649847879 L 828.4247262266916,480.44147384782195 L 801.6188232431961,468.7328386292276 L 828.4247262266916,457.02420341063333 L 817.7493458127409,429.7903122736673 L 844.9832369497069,440.465692687618 Z" fill="none" stroke="#FFFFFF" stroke-width="2.673114419995395" /><path d="M 979.0764253352014,413.65978970412255 L 990.7850605537957,440.465692687618 L 1018.0189516907617,429.7903122736673 L 1007.343571276811,457.02420341063333 L 1034.1494742603065,468.7328386292276 L 1007.343571276811,480.4414738478219 L 1018.0189516907617,507.6753649847879 L 990.7850605537957,496.9999845708372 L 979.0764253352014,523.8058875543327 L 967.3677901166071,496.9999845708372 L 940.1338989796411,507.6753649847879 L 950.8092793935919,480.44147384782195 L 924.0033764100963,468.7328386292276 L 950.8092793935919,457.02420341063333 L 940.1338989796411,429.7903122736673 L 967.3677901166071,440.465692687618 Z" fill="none" stroke="#FFFFFF" stroke-width="2.673114419995395" /><path d="M 1101.4609785021016,413.65978970412255 L 1113.169613720696,440.465692687618 L 1140.403504857662,429.7903122736673 L 1129.7281244437113,457.02420341063333 L 1156.5340274272066,468.7328386292276 L 1129.7281244437113,480.4414738478219 L 1140.403504857662,507.6753649847879 L 1113.169613720696,496.9999845708372 L 1101.4609785021016,523.8058875543327 L 1089.7523432835073,496.9999845708372 L 1062.5184521465412,507.6753649847879 L 1073.193832560492,480.44147384782195 L 1046.3879295769966,468.7328386292276 L 1073.193832560492,457.02420341063333 L 1062.5184521465412,429.7903122736673 L 1089.7523432835073,440.465692687618 Z" fill="none" stroke="#FFFFFF" stroke-width="2.673114419995395" /><path d="M 1223.8455316690017,413.65978970412255 L 1235.554166887596,440.465692687618 L 1262.7880580245621,429.7903122736673 L 1252.1126776106114,457.02420341063333 L 1278.9185805941067,468.7328386292276 L 1252.1126776106114,480.4414738478219 L 1262.7880580245621,507.6753649847879 L 1235.554166887596,496.9999845708372 L 1223.8455316690017,523.8058875543327 L 1212.1368964504074,496.9999845708372 L 1184.9030053134413,507.6753649847879 L 1195.578385727392,480.44147384782195 L 1168.7724827438967,468.7328386292276 L 1195.578385727392,457.02420341063333 L 1184.9030053134413,429.7903122736673 L 1212.1368964504074,440.465692687618 Z" fill="none" stroke="#FFFFFF" stroke-width="2.673114419995395" /><path d="M -61.19227658345009,519.6448127466582 L -49.48364136485579,546.4507157301537 L -22.249750227889784,535.775335316203 L -32.925130641840475,563.009226453169 L -6.119227658345011,574.7178616717633 L -32.925130641840475,586.4264968903576 L -22.249750227889784,613.6603880273236 L -49.48364136485579,602.985007613373 L -61.19227658345009,629.7909105968685 L -72.90091180204438,602.985007613373 L -100.13480293901038,613.6603880273236 L -89.4594225250597,586.4264968903576 L -116.26532550855516,574.7178616717633 L -89.4594225250597,563.009226453169 L -100.1348029390104,535.775335316203 L -72.9009118020444,546.4507157301538 Z" fill="none" stroke="#FFFFFF" stroke-width="2.673114419995395" /><path d="M 61.19227658345009,519.6448127466582 L 72.90091180204439,546.4507157301537 L 100.1348029390104,535.775335316203 L 89.4594225250597,563.009226453169 L 116.26532550855516,574.7178616717633 L 89.4594225250597,586.4264968903576 L 100.1348029390104,613.6603880273236 L 72.90091180204439,602.985007613373 L 61.19227658345009,629.7909105968685 L 49.4836413648558,602.985007613373 L 22.24975022788979,613.6603880273236 L 32.92513064184048,586.4264968903576 L 6.119227658345011,574.7178616717633 L 32.92513064184048,563.009226453169 L 22.249750227889777,535.775335316203 L 49.48364136485578,546.4507157301538 Z" fill="none" stroke="#FFFFFF" stroke-width="2.673114419995395" /><path d="M 183.57682975035027,519.6448127466582 L 195.28546496894455,546.4507157301537 L 222.51935610591056,535.775335316203 L 211.84397569195988,563.009226453169 L 238.64987867545534,574.7178616717633 L 211.84397569195988,586.4264968903576 L 222.51935610591056,613.6603880273236 L 195.28546496894455,602.985007613373 L 183.57682975035027,629.7909105968685 L 171.868194531756,602.985007613373 L 144.63430339478998,613.6603880273236 L 155.30968380874066,586.4264968903576 L 128.5037808252452,574.7178616717633 L 155.30968380874066,563.009226453169 L 144.63430339478995,535.775335316203 L 171.86819453175596,546.4507157301538 Z" fill="none" stroke="#FFFFFF" stroke-width="2.673114419995395" /><path d="M 305.96138291725043,519.6448127466582 L 317.6700181358447,546.4507157301537 L 344.9039092728107,535.775335316203 L 334.22852885886005,563.009226453169 L 361.0344318423555,574.7178616717633 L 334.22852885886005,586.4264968903576 L 344.9039092728107,613.6603880273236 L 317.6700181358447,602.985007613373 L 305.96138291725043,629.7909105968685 L 294.25274769865615,602.985007613373 L 267.01885656169014,613.6603880273236 L 277.6942369756408,586.4264968903576 L 250.88833399214536,574.7178616717633 L 277.6942369756408,563.009226453169 L 267.01885656169014,535.775335316203 L 294.2527476986561,546.4507157301538 Z" fill="none" stroke="#FFFFFF" stroke-width="2.673114419995395" /><path d="M 428.3459360841506,519.6448127466582 L 440.0545713027449,546.4507157301537 L 467.2884624397109,535.775335316203 L 456.6130820257602,563.009226453169 L 483.41898500925566,574.7178616717633 L 456.6130820257602,586.4264968903576 L 467.2884624397109,613.6603880273236 L 440.0545713027449,602.985007613373 L 428.3459360841506,629.7909105968685 L 416.6373008655563,602.985007613373 L 389.4034097285903,613.6603880273236 L 400.078790142541,586.4264968903576 L 373.2728871590455,574.7178616717633 L 400.078790142541,563.009226453169 L 389.4034097285903,535.775335316203 L 416.63730086555626,546.4507157301538 Z" fill="none" stroke="#FFFFFF" stroke-width="2.673114419995395" /><path d="M 550.7304892510508,519.6448127466582 L 562.4391244696451,546.4507157301537 L 589.6730156066111,535.775335316203 L 578.9976351926605,563.009226453169 L 605.8035381761559,574.7178616717633 L 578.9976351926605,586.4264968903576 L 589.6730156066111,613.6603880273236 L 562.4391244696451,602.985007613373 L 550.7304892510508,629.7909105968685 L 539.0218540324565,602.985007613373 L 511.7879628954905,613.6603880273236 L 522.4633433094413,586.4264968903576 L 495.65744032594574,574.7178616717633 L 522.4633433094413,563.009226453169 L 511.7879628954905,535.775335316203 L 539.0218540324565,546.4507157301538 Z" fill="none" stroke="#FFFFFF" stroke-width="2.673114419995395" /><path d="M 673.115042417951,519.6448127466582 L 684.8236776365453,546.4507157301537 L 712.0575687735113,535.775335316203 L 701.3821883595606,563.009226453169 L 728.1880913430562,574.7178616717633 L 701.3821883595606,586.4264968903576 L 712.0575687735113,613.6603880273236 L 684.8236776365453,602.985007613373 L 673.115042417951,629.7909105968685 L 661.4064071993567,602.985007613373 L 634.1725160623907,613.6603880273236 L 644.8478964763415,586.4264968903576 L 618.0419934928459,574.7178616717633 L 644.8478964763415,563.009226453169 L 634.1725160623907,535.775335316203 L 661.4064071993567,546.4507157301538 Z" fill="none" stroke="#FFFFFF" stroke-width="2.673114419995395" /><path d="M 795.4995955848511,519.6448127466582 L 807.2082308034454,546.4507157301537 L 834.4421219404114,535.775335316203 L 823.7667415264607,563.009226453169 L 850.5726445099563,574.7178616717633 L 823.7667415264607,586.4264968903576 L 834.4421219404114,613.6603880273236 L 807.2082308034454,602.985007613373 L 795.4995955848511,629.7909105968685 L 783.7909603662569,602.985007613373 L 756.5570692292908,613.6603880273236 L 767.2324496432416,586.4264968903576 L 740.426546659746,574.7178616717633 L 767.2324496432416,563.009226453169 L 756.5570692292908,535.775335316203 L 783.7909603662569,546.4507157301538 Z" fill="none" stroke="#FFFFFF" stroke-width="2.673114419995395" /><path d="M 917.8841487517514,519.6448127466582 L 929.5927839703456,546.4507157301537 L 956.8266751073116,535.775335316203 L 946.151294693361,563.009226453169 L 972.9571976768565,574.7178616717633 L 946.151294693361,586.4264968903576 L 956.8266751073116,613.6603880273236 L 929.5927839703456,602.985007613373 L 917.8841487517514,629.7909105968685 L 906.1755135331571,602.985007613373 L 878.9416223961911,613.6603880273236 L 889.6170028101418,586.4264968903576 L 862.8110998266462,574.7178616717633 L 889.6170028101418,563.009226453169 L 878.9416223961911,535.775335316203 L 906.1755135331571,546.4507157301538 Z" fill="none" stroke="#FFFFFF" stroke-width="2.673114419995395" /><path d="M 1040.2687019186515,519.6448127466582 L 1051.9773371372457,546.4507157301537 L 1079.2112282742119,535.775335316203 L 1068.5358478602611,563.009226453169 L 1095.3417508437565,574.7178616717633 L 1068.5358478602611,586.4264968903576 L 1079.2112282742119,613.6603880273236 L 1051.9773371372457,602.985007613373 L 1040.2687019186515,629.7909105968685 L 1028.5600667000572,602.985007613373 L 1001.3261755630912,613.6603880273236 L 1012.0015559770419,586.4264968903576 L 985.1956529935463,574.7178616717633 L 1012.0015559770419,563.009226453169 L 1001.3261755630912,535.775335316203 L 1028.5600667000572,546.4507157301538 Z" fill="none" stroke="#FFFFFF" stroke-width="2.673114419995395" /><path d="M 1162.6532550855516,519.6448127466582 L 1174.3618903041458,546.4507157301537 L 1201.595781441112,535.775335316203 L 1190.9204010271612,563.009226453169 L 1217.7263040106566,574.7178616717633 L 1190.9204010271612,586.4264968903576 L 1201.595781441112,613.6603880273236 L 1174.3618903041458,602.985007613373 L 1162.6532550855516,629.7909105968685 L 1150.9446198669573,602.985007613373 L 1123.7107287299912,613.6603880273236 L 1134.386109143942,586.4264968903576 L 1107.5802061604466,574.7178616717633 L 1134.386109143942,563.009226453169 L 1123.7107287299912,535.775335316203 L 1150.9446198669573,546.4507157301538 Z" fill="none" stroke="#FFFFFF" stroke-width="2.673114419995395" /><path d="M 1285.0378082524517,519.6448127466582 L 1296.746443471046,546.4507157301537 L 1323.980334608012,535.775335316203 L 1313.3049541940613,563.009226453169 L 1340.1108571775567,574.7178616717633 L 1313.3049541940613,586.4264968903576 L 1323.980334608012,613.6603880273236 L 1296.746443471046,602.985007613373 L 1285.0378082524517,629.7909105968685 L 1273.3291730338574,602.985007613373 L 1246.0952818968913,613.6603880273236 L 1256.770662310842,586.4264968903576 L 1229.9647593273467,574.7178616717633 L 1256.770662310842,563.009226453169 L 1246.0952818968913,535.775335316203 L 1273.3291730338574,546.4507157301538 Z" fill="none" stroke="#FFFFFF" stroke-width="2.673114419995395" /><path d="M 3.372251654270776e-15,625.6298357891936 L 11.708635218594296,652.4357387726891 L 38.942526355560304,641.7603583587385 L 28.267145941609613,668.9942494957045 L 55.07304892510508,680.7028847142988 L 28.267145941609613,692.411519932893 L 38.942526355560304,719.645411069859 L 11.708635218594296,708.9700306559084 L 3.372251654270776e-15,735.7759336394039 L -11.708635218594292,708.9700306559084 L -38.9425263555603,719.645411069859 L -28.267145941609606,692.411519932893 L -55.07304892510508,680.7028847142988 L -28.26714594160961,668.9942494957045 L -38.94252635556031,641.7603583587385 L -11.708635218594312,652.4357387726892 Z" fill="none" stroke="#FFFFFF" stroke-width="2.673114419995395" /><path d="M 122.38455316690018,625.6298357891936 L 134.09318838549447,652.4357387726891 L 161.32707952246048,641.7603583587385 L 150.65169910850977,668.9942494957045 L 177.45760209200526,680.7028847142988 L 150.65169910850977,692.411519932893 L 161.32707952246048,719.645411069859 L 134.09318838549447,708.9700306559084 L 122.38455316690018,735.7759336394039 L 110.67591794830588,708.9700306559084 L 83.44202681133987,719.645411069859 L 94.11740722529058,692.411519932893 L 67.31150424179509,680.7028847142988 L 94.11740722529056,668.9942494957045 L 83.44202681133987,641.7603583587385 L 110.67591794830587,652.4357387726892 Z" fill="none" stroke="#FFFFFF" stroke-width="2.673114419995395" /><path d="M 244.76910633380035,625.6298357891936 L 256.47774155239466,652.4357387726891 L 283.71163268936067,641.7603583587385 L 273.03625227541,668.9942494957045 L 299.84215525890545,680.7028847142988 L 273.03625227541,692.411519932893 L 283.71163268936067,719.645411069859 L 256.47774155239466,708.9700306559084 L 244.76910633380035,735.7759336394039 L 233.06047111520607,708.9700306559084 L 205.82657997824006,719.645411069859 L 216.50196039219074,692.411519932893 L 189.69605740869528,680.7028847142988 L 216.50196039219074,668.9942494957045 L 205.82657997824003,641.7603583587385 L 233.06047111520604,652.4357387726892 Z" fill="none" stroke="#FFFFFF" stroke-width="2.673114419995395" /><path d="M 367.15365950070054,625.6298357891936 L 378.8622947192948,652.4357387726891 L 406.09618585626083,641.7603583587385 L 395.42080544231015,668.9942494957045 L 422.2267084258056,680.7028847142988 L 395.42080544231015,692.411519932893 L 406.09618585626083,719.645411069859 L 378.8622947192948,708.9700306559084 L 367.15365950070054,735.7759336394039 L 355.44502428210626,708.9700306559084 L 328.21113314514025,719.645411069859 L 338.88651355909093,692.411519932893 L 312.0806105755955,680.7028847142988 L 338.88651355909093,668.9942494957045 L 328.21113314514025,641.7603583587385 L 355.4450242821062,652.4357387726892 Z" fill="none" stroke="#FFFFFF" stroke-width="2.673114419995395" /><path d="M 489.5382126676007,625.6298357891936 L 501.246847886195,652.4357387726891 L 528.480739023161,641.7603583587385 L 517.8053586092103,668.9942494957045 L 544.6112615927058,680.7028847142988 L 517.8053586092103,692.411519932893 L 528.480739023161,719.645411069859 L 501.246847886195,708.9700306559084 L 489.5382126676007,735.7759336394039 L 477.8295774490064,708.9700306559084 L 450.5956863120404,719.645411069859 L 461.2710667259911,692.411519932893 L 434.46516374249563,680.7028847142988 L 461.2710667259911,668.9942494957045 L 450.5956863120404,641.7603583587385 L 477.82957744900636,652.4357387726892 Z" fill="none" stroke="#FFFFFF" stroke-width="2.673114419995395" /><path d="M 611.9227658345009,625.6298357891936 L 623.6314010530951,652.4357387726891 L 650.8652921900612,641.7603583587385 L 640.1899117761104,668.9942494957045 L 666.995814759606,680.7028847142988 L 640.1899117761104,692.411519932893 L 650.8652921900612,719.645411069859 L 623.6314010530951,708.9700306559084 L 611.9227658345009,735.7759336394039 L 600.2141306159066,708.9700306559084 L 572.9802394789406,719.645411069859 L 583.6556198928913,692.411519932893 L 556.8497169093957,680.7028847142988 L 583.6556198928913,668.9942494957045 L 572.9802394789406,641.7603583587385 L 600.2141306159066,652.4357387726892 Z" fill="none" stroke="#FFFFFF" stroke-width="2.673114419995395" /><path d="M 734.3073190014011,625.6298357891936 L 746.0159542199954,652.4357387726891 L 773.2498453569614,641.7603583587385 L 762.5744649430108,668.9942494957045 L 789.3803679265062,680.7028847142988 L 762.5744649430108,692.411519932893 L 773.2498453569614,719.645411069859 L 746.0159542199954,708.9700306559084 L 734.3073190014011,735.7759336394039 L 722.5986837828068,708.9700306559084 L 695.3647926458408,719.645411069859 L 706.0401730597915,692.411519932893 L 679.234270076296,680.7028847142988 L 706.0401730597915,668.9942494957045 L 695.3647926458408,641.7603583587385 L 722.5986837828068,652.4357387726892 Z" fill="none" stroke="#FFFFFF" stroke-width="2.673114419995395" /><path d="M 856.6918721683012,625.6298357891936 L 868.4005073868955,652.4357387726891 L 895.6343985238615,641.7603583587385 L 884.9590181099109,668.9942494957045 L 911.7649210934063,680.7028847142988 L 884.9590181099109,692.411519932893 L 895.6343985238615,719.645411069859 L 868.4005073868955,708.9700306559084 L 856.6918721683012,735.7759336394039 L 844.9832369497069,708.9700306559084 L 817.7493458127409,719.645411069859 L 828.4247262266916,692.411519932893 L 801.6188232431961,680.7028847142988 L 828.4247262266916,668.9942494957045 L 817.7493458127409,641.7603583587385 L 844.9832369497069,652.4357387726892 Z" fill="none" stroke="#FFFFFF" stroke-width="2.673114419995395" /><path d="M 979.0764253352014,625.6298357891936 L 990.7850605537957,652.4357387726891 L 1018.0189516907617,641.7603583587385 L 1007.343571276811,668.9942494957045 L 1034.1494742603065,680.7028847142988 L 1007.343571276811,692.411519932893 L 1018.0189516907617,719.645411069859 L 990.7850605537957,708.9700306559084 L 979.0764253352014,735.7759336394039 L 967.3677901166071,708.9700306559084 L 940.1338989796411,719.645411069859 L 950.8092793935919,692.411519932893 L 924.0033764100963,680.7028847142988 L 950.8092793935919,668.9942494957045 L 940.1338989796411,641.7603583587385 L 967.3677901166071,652.4357387726892 Z" fill="none" stroke="#FFFFFF" stroke-width="2.673114419995395" /><path d="M 1101.4609785021016,625.6298357891936 L 1113.169613720696,652.4357387726891 L 1140.403504857662,641.7603583587385 L 1129.7281244437113,668.9942494957045 L 1156.5340274272066,680.7028847142988 L 1129.7281244437113,692.411519932893 L 1140.403504857662,719.645411069859 L 1113.169613720696,708.9700306559084 L 1101.4609785021016,735.7759336394039 L 1089.7523432835073,708.9700306559084 L 1062.5184521465412,719.645411069859 L 1073.193832560492,692.411519932893 L 1046.3879295769966,680.7028847142988 L 1073.193832560492,668.9942494957045 L 1062.5184521465412,641.7603583587385 L 1089.7523432835073,652.4357387726892 Z" fill="none" stroke="#FFFFFF" stroke-width="2.673114419995395" /><path d="M 1223.8455316690017,625.6298357891936 L 1235.554166887596,652.4357387726891 L 1262.7880580245621,641.7603583587385 L 1252.1126776106114,668.9942494957045 L 1278.9185805941067,680.7028847142988 L 1252.1126776106114,692.411519932893 L 1262.7880580245621,719.645411069859 L 1235.554166887596,708.9700306559084 L 1223.8455316690017,735.7759336394039 L 1212.1368964504074,708.9700306559084 L 1184.9030053134413,719.645411069859 L 1195.578385727392,692.411519932893 L 1168.7724827438967,680.7028847142988 L 1195.578385727392,668.9942494957045 L 1184.9030053134413,641.7603583587385 L 1212.1368964504074,652.4357387726892 Z" fill="none" stroke="#FFFFFF" stroke-width="2.673114419995395" /><line x1="55.07304892510508" y1="44.79274645908546" x2="67.31150424179509" y2="44.79274645908546" stroke="#FFFFFF" stroke-width="0.5"/><line x1="177.45760209200526" y1="44.79274645908546" x2="189.69605740869528" y2="44.79274645908546" stroke="#FFFFFF" stroke-width="0.5"/><line x1="299.84215525890545" y1="44.79274645908546" x2="312.0806105755955" y2="44.79274645908546" stroke="#FFFFFF" stroke-width="0.5"/><line x1="422.2267084258056" y1="44.79274645908546" x2="434.46516374249563" y2="44.79274645908546" stroke="#FFFFFF" stroke-width="0.5"/><line x1="544.6112615927058" y1="44.79274645908546" x2="556.8497169093957" y2="44.79274645908546" stroke="#FFFFFF" stroke-width="0.5"/><line x1="666.995814759606" y1="44.79274645908546" x2="679.234270076296" y2="44.79274645908546" stroke="#FFFFFF" stroke-width="0.5"/><line x1="789.3803679265062" y1="44.79274645908546" x2="801.6188232431961" y2="44.79274645908546" stroke="#FFFFFF" stroke-width="0.5"/><line x1="911.7649210934063" y1="44.79274645908546" x2="924.0033764100963" y2="44.79274645908546" stroke="#FFFFFF" stroke-width="0.5"/><line x1="1034.1494742603065" y1="44.79274645908546" x2="1046.3879295769966" y2="44.79274645908546" stroke="#FFFFFF" stroke-width="0.5"/><line x1="1156.5340274272066" y1="44.79274645908546" x2="1168.7724827438967" y2="44.79274645908546" stroke="#FFFFFF" stroke-width="0.5"/><line x1="116.26532550855516" y1="150.777769501621" x2="128.5037808252452" y2="150.777769501621" stroke="#FFFFFF" stroke-width="0.5"/><line x1="238.64987867545534" y1="150.777769501621" x2="250.88833399214536" y2="150.777769501621" stroke="#FFFFFF" stroke-width="0.5"/><line x1="361.0344318423555" y1="150.777769501621" x2="373.2728871590455" y2="150.777769501621" stroke="#FFFFFF" stroke-width="0.5"/><line x1="483.41898500925566" y1="150.777769501621" x2="495.65744032594574" y2="150.777769501621" stroke="#FFFFFF" stroke-width="0.5"/><line x1="605.8035381761559" y1="150.777769501621" x2="618.0419934928459" y2="150.777769501621" stroke="#FFFFFF" stroke-width="0.5"/><line x1="728.1880913430562" y1="150.777769501621" x2="740.426546659746" y2="150.777769501621" stroke="#FFFFFF" stroke-width="0.5"/><line x1="850.5726445099563" y1="150.777769501621" x2="862.8110998266462" y2="150.777769501621" stroke="#FFFFFF" stroke-width="0.5"/><line x1="972.9571976768565" y1="150.777769501621" x2="985.1956529935463" y2="150.777769501621" stroke="#FFFFFF" stroke-width="0.5"/><line x1="1095.3417508437565" y1="150.777769501621" x2="1107.5802061604466" y2="150.777769501621" stroke="#FFFFFF" stroke-width="0.5"/><line x1="55.07304892510508" y1="256.7627925441566" x2="67.31150424179509" y2="256.7627925441566" stroke="#FFFFFF" stroke-width="0.5"/><line x1="177.45760209200526" y1="256.7627925441566" x2="189.69605740869528" y2="256.7627925441566" stroke="#FFFFFF" stroke-width="0.5"/><line x1="299.84215525890545" y1="256.7627925441566" x2="312.0806105755955" y2="256.7627925441566" stroke="#FFFFFF" stroke-width="0.5"/><line x1="422.2267084258056" y1="256.7627925441566" x2="434.46516374249563" y2="256.7627925441566" stroke="#FFFFFF" stroke-width="0.5"/><line x1="544.6112615927058" y1="256.7627925441566" x2="556.8497169093957" y2="256.7627925441566" stroke="#FFFFFF" stroke-width="0.5"/><line x1="666.995814759606" y1="256.7627925441566" x2="679.234270076296" y2="256.7627925441566" stroke="#FFFFFF" stroke-width="0.5"/><line x1="789.3803679265062" y1="256.7627925441566" x2="801.6188232431961" y2="256.7627925441566" stroke="#FFFFFF" stroke-width="0.5"/><line x1="911.7649210934063" y1="256.7627925441566" x2="924.0033764100963" y2="256.7627925441566" stroke="#FFFFFF" stroke-width="0.5"/><line x1="1034.1494742603065" y1="256.7627925441566" x2="1046.3879295769966" y2="256.7627925441566" stroke="#FFFFFF" stroke-width="0.5"/><line x1="1156.5340274272066" y1="256.7627925441566" x2="1168.7724827438967" y2="256.7627925441566" stroke="#FFFFFF" stroke-width="0.5"/><line x1="116.26532550855516" y1="362.74781558669207" x2="128.5037808252452" y2="362.74781558669207" stroke="#FFFFFF" stroke-width="0.5"/><line x1="238.64987867545534" y1="362.74781558669207" x2="250.88833399214536" y2="362.74781558669207" stroke="#FFFFFF" stroke-width="0.5"/><line x1="361.0344318423555" y1="362.74781558669207" x2="373.2728871590455" y2="362.74781558669207" stroke="#FFFFFF" stroke-width="0.5"/><line x1="483.41898500925566" y1="362.74781558669207" x2="495.65744032594574" y2="362.74781558669207" stroke="#FFFFFF" stroke-width="0.5"/><line x1="605.8035381761559" y1="362.74781558669207" x2="618.0419934928459" y2="362.74781558669207" stroke="#FFFFFF" stroke-width="0.5"/><line x1="728.1880913430562" y1="362.74781558669207" x2="740.426546659746" y2="362.74781558669207" stroke="#FFFFFF" stroke-width="0.5"/><line x1="850.5726445099563" y1="362.74781558669207" x2="862.8110998266462" y2="362.74781558669207" stroke="#FFFFFF" stroke-width="0.5"/><line x1="972.9571976768565" y1="362.74781558669207" x2="985.1956529935463" y2="362.74781558669207" stroke="#FFFFFF" stroke-width="0.5"/><line x1="1095.3417508437565" y1="362.74781558669207" x2="1107.5802061604466" y2="362.74781558669207" stroke="#FFFFFF" stroke-width="0.5"/><line x1="55.07304892510508" y1="468.7328386292276" x2="67.31150424179509" y2="468.7328386292276" stroke="#FFFFFF" stroke-width="0.5"/><line x1="177.45760209200526" y1="468.7328386292276" x2="189.69605740869528" y2="468.7328386292276" stroke="#FFFFFF" stroke-width="0.5"/><line x1="299.84215525890545" y1="468.7328386292276" x2="312.0806105755955" y2="468.7328386292276" stroke="#FFFFFF" stroke-width="0.5"/><line x1="422.2267084258056" y1="468.7328386292276" x2="434.46516374249563" y2="468.7328386292276" stroke="#FFFFFF" stroke-width="0.5"/><line x1="544.6112615927058" y1="468.7328386292276" x2="556.8497169093957" y2="468.7328386292276" stroke="#FFFFFF" stroke-width="0.5"/><line x1="666.995814759606" y1="468.7328386292276" x2="679.234270076296" y2="468.7328386292276" stroke="#FFFFFF" stroke-width="0.5"/><line x1="789.3803679265062" y1="468.7328386292276" x2="801.6188232431961" y2="468.7328386292276" stroke="#FFFFFF" stroke-width="0.5"/><line x1="911.7649210934063" y1="468.7328386292276" x2="924.0033764100963" y2="468.7328386292276" stroke="#FFFFFF" stroke-width="0.5"/><line x1="1034.1494742603065" y1="468.7328386292276" x2="1046.3879295769966" y2="468.7328386292276" stroke="#FFFFFF" stroke-width="0.5"/><line x1="1156.5340274272066" y1="468.7328386292276" x2="1168.7724827438967" y2="468.7328386292276" stroke="#FFFFFF" stroke-width="0.5"/><line x1="116.26532550855516" y1="574.7178616717633" x2="128.5037808252452" y2="574.7178616717633" stroke="#FFFFFF" stroke-width="0.5"/><line x1="238.64987867545534" y1="574.7178616717633" x2="250.88833399214536" y2="574.7178616717633" stroke="#FFFFFF" stroke-width="0.5"/><line x1="361.0344318423555" y1="574.7178616717633" x2="373.2728871590455" y2="574.7178616717633" stroke="#FFFFFF" stroke-width="0.5"/><line x1="483.41898500925566" y1="574.7178616717633" x2="495.65744032594574" y2="574.7178616717633" stroke="#FFFFFF" stroke-width="0.5"/><line x1="605.8035381761559" y1="574.7178616717633" x2="618.0419934928459" y2="574.7178616717633" stroke="#FFFFFF" stroke-width="0.5"/><line x1="728.1880913430562" y1="574.7178616717633" x2="740.426546659746" y2="574.7178616717633" stroke="#FFFFFF" stroke-width="0.5"/><line x1="850.5726445099563" y1="574.7178616717633" x2="862.8110998266462" y2="574.7178616717633" stroke="#FFFFFF" stroke-width="0.5"/><line x1="972.9571976768565" y1="574.7178616717633" x2="985.1956529935463" y2="574.7178616717633" stroke="#FFFFFF" stroke-width="0.5"/><line x1="1095.3417508437565" y1="574.7178616717633" x2="1107.5802061604466" y2="574.7178616717633" stroke="#FFFFFF" stroke-width="0.5"/></g><g opacity="0.09238641264028215"><path d="M 1053.7997250695712 26.028049004277236 L 1104.660635437921 26.028049004277236 L 1104.660635437921 67.8976035618771" fill="none" stroke="#FFFFFF" stroke-width="2.4006055602340988" stroke-linecap="square"/><path d="M 590.665626800929 403.61507911403436 L 627.0572591081708 403.61507911403436 L 627.0572591081708 453.5187753144131" fill="none" stroke="#FFFFFF" stroke-width="2.4006055602340988" stroke-linecap="square"/><path d="M 459.415626739811 452.8338291369536 L 459.415626739811 413.1554785854353 L 414.98979358334674 413.1554785854353 L 414.98979358334674 451.9344017638872" fill="none" stroke="#FFFFFF" stroke-width="2.4006055602340988" stroke-linecap="square"/><path d="M 961.1487869923697 349.35827152308 L 992.7289031846278 349.35827152308 L 992.7289031846278 306.08394170053964" fill="none" stroke="#FFFFFF" stroke-width="2.4006055602340988" stroke-linecap="square"/><rect x="1102.2881286404338" y="23.655542206790084" width="4.745013594974305" height="4.745013594974305" fill="#FFFFFF"/><rect x="412.61728678585956" y="410.7829717879481" width="4.745013594974305" height="4.745013594974305" fill="#FFFFFF"/><circle cx="265.17577183673893" cy="572.3684346360939" r="4.313440410802583" fill="#FFFFFF"/></g><g opacity="0.2"><rect x="40" y="40" width="1120" height="550" fill="none" stroke="#444444" stroke-width="2" rx="8"/></g><g opacity="0.7690808327258941"><line x1="50" y1="50" x2="70" y2="50" stroke="#888888" stroke-width="3"/><line x1="50" y1="50" x2="50" y2="70" stroke="#888888" stroke-width="3"/><line x1="1150" y1="580" x2="1130" y2="580" stroke="#888888" stroke-width="3"/><line x1="1150" y1="580" x2="1150" y2="560" stroke="#888888" stroke-width="3"/></g></svg>