<svg xmlns="http://www.w3.org/2000/svg" width="1200" height="630" viewBox="0 0 1200 630"><rect x="0" y="0" width="1200" height="630" fill="#000000"/><g opacity="0.05"><line x1="0" y1="0" x2="0" y2="630" stroke="#666666" stroke-width="0.5"/><line x1="60" y1="0" x2="60" y2="630" stroke="#666666" stroke-width="0.5"/><line x1="120" y1="0" x2="120" y2="630" stroke="#666666" stroke-width="0.5"/><line x1="180" y1="0" x2="180" y2="630" stroke="#666666" stroke-width="0.5"/><line x1="240" y1="0" x2="240" y2="630" stroke="#666666" stroke-width="0.5"/><line x1="300" y1="0" x2="300" y2="630" stroke="#666666" stroke-width="0.5"/><line x1="360" y1="0" x2="360" y2="630" stroke="#666666" stroke-width="0.5"/><line x1="420" y1="0" x2="420" y2="630" stroke="#666666" stroke-width="0.5"/><line x1="480" y1="0" x2="480" y2="630" stroke="#666666" stroke-width="0.5"/><line x1="540" y1="0" x2="540" y2="630" stroke="#666666" stroke-width="0.5"/><line x1="600" y1="0" x2="600" y2="630" stroke="#666666" stroke-width="0.5"/><line x1="660" y1="0" x2="660" y2="630" stroke="#666666" stroke-width="0.5"/><line x1="720" y1="0" x2="720" y2="630" stroke="#666666" stroke-width="0.5"/><line x1="780" y1="0" x2="780" y2="630" stroke="#666666" stroke-width="0.5"/><line x1="840" y1="0" x2="840" y2="630" stroke="#666666" stroke-width="0.5"/><line x1="900" y1="0" x2="900" y2="630" stroke="#666666" stroke-width="0.5"/><line x1="960" y1="0" x2="960" y2="630" stroke="#666666" stroke-width="0.5"/><line x1="1020" y1="0" x2="1020" y2="630" stroke="#666666" stroke-width="0.5"/><line x1="1080" y1="0" x2="1080" y2="630" stroke="#666666" stroke-width="0.5"/><line x1="1140" y1="0" x2="1140" y2="630" stroke="#666666" stroke-width="0.5"/><line x1="1200" y1="0" x2="1200" y2="630" stroke="#666666" stroke-width="0.5"/><line x1="0" y1="0" x2="1200" y2="0" stroke="#666666" stroke-width="0.5"/><line x1="0" y1="60" x2="1200" y2="60" stroke="#666666" stroke-width="0.5"/><line x1="0" y1="120" x2="1200" y2="120" stroke="#666666" stroke-width="0.5"/><line x1="0" y1="180" x2="1200" y2="180" stroke="#666666" stroke-width="0.5"/><line x1="0" y1="240" x2="1200" y2="240" stroke="#666666" stroke-width="0.5"/><line x1="0" y1="300" x2="1200" y2="300" stroke="#666666" stroke-width="0.5"/><line x1="0" y1="360" x2="1200" y2="360" stroke="#666666" stroke-width="0.5"/><line x1="0" y1="420" x2="1200" y2="420" stroke="#666666" stroke-width="0.5"/><line x1="0" y1="480" x2="1200" y2="480" stroke="#666666" stroke-width="0.5"/><line x1="0" y1="540" x2="1200" y2="540" stroke="#666666" stroke-width="0.5"/><line x1="0" y1="600" x2="1200" y2="600" stroke="#666666" stroke-width="0.5"/><line x1="0" y1="660" x2="1200" y2="660" stroke="#666666" stroke-width="0.5"/></g><g opacity="0.11508403423479015"><path d="M -71.3003913547687,-135.47074357406055 L -57.65765210846017,-104.23687747112646 L -25.925100149378224,-116.67568256015917 L -38.36390523841096,-84.94313060107724 L -7.1300391354768635,-71.3003913547687 L -38.36390523841096,-57.65765210846018 L -25.925100149378224,-25.92510014937823 L -57.65765210846017,-38.36390523841096 L -71.3003913547687,-7.1300391354768635 L -84.94313060107723,-38.36390523841096 L -116.67568256015917,-25.925100149378224 L -104.23687747112645,-57.657652108460155 L -135.47074357406055,-71.30039135476869 L -104.23687747112646,-84.94313060107724 L -116.6756825601592,-116.67568256015917 L -84.94313060107726,-104.23687747112645 Z" fill="none" stroke="#00A86B" stroke-width="2.434333742565631" /><path d="M 71.3003913547687,-135.47074357406055 L 84.94313060107724,-104.23687747112646 L 116.67568256015919,-116.67568256015917 L 104.23687747112646,-84.94313060107724 L 135.47074357406055,-71.3003913547687 L 104.23687747112646,-57.65765210846018 L 116.67568256015919,-25.92510014937823 L 84.94313060107724,-38.36390523841096 L 71.3003913547687,-7.1300391354768635 L 57.65765210846018,-38.36390523841096 L 25.92510014937823,-25.925100149378224 L 38.363905238410965,-57.657652108460155 L 7.1300391354768635,-71.30039135476869 L 38.36390523841096,-84.94313060107724 L 25.925100149378217,-116.67568256015917 L 57.657652108460155,-104.23687747112645 Z" fill="none" stroke="#00A86B" stroke-width="2.434333742565631" /><path d="M 213.90117406430613,-135.47074357406055 L 227.54391331061467,-104.23687747112646 L 259.2764652696966,-116.67568256015917 L 246.83766018066387,-84.94313060107724 L 278.07152628359796,-71.3003913547687 L 246.83766018066387,-57.65765210846018 L 259.2764652696966,-25.92510014937823 L 227.54391331061467,-38.36390523841096 L 213.90117406430613,-7.1300391354768635 L 200.2584348179976,-38.36390523841096 L 168.52588285891565,-25.925100149378224 L 180.9646879479484,-57.657652108460155 L 149.7308218450143,-71.30039135476869 L 180.9646879479484,-84.94313060107724 L 168.52588285891565,-116.67568256015917 L 200.25843481799757,-104.23687747112645 Z" fill="none" stroke="#00A86B" stroke-width="2.434333742565631" /><path d="M 356.5019567738436,-135.47074357406055 L 370.1446960201521,-104.23687747112646 L 401.8772479792341,-116.67568256015917 L 389.4384428902013,-84.94313060107724 L 420.6723089931354,-71.3003913547687 L 389.4384428902013,-57.65765210846018 L 401.8772479792341,-25.92510014937823 L 370.1446960201521,-38.36390523841096 L 356.5019567738436,-7.1300391354768635 L 342.85921752753507,-38.36390523841096 L 311.1266655684531,-25.925100149378224 L 323.56547065748583,-57.657652108460155 L 292.33160455455175,-71.30039135476869 L 323.56547065748583,-84.94313060107724 L 311.12666556845306,-116.67568256015917 L 342.859217527535,-104.23687747112645 Z" fill="none" stroke="#00A86B" stroke-width="2.434333742565631" /><path d="M 499.10273948338096,-135.47074357406055 L 512.7454787296895,-104.23687747112646 L 544.4780306887715,-116.67568256015917 L 532.0392255997388,-84.94313060107724 L 563.2730917026728,-71.3003913547687 L 532.0392255997388,-57.65765210846018 L 544.4780306887715,-25.92510014937823 L 512.7454787296895,-38.36390523841096 L 499.10273948338096,-7.1300391354768635 L 485.46000023707245,-38.36390523841096 L 453.7274482779905,-25.925100149378224 L 466.1662533670232,-57.657652108460155 L 434.93238726408913,-71.30039135476869 L 466.1662533670232,-84.94313060107724 L 453.72744827799045,-116.67568256015917 L 485.4600002370724,-104.23687747112645 Z" fill="none" stroke="#00A86B" stroke-width="2.434333742565631" /><path d="M 641.7035221929183,-135.47074357406055 L 655.3462614392269,-104.23687747112646 L 687.0788133983087,-116.67568256015917 L 674.640008309276,-84.94313060107724 L 705.8738744122102,-71.3003913547687 L 674.640008309276,-57.65765210846018 L 687.0788133983087,-25.92510014937823 L 655.3462614392269,-38.36390523841096 L 641.7035221929183,-7.1300391354768635 L 628.0607829466097,-38.36390523841096 L 596.3282309875278,-25.925100149378224 L 608.7670360765605,-57.657652108460155 L 577.5331699736264,-71.30039135476869 L 608.7670360765605,-84.94313060107724 L 596.3282309875278,-116.67568256015917 L 628.0607829466097,-104.23687747112645 Z" fill="none" stroke="#00A86B" stroke-width="2.434333742565631" /><path d="M 784.3043049024558,-135.47074357406055 L 797.9470441487643,-104.23687747112646 L 829.6795961078462,-116.67568256015917 L 817.2407910188135,-84.94313060107724 L 848.4746571217477,-71.3003913547687 L 817.2407910188135,-57.65765210846018 L 829.6795961078462,-25.92510014937823 L 797.9470441487643,-38.36390523841096 L 784.3043049024558,-7.1300391354768635 L 770.6615656561472,-38.36390523841096 L 738.9290136970653,-25.925100149378224 L 751.367818786098,-57.657652108460155 L 720.1339526831639,-71.30039135476869 L 751.367818786098,-84.94313060107724 L 738.9290136970653,-116.67568256015917 L 770.6615656561472,-104.23687747112645 Z" fill="none" stroke="#00A86B" stroke-width="2.434333742565631" /><path d="M 926.9050876119932,-135.47074357406055 L 940.5478268583017,-104.23687747112646 L 972.2803788173836,-116.67568256015917 L 959.8415737283509,-84.94313060107724 L 991.075439831285,-71.3003913547687 L 959.8415737283509,-57.65765210846018 L 972.2803788173836,-25.92510014937823 L 940.5478268583017,-38.36390523841096 L 926.9050876119932,-7.1300391354768635 L 913.2623483656846,-38.36390523841096 L 881.5297964066027,-25.925100149378224 L 893.9686014956354,-57.657652108460155 L 862.7347353927013,-71.30039135476869 L 893.9686014956354,-84.94313060107724 L 881.5297964066027,-116.67568256015917 L 913.2623483656846,-104.23687747112645 Z" fill="none" stroke="#00A86B" stroke-width="2.434333742565631" /><path d="M 1069.5058703215307,-135.47074357406055 L 1083.1486095678392,-104.23687747112646 L 1114.8811615269212,-116.67568256015917 L 1102.4423564378885,-84.94313060107724 L 1133.6762225408224,-71.3003913547687 L 1102.4423564378885,-57.65765210846018 L 1114.8811615269212,-25.92510014937823 L 1083.1486095678392,-38.36390523841096 L 1069.5058703215307,-7.1300391354768635 L 1055.863131075222,-38.36390523841096 L 1024.13057911614,-25.925100149378224 L 1036.5693842051728,-57.657652108460155 L 1005.3355181022388,-71.30039135476869 L 1036.5693842051728,-84.94313060107724 L 1024.13057911614,-116.67568256015917 L 1055.863131075222,-104.23687747112645 Z" fill="none" stroke="#00A86B" stroke-width="2.434333742565631" /><path d="M 1212.1066530310682,-135.47074357406055 L 1225.7493922773767,-104.23687747112646 L 1257.4819442364587,-116.67568256015917 L 1245.043139147426,-84.94313060107724 L 1276.27700525036,-71.3003913547687 L 1245.043139147426,-57.65765210846018 L 1257.4819442364587,-25.92510014937823 L 1225.7493922773767,-38.36390523841096 L 1212.1066530310682,-7.1300391354768635 L 1198.4639137847596,-38.36390523841096 L 1166.7313618256776,-25.925100149378224 L 1179.1701669147105,-57.657652108460155 L 1147.9363008117764,-71.30039135476869 L 1179.1701669147103,-84.94313060107724 L 1166.7313618256776,-116.67568256015917 L 1198.4639137847596,-104.23687747112645 Z" fill="none" stroke="#00A86B" stroke-width="2.434333742565631" /><path d="M 3.9293008222757004e-15,-11.978465747601149 L 13.642739246308533,19.255400355332945 L 45.37529120539048,6.816595266300219 L 32.93648611635775,38.549147225382164 L 64.17035221929184,52.191886471690694 L 32.93648611635775,65.83462571799923 L 45.37529120539048,97.56717767708116 L 13.642739246308533,85.12837258804845 L 3.9293008222757004e-15,116.36223869098254 L -13.64273924630853,85.12837258804845 L -45.375291205390475,97.56717767708118 L -32.93648611635774,65.83462571799924 L -64.17035221929184,52.1918864716907 L -32.93648611635775,38.54914722538216 L -45.37529120539049,6.816595266300219 L -13.642739246308551,19.255400355332952 Z" fill="none" stroke="#00A86B" stroke-width="2.434333742565631" /><path d="M 142.6007827095374,-11.978465747601149 L 156.24352195584595,19.255400355332945 L 187.9760739149279,6.816595266300219 L 175.53726882589515,38.549147225382164 L 206.77113492882927,52.191886471690694 L 175.53726882589515,65.83462571799923 L 187.9760739149279,97.56717767708116 L 156.24352195584595,85.12837258804845 L 142.6007827095374,116.36223869098254 L 128.95804346322888,85.12837258804845 L 97.22549150414693,97.56717767708118 L 109.66429659317967,65.83462571799924 L 78.43043049024557,52.1918864716907 L 109.66429659317967,38.54914722538216 L 97.22549150414693,6.816595266300219 L 128.95804346322888,19.255400355332952 Z" fill="none" stroke="#00A86B" stroke-width="2.434333742565631" /><path d="M 285.2015654190748,-11.978465747601149 L 298.84430466538333,19.255400355332945 L 330.57685662446534,6.816595266300219 L 318.13805153543257,38.549147225382164 L 349.37191763836665,52.191886471690694 L 318.13805153543257,65.83462571799923 L 330.57685662446534,97.56717767708116 L 298.84430466538333,85.12837258804845 L 285.2015654190748,116.36223869098254 L 271.5588261727663,85.12837258804845 L 239.82627421368434,97.56717767708118 L 252.26507930271708,65.83462571799924 L 221.031213199783,52.1918864716907 L 252.26507930271708,38.54914722538216 L 239.82627421368434,6.816595266300219 L 271.55882617276626,19.255400355332952 Z" fill="none" stroke="#00A86B" stroke-width="2.434333742565631" /><path d="M 427.80234812861227,-11.978465747601149 L 441.4450873749208,19.255400355332945 L 473.1776393340027,6.816595266300219 L 460.73883424497,38.549147225382164 L 491.9727003479041,52.191886471690694 L 460.73883424497,65.83462571799923 L 473.1776393340027,97.56717767708116 L 441.4450873749208,85.12837258804845 L 427.80234812861227,116.36223869098254 L 414.15960888230376,85.12837258804845 L 382.4270569232218,97.56717767708118 L 394.8658620122545,65.83462571799924 L 363.63199590932044,52.1918864716907 L 394.8658620122545,38.54914722538216 L 382.42705692322176,6.816595266300219 L 414.1596088823037,19.255400355332952 Z" fill="none" stroke="#00A86B" stroke-width="2.434333742565631" /><path d="M 570.4031308381497,-11.978465747601149 L 584.0458700844582,19.255400355332945 L 615.7784220435401,6.816595266300219 L 603.3396169545074,38.549147225382164 L 634.5734830574415,52.191886471690694 L 603.3396169545074,65.83462571799923 L 615.7784220435401,97.56717767708116 L 584.0458700844582,85.12837258804845 L 570.4031308381497,116.36223869098254 L 556.7603915918411,85.12837258804845 L 525.0278396327592,97.56717767708118 L 537.4666447217919,65.83462571799924 L 506.2327786188578,52.1918864716907 L 537.4666447217919,38.54914722538216 L 525.0278396327592,6.816595266300219 L 556.7603915918411,19.255400355332952 Z" fill="none" stroke="#00A86B" stroke-width="2.434333742565631" /><path d="M 713.003913547687,-11.978465747601149 L 726.6466527939956,19.255400355332945 L 758.3792047530775,6.816595266300219 L 745.9403996640448,38.549147225382164 L 777.1742657669789,52.191886471690694 L 745.9403996640448,65.83462571799923 L 758.3792047530775,97.56717767708116 L 726.6466527939956,85.12837258804845 L 713.003913547687,116.36223869098254 L 699.3611743013785,85.12837258804845 L 667.6286223422966,97.56717767708118 L 680.0674274313293,65.83462571799924 L 648.8335613283951,52.1918864716907 L 680.0674274313293,38.54914722538216 L 667.6286223422966,6.816595266300219 L 699.3611743013785,19.255400355332952 Z" fill="none" stroke="#00A86B" stroke-width="2.434333742565631" /><path d="M 855.6046962572245,-11.978465747601149 L 869.2474355035331,19.255400355332945 L 900.979987462615,6.816595266300219 L 888.5411823735823,38.549147225382164 L 919.7750484765164,52.191886471690694 L 888.5411823735823,65.83462571799923 L 900.979987462615,97.56717767708116 L 869.2474355035331,85.12837258804845 L 855.6046962572245,116.36223869098254 L 841.961957010916,85.12837258804845 L 810.2294050518341,97.56717767708118 L 822.6682101408668,65.83462571799924 L 791.4343440379326,52.1918864716907 L 822.6682101408668,38.54914722538216 L 810.2294050518341,6.816595266300219 L 841.961957010916,19.255400355332952 Z" fill="none" stroke="#00A86B" stroke-width="2.434333742565631" /><path d="M 998.2054789667619,-11.978465747601149 L 1011.8482182130705,19.255400355332945 L 1043.5807701721524,6.816595266300219 L 1031.1419650831197,38.549147225382164 L 1062.3758311860538,52.191886471690694 L 1031.1419650831197,65.83462571799923 L 1043.5807701721524,97.56717767708116 L 1011.8482182130705,85.12837258804845 L 998.2054789667619,116.36223869098254 L 984.5627397204534,85.12837258804845 L 952.8301877613715,97.56717767708118 L 965.2689928504042,65.83462571799924 L 934.03512674747,52.1918864716907 L 965.2689928504042,38.54914722538216 L 952.8301877613715,6.816595266300219 L 984.5627397204534,19.255400355332952 Z" fill="none" stroke="#00A86B" stroke-width="2.434333742565631" /><path d="M 1140.8062616762993,-11.978465747601149 L 1154.4490009226079,19.255400355332945 L 1186.1815528816899,6.816595266300219 L 1173.7427477926572,38.549147225382164 L 1204.976613895591,52.191886471690694 L 1173.7427477926572,65.83462571799923 L 1186.1815528816899,97.56717767708116 L 1154.4490009226079,85.12837258804845 L 1140.8062616762993,116.36223869098254 L 1127.1635224299907,85.12837258804845 L 1095.4309704709087,97.56717767708118 L 1107.8697755599414,65.83462571799924 L 1076.6359094570075,52.1918864716907 L 1107.8697755599414,38.54914722538216 L 1095.4309704709087,6.816595266300219 L 1127.1635224299907,19.255400355332952 Z" fill="none" stroke="#00A86B" stroke-width="2.434333742565631" /><path d="M 1283.4070443858368,-11.978465747601149 L 1297.0497836321454,19.255400355332945 L 1328.7823355912274,6.816595266300219 L 1316.3435305021947,38.549147225382164 L 1347.5773966051286,52.191886471690694 L 1316.3435305021947,65.83462571799923 L 1328.7823355912274,97.56717767708116 L 1297.0497836321454,85.12837258804845 L 1283.4070443858368,116.36223869098254 L 1269.7643051395282,85.12837258804845 L 1238.0317531804462,97.56717767708118 L 1250.4705582694792,65.83462571799924 L 1219.236692166545,52.1918864716907 L 1250.470558269479,38.54914722538216 L 1238.0317531804462,6.816595266300219 L 1269.7643051395282,19.255400355332952 Z" fill="none" stroke="#00A86B" stroke-width="2.434333742565631" /><path d="M -71.3003913547687,111.51381207885827 L -57.65765210846017,142.74767818179237 L -25.925100149378224,130.30887309275963 L -38.36390523841096,162.04142505184157 L -7.1300391354768635,175.6841642981501 L -38.36390523841096,189.32690354445865 L -25.925100149378224,221.0594555035406 L -57.65765210846017,208.62065041450785 L -71.3003913547687,239.85451651744194 L -84.94313060107723,208.62065041450785 L -116.67568256015917,221.0594555035406 L -104.23687747112645,189.32690354445865 L -135.47074357406055,175.6841642981501 L -104.23687747112646,162.04142505184157 L -116.6756825601592,130.30887309275963 L -84.94313060107726,142.74767818179237 Z" fill="none" stroke="#00A86B" stroke-width="2.434333742565631" /><path d="M 71.3003913547687,111.51381207885827 L 84.94313060107724,142.74767818179237 L 116.67568256015919,130.30887309275963 L 104.23687747112646,162.04142505184157 L 135.47074357406055,175.6841642981501 L 104.23687747112646,189.32690354445865 L 116.67568256015919,221.0594555035406 L 84.94313060107724,208.62065041450785 L 71.3003913547687,239.85451651744194 L 57.65765210846018,208.62065041450785 L 25.92510014937823,221.0594555035406 L 38.363905238410965,189.32690354445865 L 7.1300391354768635,175.6841642981501 L 38.36390523841096,162.04142505184157 L 25.925100149378217,130.30887309275963 L 57.657652108460155,142.74767818179237 Z" fill="none" stroke="#00A86B" stroke-width="2.434333742565631" /><path d="M 213.90117406430613,111.51381207885827 L 227.54391331061467,142.74767818179237 L 259.2764652696966,130.30887309275963 L 246.83766018066387,162.04142505184157 L 278.07152628359796,175.6841642981501 L 246.83766018066387,189.32690354445865 L 259.2764652696966,221.0594555035406 L 227.54391331061467,208.62065041450785 L 213.90117406430613,239.85451651744194 L 200.2584348179976,208.62065041450785 L 168.52588285891565,221.0594555035406 L 180.9646879479484,189.32690354445865 L 149.7308218450143,175.6841642981501 L 180.9646879479484,162.04142505184157 L 168.52588285891565,130.30887309275963 L 200.25843481799757,142.74767818179237 Z" fill="none" stroke="#00A86B" stroke-width="2.434333742565631" /><path d="M 356.5019567738436,111.51381207885827 L 370.1446960201521,142.74767818179237 L 401.8772479792341,130.30887309275963 L 389.4384428902013,162.04142505184157 L 420.6723089931354,175.6841642981501 L 389.4384428902013,189.32690354445865 L 401.8772479792341,221.0594555035406 L 370.1446960201521,208.62065041450785 L 356.5019567738436,239.85451651744194 L 342.85921752753507,208.62065041450785 L 311.1266655684531,221.0594555035406 L 323.56547065748583,189.32690354445865 L 292.33160455455175,175.6841642981501 L 323.56547065748583,162.04142505184157 L 311.12666556845306,130.30887309275963 L 342.859217527535,142.74767818179237 Z" fill="none" stroke="#00A86B" stroke-width="2.434333742565631" /><path d="M 499.10273948338096,111.51381207885827 L 512.7454787296895,142.74767818179237 L 544.4780306887715,130.30887309275963 L 532.0392255997388,162.04142505184157 L 563.2730917026728,175.6841642981501 L 532.0392255997388,189.32690354445865 L 544.4780306887715,221.0594555035406 L 512.7454787296895,208.62065041450785 L 499.10273948338096,239.85451651744194 L 485.46000023707245,208.62065041450785 L 453.7274482779905,221.0594555035406 L 466.1662533670232,189.32690354445865 L 434.93238726408913,175.6841642981501 L 466.1662533670232,162.04142505184157 L 453.72744827799045,130.30887309275963 L 485.4600002370724,142.74767818179237 Z" fill="none" stroke="#00A86B" stroke-width="2.434333742565631" /><path d="M 641.7035221929183,111.51381207885827 L 655.3462614392269,142.74767818179237 L 687.0788133983087,130.30887309275963 L 674.640008309276,162.04142505184157 L 705.8738744122102,175.6841642981501 L 674.640008309276,189.32690354445865 L 687.0788133983087,221.0594555035406 L 655.3462614392269,208.62065041450785 L 641.7035221929183,239.85451651744194 L 628.0607829466097,208.62065041450785 L 596.3282309875278,221.0594555035406 L 608.7670360765605,189.32690354445865 L 577.5331699736264,175.6841642981501 L 608.7670360765605,162.04142505184157 L 596.3282309875278,130.30887309275963 L 628.0607829466097,142.74767818179237 Z" fill="none" stroke="#00A86B" stroke-width="2.434333742565631" /><path d="M 784.3043049024558,111.51381207885827 L 797.9470441487643,142.74767818179237 L 829.6795961078462,130.30887309275963 L 817.2407910188135,162.04142505184157 L 848.4746571217477,175.6841642981501 L 817.2407910188135,189.32690354445865 L 829.6795961078462,221.0594555035406 L 797.9470441487643,208.62065041450785 L 784.3043049024558,239.85451651744194 L 770.6615656561472,208.62065041450785 L 738.9290136970653,221.0594555035406 L 751.367818786098,189.32690354445865 L 720.1339526831639,175.6841642981501 L 751.367818786098,162.04142505184157 L 738.9290136970653,130.30887309275963 L 770.6615656561472,142.74767818179237 Z" fill="none" stroke="#00A86B" stroke-width="2.434333742565631" /><path d="M 926.9050876119932,111.51381207885827 L 940.5478268583017,142.74767818179237 L 972.2803788173836,130.30887309275963 L 959.8415737283509,162.04142505184157 L 991.075439831285,175.6841642981501 L 959.8415737283509,189.32690354445865 L 972.2803788173836,221.0594555035406 L 940.5478268583017,208.62065041450785 L 926.9050876119932,239.85451651744194 L 913.2623483656846,208.62065041450785 L 881.5297964066027,221.0594555035406 L 893.9686014956354,189.32690354445865 L 862.7347353927013,175.6841642981501 L 893.9686014956354,162.04142505184157 L 881.5297964066027,130.30887309275963 L 913.2623483656846,142.74767818179237 Z" fill="none" stroke="#00A86B" stroke-width="2.434333742565631" /><path d="M 1069.5058703215307,111.51381207885827 L 1083.1486095678392,142.74767818179237 L 1114.8811615269212,130.30887309275963 L 1102.4423564378885,162.04142505184157 L 1133.6762225408224,175.6841642981501 L 1102.4423564378885,189.32690354445865 L 1114.8811615269212,221.0594555035406 L 1083.1486095678392,208.62065041450785 L 1069.5058703215307,239.85451651744194 L 1055.863131075222,208.62065041450785 L 1024.13057911614,221.0594555035406 L 1036.5693842051728,189.32690354445865 L 1005.3355181022388,175.6841642981501 L 1036.5693842051728,162.04142505184157 L 1024.13057911614,130.30887309275963 L 1055.863131075222,142.74767818179237 Z" fill="none" stroke="#00A86B" stroke-width="2.434333742565631" /><path d="M 1212.1066530310682,111.51381207885827 L 1225.7493922773767,142.74767818179237 L 1257.4819442364587,130.30887309275963 L 1245.043139147426,162.04142505184157 L 1276.27700525036,175.6841642981501 L 1245.043139147426,189.32690354445865 L 1257.4819442364587,221.0594555035406 L 1225.7493922773767,208.62065041450785 L 1212.1066530310682,239.85451651744194 L 1198.4639137847596,208.62065041450785 L 1166.7313618256776,221.0594555035406 L 1179.1701669147105,189.32690354445865 L 1147.9363008117764,175.6841642981501 L 1179.1701669147103,162.04142505184157 L 1166.7313618256776,130.30887309275963 L 1198.4639137847596,142.74767818179237 Z" fill="none" stroke="#00A86B" stroke-width="2.434333742565631" /><path d="M 3.9293008222757004e-15,235.0060899053177 L 13.642739246308533,266.2399560082518 L 45.37529120539048,253.80115091921905 L 32.93648611635775,285.533702878301 L 64.17035221929184,299.17644212460954 L 32.93648611635775,312.81918137091805 L 45.37529120539048,344.55173333 L 13.642739246308533,332.1129282409673 L 3.9293008222757004e-15,363.34679434390137 L -13.64273924630853,332.1129282409673 L -45.375291205390475,344.55173333000005 L -32.93648611635774,312.8191813709181 L -64.17035221929184,299.17644212460954 L -32.93648611635775,285.53370287830097 L -45.37529120539049,253.80115091921905 L -13.642739246308551,266.2399560082518 Z" fill="none" stroke="#00A86B" stroke-width="2.434333742565631" /><path d="M 142.6007827095374,235.0060899053177 L 156.24352195584595,266.2399560082518 L 187.9760739149279,253.80115091921905 L 175.53726882589515,285.533702878301 L 206.77113492882927,299.17644212460954 L 175.53726882589515,312.81918137091805 L 187.9760739149279,344.55173333 L 156.24352195584595,332.1129282409673 L 142.6007827095374,363.34679434390137 L 128.95804346322888,332.1129282409673 L 97.22549150414693,344.55173333000005 L 109.66429659317967,312.8191813709181 L 78.43043049024557,299.17644212460954 L 109.66429659317967,285.53370287830097 L 97.22549150414693,253.80115091921905 L 128.95804346322888,266.2399560082518 Z" fill="none" stroke="#00A86B" stroke-width="2.434333742565631" /><path d="M 285.2015654190748,235.0060899053177 L 298.84430466538333,266.2399560082518 L 330.57685662446534,253.80115091921905 L 318.13805153543257,285.533702878301 L 349.37191763836665,299.17644212460954 L 318.13805153543257,312.81918137091805 L 330.57685662446534,344.55173333 L 298.84430466538333,332.1129282409673 L 285.2015654190748,363.34679434390137 L 271.5588261727663,332.1129282409673 L 239.82627421368434,344.55173333000005 L 252.26507930271708,312.8191813709181 L 221.031213199783,299.17644212460954 L 252.26507930271708,285.53370287830097 L 239.82627421368434,253.80115091921905 L 271.55882617276626,266.2399560082518 Z" fill="none" stroke="#00A86B" stroke-width="2.434333742565631" /><path d="M 427.80234812861227,235.0060899053177 L 441.4450873749208,266.2399560082518 L 473.1776393340027,253.80115091921905 L 460.73883424497,285.533702878301 L 491.9727003479041,299.17644212460954 L 460.73883424497,312.81918137091805 L 473.1776393340027,344.55173333 L 441.4450873749208,332.1129282409673 L 427.80234812861227,363.34679434390137 L 414.15960888230376,332.1129282409673 L 382.4270569232218,344.55173333000005 L 394.8658620122545,312.8191813709181 L 363.63199590932044,299.17644212460954 L 394.8658620122545,285.53370287830097 L 382.42705692322176,253.80115091921905 L 414.1596088823037,266.2399560082518 Z" fill="none" stroke="#00A86B" stroke-width="2.434333742565631" /><path d="M 570.4031308381497,235.0060899053177 L 584.0458700844582,266.2399560082518 L 615.7784220435401,253.80115091921905 L 603.3396169545074,285.533702878301 L 634.5734830574415,299.17644212460954 L 603.3396169545074,312.81918137091805 L 615.7784220435401,344.55173333 L 584.0458700844582,332.1129282409673 L 570.4031308381497,363.34679434390137 L 556.7603915918411,332.1129282409673 L 525.0278396327592,344.55173333000005 L 537.4666447217919,312.8191813709181 L 506.2327786188578,299.17644212460954 L 537.4666447217919,285.53370287830097 L 525.0278396327592,253.80115091921905 L 556.7603915918411,266.2399560082518 Z" fill="none" stroke="#00A86B" stroke-width="2.434333742565631" /><path d="M 713.003913547687,235.0060899053177 L 726.6466527939956,266.2399560082518 L 758.3792047530775,253.80115091921905 L 745.9403996640448,285.533702878301 L 777.1742657669789,299.17644212460954 L 745.9403996640448,312.81918137091805 L 758.3792047530775,344.55173333 L 726.6466527939956,332.1129282409673 L 713.003913547687,363.34679434390137 L 699.3611743013785,332.1129282409673 L 667.6286223422966,344.55173333000005 L 680.0674274313293,312.8191813709181 L 648.8335613283951,299.17644212460954 L 680.0674274313293,285.53370287830097 L 667.6286223422966,253.80115091921905 L 699.3611743013785,266.2399560082518 Z" fill="none" stroke="#00A86B" stroke-width="2.434333742565631" /><path d="M 855.6046962572245,235.0060899053177 L 869.2474355035331,266.2399560082518 L 900.979987462615,253.80115091921905 L 888.5411823735823,285.533702878301 L 919.7750484765164,299.17644212460954 L 888.5411823735823,312.81918137091805 L 900.979987462615,344.55173333 L 869.2474355035331,332.1129282409673 L 855.6046962572245,363.34679434390137 L 841.961957010916,332.1129282409673 L 810.2294050518341,344.55173333000005 L 822.6682101408668,312.8191813709181 L 791.4343440379326,299.17644212460954 L 822.6682101408668,285.53370287830097 L 810.2294050518341,253.80115091921905 L 841.961957010916,266.2399560082518 Z" fill="none" stroke="#00A86B" stroke-width="2.434333742565631" /><path d="M 998.2054789667619,235.0060899053177 L 1011.8482182130705,266.2399560082518 L 1043.5807701721524,253.80115091921905 L 1031.1419650831197,285.533702878301 L 1062.3758311860538,299.17644212460954 L 1031.1419650831197,312.81918137091805 L 1043.5807701721524,344.55173333 L 1011.8482182130705,332.1129282409673 L 998.2054789667619,363.34679434390137 L 984.5627397204534,332.1129282409673 L 952.8301877613715,344.55173333000005 L 965.2689928504042,312.8191813709181 L 934.03512674747,299.17644212460954 L 965.2689928504042,285.53370287830097 L 952.8301877613715,253.80115091921905 L 984.5627397204534,266.2399560082518 Z" fill="none" stroke="#00A86B" stroke-width="2.434333742565631" /><path d="M 1140.8062616762993,235.0060899053177 L 1154.4490009226079,266.2399560082518 L 1186.1815528816899,253.80115091921905 L 1173.7427477926572,285.533702878301 L 1204.976613895591,299.17644212460954 L 1173.7427477926572,312.81918137091805 L 1186.1815528816899,344.55173333 L 1154.4490009226079,332.1129282409673 L 1140.8062616762993,363.34679434390137 L 1127.1635224299907,332.1129282409673 L 1095.4309704709087,344.55173333000005 L 1107.8697755599414,312.8191813709181 L 1076.6359094570075,299.17644212460954 L 1107.8697755599414,285.53370287830097 L 1095.4309704709087,253.80115091921905 L 1127.1635224299907,266.2399560082518 Z" fill="none" stroke="#00A86B" stroke-width="2.434333742565631" /><path d="M 1283.4070443858368,235.0060899053177 L 1297.0497836321454,266.2399560082518 L 1328.7823355912274,253.80115091921905 L 1316.3435305021947,285.533702878301 L 1347.5773966051286,299.17644212460954 L 1316.3435305021947,312.81918137091805 L 1328.7823355912274,344.55173333 L 1297.0497836321454,332.1129282409673 L 1283.4070443858368,363.34679434390137 L 1269.7643051395282,332.1129282409673 L 1238.0317531804462,344.55173333000005 L 1250.4705582694792,312.8191813709181 L 1219.236692166545,299.17644212460954 L 1250.470558269479,285.53370287830097 L 1238.0317531804462,253.80115091921905 L 1269.7643051395282,266.2399560082518 Z" fill="none" stroke="#00A86B" stroke-width="2.434333742565631" /><path d="M -71.3003913547687,358.4983677317771 L -57.65765210846017,389.73223383471117 L -25.925100149378224,377.29342874567845 L -38.36390523841096,409.0259807047604 L -7.1300391354768635,422.6687199510689 L -38.36390523841096,436.3114591973774 L -25.925100149378224,468.04401115645936 L -57.65765210846017,455.60520606742665 L -71.3003913547687,486.83907217036074 L -84.94313060107723,455.60520606742665 L -116.67568256015917,468.0440111564594 L -104.23687747112645,436.3114591973775 L -135.47074357406055,422.6687199510689 L -104.23687747112646,409.02598070476034 L -116.6756825601592,377.29342874567845 L -84.94313060107726,389.73223383471117 Z" fill="none" stroke="#00A86B" stroke-width="2.434333742565631" /><path d="M 71.3003913547687,358.4983677317771 L 84.94313060107724,389.73223383471117 L 116.67568256015919,377.29342874567845 L 104.23687747112646,409.0259807047604 L 135.47074357406055,422.6687199510689 L 104.23687747112646,436.3114591973774 L 116.67568256015919,468.04401115645936 L 84.94313060107724,455.60520606742665 L 71.3003913547687,486.83907217036074 L 57.65765210846018,455.60520606742665 L 25.92510014937823,468.0440111564594 L 38.363905238410965,436.3114591973775 L 7.1300391354768635,422.6687199510689 L 38.36390523841096,409.02598070476034 L 25.925100149378217,377.29342874567845 L 57.657652108460155,389.73223383471117 Z" fill="none" stroke="#00A86B" stroke-width="2.434333742565631" /><path d="M 213.90117406430613,358.4983677317771 L 227.54391331061467,389.73223383471117 L 259.2764652696966,377.29342874567845 L 246.83766018066387,409.0259807047604 L 278.07152628359796,422.6687199510689 L 246.83766018066387,436.3114591973774 L 259.2764652696966,468.04401115645936 L 227.54391331061467,455.60520606742665 L 213.90117406430613,486.83907217036074 L 200.2584348179976,455.60520606742665 L 168.52588285891565,468.0440111564594 L 180.9646879479484,436.3114591973775 L 149.7308218450143,422.6687199510689 L 180.9646879479484,409.02598070476034 L 168.52588285891565,377.29342874567845 L 200.25843481799757,389.73223383471117 Z" fill="none" stroke="#00A86B" stroke-width="2.434333742565631" /><path d="M 356.5019567738436,358.4983677317771 L 370.1446960201521,389.73223383471117 L 401.8772479792341,377.29342874567845 L 389.4384428902013,409.0259807047604 L 420.6723089931354,422.6687199510689 L 389.4384428902013,436.3114591973774 L 401.8772479792341,468.04401115645936 L 370.1446960201521,455.60520606742665 L 356.5019567738436,486.83907217036074 L 342.85921752753507,455.60520606742665 L 311.1266655684531,468.0440111564594 L 323.56547065748583,436.3114591973775 L 292.33160455455175,422.6687199510689 L 323.56547065748583,409.02598070476034 L 311.12666556845306,377.29342874567845 L 342.859217527535,389.73223383471117 Z" fill="none" stroke="#00A86B" stroke-width="2.434333742565631" /><path d="M 499.10273948338096,358.4983677317771 L 512.7454787296895,389.73223383471117 L 544.4780306887715,377.29342874567845 L 532.0392255997388,409.0259807047604 L 563.2730917026728,422.6687199510689 L 532.0392255997388,436.3114591973774 L 544.4780306887715,468.04401115645936 L 512.7454787296895,455.60520606742665 L 499.10273948338096,486.83907217036074 L 485.46000023707245,455.60520606742665 L 453.7274482779905,468.0440111564594 L 466.1662533670232,436.3114591973775 L 434.93238726408913,422.6687199510689 L 466.1662533670232,409.02598070476034 L 453.72744827799045,377.29342874567845 L 485.4600002370724,389.73223383471117 Z" fill="none" stroke="#00A86B" stroke-width="2.434333742565631" /><path d="M 641.7035221929183,358.4983677317771 L 655.3462614392269,389.73223383471117 L 687.0788133983087,377.29342874567845 L 674.640008309276,409.0259807047604 L 705.8738744122102,422.6687199510689 L 674.640008309276,436.3114591973774 L 687.0788133983087,468.04401115645936 L 655.3462614392269,455.60520606742665 L 641.7035221929183,486.83907217036074 L 628.0607829466097,455.60520606742665 L 596.3282309875278,468.0440111564594 L 608.7670360765605,436.3114591973775 L 577.5331699736264,422.6687199510689 L 608.7670360765605,409.02598070476034 L 596.3282309875278,377.29342874567845 L 628.0607829466097,389.73223383471117 Z" fill="none" stroke="#00A86B" stroke-width="2.434333742565631" /><path d="M 784.3043049024558,358.4983677317771 L 797.9470441487643,389.73223383471117 L 829.6795961078462,377.29342874567845 L 817.2407910188135,409.0259807047604 L 848.4746571217477,422.6687199510689 L 817.2407910188135,436.3114591973774 L 829.6795961078462,468.04401115645936 L 797.9470441487643,455.60520606742665 L 784.3043049024558,486.83907217036074 L 770.6615656561472,455.60520606742665 L 738.9290136970653,468.0440111564594 L 751.367818786098,436.3114591973775 L 720.1339526831639,422.6687199510689 L 751.367818786098,409.02598070476034 L 738.9290136970653,377.29342874567845 L 770.6615656561472,389.73223383471117 Z" fill="none" stroke="#00A86B" stroke-width="2.434333742565631" /><path d="M 926.9050876119932,358.4983677317771 L 940.5478268583017,389.73223383471117 L 972.2803788173836,377.29342874567845 L 959.8415737283509,409.0259807047604 L 991.075439831285,422.6687199510689 L 959.8415737283509,436.3114591973774 L 972.2803788173836,468.04401115645936 L 940.5478268583017,455.60520606742665 L 926.9050876119932,486.83907217036074 L 913.2623483656846,455.60520606742665 L 881.5297964066027,468.0440111564594 L 893.9686014956354,436.3114591973775 L 862.7347353927013,422.6687199510689 L 893.9686014956354,409.02598070476034 L 881.5297964066027,377.29342874567845 L 913.2623483656846,389.73223383471117 Z" fill="none" stroke="#00A86B" stroke-width="2.434333742565631" /><path d="M 1069.5058703215307,358.4983677317771 L 1083.1486095678392,389.73223383471117 L 1114.8811615269212,377.29342874567845 L 1102.4423564378885,409.0259807047604 L 1133.6762225408224,422.6687199510689 L 1102.4423564378885,436.3114591973774 L 1114.8811615269212,468.04401115645936 L 1083.1486095678392,455.60520606742665 L 1069.5058703215307,486.83907217036074 L 1055.863131075222,455.60520606742665 L 1024.13057911614,468.0440111564594 L 1036.5693842051728,436.3114591973775 L 1005.3355181022388,422.6687199510689 L 1036.5693842051728,409.02598070476034 L 1024.13057911614,377.29342874567845 L 1055.863131075222,389.73223383471117 Z" fill="none" stroke="#00A86B" stroke-width="2.434333742565631" /><path d="M 1212.1066530310682,358.4983677317771 L 1225.7493922773767,389.73223383471117 L 1257.4819442364587,377.29342874567845 L 1245.043139147426,409.0259807047604 L 1276.27700525036,422.6687199510689 L 1245.043139147426,436.3114591973774 L 1257.4819442364587,468.04401115645936 L 1225.7493922773767,455.60520606742665 L 1212.1066530310682,486.83907217036074 L 1198.4639137847596,455.60520606742665 L 1166.7313618256776,468.0440111564594 L 1179.1701669147105,436.3114591973775 L 1147.9363008117764,422.6687199510689 L 1179.1701669147103,409.02598070476034 L 1166.7313618256776,377.29342874567845 L 1198.4639137847596,389.73223383471117 Z" fill="none" stroke="#00A86B" stroke-width="2.434333742565631" /><path d="M 3.9293008222757004e-15,481.9906455582364 L 13.642739246308533,513.2245116611705 L 45.37529120539048,500.78570657213777 L 32.93648611635775,532.5182585312197 L 64.17035221929184,546.1609977775282 L 32.93648611635775,559.8037370238368 L 45.37529120539048,591.5362889829187 L 13.642739246308533,579.097483893886 L 3.9293008222757004e-15,610.3313499968201 L -13.64273924630853,579.097483893886 L -45.375291205390475,591.5362889829187 L -32.93648611635774,559.8037370238368 L -64.17035221929184,546.1609977775282 L -32.93648611635775,532.5182585312197 L -45.37529120539049,500.78570657213777 L -13.642739246308551,513.2245116611705 Z" fill="none" stroke="#00A86B" stroke-width="2.434333742565631" /><path d="M 142.6007827095374,481.9906455582364 L 156.24352195584595,513.2245116611705 L 187.9760739149279,500.78570657213777 L 175.53726882589515,532.5182585312197 L 206.77113492882927,546.1609977775282 L 175.53726882589515,559.8037370238368 L 187.9760739149279,591.5362889829187 L 156.24352195584595,579.097483893886 L 142.6007827095374,610.3313499968201 L 128.95804346322888,579.097483893886 L 97.22549150414693,591.5362889829187 L 109.66429659317967,559.8037370238368 L 78.43043049024557,546.1609977775282 L 109.66429659317967,532.5182585312197 L 97.22549150414693,500.78570657213777 L 128.95804346322888,513.2245116611705 Z" fill="none" stroke="#00A86B" stroke-width="2.434333742565631" /><path d="M 285.2015654190748,481.9906455582364 L 298.84430466538333,513.2245116611705 L 330.57685662446534,500.78570657213777 L 318.13805153543257,532.5182585312197 L 349.37191763836665,546.1609977775282 L 318.13805153543257,559.8037370238368 L 330.57685662446534,591.5362889829187 L 298.84430466538333,579.097483893886 L 285.2015654190748,610.3313499968201 L 271.5588261727663,579.097483893886 L 239.82627421368434,591.5362889829187 L 252.26507930271708,559.8037370238368 L 221.031213199783,546.1609977775282 L 252.26507930271708,532.5182585312197 L 239.82627421368434,500.78570657213777 L 271.55882617276626,513.2245116611705 Z" fill="none" stroke="#00A86B" stroke-width="2.434333742565631" /><path d="M 427.80234812861227,481.9906455582364 L 441.4450873749208,513.2245116611705 L 473.1776393340027,500.78570657213777 L 460.73883424497,532.5182585312197 L 491.9727003479041,546.1609977775282 L 460.73883424497,559.8037370238368 L 473.1776393340027,591.5362889829187 L 441.4450873749208,579.097483893886 L 427.80234812861227,610.3313499968201 L 414.15960888230376,579.097483893886 L 382.4270569232218,591.5362889829187 L 394.8658620122545,559.8037370238368 L 363.63199590932044,546.1609977775282 L 394.8658620122545,532.5182585312197 L 382.42705692322176,500.78570657213777 L 414.1596088823037,513.2245116611705 Z" fill="none" stroke="#00A86B" stroke-width="2.434333742565631" /><path d="M 570.4031308381497,481.9906455582364 L 584.0458700844582,513.2245116611705 L 615.7784220435401,500.78570657213777 L 603.3396169545074,532.5182585312197 L 634.5734830574415,546.1609977775282 L 603.3396169545074,559.8037370238368 L 615.7784220435401,591.5362889829187 L 584.0458700844582,579.097483893886 L 570.4031308381497,610.3313499968201 L 556.7603915918411,579.097483893886 L 525.0278396327592,591.5362889829187 L 537.4666447217919,559.8037370238368 L 506.2327786188578,546.1609977775282 L 537.4666447217919,532.5182585312197 L 525.0278396327592,500.78570657213777 L 556.7603915918411,513.2245116611705 Z" fill="none" stroke="#00A86B" stroke-width="2.434333742565631" /><path d="M 713.003913547687,481.9906455582364 L 726.6466527939956,513.2245116611705 L 758.3792047530775,500.78570657213777 L 745.9403996640448,532.5182585312197 L 777.1742657669789,546.1609977775282 L 745.9403996640448,559.8037370238368 L 758.3792047530775,591.5362889829187 L 726.6466527939956,579.097483893886 L 713.003913547687,610.3313499968201 L 699.3611743013785,579.097483893886 L 667.6286223422966,591.5362889829187 L 680.0674274313293,559.8037370238368 L 648.8335613283951,546.1609977775282 L 680.0674274313293,532.5182585312197 L 667.6286223422966,500.78570657213777 L 699.3611743013785,513.2245116611705 Z" fill="none" stroke="#00A86B" stroke-width="2.434333742565631" /><path d="M 855.6046962572245,481.9906455582364 L 869.2474355035331,513.2245116611705 L 900.979987462615,500.78570657213777 L 888.5411823735823,532.5182585312197 L 919.7750484765164,546.1609977775282 L 888.5411823735823,559.8037370238368 L 900.979987462615,591.5362889829187 L 869.2474355035331,579.097483893886 L 855.6046962572245,610.3313499968201 L 841.961957010916,579.097483893886 L 810.2294050518341,591.5362889829187 L 822.6682101408668,559.8037370238368 L 791.4343440379326,546.1609977775282 L 822.6682101408668,532.5182585312197 L 810.2294050518341,500.78570657213777 L 841.961957010916,513.2245116611705 Z" fill="none" stroke="#00A86B" stroke-width="2.434333742565631" /><path d="M 998.2054789667619,481.9906455582364 L 1011.8482182130705,513.2245116611705 L 1043.5807701721524,500.78570657213777 L 1031.1419650831197,532.5182585312197 L 1062.3758311860538,546.1609977775282 L 1031.1419650831197,559.8037370238368 L 1043.5807701721524,591.5362889829187 L 1011.8482182130705,579.097483893886 L 998.2054789667619,610.3313499968201 L 984.5627397204534,579.097483893886 L 952.8301877613715,591.5362889829187 L 965.2689928504042,559.8037370238368 L 934.03512674747,546.1609977775282 L 965.2689928504042,532.5182585312197 L 952.8301877613715,500.78570657213777 L 984.5627397204534,513.2245116611705 Z" fill="none" stroke="#00A86B" stroke-width="2.434333742565631" /><path d="M 1140.8062616762993,481.9906455582364 L 1154.4490009226079,513.2245116611705 L 1186.1815528816899,500.78570657213777 L 1173.7427477926572,532.5182585312197 L 1204.976613895591,546.1609977775282 L 1173.7427477926572,559.8037370238368 L 1186.1815528816899,591.5362889829187 L 1154.4490009226079,579.097483893886 L 1140.8062616762993,610.3313499968201 L 1127.1635224299907,579.097483893886 L 1095.4309704709087,591.5362889829187 L 1107.8697755599414,559.8037370238368 L 1076.6359094570075,546.1609977775282 L 1107.8697755599414,532.5182585312197 L 1095.4309704709087,500.78570657213777 L 1127.1635224299907,513.2245116611705 Z" fill="none" stroke="#00A86B" stroke-width="2.434333742565631" /><path d="M 1283.4070443858368,481.9906455582364 L 1297.0497836321454,513.2245116611705 L 1328.7823355912274,500.78570657213777 L 1316.3435305021947,532.5182585312197 L 1347.5773966051286,546.1609977775282 L 1316.3435305021947,559.8037370238368 L 1328.7823355912274,591.5362889829187 L 1297.0497836321454,579.097483893886 L 1283.4070443858368,610.3313499968201 L 1269.7643051395282,579.097483893886 L 1238.0317531804462,591.5362889829187 L 1250.4705582694792,559.8037370238368 L 1219.236692166545,546.1609977775282 L 1250.470558269479,532.5182585312197 L 1238.0317531804462,500.78570657213777 L 1269.7643051395282,513.2245116611705 Z" fill="none" stroke="#00A86B" stroke-width="2.434333742565631" /><path d="M -71.3003913547687,605.4829233846958 L -57.65765210846017,636.71678948763 L -25.925100149378224,624.2779843985973 L -38.36390523841096,656.0105363576791 L -7.1300391354768635,669.6532756039877 L -38.36390523841096,683.2960148502963 L -25.925100149378224,715.0285668093782 L -57.65765210846017,702.5897617203455 L -71.3003913547687,733.8236278232796 L -84.94313060107723,702.5897617203455 L -116.67568256015917,715.0285668093782 L -104.23687747112645,683.2960148502963 L -135.47074357406055,669.6532756039877 L -104.23687747112646,656.0105363576791 L -116.6756825601592,624.2779843985973 L -84.94313060107726,636.71678948763 Z" fill="none" stroke="#00A86B" stroke-width="2.434333742565631" /><path d="M 71.3003913547687,605.4829233846958 L 84.94313060107724,636.71678948763 L 116.67568256015919,624.2779843985973 L 104.23687747112646,656.0105363576791 L 135.47074357406055,669.6532756039877 L 104.23687747112646,683.2960148502963 L 116.67568256015919,715.0285668093782 L 84.94313060107724,702.5897617203455 L 71.3003913547687,733.8236278232796 L 57.65765210846018,702.5897617203455 L 25.92510014937823,715.0285668093782 L 38.363905238410965,683.2960148502963 L 7.1300391354768635,669.6532756039877 L 38.36390523841096,656.0105363576791 L 25.925100149378217,624.2779843985973 L 57.657652108460155,636.71678948763 Z" fill="none" stroke="#00A86B" stroke-width="2.434333742565631" /><path d="M 213.90117406430613,605.4829233846958 L 227.54391331061467,636.71678948763 L 259.2764652696966,624.2779843985973 L 246.83766018066387,656.0105363576791 L 278.07152628359796,669.6532756039877 L 246.83766018066387,683.2960148502963 L 259.2764652696966,715.0285668093782 L 227.54391331061467,702.5897617203455 L 213.90117406430613,733.8236278232796 L 200.2584348179976,702.5897617203455 L 168.52588285891565,715.0285668093782 L 180.9646879479484,683.2960148502963 L 149.7308218450143,669.6532756039877 L 180.9646879479484,656.0105363576791 L 168.52588285891565,624.2779843985973 L 200.25843481799757,636.71678948763 Z" fill="none" stroke="#00A86B" stroke-width="2.434333742565631" /><path d="M 356.5019567738436,605.4829233846958 L 370.1446960201521,636.71678948763 L 401.8772479792341,624.2779843985973 L 389.4384428902013,656.0105363576791 L 420.6723089931354,669.6532756039877 L 389.4384428902013,683.2960148502963 L 401.8772479792341,715.0285668093782 L 370.1446960201521,702.5897617203455 L 356.5019567738436,733.8236278232796 L 342.85921752753507,702.5897617203455 L 311.1266655684531,715.0285668093782 L 323.56547065748583,683.2960148502963 L 292.33160455455175,669.6532756039877 L 323.56547065748583,656.0105363576791 L 311.12666556845306,624.2779843985973 L 342.859217527535,636.71678948763 Z" fill="none" stroke="#00A86B" stroke-width="2.434333742565631" /><path d="M 499.10273948338096,605.4829233846958 L 512.7454787296895,636.71678948763 L 544.4780306887715,624.2779843985973 L 532.0392255997388,656.0105363576791 L 563.2730917026728,669.6532756039877 L 532.0392255997388,683.2960148502963 L 544.4780306887715,715.0285668093782 L 512.7454787296895,702.5897617203455 L 499.10273948338096,733.8236278232796 L 485.46000023707245,702.5897617203455 L 453.7274482779905,715.0285668093782 L 466.1662533670232,683.2960148502963 L 434.93238726408913,669.6532756039877 L 466.1662533670232,656.0105363576791 L 453.72744827799045,624.2779843985973 L 485.4600002370724,636.71678948763 Z" fill="none" stroke="#00A86B" stroke-width="2.434333742565631" /><path d="M 641.7035221929183,605.4829233846958 L 655.3462614392269,636.71678948763 L 687.0788133983087,624.2779843985973 L 674.640008309276,656.0105363576791 L 705.8738744122102,669.6532756039877 L 674.640008309276,683.2960148502963 L 687.0788133983087,715.0285668093782 L 655.3462614392269,702.5897617203455 L 641.7035221929183,733.8236278232796 L 628.0607829466097,702.5897617203455 L 596.3282309875278,715.0285668093782 L 608.7670360765605,683.2960148502963 L 577.5331699736264,669.6532756039877 L 608.7670360765605,656.0105363576791 L 596.3282309875278,624.2779843985973 L 628.0607829466097,636.71678948763 Z" fill="none" stroke="#00A86B" stroke-width="2.434333742565631" /><path d="M 784.3043049024558,605.4829233846958 L 797.9470441487643,636.71678948763 L 829.6795961078462,624.2779843985973 L 817.2407910188135,656.0105363576791 L 848.4746571217477,669.6532756039877 L 817.2407910188135,683.2960148502963 L 829.6795961078462,715.0285668093782 L 797.9470441487643,702.5897617203455 L 784.3043049024558,733.8236278232796 L 770.6615656561472,702.5897617203455 L 738.9290136970653,715.0285668093782 L 751.367818786098,683.2960148502963 L 720.1339526831639,669.6532756039877 L 751.367818786098,656.0105363576791 L 738.9290136970653,624.2779843985973 L 770.6615656561472,636.71678948763 Z" fill="none" stroke="#00A86B" stroke-width="2.434333742565631" /><path d="M 926.9050876119932,605.4829233846958 L 940.5478268583017,636.71678948763 L 972.2803788173836,624.2779843985973 L 959.8415737283509,656.0105363576791 L 991.075439831285,669.6532756039877 L 959.8415737283509,683.2960148502963 L 972.2803788173836,715.0285668093782 L 940.5478268583017,702.5897617203455 L 926.9050876119932,733.8236278232796 L 913.2623483656846,702.5897617203455 L 881.5297964066027,715.0285668093782 L 893.9686014956354,683.2960148502963 L 862.7347353927013,669.6532756039877 L 893.9686014956354,656.0105363576791 L 881.5297964066027,624.2779843985973 L 913.2623483656846,636.71678948763 Z" fill="none" stroke="#00A86B" stroke-width="2.434333742565631" /><path d="M 1069.5058703215307,605.4829233846958 L 1083.1486095678392,636.71678948763 L 1114.8811615269212,624.2779843985973 L 1102.4423564378885,656.0105363576791 L 1133.6762225408224,669.6532756039877 L 1102.4423564378885,683.2960148502963 L 1114.8811615269212,715.0285668093782 L 1083.1486095678392,702.5897617203455 L 1069.5058703215307,733.8236278232796 L 1055.863131075222,702.5897617203455 L 1024.13057911614,715.0285668093782 L 1036.5693842051728,683.2960148502963 L 1005.3355181022388,669.6532756039877 L 1036.5693842051728,656.0105363576791 L 1024.13057911614,624.2779843985973 L 1055.863131075222,636.71678948763 Z" fill="none" stroke="#00A86B" stroke-width="2.434333742565631" /><path d="M 1212.1066530310682,605.4829233846958 L 1225.7493922773767,636.71678948763 L 1257.4819442364587,624.2779843985973 L 1245.043139147426,656.0105363576791 L 1276.27700525036,669.6532756039877 L 1245.043139147426,683.2960148502963 L 1257.4819442364587,715.0285668093782 L 1225.7493922773767,702.5897617203455 L 1212.1066530310682,733.8236278232796 L 1198.4639137847596,702.5897617203455 L 1166.7313618256776,715.0285668093782 L 1179.1701669147105,683.2960148502963 L 1147.9363008117764,669.6532756039877 L 1179.1701669147103,656.0105363576791 L 1166.7313618256776,624.2779843985973 L 1198.4639137847596,636.71678948763 Z" fill="none" stroke="#00A86B" stroke-width="2.434333742565631" /><line x1="64.17035221929184" y1="52.191886471690694" x2="78.43043049024557" y2="52.191886471690694" stroke="#00A86B" stroke-width="0.5"/><line x1="206.77113492882927" y1="52.191886471690694" x2="221.031213199783" y2="52.191886471690694" stroke="#00A86B" stroke-width="0.5"/><line x1="349.37191763836665" y1="52.191886471690694" x2="363.63199590932044" y2="52.191886471690694" stroke="#00A86B" stroke-width="0.5"/><line x1="491.9727003479041" y1="52.191886471690694" x2="506.2327786188578" y2="52.191886471690694" stroke="#00A86B" stroke-width="0.5"/><line x1="634.5734830574415" y1="52.191886471690694" x2="648.8335613283951" y2="52.191886471690694" stroke="#00A86B" stroke-width="0.5"/><line x1="777.1742657669789" y1="52.191886471690694" x2="791.4343440379326" y2="52.191886471690694" stroke="#00A86B" stroke-width="0.5"/><line x1="919.7750484765164" y1="52.191886471690694" x2="934.03512674747" y2="52.191886471690694" stroke="#00A86B" stroke-width="0.5"/><line x1="1062.3758311860538" y1="52.191886471690694" x2="1076.6359094570075" y2="52.191886471690694" stroke="#00A86B" stroke-width="0.5"/><line x1="135.47074357406055" y1="175.6841642981501" x2="149.7308218450143" y2="175.6841642981501" stroke="#00A86B" stroke-width="0.5"/><line x1="278.07152628359796" y1="175.6841642981501" x2="292.33160455455175" y2="175.6841642981501" stroke="#00A86B" stroke-width="0.5"/><line x1="420.6723089931354" y1="175.6841642981501" x2="434.93238726408913" y2="175.6841642981501" stroke="#00A86B" stroke-width="0.5"/><line x1="563.2730917026728" y1="175.6841642981501" x2="577.5331699736264" y2="175.6841642981501" stroke="#00A86B" stroke-width="0.5"/><line x1="705.8738744122102" y1="175.6841642981501" x2="720.1339526831639" y2="175.6841642981501" stroke="#00A86B" stroke-width="0.5"/><line x1="848.4746571217477" y1="175.6841642981501" x2="862.7347353927013" y2="175.6841642981501" stroke="#00A86B" stroke-width="0.5"/><line x1="991.075439831285" y1="175.6841642981501" x2="1005.3355181022388" y2="175.6841642981501" stroke="#00A86B" stroke-width="0.5"/><line x1="1133.6762225408224" y1="175.6841642981501" x2="1147.9363008117764" y2="175.6841642981501" stroke="#00A86B" stroke-width="0.5"/><line x1="64.17035221929184" y1="299.17644212460954" x2="78.43043049024557" y2="299.17644212460954" stroke="#00A86B" stroke-width="0.5"/><line x1="206.77113492882927" y1="299.17644212460954" x2="221.031213199783" y2="299.17644212460954" stroke="#00A86B" stroke-width="0.5"/><line x1="349.37191763836665" y1="299.17644212460954" x2="363.63199590932044" y2="299.17644212460954" stroke="#00A86B" stroke-width="0.5"/><line x1="491.9727003479041" y1="299.17644212460954" x2="506.2327786188578" y2="299.17644212460954" stroke="#00A86B" stroke-width="0.5"/><line x1="634.5734830574415" y1="299.17644212460954" x2="648.8335613283951" y2="299.17644212460954" stroke="#00A86B" stroke-width="0.5"/><line x1="777.1742657669789" y1="299.17644212460954" x2="791.4343440379326" y2="299.17644212460954" stroke="#00A86B" stroke-width="0.5"/><line x1="919.7750484765164" y1="299.17644212460954" x2="934.03512674747" y2="299.17644212460954" stroke="#00A86B" stroke-width="0.5"/><line x1="1062.3758311860538" y1="299.17644212460954" x2="1076.6359094570075" y2="299.17644212460954" stroke="#00A86B" stroke-width="0.5"/><line x1="135.47074357406055" y1="422.6687199510689" x2="149.7308218450143" y2="422.6687199510689" stroke="#00A86B" stroke-width="0.5"/><line x1="278.07152628359796" y1="422.6687199510689" x2="292.33160455455175" y2="422.6687199510689" stroke="#00A86B" stroke-width="0.5"/><line x1="420.6723089931354" y1="422.6687199510689" x2="434.93238726408913" y2="422.6687199510689" stroke="#00A86B" stroke-width="0.5"/><line x1="563.2730917026728" y1="422.6687199510689" x2="577.5331699736264" y2="422.6687199510689" stroke="#00A86B" stroke-width="0.5"/><line x1="705.8738744122102" y1="422.6687199510689" x2="720.1339526831639" y2="422.6687199510689" stroke="#00A86B" stroke-width="0.5"/><line x1="848.4746571217477" y1="422.6687199510689" x2="862.7347353927013" y2="422.6687199510689" stroke="#00A86B" stroke-width="0.5"/><line x1="991.075439831285" y1="422.6687199510689" x2="1005.3355181022388" y2="422.6687199510689" stroke="#00A86B" stroke-width="0.5"/><line x1="1133.6762225408224" y1="422.6687199510689" x2="1147.9363008117764" y2="422.6687199510689" stroke="#00A86B" stroke-width="0.5"/><line x1="64.17035221929184" y1="546.1609977775282" x2="78.43043049024557" y2="546.1609977775282" stroke="#00A86B" stroke-width="0.5"/><line x1="206.77113492882927" y1="546.1609977775282" x2="221.031213199783" y2="546.1609977775282" stroke="#00A86B" stroke-width="0.5"/><line x1="349.37191763836665" y1="546.1609977775282" x2="363.63199590932044" y2="546.1609977775282" stroke="#00A86B" stroke-width="0.5"/><line x1="491.9727003479041" y1="546.1609977775282" x2="506.2327786188578" y2="546.1609977775282" stroke="#00A86B" stroke-width="0.5"/><line x1="634.5734830574415" y1="546.1609977775282" x2="648.8335613283951" y2="546.1609977775282" stroke="#00A86B" stroke-width="0.5"/><line x1="777.1742657669789" y1="546.1609977775282" x2="791.4343440379326" y2="546.1609977775282" stroke="#00A86B" stroke-width="0.5"/><line x1="919.7750484765164" y1="546.1609977775282" x2="934.03512674747" y2="546.1609977775282" stroke="#00A86B" stroke-width="0.5"/><line x1="1062.3758311860538" y1="546.1609977775282" x2="1076.6359094570075" y2="546.1609977775282" stroke="#00A86B" stroke-width="0.5"/></g><g opacity="0.1843324423461838"><path d="M 459.12748596590365 381.13731998071887 L 459.12748596590365 419.61074733189105 L 499.59522073524926 419.61074733189105" fill="none" stroke="#FFFFFF" stroke-width="1.1491379740876788" stroke-linecap="square"/><path d="M 39.567232150382935 556.5401184170229 L 39.567232150382935 591.793754059177 L 2.2124394725740757 591.793754059177 L 2.2124394725740757 551.9830141100613" fill="none" stroke="#FFFFFF" stroke-width="1.1491379740876788" stroke-linecap="square"/><path d="M 865.0938038086024 426.98136826370904 L 816.2118655919825 426.98136826370904 L 816.2118655919825 388.47895715682967 L 851.1695246996126 388.47895715682967" fill="none" stroke="#FFFFFF" stroke-width="1.1491379740876788" stroke-linecap="square"/><circle cx="499.59522073524926" cy="419.61074733189105" r="6.9389118575206545" fill="#FFFFFF"/><circle cx="2.2124394725740757" cy="551.9830141100613" r="6.9389118575206545" fill="#FFFFFF"/><circle cx="39.567232150382935" cy="556.5401184170229" r="5.551129486016524" fill="#FFFFFF"/><rect x="-4.726472384946579" y="584.8548422016563" width="13.877823715041309" height="13.877823715041309" fill="#FFFFFF"/><rect x="809.2729537344618" y="381.540045299309" width="13.877823715041309" height="13.877823715041309" fill="#FFFFFF"/><circle cx="808.1524375864084" cy="601.2503352580827" r="4.786159231394783" fill="#FFFFFF"/></g><g opacity="0.2"><rect x="40" y="40" width="1120" height="550" fill="none" stroke="#666666" stroke-width="2" rx="8"/></g><g opacity="0.8951746823243679"><line x1="50" y1="50" x2="70" y2="50" stroke="#00D486" stroke-width="3"/><line x1="50" y1="50" x2="50" y2="70" stroke="#00D486" stroke-width="3"/><line x1="1150" y1="580" x2="1130" y2="580" stroke="#00D486" stroke-width="3"/><line x1="1150" y1="580" x2="1150" y2="560" stroke="#00D486" stroke-width="3"/></g></svg>