<svg xmlns="http://www.w3.org/2000/svg" width="1200" height="630" viewBox="0 0 1200 630"><rect x="0" y="0" width="1200" height="630" fill="#000000"/><g opacity="0.05"><line x1="0" y1="0" x2="0" y2="630" stroke="#666666" stroke-width="0.5"/><line x1="60" y1="0" x2="60" y2="630" stroke="#666666" stroke-width="0.5"/><line x1="120" y1="0" x2="120" y2="630" stroke="#666666" stroke-width="0.5"/><line x1="180" y1="0" x2="180" y2="630" stroke="#666666" stroke-width="0.5"/><line x1="240" y1="0" x2="240" y2="630" stroke="#666666" stroke-width="0.5"/><line x1="300" y1="0" x2="300" y2="630" stroke="#666666" stroke-width="0.5"/><line x1="360" y1="0" x2="360" y2="630" stroke="#666666" stroke-width="0.5"/><line x1="420" y1="0" x2="420" y2="630" stroke="#666666" stroke-width="0.5"/><line x1="480" y1="0" x2="480" y2="630" stroke="#666666" stroke-width="0.5"/><line x1="540" y1="0" x2="540" y2="630" stroke="#666666" stroke-width="0.5"/><line x1="600" y1="0" x2="600" y2="630" stroke="#666666" stroke-width="0.5"/><line x1="660" y1="0" x2="660" y2="630" stroke="#666666" stroke-width="0.5"/><line x1="720" y1="0" x2="720" y2="630" stroke="#666666" stroke-width="0.5"/><line x1="780" y1="0" x2="780" y2="630" stroke="#666666" stroke-width="0.5"/><line x1="840" y1="0" x2="840" y2="630" stroke="#666666" stroke-width="0.5"/><line x1="900" y1="0" x2="900" y2="630" stroke="#666666" stroke-width="0.5"/><line x1="960" y1="0" x2="960" y2="630" stroke="#666666" stroke-width="0.5"/><line x1="1020" y1="0" x2="1020" y2="630" stroke="#666666" stroke-width="0.5"/><line x1="1080" y1="0" x2="1080" y2="630" stroke="#666666" stroke-width="0.5"/><line x1="1140" y1="0" x2="1140" y2="630" stroke="#666666" stroke-width="0.5"/><line x1="1200" y1="0" x2="1200" y2="630" stroke="#666666" stroke-width="0.5"/><line x1="0" y1="0" x2="1200" y2="0" stroke="#666666" stroke-width="0.5"/><line x1="0" y1="60" x2="1200" y2="60" stroke="#666666" stroke-width="0.5"/><line x1="0" y1="120" x2="1200" y2="120" stroke="#666666" stroke-width="0.5"/><line x1="0" y1="180" x2="1200" y2="180" stroke="#666666" stroke-width="0.5"/><line x1="0" y1="240" x2="1200" y2="240" stroke="#666666" stroke-width="0.5"/><line x1="0" y1="300" x2="1200" y2="300" stroke="#666666" stroke-width="0.5"/><line x1="0" y1="360" x2="1200" y2="360" stroke="#666666" stroke-width="0.5"/><line x1="0" y1="420" x2="1200" y2="420" stroke="#666666" stroke-width="0.5"/><line x1="0" y1="480" x2="1200" y2="480" stroke="#666666" stroke-width="0.5"/><line x1="0" y1="540" x2="1200" y2="540" stroke="#666666" stroke-width="0.5"/><line x1="0" y1="600" x2="1200" y2="600" stroke="#666666" stroke-width="0.5"/><line x1="0" y1="660" x2="1200" y2="660" stroke="#666666" stroke-width="0.5"/></g><g opacity="0.08419309558076463"><path d="M -73.15505879852256,-138.99461171719287 L -59.15744430057827,-106.94828956032993 L -26.599464459440235,-119.71065313760488 L -39.3618280367152,-87.15267329646684 L -7.315505879852253,-73.15505879852256 L -39.3618280367152,-59.15744430057828 L -26.599464459440235,-26.59946445944024 L -59.15744430057827,-39.3618280367152 L -73.15505879852256,-7.315505879852253 L -87.15267329646684,-39.3618280367152 L -119.71065313760488,-26.599464459440235 L -106.94828956032991,-59.157444300578256 L -138.99461171719287,-73.15505879852255 L -106.94828956032991,-87.15267329646686 L -119.7106531376049,-119.71065313760488 L -87.15267329646687,-106.94828956032991 Z" fill="none" stroke="#00A86B" stroke-width="1.8981837040736265" /><path d="M 73.15505879852256,-138.99461171719287 L 87.15267329646684,-106.94828956032993 L 119.71065313760488,-119.71065313760488 L 106.94828956032993,-87.15267329646684 L 138.99461171719287,-73.15505879852256 L 106.94828956032993,-59.15744430057828 L 119.71065313760488,-26.59946445944024 L 87.15267329646684,-39.3618280367152 L 73.15505879852256,-7.315505879852253 L 59.15744430057828,-39.3618280367152 L 26.59946445944024,-26.599464459440235 L 39.36182803671521,-59.157444300578256 L 7.315505879852253,-73.15505879852255 L 39.36182803671521,-87.15267329646686 L 26.599464459440227,-119.71065313760488 L 59.157444300578256,-106.94828956032991 Z" fill="none" stroke="#00A86B" stroke-width="1.8981837040736265" /><path d="M 219.46517639556768,-138.99461171719287 L 233.46279089351196,-106.94828956032993 L 266.02077073465,-119.71065313760488 L 253.25840715737505,-87.15267329646684 L 285.304729314238,-73.15505879852256 L 253.25840715737505,-59.15744430057828 L 266.02077073465,-26.59946445944024 L 233.46279089351196,-39.3618280367152 L 219.46517639556768,-7.315505879852253 L 205.4675618976234,-39.3618280367152 L 172.90958205648536,-26.599464459440235 L 185.67194563376034,-59.157444300578256 L 153.62562347689737,-73.15505879852255 L 185.67194563376034,-87.15267329646686 L 172.90958205648536,-119.71065313760488 L 205.46756189762337,-106.94828956032991 Z" fill="none" stroke="#00A86B" stroke-width="1.8981837040736265" /><path d="M 365.7752939926128,-138.99461171719287 L 379.7729084905571,-106.94828956032993 L 412.3308883316951,-119.71065313760488 L 399.56852475442014,-87.15267329646684 L 431.61484691128305,-73.15505879852256 L 399.56852475442014,-59.15744430057828 L 412.3308883316951,-26.59946445944024 L 379.7729084905571,-39.3618280367152 L 365.7752939926128,-7.315505879852253 L 351.77767949466846,-39.3618280367152 L 319.2196996535305,-26.599464459440235 L 331.9820632308054,-59.157444300578256 L 299.9357410739425,-73.15505879852255 L 331.9820632308054,-87.15267329646686 L 319.2196996535304,-119.71065313760488 L 351.77767949466846,-106.94828956032991 Z" fill="none" stroke="#00A86B" stroke-width="1.8981837040736265" /><path d="M 512.085411589658,-138.99461171719287 L 526.0830260876022,-106.94828956032993 L 558.6410059287402,-119.71065313760488 L 545.8786423514653,-87.15267329646684 L 577.9249645083282,-73.15505879852256 L 545.8786423514653,-59.15744430057828 L 558.6410059287402,-26.59946445944024 L 526.0830260876022,-39.3618280367152 L 512.085411589658,-7.315505879852253 L 498.08779709171364,-39.3618280367152 L 465.52981725057566,-26.599464459440235 L 478.2921808278506,-59.157444300578256 L 446.2458586709877,-73.15505879852255 L 478.2921808278506,-87.15267329646686 L 465.5298172505756,-119.71065313760488 L 498.08779709171364,-106.94828956032991 Z" fill="none" stroke="#00A86B" stroke-width="1.8981837040736265" /><path d="M 658.395529186703,-138.99461171719287 L 672.3931436846473,-106.94828956032993 L 704.9511235257853,-119.71065313760488 L 692.1887599485103,-87.15267329646684 L 724.2350821053733,-73.15505879852256 L 692.1887599485103,-59.15744430057828 L 704.9511235257853,-26.59946445944024 L 672.3931436846473,-39.3618280367152 L 658.395529186703,-7.315505879852253 L 644.3979146887588,-39.3618280367152 L 611.8399348476207,-26.599464459440235 L 624.6022984248957,-59.157444300578256 L 592.5559762680327,-73.15505879852255 L 624.6022984248957,-87.15267329646686 L 611.8399348476207,-119.71065313760488 L 644.3979146887588,-106.94828956032991 Z" fill="none" stroke="#00A86B" stroke-width="1.8981837040736265" /><path d="M 804.7056467837482,-138.99461171719287 L 818.7032612816924,-106.94828956032993 L 851.2612411228305,-119.71065313760488 L 838.4988775455555,-87.15267329646684 L 870.5451997024185,-73.15505879852256 L 838.4988775455555,-59.15744430057828 L 851.2612411228305,-26.59946445944024 L 818.7032612816924,-39.3618280367152 L 804.7056467837482,-7.315505879852253 L 790.7080322858039,-39.3618280367152 L 758.1500524446659,-26.599464459440235 L 770.9124160219409,-59.157444300578256 L 738.8660938650779,-73.15505879852255 L 770.9124160219409,-87.15267329646686 L 758.1500524446659,-119.71065313760488 L 790.7080322858039,-106.94828956032991 Z" fill="none" stroke="#00A86B" stroke-width="1.8981837040736265" /><path d="M 951.0157643807934,-138.99461171719287 L 965.0133788787376,-106.94828956032993 L 997.5713587198757,-119.71065313760488 L 984.8089951426007,-87.15267329646684 L 1016.8553172994636,-73.15505879852256 L 984.8089951426007,-59.15744430057828 L 997.5713587198757,-26.59946445944024 L 965.0133788787376,-39.3618280367152 L 951.0157643807934,-7.315505879852253 L 937.0181498828491,-39.3618280367152 L 904.4601700417111,-26.599464459440235 L 917.2225336189861,-59.157444300578256 L 885.1762114621231,-73.15505879852255 L 917.2225336189861,-87.15267329646686 L 904.4601700417111,-119.71065313760488 L 937.0181498828491,-106.94828956032991 Z" fill="none" stroke="#00A86B" stroke-width="1.8981837040736265" /><path d="M 1097.3258819778384,-138.99461171719287 L 1111.3234964757828,-106.94828956032993 L 1143.8814763169207,-119.71065313760488 L 1131.1191127396457,-87.15267329646684 L 1163.1654348965087,-73.15505879852256 L 1131.1191127396457,-59.15744430057828 L 1143.8814763169207,-26.59946445944024 L 1111.3234964757828,-39.3618280367152 L 1097.3258819778384,-7.315505879852253 L 1083.328267479894,-39.3618280367152 L 1050.7702876387561,-26.599464459440235 L 1063.5326512160311,-59.157444300578256 L 1031.4863290591682,-73.15505879852255 L 1063.5326512160311,-87.15267329646686 L 1050.7702876387561,-119.71065313760488 L 1083.328267479894,-106.94828956032991 Z" fill="none" stroke="#00A86B" stroke-width="1.8981837040736265" /><path d="M 1243.6359995748835,-138.99461171719287 L 1257.6336140728279,-106.94828956032993 L 1290.1915939139658,-119.71065313760488 L 1277.4292303366908,-87.15267329646684 L 1309.4755524935538,-73.15505879852256 L 1277.4292303366908,-59.15744430057828 L 1290.1915939139658,-26.59946445944024 L 1257.6336140728279,-39.3618280367152 L 1243.6359995748835,-7.315505879852253 L 1229.6383850769391,-39.3618280367152 L 1197.0804052358012,-26.599464459440235 L 1209.8427688130762,-59.157444300578256 L 1177.7964466562132,-73.15505879852255 L 1209.8427688130762,-87.15267329646686 L 1197.0804052358012,-119.71065313760488 L 1229.6383850769391,-106.94828956032991 Z" fill="none" stroke="#00A86B" stroke-width="1.8981837040736265" /><path d="M 4.031509886957118e-15,-12.290049878151791 L 13.997614497944289,19.756272278711158 L 46.555594339082326,6.993908701436197 L 33.79323076180736,39.55188854257423 L 65.83955291867031,53.549503040518516 L 33.79323076180736,67.5471175384628 L 46.555594339082326,100.10509737960083 L 13.997614497944289,87.34273380232588 L 4.031509886957118e-15,119.38905595918882 L -13.997614497944285,87.34273380232588 L -46.55559433908232,100.10509737960083 L -33.79323076180735,67.54711753846283 L -65.83955291867031,53.54950304051852 L -33.79323076180735,39.55188854257422 L -46.55559433908233,6.993908701436197 L -13.997614497944307,19.756272278711165 Z" fill="none" stroke="#00A86B" stroke-width="1.8981837040736265" /><path d="M 146.31011759704512,-12.290049878151791 L 160.3077320949894,19.756272278711158 L 192.86571193612744,6.993908701436197 L 180.1033483588525,39.55188854257423 L 212.14967051571543,53.549503040518516 L 180.1033483588525,67.5471175384628 L 192.86571193612744,100.10509737960083 L 160.3077320949894,87.34273380232588 L 146.31011759704512,119.38905595918882 L 132.31250309910084,87.34273380232588 L 99.7545232579628,100.10509737960083 L 112.51688683523777,67.54711753846283 L 80.47056467837481,53.54950304051852 L 112.51688683523777,39.55188854257422 L 99.75452325796279,6.993908701436197 L 132.3125030991008,19.756272278711165 Z" fill="none" stroke="#00A86B" stroke-width="1.8981837040736265" /><path d="M 292.62023519409024,-12.290049878151791 L 306.61784969203455,19.756272278711158 L 339.1758295331726,6.993908701436197 L 326.4134659558976,39.55188854257423 L 358.4597881127605,53.549503040518516 L 326.4134659558976,67.5471175384628 L 339.1758295331726,100.10509737960083 L 306.61784969203455,87.34273380232588 L 292.62023519409024,119.38905595918882 L 278.62262069614593,87.34273380232588 L 246.06464085500792,100.10509737960083 L 258.8270044322829,67.54711753846283 L 226.78068227541993,53.54950304051852 L 258.8270044322829,39.55188854257422 L 246.0646408550079,6.993908701436197 L 278.62262069614593,19.756272278711165 Z" fill="none" stroke="#00A86B" stroke-width="1.8981837040736265" /><path d="M 438.9303527911353,-12.290049878151791 L 452.9279672890796,19.756272278711158 L 485.48594713021765,6.993908701436197 L 472.72358355294267,39.55188854257423 L 504.7699057098056,53.549503040518516 L 472.72358355294267,67.5471175384628 L 485.48594713021765,100.10509737960083 L 452.9279672890796,87.34273380232588 L 438.9303527911353,119.38905595918882 L 424.932738293191,87.34273380232588 L 392.374758452053,100.10509737960083 L 405.13712202932794,67.54711753846283 L 373.090799872465,53.54950304051852 L 405.13712202932794,39.55188854257422 L 392.37475845205296,6.993908701436197 L 424.932738293191,19.756272278711165 Z" fill="none" stroke="#00A86B" stroke-width="1.8981837040736265" /><path d="M 585.2404703881805,-12.290049878151791 L 599.2380848861247,19.756272278711158 L 631.7960647272628,6.993908701436197 L 619.0337011499878,39.55188854257423 L 651.0800233068508,53.549503040518516 L 619.0337011499878,67.5471175384628 L 631.7960647272628,100.10509737960083 L 599.2380848861247,87.34273380232588 L 585.2404703881805,119.38905595918882 L 571.2428558902362,87.34273380232588 L 538.6848760490982,100.10509737960083 L 551.4472396263732,67.54711753846283 L 519.4009174695102,53.54950304051852 L 551.4472396263732,39.55188854257422 L 538.6848760490982,6.993908701436197 L 571.2428558902362,19.756272278711165 Z" fill="none" stroke="#00A86B" stroke-width="1.8981837040736265" /><path d="M 731.5505879852255,-12.290049878151791 L 745.5482024831698,19.756272278711158 L 778.1061823243078,6.993908701436197 L 765.3438187470329,39.55188854257423 L 797.3901409038958,53.549503040518516 L 765.3438187470329,67.5471175384628 L 778.1061823243078,100.10509737960083 L 745.5482024831698,87.34273380232588 L 731.5505879852255,119.38905595918882 L 717.5529734872813,87.34273380232588 L 684.9949936461433,100.10509737960083 L 697.7573572234182,67.54711753846283 L 665.7110350665553,53.54950304051852 L 697.7573572234182,39.55188854257422 L 684.9949936461433,6.993908701436197 L 717.5529734872813,19.756272278711165 Z" fill="none" stroke="#00A86B" stroke-width="1.8981837040736265" /><path d="M 877.8607055822707,-12.290049878151791 L 891.858320080215,19.756272278711158 L 924.416299921353,6.993908701436197 L 911.653936344078,39.55188854257423 L 943.700258500941,53.549503040518516 L 911.653936344078,67.5471175384628 L 924.416299921353,100.10509737960083 L 891.858320080215,87.34273380232588 L 877.8607055822707,119.38905595918882 L 863.8630910843265,87.34273380232588 L 831.3051112431884,100.10509737960083 L 844.0674748204634,67.54711753846283 L 812.0211526636004,53.54950304051852 L 844.0674748204634,39.55188854257422 L 831.3051112431884,6.993908701436197 L 863.8630910843265,19.756272278711165 Z" fill="none" stroke="#00A86B" stroke-width="1.8981837040736265" /><path d="M 1024.170823179316,-12.290049878151791 L 1038.1684376772603,19.756272278711158 L 1070.7264175183982,6.993908701436197 L 1057.9640539411232,39.55188854257423 L 1090.0103760979862,53.549503040518516 L 1057.9640539411232,67.5471175384628 L 1070.7264175183982,100.10509737960083 L 1038.1684376772603,87.34273380232588 L 1024.170823179316,119.38905595918882 L 1010.1732086813716,87.34273380232588 L 977.6152288402336,100.10509737960083 L 990.3775924175086,67.54711753846283 L 958.3312702606456,53.54950304051852 L 990.3775924175086,39.55188854257422 L 977.6152288402336,6.993908701436197 L 1010.1732086813716,19.756272278711165 Z" fill="none" stroke="#00A86B" stroke-width="1.8981837040736265" /><path d="M 1170.480940776361,-12.290049878151791 L 1184.4785552743053,19.756272278711158 L 1217.0365351154433,6.993908701436197 L 1204.2741715381683,39.55188854257423 L 1236.3204936950312,53.549503040518516 L 1204.2741715381683,67.5471175384628 L 1217.0365351154433,100.10509737960083 L 1184.4785552743053,87.34273380232588 L 1170.480940776361,119.38905595918882 L 1156.4833262784166,87.34273380232588 L 1123.9253464372787,100.10509737960083 L 1136.6877100145537,67.54711753846283 L 1104.6413878576907,53.54950304051852 L 1136.6877100145537,39.55188854257422 L 1123.9253464372787,6.993908701436197 L 1156.4833262784166,19.756272278711165 Z" fill="none" stroke="#00A86B" stroke-width="1.8981837040736265" /><path d="M 1316.791058373406,-12.290049878151791 L 1330.7886728713504,19.756272278711158 L 1363.3466527124883,6.993908701436197 L 1350.5842891352133,39.55188854257423 L 1382.6306112920763,53.549503040518516 L 1350.5842891352133,67.5471175384628 L 1363.3466527124883,100.10509737960083 L 1330.7886728713504,87.34273380232588 L 1316.791058373406,119.38905595918882 L 1302.7934438754617,87.34273380232588 L 1270.2354640343237,100.10509737960083 L 1282.9978276115987,67.54711753846283 L 1250.9515054547358,53.54950304051852 L 1282.9978276115987,39.55188854257422 L 1270.2354640343237,6.993908701436197 L 1302.7934438754617,19.756272278711165 Z" fill="none" stroke="#00A86B" stroke-width="1.8981837040736265" /><path d="M -73.15505879852256,114.41451196088929 L -59.15744430057827,146.46083411775223 L -26.599464459440235,133.69847054047727 L -39.3618280367152,166.2564503816153 L -7.315505879852253,180.2540648795596 L -39.3618280367152,194.25167937750388 L -26.599464459440235,226.8096592186419 L -59.15744430057827,214.04729564136696 L -73.15505879852256,246.0936177982299 L -87.15267329646684,214.04729564136696 L -119.71065313760488,226.8096592186419 L -106.94828956032991,194.2516793775039 L -138.99461171719287,180.2540648795596 L -106.94828956032991,166.2564503816153 L -119.7106531376049,133.69847054047727 L -87.15267329646687,146.46083411775226 Z" fill="none" stroke="#00A86B" stroke-width="1.8981837040736265" /><path d="M 73.15505879852256,114.41451196088929 L 87.15267329646684,146.46083411775223 L 119.71065313760488,133.69847054047727 L 106.94828956032993,166.2564503816153 L 138.99461171719287,180.2540648795596 L 106.94828956032993,194.25167937750388 L 119.71065313760488,226.8096592186419 L 87.15267329646684,214.04729564136696 L 73.15505879852256,246.0936177982299 L 59.15744430057828,214.04729564136696 L 26.59946445944024,226.8096592186419 L 39.36182803671521,194.2516793775039 L 7.315505879852253,180.2540648795596 L 39.36182803671521,166.2564503816153 L 26.599464459440227,133.69847054047727 L 59.157444300578256,146.46083411775226 Z" fill="none" stroke="#00A86B" stroke-width="1.8981837040736265" /><path d="M 219.46517639556768,114.41451196088929 L 233.46279089351196,146.46083411775223 L 266.02077073465,133.69847054047727 L 253.25840715737505,166.2564503816153 L 285.304729314238,180.2540648795596 L 253.25840715737505,194.25167937750388 L 266.02077073465,226.8096592186419 L 233.46279089351196,214.04729564136696 L 219.46517639556768,246.0936177982299 L 205.4675618976234,214.04729564136696 L 172.90958205648536,226.8096592186419 L 185.67194563376034,194.2516793775039 L 153.62562347689737,180.2540648795596 L 185.67194563376034,166.2564503816153 L 172.90958205648536,133.69847054047727 L 205.46756189762337,146.46083411775226 Z" fill="none" stroke="#00A86B" stroke-width="1.8981837040736265" /><path d="M 365.7752939926128,114.41451196088929 L 379.7729084905571,146.46083411775223 L 412.3308883316951,133.69847054047727 L 399.56852475442014,166.2564503816153 L 431.61484691128305,180.2540648795596 L 399.56852475442014,194.25167937750388 L 412.3308883316951,226.8096592186419 L 379.7729084905571,214.04729564136696 L 365.7752939926128,246.0936177982299 L 351.77767949466846,214.04729564136696 L 319.2196996535305,226.8096592186419 L 331.9820632308054,194.2516793775039 L 299.9357410739425,180.2540648795596 L 331.9820632308054,166.2564503816153 L 319.2196996535304,133.69847054047727 L 351.77767949466846,146.46083411775226 Z" fill="none" stroke="#00A86B" stroke-width="1.8981837040736265" /><path d="M 512.085411589658,114.41451196088929 L 526.0830260876022,146.46083411775223 L 558.6410059287402,133.69847054047727 L 545.8786423514653,166.2564503816153 L 577.9249645083282,180.2540648795596 L 545.8786423514653,194.25167937750388 L 558.6410059287402,226.8096592186419 L 526.0830260876022,214.04729564136696 L 512.085411589658,246.0936177982299 L 498.08779709171364,214.04729564136696 L 465.52981725057566,226.8096592186419 L 478.2921808278506,194.2516793775039 L 446.2458586709877,180.2540648795596 L 478.2921808278506,166.2564503816153 L 465.5298172505756,133.69847054047727 L 498.08779709171364,146.46083411775226 Z" fill="none" stroke="#00A86B" stroke-width="1.8981837040736265" /><path d="M 658.395529186703,114.41451196088929 L 672.3931436846473,146.46083411775223 L 704.9511235257853,133.69847054047727 L 692.1887599485103,166.2564503816153 L 724.2350821053733,180.2540648795596 L 692.1887599485103,194.25167937750388 L 704.9511235257853,226.8096592186419 L 672.3931436846473,214.04729564136696 L 658.395529186703,246.0936177982299 L 644.3979146887588,214.04729564136696 L 611.8399348476207,226.8096592186419 L 624.6022984248957,194.2516793775039 L 592.5559762680327,180.2540648795596 L 624.6022984248957,166.2564503816153 L 611.8399348476207,133.69847054047727 L 644.3979146887588,146.46083411775226 Z" fill="none" stroke="#00A86B" stroke-width="1.8981837040736265" /><path d="M 804.7056467837482,114.41451196088929 L 818.7032612816924,146.46083411775223 L 851.2612411228305,133.69847054047727 L 838.4988775455555,166.2564503816153 L 870.5451997024185,180.2540648795596 L 838.4988775455555,194.25167937750388 L 851.2612411228305,226.8096592186419 L 818.7032612816924,214.04729564136696 L 804.7056467837482,246.0936177982299 L 790.7080322858039,214.04729564136696 L 758.1500524446659,226.8096592186419 L 770.9124160219409,194.2516793775039 L 738.8660938650779,180.2540648795596 L 770.9124160219409,166.2564503816153 L 758.1500524446659,133.69847054047727 L 790.7080322858039,146.46083411775226 Z" fill="none" stroke="#00A86B" stroke-width="1.8981837040736265" /><path d="M 951.0157643807934,114.41451196088929 L 965.0133788787376,146.46083411775223 L 997.5713587198757,133.69847054047727 L 984.8089951426007,166.2564503816153 L 1016.8553172994636,180.2540648795596 L 984.8089951426007,194.25167937750388 L 997.5713587198757,226.8096592186419 L 965.0133788787376,214.04729564136696 L 951.0157643807934,246.0936177982299 L 937.0181498828491,214.04729564136696 L 904.4601700417111,226.8096592186419 L 917.2225336189861,194.2516793775039 L 885.1762114621231,180.2540648795596 L 917.2225336189861,166.2564503816153 L 904.4601700417111,133.69847054047727 L 937.0181498828491,146.46083411775226 Z" fill="none" stroke="#00A86B" stroke-width="1.8981837040736265" /><path d="M 1097.3258819778384,114.41451196088929 L 1111.3234964757828,146.46083411775223 L 1143.8814763169207,133.69847054047727 L 1131.1191127396457,166.2564503816153 L 1163.1654348965087,180.2540648795596 L 1131.1191127396457,194.25167937750388 L 1143.8814763169207,226.8096592186419 L 1111.3234964757828,214.04729564136696 L 1097.3258819778384,246.0936177982299 L 1083.328267479894,214.04729564136696 L 1050.7702876387561,226.8096592186419 L 1063.5326512160311,194.2516793775039 L 1031.4863290591682,180.2540648795596 L 1063.5326512160311,166.2564503816153 L 1050.7702876387561,133.69847054047727 L 1083.328267479894,146.46083411775226 Z" fill="none" stroke="#00A86B" stroke-width="1.8981837040736265" /><path d="M 1243.6359995748835,114.41451196088929 L 1257.6336140728279,146.46083411775223 L 1290.1915939139658,133.69847054047727 L 1277.4292303366908,166.2564503816153 L 1309.4755524935538,180.2540648795596 L 1277.4292303366908,194.25167937750388 L 1290.1915939139658,226.8096592186419 L 1257.6336140728279,214.04729564136696 L 1243.6359995748835,246.0936177982299 L 1229.6383850769391,214.04729564136696 L 1197.0804052358012,226.8096592186419 L 1209.8427688130762,194.2516793775039 L 1177.7964466562132,180.2540648795596 L 1209.8427688130762,166.2564503816153 L 1197.0804052358012,133.69847054047727 L 1229.6383850769391,146.46083411775226 Z" fill="none" stroke="#00A86B" stroke-width="1.8981837040736265" /><path d="M 4.031509886957118e-15,241.1190737999303 L 13.997614497944289,273.16539595679325 L 46.555594339082326,260.4030323795183 L 33.79323076180736,292.9610122206563 L 65.83955291867031,306.9586267186006 L 33.79323076180736,320.9562412165449 L 46.555594339082326,353.5142210576829 L 13.997614497944289,340.751857480408 L 4.031509886957118e-15,372.7981796372709 L -13.997614497944285,340.751857480408 L -46.55559433908232,353.51422105768296 L -33.79323076180735,320.9562412165449 L -65.83955291867031,306.9586267186006 L -33.79323076180735,292.9610122206563 L -46.55559433908233,260.4030323795183 L -13.997614497944307,273.16539595679325 Z" fill="none" stroke="#00A86B" stroke-width="1.8981837040736265" /><path d="M 146.31011759704512,241.1190737999303 L 160.3077320949894,273.16539595679325 L 192.86571193612744,260.4030323795183 L 180.1033483588525,292.9610122206563 L 212.14967051571543,306.9586267186006 L 180.1033483588525,320.9562412165449 L 192.86571193612744,353.5142210576829 L 160.3077320949894,340.751857480408 L 146.31011759704512,372.7981796372709 L 132.31250309910084,340.751857480408 L 99.7545232579628,353.51422105768296 L 112.51688683523777,320.9562412165449 L 80.47056467837481,306.9586267186006 L 112.51688683523777,292.9610122206563 L 99.75452325796279,260.4030323795183 L 132.3125030991008,273.16539595679325 Z" fill="none" stroke="#00A86B" stroke-width="1.8981837040736265" /><path d="M 292.62023519409024,241.1190737999303 L 306.61784969203455,273.16539595679325 L 339.1758295331726,260.4030323795183 L 326.4134659558976,292.9610122206563 L 358.4597881127605,306.9586267186006 L 326.4134659558976,320.9562412165449 L 339.1758295331726,353.5142210576829 L 306.61784969203455,340.751857480408 L 292.62023519409024,372.7981796372709 L 278.62262069614593,340.751857480408 L 246.06464085500792,353.51422105768296 L 258.8270044322829,320.9562412165449 L 226.78068227541993,306.9586267186006 L 258.8270044322829,292.9610122206563 L 246.0646408550079,260.4030323795183 L 278.62262069614593,273.16539595679325 Z" fill="none" stroke="#00A86B" stroke-width="1.8981837040736265" /><path d="M 438.9303527911353,241.1190737999303 L 452.9279672890796,273.16539595679325 L 485.48594713021765,260.4030323795183 L 472.72358355294267,292.9610122206563 L 504.7699057098056,306.9586267186006 L 472.72358355294267,320.9562412165449 L 485.48594713021765,353.5142210576829 L 452.9279672890796,340.751857480408 L 438.9303527911353,372.7981796372709 L 424.932738293191,340.751857480408 L 392.374758452053,353.51422105768296 L 405.13712202932794,320.9562412165449 L 373.090799872465,306.9586267186006 L 405.13712202932794,292.9610122206563 L 392.37475845205296,260.4030323795183 L 424.932738293191,273.16539595679325 Z" fill="none" stroke="#00A86B" stroke-width="1.8981837040736265" /><path d="M 585.2404703881805,241.1190737999303 L 599.2380848861247,273.16539595679325 L 631.7960647272628,260.4030323795183 L 619.0337011499878,292.9610122206563 L 651.0800233068508,306.9586267186006 L 619.0337011499878,320.9562412165449 L 631.7960647272628,353.5142210576829 L 599.2380848861247,340.751857480408 L 585.2404703881805,372.7981796372709 L 571.2428558902362,340.751857480408 L 538.6848760490982,353.51422105768296 L 551.4472396263732,320.9562412165449 L 519.4009174695102,306.9586267186006 L 551.4472396263732,292.9610122206563 L 538.6848760490982,260.4030323795183 L 571.2428558902362,273.16539595679325 Z" fill="none" stroke="#00A86B" stroke-width="1.8981837040736265" /><path d="M 731.5505879852255,241.1190737999303 L 745.5482024831698,273.16539595679325 L 778.1061823243078,260.4030323795183 L 765.3438187470329,292.9610122206563 L 797.3901409038958,306.9586267186006 L 765.3438187470329,320.9562412165449 L 778.1061823243078,353.5142210576829 L 745.5482024831698,340.751857480408 L 731.5505879852255,372.7981796372709 L 717.5529734872813,340.751857480408 L 684.9949936461433,353.51422105768296 L 697.7573572234182,320.9562412165449 L 665.7110350665553,306.9586267186006 L 697.7573572234182,292.9610122206563 L 684.9949936461433,260.4030323795183 L 717.5529734872813,273.16539595679325 Z" fill="none" stroke="#00A86B" stroke-width="1.8981837040736265" /><path d="M 877.8607055822707,241.1190737999303 L 891.858320080215,273.16539595679325 L 924.416299921353,260.4030323795183 L 911.653936344078,292.9610122206563 L 943.700258500941,306.9586267186006 L 911.653936344078,320.9562412165449 L 924.416299921353,353.5142210576829 L 891.858320080215,340.751857480408 L 877.8607055822707,372.7981796372709 L 863.8630910843265,340.751857480408 L 831.3051112431884,353.51422105768296 L 844.0674748204634,320.9562412165449 L 812.0211526636004,306.9586267186006 L 844.0674748204634,292.9610122206563 L 831.3051112431884,260.4030323795183 L 863.8630910843265,273.16539595679325 Z" fill="none" stroke="#00A86B" stroke-width="1.8981837040736265" /><path d="M 1024.170823179316,241.1190737999303 L 1038.1684376772603,273.16539595679325 L 1070.7264175183982,260.4030323795183 L 1057.9640539411232,292.9610122206563 L 1090.0103760979862,306.9586267186006 L 1057.9640539411232,320.9562412165449 L 1070.7264175183982,353.5142210576829 L 1038.1684376772603,340.751857480408 L 1024.170823179316,372.7981796372709 L 1010.1732086813716,340.751857480408 L 977.6152288402336,353.51422105768296 L 990.3775924175086,320.9562412165449 L 958.3312702606456,306.9586267186006 L 990.3775924175086,292.9610122206563 L 977.6152288402336,260.4030323795183 L 1010.1732086813716,273.16539595679325 Z" fill="none" stroke="#00A86B" stroke-width="1.8981837040736265" /><path d="M 1170.480940776361,241.1190737999303 L 1184.4785552743053,273.16539595679325 L 1217.0365351154433,260.4030323795183 L 1204.2741715381683,292.9610122206563 L 1236.3204936950312,306.9586267186006 L 1204.2741715381683,320.9562412165449 L 1217.0365351154433,353.5142210576829 L 1184.4785552743053,340.751857480408 L 1170.480940776361,372.7981796372709 L 1156.4833262784166,340.751857480408 L 1123.9253464372787,353.51422105768296 L 1136.6877100145537,320.9562412165449 L 1104.6413878576907,306.9586267186006 L 1136.6877100145537,292.9610122206563 L 1123.9253464372787,260.4030323795183 L 1156.4833262784166,273.16539595679325 Z" fill="none" stroke="#00A86B" stroke-width="1.8981837040736265" /><path d="M 1316.791058373406,241.1190737999303 L 1330.7886728713504,273.16539595679325 L 1363.3466527124883,260.4030323795183 L 1350.5842891352133,292.9610122206563 L 1382.6306112920763,306.9586267186006 L 1350.5842891352133,320.9562412165449 L 1363.3466527124883,353.5142210576829 L 1330.7886728713504,340.751857480408 L 1316.791058373406,372.7981796372709 L 1302.7934438754617,340.751857480408 L 1270.2354640343237,353.51422105768296 L 1282.9978276115987,320.9562412165449 L 1250.9515054547358,306.9586267186006 L 1282.9978276115987,292.9610122206563 L 1270.2354640343237,260.4030323795183 L 1302.7934438754617,273.16539595679325 Z" fill="none" stroke="#00A86B" stroke-width="1.8981837040736265" /><path d="M -73.15505879852256,367.8236356389715 L -59.15744430057827,399.8699577958344 L -26.599464459440235,387.1075942185595 L -39.3618280367152,419.66557405969746 L -7.315505879852253,433.6631885576418 L -39.3618280367152,447.6608030555861 L -26.599464459440235,480.21878289672406 L -59.15744430057827,467.45641931944914 L -73.15505879852256,499.50274147631205 L -87.15267329646684,467.45641931944914 L -119.71065313760488,480.2187828967241 L -106.94828956032991,447.6608030555861 L -138.99461171719287,433.6631885576418 L -106.94828956032991,419.66557405969746 L -119.7106531376049,387.1075942185595 L -87.15267329646687,399.8699577958344 Z" fill="none" stroke="#00A86B" stroke-width="1.8981837040736265" /><path d="M 73.15505879852256,367.8236356389715 L 87.15267329646684,399.8699577958344 L 119.71065313760488,387.1075942185595 L 106.94828956032993,419.66557405969746 L 138.99461171719287,433.6631885576418 L 106.94828956032993,447.6608030555861 L 119.71065313760488,480.21878289672406 L 87.15267329646684,467.45641931944914 L 73.15505879852256,499.50274147631205 L 59.15744430057828,467.45641931944914 L 26.59946445944024,480.2187828967241 L 39.36182803671521,447.6608030555861 L 7.315505879852253,433.6631885576418 L 39.36182803671521,419.66557405969746 L 26.599464459440227,387.1075942185595 L 59.157444300578256,399.8699577958344 Z" fill="none" stroke="#00A86B" stroke-width="1.8981837040736265" /><path d="M 219.46517639556768,367.8236356389715 L 233.46279089351196,399.8699577958344 L 266.02077073465,387.1075942185595 L 253.25840715737505,419.66557405969746 L 285.304729314238,433.6631885576418 L 253.25840715737505,447.6608030555861 L 266.02077073465,480.21878289672406 L 233.46279089351196,467.45641931944914 L 219.46517639556768,499.50274147631205 L 205.4675618976234,467.45641931944914 L 172.90958205648536,480.2187828967241 L 185.67194563376034,447.6608030555861 L 153.62562347689737,433.6631885576418 L 185.67194563376034,419.66557405969746 L 172.90958205648536,387.1075942185595 L 205.46756189762337,399.8699577958344 Z" fill="none" stroke="#00A86B" stroke-width="1.8981837040736265" /><path d="M 365.7752939926128,367.8236356389715 L 379.7729084905571,399.8699577958344 L 412.3308883316951,387.1075942185595 L 399.56852475442014,419.66557405969746 L 431.61484691128305,433.6631885576418 L 399.56852475442014,447.6608030555861 L 412.3308883316951,480.21878289672406 L 379.7729084905571,467.45641931944914 L 365.7752939926128,499.50274147631205 L 351.77767949466846,467.45641931944914 L 319.2196996535305,480.2187828967241 L 331.9820632308054,447.6608030555861 L 299.9357410739425,433.6631885576418 L 331.9820632308054,419.66557405969746 L 319.2196996535304,387.1075942185595 L 351.77767949466846,399.8699577958344 Z" fill="none" stroke="#00A86B" stroke-width="1.8981837040736265" /><path d="M 512.085411589658,367.8236356389715 L 526.0830260876022,399.8699577958344 L 558.6410059287402,387.1075942185595 L 545.8786423514653,419.66557405969746 L 577.9249645083282,433.6631885576418 L 545.8786423514653,447.6608030555861 L 558.6410059287402,480.21878289672406 L 526.0830260876022,467.45641931944914 L 512.085411589658,499.50274147631205 L 498.08779709171364,467.45641931944914 L 465.52981725057566,480.2187828967241 L 478.2921808278506,447.6608030555861 L 446.2458586709877,433.6631885576418 L 478.2921808278506,419.66557405969746 L 465.5298172505756,387.1075942185595 L 498.08779709171364,399.8699577958344 Z" fill="none" stroke="#00A86B" stroke-width="1.8981837040736265" /><path d="M 658.395529186703,367.8236356389715 L 672.3931436846473,399.8699577958344 L 704.9511235257853,387.1075942185595 L 692.1887599485103,419.66557405969746 L 724.2350821053733,433.6631885576418 L 692.1887599485103,447.6608030555861 L 704.9511235257853,480.21878289672406 L 672.3931436846473,467.45641931944914 L 658.395529186703,499.50274147631205 L 644.3979146887588,467.45641931944914 L 611.8399348476207,480.2187828967241 L 624.6022984248957,447.6608030555861 L 592.5559762680327,433.6631885576418 L 624.6022984248957,419.66557405969746 L 611.8399348476207,387.1075942185595 L 644.3979146887588,399.8699577958344 Z" fill="none" stroke="#00A86B" stroke-width="1.8981837040736265" /><path d="M 804.7056467837482,367.8236356389715 L 818.7032612816924,399.8699577958344 L 851.2612411228305,387.1075942185595 L 838.4988775455555,419.66557405969746 L 870.5451997024185,433.6631885576418 L 838.4988775455555,447.6608030555861 L 851.2612411228305,480.21878289672406 L 818.7032612816924,467.45641931944914 L 804.7056467837482,499.50274147631205 L 790.7080322858039,467.45641931944914 L 758.1500524446659,480.2187828967241 L 770.9124160219409,447.6608030555861 L 738.8660938650779,433.6631885576418 L 770.9124160219409,419.66557405969746 L 758.1500524446659,387.1075942185595 L 790.7080322858039,399.8699577958344 Z" fill="none" stroke="#00A86B" stroke-width="1.8981837040736265" /><path d="M 951.0157643807934,367.8236356389715 L 965.0133788787376,399.8699577958344 L 997.5713587198757,387.1075942185595 L 984.8089951426007,419.66557405969746 L 1016.8553172994636,433.6631885576418 L 984.8089951426007,447.6608030555861 L 997.5713587198757,480.21878289672406 L 965.0133788787376,467.45641931944914 L 951.0157643807934,499.50274147631205 L 937.0181498828491,467.45641931944914 L 904.4601700417111,480.2187828967241 L 917.2225336189861,447.6608030555861 L 885.1762114621231,433.6631885576418 L 917.2225336189861,419.66557405969746 L 904.4601700417111,387.1075942185595 L 937.0181498828491,399.8699577958344 Z" fill="none" stroke="#00A86B" stroke-width="1.8981837040736265" /><path d="M 1097.3258819778384,367.8236356389715 L 1111.3234964757828,399.8699577958344 L 1143.8814763169207,387.1075942185595 L 1131.1191127396457,419.66557405969746 L 1163.1654348965087,433.6631885576418 L 1131.1191127396457,447.6608030555861 L 1143.8814763169207,480.21878289672406 L 1111.3234964757828,467.45641931944914 L 1097.3258819778384,499.50274147631205 L 1083.328267479894,467.45641931944914 L 1050.7702876387561,480.2187828967241 L 1063.5326512160311,447.6608030555861 L 1031.4863290591682,433.6631885576418 L 1063.5326512160311,419.66557405969746 L 1050.7702876387561,387.1075942185595 L 1083.328267479894,399.8699577958344 Z" fill="none" stroke="#00A86B" stroke-width="1.8981837040736265" /><path d="M 1243.6359995748835,367.8236356389715 L 1257.6336140728279,399.8699577958344 L 1290.1915939139658,387.1075942185595 L 1277.4292303366908,419.66557405969746 L 1309.4755524935538,433.6631885576418 L 1277.4292303366908,447.6608030555861 L 1290.1915939139658,480.21878289672406 L 1257.6336140728279,467.45641931944914 L 1243.6359995748835,499.50274147631205 L 1229.6383850769391,467.45641931944914 L 1197.0804052358012,480.2187828967241 L 1209.8427688130762,447.6608030555861 L 1177.7964466562132,433.6631885576418 L 1209.8427688130762,419.66557405969746 L 1197.0804052358012,387.1075942185595 L 1229.6383850769391,399.8699577958344 Z" fill="none" stroke="#00A86B" stroke-width="1.8981837040736265" /><path d="M 4.031509886957118e-15,494.52819747801254 L 13.997614497944289,526.5745196348755 L 46.555594339082326,513.8121560576005 L 33.79323076180736,546.3701358987386 L 65.83955291867031,560.3677503966828 L 33.79323076180736,574.3653648946271 L 46.555594339082326,606.9233447357651 L 13.997614497944289,594.1609811584901 L 4.031509886957118e-15,626.2073033153531 L -13.997614497944285,594.1609811584901 L -46.55559433908232,606.9233447357651 L -33.79323076180735,574.3653648946271 L -65.83955291867031,560.3677503966828 L -33.79323076180735,546.3701358987386 L -46.55559433908233,513.8121560576005 L -13.997614497944307,526.5745196348755 Z" fill="none" stroke="#00A86B" stroke-width="1.8981837040736265" /><path d="M 146.31011759704512,494.52819747801254 L 160.3077320949894,526.5745196348755 L 192.86571193612744,513.8121560576005 L 180.1033483588525,546.3701358987386 L 212.14967051571543,560.3677503966828 L 180.1033483588525,574.3653648946271 L 192.86571193612744,606.9233447357651 L 160.3077320949894,594.1609811584901 L 146.31011759704512,626.2073033153531 L 132.31250309910084,594.1609811584901 L 99.7545232579628,606.9233447357651 L 112.51688683523777,574.3653648946271 L 80.47056467837481,560.3677503966828 L 112.51688683523777,546.3701358987386 L 99.75452325796279,513.8121560576005 L 132.3125030991008,526.5745196348755 Z" fill="none" stroke="#00A86B" stroke-width="1.8981837040736265" /><path d="M 292.62023519409024,494.52819747801254 L 306.61784969203455,526.5745196348755 L 339.1758295331726,513.8121560576005 L 326.4134659558976,546.3701358987386 L 358.4597881127605,560.3677503966828 L 326.4134659558976,574.3653648946271 L 339.1758295331726,606.9233447357651 L 306.61784969203455,594.1609811584901 L 292.62023519409024,626.2073033153531 L 278.62262069614593,594.1609811584901 L 246.06464085500792,606.9233447357651 L 258.8270044322829,574.3653648946271 L 226.78068227541993,560.3677503966828 L 258.8270044322829,546.3701358987386 L 246.0646408550079,513.8121560576005 L 278.62262069614593,526.5745196348755 Z" fill="none" stroke="#00A86B" stroke-width="1.8981837040736265" /><path d="M 438.9303527911353,494.52819747801254 L 452.9279672890796,526.5745196348755 L 485.48594713021765,513.8121560576005 L 472.72358355294267,546.3701358987386 L 504.7699057098056,560.3677503966828 L 472.72358355294267,574.3653648946271 L 485.48594713021765,606.9233447357651 L 452.9279672890796,594.1609811584901 L 438.9303527911353,626.2073033153531 L 424.932738293191,594.1609811584901 L 392.374758452053,606.9233447357651 L 405.13712202932794,574.3653648946271 L 373.090799872465,560.3677503966828 L 405.13712202932794,546.3701358987386 L 392.37475845205296,513.8121560576005 L 424.932738293191,526.5745196348755 Z" fill="none" stroke="#00A86B" stroke-width="1.8981837040736265" /><path d="M 585.2404703881805,494.52819747801254 L 599.2380848861247,526.5745196348755 L 631.7960647272628,513.8121560576005 L 619.0337011499878,546.3701358987386 L 651.0800233068508,560.3677503966828 L 619.0337011499878,574.3653648946271 L 631.7960647272628,606.9233447357651 L 599.2380848861247,594.1609811584901 L 585.2404703881805,626.2073033153531 L 571.2428558902362,594.1609811584901 L 538.6848760490982,606.9233447357651 L 551.4472396263732,574.3653648946271 L 519.4009174695102,560.3677503966828 L 551.4472396263732,546.3701358987386 L 538.6848760490982,513.8121560576005 L 571.2428558902362,526.5745196348755 Z" fill="none" stroke="#00A86B" stroke-width="1.8981837040736265" /><path d="M 731.5505879852255,494.52819747801254 L 745.5482024831698,526.5745196348755 L 778.1061823243078,513.8121560576005 L 765.3438187470329,546.3701358987386 L 797.3901409038958,560.3677503966828 L 765.3438187470329,574.3653648946271 L 778.1061823243078,606.9233447357651 L 745.5482024831698,594.1609811584901 L 731.5505879852255,626.2073033153531 L 717.5529734872813,594.1609811584901 L 684.9949936461433,606.9233447357651 L 697.7573572234182,574.3653648946271 L 665.7110350665553,560.3677503966828 L 697.7573572234182,546.3701358987386 L 684.9949936461433,513.8121560576005 L 717.5529734872813,526.5745196348755 Z" fill="none" stroke="#00A86B" stroke-width="1.8981837040736265" /><path d="M 877.8607055822707,494.52819747801254 L 891.858320080215,526.5745196348755 L 924.416299921353,513.8121560576005 L 911.653936344078,546.3701358987386 L 943.700258500941,560.3677503966828 L 911.653936344078,574.3653648946271 L 924.416299921353,606.9233447357651 L 891.858320080215,594.1609811584901 L 877.8607055822707,626.2073033153531 L 863.8630910843265,594.1609811584901 L 831.3051112431884,606.9233447357651 L 844.0674748204634,574.3653648946271 L 812.0211526636004,560.3677503966828 L 844.0674748204634,546.3701358987386 L 831.3051112431884,513.8121560576005 L 863.8630910843265,526.5745196348755 Z" fill="none" stroke="#00A86B" stroke-width="1.8981837040736265" /><path d="M 1024.170823179316,494.52819747801254 L 1038.1684376772603,526.5745196348755 L 1070.7264175183982,513.8121560576005 L 1057.9640539411232,546.3701358987386 L 1090.0103760979862,560.3677503966828 L 1057.9640539411232,574.3653648946271 L 1070.7264175183982,606.9233447357651 L 1038.1684376772603,594.1609811584901 L 1024.170823179316,626.2073033153531 L 1010.1732086813716,594.1609811584901 L 977.6152288402336,606.9233447357651 L 990.3775924175086,574.3653648946271 L 958.3312702606456,560.3677503966828 L 990.3775924175086,546.3701358987386 L 977.6152288402336,513.8121560576005 L 1010.1732086813716,526.5745196348755 Z" fill="none" stroke="#00A86B" stroke-width="1.8981837040736265" /><path d="M 1170.480940776361,494.52819747801254 L 1184.4785552743053,526.5745196348755 L 1217.0365351154433,513.8121560576005 L 1204.2741715381683,546.3701358987386 L 1236.3204936950312,560.3677503966828 L 1204.2741715381683,574.3653648946271 L 1217.0365351154433,606.9233447357651 L 1184.4785552743053,594.1609811584901 L 1170.480940776361,626.2073033153531 L 1156.4833262784166,594.1609811584901 L 1123.9253464372787,606.9233447357651 L 1136.6877100145537,574.3653648946271 L 1104.6413878576907,560.3677503966828 L 1136.6877100145537,546.3701358987386 L 1123.9253464372787,513.8121560576005 L 1156.4833262784166,526.5745196348755 Z" fill="none" stroke="#00A86B" stroke-width="1.8981837040736265" /><path d="M 1316.791058373406,494.52819747801254 L 1330.7886728713504,526.5745196348755 L 1363.3466527124883,513.8121560576005 L 1350.5842891352133,546.3701358987386 L 1382.6306112920763,560.3677503966828 L 1350.5842891352133,574.3653648946271 L 1363.3466527124883,606.9233447357651 L 1330.7886728713504,594.1609811584901 L 1316.791058373406,626.2073033153531 L 1302.7934438754617,594.1609811584901 L 1270.2354640343237,606.9233447357651 L 1282.9978276115987,574.3653648946271 L 1250.9515054547358,560.3677503966828 L 1282.9978276115987,546.3701358987386 L 1270.2354640343237,513.8121560576005 L 1302.7934438754617,526.5745196348755 Z" fill="none" stroke="#00A86B" stroke-width="1.8981837040736265" /><path d="M -73.15505879852256,621.2327593170536 L -59.15744430057827,653.2790814739166 L -26.599464459440235,640.5167178966416 L -39.3618280367152,673.0746977377796 L -7.315505879852253,687.0723122357239 L -39.3618280367152,701.0699267336681 L -26.599464459440235,733.6279065748062 L -59.15744430057827,720.8655429975312 L -73.15505879852256,752.9118651543941 L -87.15267329646684,720.8655429975312 L -119.71065313760488,733.6279065748062 L -106.94828956032991,701.0699267336681 L -138.99461171719287,687.0723122357239 L -106.94828956032991,673.0746977377796 L -119.7106531376049,640.5167178966416 L -87.15267329646687,653.2790814739166 Z" fill="none" stroke="#00A86B" stroke-width="1.8981837040736265" /><path d="M 73.15505879852256,621.2327593170536 L 87.15267329646684,653.2790814739166 L 119.71065313760488,640.5167178966416 L 106.94828956032993,673.0746977377796 L 138.99461171719287,687.0723122357239 L 106.94828956032993,701.0699267336681 L 119.71065313760488,733.6279065748062 L 87.15267329646684,720.8655429975312 L 73.15505879852256,752.9118651543941 L 59.15744430057828,720.8655429975312 L 26.59946445944024,733.6279065748062 L 39.36182803671521,701.0699267336681 L 7.315505879852253,687.0723122357239 L 39.36182803671521,673.0746977377796 L 26.599464459440227,640.5167178966416 L 59.157444300578256,653.2790814739166 Z" fill="none" stroke="#00A86B" stroke-width="1.8981837040736265" /><path d="M 219.46517639556768,621.2327593170536 L 233.46279089351196,653.2790814739166 L 266.02077073465,640.5167178966416 L 253.25840715737505,673.0746977377796 L 285.304729314238,687.0723122357239 L 253.25840715737505,701.0699267336681 L 266.02077073465,733.6279065748062 L 233.46279089351196,720.8655429975312 L 219.46517639556768,752.9118651543941 L 205.4675618976234,720.8655429975312 L 172.90958205648536,733.6279065748062 L 185.67194563376034,701.0699267336681 L 153.62562347689737,687.0723122357239 L 185.67194563376034,673.0746977377796 L 172.90958205648536,640.5167178966416 L 205.46756189762337,653.2790814739166 Z" fill="none" stroke="#00A86B" stroke-width="1.8981837040736265" /><path d="M 365.7752939926128,621.2327593170536 L 379.7729084905571,653.2790814739166 L 412.3308883316951,640.5167178966416 L 399.56852475442014,673.0746977377796 L 431.61484691128305,687.0723122357239 L 399.56852475442014,701.0699267336681 L 412.3308883316951,733.6279065748062 L 379.7729084905571,720.8655429975312 L 365.7752939926128,752.9118651543941 L 351.77767949466846,720.8655429975312 L 319.2196996535305,733.6279065748062 L 331.9820632308054,701.0699267336681 L 299.9357410739425,687.0723122357239 L 331.9820632308054,673.0746977377796 L 319.2196996535304,640.5167178966416 L 351.77767949466846,653.2790814739166 Z" fill="none" stroke="#00A86B" stroke-width="1.8981837040736265" /><path d="M 512.085411589658,621.2327593170536 L 526.0830260876022,653.2790814739166 L 558.6410059287402,640.5167178966416 L 545.8786423514653,673.0746977377796 L 577.9249645083282,687.0723122357239 L 545.8786423514653,701.0699267336681 L 558.6410059287402,733.6279065748062 L 526.0830260876022,720.8655429975312 L 512.085411589658,752.9118651543941 L 498.08779709171364,720.8655429975312 L 465.52981725057566,733.6279065748062 L 478.2921808278506,701.0699267336681 L 446.2458586709877,687.0723122357239 L 478.2921808278506,673.0746977377796 L 465.5298172505756,640.5167178966416 L 498.08779709171364,653.2790814739166 Z" fill="none" stroke="#00A86B" stroke-width="1.8981837040736265" /><path d="M 658.395529186703,621.2327593170536 L 672.3931436846473,653.2790814739166 L 704.9511235257853,640.5167178966416 L 692.1887599485103,673.0746977377796 L 724.2350821053733,687.0723122357239 L 692.1887599485103,701.0699267336681 L 704.9511235257853,733.6279065748062 L 672.3931436846473,720.8655429975312 L 658.395529186703,752.9118651543941 L 644.3979146887588,720.8655429975312 L 611.8399348476207,733.6279065748062 L 624.6022984248957,701.0699267336681 L 592.5559762680327,687.0723122357239 L 624.6022984248957,673.0746977377796 L 611.8399348476207,640.5167178966416 L 644.3979146887588,653.2790814739166 Z" fill="none" stroke="#00A86B" stroke-width="1.8981837040736265" /><path d="M 804.7056467837482,621.2327593170536 L 818.7032612816924,653.2790814739166 L 851.2612411228305,640.5167178966416 L 838.4988775455555,673.0746977377796 L 870.5451997024185,687.0723122357239 L 838.4988775455555,701.0699267336681 L 851.2612411228305,733.6279065748062 L 818.7032612816924,720.8655429975312 L 804.7056467837482,752.9118651543941 L 790.7080322858039,720.8655429975312 L 758.1500524446659,733.6279065748062 L 770.9124160219409,701.0699267336681 L 738.8660938650779,687.0723122357239 L 770.9124160219409,673.0746977377796 L 758.1500524446659,640.5167178966416 L 790.7080322858039,653.2790814739166 Z" fill="none" stroke="#00A86B" stroke-width="1.8981837040736265" /><path d="M 951.0157643807934,621.2327593170536 L 965.0133788787376,653.2790814739166 L 997.5713587198757,640.5167178966416 L 984.8089951426007,673.0746977377796 L 1016.8553172994636,687.0723122357239 L 984.8089951426007,701.0699267336681 L 997.5713587198757,733.6279065748062 L 965.0133788787376,720.8655429975312 L 951.0157643807934,752.9118651543941 L 937.0181498828491,720.8655429975312 L 904.4601700417111,733.6279065748062 L 917.2225336189861,701.0699267336681 L 885.1762114621231,687.0723122357239 L 917.2225336189861,673.0746977377796 L 904.4601700417111,640.5167178966416 L 937.0181498828491,653.2790814739166 Z" fill="none" stroke="#00A86B" stroke-width="1.8981837040736265" /><path d="M 1097.3258819778384,621.2327593170536 L 1111.3234964757828,653.2790814739166 L 1143.8814763169207,640.5167178966416 L 1131.1191127396457,673.0746977377796 L 1163.1654348965087,687.0723122357239 L 1131.1191127396457,701.0699267336681 L 1143.8814763169207,733.6279065748062 L 1111.3234964757828,720.8655429975312 L 1097.3258819778384,752.9118651543941 L 1083.328267479894,720.8655429975312 L 1050.7702876387561,733.6279065748062 L 1063.5326512160311,701.0699267336681 L 1031.4863290591682,687.0723122357239 L 1063.5326512160311,673.0746977377796 L 1050.7702876387561,640.5167178966416 L 1083.328267479894,653.2790814739166 Z" fill="none" stroke="#00A86B" stroke-width="1.8981837040736265" /><path d="M 1243.6359995748835,621.2327593170536 L 1257.6336140728279,653.2790814739166 L 1290.1915939139658,640.5167178966416 L 1277.4292303366908,673.0746977377796 L 1309.4755524935538,687.0723122357239 L 1277.4292303366908,701.0699267336681 L 1290.1915939139658,733.6279065748062 L 1257.6336140728279,720.8655429975312 L 1243.6359995748835,752.9118651543941 L 1229.6383850769391,720.8655429975312 L 1197.0804052358012,733.6279065748062 L 1209.8427688130762,701.0699267336681 L 1177.7964466562132,687.0723122357239 L 1209.8427688130762,673.0746977377796 L 1197.0804052358012,640.5167178966416 L 1229.6383850769391,653.2790814739166 Z" fill="none" stroke="#00A86B" stroke-width="1.8981837040736265" /><line x1="65.83955291867031" y1="53.549503040518516" x2="80.47056467837481" y2="53.549503040518516" stroke="#00A86B" stroke-width="0.5"/><line x1="212.14967051571543" y1="53.549503040518516" x2="226.78068227541993" y2="53.549503040518516" stroke="#00A86B" stroke-width="0.5"/><line x1="358.4597881127605" y1="53.549503040518516" x2="373.090799872465" y2="53.549503040518516" stroke="#00A86B" stroke-width="0.5"/><line x1="504.7699057098056" y1="53.549503040518516" x2="519.4009174695102" y2="53.549503040518516" stroke="#00A86B" stroke-width="0.5"/><line x1="651.0800233068508" y1="53.549503040518516" x2="665.7110350665553" y2="53.549503040518516" stroke="#00A86B" stroke-width="0.5"/><line x1="797.3901409038958" y1="53.549503040518516" x2="812.0211526636004" y2="53.549503040518516" stroke="#00A86B" stroke-width="0.5"/><line x1="943.700258500941" y1="53.549503040518516" x2="958.3312702606456" y2="53.549503040518516" stroke="#00A86B" stroke-width="0.5"/><line x1="1090.0103760979862" y1="53.549503040518516" x2="1104.6413878576907" y2="53.549503040518516" stroke="#00A86B" stroke-width="0.5"/><line x1="138.99461171719287" y1="180.2540648795596" x2="153.62562347689737" y2="180.2540648795596" stroke="#00A86B" stroke-width="0.5"/><line x1="285.304729314238" y1="180.2540648795596" x2="299.9357410739425" y2="180.2540648795596" stroke="#00A86B" stroke-width="0.5"/><line x1="431.61484691128305" y1="180.2540648795596" x2="446.2458586709877" y2="180.2540648795596" stroke="#00A86B" stroke-width="0.5"/><line x1="577.9249645083282" y1="180.2540648795596" x2="592.5559762680327" y2="180.2540648795596" stroke="#00A86B" stroke-width="0.5"/><line x1="724.2350821053733" y1="180.2540648795596" x2="738.8660938650779" y2="180.2540648795596" stroke="#00A86B" stroke-width="0.5"/><line x1="870.5451997024185" y1="180.2540648795596" x2="885.1762114621231" y2="180.2540648795596" stroke="#00A86B" stroke-width="0.5"/><line x1="1016.8553172994636" y1="180.2540648795596" x2="1031.4863290591682" y2="180.2540648795596" stroke="#00A86B" stroke-width="0.5"/><line x1="1163.1654348965087" y1="180.2540648795596" x2="1177.7964466562132" y2="180.2540648795596" stroke="#00A86B" stroke-width="0.5"/><line x1="65.83955291867031" y1="306.9586267186006" x2="80.47056467837481" y2="306.9586267186006" stroke="#00A86B" stroke-width="0.5"/><line x1="212.14967051571543" y1="306.9586267186006" x2="226.78068227541993" y2="306.9586267186006" stroke="#00A86B" stroke-width="0.5"/><line x1="358.4597881127605" y1="306.9586267186006" x2="373.090799872465" y2="306.9586267186006" stroke="#00A86B" stroke-width="0.5"/><line x1="504.7699057098056" y1="306.9586267186006" x2="519.4009174695102" y2="306.9586267186006" stroke="#00A86B" stroke-width="0.5"/><line x1="651.0800233068508" y1="306.9586267186006" x2="665.7110350665553" y2="306.9586267186006" stroke="#00A86B" stroke-width="0.5"/><line x1="797.3901409038958" y1="306.9586267186006" x2="812.0211526636004" y2="306.9586267186006" stroke="#00A86B" stroke-width="0.5"/><line x1="943.700258500941" y1="306.9586267186006" x2="958.3312702606456" y2="306.9586267186006" stroke="#00A86B" stroke-width="0.5"/><line x1="1090.0103760979862" y1="306.9586267186006" x2="1104.6413878576907" y2="306.9586267186006" stroke="#00A86B" stroke-width="0.5"/><line x1="138.99461171719287" y1="433.6631885576418" x2="153.62562347689737" y2="433.6631885576418" stroke="#00A86B" stroke-width="0.5"/><line x1="285.304729314238" y1="433.6631885576418" x2="299.9357410739425" y2="433.6631885576418" stroke="#00A86B" stroke-width="0.5"/><line x1="431.61484691128305" y1="433.6631885576418" x2="446.2458586709877" y2="433.6631885576418" stroke="#00A86B" stroke-width="0.5"/><line x1="577.9249645083282" y1="433.6631885576418" x2="592.5559762680327" y2="433.6631885576418" stroke="#00A86B" stroke-width="0.5"/><line x1="724.2350821053733" y1="433.6631885576418" x2="738.8660938650779" y2="433.6631885576418" stroke="#00A86B" stroke-width="0.5"/><line x1="870.5451997024185" y1="433.6631885576418" x2="885.1762114621231" y2="433.6631885576418" stroke="#00A86B" stroke-width="0.5"/><line x1="1016.8553172994636" y1="433.6631885576418" x2="1031.4863290591682" y2="433.6631885576418" stroke="#00A86B" stroke-width="0.5"/><line x1="1163.1654348965087" y1="433.6631885576418" x2="1177.7964466562132" y2="433.6631885576418" stroke="#00A86B" stroke-width="0.5"/><line x1="65.83955291867031" y1="560.3677503966828" x2="80.47056467837481" y2="560.3677503966828" stroke="#00A86B" stroke-width="0.5"/><line x1="212.14967051571543" y1="560.3677503966828" x2="226.78068227541993" y2="560.3677503966828" stroke="#00A86B" stroke-width="0.5"/><line x1="358.4597881127605" y1="560.3677503966828" x2="373.090799872465" y2="560.3677503966828" stroke="#00A86B" stroke-width="0.5"/><line x1="504.7699057098056" y1="560.3677503966828" x2="519.4009174695102" y2="560.3677503966828" stroke="#00A86B" stroke-width="0.5"/><line x1="651.0800233068508" y1="560.3677503966828" x2="665.7110350665553" y2="560.3677503966828" stroke="#00A86B" stroke-width="0.5"/><line x1="797.3901409038958" y1="560.3677503966828" x2="812.0211526636004" y2="560.3677503966828" stroke="#00A86B" stroke-width="0.5"/><line x1="943.700258500941" y1="560.3677503966828" x2="958.3312702606456" y2="560.3677503966828" stroke="#00A86B" stroke-width="0.5"/><line x1="1090.0103760979862" y1="560.3677503966828" x2="1104.6413878576907" y2="560.3677503966828" stroke="#00A86B" stroke-width="0.5"/></g><g opacity="0.15606152420214447"><path d="M 523.495656495679 86.76475707756578 L 523.495656495679 54.39573451236967 L 608.9709755662242 54.39573451236967 L 608.9709755662242 0" fill="none" stroke="#FFFFFF" stroke-width="1.7861208921699416" stroke-linecap="square"/><path d="M 3.538656236389026 158.47551475673706 L 78.56006135341048 158.47551475673706 L 78.56006135341048 102.83974073239096" fill="none" stroke="#FFFFFF" stroke-width="1.7861208921699416" stroke-linecap="square"/><path d="M 1128.834486533345 205.3970325949588 L 1128.834486533345 125.44638370753039 L 1052.3752318670204 125.44638370753039" fill="none" stroke="#FFFFFF" stroke-width="1.7861208921699416" stroke-linecap="square"/><path d="M 977.9417042517763 451.8118431287873 L 881.9192130834242 451.8118431287873 L 881.9192130834242 502.28608184494624 L 791.1602574053643 502.28608184494624" fill="none" stroke="#FFFFFF" stroke-width="1.7861208921699416" stroke-linecap="square"/><path d="M 233.2941056384212 10.900902455160814 L 233.2941056384212 0 L 151.81946037710782 0" fill="none" stroke="#FFFFFF" stroke-width="1.7861208921699416" stroke-linecap="square"/><path d="M 351.13778130669976 98.16916112702766 L 351.13778130669976 142.80493243786972 L 386.06116433262827 142.80493243786972 L 386.06116433262827 189.73600356827734" fill="none" stroke="#FFFFFF" stroke-width="1.7861208921699416" stroke-linecap="square"/><path d="M 204.52008256899197 272.187682218937 L 204.52008256899197 210.23535389905476 L 276.5350881160511 210.23535389905476 L 276.5350881160511 116.71959593198008" fill="none" stroke="#FFFFFF" stroke-width="1.7861208921699416" stroke-linecap="square"/><path d="M 1071.3373666030063 437.87947317486606 L 1071.3373666030063 367.7674659712403 L 990.0661122783929 367.7674659712403 L 990.0661122783929 314.1311256999212" fill="none" stroke="#FFFFFF" stroke-width="1.7861208921699416" stroke-linecap="square"/><path d="M 1105.936575450905 23.55772377157478 L 1049.4301473098503 23.55772377157478 L 1049.4301473098503 57.57903419498897 L 976.4039816359464 57.57903419498897" fill="none" stroke="#FFFFFF" stroke-width="1.7861208921699416" stroke-linecap="square"/><path d="M 935.2264885489021 399.5033277941418 L 894.4889672631141 399.5033277941418 L 894.4889672631141 365.0693610157538 L 977.3067907569667 365.0693610157538" fill="none" stroke="#FFFFFF" stroke-width="1.7861208921699416" stroke-linecap="square"/><path d="M 247.17836391515021 570.9463810599159 L 247.17836391515021 615.3104955622978 L 316.1673061141926 615.3104955622978 L 316.1673061141926 630" fill="none" stroke="#FFFFFF" stroke-width="1.7861208921699416" stroke-linecap="square"/><line x1="751.3877752941977" y1="87.83410982407355" x2="751.3877752941977" y2="330.1483742343953" stroke="#FFFFFF" stroke-width="0.5" stroke-dasharray="5,10"/><line x1="101.24228601401778" y1="149.38749797148049" x2="425.3704943253522" y2="149.38749797148049" stroke="#FFFFFF" stroke-width="0.5" stroke-dasharray="5,10"/><circle cx="608.9709755662242" cy="0" r="4.880493642240992" fill="#FFFFFF"/><circle cx="523.495656495679" cy="86.76475707756578" r="3.9043949137927942" fill="#FFFFFF"/><circle cx="1052.3752318670204" cy="125.44638370753039" r="4.880493642240992" fill="#FFFFFF"/><circle cx="1128.834486533345" cy="205.3970325949588" r="3.9043949137927942" fill="#FFFFFF"/><rect x="877.0387194411833" y="497.40558820270525" width="9.760987284481985" height="9.760987284481985" fill="#FFFFFF"/><circle cx="276.5350881160511" cy="116.71959593198008" r="4.880493642240992" fill="#FFFFFF"/><circle cx="204.52008256899197" cy="272.187682218937" r="3.9043949137927942" fill="#FFFFFF"/><rect x="1066.4568729607654" y="362.8869723289993" width="9.760987284481985" height="9.760987284481985" fill="#FFFFFF"/><rect x="985.185618636152" y="362.8869723289993" width="9.760987284481985" height="9.760987284481985" fill="#FFFFFF"/><circle cx="976.4039816359464" cy="57.57903419498897" r="4.880493642240992" fill="#FFFFFF"/><circle cx="977.3067907569667" cy="365.0693610157538" r="4.880493642240992" fill="#FFFFFF"/><rect x="638.7435793025115" y="415.5832312600569" width="13.354469117043388" height="13.354469117043388" fill="#FFFFFF"/><rect x="278.68724999589256" y="45.02183096418245" width="14.379192901411598" height="14.379192901411598" fill="#FFFFFF"/><circle cx="434.2927338715143" cy="628.3111849372793" r="6.849411340196328" fill="#FFFFFF"/><rect x="722.9511722401135" y="137.87514028279068" width="17.68827814955286" height="17.68827814955286" fill="#FFFFFF"/><circle cx="901.9917373089082" cy="63.483445673940444" r="5.736954343156865" fill="#FFFFFF"/></g><g opacity="0.2"><rect x="40" y="40" width="1120" height="550" fill="none" stroke="#666666" stroke-width="2" rx="8"/></g><g opacity="0.526257038128682"><line x1="50" y1="50" x2="70" y2="50" stroke="#00D486" stroke-width="3"/><line x1="50" y1="50" x2="50" y2="70" stroke="#00D486" stroke-width="3"/><line x1="1150" y1="580" x2="1130" y2="580" stroke="#00D486" stroke-width="3"/><line x1="1150" y1="580" x2="1150" y2="560" stroke="#00D486" stroke-width="3"/></g></svg>