<svg xmlns="http://www.w3.org/2000/svg" width="1200" height="630" viewBox="0 0 1200 630"><rect x="0" y="0" width="1200" height="630" fill="#000000"/><g opacity="0.05"><line x1="0" y1="0" x2="0" y2="630" stroke="#444444" stroke-width="0.5"/><line x1="60" y1="0" x2="60" y2="630" stroke="#444444" stroke-width="0.5"/><line x1="120" y1="0" x2="120" y2="630" stroke="#444444" stroke-width="0.5"/><line x1="180" y1="0" x2="180" y2="630" stroke="#444444" stroke-width="0.5"/><line x1="240" y1="0" x2="240" y2="630" stroke="#444444" stroke-width="0.5"/><line x1="300" y1="0" x2="300" y2="630" stroke="#444444" stroke-width="0.5"/><line x1="360" y1="0" x2="360" y2="630" stroke="#444444" stroke-width="0.5"/><line x1="420" y1="0" x2="420" y2="630" stroke="#444444" stroke-width="0.5"/><line x1="480" y1="0" x2="480" y2="630" stroke="#444444" stroke-width="0.5"/><line x1="540" y1="0" x2="540" y2="630" stroke="#444444" stroke-width="0.5"/><line x1="600" y1="0" x2="600" y2="630" stroke="#444444" stroke-width="0.5"/><line x1="660" y1="0" x2="660" y2="630" stroke="#444444" stroke-width="0.5"/><line x1="720" y1="0" x2="720" y2="630" stroke="#444444" stroke-width="0.5"/><line x1="780" y1="0" x2="780" y2="630" stroke="#444444" stroke-width="0.5"/><line x1="840" y1="0" x2="840" y2="630" stroke="#444444" stroke-width="0.5"/><line x1="900" y1="0" x2="900" y2="630" stroke="#444444" stroke-width="0.5"/><line x1="960" y1="0" x2="960" y2="630" stroke="#444444" stroke-width="0.5"/><line x1="1020" y1="0" x2="1020" y2="630" stroke="#444444" stroke-width="0.5"/><line x1="1080" y1="0" x2="1080" y2="630" stroke="#444444" stroke-width="0.5"/><line x1="1140" y1="0" x2="1140" y2="630" stroke="#444444" stroke-width="0.5"/><line x1="1200" y1="0" x2="1200" y2="630" stroke="#444444" stroke-width="0.5"/><line x1="0" y1="0" x2="1200" y2="0" stroke="#444444" stroke-width="0.5"/><line x1="0" y1="60" x2="1200" y2="60" stroke="#444444" stroke-width="0.5"/><line x1="0" y1="120" x2="1200" y2="120" stroke="#444444" stroke-width="0.5"/><line x1="0" y1="180" x2="1200" y2="180" stroke="#444444" stroke-width="0.5"/><line x1="0" y1="240" x2="1200" y2="240" stroke="#444444" stroke-width="0.5"/><line x1="0" y1="300" x2="1200" y2="300" stroke="#444444" stroke-width="0.5"/><line x1="0" y1="360" x2="1200" y2="360" stroke="#444444" stroke-width="0.5"/><line x1="0" y1="420" x2="1200" y2="420" stroke="#444444" stroke-width="0.5"/><line x1="0" y1="480" x2="1200" y2="480" stroke="#444444" stroke-width="0.5"/><line x1="0" y1="540" x2="1200" y2="540" stroke="#444444" stroke-width="0.5"/><line x1="0" y1="600" x2="1200" y2="600" stroke="#444444" stroke-width="0.5"/><line x1="0" y1="660" x2="1200" y2="660" stroke="#444444" stroke-width="0.5"/></g><g opacity="0.1360433698101171"><path d="M -52.57935535389022,-99.90077517239142 L -42.51873126470498,-76.86785047593868 L -19.11805850485254,-86.0406522029279 L -28.290860231841762,-62.639979443075454 L -5.257935535389024,-52.57935535389022 L -28.290860231841762,-42.51873126470499 L -19.11805850485254,-19.11805850485254 L -42.51873126470498,-28.290860231841762 L -52.57935535389022,-5.257935535389024 L -62.639979443075454,-28.290860231841762 L -86.0406522029279,-19.11805850485254 L -76.86785047593867,-42.518731264704975 L -99.90077517239142,-52.579355353890215 L -76.86785047593868,-62.63997944307546 L -86.0406522029279,-86.0406522029279 L -62.639979443075475,-76.86785047593867 Z" fill="none" stroke="#FFFFFF" stroke-width="2.4337192186777106" /><path d="M 52.57935535389022,-99.90077517239142 L 62.63997944307546,-76.86785047593868 L 86.0406522029279,-86.0406522029279 L 76.86785047593868,-62.639979443075454 L 99.90077517239142,-52.57935535389022 L 76.86785047593868,-42.51873126470499 L 86.0406522029279,-19.11805850485254 L 62.63997944307546,-28.290860231841762 L 52.57935535389022,-5.257935535389024 L 42.51873126470499,-28.290860231841762 L 19.11805850485254,-19.11805850485254 L 28.29086023184177,-42.518731264704975 L 5.257935535389024,-52.579355353890215 L 28.290860231841766,-62.63997944307546 L 19.118058504852534,-86.0406522029279 L 42.51873126470497,-76.86785047593867 Z" fill="none" stroke="#FFFFFF" stroke-width="2.4337192186777106" /><path d="M 157.73806606167068,-99.90077517239142 L 167.79869015085592,-76.86785047593868 L 191.19936291070837,-86.0406522029279 L 182.02656118371914,-62.639979443075454 L 205.05948588017188,-52.57935535389022 L 182.02656118371914,-42.51873126470499 L 191.19936291070837,-19.11805850485254 L 167.79869015085592,-28.290860231841762 L 157.73806606167068,-5.257935535389024 L 147.67744197248544,-28.290860231841762 L 124.276769212633,-19.11805850485254 L 133.44957093962222,-42.518731264704975 L 110.41664624316948,-52.579355353890215 L 133.44957093962222,-62.63997944307546 L 124.27676921263298,-86.0406522029279 L 147.67744197248544,-76.86785047593867 Z" fill="none" stroke="#FFFFFF" stroke-width="2.4337192186777106" /><path d="M 262.89677676945115,-99.90077517239142 L 272.9574008586364,-76.86785047593868 L 296.35807361848885,-86.0406522029279 L 287.1852718914996,-62.639979443075454 L 310.2181965879523,-52.57935535389022 L 287.1852718914996,-42.51873126470499 L 296.35807361848885,-19.11805850485254 L 272.9574008586364,-28.290860231841762 L 262.89677676945115,-5.257935535389024 L 252.8361526802659,-28.290860231841762 L 229.43547992041346,-19.11805850485254 L 238.6082816474027,-42.518731264704975 L 215.57535695094995,-52.579355353890215 L 238.6082816474027,-62.63997944307546 L 229.43547992041346,-86.0406522029279 L 252.8361526802659,-76.86785047593867 Z" fill="none" stroke="#FFFFFF" stroke-width="2.4337192186777106" /><path d="M 368.05548747723157,-99.90077517239142 L 378.1161115664168,-76.86785047593868 L 401.51678432626926,-86.0406522029279 L 392.34398259928,-62.639979443075454 L 415.37690729573274,-52.57935535389022 L 392.34398259928,-42.51873126470499 L 401.51678432626926,-19.11805850485254 L 378.1161115664168,-28.290860231841762 L 368.05548747723157,-5.257935535389024 L 357.9948633880463,-28.290860231841762 L 334.59419062819387,-19.11805850485254 L 343.7669923551831,-42.518731264704975 L 320.7340676587304,-52.579355353890215 L 343.7669923551831,-62.63997944307546 L 334.59419062819387,-86.0406522029279 L 357.9948633880463,-76.86785047593867 Z" fill="none" stroke="#FFFFFF" stroke-width="2.4337192186777106" /><path d="M 473.214198185012,-99.90077517239142 L 483.2748222741972,-76.86785047593868 L 506.6754950340497,-86.0406522029279 L 497.50269330706044,-62.639979443075454 L 520.5356180035132,-52.57935535389022 L 497.50269330706044,-42.51873126470499 L 506.6754950340497,-19.11805850485254 L 483.2748222741972,-28.290860231841762 L 473.214198185012,-5.257935535389024 L 463.15357409582674,-28.290860231841762 L 439.7529013359743,-19.11805850485254 L 448.9257030629635,-42.518731264704975 L 425.8927783665108,-52.579355353890215 L 448.9257030629635,-62.63997944307546 L 439.7529013359743,-86.0406522029279 L 463.15357409582674,-76.86785047593867 Z" fill="none" stroke="#FFFFFF" stroke-width="2.4337192186777106" /><path d="M 578.3729088927925,-99.90077517239142 L 588.4335329819777,-76.86785047593868 L 611.8342057418301,-86.0406522029279 L 602.6614040148409,-62.639979443075454 L 625.6943287112937,-52.57935535389022 L 602.6614040148409,-42.51873126470499 L 611.8342057418301,-19.11805850485254 L 588.4335329819777,-28.290860231841762 L 578.3729088927925,-5.257935535389024 L 568.3122848036072,-28.290860231841762 L 544.9116120437548,-19.11805850485254 L 554.084413770744,-42.518731264704975 L 531.0514890742912,-52.579355353890215 L 554.084413770744,-62.63997944307546 L 544.9116120437548,-86.0406522029279 L 568.3122848036072,-76.86785047593867 Z" fill="none" stroke="#FFFFFF" stroke-width="2.4337192186777106" /><path d="M 683.5316196005729,-99.90077517239142 L 693.5922436897581,-76.86785047593868 L 716.9929164496106,-86.0406522029279 L 707.8201147226214,-62.639979443075454 L 730.8530394190741,-52.57935535389022 L 707.8201147226214,-42.51873126470499 L 716.9929164496106,-19.11805850485254 L 693.5922436897581,-28.290860231841762 L 683.5316196005729,-5.257935535389024 L 673.4709955113876,-28.290860231841762 L 650.0703227515352,-19.11805850485254 L 659.2431244785245,-42.518731264704975 L 636.2101997820716,-52.579355353890215 L 659.2431244785245,-62.63997944307546 L 650.0703227515352,-86.0406522029279 L 673.4709955113876,-76.86785047593867 Z" fill="none" stroke="#FFFFFF" stroke-width="2.4337192186777106" /><path d="M 788.6903303083533,-99.90077517239142 L 798.7509543975385,-76.86785047593868 L 822.151627157391,-86.0406522029279 L 812.9788254304017,-62.639979443075454 L 836.0117501268545,-52.57935535389022 L 812.9788254304017,-42.51873126470499 L 822.151627157391,-19.11805850485254 L 798.7509543975385,-28.290860231841762 L 788.6903303083533,-5.257935535389024 L 778.629706219168,-28.290860231841762 L 755.2290334593156,-19.11805850485254 L 764.4018351863049,-42.518731264704975 L 741.368910489852,-52.579355353890215 L 764.4018351863049,-62.63997944307546 L 755.2290334593156,-86.0406522029279 L 778.629706219168,-76.86785047593867 Z" fill="none" stroke="#FFFFFF" stroke-width="2.4337192186777106" /><path d="M 893.8490410161337,-99.90077517239142 L 903.9096651053189,-76.86785047593868 L 927.3103378651714,-86.0406522029279 L 918.1375361381822,-62.639979443075454 L 941.1704608346349,-52.57935535389022 L 918.1375361381822,-42.51873126470499 L 927.3103378651714,-19.11805850485254 L 903.9096651053189,-28.290860231841762 L 893.8490410161337,-5.257935535389024 L 883.7884169269485,-28.290860231841762 L 860.387744167096,-19.11805850485254 L 869.5605458940853,-42.518731264704975 L 846.5276211976325,-52.579355353890215 L 869.5605458940853,-62.63997944307546 L 860.387744167096,-86.0406522029279 L 883.7884169269485,-76.86785047593867 Z" fill="none" stroke="#FFFFFF" stroke-width="2.4337192186777106" /><path d="M 999.0077517239141,-99.90077517239142 L 1009.0683758130994,-76.86785047593868 L 1032.4690485729518,-86.0406522029279 L 1023.2962468459625,-62.639979443075454 L 1046.3291715424152,-52.57935535389022 L 1023.2962468459625,-42.51873126470499 L 1032.4690485729518,-19.11805850485254 L 1009.0683758130994,-28.290860231841762 L 999.0077517239141,-5.257935535389024 L 988.9471276347289,-28.290860231841762 L 965.5464548748764,-19.11805850485254 L 974.7192566018657,-42.518731264704975 L 951.6863319054129,-52.579355353890215 L 974.7192566018657,-62.63997944307546 L 965.5464548748764,-86.0406522029279 L 988.9471276347289,-76.86785047593867 Z" fill="none" stroke="#FFFFFF" stroke-width="2.4337192186777106" /><path d="M 1104.1664624316948,-99.90077517239142 L 1114.22708652088,-76.86785047593868 L 1137.6277592807323,-86.0406522029279 L 1128.4549575537433,-62.639979443075454 L 1151.487882250196,-52.57935535389022 L 1128.4549575537433,-42.51873126470499 L 1137.6277592807323,-19.11805850485254 L 1114.22708652088,-28.290860231841762 L 1104.1664624316948,-5.257935535389024 L 1094.1058383425095,-28.290860231841762 L 1070.7051655826572,-19.11805850485254 L 1079.8779673096462,-42.518731264704975 L 1056.8450426131935,-52.579355353890215 L 1079.8779673096462,-62.63997944307546 L 1070.7051655826572,-86.0406522029279 L 1094.1058383425095,-76.86785047593867 Z" fill="none" stroke="#FFFFFF" stroke-width="2.4337192186777106" /><path d="M 1209.3251731394753,-99.90077517239142 L 1219.3857972286605,-76.86785047593868 L 1242.7864699885129,-86.0406522029279 L 1233.6136682615238,-62.639979443075454 L 1256.6465929579765,-52.57935535389022 L 1233.6136682615238,-42.51873126470499 L 1242.7864699885129,-19.11805850485254 L 1219.3857972286605,-28.290860231841762 L 1209.3251731394753,-5.257935535389024 L 1199.26454905029,-28.290860231841762 L 1175.8638762904377,-19.11805850485254 L 1185.0366780174268,-42.518731264704975 L 1162.003753320974,-52.579355353890215 L 1185.0366780174268,-62.63997944307546 L 1175.8638762904377,-86.0406522029279 L 1199.26454905029,-76.86785047593867 Z" fill="none" stroke="#FFFFFF" stroke-width="2.4337192186777106" /><path d="M 2.8976012655917807e-15,-8.833331699453552 L 10.060624089185236,14.199592996999186 L 33.46129684903768,5.026791270009966 L 24.28849512204846,28.427464029862413 L 47.3214198185012,38.488088119047646 L 24.28849512204846,48.54871220823288 L 33.46129684903768,71.94938496808533 L 10.060624089185236,62.776583241096105 L 2.8976012655917807e-15,85.80950793754884 L -10.060624089185234,62.776583241096105 L -33.46129684903768,71.94938496808533 L -24.288495122048452,48.54871220823289 L -47.3214198185012,38.48808811904765 L -24.288495122048456,28.427464029862403 L -33.46129684903769,5.026791270009966 L -10.06062408918525,14.199592996999193 Z" fill="none" stroke="#FFFFFF" stroke-width="2.4337192186777106" /><path d="M 105.15871070778044,-8.833331699453552 L 115.21933479696568,14.199592996999186 L 138.6200075568181,5.026791270009966 L 129.4472058298289,28.427464029862413 L 152.48013052628164,38.488088119047646 L 129.4472058298289,48.54871220823288 L 138.6200075568181,71.94938496808533 L 115.21933479696568,62.776583241096105 L 105.15871070778044,85.80950793754884 L 95.0980866185952,62.776583241096105 L 71.69741385874276,71.94938496808533 L 80.87021558573198,48.54871220823289 L 57.837290889279245,38.48808811904765 L 80.87021558573198,28.427464029862403 L 71.69741385874275,5.026791270009966 L 95.09808661859519,14.199592996999193 Z" fill="none" stroke="#FFFFFF" stroke-width="2.4337192186777106" /><path d="M 210.3174214155609,-8.833331699453552 L 220.37804550474613,14.199592996999186 L 243.77871826459858,5.026791270009966 L 234.60591653760935,28.427464029862413 L 257.63884123406206,38.488088119047646 L 234.60591653760935,48.54871220823288 L 243.77871826459858,71.94938496808533 L 220.37804550474613,62.776583241096105 L 210.3174214155609,85.80950793754884 L 200.25679732637565,62.776583241096105 L 176.8561245665232,71.94938496808533 L 186.02892629351243,48.54871220823289 L 162.9960015970597,38.48808811904765 L 186.02892629351243,28.427464029862403 L 176.8561245665232,5.026791270009966 L 200.25679732637565,14.199592996999193 Z" fill="none" stroke="#FFFFFF" stroke-width="2.4337192186777106" /><path d="M 315.47613212334136,-8.833331699453552 L 325.5367562125266,14.199592996999186 L 348.93742897237905,5.026791270009966 L 339.7646272453898,28.427464029862413 L 362.7975519418426,38.488088119047646 L 339.7646272453898,48.54871220823288 L 348.93742897237905,71.94938496808533 L 325.5367562125266,62.776583241096105 L 315.47613212334136,85.80950793754884 L 305.4155080341561,62.776583241096105 L 282.01483527430366,71.94938496808533 L 291.1876370012929,48.54871220823289 L 268.15471230484013,38.48808811904765 L 291.1876370012929,28.427464029862403 L 282.01483527430366,5.026791270009966 L 305.4155080341561,14.199592996999193 Z" fill="none" stroke="#FFFFFF" stroke-width="2.4337192186777106" /><path d="M 420.6348428311218,-8.833331699453552 L 430.695466920307,14.199592996999186 L 454.09613968015947,5.026791270009966 L 444.92333795317023,28.427464029862413 L 467.956262649623,38.488088119047646 L 444.92333795317023,48.54871220823288 L 454.09613968015947,71.94938496808533 L 430.695466920307,62.776583241096105 L 420.6348428311218,85.80950793754884 L 410.57421874193653,62.776583241096105 L 387.1735459820841,71.94938496808533 L 396.3463477090733,48.54871220823289 L 373.31342301262055,38.48808811904765 L 396.3463477090733,28.427464029862403 L 387.1735459820841,5.026791270009966 L 410.57421874193653,14.199592996999193 Z" fill="none" stroke="#FFFFFF" stroke-width="2.4337192186777106" /><path d="M 525.7935535389022,-8.833331699453552 L 535.8541776280874,14.199592996999186 L 559.2548503879399,5.026791270009966 L 550.0820486609507,28.427464029862413 L 573.1149733574034,38.488088119047646 L 550.0820486609507,48.54871220823288 L 559.2548503879399,71.94938496808533 L 535.8541776280874,62.776583241096105 L 525.7935535389022,85.80950793754884 L 515.732929449717,62.776583241096105 L 492.3322566898645,71.94938496808533 L 501.50505841685373,48.54871220823289 L 478.47213372040096,38.48808811904765 L 501.50505841685373,28.427464029862403 L 492.3322566898645,5.026791270009966 L 515.732929449717,14.199592996999193 Z" fill="none" stroke="#FFFFFF" stroke-width="2.4337192186777106" /><path d="M 630.9522642466827,-8.833331699453552 L 641.012888335868,14.199592996999186 L 664.4135610957204,5.026791270009966 L 655.2407593687312,28.427464029862413 L 678.2736840651839,38.488088119047646 L 655.2407593687312,48.54871220823288 L 664.4135610957204,71.94938496808533 L 641.012888335868,62.776583241096105 L 630.9522642466827,85.80950793754884 L 620.8916401574975,62.776583241096105 L 597.490967397645,71.94938496808533 L 606.6637691246343,48.54871220823289 L 583.6308444281815,38.48808811904765 L 606.6637691246343,28.427464029862403 L 597.490967397645,5.026791270009966 L 620.8916401574975,14.199592996999193 Z" fill="none" stroke="#FFFFFF" stroke-width="2.4337192186777106" /><path d="M 736.1109749544631,-8.833331699453552 L 746.1715990436484,14.199592996999186 L 769.5722718035008,5.026791270009966 L 760.3994700765115,28.427464029862413 L 783.4323947729644,38.488088119047646 L 760.3994700765115,48.54871220823288 L 769.5722718035008,71.94938496808533 L 746.1715990436484,62.776583241096105 L 736.1109749544631,85.80950793754884 L 726.0503508652779,62.776583241096105 L 702.6496781054254,71.94938496808533 L 711.8224798324147,48.54871220823289 L 688.7895551359619,38.48808811904765 L 711.8224798324147,28.427464029862403 L 702.6496781054254,5.026791270009966 L 726.0503508652779,14.199592996999193 Z" fill="none" stroke="#FFFFFF" stroke-width="2.4337192186777106" /><path d="M 841.2696856622435,-8.833331699453552 L 851.3303097514288,14.199592996999186 L 874.7309825112812,5.026791270009966 L 865.5581807842921,28.427464029862413 L 888.5911054807448,38.488088119047646 L 865.5581807842921,48.54871220823288 L 874.7309825112812,71.94938496808533 L 851.3303097514288,62.776583241096105 L 841.2696856622435,85.80950793754884 L 831.2090615730583,62.776583241096105 L 807.8083888132059,71.94938496808533 L 816.9811905401951,48.54871220823289 L 793.9482658437423,38.48808811904765 L 816.9811905401951,28.427464029862403 L 807.8083888132059,5.026791270009966 L 831.2090615730583,14.199592996999193 Z" fill="none" stroke="#FFFFFF" stroke-width="2.4337192186777106" /><path d="M 946.428396370024,-8.833331699453552 L 956.4890204592092,14.199592996999186 L 979.8896932190617,5.026791270009966 L 970.7168914920724,28.427464029862413 L 993.7498161885252,38.488088119047646 L 970.7168914920724,48.54871220823288 L 979.8896932190617,71.94938496808533 L 956.4890204592092,62.776583241096105 L 946.428396370024,85.80950793754884 L 936.3677722808387,62.776583241096105 L 912.9670995209863,71.94938496808533 L 922.1399012479756,48.54871220823289 L 899.1069765515227,38.48808811904765 L 922.1399012479756,28.427464029862403 L 912.9670995209863,5.026791270009966 L 936.3677722808387,14.199592996999193 Z" fill="none" stroke="#FFFFFF" stroke-width="2.4337192186777106" /><path d="M 1051.5871070778044,-8.833331699453552 L 1061.6477311669896,14.199592996999186 L 1085.048403926842,5.026791270009966 L 1075.875602199853,28.427464029862413 L 1098.9085268963056,38.488088119047646 L 1075.875602199853,48.54871220823288 L 1085.048403926842,71.94938496808533 L 1061.6477311669896,62.776583241096105 L 1051.5871070778044,85.80950793754884 L 1041.5264829886191,62.776583241096105 L 1018.1258102287667,71.94938496808533 L 1027.2986119557559,48.54871220823289 L 1004.2656872593031,38.48808811904765 L 1027.2986119557559,28.427464029862403 L 1018.1258102287667,5.026791270009966 L 1041.5264829886191,14.199592996999193 Z" fill="none" stroke="#FFFFFF" stroke-width="2.4337192186777106" /><path d="M 1156.745817785585,-8.833331699453552 L 1166.8064418747701,14.199592996999186 L 1190.2071146346225,5.026791270009966 L 1181.0343129076334,28.427464029862413 L 1204.0672376040861,38.488088119047646 L 1181.0343129076334,48.54871220823288 L 1190.2071146346225,71.94938496808533 L 1166.8064418747701,62.776583241096105 L 1156.745817785585,85.80950793754884 L 1146.6851936963997,62.776583241096105 L 1123.2845209365473,71.94938496808533 L 1132.4573226635364,48.54871220823289 L 1109.4243979670837,38.48808811904765 L 1132.4573226635364,28.427464029862403 L 1123.2845209365473,5.026791270009966 L 1146.6851936963997,14.199592996999193 Z" fill="none" stroke="#FFFFFF" stroke-width="2.4337192186777106" /><path d="M 1261.9045284933654,-8.833331699453552 L 1271.9651525825507,14.199592996999186 L 1295.365825342403,5.026791270009966 L 1286.193023615414,28.427464029862413 L 1309.2259483118667,38.488088119047646 L 1286.193023615414,48.54871220823288 L 1295.365825342403,71.94938496808533 L 1271.9651525825507,62.776583241096105 L 1261.9045284933654,85.80950793754884 L 1251.8439044041802,62.776583241096105 L 1228.4432316443279,71.94938496808533 L 1237.616033371317,48.54871220823289 L 1214.5831086748642,38.48808811904765 L 1237.616033371317,28.427464029862403 L 1228.4432316443279,5.026791270009966 L 1251.8439044041802,14.199592996999193 Z" fill="none" stroke="#FFFFFF" stroke-width="2.4337192186777106" /><path d="M -52.57935535389022,82.23411177348433 L -42.51873126470498,105.26703646993707 L -19.11805850485254,96.09423474294785 L -28.290860231841762,119.49490750280029 L -5.257935535389024,129.55553159198553 L -28.290860231841762,139.61615568117077 L -19.11805850485254,163.01682844102322 L -42.51873126470498,153.844026714034 L -52.57935535389022,176.87695141048673 L -62.639979443075454,153.844026714034 L -86.0406522029279,163.01682844102322 L -76.86785047593867,139.61615568117077 L -99.90077517239142,129.55553159198553 L -76.86785047593868,119.49490750280029 L -86.0406522029279,96.09423474294785 L -62.639979443075475,105.26703646993707 Z" fill="none" stroke="#FFFFFF" stroke-width="2.4337192186777106" /><path d="M 52.57935535389022,82.23411177348433 L 62.63997944307546,105.26703646993707 L 86.0406522029279,96.09423474294785 L 76.86785047593868,119.49490750280029 L 99.90077517239142,129.55553159198553 L 76.86785047593868,139.61615568117077 L 86.0406522029279,163.01682844102322 L 62.63997944307546,153.844026714034 L 52.57935535389022,176.87695141048673 L 42.51873126470499,153.844026714034 L 19.11805850485254,163.01682844102322 L 28.29086023184177,139.61615568117077 L 5.257935535389024,129.55553159198553 L 28.290860231841766,119.49490750280029 L 19.118058504852534,96.09423474294785 L 42.51873126470497,105.26703646993707 Z" fill="none" stroke="#FFFFFF" stroke-width="2.4337192186777106" /><path d="M 157.73806606167068,82.23411177348433 L 167.79869015085592,105.26703646993707 L 191.19936291070837,96.09423474294785 L 182.02656118371914,119.49490750280029 L 205.05948588017188,129.55553159198553 L 182.02656118371914,139.61615568117077 L 191.19936291070837,163.01682844102322 L 167.79869015085592,153.844026714034 L 157.73806606167068,176.87695141048673 L 147.67744197248544,153.844026714034 L 124.276769212633,163.01682844102322 L 133.44957093962222,139.61615568117077 L 110.41664624316948,129.55553159198553 L 133.44957093962222,119.49490750280029 L 124.27676921263298,96.09423474294785 L 147.67744197248544,105.26703646993707 Z" fill="none" stroke="#FFFFFF" stroke-width="2.4337192186777106" /><path d="M 262.89677676945115,82.23411177348433 L 272.9574008586364,105.26703646993707 L 296.35807361848885,96.09423474294785 L 287.1852718914996,119.49490750280029 L 310.2181965879523,129.55553159198553 L 287.1852718914996,139.61615568117077 L 296.35807361848885,163.01682844102322 L 272.9574008586364,153.844026714034 L 262.89677676945115,176.87695141048673 L 252.8361526802659,153.844026714034 L 229.43547992041346,163.01682844102322 L 238.6082816474027,139.61615568117077 L 215.57535695094995,129.55553159198553 L 238.6082816474027,119.49490750280029 L 229.43547992041346,96.09423474294785 L 252.8361526802659,105.26703646993707 Z" fill="none" stroke="#FFFFFF" stroke-width="2.4337192186777106" /><path d="M 368.05548747723157,82.23411177348433 L 378.1161115664168,105.26703646993707 L 401.51678432626926,96.09423474294785 L 392.34398259928,119.49490750280029 L 415.37690729573274,129.55553159198553 L 392.34398259928,139.61615568117077 L 401.51678432626926,163.01682844102322 L 378.1161115664168,153.844026714034 L 368.05548747723157,176.87695141048673 L 357.9948633880463,153.844026714034 L 334.59419062819387,163.01682844102322 L 343.7669923551831,139.61615568117077 L 320.7340676587304,129.55553159198553 L 343.7669923551831,119.49490750280029 L 334.59419062819387,96.09423474294785 L 357.9948633880463,105.26703646993707 Z" fill="none" stroke="#FFFFFF" stroke-width="2.4337192186777106" /><path d="M 473.214198185012,82.23411177348433 L 483.2748222741972,105.26703646993707 L 506.6754950340497,96.09423474294785 L 497.50269330706044,119.49490750280029 L 520.5356180035132,129.55553159198553 L 497.50269330706044,139.61615568117077 L 506.6754950340497,163.01682844102322 L 483.2748222741972,153.844026714034 L 473.214198185012,176.87695141048673 L 463.15357409582674,153.844026714034 L 439.7529013359743,163.01682844102322 L 448.9257030629635,139.61615568117077 L 425.8927783665108,129.55553159198553 L 448.9257030629635,119.49490750280029 L 439.7529013359743,96.09423474294785 L 463.15357409582674,105.26703646993707 Z" fill="none" stroke="#FFFFFF" stroke-width="2.4337192186777106" /><path d="M 578.3729088927925,82.23411177348433 L 588.4335329819777,105.26703646993707 L 611.8342057418301,96.09423474294785 L 602.6614040148409,119.49490750280029 L 625.6943287112937,129.55553159198553 L 602.6614040148409,139.61615568117077 L 611.8342057418301,163.01682844102322 L 588.4335329819777,153.844026714034 L 578.3729088927925,176.87695141048673 L 568.3122848036072,153.844026714034 L 544.9116120437548,163.01682844102322 L 554.084413770744,139.61615568117077 L 531.0514890742912,129.55553159198553 L 554.084413770744,119.49490750280029 L 544.9116120437548,96.09423474294785 L 568.3122848036072,105.26703646993707 Z" fill="none" stroke="#FFFFFF" stroke-width="2.4337192186777106" /><path d="M 683.5316196005729,82.23411177348433 L 693.5922436897581,105.26703646993707 L 716.9929164496106,96.09423474294785 L 707.8201147226214,119.49490750280029 L 730.8530394190741,129.55553159198553 L 707.8201147226214,139.61615568117077 L 716.9929164496106,163.01682844102322 L 693.5922436897581,153.844026714034 L 683.5316196005729,176.87695141048673 L 673.4709955113876,153.844026714034 L 650.0703227515352,163.01682844102322 L 659.2431244785245,139.61615568117077 L 636.2101997820716,129.55553159198553 L 659.2431244785245,119.49490750280029 L 650.0703227515352,96.09423474294785 L 673.4709955113876,105.26703646993707 Z" fill="none" stroke="#FFFFFF" stroke-width="2.4337192186777106" /><path d="M 788.6903303083533,82.23411177348433 L 798.7509543975385,105.26703646993707 L 822.151627157391,96.09423474294785 L 812.9788254304017,119.49490750280029 L 836.0117501268545,129.55553159198553 L 812.9788254304017,139.61615568117077 L 822.151627157391,163.01682844102322 L 798.7509543975385,153.844026714034 L 788.6903303083533,176.87695141048673 L 778.629706219168,153.844026714034 L 755.2290334593156,163.01682844102322 L 764.4018351863049,139.61615568117077 L 741.368910489852,129.55553159198553 L 764.4018351863049,119.49490750280029 L 755.2290334593156,96.09423474294785 L 778.629706219168,105.26703646993707 Z" fill="none" stroke="#FFFFFF" stroke-width="2.4337192186777106" /><path d="M 893.8490410161337,82.23411177348433 L 903.9096651053189,105.26703646993707 L 927.3103378651714,96.09423474294785 L 918.1375361381822,119.49490750280029 L 941.1704608346349,129.55553159198553 L 918.1375361381822,139.61615568117077 L 927.3103378651714,163.01682844102322 L 903.9096651053189,153.844026714034 L 893.8490410161337,176.87695141048673 L 883.7884169269485,153.844026714034 L 860.387744167096,163.01682844102322 L 869.5605458940853,139.61615568117077 L 846.5276211976325,129.55553159198553 L 869.5605458940853,119.49490750280029 L 860.387744167096,96.09423474294785 L 883.7884169269485,105.26703646993707 Z" fill="none" stroke="#FFFFFF" stroke-width="2.4337192186777106" /><path d="M 999.0077517239141,82.23411177348433 L 1009.0683758130994,105.26703646993707 L 1032.4690485729518,96.09423474294785 L 1023.2962468459625,119.49490750280029 L 1046.3291715424152,129.55553159198553 L 1023.2962468459625,139.61615568117077 L 1032.4690485729518,163.01682844102322 L 1009.0683758130994,153.844026714034 L 999.0077517239141,176.87695141048673 L 988.9471276347289,153.844026714034 L 965.5464548748764,163.01682844102322 L 974.7192566018657,139.61615568117077 L 951.6863319054129,129.55553159198553 L 974.7192566018657,119.49490750280029 L 965.5464548748764,96.09423474294785 L 988.9471276347289,105.26703646993707 Z" fill="none" stroke="#FFFFFF" stroke-width="2.4337192186777106" /><path d="M 1104.1664624316948,82.23411177348433 L 1114.22708652088,105.26703646993707 L 1137.6277592807323,96.09423474294785 L 1128.4549575537433,119.49490750280029 L 1151.487882250196,129.55553159198553 L 1128.4549575537433,139.61615568117077 L 1137.6277592807323,163.01682844102322 L 1114.22708652088,153.844026714034 L 1104.1664624316948,176.87695141048673 L 1094.1058383425095,153.844026714034 L 1070.7051655826572,163.01682844102322 L 1079.8779673096462,139.61615568117077 L 1056.8450426131935,129.55553159198553 L 1079.8779673096462,119.49490750280029 L 1070.7051655826572,96.09423474294785 L 1094.1058383425095,105.26703646993707 Z" fill="none" stroke="#FFFFFF" stroke-width="2.4337192186777106" /><path d="M 1209.3251731394753,82.23411177348433 L 1219.3857972286605,105.26703646993707 L 1242.7864699885129,96.09423474294785 L 1233.6136682615238,119.49490750280029 L 1256.6465929579765,129.55553159198553 L 1233.6136682615238,139.61615568117077 L 1242.7864699885129,163.01682844102322 L 1219.3857972286605,153.844026714034 L 1209.3251731394753,176.87695141048673 L 1199.26454905029,153.844026714034 L 1175.8638762904377,163.01682844102322 L 1185.0366780174268,139.61615568117077 L 1162.003753320974,129.55553159198553 L 1185.0366780174268,119.49490750280029 L 1175.8638762904377,96.09423474294785 L 1199.26454905029,105.26703646993707 Z" fill="none" stroke="#FFFFFF" stroke-width="2.4337192186777106" /><path d="M 2.8976012655917807e-15,173.30155524642223 L 10.060624089185236,196.33447994287496 L 33.46129684903768,187.16167821588573 L 24.28849512204846,210.56235097573818 L 47.3214198185012,220.62297506492342 L 24.28849512204846,230.68359915410866 L 33.46129684903768,254.08427191396112 L 10.060624089185236,244.91147018697188 L 2.8976012655917807e-15,267.9443948834246 L -10.060624089185234,244.91147018697188 L -33.46129684903768,254.08427191396112 L -24.288495122048452,230.68359915410866 L -47.3214198185012,220.62297506492342 L -24.288495122048456,210.56235097573818 L -33.46129684903769,187.16167821588573 L -10.06062408918525,196.33447994287496 Z" fill="none" stroke="#FFFFFF" stroke-width="2.4337192186777106" /><path d="M 105.15871070778044,173.30155524642223 L 115.21933479696568,196.33447994287496 L 138.6200075568181,187.16167821588573 L 129.4472058298289,210.56235097573818 L 152.48013052628164,220.62297506492342 L 129.4472058298289,230.68359915410866 L 138.6200075568181,254.08427191396112 L 115.21933479696568,244.91147018697188 L 105.15871070778044,267.9443948834246 L 95.0980866185952,244.91147018697188 L 71.69741385874276,254.08427191396112 L 80.87021558573198,230.68359915410866 L 57.837290889279245,220.62297506492342 L 80.87021558573198,210.56235097573818 L 71.69741385874275,187.16167821588573 L 95.09808661859519,196.33447994287496 Z" fill="none" stroke="#FFFFFF" stroke-width="2.4337192186777106" /><path d="M 210.3174214155609,173.30155524642223 L 220.37804550474613,196.33447994287496 L 243.77871826459858,187.16167821588573 L 234.60591653760935,210.56235097573818 L 257.63884123406206,220.62297506492342 L 234.60591653760935,230.68359915410866 L 243.77871826459858,254.08427191396112 L 220.37804550474613,244.91147018697188 L 210.3174214155609,267.9443948834246 L 200.25679732637565,244.91147018697188 L 176.8561245665232,254.08427191396112 L 186.02892629351243,230.68359915410866 L 162.9960015970597,220.62297506492342 L 186.02892629351243,210.56235097573818 L 176.8561245665232,187.16167821588573 L 200.25679732637565,196.33447994287496 Z" fill="none" stroke="#FFFFFF" stroke-width="2.4337192186777106" /><path d="M 315.47613212334136,173.30155524642223 L 325.5367562125266,196.33447994287496 L 348.93742897237905,187.16167821588573 L 339.7646272453898,210.56235097573818 L 362.7975519418426,220.62297506492342 L 339.7646272453898,230.68359915410866 L 348.93742897237905,254.08427191396112 L 325.5367562125266,244.91147018697188 L 315.47613212334136,267.9443948834246 L 305.4155080341561,244.91147018697188 L 282.01483527430366,254.08427191396112 L 291.1876370012929,230.68359915410866 L 268.15471230484013,220.62297506492342 L 291.1876370012929,210.56235097573818 L 282.01483527430366,187.16167821588573 L 305.4155080341561,196.33447994287496 Z" fill="none" stroke="#FFFFFF" stroke-width="2.4337192186777106" /><path d="M 420.6348428311218,173.30155524642223 L 430.695466920307,196.33447994287496 L 454.09613968015947,187.16167821588573 L 444.92333795317023,210.56235097573818 L 467.956262649623,220.62297506492342 L 444.92333795317023,230.68359915410866 L 454.09613968015947,254.08427191396112 L 430.695466920307,244.91147018697188 L 420.6348428311218,267.9443948834246 L 410.57421874193653,244.91147018697188 L 387.1735459820841,254.08427191396112 L 396.3463477090733,230.68359915410866 L 373.31342301262055,220.62297506492342 L 396.3463477090733,210.56235097573818 L 387.1735459820841,187.16167821588573 L 410.57421874193653,196.33447994287496 Z" fill="none" stroke="#FFFFFF" stroke-width="2.4337192186777106" /><path d="M 525.7935535389022,173.30155524642223 L 535.8541776280874,196.33447994287496 L 559.2548503879399,187.16167821588573 L 550.0820486609507,210.56235097573818 L 573.1149733574034,220.62297506492342 L 550.0820486609507,230.68359915410866 L 559.2548503879399,254.08427191396112 L 535.8541776280874,244.91147018697188 L 525.7935535389022,267.9443948834246 L 515.732929449717,244.91147018697188 L 492.3322566898645,254.08427191396112 L 501.50505841685373,230.68359915410866 L 478.47213372040096,220.62297506492342 L 501.50505841685373,210.56235097573818 L 492.3322566898645,187.16167821588573 L 515.732929449717,196.33447994287496 Z" fill="none" stroke="#FFFFFF" stroke-width="2.4337192186777106" /><path d="M 630.9522642466827,173.30155524642223 L 641.012888335868,196.33447994287496 L 664.4135610957204,187.16167821588573 L 655.2407593687312,210.56235097573818 L 678.2736840651839,220.62297506492342 L 655.2407593687312,230.68359915410866 L 664.4135610957204,254.08427191396112 L 641.012888335868,244.91147018697188 L 630.9522642466827,267.9443948834246 L 620.8916401574975,244.91147018697188 L 597.490967397645,254.08427191396112 L 606.6637691246343,230.68359915410866 L 583.6308444281815,220.62297506492342 L 606.6637691246343,210.56235097573818 L 597.490967397645,187.16167821588573 L 620.8916401574975,196.33447994287496 Z" fill="none" stroke="#FFFFFF" stroke-width="2.4337192186777106" /><path d="M 736.1109749544631,173.30155524642223 L 746.1715990436484,196.33447994287496 L 769.5722718035008,187.16167821588573 L 760.3994700765115,210.56235097573818 L 783.4323947729644,220.62297506492342 L 760.3994700765115,230.68359915410866 L 769.5722718035008,254.08427191396112 L 746.1715990436484,244.91147018697188 L 736.1109749544631,267.9443948834246 L 726.0503508652779,244.91147018697188 L 702.6496781054254,254.08427191396112 L 711.8224798324147,230.68359915410866 L 688.7895551359619,220.62297506492342 L 711.8224798324147,210.56235097573818 L 702.6496781054254,187.16167821588573 L 726.0503508652779,196.33447994287496 Z" fill="none" stroke="#FFFFFF" stroke-width="2.4337192186777106" /><path d="M 841.2696856622435,173.30155524642223 L 851.3303097514288,196.33447994287496 L 874.7309825112812,187.16167821588573 L 865.5581807842921,210.56235097573818 L 888.5911054807448,220.62297506492342 L 865.5581807842921,230.68359915410866 L 874.7309825112812,254.08427191396112 L 851.3303097514288,244.91147018697188 L 841.2696856622435,267.9443948834246 L 831.2090615730583,244.91147018697188 L 807.8083888132059,254.08427191396112 L 816.9811905401951,230.68359915410866 L 793.9482658437423,220.62297506492342 L 816.9811905401951,210.56235097573818 L 807.8083888132059,187.16167821588573 L 831.2090615730583,196.33447994287496 Z" fill="none" stroke="#FFFFFF" stroke-width="2.4337192186777106" /><path d="M 946.428396370024,173.30155524642223 L 956.4890204592092,196.33447994287496 L 979.8896932190617,187.16167821588573 L 970.7168914920724,210.56235097573818 L 993.7498161885252,220.62297506492342 L 970.7168914920724,230.68359915410866 L 979.8896932190617,254.08427191396112 L 956.4890204592092,244.91147018697188 L 946.428396370024,267.9443948834246 L 936.3677722808387,244.91147018697188 L 912.9670995209863,254.08427191396112 L 922.1399012479756,230.68359915410866 L 899.1069765515227,220.62297506492342 L 922.1399012479756,210.56235097573818 L 912.9670995209863,187.16167821588573 L 936.3677722808387,196.33447994287496 Z" fill="none" stroke="#FFFFFF" stroke-width="2.4337192186777106" /><path d="M 1051.5871070778044,173.30155524642223 L 1061.6477311669896,196.33447994287496 L 1085.048403926842,187.16167821588573 L 1075.875602199853,210.56235097573818 L 1098.9085268963056,220.62297506492342 L 1075.875602199853,230.68359915410866 L 1085.048403926842,254.08427191396112 L 1061.6477311669896,244.91147018697188 L 1051.5871070778044,267.9443948834246 L 1041.5264829886191,244.91147018697188 L 1018.1258102287667,254.08427191396112 L 1027.2986119557559,230.68359915410866 L 1004.2656872593031,220.62297506492342 L 1027.2986119557559,210.56235097573818 L 1018.1258102287667,187.16167821588573 L 1041.5264829886191,196.33447994287496 Z" fill="none" stroke="#FFFFFF" stroke-width="2.4337192186777106" /><path d="M 1156.745817785585,173.30155524642223 L 1166.8064418747701,196.33447994287496 L 1190.2071146346225,187.16167821588573 L 1181.0343129076334,210.56235097573818 L 1204.0672376040861,220.62297506492342 L 1181.0343129076334,230.68359915410866 L 1190.2071146346225,254.08427191396112 L 1166.8064418747701,244.91147018697188 L 1156.745817785585,267.9443948834246 L 1146.6851936963997,244.91147018697188 L 1123.2845209365473,254.08427191396112 L 1132.4573226635364,230.68359915410866 L 1109.4243979670837,220.62297506492342 L 1132.4573226635364,210.56235097573818 L 1123.2845209365473,187.16167821588573 L 1146.6851936963997,196.33447994287496 Z" fill="none" stroke="#FFFFFF" stroke-width="2.4337192186777106" /><path d="M 1261.9045284933654,173.30155524642223 L 1271.9651525825507,196.33447994287496 L 1295.365825342403,187.16167821588573 L 1286.193023615414,210.56235097573818 L 1309.2259483118667,220.62297506492342 L 1286.193023615414,230.68359915410866 L 1295.365825342403,254.08427191396112 L 1271.9651525825507,244.91147018697188 L 1261.9045284933654,267.9443948834246 L 1251.8439044041802,244.91147018697188 L 1228.4432316443279,254.08427191396112 L 1237.616033371317,230.68359915410866 L 1214.5831086748642,220.62297506492342 L 1237.616033371317,210.56235097573818 L 1228.4432316443279,187.16167821588573 L 1251.8439044041802,196.33447994287496 Z" fill="none" stroke="#FFFFFF" stroke-width="2.4337192186777106" /><path d="M -52.57935535389022,264.3689987193601 L -42.51873126470498,287.4019234158128 L -19.11805850485254,278.22912168882357 L -28.290860231841762,301.629794448676 L -5.257935535389024,311.69041853786126 L -28.290860231841762,321.7510426270465 L -19.11805850485254,345.15171538689896 L -42.51873126470498,335.9789136599097 L -52.57935535389022,359.01183835636243 L -62.639979443075454,335.9789136599097 L -86.0406522029279,345.15171538689896 L -76.86785047593867,321.7510426270465 L -99.90077517239142,311.69041853786126 L -76.86785047593868,301.629794448676 L -86.0406522029279,278.22912168882357 L -62.639979443075475,287.4019234158128 Z" fill="none" stroke="#FFFFFF" stroke-width="2.4337192186777106" /><path d="M 52.57935535389022,264.3689987193601 L 62.63997944307546,287.4019234158128 L 86.0406522029279,278.22912168882357 L 76.86785047593868,301.629794448676 L 99.90077517239142,311.69041853786126 L 76.86785047593868,321.7510426270465 L 86.0406522029279,345.15171538689896 L 62.63997944307546,335.9789136599097 L 52.57935535389022,359.01183835636243 L 42.51873126470499,335.9789136599097 L 19.11805850485254,345.15171538689896 L 28.29086023184177,321.7510426270465 L 5.257935535389024,311.69041853786126 L 28.290860231841766,301.629794448676 L 19.118058504852534,278.22912168882357 L 42.51873126470497,287.4019234158128 Z" fill="none" stroke="#FFFFFF" stroke-width="2.4337192186777106" /><path d="M 157.73806606167068,264.3689987193601 L 167.79869015085592,287.4019234158128 L 191.19936291070837,278.22912168882357 L 182.02656118371914,301.629794448676 L 205.05948588017188,311.69041853786126 L 182.02656118371914,321.7510426270465 L 191.19936291070837,345.15171538689896 L 167.79869015085592,335.9789136599097 L 157.73806606167068,359.01183835636243 L 147.67744197248544,335.9789136599097 L 124.276769212633,345.15171538689896 L 133.44957093962222,321.7510426270465 L 110.41664624316948,311.69041853786126 L 133.44957093962222,301.629794448676 L 124.27676921263298,278.22912168882357 L 147.67744197248544,287.4019234158128 Z" fill="none" stroke="#FFFFFF" stroke-width="2.4337192186777106" /><path d="M 262.89677676945115,264.3689987193601 L 272.9574008586364,287.4019234158128 L 296.35807361848885,278.22912168882357 L 287.1852718914996,301.629794448676 L 310.2181965879523,311.69041853786126 L 287.1852718914996,321.7510426270465 L 296.35807361848885,345.15171538689896 L 272.9574008586364,335.9789136599097 L 262.89677676945115,359.01183835636243 L 252.8361526802659,335.9789136599097 L 229.43547992041346,345.15171538689896 L 238.6082816474027,321.7510426270465 L 215.57535695094995,311.69041853786126 L 238.6082816474027,301.629794448676 L 229.43547992041346,278.22912168882357 L 252.8361526802659,287.4019234158128 Z" fill="none" stroke="#FFFFFF" stroke-width="2.4337192186777106" /><path d="M 368.05548747723157,264.3689987193601 L 378.1161115664168,287.4019234158128 L 401.51678432626926,278.22912168882357 L 392.34398259928,301.629794448676 L 415.37690729573274,311.69041853786126 L 392.34398259928,321.7510426270465 L 401.51678432626926,345.15171538689896 L 378.1161115664168,335.9789136599097 L 368.05548747723157,359.01183835636243 L 357.9948633880463,335.9789136599097 L 334.59419062819387,345.15171538689896 L 343.7669923551831,321.7510426270465 L 320.7340676587304,311.69041853786126 L 343.7669923551831,301.629794448676 L 334.59419062819387,278.22912168882357 L 357.9948633880463,287.4019234158128 Z" fill="none" stroke="#FFFFFF" stroke-width="2.4337192186777106" /><path d="M 473.214198185012,264.3689987193601 L 483.2748222741972,287.4019234158128 L 506.6754950340497,278.22912168882357 L 497.50269330706044,301.629794448676 L 520.5356180035132,311.69041853786126 L 497.50269330706044,321.7510426270465 L 506.6754950340497,345.15171538689896 L 483.2748222741972,335.9789136599097 L 473.214198185012,359.01183835636243 L 463.15357409582674,335.9789136599097 L 439.7529013359743,345.15171538689896 L 448.9257030629635,321.7510426270465 L 425.8927783665108,311.69041853786126 L 448.9257030629635,301.629794448676 L 439.7529013359743,278.22912168882357 L 463.15357409582674,287.4019234158128 Z" fill="none" stroke="#FFFFFF" stroke-width="2.4337192186777106" /><path d="M 578.3729088927925,264.3689987193601 L 588.4335329819777,287.4019234158128 L 611.8342057418301,278.22912168882357 L 602.6614040148409,301.629794448676 L 625.6943287112937,311.69041853786126 L 602.6614040148409,321.7510426270465 L 611.8342057418301,345.15171538689896 L 588.4335329819777,335.9789136599097 L 578.3729088927925,359.01183835636243 L 568.3122848036072,335.9789136599097 L 544.9116120437548,345.15171538689896 L 554.084413770744,321.7510426270465 L 531.0514890742912,311.69041853786126 L 554.084413770744,301.629794448676 L 544.9116120437548,278.22912168882357 L 568.3122848036072,287.4019234158128 Z" fill="none" stroke="#FFFFFF" stroke-width="2.4337192186777106" /><path d="M 683.5316196005729,264.3689987193601 L 693.5922436897581,287.4019234158128 L 716.9929164496106,278.22912168882357 L 707.8201147226214,301.629794448676 L 730.8530394190741,311.69041853786126 L 707.8201147226214,321.7510426270465 L 716.9929164496106,345.15171538689896 L 693.5922436897581,335.9789136599097 L 683.5316196005729,359.01183835636243 L 673.4709955113876,335.9789136599097 L 650.0703227515352,345.15171538689896 L 659.2431244785245,321.7510426270465 L 636.2101997820716,311.69041853786126 L 659.2431244785245,301.629794448676 L 650.0703227515352,278.22912168882357 L 673.4709955113876,287.4019234158128 Z" fill="none" stroke="#FFFFFF" stroke-width="2.4337192186777106" /><path d="M 788.6903303083533,264.3689987193601 L 798.7509543975385,287.4019234158128 L 822.151627157391,278.22912168882357 L 812.9788254304017,301.629794448676 L 836.0117501268545,311.69041853786126 L 812.9788254304017,321.7510426270465 L 822.151627157391,345.15171538689896 L 798.7509543975385,335.9789136599097 L 788.6903303083533,359.01183835636243 L 778.629706219168,335.9789136599097 L 755.2290334593156,345.15171538689896 L 764.4018351863049,321.7510426270465 L 741.368910489852,311.69041853786126 L 764.4018351863049,301.629794448676 L 755.2290334593156,278.22912168882357 L 778.629706219168,287.4019234158128 Z" fill="none" stroke="#FFFFFF" stroke-width="2.4337192186777106" /><path d="M 893.8490410161337,264.3689987193601 L 903.9096651053189,287.4019234158128 L 927.3103378651714,278.22912168882357 L 918.1375361381822,301.629794448676 L 941.1704608346349,311.69041853786126 L 918.1375361381822,321.7510426270465 L 927.3103378651714,345.15171538689896 L 903.9096651053189,335.9789136599097 L 893.8490410161337,359.01183835636243 L 883.7884169269485,335.9789136599097 L 860.387744167096,345.15171538689896 L 869.5605458940853,321.7510426270465 L 846.5276211976325,311.69041853786126 L 869.5605458940853,301.629794448676 L 860.387744167096,278.22912168882357 L 883.7884169269485,287.4019234158128 Z" fill="none" stroke="#FFFFFF" stroke-width="2.4337192186777106" /><path d="M 999.0077517239141,264.3689987193601 L 1009.0683758130994,287.4019234158128 L 1032.4690485729518,278.22912168882357 L 1023.2962468459625,301.629794448676 L 1046.3291715424152,311.69041853786126 L 1023.2962468459625,321.7510426270465 L 1032.4690485729518,345.15171538689896 L 1009.0683758130994,335.9789136599097 L 999.0077517239141,359.01183835636243 L 988.9471276347289,335.9789136599097 L 965.5464548748764,345.15171538689896 L 974.7192566018657,321.7510426270465 L 951.6863319054129,311.69041853786126 L 974.7192566018657,301.629794448676 L 965.5464548748764,278.22912168882357 L 988.9471276347289,287.4019234158128 Z" fill="none" stroke="#FFFFFF" stroke-width="2.4337192186777106" /><path d="M 1104.1664624316948,264.3689987193601 L 1114.22708652088,287.4019234158128 L 1137.6277592807323,278.22912168882357 L 1128.4549575537433,301.629794448676 L 1151.487882250196,311.69041853786126 L 1128.4549575537433,321.7510426270465 L 1137.6277592807323,345.15171538689896 L 1114.22708652088,335.9789136599097 L 1104.1664624316948,359.01183835636243 L 1094.1058383425095,335.9789136599097 L 1070.7051655826572,345.15171538689896 L 1079.8779673096462,321.7510426270465 L 1056.8450426131935,311.69041853786126 L 1079.8779673096462,301.629794448676 L 1070.7051655826572,278.22912168882357 L 1094.1058383425095,287.4019234158128 Z" fill="none" stroke="#FFFFFF" stroke-width="2.4337192186777106" /><path d="M 1209.3251731394753,264.3689987193601 L 1219.3857972286605,287.4019234158128 L 1242.7864699885129,278.22912168882357 L 1233.6136682615238,301.629794448676 L 1256.6465929579765,311.69041853786126 L 1233.6136682615238,321.7510426270465 L 1242.7864699885129,345.15171538689896 L 1219.3857972286605,335.9789136599097 L 1209.3251731394753,359.01183835636243 L 1199.26454905029,335.9789136599097 L 1175.8638762904377,345.15171538689896 L 1185.0366780174268,321.7510426270465 L 1162.003753320974,311.69041853786126 L 1185.0366780174268,301.629794448676 L 1175.8638762904377,278.22912168882357 L 1199.26454905029,287.4019234158128 Z" fill="none" stroke="#FFFFFF" stroke-width="2.4337192186777106" /><path d="M 2.8976012655917807e-15,355.43644219229793 L 10.060624089185236,378.46936688875064 L 33.46129684903768,369.2965651617614 L 24.28849512204846,392.69723792161386 L 47.3214198185012,402.7578620107991 L 24.28849512204846,412.81848609998434 L 33.46129684903768,436.2191588598368 L 10.060624089185236,427.04635713284756 L 2.8976012655917807e-15,450.07928182930027 L -10.060624089185234,427.04635713284756 L -33.46129684903768,436.2191588598368 L -24.288495122048452,412.81848609998434 L -47.3214198185012,402.7578620107991 L -24.288495122048456,392.69723792161386 L -33.46129684903769,369.2965651617614 L -10.06062408918525,378.46936688875064 Z" fill="none" stroke="#FFFFFF" stroke-width="2.4337192186777106" /><path d="M 105.15871070778044,355.43644219229793 L 115.21933479696568,378.46936688875064 L 138.6200075568181,369.2965651617614 L 129.4472058298289,392.69723792161386 L 152.48013052628164,402.7578620107991 L 129.4472058298289,412.81848609998434 L 138.6200075568181,436.2191588598368 L 115.21933479696568,427.04635713284756 L 105.15871070778044,450.07928182930027 L 95.0980866185952,427.04635713284756 L 71.69741385874276,436.2191588598368 L 80.87021558573198,412.81848609998434 L 57.837290889279245,402.7578620107991 L 80.87021558573198,392.69723792161386 L 71.69741385874275,369.2965651617614 L 95.09808661859519,378.46936688875064 Z" fill="none" stroke="#FFFFFF" stroke-width="2.4337192186777106" /><path d="M 210.3174214155609,355.43644219229793 L 220.37804550474613,378.46936688875064 L 243.77871826459858,369.2965651617614 L 234.60591653760935,392.69723792161386 L 257.63884123406206,402.7578620107991 L 234.60591653760935,412.81848609998434 L 243.77871826459858,436.2191588598368 L 220.37804550474613,427.04635713284756 L 210.3174214155609,450.07928182930027 L 200.25679732637565,427.04635713284756 L 176.8561245665232,436.2191588598368 L 186.02892629351243,412.81848609998434 L 162.9960015970597,402.7578620107991 L 186.02892629351243,392.69723792161386 L 176.8561245665232,369.2965651617614 L 200.25679732637565,378.46936688875064 Z" fill="none" stroke="#FFFFFF" stroke-width="2.4337192186777106" /><path d="M 315.47613212334136,355.43644219229793 L 325.5367562125266,378.46936688875064 L 348.93742897237905,369.2965651617614 L 339.7646272453898,392.69723792161386 L 362.7975519418426,402.7578620107991 L 339.7646272453898,412.81848609998434 L 348.93742897237905,436.2191588598368 L 325.5367562125266,427.04635713284756 L 315.47613212334136,450.07928182930027 L 305.4155080341561,427.04635713284756 L 282.01483527430366,436.2191588598368 L 291.1876370012929,412.81848609998434 L 268.15471230484013,402.7578620107991 L 291.1876370012929,392.69723792161386 L 282.01483527430366,369.2965651617614 L 305.4155080341561,378.46936688875064 Z" fill="none" stroke="#FFFFFF" stroke-width="2.4337192186777106" /><path d="M 420.6348428311218,355.43644219229793 L 430.695466920307,378.46936688875064 L 454.09613968015947,369.2965651617614 L 444.92333795317023,392.69723792161386 L 467.956262649623,402.7578620107991 L 444.92333795317023,412.81848609998434 L 454.09613968015947,436.2191588598368 L 430.695466920307,427.04635713284756 L 420.6348428311218,450.07928182930027 L 410.57421874193653,427.04635713284756 L 387.1735459820841,436.2191588598368 L 396.3463477090733,412.81848609998434 L 373.31342301262055,402.7578620107991 L 396.3463477090733,392.69723792161386 L 387.1735459820841,369.2965651617614 L 410.57421874193653,378.46936688875064 Z" fill="none" stroke="#FFFFFF" stroke-width="2.4337192186777106" /><path d="M 525.7935535389022,355.43644219229793 L 535.8541776280874,378.46936688875064 L 559.2548503879399,369.2965651617614 L 550.0820486609507,392.69723792161386 L 573.1149733574034,402.7578620107991 L 550.0820486609507,412.81848609998434 L 559.2548503879399,436.2191588598368 L 535.8541776280874,427.04635713284756 L 525.7935535389022,450.07928182930027 L 515.732929449717,427.04635713284756 L 492.3322566898645,436.2191588598368 L 501.50505841685373,412.81848609998434 L 478.47213372040096,402.7578620107991 L 501.50505841685373,392.69723792161386 L 492.3322566898645,369.2965651617614 L 515.732929449717,378.46936688875064 Z" fill="none" stroke="#FFFFFF" stroke-width="2.4337192186777106" /><path d="M 630.9522642466827,355.43644219229793 L 641.012888335868,378.46936688875064 L 664.4135610957204,369.2965651617614 L 655.2407593687312,392.69723792161386 L 678.2736840651839,402.7578620107991 L 655.2407593687312,412.81848609998434 L 664.4135610957204,436.2191588598368 L 641.012888335868,427.04635713284756 L 630.9522642466827,450.07928182930027 L 620.8916401574975,427.04635713284756 L 597.490967397645,436.2191588598368 L 606.6637691246343,412.81848609998434 L 583.6308444281815,402.7578620107991 L 606.6637691246343,392.69723792161386 L 597.490967397645,369.2965651617614 L 620.8916401574975,378.46936688875064 Z" fill="none" stroke="#FFFFFF" stroke-width="2.4337192186777106" /><path d="M 736.1109749544631,355.43644219229793 L 746.1715990436484,378.46936688875064 L 769.5722718035008,369.2965651617614 L 760.3994700765115,392.69723792161386 L 783.4323947729644,402.7578620107991 L 760.3994700765115,412.81848609998434 L 769.5722718035008,436.2191588598368 L 746.1715990436484,427.04635713284756 L 736.1109749544631,450.07928182930027 L 726.0503508652779,427.04635713284756 L 702.6496781054254,436.2191588598368 L 711.8224798324147,412.81848609998434 L 688.7895551359619,402.7578620107991 L 711.8224798324147,392.69723792161386 L 702.6496781054254,369.2965651617614 L 726.0503508652779,378.46936688875064 Z" fill="none" stroke="#FFFFFF" stroke-width="2.4337192186777106" /><path d="M 841.2696856622435,355.43644219229793 L 851.3303097514288,378.46936688875064 L 874.7309825112812,369.2965651617614 L 865.5581807842921,392.69723792161386 L 888.5911054807448,402.7578620107991 L 865.5581807842921,412.81848609998434 L 874.7309825112812,436.2191588598368 L 851.3303097514288,427.04635713284756 L 841.2696856622435,450.07928182930027 L 831.2090615730583,427.04635713284756 L 807.8083888132059,436.2191588598368 L 816.9811905401951,412.81848609998434 L 793.9482658437423,402.7578620107991 L 816.9811905401951,392.69723792161386 L 807.8083888132059,369.2965651617614 L 831.2090615730583,378.46936688875064 Z" fill="none" stroke="#FFFFFF" stroke-width="2.4337192186777106" /><path d="M 946.428396370024,355.43644219229793 L 956.4890204592092,378.46936688875064 L 979.8896932190617,369.2965651617614 L 970.7168914920724,392.69723792161386 L 993.7498161885252,402.7578620107991 L 970.7168914920724,412.81848609998434 L 979.8896932190617,436.2191588598368 L 956.4890204592092,427.04635713284756 L 946.428396370024,450.07928182930027 L 936.3677722808387,427.04635713284756 L 912.9670995209863,436.2191588598368 L 922.1399012479756,412.81848609998434 L 899.1069765515227,402.7578620107991 L 922.1399012479756,392.69723792161386 L 912.9670995209863,369.2965651617614 L 936.3677722808387,378.46936688875064 Z" fill="none" stroke="#FFFFFF" stroke-width="2.4337192186777106" /><path d="M 1051.5871070778044,355.43644219229793 L 1061.6477311669896,378.46936688875064 L 1085.048403926842,369.2965651617614 L 1075.875602199853,392.69723792161386 L 1098.9085268963056,402.7578620107991 L 1075.875602199853,412.81848609998434 L 1085.048403926842,436.2191588598368 L 1061.6477311669896,427.04635713284756 L 1051.5871070778044,450.07928182930027 L 1041.5264829886191,427.04635713284756 L 1018.1258102287667,436.2191588598368 L 1027.2986119557559,412.81848609998434 L 1004.2656872593031,402.7578620107991 L 1027.2986119557559,392.69723792161386 L 1018.1258102287667,369.2965651617614 L 1041.5264829886191,378.46936688875064 Z" fill="none" stroke="#FFFFFF" stroke-width="2.4337192186777106" /><path d="M 1156.745817785585,355.43644219229793 L 1166.8064418747701,378.46936688875064 L 1190.2071146346225,369.2965651617614 L 1181.0343129076334,392.69723792161386 L 1204.0672376040861,402.7578620107991 L 1181.0343129076334,412.81848609998434 L 1190.2071146346225,436.2191588598368 L 1166.8064418747701,427.04635713284756 L 1156.745817785585,450.07928182930027 L 1146.6851936963997,427.04635713284756 L 1123.2845209365473,436.2191588598368 L 1132.4573226635364,412.81848609998434 L 1109.4243979670837,402.7578620107991 L 1132.4573226635364,392.69723792161386 L 1123.2845209365473,369.2965651617614 L 1146.6851936963997,378.46936688875064 Z" fill="none" stroke="#FFFFFF" stroke-width="2.4337192186777106" /><path d="M 1261.9045284933654,355.43644219229793 L 1271.9651525825507,378.46936688875064 L 1295.365825342403,369.2965651617614 L 1286.193023615414,392.69723792161386 L 1309.2259483118667,402.7578620107991 L 1286.193023615414,412.81848609998434 L 1295.365825342403,436.2191588598368 L 1271.9651525825507,427.04635713284756 L 1261.9045284933654,450.07928182930027 L 1251.8439044041802,427.04635713284756 L 1228.4432316443279,436.2191588598368 L 1237.616033371317,412.81848609998434 L 1214.5831086748642,402.7578620107991 L 1237.616033371317,392.69723792161386 L 1228.4432316443279,369.2965651617614 L 1251.8439044041802,378.46936688875064 Z" fill="none" stroke="#FFFFFF" stroke-width="2.4337192186777106" /><path d="M -52.57935535389022,446.5038856652359 L -42.51873126470498,469.5368103616886 L -19.11805850485254,460.36400863469936 L -28.290860231841762,483.7646813945518 L -5.257935535389024,493.82530548373705 L -28.290860231841762,503.8859295729223 L -19.11805850485254,527.2866023327747 L -42.51873126470498,518.1138006057855 L -52.57935535389022,541.1467253022382 L -62.639979443075454,518.1138006057855 L -86.0406522029279,527.2866023327747 L -76.86785047593867,503.8859295729223 L -99.90077517239142,493.82530548373705 L -76.86785047593868,483.7646813945518 L -86.0406522029279,460.36400863469936 L -62.639979443075475,469.5368103616886 Z" fill="none" stroke="#FFFFFF" stroke-width="2.4337192186777106" /><path d="M 52.57935535389022,446.5038856652359 L 62.63997944307546,469.5368103616886 L 86.0406522029279,460.36400863469936 L 76.86785047593868,483.7646813945518 L 99.90077517239142,493.82530548373705 L 76.86785047593868,503.8859295729223 L 86.0406522029279,527.2866023327747 L 62.63997944307546,518.1138006057855 L 52.57935535389022,541.1467253022382 L 42.51873126470499,518.1138006057855 L 19.11805850485254,527.2866023327747 L 28.29086023184177,503.8859295729223 L 5.257935535389024,493.82530548373705 L 28.290860231841766,483.7646813945518 L 19.118058504852534,460.36400863469936 L 42.51873126470497,469.5368103616886 Z" fill="none" stroke="#FFFFFF" stroke-width="2.4337192186777106" /><path d="M 157.73806606167068,446.5038856652359 L 167.79869015085592,469.5368103616886 L 191.19936291070837,460.36400863469936 L 182.02656118371914,483.7646813945518 L 205.05948588017188,493.82530548373705 L 182.02656118371914,503.8859295729223 L 191.19936291070837,527.2866023327747 L 167.79869015085592,518.1138006057855 L 157.73806606167068,541.1467253022382 L 147.67744197248544,518.1138006057855 L 124.276769212633,527.2866023327747 L 133.44957093962222,503.8859295729223 L 110.41664624316948,493.82530548373705 L 133.44957093962222,483.7646813945518 L 124.27676921263298,460.36400863469936 L 147.67744197248544,469.5368103616886 Z" fill="none" stroke="#FFFFFF" stroke-width="2.4337192186777106" /><path d="M 262.89677676945115,446.5038856652359 L 272.9574008586364,469.5368103616886 L 296.35807361848885,460.36400863469936 L 287.1852718914996,483.7646813945518 L 310.2181965879523,493.82530548373705 L 287.1852718914996,503.8859295729223 L 296.35807361848885,527.2866023327747 L 272.9574008586364,518.1138006057855 L 262.89677676945115,541.1467253022382 L 252.8361526802659,518.1138006057855 L 229.43547992041346,527.2866023327747 L 238.6082816474027,503.8859295729223 L 215.57535695094995,493.82530548373705 L 238.6082816474027,483.7646813945518 L 229.43547992041346,460.36400863469936 L 252.8361526802659,469.5368103616886 Z" fill="none" stroke="#FFFFFF" stroke-width="2.4337192186777106" /><path d="M 368.05548747723157,446.5038856652359 L 378.1161115664168,469.5368103616886 L 401.51678432626926,460.36400863469936 L 392.34398259928,483.7646813945518 L 415.37690729573274,493.82530548373705 L 392.34398259928,503.8859295729223 L 401.51678432626926,527.2866023327747 L 378.1161115664168,518.1138006057855 L 368.05548747723157,541.1467253022382 L 357.9948633880463,518.1138006057855 L 334.59419062819387,527.2866023327747 L 343.7669923551831,503.8859295729223 L 320.7340676587304,493.82530548373705 L 343.7669923551831,483.7646813945518 L 334.59419062819387,460.36400863469936 L 357.9948633880463,469.5368103616886 Z" fill="none" stroke="#FFFFFF" stroke-width="2.4337192186777106" /><path d="M 473.214198185012,446.5038856652359 L 483.2748222741972,469.5368103616886 L 506.6754950340497,460.36400863469936 L 497.50269330706044,483.7646813945518 L 520.5356180035132,493.82530548373705 L 497.50269330706044,503.8859295729223 L 506.6754950340497,527.2866023327747 L 483.2748222741972,518.1138006057855 L 473.214198185012,541.1467253022382 L 463.15357409582674,518.1138006057855 L 439.7529013359743,527.2866023327747 L 448.9257030629635,503.8859295729223 L 425.8927783665108,493.82530548373705 L 448.9257030629635,483.7646813945518 L 439.7529013359743,460.36400863469936 L 463.15357409582674,469.5368103616886 Z" fill="none" stroke="#FFFFFF" stroke-width="2.4337192186777106" /><path d="M 578.3729088927925,446.5038856652359 L 588.4335329819777,469.5368103616886 L 611.8342057418301,460.36400863469936 L 602.6614040148409,483.7646813945518 L 625.6943287112937,493.82530548373705 L 602.6614040148409,503.8859295729223 L 611.8342057418301,527.2866023327747 L 588.4335329819777,518.1138006057855 L 578.3729088927925,541.1467253022382 L 568.3122848036072,518.1138006057855 L 544.9116120437548,527.2866023327747 L 554.084413770744,503.8859295729223 L 531.0514890742912,493.82530548373705 L 554.084413770744,483.7646813945518 L 544.9116120437548,460.36400863469936 L 568.3122848036072,469.5368103616886 Z" fill="none" stroke="#FFFFFF" stroke-width="2.4337192186777106" /><path d="M 683.5316196005729,446.5038856652359 L 693.5922436897581,469.5368103616886 L 716.9929164496106,460.36400863469936 L 707.8201147226214,483.7646813945518 L 730.8530394190741,493.82530548373705 L 707.8201147226214,503.8859295729223 L 716.9929164496106,527.2866023327747 L 693.5922436897581,518.1138006057855 L 683.5316196005729,541.1467253022382 L 673.4709955113876,518.1138006057855 L 650.0703227515352,527.2866023327747 L 659.2431244785245,503.8859295729223 L 636.2101997820716,493.82530548373705 L 659.2431244785245,483.7646813945518 L 650.0703227515352,460.36400863469936 L 673.4709955113876,469.5368103616886 Z" fill="none" stroke="#FFFFFF" stroke-width="2.4337192186777106" /><path d="M 788.6903303083533,446.5038856652359 L 798.7509543975385,469.5368103616886 L 822.151627157391,460.36400863469936 L 812.9788254304017,483.7646813945518 L 836.0117501268545,493.82530548373705 L 812.9788254304017,503.8859295729223 L 822.151627157391,527.2866023327747 L 798.7509543975385,518.1138006057855 L 788.6903303083533,541.1467253022382 L 778.629706219168,518.1138006057855 L 755.2290334593156,527.2866023327747 L 764.4018351863049,503.8859295729223 L 741.368910489852,493.82530548373705 L 764.4018351863049,483.7646813945518 L 755.2290334593156,460.36400863469936 L 778.629706219168,469.5368103616886 Z" fill="none" stroke="#FFFFFF" stroke-width="2.4337192186777106" /><path d="M 893.8490410161337,446.5038856652359 L 903.9096651053189,469.5368103616886 L 927.3103378651714,460.36400863469936 L 918.1375361381822,483.7646813945518 L 941.1704608346349,493.82530548373705 L 918.1375361381822,503.8859295729223 L 927.3103378651714,527.2866023327747 L 903.9096651053189,518.1138006057855 L 893.8490410161337,541.1467253022382 L 883.7884169269485,518.1138006057855 L 860.387744167096,527.2866023327747 L 869.5605458940853,503.8859295729223 L 846.5276211976325,493.82530548373705 L 869.5605458940853,483.7646813945518 L 860.387744167096,460.36400863469936 L 883.7884169269485,469.5368103616886 Z" fill="none" stroke="#FFFFFF" stroke-width="2.4337192186777106" /><path d="M 999.0077517239141,446.5038856652359 L 1009.0683758130994,469.5368103616886 L 1032.4690485729518,460.36400863469936 L 1023.2962468459625,483.7646813945518 L 1046.3291715424152,493.82530548373705 L 1023.2962468459625,503.8859295729223 L 1032.4690485729518,527.2866023327747 L 1009.0683758130994,518.1138006057855 L 999.0077517239141,541.1467253022382 L 988.9471276347289,518.1138006057855 L 965.5464548748764,527.2866023327747 L 974.7192566018657,503.8859295729223 L 951.6863319054129,493.82530548373705 L 974.7192566018657,483.7646813945518 L 965.5464548748764,460.36400863469936 L 988.9471276347289,469.5368103616886 Z" fill="none" stroke="#FFFFFF" stroke-width="2.4337192186777106" /><path d="M 1104.1664624316948,446.5038856652359 L 1114.22708652088,469.5368103616886 L 1137.6277592807323,460.36400863469936 L 1128.4549575537433,483.7646813945518 L 1151.487882250196,493.82530548373705 L 1128.4549575537433,503.8859295729223 L 1137.6277592807323,527.2866023327747 L 1114.22708652088,518.1138006057855 L 1104.1664624316948,541.1467253022382 L 1094.1058383425095,518.1138006057855 L 1070.7051655826572,527.2866023327747 L 1079.8779673096462,503.8859295729223 L 1056.8450426131935,493.82530548373705 L 1079.8779673096462,483.7646813945518 L 1070.7051655826572,460.36400863469936 L 1094.1058383425095,469.5368103616886 Z" fill="none" stroke="#FFFFFF" stroke-width="2.4337192186777106" /><path d="M 1209.3251731394753,446.5038856652359 L 1219.3857972286605,469.5368103616886 L 1242.7864699885129,460.36400863469936 L 1233.6136682615238,483.7646813945518 L 1256.6465929579765,493.82530548373705 L 1233.6136682615238,503.8859295729223 L 1242.7864699885129,527.2866023327747 L 1219.3857972286605,518.1138006057855 L 1209.3251731394753,541.1467253022382 L 1199.26454905029,518.1138006057855 L 1175.8638762904377,527.2866023327747 L 1185.0366780174268,503.8859295729223 L 1162.003753320974,493.82530548373705 L 1185.0366780174268,483.7646813945518 L 1175.8638762904377,460.36400863469936 L 1199.26454905029,469.5368103616886 Z" fill="none" stroke="#FFFFFF" stroke-width="2.4337192186777106" /><path d="M 2.8976012655917807e-15,537.5713291381736 L 10.060624089185236,560.6042538346264 L 33.46129684903768,551.4314521076371 L 24.28849512204846,574.8321248674896 L 47.3214198185012,584.8927489566748 L 24.28849512204846,594.9533730458601 L 33.46129684903768,618.3540458057125 L 10.060624089185236,609.1812440787232 L 2.8976012655917807e-15,632.2141687751761 L -10.060624089185234,609.1812440787232 L -33.46129684903768,618.3540458057125 L -24.288495122048452,594.9533730458601 L -47.3214198185012,584.8927489566748 L -24.288495122048456,574.8321248674896 L -33.46129684903769,551.4314521076371 L -10.06062408918525,560.6042538346264 Z" fill="none" stroke="#FFFFFF" stroke-width="2.4337192186777106" /><path d="M 105.15871070778044,537.5713291381736 L 115.21933479696568,560.6042538346264 L 138.6200075568181,551.4314521076371 L 129.4472058298289,574.8321248674896 L 152.48013052628164,584.8927489566748 L 129.4472058298289,594.9533730458601 L 138.6200075568181,618.3540458057125 L 115.21933479696568,609.1812440787232 L 105.15871070778044,632.2141687751761 L 95.0980866185952,609.1812440787232 L 71.69741385874276,618.3540458057125 L 80.87021558573198,594.9533730458601 L 57.837290889279245,584.8927489566748 L 80.87021558573198,574.8321248674896 L 71.69741385874275,551.4314521076371 L 95.09808661859519,560.6042538346264 Z" fill="none" stroke="#FFFFFF" stroke-width="2.4337192186777106" /><path d="M 210.3174214155609,537.5713291381736 L 220.37804550474613,560.6042538346264 L 243.77871826459858,551.4314521076371 L 234.60591653760935,574.8321248674896 L 257.63884123406206,584.8927489566748 L 234.60591653760935,594.9533730458601 L 243.77871826459858,618.3540458057125 L 220.37804550474613,609.1812440787232 L 210.3174214155609,632.2141687751761 L 200.25679732637565,609.1812440787232 L 176.8561245665232,618.3540458057125 L 186.02892629351243,594.9533730458601 L 162.9960015970597,584.8927489566748 L 186.02892629351243,574.8321248674896 L 176.8561245665232,551.4314521076371 L 200.25679732637565,560.6042538346264 Z" fill="none" stroke="#FFFFFF" stroke-width="2.4337192186777106" /><path d="M 315.47613212334136,537.5713291381736 L 325.5367562125266,560.6042538346264 L 348.93742897237905,551.4314521076371 L 339.7646272453898,574.8321248674896 L 362.7975519418426,584.8927489566748 L 339.7646272453898,594.9533730458601 L 348.93742897237905,618.3540458057125 L 325.5367562125266,609.1812440787232 L 315.47613212334136,632.2141687751761 L 305.4155080341561,609.1812440787232 L 282.01483527430366,618.3540458057125 L 291.1876370012929,594.9533730458601 L 268.15471230484013,584.8927489566748 L 291.1876370012929,574.8321248674896 L 282.01483527430366,551.4314521076371 L 305.4155080341561,560.6042538346264 Z" fill="none" stroke="#FFFFFF" stroke-width="2.4337192186777106" /><path d="M 420.6348428311218,537.5713291381736 L 430.695466920307,560.6042538346264 L 454.09613968015947,551.4314521076371 L 444.92333795317023,574.8321248674896 L 467.956262649623,584.8927489566748 L 444.92333795317023,594.9533730458601 L 454.09613968015947,618.3540458057125 L 430.695466920307,609.1812440787232 L 420.6348428311218,632.2141687751761 L 410.57421874193653,609.1812440787232 L 387.1735459820841,618.3540458057125 L 396.3463477090733,594.9533730458601 L 373.31342301262055,584.8927489566748 L 396.3463477090733,574.8321248674896 L 387.1735459820841,551.4314521076371 L 410.57421874193653,560.6042538346264 Z" fill="none" stroke="#FFFFFF" stroke-width="2.4337192186777106" /><path d="M 525.7935535389022,537.5713291381736 L 535.8541776280874,560.6042538346264 L 559.2548503879399,551.4314521076371 L 550.0820486609507,574.8321248674896 L 573.1149733574034,584.8927489566748 L 550.0820486609507,594.9533730458601 L 559.2548503879399,618.3540458057125 L 535.8541776280874,609.1812440787232 L 525.7935535389022,632.2141687751761 L 515.732929449717,609.1812440787232 L 492.3322566898645,618.3540458057125 L 501.50505841685373,594.9533730458601 L 478.47213372040096,584.8927489566748 L 501.50505841685373,574.8321248674896 L 492.3322566898645,551.4314521076371 L 515.732929449717,560.6042538346264 Z" fill="none" stroke="#FFFFFF" stroke-width="2.4337192186777106" /><path d="M 630.9522642466827,537.5713291381736 L 641.012888335868,560.6042538346264 L 664.4135610957204,551.4314521076371 L 655.2407593687312,574.8321248674896 L 678.2736840651839,584.8927489566748 L 655.2407593687312,594.9533730458601 L 664.4135610957204,618.3540458057125 L 641.012888335868,609.1812440787232 L 630.9522642466827,632.2141687751761 L 620.8916401574975,609.1812440787232 L 597.490967397645,618.3540458057125 L 606.6637691246343,594.9533730458601 L 583.6308444281815,584.8927489566748 L 606.6637691246343,574.8321248674896 L 597.490967397645,551.4314521076371 L 620.8916401574975,560.6042538346264 Z" fill="none" stroke="#FFFFFF" stroke-width="2.4337192186777106" /><path d="M 736.1109749544631,537.5713291381736 L 746.1715990436484,560.6042538346264 L 769.5722718035008,551.4314521076371 L 760.3994700765115,574.8321248674896 L 783.4323947729644,584.8927489566748 L 760.3994700765115,594.9533730458601 L 769.5722718035008,618.3540458057125 L 746.1715990436484,609.1812440787232 L 736.1109749544631,632.2141687751761 L 726.0503508652779,609.1812440787232 L 702.6496781054254,618.3540458057125 L 711.8224798324147,594.9533730458601 L 688.7895551359619,584.8927489566748 L 711.8224798324147,574.8321248674896 L 702.6496781054254,551.4314521076371 L 726.0503508652779,560.6042538346264 Z" fill="none" stroke="#FFFFFF" stroke-width="2.4337192186777106" /><path d="M 841.2696856622435,537.5713291381736 L 851.3303097514288,560.6042538346264 L 874.7309825112812,551.4314521076371 L 865.5581807842921,574.8321248674896 L 888.5911054807448,584.8927489566748 L 865.5581807842921,594.9533730458601 L 874.7309825112812,618.3540458057125 L 851.3303097514288,609.1812440787232 L 841.2696856622435,632.2141687751761 L 831.2090615730583,609.1812440787232 L 807.8083888132059,618.3540458057125 L 816.9811905401951,594.9533730458601 L 793.9482658437423,584.8927489566748 L 816.9811905401951,574.8321248674896 L 807.8083888132059,551.4314521076371 L 831.2090615730583,560.6042538346264 Z" fill="none" stroke="#FFFFFF" stroke-width="2.4337192186777106" /><path d="M 946.428396370024,537.5713291381736 L 956.4890204592092,560.6042538346264 L 979.8896932190617,551.4314521076371 L 970.7168914920724,574.8321248674896 L 993.7498161885252,584.8927489566748 L 970.7168914920724,594.9533730458601 L 979.8896932190617,618.3540458057125 L 956.4890204592092,609.1812440787232 L 946.428396370024,632.2141687751761 L 936.3677722808387,609.1812440787232 L 912.9670995209863,618.3540458057125 L 922.1399012479756,594.9533730458601 L 899.1069765515227,584.8927489566748 L 922.1399012479756,574.8321248674896 L 912.9670995209863,551.4314521076371 L 936.3677722808387,560.6042538346264 Z" fill="none" stroke="#FFFFFF" stroke-width="2.4337192186777106" /><path d="M 1051.5871070778044,537.5713291381736 L 1061.6477311669896,560.6042538346264 L 1085.048403926842,551.4314521076371 L 1075.875602199853,574.8321248674896 L 1098.9085268963056,584.8927489566748 L 1075.875602199853,594.9533730458601 L 1085.048403926842,618.3540458057125 L 1061.6477311669896,609.1812440787232 L 1051.5871070778044,632.2141687751761 L 1041.5264829886191,609.1812440787232 L 1018.1258102287667,618.3540458057125 L 1027.2986119557559,594.9533730458601 L 1004.2656872593031,584.8927489566748 L 1027.2986119557559,574.8321248674896 L 1018.1258102287667,551.4314521076371 L 1041.5264829886191,560.6042538346264 Z" fill="none" stroke="#FFFFFF" stroke-width="2.4337192186777106" /><path d="M 1156.745817785585,537.5713291381736 L 1166.8064418747701,560.6042538346264 L 1190.2071146346225,551.4314521076371 L 1181.0343129076334,574.8321248674896 L 1204.0672376040861,584.8927489566748 L 1181.0343129076334,594.9533730458601 L 1190.2071146346225,618.3540458057125 L 1166.8064418747701,609.1812440787232 L 1156.745817785585,632.2141687751761 L 1146.6851936963997,609.1812440787232 L 1123.2845209365473,618.3540458057125 L 1132.4573226635364,594.9533730458601 L 1109.4243979670837,584.8927489566748 L 1132.4573226635364,574.8321248674896 L 1123.2845209365473,551.4314521076371 L 1146.6851936963997,560.6042538346264 Z" fill="none" stroke="#FFFFFF" stroke-width="2.4337192186777106" /><path d="M 1261.9045284933654,537.5713291381736 L 1271.9651525825507,560.6042538346264 L 1295.365825342403,551.4314521076371 L 1286.193023615414,574.8321248674896 L 1309.2259483118667,584.8927489566748 L 1286.193023615414,594.9533730458601 L 1295.365825342403,618.3540458057125 L 1271.9651525825507,609.1812440787232 L 1261.9045284933654,632.2141687751761 L 1251.8439044041802,609.1812440787232 L 1228.4432316443279,618.3540458057125 L 1237.616033371317,594.9533730458601 L 1214.5831086748642,584.8927489566748 L 1237.616033371317,574.8321248674896 L 1228.4432316443279,551.4314521076371 L 1251.8439044041802,560.6042538346264 Z" fill="none" stroke="#FFFFFF" stroke-width="2.4337192186777106" /><line x1="47.3214198185012" y1="38.488088119047646" x2="57.837290889279245" y2="38.488088119047646" stroke="#FFFFFF" stroke-width="0.5"/><line x1="152.48013052628164" y1="38.488088119047646" x2="162.9960015970597" y2="38.488088119047646" stroke="#FFFFFF" stroke-width="0.5"/><line x1="257.63884123406206" y1="38.488088119047646" x2="268.15471230484013" y2="38.488088119047646" stroke="#FFFFFF" stroke-width="0.5"/><line x1="362.7975519418426" y1="38.488088119047646" x2="373.31342301262055" y2="38.488088119047646" stroke="#FFFFFF" stroke-width="0.5"/><line x1="467.956262649623" y1="38.488088119047646" x2="478.47213372040096" y2="38.488088119047646" stroke="#FFFFFF" stroke-width="0.5"/><line x1="573.1149733574034" y1="38.488088119047646" x2="583.6308444281815" y2="38.488088119047646" stroke="#FFFFFF" stroke-width="0.5"/><line x1="678.2736840651839" y1="38.488088119047646" x2="688.7895551359619" y2="38.488088119047646" stroke="#FFFFFF" stroke-width="0.5"/><line x1="783.4323947729644" y1="38.488088119047646" x2="793.9482658437423" y2="38.488088119047646" stroke="#FFFFFF" stroke-width="0.5"/><line x1="888.5911054807448" y1="38.488088119047646" x2="899.1069765515227" y2="38.488088119047646" stroke="#FFFFFF" stroke-width="0.5"/><line x1="993.7498161885252" y1="38.488088119047646" x2="1004.2656872593031" y2="38.488088119047646" stroke="#FFFFFF" stroke-width="0.5"/><line x1="1098.9085268963056" y1="38.488088119047646" x2="1109.4243979670837" y2="38.488088119047646" stroke="#FFFFFF" stroke-width="0.5"/><line x1="99.90077517239142" y1="129.55553159198553" x2="110.41664624316948" y2="129.55553159198553" stroke="#FFFFFF" stroke-width="0.5"/><line x1="205.05948588017188" y1="129.55553159198553" x2="215.57535695094995" y2="129.55553159198553" stroke="#FFFFFF" stroke-width="0.5"/><line x1="310.2181965879523" y1="129.55553159198553" x2="320.7340676587304" y2="129.55553159198553" stroke="#FFFFFF" stroke-width="0.5"/><line x1="415.37690729573274" y1="129.55553159198553" x2="425.8927783665108" y2="129.55553159198553" stroke="#FFFFFF" stroke-width="0.5"/><line x1="520.5356180035132" y1="129.55553159198553" x2="531.0514890742912" y2="129.55553159198553" stroke="#FFFFFF" stroke-width="0.5"/><line x1="625.6943287112937" y1="129.55553159198553" x2="636.2101997820716" y2="129.55553159198553" stroke="#FFFFFF" stroke-width="0.5"/><line x1="730.8530394190741" y1="129.55553159198553" x2="741.368910489852" y2="129.55553159198553" stroke="#FFFFFF" stroke-width="0.5"/><line x1="836.0117501268545" y1="129.55553159198553" x2="846.5276211976325" y2="129.55553159198553" stroke="#FFFFFF" stroke-width="0.5"/><line x1="941.1704608346349" y1="129.55553159198553" x2="951.6863319054129" y2="129.55553159198553" stroke="#FFFFFF" stroke-width="0.5"/><line x1="1046.3291715424152" y1="129.55553159198553" x2="1056.8450426131935" y2="129.55553159198553" stroke="#FFFFFF" stroke-width="0.5"/><line x1="1151.487882250196" y1="129.55553159198553" x2="1162.003753320974" y2="129.55553159198553" stroke="#FFFFFF" stroke-width="0.5"/><line x1="47.3214198185012" y1="220.62297506492342" x2="57.837290889279245" y2="220.62297506492342" stroke="#FFFFFF" stroke-width="0.5"/><line x1="152.48013052628164" y1="220.62297506492342" x2="162.9960015970597" y2="220.62297506492342" stroke="#FFFFFF" stroke-width="0.5"/><line x1="257.63884123406206" y1="220.62297506492342" x2="268.15471230484013" y2="220.62297506492342" stroke="#FFFFFF" stroke-width="0.5"/><line x1="362.7975519418426" y1="220.62297506492342" x2="373.31342301262055" y2="220.62297506492342" stroke="#FFFFFF" stroke-width="0.5"/><line x1="467.956262649623" y1="220.62297506492342" x2="478.47213372040096" y2="220.62297506492342" stroke="#FFFFFF" stroke-width="0.5"/><line x1="573.1149733574034" y1="220.62297506492342" x2="583.6308444281815" y2="220.62297506492342" stroke="#FFFFFF" stroke-width="0.5"/><line x1="678.2736840651839" y1="220.62297506492342" x2="688.7895551359619" y2="220.62297506492342" stroke="#FFFFFF" stroke-width="0.5"/><line x1="783.4323947729644" y1="220.62297506492342" x2="793.9482658437423" y2="220.62297506492342" stroke="#FFFFFF" stroke-width="0.5"/><line x1="888.5911054807448" y1="220.62297506492342" x2="899.1069765515227" y2="220.62297506492342" stroke="#FFFFFF" stroke-width="0.5"/><line x1="993.7498161885252" y1="220.62297506492342" x2="1004.2656872593031" y2="220.62297506492342" stroke="#FFFFFF" stroke-width="0.5"/><line x1="1098.9085268963056" y1="220.62297506492342" x2="1109.4243979670837" y2="220.62297506492342" stroke="#FFFFFF" stroke-width="0.5"/><line x1="99.90077517239142" y1="311.69041853786126" x2="110.41664624316948" y2="311.69041853786126" stroke="#FFFFFF" stroke-width="0.5"/><line x1="205.05948588017188" y1="311.69041853786126" x2="215.57535695094995" y2="311.69041853786126" stroke="#FFFFFF" stroke-width="0.5"/><line x1="310.2181965879523" y1="311.69041853786126" x2="320.7340676587304" y2="311.69041853786126" stroke="#FFFFFF" stroke-width="0.5"/><line x1="415.37690729573274" y1="311.69041853786126" x2="425.8927783665108" y2="311.69041853786126" stroke="#FFFFFF" stroke-width="0.5"/><line x1="520.5356180035132" y1="311.69041853786126" x2="531.0514890742912" y2="311.69041853786126" stroke="#FFFFFF" stroke-width="0.5"/><line x1="625.6943287112937" y1="311.69041853786126" x2="636.2101997820716" y2="311.69041853786126" stroke="#FFFFFF" stroke-width="0.5"/><line x1="730.8530394190741" y1="311.69041853786126" x2="741.368910489852" y2="311.69041853786126" stroke="#FFFFFF" stroke-width="0.5"/><line x1="836.0117501268545" y1="311.69041853786126" x2="846.5276211976325" y2="311.69041853786126" stroke="#FFFFFF" stroke-width="0.5"/><line x1="941.1704608346349" y1="311.69041853786126" x2="951.6863319054129" y2="311.69041853786126" stroke="#FFFFFF" stroke-width="0.5"/><line x1="1046.3291715424152" y1="311.69041853786126" x2="1056.8450426131935" y2="311.69041853786126" stroke="#FFFFFF" stroke-width="0.5"/><line x1="1151.487882250196" y1="311.69041853786126" x2="1162.003753320974" y2="311.69041853786126" stroke="#FFFFFF" stroke-width="0.5"/><line x1="47.3214198185012" y1="402.7578620107991" x2="57.837290889279245" y2="402.7578620107991" stroke="#FFFFFF" stroke-width="0.5"/><line x1="152.48013052628164" y1="402.7578620107991" x2="162.9960015970597" y2="402.7578620107991" stroke="#FFFFFF" stroke-width="0.5"/><line x1="257.63884123406206" y1="402.7578620107991" x2="268.15471230484013" y2="402.7578620107991" stroke="#FFFFFF" stroke-width="0.5"/><line x1="362.7975519418426" y1="402.7578620107991" x2="373.31342301262055" y2="402.7578620107991" stroke="#FFFFFF" stroke-width="0.5"/><line x1="467.956262649623" y1="402.7578620107991" x2="478.47213372040096" y2="402.7578620107991" stroke="#FFFFFF" stroke-width="0.5"/><line x1="573.1149733574034" y1="402.7578620107991" x2="583.6308444281815" y2="402.7578620107991" stroke="#FFFFFF" stroke-width="0.5"/><line x1="678.2736840651839" y1="402.7578620107991" x2="688.7895551359619" y2="402.7578620107991" stroke="#FFFFFF" stroke-width="0.5"/><line x1="783.4323947729644" y1="402.7578620107991" x2="793.9482658437423" y2="402.7578620107991" stroke="#FFFFFF" stroke-width="0.5"/><line x1="888.5911054807448" y1="402.7578620107991" x2="899.1069765515227" y2="402.7578620107991" stroke="#FFFFFF" stroke-width="0.5"/><line x1="993.7498161885252" y1="402.7578620107991" x2="1004.2656872593031" y2="402.7578620107991" stroke="#FFFFFF" stroke-width="0.5"/><line x1="1098.9085268963056" y1="402.7578620107991" x2="1109.4243979670837" y2="402.7578620107991" stroke="#FFFFFF" stroke-width="0.5"/><line x1="99.90077517239142" y1="493.82530548373705" x2="110.41664624316948" y2="493.82530548373705" stroke="#FFFFFF" stroke-width="0.5"/><line x1="205.05948588017188" y1="493.82530548373705" x2="215.57535695094995" y2="493.82530548373705" stroke="#FFFFFF" stroke-width="0.5"/><line x1="310.2181965879523" y1="493.82530548373705" x2="320.7340676587304" y2="493.82530548373705" stroke="#FFFFFF" stroke-width="0.5"/><line x1="415.37690729573274" y1="493.82530548373705" x2="425.8927783665108" y2="493.82530548373705" stroke="#FFFFFF" stroke-width="0.5"/><line x1="520.5356180035132" y1="493.82530548373705" x2="531.0514890742912" y2="493.82530548373705" stroke="#FFFFFF" stroke-width="0.5"/><line x1="625.6943287112937" y1="493.82530548373705" x2="636.2101997820716" y2="493.82530548373705" stroke="#FFFFFF" stroke-width="0.5"/><line x1="730.8530394190741" y1="493.82530548373705" x2="741.368910489852" y2="493.82530548373705" stroke="#FFFFFF" stroke-width="0.5"/><line x1="836.0117501268545" y1="493.82530548373705" x2="846.5276211976325" y2="493.82530548373705" stroke="#FFFFFF" stroke-width="0.5"/><line x1="941.1704608346349" y1="493.82530548373705" x2="951.6863319054129" y2="493.82530548373705" stroke="#FFFFFF" stroke-width="0.5"/><line x1="1046.3291715424152" y1="493.82530548373705" x2="1056.8450426131935" y2="493.82530548373705" stroke="#FFFFFF" stroke-width="0.5"/><line x1="1151.487882250196" y1="493.82530548373705" x2="1162.003753320974" y2="493.82530548373705" stroke="#FFFFFF" stroke-width="0.5"/><line x1="47.3214198185012" y1="584.8927489566748" x2="57.837290889279245" y2="584.8927489566748" stroke="#FFFFFF" stroke-width="0.5"/><line x1="152.48013052628164" y1="584.8927489566748" x2="162.9960015970597" y2="584.8927489566748" stroke="#FFFFFF" stroke-width="0.5"/><line x1="257.63884123406206" y1="584.8927489566748" x2="268.15471230484013" y2="584.8927489566748" stroke="#FFFFFF" stroke-width="0.5"/><line x1="362.7975519418426" y1="584.8927489566748" x2="373.31342301262055" y2="584.8927489566748" stroke="#FFFFFF" stroke-width="0.5"/><line x1="467.956262649623" y1="584.8927489566748" x2="478.47213372040096" y2="584.8927489566748" stroke="#FFFFFF" stroke-width="0.5"/><line x1="573.1149733574034" y1="584.8927489566748" x2="583.6308444281815" y2="584.8927489566748" stroke="#FFFFFF" stroke-width="0.5"/><line x1="678.2736840651839" y1="584.8927489566748" x2="688.7895551359619" y2="584.8927489566748" stroke="#FFFFFF" stroke-width="0.5"/><line x1="783.4323947729644" y1="584.8927489566748" x2="793.9482658437423" y2="584.8927489566748" stroke="#FFFFFF" stroke-width="0.5"/><line x1="888.5911054807448" y1="584.8927489566748" x2="899.1069765515227" y2="584.8927489566748" stroke="#FFFFFF" stroke-width="0.5"/><line x1="993.7498161885252" y1="584.8927489566748" x2="1004.2656872593031" y2="584.8927489566748" stroke="#FFFFFF" stroke-width="0.5"/><line x1="1098.9085268963056" y1="584.8927489566748" x2="1109.4243979670837" y2="584.8927489566748" stroke="#FFFFFF" stroke-width="0.5"/></g><g opacity="0.0798976421495423"><path d="M 301.5420915100454 228.6770297161662 L 372.9188027663523 228.6770297161662 L 372.9188027663523 177.77201724195405" fill="none" stroke="#FFFFFF" stroke-width="2.2811262615868477" stroke-linecap="square"/><path d="M 285.1917745010889 401.10571969352003 L 285.1917745010889 440.15157206436197 L 229.83568051671236 440.15157206436197" fill="none" stroke="#FFFFFF" stroke-width="2.2811262615868477" stroke-linecap="square"/><path d="M 691.6716102006249 438.20090910336046 L 691.6716102006249 363.12943941668686 L 630.8945395017371 363.12943941668686 L 630.8945395017371 287.1120265866875" fill="none" stroke="#FFFFFF" stroke-width="2.2811262615868477" stroke-linecap="square"/><path d="M 921.0580234048227 148.8357246615159 L 864.4862447282278 148.8357246615159 L 864.4862447282278 205.8744440998626 L 787.831594298563 205.8744440998626" fill="none" stroke="#FFFFFF" stroke-width="2.2811262615868477" stroke-linecap="square"/><path d="M 1060.8700280361204 397.0574106634862 L 1060.8700280361204 322.7771947449644 L 985.3085314891227 322.7771947449644" fill="none" stroke="#FFFFFF" stroke-width="2.2811262615868477" stroke-linecap="square"/><path d="M 280.03571046517965 366.89010428585584 L 320.90768200779223 366.89010428585584 L 320.90768200779223 332.7739344719962 L 369.83529368429754 332.7739344719962" fill="none" stroke="#FFFFFF" stroke-width="2.2811262615868477" stroke-linecap="square"/><path d="M 29.993963255544177 469.9048721370776 L 60.67486291203342 469.9048721370776 L 60.67486291203342 438.10127086592695" fill="none" stroke="#FFFFFF" stroke-width="2.2811262615868477" stroke-linecap="square"/><path d="M 438.9534475463226 518.2375540762383 L 438.9534475463226 570.686724321165 L 364.89045298571745 570.686724321165" fill="none" stroke="#FFFFFF" stroke-width="2.2811262615868477" stroke-linecap="square"/><line x1="245.52456390369895" y1="545.855058685809" x2="516.9169094585427" y2="545.855058685809" stroke="#FFFFFF" stroke-width="0.5" stroke-dasharray="5,10"/><circle cx="229.83568051671236" cy="440.15157206436197" r="4.326776267181512" fill="#FFFFFF"/><circle cx="285.1917745010889" cy="401.10571969352003" r="3.46142101374521" fill="#FFFFFF"/><circle cx="787.831594298563" cy="205.8744440998626" r="4.326776267181512" fill="#FFFFFF"/><circle cx="921.0580234048227" cy="148.8357246615159" r="3.46142101374521" fill="#FFFFFF"/><rect x="860.1594684610463" y="144.5089483943344" width="8.653552534363024" height="8.653552534363024" fill="#FFFFFF"/><rect x="56.348086644851904" y="465.57809586989606" width="8.653552534363024" height="8.653552534363024" fill="#FFFFFF"/><rect x="984.4859110189692" y="152.4614126456877" width="7.976726245931368" height="7.976726245931368" fill="#FFFFFF"/><rect x="965.0416047011437" y="563.4311621141507" width="11.214775624929928" height="11.214775624929928" fill="#FFFFFF"/><circle cx="451.4292599872822" cy="316.6106344743681" r="2.873149285830384" fill="#FFFFFF"/></g><g opacity="0.2"><rect x="40" y="40" width="1120" height="550" fill="none" stroke="#444444" stroke-width="2" rx="8"/></g><g opacity="0.7155307681372067"><line x1="50" y1="50" x2="70" y2="50" stroke="#888888" stroke-width="3"/><line x1="50" y1="50" x2="50" y2="70" stroke="#888888" stroke-width="3"/><line x1="1150" y1="580" x2="1130" y2="580" stroke="#888888" stroke-width="3"/><line x1="1150" y1="580" x2="1150" y2="560" stroke="#888888" stroke-width="3"/></g></svg>