<svg xmlns="http://www.w3.org/2000/svg" width="1200" height="630" viewBox="0 0 1200 630"><rect x="0" y="0" width="1200" height="630" fill="#000000"/><g opacity="0.05"><line x1="0" y1="0" x2="0" y2="630" stroke="#666666" stroke-width="0.5"/><line x1="60" y1="0" x2="60" y2="630" stroke="#666666" stroke-width="0.5"/><line x1="120" y1="0" x2="120" y2="630" stroke="#666666" stroke-width="0.5"/><line x1="180" y1="0" x2="180" y2="630" stroke="#666666" stroke-width="0.5"/><line x1="240" y1="0" x2="240" y2="630" stroke="#666666" stroke-width="0.5"/><line x1="300" y1="0" x2="300" y2="630" stroke="#666666" stroke-width="0.5"/><line x1="360" y1="0" x2="360" y2="630" stroke="#666666" stroke-width="0.5"/><line x1="420" y1="0" x2="420" y2="630" stroke="#666666" stroke-width="0.5"/><line x1="480" y1="0" x2="480" y2="630" stroke="#666666" stroke-width="0.5"/><line x1="540" y1="0" x2="540" y2="630" stroke="#666666" stroke-width="0.5"/><line x1="600" y1="0" x2="600" y2="630" stroke="#666666" stroke-width="0.5"/><line x1="660" y1="0" x2="660" y2="630" stroke="#666666" stroke-width="0.5"/><line x1="720" y1="0" x2="720" y2="630" stroke="#666666" stroke-width="0.5"/><line x1="780" y1="0" x2="780" y2="630" stroke="#666666" stroke-width="0.5"/><line x1="840" y1="0" x2="840" y2="630" stroke="#666666" stroke-width="0.5"/><line x1="900" y1="0" x2="900" y2="630" stroke="#666666" stroke-width="0.5"/><line x1="960" y1="0" x2="960" y2="630" stroke="#666666" stroke-width="0.5"/><line x1="1020" y1="0" x2="1020" y2="630" stroke="#666666" stroke-width="0.5"/><line x1="1080" y1="0" x2="1080" y2="630" stroke="#666666" stroke-width="0.5"/><line x1="1140" y1="0" x2="1140" y2="630" stroke="#666666" stroke-width="0.5"/><line x1="1200" y1="0" x2="1200" y2="630" stroke="#666666" stroke-width="0.5"/><line x1="0" y1="0" x2="1200" y2="0" stroke="#666666" stroke-width="0.5"/><line x1="0" y1="60" x2="1200" y2="60" stroke="#666666" stroke-width="0.5"/><line x1="0" y1="120" x2="1200" y2="120" stroke="#666666" stroke-width="0.5"/><line x1="0" y1="180" x2="1200" y2="180" stroke="#666666" stroke-width="0.5"/><line x1="0" y1="240" x2="1200" y2="240" stroke="#666666" stroke-width="0.5"/><line x1="0" y1="300" x2="1200" y2="300" stroke="#666666" stroke-width="0.5"/><line x1="0" y1="360" x2="1200" y2="360" stroke="#666666" stroke-width="0.5"/><line x1="0" y1="420" x2="1200" y2="420" stroke="#666666" stroke-width="0.5"/><line x1="0" y1="480" x2="1200" y2="480" stroke="#666666" stroke-width="0.5"/><line x1="0" y1="540" x2="1200" y2="540" stroke="#666666" stroke-width="0.5"/><line x1="0" y1="600" x2="1200" y2="600" stroke="#666666" stroke-width="0.5"/><line x1="0" y1="660" x2="1200" y2="660" stroke="#666666" stroke-width="0.5"/></g><g opacity="0.18660250908536952"><path d="M -53.54569396706654,-101.73681853742643 L -43.30016898922268,-78.28057932220948 L -19.469422990359412,-87.62196494377366 L -28.81080861192361,-63.79121894491039 L -5.354569396706651,-53.54569396706654 L -28.81080861192361,-43.30016898922269 L -19.469422990359412,-19.46942299035942 L -43.30016898922268,-28.81080861192361 L -53.54569396706654,-5.354569396706651 L -63.79121894491039,-28.81080861192361 L -87.62196494377366,-19.469422990359412 L -78.28057932220946,-43.300168989222676 L -101.73681853742643,-53.54569396706653 L -78.28057932220946,-63.7912189449104 L -87.62196494377366,-87.62196494377366 L -63.79121894491041,-78.28057932220946 Z" fill="none" stroke="#00A86B" stroke-width="1.9651072032121508" /><path d="M 53.54569396706654,-101.73681853742643 L 63.7912189449104,-78.28057932220948 L 87.62196494377366,-87.62196494377366 L 78.28057932220948,-63.79121894491039 L 101.73681853742643,-53.54569396706654 L 78.28057932220948,-43.30016898922269 L 87.62196494377366,-19.46942299035942 L 63.7912189449104,-28.81080861192361 L 53.54569396706654,-5.354569396706651 L 43.30016898922269,-28.81080861192361 L 19.46942299035942,-19.469422990359412 L 28.810808611923616,-43.300168989222676 L 5.354569396706651,-53.54569396706653 L 28.810808611923612,-63.7912189449104 L 19.469422990359412,-87.62196494377366 L 43.30016898922267,-78.28057932220946 Z" fill="none" stroke="#00A86B" stroke-width="1.9651072032121508" /><path d="M 160.63708190119962,-101.73681853742643 L 170.88260687904346,-78.28057932220948 L 194.71335287790674,-87.62196494377366 L 185.37196725634254,-63.79121894491039 L 208.8282064715595,-53.54569396706654 L 185.37196725634254,-43.30016898922269 L 194.71335287790674,-19.46942299035942 L 170.88260687904346,-28.81080861192361 L 160.63708190119962,-5.354569396706651 L 150.39155692335578,-28.81080861192361 L 126.5608109244925,-19.469422990359412 L 135.9021965460567,-43.300168989222676 L 112.44595733083973,-53.54569396706653 L 135.9021965460567,-63.7912189449104 L 126.5608109244925,-87.62196494377366 L 150.39155692335575,-78.28057932220946 Z" fill="none" stroke="#00A86B" stroke-width="1.9651072032121508" /><path d="M 267.7284698353327,-101.73681853742643 L 277.97399481317655,-78.28057932220948 L 301.8047408120398,-87.62196494377366 L 292.4633551904756,-63.79121894491039 L 315.9195944056926,-53.54569396706654 L 292.4633551904756,-43.30016898922269 L 301.8047408120398,-19.46942299035942 L 277.97399481317655,-28.81080861192361 L 267.7284698353327,-5.354569396706651 L 257.48294485748886,-28.81080861192361 L 233.65219885862558,-19.469422990359412 L 242.99358448018978,-43.300168989222676 L 219.53734526497283,-53.54569396706653 L 242.99358448018978,-63.7912189449104 L 233.65219885862558,-87.62196494377366 L 257.48294485748886,-78.28057932220946 Z" fill="none" stroke="#00A86B" stroke-width="1.9651072032121508" /><path d="M 374.8198577694658,-101.73681853742643 L 385.0653827473096,-78.28057932220948 L 408.8961287461729,-87.62196494377366 L 399.5547431246087,-63.79121894491039 L 423.01098233982566,-53.54569396706654 L 399.5547431246087,-43.30016898922269 L 408.8961287461729,-19.46942299035942 L 385.0653827473096,-28.81080861192361 L 374.8198577694658,-5.354569396706651 L 364.57433279162194,-28.81080861192361 L 340.74358679275866,-19.469422990359412 L 350.08497241432286,-43.300168989222676 L 326.6287331991059,-53.54569396706653 L 350.08497241432286,-63.7912189449104 L 340.74358679275866,-87.62196494377366 L 364.57433279162194,-78.28057932220946 Z" fill="none" stroke="#00A86B" stroke-width="1.9651072032121508" /><path d="M 481.91124570359887,-101.73681853742643 L 492.1567706814427,-78.28057932220948 L 515.987516680306,-87.62196494377366 L 506.6461310587418,-63.79121894491039 L 530.1023702739587,-53.54569396706654 L 506.6461310587418,-43.30016898922269 L 515.987516680306,-19.46942299035942 L 492.1567706814427,-28.81080861192361 L 481.91124570359887,-5.354569396706651 L 471.665720725755,-28.81080861192361 L 447.83497472689174,-19.469422990359412 L 457.17636034845594,-43.300168989222676 L 433.720121133239,-53.54569396706653 L 457.17636034845594,-63.7912189449104 L 447.83497472689174,-87.62196494377366 L 471.665720725755,-78.28057932220946 Z" fill="none" stroke="#00A86B" stroke-width="1.9651072032121508" /><path d="M 589.002633637732,-101.73681853742643 L 599.2481586155758,-78.28057932220948 L 623.0789046144391,-87.62196494377366 L 613.7375189928749,-63.79121894491039 L 637.1937582080918,-53.54569396706654 L 613.7375189928749,-43.30016898922269 L 623.0789046144391,-19.46942299035942 L 599.2481586155758,-28.81080861192361 L 589.002633637732,-5.354569396706651 L 578.7571086598881,-28.81080861192361 L 554.9263626610248,-19.469422990359412 L 564.267748282589,-43.300168989222676 L 540.8115090673721,-53.54569396706653 L 564.267748282589,-63.7912189449104 L 554.9263626610248,-87.62196494377366 L 578.7571086598881,-78.28057932220946 Z" fill="none" stroke="#00A86B" stroke-width="1.9651072032121508" /><path d="M 696.094021571865,-101.73681853742643 L 706.3395465497089,-78.28057932220948 L 730.1702925485722,-87.62196494377366 L 720.828906927008,-63.79121894491039 L 744.2851461422249,-53.54569396706654 L 720.828906927008,-43.30016898922269 L 730.1702925485722,-19.46942299035942 L 706.3395465497089,-28.81080861192361 L 696.094021571865,-5.354569396706651 L 685.8484965940212,-28.81080861192361 L 662.0177505951578,-19.469422990359412 L 671.359136216722,-43.300168989222676 L 647.9028970015052,-53.54569396706653 L 671.359136216722,-63.7912189449104 L 662.0177505951578,-87.62196494377366 L 685.8484965940212,-78.28057932220946 Z" fill="none" stroke="#00A86B" stroke-width="1.9651072032121508" /><path d="M 803.1854095059981,-101.73681853742643 L 813.430934483842,-78.28057932220948 L 837.2616804827053,-87.62196494377366 L 827.9202948611411,-63.79121894491039 L 851.376534076358,-53.54569396706654 L 827.9202948611411,-43.30016898922269 L 837.2616804827053,-19.46942299035942 L 813.430934483842,-28.81080861192361 L 803.1854095059981,-5.354569396706651 L 792.9398845281543,-28.81080861192361 L 769.1091385292909,-19.469422990359412 L 778.4505241508551,-43.300168989222676 L 754.9942849356382,-53.54569396706653 L 778.4505241508551,-63.7912189449104 L 769.1091385292909,-87.62196494377366 L 792.9398845281543,-78.28057932220946 Z" fill="none" stroke="#00A86B" stroke-width="1.9651072032121508" /><path d="M 910.2767974401312,-101.73681853742643 L 920.522322417975,-78.28057932220948 L 944.3530684168384,-87.62196494377366 L 935.0116827952742,-63.79121894491039 L 958.4679220104911,-53.54569396706654 L 935.0116827952742,-43.30016898922269 L 944.3530684168384,-19.46942299035942 L 920.522322417975,-28.81080861192361 L 910.2767974401312,-5.354569396706651 L 900.0312724622873,-28.81080861192361 L 876.200526463424,-19.469422990359412 L 885.5419120849882,-43.300168989222676 L 862.0856728697713,-53.54569396706653 L 885.5419120849882,-63.7912189449104 L 876.200526463424,-87.62196494377366 L 900.0312724622873,-78.28057932220946 Z" fill="none" stroke="#00A86B" stroke-width="1.9651072032121508" /><path d="M 1017.3681853742643,-101.73681853742643 L 1027.6137103521082,-78.28057932220948 L 1051.4444563509714,-87.62196494377366 L 1042.1030707294071,-63.79121894491039 L 1065.5593099446241,-53.54569396706654 L 1042.1030707294071,-43.30016898922269 L 1051.4444563509714,-19.46942299035942 L 1027.6137103521082,-28.81080861192361 L 1017.3681853742643,-5.354569396706651 L 1007.1226603964204,-28.81080861192361 L 983.2919143975571,-19.469422990359412 L 992.6333000191213,-43.300168989222676 L 969.1770608039044,-53.54569396706653 L 992.6333000191213,-63.7912189449104 L 983.2919143975571,-87.62196494377366 L 1007.1226603964204,-78.28057932220946 Z" fill="none" stroke="#00A86B" stroke-width="1.9651072032121508" /><path d="M 1124.4595733083975,-101.73681853742643 L 1134.7050982862413,-78.28057932220948 L 1158.5358442851045,-87.62196494377366 L 1149.1944586635404,-63.79121894491039 L 1172.6506978787575,-53.54569396706654 L 1149.1944586635404,-43.30016898922269 L 1158.5358442851045,-19.46942299035942 L 1134.7050982862413,-28.81080861192361 L 1124.4595733083975,-5.354569396706651 L 1114.2140483305536,-28.81080861192361 L 1090.3833023316904,-19.469422990359412 L 1099.7246879532545,-43.300168989222676 L 1076.2684487380375,-53.54569396706653 L 1099.7246879532545,-63.7912189449104 L 1090.3833023316904,-87.62196494377366 L 1114.2140483305536,-78.28057932220946 Z" fill="none" stroke="#00A86B" stroke-width="1.9651072032121508" /><path d="M 1231.5509612425303,-101.73681853742643 L 1241.7964862203742,-78.28057932220948 L 1265.6272322192374,-87.62196494377366 L 1256.2858465976733,-63.79121894491039 L 1279.7420858128903,-53.54569396706654 L 1256.2858465976733,-43.30016898922269 L 1265.6272322192374,-19.46942299035942 L 1241.7964862203742,-28.81080861192361 L 1231.5509612425303,-5.354569396706651 L 1221.3054362646865,-28.81080861192361 L 1197.4746902658233,-19.469422990359412 L 1206.8160758873873,-43.300168989222676 L 1183.3598366721703,-53.54569396706653 L 1206.8160758873873,-63.7912189449104 L 1197.4746902658233,-87.62196494377366 L 1221.3054362646865,-78.28057932220946 Z" fill="none" stroke="#00A86B" stroke-width="1.9651072032121508" /><path d="M 2.95085532262013e-15,-8.995676586467184 L 10.245524977843854,14.460562628749773 L 34.07627097670713,5.119177007185584 L 24.734885355142932,28.949923006048856 L 48.19112457035989,39.195447983892706 L 24.734885355142932,49.440972961736556 L 34.07627097670713,73.27171896059983 L 10.245524977843854,63.93033333903564 L 2.95085532262013e-15,87.3865725542526 L -10.24552497784385,63.93033333903564 L -34.07627097670712,73.27171896059983 L -24.734885355142925,49.44097296173657 L -48.19112457035989,39.19544798389271 L -24.73488535514293,28.94992300604885 L -34.07627097670713,5.119177007185584 L -10.245524977843868,14.46056262874978 Z" fill="none" stroke="#00A86B" stroke-width="1.9651072032121508" /><path d="M 107.09138793413308,-8.995676586467184 L 117.33691291197694,14.460562628749773 L 141.1676589108402,5.119177007185584 L 131.826273289276,28.949923006048856 L 155.28251250449296,39.195447983892706 L 131.826273289276,49.440972961736556 L 141.1676589108402,73.27171896059983 L 117.33691291197694,63.93033333903564 L 107.09138793413308,87.3865725542526 L 96.84586295628924,63.93033333903564 L 73.01511695742596,73.27171896059983 L 82.35650257899016,49.44097296173657 L 58.90026336377319,39.19544798389271 L 82.35650257899016,28.94992300604885 L 73.01511695742596,5.119177007185584 L 96.84586295628921,14.46056262874978 Z" fill="none" stroke="#00A86B" stroke-width="1.9651072032121508" /><path d="M 214.18277586826616,-8.995676586467184 L 224.42830084611,14.460562628749773 L 248.25904684497328,5.119177007185584 L 238.91766122340908,28.949923006048856 L 262.37390043862604,39.195447983892706 L 238.91766122340908,49.440972961736556 L 248.25904684497328,73.27171896059983 L 224.42830084611,63.93033333903564 L 214.18277586826616,87.3865725542526 L 203.93725089042232,63.93033333903564 L 180.10650489155904,73.27171896059983 L 189.44789051312324,49.44097296173657 L 165.9916512979063,39.19544798389271 L 189.44789051312324,28.94992300604885 L 180.10650489155904,5.119177007185584 L 203.9372508904223,14.46056262874978 Z" fill="none" stroke="#00A86B" stroke-width="1.9651072032121508" /><path d="M 321.27416380239924,-8.995676586467184 L 331.5196887802431,14.460562628749773 L 355.35043477910637,5.119177007185584 L 346.00904915754217,28.949923006048856 L 369.4652883727591,39.195447983892706 L 346.00904915754217,49.440972961736556 L 355.35043477910637,73.27171896059983 L 331.5196887802431,63.93033333903564 L 321.27416380239924,87.3865725542526 L 311.0286388245554,63.93033333903564 L 287.1978928256921,73.27171896059983 L 296.5392784472563,49.44097296173657 L 273.08303923203937,39.19544798389271 L 296.5392784472563,28.94992300604885 L 287.1978928256921,5.119177007185584 L 311.0286388245554,14.46056262874978 Z" fill="none" stroke="#00A86B" stroke-width="1.9651072032121508" /><path d="M 428.3655517365323,-8.995676586467184 L 438.61107671437617,14.460562628749773 L 462.44182271323945,5.119177007185584 L 453.10043709167525,28.949923006048856 L 476.5566763068922,39.195447983892706 L 453.10043709167525,49.440972961736556 L 462.44182271323945,73.27171896059983 L 438.61107671437617,63.93033333903564 L 428.3655517365323,87.3865725542526 L 418.1200267586885,63.93033333903564 L 394.2892807598252,73.27171896059983 L 403.6306663813894,49.44097296173657 L 380.17442716617245,39.19544798389271 L 403.6306663813894,28.94992300604885 L 394.2892807598252,5.119177007185584 L 418.1200267586885,14.46056262874978 Z" fill="none" stroke="#00A86B" stroke-width="1.9651072032121508" /><path d="M 535.4569396706654,-8.995676586467184 L 545.7024646485092,14.460562628749773 L 569.5332106473726,5.119177007185584 L 560.1918250258084,28.949923006048856 L 583.6480642410253,39.195447983892706 L 560.1918250258084,49.440972961736556 L 569.5332106473726,73.27171896059983 L 545.7024646485092,63.93033333903564 L 535.4569396706654,87.3865725542526 L 525.2114146928216,63.93033333903564 L 501.3806686939583,73.27171896059983 L 510.7220543155225,49.44097296173657 L 487.26581510030553,39.19544798389271 L 510.7220543155225,28.94992300604885 L 501.3806686939583,5.119177007185584 L 525.2114146928216,14.46056262874978 Z" fill="none" stroke="#00A86B" stroke-width="1.9651072032121508" /><path d="M 642.5483276047985,-8.995676586467184 L 652.7938525826423,14.460562628749773 L 676.6245985815057,5.119177007185584 L 667.2832129599415,28.949923006048856 L 690.7394521751584,39.195447983892706 L 667.2832129599415,49.440972961736556 L 676.6245985815057,73.27171896059983 L 652.7938525826423,63.93033333903564 L 642.5483276047985,87.3865725542526 L 632.3028026269546,63.93033333903564 L 608.4720566280914,73.27171896059983 L 617.8134422496555,49.44097296173657 L 594.3572030344386,39.19544798389271 L 617.8134422496555,28.94992300604885 L 608.4720566280913,5.119177007185584 L 632.3028026269546,14.46056262874978 Z" fill="none" stroke="#00A86B" stroke-width="1.9651072032121508" /><path d="M 749.6397155389316,-8.995676586467184 L 759.8852405167754,14.460562628749773 L 783.7159865156387,5.119177007185584 L 774.3746008940745,28.949923006048856 L 797.8308401092914,39.195447983892706 L 774.3746008940745,49.440972961736556 L 783.7159865156387,73.27171896059983 L 759.8852405167754,63.93033333903564 L 749.6397155389316,87.3865725542526 L 739.3941905610877,63.93033333903564 L 715.5634445622245,73.27171896059983 L 724.9048301837886,49.44097296173657 L 701.4485909685717,39.19544798389271 L 724.9048301837886,28.94992300604885 L 715.5634445622244,5.119177007185584 L 739.3941905610877,14.46056262874978 Z" fill="none" stroke="#00A86B" stroke-width="1.9651072032121508" /><path d="M 856.7311034730646,-8.995676586467184 L 866.9766284509085,14.460562628749773 L 890.8073744497718,5.119177007185584 L 881.4659888282076,28.949923006048856 L 904.9222280434245,39.195447983892706 L 881.4659888282076,49.440972961736556 L 890.8073744497718,73.27171896059983 L 866.9766284509085,63.93033333903564 L 856.7311034730646,87.3865725542526 L 846.4855784952208,63.93033333903564 L 822.6548324963576,73.27171896059983 L 831.9962181179217,49.44097296173657 L 808.5399789027048,39.19544798389271 L 831.9962181179217,28.94992300604885 L 822.6548324963575,5.119177007185584 L 846.4855784952208,14.46056262874978 Z" fill="none" stroke="#00A86B" stroke-width="1.9651072032121508" /><path d="M 963.8224914071977,-8.995676586467184 L 974.0680163850416,14.460562628749773 L 997.8987623839049,5.119177007185584 L 988.5573767623407,28.949923006048856 L 1012.0136159775576,39.195447983892706 L 988.5573767623407,49.440972961736556 L 997.8987623839049,73.27171896059983 L 974.0680163850416,63.93033333903564 L 963.8224914071977,87.3865725542526 L 953.5769664293539,63.93033333903564 L 929.7462204304907,73.27171896059983 L 939.0876060520548,49.44097296173657 L 915.6313668368379,39.19544798389271 L 939.0876060520548,28.94992300604885 L 929.7462204304906,5.119177007185584 L 953.5769664293539,14.46056262874978 Z" fill="none" stroke="#00A86B" stroke-width="1.9651072032121508" /><path d="M 1070.9138793413308,-8.995676586467184 L 1081.1594043191747,14.460562628749773 L 1104.9901503180379,5.119177007185584 L 1095.6487646964738,28.949923006048856 L 1119.1050039116908,39.195447983892706 L 1095.6487646964738,49.440972961736556 L 1104.9901503180379,73.27171896059983 L 1081.1594043191747,63.93033333903564 L 1070.9138793413308,87.3865725542526 L 1060.668354363487,63.93033333903564 L 1036.8376083646237,73.27171896059983 L 1046.1789939861878,49.44097296173657 L 1022.7227547709709,39.19544798389271 L 1046.1789939861878,28.94992300604885 L 1036.8376083646237,5.119177007185584 L 1060.668354363487,14.46056262874978 Z" fill="none" stroke="#00A86B" stroke-width="1.9651072032121508" /><path d="M 1178.0052672754641,-8.995676586467184 L 1188.250792253308,14.460562628749773 L 1212.0815382521712,5.119177007185584 L 1202.740152630607,28.949923006048856 L 1226.196391845824,39.195447983892706 L 1202.740152630607,49.440972961736556 L 1212.0815382521712,73.27171896059983 L 1188.250792253308,63.93033333903564 L 1178.0052672754641,87.3865725542526 L 1167.7597422976203,63.93033333903564 L 1143.928996298757,73.27171896059983 L 1153.2703819203211,49.44097296173657 L 1129.8141427051041,39.19544798389271 L 1153.2703819203211,28.94992300604885 L 1143.928996298757,5.119177007185584 L 1167.7597422976203,14.46056262874978 Z" fill="none" stroke="#00A86B" stroke-width="1.9651072032121508" /><path d="M 1285.096655209597,-8.995676586467184 L 1295.3421801874408,14.460562628749773 L 1319.172926186304,5.119177007185584 L 1309.83154056474,28.949923006048856 L 1333.287779779957,39.195447983892706 L 1309.83154056474,49.440972961736556 L 1319.172926186304,73.27171896059983 L 1295.3421801874408,63.93033333903564 L 1285.096655209597,87.3865725542526 L 1274.8511302317531,63.93033333903564 L 1251.02038423289,73.27171896059983 L 1260.361769854454,49.44097296173657 L 1236.905530639237,39.19544798389271 L 1260.361769854454,28.94992300604885 L 1251.02038423289,5.119177007185584 L 1274.8511302317531,14.46056262874978 Z" fill="none" stroke="#00A86B" stroke-width="1.9651072032121508" /><path d="M -53.54569396706654,83.74546536449206 L -43.30016898922268,107.20170457970902 L -19.469422990359412,97.86031895814483 L -28.81080861192361,121.6910649570081 L -5.354569396706651,131.93658993485195 L -28.81080861192361,142.1821149126958 L -19.469422990359412,166.01286091155907 L -43.30016898922268,156.67147528999487 L -53.54569396706654,180.12771450521183 L -63.79121894491039,156.67147528999487 L -87.62196494377366,166.01286091155907 L -78.28057932220946,142.18211491269582 L -101.73681853742643,131.93658993485195 L -78.28057932220946,121.6910649570081 L -87.62196494377366,97.86031895814483 L -63.79121894491041,107.20170457970903 Z" fill="none" stroke="#00A86B" stroke-width="1.9651072032121508" /><path d="M 53.54569396706654,83.74546536449206 L 63.7912189449104,107.20170457970902 L 87.62196494377366,97.86031895814483 L 78.28057932220948,121.6910649570081 L 101.73681853742643,131.93658993485195 L 78.28057932220948,142.1821149126958 L 87.62196494377366,166.01286091155907 L 63.7912189449104,156.67147528999487 L 53.54569396706654,180.12771450521183 L 43.30016898922269,156.67147528999487 L 19.46942299035942,166.01286091155907 L 28.810808611923616,142.18211491269582 L 5.354569396706651,131.93658993485195 L 28.810808611923612,121.6910649570081 L 19.469422990359412,97.86031895814483 L 43.30016898922267,107.20170457970903 Z" fill="none" stroke="#00A86B" stroke-width="1.9651072032121508" /><path d="M 160.63708190119962,83.74546536449206 L 170.88260687904346,107.20170457970902 L 194.71335287790674,97.86031895814483 L 185.37196725634254,121.6910649570081 L 208.8282064715595,131.93658993485195 L 185.37196725634254,142.1821149126958 L 194.71335287790674,166.01286091155907 L 170.88260687904346,156.67147528999487 L 160.63708190119962,180.12771450521183 L 150.39155692335578,156.67147528999487 L 126.5608109244925,166.01286091155907 L 135.9021965460567,142.18211491269582 L 112.44595733083973,131.93658993485195 L 135.9021965460567,121.6910649570081 L 126.5608109244925,97.86031895814483 L 150.39155692335575,107.20170457970903 Z" fill="none" stroke="#00A86B" stroke-width="1.9651072032121508" /><path d="M 267.7284698353327,83.74546536449206 L 277.97399481317655,107.20170457970902 L 301.8047408120398,97.86031895814483 L 292.4633551904756,121.6910649570081 L 315.9195944056926,131.93658993485195 L 292.4633551904756,142.1821149126958 L 301.8047408120398,166.01286091155907 L 277.97399481317655,156.67147528999487 L 267.7284698353327,180.12771450521183 L 257.48294485748886,156.67147528999487 L 233.65219885862558,166.01286091155907 L 242.99358448018978,142.18211491269582 L 219.53734526497283,131.93658993485195 L 242.99358448018978,121.6910649570081 L 233.65219885862558,97.86031895814483 L 257.48294485748886,107.20170457970903 Z" fill="none" stroke="#00A86B" stroke-width="1.9651072032121508" /><path d="M 374.8198577694658,83.74546536449206 L 385.0653827473096,107.20170457970902 L 408.8961287461729,97.86031895814483 L 399.5547431246087,121.6910649570081 L 423.01098233982566,131.93658993485195 L 399.5547431246087,142.1821149126958 L 408.8961287461729,166.01286091155907 L 385.0653827473096,156.67147528999487 L 374.8198577694658,180.12771450521183 L 364.57433279162194,156.67147528999487 L 340.74358679275866,166.01286091155907 L 350.08497241432286,142.18211491269582 L 326.6287331991059,131.93658993485195 L 350.08497241432286,121.6910649570081 L 340.74358679275866,97.86031895814483 L 364.57433279162194,107.20170457970903 Z" fill="none" stroke="#00A86B" stroke-width="1.9651072032121508" /><path d="M 481.91124570359887,83.74546536449206 L 492.1567706814427,107.20170457970902 L 515.987516680306,97.86031895814483 L 506.6461310587418,121.6910649570081 L 530.1023702739587,131.93658993485195 L 506.6461310587418,142.1821149126958 L 515.987516680306,166.01286091155907 L 492.1567706814427,156.67147528999487 L 481.91124570359887,180.12771450521183 L 471.665720725755,156.67147528999487 L 447.83497472689174,166.01286091155907 L 457.17636034845594,142.18211491269582 L 433.720121133239,131.93658993485195 L 457.17636034845594,121.6910649570081 L 447.83497472689174,97.86031895814483 L 471.665720725755,107.20170457970903 Z" fill="none" stroke="#00A86B" stroke-width="1.9651072032121508" /><path d="M 589.002633637732,83.74546536449206 L 599.2481586155758,107.20170457970902 L 623.0789046144391,97.86031895814483 L 613.7375189928749,121.6910649570081 L 637.1937582080918,131.93658993485195 L 613.7375189928749,142.1821149126958 L 623.0789046144391,166.01286091155907 L 599.2481586155758,156.67147528999487 L 589.002633637732,180.12771450521183 L 578.7571086598881,156.67147528999487 L 554.9263626610248,166.01286091155907 L 564.267748282589,142.18211491269582 L 540.8115090673721,131.93658993485195 L 564.267748282589,121.6910649570081 L 554.9263626610248,97.86031895814483 L 578.7571086598881,107.20170457970903 Z" fill="none" stroke="#00A86B" stroke-width="1.9651072032121508" /><path d="M 696.094021571865,83.74546536449206 L 706.3395465497089,107.20170457970902 L 730.1702925485722,97.86031895814483 L 720.828906927008,121.6910649570081 L 744.2851461422249,131.93658993485195 L 720.828906927008,142.1821149126958 L 730.1702925485722,166.01286091155907 L 706.3395465497089,156.67147528999487 L 696.094021571865,180.12771450521183 L 685.8484965940212,156.67147528999487 L 662.0177505951578,166.01286091155907 L 671.359136216722,142.18211491269582 L 647.9028970015052,131.93658993485195 L 671.359136216722,121.6910649570081 L 662.0177505951578,97.86031895814483 L 685.8484965940212,107.20170457970903 Z" fill="none" stroke="#00A86B" stroke-width="1.9651072032121508" /><path d="M 803.1854095059981,83.74546536449206 L 813.430934483842,107.20170457970902 L 837.2616804827053,97.86031895814483 L 827.9202948611411,121.6910649570081 L 851.376534076358,131.93658993485195 L 827.9202948611411,142.1821149126958 L 837.2616804827053,166.01286091155907 L 813.430934483842,156.67147528999487 L 803.1854095059981,180.12771450521183 L 792.9398845281543,156.67147528999487 L 769.1091385292909,166.01286091155907 L 778.4505241508551,142.18211491269582 L 754.9942849356382,131.93658993485195 L 778.4505241508551,121.6910649570081 L 769.1091385292909,97.86031895814483 L 792.9398845281543,107.20170457970903 Z" fill="none" stroke="#00A86B" stroke-width="1.9651072032121508" /><path d="M 910.2767974401312,83.74546536449206 L 920.522322417975,107.20170457970902 L 944.3530684168384,97.86031895814483 L 935.0116827952742,121.6910649570081 L 958.4679220104911,131.93658993485195 L 935.0116827952742,142.1821149126958 L 944.3530684168384,166.01286091155907 L 920.522322417975,156.67147528999487 L 910.2767974401312,180.12771450521183 L 900.0312724622873,156.67147528999487 L 876.200526463424,166.01286091155907 L 885.5419120849882,142.18211491269582 L 862.0856728697713,131.93658993485195 L 885.5419120849882,121.6910649570081 L 876.200526463424,97.86031895814483 L 900.0312724622873,107.20170457970903 Z" fill="none" stroke="#00A86B" stroke-width="1.9651072032121508" /><path d="M 1017.3681853742643,83.74546536449206 L 1027.6137103521082,107.20170457970902 L 1051.4444563509714,97.86031895814483 L 1042.1030707294071,121.6910649570081 L 1065.5593099446241,131.93658993485195 L 1042.1030707294071,142.1821149126958 L 1051.4444563509714,166.01286091155907 L 1027.6137103521082,156.67147528999487 L 1017.3681853742643,180.12771450521183 L 1007.1226603964204,156.67147528999487 L 983.2919143975571,166.01286091155907 L 992.6333000191213,142.18211491269582 L 969.1770608039044,131.93658993485195 L 992.6333000191213,121.6910649570081 L 983.2919143975571,97.86031895814483 L 1007.1226603964204,107.20170457970903 Z" fill="none" stroke="#00A86B" stroke-width="1.9651072032121508" /><path d="M 1124.4595733083975,83.74546536449206 L 1134.7050982862413,107.20170457970902 L 1158.5358442851045,97.86031895814483 L 1149.1944586635404,121.6910649570081 L 1172.6506978787575,131.93658993485195 L 1149.1944586635404,142.1821149126958 L 1158.5358442851045,166.01286091155907 L 1134.7050982862413,156.67147528999487 L 1124.4595733083975,180.12771450521183 L 1114.2140483305536,156.67147528999487 L 1090.3833023316904,166.01286091155907 L 1099.7246879532545,142.18211491269582 L 1076.2684487380375,131.93658993485195 L 1099.7246879532545,121.6910649570081 L 1090.3833023316904,97.86031895814483 L 1114.2140483305536,107.20170457970903 Z" fill="none" stroke="#00A86B" stroke-width="1.9651072032121508" /><path d="M 1231.5509612425303,83.74546536449206 L 1241.7964862203742,107.20170457970902 L 1265.6272322192374,97.86031895814483 L 1256.2858465976733,121.6910649570081 L 1279.7420858128903,131.93658993485195 L 1256.2858465976733,142.1821149126958 L 1265.6272322192374,166.01286091155907 L 1241.7964862203742,156.67147528999487 L 1231.5509612425303,180.12771450521183 L 1221.3054362646865,156.67147528999487 L 1197.4746902658233,166.01286091155907 L 1206.8160758873873,142.18211491269582 L 1183.3598366721703,131.93658993485195 L 1206.8160758873873,121.6910649570081 L 1197.4746902658233,97.86031895814483 L 1221.3054362646865,107.20170457970903 Z" fill="none" stroke="#00A86B" stroke-width="1.9651072032121508" /><path d="M 2.95085532262013e-15,176.48660731545135 L 10.245524977843854,199.9428465306683 L 34.07627097670713,190.6014609091041 L 24.734885355142932,214.43220690796738 L 48.19112457035989,224.67773188581123 L 24.734885355142932,234.92325686365507 L 34.07627097670713,258.75400286251835 L 10.245524977843854,249.41261724095415 L 2.95085532262013e-15,272.8688564561711 L -10.24552497784385,249.41261724095415 L -34.07627097670712,258.75400286251835 L -24.734885355142925,234.9232568636551 L -48.19112457035989,224.67773188581123 L -24.73488535514293,214.43220690796736 L -34.07627097670713,190.6014609091041 L -10.245524977843868,199.9428465306683 Z" fill="none" stroke="#00A86B" stroke-width="1.9651072032121508" /><path d="M 107.09138793413308,176.48660731545135 L 117.33691291197694,199.9428465306683 L 141.1676589108402,190.6014609091041 L 131.826273289276,214.43220690796738 L 155.28251250449296,224.67773188581123 L 131.826273289276,234.92325686365507 L 141.1676589108402,258.75400286251835 L 117.33691291197694,249.41261724095415 L 107.09138793413308,272.8688564561711 L 96.84586295628924,249.41261724095415 L 73.01511695742596,258.75400286251835 L 82.35650257899016,234.9232568636551 L 58.90026336377319,224.67773188581123 L 82.35650257899016,214.43220690796736 L 73.01511695742596,190.6014609091041 L 96.84586295628921,199.9428465306683 Z" fill="none" stroke="#00A86B" stroke-width="1.9651072032121508" /><path d="M 214.18277586826616,176.48660731545135 L 224.42830084611,199.9428465306683 L 248.25904684497328,190.6014609091041 L 238.91766122340908,214.43220690796738 L 262.37390043862604,224.67773188581123 L 238.91766122340908,234.92325686365507 L 248.25904684497328,258.75400286251835 L 224.42830084611,249.41261724095415 L 214.18277586826616,272.8688564561711 L 203.93725089042232,249.41261724095415 L 180.10650489155904,258.75400286251835 L 189.44789051312324,234.9232568636551 L 165.9916512979063,224.67773188581123 L 189.44789051312324,214.43220690796736 L 180.10650489155904,190.6014609091041 L 203.9372508904223,199.9428465306683 Z" fill="none" stroke="#00A86B" stroke-width="1.9651072032121508" /><path d="M 321.27416380239924,176.48660731545135 L 331.5196887802431,199.9428465306683 L 355.35043477910637,190.6014609091041 L 346.00904915754217,214.43220690796738 L 369.4652883727591,224.67773188581123 L 346.00904915754217,234.92325686365507 L 355.35043477910637,258.75400286251835 L 331.5196887802431,249.41261724095415 L 321.27416380239924,272.8688564561711 L 311.0286388245554,249.41261724095415 L 287.1978928256921,258.75400286251835 L 296.5392784472563,234.9232568636551 L 273.08303923203937,224.67773188581123 L 296.5392784472563,214.43220690796736 L 287.1978928256921,190.6014609091041 L 311.0286388245554,199.9428465306683 Z" fill="none" stroke="#00A86B" stroke-width="1.9651072032121508" /><path d="M 428.3655517365323,176.48660731545135 L 438.61107671437617,199.9428465306683 L 462.44182271323945,190.6014609091041 L 453.10043709167525,214.43220690796738 L 476.5566763068922,224.67773188581123 L 453.10043709167525,234.92325686365507 L 462.44182271323945,258.75400286251835 L 438.61107671437617,249.41261724095415 L 428.3655517365323,272.8688564561711 L 418.1200267586885,249.41261724095415 L 394.2892807598252,258.75400286251835 L 403.6306663813894,234.9232568636551 L 380.17442716617245,224.67773188581123 L 403.6306663813894,214.43220690796736 L 394.2892807598252,190.6014609091041 L 418.1200267586885,199.9428465306683 Z" fill="none" stroke="#00A86B" stroke-width="1.9651072032121508" /><path d="M 535.4569396706654,176.48660731545135 L 545.7024646485092,199.9428465306683 L 569.5332106473726,190.6014609091041 L 560.1918250258084,214.43220690796738 L 583.6480642410253,224.67773188581123 L 560.1918250258084,234.92325686365507 L 569.5332106473726,258.75400286251835 L 545.7024646485092,249.41261724095415 L 535.4569396706654,272.8688564561711 L 525.2114146928216,249.41261724095415 L 501.3806686939583,258.75400286251835 L 510.7220543155225,234.9232568636551 L 487.26581510030553,224.67773188581123 L 510.7220543155225,214.43220690796736 L 501.3806686939583,190.6014609091041 L 525.2114146928216,199.9428465306683 Z" fill="none" stroke="#00A86B" stroke-width="1.9651072032121508" /><path d="M 642.5483276047985,176.48660731545135 L 652.7938525826423,199.9428465306683 L 676.6245985815057,190.6014609091041 L 667.2832129599415,214.43220690796738 L 690.7394521751584,224.67773188581123 L 667.2832129599415,234.92325686365507 L 676.6245985815057,258.75400286251835 L 652.7938525826423,249.41261724095415 L 642.5483276047985,272.8688564561711 L 632.3028026269546,249.41261724095415 L 608.4720566280914,258.75400286251835 L 617.8134422496555,234.9232568636551 L 594.3572030344386,224.67773188581123 L 617.8134422496555,214.43220690796736 L 608.4720566280913,190.6014609091041 L 632.3028026269546,199.9428465306683 Z" fill="none" stroke="#00A86B" stroke-width="1.9651072032121508" /><path d="M 749.6397155389316,176.48660731545135 L 759.8852405167754,199.9428465306683 L 783.7159865156387,190.6014609091041 L 774.3746008940745,214.43220690796738 L 797.8308401092914,224.67773188581123 L 774.3746008940745,234.92325686365507 L 783.7159865156387,258.75400286251835 L 759.8852405167754,249.41261724095415 L 749.6397155389316,272.8688564561711 L 739.3941905610877,249.41261724095415 L 715.5634445622245,258.75400286251835 L 724.9048301837886,234.9232568636551 L 701.4485909685717,224.67773188581123 L 724.9048301837886,214.43220690796736 L 715.5634445622244,190.6014609091041 L 739.3941905610877,199.9428465306683 Z" fill="none" stroke="#00A86B" stroke-width="1.9651072032121508" /><path d="M 856.7311034730646,176.48660731545135 L 866.9766284509085,199.9428465306683 L 890.8073744497718,190.6014609091041 L 881.4659888282076,214.43220690796738 L 904.9222280434245,224.67773188581123 L 881.4659888282076,234.92325686365507 L 890.8073744497718,258.75400286251835 L 866.9766284509085,249.41261724095415 L 856.7311034730646,272.8688564561711 L 846.4855784952208,249.41261724095415 L 822.6548324963576,258.75400286251835 L 831.9962181179217,234.9232568636551 L 808.5399789027048,224.67773188581123 L 831.9962181179217,214.43220690796736 L 822.6548324963575,190.6014609091041 L 846.4855784952208,199.9428465306683 Z" fill="none" stroke="#00A86B" stroke-width="1.9651072032121508" /><path d="M 963.8224914071977,176.48660731545135 L 974.0680163850416,199.9428465306683 L 997.8987623839049,190.6014609091041 L 988.5573767623407,214.43220690796738 L 1012.0136159775576,224.67773188581123 L 988.5573767623407,234.92325686365507 L 997.8987623839049,258.75400286251835 L 974.0680163850416,249.41261724095415 L 963.8224914071977,272.8688564561711 L 953.5769664293539,249.41261724095415 L 929.7462204304907,258.75400286251835 L 939.0876060520548,234.9232568636551 L 915.6313668368379,224.67773188581123 L 939.0876060520548,214.43220690796736 L 929.7462204304906,190.6014609091041 L 953.5769664293539,199.9428465306683 Z" fill="none" stroke="#00A86B" stroke-width="1.9651072032121508" /><path d="M 1070.9138793413308,176.48660731545135 L 1081.1594043191747,199.9428465306683 L 1104.9901503180379,190.6014609091041 L 1095.6487646964738,214.43220690796738 L 1119.1050039116908,224.67773188581123 L 1095.6487646964738,234.92325686365507 L 1104.9901503180379,258.75400286251835 L 1081.1594043191747,249.41261724095415 L 1070.9138793413308,272.8688564561711 L 1060.668354363487,249.41261724095415 L 1036.8376083646237,258.75400286251835 L 1046.1789939861878,234.9232568636551 L 1022.7227547709709,224.67773188581123 L 1046.1789939861878,214.43220690796736 L 1036.8376083646237,190.6014609091041 L 1060.668354363487,199.9428465306683 Z" fill="none" stroke="#00A86B" stroke-width="1.9651072032121508" /><path d="M 1178.0052672754641,176.48660731545135 L 1188.250792253308,199.9428465306683 L 1212.0815382521712,190.6014609091041 L 1202.740152630607,214.43220690796738 L 1226.196391845824,224.67773188581123 L 1202.740152630607,234.92325686365507 L 1212.0815382521712,258.75400286251835 L 1188.250792253308,249.41261724095415 L 1178.0052672754641,272.8688564561711 L 1167.7597422976203,249.41261724095415 L 1143.928996298757,258.75400286251835 L 1153.2703819203211,234.9232568636551 L 1129.8141427051041,224.67773188581123 L 1153.2703819203211,214.43220690796736 L 1143.928996298757,190.6014609091041 L 1167.7597422976203,199.9428465306683 Z" fill="none" stroke="#00A86B" stroke-width="1.9651072032121508" /><path d="M 1285.096655209597,176.48660731545135 L 1295.3421801874408,199.9428465306683 L 1319.172926186304,190.6014609091041 L 1309.83154056474,214.43220690796738 L 1333.287779779957,224.67773188581123 L 1309.83154056474,234.92325686365507 L 1319.172926186304,258.75400286251835 L 1295.3421801874408,249.41261724095415 L 1285.096655209597,272.8688564561711 L 1274.8511302317531,249.41261724095415 L 1251.02038423289,258.75400286251835 L 1260.361769854454,234.9232568636551 L 1236.905530639237,224.67773188581123 L 1260.361769854454,214.43220690796736 L 1251.02038423289,190.6014609091041 L 1274.8511302317531,199.9428465306683 Z" fill="none" stroke="#00A86B" stroke-width="1.9651072032121508" /><path d="M -53.54569396706654,269.22774926641057 L -43.30016898922268,292.6839884816275 L -19.469422990359412,283.3426028600633 L -28.81080861192361,307.1733488589266 L -5.354569396706651,317.41887383677044 L -28.81080861192361,327.6643988146143 L -19.469422990359412,351.49514481347757 L -43.30016898922268,342.15375919191337 L -53.54569396706654,365.6099984071303 L -63.79121894491039,342.15375919191337 L -87.62196494377366,351.49514481347757 L -78.28057932220946,327.6643988146143 L -101.73681853742643,317.41887383677044 L -78.28057932220946,307.1733488589266 L -87.62196494377366,283.3426028600633 L -63.79121894491041,292.6839884816275 Z" fill="none" stroke="#00A86B" stroke-width="1.9651072032121508" /><path d="M 53.54569396706654,269.22774926641057 L 63.7912189449104,292.6839884816275 L 87.62196494377366,283.3426028600633 L 78.28057932220948,307.1733488589266 L 101.73681853742643,317.41887383677044 L 78.28057932220948,327.6643988146143 L 87.62196494377366,351.49514481347757 L 63.7912189449104,342.15375919191337 L 53.54569396706654,365.6099984071303 L 43.30016898922269,342.15375919191337 L 19.46942299035942,351.49514481347757 L 28.810808611923616,327.6643988146143 L 5.354569396706651,317.41887383677044 L 28.810808611923612,307.1733488589266 L 19.469422990359412,283.3426028600633 L 43.30016898922267,292.6839884816275 Z" fill="none" stroke="#00A86B" stroke-width="1.9651072032121508" /><path d="M 160.63708190119962,269.22774926641057 L 170.88260687904346,292.6839884816275 L 194.71335287790674,283.3426028600633 L 185.37196725634254,307.1733488589266 L 208.8282064715595,317.41887383677044 L 185.37196725634254,327.6643988146143 L 194.71335287790674,351.49514481347757 L 170.88260687904346,342.15375919191337 L 160.63708190119962,365.6099984071303 L 150.39155692335578,342.15375919191337 L 126.5608109244925,351.49514481347757 L 135.9021965460567,327.6643988146143 L 112.44595733083973,317.41887383677044 L 135.9021965460567,307.1733488589266 L 126.5608109244925,283.3426028600633 L 150.39155692335575,292.6839884816275 Z" fill="none" stroke="#00A86B" stroke-width="1.9651072032121508" /><path d="M 267.7284698353327,269.22774926641057 L 277.97399481317655,292.6839884816275 L 301.8047408120398,283.3426028600633 L 292.4633551904756,307.1733488589266 L 315.9195944056926,317.41887383677044 L 292.4633551904756,327.6643988146143 L 301.8047408120398,351.49514481347757 L 277.97399481317655,342.15375919191337 L 267.7284698353327,365.6099984071303 L 257.48294485748886,342.15375919191337 L 233.65219885862558,351.49514481347757 L 242.99358448018978,327.6643988146143 L 219.53734526497283,317.41887383677044 L 242.99358448018978,307.1733488589266 L 233.65219885862558,283.3426028600633 L 257.48294485748886,292.6839884816275 Z" fill="none" stroke="#00A86B" stroke-width="1.9651072032121508" /><path d="M 374.8198577694658,269.22774926641057 L 385.0653827473096,292.6839884816275 L 408.8961287461729,283.3426028600633 L 399.5547431246087,307.1733488589266 L 423.01098233982566,317.41887383677044 L 399.5547431246087,327.6643988146143 L 408.8961287461729,351.49514481347757 L 385.0653827473096,342.15375919191337 L 374.8198577694658,365.6099984071303 L 364.57433279162194,342.15375919191337 L 340.74358679275866,351.49514481347757 L 350.08497241432286,327.6643988146143 L 326.6287331991059,317.41887383677044 L 350.08497241432286,307.1733488589266 L 340.74358679275866,283.3426028600633 L 364.57433279162194,292.6839884816275 Z" fill="none" stroke="#00A86B" stroke-width="1.9651072032121508" /><path d="M 481.91124570359887,269.22774926641057 L 492.1567706814427,292.6839884816275 L 515.987516680306,283.3426028600633 L 506.6461310587418,307.1733488589266 L 530.1023702739587,317.41887383677044 L 506.6461310587418,327.6643988146143 L 515.987516680306,351.49514481347757 L 492.1567706814427,342.15375919191337 L 481.91124570359887,365.6099984071303 L 471.665720725755,342.15375919191337 L 447.83497472689174,351.49514481347757 L 457.17636034845594,327.6643988146143 L 433.720121133239,317.41887383677044 L 457.17636034845594,307.1733488589266 L 447.83497472689174,283.3426028600633 L 471.665720725755,292.6839884816275 Z" fill="none" stroke="#00A86B" stroke-width="1.9651072032121508" /><path d="M 589.002633637732,269.22774926641057 L 599.2481586155758,292.6839884816275 L 623.0789046144391,283.3426028600633 L 613.7375189928749,307.1733488589266 L 637.1937582080918,317.41887383677044 L 613.7375189928749,327.6643988146143 L 623.0789046144391,351.49514481347757 L 599.2481586155758,342.15375919191337 L 589.002633637732,365.6099984071303 L 578.7571086598881,342.15375919191337 L 554.9263626610248,351.49514481347757 L 564.267748282589,327.6643988146143 L 540.8115090673721,317.41887383677044 L 564.267748282589,307.1733488589266 L 554.9263626610248,283.3426028600633 L 578.7571086598881,292.6839884816275 Z" fill="none" stroke="#00A86B" stroke-width="1.9651072032121508" /><path d="M 696.094021571865,269.22774926641057 L 706.3395465497089,292.6839884816275 L 730.1702925485722,283.3426028600633 L 720.828906927008,307.1733488589266 L 744.2851461422249,317.41887383677044 L 720.828906927008,327.6643988146143 L 730.1702925485722,351.49514481347757 L 706.3395465497089,342.15375919191337 L 696.094021571865,365.6099984071303 L 685.8484965940212,342.15375919191337 L 662.0177505951578,351.49514481347757 L 671.359136216722,327.6643988146143 L 647.9028970015052,317.41887383677044 L 671.359136216722,307.1733488589266 L 662.0177505951578,283.3426028600633 L 685.8484965940212,292.6839884816275 Z" fill="none" stroke="#00A86B" stroke-width="1.9651072032121508" /><path d="M 803.1854095059981,269.22774926641057 L 813.430934483842,292.6839884816275 L 837.2616804827053,283.3426028600633 L 827.9202948611411,307.1733488589266 L 851.376534076358,317.41887383677044 L 827.9202948611411,327.6643988146143 L 837.2616804827053,351.49514481347757 L 813.430934483842,342.15375919191337 L 803.1854095059981,365.6099984071303 L 792.9398845281543,342.15375919191337 L 769.1091385292909,351.49514481347757 L 778.4505241508551,327.6643988146143 L 754.9942849356382,317.41887383677044 L 778.4505241508551,307.1733488589266 L 769.1091385292909,283.3426028600633 L 792.9398845281543,292.6839884816275 Z" fill="none" stroke="#00A86B" stroke-width="1.9651072032121508" /><path d="M 910.2767974401312,269.22774926641057 L 920.522322417975,292.6839884816275 L 944.3530684168384,283.3426028600633 L 935.0116827952742,307.1733488589266 L 958.4679220104911,317.41887383677044 L 935.0116827952742,327.6643988146143 L 944.3530684168384,351.49514481347757 L 920.522322417975,342.15375919191337 L 910.2767974401312,365.6099984071303 L 900.0312724622873,342.15375919191337 L 876.200526463424,351.49514481347757 L 885.5419120849882,327.6643988146143 L 862.0856728697713,317.41887383677044 L 885.5419120849882,307.1733488589266 L 876.200526463424,283.3426028600633 L 900.0312724622873,292.6839884816275 Z" fill="none" stroke="#00A86B" stroke-width="1.9651072032121508" /><path d="M 1017.3681853742643,269.22774926641057 L 1027.6137103521082,292.6839884816275 L 1051.4444563509714,283.3426028600633 L 1042.1030707294071,307.1733488589266 L 1065.5593099446241,317.41887383677044 L 1042.1030707294071,327.6643988146143 L 1051.4444563509714,351.49514481347757 L 1027.6137103521082,342.15375919191337 L 1017.3681853742643,365.6099984071303 L 1007.1226603964204,342.15375919191337 L 983.2919143975571,351.49514481347757 L 992.6333000191213,327.6643988146143 L 969.1770608039044,317.41887383677044 L 992.6333000191213,307.1733488589266 L 983.2919143975571,283.3426028600633 L 1007.1226603964204,292.6839884816275 Z" fill="none" stroke="#00A86B" stroke-width="1.9651072032121508" /><path d="M 1124.4595733083975,269.22774926641057 L 1134.7050982862413,292.6839884816275 L 1158.5358442851045,283.3426028600633 L 1149.1944586635404,307.1733488589266 L 1172.6506978787575,317.41887383677044 L 1149.1944586635404,327.6643988146143 L 1158.5358442851045,351.49514481347757 L 1134.7050982862413,342.15375919191337 L 1124.4595733083975,365.6099984071303 L 1114.2140483305536,342.15375919191337 L 1090.3833023316904,351.49514481347757 L 1099.7246879532545,327.6643988146143 L 1076.2684487380375,317.41887383677044 L 1099.7246879532545,307.1733488589266 L 1090.3833023316904,283.3426028600633 L 1114.2140483305536,292.6839884816275 Z" fill="none" stroke="#00A86B" stroke-width="1.9651072032121508" /><path d="M 1231.5509612425303,269.22774926641057 L 1241.7964862203742,292.6839884816275 L 1265.6272322192374,283.3426028600633 L 1256.2858465976733,307.1733488589266 L 1279.7420858128903,317.41887383677044 L 1256.2858465976733,327.6643988146143 L 1265.6272322192374,351.49514481347757 L 1241.7964862203742,342.15375919191337 L 1231.5509612425303,365.6099984071303 L 1221.3054362646865,342.15375919191337 L 1197.4746902658233,351.49514481347757 L 1206.8160758873873,327.6643988146143 L 1183.3598366721703,317.41887383677044 L 1206.8160758873873,307.1733488589266 L 1197.4746902658233,283.3426028600633 L 1221.3054362646865,292.6839884816275 Z" fill="none" stroke="#00A86B" stroke-width="1.9651072032121508" /><path d="M 2.95085532262013e-15,361.96889121736984 L 10.245524977843854,385.4251304325868 L 34.07627097670713,376.0837448110226 L 24.734885355142932,399.9144908098859 L 48.19112457035989,410.1600157877297 L 24.734885355142932,420.40554076557356 L 34.07627097670713,444.23628676443684 L 10.245524977843854,434.89490114287264 L 2.95085532262013e-15,458.3511403580896 L -10.24552497784385,434.89490114287264 L -34.07627097670712,444.23628676443684 L -24.734885355142925,420.40554076557356 L -48.19112457035989,410.1600157877297 L -24.73488535514293,399.9144908098859 L -34.07627097670713,376.0837448110226 L -10.245524977843868,385.4251304325868 Z" fill="none" stroke="#00A86B" stroke-width="1.9651072032121508" /><path d="M 107.09138793413308,361.96889121736984 L 117.33691291197694,385.4251304325868 L 141.1676589108402,376.0837448110226 L 131.826273289276,399.9144908098859 L 155.28251250449296,410.1600157877297 L 131.826273289276,420.40554076557356 L 141.1676589108402,444.23628676443684 L 117.33691291197694,434.89490114287264 L 107.09138793413308,458.3511403580896 L 96.84586295628924,434.89490114287264 L 73.01511695742596,444.23628676443684 L 82.35650257899016,420.40554076557356 L 58.90026336377319,410.1600157877297 L 82.35650257899016,399.9144908098859 L 73.01511695742596,376.0837448110226 L 96.84586295628921,385.4251304325868 Z" fill="none" stroke="#00A86B" stroke-width="1.9651072032121508" /><path d="M 214.18277586826616,361.96889121736984 L 224.42830084611,385.4251304325868 L 248.25904684497328,376.0837448110226 L 238.91766122340908,399.9144908098859 L 262.37390043862604,410.1600157877297 L 238.91766122340908,420.40554076557356 L 248.25904684497328,444.23628676443684 L 224.42830084611,434.89490114287264 L 214.18277586826616,458.3511403580896 L 203.93725089042232,434.89490114287264 L 180.10650489155904,444.23628676443684 L 189.44789051312324,420.40554076557356 L 165.9916512979063,410.1600157877297 L 189.44789051312324,399.9144908098859 L 180.10650489155904,376.0837448110226 L 203.9372508904223,385.4251304325868 Z" fill="none" stroke="#00A86B" stroke-width="1.9651072032121508" /><path d="M 321.27416380239924,361.96889121736984 L 331.5196887802431,385.4251304325868 L 355.35043477910637,376.0837448110226 L 346.00904915754217,399.9144908098859 L 369.4652883727591,410.1600157877297 L 346.00904915754217,420.40554076557356 L 355.35043477910637,444.23628676443684 L 331.5196887802431,434.89490114287264 L 321.27416380239924,458.3511403580896 L 311.0286388245554,434.89490114287264 L 287.1978928256921,444.23628676443684 L 296.5392784472563,420.40554076557356 L 273.08303923203937,410.1600157877297 L 296.5392784472563,399.9144908098859 L 287.1978928256921,376.0837448110226 L 311.0286388245554,385.4251304325868 Z" fill="none" stroke="#00A86B" stroke-width="1.9651072032121508" /><path d="M 428.3655517365323,361.96889121736984 L 438.61107671437617,385.4251304325868 L 462.44182271323945,376.0837448110226 L 453.10043709167525,399.9144908098859 L 476.5566763068922,410.1600157877297 L 453.10043709167525,420.40554076557356 L 462.44182271323945,444.23628676443684 L 438.61107671437617,434.89490114287264 L 428.3655517365323,458.3511403580896 L 418.1200267586885,434.89490114287264 L 394.2892807598252,444.23628676443684 L 403.6306663813894,420.40554076557356 L 380.17442716617245,410.1600157877297 L 403.6306663813894,399.9144908098859 L 394.2892807598252,376.0837448110226 L 418.1200267586885,385.4251304325868 Z" fill="none" stroke="#00A86B" stroke-width="1.9651072032121508" /><path d="M 535.4569396706654,361.96889121736984 L 545.7024646485092,385.4251304325868 L 569.5332106473726,376.0837448110226 L 560.1918250258084,399.9144908098859 L 583.6480642410253,410.1600157877297 L 560.1918250258084,420.40554076557356 L 569.5332106473726,444.23628676443684 L 545.7024646485092,434.89490114287264 L 535.4569396706654,458.3511403580896 L 525.2114146928216,434.89490114287264 L 501.3806686939583,444.23628676443684 L 510.7220543155225,420.40554076557356 L 487.26581510030553,410.1600157877297 L 510.7220543155225,399.9144908098859 L 501.3806686939583,376.0837448110226 L 525.2114146928216,385.4251304325868 Z" fill="none" stroke="#00A86B" stroke-width="1.9651072032121508" /><path d="M 642.5483276047985,361.96889121736984 L 652.7938525826423,385.4251304325868 L 676.6245985815057,376.0837448110226 L 667.2832129599415,399.9144908098859 L 690.7394521751584,410.1600157877297 L 667.2832129599415,420.40554076557356 L 676.6245985815057,444.23628676443684 L 652.7938525826423,434.89490114287264 L 642.5483276047985,458.3511403580896 L 632.3028026269546,434.89490114287264 L 608.4720566280914,444.23628676443684 L 617.8134422496555,420.40554076557356 L 594.3572030344386,410.1600157877297 L 617.8134422496555,399.9144908098859 L 608.4720566280913,376.0837448110226 L 632.3028026269546,385.4251304325868 Z" fill="none" stroke="#00A86B" stroke-width="1.9651072032121508" /><path d="M 749.6397155389316,361.96889121736984 L 759.8852405167754,385.4251304325868 L 783.7159865156387,376.0837448110226 L 774.3746008940745,399.9144908098859 L 797.8308401092914,410.1600157877297 L 774.3746008940745,420.40554076557356 L 783.7159865156387,444.23628676443684 L 759.8852405167754,434.89490114287264 L 749.6397155389316,458.3511403580896 L 739.3941905610877,434.89490114287264 L 715.5634445622245,444.23628676443684 L 724.9048301837886,420.40554076557356 L 701.4485909685717,410.1600157877297 L 724.9048301837886,399.9144908098859 L 715.5634445622244,376.0837448110226 L 739.3941905610877,385.4251304325868 Z" fill="none" stroke="#00A86B" stroke-width="1.9651072032121508" /><path d="M 856.7311034730646,361.96889121736984 L 866.9766284509085,385.4251304325868 L 890.8073744497718,376.0837448110226 L 881.4659888282076,399.9144908098859 L 904.9222280434245,410.1600157877297 L 881.4659888282076,420.40554076557356 L 890.8073744497718,444.23628676443684 L 866.9766284509085,434.89490114287264 L 856.7311034730646,458.3511403580896 L 846.4855784952208,434.89490114287264 L 822.6548324963576,444.23628676443684 L 831.9962181179217,420.40554076557356 L 808.5399789027048,410.1600157877297 L 831.9962181179217,399.9144908098859 L 822.6548324963575,376.0837448110226 L 846.4855784952208,385.4251304325868 Z" fill="none" stroke="#00A86B" stroke-width="1.9651072032121508" /><path d="M 963.8224914071977,361.96889121736984 L 974.0680163850416,385.4251304325868 L 997.8987623839049,376.0837448110226 L 988.5573767623407,399.9144908098859 L 1012.0136159775576,410.1600157877297 L 988.5573767623407,420.40554076557356 L 997.8987623839049,444.23628676443684 L 974.0680163850416,434.89490114287264 L 963.8224914071977,458.3511403580896 L 953.5769664293539,434.89490114287264 L 929.7462204304907,444.23628676443684 L 939.0876060520548,420.40554076557356 L 915.6313668368379,410.1600157877297 L 939.0876060520548,399.9144908098859 L 929.7462204304906,376.0837448110226 L 953.5769664293539,385.4251304325868 Z" fill="none" stroke="#00A86B" stroke-width="1.9651072032121508" /><path d="M 1070.9138793413308,361.96889121736984 L 1081.1594043191747,385.4251304325868 L 1104.9901503180379,376.0837448110226 L 1095.6487646964738,399.9144908098859 L 1119.1050039116908,410.1600157877297 L 1095.6487646964738,420.40554076557356 L 1104.9901503180379,444.23628676443684 L 1081.1594043191747,434.89490114287264 L 1070.9138793413308,458.3511403580896 L 1060.668354363487,434.89490114287264 L 1036.8376083646237,444.23628676443684 L 1046.1789939861878,420.40554076557356 L 1022.7227547709709,410.1600157877297 L 1046.1789939861878,399.9144908098859 L 1036.8376083646237,376.0837448110226 L 1060.668354363487,385.4251304325868 Z" fill="none" stroke="#00A86B" stroke-width="1.9651072032121508" /><path d="M 1178.0052672754641,361.96889121736984 L 1188.250792253308,385.4251304325868 L 1212.0815382521712,376.0837448110226 L 1202.740152630607,399.9144908098859 L 1226.196391845824,410.1600157877297 L 1202.740152630607,420.40554076557356 L 1212.0815382521712,444.23628676443684 L 1188.250792253308,434.89490114287264 L 1178.0052672754641,458.3511403580896 L 1167.7597422976203,434.89490114287264 L 1143.928996298757,444.23628676443684 L 1153.2703819203211,420.40554076557356 L 1129.8141427051041,410.1600157877297 L 1153.2703819203211,399.9144908098859 L 1143.928996298757,376.0837448110226 L 1167.7597422976203,385.4251304325868 Z" fill="none" stroke="#00A86B" stroke-width="1.9651072032121508" /><path d="M 1285.096655209597,361.96889121736984 L 1295.3421801874408,385.4251304325868 L 1319.172926186304,376.0837448110226 L 1309.83154056474,399.9144908098859 L 1333.287779779957,410.1600157877297 L 1309.83154056474,420.40554076557356 L 1319.172926186304,444.23628676443684 L 1295.3421801874408,434.89490114287264 L 1285.096655209597,458.3511403580896 L 1274.8511302317531,434.89490114287264 L 1251.02038423289,444.23628676443684 L 1260.361769854454,420.40554076557356 L 1236.905530639237,410.1600157877297 L 1260.361769854454,399.9144908098859 L 1251.02038423289,376.0837448110226 L 1274.8511302317531,385.4251304325868 Z" fill="none" stroke="#00A86B" stroke-width="1.9651072032121508" /><path d="M -53.54569396706654,454.7100331683291 L -43.30016898922268,478.1662723835461 L -19.469422990359412,468.8248867619819 L -28.81080861192361,492.65563276084515 L -5.354569396706651,502.901157738689 L -28.81080861192361,513.1466827165328 L -19.469422990359412,536.9774287153962 L -43.30016898922268,527.636043093832 L -53.54569396706654,551.0922823090489 L -63.79121894491039,527.636043093832 L -87.62196494377366,536.9774287153962 L -78.28057932220946,513.1466827165328 L -101.73681853742643,502.901157738689 L -78.28057932220946,492.65563276084515 L -87.62196494377366,468.8248867619819 L -63.79121894491041,478.1662723835461 Z" fill="none" stroke="#00A86B" stroke-width="1.9651072032121508" /><path d="M 53.54569396706654,454.7100331683291 L 63.7912189449104,478.1662723835461 L 87.62196494377366,468.8248867619819 L 78.28057932220948,492.65563276084515 L 101.73681853742643,502.901157738689 L 78.28057932220948,513.1466827165328 L 87.62196494377366,536.9774287153962 L 63.7912189449104,527.636043093832 L 53.54569396706654,551.0922823090489 L 43.30016898922269,527.636043093832 L 19.46942299035942,536.9774287153962 L 28.810808611923616,513.1466827165328 L 5.354569396706651,502.901157738689 L 28.810808611923612,492.65563276084515 L 19.469422990359412,468.8248867619819 L 43.30016898922267,478.1662723835461 Z" fill="none" stroke="#00A86B" stroke-width="1.9651072032121508" /><path d="M 160.63708190119962,454.7100331683291 L 170.88260687904346,478.1662723835461 L 194.71335287790674,468.8248867619819 L 185.37196725634254,492.65563276084515 L 208.8282064715595,502.901157738689 L 185.37196725634254,513.1466827165328 L 194.71335287790674,536.9774287153962 L 170.88260687904346,527.636043093832 L 160.63708190119962,551.0922823090489 L 150.39155692335578,527.636043093832 L 126.5608109244925,536.9774287153962 L 135.9021965460567,513.1466827165328 L 112.44595733083973,502.901157738689 L 135.9021965460567,492.65563276084515 L 126.5608109244925,468.8248867619819 L 150.39155692335575,478.1662723835461 Z" fill="none" stroke="#00A86B" stroke-width="1.9651072032121508" /><path d="M 267.7284698353327,454.7100331683291 L 277.97399481317655,478.1662723835461 L 301.8047408120398,468.8248867619819 L 292.4633551904756,492.65563276084515 L 315.9195944056926,502.901157738689 L 292.4633551904756,513.1466827165328 L 301.8047408120398,536.9774287153962 L 277.97399481317655,527.636043093832 L 267.7284698353327,551.0922823090489 L 257.48294485748886,527.636043093832 L 233.65219885862558,536.9774287153962 L 242.99358448018978,513.1466827165328 L 219.53734526497283,502.901157738689 L 242.99358448018978,492.65563276084515 L 233.65219885862558,468.8248867619819 L 257.48294485748886,478.1662723835461 Z" fill="none" stroke="#00A86B" stroke-width="1.9651072032121508" /><path d="M 374.8198577694658,454.7100331683291 L 385.0653827473096,478.1662723835461 L 408.8961287461729,468.8248867619819 L 399.5547431246087,492.65563276084515 L 423.01098233982566,502.901157738689 L 399.5547431246087,513.1466827165328 L 408.8961287461729,536.9774287153962 L 385.0653827473096,527.636043093832 L 374.8198577694658,551.0922823090489 L 364.57433279162194,527.636043093832 L 340.74358679275866,536.9774287153962 L 350.08497241432286,513.1466827165328 L 326.6287331991059,502.901157738689 L 350.08497241432286,492.65563276084515 L 340.74358679275866,468.8248867619819 L 364.57433279162194,478.1662723835461 Z" fill="none" stroke="#00A86B" stroke-width="1.9651072032121508" /><path d="M 481.91124570359887,454.7100331683291 L 492.1567706814427,478.1662723835461 L 515.987516680306,468.8248867619819 L 506.6461310587418,492.65563276084515 L 530.1023702739587,502.901157738689 L 506.6461310587418,513.1466827165328 L 515.987516680306,536.9774287153962 L 492.1567706814427,527.636043093832 L 481.91124570359887,551.0922823090489 L 471.665720725755,527.636043093832 L 447.83497472689174,536.9774287153962 L 457.17636034845594,513.1466827165328 L 433.720121133239,502.901157738689 L 457.17636034845594,492.65563276084515 L 447.83497472689174,468.8248867619819 L 471.665720725755,478.1662723835461 Z" fill="none" stroke="#00A86B" stroke-width="1.9651072032121508" /><path d="M 589.002633637732,454.7100331683291 L 599.2481586155758,478.1662723835461 L 623.0789046144391,468.8248867619819 L 613.7375189928749,492.65563276084515 L 637.1937582080918,502.901157738689 L 613.7375189928749,513.1466827165328 L 623.0789046144391,536.9774287153962 L 599.2481586155758,527.636043093832 L 589.002633637732,551.0922823090489 L 578.7571086598881,527.636043093832 L 554.9263626610248,536.9774287153962 L 564.267748282589,513.1466827165328 L 540.8115090673721,502.901157738689 L 564.267748282589,492.65563276084515 L 554.9263626610248,468.8248867619819 L 578.7571086598881,478.1662723835461 Z" fill="none" stroke="#00A86B" stroke-width="1.9651072032121508" /><path d="M 696.094021571865,454.7100331683291 L 706.3395465497089,478.1662723835461 L 730.1702925485722,468.8248867619819 L 720.828906927008,492.65563276084515 L 744.2851461422249,502.901157738689 L 720.828906927008,513.1466827165328 L 730.1702925485722,536.9774287153962 L 706.3395465497089,527.636043093832 L 696.094021571865,551.0922823090489 L 685.8484965940212,527.636043093832 L 662.0177505951578,536.9774287153962 L 671.359136216722,513.1466827165328 L 647.9028970015052,502.901157738689 L 671.359136216722,492.65563276084515 L 662.0177505951578,468.8248867619819 L 685.8484965940212,478.1662723835461 Z" fill="none" stroke="#00A86B" stroke-width="1.9651072032121508" /><path d="M 803.1854095059981,454.7100331683291 L 813.430934483842,478.1662723835461 L 837.2616804827053,468.8248867619819 L 827.9202948611411,492.65563276084515 L 851.376534076358,502.901157738689 L 827.9202948611411,513.1466827165328 L 837.2616804827053,536.9774287153962 L 813.430934483842,527.636043093832 L 803.1854095059981,551.0922823090489 L 792.9398845281543,527.636043093832 L 769.1091385292909,536.9774287153962 L 778.4505241508551,513.1466827165328 L 754.9942849356382,502.901157738689 L 778.4505241508551,492.65563276084515 L 769.1091385292909,468.8248867619819 L 792.9398845281543,478.1662723835461 Z" fill="none" stroke="#00A86B" stroke-width="1.9651072032121508" /><path d="M 910.2767974401312,454.7100331683291 L 920.522322417975,478.1662723835461 L 944.3530684168384,468.8248867619819 L 935.0116827952742,492.65563276084515 L 958.4679220104911,502.901157738689 L 935.0116827952742,513.1466827165328 L 944.3530684168384,536.9774287153962 L 920.522322417975,527.636043093832 L 910.2767974401312,551.0922823090489 L 900.0312724622873,527.636043093832 L 876.200526463424,536.9774287153962 L 885.5419120849882,513.1466827165328 L 862.0856728697713,502.901157738689 L 885.5419120849882,492.65563276084515 L 876.200526463424,468.8248867619819 L 900.0312724622873,478.1662723835461 Z" fill="none" stroke="#00A86B" stroke-width="1.9651072032121508" /><path d="M 1017.3681853742643,454.7100331683291 L 1027.6137103521082,478.1662723835461 L 1051.4444563509714,468.8248867619819 L 1042.1030707294071,492.65563276084515 L 1065.5593099446241,502.901157738689 L 1042.1030707294071,513.1466827165328 L 1051.4444563509714,536.9774287153962 L 1027.6137103521082,527.636043093832 L 1017.3681853742643,551.0922823090489 L 1007.1226603964204,527.636043093832 L 983.2919143975571,536.9774287153962 L 992.6333000191213,513.1466827165328 L 969.1770608039044,502.901157738689 L 992.6333000191213,492.65563276084515 L 983.2919143975571,468.8248867619819 L 1007.1226603964204,478.1662723835461 Z" fill="none" stroke="#00A86B" stroke-width="1.9651072032121508" /><path d="M 1124.4595733083975,454.7100331683291 L 1134.7050982862413,478.1662723835461 L 1158.5358442851045,468.8248867619819 L 1149.1944586635404,492.65563276084515 L 1172.6506978787575,502.901157738689 L 1149.1944586635404,513.1466827165328 L 1158.5358442851045,536.9774287153962 L 1134.7050982862413,527.636043093832 L 1124.4595733083975,551.0922823090489 L 1114.2140483305536,527.636043093832 L 1090.3833023316904,536.9774287153962 L 1099.7246879532545,513.1466827165328 L 1076.2684487380375,502.901157738689 L 1099.7246879532545,492.65563276084515 L 1090.3833023316904,468.8248867619819 L 1114.2140483305536,478.1662723835461 Z" fill="none" stroke="#00A86B" stroke-width="1.9651072032121508" /><path d="M 1231.5509612425303,454.7100331683291 L 1241.7964862203742,478.1662723835461 L 1265.6272322192374,468.8248867619819 L 1256.2858465976733,492.65563276084515 L 1279.7420858128903,502.901157738689 L 1256.2858465976733,513.1466827165328 L 1265.6272322192374,536.9774287153962 L 1241.7964862203742,527.636043093832 L 1231.5509612425303,551.0922823090489 L 1221.3054362646865,527.636043093832 L 1197.4746902658233,536.9774287153962 L 1206.8160758873873,513.1466827165328 L 1183.3598366721703,502.901157738689 L 1206.8160758873873,492.65563276084515 L 1197.4746902658233,468.8248867619819 L 1221.3054362646865,478.1662723835461 Z" fill="none" stroke="#00A86B" stroke-width="1.9651072032121508" /><path d="M 2.95085532262013e-15,547.4511751192883 L 10.245524977843854,570.9074143345052 L 34.07627097670713,561.566028712941 L 24.734885355142932,585.3967747118044 L 48.19112457035989,595.6422996896482 L 24.734885355142932,605.887824667492 L 34.07627097670713,629.7185706663554 L 10.245524977843854,620.3771850447912 L 2.95085532262013e-15,643.8334242600081 L -10.24552497784385,620.3771850447912 L -34.07627097670712,629.7185706663554 L -24.734885355142925,605.887824667492 L -48.19112457035989,595.6422996896482 L -24.73488535514293,585.3967747118044 L -34.07627097670713,561.566028712941 L -10.245524977843868,570.9074143345052 Z" fill="none" stroke="#00A86B" stroke-width="1.9651072032121508" /><path d="M 107.09138793413308,547.4511751192883 L 117.33691291197694,570.9074143345052 L 141.1676589108402,561.566028712941 L 131.826273289276,585.3967747118044 L 155.28251250449296,595.6422996896482 L 131.826273289276,605.887824667492 L 141.1676589108402,629.7185706663554 L 117.33691291197694,620.3771850447912 L 107.09138793413308,643.8334242600081 L 96.84586295628924,620.3771850447912 L 73.01511695742596,629.7185706663554 L 82.35650257899016,605.887824667492 L 58.90026336377319,595.6422996896482 L 82.35650257899016,585.3967747118044 L 73.01511695742596,561.566028712941 L 96.84586295628921,570.9074143345052 Z" fill="none" stroke="#00A86B" stroke-width="1.9651072032121508" /><path d="M 214.18277586826616,547.4511751192883 L 224.42830084611,570.9074143345052 L 248.25904684497328,561.566028712941 L 238.91766122340908,585.3967747118044 L 262.37390043862604,595.6422996896482 L 238.91766122340908,605.887824667492 L 248.25904684497328,629.7185706663554 L 224.42830084611,620.3771850447912 L 214.18277586826616,643.8334242600081 L 203.93725089042232,620.3771850447912 L 180.10650489155904,629.7185706663554 L 189.44789051312324,605.887824667492 L 165.9916512979063,595.6422996896482 L 189.44789051312324,585.3967747118044 L 180.10650489155904,561.566028712941 L 203.9372508904223,570.9074143345052 Z" fill="none" stroke="#00A86B" stroke-width="1.9651072032121508" /><path d="M 321.27416380239924,547.4511751192883 L 331.5196887802431,570.9074143345052 L 355.35043477910637,561.566028712941 L 346.00904915754217,585.3967747118044 L 369.4652883727591,595.6422996896482 L 346.00904915754217,605.887824667492 L 355.35043477910637,629.7185706663554 L 331.5196887802431,620.3771850447912 L 321.27416380239924,643.8334242600081 L 311.0286388245554,620.3771850447912 L 287.1978928256921,629.7185706663554 L 296.5392784472563,605.887824667492 L 273.08303923203937,595.6422996896482 L 296.5392784472563,585.3967747118044 L 287.1978928256921,561.566028712941 L 311.0286388245554,570.9074143345052 Z" fill="none" stroke="#00A86B" stroke-width="1.9651072032121508" /><path d="M 428.3655517365323,547.4511751192883 L 438.61107671437617,570.9074143345052 L 462.44182271323945,561.566028712941 L 453.10043709167525,585.3967747118044 L 476.5566763068922,595.6422996896482 L 453.10043709167525,605.887824667492 L 462.44182271323945,629.7185706663554 L 438.61107671437617,620.3771850447912 L 428.3655517365323,643.8334242600081 L 418.1200267586885,620.3771850447912 L 394.2892807598252,629.7185706663554 L 403.6306663813894,605.887824667492 L 380.17442716617245,595.6422996896482 L 403.6306663813894,585.3967747118044 L 394.2892807598252,561.566028712941 L 418.1200267586885,570.9074143345052 Z" fill="none" stroke="#00A86B" stroke-width="1.9651072032121508" /><path d="M 535.4569396706654,547.4511751192883 L 545.7024646485092,570.9074143345052 L 569.5332106473726,561.566028712941 L 560.1918250258084,585.3967747118044 L 583.6480642410253,595.6422996896482 L 560.1918250258084,605.887824667492 L 569.5332106473726,629.7185706663554 L 545.7024646485092,620.3771850447912 L 535.4569396706654,643.8334242600081 L 525.2114146928216,620.3771850447912 L 501.3806686939583,629.7185706663554 L 510.7220543155225,605.887824667492 L 487.26581510030553,595.6422996896482 L 510.7220543155225,585.3967747118044 L 501.3806686939583,561.566028712941 L 525.2114146928216,570.9074143345052 Z" fill="none" stroke="#00A86B" stroke-width="1.9651072032121508" /><path d="M 642.5483276047985,547.4511751192883 L 652.7938525826423,570.9074143345052 L 676.6245985815057,561.566028712941 L 667.2832129599415,585.3967747118044 L 690.7394521751584,595.6422996896482 L 667.2832129599415,605.887824667492 L 676.6245985815057,629.7185706663554 L 652.7938525826423,620.3771850447912 L 642.5483276047985,643.8334242600081 L 632.3028026269546,620.3771850447912 L 608.4720566280914,629.7185706663554 L 617.8134422496555,605.887824667492 L 594.3572030344386,595.6422996896482 L 617.8134422496555,585.3967747118044 L 608.4720566280913,561.566028712941 L 632.3028026269546,570.9074143345052 Z" fill="none" stroke="#00A86B" stroke-width="1.9651072032121508" /><path d="M 749.6397155389316,547.4511751192883 L 759.8852405167754,570.9074143345052 L 783.7159865156387,561.566028712941 L 774.3746008940745,585.3967747118044 L 797.8308401092914,595.6422996896482 L 774.3746008940745,605.887824667492 L 783.7159865156387,629.7185706663554 L 759.8852405167754,620.3771850447912 L 749.6397155389316,643.8334242600081 L 739.3941905610877,620.3771850447912 L 715.5634445622245,629.7185706663554 L 724.9048301837886,605.887824667492 L 701.4485909685717,595.6422996896482 L 724.9048301837886,585.3967747118044 L 715.5634445622244,561.566028712941 L 739.3941905610877,570.9074143345052 Z" fill="none" stroke="#00A86B" stroke-width="1.9651072032121508" /><path d="M 856.7311034730646,547.4511751192883 L 866.9766284509085,570.9074143345052 L 890.8073744497718,561.566028712941 L 881.4659888282076,585.3967747118044 L 904.9222280434245,595.6422996896482 L 881.4659888282076,605.887824667492 L 890.8073744497718,629.7185706663554 L 866.9766284509085,620.3771850447912 L 856.7311034730646,643.8334242600081 L 846.4855784952208,620.3771850447912 L 822.6548324963576,629.7185706663554 L 831.9962181179217,605.887824667492 L 808.5399789027048,595.6422996896482 L 831.9962181179217,585.3967747118044 L 822.6548324963575,561.566028712941 L 846.4855784952208,570.9074143345052 Z" fill="none" stroke="#00A86B" stroke-width="1.9651072032121508" /><path d="M 963.8224914071977,547.4511751192883 L 974.0680163850416,570.9074143345052 L 997.8987623839049,561.566028712941 L 988.5573767623407,585.3967747118044 L 1012.0136159775576,595.6422996896482 L 988.5573767623407,605.887824667492 L 997.8987623839049,629.7185706663554 L 974.0680163850416,620.3771850447912 L 963.8224914071977,643.8334242600081 L 953.5769664293539,620.3771850447912 L 929.7462204304907,629.7185706663554 L 939.0876060520548,605.887824667492 L 915.6313668368379,595.6422996896482 L 939.0876060520548,585.3967747118044 L 929.7462204304906,561.566028712941 L 953.5769664293539,570.9074143345052 Z" fill="none" stroke="#00A86B" stroke-width="1.9651072032121508" /><path d="M 1070.9138793413308,547.4511751192883 L 1081.1594043191747,570.9074143345052 L 1104.9901503180379,561.566028712941 L 1095.6487646964738,585.3967747118044 L 1119.1050039116908,595.6422996896482 L 1095.6487646964738,605.887824667492 L 1104.9901503180379,629.7185706663554 L 1081.1594043191747,620.3771850447912 L 1070.9138793413308,643.8334242600081 L 1060.668354363487,620.3771850447912 L 1036.8376083646237,629.7185706663554 L 1046.1789939861878,605.887824667492 L 1022.7227547709709,595.6422996896482 L 1046.1789939861878,585.3967747118044 L 1036.8376083646237,561.566028712941 L 1060.668354363487,570.9074143345052 Z" fill="none" stroke="#00A86B" stroke-width="1.9651072032121508" /><path d="M 1178.0052672754641,547.4511751192883 L 1188.250792253308,570.9074143345052 L 1212.0815382521712,561.566028712941 L 1202.740152630607,585.3967747118044 L 1226.196391845824,595.6422996896482 L 1202.740152630607,605.887824667492 L 1212.0815382521712,629.7185706663554 L 1188.250792253308,620.3771850447912 L 1178.0052672754641,643.8334242600081 L 1167.7597422976203,620.3771850447912 L 1143.928996298757,629.7185706663554 L 1153.2703819203211,605.887824667492 L 1129.8141427051041,595.6422996896482 L 1153.2703819203211,585.3967747118044 L 1143.928996298757,561.566028712941 L 1167.7597422976203,570.9074143345052 Z" fill="none" stroke="#00A86B" stroke-width="1.9651072032121508" /><path d="M 1285.096655209597,547.4511751192883 L 1295.3421801874408,570.9074143345052 L 1319.172926186304,561.566028712941 L 1309.83154056474,585.3967747118044 L 1333.287779779957,595.6422996896482 L 1309.83154056474,605.887824667492 L 1319.172926186304,629.7185706663554 L 1295.3421801874408,620.3771850447912 L 1285.096655209597,643.8334242600081 L 1274.8511302317531,620.3771850447912 L 1251.02038423289,629.7185706663554 L 1260.361769854454,605.887824667492 L 1236.905530639237,595.6422996896482 L 1260.361769854454,585.3967747118044 L 1251.02038423289,561.566028712941 L 1274.8511302317531,570.9074143345052 Z" fill="none" stroke="#00A86B" stroke-width="1.9651072032121508" /><line x1="48.19112457035989" y1="39.195447983892706" x2="58.90026336377319" y2="39.195447983892706" stroke="#00A86B" stroke-width="0.5"/><line x1="155.28251250449296" y1="39.195447983892706" x2="165.9916512979063" y2="39.195447983892706" stroke="#00A86B" stroke-width="0.5"/><line x1="262.37390043862604" y1="39.195447983892706" x2="273.08303923203937" y2="39.195447983892706" stroke="#00A86B" stroke-width="0.5"/><line x1="369.4652883727591" y1="39.195447983892706" x2="380.17442716617245" y2="39.195447983892706" stroke="#00A86B" stroke-width="0.5"/><line x1="476.5566763068922" y1="39.195447983892706" x2="487.26581510030553" y2="39.195447983892706" stroke="#00A86B" stroke-width="0.5"/><line x1="583.6480642410253" y1="39.195447983892706" x2="594.3572030344386" y2="39.195447983892706" stroke="#00A86B" stroke-width="0.5"/><line x1="690.7394521751584" y1="39.195447983892706" x2="701.4485909685717" y2="39.195447983892706" stroke="#00A86B" stroke-width="0.5"/><line x1="797.8308401092914" y1="39.195447983892706" x2="808.5399789027048" y2="39.195447983892706" stroke="#00A86B" stroke-width="0.5"/><line x1="904.9222280434245" y1="39.195447983892706" x2="915.6313668368379" y2="39.195447983892706" stroke="#00A86B" stroke-width="0.5"/><line x1="1012.0136159775576" y1="39.195447983892706" x2="1022.7227547709709" y2="39.195447983892706" stroke="#00A86B" stroke-width="0.5"/><line x1="1119.1050039116908" y1="39.195447983892706" x2="1129.8141427051041" y2="39.195447983892706" stroke="#00A86B" stroke-width="0.5"/><line x1="101.73681853742643" y1="131.93658993485195" x2="112.44595733083973" y2="131.93658993485195" stroke="#00A86B" stroke-width="0.5"/><line x1="208.8282064715595" y1="131.93658993485195" x2="219.53734526497283" y2="131.93658993485195" stroke="#00A86B" stroke-width="0.5"/><line x1="315.9195944056926" y1="131.93658993485195" x2="326.6287331991059" y2="131.93658993485195" stroke="#00A86B" stroke-width="0.5"/><line x1="423.01098233982566" y1="131.93658993485195" x2="433.720121133239" y2="131.93658993485195" stroke="#00A86B" stroke-width="0.5"/><line x1="530.1023702739587" y1="131.93658993485195" x2="540.8115090673721" y2="131.93658993485195" stroke="#00A86B" stroke-width="0.5"/><line x1="637.1937582080918" y1="131.93658993485195" x2="647.9028970015052" y2="131.93658993485195" stroke="#00A86B" stroke-width="0.5"/><line x1="744.2851461422249" y1="131.93658993485195" x2="754.9942849356382" y2="131.93658993485195" stroke="#00A86B" stroke-width="0.5"/><line x1="851.376534076358" y1="131.93658993485195" x2="862.0856728697713" y2="131.93658993485195" stroke="#00A86B" stroke-width="0.5"/><line x1="958.4679220104911" y1="131.93658993485195" x2="969.1770608039044" y2="131.93658993485195" stroke="#00A86B" stroke-width="0.5"/><line x1="1065.5593099446241" y1="131.93658993485195" x2="1076.2684487380375" y2="131.93658993485195" stroke="#00A86B" stroke-width="0.5"/><line x1="1172.6506978787575" y1="131.93658993485195" x2="1183.3598366721703" y2="131.93658993485195" stroke="#00A86B" stroke-width="0.5"/><line x1="48.19112457035989" y1="224.67773188581123" x2="58.90026336377319" y2="224.67773188581123" stroke="#00A86B" stroke-width="0.5"/><line x1="155.28251250449296" y1="224.67773188581123" x2="165.9916512979063" y2="224.67773188581123" stroke="#00A86B" stroke-width="0.5"/><line x1="262.37390043862604" y1="224.67773188581123" x2="273.08303923203937" y2="224.67773188581123" stroke="#00A86B" stroke-width="0.5"/><line x1="369.4652883727591" y1="224.67773188581123" x2="380.17442716617245" y2="224.67773188581123" stroke="#00A86B" stroke-width="0.5"/><line x1="476.5566763068922" y1="224.67773188581123" x2="487.26581510030553" y2="224.67773188581123" stroke="#00A86B" stroke-width="0.5"/><line x1="583.6480642410253" y1="224.67773188581123" x2="594.3572030344386" y2="224.67773188581123" stroke="#00A86B" stroke-width="0.5"/><line x1="690.7394521751584" y1="224.67773188581123" x2="701.4485909685717" y2="224.67773188581123" stroke="#00A86B" stroke-width="0.5"/><line x1="797.8308401092914" y1="224.67773188581123" x2="808.5399789027048" y2="224.67773188581123" stroke="#00A86B" stroke-width="0.5"/><line x1="904.9222280434245" y1="224.67773188581123" x2="915.6313668368379" y2="224.67773188581123" stroke="#00A86B" stroke-width="0.5"/><line x1="1012.0136159775576" y1="224.67773188581123" x2="1022.7227547709709" y2="224.67773188581123" stroke="#00A86B" stroke-width="0.5"/><line x1="1119.1050039116908" y1="224.67773188581123" x2="1129.8141427051041" y2="224.67773188581123" stroke="#00A86B" stroke-width="0.5"/><line x1="101.73681853742643" y1="317.41887383677044" x2="112.44595733083973" y2="317.41887383677044" stroke="#00A86B" stroke-width="0.5"/><line x1="208.8282064715595" y1="317.41887383677044" x2="219.53734526497283" y2="317.41887383677044" stroke="#00A86B" stroke-width="0.5"/><line x1="315.9195944056926" y1="317.41887383677044" x2="326.6287331991059" y2="317.41887383677044" stroke="#00A86B" stroke-width="0.5"/><line x1="423.01098233982566" y1="317.41887383677044" x2="433.720121133239" y2="317.41887383677044" stroke="#00A86B" stroke-width="0.5"/><line x1="530.1023702739587" y1="317.41887383677044" x2="540.8115090673721" y2="317.41887383677044" stroke="#00A86B" stroke-width="0.5"/><line x1="637.1937582080918" y1="317.41887383677044" x2="647.9028970015052" y2="317.41887383677044" stroke="#00A86B" stroke-width="0.5"/><line x1="744.2851461422249" y1="317.41887383677044" x2="754.9942849356382" y2="317.41887383677044" stroke="#00A86B" stroke-width="0.5"/><line x1="851.376534076358" y1="317.41887383677044" x2="862.0856728697713" y2="317.41887383677044" stroke="#00A86B" stroke-width="0.5"/><line x1="958.4679220104911" y1="317.41887383677044" x2="969.1770608039044" y2="317.41887383677044" stroke="#00A86B" stroke-width="0.5"/><line x1="1065.5593099446241" y1="317.41887383677044" x2="1076.2684487380375" y2="317.41887383677044" stroke="#00A86B" stroke-width="0.5"/><line x1="1172.6506978787575" y1="317.41887383677044" x2="1183.3598366721703" y2="317.41887383677044" stroke="#00A86B" stroke-width="0.5"/><line x1="48.19112457035989" y1="410.1600157877297" x2="58.90026336377319" y2="410.1600157877297" stroke="#00A86B" stroke-width="0.5"/><line x1="155.28251250449296" y1="410.1600157877297" x2="165.9916512979063" y2="410.1600157877297" stroke="#00A86B" stroke-width="0.5"/><line x1="262.37390043862604" y1="410.1600157877297" x2="273.08303923203937" y2="410.1600157877297" stroke="#00A86B" stroke-width="0.5"/><line x1="369.4652883727591" y1="410.1600157877297" x2="380.17442716617245" y2="410.1600157877297" stroke="#00A86B" stroke-width="0.5"/><line x1="476.5566763068922" y1="410.1600157877297" x2="487.26581510030553" y2="410.1600157877297" stroke="#00A86B" stroke-width="0.5"/><line x1="583.6480642410253" y1="410.1600157877297" x2="594.3572030344386" y2="410.1600157877297" stroke="#00A86B" stroke-width="0.5"/><line x1="690.7394521751584" y1="410.1600157877297" x2="701.4485909685717" y2="410.1600157877297" stroke="#00A86B" stroke-width="0.5"/><line x1="797.8308401092914" y1="410.1600157877297" x2="808.5399789027048" y2="410.1600157877297" stroke="#00A86B" stroke-width="0.5"/><line x1="904.9222280434245" y1="410.1600157877297" x2="915.6313668368379" y2="410.1600157877297" stroke="#00A86B" stroke-width="0.5"/><line x1="1012.0136159775576" y1="410.1600157877297" x2="1022.7227547709709" y2="410.1600157877297" stroke="#00A86B" stroke-width="0.5"/><line x1="1119.1050039116908" y1="410.1600157877297" x2="1129.8141427051041" y2="410.1600157877297" stroke="#00A86B" stroke-width="0.5"/><line x1="101.73681853742643" y1="502.901157738689" x2="112.44595733083973" y2="502.901157738689" stroke="#00A86B" stroke-width="0.5"/><line x1="208.8282064715595" y1="502.901157738689" x2="219.53734526497283" y2="502.901157738689" stroke="#00A86B" stroke-width="0.5"/><line x1="315.9195944056926" y1="502.901157738689" x2="326.6287331991059" y2="502.901157738689" stroke="#00A86B" stroke-width="0.5"/><line x1="423.01098233982566" y1="502.901157738689" x2="433.720121133239" y2="502.901157738689" stroke="#00A86B" stroke-width="0.5"/><line x1="530.1023702739587" y1="502.901157738689" x2="540.8115090673721" y2="502.901157738689" stroke="#00A86B" stroke-width="0.5"/><line x1="637.1937582080918" y1="502.901157738689" x2="647.9028970015052" y2="502.901157738689" stroke="#00A86B" stroke-width="0.5"/><line x1="744.2851461422249" y1="502.901157738689" x2="754.9942849356382" y2="502.901157738689" stroke="#00A86B" stroke-width="0.5"/><line x1="851.376534076358" y1="502.901157738689" x2="862.0856728697713" y2="502.901157738689" stroke="#00A86B" stroke-width="0.5"/><line x1="958.4679220104911" y1="502.901157738689" x2="969.1770608039044" y2="502.901157738689" stroke="#00A86B" stroke-width="0.5"/><line x1="1065.5593099446241" y1="502.901157738689" x2="1076.2684487380375" y2="502.901157738689" stroke="#00A86B" stroke-width="0.5"/><line x1="1172.6506978787575" y1="502.901157738689" x2="1183.3598366721703" y2="502.901157738689" stroke="#00A86B" stroke-width="0.5"/><line x1="48.19112457035989" y1="595.6422996896482" x2="58.90026336377319" y2="595.6422996896482" stroke="#00A86B" stroke-width="0.5"/><line x1="155.28251250449296" y1="595.6422996896482" x2="165.9916512979063" y2="595.6422996896482" stroke="#00A86B" stroke-width="0.5"/><line x1="262.37390043862604" y1="595.6422996896482" x2="273.08303923203937" y2="595.6422996896482" stroke="#00A86B" stroke-width="0.5"/><line x1="369.4652883727591" y1="595.6422996896482" x2="380.17442716617245" y2="595.6422996896482" stroke="#00A86B" stroke-width="0.5"/><line x1="476.5566763068922" y1="595.6422996896482" x2="487.26581510030553" y2="595.6422996896482" stroke="#00A86B" stroke-width="0.5"/><line x1="583.6480642410253" y1="595.6422996896482" x2="594.3572030344386" y2="595.6422996896482" stroke="#00A86B" stroke-width="0.5"/><line x1="690.7394521751584" y1="595.6422996896482" x2="701.4485909685717" y2="595.6422996896482" stroke="#00A86B" stroke-width="0.5"/><line x1="797.8308401092914" y1="595.6422996896482" x2="808.5399789027048" y2="595.6422996896482" stroke="#00A86B" stroke-width="0.5"/><line x1="904.9222280434245" y1="595.6422996896482" x2="915.6313668368379" y2="595.6422996896482" stroke="#00A86B" stroke-width="0.5"/><line x1="1012.0136159775576" y1="595.6422996896482" x2="1022.7227547709709" y2="595.6422996896482" stroke="#00A86B" stroke-width="0.5"/><line x1="1119.1050039116908" y1="595.6422996896482" x2="1129.8141427051041" y2="595.6422996896482" stroke="#00A86B" stroke-width="0.5"/></g><g opacity="0.0643493175573411"><path d="M 1032.8014617007234 165.01739509637346 L 1064.0665128201324 165.01739509637346 L 1064.0665128201324 223.8534827327142" fill="none" stroke="#FFFFFF" stroke-width="2.0357255942820225" stroke-linecap="square"/><path d="M 179.44550522577273 299.860912403027 L 179.44550522577273 347.3146563403941 L 120.40399531566881 347.3146563403941" fill="none" stroke="#FFFFFF" stroke-width="2.0357255942820225" stroke-linecap="square"/><path d="M 374.82179420759053 353.70726959486836 L 417.9981174204088 353.70726959486836 L 417.9981174204088 306.76606370187835 L 352.69682283048974 306.76606370187835" fill="none" stroke="#FFFFFF" stroke-width="2.0357255942820225" stroke-linecap="square"/><path d="M 743.226099360374 390.67705768657714 L 680.8105698498588 390.67705768657714 L 680.8105698498588 323.7503698726874 L 638.8817076252459 323.7503698726874" fill="none" stroke="#FFFFFF" stroke-width="2.0357255942820225" stroke-linecap="square"/><path d="M 647.0176938208834 96.39773373324319 L 685.056189888768 96.39773373324319 L 685.056189888768 64.36424923032851" fill="none" stroke="#FFFFFF" stroke-width="2.0357255942820225" stroke-linecap="square"/><path d="M 321.41690269178565 606.8523326361795 L 321.41690269178565 573.7323188077265 L 354.28472745900535 573.7323188077265 L 354.28472745900535 615.7513996390036" fill="none" stroke="#FFFFFF" stroke-width="2.0357255942820225" stroke-linecap="square"/><line x1="106.29791741552665" y1="345.5848540484835" x2="273.1832743963149" y2="345.5848540484835" stroke="#FFFFFF" stroke-width="0.5" stroke-dasharray="5,10"/><circle cx="1064.0665128201324" cy="223.8534827327142" r="7.19858455900037" fill="#FFFFFF"/><circle cx="1032.8014617007234" cy="165.01739509637346" r="5.758867647200296" fill="#FFFFFF"/><circle cx="352.69682283048974" cy="306.76606370187835" r="7.19858455900037" fill="#FFFFFF"/><circle cx="638.8817076252459" cy="323.7503698726874" r="7.19858455900037" fill="#FFFFFF"/><circle cx="743.226099360374" cy="390.67705768657714" r="5.758867647200296" fill="#FFFFFF"/><circle cx="1192.402983267048" cy="3.11882972862517" r="3.779223536120041" fill="#FFFFFF"/><circle cx="135.2358341846782" cy="117.38924598199746" r="5.139629451501434" fill="#FFFFFF"/><rect x="1104.1813272811062" y="570.9907118556653" width="15.19062253522216" height="15.19062253522216" fill="#FFFFFF"/></g><g opacity="0.2"><rect x="40" y="40" width="1120" height="550" fill="none" stroke="#666666" stroke-width="2" rx="8"/></g><g opacity="0.6812490374693876"><line x1="50" y1="50" x2="70" y2="50" stroke="#00D486" stroke-width="3"/><line x1="50" y1="50" x2="50" y2="70" stroke="#00D486" stroke-width="3"/><line x1="1150" y1="580" x2="1130" y2="580" stroke="#00D486" stroke-width="3"/><line x1="1150" y1="580" x2="1150" y2="560" stroke="#00D486" stroke-width="3"/></g></svg>