<svg xmlns="http://www.w3.org/2000/svg" width="1200" height="630" viewBox="0 0 1200 630"><rect x="0" y="0" width="1200" height="630" fill="#0D0D0D"/><g opacity="0.05"><line x1="0" y1="0" x2="0" y2="630" stroke="#8B7355" stroke-width="0.5"/><line x1="60" y1="0" x2="60" y2="630" stroke="#8B7355" stroke-width="0.5"/><line x1="120" y1="0" x2="120" y2="630" stroke="#8B7355" stroke-width="0.5"/><line x1="180" y1="0" x2="180" y2="630" stroke="#8B7355" stroke-width="0.5"/><line x1="240" y1="0" x2="240" y2="630" stroke="#8B7355" stroke-width="0.5"/><line x1="300" y1="0" x2="300" y2="630" stroke="#8B7355" stroke-width="0.5"/><line x1="360" y1="0" x2="360" y2="630" stroke="#8B7355" stroke-width="0.5"/><line x1="420" y1="0" x2="420" y2="630" stroke="#8B7355" stroke-width="0.5"/><line x1="480" y1="0" x2="480" y2="630" stroke="#8B7355" stroke-width="0.5"/><line x1="540" y1="0" x2="540" y2="630" stroke="#8B7355" stroke-width="0.5"/><line x1="600" y1="0" x2="600" y2="630" stroke="#8B7355" stroke-width="0.5"/><line x1="660" y1="0" x2="660" y2="630" stroke="#8B7355" stroke-width="0.5"/><line x1="720" y1="0" x2="720" y2="630" stroke="#8B7355" stroke-width="0.5"/><line x1="780" y1="0" x2="780" y2="630" stroke="#8B7355" stroke-width="0.5"/><line x1="840" y1="0" x2="840" y2="630" stroke="#8B7355" stroke-width="0.5"/><line x1="900" y1="0" x2="900" y2="630" stroke="#8B7355" stroke-width="0.5"/><line x1="960" y1="0" x2="960" y2="630" stroke="#8B7355" stroke-width="0.5"/><line x1="1020" y1="0" x2="1020" y2="630" stroke="#8B7355" stroke-width="0.5"/><line x1="1080" y1="0" x2="1080" y2="630" stroke="#8B7355" stroke-width="0.5"/><line x1="1140" y1="0" x2="1140" y2="630" stroke="#8B7355" stroke-width="0.5"/><line x1="1200" y1="0" x2="1200" y2="630" stroke="#8B7355" stroke-width="0.5"/><line x1="0" y1="0" x2="1200" y2="0" stroke="#8B7355" stroke-width="0.5"/><line x1="0" y1="60" x2="1200" y2="60" stroke="#8B7355" stroke-width="0.5"/><line x1="0" y1="120" x2="1200" y2="120" stroke="#8B7355" stroke-width="0.5"/><line x1="0" y1="180" x2="1200" y2="180" stroke="#8B7355" stroke-width="0.5"/><line x1="0" y1="240" x2="1200" y2="240" stroke="#8B7355" stroke-width="0.5"/><line x1="0" y1="300" x2="1200" y2="300" stroke="#8B7355" stroke-width="0.5"/><line x1="0" y1="360" x2="1200" y2="360" stroke="#8B7355" stroke-width="0.5"/><line x1="0" y1="420" x2="1200" y2="420" stroke="#8B7355" stroke-width="0.5"/><line x1="0" y1="480" x2="1200" y2="480" stroke="#8B7355" stroke-width="0.5"/><line x1="0" y1="540" x2="1200" y2="540" stroke="#8B7355" stroke-width="0.5"/><line x1="0" y1="600" x2="1200" y2="600" stroke="#8B7355" stroke-width="0.5"/><line x1="0" y1="660" x2="1200" y2="660" stroke="#8B7355" stroke-width="0.5"/></g><g opacity="0.07361386866477033"><path d="M -62.17609664648908,-118.13458362832925 L -50.27921560861808,-90.89770819805653 L -22.607471036690747,-101.7447222562874 L -33.45448509492162,-74.07297768436007 L -6.217609664648904,-62.17609664648908 L -33.45448509492162,-50.27921560861809 L -22.607471036690747,-22.607471036690754 L -50.27921560861808,-33.45448509492162 L -62.17609664648908,-6.217609664648904 L -74.07297768436007,-33.45448509492162 L -101.7447222562874,-22.607471036690747 L -90.89770819805653,-50.27921560861807 L -118.13458362832925,-62.17609664648907 L -90.89770819805653,-74.07297768436008 L -101.74472225628742,-101.7447222562874 L -74.0729776843601,-90.89770819805653 Z" fill="none" stroke="#FFD700" stroke-width="1.4503862266197736" /><path d="M 62.17609664648908,-118.13458362832925 L 74.07297768436007,-90.89770819805653 L 101.74472225628742,-101.7447222562874 L 90.89770819805653,-74.07297768436007 L 118.13458362832925,-62.17609664648908 L 90.89770819805653,-50.27921560861809 L 101.74472225628742,-22.607471036690754 L 74.07297768436007,-33.45448509492162 L 62.17609664648908,-6.217609664648904 L 50.27921560861809,-33.45448509492162 L 22.607471036690754,-22.607471036690747 L 33.45448509492163,-50.27921560861807 L 6.217609664648904,-62.17609664648907 L 33.45448509492162,-74.07297768436008 L 22.60747103669074,-101.7447222562874 L 50.27921560861807,-90.89770819805653 Z" fill="none" stroke="#FFD700" stroke-width="1.4503862266197736" /><path d="M 186.52828993946724,-118.13458362832925 L 198.42517097733824,-90.89770819805653 L 226.0969155492656,-101.7447222562874 L 215.2499014910347,-74.07297768436007 L 242.4867769213074,-62.17609664648908 L 215.2499014910347,-50.27921560861809 L 226.0969155492656,-22.607471036690754 L 198.42517097733824,-33.45448509492162 L 186.52828993946724,-6.217609664648904 L 174.63140890159625,-33.45448509492162 L 146.95966432966893,-22.607471036690747 L 157.8066783878998,-50.27921560861807 L 130.56980295762708,-62.17609664648907 L 157.80667838789978,-74.07297768436008 L 146.9596643296689,-101.7447222562874 L 174.63140890159622,-90.89770819805653 Z" fill="none" stroke="#FFD700" stroke-width="1.4503862266197736" /><path d="M 310.8804832324454,-118.13458362832925 L 322.77736427031635,-90.89770819805653 L 350.44910884224373,-101.7447222562874 L 339.6020947840128,-74.07297768436007 L 366.83897021428555,-62.17609664648908 L 339.6020947840128,-50.27921560861809 L 350.44910884224373,-22.607471036690754 L 322.77736427031635,-33.45448509492162 L 310.8804832324454,-6.217609664648904 L 298.9836021945744,-33.45448509492162 L 271.31185762264704,-22.607471036690747 L 282.15887168087795,-50.27921560861807 L 254.92199625060522,-62.17609664648907 L 282.15887168087795,-74.07297768436008 L 271.31185762264704,-101.7447222562874 L 298.98360219457436,-90.89770819805653 Z" fill="none" stroke="#FFD700" stroke-width="1.4503862266197736" /><path d="M 435.2326765254235,-118.13458362832925 L 447.1295575632945,-90.89770819805653 L 474.8013021352219,-101.7447222562874 L 463.95428807699096,-74.07297768436007 L 491.1911635072637,-62.17609664648908 L 463.95428807699096,-50.27921560861809 L 474.8013021352219,-22.607471036690754 L 447.1295575632945,-33.45448509492162 L 435.2326765254235,-6.217609664648904 L 423.33579548755256,-33.45448509492162 L 395.6640509156252,-22.607471036690747 L 406.5110649738561,-50.27921560861807 L 379.27418954358336,-62.17609664648907 L 406.5110649738561,-74.07297768436008 L 395.6640509156252,-101.7447222562874 L 423.3357954875525,-90.89770819805653 Z" fill="none" stroke="#FFD700" stroke-width="1.4503862266197736" /><path d="M 559.5848698184017,-118.13458362832925 L 571.4817508562727,-90.89770819805653 L 599.1534954282,-101.7447222562874 L 588.3064813699691,-74.07297768436007 L 615.5433568002419,-62.17609664648908 L 588.3064813699691,-50.27921560861809 L 599.1534954282,-22.607471036690754 L 571.4817508562727,-33.45448509492162 L 559.5848698184017,-6.217609664648904 L 547.6879887805306,-33.45448509492162 L 520.0162442086033,-22.607471036690747 L 530.8632582668342,-50.27921560861807 L 503.6263828365615,-62.17609664648907 L 530.8632582668342,-74.07297768436008 L 520.0162442086033,-101.7447222562874 L 547.6879887805306,-90.89770819805653 Z" fill="none" stroke="#FFD700" stroke-width="1.4503862266197736" /><path d="M 683.9370631113799,-118.13458362832925 L 695.8339441492509,-90.89770819805653 L 723.5056887211782,-101.7447222562874 L 712.6586746629473,-74.07297768436007 L 739.8955500932201,-62.17609664648908 L 712.6586746629473,-50.27921560861809 L 723.5056887211782,-22.607471036690754 L 695.8339441492509,-33.45448509492162 L 683.9370631113799,-6.217609664648904 L 672.0401820735088,-33.45448509492162 L 644.3684375015815,-22.607471036690747 L 655.2154515598124,-50.27921560861807 L 627.9785761295396,-62.17609664648907 L 655.2154515598124,-74.07297768436008 L 644.3684375015815,-101.7447222562874 L 672.0401820735088,-90.89770819805653 Z" fill="none" stroke="#FFD700" stroke-width="1.4503862266197736" /><path d="M 808.289256404358,-118.13458362832925 L 820.186137442229,-90.89770819805653 L 847.8578820141563,-101.7447222562874 L 837.0108679559254,-74.07297768436007 L 864.2477433861982,-62.17609664648908 L 837.0108679559254,-50.27921560861809 L 847.8578820141563,-22.607471036690754 L 820.186137442229,-33.45448509492162 L 808.289256404358,-6.217609664648904 L 796.3923753664869,-33.45448509492162 L 768.7206307945596,-22.607471036690747 L 779.5676448527905,-50.27921560861807 L 752.3307694225177,-62.17609664648907 L 779.5676448527905,-74.07297768436008 L 768.7206307945596,-101.7447222562874 L 796.3923753664869,-90.89770819805653 Z" fill="none" stroke="#FFD700" stroke-width="1.4503862266197736" /><path d="M 932.6414496973362,-118.13458362832925 L 944.5383307352072,-90.89770819805653 L 972.2100753071345,-101.7447222562874 L 961.3630612489036,-74.07297768436007 L 988.5999366791764,-62.17609664648908 L 961.3630612489036,-50.27921560861809 L 972.2100753071345,-22.607471036690754 L 944.5383307352072,-33.45448509492162 L 932.6414496973362,-6.217609664648904 L 920.7445686594651,-33.45448509492162 L 893.0728240875378,-22.607471036690747 L 903.9198381457687,-50.27921560861807 L 876.6829627154959,-62.17609664648907 L 903.9198381457687,-74.07297768436008 L 893.0728240875378,-101.7447222562874 L 920.7445686594651,-90.89770819805653 Z" fill="none" stroke="#FFD700" stroke-width="1.4503862266197736" /><path d="M 1056.9936429903144,-118.13458362832925 L 1068.8905240281854,-90.89770819805653 L 1096.5622686001127,-101.7447222562874 L 1085.715254541882,-74.07297768436007 L 1112.9521299721546,-62.17609664648908 L 1085.715254541882,-50.27921560861809 L 1096.5622686001127,-22.607471036690754 L 1068.8905240281854,-33.45448509492162 L 1056.9936429903144,-6.217609664648904 L 1045.0967619524433,-33.45448509492162 L 1017.425017380516,-22.607471036690747 L 1028.2720314387468,-50.27921560861807 L 1001.0351560084741,-62.17609664648907 L 1028.2720314387468,-74.07297768436008 L 1017.425017380516,-101.7447222562874 L 1045.0967619524433,-90.89770819805653 Z" fill="none" stroke="#FFD700" stroke-width="1.4503862266197736" /><path d="M 1181.3458362832926,-118.13458362832925 L 1193.2427173211636,-90.89770819805653 L 1220.914461893091,-101.7447222562874 L 1210.06744783486,-74.07297768436007 L 1237.3043232651328,-62.17609664648908 L 1210.06744783486,-50.27921560861809 L 1220.914461893091,-22.607471036690754 L 1193.2427173211636,-33.45448509492162 L 1181.3458362832926,-6.217609664648904 L 1169.4489552454215,-33.45448509492162 L 1141.7772106734942,-22.607471036690747 L 1152.624224731725,-50.27921560861807 L 1125.3873493014523,-62.17609664648907 L 1152.624224731725,-74.07297768436008 L 1141.7772106734942,-101.7447222562874 L 1169.4489552454215,-90.89770819805653 Z" fill="none" stroke="#FFD700" stroke-width="1.4503862266197736" /><path d="M 1305.6980295762708,-118.13458362832925 L 1317.5949106141418,-90.89770819805653 L 1345.266655186069,-101.7447222562874 L 1334.4196411278383,-74.07297768436007 L 1361.656516558111,-62.17609664648908 L 1334.4196411278383,-50.27921560861809 L 1345.266655186069,-22.607471036690754 L 1317.5949106141418,-33.45448509492162 L 1305.6980295762708,-6.217609664648904 L 1293.8011485383997,-33.45448509492162 L 1266.1294039664724,-22.607471036690747 L 1276.9764180247032,-50.27921560861807 L 1249.7395425944305,-62.17609664648907 L 1276.9764180247032,-74.07297768436008 L 1266.1294039664724,-101.7447222562874 L 1293.8011485383997,-90.89770819805653 Z" fill="none" stroke="#FFD700" stroke-width="1.4503862266197736" /><path d="M 3.42646909837197e-15,-10.445584236610173 L 11.896881037870996,16.791291193662545 L 39.56862560979833,5.944277135431676 L 28.721611551567456,33.61602170735901 L 55.958486981840174,45.51290274523 L 28.721611551567456,57.40978378310099 L 39.56862560979833,85.08152835502833 L 11.896881037870996,74.23451429679746 L 3.42646909837197e-15,101.47138972707018 L -11.896881037870992,74.23451429679746 L -39.568625609798325,85.08152835502833 L -28.72161155156745,57.40978378310101 L -55.958486981840174,45.51290274523001 L -28.721611551567452,33.616021707358996 L -39.56862560979834,5.944277135431676 L -11.896881037871012,16.791291193662552 Z" fill="none" stroke="#FFD700" stroke-width="1.4503862266197736" /><path d="M 124.35219329297816,-10.445584236610173 L 136.24907433084914,16.791291193662545 L 163.9208189027765,5.944277135431676 L 153.0738048445456,33.61602170735901 L 180.31068027481834,45.51290274523 L 153.0738048445456,57.40978378310099 L 163.9208189027765,85.08152835502833 L 136.24907433084914,74.23451429679746 L 124.35219329297816,101.47138972707018 L 112.45531225510716,74.23451429679746 L 84.78356768317983,85.08152835502833 L 95.63058174141071,57.40978378310101 L 68.39370631113798,45.51290274523001 L 95.63058174141071,33.616021707358996 L 84.78356768317983,5.944277135431676 L 112.45531225510715,16.791291193662552 Z" fill="none" stroke="#FFD700" stroke-width="1.4503862266197736" /><path d="M 248.7043865859563,-10.445584236610173 L 260.6012676238273,16.791291193662545 L 288.27301219575463,5.944277135431676 L 277.4259981375238,33.61602170735901 L 304.6628735677965,45.51290274523 L 277.4259981375238,57.40978378310099 L 288.27301219575463,85.08152835502833 L 260.6012676238273,74.23451429679746 L 248.7043865859563,101.47138972707018 L 236.80750554808532,74.23451429679746 L 209.135760976158,85.08152835502833 L 219.98277503438885,57.40978378310101 L 192.74589960411615,45.51290274523001 L 219.98277503438885,33.616021707358996 L 209.13576097615797,5.944277135431676 L 236.80750554808532,16.791291193662552 Z" fill="none" stroke="#FFD700" stroke-width="1.4503862266197736" /><path d="M 373.0565798789345,-10.445584236610173 L 384.95346091680545,16.791291193662545 L 412.62520548873283,5.944277135431676 L 401.7781914305019,33.61602170735901 L 429.01506686077465,45.51290274523 L 401.7781914305019,57.40978378310099 L 412.62520548873283,85.08152835502833 L 384.95346091680545,74.23451429679746 L 373.0565798789345,101.47138972707018 L 361.1596988410635,74.23451429679746 L 333.48795426913614,85.08152835502833 L 344.33496832736705,57.40978378310101 L 317.0980928970943,45.51290274523001 L 344.33496832736705,33.616021707358996 L 333.48795426913614,5.944277135431676 L 361.15969884106346,16.791291193662552 Z" fill="none" stroke="#FFD700" stroke-width="1.4503862266197736" /><path d="M 497.4087731719126,-10.445584236610173 L 509.3056542097836,16.791291193662545 L 536.9773987817109,5.944277135431676 L 526.1303847234801,33.61602170735901 L 553.3672601537528,45.51290274523 L 526.1303847234801,57.40978378310099 L 536.9773987817109,85.08152835502833 L 509.3056542097836,74.23451429679746 L 497.4087731719126,101.47138972707018 L 485.51189213404166,74.23451429679746 L 457.8401475621143,85.08152835502833 L 468.6871616203452,57.40978378310101 L 441.45028619007246,45.51290274523001 L 468.6871616203452,33.616021707358996 L 457.8401475621143,5.944277135431676 L 485.5118921340416,16.791291193662552 Z" fill="none" stroke="#FFD700" stroke-width="1.4503862266197736" /><path d="M 621.7609664648908,-10.445584236610173 L 633.6578475027618,16.791291193662545 L 661.3295920746891,5.944277135431676 L 650.4825780164582,33.61602170735901 L 677.719453446731,45.51290274523 L 650.4825780164582,57.40978378310099 L 661.3295920746891,85.08152835502833 L 633.6578475027618,74.23451429679746 L 621.7609664648908,101.47138972707018 L 609.8640854270197,74.23451429679746 L 582.1923408550924,85.08152835502833 L 593.0393549133233,57.40978378310101 L 565.8024794830505,45.51290274523001 L 593.0393549133233,33.616021707358996 L 582.1923408550924,5.944277135431676 L 609.8640854270197,16.791291193662552 Z" fill="none" stroke="#FFD700" stroke-width="1.4503862266197736" /><path d="M 746.113159757869,-10.445584236610173 L 758.01004079574,16.791291193662545 L 785.6817853676673,5.944277135431676 L 774.8347713094364,33.61602170735901 L 802.0716467397092,45.51290274523 L 774.8347713094364,57.40978378310099 L 785.6817853676673,85.08152835502833 L 758.01004079574,74.23451429679746 L 746.113159757869,101.47138972707018 L 734.216278719998,74.23451429679746 L 706.5445341480706,85.08152835502833 L 717.3915482063015,57.40978378310101 L 690.1546727760287,45.51290274523001 L 717.3915482063015,33.616021707358996 L 706.5445341480706,5.944277135431676 L 734.216278719998,16.791291193662552 Z" fill="none" stroke="#FFD700" stroke-width="1.4503862266197736" /><path d="M 870.465353050847,-10.445584236610173 L 882.3622340887181,16.791291193662545 L 910.0339786606454,5.944277135431676 L 899.1869646024145,33.61602170735901 L 926.4238400326873,45.51290274523 L 899.1869646024145,57.40978378310099 L 910.0339786606454,85.08152835502833 L 882.3622340887181,74.23451429679746 L 870.465353050847,101.47138972707018 L 858.568472012976,74.23451429679746 L 830.8967274410487,85.08152835502833 L 841.7437414992796,57.40978378310101 L 814.5068660690068,45.51290274523001 L 841.7437414992796,33.616021707358996 L 830.8967274410487,5.944277135431676 L 858.568472012976,16.791291193662552 Z" fill="none" stroke="#FFD700" stroke-width="1.4503862266197736" /><path d="M 994.8175463438253,-10.445584236610173 L 1006.7144273816963,16.791291193662545 L 1034.3861719536235,5.944277135431676 L 1023.5391578953927,33.61602170735901 L 1050.7760333256654,45.51290274523 L 1023.5391578953927,57.40978378310099 L 1034.3861719536235,85.08152835502833 L 1006.7144273816963,74.23451429679746 L 994.8175463438253,101.47138972707018 L 982.9206653059542,74.23451429679746 L 955.2489207340269,85.08152835502833 L 966.0959347922578,57.40978378310101 L 938.859059361985,45.51290274523001 L 966.0959347922578,33.616021707358996 L 955.2489207340269,5.944277135431676 L 982.9206653059542,16.791291193662552 Z" fill="none" stroke="#FFD700" stroke-width="1.4503862266197736" /><path d="M 1119.1697396368033,-10.445584236610173 L 1131.0666206746744,16.791291193662545 L 1158.7383652466017,5.944277135431676 L 1147.891351188371,33.61602170735901 L 1175.1282266186436,45.51290274523 L 1147.891351188371,57.40978378310099 L 1158.7383652466017,85.08152835502833 L 1131.0666206746744,74.23451429679746 L 1119.1697396368033,101.47138972707018 L 1107.2728585989323,74.23451429679746 L 1079.601114027005,85.08152835502833 L 1090.4481280852358,57.40978378310101 L 1063.2112526549631,45.51290274523001 L 1090.4481280852358,33.616021707358996 L 1079.601114027005,5.944277135431676 L 1107.2728585989323,16.791291193662552 Z" fill="none" stroke="#FFD700" stroke-width="1.4503862266197736" /><path d="M 1243.5219329297815,-10.445584236610173 L 1255.4188139676526,16.791291193662545 L 1283.09055853958,5.944277135431676 L 1272.243544481349,33.61602170735901 L 1299.4804199116218,45.51290274523 L 1272.243544481349,57.40978378310099 L 1283.09055853958,85.08152835502833 L 1255.4188139676526,74.23451429679746 L 1243.5219329297815,101.47138972707018 L 1231.6250518919105,74.23451429679746 L 1203.9533073199832,85.08152835502833 L 1214.800321378214,57.40978378310101 L 1187.5634459479413,45.51290274523001 L 1214.800321378214,33.616021707358996 L 1203.9533073199832,5.944277135431676 L 1231.6250518919105,16.791291193662552 Z" fill="none" stroke="#FFD700" stroke-width="1.4503862266197736" /><path d="M -62.17609664648908,97.24341515510892 L -50.27921560861808,124.48029058538162 L -22.607471036690747,113.63327652715077 L -33.45448509492162,141.3050210990781 L -6.217609664648904,153.2019021369491 L -33.45448509492162,165.09878317482008 L -22.607471036690747,192.7705277467474 L -50.27921560861808,181.92351368851655 L -62.17609664648908,209.16038911878925 L -74.07297768436007,181.92351368851655 L -101.7447222562874,192.7705277467474 L -90.89770819805653,165.09878317482008 L -118.13458362832925,153.2019021369491 L -90.89770819805653,141.3050210990781 L -101.74472225628742,113.63327652715077 L -74.0729776843601,124.48029058538164 Z" fill="none" stroke="#FFD700" stroke-width="1.4503862266197736" /><path d="M 62.17609664648908,97.24341515510892 L 74.07297768436007,124.48029058538162 L 101.74472225628742,113.63327652715077 L 90.89770819805653,141.3050210990781 L 118.13458362832925,153.2019021369491 L 90.89770819805653,165.09878317482008 L 101.74472225628742,192.7705277467474 L 74.07297768436007,181.92351368851655 L 62.17609664648908,209.16038911878925 L 50.27921560861809,181.92351368851655 L 22.607471036690754,192.7705277467474 L 33.45448509492163,165.09878317482008 L 6.217609664648904,153.2019021369491 L 33.45448509492162,141.3050210990781 L 22.60747103669074,113.63327652715077 L 50.27921560861807,124.48029058538164 Z" fill="none" stroke="#FFD700" stroke-width="1.4503862266197736" /><path d="M 186.52828993946724,97.24341515510892 L 198.42517097733824,124.48029058538162 L 226.0969155492656,113.63327652715077 L 215.2499014910347,141.3050210990781 L 242.4867769213074,153.2019021369491 L 215.2499014910347,165.09878317482008 L 226.0969155492656,192.7705277467474 L 198.42517097733824,181.92351368851655 L 186.52828993946724,209.16038911878925 L 174.63140890159625,181.92351368851655 L 146.95966432966893,192.7705277467474 L 157.8066783878998,165.09878317482008 L 130.56980295762708,153.2019021369491 L 157.80667838789978,141.3050210990781 L 146.9596643296689,113.63327652715077 L 174.63140890159622,124.48029058538164 Z" fill="none" stroke="#FFD700" stroke-width="1.4503862266197736" /><path d="M 310.8804832324454,97.24341515510892 L 322.77736427031635,124.48029058538162 L 350.44910884224373,113.63327652715077 L 339.6020947840128,141.3050210990781 L 366.83897021428555,153.2019021369491 L 339.6020947840128,165.09878317482008 L 350.44910884224373,192.7705277467474 L 322.77736427031635,181.92351368851655 L 310.8804832324454,209.16038911878925 L 298.9836021945744,181.92351368851655 L 271.31185762264704,192.7705277467474 L 282.15887168087795,165.09878317482008 L 254.92199625060522,153.2019021369491 L 282.15887168087795,141.3050210990781 L 271.31185762264704,113.63327652715077 L 298.98360219457436,124.48029058538164 Z" fill="none" stroke="#FFD700" stroke-width="1.4503862266197736" /><path d="M 435.2326765254235,97.24341515510892 L 447.1295575632945,124.48029058538162 L 474.8013021352219,113.63327652715077 L 463.95428807699096,141.3050210990781 L 491.1911635072637,153.2019021369491 L 463.95428807699096,165.09878317482008 L 474.8013021352219,192.7705277467474 L 447.1295575632945,181.92351368851655 L 435.2326765254235,209.16038911878925 L 423.33579548755256,181.92351368851655 L 395.6640509156252,192.7705277467474 L 406.5110649738561,165.09878317482008 L 379.27418954358336,153.2019021369491 L 406.5110649738561,141.3050210990781 L 395.6640509156252,113.63327652715077 L 423.3357954875525,124.48029058538164 Z" fill="none" stroke="#FFD700" stroke-width="1.4503862266197736" /><path d="M 559.5848698184017,97.24341515510892 L 571.4817508562727,124.48029058538162 L 599.1534954282,113.63327652715077 L 588.3064813699691,141.3050210990781 L 615.5433568002419,153.2019021369491 L 588.3064813699691,165.09878317482008 L 599.1534954282,192.7705277467474 L 571.4817508562727,181.92351368851655 L 559.5848698184017,209.16038911878925 L 547.6879887805306,181.92351368851655 L 520.0162442086033,192.7705277467474 L 530.8632582668342,165.09878317482008 L 503.6263828365615,153.2019021369491 L 530.8632582668342,141.3050210990781 L 520.0162442086033,113.63327652715077 L 547.6879887805306,124.48029058538164 Z" fill="none" stroke="#FFD700" stroke-width="1.4503862266197736" /><path d="M 683.9370631113799,97.24341515510892 L 695.8339441492509,124.48029058538162 L 723.5056887211782,113.63327652715077 L 712.6586746629473,141.3050210990781 L 739.8955500932201,153.2019021369491 L 712.6586746629473,165.09878317482008 L 723.5056887211782,192.7705277467474 L 695.8339441492509,181.92351368851655 L 683.9370631113799,209.16038911878925 L 672.0401820735088,181.92351368851655 L 644.3684375015815,192.7705277467474 L 655.2154515598124,165.09878317482008 L 627.9785761295396,153.2019021369491 L 655.2154515598124,141.3050210990781 L 644.3684375015815,113.63327652715077 L 672.0401820735088,124.48029058538164 Z" fill="none" stroke="#FFD700" stroke-width="1.4503862266197736" /><path d="M 808.289256404358,97.24341515510892 L 820.186137442229,124.48029058538162 L 847.8578820141563,113.63327652715077 L 837.0108679559254,141.3050210990781 L 864.2477433861982,153.2019021369491 L 837.0108679559254,165.09878317482008 L 847.8578820141563,192.7705277467474 L 820.186137442229,181.92351368851655 L 808.289256404358,209.16038911878925 L 796.3923753664869,181.92351368851655 L 768.7206307945596,192.7705277467474 L 779.5676448527905,165.09878317482008 L 752.3307694225177,153.2019021369491 L 779.5676448527905,141.3050210990781 L 768.7206307945596,113.63327652715077 L 796.3923753664869,124.48029058538164 Z" fill="none" stroke="#FFD700" stroke-width="1.4503862266197736" /><path d="M 932.6414496973362,97.24341515510892 L 944.5383307352072,124.48029058538162 L 972.2100753071345,113.63327652715077 L 961.3630612489036,141.3050210990781 L 988.5999366791764,153.2019021369491 L 961.3630612489036,165.09878317482008 L 972.2100753071345,192.7705277467474 L 944.5383307352072,181.92351368851655 L 932.6414496973362,209.16038911878925 L 920.7445686594651,181.92351368851655 L 893.0728240875378,192.7705277467474 L 903.9198381457687,165.09878317482008 L 876.6829627154959,153.2019021369491 L 903.9198381457687,141.3050210990781 L 893.0728240875378,113.63327652715077 L 920.7445686594651,124.48029058538164 Z" fill="none" stroke="#FFD700" stroke-width="1.4503862266197736" /><path d="M 1056.9936429903144,97.24341515510892 L 1068.8905240281854,124.48029058538162 L 1096.5622686001127,113.63327652715077 L 1085.715254541882,141.3050210990781 L 1112.9521299721546,153.2019021369491 L 1085.715254541882,165.09878317482008 L 1096.5622686001127,192.7705277467474 L 1068.8905240281854,181.92351368851655 L 1056.9936429903144,209.16038911878925 L 1045.0967619524433,181.92351368851655 L 1017.425017380516,192.7705277467474 L 1028.2720314387468,165.09878317482008 L 1001.0351560084741,153.2019021369491 L 1028.2720314387468,141.3050210990781 L 1017.425017380516,113.63327652715077 L 1045.0967619524433,124.48029058538164 Z" fill="none" stroke="#FFD700" stroke-width="1.4503862266197736" /><path d="M 1181.3458362832926,97.24341515510892 L 1193.2427173211636,124.48029058538162 L 1220.914461893091,113.63327652715077 L 1210.06744783486,141.3050210990781 L 1237.3043232651328,153.2019021369491 L 1210.06744783486,165.09878317482008 L 1220.914461893091,192.7705277467474 L 1193.2427173211636,181.92351368851655 L 1181.3458362832926,209.16038911878925 L 1169.4489552454215,181.92351368851655 L 1141.7772106734942,192.7705277467474 L 1152.624224731725,165.09878317482008 L 1125.3873493014523,153.2019021369491 L 1152.624224731725,141.3050210990781 L 1141.7772106734942,113.63327652715077 L 1169.4489552454215,124.48029058538164 Z" fill="none" stroke="#FFD700" stroke-width="1.4503862266197736" /><path d="M 1305.6980295762708,97.24341515510892 L 1317.5949106141418,124.48029058538162 L 1345.266655186069,113.63327652715077 L 1334.4196411278383,141.3050210990781 L 1361.656516558111,153.2019021369491 L 1334.4196411278383,165.09878317482008 L 1345.266655186069,192.7705277467474 L 1317.5949106141418,181.92351368851655 L 1305.6980295762708,209.16038911878925 L 1293.8011485383997,181.92351368851655 L 1266.1294039664724,192.7705277467474 L 1276.9764180247032,165.09878317482008 L 1249.7395425944305,153.2019021369491 L 1276.9764180247032,141.3050210990781 L 1266.1294039664724,113.63327652715077 L 1293.8011485383997,124.48029058538164 Z" fill="none" stroke="#FFD700" stroke-width="1.4503862266197736" /><path d="M 3.42646909837197e-15,204.932414546828 L 11.896881037870996,232.1692899771007 L 39.56862560979833,221.32227591886985 L 28.721611551567456,248.99402049079717 L 55.958486981840174,260.89090152866817 L 28.721611551567456,272.78778256653914 L 39.56862560979833,300.4595271384665 L 11.896881037870996,289.6125130802356 L 3.42646909837197e-15,316.84938851050833 L -11.896881037870992,289.6125130802356 L -39.568625609798325,300.4595271384665 L -28.72161155156745,272.7877825665392 L -55.958486981840174,260.89090152866817 L -28.721611551567452,248.99402049079717 L -39.56862560979834,221.32227591886985 L -11.896881037871012,232.16928997710073 Z" fill="none" stroke="#FFD700" stroke-width="1.4503862266197736" /><path d="M 124.35219329297816,204.932414546828 L 136.24907433084914,232.1692899771007 L 163.9208189027765,221.32227591886985 L 153.0738048445456,248.99402049079717 L 180.31068027481834,260.89090152866817 L 153.0738048445456,272.78778256653914 L 163.9208189027765,300.4595271384665 L 136.24907433084914,289.6125130802356 L 124.35219329297816,316.84938851050833 L 112.45531225510716,289.6125130802356 L 84.78356768317983,300.4595271384665 L 95.63058174141071,272.7877825665392 L 68.39370631113798,260.89090152866817 L 95.63058174141071,248.99402049079717 L 84.78356768317983,221.32227591886985 L 112.45531225510715,232.16928997710073 Z" fill="none" stroke="#FFD700" stroke-width="1.4503862266197736" /><path d="M 248.7043865859563,204.932414546828 L 260.6012676238273,232.1692899771007 L 288.27301219575463,221.32227591886985 L 277.4259981375238,248.99402049079717 L 304.6628735677965,260.89090152866817 L 277.4259981375238,272.78778256653914 L 288.27301219575463,300.4595271384665 L 260.6012676238273,289.6125130802356 L 248.7043865859563,316.84938851050833 L 236.80750554808532,289.6125130802356 L 209.135760976158,300.4595271384665 L 219.98277503438885,272.7877825665392 L 192.74589960411615,260.89090152866817 L 219.98277503438885,248.99402049079717 L 209.13576097615797,221.32227591886985 L 236.80750554808532,232.16928997710073 Z" fill="none" stroke="#FFD700" stroke-width="1.4503862266197736" /><path d="M 373.0565798789345,204.932414546828 L 384.95346091680545,232.1692899771007 L 412.62520548873283,221.32227591886985 L 401.7781914305019,248.99402049079717 L 429.01506686077465,260.89090152866817 L 401.7781914305019,272.78778256653914 L 412.62520548873283,300.4595271384665 L 384.95346091680545,289.6125130802356 L 373.0565798789345,316.84938851050833 L 361.1596988410635,289.6125130802356 L 333.48795426913614,300.4595271384665 L 344.33496832736705,272.7877825665392 L 317.0980928970943,260.89090152866817 L 344.33496832736705,248.99402049079717 L 333.48795426913614,221.32227591886985 L 361.15969884106346,232.16928997710073 Z" fill="none" stroke="#FFD700" stroke-width="1.4503862266197736" /><path d="M 497.4087731719126,204.932414546828 L 509.3056542097836,232.1692899771007 L 536.9773987817109,221.32227591886985 L 526.1303847234801,248.99402049079717 L 553.3672601537528,260.89090152866817 L 526.1303847234801,272.78778256653914 L 536.9773987817109,300.4595271384665 L 509.3056542097836,289.6125130802356 L 497.4087731719126,316.84938851050833 L 485.51189213404166,289.6125130802356 L 457.8401475621143,300.4595271384665 L 468.6871616203452,272.7877825665392 L 441.45028619007246,260.89090152866817 L 468.6871616203452,248.99402049079717 L 457.8401475621143,221.32227591886985 L 485.5118921340416,232.16928997710073 Z" fill="none" stroke="#FFD700" stroke-width="1.4503862266197736" /><path d="M 621.7609664648908,204.932414546828 L 633.6578475027618,232.1692899771007 L 661.3295920746891,221.32227591886985 L 650.4825780164582,248.99402049079717 L 677.719453446731,260.89090152866817 L 650.4825780164582,272.78778256653914 L 661.3295920746891,300.4595271384665 L 633.6578475027618,289.6125130802356 L 621.7609664648908,316.84938851050833 L 609.8640854270197,289.6125130802356 L 582.1923408550924,300.4595271384665 L 593.0393549133233,272.7877825665392 L 565.8024794830505,260.89090152866817 L 593.0393549133233,248.99402049079717 L 582.1923408550924,221.32227591886985 L 609.8640854270197,232.16928997710073 Z" fill="none" stroke="#FFD700" stroke-width="1.4503862266197736" /><path d="M 746.113159757869,204.932414546828 L 758.01004079574,232.1692899771007 L 785.6817853676673,221.32227591886985 L 774.8347713094364,248.99402049079717 L 802.0716467397092,260.89090152866817 L 774.8347713094364,272.78778256653914 L 785.6817853676673,300.4595271384665 L 758.01004079574,289.6125130802356 L 746.113159757869,316.84938851050833 L 734.216278719998,289.6125130802356 L 706.5445341480706,300.4595271384665 L 717.3915482063015,272.7877825665392 L 690.1546727760287,260.89090152866817 L 717.3915482063015,248.99402049079717 L 706.5445341480706,221.32227591886985 L 734.216278719998,232.16928997710073 Z" fill="none" stroke="#FFD700" stroke-width="1.4503862266197736" /><path d="M 870.465353050847,204.932414546828 L 882.3622340887181,232.1692899771007 L 910.0339786606454,221.32227591886985 L 899.1869646024145,248.99402049079717 L 926.4238400326873,260.89090152866817 L 899.1869646024145,272.78778256653914 L 910.0339786606454,300.4595271384665 L 882.3622340887181,289.6125130802356 L 870.465353050847,316.84938851050833 L 858.568472012976,289.6125130802356 L 830.8967274410487,300.4595271384665 L 841.7437414992796,272.7877825665392 L 814.5068660690068,260.89090152866817 L 841.7437414992796,248.99402049079717 L 830.8967274410487,221.32227591886985 L 858.568472012976,232.16928997710073 Z" fill="none" stroke="#FFD700" stroke-width="1.4503862266197736" /><path d="M 994.8175463438253,204.932414546828 L 1006.7144273816963,232.1692899771007 L 1034.3861719536235,221.32227591886985 L 1023.5391578953927,248.99402049079717 L 1050.7760333256654,260.89090152866817 L 1023.5391578953927,272.78778256653914 L 1034.3861719536235,300.4595271384665 L 1006.7144273816963,289.6125130802356 L 994.8175463438253,316.84938851050833 L 982.9206653059542,289.6125130802356 L 955.2489207340269,300.4595271384665 L 966.0959347922578,272.7877825665392 L 938.859059361985,260.89090152866817 L 966.0959347922578,248.99402049079717 L 955.2489207340269,221.32227591886985 L 982.9206653059542,232.16928997710073 Z" fill="none" stroke="#FFD700" stroke-width="1.4503862266197736" /><path d="M 1119.1697396368033,204.932414546828 L 1131.0666206746744,232.1692899771007 L 1158.7383652466017,221.32227591886985 L 1147.891351188371,248.99402049079717 L 1175.1282266186436,260.89090152866817 L 1147.891351188371,272.78778256653914 L 1158.7383652466017,300.4595271384665 L 1131.0666206746744,289.6125130802356 L 1119.1697396368033,316.84938851050833 L 1107.2728585989323,289.6125130802356 L 1079.601114027005,300.4595271384665 L 1090.4481280852358,272.7877825665392 L 1063.2112526549631,260.89090152866817 L 1090.4481280852358,248.99402049079717 L 1079.601114027005,221.32227591886985 L 1107.2728585989323,232.16928997710073 Z" fill="none" stroke="#FFD700" stroke-width="1.4503862266197736" /><path d="M 1243.5219329297815,204.932414546828 L 1255.4188139676526,232.1692899771007 L 1283.09055853958,221.32227591886985 L 1272.243544481349,248.99402049079717 L 1299.4804199116218,260.89090152866817 L 1272.243544481349,272.78778256653914 L 1283.09055853958,300.4595271384665 L 1255.4188139676526,289.6125130802356 L 1243.5219329297815,316.84938851050833 L 1231.6250518919105,289.6125130802356 L 1203.9533073199832,300.4595271384665 L 1214.800321378214,272.7877825665392 L 1187.5634459479413,260.89090152866817 L 1214.800321378214,248.99402049079717 L 1203.9533073199832,221.32227591886985 L 1231.6250518919105,232.16928997710073 Z" fill="none" stroke="#FFD700" stroke-width="1.4503862266197736" /><path d="M -62.17609664648908,312.62141393854705 L -50.27921560861808,339.8582893688198 L -22.607471036690747,329.01127531058887 L -33.45448509492162,356.68301988251625 L -6.217609664648904,368.5799009203872 L -33.45448509492162,380.4767819582582 L -22.607471036690747,408.14852653018556 L -50.27921560861808,397.30151247195465 L -62.17609664648908,424.5383879022274 L -74.07297768436007,397.30151247195465 L -101.7447222562874,408.14852653018556 L -90.89770819805653,380.47678195825824 L -118.13458362832925,368.5799009203872 L -90.89770819805653,356.6830198825162 L -101.74472225628742,329.01127531058887 L -74.0729776843601,339.8582893688198 Z" fill="none" stroke="#FFD700" stroke-width="1.4503862266197736" /><path d="M 62.17609664648908,312.62141393854705 L 74.07297768436007,339.8582893688198 L 101.74472225628742,329.01127531058887 L 90.89770819805653,356.68301988251625 L 118.13458362832925,368.5799009203872 L 90.89770819805653,380.4767819582582 L 101.74472225628742,408.14852653018556 L 74.07297768436007,397.30151247195465 L 62.17609664648908,424.5383879022274 L 50.27921560861809,397.30151247195465 L 22.607471036690754,408.14852653018556 L 33.45448509492163,380.47678195825824 L 6.217609664648904,368.5799009203872 L 33.45448509492162,356.6830198825162 L 22.60747103669074,329.01127531058887 L 50.27921560861807,339.8582893688198 Z" fill="none" stroke="#FFD700" stroke-width="1.4503862266197736" /><path d="M 186.52828993946724,312.62141393854705 L 198.42517097733824,339.8582893688198 L 226.0969155492656,329.01127531058887 L 215.2499014910347,356.68301988251625 L 242.4867769213074,368.5799009203872 L 215.2499014910347,380.4767819582582 L 226.0969155492656,408.14852653018556 L 198.42517097733824,397.30151247195465 L 186.52828993946724,424.5383879022274 L 174.63140890159625,397.30151247195465 L 146.95966432966893,408.14852653018556 L 157.8066783878998,380.47678195825824 L 130.56980295762708,368.5799009203872 L 157.80667838789978,356.6830198825162 L 146.9596643296689,329.01127531058887 L 174.63140890159622,339.8582893688198 Z" fill="none" stroke="#FFD700" stroke-width="1.4503862266197736" /><path d="M 310.8804832324454,312.62141393854705 L 322.77736427031635,339.8582893688198 L 350.44910884224373,329.01127531058887 L 339.6020947840128,356.68301988251625 L 366.83897021428555,368.5799009203872 L 339.6020947840128,380.4767819582582 L 350.44910884224373,408.14852653018556 L 322.77736427031635,397.30151247195465 L 310.8804832324454,424.5383879022274 L 298.9836021945744,397.30151247195465 L 271.31185762264704,408.14852653018556 L 282.15887168087795,380.47678195825824 L 254.92199625060522,368.5799009203872 L 282.15887168087795,356.6830198825162 L 271.31185762264704,329.01127531058887 L 298.98360219457436,339.8582893688198 Z" fill="none" stroke="#FFD700" stroke-width="1.4503862266197736" /><path d="M 435.2326765254235,312.62141393854705 L 447.1295575632945,339.8582893688198 L 474.8013021352219,329.01127531058887 L 463.95428807699096,356.68301988251625 L 491.1911635072637,368.5799009203872 L 463.95428807699096,380.4767819582582 L 474.8013021352219,408.14852653018556 L 447.1295575632945,397.30151247195465 L 435.2326765254235,424.5383879022274 L 423.33579548755256,397.30151247195465 L 395.6640509156252,408.14852653018556 L 406.5110649738561,380.47678195825824 L 379.27418954358336,368.5799009203872 L 406.5110649738561,356.6830198825162 L 395.6640509156252,329.01127531058887 L 423.3357954875525,339.8582893688198 Z" fill="none" stroke="#FFD700" stroke-width="1.4503862266197736" /><path d="M 559.5848698184017,312.62141393854705 L 571.4817508562727,339.8582893688198 L 599.1534954282,329.01127531058887 L 588.3064813699691,356.68301988251625 L 615.5433568002419,368.5799009203872 L 588.3064813699691,380.4767819582582 L 599.1534954282,408.14852653018556 L 571.4817508562727,397.30151247195465 L 559.5848698184017,424.5383879022274 L 547.6879887805306,397.30151247195465 L 520.0162442086033,408.14852653018556 L 530.8632582668342,380.47678195825824 L 503.6263828365615,368.5799009203872 L 530.8632582668342,356.6830198825162 L 520.0162442086033,329.01127531058887 L 547.6879887805306,339.8582893688198 Z" fill="none" stroke="#FFD700" stroke-width="1.4503862266197736" /><path d="M 683.9370631113799,312.62141393854705 L 695.8339441492509,339.8582893688198 L 723.5056887211782,329.01127531058887 L 712.6586746629473,356.68301988251625 L 739.8955500932201,368.5799009203872 L 712.6586746629473,380.4767819582582 L 723.5056887211782,408.14852653018556 L 695.8339441492509,397.30151247195465 L 683.9370631113799,424.5383879022274 L 672.0401820735088,397.30151247195465 L 644.3684375015815,408.14852653018556 L 655.2154515598124,380.47678195825824 L 627.9785761295396,368.5799009203872 L 655.2154515598124,356.6830198825162 L 644.3684375015815,329.01127531058887 L 672.0401820735088,339.8582893688198 Z" fill="none" stroke="#FFD700" stroke-width="1.4503862266197736" /><path d="M 808.289256404358,312.62141393854705 L 820.186137442229,339.8582893688198 L 847.8578820141563,329.01127531058887 L 837.0108679559254,356.68301988251625 L 864.2477433861982,368.5799009203872 L 837.0108679559254,380.4767819582582 L 847.8578820141563,408.14852653018556 L 820.186137442229,397.30151247195465 L 808.289256404358,424.5383879022274 L 796.3923753664869,397.30151247195465 L 768.7206307945596,408.14852653018556 L 779.5676448527905,380.47678195825824 L 752.3307694225177,368.5799009203872 L 779.5676448527905,356.6830198825162 L 768.7206307945596,329.01127531058887 L 796.3923753664869,339.8582893688198 Z" fill="none" stroke="#FFD700" stroke-width="1.4503862266197736" /><path d="M 932.6414496973362,312.62141393854705 L 944.5383307352072,339.8582893688198 L 972.2100753071345,329.01127531058887 L 961.3630612489036,356.68301988251625 L 988.5999366791764,368.5799009203872 L 961.3630612489036,380.4767819582582 L 972.2100753071345,408.14852653018556 L 944.5383307352072,397.30151247195465 L 932.6414496973362,424.5383879022274 L 920.7445686594651,397.30151247195465 L 893.0728240875378,408.14852653018556 L 903.9198381457687,380.47678195825824 L 876.6829627154959,368.5799009203872 L 903.9198381457687,356.6830198825162 L 893.0728240875378,329.01127531058887 L 920.7445686594651,339.8582893688198 Z" fill="none" stroke="#FFD700" stroke-width="1.4503862266197736" /><path d="M 1056.9936429903144,312.62141393854705 L 1068.8905240281854,339.8582893688198 L 1096.5622686001127,329.01127531058887 L 1085.715254541882,356.68301988251625 L 1112.9521299721546,368.5799009203872 L 1085.715254541882,380.4767819582582 L 1096.5622686001127,408.14852653018556 L 1068.8905240281854,397.30151247195465 L 1056.9936429903144,424.5383879022274 L 1045.0967619524433,397.30151247195465 L 1017.425017380516,408.14852653018556 L 1028.2720314387468,380.47678195825824 L 1001.0351560084741,368.5799009203872 L 1028.2720314387468,356.6830198825162 L 1017.425017380516,329.01127531058887 L 1045.0967619524433,339.8582893688198 Z" fill="none" stroke="#FFD700" stroke-width="1.4503862266197736" /><path d="M 1181.3458362832926,312.62141393854705 L 1193.2427173211636,339.8582893688198 L 1220.914461893091,329.01127531058887 L 1210.06744783486,356.68301988251625 L 1237.3043232651328,368.5799009203872 L 1210.06744783486,380.4767819582582 L 1220.914461893091,408.14852653018556 L 1193.2427173211636,397.30151247195465 L 1181.3458362832926,424.5383879022274 L 1169.4489552454215,397.30151247195465 L 1141.7772106734942,408.14852653018556 L 1152.624224731725,380.47678195825824 L 1125.3873493014523,368.5799009203872 L 1152.624224731725,356.6830198825162 L 1141.7772106734942,329.01127531058887 L 1169.4489552454215,339.8582893688198 Z" fill="none" stroke="#FFD700" stroke-width="1.4503862266197736" /><path d="M 1305.6980295762708,312.62141393854705 L 1317.5949106141418,339.8582893688198 L 1345.266655186069,329.01127531058887 L 1334.4196411278383,356.68301988251625 L 1361.656516558111,368.5799009203872 L 1334.4196411278383,380.4767819582582 L 1345.266655186069,408.14852653018556 L 1317.5949106141418,397.30151247195465 L 1305.6980295762708,424.5383879022274 L 1293.8011485383997,397.30151247195465 L 1266.1294039664724,408.14852653018556 L 1276.9764180247032,380.47678195825824 L 1249.7395425944305,368.5799009203872 L 1276.9764180247032,356.6830198825162 L 1266.1294039664724,329.01127531058887 L 1293.8011485383997,339.8582893688198 Z" fill="none" stroke="#FFD700" stroke-width="1.4503862266197736" /><path d="M 3.42646909837197e-15,420.31041333026616 L 11.896881037870996,447.5472887605389 L 39.56862560979833,436.700274702308 L 28.721611551567456,464.37201927423536 L 55.958486981840174,476.2689003121063 L 28.721611551567456,488.1657813499773 L 39.56862560979833,515.8375259219047 L 11.896881037870996,504.99051186367376 L 3.42646909837197e-15,532.2273872939465 L -11.896881037870992,504.99051186367376 L -39.568625609798325,515.8375259219047 L -28.72161155156745,488.16578134997735 L -55.958486981840174,476.2689003121063 L -28.721611551567452,464.3720192742353 L -39.56862560979834,436.700274702308 L -11.896881037871012,447.5472887605389 Z" fill="none" stroke="#FFD700" stroke-width="1.4503862266197736" /><path d="M 124.35219329297816,420.31041333026616 L 136.24907433084914,447.5472887605389 L 163.9208189027765,436.700274702308 L 153.0738048445456,464.37201927423536 L 180.31068027481834,476.2689003121063 L 153.0738048445456,488.1657813499773 L 163.9208189027765,515.8375259219047 L 136.24907433084914,504.99051186367376 L 124.35219329297816,532.2273872939465 L 112.45531225510716,504.99051186367376 L 84.78356768317983,515.8375259219047 L 95.63058174141071,488.16578134997735 L 68.39370631113798,476.2689003121063 L 95.63058174141071,464.3720192742353 L 84.78356768317983,436.700274702308 L 112.45531225510715,447.5472887605389 Z" fill="none" stroke="#FFD700" stroke-width="1.4503862266197736" /><path d="M 248.7043865859563,420.31041333026616 L 260.6012676238273,447.5472887605389 L 288.27301219575463,436.700274702308 L 277.4259981375238,464.37201927423536 L 304.6628735677965,476.2689003121063 L 277.4259981375238,488.1657813499773 L 288.27301219575463,515.8375259219047 L 260.6012676238273,504.99051186367376 L 248.7043865859563,532.2273872939465 L 236.80750554808532,504.99051186367376 L 209.135760976158,515.8375259219047 L 219.98277503438885,488.16578134997735 L 192.74589960411615,476.2689003121063 L 219.98277503438885,464.3720192742353 L 209.13576097615797,436.700274702308 L 236.80750554808532,447.5472887605389 Z" fill="none" stroke="#FFD700" stroke-width="1.4503862266197736" /><path d="M 373.0565798789345,420.31041333026616 L 384.95346091680545,447.5472887605389 L 412.62520548873283,436.700274702308 L 401.7781914305019,464.37201927423536 L 429.01506686077465,476.2689003121063 L 401.7781914305019,488.1657813499773 L 412.62520548873283,515.8375259219047 L 384.95346091680545,504.99051186367376 L 373.0565798789345,532.2273872939465 L 361.1596988410635,504.99051186367376 L 333.48795426913614,515.8375259219047 L 344.33496832736705,488.16578134997735 L 317.0980928970943,476.2689003121063 L 344.33496832736705,464.3720192742353 L 333.48795426913614,436.700274702308 L 361.15969884106346,447.5472887605389 Z" fill="none" stroke="#FFD700" stroke-width="1.4503862266197736" /><path d="M 497.4087731719126,420.31041333026616 L 509.3056542097836,447.5472887605389 L 536.9773987817109,436.700274702308 L 526.1303847234801,464.37201927423536 L 553.3672601537528,476.2689003121063 L 526.1303847234801,488.1657813499773 L 536.9773987817109,515.8375259219047 L 509.3056542097836,504.99051186367376 L 497.4087731719126,532.2273872939465 L 485.51189213404166,504.99051186367376 L 457.8401475621143,515.8375259219047 L 468.6871616203452,488.16578134997735 L 441.45028619007246,476.2689003121063 L 468.6871616203452,464.3720192742353 L 457.8401475621143,436.700274702308 L 485.5118921340416,447.5472887605389 Z" fill="none" stroke="#FFD700" stroke-width="1.4503862266197736" /><path d="M 621.7609664648908,420.31041333026616 L 633.6578475027618,447.5472887605389 L 661.3295920746891,436.700274702308 L 650.4825780164582,464.37201927423536 L 677.719453446731,476.2689003121063 L 650.4825780164582,488.1657813499773 L 661.3295920746891,515.8375259219047 L 633.6578475027618,504.99051186367376 L 621.7609664648908,532.2273872939465 L 609.8640854270197,504.99051186367376 L 582.1923408550924,515.8375259219047 L 593.0393549133233,488.16578134997735 L 565.8024794830505,476.2689003121063 L 593.0393549133233,464.3720192742353 L 582.1923408550924,436.700274702308 L 609.8640854270197,447.5472887605389 Z" fill="none" stroke="#FFD700" stroke-width="1.4503862266197736" /><path d="M 746.113159757869,420.31041333026616 L 758.01004079574,447.5472887605389 L 785.6817853676673,436.700274702308 L 774.8347713094364,464.37201927423536 L 802.0716467397092,476.2689003121063 L 774.8347713094364,488.1657813499773 L 785.6817853676673,515.8375259219047 L 758.01004079574,504.99051186367376 L 746.113159757869,532.2273872939465 L 734.216278719998,504.99051186367376 L 706.5445341480706,515.8375259219047 L 717.3915482063015,488.16578134997735 L 690.1546727760287,476.2689003121063 L 717.3915482063015,464.3720192742353 L 706.5445341480706,436.700274702308 L 734.216278719998,447.5472887605389 Z" fill="none" stroke="#FFD700" stroke-width="1.4503862266197736" /><path d="M 870.465353050847,420.31041333026616 L 882.3622340887181,447.5472887605389 L 910.0339786606454,436.700274702308 L 899.1869646024145,464.37201927423536 L 926.4238400326873,476.2689003121063 L 899.1869646024145,488.1657813499773 L 910.0339786606454,515.8375259219047 L 882.3622340887181,504.99051186367376 L 870.465353050847,532.2273872939465 L 858.568472012976,504.99051186367376 L 830.8967274410487,515.8375259219047 L 841.7437414992796,488.16578134997735 L 814.5068660690068,476.2689003121063 L 841.7437414992796,464.3720192742353 L 830.8967274410487,436.700274702308 L 858.568472012976,447.5472887605389 Z" fill="none" stroke="#FFD700" stroke-width="1.4503862266197736" /><path d="M 994.8175463438253,420.31041333026616 L 1006.7144273816963,447.5472887605389 L 1034.3861719536235,436.700274702308 L 1023.5391578953927,464.37201927423536 L 1050.7760333256654,476.2689003121063 L 1023.5391578953927,488.1657813499773 L 1034.3861719536235,515.8375259219047 L 1006.7144273816963,504.99051186367376 L 994.8175463438253,532.2273872939465 L 982.9206653059542,504.99051186367376 L 955.2489207340269,515.8375259219047 L 966.0959347922578,488.16578134997735 L 938.859059361985,476.2689003121063 L 966.0959347922578,464.3720192742353 L 955.2489207340269,436.700274702308 L 982.9206653059542,447.5472887605389 Z" fill="none" stroke="#FFD700" stroke-width="1.4503862266197736" /><path d="M 1119.1697396368033,420.31041333026616 L 1131.0666206746744,447.5472887605389 L 1158.7383652466017,436.700274702308 L 1147.891351188371,464.37201927423536 L 1175.1282266186436,476.2689003121063 L 1147.891351188371,488.1657813499773 L 1158.7383652466017,515.8375259219047 L 1131.0666206746744,504.99051186367376 L 1119.1697396368033,532.2273872939465 L 1107.2728585989323,504.99051186367376 L 1079.601114027005,515.8375259219047 L 1090.4481280852358,488.16578134997735 L 1063.2112526549631,476.2689003121063 L 1090.4481280852358,464.3720192742353 L 1079.601114027005,436.700274702308 L 1107.2728585989323,447.5472887605389 Z" fill="none" stroke="#FFD700" stroke-width="1.4503862266197736" /><path d="M 1243.5219329297815,420.31041333026616 L 1255.4188139676526,447.5472887605389 L 1283.09055853958,436.700274702308 L 1272.243544481349,464.37201927423536 L 1299.4804199116218,476.2689003121063 L 1272.243544481349,488.1657813499773 L 1283.09055853958,515.8375259219047 L 1255.4188139676526,504.99051186367376 L 1243.5219329297815,532.2273872939465 L 1231.6250518919105,504.99051186367376 L 1203.9533073199832,515.8375259219047 L 1214.800321378214,488.16578134997735 L 1187.5634459479413,476.2689003121063 L 1214.800321378214,464.3720192742353 L 1203.9533073199832,436.700274702308 L 1231.6250518919105,447.5472887605389 Z" fill="none" stroke="#FFD700" stroke-width="1.4503862266197736" /><path d="M -62.17609664648908,527.9994127219852 L -50.27921560861808,555.236288152258 L -22.607471036690747,544.3892740940271 L -33.45448509492162,572.0610186659544 L -6.217609664648904,583.9578997038254 L -33.45448509492162,595.8547807416965 L -22.607471036690747,623.5265253136238 L -50.27921560861808,612.6795112553929 L -62.17609664648908,639.9163866856657 L -74.07297768436007,612.6795112553929 L -101.7447222562874,623.5265253136238 L -90.89770819805653,595.8547807416965 L -118.13458362832925,583.9578997038254 L -90.89770819805653,572.0610186659544 L -101.74472225628742,544.3892740940271 L -74.0729776843601,555.236288152258 Z" fill="none" stroke="#FFD700" stroke-width="1.4503862266197736" /><path d="M 62.17609664648908,527.9994127219852 L 74.07297768436007,555.236288152258 L 101.74472225628742,544.3892740940271 L 90.89770819805653,572.0610186659544 L 118.13458362832925,583.9578997038254 L 90.89770819805653,595.8547807416965 L 101.74472225628742,623.5265253136238 L 74.07297768436007,612.6795112553929 L 62.17609664648908,639.9163866856657 L 50.27921560861809,612.6795112553929 L 22.607471036690754,623.5265253136238 L 33.45448509492163,595.8547807416965 L 6.217609664648904,583.9578997038254 L 33.45448509492162,572.0610186659544 L 22.60747103669074,544.3892740940271 L 50.27921560861807,555.236288152258 Z" fill="none" stroke="#FFD700" stroke-width="1.4503862266197736" /><path d="M 186.52828993946724,527.9994127219852 L 198.42517097733824,555.236288152258 L 226.0969155492656,544.3892740940271 L 215.2499014910347,572.0610186659544 L 242.4867769213074,583.9578997038254 L 215.2499014910347,595.8547807416965 L 226.0969155492656,623.5265253136238 L 198.42517097733824,612.6795112553929 L 186.52828993946724,639.9163866856657 L 174.63140890159625,612.6795112553929 L 146.95966432966893,623.5265253136238 L 157.8066783878998,595.8547807416965 L 130.56980295762708,583.9578997038254 L 157.80667838789978,572.0610186659544 L 146.9596643296689,544.3892740940271 L 174.63140890159622,555.236288152258 Z" fill="none" stroke="#FFD700" stroke-width="1.4503862266197736" /><path d="M 310.8804832324454,527.9994127219852 L 322.77736427031635,555.236288152258 L 350.44910884224373,544.3892740940271 L 339.6020947840128,572.0610186659544 L 366.83897021428555,583.9578997038254 L 339.6020947840128,595.8547807416965 L 350.44910884224373,623.5265253136238 L 322.77736427031635,612.6795112553929 L 310.8804832324454,639.9163866856657 L 298.9836021945744,612.6795112553929 L 271.31185762264704,623.5265253136238 L 282.15887168087795,595.8547807416965 L 254.92199625060522,583.9578997038254 L 282.15887168087795,572.0610186659544 L 271.31185762264704,544.3892740940271 L 298.98360219457436,555.236288152258 Z" fill="none" stroke="#FFD700" stroke-width="1.4503862266197736" /><path d="M 435.2326765254235,527.9994127219852 L 447.1295575632945,555.236288152258 L 474.8013021352219,544.3892740940271 L 463.95428807699096,572.0610186659544 L 491.1911635072637,583.9578997038254 L 463.95428807699096,595.8547807416965 L 474.8013021352219,623.5265253136238 L 447.1295575632945,612.6795112553929 L 435.2326765254235,639.9163866856657 L 423.33579548755256,612.6795112553929 L 395.6640509156252,623.5265253136238 L 406.5110649738561,595.8547807416965 L 379.27418954358336,583.9578997038254 L 406.5110649738561,572.0610186659544 L 395.6640509156252,544.3892740940271 L 423.3357954875525,555.236288152258 Z" fill="none" stroke="#FFD700" stroke-width="1.4503862266197736" /><path d="M 559.5848698184017,527.9994127219852 L 571.4817508562727,555.236288152258 L 599.1534954282,544.3892740940271 L 588.3064813699691,572.0610186659544 L 615.5433568002419,583.9578997038254 L 588.3064813699691,595.8547807416965 L 599.1534954282,623.5265253136238 L 571.4817508562727,612.6795112553929 L 559.5848698184017,639.9163866856657 L 547.6879887805306,612.6795112553929 L 520.0162442086033,623.5265253136238 L 530.8632582668342,595.8547807416965 L 503.6263828365615,583.9578997038254 L 530.8632582668342,572.0610186659544 L 520.0162442086033,544.3892740940271 L 547.6879887805306,555.236288152258 Z" fill="none" stroke="#FFD700" stroke-width="1.4503862266197736" /><path d="M 683.9370631113799,527.9994127219852 L 695.8339441492509,555.236288152258 L 723.5056887211782,544.3892740940271 L 712.6586746629473,572.0610186659544 L 739.8955500932201,583.9578997038254 L 712.6586746629473,595.8547807416965 L 723.5056887211782,623.5265253136238 L 695.8339441492509,612.6795112553929 L 683.9370631113799,639.9163866856657 L 672.0401820735088,612.6795112553929 L 644.3684375015815,623.5265253136238 L 655.2154515598124,595.8547807416965 L 627.9785761295396,583.9578997038254 L 655.2154515598124,572.0610186659544 L 644.3684375015815,544.3892740940271 L 672.0401820735088,555.236288152258 Z" fill="none" stroke="#FFD700" stroke-width="1.4503862266197736" /><path d="M 808.289256404358,527.9994127219852 L 820.186137442229,555.236288152258 L 847.8578820141563,544.3892740940271 L 837.0108679559254,572.0610186659544 L 864.2477433861982,583.9578997038254 L 837.0108679559254,595.8547807416965 L 847.8578820141563,623.5265253136238 L 820.186137442229,612.6795112553929 L 808.289256404358,639.9163866856657 L 796.3923753664869,612.6795112553929 L 768.7206307945596,623.5265253136238 L 779.5676448527905,595.8547807416965 L 752.3307694225177,583.9578997038254 L 779.5676448527905,572.0610186659544 L 768.7206307945596,544.3892740940271 L 796.3923753664869,555.236288152258 Z" fill="none" stroke="#FFD700" stroke-width="1.4503862266197736" /><path d="M 932.6414496973362,527.9994127219852 L 944.5383307352072,555.236288152258 L 972.2100753071345,544.3892740940271 L 961.3630612489036,572.0610186659544 L 988.5999366791764,583.9578997038254 L 961.3630612489036,595.8547807416965 L 972.2100753071345,623.5265253136238 L 944.5383307352072,612.6795112553929 L 932.6414496973362,639.9163866856657 L 920.7445686594651,612.6795112553929 L 893.0728240875378,623.5265253136238 L 903.9198381457687,595.8547807416965 L 876.6829627154959,583.9578997038254 L 903.9198381457687,572.0610186659544 L 893.0728240875378,544.3892740940271 L 920.7445686594651,555.236288152258 Z" fill="none" stroke="#FFD700" stroke-width="1.4503862266197736" /><path d="M 1056.9936429903144,527.9994127219852 L 1068.8905240281854,555.236288152258 L 1096.5622686001127,544.3892740940271 L 1085.715254541882,572.0610186659544 L 1112.9521299721546,583.9578997038254 L 1085.715254541882,595.8547807416965 L 1096.5622686001127,623.5265253136238 L 1068.8905240281854,612.6795112553929 L 1056.9936429903144,639.9163866856657 L 1045.0967619524433,612.6795112553929 L 1017.425017380516,623.5265253136238 L 1028.2720314387468,595.8547807416965 L 1001.0351560084741,583.9578997038254 L 1028.2720314387468,572.0610186659544 L 1017.425017380516,544.3892740940271 L 1045.0967619524433,555.236288152258 Z" fill="none" stroke="#FFD700" stroke-width="1.4503862266197736" /><path d="M 1181.3458362832926,527.9994127219852 L 1193.2427173211636,555.236288152258 L 1220.914461893091,544.3892740940271 L 1210.06744783486,572.0610186659544 L 1237.3043232651328,583.9578997038254 L 1210.06744783486,595.8547807416965 L 1220.914461893091,623.5265253136238 L 1193.2427173211636,612.6795112553929 L 1181.3458362832926,639.9163866856657 L 1169.4489552454215,612.6795112553929 L 1141.7772106734942,623.5265253136238 L 1152.624224731725,595.8547807416965 L 1125.3873493014523,583.9578997038254 L 1152.624224731725,572.0610186659544 L 1141.7772106734942,544.3892740940271 L 1169.4489552454215,555.236288152258 Z" fill="none" stroke="#FFD700" stroke-width="1.4503862266197736" /><path d="M 1305.6980295762708,527.9994127219852 L 1317.5949106141418,555.236288152258 L 1345.266655186069,544.3892740940271 L 1334.4196411278383,572.0610186659544 L 1361.656516558111,583.9578997038254 L 1334.4196411278383,595.8547807416965 L 1345.266655186069,623.5265253136238 L 1317.5949106141418,612.6795112553929 L 1305.6980295762708,639.9163866856657 L 1293.8011485383997,612.6795112553929 L 1266.1294039664724,623.5265253136238 L 1276.9764180247032,595.8547807416965 L 1249.7395425944305,583.9578997038254 L 1276.9764180247032,572.0610186659544 L 1266.1294039664724,544.3892740940271 L 1293.8011485383997,555.236288152258 Z" fill="none" stroke="#FFD700" stroke-width="1.4503862266197736" /><path d="M 3.42646909837197e-15,635.6884121137042 L 11.896881037870996,662.925287543977 L 39.56862560979833,652.0782734857461 L 28.721611551567456,679.7500180576734 L 55.958486981840174,691.6468990955444 L 28.721611551567456,703.5437801334155 L 39.56862560979833,731.2155247053428 L 11.896881037870996,720.3685106471119 L 3.42646909837197e-15,747.6053860773847 L -11.896881037870992,720.3685106471119 L -39.568625609798325,731.2155247053428 L -28.72161155156745,703.5437801334155 L -55.958486981840174,691.6468990955444 L -28.721611551567452,679.7500180576734 L -39.56862560979834,652.0782734857461 L -11.896881037871012,662.925287543977 Z" fill="none" stroke="#FFD700" stroke-width="1.4503862266197736" /><path d="M 124.35219329297816,635.6884121137042 L 136.24907433084914,662.925287543977 L 163.9208189027765,652.0782734857461 L 153.0738048445456,679.7500180576734 L 180.31068027481834,691.6468990955444 L 153.0738048445456,703.5437801334155 L 163.9208189027765,731.2155247053428 L 136.24907433084914,720.3685106471119 L 124.35219329297816,747.6053860773847 L 112.45531225510716,720.3685106471119 L 84.78356768317983,731.2155247053428 L 95.63058174141071,703.5437801334155 L 68.39370631113798,691.6468990955444 L 95.63058174141071,679.7500180576734 L 84.78356768317983,652.0782734857461 L 112.45531225510715,662.925287543977 Z" fill="none" stroke="#FFD700" stroke-width="1.4503862266197736" /><path d="M 248.7043865859563,635.6884121137042 L 260.6012676238273,662.925287543977 L 288.27301219575463,652.0782734857461 L 277.4259981375238,679.7500180576734 L 304.6628735677965,691.6468990955444 L 277.4259981375238,703.5437801334155 L 288.27301219575463,731.2155247053428 L 260.6012676238273,720.3685106471119 L 248.7043865859563,747.6053860773847 L 236.80750554808532,720.3685106471119 L 209.135760976158,731.2155247053428 L 219.98277503438885,703.5437801334155 L 192.74589960411615,691.6468990955444 L 219.98277503438885,679.7500180576734 L 209.13576097615797,652.0782734857461 L 236.80750554808532,662.925287543977 Z" fill="none" stroke="#FFD700" stroke-width="1.4503862266197736" /><path d="M 373.0565798789345,635.6884121137042 L 384.95346091680545,662.925287543977 L 412.62520548873283,652.0782734857461 L 401.7781914305019,679.7500180576734 L 429.01506686077465,691.6468990955444 L 401.7781914305019,703.5437801334155 L 412.62520548873283,731.2155247053428 L 384.95346091680545,720.3685106471119 L 373.0565798789345,747.6053860773847 L 361.1596988410635,720.3685106471119 L 333.48795426913614,731.2155247053428 L 344.33496832736705,703.5437801334155 L 317.0980928970943,691.6468990955444 L 344.33496832736705,679.7500180576734 L 333.48795426913614,652.0782734857461 L 361.15969884106346,662.925287543977 Z" fill="none" stroke="#FFD700" stroke-width="1.4503862266197736" /><path d="M 497.4087731719126,635.6884121137042 L 509.3056542097836,662.925287543977 L 536.9773987817109,652.0782734857461 L 526.1303847234801,679.7500180576734 L 553.3672601537528,691.6468990955444 L 526.1303847234801,703.5437801334155 L 536.9773987817109,731.2155247053428 L 509.3056542097836,720.3685106471119 L 497.4087731719126,747.6053860773847 L 485.51189213404166,720.3685106471119 L 457.8401475621143,731.2155247053428 L 468.6871616203452,703.5437801334155 L 441.45028619007246,691.6468990955444 L 468.6871616203452,679.7500180576734 L 457.8401475621143,652.0782734857461 L 485.5118921340416,662.925287543977 Z" fill="none" stroke="#FFD700" stroke-width="1.4503862266197736" /><path d="M 621.7609664648908,635.6884121137042 L 633.6578475027618,662.925287543977 L 661.3295920746891,652.0782734857461 L 650.4825780164582,679.7500180576734 L 677.719453446731,691.6468990955444 L 650.4825780164582,703.5437801334155 L 661.3295920746891,731.2155247053428 L 633.6578475027618,720.3685106471119 L 621.7609664648908,747.6053860773847 L 609.8640854270197,720.3685106471119 L 582.1923408550924,731.2155247053428 L 593.0393549133233,703.5437801334155 L 565.8024794830505,691.6468990955444 L 593.0393549133233,679.7500180576734 L 582.1923408550924,652.0782734857461 L 609.8640854270197,662.925287543977 Z" fill="none" stroke="#FFD700" stroke-width="1.4503862266197736" /><path d="M 746.113159757869,635.6884121137042 L 758.01004079574,662.925287543977 L 785.6817853676673,652.0782734857461 L 774.8347713094364,679.7500180576734 L 802.0716467397092,691.6468990955444 L 774.8347713094364,703.5437801334155 L 785.6817853676673,731.2155247053428 L 758.01004079574,720.3685106471119 L 746.113159757869,747.6053860773847 L 734.216278719998,720.3685106471119 L 706.5445341480706,731.2155247053428 L 717.3915482063015,703.5437801334155 L 690.1546727760287,691.6468990955444 L 717.3915482063015,679.7500180576734 L 706.5445341480706,652.0782734857461 L 734.216278719998,662.925287543977 Z" fill="none" stroke="#FFD700" stroke-width="1.4503862266197736" /><path d="M 870.465353050847,635.6884121137042 L 882.3622340887181,662.925287543977 L 910.0339786606454,652.0782734857461 L 899.1869646024145,679.7500180576734 L 926.4238400326873,691.6468990955444 L 899.1869646024145,703.5437801334155 L 910.0339786606454,731.2155247053428 L 882.3622340887181,720.3685106471119 L 870.465353050847,747.6053860773847 L 858.568472012976,720.3685106471119 L 830.8967274410487,731.2155247053428 L 841.7437414992796,703.5437801334155 L 814.5068660690068,691.6468990955444 L 841.7437414992796,679.7500180576734 L 830.8967274410487,652.0782734857461 L 858.568472012976,662.925287543977 Z" fill="none" stroke="#FFD700" stroke-width="1.4503862266197736" /><path d="M 994.8175463438253,635.6884121137042 L 1006.7144273816963,662.925287543977 L 1034.3861719536235,652.0782734857461 L 1023.5391578953927,679.7500180576734 L 1050.7760333256654,691.6468990955444 L 1023.5391578953927,703.5437801334155 L 1034.3861719536235,731.2155247053428 L 1006.7144273816963,720.3685106471119 L 994.8175463438253,747.6053860773847 L 982.9206653059542,720.3685106471119 L 955.2489207340269,731.2155247053428 L 966.0959347922578,703.5437801334155 L 938.859059361985,691.6468990955444 L 966.0959347922578,679.7500180576734 L 955.2489207340269,652.0782734857461 L 982.9206653059542,662.925287543977 Z" fill="none" stroke="#FFD700" stroke-width="1.4503862266197736" /><path d="M 1119.1697396368033,635.6884121137042 L 1131.0666206746744,662.925287543977 L 1158.7383652466017,652.0782734857461 L 1147.891351188371,679.7500180576734 L 1175.1282266186436,691.6468990955444 L 1147.891351188371,703.5437801334155 L 1158.7383652466017,731.2155247053428 L 1131.0666206746744,720.3685106471119 L 1119.1697396368033,747.6053860773847 L 1107.2728585989323,720.3685106471119 L 1079.601114027005,731.2155247053428 L 1090.4481280852358,703.5437801334155 L 1063.2112526549631,691.6468990955444 L 1090.4481280852358,679.7500180576734 L 1079.601114027005,652.0782734857461 L 1107.2728585989323,662.925287543977 Z" fill="none" stroke="#FFD700" stroke-width="1.4503862266197736" /><path d="M 1243.5219329297815,635.6884121137042 L 1255.4188139676526,662.925287543977 L 1283.09055853958,652.0782734857461 L 1272.243544481349,679.7500180576734 L 1299.4804199116218,691.6468990955444 L 1272.243544481349,703.5437801334155 L 1283.09055853958,731.2155247053428 L 1255.4188139676526,720.3685106471119 L 1243.5219329297815,747.6053860773847 L 1231.6250518919105,720.3685106471119 L 1203.9533073199832,731.2155247053428 L 1214.800321378214,703.5437801334155 L 1187.5634459479413,691.6468990955444 L 1214.800321378214,679.7500180576734 L 1203.9533073199832,652.0782734857461 L 1231.6250518919105,662.925287543977 Z" fill="none" stroke="#FFD700" stroke-width="1.4503862266197736" /><line x1="55.958486981840174" y1="45.51290274523" x2="68.39370631113798" y2="45.51290274523" stroke="#FFD700" stroke-width="0.5"/><line x1="180.31068027481834" y1="45.51290274523" x2="192.74589960411615" y2="45.51290274523" stroke="#FFD700" stroke-width="0.5"/><line x1="304.6628735677965" y1="45.51290274523" x2="317.0980928970943" y2="45.51290274523" stroke="#FFD700" stroke-width="0.5"/><line x1="429.01506686077465" y1="45.51290274523" x2="441.45028619007246" y2="45.51290274523" stroke="#FFD700" stroke-width="0.5"/><line x1="553.3672601537528" y1="45.51290274523" x2="565.8024794830505" y2="45.51290274523" stroke="#FFD700" stroke-width="0.5"/><line x1="677.719453446731" y1="45.51290274523" x2="690.1546727760287" y2="45.51290274523" stroke="#FFD700" stroke-width="0.5"/><line x1="802.0716467397092" y1="45.51290274523" x2="814.5068660690068" y2="45.51290274523" stroke="#FFD700" stroke-width="0.5"/><line x1="926.4238400326873" y1="45.51290274523" x2="938.859059361985" y2="45.51290274523" stroke="#FFD700" stroke-width="0.5"/><line x1="1050.7760333256654" y1="45.51290274523" x2="1063.2112526549631" y2="45.51290274523" stroke="#FFD700" stroke-width="0.5"/><line x1="1175.1282266186436" y1="45.51290274523" x2="1187.5634459479413" y2="45.51290274523" stroke="#FFD700" stroke-width="0.5"/><line x1="118.13458362832925" y1="153.2019021369491" x2="130.56980295762708" y2="153.2019021369491" stroke="#FFD700" stroke-width="0.5"/><line x1="242.4867769213074" y1="153.2019021369491" x2="254.92199625060522" y2="153.2019021369491" stroke="#FFD700" stroke-width="0.5"/><line x1="366.83897021428555" y1="153.2019021369491" x2="379.27418954358336" y2="153.2019021369491" stroke="#FFD700" stroke-width="0.5"/><line x1="491.1911635072637" y1="153.2019021369491" x2="503.6263828365615" y2="153.2019021369491" stroke="#FFD700" stroke-width="0.5"/><line x1="615.5433568002419" y1="153.2019021369491" x2="627.9785761295396" y2="153.2019021369491" stroke="#FFD700" stroke-width="0.5"/><line x1="739.8955500932201" y1="153.2019021369491" x2="752.3307694225177" y2="153.2019021369491" stroke="#FFD700" stroke-width="0.5"/><line x1="864.2477433861982" y1="153.2019021369491" x2="876.6829627154959" y2="153.2019021369491" stroke="#FFD700" stroke-width="0.5"/><line x1="988.5999366791764" y1="153.2019021369491" x2="1001.0351560084741" y2="153.2019021369491" stroke="#FFD700" stroke-width="0.5"/><line x1="1112.9521299721546" y1="153.2019021369491" x2="1125.3873493014523" y2="153.2019021369491" stroke="#FFD700" stroke-width="0.5"/><line x1="55.958486981840174" y1="260.89090152866817" x2="68.39370631113798" y2="260.89090152866817" stroke="#FFD700" stroke-width="0.5"/><line x1="180.31068027481834" y1="260.89090152866817" x2="192.74589960411615" y2="260.89090152866817" stroke="#FFD700" stroke-width="0.5"/><line x1="304.6628735677965" y1="260.89090152866817" x2="317.0980928970943" y2="260.89090152866817" stroke="#FFD700" stroke-width="0.5"/><line x1="429.01506686077465" y1="260.89090152866817" x2="441.45028619007246" y2="260.89090152866817" stroke="#FFD700" stroke-width="0.5"/><line x1="553.3672601537528" y1="260.89090152866817" x2="565.8024794830505" y2="260.89090152866817" stroke="#FFD700" stroke-width="0.5"/><line x1="677.719453446731" y1="260.89090152866817" x2="690.1546727760287" y2="260.89090152866817" stroke="#FFD700" stroke-width="0.5"/><line x1="802.0716467397092" y1="260.89090152866817" x2="814.5068660690068" y2="260.89090152866817" stroke="#FFD700" stroke-width="0.5"/><line x1="926.4238400326873" y1="260.89090152866817" x2="938.859059361985" y2="260.89090152866817" stroke="#FFD700" stroke-width="0.5"/><line x1="1050.7760333256654" y1="260.89090152866817" x2="1063.2112526549631" y2="260.89090152866817" stroke="#FFD700" stroke-width="0.5"/><line x1="1175.1282266186436" y1="260.89090152866817" x2="1187.5634459479413" y2="260.89090152866817" stroke="#FFD700" stroke-width="0.5"/><line x1="118.13458362832925" y1="368.5799009203872" x2="130.56980295762708" y2="368.5799009203872" stroke="#FFD700" stroke-width="0.5"/><line x1="242.4867769213074" y1="368.5799009203872" x2="254.92199625060522" y2="368.5799009203872" stroke="#FFD700" stroke-width="0.5"/><line x1="366.83897021428555" y1="368.5799009203872" x2="379.27418954358336" y2="368.5799009203872" stroke="#FFD700" stroke-width="0.5"/><line x1="491.1911635072637" y1="368.5799009203872" x2="503.6263828365615" y2="368.5799009203872" stroke="#FFD700" stroke-width="0.5"/><line x1="615.5433568002419" y1="368.5799009203872" x2="627.9785761295396" y2="368.5799009203872" stroke="#FFD700" stroke-width="0.5"/><line x1="739.8955500932201" y1="368.5799009203872" x2="752.3307694225177" y2="368.5799009203872" stroke="#FFD700" stroke-width="0.5"/><line x1="864.2477433861982" y1="368.5799009203872" x2="876.6829627154959" y2="368.5799009203872" stroke="#FFD700" stroke-width="0.5"/><line x1="988.5999366791764" y1="368.5799009203872" x2="1001.0351560084741" y2="368.5799009203872" stroke="#FFD700" stroke-width="0.5"/><line x1="1112.9521299721546" y1="368.5799009203872" x2="1125.3873493014523" y2="368.5799009203872" stroke="#FFD700" stroke-width="0.5"/><line x1="55.958486981840174" y1="476.2689003121063" x2="68.39370631113798" y2="476.2689003121063" stroke="#FFD700" stroke-width="0.5"/><line x1="180.31068027481834" y1="476.2689003121063" x2="192.74589960411615" y2="476.2689003121063" stroke="#FFD700" stroke-width="0.5"/><line x1="304.6628735677965" y1="476.2689003121063" x2="317.0980928970943" y2="476.2689003121063" stroke="#FFD700" stroke-width="0.5"/><line x1="429.01506686077465" y1="476.2689003121063" x2="441.45028619007246" y2="476.2689003121063" stroke="#FFD700" stroke-width="0.5"/><line x1="553.3672601537528" y1="476.2689003121063" x2="565.8024794830505" y2="476.2689003121063" stroke="#FFD700" stroke-width="0.5"/><line x1="677.719453446731" y1="476.2689003121063" x2="690.1546727760287" y2="476.2689003121063" stroke="#FFD700" stroke-width="0.5"/><line x1="802.0716467397092" y1="476.2689003121063" x2="814.5068660690068" y2="476.2689003121063" stroke="#FFD700" stroke-width="0.5"/><line x1="926.4238400326873" y1="476.2689003121063" x2="938.859059361985" y2="476.2689003121063" stroke="#FFD700" stroke-width="0.5"/><line x1="1050.7760333256654" y1="476.2689003121063" x2="1063.2112526549631" y2="476.2689003121063" stroke="#FFD700" stroke-width="0.5"/><line x1="1175.1282266186436" y1="476.2689003121063" x2="1187.5634459479413" y2="476.2689003121063" stroke="#FFD700" stroke-width="0.5"/><line x1="118.13458362832925" y1="583.9578997038254" x2="130.56980295762708" y2="583.9578997038254" stroke="#FFD700" stroke-width="0.5"/><line x1="242.4867769213074" y1="583.9578997038254" x2="254.92199625060522" y2="583.9578997038254" stroke="#FFD700" stroke-width="0.5"/><line x1="366.83897021428555" y1="583.9578997038254" x2="379.27418954358336" y2="583.9578997038254" stroke="#FFD700" stroke-width="0.5"/><line x1="491.1911635072637" y1="583.9578997038254" x2="503.6263828365615" y2="583.9578997038254" stroke="#FFD700" stroke-width="0.5"/><line x1="615.5433568002419" y1="583.9578997038254" x2="627.9785761295396" y2="583.9578997038254" stroke="#FFD700" stroke-width="0.5"/><line x1="739.8955500932201" y1="583.9578997038254" x2="752.3307694225177" y2="583.9578997038254" stroke="#FFD700" stroke-width="0.5"/><line x1="864.2477433861982" y1="583.9578997038254" x2="876.6829627154959" y2="583.9578997038254" stroke="#FFD700" stroke-width="0.5"/><line x1="988.5999366791764" y1="583.9578997038254" x2="1001.0351560084741" y2="583.9578997038254" stroke="#FFD700" stroke-width="0.5"/><line x1="1112.9521299721546" y1="583.9578997038254" x2="1125.3873493014523" y2="583.9578997038254" stroke="#FFD700" stroke-width="0.5"/></g><g opacity="0.12049118283693269"><path d="M 618.5988220472815 183.93277296048254 L 618.5988220472815 233.1403957601783 L 653.160519591988 233.1403957601783" fill="none" stroke="#FFFFFF" stroke-width="2.1205832965767866" stroke-linecap="square"/><path d="M 471.0937502193701 498.3434488709753 L 539.9330438982087 498.3434488709753 L 539.9330438982087 566.8956847842655" fill="none" stroke="#FFFFFF" stroke-width="2.1205832965767866" stroke-linecap="square"/><path d="M 950.4318241730481 10.359249119814136 L 889.5026840534185 10.359249119814136 L 889.5026840534185 94.46802760330932" fill="none" stroke="#FFFFFF" stroke-width="2.1205832965767866" stroke-linecap="square"/><path d="M 64.80546000637368 127.56284332255035 L 64.80546000637368 91.14449795264774 L 106.77470639915141 91.14449795264774 L 106.77470639915141 130.75896666387996" fill="none" stroke="#FFFFFF" stroke-width="2.1205832965767866" stroke-linecap="square"/><path d="M 251.82151806159948 37.07690210876842 L 251.82151806159948 71.1442602214842 L 310.8470243807561 71.1442602214842 L 310.8470243807561 147.87584973157226" fill="none" stroke="#FFFFFF" stroke-width="2.1205832965767866" stroke-linecap="square"/><path d="M 251.93452846814623 617.9421162502571 L 335.11177107999697 617.9421162502571 L 335.11177107999697 630 L 367.84694963547315 630" fill="none" stroke="#FFFFFF" stroke-width="2.1205832965767866" stroke-linecap="square"/><path d="M 807.0053104343849 233.94887935088428 L 807.0053104343849 315.76402897403034 L 725.6177456936164 315.76402897403034 L 725.6177456936164 369.6734297749212" fill="none" stroke="#FFFFFF" stroke-width="2.1205832965767866" stroke-linecap="square"/><path d="M 761.9945529671361 112.68582349302518 L 761.9945529671361 33.738821276197015 L 711.2795954827545 33.738821276197015" fill="none" stroke="#FFFFFF" stroke-width="2.1205832965767866" stroke-linecap="square"/><path d="M 680.1817420312119 290.1072658459224 L 737.7049270317227 290.1072658459224 L 737.7049270317227 260.0176089339146 L 660.1207838792831 260.0176089339146" fill="none" stroke="#FFFFFF" stroke-width="2.1205832965767866" stroke-linecap="square"/><path d="M 834.3873027872235 16.472990520518735 L 886.8289358005051 16.472990520518735 L 886.8289358005051 97.4893229757" fill="none" stroke="#FFFFFF" stroke-width="2.1205832965767866" stroke-linecap="square"/><line x1="725.0038507976587" y1="10.45406520853474" x2="725.0038507976587" y2="205.74914011999462" stroke="#FFFFFF" stroke-width="0.5" stroke-dasharray="5,10"/><line x1="1176.9387250658772" y1="84.46394423603265" x2="1176.9387250658772" y2="160.31723578289024" stroke="#FFFFFF" stroke-width="0.5" stroke-dasharray="5,10"/><rect x="611.4921256776397" y="226.03369939053653" width="14.21339273928357" height="14.21339273928357" fill="#FFFFFF"/><rect x="532.8263475285669" y="491.2367525013335" width="14.21339273928357" height="14.21339273928357" fill="#FFFFFF"/><circle cx="310.8470243807561" cy="147.87584973157226" r="7.106696369641785" fill="#FFFFFF"/><circle cx="251.82151806159948" cy="37.07690210876842" r="5.685357095713428" fill="#FFFFFF"/><rect x="303.74032801111434" y="64.03756385184242" width="14.21339273928357" height="14.21339273928357" fill="#FFFFFF"/><rect x="328.0050747103552" y="610.8354198806153" width="14.21339273928357" height="14.21339273928357" fill="#FFFFFF"/><circle cx="725.6177456936164" cy="369.6734297749212" r="7.106696369641785" fill="#FFFFFF"/><circle cx="807.0053104343849" cy="233.94887935088428" r="5.685357095713428" fill="#FFFFFF"/><rect x="754.8878565974943" y="26.63212490655523" width="14.21339273928357" height="14.21339273928357" fill="#FFFFFF"/><circle cx="925.815296604212" cy="515.1342704310707" r="11.132703039406579" fill="#FFFFFF"/><circle cx="224.26958094549812" cy="550.1377605973453" r="9.926333458062306" fill="#FFFFFF"/><circle cx="557.2906496735711" cy="590.296955383521" r="14.035240067799297" fill="#FFFFFF"/><circle cx="298.53515638901627" cy="467.42792151282913" r="7.4092292470210355" fill="#FFFFFF"/></g><g opacity="0.2"><rect x="40" y="40" width="1120" height="550" fill="none" stroke="#8B7355" stroke-width="2" rx="8"/></g><g opacity="0.6560395062696373"><line x1="50" y1="50" x2="70" y2="50" stroke="#FFC125" stroke-width="3"/><line x1="50" y1="50" x2="50" y2="70" stroke="#FFC125" stroke-width="3"/><line x1="1150" y1="580" x2="1130" y2="580" stroke="#FFC125" stroke-width="3"/><line x1="1150" y1="580" x2="1150" y2="560" stroke="#FFC125" stroke-width="3"/></g></svg>