<svg xmlns="http://www.w3.org/2000/svg" width="1200" height="630" viewBox="0 0 1200 630"><rect x="0" y="0" width="1200" height="630" fill="#000000"/><g opacity="0.05"><line x1="0" y1="0" x2="0" y2="630" stroke="#666666" stroke-width="0.5"/><line x1="60" y1="0" x2="60" y2="630" stroke="#666666" stroke-width="0.5"/><line x1="120" y1="0" x2="120" y2="630" stroke="#666666" stroke-width="0.5"/><line x1="180" y1="0" x2="180" y2="630" stroke="#666666" stroke-width="0.5"/><line x1="240" y1="0" x2="240" y2="630" stroke="#666666" stroke-width="0.5"/><line x1="300" y1="0" x2="300" y2="630" stroke="#666666" stroke-width="0.5"/><line x1="360" y1="0" x2="360" y2="630" stroke="#666666" stroke-width="0.5"/><line x1="420" y1="0" x2="420" y2="630" stroke="#666666" stroke-width="0.5"/><line x1="480" y1="0" x2="480" y2="630" stroke="#666666" stroke-width="0.5"/><line x1="540" y1="0" x2="540" y2="630" stroke="#666666" stroke-width="0.5"/><line x1="600" y1="0" x2="600" y2="630" stroke="#666666" stroke-width="0.5"/><line x1="660" y1="0" x2="660" y2="630" stroke="#666666" stroke-width="0.5"/><line x1="720" y1="0" x2="720" y2="630" stroke="#666666" stroke-width="0.5"/><line x1="780" y1="0" x2="780" y2="630" stroke="#666666" stroke-width="0.5"/><line x1="840" y1="0" x2="840" y2="630" stroke="#666666" stroke-width="0.5"/><line x1="900" y1="0" x2="900" y2="630" stroke="#666666" stroke-width="0.5"/><line x1="960" y1="0" x2="960" y2="630" stroke="#666666" stroke-width="0.5"/><line x1="1020" y1="0" x2="1020" y2="630" stroke="#666666" stroke-width="0.5"/><line x1="1080" y1="0" x2="1080" y2="630" stroke="#666666" stroke-width="0.5"/><line x1="1140" y1="0" x2="1140" y2="630" stroke="#666666" stroke-width="0.5"/><line x1="1200" y1="0" x2="1200" y2="630" stroke="#666666" stroke-width="0.5"/><line x1="0" y1="0" x2="1200" y2="0" stroke="#666666" stroke-width="0.5"/><line x1="0" y1="60" x2="1200" y2="60" stroke="#666666" stroke-width="0.5"/><line x1="0" y1="120" x2="1200" y2="120" stroke="#666666" stroke-width="0.5"/><line x1="0" y1="180" x2="1200" y2="180" stroke="#666666" stroke-width="0.5"/><line x1="0" y1="240" x2="1200" y2="240" stroke="#666666" stroke-width="0.5"/><line x1="0" y1="300" x2="1200" y2="300" stroke="#666666" stroke-width="0.5"/><line x1="0" y1="360" x2="1200" y2="360" stroke="#666666" stroke-width="0.5"/><line x1="0" y1="420" x2="1200" y2="420" stroke="#666666" stroke-width="0.5"/><line x1="0" y1="480" x2="1200" y2="480" stroke="#666666" stroke-width="0.5"/><line x1="0" y1="540" x2="1200" y2="540" stroke="#666666" stroke-width="0.5"/><line x1="0" y1="600" x2="1200" y2="600" stroke="#666666" stroke-width="0.5"/><line x1="0" y1="660" x2="1200" y2="660" stroke="#666666" stroke-width="0.5"/></g><g opacity="0.09913559260272217"><path d="M -74.49554678705897,-141.54153889541203 L -60.241441016866034,-108.90800225695934 L -27.086871115862756,-121.90422245825518 L -40.083091317158605,-88.7496525572519 L -7.449554678705894,-74.49554678705897 L -40.083091317158605,-60.24144101686604 L -27.086871115862756,-27.086871115862763 L -60.241441016866034,-40.083091317158605 L -74.49554678705897,-7.449554678705894 L -88.74965255725189,-40.083091317158605 L -121.90422245825518,-27.086871115862756 L -108.90800225695932,-60.24144101686602 L -141.54153889541203,-74.49554678705896 L -108.90800225695932,-88.7496525572519 L -121.90422245825519,-121.90422245825518 L -88.74965255725192,-108.90800225695932 Z" fill="none" stroke="#00A86B" stroke-width="2.992041588990037" /><path d="M 74.49554678705897,-141.54153889541203 L 88.7496525572519,-108.90800225695934 L 121.90422245825519,-121.90422245825518 L 108.90800225695934,-88.7496525572519 L 141.54153889541203,-74.49554678705897 L 108.90800225695934,-60.24144101686604 L 121.90422245825519,-27.086871115862763 L 88.7496525572519,-40.083091317158605 L 74.49554678705897,-7.449554678705894 L 60.24144101686604,-40.083091317158605 L 27.086871115862763,-27.086871115862756 L 40.08309131715861,-60.24144101686602 L 7.449554678705894,-74.49554678705896 L 40.08309131715861,-88.7496525572519 L 27.08687111586275,-121.90422245825518 L 60.24144101686602,-108.90800225695932 Z" fill="none" stroke="#00A86B" stroke-width="2.992041588990037" /><path d="M 223.4866403611769,-141.54153889541203 L 237.74074613136983,-108.90800225695934 L 270.8953160323731,-121.90422245825518 L 257.89909583107726,-88.7496525572519 L 290.53263246953,-74.49554678705897 L 257.89909583107726,-60.24144101686604 L 270.8953160323731,-27.086871115862763 L 237.74074613136983,-40.083091317158605 L 223.4866403611769,-7.449554678705894 L 209.232534590984,-40.083091317158605 L 176.07796468998072,-27.086871115862756 L 189.07418489127656,-60.24144101686602 L 156.44064825282385,-74.49554678705896 L 189.07418489127656,-88.7496525572519 L 176.0779646899807,-121.90422245825518 L 209.23253459098396,-108.90800225695932 Z" fill="none" stroke="#00A86B" stroke-width="2.992041588990037" /><path d="M 372.47773393529485,-141.54153889541203 L 386.7318397054878,-108.90800225695934 L 419.88640960649104,-121.90422245825518 L 406.8901894051952,-88.7496525572519 L 439.5237260436479,-74.49554678705897 L 406.8901894051952,-60.24144101686604 L 419.88640960649104,-27.086871115862763 L 386.7318397054878,-40.083091317158605 L 372.47773393529485,-7.449554678705894 L 358.2236281651019,-40.083091317158605 L 325.06905826409866,-27.086871115862756 L 338.0652784653945,-60.24144101686602 L 305.4317418269418,-74.49554678705896 L 338.0652784653945,-88.7496525572519 L 325.06905826409866,-121.90422245825518 L 358.2236281651019,-108.90800225695932 Z" fill="none" stroke="#00A86B" stroke-width="2.992041588990037" /><path d="M 521.4688275094128,-141.54153889541203 L 535.7229332796057,-108.90800225695934 L 568.877503180609,-121.90422245825518 L 555.8812829793131,-88.7496525572519 L 588.5148196177659,-74.49554678705897 L 555.8812829793131,-60.24144101686604 L 568.877503180609,-27.086871115862763 L 535.7229332796057,-40.083091317158605 L 521.4688275094128,-7.449554678705894 L 507.21472173921984,-40.083091317158605 L 474.0601518382166,-27.086871115862756 L 487.05637203951244,-60.24144101686602 L 454.42283540105973,-74.49554678705896 L 487.05637203951244,-88.7496525572519 L 474.0601518382166,-121.90422245825518 L 507.21472173921984,-108.90800225695932 Z" fill="none" stroke="#00A86B" stroke-width="2.992041588990037" /><path d="M 670.4599210835307,-141.54153889541203 L 684.7140268537237,-108.90800225695934 L 717.8685967547269,-121.90422245825518 L 704.8723765534311,-88.7496525572519 L 737.5059131918838,-74.49554678705897 L 704.8723765534311,-60.24144101686604 L 717.8685967547269,-27.086871115862763 L 684.7140268537237,-40.083091317158605 L 670.4599210835307,-7.449554678705894 L 656.2058153133378,-40.083091317158605 L 623.0512454123345,-27.086871115862756 L 636.0474656136304,-60.24144101686602 L 603.4139289751777,-74.49554678705896 L 636.0474656136304,-88.7496525572519 L 623.0512454123345,-121.90422245825518 L 656.2058153133378,-108.90800225695932 Z" fill="none" stroke="#00A86B" stroke-width="2.992041588990037" /><path d="M 819.4510146576487,-141.54153889541203 L 833.7051204278416,-108.90800225695934 L 866.8596903288449,-121.90422245825518 L 853.863470127549,-88.7496525572519 L 886.4970067660017,-74.49554678705897 L 853.863470127549,-60.24144101686604 L 866.8596903288449,-27.086871115862763 L 833.7051204278416,-40.083091317158605 L 819.4510146576487,-7.449554678705894 L 805.1969088874557,-40.083091317158605 L 772.0423389864525,-27.086871115862756 L 785.0385591877483,-60.24144101686602 L 752.4050225492956,-74.49554678705896 L 785.0385591877483,-88.7496525572519 L 772.0423389864525,-121.90422245825518 L 805.1969088874557,-108.90800225695932 Z" fill="none" stroke="#00A86B" stroke-width="2.992041588990037" /><path d="M 968.4421082317666,-141.54153889541203 L 982.6962140019596,-108.90800225695934 L 1015.8507839029628,-121.90422245825518 L 1002.854563701667,-88.7496525572519 L 1035.4881003401197,-74.49554678705897 L 1002.854563701667,-60.24144101686604 L 1015.8507839029628,-27.086871115862763 L 982.6962140019596,-40.083091317158605 L 968.4421082317666,-7.449554678705894 L 954.1880024615737,-40.083091317158605 L 921.0334325605704,-27.086871115862756 L 934.0296527618663,-60.24144101686602 L 901.3961161234135,-74.49554678705896 L 934.0296527618663,-88.7496525572519 L 921.0334325605704,-121.90422245825518 L 954.1880024615737,-108.90800225695932 Z" fill="none" stroke="#00A86B" stroke-width="2.992041588990037" /><path d="M 1117.4332018058844,-141.54153889541203 L 1131.6873075760773,-108.90800225695934 L 1164.8418774770807,-121.90422245825518 L 1151.8456572757848,-88.7496525572519 L 1184.4791939142376,-74.49554678705897 L 1151.8456572757848,-60.24144101686604 L 1164.8418774770807,-27.086871115862763 L 1131.6873075760773,-40.083091317158605 L 1117.4332018058844,-7.449554678705894 L 1103.1790960356916,-40.083091317158605 L 1070.0245261346881,-27.086871115862756 L 1083.020746335984,-60.24144101686602 L 1050.3872096975313,-74.49554678705896 L 1083.020746335984,-88.7496525572519 L 1070.0245261346881,-121.90422245825518 L 1103.1790960356914,-108.90800225695932 Z" fill="none" stroke="#00A86B" stroke-width="2.992041588990037" /><path d="M 1266.4242953800026,-141.54153889541203 L 1280.6784011501954,-108.90800225695934 L 1313.832971051199,-121.90422245825518 L 1300.836750849903,-88.7496525572519 L 1333.4702874883558,-74.49554678705897 L 1300.836750849903,-60.24144101686604 L 1313.832971051199,-27.086871115862763 L 1280.6784011501954,-40.083091317158605 L 1266.4242953800026,-7.449554678705894 L 1252.1701896098098,-40.083091317158605 L 1219.0156197088063,-27.086871115862756 L 1232.0118399101023,-60.24144101686602 L 1199.3783032716494,-74.49554678705896 L 1232.0118399101023,-88.7496525572519 L 1219.0156197088063,-121.90422245825518 L 1252.1701896098095,-108.90800225695932 Z" fill="none" stroke="#00A86B" stroke-width="2.992041588990037" /><path d="M 4.105382981557665e-15,-12.515251860225916 L 14.254105770192933,20.118284778226794 L 47.408675671196214,7.122064576930953 L 34.412455469900365,40.27663447793423 L 67.04599210835308,54.53074024812716 L 34.412455469900365,68.7848460183201 L 47.408675671196214,101.93941591932337 L 14.254105770192933,88.94319571802752 L 4.105382981557665e-15,121.57673235648024 L -14.254105770192929,88.94319571802752 L -47.40867567119621,101.93941591932338 L -34.41245546990036,68.78484601832011 L -67.04599210835308,54.53074024812717 L -34.41245546990036,40.276634477934216 L -47.40867567119622,7.122064576930953 L -14.254105770192952,20.1182847782268 Z" fill="none" stroke="#00A86B" stroke-width="2.992041588990037" /><path d="M 148.99109357411794,-12.515251860225916 L 163.24519934431086,20.118284778226794 L 196.39976924531416,7.122064576930953 L 183.4035490440183,40.27663447793423 L 216.037085682471,54.53074024812716 L 183.4035490440183,68.7848460183201 L 196.39976924531416,101.93941591932337 L 163.24519934431086,88.94319571802752 L 148.99109357411794,121.57673235648024 L 134.73698780392502,88.94319571802752 L 101.58241790292173,101.93941591932338 L 114.57863810421759,68.78484601832011 L 81.94510146576486,54.53074024812717 L 114.57863810421759,40.276634477934216 L 101.58241790292172,7.122064576930953 L 134.736987803925,20.1182847782268 Z" fill="none" stroke="#00A86B" stroke-width="2.992041588990037" /><path d="M 297.9821871482359,-12.515251860225916 L 312.23629291842883,20.118284778226794 L 345.3908628194321,7.122064576930953 L 332.39464261813623,40.27663447793423 L 365.02817925658894,54.53074024812716 L 332.39464261813623,68.7848460183201 L 345.3908628194321,101.93941591932337 L 312.23629291842883,88.94319571802752 L 297.9821871482359,121.57673235648024 L 283.72808137804293,88.94319571802752 L 250.5735114770397,101.93941591932338 L 263.56973167833553,68.78484601832011 L 230.93619503988282,54.53074024812717 L 263.56973167833553,40.276634477934216 L 250.57351147703966,7.122064576930953 L 283.72808137804293,20.1182847782268 Z" fill="none" stroke="#00A86B" stroke-width="2.992041588990037" /><path d="M 446.9732807223538,-12.515251860225916 L 461.22738649254677,20.118284778226794 L 494.38195639355,7.122064576930953 L 481.38573619225417,40.27663447793423 L 514.0192728307069,54.53074024812716 L 481.38573619225417,68.7848460183201 L 494.38195639355,101.93941591932337 L 461.22738649254677,88.94319571802752 L 446.9732807223538,121.57673235648024 L 432.71917495216087,88.94319571802752 L 399.5646050511576,101.93941591932338 L 412.56082525245347,68.78484601832011 L 379.92728861400076,54.53074024812717 L 412.56082525245347,40.276634477934216 L 399.5646050511576,7.122064576930953 L 432.71917495216087,20.1182847782268 Z" fill="none" stroke="#00A86B" stroke-width="2.992041588990037" /><path d="M 595.9643742964718,-12.515251860225916 L 610.2184800666647,20.118284778226794 L 643.373049967668,7.122064576930953 L 630.3768297663721,40.27663447793423 L 663.0103664048248,54.53074024812716 L 630.3768297663721,68.7848460183201 L 643.373049967668,101.93941591932337 L 610.2184800666647,88.94319571802752 L 595.9643742964718,121.57673235648024 L 581.7102685262788,88.94319571802752 L 548.5556986252756,101.93941591932338 L 561.5519188265714,68.78484601832011 L 528.9183821881187,54.53074024812717 L 561.5519188265714,40.276634477934216 L 548.5556986252756,7.122064576930953 L 581.7102685262788,20.1182847782268 Z" fill="none" stroke="#00A86B" stroke-width="2.992041588990037" /><path d="M 744.9554678705897,-12.515251860225916 L 759.2095736407827,20.118284778226794 L 792.3641435417859,7.122064576930953 L 779.36792334049,40.27663447793423 L 812.0014599789428,54.53074024812716 L 779.36792334049,68.7848460183201 L 792.3641435417859,101.93941591932337 L 759.2095736407827,88.94319571802752 L 744.9554678705897,121.57673235648024 L 730.7013621003968,88.94319571802752 L 697.5467921993935,101.93941591932338 L 710.5430124006893,68.78484601832011 L 677.9094757622366,54.53074024812717 L 710.5430124006893,40.276634477934216 L 697.5467921993935,7.122064576930953 L 730.7013621003968,20.1182847782268 Z" fill="none" stroke="#00A86B" stroke-width="2.992041588990037" /><path d="M 893.9465614447076,-12.515251860225916 L 908.2006672149006,20.118284778226794 L 941.3552371159038,7.122064576930953 L 928.359016914608,40.27663447793423 L 960.9925535530607,54.53074024812716 L 928.359016914608,68.7848460183201 L 941.3552371159038,101.93941591932337 L 908.2006672149006,88.94319571802752 L 893.9465614447076,121.57673235648024 L 879.6924556745147,88.94319571802752 L 846.5378857735114,101.93941591932338 L 859.5341059748073,68.78484601832011 L 826.9005693363546,54.53074024812717 L 859.5341059748073,40.276634477934216 L 846.5378857735114,7.122064576930953 L 879.6924556745147,20.1182847782268 Z" fill="none" stroke="#00A86B" stroke-width="2.992041588990037" /><path d="M 1042.9376550188256,-12.515251860225916 L 1057.1917607890184,20.118284778226794 L 1090.346330690022,7.122064576930953 L 1077.350110488726,40.27663447793423 L 1109.9836471271788,54.53074024812716 L 1077.350110488726,68.7848460183201 L 1090.346330690022,101.93941591932337 L 1057.1917607890184,88.94319571802752 L 1042.9376550188256,121.57673235648024 L 1028.6835492486327,88.94319571802752 L 995.5289793476294,101.93941591932338 L 1008.5251995489252,68.78484601832011 L 975.8916629104725,54.53074024812717 L 1008.5251995489252,40.276634477934216 L 995.5289793476294,7.122064576930953 L 1028.6835492486325,20.1182847782268 Z" fill="none" stroke="#00A86B" stroke-width="2.992041588990037" /><path d="M 1191.9287485929435,-12.515251860225916 L 1206.1828543631364,20.118284778226794 L 1239.3374242641398,7.122064576930953 L 1226.3412040628439,40.27663447793423 L 1258.9747407012967,54.53074024812716 L 1226.3412040628439,68.7848460183201 L 1239.3374242641398,101.93941591932337 L 1206.1828543631364,88.94319571802752 L 1191.9287485929435,121.57673235648024 L 1177.6746428227507,88.94319571802752 L 1144.5200729217472,101.93941591932338 L 1157.5162931230432,68.78484601832011 L 1124.8827564845903,54.53074024812717 L 1157.5162931230432,40.276634477934216 L 1144.5200729217472,7.122064576930953 L 1177.6746428227505,20.1182847782268 Z" fill="none" stroke="#00A86B" stroke-width="2.992041588990037" /><path d="M 1340.9198421670617,-12.515251860225916 L 1355.1739479372545,20.118284778226794 L 1388.328517838258,7.122064576930953 L 1375.332297636962,40.27663447793423 L 1407.9658342754149,54.53074024812716 L 1375.332297636962,68.7848460183201 L 1388.328517838258,101.93941591932337 L 1355.1739479372545,88.94319571802752 L 1340.9198421670617,121.57673235648024 L 1326.6657363968689,88.94319571802752 L 1293.5111664958654,101.93941591932338 L 1306.5073866971613,68.78484601832011 L 1273.8738500587085,54.53074024812717 L 1306.5073866971613,40.276634477934216 L 1293.5111664958654,7.122064576930953 L 1326.6657363968686,20.1182847782268 Z" fill="none" stroke="#00A86B" stroke-width="2.992041588990037" /><path d="M -74.49554678705897,116.51103517496021 L -60.241441016866034,149.14457181341294 L -27.086871115862756,136.1483516121171 L -40.083091317158605,169.30292151312037 L -7.449554678705894,183.5570272833133 L -40.083091317158605,197.8111330535062 L -27.086871115862756,230.96570295450948 L -60.241441016866034,217.96948275321364 L -74.49554678705897,250.60301939166635 L -88.74965255725189,217.96948275321364 L -121.90422245825518,230.9657029545095 L -108.90800225695932,197.81113305350624 L -141.54153889541203,183.5570272833133 L -108.90800225695932,169.30292151312034 L -121.90422245825519,136.1483516121171 L -88.74965255725192,149.14457181341294 Z" fill="none" stroke="#00A86B" stroke-width="2.992041588990037" /><path d="M 74.49554678705897,116.51103517496021 L 88.7496525572519,149.14457181341294 L 121.90422245825519,136.1483516121171 L 108.90800225695934,169.30292151312037 L 141.54153889541203,183.5570272833133 L 108.90800225695934,197.8111330535062 L 121.90422245825519,230.96570295450948 L 88.7496525572519,217.96948275321364 L 74.49554678705897,250.60301939166635 L 60.24144101686604,217.96948275321364 L 27.086871115862763,230.9657029545095 L 40.08309131715861,197.81113305350624 L 7.449554678705894,183.5570272833133 L 40.08309131715861,169.30292151312034 L 27.08687111586275,136.1483516121171 L 60.24144101686602,149.14457181341294 Z" fill="none" stroke="#00A86B" stroke-width="2.992041588990037" /><path d="M 223.4866403611769,116.51103517496021 L 237.74074613136983,149.14457181341294 L 270.8953160323731,136.1483516121171 L 257.89909583107726,169.30292151312037 L 290.53263246953,183.5570272833133 L 257.89909583107726,197.8111330535062 L 270.8953160323731,230.96570295450948 L 237.74074613136983,217.96948275321364 L 223.4866403611769,250.60301939166635 L 209.232534590984,217.96948275321364 L 176.07796468998072,230.9657029545095 L 189.07418489127656,197.81113305350624 L 156.44064825282385,183.5570272833133 L 189.07418489127656,169.30292151312034 L 176.0779646899807,136.1483516121171 L 209.23253459098396,149.14457181341294 Z" fill="none" stroke="#00A86B" stroke-width="2.992041588990037" /><path d="M 372.47773393529485,116.51103517496021 L 386.7318397054878,149.14457181341294 L 419.88640960649104,136.1483516121171 L 406.8901894051952,169.30292151312037 L 439.5237260436479,183.5570272833133 L 406.8901894051952,197.8111330535062 L 419.88640960649104,230.96570295450948 L 386.7318397054878,217.96948275321364 L 372.47773393529485,250.60301939166635 L 358.2236281651019,217.96948275321364 L 325.06905826409866,230.9657029545095 L 338.0652784653945,197.81113305350624 L 305.4317418269418,183.5570272833133 L 338.0652784653945,169.30292151312034 L 325.06905826409866,136.1483516121171 L 358.2236281651019,149.14457181341294 Z" fill="none" stroke="#00A86B" stroke-width="2.992041588990037" /><path d="M 521.4688275094128,116.51103517496021 L 535.7229332796057,149.14457181341294 L 568.877503180609,136.1483516121171 L 555.8812829793131,169.30292151312037 L 588.5148196177659,183.5570272833133 L 555.8812829793131,197.8111330535062 L 568.877503180609,230.96570295450948 L 535.7229332796057,217.96948275321364 L 521.4688275094128,250.60301939166635 L 507.21472173921984,217.96948275321364 L 474.0601518382166,230.9657029545095 L 487.05637203951244,197.81113305350624 L 454.42283540105973,183.5570272833133 L 487.05637203951244,169.30292151312034 L 474.0601518382166,136.1483516121171 L 507.21472173921984,149.14457181341294 Z" fill="none" stroke="#00A86B" stroke-width="2.992041588990037" /><path d="M 670.4599210835307,116.51103517496021 L 684.7140268537237,149.14457181341294 L 717.8685967547269,136.1483516121171 L 704.8723765534311,169.30292151312037 L 737.5059131918838,183.5570272833133 L 704.8723765534311,197.8111330535062 L 717.8685967547269,230.96570295450948 L 684.7140268537237,217.96948275321364 L 670.4599210835307,250.60301939166635 L 656.2058153133378,217.96948275321364 L 623.0512454123345,230.9657029545095 L 636.0474656136304,197.81113305350624 L 603.4139289751777,183.5570272833133 L 636.0474656136304,169.30292151312034 L 623.0512454123345,136.1483516121171 L 656.2058153133378,149.14457181341294 Z" fill="none" stroke="#00A86B" stroke-width="2.992041588990037" /><path d="M 819.4510146576487,116.51103517496021 L 833.7051204278416,149.14457181341294 L 866.8596903288449,136.1483516121171 L 853.863470127549,169.30292151312037 L 886.4970067660017,183.5570272833133 L 853.863470127549,197.8111330535062 L 866.8596903288449,230.96570295450948 L 833.7051204278416,217.96948275321364 L 819.4510146576487,250.60301939166635 L 805.1969088874557,217.96948275321364 L 772.0423389864525,230.9657029545095 L 785.0385591877483,197.81113305350624 L 752.4050225492956,183.5570272833133 L 785.0385591877483,169.30292151312034 L 772.0423389864525,136.1483516121171 L 805.1969088874557,149.14457181341294 Z" fill="none" stroke="#00A86B" stroke-width="2.992041588990037" /><path d="M 968.4421082317666,116.51103517496021 L 982.6962140019596,149.14457181341294 L 1015.8507839029628,136.1483516121171 L 1002.854563701667,169.30292151312037 L 1035.4881003401197,183.5570272833133 L 1002.854563701667,197.8111330535062 L 1015.8507839029628,230.96570295450948 L 982.6962140019596,217.96948275321364 L 968.4421082317666,250.60301939166635 L 954.1880024615737,217.96948275321364 L 921.0334325605704,230.9657029545095 L 934.0296527618663,197.81113305350624 L 901.3961161234135,183.5570272833133 L 934.0296527618663,169.30292151312034 L 921.0334325605704,136.1483516121171 L 954.1880024615737,149.14457181341294 Z" fill="none" stroke="#00A86B" stroke-width="2.992041588990037" /><path d="M 1117.4332018058844,116.51103517496021 L 1131.6873075760773,149.14457181341294 L 1164.8418774770807,136.1483516121171 L 1151.8456572757848,169.30292151312037 L 1184.4791939142376,183.5570272833133 L 1151.8456572757848,197.8111330535062 L 1164.8418774770807,230.96570295450948 L 1131.6873075760773,217.96948275321364 L 1117.4332018058844,250.60301939166635 L 1103.1790960356916,217.96948275321364 L 1070.0245261346881,230.9657029545095 L 1083.020746335984,197.81113305350624 L 1050.3872096975313,183.5570272833133 L 1083.020746335984,169.30292151312034 L 1070.0245261346881,136.1483516121171 L 1103.1790960356914,149.14457181341294 Z" fill="none" stroke="#00A86B" stroke-width="2.992041588990037" /><path d="M 1266.4242953800026,116.51103517496021 L 1280.6784011501954,149.14457181341294 L 1313.832971051199,136.1483516121171 L 1300.836750849903,169.30292151312037 L 1333.4702874883558,183.5570272833133 L 1300.836750849903,197.8111330535062 L 1313.832971051199,230.96570295450948 L 1280.6784011501954,217.96948275321364 L 1266.4242953800026,250.60301939166635 L 1252.1701896098098,217.96948275321364 L 1219.0156197088063,230.9657029545095 L 1232.0118399101023,197.81113305350624 L 1199.3783032716494,183.5570272833133 L 1232.0118399101023,169.30292151312034 L 1219.0156197088063,136.1483516121171 L 1252.1701896098095,149.14457181341294 Z" fill="none" stroke="#00A86B" stroke-width="2.992041588990037" /><path d="M 4.105382981557665e-15,245.53732221014639 L 14.254105770192933,278.1708588485991 L 47.408675671196214,265.17463864730325 L 34.412455469900365,298.3292085483065 L 67.04599210835308,312.58331431849945 L 34.412455469900365,326.8374200886924 L 47.408675671196214,359.99198998969564 L 14.254105770192933,346.9957697883998 L 4.105382981557665e-15,379.6293064268525 L -14.254105770192929,346.9957697883998 L -47.40867567119621,359.99198998969564 L -34.41245546990036,326.8374200886924 L -67.04599210835308,312.58331431849945 L -34.41245546990036,298.3292085483065 L -47.40867567119622,265.17463864730325 L -14.254105770192952,278.1708588485991 Z" fill="none" stroke="#00A86B" stroke-width="2.992041588990037" /><path d="M 148.99109357411794,245.53732221014639 L 163.24519934431086,278.1708588485991 L 196.39976924531416,265.17463864730325 L 183.4035490440183,298.3292085483065 L 216.037085682471,312.58331431849945 L 183.4035490440183,326.8374200886924 L 196.39976924531416,359.99198998969564 L 163.24519934431086,346.9957697883998 L 148.99109357411794,379.6293064268525 L 134.73698780392502,346.9957697883998 L 101.58241790292173,359.99198998969564 L 114.57863810421759,326.8374200886924 L 81.94510146576486,312.58331431849945 L 114.57863810421759,298.3292085483065 L 101.58241790292172,265.17463864730325 L 134.736987803925,278.1708588485991 Z" fill="none" stroke="#00A86B" stroke-width="2.992041588990037" /><path d="M 297.9821871482359,245.53732221014639 L 312.23629291842883,278.1708588485991 L 345.3908628194321,265.17463864730325 L 332.39464261813623,298.3292085483065 L 365.02817925658894,312.58331431849945 L 332.39464261813623,326.8374200886924 L 345.3908628194321,359.99198998969564 L 312.23629291842883,346.9957697883998 L 297.9821871482359,379.6293064268525 L 283.72808137804293,346.9957697883998 L 250.5735114770397,359.99198998969564 L 263.56973167833553,326.8374200886924 L 230.93619503988282,312.58331431849945 L 263.56973167833553,298.3292085483065 L 250.57351147703966,265.17463864730325 L 283.72808137804293,278.1708588485991 Z" fill="none" stroke="#00A86B" stroke-width="2.992041588990037" /><path d="M 446.9732807223538,245.53732221014639 L 461.22738649254677,278.1708588485991 L 494.38195639355,265.17463864730325 L 481.38573619225417,298.3292085483065 L 514.0192728307069,312.58331431849945 L 481.38573619225417,326.8374200886924 L 494.38195639355,359.99198998969564 L 461.22738649254677,346.9957697883998 L 446.9732807223538,379.6293064268525 L 432.71917495216087,346.9957697883998 L 399.5646050511576,359.99198998969564 L 412.56082525245347,326.8374200886924 L 379.92728861400076,312.58331431849945 L 412.56082525245347,298.3292085483065 L 399.5646050511576,265.17463864730325 L 432.71917495216087,278.1708588485991 Z" fill="none" stroke="#00A86B" stroke-width="2.992041588990037" /><path d="M 595.9643742964718,245.53732221014639 L 610.2184800666647,278.1708588485991 L 643.373049967668,265.17463864730325 L 630.3768297663721,298.3292085483065 L 663.0103664048248,312.58331431849945 L 630.3768297663721,326.8374200886924 L 643.373049967668,359.99198998969564 L 610.2184800666647,346.9957697883998 L 595.9643742964718,379.6293064268525 L 581.7102685262788,346.9957697883998 L 548.5556986252756,359.99198998969564 L 561.5519188265714,326.8374200886924 L 528.9183821881187,312.58331431849945 L 561.5519188265714,298.3292085483065 L 548.5556986252756,265.17463864730325 L 581.7102685262788,278.1708588485991 Z" fill="none" stroke="#00A86B" stroke-width="2.992041588990037" /><path d="M 744.9554678705897,245.53732221014639 L 759.2095736407827,278.1708588485991 L 792.3641435417859,265.17463864730325 L 779.36792334049,298.3292085483065 L 812.0014599789428,312.58331431849945 L 779.36792334049,326.8374200886924 L 792.3641435417859,359.99198998969564 L 759.2095736407827,346.9957697883998 L 744.9554678705897,379.6293064268525 L 730.7013621003968,346.9957697883998 L 697.5467921993935,359.99198998969564 L 710.5430124006893,326.8374200886924 L 677.9094757622366,312.58331431849945 L 710.5430124006893,298.3292085483065 L 697.5467921993935,265.17463864730325 L 730.7013621003968,278.1708588485991 Z" fill="none" stroke="#00A86B" stroke-width="2.992041588990037" /><path d="M 893.9465614447076,245.53732221014639 L 908.2006672149006,278.1708588485991 L 941.3552371159038,265.17463864730325 L 928.359016914608,298.3292085483065 L 960.9925535530607,312.58331431849945 L 928.359016914608,326.8374200886924 L 941.3552371159038,359.99198998969564 L 908.2006672149006,346.9957697883998 L 893.9465614447076,379.6293064268525 L 879.6924556745147,346.9957697883998 L 846.5378857735114,359.99198998969564 L 859.5341059748073,326.8374200886924 L 826.9005693363546,312.58331431849945 L 859.5341059748073,298.3292085483065 L 846.5378857735114,265.17463864730325 L 879.6924556745147,278.1708588485991 Z" fill="none" stroke="#00A86B" stroke-width="2.992041588990037" /><path d="M 1042.9376550188256,245.53732221014639 L 1057.1917607890184,278.1708588485991 L 1090.346330690022,265.17463864730325 L 1077.350110488726,298.3292085483065 L 1109.9836471271788,312.58331431849945 L 1077.350110488726,326.8374200886924 L 1090.346330690022,359.99198998969564 L 1057.1917607890184,346.9957697883998 L 1042.9376550188256,379.6293064268525 L 1028.6835492486327,346.9957697883998 L 995.5289793476294,359.99198998969564 L 1008.5251995489252,326.8374200886924 L 975.8916629104725,312.58331431849945 L 1008.5251995489252,298.3292085483065 L 995.5289793476294,265.17463864730325 L 1028.6835492486325,278.1708588485991 Z" fill="none" stroke="#00A86B" stroke-width="2.992041588990037" /><path d="M 1191.9287485929435,245.53732221014639 L 1206.1828543631364,278.1708588485991 L 1239.3374242641398,265.17463864730325 L 1226.3412040628439,298.3292085483065 L 1258.9747407012967,312.58331431849945 L 1226.3412040628439,326.8374200886924 L 1239.3374242641398,359.99198998969564 L 1206.1828543631364,346.9957697883998 L 1191.9287485929435,379.6293064268525 L 1177.6746428227507,346.9957697883998 L 1144.5200729217472,359.99198998969564 L 1157.5162931230432,326.8374200886924 L 1124.8827564845903,312.58331431849945 L 1157.5162931230432,298.3292085483065 L 1144.5200729217472,265.17463864730325 L 1177.6746428227505,278.1708588485991 Z" fill="none" stroke="#00A86B" stroke-width="2.992041588990037" /><path d="M 1340.9198421670617,245.53732221014639 L 1355.1739479372545,278.1708588485991 L 1388.328517838258,265.17463864730325 L 1375.332297636962,298.3292085483065 L 1407.9658342754149,312.58331431849945 L 1375.332297636962,326.8374200886924 L 1388.328517838258,359.99198998969564 L 1355.1739479372545,346.9957697883998 L 1340.9198421670617,379.6293064268525 L 1326.6657363968689,346.9957697883998 L 1293.5111664958654,359.99198998969564 L 1306.5073866971613,326.8374200886924 L 1273.8738500587085,312.58331431849945 L 1306.5073866971613,298.3292085483065 L 1293.5111664958654,265.17463864730325 L 1326.6657363968686,278.1708588485991 Z" fill="none" stroke="#00A86B" stroke-width="2.992041588990037" /><path d="M -74.49554678705897,374.5636092453325 L -60.241441016866034,407.1971458837852 L -27.086871115862756,394.20092568248936 L -40.083091317158605,427.3554955834926 L -7.449554678705894,441.60960135368555 L -40.083091317158605,455.8637071238785 L -27.086871115862756,489.01827702488174 L -60.241441016866034,476.0220568235859 L -74.49554678705897,508.6555934620386 L -88.74965255725189,476.0220568235859 L -121.90422245825518,489.01827702488174 L -108.90800225695932,455.8637071238785 L -141.54153889541203,441.60960135368555 L -108.90800225695932,427.3554955834926 L -121.90422245825519,394.20092568248936 L -88.74965255725192,407.1971458837852 Z" fill="none" stroke="#00A86B" stroke-width="2.992041588990037" /><path d="M 74.49554678705897,374.5636092453325 L 88.7496525572519,407.1971458837852 L 121.90422245825519,394.20092568248936 L 108.90800225695934,427.3554955834926 L 141.54153889541203,441.60960135368555 L 108.90800225695934,455.8637071238785 L 121.90422245825519,489.01827702488174 L 88.7496525572519,476.0220568235859 L 74.49554678705897,508.6555934620386 L 60.24144101686604,476.0220568235859 L 27.086871115862763,489.01827702488174 L 40.08309131715861,455.8637071238785 L 7.449554678705894,441.60960135368555 L 40.08309131715861,427.3554955834926 L 27.08687111586275,394.20092568248936 L 60.24144101686602,407.1971458837852 Z" fill="none" stroke="#00A86B" stroke-width="2.992041588990037" /><path d="M 223.4866403611769,374.5636092453325 L 237.74074613136983,407.1971458837852 L 270.8953160323731,394.20092568248936 L 257.89909583107726,427.3554955834926 L 290.53263246953,441.60960135368555 L 257.89909583107726,455.8637071238785 L 270.8953160323731,489.01827702488174 L 237.74074613136983,476.0220568235859 L 223.4866403611769,508.6555934620386 L 209.232534590984,476.0220568235859 L 176.07796468998072,489.01827702488174 L 189.07418489127656,455.8637071238785 L 156.44064825282385,441.60960135368555 L 189.07418489127656,427.3554955834926 L 176.0779646899807,394.20092568248936 L 209.23253459098396,407.1971458837852 Z" fill="none" stroke="#00A86B" stroke-width="2.992041588990037" /><path d="M 372.47773393529485,374.5636092453325 L 386.7318397054878,407.1971458837852 L 419.88640960649104,394.20092568248936 L 406.8901894051952,427.3554955834926 L 439.5237260436479,441.60960135368555 L 406.8901894051952,455.8637071238785 L 419.88640960649104,489.01827702488174 L 386.7318397054878,476.0220568235859 L 372.47773393529485,508.6555934620386 L 358.2236281651019,476.0220568235859 L 325.06905826409866,489.01827702488174 L 338.0652784653945,455.8637071238785 L 305.4317418269418,441.60960135368555 L 338.0652784653945,427.3554955834926 L 325.06905826409866,394.20092568248936 L 358.2236281651019,407.1971458837852 Z" fill="none" stroke="#00A86B" stroke-width="2.992041588990037" /><path d="M 521.4688275094128,374.5636092453325 L 535.7229332796057,407.1971458837852 L 568.877503180609,394.20092568248936 L 555.8812829793131,427.3554955834926 L 588.5148196177659,441.60960135368555 L 555.8812829793131,455.8637071238785 L 568.877503180609,489.01827702488174 L 535.7229332796057,476.0220568235859 L 521.4688275094128,508.6555934620386 L 507.21472173921984,476.0220568235859 L 474.0601518382166,489.01827702488174 L 487.05637203951244,455.8637071238785 L 454.42283540105973,441.60960135368555 L 487.05637203951244,427.3554955834926 L 474.0601518382166,394.20092568248936 L 507.21472173921984,407.1971458837852 Z" fill="none" stroke="#00A86B" stroke-width="2.992041588990037" /><path d="M 670.4599210835307,374.5636092453325 L 684.7140268537237,407.1971458837852 L 717.8685967547269,394.20092568248936 L 704.8723765534311,427.3554955834926 L 737.5059131918838,441.60960135368555 L 704.8723765534311,455.8637071238785 L 717.8685967547269,489.01827702488174 L 684.7140268537237,476.0220568235859 L 670.4599210835307,508.6555934620386 L 656.2058153133378,476.0220568235859 L 623.0512454123345,489.01827702488174 L 636.0474656136304,455.8637071238785 L 603.4139289751777,441.60960135368555 L 636.0474656136304,427.3554955834926 L 623.0512454123345,394.20092568248936 L 656.2058153133378,407.1971458837852 Z" fill="none" stroke="#00A86B" stroke-width="2.992041588990037" /><path d="M 819.4510146576487,374.5636092453325 L 833.7051204278416,407.1971458837852 L 866.8596903288449,394.20092568248936 L 853.863470127549,427.3554955834926 L 886.4970067660017,441.60960135368555 L 853.863470127549,455.8637071238785 L 866.8596903288449,489.01827702488174 L 833.7051204278416,476.0220568235859 L 819.4510146576487,508.6555934620386 L 805.1969088874557,476.0220568235859 L 772.0423389864525,489.01827702488174 L 785.0385591877483,455.8637071238785 L 752.4050225492956,441.60960135368555 L 785.0385591877483,427.3554955834926 L 772.0423389864525,394.20092568248936 L 805.1969088874557,407.1971458837852 Z" fill="none" stroke="#00A86B" stroke-width="2.992041588990037" /><path d="M 968.4421082317666,374.5636092453325 L 982.6962140019596,407.1971458837852 L 1015.8507839029628,394.20092568248936 L 1002.854563701667,427.3554955834926 L 1035.4881003401197,441.60960135368555 L 1002.854563701667,455.8637071238785 L 1015.8507839029628,489.01827702488174 L 982.6962140019596,476.0220568235859 L 968.4421082317666,508.6555934620386 L 954.1880024615737,476.0220568235859 L 921.0334325605704,489.01827702488174 L 934.0296527618663,455.8637071238785 L 901.3961161234135,441.60960135368555 L 934.0296527618663,427.3554955834926 L 921.0334325605704,394.20092568248936 L 954.1880024615737,407.1971458837852 Z" fill="none" stroke="#00A86B" stroke-width="2.992041588990037" /><path d="M 1117.4332018058844,374.5636092453325 L 1131.6873075760773,407.1971458837852 L 1164.8418774770807,394.20092568248936 L 1151.8456572757848,427.3554955834926 L 1184.4791939142376,441.60960135368555 L 1151.8456572757848,455.8637071238785 L 1164.8418774770807,489.01827702488174 L 1131.6873075760773,476.0220568235859 L 1117.4332018058844,508.6555934620386 L 1103.1790960356916,476.0220568235859 L 1070.0245261346881,489.01827702488174 L 1083.020746335984,455.8637071238785 L 1050.3872096975313,441.60960135368555 L 1083.020746335984,427.3554955834926 L 1070.0245261346881,394.20092568248936 L 1103.1790960356914,407.1971458837852 Z" fill="none" stroke="#00A86B" stroke-width="2.992041588990037" /><path d="M 1266.4242953800026,374.5636092453325 L 1280.6784011501954,407.1971458837852 L 1313.832971051199,394.20092568248936 L 1300.836750849903,427.3554955834926 L 1333.4702874883558,441.60960135368555 L 1300.836750849903,455.8637071238785 L 1313.832971051199,489.01827702488174 L 1280.6784011501954,476.0220568235859 L 1266.4242953800026,508.6555934620386 L 1252.1701896098098,476.0220568235859 L 1219.0156197088063,489.01827702488174 L 1232.0118399101023,455.8637071238785 L 1199.3783032716494,441.60960135368555 L 1232.0118399101023,427.3554955834926 L 1219.0156197088063,394.20092568248936 L 1252.1701896098095,407.1971458837852 Z" fill="none" stroke="#00A86B" stroke-width="2.992041588990037" /><path d="M 4.105382981557665e-15,503.5898962805186 L 14.254105770192933,536.2234329189713 L 47.408675671196214,523.2272127176755 L 34.412455469900365,556.3817826186787 L 67.04599210835308,570.6358883888716 L 34.412455469900365,584.8899941590646 L 47.408675671196214,618.0445640600678 L 14.254105770192933,605.048343858772 L 4.105382981557665e-15,637.6818804972247 L -14.254105770192929,605.048343858772 L -47.40867567119621,618.0445640600678 L -34.41245546990036,584.8899941590646 L -67.04599210835308,570.6358883888716 L -34.41245546990036,556.3817826186787 L -47.40867567119622,523.2272127176755 L -14.254105770192952,536.2234329189713 Z" fill="none" stroke="#00A86B" stroke-width="2.992041588990037" /><path d="M 148.99109357411794,503.5898962805186 L 163.24519934431086,536.2234329189713 L 196.39976924531416,523.2272127176755 L 183.4035490440183,556.3817826186787 L 216.037085682471,570.6358883888716 L 183.4035490440183,584.8899941590646 L 196.39976924531416,618.0445640600678 L 163.24519934431086,605.048343858772 L 148.99109357411794,637.6818804972247 L 134.73698780392502,605.048343858772 L 101.58241790292173,618.0445640600678 L 114.57863810421759,584.8899941590646 L 81.94510146576486,570.6358883888716 L 114.57863810421759,556.3817826186787 L 101.58241790292172,523.2272127176755 L 134.736987803925,536.2234329189713 Z" fill="none" stroke="#00A86B" stroke-width="2.992041588990037" /><path d="M 297.9821871482359,503.5898962805186 L 312.23629291842883,536.2234329189713 L 345.3908628194321,523.2272127176755 L 332.39464261813623,556.3817826186787 L 365.02817925658894,570.6358883888716 L 332.39464261813623,584.8899941590646 L 345.3908628194321,618.0445640600678 L 312.23629291842883,605.048343858772 L 297.9821871482359,637.6818804972247 L 283.72808137804293,605.048343858772 L 250.5735114770397,618.0445640600678 L 263.56973167833553,584.8899941590646 L 230.93619503988282,570.6358883888716 L 263.56973167833553,556.3817826186787 L 250.57351147703966,523.2272127176755 L 283.72808137804293,536.2234329189713 Z" fill="none" stroke="#00A86B" stroke-width="2.992041588990037" /><path d="M 446.9732807223538,503.5898962805186 L 461.22738649254677,536.2234329189713 L 494.38195639355,523.2272127176755 L 481.38573619225417,556.3817826186787 L 514.0192728307069,570.6358883888716 L 481.38573619225417,584.8899941590646 L 494.38195639355,618.0445640600678 L 461.22738649254677,605.048343858772 L 446.9732807223538,637.6818804972247 L 432.71917495216087,605.048343858772 L 399.5646050511576,618.0445640600678 L 412.56082525245347,584.8899941590646 L 379.92728861400076,570.6358883888716 L 412.56082525245347,556.3817826186787 L 399.5646050511576,523.2272127176755 L 432.71917495216087,536.2234329189713 Z" fill="none" stroke="#00A86B" stroke-width="2.992041588990037" /><path d="M 595.9643742964718,503.5898962805186 L 610.2184800666647,536.2234329189713 L 643.373049967668,523.2272127176755 L 630.3768297663721,556.3817826186787 L 663.0103664048248,570.6358883888716 L 630.3768297663721,584.8899941590646 L 643.373049967668,618.0445640600678 L 610.2184800666647,605.048343858772 L 595.9643742964718,637.6818804972247 L 581.7102685262788,605.048343858772 L 548.5556986252756,618.0445640600678 L 561.5519188265714,584.8899941590646 L 528.9183821881187,570.6358883888716 L 561.5519188265714,556.3817826186787 L 548.5556986252756,523.2272127176755 L 581.7102685262788,536.2234329189713 Z" fill="none" stroke="#00A86B" stroke-width="2.992041588990037" /><path d="M 744.9554678705897,503.5898962805186 L 759.2095736407827,536.2234329189713 L 792.3641435417859,523.2272127176755 L 779.36792334049,556.3817826186787 L 812.0014599789428,570.6358883888716 L 779.36792334049,584.8899941590646 L 792.3641435417859,618.0445640600678 L 759.2095736407827,605.048343858772 L 744.9554678705897,637.6818804972247 L 730.7013621003968,605.048343858772 L 697.5467921993935,618.0445640600678 L 710.5430124006893,584.8899941590646 L 677.9094757622366,570.6358883888716 L 710.5430124006893,556.3817826186787 L 697.5467921993935,523.2272127176755 L 730.7013621003968,536.2234329189713 Z" fill="none" stroke="#00A86B" stroke-width="2.992041588990037" /><path d="M 893.9465614447076,503.5898962805186 L 908.2006672149006,536.2234329189713 L 941.3552371159038,523.2272127176755 L 928.359016914608,556.3817826186787 L 960.9925535530607,570.6358883888716 L 928.359016914608,584.8899941590646 L 941.3552371159038,618.0445640600678 L 908.2006672149006,605.048343858772 L 893.9465614447076,637.6818804972247 L 879.6924556745147,605.048343858772 L 846.5378857735114,618.0445640600678 L 859.5341059748073,584.8899941590646 L 826.9005693363546,570.6358883888716 L 859.5341059748073,556.3817826186787 L 846.5378857735114,523.2272127176755 L 879.6924556745147,536.2234329189713 Z" fill="none" stroke="#00A86B" stroke-width="2.992041588990037" /><path d="M 1042.9376550188256,503.5898962805186 L 1057.1917607890184,536.2234329189713 L 1090.346330690022,523.2272127176755 L 1077.350110488726,556.3817826186787 L 1109.9836471271788,570.6358883888716 L 1077.350110488726,584.8899941590646 L 1090.346330690022,618.0445640600678 L 1057.1917607890184,605.048343858772 L 1042.9376550188256,637.6818804972247 L 1028.6835492486327,605.048343858772 L 995.5289793476294,618.0445640600678 L 1008.5251995489252,584.8899941590646 L 975.8916629104725,570.6358883888716 L 1008.5251995489252,556.3817826186787 L 995.5289793476294,523.2272127176755 L 1028.6835492486325,536.2234329189713 Z" fill="none" stroke="#00A86B" stroke-width="2.992041588990037" /><path d="M 1191.9287485929435,503.5898962805186 L 1206.1828543631364,536.2234329189713 L 1239.3374242641398,523.2272127176755 L 1226.3412040628439,556.3817826186787 L 1258.9747407012967,570.6358883888716 L 1226.3412040628439,584.8899941590646 L 1239.3374242641398,618.0445640600678 L 1206.1828543631364,605.048343858772 L 1191.9287485929435,637.6818804972247 L 1177.6746428227507,605.048343858772 L 1144.5200729217472,618.0445640600678 L 1157.5162931230432,584.8899941590646 L 1124.8827564845903,570.6358883888716 L 1157.5162931230432,556.3817826186787 L 1144.5200729217472,523.2272127176755 L 1177.6746428227505,536.2234329189713 Z" fill="none" stroke="#00A86B" stroke-width="2.992041588990037" /><path d="M 1340.9198421670617,503.5898962805186 L 1355.1739479372545,536.2234329189713 L 1388.328517838258,523.2272127176755 L 1375.332297636962,556.3817826186787 L 1407.9658342754149,570.6358883888716 L 1375.332297636962,584.8899941590646 L 1388.328517838258,618.0445640600678 L 1355.1739479372545,605.048343858772 L 1340.9198421670617,637.6818804972247 L 1326.6657363968689,605.048343858772 L 1293.5111664958654,618.0445640600678 L 1306.5073866971613,584.8899941590646 L 1273.8738500587085,570.6358883888716 L 1306.5073866971613,556.3817826186787 L 1293.5111664958654,523.2272127176755 L 1326.6657363968686,536.2234329189713 Z" fill="none" stroke="#00A86B" stroke-width="2.992041588990037" /><path d="M -74.49554678705897,632.6161833157048 L -60.241441016866034,665.2497199541575 L -27.086871115862756,652.2534997528617 L -40.083091317158605,685.4080696538649 L -7.449554678705894,699.6621754240579 L -40.083091317158605,713.9162811942508 L -27.086871115862756,747.070851095254 L -60.241441016866034,734.0746308939582 L -74.49554678705897,766.7081675324109 L -88.74965255725189,734.0746308939582 L -121.90422245825518,747.070851095254 L -108.90800225695932,713.9162811942508 L -141.54153889541203,699.6621754240579 L -108.90800225695932,685.4080696538649 L -121.90422245825519,652.2534997528617 L -88.74965255725192,665.2497199541575 Z" fill="none" stroke="#00A86B" stroke-width="2.992041588990037" /><path d="M 74.49554678705897,632.6161833157048 L 88.7496525572519,665.2497199541575 L 121.90422245825519,652.2534997528617 L 108.90800225695934,685.4080696538649 L 141.54153889541203,699.6621754240579 L 108.90800225695934,713.9162811942508 L 121.90422245825519,747.070851095254 L 88.7496525572519,734.0746308939582 L 74.49554678705897,766.7081675324109 L 60.24144101686604,734.0746308939582 L 27.086871115862763,747.070851095254 L 40.08309131715861,713.9162811942508 L 7.449554678705894,699.6621754240579 L 40.08309131715861,685.4080696538649 L 27.08687111586275,652.2534997528617 L 60.24144101686602,665.2497199541575 Z" fill="none" stroke="#00A86B" stroke-width="2.992041588990037" /><path d="M 223.4866403611769,632.6161833157048 L 237.74074613136983,665.2497199541575 L 270.8953160323731,652.2534997528617 L 257.89909583107726,685.4080696538649 L 290.53263246953,699.6621754240579 L 257.89909583107726,713.9162811942508 L 270.8953160323731,747.070851095254 L 237.74074613136983,734.0746308939582 L 223.4866403611769,766.7081675324109 L 209.232534590984,734.0746308939582 L 176.07796468998072,747.070851095254 L 189.07418489127656,713.9162811942508 L 156.44064825282385,699.6621754240579 L 189.07418489127656,685.4080696538649 L 176.0779646899807,652.2534997528617 L 209.23253459098396,665.2497199541575 Z" fill="none" stroke="#00A86B" stroke-width="2.992041588990037" /><path d="M 372.47773393529485,632.6161833157048 L 386.7318397054878,665.2497199541575 L 419.88640960649104,652.2534997528617 L 406.8901894051952,685.4080696538649 L 439.5237260436479,699.6621754240579 L 406.8901894051952,713.9162811942508 L 419.88640960649104,747.070851095254 L 386.7318397054878,734.0746308939582 L 372.47773393529485,766.7081675324109 L 358.2236281651019,734.0746308939582 L 325.06905826409866,747.070851095254 L 338.0652784653945,713.9162811942508 L 305.4317418269418,699.6621754240579 L 338.0652784653945,685.4080696538649 L 325.06905826409866,652.2534997528617 L 358.2236281651019,665.2497199541575 Z" fill="none" stroke="#00A86B" stroke-width="2.992041588990037" /><path d="M 521.4688275094128,632.6161833157048 L 535.7229332796057,665.2497199541575 L 568.877503180609,652.2534997528617 L 555.8812829793131,685.4080696538649 L 588.5148196177659,699.6621754240579 L 555.8812829793131,713.9162811942508 L 568.877503180609,747.070851095254 L 535.7229332796057,734.0746308939582 L 521.4688275094128,766.7081675324109 L 507.21472173921984,734.0746308939582 L 474.0601518382166,747.070851095254 L 487.05637203951244,713.9162811942508 L 454.42283540105973,699.6621754240579 L 487.05637203951244,685.4080696538649 L 474.0601518382166,652.2534997528617 L 507.21472173921984,665.2497199541575 Z" fill="none" stroke="#00A86B" stroke-width="2.992041588990037" /><path d="M 670.4599210835307,632.6161833157048 L 684.7140268537237,665.2497199541575 L 717.8685967547269,652.2534997528617 L 704.8723765534311,685.4080696538649 L 737.5059131918838,699.6621754240579 L 704.8723765534311,713.9162811942508 L 717.8685967547269,747.070851095254 L 684.7140268537237,734.0746308939582 L 670.4599210835307,766.7081675324109 L 656.2058153133378,734.0746308939582 L 623.0512454123345,747.070851095254 L 636.0474656136304,713.9162811942508 L 603.4139289751777,699.6621754240579 L 636.0474656136304,685.4080696538649 L 623.0512454123345,652.2534997528617 L 656.2058153133378,665.2497199541575 Z" fill="none" stroke="#00A86B" stroke-width="2.992041588990037" /><path d="M 819.4510146576487,632.6161833157048 L 833.7051204278416,665.2497199541575 L 866.8596903288449,652.2534997528617 L 853.863470127549,685.4080696538649 L 886.4970067660017,699.6621754240579 L 853.863470127549,713.9162811942508 L 866.8596903288449,747.070851095254 L 833.7051204278416,734.0746308939582 L 819.4510146576487,766.7081675324109 L 805.1969088874557,734.0746308939582 L 772.0423389864525,747.070851095254 L 785.0385591877483,713.9162811942508 L 752.4050225492956,699.6621754240579 L 785.0385591877483,685.4080696538649 L 772.0423389864525,652.2534997528617 L 805.1969088874557,665.2497199541575 Z" fill="none" stroke="#00A86B" stroke-width="2.992041588990037" /><path d="M 968.4421082317666,632.6161833157048 L 982.6962140019596,665.2497199541575 L 1015.8507839029628,652.2534997528617 L 1002.854563701667,685.4080696538649 L 1035.4881003401197,699.6621754240579 L 1002.854563701667,713.9162811942508 L 1015.8507839029628,747.070851095254 L 982.6962140019596,734.0746308939582 L 968.4421082317666,766.7081675324109 L 954.1880024615737,734.0746308939582 L 921.0334325605704,747.070851095254 L 934.0296527618663,713.9162811942508 L 901.3961161234135,699.6621754240579 L 934.0296527618663,685.4080696538649 L 921.0334325605704,652.2534997528617 L 954.1880024615737,665.2497199541575 Z" fill="none" stroke="#00A86B" stroke-width="2.992041588990037" /><path d="M 1117.4332018058844,632.6161833157048 L 1131.6873075760773,665.2497199541575 L 1164.8418774770807,652.2534997528617 L 1151.8456572757848,685.4080696538649 L 1184.4791939142376,699.6621754240579 L 1151.8456572757848,713.9162811942508 L 1164.8418774770807,747.070851095254 L 1131.6873075760773,734.0746308939582 L 1117.4332018058844,766.7081675324109 L 1103.1790960356916,734.0746308939582 L 1070.0245261346881,747.070851095254 L 1083.020746335984,713.9162811942508 L 1050.3872096975313,699.6621754240579 L 1083.020746335984,685.4080696538649 L 1070.0245261346881,652.2534997528617 L 1103.1790960356914,665.2497199541575 Z" fill="none" stroke="#00A86B" stroke-width="2.992041588990037" /><path d="M 1266.4242953800026,632.6161833157048 L 1280.6784011501954,665.2497199541575 L 1313.832971051199,652.2534997528617 L 1300.836750849903,685.4080696538649 L 1333.4702874883558,699.6621754240579 L 1300.836750849903,713.9162811942508 L 1313.832971051199,747.070851095254 L 1280.6784011501954,734.0746308939582 L 1266.4242953800026,766.7081675324109 L 1252.1701896098098,734.0746308939582 L 1219.0156197088063,747.070851095254 L 1232.0118399101023,713.9162811942508 L 1199.3783032716494,699.6621754240579 L 1232.0118399101023,685.4080696538649 L 1219.0156197088063,652.2534997528617 L 1252.1701896098095,665.2497199541575 Z" fill="none" stroke="#00A86B" stroke-width="2.992041588990037" /><line x1="67.04599210835308" y1="54.53074024812716" x2="81.94510146576486" y2="54.53074024812716" stroke="#00A86B" stroke-width="0.5"/><line x1="216.037085682471" y1="54.53074024812716" x2="230.93619503988282" y2="54.53074024812716" stroke="#00A86B" stroke-width="0.5"/><line x1="365.02817925658894" y1="54.53074024812716" x2="379.92728861400076" y2="54.53074024812716" stroke="#00A86B" stroke-width="0.5"/><line x1="514.0192728307069" y1="54.53074024812716" x2="528.9183821881187" y2="54.53074024812716" stroke="#00A86B" stroke-width="0.5"/><line x1="663.0103664048248" y1="54.53074024812716" x2="677.9094757622366" y2="54.53074024812716" stroke="#00A86B" stroke-width="0.5"/><line x1="812.0014599789428" y1="54.53074024812716" x2="826.9005693363546" y2="54.53074024812716" stroke="#00A86B" stroke-width="0.5"/><line x1="960.9925535530607" y1="54.53074024812716" x2="975.8916629104725" y2="54.53074024812716" stroke="#00A86B" stroke-width="0.5"/><line x1="1109.9836471271788" y1="54.53074024812716" x2="1124.8827564845903" y2="54.53074024812716" stroke="#00A86B" stroke-width="0.5"/><line x1="141.54153889541203" y1="183.5570272833133" x2="156.44064825282385" y2="183.5570272833133" stroke="#00A86B" stroke-width="0.5"/><line x1="290.53263246953" y1="183.5570272833133" x2="305.4317418269418" y2="183.5570272833133" stroke="#00A86B" stroke-width="0.5"/><line x1="439.5237260436479" y1="183.5570272833133" x2="454.42283540105973" y2="183.5570272833133" stroke="#00A86B" stroke-width="0.5"/><line x1="588.5148196177659" y1="183.5570272833133" x2="603.4139289751777" y2="183.5570272833133" stroke="#00A86B" stroke-width="0.5"/><line x1="737.5059131918838" y1="183.5570272833133" x2="752.4050225492956" y2="183.5570272833133" stroke="#00A86B" stroke-width="0.5"/><line x1="886.4970067660017" y1="183.5570272833133" x2="901.3961161234135" y2="183.5570272833133" stroke="#00A86B" stroke-width="0.5"/><line x1="1035.4881003401197" y1="183.5570272833133" x2="1050.3872096975313" y2="183.5570272833133" stroke="#00A86B" stroke-width="0.5"/><line x1="1184.4791939142376" y1="183.5570272833133" x2="1199.3783032716494" y2="183.5570272833133" stroke="#00A86B" stroke-width="0.5"/><line x1="67.04599210835308" y1="312.58331431849945" x2="81.94510146576486" y2="312.58331431849945" stroke="#00A86B" stroke-width="0.5"/><line x1="216.037085682471" y1="312.58331431849945" x2="230.93619503988282" y2="312.58331431849945" stroke="#00A86B" stroke-width="0.5"/><line x1="365.02817925658894" y1="312.58331431849945" x2="379.92728861400076" y2="312.58331431849945" stroke="#00A86B" stroke-width="0.5"/><line x1="514.0192728307069" y1="312.58331431849945" x2="528.9183821881187" y2="312.58331431849945" stroke="#00A86B" stroke-width="0.5"/><line x1="663.0103664048248" y1="312.58331431849945" x2="677.9094757622366" y2="312.58331431849945" stroke="#00A86B" stroke-width="0.5"/><line x1="812.0014599789428" y1="312.58331431849945" x2="826.9005693363546" y2="312.58331431849945" stroke="#00A86B" stroke-width="0.5"/><line x1="960.9925535530607" y1="312.58331431849945" x2="975.8916629104725" y2="312.58331431849945" stroke="#00A86B" stroke-width="0.5"/><line x1="1109.9836471271788" y1="312.58331431849945" x2="1124.8827564845903" y2="312.58331431849945" stroke="#00A86B" stroke-width="0.5"/><line x1="141.54153889541203" y1="441.60960135368555" x2="156.44064825282385" y2="441.60960135368555" stroke="#00A86B" stroke-width="0.5"/><line x1="290.53263246953" y1="441.60960135368555" x2="305.4317418269418" y2="441.60960135368555" stroke="#00A86B" stroke-width="0.5"/><line x1="439.5237260436479" y1="441.60960135368555" x2="454.42283540105973" y2="441.60960135368555" stroke="#00A86B" stroke-width="0.5"/><line x1="588.5148196177659" y1="441.60960135368555" x2="603.4139289751777" y2="441.60960135368555" stroke="#00A86B" stroke-width="0.5"/><line x1="737.5059131918838" y1="441.60960135368555" x2="752.4050225492956" y2="441.60960135368555" stroke="#00A86B" stroke-width="0.5"/><line x1="886.4970067660017" y1="441.60960135368555" x2="901.3961161234135" y2="441.60960135368555" stroke="#00A86B" stroke-width="0.5"/><line x1="1035.4881003401197" y1="441.60960135368555" x2="1050.3872096975313" y2="441.60960135368555" stroke="#00A86B" stroke-width="0.5"/><line x1="1184.4791939142376" y1="441.60960135368555" x2="1199.3783032716494" y2="441.60960135368555" stroke="#00A86B" stroke-width="0.5"/><line x1="67.04599210835308" y1="570.6358883888716" x2="81.94510146576486" y2="570.6358883888716" stroke="#00A86B" stroke-width="0.5"/><line x1="216.037085682471" y1="570.6358883888716" x2="230.93619503988282" y2="570.6358883888716" stroke="#00A86B" stroke-width="0.5"/><line x1="365.02817925658894" y1="570.6358883888716" x2="379.92728861400076" y2="570.6358883888716" stroke="#00A86B" stroke-width="0.5"/><line x1="514.0192728307069" y1="570.6358883888716" x2="528.9183821881187" y2="570.6358883888716" stroke="#00A86B" stroke-width="0.5"/><line x1="663.0103664048248" y1="570.6358883888716" x2="677.9094757622366" y2="570.6358883888716" stroke="#00A86B" stroke-width="0.5"/><line x1="812.0014599789428" y1="570.6358883888716" x2="826.9005693363546" y2="570.6358883888716" stroke="#00A86B" stroke-width="0.5"/><line x1="960.9925535530607" y1="570.6358883888716" x2="975.8916629104725" y2="570.6358883888716" stroke="#00A86B" stroke-width="0.5"/><line x1="1109.9836471271788" y1="570.6358883888716" x2="1124.8827564845903" y2="570.6358883888716" stroke="#00A86B" stroke-width="0.5"/></g><g opacity="0.2286199451324623"><path d="M 302.35038413775635 37.93657423832294 L 249.39974601782265 37.93657423832294 L 249.39974601782265 0" fill="none" stroke="#FFFFFF" stroke-width="1.361801147862245" stroke-linecap="square"/><path d="M 838.0460862247487 488.75384353508883 L 807.583365332681 488.75384353508883 L 807.583365332681 531.612269222834 L 770.4769577210036 531.612269222834" fill="none" stroke="#FFFFFF" stroke-width="1.361801147862245" stroke-linecap="square"/><path d="M 1179.1687494046841 624.607086472496 L 1179.1687494046841 571.2460319281432 L 1121.471902684147 571.2460319281432 L 1121.471902684147 518.7357836944478" fill="none" stroke="#FFFFFF" stroke-width="1.361801147862245" stroke-linecap="square"/><path d="M 24.235761176904553 588.2343182099212 L 79.74181908300478 588.2343182099212 L 79.74181908300478 627.2191202268538" fill="none" stroke="#FFFFFF" stroke-width="1.361801147862245" stroke-linecap="square"/><path d="M 905.3635601444931 11.390097146569797 L 905.3635601444931 70.78061234334963 L 854.189091940786 70.78061234334963" fill="none" stroke="#FFFFFF" stroke-width="1.361801147862245" stroke-linecap="square"/><line x1="939.2141823373802" y1="7.3846825395639435" x2="939.2141823373802" y2="220.85200248512072" stroke="#FFFFFF" stroke-width="0.5" stroke-dasharray="5,10"/><circle cx="770.4769577210036" cy="531.612269222834" r="3.677944184130963" fill="#FFFFFF"/><circle cx="838.0460862247487" cy="488.75384353508883" r="2.9423553473047708" fill="#FFFFFF"/><rect x="803.90542114855" y="485.07589935095785" width="7.355888368261926" height="7.355888368261926" fill="#FFFFFF"/><rect x="1175.4908052205533" y="567.5680877440122" width="7.355888368261926" height="7.355888368261926" fill="#FFFFFF"/><circle cx="1126.6693001271549" cy="307.04491152756145" r="6.239934192164436" fill="#FFFFFF"/><circle cx="517.2632219815921" cy="36.07262136231764" r="3.9572698391404937" fill="#FFFFFF"/></g><g opacity="0.2"><rect x="40" y="40" width="1120" height="550" fill="none" stroke="#666666" stroke-width="2" rx="8"/></g><g opacity="0.5573760271339565"><line x1="50" y1="50" x2="70" y2="50" stroke="#00D486" stroke-width="3"/><line x1="50" y1="50" x2="50" y2="70" stroke="#00D486" stroke-width="3"/><line x1="1150" y1="580" x2="1130" y2="580" stroke="#00D486" stroke-width="3"/><line x1="1150" y1="580" x2="1150" y2="560" stroke="#00D486" stroke-width="3"/></g></svg>