<svg xmlns="http://www.w3.org/2000/svg" width="1200" height="630" viewBox="0 0 1200 630"><rect x="0" y="0" width="1200" height="630" fill="#050510"/><g opacity="0.05"><line x1="0" y1="0" x2="0" y2="630" stroke="#4B5563" stroke-width="0.5"/><line x1="60" y1="0" x2="60" y2="630" stroke="#4B5563" stroke-width="0.5"/><line x1="120" y1="0" x2="120" y2="630" stroke="#4B5563" stroke-width="0.5"/><line x1="180" y1="0" x2="180" y2="630" stroke="#4B5563" stroke-width="0.5"/><line x1="240" y1="0" x2="240" y2="630" stroke="#4B5563" stroke-width="0.5"/><line x1="300" y1="0" x2="300" y2="630" stroke="#4B5563" stroke-width="0.5"/><line x1="360" y1="0" x2="360" y2="630" stroke="#4B5563" stroke-width="0.5"/><line x1="420" y1="0" x2="420" y2="630" stroke="#4B5563" stroke-width="0.5"/><line x1="480" y1="0" x2="480" y2="630" stroke="#4B5563" stroke-width="0.5"/><line x1="540" y1="0" x2="540" y2="630" stroke="#4B5563" stroke-width="0.5"/><line x1="600" y1="0" x2="600" y2="630" stroke="#4B5563" stroke-width="0.5"/><line x1="660" y1="0" x2="660" y2="630" stroke="#4B5563" stroke-width="0.5"/><line x1="720" y1="0" x2="720" y2="630" stroke="#4B5563" stroke-width="0.5"/><line x1="780" y1="0" x2="780" y2="630" stroke="#4B5563" stroke-width="0.5"/><line x1="840" y1="0" x2="840" y2="630" stroke="#4B5563" stroke-width="0.5"/><line x1="900" y1="0" x2="900" y2="630" stroke="#4B5563" stroke-width="0.5"/><line x1="960" y1="0" x2="960" y2="630" stroke="#4B5563" stroke-width="0.5"/><line x1="1020" y1="0" x2="1020" y2="630" stroke="#4B5563" stroke-width="0.5"/><line x1="1080" y1="0" x2="1080" y2="630" stroke="#4B5563" stroke-width="0.5"/><line x1="1140" y1="0" x2="1140" y2="630" stroke="#4B5563" stroke-width="0.5"/><line x1="1200" y1="0" x2="1200" y2="630" stroke="#4B5563" stroke-width="0.5"/><line x1="0" y1="0" x2="1200" y2="0" stroke="#4B5563" stroke-width="0.5"/><line x1="0" y1="60" x2="1200" y2="60" stroke="#4B5563" stroke-width="0.5"/><line x1="0" y1="120" x2="1200" y2="120" stroke="#4B5563" stroke-width="0.5"/><line x1="0" y1="180" x2="1200" y2="180" stroke="#4B5563" stroke-width="0.5"/><line x1="0" y1="240" x2="1200" y2="240" stroke="#4B5563" stroke-width="0.5"/><line x1="0" y1="300" x2="1200" y2="300" stroke="#4B5563" stroke-width="0.5"/><line x1="0" y1="360" x2="1200" y2="360" stroke="#4B5563" stroke-width="0.5"/><line x1="0" y1="420" x2="1200" y2="420" stroke="#4B5563" stroke-width="0.5"/><line x1="0" y1="480" x2="1200" y2="480" stroke="#4B5563" stroke-width="0.5"/><line x1="0" y1="540" x2="1200" y2="540" stroke="#4B5563" stroke-width="0.5"/><line x1="0" y1="600" x2="1200" y2="600" stroke="#4B5563" stroke-width="0.5"/><line x1="0" y1="660" x2="1200" y2="660" stroke="#4B5563" stroke-width="0.5"/></g><g opacity="0.16834678655413293"><path d="M -68.98990705130947,-131.080823397488 L -55.78925983683766,-100.85908858858994 L -25.084999052839983,-112.89481504977896 L -37.12072551402901,-82.19055426578129 L -6.898990705130949,-68.98990705130947 L -37.12072551402901,-55.789259836837665 L -25.084999052839983,-25.08499905283999 L -55.78925983683766,-37.12072551402901 L -68.98990705130947,-6.898990705130949 L -82.19055426578129,-37.12072551402901 L -112.89481504977896,-25.084999052839983 L -100.85908858858993,-55.789259836837644 L -131.080823397488,-68.98990705130946 L -100.85908858858993,-82.19055426578129 L -112.89481504977897,-112.89481504977896 L -82.1905542657813,-100.85908858858993 Z" fill="none" stroke="#0F52BA" stroke-width="2.6148186931921256" /><path d="M 68.98990705130947,-131.080823397488 L 82.19055426578129,-100.85908858858994 L 112.89481504977897,-112.89481504977896 L 100.85908858858994,-82.19055426578129 L 131.080823397488,-68.98990705130947 L 100.85908858858994,-55.789259836837665 L 112.89481504977897,-25.08499905283999 L 82.19055426578129,-37.12072551402901 L 68.98990705130947,-6.898990705130949 L 55.789259836837665,-37.12072551402901 L 25.08499905283999,-25.084999052839983 L 37.12072551402902,-55.789259836837644 L 6.898990705130949,-68.98990705130946 L 37.12072551402902,-82.19055426578129 L 25.084999052839976,-112.89481504977896 L 55.789259836837644,-100.85908858858993 Z" fill="none" stroke="#0F52BA" stroke-width="2.6148186931921256" /><path d="M 206.96972115392842,-131.080823397488 L 220.17036836840023,-100.85908858858994 L 250.87462915239792,-112.89481504977896 L 238.8389026912089,-82.19055426578129 L 269.06063750010696,-68.98990705130947 L 238.8389026912089,-55.789259836837665 L 250.87462915239792,-25.08499905283999 L 220.17036836840023,-37.12072551402901 L 206.96972115392842,-6.898990705130949 L 193.7690739394566,-37.12072551402901 L 163.06481315545892,-25.084999052839983 L 175.10053961664795,-55.789259836837644 L 144.8788048077499,-68.98990705130946 L 175.10053961664795,-82.19055426578129 L 163.06481315545892,-112.89481504977896 L 193.76907393945658,-100.85908858858993 Z" fill="none" stroke="#0F52BA" stroke-width="2.6148186931921256" /><path d="M 344.9495352565474,-131.080823397488 L 358.1501824710192,-100.85908858858994 L 388.85444325501686,-112.89481504977896 L 376.81871679382783,-82.19055426578129 L 407.0404516027259,-68.98990705130947 L 376.81871679382783,-55.789259836837665 L 388.85444325501686,-25.08499905283999 L 358.1501824710192,-37.12072551402901 L 344.9495352565474,-6.898990705130949 L 331.7488880420756,-37.12072551402901 L 301.0446272580779,-25.084999052839983 L 313.08035371926695,-55.789259836837644 L 282.8586189103689,-68.98990705130946 L 313.08035371926695,-82.19055426578129 L 301.04462725807787,-112.89481504977896 L 331.7488880420756,-100.85908858858993 Z" fill="none" stroke="#0F52BA" stroke-width="2.6148186931921256" /><path d="M 482.9293493591663,-131.080823397488 L 496.1299965736381,-100.85908858858994 L 526.8342573576358,-112.89481504977896 L 514.7985308964468,-82.19055426578129 L 545.0202657053449,-68.98990705130947 L 514.7985308964468,-55.789259836837665 L 526.8342573576358,-25.08499905283999 L 496.1299965736381,-37.12072551402901 L 482.9293493591663,-6.898990705130949 L 469.72870214469447,-37.12072551402901 L 439.0244413606968,-25.084999052839983 L 451.06016782188584,-55.789259836837644 L 420.83843301298776,-68.98990705130946 L 451.06016782188584,-82.19055426578129 L 439.02444136069676,-112.89481504977896 L 469.72870214469447,-100.85908858858993 Z" fill="none" stroke="#0F52BA" stroke-width="2.6148186931921256" /><path d="M 620.9091634617853,-131.080823397488 L 634.1098106762571,-100.85908858858994 L 664.8140714602548,-112.89481504977896 L 652.7783449990658,-82.19055426578129 L 683.0000798079639,-68.98990705130947 L 652.7783449990658,-55.789259836837665 L 664.8140714602548,-25.08499905283999 L 634.1098106762571,-37.12072551402901 L 620.9091634617853,-6.898990705130949 L 607.7085162473135,-37.12072551402901 L 577.0042554633158,-25.084999052839983 L 589.0399819245048,-55.789259836837644 L 558.8182471156067,-68.98990705130946 L 589.0399819245048,-82.19055426578129 L 577.0042554633158,-112.89481504977896 L 607.7085162473135,-100.85908858858993 Z" fill="none" stroke="#0F52BA" stroke-width="2.6148186931921256" /><path d="M 758.8889775644042,-131.080823397488 L 772.089624778876,-100.85908858858994 L 802.7938855628737,-112.89481504977896 L 790.7581591016847,-82.19055426578129 L 820.9798939105827,-68.98990705130947 L 790.7581591016847,-55.789259836837665 L 802.7938855628737,-25.08499905283999 L 772.089624778876,-37.12072551402901 L 758.8889775644042,-6.898990705130949 L 745.6883303499324,-37.12072551402901 L 714.9840695659346,-25.084999052839983 L 727.0197960271237,-55.789259836837644 L 696.7980612182256,-68.98990705130946 L 727.0197960271237,-82.19055426578129 L 714.9840695659346,-112.89481504977896 L 745.6883303499324,-100.85908858858993 Z" fill="none" stroke="#0F52BA" stroke-width="2.6148186931921256" /><path d="M 896.8687916670231,-131.080823397488 L 910.0694388814949,-100.85908858858994 L 940.7736996654926,-112.89481504977896 L 928.7379732043036,-82.19055426578129 L 958.9597080132016,-68.98990705130947 L 928.7379732043036,-55.789259836837665 L 940.7736996654926,-25.08499905283999 L 910.0694388814949,-37.12072551402901 L 896.8687916670231,-6.898990705130949 L 883.6681444525512,-37.12072551402901 L 852.9638836685535,-25.084999052839983 L 864.9996101297426,-55.789259836837644 L 834.7778753208445,-68.98990705130946 L 864.9996101297426,-82.19055426578129 L 852.9638836685535,-112.89481504977896 L 883.6681444525512,-100.85908858858993 Z" fill="none" stroke="#0F52BA" stroke-width="2.6148186931921256" /><path d="M 1034.848605769642,-131.080823397488 L 1048.0492529841138,-100.85908858858994 L 1078.7535137681116,-112.89481504977896 L 1066.7177873069224,-82.19055426578129 L 1096.9395221158206,-68.98990705130947 L 1066.7177873069224,-55.789259836837665 L 1078.7535137681116,-25.08499905283999 L 1048.0492529841138,-37.12072551402901 L 1034.848605769642,-6.898990705130949 L 1021.6479585551702,-37.12072551402901 L 990.9436977711725,-25.084999052839983 L 1002.9794242323616,-55.789259836837644 L 972.7576894234635,-68.98990705130946 L 1002.9794242323616,-82.19055426578129 L 990.9436977711725,-112.89481504977896 L 1021.6479585551702,-100.85908858858993 Z" fill="none" stroke="#0F52BA" stroke-width="2.6148186931921256" /><path d="M 1172.828419872261,-131.080823397488 L 1186.0290670867328,-100.85908858858994 L 1216.7333278707306,-112.89481504977896 L 1204.6976014095414,-82.19055426578129 L 1234.9193362184396,-68.98990705130947 L 1204.6976014095414,-55.789259836837665 L 1216.7333278707306,-25.08499905283999 L 1186.0290670867328,-37.12072551402901 L 1172.828419872261,-6.898990705130949 L 1159.6277726577894,-37.12072551402901 L 1128.9235118737915,-25.084999052839983 L 1140.9592383349807,-55.789259836837644 L 1110.7375035260825,-68.98990705130946 L 1140.9592383349807,-82.19055426578129 L 1128.9235118737915,-112.89481504977896 L 1159.6277726577891,-100.85908858858993 Z" fill="none" stroke="#0F52BA" stroke-width="2.6148186931921256" /><path d="M 1310.80823397488,-131.080823397488 L 1324.0088811893518,-100.85908858858994 L 1354.7131419733496,-112.89481504977896 L 1342.6774155121605,-82.19055426578129 L 1372.8991503210586,-68.98990705130947 L 1342.6774155121605,-55.789259836837665 L 1354.7131419733496,-25.08499905283999 L 1324.0088811893518,-37.12072551402901 L 1310.80823397488,-6.898990705130949 L 1297.6075867604084,-37.12072551402901 L 1266.9033259764105,-25.084999052839983 L 1278.9390524375997,-55.789259836837644 L 1248.7173176287015,-68.98990705130946 L 1278.9390524375997,-82.19055426578129 L 1266.9033259764105,-112.89481504977896 L 1297.6075867604081,-100.85908858858993 Z" fill="none" stroke="#0F52BA" stroke-width="2.6148186931921256" /><path d="M 3.80197209797368e-15,-11.59030438461999 L 13.200647214471811,18.631430424278072 L 43.90490799846949,6.595703963089051 L 31.86918153728046,37.299964747086726 L 62.090916346178524,50.50061196155853 L 31.86918153728046,63.70125917603034 L 43.90490799846949,94.40551996002802 L 13.200647214471811,82.36979349883899 L 3.80197209797368e-15,112.59152830773706 L -13.200647214471807,82.36979349883899 L -43.90490799846948,94.40551996002802 L -31.869181537280454,63.70125917603036 L -62.090916346178524,50.50061196155854 L -31.869181537280458,37.29996474708671 L -43.9049079984695,6.595703963089051 L -13.200647214471829,18.63143042427808 Z" fill="none" stroke="#0F52BA" stroke-width="2.6148186931921256" /><path d="M 137.97981410261895,-11.59030438461999 L 151.18046131709076,18.631430424278072 L 181.88472210108844,6.595703963089051 L 169.8489956398994,37.299964747086726 L 200.07073044879746,50.50061196155853 L 169.8489956398994,63.70125917603034 L 181.88472210108844,94.40551996002802 L 151.18046131709076,82.36979349883899 L 137.97981410261895,112.59152830773706 L 124.77916688814713,82.36979349883899 L 94.07490610414946,94.40551996002802 L 106.11063256533849,63.70125917603036 L 75.88889775644043,50.50061196155854 L 106.11063256533849,37.29996474708671 L 94.07490610414945,6.595703963089051 L 124.77916688814712,18.63143042427808 Z" fill="none" stroke="#0F52BA" stroke-width="2.6148186931921256" /><path d="M 275.9596282052379,-11.59030438461999 L 289.1602754197097,18.631430424278072 L 319.86453620370736,6.595703963089051 L 307.82880974251833,37.299964747086726 L 338.0505445514164,50.50061196155853 L 307.82880974251833,63.70125917603034 L 319.86453620370736,94.40551996002802 L 289.1602754197097,82.36979349883899 L 275.9596282052379,112.59152830773706 L 262.7589809907661,82.36979349883899 L 232.05472020676842,94.40551996002802 L 244.09044666795745,63.70125917603036 L 213.86871185905937,50.50061196155854 L 244.09044666795742,37.29996474708671 L 232.0547202067684,6.595703963089051 L 262.7589809907661,18.63143042427808 Z" fill="none" stroke="#0F52BA" stroke-width="2.6148186931921256" /><path d="M 413.9394423078569,-11.59030438461999 L 427.1400895223287,18.631430424278072 L 457.84435030632636,6.595703963089051 L 445.80862384513733,37.299964747086726 L 476.0303586540354,50.50061196155853 L 445.80862384513733,63.70125917603034 L 457.84435030632636,94.40551996002802 L 427.1400895223287,82.36979349883899 L 413.9394423078569,112.59152830773706 L 400.7387950933851,82.36979349883899 L 370.0345343093874,94.40551996002802 L 382.07026077057645,63.70125917603036 L 351.8485259616784,50.50061196155854 L 382.07026077057645,37.29996474708671 L 370.03453430938737,6.595703963089051 L 400.7387950933851,18.63143042427808 Z" fill="none" stroke="#0F52BA" stroke-width="2.6148186931921256" /><path d="M 551.9192564104758,-11.59030438461999 L 565.1199036249476,18.631430424278072 L 595.8241644089453,6.595703963089051 L 583.7884379477563,37.299964747086726 L 614.0101727566544,50.50061196155853 L 583.7884379477563,63.70125917603034 L 595.8241644089453,94.40551996002802 L 565.1199036249476,82.36979349883899 L 551.9192564104758,112.59152830773706 L 538.718609196004,82.36979349883899 L 508.0143484120063,94.40551996002802 L 520.0500748731953,63.70125917603036 L 489.82834006429727,50.50061196155854 L 520.0500748731953,37.29996474708671 L 508.01434841200626,6.595703963089051 L 538.718609196004,18.63143042427808 Z" fill="none" stroke="#0F52BA" stroke-width="2.6148186931921256" /><path d="M 689.8990705130948,-11.59030438461999 L 703.0997177275666,18.631430424278072 L 733.8039785115643,6.595703963089051 L 721.7682520503753,37.299964747086726 L 751.9899868592734,50.50061196155853 L 721.7682520503753,63.70125917603034 L 733.8039785115643,94.40551996002802 L 703.0997177275666,82.36979349883899 L 689.8990705130948,112.59152830773706 L 676.698423298623,82.36979349883899 L 645.9941625146253,94.40551996002802 L 658.0298889758143,63.70125917603036 L 627.8081541669162,50.50061196155854 L 658.0298889758143,37.29996474708671 L 645.9941625146253,6.595703963089051 L 676.698423298623,18.63143042427808 Z" fill="none" stroke="#0F52BA" stroke-width="2.6148186931921256" /><path d="M 827.8788846157137,-11.59030438461999 L 841.0795318301855,18.631430424278072 L 871.7837926141832,6.595703963089051 L 859.7480661529942,37.299964747086726 L 889.9698009618922,50.50061196155853 L 859.7480661529942,63.70125917603034 L 871.7837926141832,94.40551996002802 L 841.0795318301855,82.36979349883899 L 827.8788846157137,112.59152830773706 L 814.6782374012419,82.36979349883899 L 783.9739766172441,94.40551996002802 L 796.0097030784332,63.70125917603036 L 765.7879682695351,50.50061196155854 L 796.0097030784332,37.29996474708671 L 783.9739766172441,6.595703963089051 L 814.6782374012419,18.63143042427808 Z" fill="none" stroke="#0F52BA" stroke-width="2.6148186931921256" /><path d="M 965.8586987183326,-11.59030438461999 L 979.0593459328044,18.631430424278072 L 1009.7636067168021,6.595703963089051 L 997.7278802556131,37.299964747086726 L 1027.9496150645111,50.50061196155853 L 997.7278802556131,63.70125917603034 L 1009.7636067168021,94.40551996002802 L 979.0593459328044,82.36979349883899 L 965.8586987183326,112.59152830773706 L 952.6580515038607,82.36979349883899 L 921.953790719863,94.40551996002802 L 933.9895171810521,63.70125917603036 L 903.767782372154,50.50061196155854 L 933.9895171810521,37.29996474708671 L 921.953790719863,6.595703963089051 L 952.6580515038607,18.63143042427808 Z" fill="none" stroke="#0F52BA" stroke-width="2.6148186931921256" /><path d="M 1103.8385128209516,-11.59030438461999 L 1117.0391600354233,18.631430424278072 L 1147.743420819421,6.595703963089051 L 1135.707694358232,37.299964747086726 L 1165.9294291671301,50.50061196155853 L 1135.707694358232,63.70125917603034 L 1147.743420819421,94.40551996002802 L 1117.0391600354233,82.36979349883899 L 1103.8385128209516,112.59152830773706 L 1090.6378656064799,82.36979349883899 L 1059.933604822482,94.40551996002802 L 1071.9693312836712,63.70125917603036 L 1041.747596474773,50.50061196155854 L 1071.9693312836712,37.29996474708671 L 1059.933604822482,6.595703963089051 L 1090.6378656064796,18.63143042427808 Z" fill="none" stroke="#0F52BA" stroke-width="2.6148186931921256" /><path d="M 1241.8183269235706,-11.59030438461999 L 1255.0189741380423,18.631430424278072 L 1285.72323492204,6.595703963089051 L 1273.687508460851,37.299964747086726 L 1303.9092432697491,50.50061196155853 L 1273.687508460851,63.70125917603034 L 1285.72323492204,94.40551996002802 L 1255.0189741380423,82.36979349883899 L 1241.8183269235706,112.59152830773706 L 1228.6176797090989,82.36979349883899 L 1197.913418925101,94.40551996002802 L 1209.9491453862902,63.70125917603036 L 1179.727410577392,50.50061196155854 L 1209.9491453862902,37.29996474708671 L 1197.913418925101,6.595703963089051 L 1228.6176797090986,18.63143042427808 Z" fill="none" stroke="#0F52BA" stroke-width="2.6148186931921256" /><path d="M -68.98990705130947,107.90021462824802 L -55.78925983683766,138.12194943714607 L -25.084999052839983,126.08622297595706 L -37.12072551402901,156.79048375995472 L -6.898990705130949,169.99113097442654 L -37.12072551402901,183.19177818889835 L -25.084999052839983,213.896038972896 L -55.78925983683766,201.860312511707 L -68.98990705130947,232.08204732060506 L -82.19055426578129,201.860312511707 L -112.89481504977896,213.89603897289604 L -100.85908858858993,183.19177818889835 L -131.080823397488,169.99113097442654 L -100.85908858858993,156.79048375995472 L -112.89481504977897,126.08622297595706 L -82.1905542657813,138.1219494371461 Z" fill="none" stroke="#0F52BA" stroke-width="2.6148186931921256" /><path d="M 68.98990705130947,107.90021462824802 L 82.19055426578129,138.12194943714607 L 112.89481504977897,126.08622297595706 L 100.85908858858994,156.79048375995472 L 131.080823397488,169.99113097442654 L 100.85908858858994,183.19177818889835 L 112.89481504977897,213.896038972896 L 82.19055426578129,201.860312511707 L 68.98990705130947,232.08204732060506 L 55.789259836837665,201.860312511707 L 25.08499905283999,213.89603897289604 L 37.12072551402902,183.19177818889835 L 6.898990705130949,169.99113097442654 L 37.12072551402902,156.79048375995472 L 25.084999052839976,126.08622297595706 L 55.789259836837644,138.1219494371461 Z" fill="none" stroke="#0F52BA" stroke-width="2.6148186931921256" /><path d="M 206.96972115392842,107.90021462824802 L 220.17036836840023,138.12194943714607 L 250.87462915239792,126.08622297595706 L 238.8389026912089,156.79048375995472 L 269.06063750010696,169.99113097442654 L 238.8389026912089,183.19177818889835 L 250.87462915239792,213.896038972896 L 220.17036836840023,201.860312511707 L 206.96972115392842,232.08204732060506 L 193.7690739394566,201.860312511707 L 163.06481315545892,213.89603897289604 L 175.10053961664795,183.19177818889835 L 144.8788048077499,169.99113097442654 L 175.10053961664795,156.79048375995472 L 163.06481315545892,126.08622297595706 L 193.76907393945658,138.1219494371461 Z" fill="none" stroke="#0F52BA" stroke-width="2.6148186931921256" /><path d="M 344.9495352565474,107.90021462824802 L 358.1501824710192,138.12194943714607 L 388.85444325501686,126.08622297595706 L 376.81871679382783,156.79048375995472 L 407.0404516027259,169.99113097442654 L 376.81871679382783,183.19177818889835 L 388.85444325501686,213.896038972896 L 358.1501824710192,201.860312511707 L 344.9495352565474,232.08204732060506 L 331.7488880420756,201.860312511707 L 301.0446272580779,213.89603897289604 L 313.08035371926695,183.19177818889835 L 282.8586189103689,169.99113097442654 L 313.08035371926695,156.79048375995472 L 301.04462725807787,126.08622297595706 L 331.7488880420756,138.1219494371461 Z" fill="none" stroke="#0F52BA" stroke-width="2.6148186931921256" /><path d="M 482.9293493591663,107.90021462824802 L 496.1299965736381,138.12194943714607 L 526.8342573576358,126.08622297595706 L 514.7985308964468,156.79048375995472 L 545.0202657053449,169.99113097442654 L 514.7985308964468,183.19177818889835 L 526.8342573576358,213.896038972896 L 496.1299965736381,201.860312511707 L 482.9293493591663,232.08204732060506 L 469.72870214469447,201.860312511707 L 439.0244413606968,213.89603897289604 L 451.06016782188584,183.19177818889835 L 420.83843301298776,169.99113097442654 L 451.06016782188584,156.79048375995472 L 439.02444136069676,126.08622297595706 L 469.72870214469447,138.1219494371461 Z" fill="none" stroke="#0F52BA" stroke-width="2.6148186931921256" /><path d="M 620.9091634617853,107.90021462824802 L 634.1098106762571,138.12194943714607 L 664.8140714602548,126.08622297595706 L 652.7783449990658,156.79048375995472 L 683.0000798079639,169.99113097442654 L 652.7783449990658,183.19177818889835 L 664.8140714602548,213.896038972896 L 634.1098106762571,201.860312511707 L 620.9091634617853,232.08204732060506 L 607.7085162473135,201.860312511707 L 577.0042554633158,213.89603897289604 L 589.0399819245048,183.19177818889835 L 558.8182471156067,169.99113097442654 L 589.0399819245048,156.79048375995472 L 577.0042554633158,126.08622297595706 L 607.7085162473135,138.1219494371461 Z" fill="none" stroke="#0F52BA" stroke-width="2.6148186931921256" /><path d="M 758.8889775644042,107.90021462824802 L 772.089624778876,138.12194943714607 L 802.7938855628737,126.08622297595706 L 790.7581591016847,156.79048375995472 L 820.9798939105827,169.99113097442654 L 790.7581591016847,183.19177818889835 L 802.7938855628737,213.896038972896 L 772.089624778876,201.860312511707 L 758.8889775644042,232.08204732060506 L 745.6883303499324,201.860312511707 L 714.9840695659346,213.89603897289604 L 727.0197960271237,183.19177818889835 L 696.7980612182256,169.99113097442654 L 727.0197960271237,156.79048375995472 L 714.9840695659346,126.08622297595706 L 745.6883303499324,138.1219494371461 Z" fill="none" stroke="#0F52BA" stroke-width="2.6148186931921256" /><path d="M 896.8687916670231,107.90021462824802 L 910.0694388814949,138.12194943714607 L 940.7736996654926,126.08622297595706 L 928.7379732043036,156.79048375995472 L 958.9597080132016,169.99113097442654 L 928.7379732043036,183.19177818889835 L 940.7736996654926,213.896038972896 L 910.0694388814949,201.860312511707 L 896.8687916670231,232.08204732060506 L 883.6681444525512,201.860312511707 L 852.9638836685535,213.89603897289604 L 864.9996101297426,183.19177818889835 L 834.7778753208445,169.99113097442654 L 864.9996101297426,156.79048375995472 L 852.9638836685535,126.08622297595706 L 883.6681444525512,138.1219494371461 Z" fill="none" stroke="#0F52BA" stroke-width="2.6148186931921256" /><path d="M 1034.848605769642,107.90021462824802 L 1048.0492529841138,138.12194943714607 L 1078.7535137681116,126.08622297595706 L 1066.7177873069224,156.79048375995472 L 1096.9395221158206,169.99113097442654 L 1066.7177873069224,183.19177818889835 L 1078.7535137681116,213.896038972896 L 1048.0492529841138,201.860312511707 L 1034.848605769642,232.08204732060506 L 1021.6479585551702,201.860312511707 L 990.9436977711725,213.89603897289604 L 1002.9794242323616,183.19177818889835 L 972.7576894234635,169.99113097442654 L 1002.9794242323616,156.79048375995472 L 990.9436977711725,126.08622297595706 L 1021.6479585551702,138.1219494371461 Z" fill="none" stroke="#0F52BA" stroke-width="2.6148186931921256" /><path d="M 1172.828419872261,107.90021462824802 L 1186.0290670867328,138.12194943714607 L 1216.7333278707306,126.08622297595706 L 1204.6976014095414,156.79048375995472 L 1234.9193362184396,169.99113097442654 L 1204.6976014095414,183.19177818889835 L 1216.7333278707306,213.896038972896 L 1186.0290670867328,201.860312511707 L 1172.828419872261,232.08204732060506 L 1159.6277726577894,201.860312511707 L 1128.9235118737915,213.89603897289604 L 1140.9592383349807,183.19177818889835 L 1110.7375035260825,169.99113097442654 L 1140.9592383349807,156.79048375995472 L 1128.9235118737915,126.08622297595706 L 1159.6277726577891,138.1219494371461 Z" fill="none" stroke="#0F52BA" stroke-width="2.6148186931921256" /><path d="M 1310.80823397488,107.90021462824802 L 1324.0088811893518,138.12194943714607 L 1354.7131419733496,126.08622297595706 L 1342.6774155121605,156.79048375995472 L 1372.8991503210586,169.99113097442654 L 1342.6774155121605,183.19177818889835 L 1354.7131419733496,213.896038972896 L 1324.0088811893518,201.860312511707 L 1310.80823397488,232.08204732060506 L 1297.6075867604084,201.860312511707 L 1266.9033259764105,213.89603897289604 L 1278.9390524375997,183.19177818889835 L 1248.7173176287015,169.99113097442654 L 1278.9390524375997,156.79048375995472 L 1266.9033259764105,126.08622297595706 L 1297.6075867604081,138.1219494371461 Z" fill="none" stroke="#0F52BA" stroke-width="2.6148186931921256" /><path d="M 3.80197209797368e-15,227.39073364111601 L 13.200647214471811,257.6124684500141 L 43.90490799846949,245.57674198882506 L 31.86918153728046,276.2810027728227 L 62.090916346178524,289.48164998729453 L 31.86918153728046,302.68229720176635 L 43.90490799846949,333.386557985764 L 13.200647214471811,321.35083152457497 L 3.80197209797368e-15,351.57256633347305 L -13.200647214471807,321.35083152457497 L -43.90490799846948,333.386557985764 L -31.869181537280454,302.68229720176635 L -62.090916346178524,289.48164998729453 L -31.869181537280458,276.2810027728227 L -43.9049079984695,245.57674198882506 L -13.200647214471829,257.6124684500141 Z" fill="none" stroke="#0F52BA" stroke-width="2.6148186931921256" /><path d="M 137.97981410261895,227.39073364111601 L 151.18046131709076,257.6124684500141 L 181.88472210108844,245.57674198882506 L 169.8489956398994,276.2810027728227 L 200.07073044879746,289.48164998729453 L 169.8489956398994,302.68229720176635 L 181.88472210108844,333.386557985764 L 151.18046131709076,321.35083152457497 L 137.97981410261895,351.57256633347305 L 124.77916688814713,321.35083152457497 L 94.07490610414946,333.386557985764 L 106.11063256533849,302.68229720176635 L 75.88889775644043,289.48164998729453 L 106.11063256533849,276.2810027728227 L 94.07490610414945,245.57674198882506 L 124.77916688814712,257.6124684500141 Z" fill="none" stroke="#0F52BA" stroke-width="2.6148186931921256" /><path d="M 275.9596282052379,227.39073364111601 L 289.1602754197097,257.6124684500141 L 319.86453620370736,245.57674198882506 L 307.82880974251833,276.2810027728227 L 338.0505445514164,289.48164998729453 L 307.82880974251833,302.68229720176635 L 319.86453620370736,333.386557985764 L 289.1602754197097,321.35083152457497 L 275.9596282052379,351.57256633347305 L 262.7589809907661,321.35083152457497 L 232.05472020676842,333.386557985764 L 244.09044666795745,302.68229720176635 L 213.86871185905937,289.48164998729453 L 244.09044666795742,276.2810027728227 L 232.0547202067684,245.57674198882506 L 262.7589809907661,257.6124684500141 Z" fill="none" stroke="#0F52BA" stroke-width="2.6148186931921256" /><path d="M 413.9394423078569,227.39073364111601 L 427.1400895223287,257.6124684500141 L 457.84435030632636,245.57674198882506 L 445.80862384513733,276.2810027728227 L 476.0303586540354,289.48164998729453 L 445.80862384513733,302.68229720176635 L 457.84435030632636,333.386557985764 L 427.1400895223287,321.35083152457497 L 413.9394423078569,351.57256633347305 L 400.7387950933851,321.35083152457497 L 370.0345343093874,333.386557985764 L 382.07026077057645,302.68229720176635 L 351.8485259616784,289.48164998729453 L 382.07026077057645,276.2810027728227 L 370.03453430938737,245.57674198882506 L 400.7387950933851,257.6124684500141 Z" fill="none" stroke="#0F52BA" stroke-width="2.6148186931921256" /><path d="M 551.9192564104758,227.39073364111601 L 565.1199036249476,257.6124684500141 L 595.8241644089453,245.57674198882506 L 583.7884379477563,276.2810027728227 L 614.0101727566544,289.48164998729453 L 583.7884379477563,302.68229720176635 L 595.8241644089453,333.386557985764 L 565.1199036249476,321.35083152457497 L 551.9192564104758,351.57256633347305 L 538.718609196004,321.35083152457497 L 508.0143484120063,333.386557985764 L 520.0500748731953,302.68229720176635 L 489.82834006429727,289.48164998729453 L 520.0500748731953,276.2810027728227 L 508.01434841200626,245.57674198882506 L 538.718609196004,257.6124684500141 Z" fill="none" stroke="#0F52BA" stroke-width="2.6148186931921256" /><path d="M 689.8990705130948,227.39073364111601 L 703.0997177275666,257.6124684500141 L 733.8039785115643,245.57674198882506 L 721.7682520503753,276.2810027728227 L 751.9899868592734,289.48164998729453 L 721.7682520503753,302.68229720176635 L 733.8039785115643,333.386557985764 L 703.0997177275666,321.35083152457497 L 689.8990705130948,351.57256633347305 L 676.698423298623,321.35083152457497 L 645.9941625146253,333.386557985764 L 658.0298889758143,302.68229720176635 L 627.8081541669162,289.48164998729453 L 658.0298889758143,276.2810027728227 L 645.9941625146253,245.57674198882506 L 676.698423298623,257.6124684500141 Z" fill="none" stroke="#0F52BA" stroke-width="2.6148186931921256" /><path d="M 827.8788846157137,227.39073364111601 L 841.0795318301855,257.6124684500141 L 871.7837926141832,245.57674198882506 L 859.7480661529942,276.2810027728227 L 889.9698009618922,289.48164998729453 L 859.7480661529942,302.68229720176635 L 871.7837926141832,333.386557985764 L 841.0795318301855,321.35083152457497 L 827.8788846157137,351.57256633347305 L 814.6782374012419,321.35083152457497 L 783.9739766172441,333.386557985764 L 796.0097030784332,302.68229720176635 L 765.7879682695351,289.48164998729453 L 796.0097030784332,276.2810027728227 L 783.9739766172441,245.57674198882506 L 814.6782374012419,257.6124684500141 Z" fill="none" stroke="#0F52BA" stroke-width="2.6148186931921256" /><path d="M 965.8586987183326,227.39073364111601 L 979.0593459328044,257.6124684500141 L 1009.7636067168021,245.57674198882506 L 997.7278802556131,276.2810027728227 L 1027.9496150645111,289.48164998729453 L 997.7278802556131,302.68229720176635 L 1009.7636067168021,333.386557985764 L 979.0593459328044,321.35083152457497 L 965.8586987183326,351.57256633347305 L 952.6580515038607,321.35083152457497 L 921.953790719863,333.386557985764 L 933.9895171810521,302.68229720176635 L 903.767782372154,289.48164998729453 L 933.9895171810521,276.2810027728227 L 921.953790719863,245.57674198882506 L 952.6580515038607,257.6124684500141 Z" fill="none" stroke="#0F52BA" stroke-width="2.6148186931921256" /><path d="M 1103.8385128209516,227.39073364111601 L 1117.0391600354233,257.6124684500141 L 1147.743420819421,245.57674198882506 L 1135.707694358232,276.2810027728227 L 1165.9294291671301,289.48164998729453 L 1135.707694358232,302.68229720176635 L 1147.743420819421,333.386557985764 L 1117.0391600354233,321.35083152457497 L 1103.8385128209516,351.57256633347305 L 1090.6378656064799,321.35083152457497 L 1059.933604822482,333.386557985764 L 1071.9693312836712,302.68229720176635 L 1041.747596474773,289.48164998729453 L 1071.9693312836712,276.2810027728227 L 1059.933604822482,245.57674198882506 L 1090.6378656064796,257.6124684500141 Z" fill="none" stroke="#0F52BA" stroke-width="2.6148186931921256" /><path d="M 1241.8183269235706,227.39073364111601 L 1255.0189741380423,257.6124684500141 L 1285.72323492204,245.57674198882506 L 1273.687508460851,276.2810027728227 L 1303.9092432697491,289.48164998729453 L 1273.687508460851,302.68229720176635 L 1285.72323492204,333.386557985764 L 1255.0189741380423,321.35083152457497 L 1241.8183269235706,351.57256633347305 L 1228.6176797090989,321.35083152457497 L 1197.913418925101,333.386557985764 L 1209.9491453862902,302.68229720176635 L 1179.727410577392,289.48164998729453 L 1209.9491453862902,276.2810027728227 L 1197.913418925101,245.57674198882506 L 1228.6176797090986,257.6124684500141 Z" fill="none" stroke="#0F52BA" stroke-width="2.6148186931921256" /><path d="M -68.98990705130947,346.88125265398406 L -55.78925983683766,377.10298746288214 L -25.084999052839983,365.0672610016931 L -37.12072551402901,395.77152178569077 L -6.898990705130949,408.9721690001626 L -37.12072551402901,422.1728162146344 L -25.084999052839983,452.87707699863205 L -55.78925983683766,440.841350537443 L -68.98990705130947,471.0630853463411 L -82.19055426578129,440.841350537443 L -112.89481504977896,452.87707699863205 L -100.85908858858993,422.1728162146344 L -131.080823397488,408.9721690001626 L -100.85908858858993,395.77152178569077 L -112.89481504977897,365.0672610016931 L -82.1905542657813,377.10298746288214 Z" fill="none" stroke="#0F52BA" stroke-width="2.6148186931921256" /><path d="M 68.98990705130947,346.88125265398406 L 82.19055426578129,377.10298746288214 L 112.89481504977897,365.0672610016931 L 100.85908858858994,395.77152178569077 L 131.080823397488,408.9721690001626 L 100.85908858858994,422.1728162146344 L 112.89481504977897,452.87707699863205 L 82.19055426578129,440.841350537443 L 68.98990705130947,471.0630853463411 L 55.789259836837665,440.841350537443 L 25.08499905283999,452.87707699863205 L 37.12072551402902,422.1728162146344 L 6.898990705130949,408.9721690001626 L 37.12072551402902,395.77152178569077 L 25.084999052839976,365.0672610016931 L 55.789259836837644,377.10298746288214 Z" fill="none" stroke="#0F52BA" stroke-width="2.6148186931921256" /><path d="M 206.96972115392842,346.88125265398406 L 220.17036836840023,377.10298746288214 L 250.87462915239792,365.0672610016931 L 238.8389026912089,395.77152178569077 L 269.06063750010696,408.9721690001626 L 238.8389026912089,422.1728162146344 L 250.87462915239792,452.87707699863205 L 220.17036836840023,440.841350537443 L 206.96972115392842,471.0630853463411 L 193.7690739394566,440.841350537443 L 163.06481315545892,452.87707699863205 L 175.10053961664795,422.1728162146344 L 144.8788048077499,408.9721690001626 L 175.10053961664795,395.77152178569077 L 163.06481315545892,365.0672610016931 L 193.76907393945658,377.10298746288214 Z" fill="none" stroke="#0F52BA" stroke-width="2.6148186931921256" /><path d="M 344.9495352565474,346.88125265398406 L 358.1501824710192,377.10298746288214 L 388.85444325501686,365.0672610016931 L 376.81871679382783,395.77152178569077 L 407.0404516027259,408.9721690001626 L 376.81871679382783,422.1728162146344 L 388.85444325501686,452.87707699863205 L 358.1501824710192,440.841350537443 L 344.9495352565474,471.0630853463411 L 331.7488880420756,440.841350537443 L 301.0446272580779,452.87707699863205 L 313.08035371926695,422.1728162146344 L 282.8586189103689,408.9721690001626 L 313.08035371926695,395.77152178569077 L 301.04462725807787,365.0672610016931 L 331.7488880420756,377.10298746288214 Z" fill="none" stroke="#0F52BA" stroke-width="2.6148186931921256" /><path d="M 482.9293493591663,346.88125265398406 L 496.1299965736381,377.10298746288214 L 526.8342573576358,365.0672610016931 L 514.7985308964468,395.77152178569077 L 545.0202657053449,408.9721690001626 L 514.7985308964468,422.1728162146344 L 526.8342573576358,452.87707699863205 L 496.1299965736381,440.841350537443 L 482.9293493591663,471.0630853463411 L 469.72870214469447,440.841350537443 L 439.0244413606968,452.87707699863205 L 451.06016782188584,422.1728162146344 L 420.83843301298776,408.9721690001626 L 451.06016782188584,395.77152178569077 L 439.02444136069676,365.0672610016931 L 469.72870214469447,377.10298746288214 Z" fill="none" stroke="#0F52BA" stroke-width="2.6148186931921256" /><path d="M 620.9091634617853,346.88125265398406 L 634.1098106762571,377.10298746288214 L 664.8140714602548,365.0672610016931 L 652.7783449990658,395.77152178569077 L 683.0000798079639,408.9721690001626 L 652.7783449990658,422.1728162146344 L 664.8140714602548,452.87707699863205 L 634.1098106762571,440.841350537443 L 620.9091634617853,471.0630853463411 L 607.7085162473135,440.841350537443 L 577.0042554633158,452.87707699863205 L 589.0399819245048,422.1728162146344 L 558.8182471156067,408.9721690001626 L 589.0399819245048,395.77152178569077 L 577.0042554633158,365.0672610016931 L 607.7085162473135,377.10298746288214 Z" fill="none" stroke="#0F52BA" stroke-width="2.6148186931921256" /><path d="M 758.8889775644042,346.88125265398406 L 772.089624778876,377.10298746288214 L 802.7938855628737,365.0672610016931 L 790.7581591016847,395.77152178569077 L 820.9798939105827,408.9721690001626 L 790.7581591016847,422.1728162146344 L 802.7938855628737,452.87707699863205 L 772.089624778876,440.841350537443 L 758.8889775644042,471.0630853463411 L 745.6883303499324,440.841350537443 L 714.9840695659346,452.87707699863205 L 727.0197960271237,422.1728162146344 L 696.7980612182256,408.9721690001626 L 727.0197960271237,395.77152178569077 L 714.9840695659346,365.0672610016931 L 745.6883303499324,377.10298746288214 Z" fill="none" stroke="#0F52BA" stroke-width="2.6148186931921256" /><path d="M 896.8687916670231,346.88125265398406 L 910.0694388814949,377.10298746288214 L 940.7736996654926,365.0672610016931 L 928.7379732043036,395.77152178569077 L 958.9597080132016,408.9721690001626 L 928.7379732043036,422.1728162146344 L 940.7736996654926,452.87707699863205 L 910.0694388814949,440.841350537443 L 896.8687916670231,471.0630853463411 L 883.6681444525512,440.841350537443 L 852.9638836685535,452.87707699863205 L 864.9996101297426,422.1728162146344 L 834.7778753208445,408.9721690001626 L 864.9996101297426,395.77152178569077 L 852.9638836685535,365.0672610016931 L 883.6681444525512,377.10298746288214 Z" fill="none" stroke="#0F52BA" stroke-width="2.6148186931921256" /><path d="M 1034.848605769642,346.88125265398406 L 1048.0492529841138,377.10298746288214 L 1078.7535137681116,365.0672610016931 L 1066.7177873069224,395.77152178569077 L 1096.9395221158206,408.9721690001626 L 1066.7177873069224,422.1728162146344 L 1078.7535137681116,452.87707699863205 L 1048.0492529841138,440.841350537443 L 1034.848605769642,471.0630853463411 L 1021.6479585551702,440.841350537443 L 990.9436977711725,452.87707699863205 L 1002.9794242323616,422.1728162146344 L 972.7576894234635,408.9721690001626 L 1002.9794242323616,395.77152178569077 L 990.9436977711725,365.0672610016931 L 1021.6479585551702,377.10298746288214 Z" fill="none" stroke="#0F52BA" stroke-width="2.6148186931921256" /><path d="M 1172.828419872261,346.88125265398406 L 1186.0290670867328,377.10298746288214 L 1216.7333278707306,365.0672610016931 L 1204.6976014095414,395.77152178569077 L 1234.9193362184396,408.9721690001626 L 1204.6976014095414,422.1728162146344 L 1216.7333278707306,452.87707699863205 L 1186.0290670867328,440.841350537443 L 1172.828419872261,471.0630853463411 L 1159.6277726577894,440.841350537443 L 1128.9235118737915,452.87707699863205 L 1140.9592383349807,422.1728162146344 L 1110.7375035260825,408.9721690001626 L 1140.9592383349807,395.77152178569077 L 1128.9235118737915,365.0672610016931 L 1159.6277726577891,377.10298746288214 Z" fill="none" stroke="#0F52BA" stroke-width="2.6148186931921256" /><path d="M 1310.80823397488,346.88125265398406 L 1324.0088811893518,377.10298746288214 L 1354.7131419733496,365.0672610016931 L 1342.6774155121605,395.77152178569077 L 1372.8991503210586,408.9721690001626 L 1342.6774155121605,422.1728162146344 L 1354.7131419733496,452.87707699863205 L 1324.0088811893518,440.841350537443 L 1310.80823397488,471.0630853463411 L 1297.6075867604084,440.841350537443 L 1266.9033259764105,452.87707699863205 L 1278.9390524375997,422.1728162146344 L 1248.7173176287015,408.9721690001626 L 1278.9390524375997,395.77152178569077 L 1266.9033259764105,365.0672610016931 L 1297.6075867604081,377.10298746288214 Z" fill="none" stroke="#0F52BA" stroke-width="2.6148186931921256" /><path d="M 3.80197209797368e-15,466.3717716668521 L 13.200647214471811,496.5935064757502 L 43.90490799846949,484.55778001456116 L 31.86918153728046,515.2620407985588 L 62.090916346178524,528.4626880130306 L 31.86918153728046,541.6633352275024 L 43.90490799846949,572.3675960115002 L 13.200647214471811,560.3318695503111 L 3.80197209797368e-15,590.5536043592092 L -13.200647214471807,560.3318695503111 L -43.90490799846948,572.3675960115002 L -31.869181537280454,541.6633352275024 L -62.090916346178524,528.4626880130306 L -31.869181537280458,515.2620407985588 L -43.9049079984695,484.55778001456116 L -13.200647214471829,496.5935064757502 Z" fill="none" stroke="#0F52BA" stroke-width="2.6148186931921256" /><path d="M 137.97981410261895,466.3717716668521 L 151.18046131709076,496.5935064757502 L 181.88472210108844,484.55778001456116 L 169.8489956398994,515.2620407985588 L 200.07073044879746,528.4626880130306 L 169.8489956398994,541.6633352275024 L 181.88472210108844,572.3675960115002 L 151.18046131709076,560.3318695503111 L 137.97981410261895,590.5536043592092 L 124.77916688814713,560.3318695503111 L 94.07490610414946,572.3675960115002 L 106.11063256533849,541.6633352275024 L 75.88889775644043,528.4626880130306 L 106.11063256533849,515.2620407985588 L 94.07490610414945,484.55778001456116 L 124.77916688814712,496.5935064757502 Z" fill="none" stroke="#0F52BA" stroke-width="2.6148186931921256" /><path d="M 275.9596282052379,466.3717716668521 L 289.1602754197097,496.5935064757502 L 319.86453620370736,484.55778001456116 L 307.82880974251833,515.2620407985588 L 338.0505445514164,528.4626880130306 L 307.82880974251833,541.6633352275024 L 319.86453620370736,572.3675960115002 L 289.1602754197097,560.3318695503111 L 275.9596282052379,590.5536043592092 L 262.7589809907661,560.3318695503111 L 232.05472020676842,572.3675960115002 L 244.09044666795745,541.6633352275024 L 213.86871185905937,528.4626880130306 L 244.09044666795742,515.2620407985588 L 232.0547202067684,484.55778001456116 L 262.7589809907661,496.5935064757502 Z" fill="none" stroke="#0F52BA" stroke-width="2.6148186931921256" /><path d="M 413.9394423078569,466.3717716668521 L 427.1400895223287,496.5935064757502 L 457.84435030632636,484.55778001456116 L 445.80862384513733,515.2620407985588 L 476.0303586540354,528.4626880130306 L 445.80862384513733,541.6633352275024 L 457.84435030632636,572.3675960115002 L 427.1400895223287,560.3318695503111 L 413.9394423078569,590.5536043592092 L 400.7387950933851,560.3318695503111 L 370.0345343093874,572.3675960115002 L 382.07026077057645,541.6633352275024 L 351.8485259616784,528.4626880130306 L 382.07026077057645,515.2620407985588 L 370.03453430938737,484.55778001456116 L 400.7387950933851,496.5935064757502 Z" fill="none" stroke="#0F52BA" stroke-width="2.6148186931921256" /><path d="M 551.9192564104758,466.3717716668521 L 565.1199036249476,496.5935064757502 L 595.8241644089453,484.55778001456116 L 583.7884379477563,515.2620407985588 L 614.0101727566544,528.4626880130306 L 583.7884379477563,541.6633352275024 L 595.8241644089453,572.3675960115002 L 565.1199036249476,560.3318695503111 L 551.9192564104758,590.5536043592092 L 538.718609196004,560.3318695503111 L 508.0143484120063,572.3675960115002 L 520.0500748731953,541.6633352275024 L 489.82834006429727,528.4626880130306 L 520.0500748731953,515.2620407985588 L 508.01434841200626,484.55778001456116 L 538.718609196004,496.5935064757502 Z" fill="none" stroke="#0F52BA" stroke-width="2.6148186931921256" /><path d="M 689.8990705130948,466.3717716668521 L 703.0997177275666,496.5935064757502 L 733.8039785115643,484.55778001456116 L 721.7682520503753,515.2620407985588 L 751.9899868592734,528.4626880130306 L 721.7682520503753,541.6633352275024 L 733.8039785115643,572.3675960115002 L 703.0997177275666,560.3318695503111 L 689.8990705130948,590.5536043592092 L 676.698423298623,560.3318695503111 L 645.9941625146253,572.3675960115002 L 658.0298889758143,541.6633352275024 L 627.8081541669162,528.4626880130306 L 658.0298889758143,515.2620407985588 L 645.9941625146253,484.55778001456116 L 676.698423298623,496.5935064757502 Z" fill="none" stroke="#0F52BA" stroke-width="2.6148186931921256" /><path d="M 827.8788846157137,466.3717716668521 L 841.0795318301855,496.5935064757502 L 871.7837926141832,484.55778001456116 L 859.7480661529942,515.2620407985588 L 889.9698009618922,528.4626880130306 L 859.7480661529942,541.6633352275024 L 871.7837926141832,572.3675960115002 L 841.0795318301855,560.3318695503111 L 827.8788846157137,590.5536043592092 L 814.6782374012419,560.3318695503111 L 783.9739766172441,572.3675960115002 L 796.0097030784332,541.6633352275024 L 765.7879682695351,528.4626880130306 L 796.0097030784332,515.2620407985588 L 783.9739766172441,484.55778001456116 L 814.6782374012419,496.5935064757502 Z" fill="none" stroke="#0F52BA" stroke-width="2.6148186931921256" /><path d="M 965.8586987183326,466.3717716668521 L 979.0593459328044,496.5935064757502 L 1009.7636067168021,484.55778001456116 L 997.7278802556131,515.2620407985588 L 1027.9496150645111,528.4626880130306 L 997.7278802556131,541.6633352275024 L 1009.7636067168021,572.3675960115002 L 979.0593459328044,560.3318695503111 L 965.8586987183326,590.5536043592092 L 952.6580515038607,560.3318695503111 L 921.953790719863,572.3675960115002 L 933.9895171810521,541.6633352275024 L 903.767782372154,528.4626880130306 L 933.9895171810521,515.2620407985588 L 921.953790719863,484.55778001456116 L 952.6580515038607,496.5935064757502 Z" fill="none" stroke="#0F52BA" stroke-width="2.6148186931921256" /><path d="M 1103.8385128209516,466.3717716668521 L 1117.0391600354233,496.5935064757502 L 1147.743420819421,484.55778001456116 L 1135.707694358232,515.2620407985588 L 1165.9294291671301,528.4626880130306 L 1135.707694358232,541.6633352275024 L 1147.743420819421,572.3675960115002 L 1117.0391600354233,560.3318695503111 L 1103.8385128209516,590.5536043592092 L 1090.6378656064799,560.3318695503111 L 1059.933604822482,572.3675960115002 L 1071.9693312836712,541.6633352275024 L 1041.747596474773,528.4626880130306 L 1071.9693312836712,515.2620407985588 L 1059.933604822482,484.55778001456116 L 1090.6378656064796,496.5935064757502 Z" fill="none" stroke="#0F52BA" stroke-width="2.6148186931921256" /><path d="M 1241.8183269235706,466.3717716668521 L 1255.0189741380423,496.5935064757502 L 1285.72323492204,484.55778001456116 L 1273.687508460851,515.2620407985588 L 1303.9092432697491,528.4626880130306 L 1273.687508460851,541.6633352275024 L 1285.72323492204,572.3675960115002 L 1255.0189741380423,560.3318695503111 L 1241.8183269235706,590.5536043592092 L 1228.6176797090989,560.3318695503111 L 1197.913418925101,572.3675960115002 L 1209.9491453862902,541.6633352275024 L 1179.727410577392,528.4626880130306 L 1209.9491453862902,515.2620407985588 L 1197.913418925101,484.55778001456116 L 1228.6176797090986,496.5935064757502 Z" fill="none" stroke="#0F52BA" stroke-width="2.6148186931921256" /><path d="M -68.98990705130947,585.86229067972 L -55.78925983683766,616.0840254886181 L -25.084999052839983,604.048299027429 L -37.12072551402901,634.7525598114267 L -6.898990705130949,647.9532070258986 L -37.12072551402901,661.1538542403704 L -25.084999052839983,691.8581150243681 L -55.78925983683766,679.8223885631791 L -68.98990705130947,710.0441233720771 L -82.19055426578129,679.8223885631791 L -112.89481504977896,691.8581150243681 L -100.85908858858993,661.1538542403704 L -131.080823397488,647.9532070258986 L -100.85908858858993,634.7525598114267 L -112.89481504977897,604.048299027429 L -82.1905542657813,616.0840254886181 Z" fill="none" stroke="#0F52BA" stroke-width="2.6148186931921256" /><path d="M 68.98990705130947,585.86229067972 L 82.19055426578129,616.0840254886181 L 112.89481504977897,604.048299027429 L 100.85908858858994,634.7525598114267 L 131.080823397488,647.9532070258986 L 100.85908858858994,661.1538542403704 L 112.89481504977897,691.8581150243681 L 82.19055426578129,679.8223885631791 L 68.98990705130947,710.0441233720771 L 55.789259836837665,679.8223885631791 L 25.08499905283999,691.8581150243681 L 37.12072551402902,661.1538542403704 L 6.898990705130949,647.9532070258986 L 37.12072551402902,634.7525598114267 L 25.084999052839976,604.048299027429 L 55.789259836837644,616.0840254886181 Z" fill="none" stroke="#0F52BA" stroke-width="2.6148186931921256" /><path d="M 206.96972115392842,585.86229067972 L 220.17036836840023,616.0840254886181 L 250.87462915239792,604.048299027429 L 238.8389026912089,634.7525598114267 L 269.06063750010696,647.9532070258986 L 238.8389026912089,661.1538542403704 L 250.87462915239792,691.8581150243681 L 220.17036836840023,679.8223885631791 L 206.96972115392842,710.0441233720771 L 193.7690739394566,679.8223885631791 L 163.06481315545892,691.8581150243681 L 175.10053961664795,661.1538542403704 L 144.8788048077499,647.9532070258986 L 175.10053961664795,634.7525598114267 L 163.06481315545892,604.048299027429 L 193.76907393945658,616.0840254886181 Z" fill="none" stroke="#0F52BA" stroke-width="2.6148186931921256" /><path d="M 344.9495352565474,585.86229067972 L 358.1501824710192,616.0840254886181 L 388.85444325501686,604.048299027429 L 376.81871679382783,634.7525598114267 L 407.0404516027259,647.9532070258986 L 376.81871679382783,661.1538542403704 L 388.85444325501686,691.8581150243681 L 358.1501824710192,679.8223885631791 L 344.9495352565474,710.0441233720771 L 331.7488880420756,679.8223885631791 L 301.0446272580779,691.8581150243681 L 313.08035371926695,661.1538542403704 L 282.8586189103689,647.9532070258986 L 313.08035371926695,634.7525598114267 L 301.04462725807787,604.048299027429 L 331.7488880420756,616.0840254886181 Z" fill="none" stroke="#0F52BA" stroke-width="2.6148186931921256" /><path d="M 482.9293493591663,585.86229067972 L 496.1299965736381,616.0840254886181 L 526.8342573576358,604.048299027429 L 514.7985308964468,634.7525598114267 L 545.0202657053449,647.9532070258986 L 514.7985308964468,661.1538542403704 L 526.8342573576358,691.8581150243681 L 496.1299965736381,679.8223885631791 L 482.9293493591663,710.0441233720771 L 469.72870214469447,679.8223885631791 L 439.0244413606968,691.8581150243681 L 451.06016782188584,661.1538542403704 L 420.83843301298776,647.9532070258986 L 451.06016782188584,634.7525598114267 L 439.02444136069676,604.048299027429 L 469.72870214469447,616.0840254886181 Z" fill="none" stroke="#0F52BA" stroke-width="2.6148186931921256" /><path d="M 620.9091634617853,585.86229067972 L 634.1098106762571,616.0840254886181 L 664.8140714602548,604.048299027429 L 652.7783449990658,634.7525598114267 L 683.0000798079639,647.9532070258986 L 652.7783449990658,661.1538542403704 L 664.8140714602548,691.8581150243681 L 634.1098106762571,679.8223885631791 L 620.9091634617853,710.0441233720771 L 607.7085162473135,679.8223885631791 L 577.0042554633158,691.8581150243681 L 589.0399819245048,661.1538542403704 L 558.8182471156067,647.9532070258986 L 589.0399819245048,634.7525598114267 L 577.0042554633158,604.048299027429 L 607.7085162473135,616.0840254886181 Z" fill="none" stroke="#0F52BA" stroke-width="2.6148186931921256" /><path d="M 758.8889775644042,585.86229067972 L 772.089624778876,616.0840254886181 L 802.7938855628737,604.048299027429 L 790.7581591016847,634.7525598114267 L 820.9798939105827,647.9532070258986 L 790.7581591016847,661.1538542403704 L 802.7938855628737,691.8581150243681 L 772.089624778876,679.8223885631791 L 758.8889775644042,710.0441233720771 L 745.6883303499324,679.8223885631791 L 714.9840695659346,691.8581150243681 L 727.0197960271237,661.1538542403704 L 696.7980612182256,647.9532070258986 L 727.0197960271237,634.7525598114267 L 714.9840695659346,604.048299027429 L 745.6883303499324,616.0840254886181 Z" fill="none" stroke="#0F52BA" stroke-width="2.6148186931921256" /><path d="M 896.8687916670231,585.86229067972 L 910.0694388814949,616.0840254886181 L 940.7736996654926,604.048299027429 L 928.7379732043036,634.7525598114267 L 958.9597080132016,647.9532070258986 L 928.7379732043036,661.1538542403704 L 940.7736996654926,691.8581150243681 L 910.0694388814949,679.8223885631791 L 896.8687916670231,710.0441233720771 L 883.6681444525512,679.8223885631791 L 852.9638836685535,691.8581150243681 L 864.9996101297426,661.1538542403704 L 834.7778753208445,647.9532070258986 L 864.9996101297426,634.7525598114267 L 852.9638836685535,604.048299027429 L 883.6681444525512,616.0840254886181 Z" fill="none" stroke="#0F52BA" stroke-width="2.6148186931921256" /><path d="M 1034.848605769642,585.86229067972 L 1048.0492529841138,616.0840254886181 L 1078.7535137681116,604.048299027429 L 1066.7177873069224,634.7525598114267 L 1096.9395221158206,647.9532070258986 L 1066.7177873069224,661.1538542403704 L 1078.7535137681116,691.8581150243681 L 1048.0492529841138,679.8223885631791 L 1034.848605769642,710.0441233720771 L 1021.6479585551702,679.8223885631791 L 990.9436977711725,691.8581150243681 L 1002.9794242323616,661.1538542403704 L 972.7576894234635,647.9532070258986 L 1002.9794242323616,634.7525598114267 L 990.9436977711725,604.048299027429 L 1021.6479585551702,616.0840254886181 Z" fill="none" stroke="#0F52BA" stroke-width="2.6148186931921256" /><path d="M 1172.828419872261,585.86229067972 L 1186.0290670867328,616.0840254886181 L 1216.7333278707306,604.048299027429 L 1204.6976014095414,634.7525598114267 L 1234.9193362184396,647.9532070258986 L 1204.6976014095414,661.1538542403704 L 1216.7333278707306,691.8581150243681 L 1186.0290670867328,679.8223885631791 L 1172.828419872261,710.0441233720771 L 1159.6277726577894,679.8223885631791 L 1128.9235118737915,691.8581150243681 L 1140.9592383349807,661.1538542403704 L 1110.7375035260825,647.9532070258986 L 1140.9592383349807,634.7525598114267 L 1128.9235118737915,604.048299027429 L 1159.6277726577891,616.0840254886181 Z" fill="none" stroke="#0F52BA" stroke-width="2.6148186931921256" /><path d="M 1310.80823397488,585.86229067972 L 1324.0088811893518,616.0840254886181 L 1354.7131419733496,604.048299027429 L 1342.6774155121605,634.7525598114267 L 1372.8991503210586,647.9532070258986 L 1342.6774155121605,661.1538542403704 L 1354.7131419733496,691.8581150243681 L 1324.0088811893518,679.8223885631791 L 1310.80823397488,710.0441233720771 L 1297.6075867604084,679.8223885631791 L 1266.9033259764105,691.8581150243681 L 1278.9390524375997,661.1538542403704 L 1248.7173176287015,647.9532070258986 L 1278.9390524375997,634.7525598114267 L 1266.9033259764105,604.048299027429 L 1297.6075867604081,616.0840254886181 Z" fill="none" stroke="#0F52BA" stroke-width="2.6148186931921256" /><line x1="62.090916346178524" y1="50.50061196155853" x2="75.88889775644043" y2="50.50061196155853" stroke="#0F52BA" stroke-width="0.5"/><line x1="200.07073044879746" y1="50.50061196155853" x2="213.86871185905937" y2="50.50061196155853" stroke="#0F52BA" stroke-width="0.5"/><line x1="338.0505445514164" y1="50.50061196155853" x2="351.8485259616784" y2="50.50061196155853" stroke="#0F52BA" stroke-width="0.5"/><line x1="476.0303586540354" y1="50.50061196155853" x2="489.82834006429727" y2="50.50061196155853" stroke="#0F52BA" stroke-width="0.5"/><line x1="614.0101727566544" y1="50.50061196155853" x2="627.8081541669162" y2="50.50061196155853" stroke="#0F52BA" stroke-width="0.5"/><line x1="751.9899868592734" y1="50.50061196155853" x2="765.7879682695351" y2="50.50061196155853" stroke="#0F52BA" stroke-width="0.5"/><line x1="889.9698009618922" y1="50.50061196155853" x2="903.767782372154" y2="50.50061196155853" stroke="#0F52BA" stroke-width="0.5"/><line x1="1027.9496150645111" y1="50.50061196155853" x2="1041.747596474773" y2="50.50061196155853" stroke="#0F52BA" stroke-width="0.5"/><line x1="1165.9294291671301" y1="50.50061196155853" x2="1179.727410577392" y2="50.50061196155853" stroke="#0F52BA" stroke-width="0.5"/><line x1="131.080823397488" y1="169.99113097442654" x2="144.8788048077499" y2="169.99113097442654" stroke="#0F52BA" stroke-width="0.5"/><line x1="269.06063750010696" y1="169.99113097442654" x2="282.8586189103689" y2="169.99113097442654" stroke="#0F52BA" stroke-width="0.5"/><line x1="407.0404516027259" y1="169.99113097442654" x2="420.83843301298776" y2="169.99113097442654" stroke="#0F52BA" stroke-width="0.5"/><line x1="545.0202657053449" y1="169.99113097442654" x2="558.8182471156067" y2="169.99113097442654" stroke="#0F52BA" stroke-width="0.5"/><line x1="683.0000798079639" y1="169.99113097442654" x2="696.7980612182256" y2="169.99113097442654" stroke="#0F52BA" stroke-width="0.5"/><line x1="820.9798939105827" y1="169.99113097442654" x2="834.7778753208445" y2="169.99113097442654" stroke="#0F52BA" stroke-width="0.5"/><line x1="958.9597080132016" y1="169.99113097442654" x2="972.7576894234635" y2="169.99113097442654" stroke="#0F52BA" stroke-width="0.5"/><line x1="1096.9395221158206" y1="169.99113097442654" x2="1110.7375035260825" y2="169.99113097442654" stroke="#0F52BA" stroke-width="0.5"/><line x1="62.090916346178524" y1="289.48164998729453" x2="75.88889775644043" y2="289.48164998729453" stroke="#0F52BA" stroke-width="0.5"/><line x1="200.07073044879746" y1="289.48164998729453" x2="213.86871185905937" y2="289.48164998729453" stroke="#0F52BA" stroke-width="0.5"/><line x1="338.0505445514164" y1="289.48164998729453" x2="351.8485259616784" y2="289.48164998729453" stroke="#0F52BA" stroke-width="0.5"/><line x1="476.0303586540354" y1="289.48164998729453" x2="489.82834006429727" y2="289.48164998729453" stroke="#0F52BA" stroke-width="0.5"/><line x1="614.0101727566544" y1="289.48164998729453" x2="627.8081541669162" y2="289.48164998729453" stroke="#0F52BA" stroke-width="0.5"/><line x1="751.9899868592734" y1="289.48164998729453" x2="765.7879682695351" y2="289.48164998729453" stroke="#0F52BA" stroke-width="0.5"/><line x1="889.9698009618922" y1="289.48164998729453" x2="903.767782372154" y2="289.48164998729453" stroke="#0F52BA" stroke-width="0.5"/><line x1="1027.9496150645111" y1="289.48164998729453" x2="1041.747596474773" y2="289.48164998729453" stroke="#0F52BA" stroke-width="0.5"/><line x1="1165.9294291671301" y1="289.48164998729453" x2="1179.727410577392" y2="289.48164998729453" stroke="#0F52BA" stroke-width="0.5"/><line x1="131.080823397488" y1="408.9721690001626" x2="144.8788048077499" y2="408.9721690001626" stroke="#0F52BA" stroke-width="0.5"/><line x1="269.06063750010696" y1="408.9721690001626" x2="282.8586189103689" y2="408.9721690001626" stroke="#0F52BA" stroke-width="0.5"/><line x1="407.0404516027259" y1="408.9721690001626" x2="420.83843301298776" y2="408.9721690001626" stroke="#0F52BA" stroke-width="0.5"/><line x1="545.0202657053449" y1="408.9721690001626" x2="558.8182471156067" y2="408.9721690001626" stroke="#0F52BA" stroke-width="0.5"/><line x1="683.0000798079639" y1="408.9721690001626" x2="696.7980612182256" y2="408.9721690001626" stroke="#0F52BA" stroke-width="0.5"/><line x1="820.9798939105827" y1="408.9721690001626" x2="834.7778753208445" y2="408.9721690001626" stroke="#0F52BA" stroke-width="0.5"/><line x1="958.9597080132016" y1="408.9721690001626" x2="972.7576894234635" y2="408.9721690001626" stroke="#0F52BA" stroke-width="0.5"/><line x1="1096.9395221158206" y1="408.9721690001626" x2="1110.7375035260825" y2="408.9721690001626" stroke="#0F52BA" stroke-width="0.5"/><line x1="62.090916346178524" y1="528.4626880130306" x2="75.88889775644043" y2="528.4626880130306" stroke="#0F52BA" stroke-width="0.5"/><line x1="200.07073044879746" y1="528.4626880130306" x2="213.86871185905937" y2="528.4626880130306" stroke="#0F52BA" stroke-width="0.5"/><line x1="338.0505445514164" y1="528.4626880130306" x2="351.8485259616784" y2="528.4626880130306" stroke="#0F52BA" stroke-width="0.5"/><line x1="476.0303586540354" y1="528.4626880130306" x2="489.82834006429727" y2="528.4626880130306" stroke="#0F52BA" stroke-width="0.5"/><line x1="614.0101727566544" y1="528.4626880130306" x2="627.8081541669162" y2="528.4626880130306" stroke="#0F52BA" stroke-width="0.5"/><line x1="751.9899868592734" y1="528.4626880130306" x2="765.7879682695351" y2="528.4626880130306" stroke="#0F52BA" stroke-width="0.5"/><line x1="889.9698009618922" y1="528.4626880130306" x2="903.767782372154" y2="528.4626880130306" stroke="#0F52BA" stroke-width="0.5"/><line x1="1027.9496150645111" y1="528.4626880130306" x2="1041.747596474773" y2="528.4626880130306" stroke="#0F52BA" stroke-width="0.5"/><line x1="1165.9294291671301" y1="528.4626880130306" x2="1179.727410577392" y2="528.4626880130306" stroke="#0F52BA" stroke-width="0.5"/></g><g opacity="0.11457786563065736"><path d="M 967.2342900965523 58.42075469830109 L 878.2856413721165 58.42075469830109 L 878.2856413721165 161.68977118266264" fill="none" stroke="#FFFFFF" stroke-width="0.7843594552410578" stroke-linecap="square"/><path d="M 78.7525177368673 138.76000381017104 L 78.7525177368673 202.82444669781682 L 158.61082775688118 202.82444669781682" fill="none" stroke="#FFFFFF" stroke-width="0.7843594552410578" stroke-linecap="square"/><path d="M 243.41315042386447 315.59754803571735 L 243.41315042386447 282.22601038148423 L 168.23245662096832 282.22601038148423 L 168.23245662096832 330.71294446264824" fill="none" stroke="#FFFFFF" stroke-width="0.7843594552410578" stroke-linecap="square"/><path d="M 464.5437242763786 561.4112808934466 L 464.5437242763786 472.8208815377531 L 389.9012382542107 472.8208815377531 L 389.9012382542107 421.5677812810849" fill="none" stroke="#FFFFFF" stroke-width="0.7843594552410578" stroke-linecap="square"/><path d="M 838.8922695251612 368.8619972992977 L 838.8922695251612 462.7139937193983 L 937.5000318334336 462.7139937193983 L 937.5000318334336 507.30337467585855" fill="none" stroke="#FFFFFF" stroke-width="0.7843594552410578" stroke-linecap="square"/><path d="M 595.8767297658495 173.86281617631334 L 595.8767297658495 258.81607389507724 L 542.5102054016053 258.81607389507724" fill="none" stroke="#FFFFFF" stroke-width="0.7843594552410578" stroke-linecap="square"/><path d="M 418.23953409597254 63.888019353099175 L 418.23953409597254 155.1784832875303 L 500.99737174357125 155.1784832875303" fill="none" stroke="#FFFFFF" stroke-width="0.7843594552410578" stroke-linecap="square"/><path d="M 352.8538228724403 112.85157328138666 L 352.8538228724403 146.4001103248259 L 293.2108221921072 146.4001103248259 L 293.2108221921072 50.84553503091557" fill="none" stroke="#FFFFFF" stroke-width="0.7843594552410578" stroke-linecap="square"/><path d="M 172.43614204807028 551.4753245895148 L 172.43614204807028 617.8124914721008 L 136.1989416237091 617.8124914721008 L 136.1989416237091 630" fill="none" stroke="#FFFFFF" stroke-width="0.7843594552410578" stroke-linecap="square"/><path d="M 374.8267652349671 566.0649671806325 L 319.64469463684253 566.0649671806325 L 319.64469463684253 630" fill="none" stroke="#FFFFFF" stroke-width="0.7843594552410578" stroke-linecap="square"/><path d="M 613.5137918468163 422.8678144993577 L 663.4039758268199 422.8678144993577 L 663.4039758268199 354.79382799782564 L 696.0738207844352 354.79382799782564" fill="none" stroke="#FFFFFF" stroke-width="0.7843594552410578" stroke-linecap="square"/><path d="M 1197.4399572226405 184.8088360693347 L 1197.4399572226405 231.02389627362453 L 1130.6904940050138 231.02389627362453 L 1130.6904940050138 300.63856988492785" fill="none" stroke="#FFFFFF" stroke-width="0.7843594552410578" stroke-linecap="square"/><line x1="1023.1898193355603" y1="6.270478966771848" x2="1023.1898193355603" y2="227.68847154252626" stroke="#FFFFFF" stroke-width="0.5" stroke-dasharray="5,10"/><line x1="151.50528437993734" y1="400.07875818762875" x2="169.46547039293938" y2="400.07875818762875" stroke="#FFFFFF" stroke-width="0.5" stroke-dasharray="5,10"/><rect x="870.655415711078" y="50.79052903726256" width="15.260451322077053" height="15.260451322077053" fill="#FFFFFF"/><circle cx="158.61082775688118" cy="202.82444669781682" r="7.630225661038526" fill="#FFFFFF"/><circle cx="78.7525177368673" cy="138.76000381017104" r="6.104180528830821" fill="#FFFFFF"/><rect x="160.60223095992978" y="274.5957847204457" width="15.260451322077053" height="15.260451322077053" fill="#FFFFFF"/><rect x="456.9134986153401" y="465.1906558767146" width="15.260451322077053" height="15.260451322077053" fill="#FFFFFF"/><circle cx="937.5000318334336" cy="507.30337467585855" r="7.630225661038526" fill="#FFFFFF"/><circle cx="838.8922695251612" cy="368.8619972992977" r="6.104180528830821" fill="#FFFFFF"/><rect x="831.2620438641227" y="455.08376805835974" width="15.260451322077053" height="15.260451322077053" fill="#FFFFFF"/><circle cx="542.5102054016053" cy="258.81607389507724" r="7.630225661038526" fill="#FFFFFF"/><circle cx="595.8767297658495" cy="173.86281617631334" r="6.104180528830821" fill="#FFFFFF"/><circle cx="500.99737174357125" cy="155.1784832875303" r="7.630225661038526" fill="#FFFFFF"/><circle cx="418.23953409597254" cy="63.888019353099175" r="6.104180528830821" fill="#FFFFFF"/><circle cx="293.2108221921072" cy="50.84553503091557" r="7.630225661038526" fill="#FFFFFF"/><rect x="128.56871596267055" y="610.1822658110623" width="15.260451322077053" height="15.260451322077053" fill="#FFFFFF"/><circle cx="319.64469463684253" cy="630" r="7.630225661038526" fill="#FFFFFF"/><circle cx="696.0738207844352" cy="354.79382799782564" r="7.630225661038526" fill="#FFFFFF"/><circle cx="613.5137918468163" cy="422.8678144993577" r="6.104180528830821" fill="#FFFFFF"/><rect x="655.7737501657814" y="415.23758883831914" width="15.260451322077053" height="15.260451322077053" fill="#FFFFFF"/><circle cx="1130.6904940050138" cy="300.63856988492785" r="7.630225661038526" fill="#FFFFFF"/><circle cx="384.25158280145916" cy="493.1554129035936" r="5.268014253002889" fill="#FFFFFF"/><circle cx="951.1280541080647" cy="192.5124085845949" r="10.824886840293022" fill="#FFFFFF"/><circle cx="1004.2080407050477" cy="395.6298746520793" r="13.674673261876535" fill="#FFFFFF"/><rect x="1133.0945592102935" y="311.1838163062755" width="19.99338157588437" height="19.99338157588437" fill="#FFFFFF"/><circle cx="1175.004244397862" cy="435.20442029237955" r="4.73066263118266" fill="#FFFFFF"/></g><g opacity="0.2"><rect x="40" y="40" width="1120" height="550" fill="none" stroke="#4B5563" stroke-width="2" rx="8"/></g><g opacity="0.9495220186419422"><line x1="50" y1="50" x2="70" y2="50" stroke="#3B82F6" stroke-width="3"/><line x1="50" y1="50" x2="50" y2="70" stroke="#3B82F6" stroke-width="3"/><line x1="1150" y1="580" x2="1130" y2="580" stroke="#3B82F6" stroke-width="3"/><line x1="1150" y1="580" x2="1150" y2="560" stroke="#3B82F6" stroke-width="3"/></g></svg>