<svg xmlns="http://www.w3.org/2000/svg" width="1200" height="630" viewBox="0 0 1200 630"><rect x="0" y="0" width="1200" height="630" fill="#000000"/><g opacity="0.05"><line x1="0" y1="0" x2="0" y2="630" stroke="#444444" stroke-width="0.5"/><line x1="60" y1="0" x2="60" y2="630" stroke="#444444" stroke-width="0.5"/><line x1="120" y1="0" x2="120" y2="630" stroke="#444444" stroke-width="0.5"/><line x1="180" y1="0" x2="180" y2="630" stroke="#444444" stroke-width="0.5"/><line x1="240" y1="0" x2="240" y2="630" stroke="#444444" stroke-width="0.5"/><line x1="300" y1="0" x2="300" y2="630" stroke="#444444" stroke-width="0.5"/><line x1="360" y1="0" x2="360" y2="630" stroke="#444444" stroke-width="0.5"/><line x1="420" y1="0" x2="420" y2="630" stroke="#444444" stroke-width="0.5"/><line x1="480" y1="0" x2="480" y2="630" stroke="#444444" stroke-width="0.5"/><line x1="540" y1="0" x2="540" y2="630" stroke="#444444" stroke-width="0.5"/><line x1="600" y1="0" x2="600" y2="630" stroke="#444444" stroke-width="0.5"/><line x1="660" y1="0" x2="660" y2="630" stroke="#444444" stroke-width="0.5"/><line x1="720" y1="0" x2="720" y2="630" stroke="#444444" stroke-width="0.5"/><line x1="780" y1="0" x2="780" y2="630" stroke="#444444" stroke-width="0.5"/><line x1="840" y1="0" x2="840" y2="630" stroke="#444444" stroke-width="0.5"/><line x1="900" y1="0" x2="900" y2="630" stroke="#444444" stroke-width="0.5"/><line x1="960" y1="0" x2="960" y2="630" stroke="#444444" stroke-width="0.5"/><line x1="1020" y1="0" x2="1020" y2="630" stroke="#444444" stroke-width="0.5"/><line x1="1080" y1="0" x2="1080" y2="630" stroke="#444444" stroke-width="0.5"/><line x1="1140" y1="0" x2="1140" y2="630" stroke="#444444" stroke-width="0.5"/><line x1="1200" y1="0" x2="1200" y2="630" stroke="#444444" stroke-width="0.5"/><line x1="0" y1="0" x2="1200" y2="0" stroke="#444444" stroke-width="0.5"/><line x1="0" y1="60" x2="1200" y2="60" stroke="#444444" stroke-width="0.5"/><line x1="0" y1="120" x2="1200" y2="120" stroke="#444444" stroke-width="0.5"/><line x1="0" y1="180" x2="1200" y2="180" stroke="#444444" stroke-width="0.5"/><line x1="0" y1="240" x2="1200" y2="240" stroke="#444444" stroke-width="0.5"/><line x1="0" y1="300" x2="1200" y2="300" stroke="#444444" stroke-width="0.5"/><line x1="0" y1="360" x2="1200" y2="360" stroke="#444444" stroke-width="0.5"/><line x1="0" y1="420" x2="1200" y2="420" stroke="#444444" stroke-width="0.5"/><line x1="0" y1="480" x2="1200" y2="480" stroke="#444444" stroke-width="0.5"/><line x1="0" y1="540" x2="1200" y2="540" stroke="#444444" stroke-width="0.5"/><line x1="0" y1="600" x2="1200" y2="600" stroke="#444444" stroke-width="0.5"/><line x1="0" y1="660" x2="1200" y2="660" stroke="#444444" stroke-width="0.5"/></g><g opacity="0.07131247521439217"><path d="M -75.62096632836318,-143.67983602389006 L -61.15152085171173,-110.55329783811314 L -27.49607804676451,-123.74585460996184 L -40.68863481861322,-90.09041180501464 L -7.562096632836315,-75.62096632836318 L -40.68863481861322,-61.15152085171173 L -27.49607804676451,-27.496078046764517 L -61.15152085171173,-40.68863481861322 L -75.62096632836318,-7.562096632836315 L -90.09041180501463,-40.68863481861322 L -123.74585460996184,-27.49607804676451 L -110.55329783811314,-61.15152085171171 L -143.67983602389006,-75.62096632836317 L -110.55329783811314,-90.09041180501464 L -123.74585460996187,-123.74585460996184 L -90.09041180501465,-110.55329783811314 Z" fill="none" stroke="#FFFFFF" stroke-width="2.1882336147540404" /><path d="M 75.62096632836318,-143.67983602389006 L 90.09041180501464,-110.55329783811314 L 123.74585460996185,-123.74585460996184 L 110.55329783811314,-90.09041180501464 L 143.67983602389006,-75.62096632836318 L 110.55329783811314,-61.15152085171173 L 123.74585460996185,-27.496078046764517 L 90.09041180501464,-40.68863481861322 L 75.62096632836318,-7.562096632836315 L 61.15152085171173,-40.68863481861322 L 27.496078046764517,-27.49607804676451 L 40.688634818613224,-61.15152085171171 L 7.562096632836315,-75.62096632836317 L 40.68863481861322,-90.09041180501464 L 27.496078046764502,-123.74585460996184 L 61.15152085171171,-110.55329783811314 Z" fill="none" stroke="#FFFFFF" stroke-width="2.1882336147540404" /><path d="M 226.86289898508954,-143.67983602389006 L 241.332344461741,-110.55329783811314 L 274.9877872666882,-123.74585460996184 L 261.79523049483953,-90.09041180501464 L 294.9217686806164,-75.62096632836318 L 261.79523049483953,-61.15152085171173 L 274.9877872666882,-27.496078046764517 L 241.332344461741,-40.68863481861322 L 226.86289898508954,-7.562096632836315 L 212.39345350843809,-40.68863481861322 L 178.7380107034909,-27.49607804676451 L 191.9305674753396,-61.15152085171171 L 158.80402928956266,-75.62096632836317 L 191.9305674753396,-90.09041180501464 L 178.73801070349086,-123.74585460996184 L 212.39345350843809,-110.55329783811314 Z" fill="none" stroke="#FFFFFF" stroke-width="2.1882336147540404" /><path d="M 378.1048316418159,-143.67983602389006 L 392.57427711846736,-110.55329783811314 L 426.22971992341456,-123.74585460996184 L 413.0371631515659,-90.09041180501464 L 446.1637013373428,-75.62096632836318 L 413.0371631515659,-61.15152085171173 L 426.22971992341456,-27.496078046764517 L 392.57427711846736,-40.68863481861322 L 378.1048316418159,-7.562096632836315 L 363.63538616516445,-40.68863481861322 L 329.97994336021725,-27.49607804676451 L 343.1725001320659,-61.15152085171171 L 310.045961946289,-75.62096632836317 L 343.1725001320659,-90.09041180501464 L 329.97994336021725,-123.74585460996184 L 363.63538616516445,-110.55329783811314 Z" fill="none" stroke="#FFFFFF" stroke-width="2.1882336147540404" /><path d="M 529.3467642985422,-143.67983602389006 L 543.8162097751937,-110.55329783811314 L 577.4716525801409,-123.74585460996184 L 564.2790958082921,-90.09041180501464 L 597.405633994069,-75.62096632836318 L 564.2790958082921,-61.15152085171173 L 577.4716525801409,-27.496078046764517 L 543.8162097751937,-40.68863481861322 L 529.3467642985422,-7.562096632836315 L 514.8773188218908,-40.68863481861322 L 481.22187601694355,-27.49607804676451 L 494.4144327887923,-61.15152085171171 L 461.28789460301533,-75.62096632836317 L 494.4144327887922,-90.09041180501464 L 481.22187601694355,-123.74585460996184 L 514.8773188218908,-110.55329783811314 Z" fill="none" stroke="#FFFFFF" stroke-width="2.1882336147540404" /><path d="M 680.5886969552687,-143.67983602389006 L 695.0581424319201,-110.55329783811314 L 728.7135852368674,-123.74585460996184 L 715.5210284650186,-90.09041180501464 L 748.6475666507955,-75.62096632836318 L 715.5210284650186,-61.15152085171173 L 728.7135852368674,-27.496078046764517 L 695.0581424319201,-40.68863481861322 L 680.5886969552687,-7.562096632836315 L 666.1192514786172,-40.68863481861322 L 632.46380867367,-27.49607804676451 L 645.6563654455188,-61.15152085171171 L 612.5298272597419,-75.62096632836317 L 645.6563654455188,-90.09041180501464 L 632.46380867367,-123.74585460996184 L 666.1192514786172,-110.55329783811314 Z" fill="none" stroke="#FFFFFF" stroke-width="2.1882336147540404" /><path d="M 831.8306296119949,-143.67983602389006 L 846.3000750886464,-110.55329783811314 L 879.9555178935937,-123.74585460996184 L 866.7629611217449,-90.09041180501464 L 899.8894993075218,-75.62096632836318 L 866.7629611217449,-61.15152085171173 L 879.9555178935937,-27.496078046764517 L 846.3000750886464,-40.68863481861322 L 831.8306296119949,-7.562096632836315 L 817.3611841353435,-40.68863481861322 L 783.7057413303962,-27.49607804676451 L 796.898298102245,-61.15152085171171 L 763.7717599164681,-75.62096632836317 L 796.898298102245,-90.09041180501464 L 783.7057413303962,-123.74585460996184 L 817.3611841353435,-110.55329783811314 Z" fill="none" stroke="#FFFFFF" stroke-width="2.1882336147540404" /><path d="M 983.0725622687212,-143.67983602389006 L 997.5420077453726,-110.55329783811314 L 1031.19745055032,-123.74585460996184 L 1018.0048937784711,-90.09041180501464 L 1051.1314319642481,-75.62096632836318 L 1018.0048937784711,-61.15152085171173 L 1031.19745055032,-27.496078046764517 L 997.5420077453726,-40.68863481861322 L 983.0725622687212,-7.562096632836315 L 968.6031167920697,-40.68863481861322 L 934.9476739871225,-27.49607804676451 L 948.1402307589713,-61.15152085171171 L 915.0136925731944,-75.62096632836317 L 948.1402307589713,-90.09041180501464 L 934.9476739871225,-123.74585460996184 L 968.6031167920697,-110.55329783811314 Z" fill="none" stroke="#FFFFFF" stroke-width="2.1882336147540404" /><path d="M 1134.3144949254477,-143.67983602389006 L 1148.783940402099,-110.55329783811314 L 1182.4393832070464,-123.74585460996184 L 1169.2468264351976,-90.09041180501464 L 1202.3733646209746,-75.62096632836318 L 1169.2468264351976,-61.15152085171173 L 1182.4393832070464,-27.496078046764517 L 1148.783940402099,-40.68863481861322 L 1134.3144949254477,-7.562096632836315 L 1119.8450494487963,-40.68863481861322 L 1086.189606643849,-27.49607804676451 L 1099.3821634156977,-61.15152085171171 L 1066.2556252299207,-75.62096632836317 L 1099.3821634156977,-90.09041180501464 L 1086.189606643849,-123.74585460996184 L 1119.845049448796,-110.55329783811314 Z" fill="none" stroke="#FFFFFF" stroke-width="2.1882336147540404" /><path d="M 1285.5564275821741,-143.67983602389006 L 1300.0258730588255,-110.55329783811314 L 1333.6813158637729,-123.74585460996184 L 1320.488759091924,-90.09041180501464 L 1353.615297277701,-75.62096632836318 L 1320.488759091924,-61.15152085171173 L 1333.6813158637729,-27.496078046764517 L 1300.0258730588255,-40.68863481861322 L 1285.5564275821741,-7.562096632836315 L 1271.0869821055228,-40.68863481861322 L 1237.4315393005754,-27.49607804676451 L 1250.6240960724242,-61.15152085171171 L 1217.4975578866472,-75.62096632836317 L 1250.6240960724242,-90.09041180501464 L 1237.4315393005754,-123.74585460996184 L 1271.0869821055226,-110.55329783811314 Z" fill="none" stroke="#FFFFFF" stroke-width="2.1882336147540404" /><path d="M 4.167403846310688e-15,-12.704322343165032 L 14.469445476651453,20.42221584261187 L 48.12488828159867,7.229659070763169 L 34.932331509749964,40.88510187571038 L 68.05886969552687,55.354547352361834 L 34.932331509749964,69.82399282901329 L 48.12488828159867,103.47943563396049 L 14.469445476651453,90.28687886211179 L 4.167403846310688e-15,123.4134170478887 L -14.46944547665145,90.28687886211179 L -48.124888281598665,103.4794356339605 L -34.93233150974996,69.8239928290133 L -68.05886969552687,55.35454735236184 L -34.932331509749964,40.885101875710376 L -48.12488828159868,7.229659070763169 L -14.469445476651472,20.422215842611877 Z" fill="none" stroke="#FFFFFF" stroke-width="2.1882336147540404" /><path d="M 151.24193265672636,-12.704322343165032 L 165.71137813337782,20.42221584261187 L 199.36682093832502,7.229659070763169 L 186.17426416647632,40.88510187571038 L 219.30080235225324,55.354547352361834 L 186.17426416647632,69.82399282901329 L 199.36682093832502,103.47943563396049 L 165.71137813337782,90.28687886211179 L 151.24193265672636,123.4134170478887 L 136.7724871800749,90.28687886211179 L 103.1170443751277,103.4794356339605 L 116.3096011469764,69.8239928290133 L 83.1830629611995,55.35454735236184 L 116.3096011469764,40.885101875710376 L 103.11704437512768,7.229659070763169 L 136.7724871800749,20.422215842611877 Z" fill="none" stroke="#FFFFFF" stroke-width="2.1882336147540404" /><path d="M 302.4838653134527,-12.704322343165032 L 316.9533107901042,20.42221584261187 L 350.6087535950514,7.229659070763169 L 337.4161968232027,40.88510187571038 L 370.5427350089796,55.354547352361834 L 337.4161968232027,69.82399282901329 L 350.6087535950514,103.47943563396049 L 316.9533107901042,90.28687886211179 L 302.4838653134527,123.4134170478887 L 288.01441983680127,90.28687886211179 L 254.35897703185407,103.4794356339605 L 267.5515338037028,69.8239928290133 L 234.42499561792584,55.35454735236184 L 267.55153380370274,40.885101875710376 L 254.35897703185404,7.229659070763169 L 288.01441983680127,20.422215842611877 Z" fill="none" stroke="#FFFFFF" stroke-width="2.1882336147540404" /><path d="M 453.7257979701791,-12.704322343165032 L 468.19524344683055,20.42221584261187 L 501.85068625177774,7.229659070763169 L 488.6581294799291,40.88510187571038 L 521.7846676657059,55.354547352361834 L 488.6581294799291,69.82399282901329 L 501.85068625177774,103.47943563396049 L 468.19524344683055,90.28687886211179 L 453.7257979701791,123.4134170478887 L 439.25635249352763,90.28687886211179 L 405.60090968858043,103.4794356339605 L 418.79346646042916,69.8239928290133 L 385.6669282746522,55.35454735236184 L 418.7934664604291,40.885101875710376 L 405.60090968858043,7.229659070763169 L 439.25635249352763,20.422215842611877 Z" fill="none" stroke="#FFFFFF" stroke-width="2.1882336147540404" /><path d="M 604.9677306269054,-12.704322343165032 L 619.4371761035569,20.42221584261187 L 653.0926189085042,7.229659070763169 L 639.9000621366554,40.88510187571038 L 673.0266003224323,55.354547352361834 L 639.9000621366554,69.82399282901329 L 653.0926189085042,103.47943563396049 L 619.4371761035569,90.28687886211179 L 604.9677306269054,123.4134170478887 L 590.498285150254,90.28687886211179 L 556.8428423453067,103.4794356339605 L 570.0353991171555,69.8239928290133 L 536.9088609313786,55.35454735236184 L 570.0353991171555,40.885101875710376 L 556.8428423453067,7.229659070763169 L 590.498285150254,20.422215842611877 Z" fill="none" stroke="#FFFFFF" stroke-width="2.1882336147540404" /><path d="M 756.2096632836319,-12.704322343165032 L 770.6791087602834,20.42221584261187 L 804.3345515652306,7.229659070763169 L 791.1419947933819,40.88510187571038 L 824.2685329791587,55.354547352361834 L 791.1419947933819,69.82399282901329 L 804.3345515652306,103.47943563396049 L 770.6791087602834,90.28687886211179 L 756.2096632836319,123.4134170478887 L 741.7402178069805,90.28687886211179 L 708.0847750020332,103.4794356339605 L 721.277331773882,69.8239928290133 L 688.1507935881051,55.35454735236184 L 721.277331773882,40.885101875710376 L 708.0847750020332,7.229659070763169 L 741.7402178069805,20.422215842611877 Z" fill="none" stroke="#FFFFFF" stroke-width="2.1882336147540404" /><path d="M 907.4515959403582,-12.704322343165032 L 921.9210414170096,20.42221584261187 L 955.5764842219569,7.229659070763169 L 942.3839274501081,40.88510187571038 L 975.510465635885,55.354547352361834 L 942.3839274501081,69.82399282901329 L 955.5764842219569,103.47943563396049 L 921.9210414170096,90.28687886211179 L 907.4515959403582,123.4134170478887 L 892.9821504637067,90.28687886211179 L 859.3267076587595,103.4794356339605 L 872.5192644306082,69.8239928290133 L 839.3927262448314,55.35454735236184 L 872.5192644306082,40.885101875710376 L 859.3267076587595,7.229659070763169 L 892.9821504637067,20.422215842611877 Z" fill="none" stroke="#FFFFFF" stroke-width="2.1882336147540404" /><path d="M 1058.6935285970844,-12.704322343165032 L 1073.1629740737358,20.42221584261187 L 1106.8184168786831,7.229659070763169 L 1093.6258601068344,40.88510187571038 L 1126.7523982926114,55.354547352361834 L 1093.6258601068344,69.82399282901329 L 1106.8184168786831,103.47943563396049 L 1073.1629740737358,90.28687886211179 L 1058.6935285970844,123.4134170478887 L 1044.224083120433,90.28687886211179 L 1010.5686403154857,103.4794356339605 L 1023.7611970873345,69.8239928290133 L 990.6346589015576,55.35454735236184 L 1023.7611970873345,40.885101875710376 L 1010.5686403154857,7.229659070763169 L 1044.2240831204329,20.422215842611877 Z" fill="none" stroke="#FFFFFF" stroke-width="2.1882336147540404" /><path d="M 1209.935461253811,-12.704322343165032 L 1224.4049067304622,20.42221584261187 L 1258.0603495354096,7.229659070763169 L 1244.8677927635608,40.88510187571038 L 1277.9943309493378,55.354547352361834 L 1244.8677927635608,69.82399282901329 L 1258.0603495354096,103.47943563396049 L 1224.4049067304622,90.28687886211179 L 1209.935461253811,123.4134170478887 L 1195.4660157771596,90.28687886211179 L 1161.8105729722122,103.4794356339605 L 1175.003129744061,69.8239928290133 L 1141.876591558284,55.35454735236184 L 1175.003129744061,40.885101875710376 L 1161.8105729722122,7.229659070763169 L 1195.4660157771593,20.422215842611877 Z" fill="none" stroke="#FFFFFF" stroke-width="2.1882336147540404" /><path d="M -75.62096632836318,118.27119133755998 L -61.15152085171173,151.3977295233369 L -27.49607804676451,138.2051727514882 L -40.68863481861322,171.8606155564354 L -7.562096632836315,186.33006103308685 L -40.68863481861322,200.7995065097383 L -27.49607804676451,234.4549493146855 L -61.15152085171173,221.2623925428368 L -75.62096632836318,254.38893072861373 L -90.09041180501463,221.2623925428368 L -123.74585460996184,234.4549493146855 L -110.55329783811314,200.7995065097383 L -143.67983602389006,186.33006103308685 L -110.55329783811314,171.8606155564354 L -123.74585460996187,138.2051727514882 L -90.09041180501465,151.3977295233369 Z" fill="none" stroke="#FFFFFF" stroke-width="2.1882336147540404" /><path d="M 75.62096632836318,118.27119133755998 L 90.09041180501464,151.3977295233369 L 123.74585460996185,138.2051727514882 L 110.55329783811314,171.8606155564354 L 143.67983602389006,186.33006103308685 L 110.55329783811314,200.7995065097383 L 123.74585460996185,234.4549493146855 L 90.09041180501464,221.2623925428368 L 75.62096632836318,254.38893072861373 L 61.15152085171173,221.2623925428368 L 27.496078046764517,234.4549493146855 L 40.688634818613224,200.7995065097383 L 7.562096632836315,186.33006103308685 L 40.68863481861322,171.8606155564354 L 27.496078046764502,138.2051727514882 L 61.15152085171171,151.3977295233369 Z" fill="none" stroke="#FFFFFF" stroke-width="2.1882336147540404" /><path d="M 226.86289898508954,118.27119133755998 L 241.332344461741,151.3977295233369 L 274.9877872666882,138.2051727514882 L 261.79523049483953,171.8606155564354 L 294.9217686806164,186.33006103308685 L 261.79523049483953,200.7995065097383 L 274.9877872666882,234.4549493146855 L 241.332344461741,221.2623925428368 L 226.86289898508954,254.38893072861373 L 212.39345350843809,221.2623925428368 L 178.7380107034909,234.4549493146855 L 191.9305674753396,200.7995065097383 L 158.80402928956266,186.33006103308685 L 191.9305674753396,171.8606155564354 L 178.73801070349086,138.2051727514882 L 212.39345350843809,151.3977295233369 Z" fill="none" stroke="#FFFFFF" stroke-width="2.1882336147540404" /><path d="M 378.1048316418159,118.27119133755998 L 392.57427711846736,151.3977295233369 L 426.22971992341456,138.2051727514882 L 413.0371631515659,171.8606155564354 L 446.1637013373428,186.33006103308685 L 413.0371631515659,200.7995065097383 L 426.22971992341456,234.4549493146855 L 392.57427711846736,221.2623925428368 L 378.1048316418159,254.38893072861373 L 363.63538616516445,221.2623925428368 L 329.97994336021725,234.4549493146855 L 343.1725001320659,200.7995065097383 L 310.045961946289,186.33006103308685 L 343.1725001320659,171.8606155564354 L 329.97994336021725,138.2051727514882 L 363.63538616516445,151.3977295233369 Z" fill="none" stroke="#FFFFFF" stroke-width="2.1882336147540404" /><path d="M 529.3467642985422,118.27119133755998 L 543.8162097751937,151.3977295233369 L 577.4716525801409,138.2051727514882 L 564.2790958082921,171.8606155564354 L 597.405633994069,186.33006103308685 L 564.2790958082921,200.7995065097383 L 577.4716525801409,234.4549493146855 L 543.8162097751937,221.2623925428368 L 529.3467642985422,254.38893072861373 L 514.8773188218908,221.2623925428368 L 481.22187601694355,234.4549493146855 L 494.4144327887923,200.7995065097383 L 461.28789460301533,186.33006103308685 L 494.4144327887922,171.8606155564354 L 481.22187601694355,138.2051727514882 L 514.8773188218908,151.3977295233369 Z" fill="none" stroke="#FFFFFF" stroke-width="2.1882336147540404" /><path d="M 680.5886969552687,118.27119133755998 L 695.0581424319201,151.3977295233369 L 728.7135852368674,138.2051727514882 L 715.5210284650186,171.8606155564354 L 748.6475666507955,186.33006103308685 L 715.5210284650186,200.7995065097383 L 728.7135852368674,234.4549493146855 L 695.0581424319201,221.2623925428368 L 680.5886969552687,254.38893072861373 L 666.1192514786172,221.2623925428368 L 632.46380867367,234.4549493146855 L 645.6563654455188,200.7995065097383 L 612.5298272597419,186.33006103308685 L 645.6563654455188,171.8606155564354 L 632.46380867367,138.2051727514882 L 666.1192514786172,151.3977295233369 Z" fill="none" stroke="#FFFFFF" stroke-width="2.1882336147540404" /><path d="M 831.8306296119949,118.27119133755998 L 846.3000750886464,151.3977295233369 L 879.9555178935937,138.2051727514882 L 866.7629611217449,171.8606155564354 L 899.8894993075218,186.33006103308685 L 866.7629611217449,200.7995065097383 L 879.9555178935937,234.4549493146855 L 846.3000750886464,221.2623925428368 L 831.8306296119949,254.38893072861373 L 817.3611841353435,221.2623925428368 L 783.7057413303962,234.4549493146855 L 796.898298102245,200.7995065097383 L 763.7717599164681,186.33006103308685 L 796.898298102245,171.8606155564354 L 783.7057413303962,138.2051727514882 L 817.3611841353435,151.3977295233369 Z" fill="none" stroke="#FFFFFF" stroke-width="2.1882336147540404" /><path d="M 983.0725622687212,118.27119133755998 L 997.5420077453726,151.3977295233369 L 1031.19745055032,138.2051727514882 L 1018.0048937784711,171.8606155564354 L 1051.1314319642481,186.33006103308685 L 1018.0048937784711,200.7995065097383 L 1031.19745055032,234.4549493146855 L 997.5420077453726,221.2623925428368 L 983.0725622687212,254.38893072861373 L 968.6031167920697,221.2623925428368 L 934.9476739871225,234.4549493146855 L 948.1402307589713,200.7995065097383 L 915.0136925731944,186.33006103308685 L 948.1402307589713,171.8606155564354 L 934.9476739871225,138.2051727514882 L 968.6031167920697,151.3977295233369 Z" fill="none" stroke="#FFFFFF" stroke-width="2.1882336147540404" /><path d="M 1134.3144949254477,118.27119133755998 L 1148.783940402099,151.3977295233369 L 1182.4393832070464,138.2051727514882 L 1169.2468264351976,171.8606155564354 L 1202.3733646209746,186.33006103308685 L 1169.2468264351976,200.7995065097383 L 1182.4393832070464,234.4549493146855 L 1148.783940402099,221.2623925428368 L 1134.3144949254477,254.38893072861373 L 1119.8450494487963,221.2623925428368 L 1086.189606643849,234.4549493146855 L 1099.3821634156977,200.7995065097383 L 1066.2556252299207,186.33006103308685 L 1099.3821634156977,171.8606155564354 L 1086.189606643849,138.2051727514882 L 1119.845049448796,151.3977295233369 Z" fill="none" stroke="#FFFFFF" stroke-width="2.1882336147540404" /><path d="M 1285.5564275821741,118.27119133755998 L 1300.0258730588255,151.3977295233369 L 1333.6813158637729,138.2051727514882 L 1320.488759091924,171.8606155564354 L 1353.615297277701,186.33006103308685 L 1320.488759091924,200.7995065097383 L 1333.6813158637729,234.4549493146855 L 1300.0258730588255,221.2623925428368 L 1285.5564275821741,254.38893072861373 L 1271.0869821055228,221.2623925428368 L 1237.4315393005754,234.4549493146855 L 1250.6240960724242,200.7995065097383 L 1217.4975578866472,186.33006103308685 L 1250.6240960724242,171.8606155564354 L 1237.4315393005754,138.2051727514882 L 1271.0869821055226,151.3977295233369 Z" fill="none" stroke="#FFFFFF" stroke-width="2.1882336147540404" /><path d="M 4.167403846310688e-15,249.246705018285 L 14.469445476651453,282.3732432040619 L 48.12488828159867,269.18068643221324 L 34.932331509749964,302.83612923716043 L 68.05886969552687,317.3055747138119 L 34.932331509749964,331.77502019046335 L 48.12488828159867,365.43046299541055 L 14.469445476651453,352.2379062235619 L 4.167403846310688e-15,385.3644444093388 L -14.46944547665145,352.2379062235619 L -48.124888281598665,365.43046299541055 L -34.93233150974996,331.77502019046335 L -68.05886969552687,317.3055747138119 L -34.932331509749964,302.83612923716043 L -48.12488828159868,269.18068643221324 L -14.469445476651472,282.37324320406196 Z" fill="none" stroke="#FFFFFF" stroke-width="2.1882336147540404" /><path d="M 151.24193265672636,249.246705018285 L 165.71137813337782,282.3732432040619 L 199.36682093832502,269.18068643221324 L 186.17426416647632,302.83612923716043 L 219.30080235225324,317.3055747138119 L 186.17426416647632,331.77502019046335 L 199.36682093832502,365.43046299541055 L 165.71137813337782,352.2379062235619 L 151.24193265672636,385.3644444093388 L 136.7724871800749,352.2379062235619 L 103.1170443751277,365.43046299541055 L 116.3096011469764,331.77502019046335 L 83.1830629611995,317.3055747138119 L 116.3096011469764,302.83612923716043 L 103.11704437512768,269.18068643221324 L 136.7724871800749,282.37324320406196 Z" fill="none" stroke="#FFFFFF" stroke-width="2.1882336147540404" /><path d="M 302.4838653134527,249.246705018285 L 316.9533107901042,282.3732432040619 L 350.6087535950514,269.18068643221324 L 337.4161968232027,302.83612923716043 L 370.5427350089796,317.3055747138119 L 337.4161968232027,331.77502019046335 L 350.6087535950514,365.43046299541055 L 316.9533107901042,352.2379062235619 L 302.4838653134527,385.3644444093388 L 288.01441983680127,352.2379062235619 L 254.35897703185407,365.43046299541055 L 267.5515338037028,331.77502019046335 L 234.42499561792584,317.3055747138119 L 267.55153380370274,302.83612923716043 L 254.35897703185404,269.18068643221324 L 288.01441983680127,282.37324320406196 Z" fill="none" stroke="#FFFFFF" stroke-width="2.1882336147540404" /><path d="M 453.7257979701791,249.246705018285 L 468.19524344683055,282.3732432040619 L 501.85068625177774,269.18068643221324 L 488.6581294799291,302.83612923716043 L 521.7846676657059,317.3055747138119 L 488.6581294799291,331.77502019046335 L 501.85068625177774,365.43046299541055 L 468.19524344683055,352.2379062235619 L 453.7257979701791,385.3644444093388 L 439.25635249352763,352.2379062235619 L 405.60090968858043,365.43046299541055 L 418.79346646042916,331.77502019046335 L 385.6669282746522,317.3055747138119 L 418.7934664604291,302.83612923716043 L 405.60090968858043,269.18068643221324 L 439.25635249352763,282.37324320406196 Z" fill="none" stroke="#FFFFFF" stroke-width="2.1882336147540404" /><path d="M 604.9677306269054,249.246705018285 L 619.4371761035569,282.3732432040619 L 653.0926189085042,269.18068643221324 L 639.9000621366554,302.83612923716043 L 673.0266003224323,317.3055747138119 L 639.9000621366554,331.77502019046335 L 653.0926189085042,365.43046299541055 L 619.4371761035569,352.2379062235619 L 604.9677306269054,385.3644444093388 L 590.498285150254,352.2379062235619 L 556.8428423453067,365.43046299541055 L 570.0353991171555,331.77502019046335 L 536.9088609313786,317.3055747138119 L 570.0353991171555,302.83612923716043 L 556.8428423453067,269.18068643221324 L 590.498285150254,282.37324320406196 Z" fill="none" stroke="#FFFFFF" stroke-width="2.1882336147540404" /><path d="M 756.2096632836319,249.246705018285 L 770.6791087602834,282.3732432040619 L 804.3345515652306,269.18068643221324 L 791.1419947933819,302.83612923716043 L 824.2685329791587,317.3055747138119 L 791.1419947933819,331.77502019046335 L 804.3345515652306,365.43046299541055 L 770.6791087602834,352.2379062235619 L 756.2096632836319,385.3644444093388 L 741.7402178069805,352.2379062235619 L 708.0847750020332,365.43046299541055 L 721.277331773882,331.77502019046335 L 688.1507935881051,317.3055747138119 L 721.277331773882,302.83612923716043 L 708.0847750020332,269.18068643221324 L 741.7402178069805,282.37324320406196 Z" fill="none" stroke="#FFFFFF" stroke-width="2.1882336147540404" /><path d="M 907.4515959403582,249.246705018285 L 921.9210414170096,282.3732432040619 L 955.5764842219569,269.18068643221324 L 942.3839274501081,302.83612923716043 L 975.510465635885,317.3055747138119 L 942.3839274501081,331.77502019046335 L 955.5764842219569,365.43046299541055 L 921.9210414170096,352.2379062235619 L 907.4515959403582,385.3644444093388 L 892.9821504637067,352.2379062235619 L 859.3267076587595,365.43046299541055 L 872.5192644306082,331.77502019046335 L 839.3927262448314,317.3055747138119 L 872.5192644306082,302.83612923716043 L 859.3267076587595,269.18068643221324 L 892.9821504637067,282.37324320406196 Z" fill="none" stroke="#FFFFFF" stroke-width="2.1882336147540404" /><path d="M 1058.6935285970844,249.246705018285 L 1073.1629740737358,282.3732432040619 L 1106.8184168786831,269.18068643221324 L 1093.6258601068344,302.83612923716043 L 1126.7523982926114,317.3055747138119 L 1093.6258601068344,331.77502019046335 L 1106.8184168786831,365.43046299541055 L 1073.1629740737358,352.2379062235619 L 1058.6935285970844,385.3644444093388 L 1044.224083120433,352.2379062235619 L 1010.5686403154857,365.43046299541055 L 1023.7611970873345,331.77502019046335 L 990.6346589015576,317.3055747138119 L 1023.7611970873345,302.83612923716043 L 1010.5686403154857,269.18068643221324 L 1044.2240831204329,282.37324320406196 Z" fill="none" stroke="#FFFFFF" stroke-width="2.1882336147540404" /><path d="M 1209.935461253811,249.246705018285 L 1224.4049067304622,282.3732432040619 L 1258.0603495354096,269.18068643221324 L 1244.8677927635608,302.83612923716043 L 1277.9943309493378,317.3055747138119 L 1244.8677927635608,331.77502019046335 L 1258.0603495354096,365.43046299541055 L 1224.4049067304622,352.2379062235619 L 1209.935461253811,385.3644444093388 L 1195.4660157771596,352.2379062235619 L 1161.8105729722122,365.43046299541055 L 1175.003129744061,331.77502019046335 L 1141.876591558284,317.3055747138119 L 1175.003129744061,302.83612923716043 L 1161.8105729722122,269.18068643221324 L 1195.4660157771593,282.37324320406196 Z" fill="none" stroke="#FFFFFF" stroke-width="2.1882336147540404" /><path d="M -75.62096632836318,380.22221869901 L -61.15152085171173,413.3487568847869 L -27.49607804676451,400.1562001129382 L -40.68863481861322,433.8116429178854 L -7.562096632836315,448.2810883945369 L -40.68863481861322,462.75053387118834 L -27.49607804676451,496.40597667613554 L -61.15152085171173,483.21341990428687 L -75.62096632836318,516.3399580900638 L -90.09041180501463,483.21341990428687 L -123.74585460996184,496.40597667613554 L -110.55329783811314,462.75053387118834 L -143.67983602389006,448.2810883945369 L -110.55329783811314,433.8116429178854 L -123.74585460996187,400.1562001129382 L -90.09041180501465,413.3487568847869 Z" fill="none" stroke="#FFFFFF" stroke-width="2.1882336147540404" /><path d="M 75.62096632836318,380.22221869901 L 90.09041180501464,413.3487568847869 L 123.74585460996185,400.1562001129382 L 110.55329783811314,433.8116429178854 L 143.67983602389006,448.2810883945369 L 110.55329783811314,462.75053387118834 L 123.74585460996185,496.40597667613554 L 90.09041180501464,483.21341990428687 L 75.62096632836318,516.3399580900638 L 61.15152085171173,483.21341990428687 L 27.496078046764517,496.40597667613554 L 40.688634818613224,462.75053387118834 L 7.562096632836315,448.2810883945369 L 40.68863481861322,433.8116429178854 L 27.496078046764502,400.1562001129382 L 61.15152085171171,413.3487568847869 Z" fill="none" stroke="#FFFFFF" stroke-width="2.1882336147540404" /><path d="M 226.86289898508954,380.22221869901 L 241.332344461741,413.3487568847869 L 274.9877872666882,400.1562001129382 L 261.79523049483953,433.8116429178854 L 294.9217686806164,448.2810883945369 L 261.79523049483953,462.75053387118834 L 274.9877872666882,496.40597667613554 L 241.332344461741,483.21341990428687 L 226.86289898508954,516.3399580900638 L 212.39345350843809,483.21341990428687 L 178.7380107034909,496.40597667613554 L 191.9305674753396,462.75053387118834 L 158.80402928956266,448.2810883945369 L 191.9305674753396,433.8116429178854 L 178.73801070349086,400.1562001129382 L 212.39345350843809,413.3487568847869 Z" fill="none" stroke="#FFFFFF" stroke-width="2.1882336147540404" /><path d="M 378.1048316418159,380.22221869901 L 392.57427711846736,413.3487568847869 L 426.22971992341456,400.1562001129382 L 413.0371631515659,433.8116429178854 L 446.1637013373428,448.2810883945369 L 413.0371631515659,462.75053387118834 L 426.22971992341456,496.40597667613554 L 392.57427711846736,483.21341990428687 L 378.1048316418159,516.3399580900638 L 363.63538616516445,483.21341990428687 L 329.97994336021725,496.40597667613554 L 343.1725001320659,462.75053387118834 L 310.045961946289,448.2810883945369 L 343.1725001320659,433.8116429178854 L 329.97994336021725,400.1562001129382 L 363.63538616516445,413.3487568847869 Z" fill="none" stroke="#FFFFFF" stroke-width="2.1882336147540404" /><path d="M 529.3467642985422,380.22221869901 L 543.8162097751937,413.3487568847869 L 577.4716525801409,400.1562001129382 L 564.2790958082921,433.8116429178854 L 597.405633994069,448.2810883945369 L 564.2790958082921,462.75053387118834 L 577.4716525801409,496.40597667613554 L 543.8162097751937,483.21341990428687 L 529.3467642985422,516.3399580900638 L 514.8773188218908,483.21341990428687 L 481.22187601694355,496.40597667613554 L 494.4144327887923,462.75053387118834 L 461.28789460301533,448.2810883945369 L 494.4144327887922,433.8116429178854 L 481.22187601694355,400.1562001129382 L 514.8773188218908,413.3487568847869 Z" fill="none" stroke="#FFFFFF" stroke-width="2.1882336147540404" /><path d="M 680.5886969552687,380.22221869901 L 695.0581424319201,413.3487568847869 L 728.7135852368674,400.1562001129382 L 715.5210284650186,433.8116429178854 L 748.6475666507955,448.2810883945369 L 715.5210284650186,462.75053387118834 L 728.7135852368674,496.40597667613554 L 695.0581424319201,483.21341990428687 L 680.5886969552687,516.3399580900638 L 666.1192514786172,483.21341990428687 L 632.46380867367,496.40597667613554 L 645.6563654455188,462.75053387118834 L 612.5298272597419,448.2810883945369 L 645.6563654455188,433.8116429178854 L 632.46380867367,400.1562001129382 L 666.1192514786172,413.3487568847869 Z" fill="none" stroke="#FFFFFF" stroke-width="2.1882336147540404" /><path d="M 831.8306296119949,380.22221869901 L 846.3000750886464,413.3487568847869 L 879.9555178935937,400.1562001129382 L 866.7629611217449,433.8116429178854 L 899.8894993075218,448.2810883945369 L 866.7629611217449,462.75053387118834 L 879.9555178935937,496.40597667613554 L 846.3000750886464,483.21341990428687 L 831.8306296119949,516.3399580900638 L 817.3611841353435,483.21341990428687 L 783.7057413303962,496.40597667613554 L 796.898298102245,462.75053387118834 L 763.7717599164681,448.2810883945369 L 796.898298102245,433.8116429178854 L 783.7057413303962,400.1562001129382 L 817.3611841353435,413.3487568847869 Z" fill="none" stroke="#FFFFFF" stroke-width="2.1882336147540404" /><path d="M 983.0725622687212,380.22221869901 L 997.5420077453726,413.3487568847869 L 1031.19745055032,400.1562001129382 L 1018.0048937784711,433.8116429178854 L 1051.1314319642481,448.2810883945369 L 1018.0048937784711,462.75053387118834 L 1031.19745055032,496.40597667613554 L 997.5420077453726,483.21341990428687 L 983.0725622687212,516.3399580900638 L 968.6031167920697,483.21341990428687 L 934.9476739871225,496.40597667613554 L 948.1402307589713,462.75053387118834 L 915.0136925731944,448.2810883945369 L 948.1402307589713,433.8116429178854 L 934.9476739871225,400.1562001129382 L 968.6031167920697,413.3487568847869 Z" fill="none" stroke="#FFFFFF" stroke-width="2.1882336147540404" /><path d="M 1134.3144949254477,380.22221869901 L 1148.783940402099,413.3487568847869 L 1182.4393832070464,400.1562001129382 L 1169.2468264351976,433.8116429178854 L 1202.3733646209746,448.2810883945369 L 1169.2468264351976,462.75053387118834 L 1182.4393832070464,496.40597667613554 L 1148.783940402099,483.21341990428687 L 1134.3144949254477,516.3399580900638 L 1119.8450494487963,483.21341990428687 L 1086.189606643849,496.40597667613554 L 1099.3821634156977,462.75053387118834 L 1066.2556252299207,448.2810883945369 L 1099.3821634156977,433.8116429178854 L 1086.189606643849,400.1562001129382 L 1119.845049448796,413.3487568847869 Z" fill="none" stroke="#FFFFFF" stroke-width="2.1882336147540404" /><path d="M 1285.5564275821741,380.22221869901 L 1300.0258730588255,413.3487568847869 L 1333.6813158637729,400.1562001129382 L 1320.488759091924,433.8116429178854 L 1353.615297277701,448.2810883945369 L 1320.488759091924,462.75053387118834 L 1333.6813158637729,496.40597667613554 L 1300.0258730588255,483.21341990428687 L 1285.5564275821741,516.3399580900638 L 1271.0869821055228,483.21341990428687 L 1237.4315393005754,496.40597667613554 L 1250.6240960724242,462.75053387118834 L 1217.4975578866472,448.2810883945369 L 1250.6240960724242,433.8116429178854 L 1237.4315393005754,400.1562001129382 L 1271.0869821055226,413.3487568847869 Z" fill="none" stroke="#FFFFFF" stroke-width="2.1882336147540404" /><path d="M 4.167403846310688e-15,511.1977323797351 L 14.469445476651453,544.324270565512 L 48.12488828159867,531.1317137936633 L 34.932331509749964,564.7871565986105 L 68.05886969552687,579.256602075262 L 34.932331509749964,593.7260475519134 L 48.12488828159867,627.3814903568607 L 14.469445476651453,614.1889335850119 L 4.167403846310688e-15,647.3154717707888 L -14.46944547665145,614.1889335850119 L -48.124888281598665,627.3814903568607 L -34.93233150974996,593.7260475519134 L -68.05886969552687,579.256602075262 L -34.932331509749964,564.7871565986105 L -48.12488828159868,531.1317137936633 L -14.469445476651472,544.324270565512 Z" fill="none" stroke="#FFFFFF" stroke-width="2.1882336147540404" /><path d="M 151.24193265672636,511.1977323797351 L 165.71137813337782,544.324270565512 L 199.36682093832502,531.1317137936633 L 186.17426416647632,564.7871565986105 L 219.30080235225324,579.256602075262 L 186.17426416647632,593.7260475519134 L 199.36682093832502,627.3814903568607 L 165.71137813337782,614.1889335850119 L 151.24193265672636,647.3154717707888 L 136.7724871800749,614.1889335850119 L 103.1170443751277,627.3814903568607 L 116.3096011469764,593.7260475519134 L 83.1830629611995,579.256602075262 L 116.3096011469764,564.7871565986105 L 103.11704437512768,531.1317137936633 L 136.7724871800749,544.324270565512 Z" fill="none" stroke="#FFFFFF" stroke-width="2.1882336147540404" /><path d="M 302.4838653134527,511.1977323797351 L 316.9533107901042,544.324270565512 L 350.6087535950514,531.1317137936633 L 337.4161968232027,564.7871565986105 L 370.5427350089796,579.256602075262 L 337.4161968232027,593.7260475519134 L 350.6087535950514,627.3814903568607 L 316.9533107901042,614.1889335850119 L 302.4838653134527,647.3154717707888 L 288.01441983680127,614.1889335850119 L 254.35897703185407,627.3814903568607 L 267.5515338037028,593.7260475519134 L 234.42499561792584,579.256602075262 L 267.55153380370274,564.7871565986105 L 254.35897703185404,531.1317137936633 L 288.01441983680127,544.324270565512 Z" fill="none" stroke="#FFFFFF" stroke-width="2.1882336147540404" /><path d="M 453.7257979701791,511.1977323797351 L 468.19524344683055,544.324270565512 L 501.85068625177774,531.1317137936633 L 488.6581294799291,564.7871565986105 L 521.7846676657059,579.256602075262 L 488.6581294799291,593.7260475519134 L 501.85068625177774,627.3814903568607 L 468.19524344683055,614.1889335850119 L 453.7257979701791,647.3154717707888 L 439.25635249352763,614.1889335850119 L 405.60090968858043,627.3814903568607 L 418.79346646042916,593.7260475519134 L 385.6669282746522,579.256602075262 L 418.7934664604291,564.7871565986105 L 405.60090968858043,531.1317137936633 L 439.25635249352763,544.324270565512 Z" fill="none" stroke="#FFFFFF" stroke-width="2.1882336147540404" /><path d="M 604.9677306269054,511.1977323797351 L 619.4371761035569,544.324270565512 L 653.0926189085042,531.1317137936633 L 639.9000621366554,564.7871565986105 L 673.0266003224323,579.256602075262 L 639.9000621366554,593.7260475519134 L 653.0926189085042,627.3814903568607 L 619.4371761035569,614.1889335850119 L 604.9677306269054,647.3154717707888 L 590.498285150254,614.1889335850119 L 556.8428423453067,627.3814903568607 L 570.0353991171555,593.7260475519134 L 536.9088609313786,579.256602075262 L 570.0353991171555,564.7871565986105 L 556.8428423453067,531.1317137936633 L 590.498285150254,544.324270565512 Z" fill="none" stroke="#FFFFFF" stroke-width="2.1882336147540404" /><path d="M 756.2096632836319,511.1977323797351 L 770.6791087602834,544.324270565512 L 804.3345515652306,531.1317137936633 L 791.1419947933819,564.7871565986105 L 824.2685329791587,579.256602075262 L 791.1419947933819,593.7260475519134 L 804.3345515652306,627.3814903568607 L 770.6791087602834,614.1889335850119 L 756.2096632836319,647.3154717707888 L 741.7402178069805,614.1889335850119 L 708.0847750020332,627.3814903568607 L 721.277331773882,593.7260475519134 L 688.1507935881051,579.256602075262 L 721.277331773882,564.7871565986105 L 708.0847750020332,531.1317137936633 L 741.7402178069805,544.324270565512 Z" fill="none" stroke="#FFFFFF" stroke-width="2.1882336147540404" /><path d="M 907.4515959403582,511.1977323797351 L 921.9210414170096,544.324270565512 L 955.5764842219569,531.1317137936633 L 942.3839274501081,564.7871565986105 L 975.510465635885,579.256602075262 L 942.3839274501081,593.7260475519134 L 955.5764842219569,627.3814903568607 L 921.9210414170096,614.1889335850119 L 907.4515959403582,647.3154717707888 L 892.9821504637067,614.1889335850119 L 859.3267076587595,627.3814903568607 L 872.5192644306082,593.7260475519134 L 839.3927262448314,579.256602075262 L 872.5192644306082,564.7871565986105 L 859.3267076587595,531.1317137936633 L 892.9821504637067,544.324270565512 Z" fill="none" stroke="#FFFFFF" stroke-width="2.1882336147540404" /><path d="M 1058.6935285970844,511.1977323797351 L 1073.1629740737358,544.324270565512 L 1106.8184168786831,531.1317137936633 L 1093.6258601068344,564.7871565986105 L 1126.7523982926114,579.256602075262 L 1093.6258601068344,593.7260475519134 L 1106.8184168786831,627.3814903568607 L 1073.1629740737358,614.1889335850119 L 1058.6935285970844,647.3154717707888 L 1044.224083120433,614.1889335850119 L 1010.5686403154857,627.3814903568607 L 1023.7611970873345,593.7260475519134 L 990.6346589015576,579.256602075262 L 1023.7611970873345,564.7871565986105 L 1010.5686403154857,531.1317137936633 L 1044.2240831204329,544.324270565512 Z" fill="none" stroke="#FFFFFF" stroke-width="2.1882336147540404" /><path d="M 1209.935461253811,511.1977323797351 L 1224.4049067304622,544.324270565512 L 1258.0603495354096,531.1317137936633 L 1244.8677927635608,564.7871565986105 L 1277.9943309493378,579.256602075262 L 1244.8677927635608,593.7260475519134 L 1258.0603495354096,627.3814903568607 L 1224.4049067304622,614.1889335850119 L 1209.935461253811,647.3154717707888 L 1195.4660157771596,614.1889335850119 L 1161.8105729722122,627.3814903568607 L 1175.003129744061,593.7260475519134 L 1141.876591558284,579.256602075262 L 1175.003129744061,564.7871565986105 L 1161.8105729722122,531.1317137936633 L 1195.4660157771593,544.324270565512 Z" fill="none" stroke="#FFFFFF" stroke-width="2.1882336147540404" /><path d="M -75.62096632836318,642.1732460604602 L -61.15152085171173,675.2997842462371 L -27.49607804676451,662.1072274743883 L -40.68863481861322,695.7626702793356 L -7.562096632836315,710.232115755987 L -40.68863481861322,724.7015612326385 L -27.49607804676451,758.3570040375857 L -61.15152085171173,745.164447265737 L -75.62096632836318,778.2909854515138 L -90.09041180501463,745.164447265737 L -123.74585460996184,758.3570040375857 L -110.55329783811314,724.7015612326385 L -143.67983602389006,710.232115755987 L -110.55329783811314,695.7626702793356 L -123.74585460996187,662.1072274743883 L -90.09041180501465,675.2997842462371 Z" fill="none" stroke="#FFFFFF" stroke-width="2.1882336147540404" /><path d="M 75.62096632836318,642.1732460604602 L 90.09041180501464,675.2997842462371 L 123.74585460996185,662.1072274743883 L 110.55329783811314,695.7626702793356 L 143.67983602389006,710.232115755987 L 110.55329783811314,724.7015612326385 L 123.74585460996185,758.3570040375857 L 90.09041180501464,745.164447265737 L 75.62096632836318,778.2909854515138 L 61.15152085171173,745.164447265737 L 27.496078046764517,758.3570040375857 L 40.688634818613224,724.7015612326385 L 7.562096632836315,710.232115755987 L 40.68863481861322,695.7626702793356 L 27.496078046764502,662.1072274743883 L 61.15152085171171,675.2997842462371 Z" fill="none" stroke="#FFFFFF" stroke-width="2.1882336147540404" /><path d="M 226.86289898508954,642.1732460604602 L 241.332344461741,675.2997842462371 L 274.9877872666882,662.1072274743883 L 261.79523049483953,695.7626702793356 L 294.9217686806164,710.232115755987 L 261.79523049483953,724.7015612326385 L 274.9877872666882,758.3570040375857 L 241.332344461741,745.164447265737 L 226.86289898508954,778.2909854515138 L 212.39345350843809,745.164447265737 L 178.7380107034909,758.3570040375857 L 191.9305674753396,724.7015612326385 L 158.80402928956266,710.232115755987 L 191.9305674753396,695.7626702793356 L 178.73801070349086,662.1072274743883 L 212.39345350843809,675.2997842462371 Z" fill="none" stroke="#FFFFFF" stroke-width="2.1882336147540404" /><path d="M 378.1048316418159,642.1732460604602 L 392.57427711846736,675.2997842462371 L 426.22971992341456,662.1072274743883 L 413.0371631515659,695.7626702793356 L 446.1637013373428,710.232115755987 L 413.0371631515659,724.7015612326385 L 426.22971992341456,758.3570040375857 L 392.57427711846736,745.164447265737 L 378.1048316418159,778.2909854515138 L 363.63538616516445,745.164447265737 L 329.97994336021725,758.3570040375857 L 343.1725001320659,724.7015612326385 L 310.045961946289,710.232115755987 L 343.1725001320659,695.7626702793356 L 329.97994336021725,662.1072274743883 L 363.63538616516445,675.2997842462371 Z" fill="none" stroke="#FFFFFF" stroke-width="2.1882336147540404" /><path d="M 529.3467642985422,642.1732460604602 L 543.8162097751937,675.2997842462371 L 577.4716525801409,662.1072274743883 L 564.2790958082921,695.7626702793356 L 597.405633994069,710.232115755987 L 564.2790958082921,724.7015612326385 L 577.4716525801409,758.3570040375857 L 543.8162097751937,745.164447265737 L 529.3467642985422,778.2909854515138 L 514.8773188218908,745.164447265737 L 481.22187601694355,758.3570040375857 L 494.4144327887923,724.7015612326385 L 461.28789460301533,710.232115755987 L 494.4144327887922,695.7626702793356 L 481.22187601694355,662.1072274743883 L 514.8773188218908,675.2997842462371 Z" fill="none" stroke="#FFFFFF" stroke-width="2.1882336147540404" /><path d="M 680.5886969552687,642.1732460604602 L 695.0581424319201,675.2997842462371 L 728.7135852368674,662.1072274743883 L 715.5210284650186,695.7626702793356 L 748.6475666507955,710.232115755987 L 715.5210284650186,724.7015612326385 L 728.7135852368674,758.3570040375857 L 695.0581424319201,745.164447265737 L 680.5886969552687,778.2909854515138 L 666.1192514786172,745.164447265737 L 632.46380867367,758.3570040375857 L 645.6563654455188,724.7015612326385 L 612.5298272597419,710.232115755987 L 645.6563654455188,695.7626702793356 L 632.46380867367,662.1072274743883 L 666.1192514786172,675.2997842462371 Z" fill="none" stroke="#FFFFFF" stroke-width="2.1882336147540404" /><path d="M 831.8306296119949,642.1732460604602 L 846.3000750886464,675.2997842462371 L 879.9555178935937,662.1072274743883 L 866.7629611217449,695.7626702793356 L 899.8894993075218,710.232115755987 L 866.7629611217449,724.7015612326385 L 879.9555178935937,758.3570040375857 L 846.3000750886464,745.164447265737 L 831.8306296119949,778.2909854515138 L 817.3611841353435,745.164447265737 L 783.7057413303962,758.3570040375857 L 796.898298102245,724.7015612326385 L 763.7717599164681,710.232115755987 L 796.898298102245,695.7626702793356 L 783.7057413303962,662.1072274743883 L 817.3611841353435,675.2997842462371 Z" fill="none" stroke="#FFFFFF" stroke-width="2.1882336147540404" /><path d="M 983.0725622687212,642.1732460604602 L 997.5420077453726,675.2997842462371 L 1031.19745055032,662.1072274743883 L 1018.0048937784711,695.7626702793356 L 1051.1314319642481,710.232115755987 L 1018.0048937784711,724.7015612326385 L 1031.19745055032,758.3570040375857 L 997.5420077453726,745.164447265737 L 983.0725622687212,778.2909854515138 L 968.6031167920697,745.164447265737 L 934.9476739871225,758.3570040375857 L 948.1402307589713,724.7015612326385 L 915.0136925731944,710.232115755987 L 948.1402307589713,695.7626702793356 L 934.9476739871225,662.1072274743883 L 968.6031167920697,675.2997842462371 Z" fill="none" stroke="#FFFFFF" stroke-width="2.1882336147540404" /><path d="M 1134.3144949254477,642.1732460604602 L 1148.783940402099,675.2997842462371 L 1182.4393832070464,662.1072274743883 L 1169.2468264351976,695.7626702793356 L 1202.3733646209746,710.232115755987 L 1169.2468264351976,724.7015612326385 L 1182.4393832070464,758.3570040375857 L 1148.783940402099,745.164447265737 L 1134.3144949254477,778.2909854515138 L 1119.8450494487963,745.164447265737 L 1086.189606643849,758.3570040375857 L 1099.3821634156977,724.7015612326385 L 1066.2556252299207,710.232115755987 L 1099.3821634156977,695.7626702793356 L 1086.189606643849,662.1072274743883 L 1119.845049448796,675.2997842462371 Z" fill="none" stroke="#FFFFFF" stroke-width="2.1882336147540404" /><path d="M 1285.5564275821741,642.1732460604602 L 1300.0258730588255,675.2997842462371 L 1333.6813158637729,662.1072274743883 L 1320.488759091924,695.7626702793356 L 1353.615297277701,710.232115755987 L 1320.488759091924,724.7015612326385 L 1333.6813158637729,758.3570040375857 L 1300.0258730588255,745.164447265737 L 1285.5564275821741,778.2909854515138 L 1271.0869821055228,745.164447265737 L 1237.4315393005754,758.3570040375857 L 1250.6240960724242,724.7015612326385 L 1217.4975578866472,710.232115755987 L 1250.6240960724242,695.7626702793356 L 1237.4315393005754,662.1072274743883 L 1271.0869821055226,675.2997842462371 Z" fill="none" stroke="#FFFFFF" stroke-width="2.1882336147540404" /><line x1="68.05886969552687" y1="55.354547352361834" x2="83.1830629611995" y2="55.354547352361834" stroke="#FFFFFF" stroke-width="0.5"/><line x1="219.30080235225324" y1="55.354547352361834" x2="234.42499561792584" y2="55.354547352361834" stroke="#FFFFFF" stroke-width="0.5"/><line x1="370.5427350089796" y1="55.354547352361834" x2="385.6669282746522" y2="55.354547352361834" stroke="#FFFFFF" stroke-width="0.5"/><line x1="521.7846676657059" y1="55.354547352361834" x2="536.9088609313786" y2="55.354547352361834" stroke="#FFFFFF" stroke-width="0.5"/><line x1="673.0266003224323" y1="55.354547352361834" x2="688.1507935881051" y2="55.354547352361834" stroke="#FFFFFF" stroke-width="0.5"/><line x1="824.2685329791587" y1="55.354547352361834" x2="839.3927262448314" y2="55.354547352361834" stroke="#FFFFFF" stroke-width="0.5"/><line x1="975.510465635885" y1="55.354547352361834" x2="990.6346589015576" y2="55.354547352361834" stroke="#FFFFFF" stroke-width="0.5"/><line x1="1126.7523982926114" y1="55.354547352361834" x2="1141.876591558284" y2="55.354547352361834" stroke="#FFFFFF" stroke-width="0.5"/><line x1="143.67983602389006" y1="186.33006103308685" x2="158.80402928956266" y2="186.33006103308685" stroke="#FFFFFF" stroke-width="0.5"/><line x1="294.9217686806164" y1="186.33006103308685" x2="310.045961946289" y2="186.33006103308685" stroke="#FFFFFF" stroke-width="0.5"/><line x1="446.1637013373428" y1="186.33006103308685" x2="461.28789460301533" y2="186.33006103308685" stroke="#FFFFFF" stroke-width="0.5"/><line x1="597.405633994069" y1="186.33006103308685" x2="612.5298272597419" y2="186.33006103308685" stroke="#FFFFFF" stroke-width="0.5"/><line x1="748.6475666507955" y1="186.33006103308685" x2="763.7717599164681" y2="186.33006103308685" stroke="#FFFFFF" stroke-width="0.5"/><line x1="899.8894993075218" y1="186.33006103308685" x2="915.0136925731944" y2="186.33006103308685" stroke="#FFFFFF" stroke-width="0.5"/><line x1="1051.1314319642481" y1="186.33006103308685" x2="1066.2556252299207" y2="186.33006103308685" stroke="#FFFFFF" stroke-width="0.5"/><line x1="68.05886969552687" y1="317.3055747138119" x2="83.1830629611995" y2="317.3055747138119" stroke="#FFFFFF" stroke-width="0.5"/><line x1="219.30080235225324" y1="317.3055747138119" x2="234.42499561792584" y2="317.3055747138119" stroke="#FFFFFF" stroke-width="0.5"/><line x1="370.5427350089796" y1="317.3055747138119" x2="385.6669282746522" y2="317.3055747138119" stroke="#FFFFFF" stroke-width="0.5"/><line x1="521.7846676657059" y1="317.3055747138119" x2="536.9088609313786" y2="317.3055747138119" stroke="#FFFFFF" stroke-width="0.5"/><line x1="673.0266003224323" y1="317.3055747138119" x2="688.1507935881051" y2="317.3055747138119" stroke="#FFFFFF" stroke-width="0.5"/><line x1="824.2685329791587" y1="317.3055747138119" x2="839.3927262448314" y2="317.3055747138119" stroke="#FFFFFF" stroke-width="0.5"/><line x1="975.510465635885" y1="317.3055747138119" x2="990.6346589015576" y2="317.3055747138119" stroke="#FFFFFF" stroke-width="0.5"/><line x1="1126.7523982926114" y1="317.3055747138119" x2="1141.876591558284" y2="317.3055747138119" stroke="#FFFFFF" stroke-width="0.5"/><line x1="143.67983602389006" y1="448.2810883945369" x2="158.80402928956266" y2="448.2810883945369" stroke="#FFFFFF" stroke-width="0.5"/><line x1="294.9217686806164" y1="448.2810883945369" x2="310.045961946289" y2="448.2810883945369" stroke="#FFFFFF" stroke-width="0.5"/><line x1="446.1637013373428" y1="448.2810883945369" x2="461.28789460301533" y2="448.2810883945369" stroke="#FFFFFF" stroke-width="0.5"/><line x1="597.405633994069" y1="448.2810883945369" x2="612.5298272597419" y2="448.2810883945369" stroke="#FFFFFF" stroke-width="0.5"/><line x1="748.6475666507955" y1="448.2810883945369" x2="763.7717599164681" y2="448.2810883945369" stroke="#FFFFFF" stroke-width="0.5"/><line x1="899.8894993075218" y1="448.2810883945369" x2="915.0136925731944" y2="448.2810883945369" stroke="#FFFFFF" stroke-width="0.5"/><line x1="1051.1314319642481" y1="448.2810883945369" x2="1066.2556252299207" y2="448.2810883945369" stroke="#FFFFFF" stroke-width="0.5"/><line x1="68.05886969552687" y1="579.256602075262" x2="83.1830629611995" y2="579.256602075262" stroke="#FFFFFF" stroke-width="0.5"/><line x1="219.30080235225324" y1="579.256602075262" x2="234.42499561792584" y2="579.256602075262" stroke="#FFFFFF" stroke-width="0.5"/><line x1="370.5427350089796" y1="579.256602075262" x2="385.6669282746522" y2="579.256602075262" stroke="#FFFFFF" stroke-width="0.5"/><line x1="521.7846676657059" y1="579.256602075262" x2="536.9088609313786" y2="579.256602075262" stroke="#FFFFFF" stroke-width="0.5"/><line x1="673.0266003224323" y1="579.256602075262" x2="688.1507935881051" y2="579.256602075262" stroke="#FFFFFF" stroke-width="0.5"/><line x1="824.2685329791587" y1="579.256602075262" x2="839.3927262448314" y2="579.256602075262" stroke="#FFFFFF" stroke-width="0.5"/><line x1="975.510465635885" y1="579.256602075262" x2="990.6346589015576" y2="579.256602075262" stroke="#FFFFFF" stroke-width="0.5"/><line x1="1126.7523982926114" y1="579.256602075262" x2="1141.876591558284" y2="579.256602075262" stroke="#FFFFFF" stroke-width="0.5"/></g><g opacity="0.24575405726011568"><path d="M 1125.569844770045 439.76355334732847 L 1094.263741331161 439.76355334732847 L 1094.263741331161 479.40264114788994 L 1050.5448450733936 479.40264114788994" fill="none" stroke="#FFFFFF" stroke-width="2.271407962670274" stroke-linecap="square"/><path d="M 1092.262745412189 76.98405507811535 L 1092.262745412189 118.91843680305118 L 1056.6614643297783 118.91843680305118 L 1056.6614643297783 157.1100495077506" fill="none" stroke="#FFFFFF" stroke-width="2.271407962670274" stroke-linecap="square"/><rect x="617.021539575111" y="134.99724402060335" width="3.0214737329599988" height="3.0214737329599988" fill="#FFFFFF"/></g><g opacity="0.2"><rect x="40" y="40" width="1120" height="550" fill="none" stroke="#444444" stroke-width="2" rx="8"/></g><g opacity="0.8913767339621562"><line x1="50" y1="50" x2="70" y2="50" stroke="#888888" stroke-width="3"/><line x1="50" y1="50" x2="50" y2="70" stroke="#888888" stroke-width="3"/><line x1="1150" y1="580" x2="1130" y2="580" stroke="#888888" stroke-width="3"/><line x1="1150" y1="580" x2="1150" y2="560" stroke="#888888" stroke-width="3"/></g></svg>