<svg xmlns="http://www.w3.org/2000/svg" width="1200" height="630" viewBox="0 0 1200 630"><rect x="0" y="0" width="1200" height="630" fill="#0D0D0D"/><g opacity="0.05"><line x1="0" y1="0" x2="0" y2="630" stroke="#8B7355" stroke-width="0.5"/><line x1="60" y1="0" x2="60" y2="630" stroke="#8B7355" stroke-width="0.5"/><line x1="120" y1="0" x2="120" y2="630" stroke="#8B7355" stroke-width="0.5"/><line x1="180" y1="0" x2="180" y2="630" stroke="#8B7355" stroke-width="0.5"/><line x1="240" y1="0" x2="240" y2="630" stroke="#8B7355" stroke-width="0.5"/><line x1="300" y1="0" x2="300" y2="630" stroke="#8B7355" stroke-width="0.5"/><line x1="360" y1="0" x2="360" y2="630" stroke="#8B7355" stroke-width="0.5"/><line x1="420" y1="0" x2="420" y2="630" stroke="#8B7355" stroke-width="0.5"/><line x1="480" y1="0" x2="480" y2="630" stroke="#8B7355" stroke-width="0.5"/><line x1="540" y1="0" x2="540" y2="630" stroke="#8B7355" stroke-width="0.5"/><line x1="600" y1="0" x2="600" y2="630" stroke="#8B7355" stroke-width="0.5"/><line x1="660" y1="0" x2="660" y2="630" stroke="#8B7355" stroke-width="0.5"/><line x1="720" y1="0" x2="720" y2="630" stroke="#8B7355" stroke-width="0.5"/><line x1="780" y1="0" x2="780" y2="630" stroke="#8B7355" stroke-width="0.5"/><line x1="840" y1="0" x2="840" y2="630" stroke="#8B7355" stroke-width="0.5"/><line x1="900" y1="0" x2="900" y2="630" stroke="#8B7355" stroke-width="0.5"/><line x1="960" y1="0" x2="960" y2="630" stroke="#8B7355" stroke-width="0.5"/><line x1="1020" y1="0" x2="1020" y2="630" stroke="#8B7355" stroke-width="0.5"/><line x1="1080" y1="0" x2="1080" y2="630" stroke="#8B7355" stroke-width="0.5"/><line x1="1140" y1="0" x2="1140" y2="630" stroke="#8B7355" stroke-width="0.5"/><line x1="1200" y1="0" x2="1200" y2="630" stroke="#8B7355" stroke-width="0.5"/><line x1="0" y1="0" x2="1200" y2="0" stroke="#8B7355" stroke-width="0.5"/><line x1="0" y1="60" x2="1200" y2="60" stroke="#8B7355" stroke-width="0.5"/><line x1="0" y1="120" x2="1200" y2="120" stroke="#8B7355" stroke-width="0.5"/><line x1="0" y1="180" x2="1200" y2="180" stroke="#8B7355" stroke-width="0.5"/><line x1="0" y1="240" x2="1200" y2="240" stroke="#8B7355" stroke-width="0.5"/><line x1="0" y1="300" x2="1200" y2="300" stroke="#8B7355" stroke-width="0.5"/><line x1="0" y1="360" x2="1200" y2="360" stroke="#8B7355" stroke-width="0.5"/><line x1="0" y1="420" x2="1200" y2="420" stroke="#8B7355" stroke-width="0.5"/><line x1="0" y1="480" x2="1200" y2="480" stroke="#8B7355" stroke-width="0.5"/><line x1="0" y1="540" x2="1200" y2="540" stroke="#8B7355" stroke-width="0.5"/><line x1="0" y1="600" x2="1200" y2="600" stroke="#8B7355" stroke-width="0.5"/><line x1="0" y1="660" x2="1200" y2="660" stroke="#8B7355" stroke-width="0.5"/></g><g opacity="0.08566980363599482"><path d="M -65.26139253472861,-123.99664581598437 L -52.77416568667091,-95.40822494773894 L -23.729296644843252,-106.79348842461397 L -35.114560121718284,-77.74861938278632 L -6.526139253472863,-65.26139253472861 L -35.114560121718284,-52.77416568667092 L -23.729296644843252,-23.72929664484326 L -52.77416568667091,-35.114560121718284 L -65.26139253472861,-6.526139253472863 L -77.7486193827863,-35.114560121718284 L -106.79348842461397,-23.729296644843252 L -95.40822494773893,-52.7741656866709 L -123.99664581598437,-65.2613925347286 L -95.40822494773894,-77.74861938278632 L -106.79348842461398,-106.79348842461397 L -77.74861938278633,-95.40822494773893 Z" fill="none" stroke="#FFD700" stroke-width="2.8027691255802147" /><path d="M 65.26139253472861,-123.99664581598437 L 77.74861938278632,-95.40822494773894 L 106.79348842461397,-106.79348842461397 L 95.40822494773894,-77.74861938278632 L 123.99664581598437,-65.26139253472861 L 95.40822494773894,-52.77416568667092 L 106.79348842461397,-23.72929664484326 L 77.74861938278632,-35.114560121718284 L 65.26139253472861,-6.526139253472863 L 52.77416568667092,-35.114560121718284 L 23.72929664484326,-23.729296644843252 L 35.1145601217183,-52.7741656866709 L 6.526139253472863,-65.2613925347286 L 35.11456012171829,-77.74861938278632 L 23.729296644843245,-106.79348842461397 L 52.7741656866709,-95.40822494773893 Z" fill="none" stroke="#FFD700" stroke-width="2.8027691255802147" /><path d="M 195.78417760418586,-123.99664581598437 L 208.27140445224356,-95.40822494773894 L 237.31627349407123,-106.79348842461397 L 225.93101001719617,-77.74861938278632 L 254.5194308854416,-65.26139253472861 L 225.93101001719617,-52.77416568667092 L 237.31627349407123,-23.72929664484326 L 208.27140445224356,-35.114560121718284 L 195.78417760418586,-6.526139253472863 L 183.29695075612815,-35.114560121718284 L 154.25208171430052,-23.729296644843252 L 165.63734519117554,-52.7741656866709 L 137.0489243229301,-65.2613925347286 L 165.63734519117554,-77.74861938278632 L 154.2520817143005,-106.79348842461397 L 183.29695075612815,-95.40822494773893 Z" fill="none" stroke="#FFD700" stroke-width="2.8027691255802147" /><path d="M 326.3069626736431,-123.99664581598437 L 338.7941895217008,-95.40822494773894 L 367.83905856352845,-106.79348842461397 L 356.45379508665343,-77.74861938278632 L 385.0422159548989,-65.26139253472861 L 356.45379508665343,-52.77416568667092 L 367.83905856352845,-23.72929664484326 L 338.7941895217008,-35.114560121718284 L 326.3069626736431,-6.526139253472863 L 313.81973582558544,-35.114560121718284 L 284.7748667837578,-23.729296644843252 L 296.1601302606328,-52.7741656866709 L 267.57170939238733,-65.2613925347286 L 296.1601302606328,-77.74861938278632 L 284.7748667837577,-106.79348842461397 L 313.8197358255854,-95.40822494773893 Z" fill="none" stroke="#FFD700" stroke-width="2.8027691255802147" /><path d="M 456.8297477431003,-123.99664581598437 L 469.316974591158,-95.40822494773894 L 498.36184363298565,-106.79348842461397 L 486.97658015611063,-77.74861938278632 L 515.5650010243561,-65.26139253472861 L 486.97658015611063,-52.77416568667092 L 498.36184363298565,-23.72929664484326 L 469.316974591158,-35.114560121718284 L 456.8297477431003,-6.526139253472863 L 444.34252089504264,-35.114560121718284 L 415.297651853215,-23.729296644843252 L 426.68291533009,-52.7741656866709 L 398.09449446184453,-65.2613925347286 L 426.68291533009,-77.74861938278632 L 415.2976518532149,-106.79348842461397 L 444.3425208950426,-95.40822494773893 Z" fill="none" stroke="#FFD700" stroke-width="2.8027691255802147" /><path d="M 587.3525328125575,-123.99664581598437 L 599.8397596606152,-95.40822494773894 L 628.8846287024428,-106.79348842461397 L 617.4993652255678,-77.74861938278632 L 646.0877860938132,-65.26139253472861 L 617.4993652255678,-52.77416568667092 L 628.8846287024428,-23.72929664484326 L 599.8397596606152,-35.114560121718284 L 587.3525328125575,-6.526139253472863 L 574.8653059644997,-35.114560121718284 L 545.8204369226721,-23.729296644843252 L 557.2057003995471,-52.7741656866709 L 528.6172795313017,-65.2613925347286 L 557.2057003995471,-77.74861938278632 L 545.8204369226721,-106.79348842461397 L 574.8653059644997,-95.40822494773893 Z" fill="none" stroke="#FFD700" stroke-width="2.8027691255802147" /><path d="M 717.8753178820148,-123.99664581598437 L 730.3625447300725,-95.40822494773894 L 759.4074137719001,-106.79348842461397 L 748.0221502950251,-77.74861938278632 L 776.6105711632705,-65.26139253472861 L 748.0221502950251,-52.77416568667092 L 759.4074137719001,-23.72929664484326 L 730.3625447300725,-35.114560121718284 L 717.8753178820148,-6.526139253472863 L 705.388091033957,-35.114560121718284 L 676.3432219921294,-23.729296644843252 L 687.7284854690045,-52.7741656866709 L 659.140064600759,-65.2613925347286 L 687.7284854690045,-77.74861938278632 L 676.3432219921294,-106.79348842461397 L 705.388091033957,-95.40822494773893 Z" fill="none" stroke="#FFD700" stroke-width="2.8027691255802147" /><path d="M 848.398102951472,-123.99664581598437 L 860.8853297995297,-95.40822494773894 L 889.9301988413573,-106.79348842461397 L 878.5449353644823,-77.74861938278632 L 907.1333562327277,-65.26139253472861 L 878.5449353644823,-52.77416568667092 L 889.9301988413573,-23.72929664484326 L 860.8853297995297,-35.114560121718284 L 848.398102951472,-6.526139253472863 L 835.9108761034142,-35.114560121718284 L 806.8660070615866,-23.729296644843252 L 818.2512705384617,-52.7741656866709 L 789.6628496702162,-65.2613925347286 L 818.2512705384617,-77.74861938278632 L 806.8660070615866,-106.79348842461397 L 835.9108761034142,-95.40822494773893 Z" fill="none" stroke="#FFD700" stroke-width="2.8027691255802147" /><path d="M 978.9208880209292,-123.99664581598437 L 991.4081148689869,-95.40822494773894 L 1020.4529839108145,-106.79348842461397 L 1009.0677204339395,-77.74861938278632 L 1037.656141302185,-65.26139253472861 L 1009.0677204339395,-52.77416568667092 L 1020.4529839108145,-23.72929664484326 L 991.4081148689869,-35.114560121718284 L 978.9208880209292,-6.526139253472863 L 966.4336611728714,-35.114560121718284 L 937.3887921310438,-23.729296644843252 L 948.7740556079189,-52.7741656866709 L 920.1856347396734,-65.2613925347286 L 948.7740556079189,-77.74861938278632 L 937.3887921310438,-106.79348842461397 L 966.4336611728714,-95.40822494773893 Z" fill="none" stroke="#FFD700" stroke-width="2.8027691255802147" /><path d="M 1109.4436730903865,-123.99664581598437 L 1121.930899938444,-95.40822494773894 L 1150.9757689802718,-106.79348842461397 L 1139.5905055033968,-77.74861938278632 L 1168.1789263716423,-65.26139253472861 L 1139.5905055033968,-52.77416568667092 L 1150.9757689802718,-23.72929664484326 L 1121.930899938444,-35.114560121718284 L 1109.4436730903865,-6.526139253472863 L 1096.9564462423289,-35.114560121718284 L 1067.9115772005011,-23.729296644843252 L 1079.2968406773762,-52.7741656866709 L 1050.7084198091306,-65.2613925347286 L 1079.2968406773762,-77.74861938278632 L 1067.9115772005011,-106.79348842461397 L 1096.9564462423289,-95.40822494773893 Z" fill="none" stroke="#FFD700" stroke-width="2.8027691255802147" /><path d="M 1239.9664581598436,-123.99664581598437 L 1252.4536850079012,-95.40822494773894 L 1281.498554049729,-106.79348842461397 L 1270.1132905728539,-77.74861938278632 L 1298.7017114410994,-65.26139253472861 L 1270.1132905728539,-52.77416568667092 L 1281.498554049729,-23.72929664484326 L 1252.4536850079012,-35.114560121718284 L 1239.9664581598436,-6.526139253472863 L 1227.479231311786,-35.114560121718284 L 1198.4343622699582,-23.729296644843252 L 1209.8196257468333,-52.7741656866709 L 1181.2312048785877,-65.2613925347286 L 1209.8196257468333,-77.74861938278632 L 1198.4343622699582,-106.79348842461397 L 1227.479231311786,-95.40822494773893 Z" fill="none" stroke="#FFD700" stroke-width="2.8027691255802147" /><path d="M 3.596496996399946e-15,-10.963913945834406 L 12.487226848057698,17.62450692241102 L 41.53209588988536,6.23924344553599 L 30.146832413010326,35.28411248736365 L 58.73525328125575,47.771339335421345 L 30.146832413010326,60.25856618347904 L 41.53209588988536,89.3034352253067 L 12.487226848057698,77.91817174843167 L 3.596496996399946e-15,106.5065926166771 L -12.487226848057695,77.91817174843167 L -41.532095889885355,89.30343522530671 L -30.14683241301032,60.25856618347906 L -58.73525328125575,47.77133933542135 L -30.146832413010323,35.28411248736364 L -41.53209588988537,6.23924344553599 L -12.487226848057714,17.624506922411026 Z" fill="none" stroke="#FFD700" stroke-width="2.8027691255802147" /><path d="M 130.52278506945723,-10.963913945834406 L 143.01001191751493,17.62450692241102 L 172.0548809593426,6.23924344553599 L 160.66961748246754,35.28411248736365 L 189.25803835071298,47.771339335421345 L 160.66961748246754,60.25856618347904 L 172.0548809593426,89.3034352253067 L 143.01001191751493,77.91817174843167 L 130.52278506945723,106.5065926166771 L 118.03555822139953,77.91817174843167 L 88.99068917957187,89.30343522530671 L 100.37595265644691,60.25856618347906 L 71.78753178820148,47.77133933542135 L 100.37595265644691,35.28411248736364 L 88.99068917957186,6.23924344553599 L 118.03555822139951,17.624506922411026 Z" fill="none" stroke="#FFD700" stroke-width="2.8027691255802147" /><path d="M 261.04557013891446,-10.963913945834406 L 273.53279698697213,17.62450692241102 L 302.5776660287998,6.23924344553599 L 291.1924025519248,35.28411248736365 L 319.78082342017024,47.771339335421345 L 291.1924025519248,60.25856618347904 L 302.5776660287998,89.3034352253067 L 273.53279698697213,77.91817174843167 L 261.04557013891446,106.5065926166771 L 248.55834329085675,77.91817174843167 L 219.51347424902912,89.30343522530671 L 230.89873772590414,60.25856618347906 L 202.3103168576587,47.77133933542135 L 230.89873772590414,35.28411248736364 L 219.5134742490291,6.23924344553599 L 248.55834329085675,17.624506922411026 Z" fill="none" stroke="#FFD700" stroke-width="2.8027691255802147" /><path d="M 391.5683552083717,-10.963913945834406 L 404.0555820564294,17.62450692241102 L 433.10045109825705,6.23924344553599 L 421.71518762138203,35.28411248736365 L 450.30360848962744,47.771339335421345 L 421.71518762138203,60.25856618347904 L 433.10045109825705,89.3034352253067 L 404.0555820564294,77.91817174843167 L 391.5683552083717,106.5065926166771 L 379.08112836031404,77.91817174843167 L 350.0362593184864,89.30343522530671 L 361.4215227953614,60.25856618347906 L 332.833101927116,47.77133933542135 L 361.4215227953614,35.28411248736364 L 350.0362593184864,6.23924344553599 L 379.081128360314,17.624506922411026 Z" fill="none" stroke="#FFD700" stroke-width="2.8027691255802147" /><path d="M 522.0911402778289,-10.963913945834406 L 534.5783671258866,17.62450692241102 L 563.6232361677143,6.23924344553599 L 552.2379726908392,35.28411248736365 L 580.8263935590846,47.771339335421345 L 552.2379726908392,60.25856618347904 L 563.6232361677143,89.3034352253067 L 534.5783671258866,77.91817174843167 L 522.0911402778289,106.5065926166771 L 509.60391342977124,77.91817174843167 L 480.5590443879436,89.30343522530671 L 491.9443078648186,60.25856618347906 L 463.3558869965732,47.77133933542135 L 491.9443078648186,35.28411248736364 L 480.5590443879436,6.23924344553599 L 509.6039134297712,17.624506922411026 Z" fill="none" stroke="#FFD700" stroke-width="2.8027691255802147" /><path d="M 652.6139253472861,-10.963913945834406 L 665.1011521953438,17.62450692241102 L 694.1460212371715,6.23924344553599 L 682.7607577602964,35.28411248736365 L 711.3491786285418,47.771339335421345 L 682.7607577602964,60.25856618347904 L 694.1460212371715,89.3034352253067 L 665.1011521953438,77.91817174843167 L 652.6139253472861,106.5065926166771 L 640.1266984992284,77.91817174843167 L 611.0818294574008,89.30343522530671 L 622.4670929342758,60.25856618347906 L 593.8786720660304,47.77133933542135 L 622.4670929342758,35.28411248736364 L 611.0818294574008,6.23924344553599 L 640.1266984992284,17.624506922411026 Z" fill="none" stroke="#FFD700" stroke-width="2.8027691255802147" /><path d="M 783.1367104167434,-10.963913945834406 L 795.6239372648012,17.62450692241102 L 824.6688063066288,6.23924344553599 L 813.2835428297537,35.28411248736365 L 841.8719636979991,47.771339335421345 L 813.2835428297537,60.25856618347904 L 824.6688063066288,89.3034352253067 L 795.6239372648012,77.91817174843167 L 783.1367104167434,106.5065926166771 L 770.6494835686857,77.91817174843167 L 741.6046145268581,89.30343522530671 L 752.9898780037331,60.25856618347906 L 724.4014571354877,47.77133933542135 L 752.9898780037331,35.28411248736364 L 741.6046145268581,6.23924344553599 L 770.6494835686857,17.624506922411026 Z" fill="none" stroke="#FFD700" stroke-width="2.8027691255802147" /><path d="M 913.6594954862006,-10.963913945834406 L 926.1467223342584,17.62450692241102 L 955.191591376086,6.23924344553599 L 943.8063278992109,35.28411248736365 L 972.3947487674563,47.771339335421345 L 943.8063278992109,60.25856618347904 L 955.191591376086,89.3034352253067 L 926.1467223342584,77.91817174843167 L 913.6594954862006,106.5065926166771 L 901.1722686381429,77.91817174843167 L 872.1273995963153,89.30343522530671 L 883.5126630731903,60.25856618347906 L 854.9242422049449,47.77133933542135 L 883.5126630731903,35.28411248736364 L 872.1273995963153,6.23924344553599 L 901.1722686381429,17.624506922411026 Z" fill="none" stroke="#FFD700" stroke-width="2.8027691255802147" /><path d="M 1044.1822805556578,-10.963913945834406 L 1056.6695074037154,17.62450692241102 L 1085.7143764455432,6.23924344553599 L 1074.3291129686681,35.28411248736365 L 1102.9175338369137,47.771339335421345 L 1074.3291129686681,60.25856618347904 L 1085.7143764455432,89.3034352253067 L 1056.6695074037154,77.91817174843167 L 1044.1822805556578,106.5065926166771 L 1031.6950537076002,77.91817174843167 L 1002.6501846657725,89.30343522530671 L 1014.0354481426475,60.25856618347906 L 985.4470272744021,47.77133933542135 L 1014.0354481426475,35.28411248736364 L 1002.6501846657725,6.23924344553599 L 1031.6950537076002,17.624506922411026 Z" fill="none" stroke="#FFD700" stroke-width="2.8027691255802147" /><path d="M 1174.7050656251151,-10.963913945834406 L 1187.1922924731728,17.62450692241102 L 1216.2371615150005,6.23924344553599 L 1204.8518980381255,35.28411248736365 L 1233.440318906371,47.771339335421345 L 1204.8518980381255,60.25856618347904 L 1216.2371615150005,89.3034352253067 L 1187.1922924731728,77.91817174843167 L 1174.7050656251151,106.5065926166771 L 1162.2178387770575,77.91817174843167 L 1133.1729697352298,89.30343522530671 L 1144.5582332121048,60.25856618347906 L 1115.9698123438593,47.77133933542135 L 1144.5582332121048,35.28411248736364 L 1133.1729697352298,6.23924344553599 L 1162.2178387770575,17.624506922411026 Z" fill="none" stroke="#FFD700" stroke-width="2.8027691255802147" /><path d="M 1305.2278506945722,-10.963913945834406 L 1317.7150775426298,17.62450692241102 L 1346.7599465844576,6.23924344553599 L 1335.3746831075825,35.28411248736365 L 1363.963103975828,47.771339335421345 L 1335.3746831075825,60.25856618347904 L 1346.7599465844576,89.3034352253067 L 1317.7150775426298,77.91817174843167 L 1305.2278506945722,106.5065926166771 L 1292.7406238465146,77.91817174843167 L 1263.6957548046869,89.30343522530671 L 1275.081018281562,60.25856618347906 L 1246.4925974133164,47.77133933542135 L 1275.081018281562,35.28411248736364 L 1263.6957548046869,6.23924344553599 L 1292.7406238465146,17.624506922411026 Z" fill="none" stroke="#FFD700" stroke-width="2.8027691255802147" /><path d="M -65.26139253472861,102.06881792431554 L -52.77416568667091,130.65723879256097 L -23.729296644843252,119.27197531568594 L -35.114560121718284,148.3168443575136 L -6.526139253472863,160.8040712055713 L -35.114560121718284,173.291298053629 L -23.729296644843252,202.33616709545663 L -52.77416568667091,190.9509036185816 L -65.26139253472861,219.53932448682704 L -77.7486193827863,190.9509036185816 L -106.79348842461397,202.33616709545666 L -95.40822494773893,173.291298053629 L -123.99664581598437,160.8040712055713 L -95.40822494773894,148.3168443575136 L -106.79348842461398,119.27197531568594 L -77.74861938278633,130.65723879256097 Z" fill="none" stroke="#FFD700" stroke-width="2.8027691255802147" /><path d="M 65.26139253472861,102.06881792431554 L 77.74861938278632,130.65723879256097 L 106.79348842461397,119.27197531568594 L 95.40822494773894,148.3168443575136 L 123.99664581598437,160.8040712055713 L 95.40822494773894,173.291298053629 L 106.79348842461397,202.33616709545663 L 77.74861938278632,190.9509036185816 L 65.26139253472861,219.53932448682704 L 52.77416568667092,190.9509036185816 L 23.72929664484326,202.33616709545666 L 35.1145601217183,173.291298053629 L 6.526139253472863,160.8040712055713 L 35.11456012171829,148.3168443575136 L 23.729296644843245,119.27197531568594 L 52.7741656866709,130.65723879256097 Z" fill="none" stroke="#FFD700" stroke-width="2.8027691255802147" /><path d="M 195.78417760418586,102.06881792431554 L 208.27140445224356,130.65723879256097 L 237.31627349407123,119.27197531568594 L 225.93101001719617,148.3168443575136 L 254.5194308854416,160.8040712055713 L 225.93101001719617,173.291298053629 L 237.31627349407123,202.33616709545663 L 208.27140445224356,190.9509036185816 L 195.78417760418586,219.53932448682704 L 183.29695075612815,190.9509036185816 L 154.25208171430052,202.33616709545666 L 165.63734519117554,173.291298053629 L 137.0489243229301,160.8040712055713 L 165.63734519117554,148.3168443575136 L 154.2520817143005,119.27197531568594 L 183.29695075612815,130.65723879256097 Z" fill="none" stroke="#FFD700" stroke-width="2.8027691255802147" /><path d="M 326.3069626736431,102.06881792431554 L 338.7941895217008,130.65723879256097 L 367.83905856352845,119.27197531568594 L 356.45379508665343,148.3168443575136 L 385.0422159548989,160.8040712055713 L 356.45379508665343,173.291298053629 L 367.83905856352845,202.33616709545663 L 338.7941895217008,190.9509036185816 L 326.3069626736431,219.53932448682704 L 313.81973582558544,190.9509036185816 L 284.7748667837578,202.33616709545666 L 296.1601302606328,173.291298053629 L 267.57170939238733,160.8040712055713 L 296.1601302606328,148.3168443575136 L 284.7748667837577,119.27197531568594 L 313.8197358255854,130.65723879256097 Z" fill="none" stroke="#FFD700" stroke-width="2.8027691255802147" /><path d="M 456.8297477431003,102.06881792431554 L 469.316974591158,130.65723879256097 L 498.36184363298565,119.27197531568594 L 486.97658015611063,148.3168443575136 L 515.5650010243561,160.8040712055713 L 486.97658015611063,173.291298053629 L 498.36184363298565,202.33616709545663 L 469.316974591158,190.9509036185816 L 456.8297477431003,219.53932448682704 L 444.34252089504264,190.9509036185816 L 415.297651853215,202.33616709545666 L 426.68291533009,173.291298053629 L 398.09449446184453,160.8040712055713 L 426.68291533009,148.3168443575136 L 415.2976518532149,119.27197531568594 L 444.3425208950426,130.65723879256097 Z" fill="none" stroke="#FFD700" stroke-width="2.8027691255802147" /><path d="M 587.3525328125575,102.06881792431554 L 599.8397596606152,130.65723879256097 L 628.8846287024428,119.27197531568594 L 617.4993652255678,148.3168443575136 L 646.0877860938132,160.8040712055713 L 617.4993652255678,173.291298053629 L 628.8846287024428,202.33616709545663 L 599.8397596606152,190.9509036185816 L 587.3525328125575,219.53932448682704 L 574.8653059644997,190.9509036185816 L 545.8204369226721,202.33616709545666 L 557.2057003995471,173.291298053629 L 528.6172795313017,160.8040712055713 L 557.2057003995471,148.3168443575136 L 545.8204369226721,119.27197531568594 L 574.8653059644997,130.65723879256097 Z" fill="none" stroke="#FFD700" stroke-width="2.8027691255802147" /><path d="M 717.8753178820148,102.06881792431554 L 730.3625447300725,130.65723879256097 L 759.4074137719001,119.27197531568594 L 748.0221502950251,148.3168443575136 L 776.6105711632705,160.8040712055713 L 748.0221502950251,173.291298053629 L 759.4074137719001,202.33616709545663 L 730.3625447300725,190.9509036185816 L 717.8753178820148,219.53932448682704 L 705.388091033957,190.9509036185816 L 676.3432219921294,202.33616709545666 L 687.7284854690045,173.291298053629 L 659.140064600759,160.8040712055713 L 687.7284854690045,148.3168443575136 L 676.3432219921294,119.27197531568594 L 705.388091033957,130.65723879256097 Z" fill="none" stroke="#FFD700" stroke-width="2.8027691255802147" /><path d="M 848.398102951472,102.06881792431554 L 860.8853297995297,130.65723879256097 L 889.9301988413573,119.27197531568594 L 878.5449353644823,148.3168443575136 L 907.1333562327277,160.8040712055713 L 878.5449353644823,173.291298053629 L 889.9301988413573,202.33616709545663 L 860.8853297995297,190.9509036185816 L 848.398102951472,219.53932448682704 L 835.9108761034142,190.9509036185816 L 806.8660070615866,202.33616709545666 L 818.2512705384617,173.291298053629 L 789.6628496702162,160.8040712055713 L 818.2512705384617,148.3168443575136 L 806.8660070615866,119.27197531568594 L 835.9108761034142,130.65723879256097 Z" fill="none" stroke="#FFD700" stroke-width="2.8027691255802147" /><path d="M 978.9208880209292,102.06881792431554 L 991.4081148689869,130.65723879256097 L 1020.4529839108145,119.27197531568594 L 1009.0677204339395,148.3168443575136 L 1037.656141302185,160.8040712055713 L 1009.0677204339395,173.291298053629 L 1020.4529839108145,202.33616709545663 L 991.4081148689869,190.9509036185816 L 978.9208880209292,219.53932448682704 L 966.4336611728714,190.9509036185816 L 937.3887921310438,202.33616709545666 L 948.7740556079189,173.291298053629 L 920.1856347396734,160.8040712055713 L 948.7740556079189,148.3168443575136 L 937.3887921310438,119.27197531568594 L 966.4336611728714,130.65723879256097 Z" fill="none" stroke="#FFD700" stroke-width="2.8027691255802147" /><path d="M 1109.4436730903865,102.06881792431554 L 1121.930899938444,130.65723879256097 L 1150.9757689802718,119.27197531568594 L 1139.5905055033968,148.3168443575136 L 1168.1789263716423,160.8040712055713 L 1139.5905055033968,173.291298053629 L 1150.9757689802718,202.33616709545663 L 1121.930899938444,190.9509036185816 L 1109.4436730903865,219.53932448682704 L 1096.9564462423289,190.9509036185816 L 1067.9115772005011,202.33616709545666 L 1079.2968406773762,173.291298053629 L 1050.7084198091306,160.8040712055713 L 1079.2968406773762,148.3168443575136 L 1067.9115772005011,119.27197531568594 L 1096.9564462423289,130.65723879256097 Z" fill="none" stroke="#FFD700" stroke-width="2.8027691255802147" /><path d="M 1239.9664581598436,102.06881792431554 L 1252.4536850079012,130.65723879256097 L 1281.498554049729,119.27197531568594 L 1270.1132905728539,148.3168443575136 L 1298.7017114410994,160.8040712055713 L 1270.1132905728539,173.291298053629 L 1281.498554049729,202.33616709545663 L 1252.4536850079012,190.9509036185816 L 1239.9664581598436,219.53932448682704 L 1227.479231311786,190.9509036185816 L 1198.4343622699582,202.33616709545666 L 1209.8196257468333,173.291298053629 L 1181.2312048785877,160.8040712055713 L 1209.8196257468333,148.3168443575136 L 1198.4343622699582,119.27197531568594 L 1227.479231311786,130.65723879256097 Z" fill="none" stroke="#FFD700" stroke-width="2.8027691255802147" /><path d="M 3.596496996399946e-15,215.10154979446557 L 12.487226848057698,243.689970662711 L 41.53209588988536,232.30470718583598 L 30.146832413010326,261.34957622766365 L 58.73525328125575,273.8368030757213 L 30.146832413010326,286.324029923779 L 41.53209588988536,315.36889896560666 L 12.487226848057698,303.98363548873164 L 3.596496996399946e-15,332.5720563569771 L -12.487226848057695,303.98363548873164 L -41.532095889885355,315.36889896560666 L -30.14683241301032,286.32402992377905 L -58.73525328125575,273.8368030757213 L -30.146832413010323,261.3495762276636 L -41.53209588988537,232.30470718583598 L -12.487226848057714,243.689970662711 Z" fill="none" stroke="#FFD700" stroke-width="2.8027691255802147" /><path d="M 130.52278506945723,215.10154979446557 L 143.01001191751493,243.689970662711 L 172.0548809593426,232.30470718583598 L 160.66961748246754,261.34957622766365 L 189.25803835071298,273.8368030757213 L 160.66961748246754,286.324029923779 L 172.0548809593426,315.36889896560666 L 143.01001191751493,303.98363548873164 L 130.52278506945723,332.5720563569771 L 118.03555822139953,303.98363548873164 L 88.99068917957187,315.36889896560666 L 100.37595265644691,286.32402992377905 L 71.78753178820148,273.8368030757213 L 100.37595265644691,261.3495762276636 L 88.99068917957186,232.30470718583598 L 118.03555822139951,243.689970662711 Z" fill="none" stroke="#FFD700" stroke-width="2.8027691255802147" /><path d="M 261.04557013891446,215.10154979446557 L 273.53279698697213,243.689970662711 L 302.5776660287998,232.30470718583598 L 291.1924025519248,261.34957622766365 L 319.78082342017024,273.8368030757213 L 291.1924025519248,286.324029923779 L 302.5776660287998,315.36889896560666 L 273.53279698697213,303.98363548873164 L 261.04557013891446,332.5720563569771 L 248.55834329085675,303.98363548873164 L 219.51347424902912,315.36889896560666 L 230.89873772590414,286.32402992377905 L 202.3103168576587,273.8368030757213 L 230.89873772590414,261.3495762276636 L 219.5134742490291,232.30470718583598 L 248.55834329085675,243.689970662711 Z" fill="none" stroke="#FFD700" stroke-width="2.8027691255802147" /><path d="M 391.5683552083717,215.10154979446557 L 404.0555820564294,243.689970662711 L 433.10045109825705,232.30470718583598 L 421.71518762138203,261.34957622766365 L 450.30360848962744,273.8368030757213 L 421.71518762138203,286.324029923779 L 433.10045109825705,315.36889896560666 L 404.0555820564294,303.98363548873164 L 391.5683552083717,332.5720563569771 L 379.08112836031404,303.98363548873164 L 350.0362593184864,315.36889896560666 L 361.4215227953614,286.32402992377905 L 332.833101927116,273.8368030757213 L 361.4215227953614,261.3495762276636 L 350.0362593184864,232.30470718583598 L 379.081128360314,243.689970662711 Z" fill="none" stroke="#FFD700" stroke-width="2.8027691255802147" /><path d="M 522.0911402778289,215.10154979446557 L 534.5783671258866,243.689970662711 L 563.6232361677143,232.30470718583598 L 552.2379726908392,261.34957622766365 L 580.8263935590846,273.8368030757213 L 552.2379726908392,286.324029923779 L 563.6232361677143,315.36889896560666 L 534.5783671258866,303.98363548873164 L 522.0911402778289,332.5720563569771 L 509.60391342977124,303.98363548873164 L 480.5590443879436,315.36889896560666 L 491.9443078648186,286.32402992377905 L 463.3558869965732,273.8368030757213 L 491.9443078648186,261.3495762276636 L 480.5590443879436,232.30470718583598 L 509.6039134297712,243.689970662711 Z" fill="none" stroke="#FFD700" stroke-width="2.8027691255802147" /><path d="M 652.6139253472861,215.10154979446557 L 665.1011521953438,243.689970662711 L 694.1460212371715,232.30470718583598 L 682.7607577602964,261.34957622766365 L 711.3491786285418,273.8368030757213 L 682.7607577602964,286.324029923779 L 694.1460212371715,315.36889896560666 L 665.1011521953438,303.98363548873164 L 652.6139253472861,332.5720563569771 L 640.1266984992284,303.98363548873164 L 611.0818294574008,315.36889896560666 L 622.4670929342758,286.32402992377905 L 593.8786720660304,273.8368030757213 L 622.4670929342758,261.3495762276636 L 611.0818294574008,232.30470718583598 L 640.1266984992284,243.689970662711 Z" fill="none" stroke="#FFD700" stroke-width="2.8027691255802147" /><path d="M 783.1367104167434,215.10154979446557 L 795.6239372648012,243.689970662711 L 824.6688063066288,232.30470718583598 L 813.2835428297537,261.34957622766365 L 841.8719636979991,273.8368030757213 L 813.2835428297537,286.324029923779 L 824.6688063066288,315.36889896560666 L 795.6239372648012,303.98363548873164 L 783.1367104167434,332.5720563569771 L 770.6494835686857,303.98363548873164 L 741.6046145268581,315.36889896560666 L 752.9898780037331,286.32402992377905 L 724.4014571354877,273.8368030757213 L 752.9898780037331,261.3495762276636 L 741.6046145268581,232.30470718583598 L 770.6494835686857,243.689970662711 Z" fill="none" stroke="#FFD700" stroke-width="2.8027691255802147" /><path d="M 913.6594954862006,215.10154979446557 L 926.1467223342584,243.689970662711 L 955.191591376086,232.30470718583598 L 943.8063278992109,261.34957622766365 L 972.3947487674563,273.8368030757213 L 943.8063278992109,286.324029923779 L 955.191591376086,315.36889896560666 L 926.1467223342584,303.98363548873164 L 913.6594954862006,332.5720563569771 L 901.1722686381429,303.98363548873164 L 872.1273995963153,315.36889896560666 L 883.5126630731903,286.32402992377905 L 854.9242422049449,273.8368030757213 L 883.5126630731903,261.3495762276636 L 872.1273995963153,232.30470718583598 L 901.1722686381429,243.689970662711 Z" fill="none" stroke="#FFD700" stroke-width="2.8027691255802147" /><path d="M 1044.1822805556578,215.10154979446557 L 1056.6695074037154,243.689970662711 L 1085.7143764455432,232.30470718583598 L 1074.3291129686681,261.34957622766365 L 1102.9175338369137,273.8368030757213 L 1074.3291129686681,286.324029923779 L 1085.7143764455432,315.36889896560666 L 1056.6695074037154,303.98363548873164 L 1044.1822805556578,332.5720563569771 L 1031.6950537076002,303.98363548873164 L 1002.6501846657725,315.36889896560666 L 1014.0354481426475,286.32402992377905 L 985.4470272744021,273.8368030757213 L 1014.0354481426475,261.3495762276636 L 1002.6501846657725,232.30470718583598 L 1031.6950537076002,243.689970662711 Z" fill="none" stroke="#FFD700" stroke-width="2.8027691255802147" /><path d="M 1174.7050656251151,215.10154979446557 L 1187.1922924731728,243.689970662711 L 1216.2371615150005,232.30470718583598 L 1204.8518980381255,261.34957622766365 L 1233.440318906371,273.8368030757213 L 1204.8518980381255,286.324029923779 L 1216.2371615150005,315.36889896560666 L 1187.1922924731728,303.98363548873164 L 1174.7050656251151,332.5720563569771 L 1162.2178387770575,303.98363548873164 L 1133.1729697352298,315.36889896560666 L 1144.5582332121048,286.32402992377905 L 1115.9698123438593,273.8368030757213 L 1144.5582332121048,261.3495762276636 L 1133.1729697352298,232.30470718583598 L 1162.2178387770575,243.689970662711 Z" fill="none" stroke="#FFD700" stroke-width="2.8027691255802147" /><path d="M 1305.2278506945722,215.10154979446557 L 1317.7150775426298,243.689970662711 L 1346.7599465844576,232.30470718583598 L 1335.3746831075825,261.34957622766365 L 1363.963103975828,273.8368030757213 L 1335.3746831075825,286.324029923779 L 1346.7599465844576,315.36889896560666 L 1317.7150775426298,303.98363548873164 L 1305.2278506945722,332.5720563569771 L 1292.7406238465146,303.98363548873164 L 1263.6957548046869,315.36889896560666 L 1275.081018281562,286.32402992377905 L 1246.4925974133164,273.8368030757213 L 1275.081018281562,261.3495762276636 L 1263.6957548046869,232.30470718583598 L 1292.7406238465146,243.689970662711 Z" fill="none" stroke="#FFD700" stroke-width="2.8027691255802147" /><path d="M -65.26139253472861,328.1342816646155 L -52.77416568667091,356.7227025328609 L -23.729296644843252,345.3374390559859 L -35.114560121718284,374.38230809781356 L -6.526139253472863,386.86953494587124 L -35.114560121718284,399.3567617939289 L -23.729296644843252,428.4016308357566 L -52.77416568667091,417.01636735888155 L -65.26139253472861,445.60478822712696 L -77.7486193827863,417.01636735888155 L -106.79348842461397,428.4016308357566 L -95.40822494773893,399.35676179392897 L -123.99664581598437,386.86953494587124 L -95.40822494773894,374.3823080978135 L -106.79348842461398,345.3374390559859 L -77.74861938278633,356.7227025328609 Z" fill="none" stroke="#FFD700" stroke-width="2.8027691255802147" /><path d="M 65.26139253472861,328.1342816646155 L 77.74861938278632,356.7227025328609 L 106.79348842461397,345.3374390559859 L 95.40822494773894,374.38230809781356 L 123.99664581598437,386.86953494587124 L 95.40822494773894,399.3567617939289 L 106.79348842461397,428.4016308357566 L 77.74861938278632,417.01636735888155 L 65.26139253472861,445.60478822712696 L 52.77416568667092,417.01636735888155 L 23.72929664484326,428.4016308357566 L 35.1145601217183,399.35676179392897 L 6.526139253472863,386.86953494587124 L 35.11456012171829,374.3823080978135 L 23.729296644843245,345.3374390559859 L 52.7741656866709,356.7227025328609 Z" fill="none" stroke="#FFD700" stroke-width="2.8027691255802147" /><path d="M 195.78417760418586,328.1342816646155 L 208.27140445224356,356.7227025328609 L 237.31627349407123,345.3374390559859 L 225.93101001719617,374.38230809781356 L 254.5194308854416,386.86953494587124 L 225.93101001719617,399.3567617939289 L 237.31627349407123,428.4016308357566 L 208.27140445224356,417.01636735888155 L 195.78417760418586,445.60478822712696 L 183.29695075612815,417.01636735888155 L 154.25208171430052,428.4016308357566 L 165.63734519117554,399.35676179392897 L 137.0489243229301,386.86953494587124 L 165.63734519117554,374.3823080978135 L 154.2520817143005,345.3374390559859 L 183.29695075612815,356.7227025328609 Z" fill="none" stroke="#FFD700" stroke-width="2.8027691255802147" /><path d="M 326.3069626736431,328.1342816646155 L 338.7941895217008,356.7227025328609 L 367.83905856352845,345.3374390559859 L 356.45379508665343,374.38230809781356 L 385.0422159548989,386.86953494587124 L 356.45379508665343,399.3567617939289 L 367.83905856352845,428.4016308357566 L 338.7941895217008,417.01636735888155 L 326.3069626736431,445.60478822712696 L 313.81973582558544,417.01636735888155 L 284.7748667837578,428.4016308357566 L 296.1601302606328,399.35676179392897 L 267.57170939238733,386.86953494587124 L 296.1601302606328,374.3823080978135 L 284.7748667837577,345.3374390559859 L 313.8197358255854,356.7227025328609 Z" fill="none" stroke="#FFD700" stroke-width="2.8027691255802147" /><path d="M 456.8297477431003,328.1342816646155 L 469.316974591158,356.7227025328609 L 498.36184363298565,345.3374390559859 L 486.97658015611063,374.38230809781356 L 515.5650010243561,386.86953494587124 L 486.97658015611063,399.3567617939289 L 498.36184363298565,428.4016308357566 L 469.316974591158,417.01636735888155 L 456.8297477431003,445.60478822712696 L 444.34252089504264,417.01636735888155 L 415.297651853215,428.4016308357566 L 426.68291533009,399.35676179392897 L 398.09449446184453,386.86953494587124 L 426.68291533009,374.3823080978135 L 415.2976518532149,345.3374390559859 L 444.3425208950426,356.7227025328609 Z" fill="none" stroke="#FFD700" stroke-width="2.8027691255802147" /><path d="M 587.3525328125575,328.1342816646155 L 599.8397596606152,356.7227025328609 L 628.8846287024428,345.3374390559859 L 617.4993652255678,374.38230809781356 L 646.0877860938132,386.86953494587124 L 617.4993652255678,399.3567617939289 L 628.8846287024428,428.4016308357566 L 599.8397596606152,417.01636735888155 L 587.3525328125575,445.60478822712696 L 574.8653059644997,417.01636735888155 L 545.8204369226721,428.4016308357566 L 557.2057003995471,399.35676179392897 L 528.6172795313017,386.86953494587124 L 557.2057003995471,374.3823080978135 L 545.8204369226721,345.3374390559859 L 574.8653059644997,356.7227025328609 Z" fill="none" stroke="#FFD700" stroke-width="2.8027691255802147" /><path d="M 717.8753178820148,328.1342816646155 L 730.3625447300725,356.7227025328609 L 759.4074137719001,345.3374390559859 L 748.0221502950251,374.38230809781356 L 776.6105711632705,386.86953494587124 L 748.0221502950251,399.3567617939289 L 759.4074137719001,428.4016308357566 L 730.3625447300725,417.01636735888155 L 717.8753178820148,445.60478822712696 L 705.388091033957,417.01636735888155 L 676.3432219921294,428.4016308357566 L 687.7284854690045,399.35676179392897 L 659.140064600759,386.86953494587124 L 687.7284854690045,374.3823080978135 L 676.3432219921294,345.3374390559859 L 705.388091033957,356.7227025328609 Z" fill="none" stroke="#FFD700" stroke-width="2.8027691255802147" /><path d="M 848.398102951472,328.1342816646155 L 860.8853297995297,356.7227025328609 L 889.9301988413573,345.3374390559859 L 878.5449353644823,374.38230809781356 L 907.1333562327277,386.86953494587124 L 878.5449353644823,399.3567617939289 L 889.9301988413573,428.4016308357566 L 860.8853297995297,417.01636735888155 L 848.398102951472,445.60478822712696 L 835.9108761034142,417.01636735888155 L 806.8660070615866,428.4016308357566 L 818.2512705384617,399.35676179392897 L 789.6628496702162,386.86953494587124 L 818.2512705384617,374.3823080978135 L 806.8660070615866,345.3374390559859 L 835.9108761034142,356.7227025328609 Z" fill="none" stroke="#FFD700" stroke-width="2.8027691255802147" /><path d="M 978.9208880209292,328.1342816646155 L 991.4081148689869,356.7227025328609 L 1020.4529839108145,345.3374390559859 L 1009.0677204339395,374.38230809781356 L 1037.656141302185,386.86953494587124 L 1009.0677204339395,399.3567617939289 L 1020.4529839108145,428.4016308357566 L 991.4081148689869,417.01636735888155 L 978.9208880209292,445.60478822712696 L 966.4336611728714,417.01636735888155 L 937.3887921310438,428.4016308357566 L 948.7740556079189,399.35676179392897 L 920.1856347396734,386.86953494587124 L 948.7740556079189,374.3823080978135 L 937.3887921310438,345.3374390559859 L 966.4336611728714,356.7227025328609 Z" fill="none" stroke="#FFD700" stroke-width="2.8027691255802147" /><path d="M 1109.4436730903865,328.1342816646155 L 1121.930899938444,356.7227025328609 L 1150.9757689802718,345.3374390559859 L 1139.5905055033968,374.38230809781356 L 1168.1789263716423,386.86953494587124 L 1139.5905055033968,399.3567617939289 L 1150.9757689802718,428.4016308357566 L 1121.930899938444,417.01636735888155 L 1109.4436730903865,445.60478822712696 L 1096.9564462423289,417.01636735888155 L 1067.9115772005011,428.4016308357566 L 1079.2968406773762,399.35676179392897 L 1050.7084198091306,386.86953494587124 L 1079.2968406773762,374.3823080978135 L 1067.9115772005011,345.3374390559859 L 1096.9564462423289,356.7227025328609 Z" fill="none" stroke="#FFD700" stroke-width="2.8027691255802147" /><path d="M 1239.9664581598436,328.1342816646155 L 1252.4536850079012,356.7227025328609 L 1281.498554049729,345.3374390559859 L 1270.1132905728539,374.38230809781356 L 1298.7017114410994,386.86953494587124 L 1270.1132905728539,399.3567617939289 L 1281.498554049729,428.4016308357566 L 1252.4536850079012,417.01636735888155 L 1239.9664581598436,445.60478822712696 L 1227.479231311786,417.01636735888155 L 1198.4343622699582,428.4016308357566 L 1209.8196257468333,399.35676179392897 L 1181.2312048785877,386.86953494587124 L 1209.8196257468333,374.3823080978135 L 1198.4343622699582,345.3374390559859 L 1227.479231311786,356.7227025328609 Z" fill="none" stroke="#FFD700" stroke-width="2.8027691255802147" /><path d="M 3.596496996399946e-15,441.1670135347654 L 12.487226848057698,469.75543440301084 L 41.53209588988536,458.3701709261358 L 30.146832413010326,487.4150399679635 L 58.73525328125575,499.90226681602115 L 30.146832413010326,512.3894936640788 L 41.53209588988536,541.4343627059066 L 12.487226848057698,530.0490992290315 L 3.596496996399946e-15,558.6375200972769 L -12.487226848057695,530.0490992290315 L -41.532095889885355,541.4343627059066 L -30.14683241301032,512.3894936640788 L -58.73525328125575,499.90226681602115 L -30.146832413010323,487.4150399679634 L -41.53209588988537,458.3701709261358 L -12.487226848057714,469.75543440301084 Z" fill="none" stroke="#FFD700" stroke-width="2.8027691255802147" /><path d="M 130.52278506945723,441.1670135347654 L 143.01001191751493,469.75543440301084 L 172.0548809593426,458.3701709261358 L 160.66961748246754,487.4150399679635 L 189.25803835071298,499.90226681602115 L 160.66961748246754,512.3894936640788 L 172.0548809593426,541.4343627059066 L 143.01001191751493,530.0490992290315 L 130.52278506945723,558.6375200972769 L 118.03555822139953,530.0490992290315 L 88.99068917957187,541.4343627059066 L 100.37595265644691,512.3894936640788 L 71.78753178820148,499.90226681602115 L 100.37595265644691,487.4150399679634 L 88.99068917957186,458.3701709261358 L 118.03555822139951,469.75543440301084 Z" fill="none" stroke="#FFD700" stroke-width="2.8027691255802147" /><path d="M 261.04557013891446,441.1670135347654 L 273.53279698697213,469.75543440301084 L 302.5776660287998,458.3701709261358 L 291.1924025519248,487.4150399679635 L 319.78082342017024,499.90226681602115 L 291.1924025519248,512.3894936640788 L 302.5776660287998,541.4343627059066 L 273.53279698697213,530.0490992290315 L 261.04557013891446,558.6375200972769 L 248.55834329085675,530.0490992290315 L 219.51347424902912,541.4343627059066 L 230.89873772590414,512.3894936640788 L 202.3103168576587,499.90226681602115 L 230.89873772590414,487.4150399679634 L 219.5134742490291,458.3701709261358 L 248.55834329085675,469.75543440301084 Z" fill="none" stroke="#FFD700" stroke-width="2.8027691255802147" /><path d="M 391.5683552083717,441.1670135347654 L 404.0555820564294,469.75543440301084 L 433.10045109825705,458.3701709261358 L 421.71518762138203,487.4150399679635 L 450.30360848962744,499.90226681602115 L 421.71518762138203,512.3894936640788 L 433.10045109825705,541.4343627059066 L 404.0555820564294,530.0490992290315 L 391.5683552083717,558.6375200972769 L 379.08112836031404,530.0490992290315 L 350.0362593184864,541.4343627059066 L 361.4215227953614,512.3894936640788 L 332.833101927116,499.90226681602115 L 361.4215227953614,487.4150399679634 L 350.0362593184864,458.3701709261358 L 379.081128360314,469.75543440301084 Z" fill="none" stroke="#FFD700" stroke-width="2.8027691255802147" /><path d="M 522.0911402778289,441.1670135347654 L 534.5783671258866,469.75543440301084 L 563.6232361677143,458.3701709261358 L 552.2379726908392,487.4150399679635 L 580.8263935590846,499.90226681602115 L 552.2379726908392,512.3894936640788 L 563.6232361677143,541.4343627059066 L 534.5783671258866,530.0490992290315 L 522.0911402778289,558.6375200972769 L 509.60391342977124,530.0490992290315 L 480.5590443879436,541.4343627059066 L 491.9443078648186,512.3894936640788 L 463.3558869965732,499.90226681602115 L 491.9443078648186,487.4150399679634 L 480.5590443879436,458.3701709261358 L 509.6039134297712,469.75543440301084 Z" fill="none" stroke="#FFD700" stroke-width="2.8027691255802147" /><path d="M 652.6139253472861,441.1670135347654 L 665.1011521953438,469.75543440301084 L 694.1460212371715,458.3701709261358 L 682.7607577602964,487.4150399679635 L 711.3491786285418,499.90226681602115 L 682.7607577602964,512.3894936640788 L 694.1460212371715,541.4343627059066 L 665.1011521953438,530.0490992290315 L 652.6139253472861,558.6375200972769 L 640.1266984992284,530.0490992290315 L 611.0818294574008,541.4343627059066 L 622.4670929342758,512.3894936640788 L 593.8786720660304,499.90226681602115 L 622.4670929342758,487.4150399679634 L 611.0818294574008,458.3701709261358 L 640.1266984992284,469.75543440301084 Z" fill="none" stroke="#FFD700" stroke-width="2.8027691255802147" /><path d="M 783.1367104167434,441.1670135347654 L 795.6239372648012,469.75543440301084 L 824.6688063066288,458.3701709261358 L 813.2835428297537,487.4150399679635 L 841.8719636979991,499.90226681602115 L 813.2835428297537,512.3894936640788 L 824.6688063066288,541.4343627059066 L 795.6239372648012,530.0490992290315 L 783.1367104167434,558.6375200972769 L 770.6494835686857,530.0490992290315 L 741.6046145268581,541.4343627059066 L 752.9898780037331,512.3894936640788 L 724.4014571354877,499.90226681602115 L 752.9898780037331,487.4150399679634 L 741.6046145268581,458.3701709261358 L 770.6494835686857,469.75543440301084 Z" fill="none" stroke="#FFD700" stroke-width="2.8027691255802147" /><path d="M 913.6594954862006,441.1670135347654 L 926.1467223342584,469.75543440301084 L 955.191591376086,458.3701709261358 L 943.8063278992109,487.4150399679635 L 972.3947487674563,499.90226681602115 L 943.8063278992109,512.3894936640788 L 955.191591376086,541.4343627059066 L 926.1467223342584,530.0490992290315 L 913.6594954862006,558.6375200972769 L 901.1722686381429,530.0490992290315 L 872.1273995963153,541.4343627059066 L 883.5126630731903,512.3894936640788 L 854.9242422049449,499.90226681602115 L 883.5126630731903,487.4150399679634 L 872.1273995963153,458.3701709261358 L 901.1722686381429,469.75543440301084 Z" fill="none" stroke="#FFD700" stroke-width="2.8027691255802147" /><path d="M 1044.1822805556578,441.1670135347654 L 1056.6695074037154,469.75543440301084 L 1085.7143764455432,458.3701709261358 L 1074.3291129686681,487.4150399679635 L 1102.9175338369137,499.90226681602115 L 1074.3291129686681,512.3894936640788 L 1085.7143764455432,541.4343627059066 L 1056.6695074037154,530.0490992290315 L 1044.1822805556578,558.6375200972769 L 1031.6950537076002,530.0490992290315 L 1002.6501846657725,541.4343627059066 L 1014.0354481426475,512.3894936640788 L 985.4470272744021,499.90226681602115 L 1014.0354481426475,487.4150399679634 L 1002.6501846657725,458.3701709261358 L 1031.6950537076002,469.75543440301084 Z" fill="none" stroke="#FFD700" stroke-width="2.8027691255802147" /><path d="M 1174.7050656251151,441.1670135347654 L 1187.1922924731728,469.75543440301084 L 1216.2371615150005,458.3701709261358 L 1204.8518980381255,487.4150399679635 L 1233.440318906371,499.90226681602115 L 1204.8518980381255,512.3894936640788 L 1216.2371615150005,541.4343627059066 L 1187.1922924731728,530.0490992290315 L 1174.7050656251151,558.6375200972769 L 1162.2178387770575,530.0490992290315 L 1133.1729697352298,541.4343627059066 L 1144.5582332121048,512.3894936640788 L 1115.9698123438593,499.90226681602115 L 1144.5582332121048,487.4150399679634 L 1133.1729697352298,458.3701709261358 L 1162.2178387770575,469.75543440301084 Z" fill="none" stroke="#FFD700" stroke-width="2.8027691255802147" /><path d="M 1305.2278506945722,441.1670135347654 L 1317.7150775426298,469.75543440301084 L 1346.7599465844576,458.3701709261358 L 1335.3746831075825,487.4150399679635 L 1363.963103975828,499.90226681602115 L 1335.3746831075825,512.3894936640788 L 1346.7599465844576,541.4343627059066 L 1317.7150775426298,530.0490992290315 L 1305.2278506945722,558.6375200972769 L 1292.7406238465146,530.0490992290315 L 1263.6957548046869,541.4343627059066 L 1275.081018281562,512.3894936640788 L 1246.4925974133164,499.90226681602115 L 1275.081018281562,487.4150399679634 L 1263.6957548046869,458.3701709261358 L 1292.7406238465146,469.75543440301084 Z" fill="none" stroke="#FFD700" stroke-width="2.8027691255802147" /><path d="M -65.26139253472861,554.1997454049155 L -52.77416568667091,582.7881662731609 L -23.729296644843252,571.4029027962858 L -35.114560121718284,600.4477718381135 L -6.526139253472863,612.9349986861712 L -35.114560121718284,625.4222255342289 L -23.729296644843252,654.4670945760565 L -52.77416568667091,643.0818310991815 L -65.26139253472861,671.6702519674269 L -77.7486193827863,643.0818310991815 L -106.79348842461397,654.4670945760565 L -95.40822494773893,625.4222255342289 L -123.99664581598437,612.9349986861712 L -95.40822494773894,600.4477718381135 L -106.79348842461398,571.4029027962858 L -77.74861938278633,582.7881662731609 Z" fill="none" stroke="#FFD700" stroke-width="2.8027691255802147" /><path d="M 65.26139253472861,554.1997454049155 L 77.74861938278632,582.7881662731609 L 106.79348842461397,571.4029027962858 L 95.40822494773894,600.4477718381135 L 123.99664581598437,612.9349986861712 L 95.40822494773894,625.4222255342289 L 106.79348842461397,654.4670945760565 L 77.74861938278632,643.0818310991815 L 65.26139253472861,671.6702519674269 L 52.77416568667092,643.0818310991815 L 23.72929664484326,654.4670945760565 L 35.1145601217183,625.4222255342289 L 6.526139253472863,612.9349986861712 L 35.11456012171829,600.4477718381135 L 23.729296644843245,571.4029027962858 L 52.7741656866709,582.7881662731609 Z" fill="none" stroke="#FFD700" stroke-width="2.8027691255802147" /><path d="M 195.78417760418586,554.1997454049155 L 208.27140445224356,582.7881662731609 L 237.31627349407123,571.4029027962858 L 225.93101001719617,600.4477718381135 L 254.5194308854416,612.9349986861712 L 225.93101001719617,625.4222255342289 L 237.31627349407123,654.4670945760565 L 208.27140445224356,643.0818310991815 L 195.78417760418586,671.6702519674269 L 183.29695075612815,643.0818310991815 L 154.25208171430052,654.4670945760565 L 165.63734519117554,625.4222255342289 L 137.0489243229301,612.9349986861712 L 165.63734519117554,600.4477718381135 L 154.2520817143005,571.4029027962858 L 183.29695075612815,582.7881662731609 Z" fill="none" stroke="#FFD700" stroke-width="2.8027691255802147" /><path d="M 326.3069626736431,554.1997454049155 L 338.7941895217008,582.7881662731609 L 367.83905856352845,571.4029027962858 L 356.45379508665343,600.4477718381135 L 385.0422159548989,612.9349986861712 L 356.45379508665343,625.4222255342289 L 367.83905856352845,654.4670945760565 L 338.7941895217008,643.0818310991815 L 326.3069626736431,671.6702519674269 L 313.81973582558544,643.0818310991815 L 284.7748667837578,654.4670945760565 L 296.1601302606328,625.4222255342289 L 267.57170939238733,612.9349986861712 L 296.1601302606328,600.4477718381135 L 284.7748667837577,571.4029027962858 L 313.8197358255854,582.7881662731609 Z" fill="none" stroke="#FFD700" stroke-width="2.8027691255802147" /><path d="M 456.8297477431003,554.1997454049155 L 469.316974591158,582.7881662731609 L 498.36184363298565,571.4029027962858 L 486.97658015611063,600.4477718381135 L 515.5650010243561,612.9349986861712 L 486.97658015611063,625.4222255342289 L 498.36184363298565,654.4670945760565 L 469.316974591158,643.0818310991815 L 456.8297477431003,671.6702519674269 L 444.34252089504264,643.0818310991815 L 415.297651853215,654.4670945760565 L 426.68291533009,625.4222255342289 L 398.09449446184453,612.9349986861712 L 426.68291533009,600.4477718381135 L 415.2976518532149,571.4029027962858 L 444.3425208950426,582.7881662731609 Z" fill="none" stroke="#FFD700" stroke-width="2.8027691255802147" /><path d="M 587.3525328125575,554.1997454049155 L 599.8397596606152,582.7881662731609 L 628.8846287024428,571.4029027962858 L 617.4993652255678,600.4477718381135 L 646.0877860938132,612.9349986861712 L 617.4993652255678,625.4222255342289 L 628.8846287024428,654.4670945760565 L 599.8397596606152,643.0818310991815 L 587.3525328125575,671.6702519674269 L 574.8653059644997,643.0818310991815 L 545.8204369226721,654.4670945760565 L 557.2057003995471,625.4222255342289 L 528.6172795313017,612.9349986861712 L 557.2057003995471,600.4477718381135 L 545.8204369226721,571.4029027962858 L 574.8653059644997,582.7881662731609 Z" fill="none" stroke="#FFD700" stroke-width="2.8027691255802147" /><path d="M 717.8753178820148,554.1997454049155 L 730.3625447300725,582.7881662731609 L 759.4074137719001,571.4029027962858 L 748.0221502950251,600.4477718381135 L 776.6105711632705,612.9349986861712 L 748.0221502950251,625.4222255342289 L 759.4074137719001,654.4670945760565 L 730.3625447300725,643.0818310991815 L 717.8753178820148,671.6702519674269 L 705.388091033957,643.0818310991815 L 676.3432219921294,654.4670945760565 L 687.7284854690045,625.4222255342289 L 659.140064600759,612.9349986861712 L 687.7284854690045,600.4477718381135 L 676.3432219921294,571.4029027962858 L 705.388091033957,582.7881662731609 Z" fill="none" stroke="#FFD700" stroke-width="2.8027691255802147" /><path d="M 848.398102951472,554.1997454049155 L 860.8853297995297,582.7881662731609 L 889.9301988413573,571.4029027962858 L 878.5449353644823,600.4477718381135 L 907.1333562327277,612.9349986861712 L 878.5449353644823,625.4222255342289 L 889.9301988413573,654.4670945760565 L 860.8853297995297,643.0818310991815 L 848.398102951472,671.6702519674269 L 835.9108761034142,643.0818310991815 L 806.8660070615866,654.4670945760565 L 818.2512705384617,625.4222255342289 L 789.6628496702162,612.9349986861712 L 818.2512705384617,600.4477718381135 L 806.8660070615866,571.4029027962858 L 835.9108761034142,582.7881662731609 Z" fill="none" stroke="#FFD700" stroke-width="2.8027691255802147" /><path d="M 978.9208880209292,554.1997454049155 L 991.4081148689869,582.7881662731609 L 1020.4529839108145,571.4029027962858 L 1009.0677204339395,600.4477718381135 L 1037.656141302185,612.9349986861712 L 1009.0677204339395,625.4222255342289 L 1020.4529839108145,654.4670945760565 L 991.4081148689869,643.0818310991815 L 978.9208880209292,671.6702519674269 L 966.4336611728714,643.0818310991815 L 937.3887921310438,654.4670945760565 L 948.7740556079189,625.4222255342289 L 920.1856347396734,612.9349986861712 L 948.7740556079189,600.4477718381135 L 937.3887921310438,571.4029027962858 L 966.4336611728714,582.7881662731609 Z" fill="none" stroke="#FFD700" stroke-width="2.8027691255802147" /><path d="M 1109.4436730903865,554.1997454049155 L 1121.930899938444,582.7881662731609 L 1150.9757689802718,571.4029027962858 L 1139.5905055033968,600.4477718381135 L 1168.1789263716423,612.9349986861712 L 1139.5905055033968,625.4222255342289 L 1150.9757689802718,654.4670945760565 L 1121.930899938444,643.0818310991815 L 1109.4436730903865,671.6702519674269 L 1096.9564462423289,643.0818310991815 L 1067.9115772005011,654.4670945760565 L 1079.2968406773762,625.4222255342289 L 1050.7084198091306,612.9349986861712 L 1079.2968406773762,600.4477718381135 L 1067.9115772005011,571.4029027962858 L 1096.9564462423289,582.7881662731609 Z" fill="none" stroke="#FFD700" stroke-width="2.8027691255802147" /><path d="M 1239.9664581598436,554.1997454049155 L 1252.4536850079012,582.7881662731609 L 1281.498554049729,571.4029027962858 L 1270.1132905728539,600.4477718381135 L 1298.7017114410994,612.9349986861712 L 1270.1132905728539,625.4222255342289 L 1281.498554049729,654.4670945760565 L 1252.4536850079012,643.0818310991815 L 1239.9664581598436,671.6702519674269 L 1227.479231311786,643.0818310991815 L 1198.4343622699582,654.4670945760565 L 1209.8196257468333,625.4222255342289 L 1181.2312048785877,612.9349986861712 L 1209.8196257468333,600.4477718381135 L 1198.4343622699582,571.4029027962858 L 1227.479231311786,582.7881662731609 Z" fill="none" stroke="#FFD700" stroke-width="2.8027691255802147" /><line x1="58.73525328125575" y1="47.771339335421345" x2="71.78753178820148" y2="47.771339335421345" stroke="#FFD700" stroke-width="0.5"/><line x1="189.25803835071298" y1="47.771339335421345" x2="202.3103168576587" y2="47.771339335421345" stroke="#FFD700" stroke-width="0.5"/><line x1="319.78082342017024" y1="47.771339335421345" x2="332.833101927116" y2="47.771339335421345" stroke="#FFD700" stroke-width="0.5"/><line x1="450.30360848962744" y1="47.771339335421345" x2="463.3558869965732" y2="47.771339335421345" stroke="#FFD700" stroke-width="0.5"/><line x1="580.8263935590846" y1="47.771339335421345" x2="593.8786720660304" y2="47.771339335421345" stroke="#FFD700" stroke-width="0.5"/><line x1="711.3491786285418" y1="47.771339335421345" x2="724.4014571354877" y2="47.771339335421345" stroke="#FFD700" stroke-width="0.5"/><line x1="841.8719636979991" y1="47.771339335421345" x2="854.9242422049449" y2="47.771339335421345" stroke="#FFD700" stroke-width="0.5"/><line x1="972.3947487674563" y1="47.771339335421345" x2="985.4470272744021" y2="47.771339335421345" stroke="#FFD700" stroke-width="0.5"/><line x1="1102.9175338369137" y1="47.771339335421345" x2="1115.9698123438593" y2="47.771339335421345" stroke="#FFD700" stroke-width="0.5"/><line x1="123.99664581598437" y1="160.8040712055713" x2="137.0489243229301" y2="160.8040712055713" stroke="#FFD700" stroke-width="0.5"/><line x1="254.5194308854416" y1="160.8040712055713" x2="267.57170939238733" y2="160.8040712055713" stroke="#FFD700" stroke-width="0.5"/><line x1="385.0422159548989" y1="160.8040712055713" x2="398.09449446184453" y2="160.8040712055713" stroke="#FFD700" stroke-width="0.5"/><line x1="515.5650010243561" y1="160.8040712055713" x2="528.6172795313017" y2="160.8040712055713" stroke="#FFD700" stroke-width="0.5"/><line x1="646.0877860938132" y1="160.8040712055713" x2="659.140064600759" y2="160.8040712055713" stroke="#FFD700" stroke-width="0.5"/><line x1="776.6105711632705" y1="160.8040712055713" x2="789.6628496702162" y2="160.8040712055713" stroke="#FFD700" stroke-width="0.5"/><line x1="907.1333562327277" y1="160.8040712055713" x2="920.1856347396734" y2="160.8040712055713" stroke="#FFD700" stroke-width="0.5"/><line x1="1037.656141302185" y1="160.8040712055713" x2="1050.7084198091306" y2="160.8040712055713" stroke="#FFD700" stroke-width="0.5"/><line x1="1168.1789263716423" y1="160.8040712055713" x2="1181.2312048785877" y2="160.8040712055713" stroke="#FFD700" stroke-width="0.5"/><line x1="58.73525328125575" y1="273.8368030757213" x2="71.78753178820148" y2="273.8368030757213" stroke="#FFD700" stroke-width="0.5"/><line x1="189.25803835071298" y1="273.8368030757213" x2="202.3103168576587" y2="273.8368030757213" stroke="#FFD700" stroke-width="0.5"/><line x1="319.78082342017024" y1="273.8368030757213" x2="332.833101927116" y2="273.8368030757213" stroke="#FFD700" stroke-width="0.5"/><line x1="450.30360848962744" y1="273.8368030757213" x2="463.3558869965732" y2="273.8368030757213" stroke="#FFD700" stroke-width="0.5"/><line x1="580.8263935590846" y1="273.8368030757213" x2="593.8786720660304" y2="273.8368030757213" stroke="#FFD700" stroke-width="0.5"/><line x1="711.3491786285418" y1="273.8368030757213" x2="724.4014571354877" y2="273.8368030757213" stroke="#FFD700" stroke-width="0.5"/><line x1="841.8719636979991" y1="273.8368030757213" x2="854.9242422049449" y2="273.8368030757213" stroke="#FFD700" stroke-width="0.5"/><line x1="972.3947487674563" y1="273.8368030757213" x2="985.4470272744021" y2="273.8368030757213" stroke="#FFD700" stroke-width="0.5"/><line x1="1102.9175338369137" y1="273.8368030757213" x2="1115.9698123438593" y2="273.8368030757213" stroke="#FFD700" stroke-width="0.5"/><line x1="123.99664581598437" y1="386.86953494587124" x2="137.0489243229301" y2="386.86953494587124" stroke="#FFD700" stroke-width="0.5"/><line x1="254.5194308854416" y1="386.86953494587124" x2="267.57170939238733" y2="386.86953494587124" stroke="#FFD700" stroke-width="0.5"/><line x1="385.0422159548989" y1="386.86953494587124" x2="398.09449446184453" y2="386.86953494587124" stroke="#FFD700" stroke-width="0.5"/><line x1="515.5650010243561" y1="386.86953494587124" x2="528.6172795313017" y2="386.86953494587124" stroke="#FFD700" stroke-width="0.5"/><line x1="646.0877860938132" y1="386.86953494587124" x2="659.140064600759" y2="386.86953494587124" stroke="#FFD700" stroke-width="0.5"/><line x1="776.6105711632705" y1="386.86953494587124" x2="789.6628496702162" y2="386.86953494587124" stroke="#FFD700" stroke-width="0.5"/><line x1="907.1333562327277" y1="386.86953494587124" x2="920.1856347396734" y2="386.86953494587124" stroke="#FFD700" stroke-width="0.5"/><line x1="1037.656141302185" y1="386.86953494587124" x2="1050.7084198091306" y2="386.86953494587124" stroke="#FFD700" stroke-width="0.5"/><line x1="1168.1789263716423" y1="386.86953494587124" x2="1181.2312048785877" y2="386.86953494587124" stroke="#FFD700" stroke-width="0.5"/><line x1="58.73525328125575" y1="499.90226681602115" x2="71.78753178820148" y2="499.90226681602115" stroke="#FFD700" stroke-width="0.5"/><line x1="189.25803835071298" y1="499.90226681602115" x2="202.3103168576587" y2="499.90226681602115" stroke="#FFD700" stroke-width="0.5"/><line x1="319.78082342017024" y1="499.90226681602115" x2="332.833101927116" y2="499.90226681602115" stroke="#FFD700" stroke-width="0.5"/><line x1="450.30360848962744" y1="499.90226681602115" x2="463.3558869965732" y2="499.90226681602115" stroke="#FFD700" stroke-width="0.5"/><line x1="580.8263935590846" y1="499.90226681602115" x2="593.8786720660304" y2="499.90226681602115" stroke="#FFD700" stroke-width="0.5"/><line x1="711.3491786285418" y1="499.90226681602115" x2="724.4014571354877" y2="499.90226681602115" stroke="#FFD700" stroke-width="0.5"/><line x1="841.8719636979991" y1="499.90226681602115" x2="854.9242422049449" y2="499.90226681602115" stroke="#FFD700" stroke-width="0.5"/><line x1="972.3947487674563" y1="499.90226681602115" x2="985.4470272744021" y2="499.90226681602115" stroke="#FFD700" stroke-width="0.5"/><line x1="1102.9175338369137" y1="499.90226681602115" x2="1115.9698123438593" y2="499.90226681602115" stroke="#FFD700" stroke-width="0.5"/><line x1="123.99664581598437" y1="612.9349986861712" x2="137.0489243229301" y2="612.9349986861712" stroke="#FFD700" stroke-width="0.5"/><line x1="254.5194308854416" y1="612.9349986861712" x2="267.57170939238733" y2="612.9349986861712" stroke="#FFD700" stroke-width="0.5"/><line x1="385.0422159548989" y1="612.9349986861712" x2="398.09449446184453" y2="612.9349986861712" stroke="#FFD700" stroke-width="0.5"/><line x1="515.5650010243561" y1="612.9349986861712" x2="528.6172795313017" y2="612.9349986861712" stroke="#FFD700" stroke-width="0.5"/><line x1="646.0877860938132" y1="612.9349986861712" x2="659.140064600759" y2="612.9349986861712" stroke="#FFD700" stroke-width="0.5"/><line x1="776.6105711632705" y1="612.9349986861712" x2="789.6628496702162" y2="612.9349986861712" stroke="#FFD700" stroke-width="0.5"/><line x1="907.1333562327277" y1="612.9349986861712" x2="920.1856347396734" y2="612.9349986861712" stroke="#FFD700" stroke-width="0.5"/><line x1="1037.656141302185" y1="612.9349986861712" x2="1050.7084198091306" y2="612.9349986861712" stroke="#FFD700" stroke-width="0.5"/><line x1="1168.1789263716423" y1="612.9349986861712" x2="1181.2312048785877" y2="612.9349986861712" stroke="#FFD700" stroke-width="0.5"/></g><g opacity="0.1568641722699926"><path d="M 658.3939793791594 169.46988352084063 L 753.1517291524705 169.46988352084063 L 753.1517291524705 124.68206382958424 L 789.2355493328758 124.68206382958424" fill="none" stroke="#FFFFFF" stroke-width="2.495431715620417" stroke-linecap="square"/><path d="M 997.1773629063636 117.42287283643283 L 997.1773629063636 19.298885455421143 L 951.0169204048572 19.298885455421143 L 951.0169204048572 0" fill="none" stroke="#FFFFFF" stroke-width="2.495431715620417" stroke-linecap="square"/><path d="M 296.86489119048457 305.2478744020909 L 357.60525440103754 305.2478744020909 L 357.60525440103754 266.5058160709067" fill="none" stroke="#FFFFFF" stroke-width="2.495431715620417" stroke-linecap="square"/><path d="M 702.039242117684 579.7912576514256 L 702.039242117684 610.9240469013703 L 642.116593906421 610.9240469013703 L 642.116593906421 540.3135710431291" fill="none" stroke="#FFFFFF" stroke-width="2.495431715620417" stroke-linecap="square"/><path d="M 448.551035136241 211.51467929199092 L 448.551035136241 126.7524092326262 L 392.8382980847814 126.7524092326262" fill="none" stroke="#FFFFFF" stroke-width="2.495431715620417" stroke-linecap="square"/><path d="M 768.5344580414401 609.8537781694223 L 844.5257509948456 609.8537781694223 L 844.5257509948456 521.9476865118812 L 792.8805071365562 521.9476865118812" fill="none" stroke="#FFFFFF" stroke-width="2.495431715620417" stroke-linecap="square"/><path d="M 766.6607383483373 481.10659740916765 L 766.6607383483373 441.49974255122476 L 718.8107563668328 441.49974255122476" fill="none" stroke="#FFFFFF" stroke-width="2.495431715620417" stroke-linecap="square"/><path d="M 582.1680310099238 142.76588029356947 L 508.12586512321275 142.76588029356947 L 508.12586512321275 213.13009390623836 L 470.61029386035744 213.13009390623836" fill="none" stroke="#FFFFFF" stroke-width="2.495431715620417" stroke-linecap="square"/><path d="M 211.3741279632664 261.153136017338 L 211.3741279632664 194.97297382296307 L 160.22006891813217 194.97297382296307 L 160.22006891813217 133.76591659249942" fill="none" stroke="#FFFFFF" stroke-width="2.495431715620417" stroke-linecap="square"/><path d="M 274.0413667047589 513.7249278434202 L 274.0413667047589 438.94809888715395 L 308.27247494769574 438.94809888715395" fill="none" stroke="#FFFFFF" stroke-width="2.495431715620417" stroke-linecap="square"/><path d="M 132.3011398931505 595.8704328331493 L 132.3011398931505 559.069300230483 L 77.17740261086915 559.069300230483 L 77.17740261086915 630" fill="none" stroke="#FFFFFF" stroke-width="2.495431715620417" stroke-linecap="square"/><path d="M 175.52433022089505 302.9161308626254 L 175.52433022089505 343.0073546123624 L 270.46188362916854 343.0073546123624" fill="none" stroke="#FFFFFF" stroke-width="2.495431715620417" stroke-linecap="square"/><line x1="579.3279650524854" y1="156.32753999360256" x2="579.3279650524854" y2="401.6043021164854" stroke="#FFFFFF" stroke-width="0.5" stroke-dasharray="5,10"/><line x1="319.1736032064881" y1="512.0675613880472" x2="713.747806881437" y2="512.0675613880472" stroke="#FFFFFF" stroke-width="0.5" stroke-dasharray="5,10"/><rect x="995.1710550660133" y="17.292577615070915" width="4.0126156807004545" height="4.0126156807004545" fill="#FFFFFF"/><rect x="355.5989465606873" y="303.2415665617406" width="4.0126156807004545" height="4.0126156807004545" fill="#FFFFFF"/><circle cx="642.116593906421" cy="540.3135710431291" r="2.0063078403502272" fill="#FFFFFF"/><circle cx="702.039242117684" cy="579.7912576514256" r="1.605046272280182" fill="#FFFFFF"/><rect x="640.1102860660708" y="608.91773906102" width="4.0126156807004545" height="4.0126156807004545" fill="#FFFFFF"/><circle cx="792.8805071365562" cy="521.9476865118812" r="2.0063078403502272" fill="#FFFFFF"/><circle cx="768.5344580414401" cy="609.8537781694223" r="1.605046272280182" fill="#FFFFFF"/><rect x="842.5194431544953" y="607.847470329072" width="4.0126156807004545" height="4.0126156807004545" fill="#FFFFFF"/><circle cx="470.61029386035744" cy="213.13009390623836" r="2.0063078403502272" fill="#FFFFFF"/><circle cx="582.1680310099238" cy="142.76588029356947" r="1.605046272280182" fill="#FFFFFF"/><rect x="506.1195572828625" y="140.75957245321925" width="4.0126156807004545" height="4.0126156807004545" fill="#FFFFFF"/><rect x="158.21376107778195" y="192.96666598261285" width="4.0126156807004545" height="4.0126156807004545" fill="#FFFFFF"/><circle cx="308.27247494769574" cy="438.94809888715395" r="2.0063078403502272" fill="#FFFFFF"/><circle cx="274.0413667047589" cy="513.7249278434202" r="1.605046272280182" fill="#FFFFFF"/><rect x="75.17109477051892" y="557.0629923901328" width="4.0126156807004545" height="4.0126156807004545" fill="#FFFFFF"/><circle cx="525.6056788031038" cy="182.55052336610413" r="3.7423470012494904" fill="#FFFFFF"/><rect x="976.9019386825321" y="329.0932506939524" width="7.432505078969474" height="7.432505078969474" fill="#FFFFFF"/><rect x="679.2799448590929" y="177.82521578380323" width="6.695729012958832" height="6.695729012958832" fill="#FFFFFF"/><circle cx="72.86696437414129" cy="423.30747951907455" r="3.459949504359098" fill="#FFFFFF"/><circle cx="850.3286365653987" cy="248.34350120664737" r="2.3913279122296283" fill="#FFFFFF"/></g><g opacity="0.2"><rect x="40" y="40" width="1120" height="550" fill="none" stroke="#8B7355" stroke-width="2" rx="8"/></g><g opacity="0.9733263852416195"><line x1="50" y1="50" x2="70" y2="50" stroke="#FFC125" stroke-width="3"/><line x1="50" y1="50" x2="50" y2="70" stroke="#FFC125" stroke-width="3"/><line x1="1150" y1="580" x2="1130" y2="580" stroke="#FFC125" stroke-width="3"/><line x1="1150" y1="580" x2="1150" y2="560" stroke="#FFC125" stroke-width="3"/></g></svg>