<svg xmlns="http://www.w3.org/2000/svg" width="1200" height="630" viewBox="0 0 1200 630"><rect x="0" y="0" width="1200" height="630" fill="#050510"/><g opacity="0.05"><line x1="0" y1="0" x2="0" y2="630" stroke="#4B5563" stroke-width="0.5"/><line x1="60" y1="0" x2="60" y2="630" stroke="#4B5563" stroke-width="0.5"/><line x1="120" y1="0" x2="120" y2="630" stroke="#4B5563" stroke-width="0.5"/><line x1="180" y1="0" x2="180" y2="630" stroke="#4B5563" stroke-width="0.5"/><line x1="240" y1="0" x2="240" y2="630" stroke="#4B5563" stroke-width="0.5"/><line x1="300" y1="0" x2="300" y2="630" stroke="#4B5563" stroke-width="0.5"/><line x1="360" y1="0" x2="360" y2="630" stroke="#4B5563" stroke-width="0.5"/><line x1="420" y1="0" x2="420" y2="630" stroke="#4B5563" stroke-width="0.5"/><line x1="480" y1="0" x2="480" y2="630" stroke="#4B5563" stroke-width="0.5"/><line x1="540" y1="0" x2="540" y2="630" stroke="#4B5563" stroke-width="0.5"/><line x1="600" y1="0" x2="600" y2="630" stroke="#4B5563" stroke-width="0.5"/><line x1="660" y1="0" x2="660" y2="630" stroke="#4B5563" stroke-width="0.5"/><line x1="720" y1="0" x2="720" y2="630" stroke="#4B5563" stroke-width="0.5"/><line x1="780" y1="0" x2="780" y2="630" stroke="#4B5563" stroke-width="0.5"/><line x1="840" y1="0" x2="840" y2="630" stroke="#4B5563" stroke-width="0.5"/><line x1="900" y1="0" x2="900" y2="630" stroke="#4B5563" stroke-width="0.5"/><line x1="960" y1="0" x2="960" y2="630" stroke="#4B5563" stroke-width="0.5"/><line x1="1020" y1="0" x2="1020" y2="630" stroke="#4B5563" stroke-width="0.5"/><line x1="1080" y1="0" x2="1080" y2="630" stroke="#4B5563" stroke-width="0.5"/><line x1="1140" y1="0" x2="1140" y2="630" stroke="#4B5563" stroke-width="0.5"/><line x1="1200" y1="0" x2="1200" y2="630" stroke="#4B5563" stroke-width="0.5"/><line x1="0" y1="0" x2="1200" y2="0" stroke="#4B5563" stroke-width="0.5"/><line x1="0" y1="60" x2="1200" y2="60" stroke="#4B5563" stroke-width="0.5"/><line x1="0" y1="120" x2="1200" y2="120" stroke="#4B5563" stroke-width="0.5"/><line x1="0" y1="180" x2="1200" y2="180" stroke="#4B5563" stroke-width="0.5"/><line x1="0" y1="240" x2="1200" y2="240" stroke="#4B5563" stroke-width="0.5"/><line x1="0" y1="300" x2="1200" y2="300" stroke="#4B5563" stroke-width="0.5"/><line x1="0" y1="360" x2="1200" y2="360" stroke="#4B5563" stroke-width="0.5"/><line x1="0" y1="420" x2="1200" y2="420" stroke="#4B5563" stroke-width="0.5"/><line x1="0" y1="480" x2="1200" y2="480" stroke="#4B5563" stroke-width="0.5"/><line x1="0" y1="540" x2="1200" y2="540" stroke="#4B5563" stroke-width="0.5"/><line x1="0" y1="600" x2="1200" y2="600" stroke="#4B5563" stroke-width="0.5"/><line x1="0" y1="660" x2="1200" y2="660" stroke="#4B5563" stroke-width="0.5"/></g><g opacity="0.1369322896408533"><path d="M -66.67487152980942,-126.6822559066379 L -53.91718718504498,-97.47464609941464 L -24.24324311568631,-109.10649994393253 L -35.8750969602042,-79.43255587457386 L -6.667487152980939,-66.67487152980942 L -35.8750969602042,-53.91718718504499 L -24.24324311568631,-24.24324311568632 L -53.91718718504498,-35.8750969602042 L -66.67487152980942,-6.667487152980939 L -79.43255587457386,-35.8750969602042 L -109.10649994393253,-24.24324311568631 L -97.47464609941463,-53.917187185044966 L -126.6822559066379,-66.67487152980941 L -97.47464609941463,-79.43255587457386 L -109.10649994393253,-109.10649994393253 L -79.43255587457388,-97.47464609941463 Z" fill="none" stroke="#0F52BA" stroke-width="0.599326968239307" /><path d="M 66.67487152980942,-126.6822559066379 L 79.43255587457386,-97.47464609941464 L 109.10649994393253,-109.10649994393253 L 97.47464609941464,-79.43255587457386 L 126.6822559066379,-66.67487152980942 L 97.47464609941464,-53.91718718504499 L 109.10649994393253,-24.24324311568632 L 79.43255587457386,-35.8750969602042 L 66.67487152980942,-6.667487152980939 L 53.91718718504499,-35.8750969602042 L 24.24324311568632,-24.24324311568631 L 35.87509696020422,-53.917187185044966 L 6.667487152980939,-66.67487152980941 L 35.87509696020421,-79.43255587457386 L 24.243243115686305,-109.10649994393253 L 53.917187185044966,-97.47464609941463 Z" fill="none" stroke="#0F52BA" stroke-width="0.599326968239307" /><path d="M 200.02461458942827,-126.6822559066379 L 212.7822989341927,-97.47464609941464 L 242.45624300355138,-109.10649994393253 L 230.82438915903347,-79.43255587457386 L 260.03199896625677,-66.67487152980942 L 230.82438915903347,-53.91718718504499 L 242.45624300355138,-24.24324311568632 L 212.7822989341927,-35.8750969602042 L 200.02461458942827,-6.667487152980939 L 187.26693024466383,-35.8750969602042 L 157.59298617530516,-24.24324311568631 L 169.22484001982306,-53.917187185044966 L 140.01723021259977,-66.67487152980941 L 169.22484001982306,-79.43255587457386 L 157.59298617530516,-109.10649994393253 L 187.2669302446638,-97.47464609941463 Z" fill="none" stroke="#0F52BA" stroke-width="0.599326968239307" /><path d="M 333.3743576490471,-126.6822559066379 L 346.1320419938115,-97.47464609941464 L 375.8059860631702,-109.10649994393253 L 364.17413221865235,-79.43255587457386 L 393.3817420258756,-66.67487152980942 L 364.17413221865235,-53.91718718504499 L 375.8059860631702,-24.24324311568632 L 346.1320419938115,-35.8750969602042 L 333.3743576490471,-6.667487152980939 L 320.6166733042827,-35.8750969602042 L 290.942729234924,-24.24324311568631 L 302.5745830794419,-53.917187185044966 L 273.3669732722186,-66.67487152980941 L 302.5745830794419,-79.43255587457386 L 290.942729234924,-109.10649994393253 L 320.61667330428264,-97.47464609941463 Z" fill="none" stroke="#0F52BA" stroke-width="0.599326968239307" /><path d="M 466.72410070866596,-126.6822559066379 L 479.4817850534304,-97.47464609941464 L 509.15572912278907,-109.10649994393253 L 497.5238752782712,-79.43255587457386 L 526.7314850854945,-66.67487152980942 L 497.5238752782712,-53.91718718504499 L 509.15572912278907,-24.24324311568632 L 479.4817850534304,-35.8750969602042 L 466.72410070866596,-6.667487152980939 L 453.96641636390154,-35.8750969602042 L 424.29247229454285,-24.24324311568631 L 435.9243261390607,-53.917187185044966 L 406.71671633183746,-66.67487152980941 L 435.9243261390607,-79.43255587457386 L 424.29247229454285,-109.10649994393253 L 453.9664163639015,-97.47464609941463 Z" fill="none" stroke="#0F52BA" stroke-width="0.599326968239307" /><path d="M 600.0738437682849,-126.6822559066379 L 612.8315281130493,-97.47464609941464 L 642.505472182408,-109.10649994393253 L 630.8736183378901,-79.43255587457386 L 660.0812281451133,-66.67487152980942 L 630.8736183378901,-53.91718718504499 L 642.505472182408,-24.24324311568632 L 612.8315281130493,-35.8750969602042 L 600.0738437682849,-6.667487152980939 L 587.3161594235204,-35.8750969602042 L 557.6422153541617,-24.24324311568631 L 569.2740691986796,-53.917187185044966 L 540.0664593914564,-66.67487152980941 L 569.2740691986796,-79.43255587457386 L 557.6422153541617,-109.10649994393253 L 587.3161594235204,-97.47464609941463 Z" fill="none" stroke="#0F52BA" stroke-width="0.599326968239307" /><path d="M 733.4235868279036,-126.6822559066379 L 746.1812711726681,-97.47464609941464 L 775.8552152420267,-109.10649994393253 L 764.2233613975088,-79.43255587457386 L 793.430971204732,-66.67487152980942 L 764.2233613975088,-53.91718718504499 L 775.8552152420267,-24.24324311568632 L 746.1812711726681,-35.8750969602042 L 733.4235868279036,-6.667487152980939 L 720.6659024831391,-35.8750969602042 L 690.9919584137805,-24.24324311568631 L 702.6238122582984,-53.917187185044966 L 673.4162024510752,-66.67487152980941 L 702.6238122582984,-79.43255587457386 L 690.9919584137805,-109.10649994393253 L 720.6659024831391,-97.47464609941463 Z" fill="none" stroke="#0F52BA" stroke-width="0.599326968239307" /><path d="M 866.7733298875226,-126.6822559066379 L 879.531014232287,-97.47464609941464 L 909.2049583016457,-109.10649994393253 L 897.5731044571278,-79.43255587457386 L 926.780714264351,-66.67487152980942 L 897.5731044571278,-53.91718718504499 L 909.2049583016457,-24.24324311568632 L 879.531014232287,-35.8750969602042 L 866.7733298875226,-6.667487152980939 L 854.0156455427581,-35.8750969602042 L 824.3417014733994,-24.24324311568631 L 835.9735553179173,-53.917187185044966 L 806.7659455106941,-66.67487152980941 L 835.9735553179173,-79.43255587457386 L 824.3417014733994,-109.10649994393253 L 854.0156455427581,-97.47464609941463 Z" fill="none" stroke="#0F52BA" stroke-width="0.599326968239307" /><path d="M 1000.1230729471413,-126.6822559066379 L 1012.8807572919058,-97.47464609941464 L 1042.5547013612645,-109.10649994393253 L 1030.9228475167465,-79.43255587457386 L 1060.1304573239697,-66.67487152980942 L 1030.9228475167465,-53.91718718504499 L 1042.5547013612645,-24.24324311568632 L 1012.8807572919058,-35.8750969602042 L 1000.1230729471413,-6.667487152980939 L 987.3653886023768,-35.8750969602042 L 957.6914445330182,-24.24324311568631 L 969.323298377536,-53.917187185044966 L 940.1156885703128,-66.67487152980941 L 969.323298377536,-79.43255587457386 L 957.6914445330182,-109.10649994393253 L 987.3653886023768,-97.47464609941463 Z" fill="none" stroke="#0F52BA" stroke-width="0.599326968239307" /><path d="M 1133.4728160067602,-126.6822559066379 L 1146.2305003515246,-97.47464609941464 L 1175.9044444208835,-109.10649994393253 L 1164.2725905763655,-79.43255587457386 L 1193.4802003835887,-66.67487152980942 L 1164.2725905763655,-53.91718718504499 L 1175.9044444208835,-24.24324311568632 L 1146.2305003515246,-35.8750969602042 L 1133.4728160067602,-6.667487152980939 L 1120.7151316619959,-35.8750969602042 L 1091.0411875926372,-24.24324311568631 L 1102.673041437155,-53.917187185044966 L 1073.4654316299318,-66.67487152980941 L 1102.673041437155,-79.43255587457386 L 1091.041187592637,-109.10649994393253 L 1120.7151316619959,-97.47464609941463 Z" fill="none" stroke="#0F52BA" stroke-width="0.599326968239307" /><path d="M 1266.822559066379,-126.6822559066379 L 1279.5802434111433,-97.47464609941464 L 1309.254187480502,-109.10649994393253 L 1297.6223336359842,-79.43255587457386 L 1326.8299434432074,-66.67487152980942 L 1297.6223336359842,-53.91718718504499 L 1309.254187480502,-24.24324311568632 L 1279.5802434111433,-35.8750969602042 L 1266.822559066379,-6.667487152980939 L 1254.0648747216146,-35.8750969602042 L 1224.390930652256,-24.24324311568631 L 1236.0227844967737,-53.917187185044966 L 1206.8151746895505,-66.67487152980941 L 1236.0227844967737,-79.43255587457386 L 1224.3909306522557,-109.10649994393253 L 1254.0648747216146,-97.47464609941463 Z" fill="none" stroke="#0F52BA" stroke-width="0.599326968239307" /><path d="M 3.674392560114395e-15,-11.201378417007987 L 12.757684344764439,18.00623139021528 L 42.43162841412311,6.374377545697392 L 30.799774569605216,36.04832161505606 L 60.00738437682848,48.806005959820496 L 30.799774569605216,61.56369030458493 L 42.43162841412311,91.23763437394359 L 12.757684344764439,79.60578052942572 L 3.674392560114395e-15,108.81339033664898 L -12.757684344764435,79.60578052942572 L -42.431628414123104,91.2376343739436 L -30.79977456960521,61.56369030458495 L -60.00738437682848,48.8060059598205 L -30.799774569605212,36.048321615056054 L -42.43162841412312,6.374377545697392 L -12.757684344764456,18.006231390215287 Z" fill="none" stroke="#0F52BA" stroke-width="0.599326968239307" /><path d="M 133.34974305961885,-11.201378417007987 L 146.1074274043833,18.00623139021528 L 175.78137147374196,6.374377545697392 L 164.14951762922405,36.04832161505606 L 193.35712743644734,48.806005959820496 L 164.14951762922405,61.56369030458493 L 175.78137147374196,91.23763437394359 L 146.1074274043833,79.60578052942572 L 133.34974305961885,108.81339033664898 L 120.5920587148544,79.60578052942572 L 90.91811464549573,91.2376343739436 L 102.54996849001364,61.56369030458495 L 73.34235868279036,48.8060059598205 L 102.54996849001364,36.048321615056054 L 90.91811464549573,6.374377545697392 L 120.59205871485439,18.006231390215287 Z" fill="none" stroke="#0F52BA" stroke-width="0.599326968239307" /><path d="M 266.6994861192377,-11.201378417007987 L 279.4571704640021,18.00623139021528 L 309.1311145333608,6.374377545697392 L 297.4992606888429,36.04832161505606 L 326.7068704960662,48.806005959820496 L 297.4992606888429,61.56369030458493 L 309.1311145333608,91.23763437394359 L 279.4571704640021,79.60578052942572 L 266.6994861192377,108.81339033664898 L 253.94180177447325,79.60578052942572 L 224.26785770511458,91.2376343739436 L 235.89971154963249,61.56369030458495 L 206.6921017424092,48.8060059598205 L 235.89971154963249,36.048321615056054 L 224.26785770511458,6.374377545697392 L 253.94180177447322,18.006231390215287 Z" fill="none" stroke="#0F52BA" stroke-width="0.599326968239307" /><path d="M 400.04922917885654,-11.201378417007987 L 412.80691352362095,18.00623139021528 L 442.48085759297965,6.374377545697392 L 430.84900374846177,36.04832161505606 L 460.05661355568503,48.806005959820496 L 430.84900374846177,61.56369030458493 L 442.48085759297965,91.23763437394359 L 412.80691352362095,79.60578052942572 L 400.04922917885654,108.81339033664898 L 387.2915448340921,79.60578052942572 L 357.6176007647334,91.2376343739436 L 369.2494546092513,61.56369030458495 L 340.04184480202804,48.8060059598205 L 369.2494546092513,36.048321615056054 L 357.6176007647334,6.374377545697392 L 387.29154483409206,18.006231390215287 Z" fill="none" stroke="#0F52BA" stroke-width="0.599326968239307" /><path d="M 533.3989722384754,-11.201378417007987 L 546.1566565832399,18.00623139021528 L 575.8306006525985,6.374377545697392 L 564.1987468080806,36.04832161505606 L 593.4063566153038,48.806005959820496 L 564.1987468080806,61.56369030458493 L 575.8306006525985,91.23763437394359 L 546.1566565832399,79.60578052942572 L 533.3989722384754,108.81339033664898 L 520.6412878937109,79.60578052942572 L 490.96734382435227,91.2376343739436 L 502.59919766887015,61.56369030458495 L 473.3915878616469,48.8060059598205 L 502.59919766887015,36.048321615056054 L 490.96734382435227,6.374377545697392 L 520.6412878937109,18.006231390215287 Z" fill="none" stroke="#0F52BA" stroke-width="0.599326968239307" /><path d="M 666.7487152980943,-11.201378417007987 L 679.5063996428588,18.00623139021528 L 709.1803437122175,6.374377545697392 L 697.5484898676996,36.04832161505606 L 726.7560996749228,48.806005959820496 L 697.5484898676996,61.56369030458493 L 709.1803437122175,91.23763437394359 L 679.5063996428588,79.60578052942572 L 666.7487152980943,108.81339033664898 L 653.9910309533299,79.60578052942572 L 624.3170868839712,91.2376343739436 L 635.9489407284891,61.56369030458495 L 606.7413309212659,48.8060059598205 L 635.9489407284891,36.048321615056054 L 624.3170868839712,6.374377545697392 L 653.9910309533299,18.006231390215287 Z" fill="none" stroke="#0F52BA" stroke-width="0.599326968239307" /><path d="M 800.0984583577131,-11.201378417007987 L 812.8561427024775,18.00623139021528 L 842.5300867718362,6.374377545697392 L 830.8982329273183,36.04832161505606 L 860.1058427345415,48.806005959820496 L 830.8982329273183,61.56369030458493 L 842.5300867718362,91.23763437394359 L 812.8561427024775,79.60578052942572 L 800.0984583577131,108.81339033664898 L 787.3407740129486,79.60578052942572 L 757.66682994359,91.2376343739436 L 769.2986837881078,61.56369030458495 L 740.0910739808846,48.8060059598205 L 769.2986837881078,36.048321615056054 L 757.66682994359,6.374377545697392 L 787.3407740129486,18.006231390215287 Z" fill="none" stroke="#0F52BA" stroke-width="0.599326968239307" /><path d="M 933.448201417332,-11.201378417007987 L 946.2058857620965,18.00623139021528 L 975.8798298314551,6.374377545697392 L 964.2479759869373,36.04832161505606 L 993.4555857941605,48.806005959820496 L 964.2479759869373,61.56369030458493 L 975.8798298314551,91.23763437394359 L 946.2058857620965,79.60578052942572 L 933.448201417332,108.81339033664898 L 920.6905170725676,79.60578052942572 L 891.0165730032089,91.2376343739436 L 902.6484268477268,61.56369030458495 L 873.4408170405036,48.8060059598205 L 902.6484268477268,36.048321615056054 L 891.0165730032089,6.374377545697392 L 920.6905170725676,18.006231390215287 Z" fill="none" stroke="#0F52BA" stroke-width="0.599326968239307" /><path d="M 1066.7979444769508,-11.201378417007987 L 1079.5556288217151,18.00623139021528 L 1109.229572891074,6.374377545697392 L 1097.597719046556,36.04832161505606 L 1126.8053288537792,48.806005959820496 L 1097.597719046556,61.56369030458493 L 1109.229572891074,91.23763437394359 L 1079.5556288217151,79.60578052942572 L 1066.7979444769508,108.81339033664898 L 1054.0402601321864,79.60578052942572 L 1024.3663160628278,91.2376343739436 L 1035.9981699073455,61.56369030458495 L 1006.7905601001223,48.8060059598205 L 1035.9981699073455,36.048321615056054 L 1024.3663160628275,6.374377545697392 L 1054.0402601321864,18.006231390215287 Z" fill="none" stroke="#0F52BA" stroke-width="0.599326968239307" /><path d="M 1200.1476875365697,-11.201378417007987 L 1212.905371881334,18.00623139021528 L 1242.579315950693,6.374377545697392 L 1230.947462106175,36.04832161505606 L 1260.1550719133982,48.806005959820496 L 1230.947462106175,61.56369030458493 L 1242.579315950693,91.23763437394359 L 1212.905371881334,79.60578052942572 L 1200.1476875365697,108.81339033664898 L 1187.3900031918054,79.60578052942572 L 1157.7160591224467,91.2376343739436 L 1169.3479129669645,61.56369030458495 L 1140.1403031597413,48.8060059598205 L 1169.3479129669645,36.048321615056054 L 1157.7160591224465,6.374377545697392 L 1187.3900031918054,18.006231390215287 Z" fill="none" stroke="#0F52BA" stroke-width="0.599326968239307" /><path d="M -66.67487152980942,104.27949907262193 L -53.91718718504498,133.4871088798452 L -24.24324311568631,121.8552550353273 L -35.8750969602042,151.52919910468597 L -6.667487152980939,164.28688344945041 L -35.8750969602042,177.04456779421486 L -24.24324311568631,206.71851186357353 L -53.91718718504498,195.08665801905562 L -66.67487152980942,224.29426782627888 L -79.43255587457386,195.08665801905562 L -109.10649994393253,206.71851186357353 L -97.47464609941463,177.04456779421486 L -126.6822559066379,164.28688344945041 L -97.47464609941463,151.52919910468597 L -109.10649994393253,121.8552550353273 L -79.43255587457388,133.4871088798452 Z" fill="none" stroke="#0F52BA" stroke-width="0.599326968239307" /><path d="M 66.67487152980942,104.27949907262193 L 79.43255587457386,133.4871088798452 L 109.10649994393253,121.8552550353273 L 97.47464609941464,151.52919910468597 L 126.6822559066379,164.28688344945041 L 97.47464609941464,177.04456779421486 L 109.10649994393253,206.71851186357353 L 79.43255587457386,195.08665801905562 L 66.67487152980942,224.29426782627888 L 53.91718718504499,195.08665801905562 L 24.24324311568632,206.71851186357353 L 35.87509696020422,177.04456779421486 L 6.667487152980939,164.28688344945041 L 35.87509696020421,151.52919910468597 L 24.243243115686305,121.8552550353273 L 53.917187185044966,133.4871088798452 Z" fill="none" stroke="#0F52BA" stroke-width="0.599326968239307" /><path d="M 200.02461458942827,104.27949907262193 L 212.7822989341927,133.4871088798452 L 242.45624300355138,121.8552550353273 L 230.82438915903347,151.52919910468597 L 260.03199896625677,164.28688344945041 L 230.82438915903347,177.04456779421486 L 242.45624300355138,206.71851186357353 L 212.7822989341927,195.08665801905562 L 200.02461458942827,224.29426782627888 L 187.26693024466383,195.08665801905562 L 157.59298617530516,206.71851186357353 L 169.22484001982306,177.04456779421486 L 140.01723021259977,164.28688344945041 L 169.22484001982306,151.52919910468597 L 157.59298617530516,121.8552550353273 L 187.2669302446638,133.4871088798452 Z" fill="none" stroke="#0F52BA" stroke-width="0.599326968239307" /><path d="M 333.3743576490471,104.27949907262193 L 346.1320419938115,133.4871088798452 L 375.8059860631702,121.8552550353273 L 364.17413221865235,151.52919910468597 L 393.3817420258756,164.28688344945041 L 364.17413221865235,177.04456779421486 L 375.8059860631702,206.71851186357353 L 346.1320419938115,195.08665801905562 L 333.3743576490471,224.29426782627888 L 320.6166733042827,195.08665801905562 L 290.942729234924,206.71851186357353 L 302.5745830794419,177.04456779421486 L 273.3669732722186,164.28688344945041 L 302.5745830794419,151.52919910468597 L 290.942729234924,121.8552550353273 L 320.61667330428264,133.4871088798452 Z" fill="none" stroke="#0F52BA" stroke-width="0.599326968239307" /><path d="M 466.72410070866596,104.27949907262193 L 479.4817850534304,133.4871088798452 L 509.15572912278907,121.8552550353273 L 497.5238752782712,151.52919910468597 L 526.7314850854945,164.28688344945041 L 497.5238752782712,177.04456779421486 L 509.15572912278907,206.71851186357353 L 479.4817850534304,195.08665801905562 L 466.72410070866596,224.29426782627888 L 453.96641636390154,195.08665801905562 L 424.29247229454285,206.71851186357353 L 435.9243261390607,177.04456779421486 L 406.71671633183746,164.28688344945041 L 435.9243261390607,151.52919910468597 L 424.29247229454285,121.8552550353273 L 453.9664163639015,133.4871088798452 Z" fill="none" stroke="#0F52BA" stroke-width="0.599326968239307" /><path d="M 600.0738437682849,104.27949907262193 L 612.8315281130493,133.4871088798452 L 642.505472182408,121.8552550353273 L 630.8736183378901,151.52919910468597 L 660.0812281451133,164.28688344945041 L 630.8736183378901,177.04456779421486 L 642.505472182408,206.71851186357353 L 612.8315281130493,195.08665801905562 L 600.0738437682849,224.29426782627888 L 587.3161594235204,195.08665801905562 L 557.6422153541617,206.71851186357353 L 569.2740691986796,177.04456779421486 L 540.0664593914564,164.28688344945041 L 569.2740691986796,151.52919910468597 L 557.6422153541617,121.8552550353273 L 587.3161594235204,133.4871088798452 Z" fill="none" stroke="#0F52BA" stroke-width="0.599326968239307" /><path d="M 733.4235868279036,104.27949907262193 L 746.1812711726681,133.4871088798452 L 775.8552152420267,121.8552550353273 L 764.2233613975088,151.52919910468597 L 793.430971204732,164.28688344945041 L 764.2233613975088,177.04456779421486 L 775.8552152420267,206.71851186357353 L 746.1812711726681,195.08665801905562 L 733.4235868279036,224.29426782627888 L 720.6659024831391,195.08665801905562 L 690.9919584137805,206.71851186357353 L 702.6238122582984,177.04456779421486 L 673.4162024510752,164.28688344945041 L 702.6238122582984,151.52919910468597 L 690.9919584137805,121.8552550353273 L 720.6659024831391,133.4871088798452 Z" fill="none" stroke="#0F52BA" stroke-width="0.599326968239307" /><path d="M 866.7733298875226,104.27949907262193 L 879.531014232287,133.4871088798452 L 909.2049583016457,121.8552550353273 L 897.5731044571278,151.52919910468597 L 926.780714264351,164.28688344945041 L 897.5731044571278,177.04456779421486 L 909.2049583016457,206.71851186357353 L 879.531014232287,195.08665801905562 L 866.7733298875226,224.29426782627888 L 854.0156455427581,195.08665801905562 L 824.3417014733994,206.71851186357353 L 835.9735553179173,177.04456779421486 L 806.7659455106941,164.28688344945041 L 835.9735553179173,151.52919910468597 L 824.3417014733994,121.8552550353273 L 854.0156455427581,133.4871088798452 Z" fill="none" stroke="#0F52BA" stroke-width="0.599326968239307" /><path d="M 1000.1230729471413,104.27949907262193 L 1012.8807572919058,133.4871088798452 L 1042.5547013612645,121.8552550353273 L 1030.9228475167465,151.52919910468597 L 1060.1304573239697,164.28688344945041 L 1030.9228475167465,177.04456779421486 L 1042.5547013612645,206.71851186357353 L 1012.8807572919058,195.08665801905562 L 1000.1230729471413,224.29426782627888 L 987.3653886023768,195.08665801905562 L 957.6914445330182,206.71851186357353 L 969.323298377536,177.04456779421486 L 940.1156885703128,164.28688344945041 L 969.323298377536,151.52919910468597 L 957.6914445330182,121.8552550353273 L 987.3653886023768,133.4871088798452 Z" fill="none" stroke="#0F52BA" stroke-width="0.599326968239307" /><path d="M 1133.4728160067602,104.27949907262193 L 1146.2305003515246,133.4871088798452 L 1175.9044444208835,121.8552550353273 L 1164.2725905763655,151.52919910468597 L 1193.4802003835887,164.28688344945041 L 1164.2725905763655,177.04456779421486 L 1175.9044444208835,206.71851186357353 L 1146.2305003515246,195.08665801905562 L 1133.4728160067602,224.29426782627888 L 1120.7151316619959,195.08665801905562 L 1091.0411875926372,206.71851186357353 L 1102.673041437155,177.04456779421486 L 1073.4654316299318,164.28688344945041 L 1102.673041437155,151.52919910468597 L 1091.041187592637,121.8552550353273 L 1120.7151316619959,133.4871088798452 Z" fill="none" stroke="#0F52BA" stroke-width="0.599326968239307" /><path d="M 1266.822559066379,104.27949907262193 L 1279.5802434111433,133.4871088798452 L 1309.254187480502,121.8552550353273 L 1297.6223336359842,151.52919910468597 L 1326.8299434432074,164.28688344945041 L 1297.6223336359842,177.04456779421486 L 1309.254187480502,206.71851186357353 L 1279.5802434111433,195.08665801905562 L 1266.822559066379,224.29426782627888 L 1254.0648747216146,195.08665801905562 L 1224.390930652256,206.71851186357353 L 1236.0227844967737,177.04456779421486 L 1206.8151746895505,164.28688344945041 L 1236.0227844967737,151.52919910468597 L 1224.3909306522557,121.8552550353273 L 1254.0648747216146,133.4871088798452 Z" fill="none" stroke="#0F52BA" stroke-width="0.599326968239307" /><path d="M 3.674392560114395e-15,219.76037656225185 L 12.757684344764439,248.96798636947514 L 42.43162841412311,237.33613252495724 L 30.799774569605216,267.01007659431593 L 60.00738437682848,279.76776093908035 L 30.799774569605216,292.52544528384476 L 42.43162841412311,322.19938935320346 L 12.757684344764439,310.5675355086856 L 3.674392560114395e-15,339.77514531590884 L -12.757684344764435,310.5675355086856 L -42.431628414123104,322.19938935320346 L -30.79977456960521,292.5254452838448 L -60.00738437682848,279.76776093908035 L -30.799774569605212,267.0100765943159 L -42.43162841412312,237.33613252495724 L -12.757684344764456,248.96798636947514 Z" fill="none" stroke="#0F52BA" stroke-width="0.599326968239307" /><path d="M 133.34974305961885,219.76037656225185 L 146.1074274043833,248.96798636947514 L 175.78137147374196,237.33613252495724 L 164.14951762922405,267.01007659431593 L 193.35712743644734,279.76776093908035 L 164.14951762922405,292.52544528384476 L 175.78137147374196,322.19938935320346 L 146.1074274043833,310.5675355086856 L 133.34974305961885,339.77514531590884 L 120.5920587148544,310.5675355086856 L 90.91811464549573,322.19938935320346 L 102.54996849001364,292.5254452838448 L 73.34235868279036,279.76776093908035 L 102.54996849001364,267.0100765943159 L 90.91811464549573,237.33613252495724 L 120.59205871485439,248.96798636947514 Z" fill="none" stroke="#0F52BA" stroke-width="0.599326968239307" /><path d="M 266.6994861192377,219.76037656225185 L 279.4571704640021,248.96798636947514 L 309.1311145333608,237.33613252495724 L 297.4992606888429,267.01007659431593 L 326.7068704960662,279.76776093908035 L 297.4992606888429,292.52544528384476 L 309.1311145333608,322.19938935320346 L 279.4571704640021,310.5675355086856 L 266.6994861192377,339.77514531590884 L 253.94180177447325,310.5675355086856 L 224.26785770511458,322.19938935320346 L 235.89971154963249,292.5254452838448 L 206.6921017424092,279.76776093908035 L 235.89971154963249,267.0100765943159 L 224.26785770511458,237.33613252495724 L 253.94180177447322,248.96798636947514 Z" fill="none" stroke="#0F52BA" stroke-width="0.599326968239307" /><path d="M 400.04922917885654,219.76037656225185 L 412.80691352362095,248.96798636947514 L 442.48085759297965,237.33613252495724 L 430.84900374846177,267.01007659431593 L 460.05661355568503,279.76776093908035 L 430.84900374846177,292.52544528384476 L 442.48085759297965,322.19938935320346 L 412.80691352362095,310.5675355086856 L 400.04922917885654,339.77514531590884 L 387.2915448340921,310.5675355086856 L 357.6176007647334,322.19938935320346 L 369.2494546092513,292.5254452838448 L 340.04184480202804,279.76776093908035 L 369.2494546092513,267.0100765943159 L 357.6176007647334,237.33613252495724 L 387.29154483409206,248.96798636947514 Z" fill="none" stroke="#0F52BA" stroke-width="0.599326968239307" /><path d="M 533.3989722384754,219.76037656225185 L 546.1566565832399,248.96798636947514 L 575.8306006525985,237.33613252495724 L 564.1987468080806,267.01007659431593 L 593.4063566153038,279.76776093908035 L 564.1987468080806,292.52544528384476 L 575.8306006525985,322.19938935320346 L 546.1566565832399,310.5675355086856 L 533.3989722384754,339.77514531590884 L 520.6412878937109,310.5675355086856 L 490.96734382435227,322.19938935320346 L 502.59919766887015,292.5254452838448 L 473.3915878616469,279.76776093908035 L 502.59919766887015,267.0100765943159 L 490.96734382435227,237.33613252495724 L 520.6412878937109,248.96798636947514 Z" fill="none" stroke="#0F52BA" stroke-width="0.599326968239307" /><path d="M 666.7487152980943,219.76037656225185 L 679.5063996428588,248.96798636947514 L 709.1803437122175,237.33613252495724 L 697.5484898676996,267.01007659431593 L 726.7560996749228,279.76776093908035 L 697.5484898676996,292.52544528384476 L 709.1803437122175,322.19938935320346 L 679.5063996428588,310.5675355086856 L 666.7487152980943,339.77514531590884 L 653.9910309533299,310.5675355086856 L 624.3170868839712,322.19938935320346 L 635.9489407284891,292.5254452838448 L 606.7413309212659,279.76776093908035 L 635.9489407284891,267.0100765943159 L 624.3170868839712,237.33613252495724 L 653.9910309533299,248.96798636947514 Z" fill="none" stroke="#0F52BA" stroke-width="0.599326968239307" /><path d="M 800.0984583577131,219.76037656225185 L 812.8561427024775,248.96798636947514 L 842.5300867718362,237.33613252495724 L 830.8982329273183,267.01007659431593 L 860.1058427345415,279.76776093908035 L 830.8982329273183,292.52544528384476 L 842.5300867718362,322.19938935320346 L 812.8561427024775,310.5675355086856 L 800.0984583577131,339.77514531590884 L 787.3407740129486,310.5675355086856 L 757.66682994359,322.19938935320346 L 769.2986837881078,292.5254452838448 L 740.0910739808846,279.76776093908035 L 769.2986837881078,267.0100765943159 L 757.66682994359,237.33613252495724 L 787.3407740129486,248.96798636947514 Z" fill="none" stroke="#0F52BA" stroke-width="0.599326968239307" /><path d="M 933.448201417332,219.76037656225185 L 946.2058857620965,248.96798636947514 L 975.8798298314551,237.33613252495724 L 964.2479759869373,267.01007659431593 L 993.4555857941605,279.76776093908035 L 964.2479759869373,292.52544528384476 L 975.8798298314551,322.19938935320346 L 946.2058857620965,310.5675355086856 L 933.448201417332,339.77514531590884 L 920.6905170725676,310.5675355086856 L 891.0165730032089,322.19938935320346 L 902.6484268477268,292.5254452838448 L 873.4408170405036,279.76776093908035 L 902.6484268477268,267.0100765943159 L 891.0165730032089,237.33613252495724 L 920.6905170725676,248.96798636947514 Z" fill="none" stroke="#0F52BA" stroke-width="0.599326968239307" /><path d="M 1066.7979444769508,219.76037656225185 L 1079.5556288217151,248.96798636947514 L 1109.229572891074,237.33613252495724 L 1097.597719046556,267.01007659431593 L 1126.8053288537792,279.76776093908035 L 1097.597719046556,292.52544528384476 L 1109.229572891074,322.19938935320346 L 1079.5556288217151,310.5675355086856 L 1066.7979444769508,339.77514531590884 L 1054.0402601321864,310.5675355086856 L 1024.3663160628278,322.19938935320346 L 1035.9981699073455,292.5254452838448 L 1006.7905601001223,279.76776093908035 L 1035.9981699073455,267.0100765943159 L 1024.3663160628275,237.33613252495724 L 1054.0402601321864,248.96798636947514 Z" fill="none" stroke="#0F52BA" stroke-width="0.599326968239307" /><path d="M 1200.1476875365697,219.76037656225185 L 1212.905371881334,248.96798636947514 L 1242.579315950693,237.33613252495724 L 1230.947462106175,267.01007659431593 L 1260.1550719133982,279.76776093908035 L 1230.947462106175,292.52544528384476 L 1242.579315950693,322.19938935320346 L 1212.905371881334,310.5675355086856 L 1200.1476875365697,339.77514531590884 L 1187.3900031918054,310.5675355086856 L 1157.7160591224467,322.19938935320346 L 1169.3479129669645,292.5254452838448 L 1140.1403031597413,279.76776093908035 L 1169.3479129669645,267.0100765943159 L 1157.7160591224465,237.33613252495724 L 1187.3900031918054,248.96798636947514 Z" fill="none" stroke="#0F52BA" stroke-width="0.599326968239307" /><path d="M -66.67487152980942,335.24125405188175 L -53.91718718504498,364.448863859105 L -24.24324311568631,352.81701001458714 L -35.8750969602042,382.49095408394584 L -6.667487152980939,395.24863842871025 L -35.8750969602042,408.00632277347466 L -24.24324311568631,437.68026684283336 L -53.91718718504498,426.0484129983155 L -66.67487152980942,455.25602280553875 L -79.43255587457386,426.0484129983155 L -109.10649994393253,437.68026684283336 L -97.47464609941463,408.0063227734747 L -126.6822559066379,395.24863842871025 L -97.47464609941463,382.4909540839458 L -109.10649994393253,352.81701001458714 L -79.43255587457388,364.448863859105 Z" fill="none" stroke="#0F52BA" stroke-width="0.599326968239307" /><path d="M 66.67487152980942,335.24125405188175 L 79.43255587457386,364.448863859105 L 109.10649994393253,352.81701001458714 L 97.47464609941464,382.49095408394584 L 126.6822559066379,395.24863842871025 L 97.47464609941464,408.00632277347466 L 109.10649994393253,437.68026684283336 L 79.43255587457386,426.0484129983155 L 66.67487152980942,455.25602280553875 L 53.91718718504499,426.0484129983155 L 24.24324311568632,437.68026684283336 L 35.87509696020422,408.0063227734747 L 6.667487152980939,395.24863842871025 L 35.87509696020421,382.4909540839458 L 24.243243115686305,352.81701001458714 L 53.917187185044966,364.448863859105 Z" fill="none" stroke="#0F52BA" stroke-width="0.599326968239307" /><path d="M 200.02461458942827,335.24125405188175 L 212.7822989341927,364.448863859105 L 242.45624300355138,352.81701001458714 L 230.82438915903347,382.49095408394584 L 260.03199896625677,395.24863842871025 L 230.82438915903347,408.00632277347466 L 242.45624300355138,437.68026684283336 L 212.7822989341927,426.0484129983155 L 200.02461458942827,455.25602280553875 L 187.26693024466383,426.0484129983155 L 157.59298617530516,437.68026684283336 L 169.22484001982306,408.0063227734747 L 140.01723021259977,395.24863842871025 L 169.22484001982306,382.4909540839458 L 157.59298617530516,352.81701001458714 L 187.2669302446638,364.448863859105 Z" fill="none" stroke="#0F52BA" stroke-width="0.599326968239307" /><path d="M 333.3743576490471,335.24125405188175 L 346.1320419938115,364.448863859105 L 375.8059860631702,352.81701001458714 L 364.17413221865235,382.49095408394584 L 393.3817420258756,395.24863842871025 L 364.17413221865235,408.00632277347466 L 375.8059860631702,437.68026684283336 L 346.1320419938115,426.0484129983155 L 333.3743576490471,455.25602280553875 L 320.6166733042827,426.0484129983155 L 290.942729234924,437.68026684283336 L 302.5745830794419,408.0063227734747 L 273.3669732722186,395.24863842871025 L 302.5745830794419,382.4909540839458 L 290.942729234924,352.81701001458714 L 320.61667330428264,364.448863859105 Z" fill="none" stroke="#0F52BA" stroke-width="0.599326968239307" /><path d="M 466.72410070866596,335.24125405188175 L 479.4817850534304,364.448863859105 L 509.15572912278907,352.81701001458714 L 497.5238752782712,382.49095408394584 L 526.7314850854945,395.24863842871025 L 497.5238752782712,408.00632277347466 L 509.15572912278907,437.68026684283336 L 479.4817850534304,426.0484129983155 L 466.72410070866596,455.25602280553875 L 453.96641636390154,426.0484129983155 L 424.29247229454285,437.68026684283336 L 435.9243261390607,408.0063227734747 L 406.71671633183746,395.24863842871025 L 435.9243261390607,382.4909540839458 L 424.29247229454285,352.81701001458714 L 453.9664163639015,364.448863859105 Z" fill="none" stroke="#0F52BA" stroke-width="0.599326968239307" /><path d="M 600.0738437682849,335.24125405188175 L 612.8315281130493,364.448863859105 L 642.505472182408,352.81701001458714 L 630.8736183378901,382.49095408394584 L 660.0812281451133,395.24863842871025 L 630.8736183378901,408.00632277347466 L 642.505472182408,437.68026684283336 L 612.8315281130493,426.0484129983155 L 600.0738437682849,455.25602280553875 L 587.3161594235204,426.0484129983155 L 557.6422153541617,437.68026684283336 L 569.2740691986796,408.0063227734747 L 540.0664593914564,395.24863842871025 L 569.2740691986796,382.4909540839458 L 557.6422153541617,352.81701001458714 L 587.3161594235204,364.448863859105 Z" fill="none" stroke="#0F52BA" stroke-width="0.599326968239307" /><path d="M 733.4235868279036,335.24125405188175 L 746.1812711726681,364.448863859105 L 775.8552152420267,352.81701001458714 L 764.2233613975088,382.49095408394584 L 793.430971204732,395.24863842871025 L 764.2233613975088,408.00632277347466 L 775.8552152420267,437.68026684283336 L 746.1812711726681,426.0484129983155 L 733.4235868279036,455.25602280553875 L 720.6659024831391,426.0484129983155 L 690.9919584137805,437.68026684283336 L 702.6238122582984,408.0063227734747 L 673.4162024510752,395.24863842871025 L 702.6238122582984,382.4909540839458 L 690.9919584137805,352.81701001458714 L 720.6659024831391,364.448863859105 Z" fill="none" stroke="#0F52BA" stroke-width="0.599326968239307" /><path d="M 866.7733298875226,335.24125405188175 L 879.531014232287,364.448863859105 L 909.2049583016457,352.81701001458714 L 897.5731044571278,382.49095408394584 L 926.780714264351,395.24863842871025 L 897.5731044571278,408.00632277347466 L 909.2049583016457,437.68026684283336 L 879.531014232287,426.0484129983155 L 866.7733298875226,455.25602280553875 L 854.0156455427581,426.0484129983155 L 824.3417014733994,437.68026684283336 L 835.9735553179173,408.0063227734747 L 806.7659455106941,395.24863842871025 L 835.9735553179173,382.4909540839458 L 824.3417014733994,352.81701001458714 L 854.0156455427581,364.448863859105 Z" fill="none" stroke="#0F52BA" stroke-width="0.599326968239307" /><path d="M 1000.1230729471413,335.24125405188175 L 1012.8807572919058,364.448863859105 L 1042.5547013612645,352.81701001458714 L 1030.9228475167465,382.49095408394584 L 1060.1304573239697,395.24863842871025 L 1030.9228475167465,408.00632277347466 L 1042.5547013612645,437.68026684283336 L 1012.8807572919058,426.0484129983155 L 1000.1230729471413,455.25602280553875 L 987.3653886023768,426.0484129983155 L 957.6914445330182,437.68026684283336 L 969.323298377536,408.0063227734747 L 940.1156885703128,395.24863842871025 L 969.323298377536,382.4909540839458 L 957.6914445330182,352.81701001458714 L 987.3653886023768,364.448863859105 Z" fill="none" stroke="#0F52BA" stroke-width="0.599326968239307" /><path d="M 1133.4728160067602,335.24125405188175 L 1146.2305003515246,364.448863859105 L 1175.9044444208835,352.81701001458714 L 1164.2725905763655,382.49095408394584 L 1193.4802003835887,395.24863842871025 L 1164.2725905763655,408.00632277347466 L 1175.9044444208835,437.68026684283336 L 1146.2305003515246,426.0484129983155 L 1133.4728160067602,455.25602280553875 L 1120.7151316619959,426.0484129983155 L 1091.0411875926372,437.68026684283336 L 1102.673041437155,408.0063227734747 L 1073.4654316299318,395.24863842871025 L 1102.673041437155,382.4909540839458 L 1091.041187592637,352.81701001458714 L 1120.7151316619959,364.448863859105 Z" fill="none" stroke="#0F52BA" stroke-width="0.599326968239307" /><path d="M 1266.822559066379,335.24125405188175 L 1279.5802434111433,364.448863859105 L 1309.254187480502,352.81701001458714 L 1297.6223336359842,382.49095408394584 L 1326.8299434432074,395.24863842871025 L 1297.6223336359842,408.00632277347466 L 1309.254187480502,437.68026684283336 L 1279.5802434111433,426.0484129983155 L 1266.822559066379,455.25602280553875 L 1254.0648747216146,426.0484129983155 L 1224.390930652256,437.68026684283336 L 1236.0227844967737,408.0063227734747 L 1206.8151746895505,395.24863842871025 L 1236.0227844967737,382.4909540839458 L 1224.3909306522557,352.81701001458714 L 1254.0648747216146,364.448863859105 Z" fill="none" stroke="#0F52BA" stroke-width="0.599326968239307" /><path d="M 3.674392560114395e-15,450.72213154151166 L 12.757684344764439,479.9297413487349 L 42.43162841412311,468.29788750421704 L 30.799774569605216,497.97183157357574 L 60.00738437682848,510.72951591834016 L 30.799774569605216,523.4872002631046 L 42.43162841412311,553.1611443324632 L 12.757684344764439,541.5292904879453 L 3.674392560114395e-15,570.7369002951687 L -12.757684344764435,541.5292904879453 L -42.431628414123104,553.1611443324632 L -30.79977456960521,523.4872002631046 L -60.00738437682848,510.72951591834016 L -30.799774569605212,497.9718315735757 L -42.43162841412312,468.29788750421704 L -12.757684344764456,479.9297413487349 Z" fill="none" stroke="#0F52BA" stroke-width="0.599326968239307" /><path d="M 133.34974305961885,450.72213154151166 L 146.1074274043833,479.9297413487349 L 175.78137147374196,468.29788750421704 L 164.14951762922405,497.97183157357574 L 193.35712743644734,510.72951591834016 L 164.14951762922405,523.4872002631046 L 175.78137147374196,553.1611443324632 L 146.1074274043833,541.5292904879453 L 133.34974305961885,570.7369002951687 L 120.5920587148544,541.5292904879453 L 90.91811464549573,553.1611443324632 L 102.54996849001364,523.4872002631046 L 73.34235868279036,510.72951591834016 L 102.54996849001364,497.9718315735757 L 90.91811464549573,468.29788750421704 L 120.59205871485439,479.9297413487349 Z" fill="none" stroke="#0F52BA" stroke-width="0.599326968239307" /><path d="M 266.6994861192377,450.72213154151166 L 279.4571704640021,479.9297413487349 L 309.1311145333608,468.29788750421704 L 297.4992606888429,497.97183157357574 L 326.7068704960662,510.72951591834016 L 297.4992606888429,523.4872002631046 L 309.1311145333608,553.1611443324632 L 279.4571704640021,541.5292904879453 L 266.6994861192377,570.7369002951687 L 253.94180177447325,541.5292904879453 L 224.26785770511458,553.1611443324632 L 235.89971154963249,523.4872002631046 L 206.6921017424092,510.72951591834016 L 235.89971154963249,497.9718315735757 L 224.26785770511458,468.29788750421704 L 253.94180177447322,479.9297413487349 Z" fill="none" stroke="#0F52BA" stroke-width="0.599326968239307" /><path d="M 400.04922917885654,450.72213154151166 L 412.80691352362095,479.9297413487349 L 442.48085759297965,468.29788750421704 L 430.84900374846177,497.97183157357574 L 460.05661355568503,510.72951591834016 L 430.84900374846177,523.4872002631046 L 442.48085759297965,553.1611443324632 L 412.80691352362095,541.5292904879453 L 400.04922917885654,570.7369002951687 L 387.2915448340921,541.5292904879453 L 357.6176007647334,553.1611443324632 L 369.2494546092513,523.4872002631046 L 340.04184480202804,510.72951591834016 L 369.2494546092513,497.9718315735757 L 357.6176007647334,468.29788750421704 L 387.29154483409206,479.9297413487349 Z" fill="none" stroke="#0F52BA" stroke-width="0.599326968239307" /><path d="M 533.3989722384754,450.72213154151166 L 546.1566565832399,479.9297413487349 L 575.8306006525985,468.29788750421704 L 564.1987468080806,497.97183157357574 L 593.4063566153038,510.72951591834016 L 564.1987468080806,523.4872002631046 L 575.8306006525985,553.1611443324632 L 546.1566565832399,541.5292904879453 L 533.3989722384754,570.7369002951687 L 520.6412878937109,541.5292904879453 L 490.96734382435227,553.1611443324632 L 502.59919766887015,523.4872002631046 L 473.3915878616469,510.72951591834016 L 502.59919766887015,497.9718315735757 L 490.96734382435227,468.29788750421704 L 520.6412878937109,479.9297413487349 Z" fill="none" stroke="#0F52BA" stroke-width="0.599326968239307" /><path d="M 666.7487152980943,450.72213154151166 L 679.5063996428588,479.9297413487349 L 709.1803437122175,468.29788750421704 L 697.5484898676996,497.97183157357574 L 726.7560996749228,510.72951591834016 L 697.5484898676996,523.4872002631046 L 709.1803437122175,553.1611443324632 L 679.5063996428588,541.5292904879453 L 666.7487152980943,570.7369002951687 L 653.9910309533299,541.5292904879453 L 624.3170868839712,553.1611443324632 L 635.9489407284891,523.4872002631046 L 606.7413309212659,510.72951591834016 L 635.9489407284891,497.9718315735757 L 624.3170868839712,468.29788750421704 L 653.9910309533299,479.9297413487349 Z" fill="none" stroke="#0F52BA" stroke-width="0.599326968239307" /><path d="M 800.0984583577131,450.72213154151166 L 812.8561427024775,479.9297413487349 L 842.5300867718362,468.29788750421704 L 830.8982329273183,497.97183157357574 L 860.1058427345415,510.72951591834016 L 830.8982329273183,523.4872002631046 L 842.5300867718362,553.1611443324632 L 812.8561427024775,541.5292904879453 L 800.0984583577131,570.7369002951687 L 787.3407740129486,541.5292904879453 L 757.66682994359,553.1611443324632 L 769.2986837881078,523.4872002631046 L 740.0910739808846,510.72951591834016 L 769.2986837881078,497.9718315735757 L 757.66682994359,468.29788750421704 L 787.3407740129486,479.9297413487349 Z" fill="none" stroke="#0F52BA" stroke-width="0.599326968239307" /><path d="M 933.448201417332,450.72213154151166 L 946.2058857620965,479.9297413487349 L 975.8798298314551,468.29788750421704 L 964.2479759869373,497.97183157357574 L 993.4555857941605,510.72951591834016 L 964.2479759869373,523.4872002631046 L 975.8798298314551,553.1611443324632 L 946.2058857620965,541.5292904879453 L 933.448201417332,570.7369002951687 L 920.6905170725676,541.5292904879453 L 891.0165730032089,553.1611443324632 L 902.6484268477268,523.4872002631046 L 873.4408170405036,510.72951591834016 L 902.6484268477268,497.9718315735757 L 891.0165730032089,468.29788750421704 L 920.6905170725676,479.9297413487349 Z" fill="none" stroke="#0F52BA" stroke-width="0.599326968239307" /><path d="M 1066.7979444769508,450.72213154151166 L 1079.5556288217151,479.9297413487349 L 1109.229572891074,468.29788750421704 L 1097.597719046556,497.97183157357574 L 1126.8053288537792,510.72951591834016 L 1097.597719046556,523.4872002631046 L 1109.229572891074,553.1611443324632 L 1079.5556288217151,541.5292904879453 L 1066.7979444769508,570.7369002951687 L 1054.0402601321864,541.5292904879453 L 1024.3663160628278,553.1611443324632 L 1035.9981699073455,523.4872002631046 L 1006.7905601001223,510.72951591834016 L 1035.9981699073455,497.9718315735757 L 1024.3663160628275,468.29788750421704 L 1054.0402601321864,479.9297413487349 Z" fill="none" stroke="#0F52BA" stroke-width="0.599326968239307" /><path d="M 1200.1476875365697,450.72213154151166 L 1212.905371881334,479.9297413487349 L 1242.579315950693,468.29788750421704 L 1230.947462106175,497.97183157357574 L 1260.1550719133982,510.72951591834016 L 1230.947462106175,523.4872002631046 L 1242.579315950693,553.1611443324632 L 1212.905371881334,541.5292904879453 L 1200.1476875365697,570.7369002951687 L 1187.3900031918054,541.5292904879453 L 1157.7160591224467,553.1611443324632 L 1169.3479129669645,523.4872002631046 L 1140.1403031597413,510.72951591834016 L 1169.3479129669645,497.9718315735757 L 1157.7160591224465,468.29788750421704 L 1187.3900031918054,479.9297413487349 Z" fill="none" stroke="#0F52BA" stroke-width="0.599326968239307" /><path d="M -66.67487152980942,566.2030090311416 L -53.91718718504498,595.4106188383648 L -24.24324311568631,583.778764993847 L -35.8750969602042,613.4527090632056 L -6.667487152980939,626.2103934079701 L -35.8750969602042,638.9680777527345 L -24.24324311568631,668.6420218220932 L -53.91718718504498,657.0101679775753 L -66.67487152980942,686.2177777847985 L -79.43255587457386,657.0101679775753 L -109.10649994393253,668.6420218220932 L -97.47464609941463,638.9680777527345 L -126.6822559066379,626.2103934079701 L -97.47464609941463,613.4527090632056 L -109.10649994393253,583.778764993847 L -79.43255587457388,595.4106188383648 Z" fill="none" stroke="#0F52BA" stroke-width="0.599326968239307" /><path d="M 66.67487152980942,566.2030090311416 L 79.43255587457386,595.4106188383648 L 109.10649994393253,583.778764993847 L 97.47464609941464,613.4527090632056 L 126.6822559066379,626.2103934079701 L 97.47464609941464,638.9680777527345 L 109.10649994393253,668.6420218220932 L 79.43255587457386,657.0101679775753 L 66.67487152980942,686.2177777847985 L 53.91718718504499,657.0101679775753 L 24.24324311568632,668.6420218220932 L 35.87509696020422,638.9680777527345 L 6.667487152980939,626.2103934079701 L 35.87509696020421,613.4527090632056 L 24.243243115686305,583.778764993847 L 53.917187185044966,595.4106188383648 Z" fill="none" stroke="#0F52BA" stroke-width="0.599326968239307" /><path d="M 200.02461458942827,566.2030090311416 L 212.7822989341927,595.4106188383648 L 242.45624300355138,583.778764993847 L 230.82438915903347,613.4527090632056 L 260.03199896625677,626.2103934079701 L 230.82438915903347,638.9680777527345 L 242.45624300355138,668.6420218220932 L 212.7822989341927,657.0101679775753 L 200.02461458942827,686.2177777847985 L 187.26693024466383,657.0101679775753 L 157.59298617530516,668.6420218220932 L 169.22484001982306,638.9680777527345 L 140.01723021259977,626.2103934079701 L 169.22484001982306,613.4527090632056 L 157.59298617530516,583.778764993847 L 187.2669302446638,595.4106188383648 Z" fill="none" stroke="#0F52BA" stroke-width="0.599326968239307" /><path d="M 333.3743576490471,566.2030090311416 L 346.1320419938115,595.4106188383648 L 375.8059860631702,583.778764993847 L 364.17413221865235,613.4527090632056 L 393.3817420258756,626.2103934079701 L 364.17413221865235,638.9680777527345 L 375.8059860631702,668.6420218220932 L 346.1320419938115,657.0101679775753 L 333.3743576490471,686.2177777847985 L 320.6166733042827,657.0101679775753 L 290.942729234924,668.6420218220932 L 302.5745830794419,638.9680777527345 L 273.3669732722186,626.2103934079701 L 302.5745830794419,613.4527090632056 L 290.942729234924,583.778764993847 L 320.61667330428264,595.4106188383648 Z" fill="none" stroke="#0F52BA" stroke-width="0.599326968239307" /><path d="M 466.72410070866596,566.2030090311416 L 479.4817850534304,595.4106188383648 L 509.15572912278907,583.778764993847 L 497.5238752782712,613.4527090632056 L 526.7314850854945,626.2103934079701 L 497.5238752782712,638.9680777527345 L 509.15572912278907,668.6420218220932 L 479.4817850534304,657.0101679775753 L 466.72410070866596,686.2177777847985 L 453.96641636390154,657.0101679775753 L 424.29247229454285,668.6420218220932 L 435.9243261390607,638.9680777527345 L 406.71671633183746,626.2103934079701 L 435.9243261390607,613.4527090632056 L 424.29247229454285,583.778764993847 L 453.9664163639015,595.4106188383648 Z" fill="none" stroke="#0F52BA" stroke-width="0.599326968239307" /><path d="M 600.0738437682849,566.2030090311416 L 612.8315281130493,595.4106188383648 L 642.505472182408,583.778764993847 L 630.8736183378901,613.4527090632056 L 660.0812281451133,626.2103934079701 L 630.8736183378901,638.9680777527345 L 642.505472182408,668.6420218220932 L 612.8315281130493,657.0101679775753 L 600.0738437682849,686.2177777847985 L 587.3161594235204,657.0101679775753 L 557.6422153541617,668.6420218220932 L 569.2740691986796,638.9680777527345 L 540.0664593914564,626.2103934079701 L 569.2740691986796,613.4527090632056 L 557.6422153541617,583.778764993847 L 587.3161594235204,595.4106188383648 Z" fill="none" stroke="#0F52BA" stroke-width="0.599326968239307" /><path d="M 733.4235868279036,566.2030090311416 L 746.1812711726681,595.4106188383648 L 775.8552152420267,583.778764993847 L 764.2233613975088,613.4527090632056 L 793.430971204732,626.2103934079701 L 764.2233613975088,638.9680777527345 L 775.8552152420267,668.6420218220932 L 746.1812711726681,657.0101679775753 L 733.4235868279036,686.2177777847985 L 720.6659024831391,657.0101679775753 L 690.9919584137805,668.6420218220932 L 702.6238122582984,638.9680777527345 L 673.4162024510752,626.2103934079701 L 702.6238122582984,613.4527090632056 L 690.9919584137805,583.778764993847 L 720.6659024831391,595.4106188383648 Z" fill="none" stroke="#0F52BA" stroke-width="0.599326968239307" /><path d="M 866.7733298875226,566.2030090311416 L 879.531014232287,595.4106188383648 L 909.2049583016457,583.778764993847 L 897.5731044571278,613.4527090632056 L 926.780714264351,626.2103934079701 L 897.5731044571278,638.9680777527345 L 909.2049583016457,668.6420218220932 L 879.531014232287,657.0101679775753 L 866.7733298875226,686.2177777847985 L 854.0156455427581,657.0101679775753 L 824.3417014733994,668.6420218220932 L 835.9735553179173,638.9680777527345 L 806.7659455106941,626.2103934079701 L 835.9735553179173,613.4527090632056 L 824.3417014733994,583.778764993847 L 854.0156455427581,595.4106188383648 Z" fill="none" stroke="#0F52BA" stroke-width="0.599326968239307" /><path d="M 1000.1230729471413,566.2030090311416 L 1012.8807572919058,595.4106188383648 L 1042.5547013612645,583.778764993847 L 1030.9228475167465,613.4527090632056 L 1060.1304573239697,626.2103934079701 L 1030.9228475167465,638.9680777527345 L 1042.5547013612645,668.6420218220932 L 1012.8807572919058,657.0101679775753 L 1000.1230729471413,686.2177777847985 L 987.3653886023768,657.0101679775753 L 957.6914445330182,668.6420218220932 L 969.323298377536,638.9680777527345 L 940.1156885703128,626.2103934079701 L 969.323298377536,613.4527090632056 L 957.6914445330182,583.778764993847 L 987.3653886023768,595.4106188383648 Z" fill="none" stroke="#0F52BA" stroke-width="0.599326968239307" /><path d="M 1133.4728160067602,566.2030090311416 L 1146.2305003515246,595.4106188383648 L 1175.9044444208835,583.778764993847 L 1164.2725905763655,613.4527090632056 L 1193.4802003835887,626.2103934079701 L 1164.2725905763655,638.9680777527345 L 1175.9044444208835,668.6420218220932 L 1146.2305003515246,657.0101679775753 L 1133.4728160067602,686.2177777847985 L 1120.7151316619959,657.0101679775753 L 1091.0411875926372,668.6420218220932 L 1102.673041437155,638.9680777527345 L 1073.4654316299318,626.2103934079701 L 1102.673041437155,613.4527090632056 L 1091.041187592637,583.778764993847 L 1120.7151316619959,595.4106188383648 Z" fill="none" stroke="#0F52BA" stroke-width="0.599326968239307" /><path d="M 1266.822559066379,566.2030090311416 L 1279.5802434111433,595.4106188383648 L 1309.254187480502,583.778764993847 L 1297.6223336359842,613.4527090632056 L 1326.8299434432074,626.2103934079701 L 1297.6223336359842,638.9680777527345 L 1309.254187480502,668.6420218220932 L 1279.5802434111433,657.0101679775753 L 1266.822559066379,686.2177777847985 L 1254.0648747216146,657.0101679775753 L 1224.390930652256,668.6420218220932 L 1236.0227844967737,638.9680777527345 L 1206.8151746895505,626.2103934079701 L 1236.0227844967737,613.4527090632056 L 1224.3909306522557,583.778764993847 L 1254.0648747216146,595.4106188383648 Z" fill="none" stroke="#0F52BA" stroke-width="0.599326968239307" /><line x1="60.00738437682848" y1="48.806005959820496" x2="73.34235868279036" y2="48.806005959820496" stroke="#0F52BA" stroke-width="0.5"/><line x1="193.35712743644734" y1="48.806005959820496" x2="206.6921017424092" y2="48.806005959820496" stroke="#0F52BA" stroke-width="0.5"/><line x1="326.7068704960662" y1="48.806005959820496" x2="340.04184480202804" y2="48.806005959820496" stroke="#0F52BA" stroke-width="0.5"/><line x1="460.05661355568503" y1="48.806005959820496" x2="473.3915878616469" y2="48.806005959820496" stroke="#0F52BA" stroke-width="0.5"/><line x1="593.4063566153038" y1="48.806005959820496" x2="606.7413309212659" y2="48.806005959820496" stroke="#0F52BA" stroke-width="0.5"/><line x1="726.7560996749228" y1="48.806005959820496" x2="740.0910739808846" y2="48.806005959820496" stroke="#0F52BA" stroke-width="0.5"/><line x1="860.1058427345415" y1="48.806005959820496" x2="873.4408170405036" y2="48.806005959820496" stroke="#0F52BA" stroke-width="0.5"/><line x1="993.4555857941605" y1="48.806005959820496" x2="1006.7905601001223" y2="48.806005959820496" stroke="#0F52BA" stroke-width="0.5"/><line x1="1126.8053288537792" y1="48.806005959820496" x2="1140.1403031597413" y2="48.806005959820496" stroke="#0F52BA" stroke-width="0.5"/><line x1="126.6822559066379" y1="164.28688344945041" x2="140.01723021259977" y2="164.28688344945041" stroke="#0F52BA" stroke-width="0.5"/><line x1="260.03199896625677" y1="164.28688344945041" x2="273.3669732722186" y2="164.28688344945041" stroke="#0F52BA" stroke-width="0.5"/><line x1="393.3817420258756" y1="164.28688344945041" x2="406.71671633183746" y2="164.28688344945041" stroke="#0F52BA" stroke-width="0.5"/><line x1="526.7314850854945" y1="164.28688344945041" x2="540.0664593914564" y2="164.28688344945041" stroke="#0F52BA" stroke-width="0.5"/><line x1="660.0812281451133" y1="164.28688344945041" x2="673.4162024510752" y2="164.28688344945041" stroke="#0F52BA" stroke-width="0.5"/><line x1="793.430971204732" y1="164.28688344945041" x2="806.7659455106941" y2="164.28688344945041" stroke="#0F52BA" stroke-width="0.5"/><line x1="926.780714264351" y1="164.28688344945041" x2="940.1156885703128" y2="164.28688344945041" stroke="#0F52BA" stroke-width="0.5"/><line x1="1060.1304573239697" y1="164.28688344945041" x2="1073.4654316299318" y2="164.28688344945041" stroke="#0F52BA" stroke-width="0.5"/><line x1="60.00738437682848" y1="279.76776093908035" x2="73.34235868279036" y2="279.76776093908035" stroke="#0F52BA" stroke-width="0.5"/><line x1="193.35712743644734" y1="279.76776093908035" x2="206.6921017424092" y2="279.76776093908035" stroke="#0F52BA" stroke-width="0.5"/><line x1="326.7068704960662" y1="279.76776093908035" x2="340.04184480202804" y2="279.76776093908035" stroke="#0F52BA" stroke-width="0.5"/><line x1="460.05661355568503" y1="279.76776093908035" x2="473.3915878616469" y2="279.76776093908035" stroke="#0F52BA" stroke-width="0.5"/><line x1="593.4063566153038" y1="279.76776093908035" x2="606.7413309212659" y2="279.76776093908035" stroke="#0F52BA" stroke-width="0.5"/><line x1="726.7560996749228" y1="279.76776093908035" x2="740.0910739808846" y2="279.76776093908035" stroke="#0F52BA" stroke-width="0.5"/><line x1="860.1058427345415" y1="279.76776093908035" x2="873.4408170405036" y2="279.76776093908035" stroke="#0F52BA" stroke-width="0.5"/><line x1="993.4555857941605" y1="279.76776093908035" x2="1006.7905601001223" y2="279.76776093908035" stroke="#0F52BA" stroke-width="0.5"/><line x1="1126.8053288537792" y1="279.76776093908035" x2="1140.1403031597413" y2="279.76776093908035" stroke="#0F52BA" stroke-width="0.5"/><line x1="126.6822559066379" y1="395.24863842871025" x2="140.01723021259977" y2="395.24863842871025" stroke="#0F52BA" stroke-width="0.5"/><line x1="260.03199896625677" y1="395.24863842871025" x2="273.3669732722186" y2="395.24863842871025" stroke="#0F52BA" stroke-width="0.5"/><line x1="393.3817420258756" y1="395.24863842871025" x2="406.71671633183746" y2="395.24863842871025" stroke="#0F52BA" stroke-width="0.5"/><line x1="526.7314850854945" y1="395.24863842871025" x2="540.0664593914564" y2="395.24863842871025" stroke="#0F52BA" stroke-width="0.5"/><line x1="660.0812281451133" y1="395.24863842871025" x2="673.4162024510752" y2="395.24863842871025" stroke="#0F52BA" stroke-width="0.5"/><line x1="793.430971204732" y1="395.24863842871025" x2="806.7659455106941" y2="395.24863842871025" stroke="#0F52BA" stroke-width="0.5"/><line x1="926.780714264351" y1="395.24863842871025" x2="940.1156885703128" y2="395.24863842871025" stroke="#0F52BA" stroke-width="0.5"/><line x1="1060.1304573239697" y1="395.24863842871025" x2="1073.4654316299318" y2="395.24863842871025" stroke="#0F52BA" stroke-width="0.5"/><line x1="60.00738437682848" y1="510.72951591834016" x2="73.34235868279036" y2="510.72951591834016" stroke="#0F52BA" stroke-width="0.5"/><line x1="193.35712743644734" y1="510.72951591834016" x2="206.6921017424092" y2="510.72951591834016" stroke="#0F52BA" stroke-width="0.5"/><line x1="326.7068704960662" y1="510.72951591834016" x2="340.04184480202804" y2="510.72951591834016" stroke="#0F52BA" stroke-width="0.5"/><line x1="460.05661355568503" y1="510.72951591834016" x2="473.3915878616469" y2="510.72951591834016" stroke="#0F52BA" stroke-width="0.5"/><line x1="593.4063566153038" y1="510.72951591834016" x2="606.7413309212659" y2="510.72951591834016" stroke="#0F52BA" stroke-width="0.5"/><line x1="726.7560996749228" y1="510.72951591834016" x2="740.0910739808846" y2="510.72951591834016" stroke="#0F52BA" stroke-width="0.5"/><line x1="860.1058427345415" y1="510.72951591834016" x2="873.4408170405036" y2="510.72951591834016" stroke="#0F52BA" stroke-width="0.5"/><line x1="993.4555857941605" y1="510.72951591834016" x2="1006.7905601001223" y2="510.72951591834016" stroke="#0F52BA" stroke-width="0.5"/><line x1="1126.8053288537792" y1="510.72951591834016" x2="1140.1403031597413" y2="510.72951591834016" stroke="#0F52BA" stroke-width="0.5"/><line x1="126.6822559066379" y1="626.2103934079701" x2="140.01723021259977" y2="626.2103934079701" stroke="#0F52BA" stroke-width="0.5"/><line x1="260.03199896625677" y1="626.2103934079701" x2="273.3669732722186" y2="626.2103934079701" stroke="#0F52BA" stroke-width="0.5"/><line x1="393.3817420258756" y1="626.2103934079701" x2="406.71671633183746" y2="626.2103934079701" stroke="#0F52BA" stroke-width="0.5"/><line x1="526.7314850854945" y1="626.2103934079701" x2="540.0664593914564" y2="626.2103934079701" stroke="#0F52BA" stroke-width="0.5"/><line x1="660.0812281451133" y1="626.2103934079701" x2="673.4162024510752" y2="626.2103934079701" stroke="#0F52BA" stroke-width="0.5"/><line x1="793.430971204732" y1="626.2103934079701" x2="806.7659455106941" y2="626.2103934079701" stroke="#0F52BA" stroke-width="0.5"/><line x1="926.780714264351" y1="626.2103934079701" x2="940.1156885703128" y2="626.2103934079701" stroke="#0F52BA" stroke-width="0.5"/><line x1="1060.1304573239697" y1="626.2103934079701" x2="1073.4654316299318" y2="626.2103934079701" stroke="#0F52BA" stroke-width="0.5"/></g><g opacity="0.12568888667770145"><path d="M 220.64967165731343 401.47416938164935 L 257.6049673231112 401.47416938164935 L 257.6049673231112 361.59565792644486" fill="none" stroke="#FFFFFF" stroke-width="1.9706375605755662" stroke-linecap="square"/><path d="M 273.00810826616737 283.5231052169218 L 273.00810826616737 241.5846255193283 L 238.38700839994752 241.5846255193283 L 238.38700839994752 193.60805379934487" fill="none" stroke="#FFFFFF" stroke-width="1.9706375605755662" stroke-linecap="square"/><path d="M 806.2220696388846 151.03147752165398 L 747.6722115750339 151.03147752165398 L 747.6722115750339 92.5838096971153" fill="none" stroke="#FFFFFF" stroke-width="1.9706375605755662" stroke-linecap="square"/><path d="M 746.839177956264 238.47504269260682 L 746.839177956264 282.69081721841746 L 700.3100717317935 282.69081721841746" fill="none" stroke="#FFFFFF" stroke-width="1.9706375605755662" stroke-linecap="square"/><path d="M 80.17859462656946 552.2477471419833 L 80.17859462656946 489.3833049351015 L 146.35343439123938 489.3833049351015" fill="none" stroke="#FFFFFF" stroke-width="1.9706375605755662" stroke-linecap="square"/><path d="M 179.74476822640037 343.5951243450843 L 235.638924949235 343.5951243450843 L 235.638924949235 272.5807318296946" fill="none" stroke="#FFFFFF" stroke-width="1.9706375605755662" stroke-linecap="square"/><path d="M 816.2369731889279 539.2852237351635 L 816.2369731889279 506.98663828426754 L 878.305692649169 506.98663828426754 L 878.305692649169 459.3616717307603" fill="none" stroke="#FFFFFF" stroke-width="1.9706375605755662" stroke-linecap="square"/><line x1="1092.2334199269458" y1="98.69241826361625" x2="1092.2334199269458" y2="277.4971015553443" stroke="#FFFFFF" stroke-width="0.5" stroke-dasharray="5,10"/><rect x="250.4194998390834" y="394.28870189762154" width="14.370934968055662" height="14.370934968055662" fill="#FFFFFF"/><circle cx="747.6722115750339" cy="92.5838096971153" r="7.185467484027831" fill="#FFFFFF"/><circle cx="806.2220696388846" cy="151.03147752165398" r="5.748373987222266" fill="#FFFFFF"/><rect x="72.99312714254164" y="482.19783745107367" width="14.370934968055662" height="14.370934968055662" fill="#FFFFFF"/><rect x="228.45345746520715" y="336.4096568610565" width="14.370934968055662" height="14.370934968055662" fill="#FFFFFF"/><rect x="871.1202251651412" y="499.80117080023973" width="14.370934968055662" height="14.370934968055662" fill="#FFFFFF"/><circle cx="949.2728237757798" cy="531.8149926754716" r="10.156642523906983" fill="#FFFFFF"/><circle cx="749.1705897958813" cy="294.22637714735527" r="9.786561235451869" fill="#FFFFFF"/><circle cx="1023.6044888494557" cy="299.15546192748263" r="5.2740035583255205" fill="#FFFFFF"/></g><g opacity="0.2"><rect x="40" y="40" width="1120" height="550" fill="none" stroke="#4B5563" stroke-width="2" rx="8"/></g><g opacity="0.7175706625997884"><line x1="50" y1="50" x2="70" y2="50" stroke="#3B82F6" stroke-width="3"/><line x1="50" y1="50" x2="50" y2="70" stroke="#3B82F6" stroke-width="3"/><line x1="1150" y1="580" x2="1130" y2="580" stroke="#3B82F6" stroke-width="3"/><line x1="1150" y1="580" x2="1150" y2="560" stroke="#3B82F6" stroke-width="3"/></g></svg>