<svg xmlns="http://www.w3.org/2000/svg" width="1200" height="630" viewBox="0 0 1200 630"><rect x="0" y="0" width="1200" height="630" fill="#000000"/><g opacity="0.05"><line x1="0" y1="0" x2="0" y2="630" stroke="#666666" stroke-width="0.5"/><line x1="60" y1="0" x2="60" y2="630" stroke="#666666" stroke-width="0.5"/><line x1="120" y1="0" x2="120" y2="630" stroke="#666666" stroke-width="0.5"/><line x1="180" y1="0" x2="180" y2="630" stroke="#666666" stroke-width="0.5"/><line x1="240" y1="0" x2="240" y2="630" stroke="#666666" stroke-width="0.5"/><line x1="300" y1="0" x2="300" y2="630" stroke="#666666" stroke-width="0.5"/><line x1="360" y1="0" x2="360" y2="630" stroke="#666666" stroke-width="0.5"/><line x1="420" y1="0" x2="420" y2="630" stroke="#666666" stroke-width="0.5"/><line x1="480" y1="0" x2="480" y2="630" stroke="#666666" stroke-width="0.5"/><line x1="540" y1="0" x2="540" y2="630" stroke="#666666" stroke-width="0.5"/><line x1="600" y1="0" x2="600" y2="630" stroke="#666666" stroke-width="0.5"/><line x1="660" y1="0" x2="660" y2="630" stroke="#666666" stroke-width="0.5"/><line x1="720" y1="0" x2="720" y2="630" stroke="#666666" stroke-width="0.5"/><line x1="780" y1="0" x2="780" y2="630" stroke="#666666" stroke-width="0.5"/><line x1="840" y1="0" x2="840" y2="630" stroke="#666666" stroke-width="0.5"/><line x1="900" y1="0" x2="900" y2="630" stroke="#666666" stroke-width="0.5"/><line x1="960" y1="0" x2="960" y2="630" stroke="#666666" stroke-width="0.5"/><line x1="1020" y1="0" x2="1020" y2="630" stroke="#666666" stroke-width="0.5"/><line x1="1080" y1="0" x2="1080" y2="630" stroke="#666666" stroke-width="0.5"/><line x1="1140" y1="0" x2="1140" y2="630" stroke="#666666" stroke-width="0.5"/><line x1="1200" y1="0" x2="1200" y2="630" stroke="#666666" stroke-width="0.5"/><line x1="0" y1="0" x2="1200" y2="0" stroke="#666666" stroke-width="0.5"/><line x1="0" y1="60" x2="1200" y2="60" stroke="#666666" stroke-width="0.5"/><line x1="0" y1="120" x2="1200" y2="120" stroke="#666666" stroke-width="0.5"/><line x1="0" y1="180" x2="1200" y2="180" stroke="#666666" stroke-width="0.5"/><line x1="0" y1="240" x2="1200" y2="240" stroke="#666666" stroke-width="0.5"/><line x1="0" y1="300" x2="1200" y2="300" stroke="#666666" stroke-width="0.5"/><line x1="0" y1="360" x2="1200" y2="360" stroke="#666666" stroke-width="0.5"/><line x1="0" y1="420" x2="1200" y2="420" stroke="#666666" stroke-width="0.5"/><line x1="0" y1="480" x2="1200" y2="480" stroke="#666666" stroke-width="0.5"/><line x1="0" y1="540" x2="1200" y2="540" stroke="#666666" stroke-width="0.5"/><line x1="0" y1="600" x2="1200" y2="600" stroke="#666666" stroke-width="0.5"/><line x1="0" y1="660" x2="1200" y2="660" stroke="#666666" stroke-width="0.5"/></g><g opacity="0.16847673287544246"><path d="M -59.094208316845,-112.2789958020055 L -47.78702108105106,-86.39217309379067 L -21.48688443012258,-96.70153220356741 L -31.796243539899322,-70.40139555263895 L -5.9094208316845,-59.094208316845 L -31.796243539899322,-47.78702108105106 L -21.48688443012258,-21.486884430122586 L -47.78702108105106,-31.796243539899322 L -59.094208316845,-5.9094208316845 L -70.40139555263893,-31.796243539899322 L -96.70153220356741,-21.48688443012258 L -86.39217309379066,-47.787021081051044 L -112.2789958020055,-59.09420831684499 L -86.39217309379067,-70.40139555263895 L -96.70153220356742,-96.70153220356741 L -70.40139555263896,-86.39217309379066 Z" fill="none" stroke="#00A86B" stroke-width="1.333673477561061" /><path d="M 59.094208316845,-112.2789958020055 L 70.40139555263895,-86.39217309379067 L 96.70153220356741,-96.70153220356741 L 86.39217309379067,-70.40139555263895 L 112.2789958020055,-59.094208316845 L 86.39217309379067,-47.78702108105106 L 96.70153220356741,-21.486884430122586 L 70.40139555263895,-31.796243539899322 L 59.094208316845,-5.9094208316845 L 47.78702108105106,-31.796243539899322 L 21.486884430122586,-21.48688443012258 L 31.79624353989933,-47.787021081051044 L 5.9094208316845,-59.09420831684499 L 31.796243539899326,-70.40139555263895 L 21.486884430122572,-96.70153220356741 L 47.787021081051044,-86.39217309379066 Z" fill="none" stroke="#00A86B" stroke-width="1.333673477561061" /><path d="M 177.282624950535,-112.2789958020055 L 188.58981218632894,-86.39217309379067 L 214.8899488372574,-96.70153220356741 L 204.58058972748069,-70.40139555263895 L 230.4674124356955,-59.094208316845 L 204.58058972748069,-47.78702108105106 L 214.8899488372574,-21.486884430122586 L 188.58981218632894,-31.796243539899322 L 177.282624950535,-5.9094208316845 L 165.97543771474105,-31.796243539899322 L 139.67530106381258,-21.48688443012258 L 149.98466017358933,-47.787021081051044 L 124.0978374653745,-59.09420831684499 L 149.98466017358933,-70.40139555263895 L 139.67530106381258,-96.70153220356741 L 165.97543771474105,-86.39217309379066 Z" fill="none" stroke="#00A86B" stroke-width="1.333673477561061" /><path d="M 295.47104158422496,-112.2789958020055 L 306.7782288200189,-86.39217309379067 L 333.0783654709474,-96.70153220356741 L 322.7690063611706,-70.40139555263895 L 348.65582906938545,-59.094208316845 L 322.7690063611706,-47.78702108105106 L 333.0783654709474,-21.486884430122586 L 306.7782288200189,-31.796243539899322 L 295.47104158422496,-5.9094208316845 L 284.163854348431,-31.796243539899322 L 257.8637176975026,-21.48688443012258 L 268.1730768072793,-47.787021081051044 L 242.28625409906448,-59.09420831684499 L 268.1730768072793,-70.40139555263895 L 257.8637176975025,-96.70153220356741 L 284.163854348431,-86.39217309379066 Z" fill="none" stroke="#00A86B" stroke-width="1.333673477561061" /><path d="M 413.659458217915,-112.2789958020055 L 424.96664545370896,-86.39217309379067 L 451.26678210463746,-96.70153220356741 L 440.9574229948607,-70.40139555263895 L 466.8442457030755,-59.094208316845 L 440.9574229948607,-47.78702108105106 L 451.26678210463746,-21.486884430122586 L 424.96664545370896,-31.796243539899322 L 413.659458217915,-5.9094208316845 L 402.35227098212107,-31.796243539899322 L 376.05213433119263,-21.48688443012258 L 386.36149344096935,-47.787021081051044 L 360.47467073275453,-59.09420831684499 L 386.36149344096935,-70.40139555263895 L 376.0521343311926,-96.70153220356741 L 402.35227098212107,-86.39217309379066 Z" fill="none" stroke="#00A86B" stroke-width="1.333673477561061" /><path d="M 531.847874851605,-112.2789958020055 L 543.1550620873988,-86.39217309379067 L 569.4551987383273,-96.70153220356741 L 559.1458396285507,-70.40139555263895 L 585.0326623367655,-59.094208316845 L 559.1458396285507,-47.78702108105106 L 569.4551987383273,-21.486884430122586 L 543.1550620873988,-31.796243539899322 L 531.847874851605,-5.9094208316845 L 520.5406876158111,-31.796243539899322 L 494.2405509648826,-21.48688443012258 L 504.5499100746593,-47.787021081051044 L 478.6630873664445,-59.09420831684499 L 504.5499100746593,-70.40139555263895 L 494.2405509648825,-96.70153220356741 L 520.540687615811,-86.39217309379066 Z" fill="none" stroke="#00A86B" stroke-width="1.333673477561061" /><path d="M 650.036291485295,-112.2789958020055 L 661.3434787210889,-86.39217309379067 L 687.6436153720174,-96.70153220356741 L 677.3342562622407,-70.40139555263895 L 703.2210789704556,-59.094208316845 L 677.3342562622407,-47.78702108105106 L 687.6436153720174,-21.486884430122586 L 661.3434787210889,-31.796243539899322 L 650.036291485295,-5.9094208316845 L 638.7291042495011,-31.796243539899322 L 612.4289675985726,-21.48688443012258 L 622.7383267083493,-47.787021081051044 L 596.8515040001345,-59.09420831684499 L 622.7383267083493,-70.40139555263895 L 612.4289675985726,-96.70153220356741 L 638.729104249501,-86.39217309379066 Z" fill="none" stroke="#00A86B" stroke-width="1.333673477561061" /><path d="M 768.2247081189851,-112.2789958020055 L 779.531895354779,-86.39217309379067 L 805.8320320057074,-96.70153220356741 L 795.5226728959308,-70.40139555263895 L 821.4094956041456,-59.094208316845 L 795.5226728959308,-47.78702108105106 L 805.8320320057074,-21.486884430122586 L 779.531895354779,-31.796243539899322 L 768.2247081189851,-5.9094208316845 L 756.9175208831912,-31.796243539899322 L 730.6173842322627,-21.48688443012258 L 740.9267433420393,-47.787021081051044 L 715.0399206338245,-59.09420831684499 L 740.9267433420393,-70.40139555263895 L 730.6173842322627,-96.70153220356741 L 756.9175208831911,-86.39217309379066 Z" fill="none" stroke="#00A86B" stroke-width="1.333673477561061" /><path d="M 886.413124752675,-112.2789958020055 L 897.7203119884689,-86.39217309379067 L 924.0204486393974,-96.70153220356741 L 913.7110895296207,-70.40139555263895 L 939.5979122378355,-59.094208316845 L 913.7110895296207,-47.78702108105106 L 924.0204486393974,-21.486884430122586 L 897.7203119884689,-31.796243539899322 L 886.413124752675,-5.9094208316845 L 875.1059375168811,-31.796243539899322 L 848.8058008659526,-21.48688443012258 L 859.1151599757293,-47.787021081051044 L 833.2283372675145,-59.09420831684499 L 859.1151599757293,-70.40139555263895 L 848.8058008659526,-96.70153220356741 L 875.105937516881,-86.39217309379066 Z" fill="none" stroke="#00A86B" stroke-width="1.333673477561061" /><path d="M 1004.6015413863649,-112.2789958020055 L 1015.9087286221588,-86.39217309379067 L 1042.2088652730874,-96.70153220356741 L 1031.8995061633107,-70.40139555263895 L 1057.7863288715255,-59.094208316845 L 1031.8995061633107,-47.78702108105106 L 1042.2088652730874,-21.486884430122586 L 1015.9087286221588,-31.796243539899322 L 1004.6015413863649,-5.9094208316845 L 993.294354150571,-31.796243539899322 L 966.9942174996426,-21.48688443012258 L 977.3035766094192,-47.787021081051044 L 951.4167539012044,-59.09420831684499 L 977.3035766094192,-70.40139555263895 L 966.9942174996426,-96.70153220356741 L 993.2943541505709,-86.39217309379066 Z" fill="none" stroke="#00A86B" stroke-width="1.333673477561061" /><path d="M 1122.7899580200549,-112.2789958020055 L 1134.0971452558488,-86.39217309379067 L 1160.3972819067774,-96.70153220356741 L 1150.0879227970006,-70.40139555263895 L 1175.9747455052154,-59.094208316845 L 1150.0879227970006,-47.78702108105106 L 1160.3972819067774,-21.486884430122586 L 1134.0971452558488,-31.796243539899322 L 1122.7899580200549,-5.9094208316845 L 1111.482770784261,-31.796243539899322 L 1085.1826341333324,-21.48688443012258 L 1095.4919932431092,-47.787021081051044 L 1069.6051705348943,-59.09420831684499 L 1095.4919932431092,-70.40139555263895 L 1085.1826341333324,-96.70153220356741 L 1111.482770784261,-86.39217309379066 Z" fill="none" stroke="#00A86B" stroke-width="1.333673477561061" /><path d="M 1240.978374653745,-112.2789958020055 L 1252.285561889539,-86.39217309379067 L 1278.5856985404675,-96.70153220356741 L 1268.2763394306908,-70.40139555263895 L 1294.1631621389056,-59.094208316845 L 1268.2763394306908,-47.78702108105106 L 1278.5856985404675,-21.486884430122586 L 1252.285561889539,-31.796243539899322 L 1240.978374653745,-5.9094208316845 L 1229.6711874179512,-31.796243539899322 L 1203.3710507670226,-21.48688443012258 L 1213.6804098767993,-47.787021081051044 L 1187.7935871685845,-59.09420831684499 L 1213.6804098767993,-70.40139555263895 L 1203.3710507670226,-96.70153220356741 L 1229.6711874179512,-86.39217309379066 Z" fill="none" stroke="#00A86B" stroke-width="1.333673477561061" /><path d="M 3.2566289878517006e-15,-9.927826997229957 L 11.307187235793942,15.958995710984865 L 37.60732388672242,5.64963660120813 L 27.297964776945676,31.949773252136602 L 53.1847874851605,43.25696048793054 L 27.297964776945676,54.56414772372448 L 37.60732388672242,80.86428437465295 L 11.307187235793942,70.55492526487622 L 3.2566289878517006e-15,96.44174797309104 L -11.307187235793938,70.55492526487622 L -37.60732388672241,80.86428437465295 L -27.29796477694567,54.564147723724496 L -53.1847874851605,43.25696048793055 L -27.297964776945673,31.949773252136595 L -37.607323886722426,5.64963660120813 L -11.307187235793956,15.958995710984873 Z" fill="none" stroke="#00A86B" stroke-width="1.333673477561061" /><path d="M 118.18841663369,-9.927826997229957 L 129.49560386948394,15.958995710984865 L 155.7957405204124,5.64963660120813 L 145.48638141063566,31.949773252136602 L 171.37320411885048,43.25696048793054 L 145.48638141063566,54.56414772372448 L 155.7957405204124,80.86428437465295 L 129.49560386948394,70.55492526487622 L 118.18841663369,96.44174797309104 L 106.88122939789606,70.55492526487622 L 80.58109274696758,80.86428437465295 L 90.89045185674433,54.564147723724496 L 65.0036291485295,43.25696048793055 L 90.89045185674432,31.949773252136595 L 80.58109274696757,5.64963660120813 L 106.88122939789604,15.958995710984873 Z" fill="none" stroke="#00A86B" stroke-width="1.333673477561061" /><path d="M 236.37683326738,-9.927826997229957 L 247.68402050317394,15.958995710984865 L 273.98415715410243,5.64963660120813 L 263.67479804432566,31.949773252136602 L 289.5616207525405,43.25696048793054 L 263.67479804432566,54.56414772372448 L 273.98415715410243,80.86428437465295 L 247.68402050317394,70.55492526487622 L 236.37683326738,96.44174797309104 L 225.06964603158605,70.55492526487622 L 198.76950938065758,80.86428437465295 L 209.07886849043433,54.564147723724496 L 183.1920457822195,43.25696048793055 L 209.07886849043433,31.949773252136595 L 198.76950938065755,5.64963660120813 L 225.06964603158605,15.958995710984873 Z" fill="none" stroke="#00A86B" stroke-width="1.333673477561061" /><path d="M 354.56524990106993,-9.927826997229957 L 365.8724371368639,15.958995710984865 L 392.1725737877924,5.64963660120813 L 381.8632146780156,31.949773252136602 L 407.7500373862304,43.25696048793054 L 381.8632146780156,54.56414772372448 L 392.1725737877924,80.86428437465295 L 365.8724371368639,70.55492526487622 L 354.56524990106993,96.44174797309104 L 343.258062665276,70.55492526487622 L 316.95792601434755,80.86428437465295 L 327.26728512412427,54.564147723724496 L 301.38046241590945,43.25696048793055 L 327.26728512412427,31.949773252136595 L 316.9579260143475,5.64963660120813 L 343.258062665276,15.958995710984873 Z" fill="none" stroke="#00A86B" stroke-width="1.333673477561061" /><path d="M 472.75366653476,-9.927826997229957 L 484.06085377055393,15.958995710984865 L 510.3609904214824,5.64963660120813 L 500.05163131170565,31.949773252136602 L 525.9384540199205,43.25696048793054 L 500.05163131170565,54.56414772372448 L 510.3609904214824,80.86428437465295 L 484.06085377055393,70.55492526487622 L 472.75366653476,96.44174797309104 L 461.44647929896604,70.55492526487622 L 435.1463426480376,80.86428437465295 L 445.4557017578143,54.564147723724496 L 419.5688790495995,43.25696048793055 L 445.4557017578143,31.949773252136595 L 435.14634264803755,5.64963660120813 L 461.44647929896604,15.958995710984873 Z" fill="none" stroke="#00A86B" stroke-width="1.333673477561061" /><path d="M 590.9420831684499,-9.927826997229957 L 602.2492704042438,15.958995710984865 L 628.5494070551723,5.64963660120813 L 618.2400479453956,31.949773252136602 L 644.1268706536105,43.25696048793054 L 618.2400479453956,54.56414772372448 L 628.5494070551723,80.86428437465295 L 602.2492704042438,70.55492526487622 L 590.9420831684499,96.44174797309104 L 579.634895932656,70.55492526487622 L 553.3347592817275,80.86428437465295 L 563.6441183915042,54.564147723724496 L 537.7572956832894,43.25696048793055 L 563.6441183915042,31.949773252136595 L 553.3347592817275,5.64963660120813 L 579.6348959326559,15.958995710984873 Z" fill="none" stroke="#00A86B" stroke-width="1.333673477561061" /><path d="M 709.13049980214,-9.927826997229957 L 720.4376870379339,15.958995710984865 L 746.7378236888624,5.64963660120813 L 736.4284645790857,31.949773252136602 L 762.3152872873005,43.25696048793054 L 736.4284645790857,54.56414772372448 L 746.7378236888624,80.86428437465295 L 720.4376870379339,70.55492526487622 L 709.13049980214,96.44174797309104 L 697.8233125663461,70.55492526487622 L 671.5231759154176,80.86428437465295 L 681.8325350251943,54.564147723724496 L 655.9457123169794,43.25696048793055 L 681.8325350251943,31.949773252136595 L 671.5231759154176,5.64963660120813 L 697.823312566346,15.958995710984873 Z" fill="none" stroke="#00A86B" stroke-width="1.333673477561061" /><path d="M 827.31891643583,-9.927826997229957 L 838.6261036716239,15.958995710984865 L 864.9262403225524,5.64963660120813 L 854.6168812127758,31.949773252136602 L 880.5037039209906,43.25696048793054 L 854.6168812127758,54.56414772372448 L 864.9262403225524,80.86428437465295 L 838.6261036716239,70.55492526487622 L 827.31891643583,96.44174797309104 L 816.0117292000361,70.55492526487622 L 789.7115925491076,80.86428437465295 L 800.0209516588843,54.564147723724496 L 774.1341289506695,43.25696048793055 L 800.0209516588843,31.949773252136595 L 789.7115925491076,5.64963660120813 L 816.011729200036,15.958995710984873 Z" fill="none" stroke="#00A86B" stroke-width="1.333673477561061" /><path d="M 945.50733306952,-9.927826997229957 L 956.8145203053139,15.958995710984865 L 983.1146569562424,5.64963660120813 L 972.8052978464657,31.949773252136602 L 998.6921205546805,43.25696048793054 L 972.8052978464657,54.56414772372448 L 983.1146569562424,80.86428437465295 L 956.8145203053139,70.55492526487622 L 945.50733306952,96.44174797309104 L 934.2001458337261,70.55492526487622 L 907.9000091827976,80.86428437465295 L 918.2093682925743,54.564147723724496 L 892.3225455843594,43.25696048793055 L 918.2093682925743,31.949773252136595 L 907.9000091827976,5.64963660120813 L 934.200145833726,15.958995710984873 Z" fill="none" stroke="#00A86B" stroke-width="1.333673477561061" /><path d="M 1063.69574970321,-9.927826997229957 L 1075.0029369390038,15.958995710984865 L 1101.3030735899324,5.64963660120813 L 1090.9937144801556,31.949773252136602 L 1116.8805371883705,43.25696048793054 L 1090.9937144801556,54.56414772372448 L 1101.3030735899324,80.86428437465295 L 1075.0029369390038,70.55492526487622 L 1063.69574970321,96.44174797309104 L 1052.388562467416,70.55492526487622 L 1026.0884258164874,80.86428437465295 L 1036.3977849262642,54.564147723724496 L 1010.5109622180494,43.25696048793055 L 1036.3977849262642,31.949773252136595 L 1026.0884258164874,5.64963660120813 L 1052.388562467416,15.958995710984873 Z" fill="none" stroke="#00A86B" stroke-width="1.333673477561061" /><path d="M 1181.8841663368999,-9.927826997229957 L 1193.1913535726937,15.958995710984865 L 1219.4914902236223,5.64963660120813 L 1209.1821311138456,31.949773252136602 L 1235.0689538220604,43.25696048793054 L 1209.1821311138456,54.56414772372448 L 1219.4914902236223,80.86428437465295 L 1193.1913535726937,70.55492526487622 L 1181.8841663368999,96.44174797309104 L 1170.576979101106,70.55492526487622 L 1144.2768424501774,80.86428437465295 L 1154.5862015599541,54.564147723724496 L 1128.6993788517393,43.25696048793055 L 1154.5862015599541,31.949773252136595 L 1144.2768424501774,5.64963660120813 L 1170.576979101106,15.958995710984873 Z" fill="none" stroke="#00A86B" stroke-width="1.333673477561061" /><path d="M 1300.07258297059,-9.927826997229957 L 1311.379770206384,15.958995710984865 L 1337.6799068573125,5.64963660120813 L 1327.3705477475357,31.949773252136602 L 1353.2573704557506,43.25696048793054 L 1327.3705477475357,54.56414772372448 L 1337.6799068573125,80.86428437465295 L 1311.379770206384,70.55492526487622 L 1300.07258297059,96.44174797309104 L 1288.7653957347961,70.55492526487622 L 1262.4652590838675,80.86428437465295 L 1272.7746181936443,54.564147723724496 L 1246.8877954854295,43.25696048793055 L 1272.7746181936443,31.949773252136595 L 1262.4652590838675,5.64963660120813 L 1288.7653957347961,15.958995710984873 Z" fill="none" stroke="#00A86B" stroke-width="1.333673477561061" /><path d="M -59.094208316845,92.42334180754558 L -47.78702108105106,118.3101645157604 L -21.48688443012258,108.00080540598367 L -31.796243539899322,134.30094205691213 L -5.9094208316845,145.60812929270608 L -31.796243539899322,156.91531652850003 L -21.48688443012258,183.2154531794285 L -47.78702108105106,172.90609406965177 L -59.094208316845,198.7929167778666 L -70.40139555263893,172.90609406965177 L -96.70153220356741,183.2154531794285 L -86.39217309379066,156.91531652850003 L -112.2789958020055,145.60812929270608 L -86.39217309379067,134.30094205691213 L -96.70153220356742,108.00080540598367 L -70.40139555263896,118.31016451576042 Z" fill="none" stroke="#00A86B" stroke-width="1.333673477561061" /><path d="M 59.094208316845,92.42334180754558 L 70.40139555263895,118.3101645157604 L 96.70153220356741,108.00080540598367 L 86.39217309379067,134.30094205691213 L 112.2789958020055,145.60812929270608 L 86.39217309379067,156.91531652850003 L 96.70153220356741,183.2154531794285 L 70.40139555263895,172.90609406965177 L 59.094208316845,198.7929167778666 L 47.78702108105106,172.90609406965177 L 21.486884430122586,183.2154531794285 L 31.79624353989933,156.91531652850003 L 5.9094208316845,145.60812929270608 L 31.796243539899326,134.30094205691213 L 21.486884430122572,108.00080540598367 L 47.787021081051044,118.31016451576042 Z" fill="none" stroke="#00A86B" stroke-width="1.333673477561061" /><path d="M 177.282624950535,92.42334180754558 L 188.58981218632894,118.3101645157604 L 214.8899488372574,108.00080540598367 L 204.58058972748069,134.30094205691213 L 230.4674124356955,145.60812929270608 L 204.58058972748069,156.91531652850003 L 214.8899488372574,183.2154531794285 L 188.58981218632894,172.90609406965177 L 177.282624950535,198.7929167778666 L 165.97543771474105,172.90609406965177 L 139.67530106381258,183.2154531794285 L 149.98466017358933,156.91531652850003 L 124.0978374653745,145.60812929270608 L 149.98466017358933,134.30094205691213 L 139.67530106381258,108.00080540598367 L 165.97543771474105,118.31016451576042 Z" fill="none" stroke="#00A86B" stroke-width="1.333673477561061" /><path d="M 295.47104158422496,92.42334180754558 L 306.7782288200189,118.3101645157604 L 333.0783654709474,108.00080540598367 L 322.7690063611706,134.30094205691213 L 348.65582906938545,145.60812929270608 L 322.7690063611706,156.91531652850003 L 333.0783654709474,183.2154531794285 L 306.7782288200189,172.90609406965177 L 295.47104158422496,198.7929167778666 L 284.163854348431,172.90609406965177 L 257.8637176975026,183.2154531794285 L 268.1730768072793,156.91531652850003 L 242.28625409906448,145.60812929270608 L 268.1730768072793,134.30094205691213 L 257.8637176975025,108.00080540598367 L 284.163854348431,118.31016451576042 Z" fill="none" stroke="#00A86B" stroke-width="1.333673477561061" /><path d="M 413.659458217915,92.42334180754558 L 424.96664545370896,118.3101645157604 L 451.26678210463746,108.00080540598367 L 440.9574229948607,134.30094205691213 L 466.8442457030755,145.60812929270608 L 440.9574229948607,156.91531652850003 L 451.26678210463746,183.2154531794285 L 424.96664545370896,172.90609406965177 L 413.659458217915,198.7929167778666 L 402.35227098212107,172.90609406965177 L 376.05213433119263,183.2154531794285 L 386.36149344096935,156.91531652850003 L 360.47467073275453,145.60812929270608 L 386.36149344096935,134.30094205691213 L 376.0521343311926,108.00080540598367 L 402.35227098212107,118.31016451576042 Z" fill="none" stroke="#00A86B" stroke-width="1.333673477561061" /><path d="M 531.847874851605,92.42334180754558 L 543.1550620873988,118.3101645157604 L 569.4551987383273,108.00080540598367 L 559.1458396285507,134.30094205691213 L 585.0326623367655,145.60812929270608 L 559.1458396285507,156.91531652850003 L 569.4551987383273,183.2154531794285 L 543.1550620873988,172.90609406965177 L 531.847874851605,198.7929167778666 L 520.5406876158111,172.90609406965177 L 494.2405509648826,183.2154531794285 L 504.5499100746593,156.91531652850003 L 478.6630873664445,145.60812929270608 L 504.5499100746593,134.30094205691213 L 494.2405509648825,108.00080540598367 L 520.540687615811,118.31016451576042 Z" fill="none" stroke="#00A86B" stroke-width="1.333673477561061" /><path d="M 650.036291485295,92.42334180754558 L 661.3434787210889,118.3101645157604 L 687.6436153720174,108.00080540598367 L 677.3342562622407,134.30094205691213 L 703.2210789704556,145.60812929270608 L 677.3342562622407,156.91531652850003 L 687.6436153720174,183.2154531794285 L 661.3434787210889,172.90609406965177 L 650.036291485295,198.7929167778666 L 638.7291042495011,172.90609406965177 L 612.4289675985726,183.2154531794285 L 622.7383267083493,156.91531652850003 L 596.8515040001345,145.60812929270608 L 622.7383267083493,134.30094205691213 L 612.4289675985726,108.00080540598367 L 638.729104249501,118.31016451576042 Z" fill="none" stroke="#00A86B" stroke-width="1.333673477561061" /><path d="M 768.2247081189851,92.42334180754558 L 779.531895354779,118.3101645157604 L 805.8320320057074,108.00080540598367 L 795.5226728959308,134.30094205691213 L 821.4094956041456,145.60812929270608 L 795.5226728959308,156.91531652850003 L 805.8320320057074,183.2154531794285 L 779.531895354779,172.90609406965177 L 768.2247081189851,198.7929167778666 L 756.9175208831912,172.90609406965177 L 730.6173842322627,183.2154531794285 L 740.9267433420393,156.91531652850003 L 715.0399206338245,145.60812929270608 L 740.9267433420393,134.30094205691213 L 730.6173842322627,108.00080540598367 L 756.9175208831911,118.31016451576042 Z" fill="none" stroke="#00A86B" stroke-width="1.333673477561061" /><path d="M 886.413124752675,92.42334180754558 L 897.7203119884689,118.3101645157604 L 924.0204486393974,108.00080540598367 L 913.7110895296207,134.30094205691213 L 939.5979122378355,145.60812929270608 L 913.7110895296207,156.91531652850003 L 924.0204486393974,183.2154531794285 L 897.7203119884689,172.90609406965177 L 886.413124752675,198.7929167778666 L 875.1059375168811,172.90609406965177 L 848.8058008659526,183.2154531794285 L 859.1151599757293,156.91531652850003 L 833.2283372675145,145.60812929270608 L 859.1151599757293,134.30094205691213 L 848.8058008659526,108.00080540598367 L 875.105937516881,118.31016451576042 Z" fill="none" stroke="#00A86B" stroke-width="1.333673477561061" /><path d="M 1004.6015413863649,92.42334180754558 L 1015.9087286221588,118.3101645157604 L 1042.2088652730874,108.00080540598367 L 1031.8995061633107,134.30094205691213 L 1057.7863288715255,145.60812929270608 L 1031.8995061633107,156.91531652850003 L 1042.2088652730874,183.2154531794285 L 1015.9087286221588,172.90609406965177 L 1004.6015413863649,198.7929167778666 L 993.294354150571,172.90609406965177 L 966.9942174996426,183.2154531794285 L 977.3035766094192,156.91531652850003 L 951.4167539012044,145.60812929270608 L 977.3035766094192,134.30094205691213 L 966.9942174996426,108.00080540598367 L 993.2943541505709,118.31016451576042 Z" fill="none" stroke="#00A86B" stroke-width="1.333673477561061" /><path d="M 1122.7899580200549,92.42334180754558 L 1134.0971452558488,118.3101645157604 L 1160.3972819067774,108.00080540598367 L 1150.0879227970006,134.30094205691213 L 1175.9747455052154,145.60812929270608 L 1150.0879227970006,156.91531652850003 L 1160.3972819067774,183.2154531794285 L 1134.0971452558488,172.90609406965177 L 1122.7899580200549,198.7929167778666 L 1111.482770784261,172.90609406965177 L 1085.1826341333324,183.2154531794285 L 1095.4919932431092,156.91531652850003 L 1069.6051705348943,145.60812929270608 L 1095.4919932431092,134.30094205691213 L 1085.1826341333324,108.00080540598367 L 1111.482770784261,118.31016451576042 Z" fill="none" stroke="#00A86B" stroke-width="1.333673477561061" /><path d="M 1240.978374653745,92.42334180754558 L 1252.285561889539,118.3101645157604 L 1278.5856985404675,108.00080540598367 L 1268.2763394306908,134.30094205691213 L 1294.1631621389056,145.60812929270608 L 1268.2763394306908,156.91531652850003 L 1278.5856985404675,183.2154531794285 L 1252.285561889539,172.90609406965177 L 1240.978374653745,198.7929167778666 L 1229.6711874179512,172.90609406965177 L 1203.3710507670226,183.2154531794285 L 1213.6804098767993,156.91531652850003 L 1187.7935871685845,145.60812929270608 L 1213.6804098767993,134.30094205691213 L 1203.3710507670226,108.00080540598367 L 1229.6711874179512,118.31016451576042 Z" fill="none" stroke="#00A86B" stroke-width="1.333673477561061" /><path d="M 3.2566289878517006e-15,194.77451061232108 L 11.307187235793942,220.6613333205359 L 37.60732388672242,210.35197421075918 L 27.297964776945676,236.65211086168765 L 53.1847874851605,247.9592980974816 L 27.297964776945676,259.2664853332755 L 37.60732388672242,285.566621984204 L 11.307187235793942,275.2572628744273 L 3.2566289878517006e-15,301.1440855826421 L -11.307187235793938,275.2572628744273 L -37.60732388672241,285.566621984204 L -27.29796477694567,259.26648533327557 L -53.1847874851605,247.9592980974816 L -27.297964776945673,236.65211086168765 L -37.607323886722426,210.35197421075918 L -11.307187235793956,220.66133332053593 Z" fill="none" stroke="#00A86B" stroke-width="1.333673477561061" /><path d="M 118.18841663369,194.77451061232108 L 129.49560386948394,220.6613333205359 L 155.7957405204124,210.35197421075918 L 145.48638141063566,236.65211086168765 L 171.37320411885048,247.9592980974816 L 145.48638141063566,259.2664853332755 L 155.7957405204124,285.566621984204 L 129.49560386948394,275.2572628744273 L 118.18841663369,301.1440855826421 L 106.88122939789606,275.2572628744273 L 80.58109274696758,285.566621984204 L 90.89045185674433,259.26648533327557 L 65.0036291485295,247.9592980974816 L 90.89045185674432,236.65211086168765 L 80.58109274696757,210.35197421075918 L 106.88122939789604,220.66133332053593 Z" fill="none" stroke="#00A86B" stroke-width="1.333673477561061" /><path d="M 236.37683326738,194.77451061232108 L 247.68402050317394,220.6613333205359 L 273.98415715410243,210.35197421075918 L 263.67479804432566,236.65211086168765 L 289.5616207525405,247.9592980974816 L 263.67479804432566,259.2664853332755 L 273.98415715410243,285.566621984204 L 247.68402050317394,275.2572628744273 L 236.37683326738,301.1440855826421 L 225.06964603158605,275.2572628744273 L 198.76950938065758,285.566621984204 L 209.07886849043433,259.26648533327557 L 183.1920457822195,247.9592980974816 L 209.07886849043433,236.65211086168765 L 198.76950938065755,210.35197421075918 L 225.06964603158605,220.66133332053593 Z" fill="none" stroke="#00A86B" stroke-width="1.333673477561061" /><path d="M 354.56524990106993,194.77451061232108 L 365.8724371368639,220.6613333205359 L 392.1725737877924,210.35197421075918 L 381.8632146780156,236.65211086168765 L 407.7500373862304,247.9592980974816 L 381.8632146780156,259.2664853332755 L 392.1725737877924,285.566621984204 L 365.8724371368639,275.2572628744273 L 354.56524990106993,301.1440855826421 L 343.258062665276,275.2572628744273 L 316.95792601434755,285.566621984204 L 327.26728512412427,259.26648533327557 L 301.38046241590945,247.9592980974816 L 327.26728512412427,236.65211086168765 L 316.9579260143475,210.35197421075918 L 343.258062665276,220.66133332053593 Z" fill="none" stroke="#00A86B" stroke-width="1.333673477561061" /><path d="M 472.75366653476,194.77451061232108 L 484.06085377055393,220.6613333205359 L 510.3609904214824,210.35197421075918 L 500.05163131170565,236.65211086168765 L 525.9384540199205,247.9592980974816 L 500.05163131170565,259.2664853332755 L 510.3609904214824,285.566621984204 L 484.06085377055393,275.2572628744273 L 472.75366653476,301.1440855826421 L 461.44647929896604,275.2572628744273 L 435.1463426480376,285.566621984204 L 445.4557017578143,259.26648533327557 L 419.5688790495995,247.9592980974816 L 445.4557017578143,236.65211086168765 L 435.14634264803755,210.35197421075918 L 461.44647929896604,220.66133332053593 Z" fill="none" stroke="#00A86B" stroke-width="1.333673477561061" /><path d="M 590.9420831684499,194.77451061232108 L 602.2492704042438,220.6613333205359 L 628.5494070551723,210.35197421075918 L 618.2400479453956,236.65211086168765 L 644.1268706536105,247.9592980974816 L 618.2400479453956,259.2664853332755 L 628.5494070551723,285.566621984204 L 602.2492704042438,275.2572628744273 L 590.9420831684499,301.1440855826421 L 579.634895932656,275.2572628744273 L 553.3347592817275,285.566621984204 L 563.6441183915042,259.26648533327557 L 537.7572956832894,247.9592980974816 L 563.6441183915042,236.65211086168765 L 553.3347592817275,210.35197421075918 L 579.6348959326559,220.66133332053593 Z" fill="none" stroke="#00A86B" stroke-width="1.333673477561061" /><path d="M 709.13049980214,194.77451061232108 L 720.4376870379339,220.6613333205359 L 746.7378236888624,210.35197421075918 L 736.4284645790857,236.65211086168765 L 762.3152872873005,247.9592980974816 L 736.4284645790857,259.2664853332755 L 746.7378236888624,285.566621984204 L 720.4376870379339,275.2572628744273 L 709.13049980214,301.1440855826421 L 697.8233125663461,275.2572628744273 L 671.5231759154176,285.566621984204 L 681.8325350251943,259.26648533327557 L 655.9457123169794,247.9592980974816 L 681.8325350251943,236.65211086168765 L 671.5231759154176,210.35197421075918 L 697.823312566346,220.66133332053593 Z" fill="none" stroke="#00A86B" stroke-width="1.333673477561061" /><path d="M 827.31891643583,194.77451061232108 L 838.6261036716239,220.6613333205359 L 864.9262403225524,210.35197421075918 L 854.6168812127758,236.65211086168765 L 880.5037039209906,247.9592980974816 L 854.6168812127758,259.2664853332755 L 864.9262403225524,285.566621984204 L 838.6261036716239,275.2572628744273 L 827.31891643583,301.1440855826421 L 816.0117292000361,275.2572628744273 L 789.7115925491076,285.566621984204 L 800.0209516588843,259.26648533327557 L 774.1341289506695,247.9592980974816 L 800.0209516588843,236.65211086168765 L 789.7115925491076,210.35197421075918 L 816.011729200036,220.66133332053593 Z" fill="none" stroke="#00A86B" stroke-width="1.333673477561061" /><path d="M 945.50733306952,194.77451061232108 L 956.8145203053139,220.6613333205359 L 983.1146569562424,210.35197421075918 L 972.8052978464657,236.65211086168765 L 998.6921205546805,247.9592980974816 L 972.8052978464657,259.2664853332755 L 983.1146569562424,285.566621984204 L 956.8145203053139,275.2572628744273 L 945.50733306952,301.1440855826421 L 934.2001458337261,275.2572628744273 L 907.9000091827976,285.566621984204 L 918.2093682925743,259.26648533327557 L 892.3225455843594,247.9592980974816 L 918.2093682925743,236.65211086168765 L 907.9000091827976,210.35197421075918 L 934.200145833726,220.66133332053593 Z" fill="none" stroke="#00A86B" stroke-width="1.333673477561061" /><path d="M 1063.69574970321,194.77451061232108 L 1075.0029369390038,220.6613333205359 L 1101.3030735899324,210.35197421075918 L 1090.9937144801556,236.65211086168765 L 1116.8805371883705,247.9592980974816 L 1090.9937144801556,259.2664853332755 L 1101.3030735899324,285.566621984204 L 1075.0029369390038,275.2572628744273 L 1063.69574970321,301.1440855826421 L 1052.388562467416,275.2572628744273 L 1026.0884258164874,285.566621984204 L 1036.3977849262642,259.26648533327557 L 1010.5109622180494,247.9592980974816 L 1036.3977849262642,236.65211086168765 L 1026.0884258164874,210.35197421075918 L 1052.388562467416,220.66133332053593 Z" fill="none" stroke="#00A86B" stroke-width="1.333673477561061" /><path d="M 1181.8841663368999,194.77451061232108 L 1193.1913535726937,220.6613333205359 L 1219.4914902236223,210.35197421075918 L 1209.1821311138456,236.65211086168765 L 1235.0689538220604,247.9592980974816 L 1209.1821311138456,259.2664853332755 L 1219.4914902236223,285.566621984204 L 1193.1913535726937,275.2572628744273 L 1181.8841663368999,301.1440855826421 L 1170.576979101106,275.2572628744273 L 1144.2768424501774,285.566621984204 L 1154.5862015599541,259.26648533327557 L 1128.6993788517393,247.9592980974816 L 1154.5862015599541,236.65211086168765 L 1144.2768424501774,210.35197421075918 L 1170.576979101106,220.66133332053593 Z" fill="none" stroke="#00A86B" stroke-width="1.333673477561061" /><path d="M 1300.07258297059,194.77451061232108 L 1311.379770206384,220.6613333205359 L 1337.6799068573125,210.35197421075918 L 1327.3705477475357,236.65211086168765 L 1353.2573704557506,247.9592980974816 L 1327.3705477475357,259.2664853332755 L 1337.6799068573125,285.566621984204 L 1311.379770206384,275.2572628744273 L 1300.07258297059,301.1440855826421 L 1288.7653957347961,275.2572628744273 L 1262.4652590838675,285.566621984204 L 1272.7746181936443,259.26648533327557 L 1246.8877954854295,247.9592980974816 L 1272.7746181936443,236.65211086168765 L 1262.4652590838675,210.35197421075918 L 1288.7653957347961,220.66133332053593 Z" fill="none" stroke="#00A86B" stroke-width="1.333673477561061" /><path d="M -59.094208316845,297.1256794170967 L -47.78702108105106,323.0125021253115 L -21.48688443012258,312.7031430155348 L -31.796243539899322,339.00327966646324 L -5.9094208316845,350.3104669022572 L -31.796243539899322,361.61765413805114 L -21.48688443012258,387.9177907889796 L -47.78702108105106,377.60843167920285 L -59.094208316845,403.4952543874177 L -70.40139555263893,377.60843167920285 L -96.70153220356741,387.91779078897963 L -86.39217309379066,361.61765413805114 L -112.2789958020055,350.3104669022572 L -86.39217309379067,339.00327966646324 L -96.70153220356742,312.7031430155348 L -70.40139555263896,323.0125021253115 Z" fill="none" stroke="#00A86B" stroke-width="1.333673477561061" /><path d="M 59.094208316845,297.1256794170967 L 70.40139555263895,323.0125021253115 L 96.70153220356741,312.7031430155348 L 86.39217309379067,339.00327966646324 L 112.2789958020055,350.3104669022572 L 86.39217309379067,361.61765413805114 L 96.70153220356741,387.9177907889796 L 70.40139555263895,377.60843167920285 L 59.094208316845,403.4952543874177 L 47.78702108105106,377.60843167920285 L 21.486884430122586,387.91779078897963 L 31.79624353989933,361.61765413805114 L 5.9094208316845,350.3104669022572 L 31.796243539899326,339.00327966646324 L 21.486884430122572,312.7031430155348 L 47.787021081051044,323.0125021253115 Z" fill="none" stroke="#00A86B" stroke-width="1.333673477561061" /><path d="M 177.282624950535,297.1256794170967 L 188.58981218632894,323.0125021253115 L 214.8899488372574,312.7031430155348 L 204.58058972748069,339.00327966646324 L 230.4674124356955,350.3104669022572 L 204.58058972748069,361.61765413805114 L 214.8899488372574,387.9177907889796 L 188.58981218632894,377.60843167920285 L 177.282624950535,403.4952543874177 L 165.97543771474105,377.60843167920285 L 139.67530106381258,387.91779078897963 L 149.98466017358933,361.61765413805114 L 124.0978374653745,350.3104669022572 L 149.98466017358933,339.00327966646324 L 139.67530106381258,312.7031430155348 L 165.97543771474105,323.0125021253115 Z" fill="none" stroke="#00A86B" stroke-width="1.333673477561061" /><path d="M 295.47104158422496,297.1256794170967 L 306.7782288200189,323.0125021253115 L 333.0783654709474,312.7031430155348 L 322.7690063611706,339.00327966646324 L 348.65582906938545,350.3104669022572 L 322.7690063611706,361.61765413805114 L 333.0783654709474,387.9177907889796 L 306.7782288200189,377.60843167920285 L 295.47104158422496,403.4952543874177 L 284.163854348431,377.60843167920285 L 257.8637176975026,387.91779078897963 L 268.1730768072793,361.61765413805114 L 242.28625409906448,350.3104669022572 L 268.1730768072793,339.00327966646324 L 257.8637176975025,312.7031430155348 L 284.163854348431,323.0125021253115 Z" fill="none" stroke="#00A86B" stroke-width="1.333673477561061" /><path d="M 413.659458217915,297.1256794170967 L 424.96664545370896,323.0125021253115 L 451.26678210463746,312.7031430155348 L 440.9574229948607,339.00327966646324 L 466.8442457030755,350.3104669022572 L 440.9574229948607,361.61765413805114 L 451.26678210463746,387.9177907889796 L 424.96664545370896,377.60843167920285 L 413.659458217915,403.4952543874177 L 402.35227098212107,377.60843167920285 L 376.05213433119263,387.91779078897963 L 386.36149344096935,361.61765413805114 L 360.47467073275453,350.3104669022572 L 386.36149344096935,339.00327966646324 L 376.0521343311926,312.7031430155348 L 402.35227098212107,323.0125021253115 Z" fill="none" stroke="#00A86B" stroke-width="1.333673477561061" /><path d="M 531.847874851605,297.1256794170967 L 543.1550620873988,323.0125021253115 L 569.4551987383273,312.7031430155348 L 559.1458396285507,339.00327966646324 L 585.0326623367655,350.3104669022572 L 559.1458396285507,361.61765413805114 L 569.4551987383273,387.9177907889796 L 543.1550620873988,377.60843167920285 L 531.847874851605,403.4952543874177 L 520.5406876158111,377.60843167920285 L 494.2405509648826,387.91779078897963 L 504.5499100746593,361.61765413805114 L 478.6630873664445,350.3104669022572 L 504.5499100746593,339.00327966646324 L 494.2405509648825,312.7031430155348 L 520.540687615811,323.0125021253115 Z" fill="none" stroke="#00A86B" stroke-width="1.333673477561061" /><path d="M 650.036291485295,297.1256794170967 L 661.3434787210889,323.0125021253115 L 687.6436153720174,312.7031430155348 L 677.3342562622407,339.00327966646324 L 703.2210789704556,350.3104669022572 L 677.3342562622407,361.61765413805114 L 687.6436153720174,387.9177907889796 L 661.3434787210889,377.60843167920285 L 650.036291485295,403.4952543874177 L 638.7291042495011,377.60843167920285 L 612.4289675985726,387.91779078897963 L 622.7383267083493,361.61765413805114 L 596.8515040001345,350.3104669022572 L 622.7383267083493,339.00327966646324 L 612.4289675985726,312.7031430155348 L 638.729104249501,323.0125021253115 Z" fill="none" stroke="#00A86B" stroke-width="1.333673477561061" /><path d="M 768.2247081189851,297.1256794170967 L 779.531895354779,323.0125021253115 L 805.8320320057074,312.7031430155348 L 795.5226728959308,339.00327966646324 L 821.4094956041456,350.3104669022572 L 795.5226728959308,361.61765413805114 L 805.8320320057074,387.9177907889796 L 779.531895354779,377.60843167920285 L 768.2247081189851,403.4952543874177 L 756.9175208831912,377.60843167920285 L 730.6173842322627,387.91779078897963 L 740.9267433420393,361.61765413805114 L 715.0399206338245,350.3104669022572 L 740.9267433420393,339.00327966646324 L 730.6173842322627,312.7031430155348 L 756.9175208831911,323.0125021253115 Z" fill="none" stroke="#00A86B" stroke-width="1.333673477561061" /><path d="M 886.413124752675,297.1256794170967 L 897.7203119884689,323.0125021253115 L 924.0204486393974,312.7031430155348 L 913.7110895296207,339.00327966646324 L 939.5979122378355,350.3104669022572 L 913.7110895296207,361.61765413805114 L 924.0204486393974,387.9177907889796 L 897.7203119884689,377.60843167920285 L 886.413124752675,403.4952543874177 L 875.1059375168811,377.60843167920285 L 848.8058008659526,387.91779078897963 L 859.1151599757293,361.61765413805114 L 833.2283372675145,350.3104669022572 L 859.1151599757293,339.00327966646324 L 848.8058008659526,312.7031430155348 L 875.105937516881,323.0125021253115 Z" fill="none" stroke="#00A86B" stroke-width="1.333673477561061" /><path d="M 1004.6015413863649,297.1256794170967 L 1015.9087286221588,323.0125021253115 L 1042.2088652730874,312.7031430155348 L 1031.8995061633107,339.00327966646324 L 1057.7863288715255,350.3104669022572 L 1031.8995061633107,361.61765413805114 L 1042.2088652730874,387.9177907889796 L 1015.9087286221588,377.60843167920285 L 1004.6015413863649,403.4952543874177 L 993.294354150571,377.60843167920285 L 966.9942174996426,387.91779078897963 L 977.3035766094192,361.61765413805114 L 951.4167539012044,350.3104669022572 L 977.3035766094192,339.00327966646324 L 966.9942174996426,312.7031430155348 L 993.2943541505709,323.0125021253115 Z" fill="none" stroke="#00A86B" stroke-width="1.333673477561061" /><path d="M 1122.7899580200549,297.1256794170967 L 1134.0971452558488,323.0125021253115 L 1160.3972819067774,312.7031430155348 L 1150.0879227970006,339.00327966646324 L 1175.9747455052154,350.3104669022572 L 1150.0879227970006,361.61765413805114 L 1160.3972819067774,387.9177907889796 L 1134.0971452558488,377.60843167920285 L 1122.7899580200549,403.4952543874177 L 1111.482770784261,377.60843167920285 L 1085.1826341333324,387.91779078897963 L 1095.4919932431092,361.61765413805114 L 1069.6051705348943,350.3104669022572 L 1095.4919932431092,339.00327966646324 L 1085.1826341333324,312.7031430155348 L 1111.482770784261,323.0125021253115 Z" fill="none" stroke="#00A86B" stroke-width="1.333673477561061" /><path d="M 1240.978374653745,297.1256794170967 L 1252.285561889539,323.0125021253115 L 1278.5856985404675,312.7031430155348 L 1268.2763394306908,339.00327966646324 L 1294.1631621389056,350.3104669022572 L 1268.2763394306908,361.61765413805114 L 1278.5856985404675,387.9177907889796 L 1252.285561889539,377.60843167920285 L 1240.978374653745,403.4952543874177 L 1229.6711874179512,377.60843167920285 L 1203.3710507670226,387.91779078897963 L 1213.6804098767993,361.61765413805114 L 1187.7935871685845,350.3104669022572 L 1213.6804098767993,339.00327966646324 L 1203.3710507670226,312.7031430155348 L 1229.6711874179512,323.0125021253115 Z" fill="none" stroke="#00A86B" stroke-width="1.333673477561061" /><path d="M 3.2566289878517006e-15,399.4768482218721 L 11.307187235793942,425.3636709300869 L 37.60732388672242,415.0543118203102 L 27.297964776945676,441.35444847123864 L 53.1847874851605,452.6616357070326 L 27.297964776945676,463.96882294282653 L 37.60732388672242,490.26895959375497 L 11.307187235793942,479.95960048397825 L 3.2566289878517006e-15,505.8464231921931 L -11.307187235793938,479.95960048397825 L -37.60732388672241,490.268959593755 L -27.29796477694567,463.96882294282653 L -53.1847874851605,452.6616357070326 L -27.297964776945673,441.35444847123864 L -37.607323886722426,415.0543118203102 L -11.307187235793956,425.3636709300869 Z" fill="none" stroke="#00A86B" stroke-width="1.333673477561061" /><path d="M 118.18841663369,399.4768482218721 L 129.49560386948394,425.3636709300869 L 155.7957405204124,415.0543118203102 L 145.48638141063566,441.35444847123864 L 171.37320411885048,452.6616357070326 L 145.48638141063566,463.96882294282653 L 155.7957405204124,490.26895959375497 L 129.49560386948394,479.95960048397825 L 118.18841663369,505.8464231921931 L 106.88122939789606,479.95960048397825 L 80.58109274696758,490.268959593755 L 90.89045185674433,463.96882294282653 L 65.0036291485295,452.6616357070326 L 90.89045185674432,441.35444847123864 L 80.58109274696757,415.0543118203102 L 106.88122939789604,425.3636709300869 Z" fill="none" stroke="#00A86B" stroke-width="1.333673477561061" /><path d="M 236.37683326738,399.4768482218721 L 247.68402050317394,425.3636709300869 L 273.98415715410243,415.0543118203102 L 263.67479804432566,441.35444847123864 L 289.5616207525405,452.6616357070326 L 263.67479804432566,463.96882294282653 L 273.98415715410243,490.26895959375497 L 247.68402050317394,479.95960048397825 L 236.37683326738,505.8464231921931 L 225.06964603158605,479.95960048397825 L 198.76950938065758,490.268959593755 L 209.07886849043433,463.96882294282653 L 183.1920457822195,452.6616357070326 L 209.07886849043433,441.35444847123864 L 198.76950938065755,415.0543118203102 L 225.06964603158605,425.3636709300869 Z" fill="none" stroke="#00A86B" stroke-width="1.333673477561061" /><path d="M 354.56524990106993,399.4768482218721 L 365.8724371368639,425.3636709300869 L 392.1725737877924,415.0543118203102 L 381.8632146780156,441.35444847123864 L 407.7500373862304,452.6616357070326 L 381.8632146780156,463.96882294282653 L 392.1725737877924,490.26895959375497 L 365.8724371368639,479.95960048397825 L 354.56524990106993,505.8464231921931 L 343.258062665276,479.95960048397825 L 316.95792601434755,490.268959593755 L 327.26728512412427,463.96882294282653 L 301.38046241590945,452.6616357070326 L 327.26728512412427,441.35444847123864 L 316.9579260143475,415.0543118203102 L 343.258062665276,425.3636709300869 Z" fill="none" stroke="#00A86B" stroke-width="1.333673477561061" /><path d="M 472.75366653476,399.4768482218721 L 484.06085377055393,425.3636709300869 L 510.3609904214824,415.0543118203102 L 500.05163131170565,441.35444847123864 L 525.9384540199205,452.6616357070326 L 500.05163131170565,463.96882294282653 L 510.3609904214824,490.26895959375497 L 484.06085377055393,479.95960048397825 L 472.75366653476,505.8464231921931 L 461.44647929896604,479.95960048397825 L 435.1463426480376,490.268959593755 L 445.4557017578143,463.96882294282653 L 419.5688790495995,452.6616357070326 L 445.4557017578143,441.35444847123864 L 435.14634264803755,415.0543118203102 L 461.44647929896604,425.3636709300869 Z" fill="none" stroke="#00A86B" stroke-width="1.333673477561061" /><path d="M 590.9420831684499,399.4768482218721 L 602.2492704042438,425.3636709300869 L 628.5494070551723,415.0543118203102 L 618.2400479453956,441.35444847123864 L 644.1268706536105,452.6616357070326 L 618.2400479453956,463.96882294282653 L 628.5494070551723,490.26895959375497 L 602.2492704042438,479.95960048397825 L 590.9420831684499,505.8464231921931 L 579.634895932656,479.95960048397825 L 553.3347592817275,490.268959593755 L 563.6441183915042,463.96882294282653 L 537.7572956832894,452.6616357070326 L 563.6441183915042,441.35444847123864 L 553.3347592817275,415.0543118203102 L 579.6348959326559,425.3636709300869 Z" fill="none" stroke="#00A86B" stroke-width="1.333673477561061" /><path d="M 709.13049980214,399.4768482218721 L 720.4376870379339,425.3636709300869 L 746.7378236888624,415.0543118203102 L 736.4284645790857,441.35444847123864 L 762.3152872873005,452.6616357070326 L 736.4284645790857,463.96882294282653 L 746.7378236888624,490.26895959375497 L 720.4376870379339,479.95960048397825 L 709.13049980214,505.8464231921931 L 697.8233125663461,479.95960048397825 L 671.5231759154176,490.268959593755 L 681.8325350251943,463.96882294282653 L 655.9457123169794,452.6616357070326 L 681.8325350251943,441.35444847123864 L 671.5231759154176,415.0543118203102 L 697.823312566346,425.3636709300869 Z" fill="none" stroke="#00A86B" stroke-width="1.333673477561061" /><path d="M 827.31891643583,399.4768482218721 L 838.6261036716239,425.3636709300869 L 864.9262403225524,415.0543118203102 L 854.6168812127758,441.35444847123864 L 880.5037039209906,452.6616357070326 L 854.6168812127758,463.96882294282653 L 864.9262403225524,490.26895959375497 L 838.6261036716239,479.95960048397825 L 827.31891643583,505.8464231921931 L 816.0117292000361,479.95960048397825 L 789.7115925491076,490.268959593755 L 800.0209516588843,463.96882294282653 L 774.1341289506695,452.6616357070326 L 800.0209516588843,441.35444847123864 L 789.7115925491076,415.0543118203102 L 816.011729200036,425.3636709300869 Z" fill="none" stroke="#00A86B" stroke-width="1.333673477561061" /><path d="M 945.50733306952,399.4768482218721 L 956.8145203053139,425.3636709300869 L 983.1146569562424,415.0543118203102 L 972.8052978464657,441.35444847123864 L 998.6921205546805,452.6616357070326 L 972.8052978464657,463.96882294282653 L 983.1146569562424,490.26895959375497 L 956.8145203053139,479.95960048397825 L 945.50733306952,505.8464231921931 L 934.2001458337261,479.95960048397825 L 907.9000091827976,490.268959593755 L 918.2093682925743,463.96882294282653 L 892.3225455843594,452.6616357070326 L 918.2093682925743,441.35444847123864 L 907.9000091827976,415.0543118203102 L 934.200145833726,425.3636709300869 Z" fill="none" stroke="#00A86B" stroke-width="1.333673477561061" /><path d="M 1063.69574970321,399.4768482218721 L 1075.0029369390038,425.3636709300869 L 1101.3030735899324,415.0543118203102 L 1090.9937144801556,441.35444847123864 L 1116.8805371883705,452.6616357070326 L 1090.9937144801556,463.96882294282653 L 1101.3030735899324,490.26895959375497 L 1075.0029369390038,479.95960048397825 L 1063.69574970321,505.8464231921931 L 1052.388562467416,479.95960048397825 L 1026.0884258164874,490.268959593755 L 1036.3977849262642,463.96882294282653 L 1010.5109622180494,452.6616357070326 L 1036.3977849262642,441.35444847123864 L 1026.0884258164874,415.0543118203102 L 1052.388562467416,425.3636709300869 Z" fill="none" stroke="#00A86B" stroke-width="1.333673477561061" /><path d="M 1181.8841663368999,399.4768482218721 L 1193.1913535726937,425.3636709300869 L 1219.4914902236223,415.0543118203102 L 1209.1821311138456,441.35444847123864 L 1235.0689538220604,452.6616357070326 L 1209.1821311138456,463.96882294282653 L 1219.4914902236223,490.26895959375497 L 1193.1913535726937,479.95960048397825 L 1181.8841663368999,505.8464231921931 L 1170.576979101106,479.95960048397825 L 1144.2768424501774,490.268959593755 L 1154.5862015599541,463.96882294282653 L 1128.6993788517393,452.6616357070326 L 1154.5862015599541,441.35444847123864 L 1144.2768424501774,415.0543118203102 L 1170.576979101106,425.3636709300869 Z" fill="none" stroke="#00A86B" stroke-width="1.333673477561061" /><path d="M 1300.07258297059,399.4768482218721 L 1311.379770206384,425.3636709300869 L 1337.6799068573125,415.0543118203102 L 1327.3705477475357,441.35444847123864 L 1353.2573704557506,452.6616357070326 L 1327.3705477475357,463.96882294282653 L 1337.6799068573125,490.26895959375497 L 1311.379770206384,479.95960048397825 L 1300.07258297059,505.8464231921931 L 1288.7653957347961,479.95960048397825 L 1262.4652590838675,490.268959593755 L 1272.7746181936443,463.96882294282653 L 1246.8877954854295,452.6616357070326 L 1272.7746181936443,441.35444847123864 L 1262.4652590838675,415.0543118203102 L 1288.7653957347961,425.3636709300869 Z" fill="none" stroke="#00A86B" stroke-width="1.333673477561061" /><path d="M -59.094208316845,501.82801702664773 L -47.78702108105106,527.7148397348625 L -21.48688443012258,517.4054806250858 L -31.796243539899322,543.7056172760143 L -5.9094208316845,555.0128045118082 L -31.796243539899322,566.3199917476021 L -21.48688443012258,592.6201283985306 L -47.78702108105106,582.3107692887539 L -59.094208316845,608.1975919969688 L -70.40139555263893,582.3107692887539 L -96.70153220356741,592.6201283985306 L -86.39217309379066,566.3199917476022 L -112.2789958020055,555.0128045118082 L -86.39217309379067,543.7056172760142 L -96.70153220356742,517.4054806250858 L -70.40139555263896,527.7148397348625 Z" fill="none" stroke="#00A86B" stroke-width="1.333673477561061" /><path d="M 59.094208316845,501.82801702664773 L 70.40139555263895,527.7148397348625 L 96.70153220356741,517.4054806250858 L 86.39217309379067,543.7056172760143 L 112.2789958020055,555.0128045118082 L 86.39217309379067,566.3199917476021 L 96.70153220356741,592.6201283985306 L 70.40139555263895,582.3107692887539 L 59.094208316845,608.1975919969688 L 47.78702108105106,582.3107692887539 L 21.486884430122586,592.6201283985306 L 31.79624353989933,566.3199917476022 L 5.9094208316845,555.0128045118082 L 31.796243539899326,543.7056172760142 L 21.486884430122572,517.4054806250858 L 47.787021081051044,527.7148397348625 Z" fill="none" stroke="#00A86B" stroke-width="1.333673477561061" /><path d="M 177.282624950535,501.82801702664773 L 188.58981218632894,527.7148397348625 L 214.8899488372574,517.4054806250858 L 204.58058972748069,543.7056172760143 L 230.4674124356955,555.0128045118082 L 204.58058972748069,566.3199917476021 L 214.8899488372574,592.6201283985306 L 188.58981218632894,582.3107692887539 L 177.282624950535,608.1975919969688 L 165.97543771474105,582.3107692887539 L 139.67530106381258,592.6201283985306 L 149.98466017358933,566.3199917476022 L 124.0978374653745,555.0128045118082 L 149.98466017358933,543.7056172760142 L 139.67530106381258,517.4054806250858 L 165.97543771474105,527.7148397348625 Z" fill="none" stroke="#00A86B" stroke-width="1.333673477561061" /><path d="M 295.47104158422496,501.82801702664773 L 306.7782288200189,527.7148397348625 L 333.0783654709474,517.4054806250858 L 322.7690063611706,543.7056172760143 L 348.65582906938545,555.0128045118082 L 322.7690063611706,566.3199917476021 L 333.0783654709474,592.6201283985306 L 306.7782288200189,582.3107692887539 L 295.47104158422496,608.1975919969688 L 284.163854348431,582.3107692887539 L 257.8637176975026,592.6201283985306 L 268.1730768072793,566.3199917476022 L 242.28625409906448,555.0128045118082 L 268.1730768072793,543.7056172760142 L 257.8637176975025,517.4054806250858 L 284.163854348431,527.7148397348625 Z" fill="none" stroke="#00A86B" stroke-width="1.333673477561061" /><path d="M 413.659458217915,501.82801702664773 L 424.96664545370896,527.7148397348625 L 451.26678210463746,517.4054806250858 L 440.9574229948607,543.7056172760143 L 466.8442457030755,555.0128045118082 L 440.9574229948607,566.3199917476021 L 451.26678210463746,592.6201283985306 L 424.96664545370896,582.3107692887539 L 413.659458217915,608.1975919969688 L 402.35227098212107,582.3107692887539 L 376.05213433119263,592.6201283985306 L 386.36149344096935,566.3199917476022 L 360.47467073275453,555.0128045118082 L 386.36149344096935,543.7056172760142 L 376.0521343311926,517.4054806250858 L 402.35227098212107,527.7148397348625 Z" fill="none" stroke="#00A86B" stroke-width="1.333673477561061" /><path d="M 531.847874851605,501.82801702664773 L 543.1550620873988,527.7148397348625 L 569.4551987383273,517.4054806250858 L 559.1458396285507,543.7056172760143 L 585.0326623367655,555.0128045118082 L 559.1458396285507,566.3199917476021 L 569.4551987383273,592.6201283985306 L 543.1550620873988,582.3107692887539 L 531.847874851605,608.1975919969688 L 520.5406876158111,582.3107692887539 L 494.2405509648826,592.6201283985306 L 504.5499100746593,566.3199917476022 L 478.6630873664445,555.0128045118082 L 504.5499100746593,543.7056172760142 L 494.2405509648825,517.4054806250858 L 520.540687615811,527.7148397348625 Z" fill="none" stroke="#00A86B" stroke-width="1.333673477561061" /><path d="M 650.036291485295,501.82801702664773 L 661.3434787210889,527.7148397348625 L 687.6436153720174,517.4054806250858 L 677.3342562622407,543.7056172760143 L 703.2210789704556,555.0128045118082 L 677.3342562622407,566.3199917476021 L 687.6436153720174,592.6201283985306 L 661.3434787210889,582.3107692887539 L 650.036291485295,608.1975919969688 L 638.7291042495011,582.3107692887539 L 612.4289675985726,592.6201283985306 L 622.7383267083493,566.3199917476022 L 596.8515040001345,555.0128045118082 L 622.7383267083493,543.7056172760142 L 612.4289675985726,517.4054806250858 L 638.729104249501,527.7148397348625 Z" fill="none" stroke="#00A86B" stroke-width="1.333673477561061" /><path d="M 768.2247081189851,501.82801702664773 L 779.531895354779,527.7148397348625 L 805.8320320057074,517.4054806250858 L 795.5226728959308,543.7056172760143 L 821.4094956041456,555.0128045118082 L 795.5226728959308,566.3199917476021 L 805.8320320057074,592.6201283985306 L 779.531895354779,582.3107692887539 L 768.2247081189851,608.1975919969688 L 756.9175208831912,582.3107692887539 L 730.6173842322627,592.6201283985306 L 740.9267433420393,566.3199917476022 L 715.0399206338245,555.0128045118082 L 740.9267433420393,543.7056172760142 L 730.6173842322627,517.4054806250858 L 756.9175208831911,527.7148397348625 Z" fill="none" stroke="#00A86B" stroke-width="1.333673477561061" /><path d="M 886.413124752675,501.82801702664773 L 897.7203119884689,527.7148397348625 L 924.0204486393974,517.4054806250858 L 913.7110895296207,543.7056172760143 L 939.5979122378355,555.0128045118082 L 913.7110895296207,566.3199917476021 L 924.0204486393974,592.6201283985306 L 897.7203119884689,582.3107692887539 L 886.413124752675,608.1975919969688 L 875.1059375168811,582.3107692887539 L 848.8058008659526,592.6201283985306 L 859.1151599757293,566.3199917476022 L 833.2283372675145,555.0128045118082 L 859.1151599757293,543.7056172760142 L 848.8058008659526,517.4054806250858 L 875.105937516881,527.7148397348625 Z" fill="none" stroke="#00A86B" stroke-width="1.333673477561061" /><path d="M 1004.6015413863649,501.82801702664773 L 1015.9087286221588,527.7148397348625 L 1042.2088652730874,517.4054806250858 L 1031.8995061633107,543.7056172760143 L 1057.7863288715255,555.0128045118082 L 1031.8995061633107,566.3199917476021 L 1042.2088652730874,592.6201283985306 L 1015.9087286221588,582.3107692887539 L 1004.6015413863649,608.1975919969688 L 993.294354150571,582.3107692887539 L 966.9942174996426,592.6201283985306 L 977.3035766094192,566.3199917476022 L 951.4167539012044,555.0128045118082 L 977.3035766094192,543.7056172760142 L 966.9942174996426,517.4054806250858 L 993.2943541505709,527.7148397348625 Z" fill="none" stroke="#00A86B" stroke-width="1.333673477561061" /><path d="M 1122.7899580200549,501.82801702664773 L 1134.0971452558488,527.7148397348625 L 1160.3972819067774,517.4054806250858 L 1150.0879227970006,543.7056172760143 L 1175.9747455052154,555.0128045118082 L 1150.0879227970006,566.3199917476021 L 1160.3972819067774,592.6201283985306 L 1134.0971452558488,582.3107692887539 L 1122.7899580200549,608.1975919969688 L 1111.482770784261,582.3107692887539 L 1085.1826341333324,592.6201283985306 L 1095.4919932431092,566.3199917476022 L 1069.6051705348943,555.0128045118082 L 1095.4919932431092,543.7056172760142 L 1085.1826341333324,517.4054806250858 L 1111.482770784261,527.7148397348625 Z" fill="none" stroke="#00A86B" stroke-width="1.333673477561061" /><path d="M 1240.978374653745,501.82801702664773 L 1252.285561889539,527.7148397348625 L 1278.5856985404675,517.4054806250858 L 1268.2763394306908,543.7056172760143 L 1294.1631621389056,555.0128045118082 L 1268.2763394306908,566.3199917476021 L 1278.5856985404675,592.6201283985306 L 1252.285561889539,582.3107692887539 L 1240.978374653745,608.1975919969688 L 1229.6711874179512,582.3107692887539 L 1203.3710507670226,592.6201283985306 L 1213.6804098767993,566.3199917476022 L 1187.7935871685845,555.0128045118082 L 1213.6804098767993,543.7056172760142 L 1203.3710507670226,517.4054806250858 L 1229.6711874179512,527.7148397348625 Z" fill="none" stroke="#00A86B" stroke-width="1.333673477561061" /><path d="M 3.2566289878517006e-15,604.1791858314233 L 11.307187235793942,630.0660085396381 L 37.60732388672242,619.7566494298615 L 27.297964776945676,646.05678608079 L 53.1847874851605,657.3639733165838 L 27.297964776945676,668.6711605523777 L 37.60732388672242,694.9712972033062 L 11.307187235793942,684.6619380935296 L 3.2566289878517006e-15,710.5487608017444 L -11.307187235793938,684.6619380935296 L -37.60732388672241,694.9712972033062 L -27.29796477694567,668.6711605523778 L -53.1847874851605,657.3639733165838 L -27.297964776945673,646.0567860807898 L -37.607323886722426,619.7566494298615 L -11.307187235793956,630.0660085396381 Z" fill="none" stroke="#00A86B" stroke-width="1.333673477561061" /><path d="M 118.18841663369,604.1791858314233 L 129.49560386948394,630.0660085396381 L 155.7957405204124,619.7566494298615 L 145.48638141063566,646.05678608079 L 171.37320411885048,657.3639733165838 L 145.48638141063566,668.6711605523777 L 155.7957405204124,694.9712972033062 L 129.49560386948394,684.6619380935296 L 118.18841663369,710.5487608017444 L 106.88122939789606,684.6619380935296 L 80.58109274696758,694.9712972033062 L 90.89045185674433,668.6711605523778 L 65.0036291485295,657.3639733165838 L 90.89045185674432,646.0567860807898 L 80.58109274696757,619.7566494298615 L 106.88122939789604,630.0660085396381 Z" fill="none" stroke="#00A86B" stroke-width="1.333673477561061" /><path d="M 236.37683326738,604.1791858314233 L 247.68402050317394,630.0660085396381 L 273.98415715410243,619.7566494298615 L 263.67479804432566,646.05678608079 L 289.5616207525405,657.3639733165838 L 263.67479804432566,668.6711605523777 L 273.98415715410243,694.9712972033062 L 247.68402050317394,684.6619380935296 L 236.37683326738,710.5487608017444 L 225.06964603158605,684.6619380935296 L 198.76950938065758,694.9712972033062 L 209.07886849043433,668.6711605523778 L 183.1920457822195,657.3639733165838 L 209.07886849043433,646.0567860807898 L 198.76950938065755,619.7566494298615 L 225.06964603158605,630.0660085396381 Z" fill="none" stroke="#00A86B" stroke-width="1.333673477561061" /><path d="M 354.56524990106993,604.1791858314233 L 365.8724371368639,630.0660085396381 L 392.1725737877924,619.7566494298615 L 381.8632146780156,646.05678608079 L 407.7500373862304,657.3639733165838 L 381.8632146780156,668.6711605523777 L 392.1725737877924,694.9712972033062 L 365.8724371368639,684.6619380935296 L 354.56524990106993,710.5487608017444 L 343.258062665276,684.6619380935296 L 316.95792601434755,694.9712972033062 L 327.26728512412427,668.6711605523778 L 301.38046241590945,657.3639733165838 L 327.26728512412427,646.0567860807898 L 316.9579260143475,619.7566494298615 L 343.258062665276,630.0660085396381 Z" fill="none" stroke="#00A86B" stroke-width="1.333673477561061" /><path d="M 472.75366653476,604.1791858314233 L 484.06085377055393,630.0660085396381 L 510.3609904214824,619.7566494298615 L 500.05163131170565,646.05678608079 L 525.9384540199205,657.3639733165838 L 500.05163131170565,668.6711605523777 L 510.3609904214824,694.9712972033062 L 484.06085377055393,684.6619380935296 L 472.75366653476,710.5487608017444 L 461.44647929896604,684.6619380935296 L 435.1463426480376,694.9712972033062 L 445.4557017578143,668.6711605523778 L 419.5688790495995,657.3639733165838 L 445.4557017578143,646.0567860807898 L 435.14634264803755,619.7566494298615 L 461.44647929896604,630.0660085396381 Z" fill="none" stroke="#00A86B" stroke-width="1.333673477561061" /><path d="M 590.9420831684499,604.1791858314233 L 602.2492704042438,630.0660085396381 L 628.5494070551723,619.7566494298615 L 618.2400479453956,646.05678608079 L 644.1268706536105,657.3639733165838 L 618.2400479453956,668.6711605523777 L 628.5494070551723,694.9712972033062 L 602.2492704042438,684.6619380935296 L 590.9420831684499,710.5487608017444 L 579.634895932656,684.6619380935296 L 553.3347592817275,694.9712972033062 L 563.6441183915042,668.6711605523778 L 537.7572956832894,657.3639733165838 L 563.6441183915042,646.0567860807898 L 553.3347592817275,619.7566494298615 L 579.6348959326559,630.0660085396381 Z" fill="none" stroke="#00A86B" stroke-width="1.333673477561061" /><path d="M 709.13049980214,604.1791858314233 L 720.4376870379339,630.0660085396381 L 746.7378236888624,619.7566494298615 L 736.4284645790857,646.05678608079 L 762.3152872873005,657.3639733165838 L 736.4284645790857,668.6711605523777 L 746.7378236888624,694.9712972033062 L 720.4376870379339,684.6619380935296 L 709.13049980214,710.5487608017444 L 697.8233125663461,684.6619380935296 L 671.5231759154176,694.9712972033062 L 681.8325350251943,668.6711605523778 L 655.9457123169794,657.3639733165838 L 681.8325350251943,646.0567860807898 L 671.5231759154176,619.7566494298615 L 697.823312566346,630.0660085396381 Z" fill="none" stroke="#00A86B" stroke-width="1.333673477561061" /><path d="M 827.31891643583,604.1791858314233 L 838.6261036716239,630.0660085396381 L 864.9262403225524,619.7566494298615 L 854.6168812127758,646.05678608079 L 880.5037039209906,657.3639733165838 L 854.6168812127758,668.6711605523777 L 864.9262403225524,694.9712972033062 L 838.6261036716239,684.6619380935296 L 827.31891643583,710.5487608017444 L 816.0117292000361,684.6619380935296 L 789.7115925491076,694.9712972033062 L 800.0209516588843,668.6711605523778 L 774.1341289506695,657.3639733165838 L 800.0209516588843,646.0567860807898 L 789.7115925491076,619.7566494298615 L 816.011729200036,630.0660085396381 Z" fill="none" stroke="#00A86B" stroke-width="1.333673477561061" /><path d="M 945.50733306952,604.1791858314233 L 956.8145203053139,630.0660085396381 L 983.1146569562424,619.7566494298615 L 972.8052978464657,646.05678608079 L 998.6921205546805,657.3639733165838 L 972.8052978464657,668.6711605523777 L 983.1146569562424,694.9712972033062 L 956.8145203053139,684.6619380935296 L 945.50733306952,710.5487608017444 L 934.2001458337261,684.6619380935296 L 907.9000091827976,694.9712972033062 L 918.2093682925743,668.6711605523778 L 892.3225455843594,657.3639733165838 L 918.2093682925743,646.0567860807898 L 907.9000091827976,619.7566494298615 L 934.200145833726,630.0660085396381 Z" fill="none" stroke="#00A86B" stroke-width="1.333673477561061" /><path d="M 1063.69574970321,604.1791858314233 L 1075.0029369390038,630.0660085396381 L 1101.3030735899324,619.7566494298615 L 1090.9937144801556,646.05678608079 L 1116.8805371883705,657.3639733165838 L 1090.9937144801556,668.6711605523777 L 1101.3030735899324,694.9712972033062 L 1075.0029369390038,684.6619380935296 L 1063.69574970321,710.5487608017444 L 1052.388562467416,684.6619380935296 L 1026.0884258164874,694.9712972033062 L 1036.3977849262642,668.6711605523778 L 1010.5109622180494,657.3639733165838 L 1036.3977849262642,646.0567860807898 L 1026.0884258164874,619.7566494298615 L 1052.388562467416,630.0660085396381 Z" fill="none" stroke="#00A86B" stroke-width="1.333673477561061" /><path d="M 1181.8841663368999,604.1791858314233 L 1193.1913535726937,630.0660085396381 L 1219.4914902236223,619.7566494298615 L 1209.1821311138456,646.05678608079 L 1235.0689538220604,657.3639733165838 L 1209.1821311138456,668.6711605523777 L 1219.4914902236223,694.9712972033062 L 1193.1913535726937,684.6619380935296 L 1181.8841663368999,710.5487608017444 L 1170.576979101106,684.6619380935296 L 1144.2768424501774,694.9712972033062 L 1154.5862015599541,668.6711605523778 L 1128.6993788517393,657.3639733165838 L 1154.5862015599541,646.0567860807898 L 1144.2768424501774,619.7566494298615 L 1170.576979101106,630.0660085396381 Z" fill="none" stroke="#00A86B" stroke-width="1.333673477561061" /><path d="M 1300.07258297059,604.1791858314233 L 1311.379770206384,630.0660085396381 L 1337.6799068573125,619.7566494298615 L 1327.3705477475357,646.05678608079 L 1353.2573704557506,657.3639733165838 L 1327.3705477475357,668.6711605523777 L 1337.6799068573125,694.9712972033062 L 1311.379770206384,684.6619380935296 L 1300.07258297059,710.5487608017444 L 1288.7653957347961,684.6619380935296 L 1262.4652590838675,694.9712972033062 L 1272.7746181936443,668.6711605523778 L 1246.8877954854295,657.3639733165838 L 1272.7746181936443,646.0567860807898 L 1262.4652590838675,619.7566494298615 L 1288.7653957347961,630.0660085396381 Z" fill="none" stroke="#00A86B" stroke-width="1.333673477561061" /><line x1="53.1847874851605" y1="43.25696048793054" x2="65.0036291485295" y2="43.25696048793054" stroke="#00A86B" stroke-width="0.5"/><line x1="171.37320411885048" y1="43.25696048793054" x2="183.1920457822195" y2="43.25696048793054" stroke="#00A86B" stroke-width="0.5"/><line x1="289.5616207525405" y1="43.25696048793054" x2="301.38046241590945" y2="43.25696048793054" stroke="#00A86B" stroke-width="0.5"/><line x1="407.7500373862304" y1="43.25696048793054" x2="419.5688790495995" y2="43.25696048793054" stroke="#00A86B" stroke-width="0.5"/><line x1="525.9384540199205" y1="43.25696048793054" x2="537.7572956832894" y2="43.25696048793054" stroke="#00A86B" stroke-width="0.5"/><line x1="644.1268706536105" y1="43.25696048793054" x2="655.9457123169794" y2="43.25696048793054" stroke="#00A86B" stroke-width="0.5"/><line x1="762.3152872873005" y1="43.25696048793054" x2="774.1341289506695" y2="43.25696048793054" stroke="#00A86B" stroke-width="0.5"/><line x1="880.5037039209906" y1="43.25696048793054" x2="892.3225455843594" y2="43.25696048793054" stroke="#00A86B" stroke-width="0.5"/><line x1="998.6921205546805" y1="43.25696048793054" x2="1010.5109622180494" y2="43.25696048793054" stroke="#00A86B" stroke-width="0.5"/><line x1="1116.8805371883705" y1="43.25696048793054" x2="1128.6993788517393" y2="43.25696048793054" stroke="#00A86B" stroke-width="0.5"/><line x1="112.2789958020055" y1="145.60812929270608" x2="124.0978374653745" y2="145.60812929270608" stroke="#00A86B" stroke-width="0.5"/><line x1="230.4674124356955" y1="145.60812929270608" x2="242.28625409906448" y2="145.60812929270608" stroke="#00A86B" stroke-width="0.5"/><line x1="348.65582906938545" y1="145.60812929270608" x2="360.47467073275453" y2="145.60812929270608" stroke="#00A86B" stroke-width="0.5"/><line x1="466.8442457030755" y1="145.60812929270608" x2="478.6630873664445" y2="145.60812929270608" stroke="#00A86B" stroke-width="0.5"/><line x1="585.0326623367655" y1="145.60812929270608" x2="596.8515040001345" y2="145.60812929270608" stroke="#00A86B" stroke-width="0.5"/><line x1="703.2210789704556" y1="145.60812929270608" x2="715.0399206338245" y2="145.60812929270608" stroke="#00A86B" stroke-width="0.5"/><line x1="821.4094956041456" y1="145.60812929270608" x2="833.2283372675145" y2="145.60812929270608" stroke="#00A86B" stroke-width="0.5"/><line x1="939.5979122378355" y1="145.60812929270608" x2="951.4167539012044" y2="145.60812929270608" stroke="#00A86B" stroke-width="0.5"/><line x1="1057.7863288715255" y1="145.60812929270608" x2="1069.6051705348943" y2="145.60812929270608" stroke="#00A86B" stroke-width="0.5"/><line x1="1175.9747455052154" y1="145.60812929270608" x2="1187.7935871685845" y2="145.60812929270608" stroke="#00A86B" stroke-width="0.5"/><line x1="53.1847874851605" y1="247.9592980974816" x2="65.0036291485295" y2="247.9592980974816" stroke="#00A86B" stroke-width="0.5"/><line x1="171.37320411885048" y1="247.9592980974816" x2="183.1920457822195" y2="247.9592980974816" stroke="#00A86B" stroke-width="0.5"/><line x1="289.5616207525405" y1="247.9592980974816" x2="301.38046241590945" y2="247.9592980974816" stroke="#00A86B" stroke-width="0.5"/><line x1="407.7500373862304" y1="247.9592980974816" x2="419.5688790495995" y2="247.9592980974816" stroke="#00A86B" stroke-width="0.5"/><line x1="525.9384540199205" y1="247.9592980974816" x2="537.7572956832894" y2="247.9592980974816" stroke="#00A86B" stroke-width="0.5"/><line x1="644.1268706536105" y1="247.9592980974816" x2="655.9457123169794" y2="247.9592980974816" stroke="#00A86B" stroke-width="0.5"/><line x1="762.3152872873005" y1="247.9592980974816" x2="774.1341289506695" y2="247.9592980974816" stroke="#00A86B" stroke-width="0.5"/><line x1="880.5037039209906" y1="247.9592980974816" x2="892.3225455843594" y2="247.9592980974816" stroke="#00A86B" stroke-width="0.5"/><line x1="998.6921205546805" y1="247.9592980974816" x2="1010.5109622180494" y2="247.9592980974816" stroke="#00A86B" stroke-width="0.5"/><line x1="1116.8805371883705" y1="247.9592980974816" x2="1128.6993788517393" y2="247.9592980974816" stroke="#00A86B" stroke-width="0.5"/><line x1="112.2789958020055" y1="350.3104669022572" x2="124.0978374653745" y2="350.3104669022572" stroke="#00A86B" stroke-width="0.5"/><line x1="230.4674124356955" y1="350.3104669022572" x2="242.28625409906448" y2="350.3104669022572" stroke="#00A86B" stroke-width="0.5"/><line x1="348.65582906938545" y1="350.3104669022572" x2="360.47467073275453" y2="350.3104669022572" stroke="#00A86B" stroke-width="0.5"/><line x1="466.8442457030755" y1="350.3104669022572" x2="478.6630873664445" y2="350.3104669022572" stroke="#00A86B" stroke-width="0.5"/><line x1="585.0326623367655" y1="350.3104669022572" x2="596.8515040001345" y2="350.3104669022572" stroke="#00A86B" stroke-width="0.5"/><line x1="703.2210789704556" y1="350.3104669022572" x2="715.0399206338245" y2="350.3104669022572" stroke="#00A86B" stroke-width="0.5"/><line x1="821.4094956041456" y1="350.3104669022572" x2="833.2283372675145" y2="350.3104669022572" stroke="#00A86B" stroke-width="0.5"/><line x1="939.5979122378355" y1="350.3104669022572" x2="951.4167539012044" y2="350.3104669022572" stroke="#00A86B" stroke-width="0.5"/><line x1="1057.7863288715255" y1="350.3104669022572" x2="1069.6051705348943" y2="350.3104669022572" stroke="#00A86B" stroke-width="0.5"/><line x1="1175.9747455052154" y1="350.3104669022572" x2="1187.7935871685845" y2="350.3104669022572" stroke="#00A86B" stroke-width="0.5"/><line x1="53.1847874851605" y1="452.6616357070326" x2="65.0036291485295" y2="452.6616357070326" stroke="#00A86B" stroke-width="0.5"/><line x1="171.37320411885048" y1="452.6616357070326" x2="183.1920457822195" y2="452.6616357070326" stroke="#00A86B" stroke-width="0.5"/><line x1="289.5616207525405" y1="452.6616357070326" x2="301.38046241590945" y2="452.6616357070326" stroke="#00A86B" stroke-width="0.5"/><line x1="407.7500373862304" y1="452.6616357070326" x2="419.5688790495995" y2="452.6616357070326" stroke="#00A86B" stroke-width="0.5"/><line x1="525.9384540199205" y1="452.6616357070326" x2="537.7572956832894" y2="452.6616357070326" stroke="#00A86B" stroke-width="0.5"/><line x1="644.1268706536105" y1="452.6616357070326" x2="655.9457123169794" y2="452.6616357070326" stroke="#00A86B" stroke-width="0.5"/><line x1="762.3152872873005" y1="452.6616357070326" x2="774.1341289506695" y2="452.6616357070326" stroke="#00A86B" stroke-width="0.5"/><line x1="880.5037039209906" y1="452.6616357070326" x2="892.3225455843594" y2="452.6616357070326" stroke="#00A86B" stroke-width="0.5"/><line x1="998.6921205546805" y1="452.6616357070326" x2="1010.5109622180494" y2="452.6616357070326" stroke="#00A86B" stroke-width="0.5"/><line x1="1116.8805371883705" y1="452.6616357070326" x2="1128.6993788517393" y2="452.6616357070326" stroke="#00A86B" stroke-width="0.5"/><line x1="112.2789958020055" y1="555.0128045118082" x2="124.0978374653745" y2="555.0128045118082" stroke="#00A86B" stroke-width="0.5"/><line x1="230.4674124356955" y1="555.0128045118082" x2="242.28625409906448" y2="555.0128045118082" stroke="#00A86B" stroke-width="0.5"/><line x1="348.65582906938545" y1="555.0128045118082" x2="360.47467073275453" y2="555.0128045118082" stroke="#00A86B" stroke-width="0.5"/><line x1="466.8442457030755" y1="555.0128045118082" x2="478.6630873664445" y2="555.0128045118082" stroke="#00A86B" stroke-width="0.5"/><line x1="585.0326623367655" y1="555.0128045118082" x2="596.8515040001345" y2="555.0128045118082" stroke="#00A86B" stroke-width="0.5"/><line x1="703.2210789704556" y1="555.0128045118082" x2="715.0399206338245" y2="555.0128045118082" stroke="#00A86B" stroke-width="0.5"/><line x1="821.4094956041456" y1="555.0128045118082" x2="833.2283372675145" y2="555.0128045118082" stroke="#00A86B" stroke-width="0.5"/><line x1="939.5979122378355" y1="555.0128045118082" x2="951.4167539012044" y2="555.0128045118082" stroke="#00A86B" stroke-width="0.5"/><line x1="1057.7863288715255" y1="555.0128045118082" x2="1069.6051705348943" y2="555.0128045118082" stroke="#00A86B" stroke-width="0.5"/><line x1="1175.9747455052154" y1="555.0128045118082" x2="1187.7935871685845" y2="555.0128045118082" stroke="#00A86B" stroke-width="0.5"/></g><g opacity="0.10995113852431586"><path d="M 923.2238803632669 448.6209907236607 L 923.2238803632669 369.8901805942892 L 856.0612055809554 369.8901805942892" fill="none" stroke="#FFFFFF" stroke-width="0.8277549745178572" stroke-linecap="square"/><path d="M 838.0442980854046 258.2654322396337 L 912.0519360290587 258.2654322396337 L 912.0519360290587 310.9577911436931 L 956.791590052326 310.9577911436931" fill="none" stroke="#FFFFFF" stroke-width="0.8277549745178572" stroke-linecap="square"/><path d="M 1097.1925740582833 5.410637858049309 L 1097.1925740582833 55.7324607871395 L 1171.0751528671915 55.7324607871395" fill="none" stroke="#FFFFFF" stroke-width="0.8277549745178572" stroke-linecap="square"/><path d="M 378.1378270956398 166.37666352390156 L 378.1378270956398 94.5995352525002 L 454.25380535064807 94.5995352525002" fill="none" stroke="#FFFFFF" stroke-width="0.8277549745178572" stroke-linecap="square"/><path d="M 782.8122142622304 4.370777608999413 L 782.8122142622304 0 L 708.4836224122728 0" fill="none" stroke="#FFFFFF" stroke-width="0.8277549745178572" stroke-linecap="square"/><path d="M 38.41109277606527 438.77725949454 L 38.41109277606527 478.4919792452529 L 0 478.4919792452529 L 0 423.05913867825757" fill="none" stroke="#FFFFFF" stroke-width="0.8277549745178572" stroke-linecap="square"/><path d="M 669.1030743853669 376.3200618588925 L 619.7520486093508 376.3200618588925 L 619.7520486093508 312.1424023770763" fill="none" stroke="#FFFFFF" stroke-width="0.8277549745178572" stroke-linecap="square"/><path d="M 563.7195112946068 382.13692563685447 L 563.7195112946068 412.9216446849719 L 530.5721296870313 412.9216446849719" fill="none" stroke="#FFFFFF" stroke-width="0.8277549745178572" stroke-linecap="square"/><line x1="78.90012863972231" y1="129.490163386562" x2="113.37050562415763" y2="129.490163386562" stroke="#FFFFFF" stroke-width="0.5" stroke-dasharray="5,10"/><circle cx="956.791590052326" cy="310.9577911436931" r="5.458633424462114" fill="#FFFFFF"/><circle cx="838.0442980854046" cy="258.2654322396337" r="4.366906739569692" fill="#FFFFFF"/><circle cx="1171.0751528671915" cy="55.7324607871395" r="5.458633424462114" fill="#FFFFFF"/><rect x="1091.7339406338212" y="50.27382736267739" width="10.917266848924228" height="10.917266848924228" fill="#FFFFFF"/><circle cx="454.25380535064807" cy="94.5995352525002" r="5.458633424462114" fill="#FFFFFF"/><circle cx="708.4836224122728" cy="0" r="5.458633424462114" fill="#FFFFFF"/><circle cx="751.1693004291361" cy="532.1108939741323" r="8.676685618278345" fill="#FFFFFF"/><rect x="1161.591158523244" y="269.65322752394917" width="6.142978532817516" height="6.142978532817516" fill="#FFFFFF"/><rect x="151.03829184790743" y="242.3445428798623" width="6.989712071884629" height="6.989712071884629" fill="#FFFFFF"/></g><g opacity="0.2"><rect x="40" y="40" width="1120" height="550" fill="none" stroke="#666666" stroke-width="2" rx="8"/></g><g opacity="0.7147093416260133"><line x1="50" y1="50" x2="70" y2="50" stroke="#00D486" stroke-width="3"/><line x1="50" y1="50" x2="50" y2="70" stroke="#00D486" stroke-width="3"/><line x1="1150" y1="580" x2="1130" y2="580" stroke="#00D486" stroke-width="3"/><line x1="1150" y1="580" x2="1150" y2="560" stroke="#00D486" stroke-width="3"/></g></svg>