<svg xmlns="http://www.w3.org/2000/svg" width="1200" height="630" viewBox="0 0 1200 630"><rect x="0" y="0" width="1200" height="630" fill="#000000"/><g opacity="0.05"><line x1="0" y1="0" x2="0" y2="630" stroke="#444444" stroke-width="0.5"/><line x1="60" y1="0" x2="60" y2="630" stroke="#444444" stroke-width="0.5"/><line x1="120" y1="0" x2="120" y2="630" stroke="#444444" stroke-width="0.5"/><line x1="180" y1="0" x2="180" y2="630" stroke="#444444" stroke-width="0.5"/><line x1="240" y1="0" x2="240" y2="630" stroke="#444444" stroke-width="0.5"/><line x1="300" y1="0" x2="300" y2="630" stroke="#444444" stroke-width="0.5"/><line x1="360" y1="0" x2="360" y2="630" stroke="#444444" stroke-width="0.5"/><line x1="420" y1="0" x2="420" y2="630" stroke="#444444" stroke-width="0.5"/><line x1="480" y1="0" x2="480" y2="630" stroke="#444444" stroke-width="0.5"/><line x1="540" y1="0" x2="540" y2="630" stroke="#444444" stroke-width="0.5"/><line x1="600" y1="0" x2="600" y2="630" stroke="#444444" stroke-width="0.5"/><line x1="660" y1="0" x2="660" y2="630" stroke="#444444" stroke-width="0.5"/><line x1="720" y1="0" x2="720" y2="630" stroke="#444444" stroke-width="0.5"/><line x1="780" y1="0" x2="780" y2="630" stroke="#444444" stroke-width="0.5"/><line x1="840" y1="0" x2="840" y2="630" stroke="#444444" stroke-width="0.5"/><line x1="900" y1="0" x2="900" y2="630" stroke="#444444" stroke-width="0.5"/><line x1="960" y1="0" x2="960" y2="630" stroke="#444444" stroke-width="0.5"/><line x1="1020" y1="0" x2="1020" y2="630" stroke="#444444" stroke-width="0.5"/><line x1="1080" y1="0" x2="1080" y2="630" stroke="#444444" stroke-width="0.5"/><line x1="1140" y1="0" x2="1140" y2="630" stroke="#444444" stroke-width="0.5"/><line x1="1200" y1="0" x2="1200" y2="630" stroke="#444444" stroke-width="0.5"/><line x1="0" y1="0" x2="1200" y2="0" stroke="#444444" stroke-width="0.5"/><line x1="0" y1="60" x2="1200" y2="60" stroke="#444444" stroke-width="0.5"/><line x1="0" y1="120" x2="1200" y2="120" stroke="#444444" stroke-width="0.5"/><line x1="0" y1="180" x2="1200" y2="180" stroke="#444444" stroke-width="0.5"/><line x1="0" y1="240" x2="1200" y2="240" stroke="#444444" stroke-width="0.5"/><line x1="0" y1="300" x2="1200" y2="300" stroke="#444444" stroke-width="0.5"/><line x1="0" y1="360" x2="1200" y2="360" stroke="#444444" stroke-width="0.5"/><line x1="0" y1="420" x2="1200" y2="420" stroke="#444444" stroke-width="0.5"/><line x1="0" y1="480" x2="1200" y2="480" stroke="#444444" stroke-width="0.5"/><line x1="0" y1="540" x2="1200" y2="540" stroke="#444444" stroke-width="0.5"/><line x1="0" y1="600" x2="1200" y2="600" stroke="#444444" stroke-width="0.5"/><line x1="0" y1="660" x2="1200" y2="660" stroke="#444444" stroke-width="0.5"/></g><g opacity="0.1515247265349723"><path d="M -63.222004717464294,-120.12180896318216 L -51.12499783432372,-92.42676279886294 L -22.987767287130083,-103.4562421477985 L -34.01724663606566,-75.31901160060487 L -6.322200471746427,-63.222004717464294 L -34.01724663606566,-51.12499783432373 L -22.987767287130083,-22.987767287130083 L -51.12499783432372,-34.01724663606566 L -63.222004717464294,-6.322200471746427 L -75.31901160060485,-34.01724663606566 L -103.4562421477985,-22.987767287130083 L -92.42676279886292,-51.12499783432371 L -120.12180896318216,-63.22200471746429 L -92.42676279886292,-75.31901160060487 L -103.45624214779852,-103.4562421477985 L -75.31901160060488,-92.42676279886292 Z" fill="none" stroke="#FFFFFF" stroke-width="2.465022684058651" /><path d="M 63.222004717464294,-120.12180896318216 L 75.31901160060487,-92.42676279886294 L 103.4562421477985,-103.4562421477985 L 92.42676279886294,-75.31901160060487 L 120.12180896318216,-63.222004717464294 L 92.42676279886294,-51.12499783432373 L 103.4562421477985,-22.987767287130083 L 75.31901160060487,-34.01724663606566 L 63.222004717464294,-6.322200471746427 L 51.12499783432373,-34.01724663606566 L 22.987767287130083,-22.987767287130083 L 34.017246636065664,-51.12499783432371 L 6.322200471746427,-63.22200471746429 L 34.017246636065664,-75.31901160060487 L 22.987767287130076,-103.4562421477985 L 51.12499783432371,-92.42676279886292 Z" fill="none" stroke="#FFFFFF" stroke-width="2.465022684058651" /><path d="M 189.66601415239288,-120.12180896318216 L 201.76302103553346,-92.42676279886294 L 229.9002515827271,-103.4562421477985 L 218.8707722337915,-75.31901160060487 L 246.56581839811074,-63.222004717464294 L 218.8707722337915,-51.12499783432373 L 229.9002515827271,-22.987767287130083 L 201.76302103553346,-34.01724663606566 L 189.66601415239288,-6.322200471746427 L 177.56900726925232,-34.01724663606566 L 149.43177672205866,-22.987767287130083 L 160.46125607099424,-51.12499783432371 L 132.76620990667502,-63.22200471746429 L 160.46125607099424,-75.31901160060487 L 149.43177672205866,-103.4562421477985 L 177.5690072692523,-92.42676279886292 Z" fill="none" stroke="#FFFFFF" stroke-width="2.465022684058651" /><path d="M 316.11002358732145,-120.12180896318216 L 328.20703047046203,-92.42676279886294 L 356.34426101765564,-103.4562421477985 L 345.3147816687201,-75.31901160060487 L 373.0098278330393,-63.222004717464294 L 345.3147816687201,-51.12499783432373 L 356.34426101765564,-22.987767287130083 L 328.20703047046203,-34.01724663606566 L 316.11002358732145,-6.322200471746427 L 304.01301670418087,-34.01724663606566 L 275.87578615698726,-22.987767287130083 L 286.90526550592284,-51.12499783432371 L 259.2102193416036,-63.22200471746429 L 286.90526550592284,-75.31901160060487 L 275.87578615698726,-103.4562421477985 L 304.01301670418087,-92.42676279886292 Z" fill="none" stroke="#FFFFFF" stroke-width="2.465022684058651" /><path d="M 442.55403302225005,-120.12180896318216 L 454.65103990539063,-92.42676279886294 L 482.78827045258424,-103.4562421477985 L 471.7587911036487,-75.31901160060487 L 499.4538372679679,-63.222004717464294 L 471.7587911036487,-51.12499783432373 L 482.78827045258424,-22.987767287130083 L 454.65103990539063,-34.01724663606566 L 442.55403302225005,-6.322200471746427 L 430.4570261391095,-34.01724663606566 L 402.31979559191586,-22.987767287130083 L 413.34927494085144,-51.12499783432371 L 385.6542287765322,-63.22200471746429 L 413.34927494085144,-75.31901160060487 L 402.31979559191586,-103.4562421477985 L 430.4570261391095,-92.42676279886292 Z" fill="none" stroke="#FFFFFF" stroke-width="2.465022684058651" /><path d="M 568.9980424571786,-120.12180896318216 L 581.0950493403192,-92.42676279886294 L 609.2322798875128,-103.4562421477985 L 598.2028005385772,-75.31901160060487 L 625.8978467028965,-63.222004717464294 L 598.2028005385772,-51.12499783432373 L 609.2322798875128,-22.987767287130083 L 581.0950493403192,-34.01724663606566 L 568.9980424571786,-6.322200471746427 L 556.901035574038,-34.01724663606566 L 528.7638050268444,-22.987767287130083 L 539.79328437578,-51.12499783432371 L 512.0982382114607,-63.22200471746429 L 539.79328437578,-75.31901160060487 L 528.7638050268444,-103.4562421477985 L 556.901035574038,-92.42676279886292 Z" fill="none" stroke="#FFFFFF" stroke-width="2.465022684058651" /><path d="M 695.4420518921072,-120.12180896318216 L 707.5390587752478,-92.42676279886294 L 735.6762893224414,-103.4562421477985 L 724.6468099735058,-75.31901160060487 L 752.3418561378251,-63.222004717464294 L 724.6468099735058,-51.12499783432373 L 735.6762893224414,-22.987767287130083 L 707.5390587752478,-34.01724663606566 L 695.4420518921072,-6.322200471746427 L 683.3450450089666,-34.01724663606566 L 655.207814461773,-22.987767287130083 L 666.2372938107086,-51.12499783432371 L 638.5422476463893,-63.22200471746429 L 666.2372938107086,-75.31901160060487 L 655.207814461773,-103.4562421477985 L 683.3450450089666,-92.42676279886292 Z" fill="none" stroke="#FFFFFF" stroke-width="2.465022684058651" /><path d="M 821.8860613270358,-120.12180896318216 L 833.9830682101764,-92.42676279886294 L 862.12029875737,-103.4562421477985 L 851.0908194084344,-75.31901160060487 L 878.7858655727537,-63.222004717464294 L 851.0908194084344,-51.12499783432373 L 862.12029875737,-22.987767287130083 L 833.9830682101764,-34.01724663606566 L 821.8860613270358,-6.322200471746427 L 809.7890544438952,-34.01724663606566 L 781.6518238967016,-22.987767287130083 L 792.6813032456372,-51.12499783432371 L 764.986257081318,-63.22200471746429 L 792.6813032456372,-75.31901160060487 L 781.6518238967016,-103.4562421477985 L 809.7890544438952,-92.42676279886292 Z" fill="none" stroke="#FFFFFF" stroke-width="2.465022684058651" /><path d="M 948.3300707619644,-120.12180896318216 L 960.427077645105,-92.42676279886294 L 988.5643081922987,-103.4562421477985 L 977.534828843363,-75.31901160060487 L 1005.2298750076823,-63.222004717464294 L 977.534828843363,-51.12499783432373 L 988.5643081922987,-22.987767287130083 L 960.427077645105,-34.01724663606566 L 948.3300707619644,-6.322200471746427 L 936.2330638788238,-34.01724663606566 L 908.0958333316302,-22.987767287130083 L 919.1253126805658,-51.12499783432371 L 891.4302665162465,-63.22200471746429 L 919.1253126805658,-75.31901160060487 L 908.0958333316302,-103.4562421477985 L 936.2330638788238,-92.42676279886292 Z" fill="none" stroke="#FFFFFF" stroke-width="2.465022684058651" /><path d="M 1074.774080196893,-120.12180896318216 L 1086.8710870800335,-92.42676279886294 L 1115.0083176272271,-103.4562421477985 L 1103.9788382782917,-75.31901160060487 L 1131.6738844426109,-63.222004717464294 L 1103.9788382782917,-51.12499783432373 L 1115.0083176272271,-22.987767287130083 L 1086.8710870800335,-34.01724663606566 L 1074.774080196893,-6.322200471746427 L 1062.6770733137525,-34.01724663606566 L 1034.5398427665589,-22.987767287130083 L 1045.5693221154943,-51.12499783432371 L 1017.8742759511752,-63.22200471746429 L 1045.5693221154943,-75.31901160060487 L 1034.5398427665589,-103.4562421477985 L 1062.6770733137523,-92.42676279886292 Z" fill="none" stroke="#FFFFFF" stroke-width="2.465022684058651" /><path d="M 1201.2180896318216,-120.12180896318216 L 1213.315096514962,-92.42676279886294 L 1241.4523270621557,-103.4562421477985 L 1230.4228477132203,-75.31901160060487 L 1258.1178938775395,-63.222004717464294 L 1230.4228477132203,-51.12499783432373 L 1241.4523270621557,-22.987767287130083 L 1213.315096514962,-34.01724663606566 L 1201.2180896318216,-6.322200471746427 L 1189.1210827486811,-34.01724663606566 L 1160.9838522014875,-22.987767287130083 L 1172.013331550423,-51.12499783432371 L 1144.3182853861038,-63.22200471746429 L 1172.013331550423,-75.31901160060487 L 1160.9838522014875,-103.4562421477985 L 1189.121082748681,-92.42676279886292 Z" fill="none" stroke="#FFFFFF" stroke-width="2.465022684058651" /><path d="M 3.4841081570814683e-15,-10.621296792534011 L 12.097006883140569,17.07374937178522 L 40.23423743033421,6.044270022849645 L 29.204758081398637,34.18150057004329 L 56.89980424571787,46.278507453183856 L 29.204758081398637,58.37551433632442 L 40.23423743033421,86.51274488351807 L 12.097006883140569,75.4832655345825 L 3.4841081570814683e-15,103.17831169890172 L -12.097006883140565,75.4832655345825 L -40.23423743033421,86.51274488351807 L -29.20475808139863,58.37551433632444 L -56.89980424571787,46.27850745318386 L -29.204758081398634,34.18150057004328 L -40.23423743033422,6.044270022849645 L -12.097006883140585,17.073749371785226 Z" fill="none" stroke="#FFFFFF" stroke-width="2.465022684058651" /><path d="M 126.44400943492859,-10.621296792534011 L 138.54101631806915,17.07374937178522 L 166.6782468652628,6.044270022849645 L 155.6487675163272,34.18150057004329 L 183.34381368064646,46.278507453183856 L 155.6487675163272,58.37551433632442 L 166.6782468652628,86.51274488351807 L 138.54101631806915,75.4832655345825 L 126.44400943492859,103.17831169890172 L 114.34700255178802,75.4832655345825 L 86.20977200459438,86.51274488351807 L 97.23925135352997,58.37551433632444 L 69.54420518921071,46.27850745318386 L 97.23925135352995,34.18150057004328 L 86.20977200459437,6.044270022849645 L 114.34700255178801,17.073749371785226 Z" fill="none" stroke="#FFFFFF" stroke-width="2.465022684058651" /><path d="M 252.88801886985718,-10.621296792534011 L 264.98502575299773,17.07374937178522 L 293.1222563001914,6.044270022849645 L 282.0927769512558,34.18150057004329 L 309.78782311557507,46.278507453183856 L 282.0927769512558,58.37551433632442 L 293.1222563001914,86.51274488351807 L 264.98502575299773,75.4832655345825 L 252.88801886985718,103.17831169890172 L 240.79101198671663,75.4832655345825 L 212.65378143952296,86.51274488351807 L 223.68326078845854,58.37551433632444 L 195.98821462413932,46.27850745318386 L 223.68326078845854,34.18150057004328 L 212.65378143952296,6.044270022849645 L 240.7910119867166,17.073749371785226 Z" fill="none" stroke="#FFFFFF" stroke-width="2.465022684058651" /><path d="M 379.33202830478575,-10.621296792534011 L 391.42903518792633,17.07374937178522 L 419.56626573511994,6.044270022849645 L 408.5367863861844,34.18150057004329 L 436.2318325505036,46.278507453183856 L 408.5367863861844,58.37551433632442 L 419.56626573511994,86.51274488351807 L 391.42903518792633,75.4832655345825 L 379.33202830478575,103.17831169890172 L 367.2350214216452,75.4832655345825 L 339.09779087445156,86.51274488351807 L 350.12727022338714,58.37551433632444 L 322.4322240590679,46.27850745318386 L 350.12727022338714,34.18150057004328 L 339.09779087445156,6.044270022849645 L 367.2350214216452,17.073749371785226 Z" fill="none" stroke="#FFFFFF" stroke-width="2.465022684058651" /><path d="M 505.77603773971435,-10.621296792534011 L 517.8730446228549,17.07374937178522 L 546.0102751700485,6.044270022849645 L 534.980795821113,34.18150057004329 L 562.6758419854323,46.278507453183856 L 534.980795821113,58.37551433632442 L 546.0102751700485,86.51274488351807 L 517.8730446228549,75.4832655345825 L 505.77603773971435,103.17831169890172 L 493.6790308565738,75.4832655345825 L 465.54180030938016,86.51274488351807 L 476.57127965831575,58.37551433632444 L 448.8762334939965,46.27850745318386 L 476.57127965831575,34.18150057004328 L 465.54180030938016,6.044270022849645 L 493.6790308565738,17.073749371785226 Z" fill="none" stroke="#FFFFFF" stroke-width="2.465022684058651" /><path d="M 632.2200471746429,-10.621296792534011 L 644.3170540577835,17.07374937178522 L 672.4542846049771,6.044270022849645 L 661.4248052560415,34.18150057004329 L 689.1198514203608,46.278507453183856 L 661.4248052560415,58.37551433632442 L 672.4542846049771,86.51274488351807 L 644.3170540577835,75.4832655345825 L 632.2200471746429,103.17831169890172 L 620.1230402915023,75.4832655345825 L 591.9858097443087,86.51274488351807 L 603.0152890932443,58.37551433632444 L 575.320242928925,46.27850745318386 L 603.0152890932443,34.18150057004328 L 591.9858097443087,6.044270022849645 L 620.1230402915023,17.073749371785226 Z" fill="none" stroke="#FFFFFF" stroke-width="2.465022684058651" /><path d="M 758.6640566095715,-10.621296792534011 L 770.7610634927121,17.07374937178522 L 798.8982940399057,6.044270022849645 L 787.8688146909701,34.18150057004329 L 815.5638608552894,46.278507453183856 L 787.8688146909701,58.37551433632442 L 798.8982940399057,86.51274488351807 L 770.7610634927121,75.4832655345825 L 758.6640566095715,103.17831169890172 L 746.5670497264309,75.4832655345825 L 718.4298191792373,86.51274488351807 L 729.4592985281729,58.37551433632444 L 701.7642523638536,46.27850745318386 L 729.4592985281729,34.18150057004328 L 718.4298191792373,6.044270022849645 L 746.5670497264309,17.073749371785226 Z" fill="none" stroke="#FFFFFF" stroke-width="2.465022684058651" /><path d="M 885.1080660445001,-10.621296792534011 L 897.2050729276407,17.07374937178522 L 925.3423034748344,6.044270022849645 L 914.3128241258987,34.18150057004329 L 942.007870290218,46.278507453183856 L 914.3128241258987,58.37551433632442 L 925.3423034748344,86.51274488351807 L 897.2050729276407,75.4832655345825 L 885.1080660445001,103.17831169890172 L 873.0110591613595,75.4832655345825 L 844.8738286141659,86.51274488351807 L 855.9033079631015,58.37551433632444 L 828.2082617987822,46.27850745318386 L 855.9033079631015,34.18150057004328 L 844.8738286141659,6.044270022849645 L 873.0110591613595,17.073749371785226 Z" fill="none" stroke="#FFFFFF" stroke-width="2.465022684058651" /><path d="M 1011.5520754794287,-10.621296792534011 L 1023.6490823625693,17.07374937178522 L 1051.786312909763,6.044270022849645 L 1040.7568335608273,34.18150057004329 L 1068.4518797251467,46.278507453183856 L 1040.7568335608273,58.37551433632442 L 1051.786312909763,86.51274488351807 L 1023.6490823625693,75.4832655345825 L 1011.5520754794287,103.17831169890172 L 999.4550685962881,75.4832655345825 L 971.3178380490945,86.51274488351807 L 982.3473173980301,58.37551433632444 L 954.6522712337108,46.27850745318386 L 982.3473173980301,34.18150057004328 L 971.3178380490945,6.044270022849645 L 999.4550685962881,17.073749371785226 Z" fill="none" stroke="#FFFFFF" stroke-width="2.465022684058651" /><path d="M 1137.9960849143572,-10.621296792534011 L 1150.0930917974977,17.07374937178522 L 1178.2303223446913,6.044270022849645 L 1167.200842995756,34.18150057004329 L 1194.895889160075,46.278507453183856 L 1167.200842995756,58.37551433632442 L 1178.2303223446913,86.51274488351807 L 1150.0930917974977,75.4832655345825 L 1137.9960849143572,103.17831169890172 L 1125.8990780312167,75.4832655345825 L 1097.761847484023,86.51274488351807 L 1108.7913268329585,58.37551433632444 L 1081.0962806686393,46.27850745318386 L 1108.7913268329585,34.18150057004328 L 1097.761847484023,6.044270022849645 L 1125.8990780312165,17.073749371785226 Z" fill="none" stroke="#FFFFFF" stroke-width="2.465022684058651" /><path d="M 1264.4400943492858,-10.621296792534011 L 1276.5371012324263,17.07374937178522 L 1304.67433177962,6.044270022849645 L 1293.6448524306845,34.18150057004329 L 1321.3398985950037,46.278507453183856 L 1293.6448524306845,58.37551433632442 L 1304.67433177962,86.51274488351807 L 1276.5371012324263,75.4832655345825 L 1264.4400943492858,103.17831169890172 L 1252.3430874661453,75.4832655345825 L 1224.2058569189517,86.51274488351807 L 1235.235336267887,58.37551433632444 L 1207.540290103568,46.27850745318386 L 1235.235336267887,34.18150057004328 L 1224.2058569189517,6.044270022849645 L 1252.343087466145,17.073749371785226 Z" fill="none" stroke="#FFFFFF" stroke-width="2.465022684058651" /><path d="M -63.222004717464294,98.87921537811414 L -51.12499783432372,126.57426154243336 L -22.987767287130083,115.54478219349778 L -34.01724663606566,143.68201274069142 L -6.322200471746427,155.779019623832 L -34.01724663606566,167.87602650697258 L -22.987767287130083,196.01325705416622 L -51.12499783432372,184.98377770523064 L -63.222004717464294,212.67882386954986 L -75.31901160060485,184.98377770523064 L -103.4562421477985,196.01325705416622 L -92.42676279886292,167.87602650697258 L -120.12180896318216,155.779019623832 L -92.42676279886292,143.68201274069142 L -103.45624214779852,115.54478219349778 L -75.31901160060488,126.57426154243336 Z" fill="none" stroke="#FFFFFF" stroke-width="2.465022684058651" /><path d="M 63.222004717464294,98.87921537811414 L 75.31901160060487,126.57426154243336 L 103.4562421477985,115.54478219349778 L 92.42676279886294,143.68201274069142 L 120.12180896318216,155.779019623832 L 92.42676279886294,167.87602650697258 L 103.4562421477985,196.01325705416622 L 75.31901160060487,184.98377770523064 L 63.222004717464294,212.67882386954986 L 51.12499783432373,184.98377770523064 L 22.987767287130083,196.01325705416622 L 34.017246636065664,167.87602650697258 L 6.322200471746427,155.779019623832 L 34.017246636065664,143.68201274069142 L 22.987767287130076,115.54478219349778 L 51.12499783432371,126.57426154243336 Z" fill="none" stroke="#FFFFFF" stroke-width="2.465022684058651" /><path d="M 189.66601415239288,98.87921537811414 L 201.76302103553346,126.57426154243336 L 229.9002515827271,115.54478219349778 L 218.8707722337915,143.68201274069142 L 246.56581839811074,155.779019623832 L 218.8707722337915,167.87602650697258 L 229.9002515827271,196.01325705416622 L 201.76302103553346,184.98377770523064 L 189.66601415239288,212.67882386954986 L 177.56900726925232,184.98377770523064 L 149.43177672205866,196.01325705416622 L 160.46125607099424,167.87602650697258 L 132.76620990667502,155.779019623832 L 160.46125607099424,143.68201274069142 L 149.43177672205866,115.54478219349778 L 177.5690072692523,126.57426154243336 Z" fill="none" stroke="#FFFFFF" stroke-width="2.465022684058651" /><path d="M 316.11002358732145,98.87921537811414 L 328.20703047046203,126.57426154243336 L 356.34426101765564,115.54478219349778 L 345.3147816687201,143.68201274069142 L 373.0098278330393,155.779019623832 L 345.3147816687201,167.87602650697258 L 356.34426101765564,196.01325705416622 L 328.20703047046203,184.98377770523064 L 316.11002358732145,212.67882386954986 L 304.01301670418087,184.98377770523064 L 275.87578615698726,196.01325705416622 L 286.90526550592284,167.87602650697258 L 259.2102193416036,155.779019623832 L 286.90526550592284,143.68201274069142 L 275.87578615698726,115.54478219349778 L 304.01301670418087,126.57426154243336 Z" fill="none" stroke="#FFFFFF" stroke-width="2.465022684058651" /><path d="M 442.55403302225005,98.87921537811414 L 454.65103990539063,126.57426154243336 L 482.78827045258424,115.54478219349778 L 471.7587911036487,143.68201274069142 L 499.4538372679679,155.779019623832 L 471.7587911036487,167.87602650697258 L 482.78827045258424,196.01325705416622 L 454.65103990539063,184.98377770523064 L 442.55403302225005,212.67882386954986 L 430.4570261391095,184.98377770523064 L 402.31979559191586,196.01325705416622 L 413.34927494085144,167.87602650697258 L 385.6542287765322,155.779019623832 L 413.34927494085144,143.68201274069142 L 402.31979559191586,115.54478219349778 L 430.4570261391095,126.57426154243336 Z" fill="none" stroke="#FFFFFF" stroke-width="2.465022684058651" /><path d="M 568.9980424571786,98.87921537811414 L 581.0950493403192,126.57426154243336 L 609.2322798875128,115.54478219349778 L 598.2028005385772,143.68201274069142 L 625.8978467028965,155.779019623832 L 598.2028005385772,167.87602650697258 L 609.2322798875128,196.01325705416622 L 581.0950493403192,184.98377770523064 L 568.9980424571786,212.67882386954986 L 556.901035574038,184.98377770523064 L 528.7638050268444,196.01325705416622 L 539.79328437578,167.87602650697258 L 512.0982382114607,155.779019623832 L 539.79328437578,143.68201274069142 L 528.7638050268444,115.54478219349778 L 556.901035574038,126.57426154243336 Z" fill="none" stroke="#FFFFFF" stroke-width="2.465022684058651" /><path d="M 695.4420518921072,98.87921537811414 L 707.5390587752478,126.57426154243336 L 735.6762893224414,115.54478219349778 L 724.6468099735058,143.68201274069142 L 752.3418561378251,155.779019623832 L 724.6468099735058,167.87602650697258 L 735.6762893224414,196.01325705416622 L 707.5390587752478,184.98377770523064 L 695.4420518921072,212.67882386954986 L 683.3450450089666,184.98377770523064 L 655.207814461773,196.01325705416622 L 666.2372938107086,167.87602650697258 L 638.5422476463893,155.779019623832 L 666.2372938107086,143.68201274069142 L 655.207814461773,115.54478219349778 L 683.3450450089666,126.57426154243336 Z" fill="none" stroke="#FFFFFF" stroke-width="2.465022684058651" /><path d="M 821.8860613270358,98.87921537811414 L 833.9830682101764,126.57426154243336 L 862.12029875737,115.54478219349778 L 851.0908194084344,143.68201274069142 L 878.7858655727537,155.779019623832 L 851.0908194084344,167.87602650697258 L 862.12029875737,196.01325705416622 L 833.9830682101764,184.98377770523064 L 821.8860613270358,212.67882386954986 L 809.7890544438952,184.98377770523064 L 781.6518238967016,196.01325705416622 L 792.6813032456372,167.87602650697258 L 764.986257081318,155.779019623832 L 792.6813032456372,143.68201274069142 L 781.6518238967016,115.54478219349778 L 809.7890544438952,126.57426154243336 Z" fill="none" stroke="#FFFFFF" stroke-width="2.465022684058651" /><path d="M 948.3300707619644,98.87921537811414 L 960.427077645105,126.57426154243336 L 988.5643081922987,115.54478219349778 L 977.534828843363,143.68201274069142 L 1005.2298750076823,155.779019623832 L 977.534828843363,167.87602650697258 L 988.5643081922987,196.01325705416622 L 960.427077645105,184.98377770523064 L 948.3300707619644,212.67882386954986 L 936.2330638788238,184.98377770523064 L 908.0958333316302,196.01325705416622 L 919.1253126805658,167.87602650697258 L 891.4302665162465,155.779019623832 L 919.1253126805658,143.68201274069142 L 908.0958333316302,115.54478219349778 L 936.2330638788238,126.57426154243336 Z" fill="none" stroke="#FFFFFF" stroke-width="2.465022684058651" /><path d="M 1074.774080196893,98.87921537811414 L 1086.8710870800335,126.57426154243336 L 1115.0083176272271,115.54478219349778 L 1103.9788382782917,143.68201274069142 L 1131.6738844426109,155.779019623832 L 1103.9788382782917,167.87602650697258 L 1115.0083176272271,196.01325705416622 L 1086.8710870800335,184.98377770523064 L 1074.774080196893,212.67882386954986 L 1062.6770733137525,184.98377770523064 L 1034.5398427665589,196.01325705416622 L 1045.5693221154943,167.87602650697258 L 1017.8742759511752,155.779019623832 L 1045.5693221154943,143.68201274069142 L 1034.5398427665589,115.54478219349778 L 1062.6770733137523,126.57426154243336 Z" fill="none" stroke="#FFFFFF" stroke-width="2.465022684058651" /><path d="M 1201.2180896318216,98.87921537811414 L 1213.315096514962,126.57426154243336 L 1241.4523270621557,115.54478219349778 L 1230.4228477132203,143.68201274069142 L 1258.1178938775395,155.779019623832 L 1230.4228477132203,167.87602650697258 L 1241.4523270621557,196.01325705416622 L 1213.315096514962,184.98377770523064 L 1201.2180896318216,212.67882386954986 L 1189.1210827486811,184.98377770523064 L 1160.9838522014875,196.01325705416622 L 1172.013331550423,167.87602650697258 L 1144.3182853861038,155.779019623832 L 1172.013331550423,143.68201274069142 L 1160.9838522014875,115.54478219349778 L 1189.121082748681,126.57426154243336 Z" fill="none" stroke="#FFFFFF" stroke-width="2.465022684058651" /><path d="M 3.4841081570814683e-15,208.37972754876228 L 12.097006883140569,236.0747737130815 L 40.23423743033421,225.04529436414592 L 29.204758081398637,253.18252491133956 L 56.89980424571787,265.27953179448014 L 29.204758081398637,277.3765386776207 L 40.23423743033421,305.5137692248143 L 12.097006883140569,294.48428987587874 L 3.4841081570814683e-15,322.179336040198 L -12.097006883140565,294.48428987587874 L -40.23423743033421,305.5137692248143 L -29.20475808139863,277.3765386776207 L -56.89980424571787,265.27953179448014 L -29.204758081398634,253.18252491133956 L -40.23423743033422,225.04529436414592 L -12.097006883140585,236.0747737130815 Z" fill="none" stroke="#FFFFFF" stroke-width="2.465022684058651" /><path d="M 126.44400943492859,208.37972754876228 L 138.54101631806915,236.0747737130815 L 166.6782468652628,225.04529436414592 L 155.6487675163272,253.18252491133956 L 183.34381368064646,265.27953179448014 L 155.6487675163272,277.3765386776207 L 166.6782468652628,305.5137692248143 L 138.54101631806915,294.48428987587874 L 126.44400943492859,322.179336040198 L 114.34700255178802,294.48428987587874 L 86.20977200459438,305.5137692248143 L 97.23925135352997,277.3765386776207 L 69.54420518921071,265.27953179448014 L 97.23925135352995,253.18252491133956 L 86.20977200459437,225.04529436414592 L 114.34700255178801,236.0747737130815 Z" fill="none" stroke="#FFFFFF" stroke-width="2.465022684058651" /><path d="M 252.88801886985718,208.37972754876228 L 264.98502575299773,236.0747737130815 L 293.1222563001914,225.04529436414592 L 282.0927769512558,253.18252491133956 L 309.78782311557507,265.27953179448014 L 282.0927769512558,277.3765386776207 L 293.1222563001914,305.5137692248143 L 264.98502575299773,294.48428987587874 L 252.88801886985718,322.179336040198 L 240.79101198671663,294.48428987587874 L 212.65378143952296,305.5137692248143 L 223.68326078845854,277.3765386776207 L 195.98821462413932,265.27953179448014 L 223.68326078845854,253.18252491133956 L 212.65378143952296,225.04529436414592 L 240.7910119867166,236.0747737130815 Z" fill="none" stroke="#FFFFFF" stroke-width="2.465022684058651" /><path d="M 379.33202830478575,208.37972754876228 L 391.42903518792633,236.0747737130815 L 419.56626573511994,225.04529436414592 L 408.5367863861844,253.18252491133956 L 436.2318325505036,265.27953179448014 L 408.5367863861844,277.3765386776207 L 419.56626573511994,305.5137692248143 L 391.42903518792633,294.48428987587874 L 379.33202830478575,322.179336040198 L 367.2350214216452,294.48428987587874 L 339.09779087445156,305.5137692248143 L 350.12727022338714,277.3765386776207 L 322.4322240590679,265.27953179448014 L 350.12727022338714,253.18252491133956 L 339.09779087445156,225.04529436414592 L 367.2350214216452,236.0747737130815 Z" fill="none" stroke="#FFFFFF" stroke-width="2.465022684058651" /><path d="M 505.77603773971435,208.37972754876228 L 517.8730446228549,236.0747737130815 L 546.0102751700485,225.04529436414592 L 534.980795821113,253.18252491133956 L 562.6758419854323,265.27953179448014 L 534.980795821113,277.3765386776207 L 546.0102751700485,305.5137692248143 L 517.8730446228549,294.48428987587874 L 505.77603773971435,322.179336040198 L 493.6790308565738,294.48428987587874 L 465.54180030938016,305.5137692248143 L 476.57127965831575,277.3765386776207 L 448.8762334939965,265.27953179448014 L 476.57127965831575,253.18252491133956 L 465.54180030938016,225.04529436414592 L 493.6790308565738,236.0747737130815 Z" fill="none" stroke="#FFFFFF" stroke-width="2.465022684058651" /><path d="M 632.2200471746429,208.37972754876228 L 644.3170540577835,236.0747737130815 L 672.4542846049771,225.04529436414592 L 661.4248052560415,253.18252491133956 L 689.1198514203608,265.27953179448014 L 661.4248052560415,277.3765386776207 L 672.4542846049771,305.5137692248143 L 644.3170540577835,294.48428987587874 L 632.2200471746429,322.179336040198 L 620.1230402915023,294.48428987587874 L 591.9858097443087,305.5137692248143 L 603.0152890932443,277.3765386776207 L 575.320242928925,265.27953179448014 L 603.0152890932443,253.18252491133956 L 591.9858097443087,225.04529436414592 L 620.1230402915023,236.0747737130815 Z" fill="none" stroke="#FFFFFF" stroke-width="2.465022684058651" /><path d="M 758.6640566095715,208.37972754876228 L 770.7610634927121,236.0747737130815 L 798.8982940399057,225.04529436414592 L 787.8688146909701,253.18252491133956 L 815.5638608552894,265.27953179448014 L 787.8688146909701,277.3765386776207 L 798.8982940399057,305.5137692248143 L 770.7610634927121,294.48428987587874 L 758.6640566095715,322.179336040198 L 746.5670497264309,294.48428987587874 L 718.4298191792373,305.5137692248143 L 729.4592985281729,277.3765386776207 L 701.7642523638536,265.27953179448014 L 729.4592985281729,253.18252491133956 L 718.4298191792373,225.04529436414592 L 746.5670497264309,236.0747737130815 Z" fill="none" stroke="#FFFFFF" stroke-width="2.465022684058651" /><path d="M 885.1080660445001,208.37972754876228 L 897.2050729276407,236.0747737130815 L 925.3423034748344,225.04529436414592 L 914.3128241258987,253.18252491133956 L 942.007870290218,265.27953179448014 L 914.3128241258987,277.3765386776207 L 925.3423034748344,305.5137692248143 L 897.2050729276407,294.48428987587874 L 885.1080660445001,322.179336040198 L 873.0110591613595,294.48428987587874 L 844.8738286141659,305.5137692248143 L 855.9033079631015,277.3765386776207 L 828.2082617987822,265.27953179448014 L 855.9033079631015,253.18252491133956 L 844.8738286141659,225.04529436414592 L 873.0110591613595,236.0747737130815 Z" fill="none" stroke="#FFFFFF" stroke-width="2.465022684058651" /><path d="M 1011.5520754794287,208.37972754876228 L 1023.6490823625693,236.0747737130815 L 1051.786312909763,225.04529436414592 L 1040.7568335608273,253.18252491133956 L 1068.4518797251467,265.27953179448014 L 1040.7568335608273,277.3765386776207 L 1051.786312909763,305.5137692248143 L 1023.6490823625693,294.48428987587874 L 1011.5520754794287,322.179336040198 L 999.4550685962881,294.48428987587874 L 971.3178380490945,305.5137692248143 L 982.3473173980301,277.3765386776207 L 954.6522712337108,265.27953179448014 L 982.3473173980301,253.18252491133956 L 971.3178380490945,225.04529436414592 L 999.4550685962881,236.0747737130815 Z" fill="none" stroke="#FFFFFF" stroke-width="2.465022684058651" /><path d="M 1137.9960849143572,208.37972754876228 L 1150.0930917974977,236.0747737130815 L 1178.2303223446913,225.04529436414592 L 1167.200842995756,253.18252491133956 L 1194.895889160075,265.27953179448014 L 1167.200842995756,277.3765386776207 L 1178.2303223446913,305.5137692248143 L 1150.0930917974977,294.48428987587874 L 1137.9960849143572,322.179336040198 L 1125.8990780312167,294.48428987587874 L 1097.761847484023,305.5137692248143 L 1108.7913268329585,277.3765386776207 L 1081.0962806686393,265.27953179448014 L 1108.7913268329585,253.18252491133956 L 1097.761847484023,225.04529436414592 L 1125.8990780312165,236.0747737130815 Z" fill="none" stroke="#FFFFFF" stroke-width="2.465022684058651" /><path d="M 1264.4400943492858,208.37972754876228 L 1276.5371012324263,236.0747737130815 L 1304.67433177962,225.04529436414592 L 1293.6448524306845,253.18252491133956 L 1321.3398985950037,265.27953179448014 L 1293.6448524306845,277.3765386776207 L 1304.67433177962,305.5137692248143 L 1276.5371012324263,294.48428987587874 L 1264.4400943492858,322.179336040198 L 1252.3430874661453,294.48428987587874 L 1224.2058569189517,305.5137692248143 L 1235.235336267887,277.3765386776207 L 1207.540290103568,265.27953179448014 L 1235.235336267887,253.18252491133956 L 1224.2058569189517,225.04529436414592 L 1252.343087466145,236.0747737130815 Z" fill="none" stroke="#FFFFFF" stroke-width="2.465022684058651" /><path d="M -63.222004717464294,317.88023971941044 L -51.12499783432372,345.57528588372963 L -22.987767287130083,334.5458065347941 L -34.01724663606566,362.6830370819877 L -6.322200471746427,374.7800439651283 L -34.01724663606566,386.8770508482689 L -22.987767287130083,415.0142813954625 L -51.12499783432372,403.98480204652697 L -63.222004717464294,431.67984821084616 L -75.31901160060485,403.98480204652697 L -103.4562421477985,415.0142813954625 L -92.42676279886292,386.8770508482689 L -120.12180896318216,374.7800439651283 L -92.42676279886292,362.6830370819877 L -103.45624214779852,334.5458065347941 L -75.31901160060488,345.5752858837297 Z" fill="none" stroke="#FFFFFF" stroke-width="2.465022684058651" /><path d="M 63.222004717464294,317.88023971941044 L 75.31901160060487,345.57528588372963 L 103.4562421477985,334.5458065347941 L 92.42676279886294,362.6830370819877 L 120.12180896318216,374.7800439651283 L 92.42676279886294,386.8770508482689 L 103.4562421477985,415.0142813954625 L 75.31901160060487,403.98480204652697 L 63.222004717464294,431.67984821084616 L 51.12499783432373,403.98480204652697 L 22.987767287130083,415.0142813954625 L 34.017246636065664,386.8770508482689 L 6.322200471746427,374.7800439651283 L 34.017246636065664,362.6830370819877 L 22.987767287130076,334.5458065347941 L 51.12499783432371,345.5752858837297 Z" fill="none" stroke="#FFFFFF" stroke-width="2.465022684058651" /><path d="M 189.66601415239288,317.88023971941044 L 201.76302103553346,345.57528588372963 L 229.9002515827271,334.5458065347941 L 218.8707722337915,362.6830370819877 L 246.56581839811074,374.7800439651283 L 218.8707722337915,386.8770508482689 L 229.9002515827271,415.0142813954625 L 201.76302103553346,403.98480204652697 L 189.66601415239288,431.67984821084616 L 177.56900726925232,403.98480204652697 L 149.43177672205866,415.0142813954625 L 160.46125607099424,386.8770508482689 L 132.76620990667502,374.7800439651283 L 160.46125607099424,362.6830370819877 L 149.43177672205866,334.5458065347941 L 177.5690072692523,345.5752858837297 Z" fill="none" stroke="#FFFFFF" stroke-width="2.465022684058651" /><path d="M 316.11002358732145,317.88023971941044 L 328.20703047046203,345.57528588372963 L 356.34426101765564,334.5458065347941 L 345.3147816687201,362.6830370819877 L 373.0098278330393,374.7800439651283 L 345.3147816687201,386.8770508482689 L 356.34426101765564,415.0142813954625 L 328.20703047046203,403.98480204652697 L 316.11002358732145,431.67984821084616 L 304.01301670418087,403.98480204652697 L 275.87578615698726,415.0142813954625 L 286.90526550592284,386.8770508482689 L 259.2102193416036,374.7800439651283 L 286.90526550592284,362.6830370819877 L 275.87578615698726,334.5458065347941 L 304.01301670418087,345.5752858837297 Z" fill="none" stroke="#FFFFFF" stroke-width="2.465022684058651" /><path d="M 442.55403302225005,317.88023971941044 L 454.65103990539063,345.57528588372963 L 482.78827045258424,334.5458065347941 L 471.7587911036487,362.6830370819877 L 499.4538372679679,374.7800439651283 L 471.7587911036487,386.8770508482689 L 482.78827045258424,415.0142813954625 L 454.65103990539063,403.98480204652697 L 442.55403302225005,431.67984821084616 L 430.4570261391095,403.98480204652697 L 402.31979559191586,415.0142813954625 L 413.34927494085144,386.8770508482689 L 385.6542287765322,374.7800439651283 L 413.34927494085144,362.6830370819877 L 402.31979559191586,334.5458065347941 L 430.4570261391095,345.5752858837297 Z" fill="none" stroke="#FFFFFF" stroke-width="2.465022684058651" /><path d="M 568.9980424571786,317.88023971941044 L 581.0950493403192,345.57528588372963 L 609.2322798875128,334.5458065347941 L 598.2028005385772,362.6830370819877 L 625.8978467028965,374.7800439651283 L 598.2028005385772,386.8770508482689 L 609.2322798875128,415.0142813954625 L 581.0950493403192,403.98480204652697 L 568.9980424571786,431.67984821084616 L 556.901035574038,403.98480204652697 L 528.7638050268444,415.0142813954625 L 539.79328437578,386.8770508482689 L 512.0982382114607,374.7800439651283 L 539.79328437578,362.6830370819877 L 528.7638050268444,334.5458065347941 L 556.901035574038,345.5752858837297 Z" fill="none" stroke="#FFFFFF" stroke-width="2.465022684058651" /><path d="M 695.4420518921072,317.88023971941044 L 707.5390587752478,345.57528588372963 L 735.6762893224414,334.5458065347941 L 724.6468099735058,362.6830370819877 L 752.3418561378251,374.7800439651283 L 724.6468099735058,386.8770508482689 L 735.6762893224414,415.0142813954625 L 707.5390587752478,403.98480204652697 L 695.4420518921072,431.67984821084616 L 683.3450450089666,403.98480204652697 L 655.207814461773,415.0142813954625 L 666.2372938107086,386.8770508482689 L 638.5422476463893,374.7800439651283 L 666.2372938107086,362.6830370819877 L 655.207814461773,334.5458065347941 L 683.3450450089666,345.5752858837297 Z" fill="none" stroke="#FFFFFF" stroke-width="2.465022684058651" /><path d="M 821.8860613270358,317.88023971941044 L 833.9830682101764,345.57528588372963 L 862.12029875737,334.5458065347941 L 851.0908194084344,362.6830370819877 L 878.7858655727537,374.7800439651283 L 851.0908194084344,386.8770508482689 L 862.12029875737,415.0142813954625 L 833.9830682101764,403.98480204652697 L 821.8860613270358,431.67984821084616 L 809.7890544438952,403.98480204652697 L 781.6518238967016,415.0142813954625 L 792.6813032456372,386.8770508482689 L 764.986257081318,374.7800439651283 L 792.6813032456372,362.6830370819877 L 781.6518238967016,334.5458065347941 L 809.7890544438952,345.5752858837297 Z" fill="none" stroke="#FFFFFF" stroke-width="2.465022684058651" /><path d="M 948.3300707619644,317.88023971941044 L 960.427077645105,345.57528588372963 L 988.5643081922987,334.5458065347941 L 977.534828843363,362.6830370819877 L 1005.2298750076823,374.7800439651283 L 977.534828843363,386.8770508482689 L 988.5643081922987,415.0142813954625 L 960.427077645105,403.98480204652697 L 948.3300707619644,431.67984821084616 L 936.2330638788238,403.98480204652697 L 908.0958333316302,415.0142813954625 L 919.1253126805658,386.8770508482689 L 891.4302665162465,374.7800439651283 L 919.1253126805658,362.6830370819877 L 908.0958333316302,334.5458065347941 L 936.2330638788238,345.5752858837297 Z" fill="none" stroke="#FFFFFF" stroke-width="2.465022684058651" /><path d="M 1074.774080196893,317.88023971941044 L 1086.8710870800335,345.57528588372963 L 1115.0083176272271,334.5458065347941 L 1103.9788382782917,362.6830370819877 L 1131.6738844426109,374.7800439651283 L 1103.9788382782917,386.8770508482689 L 1115.0083176272271,415.0142813954625 L 1086.8710870800335,403.98480204652697 L 1074.774080196893,431.67984821084616 L 1062.6770733137525,403.98480204652697 L 1034.5398427665589,415.0142813954625 L 1045.5693221154943,386.8770508482689 L 1017.8742759511752,374.7800439651283 L 1045.5693221154943,362.6830370819877 L 1034.5398427665589,334.5458065347941 L 1062.6770733137523,345.5752858837297 Z" fill="none" stroke="#FFFFFF" stroke-width="2.465022684058651" /><path d="M 1201.2180896318216,317.88023971941044 L 1213.315096514962,345.57528588372963 L 1241.4523270621557,334.5458065347941 L 1230.4228477132203,362.6830370819877 L 1258.1178938775395,374.7800439651283 L 1230.4228477132203,386.8770508482689 L 1241.4523270621557,415.0142813954625 L 1213.315096514962,403.98480204652697 L 1201.2180896318216,431.67984821084616 L 1189.1210827486811,403.98480204652697 L 1160.9838522014875,415.0142813954625 L 1172.013331550423,386.8770508482689 L 1144.3182853861038,374.7800439651283 L 1172.013331550423,362.6830370819877 L 1160.9838522014875,334.5458065347941 L 1189.121082748681,345.5752858837297 Z" fill="none" stroke="#FFFFFF" stroke-width="2.465022684058651" /><path d="M 3.4841081570814683e-15,427.3807518900586 L 12.097006883140569,455.07579805437786 L 40.23423743033421,444.0463187054423 L 29.204758081398637,472.1835492526359 L 56.89980424571787,484.28055613577646 L 29.204758081398637,496.37756301891704 L 40.23423743033421,524.5147935661107 L 12.097006883140569,513.4853142171751 L 3.4841081570814683e-15,541.1803603814943 L -12.097006883140565,513.4853142171751 L -40.23423743033421,524.5147935661107 L -29.20475808139863,496.37756301891704 L -56.89980424571787,484.28055613577646 L -29.204758081398634,472.1835492526359 L -40.23423743033422,444.0463187054423 L -12.097006883140585,455.07579805437786 Z" fill="none" stroke="#FFFFFF" stroke-width="2.465022684058651" /><path d="M 126.44400943492859,427.3807518900586 L 138.54101631806915,455.07579805437786 L 166.6782468652628,444.0463187054423 L 155.6487675163272,472.1835492526359 L 183.34381368064646,484.28055613577646 L 155.6487675163272,496.37756301891704 L 166.6782468652628,524.5147935661107 L 138.54101631806915,513.4853142171751 L 126.44400943492859,541.1803603814943 L 114.34700255178802,513.4853142171751 L 86.20977200459438,524.5147935661107 L 97.23925135352997,496.37756301891704 L 69.54420518921071,484.28055613577646 L 97.23925135352995,472.1835492526359 L 86.20977200459437,444.0463187054423 L 114.34700255178801,455.07579805437786 Z" fill="none" stroke="#FFFFFF" stroke-width="2.465022684058651" /><path d="M 252.88801886985718,427.3807518900586 L 264.98502575299773,455.07579805437786 L 293.1222563001914,444.0463187054423 L 282.0927769512558,472.1835492526359 L 309.78782311557507,484.28055613577646 L 282.0927769512558,496.37756301891704 L 293.1222563001914,524.5147935661107 L 264.98502575299773,513.4853142171751 L 252.88801886985718,541.1803603814943 L 240.79101198671663,513.4853142171751 L 212.65378143952296,524.5147935661107 L 223.68326078845854,496.37756301891704 L 195.98821462413932,484.28055613577646 L 223.68326078845854,472.1835492526359 L 212.65378143952296,444.0463187054423 L 240.7910119867166,455.07579805437786 Z" fill="none" stroke="#FFFFFF" stroke-width="2.465022684058651" /><path d="M 379.33202830478575,427.3807518900586 L 391.42903518792633,455.07579805437786 L 419.56626573511994,444.0463187054423 L 408.5367863861844,472.1835492526359 L 436.2318325505036,484.28055613577646 L 408.5367863861844,496.37756301891704 L 419.56626573511994,524.5147935661107 L 391.42903518792633,513.4853142171751 L 379.33202830478575,541.1803603814943 L 367.2350214216452,513.4853142171751 L 339.09779087445156,524.5147935661107 L 350.12727022338714,496.37756301891704 L 322.4322240590679,484.28055613577646 L 350.12727022338714,472.1835492526359 L 339.09779087445156,444.0463187054423 L 367.2350214216452,455.07579805437786 Z" fill="none" stroke="#FFFFFF" stroke-width="2.465022684058651" /><path d="M 505.77603773971435,427.3807518900586 L 517.8730446228549,455.07579805437786 L 546.0102751700485,444.0463187054423 L 534.980795821113,472.1835492526359 L 562.6758419854323,484.28055613577646 L 534.980795821113,496.37756301891704 L 546.0102751700485,524.5147935661107 L 517.8730446228549,513.4853142171751 L 505.77603773971435,541.1803603814943 L 493.6790308565738,513.4853142171751 L 465.54180030938016,524.5147935661107 L 476.57127965831575,496.37756301891704 L 448.8762334939965,484.28055613577646 L 476.57127965831575,472.1835492526359 L 465.54180030938016,444.0463187054423 L 493.6790308565738,455.07579805437786 Z" fill="none" stroke="#FFFFFF" stroke-width="2.465022684058651" /><path d="M 632.2200471746429,427.3807518900586 L 644.3170540577835,455.07579805437786 L 672.4542846049771,444.0463187054423 L 661.4248052560415,472.1835492526359 L 689.1198514203608,484.28055613577646 L 661.4248052560415,496.37756301891704 L 672.4542846049771,524.5147935661107 L 644.3170540577835,513.4853142171751 L 632.2200471746429,541.1803603814943 L 620.1230402915023,513.4853142171751 L 591.9858097443087,524.5147935661107 L 603.0152890932443,496.37756301891704 L 575.320242928925,484.28055613577646 L 603.0152890932443,472.1835492526359 L 591.9858097443087,444.0463187054423 L 620.1230402915023,455.07579805437786 Z" fill="none" stroke="#FFFFFF" stroke-width="2.465022684058651" /><path d="M 758.6640566095715,427.3807518900586 L 770.7610634927121,455.07579805437786 L 798.8982940399057,444.0463187054423 L 787.8688146909701,472.1835492526359 L 815.5638608552894,484.28055613577646 L 787.8688146909701,496.37756301891704 L 798.8982940399057,524.5147935661107 L 770.7610634927121,513.4853142171751 L 758.6640566095715,541.1803603814943 L 746.5670497264309,513.4853142171751 L 718.4298191792373,524.5147935661107 L 729.4592985281729,496.37756301891704 L 701.7642523638536,484.28055613577646 L 729.4592985281729,472.1835492526359 L 718.4298191792373,444.0463187054423 L 746.5670497264309,455.07579805437786 Z" fill="none" stroke="#FFFFFF" stroke-width="2.465022684058651" /><path d="M 885.1080660445001,427.3807518900586 L 897.2050729276407,455.07579805437786 L 925.3423034748344,444.0463187054423 L 914.3128241258987,472.1835492526359 L 942.007870290218,484.28055613577646 L 914.3128241258987,496.37756301891704 L 925.3423034748344,524.5147935661107 L 897.2050729276407,513.4853142171751 L 885.1080660445001,541.1803603814943 L 873.0110591613595,513.4853142171751 L 844.8738286141659,524.5147935661107 L 855.9033079631015,496.37756301891704 L 828.2082617987822,484.28055613577646 L 855.9033079631015,472.1835492526359 L 844.8738286141659,444.0463187054423 L 873.0110591613595,455.07579805437786 Z" fill="none" stroke="#FFFFFF" stroke-width="2.465022684058651" /><path d="M 1011.5520754794287,427.3807518900586 L 1023.6490823625693,455.07579805437786 L 1051.786312909763,444.0463187054423 L 1040.7568335608273,472.1835492526359 L 1068.4518797251467,484.28055613577646 L 1040.7568335608273,496.37756301891704 L 1051.786312909763,524.5147935661107 L 1023.6490823625693,513.4853142171751 L 1011.5520754794287,541.1803603814943 L 999.4550685962881,513.4853142171751 L 971.3178380490945,524.5147935661107 L 982.3473173980301,496.37756301891704 L 954.6522712337108,484.28055613577646 L 982.3473173980301,472.1835492526359 L 971.3178380490945,444.0463187054423 L 999.4550685962881,455.07579805437786 Z" fill="none" stroke="#FFFFFF" stroke-width="2.465022684058651" /><path d="M 1137.9960849143572,427.3807518900586 L 1150.0930917974977,455.07579805437786 L 1178.2303223446913,444.0463187054423 L 1167.200842995756,472.1835492526359 L 1194.895889160075,484.28055613577646 L 1167.200842995756,496.37756301891704 L 1178.2303223446913,524.5147935661107 L 1150.0930917974977,513.4853142171751 L 1137.9960849143572,541.1803603814943 L 1125.8990780312167,513.4853142171751 L 1097.761847484023,524.5147935661107 L 1108.7913268329585,496.37756301891704 L 1081.0962806686393,484.28055613577646 L 1108.7913268329585,472.1835492526359 L 1097.761847484023,444.0463187054423 L 1125.8990780312165,455.07579805437786 Z" fill="none" stroke="#FFFFFF" stroke-width="2.465022684058651" /><path d="M 1264.4400943492858,427.3807518900586 L 1276.5371012324263,455.07579805437786 L 1304.67433177962,444.0463187054423 L 1293.6448524306845,472.1835492526359 L 1321.3398985950037,484.28055613577646 L 1293.6448524306845,496.37756301891704 L 1304.67433177962,524.5147935661107 L 1276.5371012324263,513.4853142171751 L 1264.4400943492858,541.1803603814943 L 1252.3430874661453,513.4853142171751 L 1224.2058569189517,524.5147935661107 L 1235.235336267887,496.37756301891704 L 1207.540290103568,484.28055613577646 L 1235.235336267887,472.1835492526359 L 1224.2058569189517,444.0463187054423 L 1252.343087466145,455.07579805437786 Z" fill="none" stroke="#FFFFFF" stroke-width="2.465022684058651" /><path d="M -63.222004717464294,536.8812640607067 L -51.12499783432372,564.576310225026 L -22.987767287130083,553.5468308760903 L -34.01724663606566,581.684061423284 L -6.322200471746427,593.7810683064246 L -34.01724663606566,605.8780751895652 L -22.987767287130083,634.0153057367588 L -51.12499783432372,622.9858263878232 L -63.222004717464294,650.6808725521424 L -75.31901160060485,622.9858263878232 L -103.4562421477985,634.0153057367588 L -92.42676279886292,605.8780751895652 L -120.12180896318216,593.7810683064246 L -92.42676279886292,581.684061423284 L -103.45624214779852,553.5468308760903 L -75.31901160060488,564.576310225026 Z" fill="none" stroke="#FFFFFF" stroke-width="2.465022684058651" /><path d="M 63.222004717464294,536.8812640607067 L 75.31901160060487,564.576310225026 L 103.4562421477985,553.5468308760903 L 92.42676279886294,581.684061423284 L 120.12180896318216,593.7810683064246 L 92.42676279886294,605.8780751895652 L 103.4562421477985,634.0153057367588 L 75.31901160060487,622.9858263878232 L 63.222004717464294,650.6808725521424 L 51.12499783432373,622.9858263878232 L 22.987767287130083,634.0153057367588 L 34.017246636065664,605.8780751895652 L 6.322200471746427,593.7810683064246 L 34.017246636065664,581.684061423284 L 22.987767287130076,553.5468308760903 L 51.12499783432371,564.576310225026 Z" fill="none" stroke="#FFFFFF" stroke-width="2.465022684058651" /><path d="M 189.66601415239288,536.8812640607067 L 201.76302103553346,564.576310225026 L 229.9002515827271,553.5468308760903 L 218.8707722337915,581.684061423284 L 246.56581839811074,593.7810683064246 L 218.8707722337915,605.8780751895652 L 229.9002515827271,634.0153057367588 L 201.76302103553346,622.9858263878232 L 189.66601415239288,650.6808725521424 L 177.56900726925232,622.9858263878232 L 149.43177672205866,634.0153057367588 L 160.46125607099424,605.8780751895652 L 132.76620990667502,593.7810683064246 L 160.46125607099424,581.684061423284 L 149.43177672205866,553.5468308760903 L 177.5690072692523,564.576310225026 Z" fill="none" stroke="#FFFFFF" stroke-width="2.465022684058651" /><path d="M 316.11002358732145,536.8812640607067 L 328.20703047046203,564.576310225026 L 356.34426101765564,553.5468308760903 L 345.3147816687201,581.684061423284 L 373.0098278330393,593.7810683064246 L 345.3147816687201,605.8780751895652 L 356.34426101765564,634.0153057367588 L 328.20703047046203,622.9858263878232 L 316.11002358732145,650.6808725521424 L 304.01301670418087,622.9858263878232 L 275.87578615698726,634.0153057367588 L 286.90526550592284,605.8780751895652 L 259.2102193416036,593.7810683064246 L 286.90526550592284,581.684061423284 L 275.87578615698726,553.5468308760903 L 304.01301670418087,564.576310225026 Z" fill="none" stroke="#FFFFFF" stroke-width="2.465022684058651" /><path d="M 442.55403302225005,536.8812640607067 L 454.65103990539063,564.576310225026 L 482.78827045258424,553.5468308760903 L 471.7587911036487,581.684061423284 L 499.4538372679679,593.7810683064246 L 471.7587911036487,605.8780751895652 L 482.78827045258424,634.0153057367588 L 454.65103990539063,622.9858263878232 L 442.55403302225005,650.6808725521424 L 430.4570261391095,622.9858263878232 L 402.31979559191586,634.0153057367588 L 413.34927494085144,605.8780751895652 L 385.6542287765322,593.7810683064246 L 413.34927494085144,581.684061423284 L 402.31979559191586,553.5468308760903 L 430.4570261391095,564.576310225026 Z" fill="none" stroke="#FFFFFF" stroke-width="2.465022684058651" /><path d="M 568.9980424571786,536.8812640607067 L 581.0950493403192,564.576310225026 L 609.2322798875128,553.5468308760903 L 598.2028005385772,581.684061423284 L 625.8978467028965,593.7810683064246 L 598.2028005385772,605.8780751895652 L 609.2322798875128,634.0153057367588 L 581.0950493403192,622.9858263878232 L 568.9980424571786,650.6808725521424 L 556.901035574038,622.9858263878232 L 528.7638050268444,634.0153057367588 L 539.79328437578,605.8780751895652 L 512.0982382114607,593.7810683064246 L 539.79328437578,581.684061423284 L 528.7638050268444,553.5468308760903 L 556.901035574038,564.576310225026 Z" fill="none" stroke="#FFFFFF" stroke-width="2.465022684058651" /><path d="M 695.4420518921072,536.8812640607067 L 707.5390587752478,564.576310225026 L 735.6762893224414,553.5468308760903 L 724.6468099735058,581.684061423284 L 752.3418561378251,593.7810683064246 L 724.6468099735058,605.8780751895652 L 735.6762893224414,634.0153057367588 L 707.5390587752478,622.9858263878232 L 695.4420518921072,650.6808725521424 L 683.3450450089666,622.9858263878232 L 655.207814461773,634.0153057367588 L 666.2372938107086,605.8780751895652 L 638.5422476463893,593.7810683064246 L 666.2372938107086,581.684061423284 L 655.207814461773,553.5468308760903 L 683.3450450089666,564.576310225026 Z" fill="none" stroke="#FFFFFF" stroke-width="2.465022684058651" /><path d="M 821.8860613270358,536.8812640607067 L 833.9830682101764,564.576310225026 L 862.12029875737,553.5468308760903 L 851.0908194084344,581.684061423284 L 878.7858655727537,593.7810683064246 L 851.0908194084344,605.8780751895652 L 862.12029875737,634.0153057367588 L 833.9830682101764,622.9858263878232 L 821.8860613270358,650.6808725521424 L 809.7890544438952,622.9858263878232 L 781.6518238967016,634.0153057367588 L 792.6813032456372,605.8780751895652 L 764.986257081318,593.7810683064246 L 792.6813032456372,581.684061423284 L 781.6518238967016,553.5468308760903 L 809.7890544438952,564.576310225026 Z" fill="none" stroke="#FFFFFF" stroke-width="2.465022684058651" /><path d="M 948.3300707619644,536.8812640607067 L 960.427077645105,564.576310225026 L 988.5643081922987,553.5468308760903 L 977.534828843363,581.684061423284 L 1005.2298750076823,593.7810683064246 L 977.534828843363,605.8780751895652 L 988.5643081922987,634.0153057367588 L 960.427077645105,622.9858263878232 L 948.3300707619644,650.6808725521424 L 936.2330638788238,622.9858263878232 L 908.0958333316302,634.0153057367588 L 919.1253126805658,605.8780751895652 L 891.4302665162465,593.7810683064246 L 919.1253126805658,581.684061423284 L 908.0958333316302,553.5468308760903 L 936.2330638788238,564.576310225026 Z" fill="none" stroke="#FFFFFF" stroke-width="2.465022684058651" /><path d="M 1074.774080196893,536.8812640607067 L 1086.8710870800335,564.576310225026 L 1115.0083176272271,553.5468308760903 L 1103.9788382782917,581.684061423284 L 1131.6738844426109,593.7810683064246 L 1103.9788382782917,605.8780751895652 L 1115.0083176272271,634.0153057367588 L 1086.8710870800335,622.9858263878232 L 1074.774080196893,650.6808725521424 L 1062.6770733137525,622.9858263878232 L 1034.5398427665589,634.0153057367588 L 1045.5693221154943,605.8780751895652 L 1017.8742759511752,593.7810683064246 L 1045.5693221154943,581.684061423284 L 1034.5398427665589,553.5468308760903 L 1062.6770733137523,564.576310225026 Z" fill="none" stroke="#FFFFFF" stroke-width="2.465022684058651" /><path d="M 1201.2180896318216,536.8812640607067 L 1213.315096514962,564.576310225026 L 1241.4523270621557,553.5468308760903 L 1230.4228477132203,581.684061423284 L 1258.1178938775395,593.7810683064246 L 1230.4228477132203,605.8780751895652 L 1241.4523270621557,634.0153057367588 L 1213.315096514962,622.9858263878232 L 1201.2180896318216,650.6808725521424 L 1189.1210827486811,622.9858263878232 L 1160.9838522014875,634.0153057367588 L 1172.013331550423,605.8780751895652 L 1144.3182853861038,593.7810683064246 L 1172.013331550423,581.684061423284 L 1160.9838522014875,553.5468308760903 L 1189.121082748681,564.576310225026 Z" fill="none" stroke="#FFFFFF" stroke-width="2.465022684058651" /><line x1="56.89980424571787" y1="46.278507453183856" x2="69.54420518921071" y2="46.278507453183856" stroke="#FFFFFF" stroke-width="0.5"/><line x1="183.34381368064646" y1="46.278507453183856" x2="195.98821462413932" y2="46.278507453183856" stroke="#FFFFFF" stroke-width="0.5"/><line x1="309.78782311557507" y1="46.278507453183856" x2="322.4322240590679" y2="46.278507453183856" stroke="#FFFFFF" stroke-width="0.5"/><line x1="436.2318325505036" y1="46.278507453183856" x2="448.8762334939965" y2="46.278507453183856" stroke="#FFFFFF" stroke-width="0.5"/><line x1="562.6758419854323" y1="46.278507453183856" x2="575.320242928925" y2="46.278507453183856" stroke="#FFFFFF" stroke-width="0.5"/><line x1="689.1198514203608" y1="46.278507453183856" x2="701.7642523638536" y2="46.278507453183856" stroke="#FFFFFF" stroke-width="0.5"/><line x1="815.5638608552894" y1="46.278507453183856" x2="828.2082617987822" y2="46.278507453183856" stroke="#FFFFFF" stroke-width="0.5"/><line x1="942.007870290218" y1="46.278507453183856" x2="954.6522712337108" y2="46.278507453183856" stroke="#FFFFFF" stroke-width="0.5"/><line x1="1068.4518797251467" y1="46.278507453183856" x2="1081.0962806686393" y2="46.278507453183856" stroke="#FFFFFF" stroke-width="0.5"/><line x1="120.12180896318216" y1="155.779019623832" x2="132.76620990667502" y2="155.779019623832" stroke="#FFFFFF" stroke-width="0.5"/><line x1="246.56581839811074" y1="155.779019623832" x2="259.2102193416036" y2="155.779019623832" stroke="#FFFFFF" stroke-width="0.5"/><line x1="373.0098278330393" y1="155.779019623832" x2="385.6542287765322" y2="155.779019623832" stroke="#FFFFFF" stroke-width="0.5"/><line x1="499.4538372679679" y1="155.779019623832" x2="512.0982382114607" y2="155.779019623832" stroke="#FFFFFF" stroke-width="0.5"/><line x1="625.8978467028965" y1="155.779019623832" x2="638.5422476463893" y2="155.779019623832" stroke="#FFFFFF" stroke-width="0.5"/><line x1="752.3418561378251" y1="155.779019623832" x2="764.986257081318" y2="155.779019623832" stroke="#FFFFFF" stroke-width="0.5"/><line x1="878.7858655727537" y1="155.779019623832" x2="891.4302665162465" y2="155.779019623832" stroke="#FFFFFF" stroke-width="0.5"/><line x1="1005.2298750076823" y1="155.779019623832" x2="1017.8742759511752" y2="155.779019623832" stroke="#FFFFFF" stroke-width="0.5"/><line x1="1131.6738844426109" y1="155.779019623832" x2="1144.3182853861038" y2="155.779019623832" stroke="#FFFFFF" stroke-width="0.5"/><line x1="56.89980424571787" y1="265.27953179448014" x2="69.54420518921071" y2="265.27953179448014" stroke="#FFFFFF" stroke-width="0.5"/><line x1="183.34381368064646" y1="265.27953179448014" x2="195.98821462413932" y2="265.27953179448014" stroke="#FFFFFF" stroke-width="0.5"/><line x1="309.78782311557507" y1="265.27953179448014" x2="322.4322240590679" y2="265.27953179448014" stroke="#FFFFFF" stroke-width="0.5"/><line x1="436.2318325505036" y1="265.27953179448014" x2="448.8762334939965" y2="265.27953179448014" stroke="#FFFFFF" stroke-width="0.5"/><line x1="562.6758419854323" y1="265.27953179448014" x2="575.320242928925" y2="265.27953179448014" stroke="#FFFFFF" stroke-width="0.5"/><line x1="689.1198514203608" y1="265.27953179448014" x2="701.7642523638536" y2="265.27953179448014" stroke="#FFFFFF" stroke-width="0.5"/><line x1="815.5638608552894" y1="265.27953179448014" x2="828.2082617987822" y2="265.27953179448014" stroke="#FFFFFF" stroke-width="0.5"/><line x1="942.007870290218" y1="265.27953179448014" x2="954.6522712337108" y2="265.27953179448014" stroke="#FFFFFF" stroke-width="0.5"/><line x1="1068.4518797251467" y1="265.27953179448014" x2="1081.0962806686393" y2="265.27953179448014" stroke="#FFFFFF" stroke-width="0.5"/><line x1="120.12180896318216" y1="374.7800439651283" x2="132.76620990667502" y2="374.7800439651283" stroke="#FFFFFF" stroke-width="0.5"/><line x1="246.56581839811074" y1="374.7800439651283" x2="259.2102193416036" y2="374.7800439651283" stroke="#FFFFFF" stroke-width="0.5"/><line x1="373.0098278330393" y1="374.7800439651283" x2="385.6542287765322" y2="374.7800439651283" stroke="#FFFFFF" stroke-width="0.5"/><line x1="499.4538372679679" y1="374.7800439651283" x2="512.0982382114607" y2="374.7800439651283" stroke="#FFFFFF" stroke-width="0.5"/><line x1="625.8978467028965" y1="374.7800439651283" x2="638.5422476463893" y2="374.7800439651283" stroke="#FFFFFF" stroke-width="0.5"/><line x1="752.3418561378251" y1="374.7800439651283" x2="764.986257081318" y2="374.7800439651283" stroke="#FFFFFF" stroke-width="0.5"/><line x1="878.7858655727537" y1="374.7800439651283" x2="891.4302665162465" y2="374.7800439651283" stroke="#FFFFFF" stroke-width="0.5"/><line x1="1005.2298750076823" y1="374.7800439651283" x2="1017.8742759511752" y2="374.7800439651283" stroke="#FFFFFF" stroke-width="0.5"/><line x1="1131.6738844426109" y1="374.7800439651283" x2="1144.3182853861038" y2="374.7800439651283" stroke="#FFFFFF" stroke-width="0.5"/><line x1="56.89980424571787" y1="484.28055613577646" x2="69.54420518921071" y2="484.28055613577646" stroke="#FFFFFF" stroke-width="0.5"/><line x1="183.34381368064646" y1="484.28055613577646" x2="195.98821462413932" y2="484.28055613577646" stroke="#FFFFFF" stroke-width="0.5"/><line x1="309.78782311557507" y1="484.28055613577646" x2="322.4322240590679" y2="484.28055613577646" stroke="#FFFFFF" stroke-width="0.5"/><line x1="436.2318325505036" y1="484.28055613577646" x2="448.8762334939965" y2="484.28055613577646" stroke="#FFFFFF" stroke-width="0.5"/><line x1="562.6758419854323" y1="484.28055613577646" x2="575.320242928925" y2="484.28055613577646" stroke="#FFFFFF" stroke-width="0.5"/><line x1="689.1198514203608" y1="484.28055613577646" x2="701.7642523638536" y2="484.28055613577646" stroke="#FFFFFF" stroke-width="0.5"/><line x1="815.5638608552894" y1="484.28055613577646" x2="828.2082617987822" y2="484.28055613577646" stroke="#FFFFFF" stroke-width="0.5"/><line x1="942.007870290218" y1="484.28055613577646" x2="954.6522712337108" y2="484.28055613577646" stroke="#FFFFFF" stroke-width="0.5"/><line x1="1068.4518797251467" y1="484.28055613577646" x2="1081.0962806686393" y2="484.28055613577646" stroke="#FFFFFF" stroke-width="0.5"/><line x1="120.12180896318216" y1="593.7810683064246" x2="132.76620990667502" y2="593.7810683064246" stroke="#FFFFFF" stroke-width="0.5"/><line x1="246.56581839811074" y1="593.7810683064246" x2="259.2102193416036" y2="593.7810683064246" stroke="#FFFFFF" stroke-width="0.5"/><line x1="373.0098278330393" y1="593.7810683064246" x2="385.6542287765322" y2="593.7810683064246" stroke="#FFFFFF" stroke-width="0.5"/><line x1="499.4538372679679" y1="593.7810683064246" x2="512.0982382114607" y2="593.7810683064246" stroke="#FFFFFF" stroke-width="0.5"/><line x1="625.8978467028965" y1="593.7810683064246" x2="638.5422476463893" y2="593.7810683064246" stroke="#FFFFFF" stroke-width="0.5"/><line x1="752.3418561378251" y1="593.7810683064246" x2="764.986257081318" y2="593.7810683064246" stroke="#FFFFFF" stroke-width="0.5"/><line x1="878.7858655727537" y1="593.7810683064246" x2="891.4302665162465" y2="593.7810683064246" stroke="#FFFFFF" stroke-width="0.5"/><line x1="1005.2298750076823" y1="593.7810683064246" x2="1017.8742759511752" y2="593.7810683064246" stroke="#FFFFFF" stroke-width="0.5"/><line x1="1131.6738844426109" y1="593.7810683064246" x2="1144.3182853861038" y2="593.7810683064246" stroke="#FFFFFF" stroke-width="0.5"/></g><g opacity="0.14817185406487987"><path d="M 799.6495444325961 67.07932236934049 L 799.6495444325961 105.33616864005346 L 832.2291270339147 105.33616864005346 L 832.2291270339147 141.64248114751766" fill="none" stroke="#FFFFFF" stroke-width="2.2376720913395625" stroke-linecap="square"/><path d="M 632.3919656837321 326.84318676909584 L 632.3919656837321 296.6917415977277 L 594.4895639329384 296.6917415977277 L 594.4895639329384 335.92745816162795" fill="none" stroke="#FFFFFF" stroke-width="2.2376720913395625" stroke-linecap="square"/><circle cx="594.4895639329384" cy="335.92745816162795" r="6.79276436790487" fill="#FFFFFF"/><circle cx="632.3919656837321" cy="326.84318676909584" r="5.434211494323897" fill="#FFFFFF"/><rect x="372.1037083982864" y="535.3229505702386" width="11.009730428576638" height="11.009730428576638" fill="#FFFFFF"/></g><g opacity="0.2"><rect x="40" y="40" width="1120" height="550" fill="none" stroke="#444444" stroke-width="2" rx="8"/></g><g opacity="0.8501607181272286"><line x1="50" y1="50" x2="70" y2="50" stroke="#888888" stroke-width="3"/><line x1="50" y1="50" x2="50" y2="70" stroke="#888888" stroke-width="3"/><line x1="1150" y1="580" x2="1130" y2="580" stroke="#888888" stroke-width="3"/><line x1="1150" y1="580" x2="1150" y2="560" stroke="#888888" stroke-width="3"/></g></svg>